<?xml version="1.0" encoding="UTF-8" standalone="no"?>
<!-- Created with Inkscape (http://www.inkscape.org/) -->

<svg
   xmlns:dc="http://purl.org/dc/elements/1.1/"
   xmlns:cc="http://creativecommons.org/ns#"
   xmlns:rdf="http://www.w3.org/1999/02/22-rdf-syntax-ns#"
   xmlns:svg="http://www.w3.org/2000/svg"
   xmlns="http://www.w3.org/2000/svg"
   xmlns:xlink="http://www.w3.org/1999/xlink"
   xmlns:sodipodi="http://sodipodi.sourceforge.net/DTD/sodipodi-0.dtd"
   xmlns:inkscape="http://www.inkscape.org/namespaces/inkscape"
   id="svg2"
   height="96"
   width="96"
   version="1.1"
   inkscape:version="0.48.4 r9939"
   sodipodi:docname="media-playlist-repeat (copy).svg">
  <sodipodi:namedview
     pagecolor="#ffffff"
     bordercolor="#666666"
     borderopacity="1"
     objecttolerance="10"
     gridtolerance="10"
     guidetolerance="10"
     inkscape:pageopacity="0"
     inkscape:pageshadow="2"
     inkscape:window-width="640"
     inkscape:window-height="480"
     id="namedview33"
     showgrid="false"
     inkscape:zoom="2.4583333"
     inkscape:cx="48"
     inkscape:cy="48"
     inkscape:window-x="0"
     inkscape:window-y="24"
     inkscape:window-maximized="0"
     inkscape:current-layer="svg2" />
  <defs
     id="defs4">
    <linearGradient
       id="linearGradient90466"
       y2="138.66"
       gradientUnits="userSpaceOnUse"
       x2="48"
       y1="20.221"
       x1="48">
      <stop
         id="stop3739-532"
         stop-color="#fff"
         offset="0" />
      <stop
         id="stop3741-666"
         stop-color="#fff"
         stop-opacity="0"
         offset="1" />
    </linearGradient>
    <clipPath
       id="clipPath3613-55">
      <rect
         id="rect3615-88"
         rx="6"
         ry="6"
         height="84"
         width="84"
         y="6"
         x="6"
         fill="#fff" />
    </clipPath>
    <filter
       id="filter3794-41"
       height="1.384"
       width="1.384"
       color-interpolation-filters="sRGB"
       y="-.192"
       x="-.192">
      <feGaussianBlur
         id="feGaussianBlur3796-50"
         stdDeviation="5.28" />
    </filter>
    <linearGradient
       id="linearGradient3182"
       y2="5.9877"
       gradientUnits="userSpaceOnUse"
       y1="90"
       gradientTransform="matrix(-1.125,0,0,1.0417,103.72,953.2)"
       x2="48"
       x1="48">
      <stop
         id="stop4083"
         stop-color="#8c8c8c"
         offset="0" />
      <stop
         id="stop4085"
         stop-color="#dcdcdc"
         offset="1" />
    </linearGradient>
    <linearGradient
       id="linearGradient9010"
       y2="19.983"
       gradientUnits="userSpaceOnUse"
       x2="9.3966"
       gradientTransform="matrix(3.3282,0,0,2.7042,14.984,957.36)"
       y1="5.547"
       x1="9.3966">
      <stop
         id="stop4283-9-4"
         stop-color="#1e1e1e"
         offset="0" />
      <stop
         id="stop4285-8-3"
         stop-color="#505050"
         offset="1" />
    </linearGradient>
    <linearGradient
       inkscape:collect="always"
       xlink:href="#linearGradient3182"
       id="linearGradient3021"
       gradientUnits="userSpaceOnUse"
       gradientTransform="matrix(-1.125,0,0,1.0417,103.72,-3.16)"
       x1="48"
       y1="90"
       x2="48"
       y2="5.9877" />
    <linearGradient
       inkscape:collect="always"
       xlink:href="#linearGradient4281-6"
       id="linearGradient3121"
       gradientUnits="userSpaceOnUse"
       gradientTransform="matrix(3.5300904,0,0,2.5495098,16,18)"
       x1="7.9406605"
       y1="5.0990195"
       x2="7.9406605"
       y2="19.219381" />
    <linearGradient
       id="linearGradient4281-6">
      <stop
         id="stop4283-9"
         style="stop-color:#1e1e1e;stop-opacity:1"
         offset="0" />
      <stop
         id="stop4285-8"
         style="stop-color:#505050;stop-opacity:1"
         offset="1" />
    </linearGradient>
    <linearGradient
       y2="19.219381"
       x2="7.9406605"
       y1="5.0990195"
       x1="7.9406605"
       gradientTransform="matrix(3.5300904,0,0,2.5495098,15,14.466102)"
       gradientUnits="userSpaceOnUse"
       id="linearGradient3149"
       xlink:href="#linearGradient4281-6"
       inkscape:collect="always" />
  </defs>
  <metadata
     id="metadata7">
    <rdf:RDF>
      <cc:Work
         rdf:about="">
        <dc:format>image/svg+xml</dc:format>
        <dc:type
           rdf:resource="http://purl.org/dc/dcmitype/StillImage" />
        <dc:title />
      </cc:Work>
    </rdf:RDF>
  </metadata>
  <rect
     style="fill-opacity:0.03921599"
     x="-92.362999"
     y="3.6899879"
     width="88.762001"
     height="88.762001"
     ry="12.552"
     transform="scale(-1,1)"
     id="rect5261-6" />
  <rect
     style="fill-opacity:0.07843101"
     x="-91.754997"
     y="4.299973"
     width="87.545998"
     height="87.545998"
     ry="12.38"
     transform="scale(-1,1)"
     id="rect5259-9" />
  <rect
     style="fill-opacity:0.15685999"
     x="-91.147003"
     y="4.9000096"
     width="86.330002"
     height="86.330002"
     ry="12.208"
     transform="scale(-1,1)"
     id="rect5257-5" />
  <path
     inkscape:connector-curvature="0"
     style="opacity:0.9;fill:url(#linearGradient3021)"
     d="m 78.502,5.5 c 6.668,0 12.031,5.3945 12.031,12.062 v 61.031 c 0,5.4178 -3.5332,9.9818 -8.4375,11.5 H 13.9075 C 9.1927,88.6362 5.7356,84.3593 5.47,79.218 V 16.937 c 0.32117,-6.3771 5.5404,-11.438 12,-11.438 h 61.031 z"
     id="rect2419" />
  <path
     style="fill-opacity:0.23528999"
     inkscape:connector-curvature="0"
     d="m 90.539,73.54 v 5.0663 c 0,6.668 -5.3645,12.032 -12.032,12.032 H 17.458 c -6.668,0 -12.032,-5.3645 -12.032,-12.032 V 73.54 c 0,6.6681 5.3645,12.032 12.032,12.032 h 61.049 c 6.668,0 12.032,-5.3643 12.032,-12.032 z"
     id="rect5265-0" />
  <path
     style="fill-opacity:0.09803898"
     inkscape:connector-curvature="0"
     d="m 90.539,77.54 v 1.0133 c 0,6.668 -5.3645,12.032 -12.032,12.032 H 17.458 c -6.668,0 -12.032,-5.3645 -12.032,-12.032 V 77.54 c 0,6.6681 5.3645,12.032 12.032,12.032 h 61.049 c 6.668,0 12.032,-5.3644 12.032,-12.032 z"
     id="path5252-0" />
  <g
     transform="matrix(-1,0,0,1,96.471,-2.41)"
     id="layer5">
    <rect
       style="opacity:0.3;fill:url(#linearGradient90466);stroke:#ffffff;stroke-width:0.5;stroke-linecap:round;filter:url(#filter3794-41)"
       x="15"
       y="15"
       clip-path="url(#clipPath3613-55)"
       width="66"
       ry="12"
       rx="12"
       height="66"
       id="rect3171" />
  </g>
  <path
     style="fill:url(#linearGradient3149);fill-opacity:1;fill-rule:nonzero;stroke:none"
     id="path4034"
     inkscape:connector-curvature="0"
     d="m 60.000003,26.466102 0,6 -6.09375,0 c -3.68067,0 -6.76974,1.621299 -9,3.65625 -1.45947,1.331649 -2.58994,2.82195 -3.65625,4.3125 l -4.21875,5.90625 c -0.62445,0.774408 -1.2356,1.497354 -1.875,2.0625 -1.5097,1.33437 -2.96376,2.0625 -5.25,2.0625 l -8.906253,0 0,6 8.906253,0 c 3.76953,0 6.88619,-1.528446 9.1875,-3.5625 0.62936,-0.556272 1.15314,-1.17165 1.6875,-1.78125 1.32121,-1.739436 2.62617,-3.500124 3.9375,-5.25 1.44454,-2.13639 2.82072,-4.068156 4.21875,-5.34375 1.46146,-1.333473 2.83219,-2.0625 4.96875,-2.0625 l 6.09375,0 0,6 15,-9 -15,-9 z m -39.000003,8 0,6 8.906253,0 c 2.28624,0 3.7403,0.72813 5.25,2.0625 0.2451,0.216639 0.4796,0.461725 0.71875,0.71875 l 3.15625,-4.40625 c 0.11968,-0.167293 0.25138,-0.330318 0.375,-0.5 -0.10632,-0.102734 -0.20012,-0.213166 -0.3125,-0.3125 -2.30131,-2.034054 -5.41797,-3.5625 -9.1875,-3.5625 l -8.906253,0 z m 39.000003,12 0,6 -6.09375,0 c -2.13656,0 -3.50729,-0.729027 -4.96875,-2.0625 -0.76012,-0.693546 -1.51956,-1.584833 -2.28125,-2.59375 -1.22046,1.629497 -2.44302,3.298679 -3.6875,4.9375 0.59054,0.713447 1.21912,1.407039 1.9375,2.0625 2.23026,2.034951 5.31933,3.65625 9,3.65625 l 6.09375,0 0,6 15,-9 -15,-9 z" />
  <path
     style="opacity:0.6;fill:#ffffff;fill-opacity:1;fill-rule:nonzero;stroke:none"
     id="path4059"
     inkscape:connector-curvature="0"
     d="m 74.156253,35.966102 -14.15625,8.5 0,1 15,-9 -0.84375,-0.5 z m -20.25,2.5 c -2.13656,0 -3.50729,0.729027 -4.96875,2.0625 -1.39803,1.275594 -2.77421,3.20736 -4.21875,5.34375 -1.31133,1.749876 -2.61629,3.510564 -3.9375,5.25 -0.53436,0.6096 -1.05814,1.224978 -1.6875,1.78125 -2.30131,2.034054 -5.41797,3.5625 -9.1875,3.5625 l -8.906253,0 0,1 8.906253,0 c 3.76953,0 6.88619,-1.528446 9.1875,-3.5625 0.62936,-0.556272 1.15314,-1.17165 1.6875,-1.78125 1.32121,-1.739436 2.62617,-3.500124 3.9375,-5.25 1.44454,-2.13639 2.82072,-4.068156 4.21875,-5.34375 1.46146,-1.333473 2.83219,-2.0625 4.96875,-2.0625 l 6.09375,0 0,-1 -6.09375,0 z m -14.9375,0.46875 -3.09375,4.3125 c -0.23915,-0.257025 -0.47365,-0.502111 -0.71875,-0.71875 -1.5097,-1.33437 -2.96376,-2.0625 -5.25,-2.0625 l -8.906253,0 0,1 8.906253,0 c 2.28624,0 3.7403,0.72813 5.25,2.0625 0.2451,0.216639 0.4796,0.461725 0.71875,0.71875 l 3.15625,-4.40625 c 0.11968,-0.167293 0.25138,-0.330318 0.375,-0.5 -0.10632,-0.102734 -0.20012,-0.213166 -0.3125,-0.3125 -0.0382,-0.03373 -0.0864,-0.0603 -0.125,-0.09375 z m 4.40625,14.28125 c -0.13456,0.178465 -0.27121,0.35341 -0.40625,0.53125 0.59054,0.713447 1.21912,1.407039 1.9375,2.0625 2.23026,2.034951 5.31933,3.65625 9,3.65625 l 6.09375,0 0,-1 -6.09375,0 c -3.68067,0 -6.76974,-1.621299 -9,-3.65625 -0.55884,-0.509894 -1.05673,-1.046309 -1.53125,-1.59375 z m 30.78125,2.75 -14.15625,8.5 0,1 15,-9 -0.84375,-0.5 z" />
  <path
     style="opacity:0.1;fill:#000000;fill-opacity:1;fill-rule:nonzero;stroke:none"
     id="path4082"
     inkscape:connector-curvature="0"
     d="m 60.000003,26.466102 0,6 -6.09375,0 c -3.68067,0 -6.76974,1.621299 -9,3.65625 -1.45947,1.331649 -2.58994,2.82195 -3.65625,4.3125 l -4.21875,5.90625 c -0.62445,0.774408 -1.2356,1.497354 -1.875,2.0625 -1.5097,1.33437 -2.96376,2.0625 -5.25,2.0625 l -8.906253,0 0,6 8.906253,0 c 3.76953,0 6.88619,-1.528446 9.1875,-3.5625 0.62936,-0.556272 1.15314,-1.17165 1.6875,-1.78125 1.32121,-1.739436 2.62617,-3.500124 3.9375,-5.25 1.44454,-2.13639 2.82072,-4.068156 4.21875,-5.34375 1.46146,-1.333473 2.83219,-2.0625 4.96875,-2.0625 l 6.09375,0 0,6 15,-9 -15,-9 z m 1.625,2.84375 10.25,6.15625 -10.25,6.15625 0,-3.15625 a 1.6218146,1.6218146 0 0 0 -1.625,-1.625 l -6.09375,0 c -2.50545,0 -4.44548,1.024589 -6.0625,2.5 -1.59404,1.45444 -2.99371,3.428466 -4.4375,5.5625 -0.0134,0.01975 -0.0179,0.04272 -0.0313,0.0625 -1.27809,1.705907 -2.53576,3.411448 -3.8125,5.09375 -0.0226,0.02975 -0.0399,0.06401 -0.0625,0.09375 -0.51155,0.584113 -0.97537,1.095159 -1.46875,1.53125 -2.05898,1.819868 -4.79383,3.15625 -8.125,3.15625 l -7.281253,0 0,-2.75 7.281253,0 c 2.63055,0 4.635,-0.98606 6.3125,-2.46875 0.76939,-0.68004 1.42307,-1.457017 2.0625,-2.25 a 1.6218146,1.6218146 0 0 0 0.0625,-0.09375 l 4.21875,-5.90625 c 1.04835,-1.465446 2.11504,-2.855862 3.4375,-4.0625 1.99631,-1.821491 4.70179,-3.21875 7.90625,-3.21875 l 6.09375,0 a 1.6218146,1.6218146 0 0 0 1.625,-1.625 l 0,-3.15625 z M 21,34.466102 l 0,6 8.906253,0 c 2.28624,0 3.7403,0.72813 5.25,2.0625 0.2451,0.216639 0.4796,0.461725 0.71875,0.71875 l 3.15625,-4.40625 c 0.11968,-0.167293 0.25138,-0.330318 0.375,-0.5 -0.10632,-0.102734 -0.20012,-0.213166 -0.3125,-0.3125 -2.30131,-2.034054 -5.41797,-3.5625 -9.1875,-3.5625 l -8.906253,0 z m 1.625,1.625 7.281253,0 c 2.92258,0 5.30132,1.112483 7.25,2.59375 l -1.59375,2.21875 c -1.55468,-1.201142 -3.33303,-2.0625 -5.65625,-2.0625 l -7.281253,0 0,-2.75 z m 37.375003,10.375 0,6 -6.09375,0 c -2.13656,0 -3.50729,-0.729027 -4.96875,-2.0625 -0.76012,-0.693546 -1.51956,-1.584833 -2.28125,-2.59375 -1.22046,1.629497 -2.44302,3.298679 -3.6875,4.9375 0.59054,0.713447 1.21912,1.407039 1.9375,2.0625 2.23026,2.034951 5.31933,3.65625 9,3.65625 l 6.09375,0 0,6 15,-9 -15,-9 z m 1.625,2.84375 10.25,6.15625 -10.25,6.15625 0,-3.15625 a 1.6218146,1.6218146 0 0 0 -1.625,-1.625 l -6.09375,0 c -3.20446,0 -5.90994,-1.397259 -7.90625,-3.21875 -0.33917,-0.309461 -0.62895,-0.66621 -0.9375,-1 0.56939,-0.759658 1.15868,-1.495918 1.71875,-2.25 0.35811,0.400097 0.68496,0.874273 1.0625,1.21875 1.61702,1.475411 3.55705,2.5 6.0625,2.5 l 6.09375,0 a 1.6218146,1.6218146 0 0 0 1.625,-1.625 l 0,-3.15625 z" />
  <path
     style="opacity:0.2;fill:#000000;fill-opacity:1;fill-rule:nonzero;stroke:none"
     id="path4077"
     inkscape:connector-curvature="0"
     d="m 60.000003,26.466102 0,6 -6.09375,0 c -3.68067,0 -6.76974,1.621299 -9,3.65625 -1.45947,1.331649 -2.58994,2.82195 -3.65625,4.3125 l -4.21875,5.90625 c -0.62445,0.774408 -1.2356,1.497354 -1.875,2.0625 -1.5097,1.33437 -2.96376,2.0625 -5.25,2.0625 l -8.906253,0 0,6 8.906253,0 c 3.76953,0 6.88619,-1.528446 9.1875,-3.5625 0.62936,-0.556272 1.15314,-1.17165 1.6875,-1.78125 1.32121,-1.739436 2.62617,-3.500124 3.9375,-5.25 1.44454,-2.13639 2.82072,-4.068156 4.21875,-5.34375 1.46146,-1.333473 2.83219,-2.0625 4.96875,-2.0625 l 6.09375,0 0,6 15,-9 -15,-9 z m 0.875,1.53125 12.4375,7.46875 -12.4375,7.46875 0,-4.46875 a 0.86496782,0.86496782 0 0 0 -0.875,-0.875 l -6.09375,0 c -2.3333,0 -4.01808,0.903327 -5.5625,2.3125 -1.50159,1.370085 -2.86991,3.304992 -4.3125,5.4375 -0.008,0.01257 -0.0227,0.01867 -0.0313,0.03125 -1.29553,1.729043 -2.57564,3.476276 -3.875,5.1875 -0.009,0.01156 -0.0225,0.01969 -0.0313,0.03125 -0.52813,0.602927 -1.00274,1.161495 -1.5625,1.65625 -2.17207,1.919822 -5.08926,3.34375 -8.625,3.34375 l -8.031253,0 0,-4.25 8.031253,0 c 2.46987,0 4.21331,-0.867776 5.8125,-2.28125 0.70872,-0.626423 1.36756,-1.403185 2,-2.1875 a 0.86496782,0.86496782 0 0 0 0.0313,-0.03125 l 4.21875,-5.90625 c 1.05673,-1.477161 2.14486,-2.922524 3.53125,-4.1875 2.10549,-1.921106 4.97956,-3.40625 8.40625,-3.40625 l 6.09375,0 a 0.86496782,0.86496782 0 0 0 0.875,-0.875 l 0,-4.46875 z M 21,34.466102 l 0,6 8.906253,0 c 2.28624,0 3.7403,0.72813 5.25,2.0625 0.2451,0.216639 0.4796,0.461725 0.71875,0.71875 l 3.15625,-4.40625 c 0.11968,-0.167293 0.25138,-0.330318 0.375,-0.5 -0.10632,-0.102734 -0.20012,-0.213166 -0.3125,-0.3125 -2.30131,-2.034054 -5.41797,-3.5625 -9.1875,-3.5625 l -8.906253,0 z m 0.875,0.875 8.031253,0 c 3.39287,0 6.17138,1.353772 8.3125,3.15625 l -2.4375,3.4375 c -0.0222,-0.02017 -0.0399,-0.04252 -0.0625,-0.0625 -1.59919,-1.413474 -3.34263,-2.28125 -5.8125,-2.28125 l -8.031253,0 0,-4.25 z m 38.125003,11.125 0,6 -6.09375,0 c -2.13656,0 -3.50729,-0.729027 -4.96875,-2.0625 -0.76012,-0.693546 -1.51956,-1.584833 -2.28125,-2.59375 -1.22046,1.629497 -2.44302,3.298679 -3.6875,4.9375 0.59054,0.713447 1.21912,1.407039 1.9375,2.0625 2.23026,2.034951 5.31933,3.65625 9,3.65625 l 6.09375,0 0,6 15,-9 -15,-9 z m 0.875,1.53125 12.4375,7.46875 -12.4375,7.46875 0,-4.46875 a 0.86496782,0.86496782 0 0 0 -0.875,-0.875 l -6.09375,0 c -3.42669,0 -6.30076,-1.485144 -8.40625,-3.40625 -0.50965,-0.465014 -0.96332,-0.992328 -1.40625,-1.5 0.88345,-1.17249 1.75911,-2.336967 2.625,-3.5 0.53957,0.658042 1.06257,1.330581 1.625,1.84375 1.54442,1.409173 3.2292,2.3125 5.5625,2.3125 l 6.09375,0 a 0.86496782,0.86496782 0 0 0 0.875,-0.875 l 0,-4.46875 z" />
  <path
     style="opacity:0.6;fill:#000000;fill-opacity:1;fill-rule:nonzero;stroke:none"
     id="path4068"
     inkscape:connector-curvature="0"
     d="m 60.000003,26.466102 0,1 14.15625,8.5 0.84375,-0.5 -15,-9 z m -6.09375,6 c -3.68067,0 -6.76974,1.621299 -9,3.65625 -1.45947,1.331649 -2.58994,2.82195 -3.65625,4.3125 l -4.21875,5.90625 c -0.62445,0.774408 -1.2356,1.497354 -1.875,2.0625 -1.5097,1.33437 -2.96376,2.0625 -5.25,2.0625 l -8.906253,0 0,1 8.906253,0 c 2.28624,0 3.7403,-0.72813 5.25,-2.0625 0.6394,-0.565146 1.25055,-1.288092 1.875,-2.0625 l 4.21875,-5.90625 c 1.06631,-1.49055 2.19678,-2.980851 3.65625,-4.3125 2.23026,-2.034951 5.31933,-3.65625 9,-3.65625 l 6.09375,0 0,-1 -6.09375,0 z m -32.906253,2 0,1 8.906253,0 c 3.70701,0 6.7728,1.485198 9.0625,3.46875 l 0.0625,-0.09375 c 0.11968,-0.167293 0.25138,-0.330318 0.375,-0.5 -0.10632,-0.102734 -0.20012,-0.213166 -0.3125,-0.3125 -2.30131,-2.034054 -5.41797,-3.5625 -9.1875,-3.5625 l -8.906253,0 z m 39.000003,12 0,1 14.15625,8.5 0.84375,-0.5 -15,-9 z m -13.34375,1.34375 c -1.22046,1.629497 -2.44302,3.298679 -3.6875,4.9375 0.13115,0.158445 0.27078,0.312464 0.40625,0.46875 1.1054,-1.46612 2.19323,-2.953581 3.28125,-4.40625 0.76169,1.008917 1.52113,1.900204 2.28125,2.59375 1.46146,1.333473 2.83219,2.0625 4.96875,2.0625 l 6.09375,0 0,-1 -6.09375,0 c -2.13656,0 -3.50729,-0.729027 -4.96875,-2.0625 -0.76012,-0.693546 -1.51956,-1.584833 -2.28125,-2.59375 z" />
</svg>
