<?xml version="1.0" encoding="UTF-8" standalone="no"?>
<!-- Created with Inkscape (http://www.inkscape.org/) -->

<svg
   xmlns:dc="http://purl.org/dc/elements/1.1/"
   xmlns:cc="http://creativecommons.org/ns#"
   xmlns:rdf="http://www.w3.org/1999/02/22-rdf-syntax-ns#"
   xmlns:svg="http://www.w3.org/2000/svg"
   xmlns="http://www.w3.org/2000/svg"
   xmlns:xlink="http://www.w3.org/1999/xlink"
   xmlns:sodipodi="http://sodipodi.sourceforge.net/DTD/sodipodi-0.dtd"
   xmlns:inkscape="http://www.inkscape.org/namespaces/inkscape"
   width="96"
   height="96"
   id="svg2"
   version="1.1"
   inkscape:version="0.48.4 r9939"
   sodipodi:docname="media-record.svg">
  <defs
     id="defs4">
    <linearGradient
       inkscape:collect="always"
       xlink:href="#linearGradient4281-6-029"
       id="linearGradient16881"
       gradientUnits="userSpaceOnUse"
       gradientTransform="matrix(0,0.85741265,0.77885807,0,25.217737,969.80842)"
       x1="24.508066"
       y1="35.527863"
       x2="55.491936"
       y2="35.527863" />
    <linearGradient
       id="linearGradient4281-6-029">
      <stop
         offset="0"
         style="stop-color:#1e1e1e;stop-opacity:1"
         id="stop4283-9-16" />
      <stop
         offset="1"
         style="stop-color:#505050;stop-opacity:1"
         id="stop4285-8-45" />
    </linearGradient>
    <linearGradient
       inkscape:collect="always"
       xlink:href="#linearGradient3737-714"
       id="linearGradient90466"
       gradientUnits="userSpaceOnUse"
       x1="48"
       y1="20.220806"
       x2="48"
       y2="138.66119" />
    <linearGradient
       id="linearGradient3737-714">
      <stop
         id="stop3739-532"
         style="stop-color:#ffffff;stop-opacity:1"
         offset="0" />
      <stop
         id="stop3741-666"
         style="stop-color:#ffffff;stop-opacity:0"
         offset="1" />
    </linearGradient>
    <clipPath
       id="clipPath3613-55">
      <rect
         width="84"
         height="84"
         rx="6"
         ry="6"
         x="6"
         y="6"
         id="rect3615-88"
         style="fill:#ffffff;fill-opacity:1;fill-rule:nonzero;stroke:none" />
    </clipPath>
    <filter
       x="-0.192"
       y="-0.192"
       width="1.3839999"
       height="1.3839999"
       color-interpolation-filters="sRGB"
       id="filter3794-41">
      <feGaussianBlur
         id="feGaussianBlur3796-50"
         stdDeviation="5.28" />
    </filter>
    <linearGradient
       gradientTransform="matrix(-1.125,0,0,1.0416667,103.72085,953.19998)"
       y2="5.9877172"
       x2="48"
       y1="90"
       x1="48"
       gradientUnits="userSpaceOnUse"
       id="linearGradient3182"
       xlink:href="#linearGradient4081"
       inkscape:collect="always" />
    <linearGradient
       id="linearGradient4081">
      <stop
         id="stop4083"
         style="stop-color:#8c8c8c;stop-opacity:1"
         offset="0" />
      <stop
         id="stop4085"
         style="stop-color:#dcdcdc;stop-opacity:1"
         offset="1" />
    </linearGradient>
    <linearGradient
       inkscape:collect="always"
       xlink:href="#SpecificGradient"
       id="linearGradient3124"
       gradientUnits="userSpaceOnUse"
       x1="4"
       y1="11"
       x2="18"
       y2="11"
       gradientTransform="matrix(0,2.5714286,-2.5714286,0,91.743341,391.5109)" />
    <linearGradient
       x1="10.761708"
       y1="3.9999998"
       x2="10.761708"
       y2="18.011395"
       id="SpecificGradient"
       gradientUnits="userSpaceOnUse">
      <stop
         id="stop3292"
         style="stop-color:#a50000;stop-opacity:1"
         offset="0" />
      <stop
         id="stop3294"
         style="stop-color:#e73800;stop-opacity:1"
         offset="1" />
    </linearGradient>
    <linearGradient
       inkscape:collect="always"
       xlink:href="#linearGradient4281-6-79-1"
       id="linearGradient9010-3"
       gradientUnits="userSpaceOnUse"
       gradientTransform="matrix(3.3282012,0,0,2.7041634,14.98437,957.3622)"
       x1="9.3966265"
       y1="5.5470023"
       x2="9.3966265"
       y2="19.983326" />
    <linearGradient
       id="linearGradient4281-6-79-1">
      <stop
         offset="0"
         style="stop-color:#1e1e1e;stop-opacity:1"
         id="stop4283-9-4-3" />
      <stop
         offset="1"
         style="stop-color:#505050;stop-opacity:1"
         id="stop4285-8-3-1" />
    </linearGradient>
    <linearGradient
       inkscape:collect="always"
       xlink:href="#linearGradient4281-6"
       id="linearGradient3121"
       gradientUnits="userSpaceOnUse"
       gradientTransform="matrix(3.5300904,0,0,2.5495098,16,18)"
       x1="7.9406605"
       y1="5.0990195"
       x2="7.9406605"
       y2="19.219381" />
    <linearGradient
       id="linearGradient4281-6">
      <stop
         id="stop4283-9"
         style="stop-color:#1e1e1e;stop-opacity:1"
         offset="0" />
      <stop
         id="stop4285-8"
         style="stop-color:#505050;stop-opacity:1"
         offset="1" />
    </linearGradient>
    <linearGradient
       y2="19.219381"
       x2="7.9406605"
       y1="5.0990195"
       x1="7.9406605"
       gradientTransform="matrix(3.5300904,0,0,2.5495098,14.5,970.71929)"
       gradientUnits="userSpaceOnUse"
       id="linearGradient3149"
       xlink:href="#linearGradient4281-6"
       inkscape:collect="always" />
  </defs>
  <sodipodi:namedview
     id="base"
     pagecolor="#ffffff"
     bordercolor="#666666"
     borderopacity="1.0"
     inkscape:pageopacity="0.0"
     inkscape:pageshadow="2"
     inkscape:zoom="5.6"
     inkscape:cx="47.620364"
     inkscape:cy="57.392991"
     inkscape:document-units="px"
     inkscape:current-layer="layer1"
     showgrid="false"
     showguides="true"
     inkscape:guide-bbox="true"
     inkscape:snap-global="false"
     inkscape:window-width="1301"
     inkscape:window-height="744"
     inkscape:window-x="65"
     inkscape:window-y="24"
     inkscape:window-maximized="1">
    <sodipodi:guide
       orientation="1,0"
       position="3.6160714,56.450893"
       id="guide3050" />
    <sodipodi:guide
       orientation="0,1"
       position="18.782524,92.302689"
       id="guide3052" />
    <sodipodi:guide
       orientation="1,0"
       position="92.365824,51.580914"
       id="guide3054" />
    <sodipodi:guide
       orientation="0,1"
       position="28.221137,3.5355339"
       id="guide3056" />
    <sodipodi:guide
       orientation="1,0"
       position="47.5,92.302689"
       id="guide3058" />
    <sodipodi:guide
       orientation="0,1"
       position="-9.2857143,47.678572"
       id="guide3060" />
    <sodipodi:guide
       orientation="0,1"
       position="105.71429,50.178572"
       id="guide3064" />
  </sodipodi:namedview>
  <metadata
     id="metadata7">
    <rdf:RDF>
      <cc:Work
         rdf:about="">
        <dc:format>image/svg+xml</dc:format>
        <dc:type
           rdf:resource="http://purl.org/dc/dcmitype/StillImage" />
        <dc:title></dc:title>
      </cc:Work>
    </rdf:RDF>
  </metadata>
  <g
     inkscape:label="Layer 1"
     inkscape:groupmode="layer"
     id="layer1"
     transform="translate(0,-956.36218)">
    <rect
       ry="12.551917"
       y="960.04816"
       x="-92.363083"
       height="88.761673"
       width="88.761673"
       id="rect5261-6"
       style="fill:#000000;fill-opacity:0.03921569;stroke:none"
       transform="scale(-1,1)" />
    <rect
       style="fill:#000000;fill-opacity:0.07843137;stroke:none"
       id="rect5259-9"
       width="87.545769"
       height="87.545769"
       x="-91.755157"
       y="960.65662"
       ry="12.379974"
       transform="scale(-1,1)" />
    <rect
       ry="12.20803"
       y="961.26434"
       x="-91.147141"
       height="86.329872"
       width="86.329872"
       id="rect5257-5"
       style="fill:#000000;fill-opacity:0.15686275;stroke:none"
       transform="scale(-1,1)" />
    <path
       inkscape:connector-curvature="0"
       style="opacity:0.9;fill:url(#linearGradient3182);fill-opacity:1;fill-rule:nonzero;stroke:none"
       d="m 78.502096,961.85628 c 6.667992,0 12.031251,5.3945 12.031251,12.0625 l 0,61.03122 c 0,5.4178 -3.533222,9.9818 -8.437501,11.5 l -68.1875,0 c -4.7147996,-1.4568 -8.1719336,-5.7337 -8.4374996,-10.875 l 0,-62.28122 c 0.321173,-6.3771 5.5403826,-11.4375 11.9999996,-11.4375 l 61.03125,0 z"
       id="rect2419" />
    <path
       inkscape:connector-curvature="0"
       style="fill:#000000;fill-opacity:0.23529412;stroke:none"
       d="m 90.539218,1029.8874 0,5.0663 c 0,6.668 -5.364487,12.0325 -12.032476,12.0325 l -61.04902,0 c -6.667991,0 -12.0324826,-5.3645 -12.0324826,-12.0325 l 0,-5.0663 c 0,6.6681 5.3644916,12.0324 12.0324826,12.0324 l 61.04902,0 c 6.667989,0 12.032476,-5.3643 12.032476,-12.0324 z"
       id="rect5265-0" />
    <path
       inkscape:connector-curvature="0"
       style="fill:#000000;fill-opacity:0.09803922;stroke:none"
       d="m 90.539218,1033.9404 0,1.0133 c 0,6.668 -5.364487,12.0325 -12.032476,12.0325 l -61.04902,0 c -6.667991,0 -12.0324826,-5.3645 -12.0324826,-12.0325 l 0,-1.0133 c 0,6.6681 5.3644916,12.0325 12.0324826,12.0325 l 61.04902,0 c 6.667989,0 12.032476,-5.3644 12.032476,-12.0325 z"
       id="path5252-0" />
    <g
       transform="matrix(-1,0,0,1,96.470847,953.94998)"
       id="layer5"
       style="display:inline">
      <rect
         width="66"
         height="66"
         rx="12"
         ry="12"
         x="15"
         y="15"
         clip-path="url(#clipPath3613-55)"
         id="rect3171"
         style="opacity:0.3;fill:url(#linearGradient90466);fill-opacity:1;fill-rule:nonzero;stroke:#ffffff;stroke-width:0.5;stroke-linecap:round;stroke-linejoin:miter;stroke-miterlimit:4;stroke-opacity:1;stroke-dasharray:none;stroke-dashoffset:0;filter:url(#filter3794-41)" />
    </g>
    <path
       style="fill:url(#linearGradient3149);fill-opacity:1;fill-rule:nonzero;stroke:none"
       id="path4034"
       inkscape:connector-curvature="0"
       d="m 59.500003,982.71929 0,6 -6.09375,0 c -3.68067,0 -6.76974,1.6213 -9,3.6563 -1.45946,1.3316 -2.58994,2.8219 -3.65625,4.3125 l -4.21875,5.90611 c -0.62445,0.7744 -1.2356,1.4974 -1.875,2.0625 -1.5097,1.3344 -2.96376,2.0625 -5.25,2.0625 l -8.90625,0 0,6 8.90625,0 c 3.76953,0 6.88619,-1.5284 9.1875,-3.5625 0.62936,-0.5562 1.15314,-1.1716 1.6875,-1.7812 1.32121,-1.7395 2.62617,-3.5001 3.9375,-5.25 1.44455,-2.13637 2.82072,-4.06811 4.21875,-5.34371 1.46146,-1.3334 2.83219,-2.0625 4.96875,-2.0625 l 6.09375,0 0,5.99991 15,-8.99991 -15,-9 z m -39,8 0,6 8.90625,0 c 2.28624,0 3.7403,0.7282 5.25,2.0625 0.2451,0.2167 0.47961,0.4618 0.71875,0.7188 l 3.15625,-4.4063 c 0.11968,-0.1673 0.25138,-0.3303 0.375,-0.5 -0.10632,-0.1027 -0.20012,-0.2131 -0.3125,-0.3125 -2.30131,-2.034 -5.41797,-3.5625 -9.1875,-3.5625 l -8.90625,0 z m 39,11.99991 0,6 -6.09375,0 c -2.13656,0 -3.50729,-0.729 -4.96875,-2.0625 -0.76012,-0.6935 -1.51956,-1.5848 -2.28125,-2.5937 -1.22046,1.6295 -2.44302,3.2987 -3.6875,4.9375 0.59054,0.7134 1.21912,1.407 1.9375,2.0625 2.23026,2.0349 5.31933,3.6562 9,3.6562 l 6.09375,0 0,6 15,-9 -15,-9 z" />
    <path
       style="opacity:0.6;fill:#ffffff;fill-opacity:1;fill-rule:nonzero;stroke:none"
       id="path4059"
       inkscape:connector-curvature="0"
       d="m 73.656253,992.21929 -14.15625,8.49991 0,1 15,-8.99991 -0.84375,-0.5 z m -20.25,2.5 c -2.13656,0 -3.50729,0.7291 -4.96875,2.0625 -1.39803,1.2756 -2.7742,3.20734 -4.21875,5.34371 -1.31133,1.7499 -2.61629,3.5105 -3.9375,5.25 -0.53436,0.6096 -1.05814,1.225 -1.6875,1.7812 -2.30131,2.0341 -5.41797,3.5625 -9.1875,3.5625 l -8.90625,0 0,1 8.90625,0 c 3.76953,0 6.88619,-1.5284 9.1875,-3.5625 0.62936,-0.5562 1.15314,-1.1716 1.6875,-1.7812 1.32121,-1.7395 2.62617,-3.5001 3.9375,-5.25 1.44455,-2.1364 2.82072,-4.06811 4.21875,-5.34371 1.46146,-1.3334 2.83219,-2.0625 4.96875,-2.0625 l 6.09375,0 0,-1 -6.09375,0 z m -14.9375,0.4688 -3.09375,4.3125 c -0.23914,-0.257 -0.47365,-0.5021 -0.71875,-0.7188 -1.5097,-1.3343 -2.96376,-2.0625 -5.25,-2.0625 l -8.90625,0 0,1 8.90625,0 c 2.28624,0 3.7403,0.7282 5.25,2.06247 0.2451,0.21667 0.47961,0.46174 0.71875,0.71874 l 3.15625,-4.40621 c 0.11968,-0.1673 0.25138,-0.3303 0.375,-0.5 -0.10632,-0.1027 -0.20012,-0.2131 -0.3125,-0.3125 -0.0382,-0.034 -0.0864,-0.06 -0.125,-0.094 z m 4.40625,14.28111 c -0.13456,0.1785 -0.27121,0.3534 -0.40625,0.5313 0.59054,0.7134 1.21912,1.407 1.9375,2.0625 2.23026,2.0349 5.31933,3.6562 9,3.6562 l 6.09375,0 0,-1 -6.09375,0 c -3.68067,0 -6.76974,-1.6213 -9,-3.6562 -0.55884,-0.5099 -1.05673,-1.0463 -1.53125,-1.5938 z m 30.78125,2.75 -14.15625,8.5 0,1 15,-9 -0.84375,-0.5 z" />
    <path
       style="opacity:0.1;fill:#000000;fill-opacity:1;fill-rule:nonzero;stroke:none"
       id="path4082"
       inkscape:connector-curvature="0"
       d="m 59.500003,982.71929 0,6 -6.09375,0 c -3.68067,0 -6.76974,1.6213 -9,3.6563 -1.45946,1.3316 -2.58994,2.8219 -3.65625,4.3125 l -4.21875,5.90611 c -0.62445,0.7744 -1.2356,1.4974 -1.875,2.0625 -1.5097,1.3344 -2.96376,2.0625 -5.25,2.0625 l -8.90625,0 0,6 8.90625,0 c 3.76953,0 6.88619,-1.5284 9.1875,-3.5625 0.62936,-0.5562 1.15314,-1.1716 1.6875,-1.7812 1.32121,-1.7395 2.62617,-3.5001 3.9375,-5.25 1.44455,-2.13637 2.82072,-4.06811 4.21875,-5.34371 1.46146,-1.3334 2.83219,-2.0625 4.96875,-2.0625 l 6.09375,0 0,5.99991 15,-8.99991 -15,-9 z m 1.625,2.8438 10.25,6.1562 -10.25,6.1563 0,-3.1563 a 1.6218146,1.6218146 0 0 0 -1.625,-1.625 l -6.09375,0 c -2.50545,0 -4.44548,1.0246 -6.0625,2.5 -1.59404,1.4545 -2.99371,3.4285 -4.4375,5.56241 -0.0134,0.02 -0.0179,0.043 -0.0313,0.063 -1.27809,1.7059 -2.53575,3.4115 -3.8125,5.0938 -0.0226,0.03 -0.0399,0.064 -0.0625,0.094 -0.51155,0.5841 -0.97536,1.0951 -1.46875,1.5312 -2.05898,1.8199 -4.79383,3.1563 -8.125,3.1563 l -7.28125,0 0,-2.75 7.28125,0 c 2.63055,0 4.635,-0.9861 6.3125,-2.4688 0.76939,-0.68 1.42307,-1.457 2.0625,-2.25 a 1.6218146,1.6218146 0 0 0 0.0625,-0.094 l 4.21875,-5.90611 c 1.04835,-1.4655 2.11505,-2.8559 3.4375,-4.0625 1.99632,-1.8215 4.70179,-3.2188 7.90625,-3.2188 l 6.09375,0 a 1.6218146,1.6218146 0 0 0 1.625,-1.625 l 0,-3.1562 z m -40.625,5.1562 0,6 8.90625,0 c 2.28624,0 3.7403,0.7282 5.25,2.0625 0.2451,0.2167 0.47961,0.4618 0.71875,0.7188 l 3.15625,-4.4063 c 0.11968,-0.1673 0.25138,-0.3303 0.375,-0.5 -0.10632,-0.1027 -0.20012,-0.2131 -0.3125,-0.3125 -2.30131,-2.034 -5.41797,-3.5625 -9.1875,-3.5625 l -8.90625,0 z m 1.625,1.625 7.28125,0 c 2.92258,0 5.30132,1.1125 7.25,2.5938 l -1.59375,2.2187 c -1.55468,-1.2011 -3.33303,-2.0625 -5.65625,-2.0625 l -7.28125,0 0,-2.75 z m 37.375,10.37491 0,6 -6.09375,0 c -2.13656,0 -3.50729,-0.729 -4.96875,-2.0625 -0.76012,-0.6935 -1.51956,-1.5848 -2.28125,-2.5937 -1.22046,1.6295 -2.44302,3.2987 -3.6875,4.9375 0.59054,0.7134 1.21912,1.407 1.9375,2.0625 2.23026,2.0349 5.31933,3.6562 9,3.6562 l 6.09375,0 0,6 15,-9 -15,-9 z m 1.625,2.8438 10.25,6.1562 -10.25,6.1563 0,-3.1563 a 1.6218146,1.6218146 0 0 0 -1.625,-1.625 l -6.09375,0 c -3.20446,0 -5.90993,-1.3972 -7.90625,-3.2187 -0.33917,-0.3095 -0.62895,-0.6662 -0.9375,-1 0.56939,-0.7597 1.15868,-1.4959 1.71875,-2.25 0.35811,0.4001 0.68496,0.8743 1.0625,1.2187 1.61702,1.4754 3.55705,2.5 6.0625,2.5 l 6.09375,0 a 1.6218146,1.6218146 0 0 0 1.625,-1.625 l 0,-3.1562 z" />
    <path
       style="opacity:0.2;fill:#000000;fill-opacity:1;fill-rule:nonzero;stroke:none"
       id="path4077"
       inkscape:connector-curvature="0"
       d="m 59.500003,982.71929 0,6 -6.09375,0 c -3.68067,0 -6.76974,1.6213 -9,3.6563 -1.45946,1.3316 -2.58994,2.8219 -3.65625,4.3125 l -4.21875,5.90611 c -0.62445,0.7744 -1.2356,1.4974 -1.875,2.0625 -1.5097,1.3344 -2.96376,2.0625 -5.25,2.0625 l -8.90625,0 0,6 8.90625,0 c 3.76953,0 6.88619,-1.5284 9.1875,-3.5625 0.62936,-0.5562 1.15314,-1.1716 1.6875,-1.7812 1.32121,-1.7395 2.62617,-3.5001 3.9375,-5.25 1.44455,-2.13637 2.82072,-4.06811 4.21875,-5.34371 1.46146,-1.3334 2.83219,-2.0625 4.96875,-2.0625 l 6.09375,0 0,5.99991 15,-8.99991 -15,-9 z m 0.875,1.5313 12.4375,7.4687 -12.4375,7.4688 0,-4.4688 a 0.86496782,0.86496782 0 0 0 -0.875,-0.875 l -6.09375,0 c -2.3333,0 -4.01808,0.9034 -5.5625,2.3125 -1.50159,1.3701 -2.86991,3.30503 -4.3125,5.43741 -0.009,0.013 -0.0228,0.019 -0.0313,0.031 -1.29553,1.7291 -2.57564,3.4763 -3.875,5.1875 -0.009,0.012 -0.0225,0.02 -0.0313,0.031 -0.52813,0.603 -1.00274,1.1615 -1.5625,1.6563 -2.17207,1.9198 -5.08926,3.3437 -8.625,3.3437 l -8.03125,0 0,-4.25 8.03125,0 c 2.46987,0 4.21331,-0.8677 5.8125,-2.2812 0.70873,-0.6264 1.36756,-1.4032 2,-2.1875 a 0.86496782,0.86496782 0 0 0 0.0313,-0.031 l 4.21875,-5.90621 c 1.05673,-1.4771 2.14486,-2.9225 3.53125,-4.1875 2.10549,-1.9211 4.97956,-3.4062 8.40625,-3.4062 l 6.09375,0 a 0.86496782,0.86496782 0 0 0 0.875,-0.875 l 0,-4.4688 z m -39.875,6.4687 0,6 8.90625,0 c 2.28624,0 3.7403,0.7282 5.25,2.0625 0.2451,0.2167 0.47961,0.4618 0.71875,0.7188 l 3.15625,-4.4063 c 0.11968,-0.1673 0.25138,-0.3303 0.375,-0.5 -0.10632,-0.1027 -0.20012,-0.2131 -0.3125,-0.3125 -2.30131,-2.034 -5.41797,-3.5625 -9.1875,-3.5625 l -8.90625,0 z m 0.875,0.875 8.03125,0 c 3.39287,0 6.17138,1.3538 8.3125,3.1563 l -2.4375,3.4375 c -0.0222,-0.02 -0.0399,-0.043 -0.0625,-0.063 -1.59919,-1.4135 -3.34263,-2.2813 -5.8125,-2.2813 l -8.03125,0 0,-4.25 z m 38.125,11.12491 0,6 -6.09375,0 c -2.13656,0 -3.50729,-0.729 -4.96875,-2.0625 -0.76012,-0.6935 -1.51956,-1.5848 -2.28125,-2.5937 -1.22046,1.6295 -2.44302,3.2987 -3.6875,4.9375 0.59054,0.7134 1.21912,1.407 1.9375,2.0625 2.23026,2.0349 5.31933,3.6562 9,3.6562 l 6.09375,0 0,6 15,-9 -15,-9 z m 0.875,1.5313 12.4375,7.4687 -12.4375,7.4688 0,-4.4688 a 0.86496782,0.86496782 0 0 0 -0.875,-0.875 l -6.09375,0 c -3.42669,0 -6.30076,-1.4851 -8.40625,-3.4062 -0.50965,-0.465 -0.96332,-0.9923 -1.40625,-1.5 0.88345,-1.1725 1.75911,-2.337 2.625,-3.5 0.53957,0.658 1.06257,1.3306 1.625,1.8437 1.54442,1.4092 3.2292,2.3125 5.5625,2.3125 l 6.09375,0 a 0.86496782,0.86496782 0 0 0 0.875,-0.875 l 0,-4.4687 z" />
    <path
       style="opacity:0.6;fill:#000000;fill-opacity:1;fill-rule:nonzero;stroke:none"
       id="path4068"
       inkscape:connector-curvature="0"
       d="m 59.500003,982.71929 0,1 14.15625,8.5 0.84375,-0.5 -15,-9 z m -6.09375,6 c -3.68067,0 -6.76974,1.6213 -9,3.6563 -1.45946,1.3316 -2.58994,2.8219 -3.65625,4.3125 l -4.21875,5.90611 c -0.62445,0.7744 -1.2356,1.4974 -1.875,2.0625 -1.5097,1.3344 -2.96376,2.0625 -5.25,2.0625 l -8.90625,0 0,1 8.90625,0 c 2.28624,0 3.7403,-0.7281 5.25,-2.0625 0.6394,-0.5651 1.25055,-1.2881 1.875,-2.0625 l 4.21875,-5.90611 c 1.06631,-1.4906 2.19679,-2.9809 3.65625,-4.3125 2.23026,-2.035 5.31933,-3.6563 9,-3.6563 l 6.09375,0 0,-1 -6.09375,0 z m -32.90625,2 0,1 8.90625,0 c 3.70701,0 6.77281,1.4852 9.0625,3.4688 l 0.0625,-0.094 c 0.11968,-0.1673 0.25138,-0.3303 0.375,-0.5 -0.10632,-0.1027 -0.20012,-0.2132 -0.3125,-0.3125 -2.30131,-2.0341 -5.41797,-3.5625 -9.1875,-3.5625 l -8.90625,0 z m 39,11.99991 0,1 14.15625,8.5 0.84375,-0.5 -15,-9 z m -13.34375,1.3438 c -1.22046,1.6295 -2.44302,3.2987 -3.6875,4.9375 0.13115,0.1584 0.27078,0.3124 0.40625,0.4687 1.1054,-1.4661 2.19323,-2.9535 3.28125,-4.4062 0.76169,1.0089 1.52113,1.9002 2.28125,2.5937 1.46146,1.3335 2.83219,2.0625 4.96875,2.0625 l 6.09375,0 0,-1 -6.09375,0 c -2.13656,0 -3.50729,-0.729 -4.96875,-2.0625 -0.76012,-0.6935 -1.51956,-1.5848 -2.28125,-2.5937 z" />
  </g>
</svg>
