<?xml version="1.0" encoding="UTF-8" standalone="no"?>
<!-- Created with Inkscape (http://www.inkscape.org/) -->

<svg
   xmlns:dc="http://purl.org/dc/elements/1.1/"
   xmlns:cc="http://creativecommons.org/ns#"
   xmlns:rdf="http://www.w3.org/1999/02/22-rdf-syntax-ns#"
   xmlns:svg="http://www.w3.org/2000/svg"
   xmlns="http://www.w3.org/2000/svg"
   xmlns:xlink="http://www.w3.org/1999/xlink"
   xmlns:sodipodi="http://sodipodi.sourceforge.net/DTD/sodipodi-0.dtd"
   xmlns:inkscape="http://www.inkscape.org/namespaces/inkscape"
   width="96"
   height="96"
   id="svg2"
   version="1.1"
   inkscape:version="0.48.4 r9939">
  <defs
     id="defs4">
    <linearGradient
       inkscape:collect="always"
       xlink:href="#linearGradient4281-6-029"
       id="linearGradient16881"
       gradientUnits="userSpaceOnUse"
       gradientTransform="matrix(0,0.85741265,0.77885807,0,25.217737,969.80842)"
       x1="24.508066"
       y1="35.527863"
       x2="55.491936"
       y2="35.527863" />
    <linearGradient
       id="linearGradient4281-6-029">
      <stop
         offset="0"
         style="stop-color:#1e1e1e;stop-opacity:1"
         id="stop4283-9-16" />
      <stop
         offset="1"
         style="stop-color:#505050;stop-opacity:1"
         id="stop4285-8-45" />
    </linearGradient>
    <linearGradient
       inkscape:collect="always"
       xlink:href="#linearGradient3737-714"
       id="linearGradient90466"
       gradientUnits="userSpaceOnUse"
       x1="48"
       y1="20.220806"
       x2="48"
       y2="138.66119" />
    <linearGradient
       id="linearGradient3737-714">
      <stop
         id="stop3739-532"
         style="stop-color:#ffffff;stop-opacity:1"
         offset="0" />
      <stop
         id="stop3741-666"
         style="stop-color:#ffffff;stop-opacity:0"
         offset="1" />
    </linearGradient>
    <clipPath
       id="clipPath3613-55">
      <rect
         width="84"
         height="84"
         rx="6"
         ry="6"
         x="6"
         y="6"
         id="rect3615-88"
         style="fill:#ffffff;fill-opacity:1;fill-rule:nonzero;stroke:none" />
    </clipPath>
    <filter
       x="-0.192"
       y="-0.192"
       width="1.3839999"
       height="1.3839999"
       color-interpolation-filters="sRGB"
       id="filter3794-41">
      <feGaussianBlur
         id="feGaussianBlur3796-50"
         stdDeviation="5.28" />
    </filter>
    <linearGradient
       gradientTransform="matrix(-1.125,0,0,1.0416667,103.72085,953.19998)"
       y2="5.9877172"
       x2="48"
       y1="90"
       x1="48"
       gradientUnits="userSpaceOnUse"
       id="linearGradient3182"
       xlink:href="#linearGradient4081"
       inkscape:collect="always" />
    <linearGradient
       id="linearGradient4081">
      <stop
         id="stop4083"
         style="stop-color:#8c8c8c;stop-opacity:1"
         offset="0" />
      <stop
         id="stop4085"
         style="stop-color:#dcdcdc;stop-opacity:1"
         offset="1" />
    </linearGradient>
  </defs>
  <sodipodi:namedview
     id="base"
     pagecolor="#ffffff"
     bordercolor="#666666"
     borderopacity="1.0"
     inkscape:pageopacity="0.0"
     inkscape:pageshadow="2"
     inkscape:zoom="5.6"
     inkscape:cx="63.515498"
     inkscape:cy="49.430712"
     inkscape:document-units="px"
     inkscape:current-layer="layer1"
     showgrid="false"
     showguides="true"
     inkscape:guide-bbox="true"
     inkscape:snap-global="false"
     inkscape:window-width="1301"
     inkscape:window-height="744"
     inkscape:window-x="65"
     inkscape:window-y="24"
     inkscape:window-maximized="1">
    <sodipodi:guide
       orientation="1,0"
       position="3.6160714,56.450893"
       id="guide3050" />
    <sodipodi:guide
       orientation="0,1"
       position="18.782524,92.302689"
       id="guide3052" />
    <sodipodi:guide
       orientation="1,0"
       position="92.365824,51.580914"
       id="guide3054" />
    <sodipodi:guide
       orientation="0,1"
       position="28.221137,3.5355339"
       id="guide3056" />
    <sodipodi:guide
       orientation="1,0"
       position="47.5,92.302689"
       id="guide3058" />
    <sodipodi:guide
       orientation="0,1"
       position="-9.2857143,47.678572"
       id="guide3060" />
    <sodipodi:guide
       orientation="0,1"
       position="105.71429,50.178572"
       id="guide3064" />
  </sodipodi:namedview>
  <metadata
     id="metadata7">
    <rdf:RDF>
      <cc:Work
         rdf:about="">
        <dc:format>image/svg+xml</dc:format>
        <dc:type
           rdf:resource="http://purl.org/dc/dcmitype/StillImage" />
        <dc:title></dc:title>
      </cc:Work>
    </rdf:RDF>
  </metadata>
  <g
     inkscape:label="Layer 1"
     inkscape:groupmode="layer"
     id="layer1"
     transform="translate(0,-956.36218)">
    <rect
       ry="12.551917"
       y="960.04816"
       x="-92.363083"
       height="88.761673"
       width="88.761673"
       id="rect5261-6"
       style="fill:#000000;fill-opacity:0.03921569;stroke:none"
       transform="scale(-1,1)" />
    <rect
       style="fill:#000000;fill-opacity:0.07843137;stroke:none"
       id="rect5259-9"
       width="87.545769"
       height="87.545769"
       x="-91.755157"
       y="960.65662"
       ry="12.379974"
       transform="scale(-1,1)" />
    <rect
       ry="12.20803"
       y="961.26434"
       x="-91.147141"
       height="86.329872"
       width="86.329872"
       id="rect5257-5"
       style="fill:#000000;fill-opacity:0.15686275;stroke:none"
       transform="scale(-1,1)" />
    <path
       inkscape:connector-curvature="0"
       style="opacity:0.9;fill:url(#linearGradient3182);fill-opacity:1;fill-rule:nonzero;stroke:none"
       d="m 78.502096,961.85628 c 6.667992,0 12.031251,5.3945 12.031251,12.0625 l 0,61.03122 c 0,5.4178 -3.533222,9.9818 -8.437501,11.5 l -68.1875,0 c -4.7147996,-1.4568 -8.1719336,-5.7337 -8.4374996,-10.875 l 0,-62.28122 c 0.321173,-6.3771 5.5403826,-11.4375 11.9999996,-11.4375 l 61.03125,0 z"
       id="rect2419" />
    <path
       inkscape:connector-curvature="0"
       style="fill:#000000;fill-opacity:0.23529412;stroke:none"
       d="m 90.539218,1029.8874 0,5.0663 c 0,6.668 -5.364487,12.0325 -12.032476,12.0325 l -61.04902,0 c -6.667991,0 -12.0324826,-5.3645 -12.0324826,-12.0325 l 0,-5.0663 c 0,6.6681 5.3644916,12.0324 12.0324826,12.0324 l 61.04902,0 c 6.667989,0 12.032476,-5.3643 12.032476,-12.0324 z"
       id="rect5265-0" />
    <path
       inkscape:connector-curvature="0"
       style="fill:#000000;fill-opacity:0.09803922;stroke:none"
       d="m 90.539218,1033.9404 0,1.0133 c 0,6.668 -5.364487,12.0325 -12.032476,12.0325 l -61.04902,0 c -6.667991,0 -12.0324826,-5.3645 -12.0324826,-12.0325 l 0,-1.0133 c 0,6.6681 5.3644916,12.0325 12.0324826,12.0325 l 61.04902,0 c 6.667989,0 12.032476,-5.3644 12.032476,-12.0325 z"
       id="path5252-0" />
    <g
       transform="matrix(-1,0,0,1,96.470847,953.94998)"
       id="layer5"
       style="display:inline">
      <rect
         width="66"
         height="66"
         rx="12"
         ry="12"
         x="15"
         y="15"
         clip-path="url(#clipPath3613-55)"
         id="rect3171"
         style="opacity:0.3;fill:url(#linearGradient90466);fill-opacity:1;fill-rule:nonzero;stroke:#ffffff;stroke-width:0.5;stroke-linecap:round;stroke-linejoin:miter;stroke-miterlimit:4;stroke-opacity:1;stroke-dasharray:none;stroke-dashoffset:0;filter:url(#filter3794-41)" />
    </g>
    <g
       id="g16874"
       transform="matrix(-1,0,0,1,86.657137,-0.61932688)">
      <path
         d="m 18.890817,987.80066 c 1.108,0 2,0.892 2,2 l 0,12.06254 19.656249,-12.53129 a 1.5495303,1.7058139 0 0 1 2.34375,1.46875 l 0,11.06254 19.65625,-12.53129 a 1.5495303,1.7058139 0 0 1 2.34375,1.46875 l 0,26.59374 a 1.5495303,1.7058139 0 0 1 -2.34375,1.4688 l -19.65625,-12.5 0,11.0312 a 1.5495303,1.7058139 0 0 1 -2.34375,1.4688 l -19.656249,-12.5 0,11.4375 c 0,1.108 -0.892,2 -2,2 l -4,0 c -1.108,0 -2,-0.892 -2,-2 l 0,-28.00004 c 0,-1.108 0.892,-2 2,-2 l 4,0 z"
         inkscape:connector-curvature="0"
         id="path4132"
         style="color:#000000;fill:url(#linearGradient16881);fill-opacity:1;fill-rule:nonzero;stroke:none;stroke-width:2;marker:none;visibility:visible;display:inline;overflow:visible;enable-background:accumulate" />
      <path
         d="m 42.890816,1006.3632 19.65625,12.5 a 1.5495303,1.7058139 0 0 0 2.34375,-1.3125 l 0,0.8437 a 1.5495303,1.7058139 0 0 1 -2.34375,1.4688 l -19.65625,-12.5 0,-1 z m -21.999999,0 19.656249,12.5 a 1.5495303,1.7058139 0 0 0 2.34375,-1.3125 l 0,0.8437 a 1.5495303,1.7058139 0 0 1 -2.34375,1.4688 l -19.656249,-12.5 0,-1 z m 0,11.4375 0,1 c 0,1.108 -0.892,2 -2,2 l -4,0 c -1.108,0 -2,-0.892 -2,-2 l 0,-1 c 0,1.108 0.892,2 2,2 l 4,0 c 1.108,0 2,-0.892 2,-2 z"
         inkscape:connector-curvature="0"
         id="path4176"
         style="opacity:0.6;color:#000000;fill:#ffffff;fill-opacity:1;fill-rule:nonzero;stroke:none;stroke-width:2;marker:none;visibility:visible;display:inline;overflow:visible;enable-background:accumulate" />
      <path
         d="m 18.890817,987.80066 c 1.108,0 2,0.892 2,2 l 0,12.06254 19.656249,-12.53129 a 1.5495303,1.7058139 0 0 1 2.34375,1.46875 l 0,11.06254 19.65625,-12.53129 a 1.5495303,1.7058139 0 0 1 2.34375,1.46875 l 0,26.59374 a 1.5495303,1.7058139 0 0 1 -2.34375,1.4688 l -19.65625,-12.5 0,11.0312 a 1.5495303,1.7058139 0 0 1 -2.34375,1.4688 l -19.656249,-12.5 0,11.4375 c 0,1.108 -0.892,2 -2,2 l -4,0 c -1.108,0 -2,-0.892 -2,-2 l 0,-28.00004 c 0,-1.108 0.892,-2 2,-2 l 4,0 z m 0.0313,1.96875 c -0.001,-10e-4 -0.005,0 -0.0313,0 l -4,0 c -0.0521,0 -0.0313,-0.0208 -0.0313,0.0313 l 0,27.99999 c 0,0.052 -0.0208,0.031 0.0313,0.031 l 4,0 c 0.0521,0 0.0313,0.021 0.0313,-0.031 l 0,-11.4375 a 1.9676083,1.9676083 0 0 1 3.03125,-1.6562 l 18.968749,12.0625 0,-10.4063 a 1.9676083,1.9676083 0 0 1 3.03125,-1.6562 l 18.96875,12.0625 0,-25.34379 -18.96875,12.09379 a 1.9676083,1.9676083 0 0 1 -3.03125,-1.6563 l 0,-10.43749 -18.968749,12.09379 a 1.9676083,1.9676083 0 0 1 -3.03125,-1.6563 l 0,-12.06249 c 0,-0.026 0.001,-0.0299 0,-0.0313 z"
         inkscape:connector-curvature="0"
         id="path4198"
         style="opacity:0.1;color:#000000;fill:#000000;fill-opacity:1;fill-rule:nonzero;stroke:none;stroke-width:2;marker:none;visibility:visible;display:inline;overflow:visible;enable-background:accumulate" />
      <path
         d="m 18.890817,987.80066 c 1.108,0 2,0.892 2,2 l 0,12.06254 19.656249,-12.53129 a 1.5495303,1.7058139 0 0 1 2.34375,1.46875 l 0,11.06254 19.65625,-12.53129 a 1.5495303,1.7058139 0 0 1 2.34375,1.46875 l 0,26.59374 a 1.5495303,1.7058139 0 0 1 -2.34375,1.4688 l -19.65625,-12.5 0,11.0312 a 1.5495303,1.7058139 0 0 1 -2.34375,1.4688 l -19.656249,-12.5 0,11.4375 c 0,1.108 -0.892,2 -2,2 l -4,0 c -1.108,0 -2,-0.892 -2,-2 l 0,-28.00004 c 0,-1.108 0.892,-2 2,-2 l 4,0 z m 0,0.9375 -4,0 c -0.603,0 -1.0625,0.4595 -1.0625,1.0625 l 0,28.00004 c 0,0.603 0.4595,1.0625 1.0625,1.0625 l 4,0 c 0.60299,0 1.0625,-0.4595 1.0625,-1.0625 l 0,-11.4375 a 0.94103006,0.94103006 0 0 1 1.4375,-0.7813 l 19.656249,12.5 a 0.94103006,0.94103006 0 0 1 0.0313,0 c 0.0473,0.031 -0.0181,-0.028 0.0313,0 0.0494,0.028 -0.02,0.01 0.0313,0.031 0.0512,0.024 -0.0216,0.011 0.0313,0.031 0.0529,0.021 -0.023,-0.017 0.0313,0 0.0542,0.017 -0.0241,-0.013 0.0313,0 0.0553,0.013 -0.0249,-0.01 0.0313,0 0.0561,0.01 -0.0254,0.027 0.0313,0.031 0.0566,0 -0.0256,-6e-4 0.0313,0 0.0569,7e-4 -0.0255,0 0.0313,0 0.0567,0 -0.0251,-0.024 0.0313,-0.031 0.0563,-0.01 0.007,0.012 0.0625,0 0.0556,-0.012 -0.0234,0.016 0.0313,0 0.0546,-0.016 -0.0221,0.019 0.0313,0 0.0533,-0.019 -0.0205,-0.01 0.0313,-0.031 0.0518,-0.023 -0.0187,0.027 0.0313,0 0.05,-0.027 -0.0167,-10e-4 0.0313,-0.031 0.048,-0.03 -0.0145,0 0.0313,-0.031 0.0229,-0.017 0.0346,-0.01 0.0313,0 0.0434,-0.036 -0.01,0.01 0.0313,-0.031 0.0408,-0.039 -0.007,0.01 0.0313,-0.031 0.0381,-0.042 -0.004,-0.019 0.0313,-0.063 0.0353,-0.044 -10e-4,0.015 0.0313,-0.031 0.0324,-0.046 0.002,0.017 0.0313,-0.031 0.0293,-0.048 0.005,-0.013 0.0313,-0.063 0.0263,-0.05 -0.0231,0.02 0,-0.031 0.0231,-0.051 0.0114,-0.01 0.0313,-0.063 0.0199,-0.053 0.0146,0.023 0.0313,-0.031 0.0166,-0.054 -0.0133,-0.01 0,-0.063 0.0133,-0.055 -0.01,-0.01 0,-0.063 0.01,-0.055 0.0246,0.025 0.0313,-0.031 0.007,-0.056 -0.003,-0.01 0,-0.063 0.003,-0.056 1.2e-4,-0.01 0,-0.063 l 0,-11.0312 a 0.94103006,0.94103006 0 0 1 1.4375,-0.7813 l 19.65625,12.5 a 0.94103006,0.94103006 0 0 1 0.0313,0 c 0.0473,0.031 -0.0181,-0.028 0.0313,0 0.0494,0.028 -0.02,0.01 0.0313,0.031 0.0512,0.024 -0.0216,0.011 0.0313,0.031 0.0529,0.021 -0.023,-0.017 0.0313,0 0.0542,0.017 -0.0241,-0.013 0.0313,0 0.0553,0.013 -0.0249,-0.01 0.0313,0 0.0561,0.01 -0.0254,0.027 0.0313,0.031 0.0566,0 -0.0256,-6e-4 0.0313,0 0.0569,7e-4 -0.0255,0 0.0313,0 0.0567,0 -0.0251,-0.024 0.0313,-0.031 0.0563,-0.01 0.007,0.012 0.0625,0 0.0556,-0.012 -0.0234,0.016 0.0313,0 0.0546,-0.016 -0.0221,0.019 0.0313,0 0.0533,-0.019 -0.0205,-0.01 0.0313,-0.031 0.0518,-0.023 -0.0187,0.027 0.0313,0 0.05,-0.027 -0.0167,-10e-4 0.0313,-0.031 0.048,-0.03 -0.0145,0 0.0313,-0.031 0.0229,-0.017 0.0346,-0.01 0.0313,0 0.0434,-0.036 -0.01,0.01 0.0313,-0.031 0.0408,-0.039 -0.007,0.01 0.0313,-0.031 0.0381,-0.042 -0.004,-0.019 0.0313,-0.063 0.0353,-0.044 -0.001,0.015 0.0313,-0.031 0.0324,-0.046 0.002,0.017 0.0313,-0.031 0.0293,-0.048 0.005,-0.013 0.0313,-0.063 0.0263,-0.05 -0.0231,0.02 0,-0.031 0.0231,-0.051 0.0114,-0.01 0.0313,-0.063 0.0199,-0.053 0.0146,0.023 0.0313,-0.031 0.0166,-0.054 -0.0133,-0.01 0,-0.063 0.0133,-0.055 -0.01,-0.01 0,-0.063 0.01,-0.055 0.0246,0.025 0.0313,-0.031 0.007,-0.056 -0.003,-0.01 0,-0.063 0.003,-0.056 1.2e-4,-0.01 0,-0.063 l 0,-26.59374 c 1.2e-4,-0.0563 0.003,-0.006 0,-0.0625 -0.003,-0.0562 0.007,-0.007 0,-0.0625 -0.007,-0.0559 -0.0213,0.0242 -0.0313,-0.0313 -0.01,-0.0554 0.0133,-0.008 0,-0.0625 -0.0133,-0.0547 0.0166,-0.009 0,-0.0625 -0.0166,-0.0538 -0.0114,0.0215 -0.0313,-0.0313 -0.0199,-0.0527 -0.008,-0.0111 -0.0313,-0.0625 -0.0231,-0.0514 0.0263,0.0186 0,-0.0313 -0.0263,-0.0498 -0.002,-0.0144 -0.0313,-0.0625 -0.0294,-0.0481 0.001,0.0149 -0.0313,-0.0313 -0.0324,-0.0462 0.004,0.0127 -0.0313,-0.0313 -0.0353,-0.044 0.007,-0.0209 -0.0313,-0.0625 -0.0381,-0.0416 0.01,0.008 -0.0313,-0.0313 -0.0408,-0.039 0.0121,0.005 -0.0313,-0.0313 0.003,0.009 -0.008,0.0166 -0.0313,0 -0.0458,-0.0332 0.0167,-0.001 -0.0313,-0.0313 -0.048,-0.0301 0.0187,-0.005 -0.0313,-0.0313 -0.05,-0.0267 0.0205,0.0231 -0.0313,0 -0.0518,-0.0231 0.0221,-0.0118 -0.0313,-0.0313 -0.0533,-0.0194 0.0234,0.0156 -0.0313,0 -0.0546,-0.0156 0.0244,0.0116 -0.0313,0 -0.0556,-0.0116 -0.006,0.008 -0.0625,0 -0.0563,-0.008 0.0255,-0.0278 -0.0313,-0.0313 -0.0568,-0.003 0.0256,-6.5e-4 -0.0313,0 -0.0569,6.5e-4 0.0254,-0.005 -0.0313,0 -0.0567,0.005 0.0249,0.0224 -0.0313,0.0313 -0.0561,0.009 0.0241,-0.0129 -0.0313,0 -0.0553,0.0129 0.023,-0.0168 -0.0313,0 -0.0542,0.0168 0.0216,-0.0206 -0.0313,0 -0.0529,0.0206 0.02,0.007 -0.0313,0.0313 -0.0512,0.0243 0.0181,0.004 -0.0313,0.0313 -0.0494,0.0278 0.016,-0.0311 -0.0313,0 a 0.94103006,0.94103006 0 0 1 -0.0313,0 l -19.6576,12.53244 a 0.94103006,0.94103006 0 0 1 -1.4375,-0.7812 l 0,-11.06254 c 1.2e-4,-0.0563 0.003,-0.006 0,-0.0625 -0.003,-0.0562 0.007,-0.007 0,-0.0625 -0.007,-0.0559 -0.0213,0.0242 -0.0313,-0.0313 -0.01,-0.0554 0.0133,-0.008 0,-0.0625 -0.0133,-0.0547 0.0166,-0.009 0,-0.0625 -0.0166,-0.0538 -0.0114,0.0215 -0.0313,-0.0313 -0.0199,-0.0527 -0.008,-0.0111 -0.0313,-0.0625 -0.0231,-0.0514 0.0263,0.0186 0,-0.0313 -0.0263,-0.0498 -0.002,-0.0144 -0.0313,-0.0625 -0.0294,-0.0481 10e-4,0.0149 -0.0313,-0.0313 -0.0324,-0.0462 0.004,0.0127 -0.0313,-0.0313 -0.0353,-0.044 0.007,-0.0209 -0.0313,-0.0625 -0.0381,-0.0416 0.01,0.008 -0.0313,-0.0313 -0.0408,-0.039 0.0121,0.005 -0.0313,-0.0313 0.003,0.009 -0.008,0.0166 -0.0313,0 -0.0458,-0.0332 0.0167,-10e-4 -0.0313,-0.0313 -0.048,-0.0301 0.0187,-0.005 -0.0313,-0.0313 -0.05,-0.0267 0.0205,0.0231 -0.0313,0 -0.0518,-0.0231 0.0221,-0.0118 -0.0313,-0.0313 -0.0533,-0.0194 0.0234,0.0156 -0.0313,0 -0.0546,-0.0156 0.0244,0.0116 -0.0313,0 -0.0556,-0.0116 -0.006,0.008 -0.0625,0 -0.0563,-0.008 0.0255,-0.0278 -0.0313,-0.0313 -0.0568,-0.003 0.0256,-6.5e-4 -0.0313,0 -0.0569,6.5e-4 0.0254,-0.005 -0.0313,0 -0.0567,0.005 0.0249,0.0224 -0.0313,0.0313 -0.0561,0.009 0.0241,-0.0129 -0.0313,0 -0.0553,0.0129 0.023,-0.0168 -0.0313,0 -0.0542,0.0168 0.0216,-0.0206 -0.0313,0 -0.0529,0.0206 0.02,0.007 -0.0313,0.0313 -0.0512,0.0243 0.0181,0.004 -0.0313,0.0313 -0.0494,0.0278 0.016,-0.0311 -0.0313,0 a 0.94103006,0.94103006 0 0 1 -0.0313,0 l -19.654899,12.53164 a 0.94103006,0.94103006 0 0 1 -1.4375,-0.7812 l 0,-12.06254 c 0,-0.603 -0.45951,-1.0625 -1.0625,-1.0625 z"
         inkscape:connector-curvature="0"
         id="path4194"
         style="opacity:0.2;color:#000000;fill:#000000;fill-opacity:1;fill-rule:nonzero;stroke:none;stroke-width:2;marker:none;visibility:visible;display:inline;overflow:visible;enable-background:accumulate" />
      <path
         d="m 18.890817,987.80066 c 1.108,0 2,0.892 2,2 l 0,1 c 0,-1.108 -0.892,-2 -2,-2 l -4,0 c -1.108,0 -2,0.892 -2,2 l 0,-1 c 0,-1.108 0.892,-2 2,-2 l 4,0 z m 44.531249,1.28125 a 1.5495303,1.7058139 0 0 1 1.46875,1.71875 l 0,0.8125 a 1.5495303,1.7058139 0 0 0 -2.34375,-1.28125 l -19.65625,12.53129 0,-1 19.65625,-12.53129 a 1.5495303,1.7058139 0 0 1 0.875,-0.25 z m -22,0 a 1.5495303,1.7058139 0 0 1 1.46875,1.71875 l 0,0.8125 a 1.5495303,1.7058139 0 0 0 -2.34375,-1.28125 l -19.656249,12.53129 0,-1 19.656249,-12.53129 a 1.5495303,1.7058139 0 0 1 0.875,-0.25 z"
         inkscape:connector-curvature="0"
         id="path4185"
         style="opacity:0.6;color:#000000;fill:#000000;fill-opacity:1;fill-rule:nonzero;stroke:none;stroke-width:2;marker:none;visibility:visible;display:inline;overflow:visible;enable-background:accumulate" />
    </g>
  </g>
</svg>
