<?xml version="1.0" encoding="UTF-8" standalone="no"?>
<!-- Created with Inkscape (http://www.inkscape.org/) -->

<svg
   xmlns:dc="http://purl.org/dc/elements/1.1/"
   xmlns:cc="http://creativecommons.org/ns#"
   xmlns:rdf="http://www.w3.org/1999/02/22-rdf-syntax-ns#"
   xmlns:svg="http://www.w3.org/2000/svg"
   xmlns="http://www.w3.org/2000/svg"
   xmlns:xlink="http://www.w3.org/1999/xlink"
   xmlns:sodipodi="http://sodipodi.sourceforge.net/DTD/sodipodi-0.dtd"
   xmlns:inkscape="http://www.inkscape.org/namespaces/inkscape"
   width="96"
   height="96"
   id="svg2"
   version="1.1"
   inkscape:version="0.48.4 r9939"
   sodipodi:docname="media-playlist-shuffle.svg">
  <defs
     id="defs4">
    <linearGradient
       inkscape:collect="always"
       xlink:href="#linearGradient4281-6-029"
       id="linearGradient16881"
       gradientUnits="userSpaceOnUse"
       gradientTransform="matrix(0,0.85741265,0.77885807,0,25.217737,969.80842)"
       x1="24.508066"
       y1="35.527863"
       x2="55.491936"
       y2="35.527863" />
    <linearGradient
       id="linearGradient4281-6-029">
      <stop
         offset="0"
         style="stop-color:#1e1e1e;stop-opacity:1"
         id="stop4283-9-16" />
      <stop
         offset="1"
         style="stop-color:#505050;stop-opacity:1"
         id="stop4285-8-45" />
    </linearGradient>
    <linearGradient
       inkscape:collect="always"
       xlink:href="#linearGradient3737-714"
       id="linearGradient90466"
       gradientUnits="userSpaceOnUse"
       x1="48"
       y1="20.220806"
       x2="48"
       y2="138.66119" />
    <linearGradient
       id="linearGradient3737-714">
      <stop
         id="stop3739-532"
         style="stop-color:#ffffff;stop-opacity:1"
         offset="0" />
      <stop
         id="stop3741-666"
         style="stop-color:#ffffff;stop-opacity:0"
         offset="1" />
    </linearGradient>
    <clipPath
       id="clipPath3613-55">
      <rect
         width="84"
         height="84"
         rx="6"
         ry="6"
         x="6"
         y="6"
         id="rect3615-88"
         style="fill:#ffffff;fill-opacity:1;fill-rule:nonzero;stroke:none" />
    </clipPath>
    <filter
       x="-0.192"
       y="-0.192"
       width="1.3839999"
       height="1.3839999"
       color-interpolation-filters="sRGB"
       id="filter3794-41">
      <feGaussianBlur
         id="feGaussianBlur3796-50"
         stdDeviation="5.28" />
    </filter>
    <linearGradient
       gradientTransform="matrix(-1.125,0,0,1.0416667,103.72085,953.19998)"
       y2="5.9877172"
       x2="48"
       y1="90"
       x1="48"
       gradientUnits="userSpaceOnUse"
       id="linearGradient3182"
       xlink:href="#linearGradient4081"
       inkscape:collect="always" />
    <linearGradient
       id="linearGradient4081">
      <stop
         id="stop4083"
         style="stop-color:#8c8c8c;stop-opacity:1"
         offset="0" />
      <stop
         id="stop4085"
         style="stop-color:#dcdcdc;stop-opacity:1"
         offset="1" />
    </linearGradient>
    <linearGradient
       inkscape:collect="always"
       xlink:href="#SpecificGradient"
       id="linearGradient3124"
       gradientUnits="userSpaceOnUse"
       x1="4"
       y1="11"
       x2="18"
       y2="11"
       gradientTransform="matrix(0,2.5714286,-2.5714286,0,91.743341,391.5109)" />
    <linearGradient
       x1="10.761708"
       y1="3.9999998"
       x2="10.761708"
       y2="18.011395"
       id="SpecificGradient"
       gradientUnits="userSpaceOnUse">
      <stop
         id="stop3292"
         style="stop-color:#a50000;stop-opacity:1"
         offset="0" />
      <stop
         id="stop3294"
         style="stop-color:#e73800;stop-opacity:1"
         offset="1" />
    </linearGradient>
    <linearGradient
       inkscape:collect="always"
       xlink:href="#linearGradient4281-6-79-1"
       id="linearGradient9010-3"
       gradientUnits="userSpaceOnUse"
       gradientTransform="matrix(3.3282012,0,0,2.7041634,14.98437,957.3622)"
       x1="9.3966265"
       y1="5.5470023"
       x2="9.3966265"
       y2="19.983326" />
    <linearGradient
       id="linearGradient4281-6-79-1">
      <stop
         offset="0"
         style="stop-color:#1e1e1e;stop-opacity:1"
         id="stop4283-9-4-3" />
      <stop
         offset="1"
         style="stop-color:#505050;stop-opacity:1"
         id="stop4285-8-3-1" />
    </linearGradient>
    <linearGradient
       inkscape:collect="always"
       xlink:href="#linearGradient4281-6"
       id="linearGradient3121"
       gradientUnits="userSpaceOnUse"
       gradientTransform="matrix(3.5300904,0,0,2.5495098,16,18)"
       x1="7.9406605"
       y1="5.0990195"
       x2="7.9406605"
       y2="19.219381" />
    <linearGradient
       id="linearGradient4281-6">
      <stop
         id="stop4283-9"
         style="stop-color:#1e1e1e;stop-opacity:1"
         offset="0" />
      <stop
         id="stop4285-8"
         style="stop-color:#505050;stop-opacity:1"
         offset="1" />
    </linearGradient>
    <linearGradient
       y2="19.219381"
       x2="7.9406605"
       y1="5.0990195"
       x1="7.9406605"
       gradientTransform="matrix(3.5300904,0,0,2.5495098,14.5,970.71929)"
       gradientUnits="userSpaceOnUse"
       id="linearGradient3149"
       xlink:href="#linearGradient4281-6"
       inkscape:collect="always" />
    <linearGradient
       inkscape:collect="always"
       xlink:href="#linearGradient4281-6-79"
       id="linearGradient9010"
       gradientUnits="userSpaceOnUse"
       gradientTransform="matrix(3.3282012,0,0,2.7041634,14.98437,957.3622)"
       x1="9.3966265"
       y1="5.5470023"
       x2="9.3966265"
       y2="19.983326" />
    <linearGradient
       id="linearGradient4281-6-79">
      <stop
         offset="0"
         style="stop-color:#1e1e1e;stop-opacity:1"
         id="stop4283-9-4" />
      <stop
         offset="1"
         style="stop-color:#505050;stop-opacity:1"
         id="stop4285-8-3" />
    </linearGradient>
  </defs>
  <sodipodi:namedview
     id="base"
     pagecolor="#ffffff"
     bordercolor="#666666"
     borderopacity="1.0"
     inkscape:pageopacity="0.0"
     inkscape:pageshadow="2"
     inkscape:zoom="5.6"
     inkscape:cx="47.620364"
     inkscape:cy="57.392991"
     inkscape:document-units="px"
     inkscape:current-layer="layer1"
     showgrid="false"
     showguides="true"
     inkscape:guide-bbox="true"
     inkscape:snap-global="false"
     inkscape:window-width="1301"
     inkscape:window-height="744"
     inkscape:window-x="65"
     inkscape:window-y="24"
     inkscape:window-maximized="1">
    <sodipodi:guide
       orientation="1,0"
       position="3.6160714,56.450893"
       id="guide3050" />
    <sodipodi:guide
       orientation="0,1"
       position="18.782524,92.302689"
       id="guide3052" />
    <sodipodi:guide
       orientation="1,0"
       position="92.365824,51.580914"
       id="guide3054" />
    <sodipodi:guide
       orientation="0,1"
       position="28.221137,3.5355339"
       id="guide3056" />
    <sodipodi:guide
       orientation="1,0"
       position="47.5,92.302689"
       id="guide3058" />
    <sodipodi:guide
       orientation="0,1"
       position="-9.2857143,47.678572"
       id="guide3060" />
    <sodipodi:guide
       orientation="0,1"
       position="105.71429,50.178572"
       id="guide3064" />
  </sodipodi:namedview>
  <metadata
     id="metadata7">
    <rdf:RDF>
      <cc:Work
         rdf:about="">
        <dc:format>image/svg+xml</dc:format>
        <dc:type
           rdf:resource="http://purl.org/dc/dcmitype/StillImage" />
        <dc:title></dc:title>
      </cc:Work>
    </rdf:RDF>
  </metadata>
  <g
     inkscape:label="Layer 1"
     inkscape:groupmode="layer"
     id="layer1"
     transform="translate(0,-956.36218)">
    <rect
       ry="12.551917"
       y="960.04816"
       x="-92.363083"
       height="88.761673"
       width="88.761673"
       id="rect5261-6"
       style="fill:#000000;fill-opacity:0.03921569;stroke:none"
       transform="scale(-1,1)" />
    <rect
       style="fill:#000000;fill-opacity:0.07843137;stroke:none"
       id="rect5259-9"
       width="87.545769"
       height="87.545769"
       x="-91.755157"
       y="960.65662"
       ry="12.379974"
       transform="scale(-1,1)" />
    <rect
       ry="12.20803"
       y="961.26434"
       x="-91.147141"
       height="86.329872"
       width="86.329872"
       id="rect5257-5"
       style="fill:#000000;fill-opacity:0.15686275;stroke:none"
       transform="scale(-1,1)" />
    <path
       inkscape:connector-curvature="0"
       style="opacity:0.9;fill:url(#linearGradient3182);fill-opacity:1;fill-rule:nonzero;stroke:none"
       d="m 78.502096,961.85628 c 6.667992,0 12.031251,5.3945 12.031251,12.0625 l 0,61.03122 c 0,5.4178 -3.533222,9.9818 -8.437501,11.5 l -68.1875,0 c -4.7147996,-1.4568 -8.1719336,-5.7337 -8.4374996,-10.875 l 0,-62.28122 c 0.321173,-6.3771 5.5403826,-11.4375 11.9999996,-11.4375 l 61.03125,0 z"
       id="rect2419" />
    <path
       inkscape:connector-curvature="0"
       style="fill:#000000;fill-opacity:0.23529412;stroke:none"
       d="m 90.539218,1029.8874 0,5.0663 c 0,6.668 -5.364487,12.0325 -12.032476,12.0325 l -61.04902,0 c -6.667991,0 -12.0324826,-5.3645 -12.0324826,-12.0325 l 0,-5.0663 c 0,6.6681 5.3644916,12.0324 12.0324826,12.0324 l 61.04902,0 c 6.667989,0 12.032476,-5.3643 12.032476,-12.0324 z"
       id="rect5265-0" />
    <path
       inkscape:connector-curvature="0"
       style="fill:#000000;fill-opacity:0.09803922;stroke:none"
       d="m 90.539218,1033.9404 0,1.0133 c 0,6.668 -5.364487,12.0325 -12.032476,12.0325 l -61.04902,0 c -6.667991,0 -12.0324826,-5.3645 -12.0324826,-12.0325 l 0,-1.0133 c 0,6.6681 5.3644916,12.0325 12.0324826,12.0325 l 61.04902,0 c 6.667989,0 12.032476,-5.3644 12.032476,-12.0325 z"
       id="path5252-0" />
    <g
       transform="matrix(-1,0,0,1,96.470847,953.94998)"
       id="layer5"
       style="display:inline">
      <rect
         width="66"
         height="66"
         rx="12"
         ry="12"
         x="15"
         y="15"
         clip-path="url(#clipPath3613-55)"
         id="rect3171"
         style="opacity:0.3;fill:url(#linearGradient90466);fill-opacity:1;fill-rule:nonzero;stroke:#ffffff;stroke-width:0.5;stroke-linecap:round;stroke-linejoin:miter;stroke-miterlimit:4;stroke-opacity:1;stroke-dasharray:none;stroke-dashoffset:0;filter:url(#filter3794-41)" />
    </g>
    <g
       id="g9003"
       transform="translate(-0.48436957,9.24998)">
      <path
         d="m 31.48437,973.3622 c -4.155,0 -7.5,3.345 -7.5,7.5 l 0,17 c 0,4.155 3.345,7.5 7.5,7.5 l 5.5,0 c 0.0318,0 0.0623,0 0.0937,0 1.06365,-0.049 1.90625,-0.9238 1.90625,-2 l 0,-2 c 0,-1.108 -0.892,-2 -2,-2 l -4,0 c -1.662,0 -3,-1.338 -3,-3 l 0,-14 c 0,-1.662 1.338,-3 3,-3 l 30,0 c 1.662,0 3,1.338 3,3 l 0,14 c 0,1.662 -1.338,3 -3,3 -1.04842,-0.049 -1.88447,0 -3,0 l 0,-6 -15,9 15,9 0,-6 4.5,0 c 4.155,0 7.5,-3.345 7.5,-7.5 l 0,-17 c 0,-4.155 -3.345,-7.5 -7.5,-7.5 l -33,0 z"
         inkscape:connector-curvature="0"
         id="Symbol"
         style="fill:url(#linearGradient9010);fill-opacity:1;fill-rule:nonzero;stroke:none" />
      <path
         d="m 31.48437,973.3622 c -4.155,0 -7.5,3.345 -7.5,7.5 l 0,17 c 0,4.155 3.345,7.5 7.5,7.5 l 5.5,0 c 0.0318,0 0.0623,0 0.0937,0 1.06365,-0.049 1.90625,-0.9238 1.90625,-2 l 0,-2 c 0,-1.108 -0.892,-2 -2,-2 l -4,0 c -1.662,0 -3,-1.338 -3,-3 l 0,-14 c 0,-1.662 1.338,-3 3,-3 l 30,0 c 1.662,0 3,1.338 3,3 l 0,14 c 0,1.662 -1.338,3 -3,3 -1.04842,-0.049 -1.88447,0 -3,0 l 0,-6 -15,9 15,9 0,-6 4.5,0 c 4.155,0 7.5,-3.345 7.5,-7.5 l 0,-17 c 0,-4.155 -3.345,-7.5 -7.5,-7.5 l -33,0 z m 0,1 33,0 c 3.62322,0 6.5,2.87678 6.5,6.5 l 0,17 c 0,3.6232 -2.87678,6.5 -6.5,6.5 l -4.5,0 a 0.99092879,0.99092879 0 0 0 -1,1 l 0,4.25 -12.09375,-7.25 12.09375,-7.25 0,4.25 a 0.99092879,0.99092879 0 0 0 1,1 c 1.14446,0 1.97548,-0.046 2.96875,0 a 0.99092879,0.99092879 0 0 0 0.0313,0 c 2.19378,0 4,-1.8062 4,-4 l 0,-14 c 0,-2.19378 -1.80622,-4 -4,-4 l -30,0 c -2.19378,0 -4,1.80622 -4,4 l 0,14 c 0,2.1938 1.80622,4 4,4 l 4,0 c 0.57622,0 1,0.4238 1,1 l 0,2 c 0,0.5591 -0.39117,0.9748 -0.9375,1 a 0.99092879,0.99092879 0 0 0 -0.0313,0 c 0.0307,0 0.0317,0 -0.0313,0 l -5.5,0 c -3.62322,0 -6.5,-2.8768 -6.5,-6.5 l 0,-17 c 0,-3.62322 2.87678,-6.5 6.5,-6.5 z"
         inkscape:connector-curvature="0"
         id="path3985"
         style="opacity:0.2;fill:#000000;fill-opacity:1;fill-rule:nonzero;stroke:none" />
      <path
         d="m 31.48437,973.3622 c -4.155,0 -7.5,3.345 -7.5,7.5 l 0,17 c 0,4.155 3.345,7.5 7.5,7.5 l 5.5,0 c 0.0318,0 0.0623,0 0.0937,0 1.06365,-0.049 1.90625,-0.9238 1.90625,-2 l 0,-2 c 0,-1.108 -0.892,-2 -2,-2 l -4,0 c -1.662,0 -3,-1.338 -3,-3 l 0,-14 c 0,-1.662 1.338,-3 3,-3 l 30,0 c 1.662,0 3,1.338 3,3 l 0,14 c 0,1.662 -1.338,3 -3,3 -1.04842,-0.049 -1.88447,0 -3,0 l 0,-6 -15,9 15,9 0,-6 4.5,0 c 4.155,0 7.5,-3.345 7.5,-7.5 l 0,-17 c 0,-4.155 -3.345,-7.5 -7.5,-7.5 l -33,0 z m 0,1.96875 33,0 c 3.09144,0 5.53125,2.43981 5.53125,5.53125 l 0,17 c 0,3.0914 -2.43981,5.5313 -5.53125,5.5313 l -4.5,0 a 1.9818576,1.9818576 0 0 0 -1.96875,1.9687 l 0,2.5 -9.1875,-5.5 9.1875,-5.5 0,2.5 a 1.9818576,1.9818576 0 0 0 1.96875,1.9688 c 1.17339,0 1.96814,-0.044 2.90625,0 a 1.9818576,1.9818576 0 0 0 0.0937,0 c 2.72556,0 4.96875,-2.2432 4.96875,-4.9688 l 0,-14 c 0,-2.72556 -2.24319,-4.96875 -4.96875,-4.96875 l -30,0 c -2.72556,0 -4.96875,2.24319 -4.96875,4.96875 l 0,14 c 0,2.7256 2.24319,4.9688 4.96875,4.9688 l 4,0 c 0.0444,0 0.0313,-0.013 0.0313,0.031 l 0,2 c 0,0.042 -0.002,0.03 -0.0313,0.031 l -5.5,0 c -3.09144,0 -5.53125,-2.4399 -5.53125,-5.5313 l 0,-17 c 0,-3.09144 2.43981,-5.53125 5.53125,-5.53125 z"
         inkscape:connector-curvature="0"
         id="path3981"
         style="opacity:0.1;fill:#000000;fill-opacity:1;fill-rule:nonzero;stroke:none" />
      <path
         d="m 31.48437,973.3622 c -4.155,0 -7.5,3.345 -7.5,7.5 l 0,1 c 0,-4.155 3.345,-7.5 7.5,-7.5 l 33,0 c 4.155,0 7.5,3.345 7.5,7.5 l 0,-1 c 0,-4.155 -3.345,-7.5 -7.5,-7.5 l -33,0 z m 28.5,20 -15,9 0.84375,0.5 14.15625,-8.5 0,-1 z m -30,3 0,1 c 0,1.662 1.338,3 3,3 l 4,0 c 1.108,0 2,0.892 2,2 l 0,-1 c 0,-1.108 -0.892,-2 -2,-2 l -4,0 c -1.662,0 -3,-1.338 -3,-3 z m 36,0 c 0,1.662 -1.338,3 -3,3 -1.04842,-0.049 -1.88447,0 -3,0 l 0,1 c 1.11553,0 1.95158,-0.049 3,0 1.662,0 3,-1.338 3,-3 l 0,-1 z"
         inkscape:connector-curvature="0"
         id="path3962"
         style="opacity:0.6;fill:#000000;fill-opacity:1;fill-rule:nonzero;stroke:none" />
      <path
         d="m 32.98437,979.3622 c -1.662,0 -3,1.338 -3,3 l 0,1 c 0,-1.662 1.338,-3 3,-3 l 30,0 c 1.662,0 3,1.338 3,3 l 0,-1 c 0,-1.662 -1.338,-3 -3,-3 l -30,0 z m -9,18.5 0,1 c 0,4.155 3.345,7.5 7.5,7.5 l 5.5,0 c 0.0318,0 0.0623,0 0.0937,0 1.06365,-0.049 1.90625,-0.9238 1.90625,-2 l 0,-1 c 0,1.0762 -0.8426,1.9508 -1.90625,2 -0.0314,0 -0.062,0 -0.0937,0 l -5.5,0 c -4.155,0 -7.5,-3.345 -7.5,-7.5 z m 48,0 c 0,4.155 -3.345,7.5 -7.5,7.5 l -4.5,0 0,1 4.5,0 c 4.155,0 7.5,-3.345 7.5,-7.5 l 0,-1 z m -26.15625,5 -0.84375,0.5 15,9 0,-1 -14.15625,-8.5 z"
         inkscape:connector-curvature="0"
         id="path3972"
         style="opacity:0.6;fill:#ffffff;fill-opacity:1;fill-rule:nonzero;stroke:none" />
    </g>
  </g>
</svg>
