<?xml version="1.0" encoding="UTF-8" standalone="no"?>
<!-- Created with Inkscape (http://www.inkscape.org/) -->

<svg
   xmlns:dc="http://purl.org/dc/elements/1.1/"
   xmlns:cc="http://creativecommons.org/ns#"
   xmlns:rdf="http://www.w3.org/1999/02/22-rdf-syntax-ns#"
   xmlns:svg="http://www.w3.org/2000/svg"
   xmlns="http://www.w3.org/2000/svg"
   xmlns:xlink="http://www.w3.org/1999/xlink"
   xmlns:sodipodi="http://sodipodi.sourceforge.net/DTD/sodipodi-0.dtd"
   xmlns:inkscape="http://www.inkscape.org/namespaces/inkscape"
   width="96"
   height="96"
   id="svg2"
   version="1.1"
   inkscape:version="0.48.4 r9939">
  <defs
     id="defs4">
    <linearGradient
       inkscape:collect="always"
       xlink:href="#linearGradient4281-6-029"
       id="linearGradient16881"
       gradientUnits="userSpaceOnUse"
       gradientTransform="matrix(0,0.85741265,0.77885807,0,25.217737,969.80842)"
       x1="24.508066"
       y1="35.527863"
       x2="55.491936"
       y2="35.527863" />
    <linearGradient
       id="linearGradient4281-6-029">
      <stop
         offset="0"
         style="stop-color:#1e1e1e;stop-opacity:1"
         id="stop4283-9-16" />
      <stop
         offset="1"
         style="stop-color:#505050;stop-opacity:1"
         id="stop4285-8-45" />
    </linearGradient>
    <linearGradient
       inkscape:collect="always"
       xlink:href="#linearGradient3737-714"
       id="linearGradient90466"
       gradientUnits="userSpaceOnUse"
       x1="48"
       y1="20.220806"
       x2="48"
       y2="138.66119" />
    <linearGradient
       id="linearGradient3737-714">
      <stop
         id="stop3739-532"
         style="stop-color:#ffffff;stop-opacity:1"
         offset="0" />
      <stop
         id="stop3741-666"
         style="stop-color:#ffffff;stop-opacity:0"
         offset="1" />
    </linearGradient>
    <clipPath
       id="clipPath3613-55">
      <rect
         width="84"
         height="84"
         rx="6"
         ry="6"
         x="6"
         y="6"
         id="rect3615-88"
         style="fill:#ffffff;fill-opacity:1;fill-rule:nonzero;stroke:none" />
    </clipPath>
    <filter
       x="-0.192"
       y="-0.192"
       width="1.3839999"
       height="1.3839999"
       color-interpolation-filters="sRGB"
       id="filter3794-41">
      <feGaussianBlur
         id="feGaussianBlur3796-50"
         stdDeviation="5.28" />
    </filter>
    <linearGradient
       gradientTransform="matrix(-1.125,0,0,1.0416667,103.72085,953.19998)"
       y2="5.9877172"
       x2="48"
       y1="90"
       x1="48"
       gradientUnits="userSpaceOnUse"
       id="linearGradient3182"
       xlink:href="#linearGradient4081"
       inkscape:collect="always" />
    <linearGradient
       id="linearGradient4081">
      <stop
         id="stop4083"
         style="stop-color:#8c8c8c;stop-opacity:1"
         offset="0" />
      <stop
         id="stop4085"
         style="stop-color:#dcdcdc;stop-opacity:1"
         offset="1" />
    </linearGradient>
    <linearGradient
       inkscape:collect="always"
       xlink:href="#SpecificGradient"
       id="linearGradient3124"
       gradientUnits="userSpaceOnUse"
       x1="4"
       y1="11"
       x2="18"
       y2="11"
       gradientTransform="matrix(0,2.5714286,-2.5714286,0,91.743341,391.5109)" />
    <linearGradient
       x1="10.761708"
       y1="3.9999998"
       x2="10.761708"
       y2="18.011395"
       id="SpecificGradient"
       gradientUnits="userSpaceOnUse">
      <stop
         id="stop3292"
         style="stop-color:#a50000;stop-opacity:1"
         offset="0" />
      <stop
         id="stop3294"
         style="stop-color:#e73800;stop-opacity:1"
         offset="1" />
    </linearGradient>
    <linearGradient
       y2="11"
       x2="18"
       y1="11"
       x1="4"
       gradientTransform="matrix(0,2.5714286,-2.5714286,0,75.785715,973.57652)"
       gradientUnits="userSpaceOnUse"
       id="linearGradient3152"
       xlink:href="#SpecificGradient"
       inkscape:collect="always" />
  </defs>
  <sodipodi:namedview
     id="base"
     pagecolor="#ffffff"
     bordercolor="#666666"
     borderopacity="1.0"
     inkscape:pageopacity="0.0"
     inkscape:pageshadow="2"
     inkscape:zoom="2.8"
     inkscape:cx="86.494544"
     inkscape:cy="26.513334"
     inkscape:document-units="px"
     inkscape:current-layer="layer1"
     showgrid="false"
     showguides="true"
     inkscape:guide-bbox="true"
     inkscape:snap-global="false"
     inkscape:window-width="1301"
     inkscape:window-height="744"
     inkscape:window-x="65"
     inkscape:window-y="24"
     inkscape:window-maximized="1">
    <sodipodi:guide
       orientation="1,0"
       position="3.6160714,56.450893"
       id="guide3050" />
    <sodipodi:guide
       orientation="0,1"
       position="18.782524,92.302689"
       id="guide3052" />
    <sodipodi:guide
       orientation="1,0"
       position="92.365824,51.580914"
       id="guide3054" />
    <sodipodi:guide
       orientation="0,1"
       position="28.221137,3.5355339"
       id="guide3056" />
    <sodipodi:guide
       orientation="1,0"
       position="47.5,92.302689"
       id="guide3058" />
    <sodipodi:guide
       orientation="0,1"
       position="-9.2857143,47.678572"
       id="guide3060" />
    <sodipodi:guide
       orientation="0,1"
       position="105.71429,50.178572"
       id="guide3064" />
  </sodipodi:namedview>
  <metadata
     id="metadata7">
    <rdf:RDF>
      <cc:Work
         rdf:about="">
        <dc:format>image/svg+xml</dc:format>
        <dc:type
           rdf:resource="http://purl.org/dc/dcmitype/StillImage" />
        <dc:title></dc:title>
      </cc:Work>
    </rdf:RDF>
  </metadata>
  <g
     inkscape:label="Layer 1"
     inkscape:groupmode="layer"
     id="layer1"
     transform="translate(0,-956.36218)">
    <rect
       ry="12.551917"
       y="960.04816"
       x="-92.363083"
       height="88.761673"
       width="88.761673"
       id="rect5261-6"
       style="fill:#000000;fill-opacity:0.03921569;stroke:none"
       transform="scale(-1,1)" />
    <rect
       style="fill:#000000;fill-opacity:0.07843137;stroke:none"
       id="rect5259-9"
       width="87.545769"
       height="87.545769"
       x="-91.755157"
       y="960.65662"
       ry="12.379974"
       transform="scale(-1,1)" />
    <rect
       ry="12.20803"
       y="961.26434"
       x="-91.147141"
       height="86.329872"
       width="86.329872"
       id="rect5257-5"
       style="fill:#000000;fill-opacity:0.15686275;stroke:none"
       transform="scale(-1,1)" />
    <path
       inkscape:connector-curvature="0"
       style="opacity:0.9;fill:url(#linearGradient3182);fill-opacity:1;fill-rule:nonzero;stroke:none"
       d="m 78.502096,961.85628 c 6.667992,0 12.031251,5.3945 12.031251,12.0625 l 0,61.03122 c 0,5.4178 -3.533222,9.9818 -8.437501,11.5 l -68.1875,0 c -4.7147996,-1.4568 -8.1719336,-5.7337 -8.4374996,-10.875 l 0,-62.28122 c 0.321173,-6.3771 5.5403826,-11.4375 11.9999996,-11.4375 l 61.03125,0 z"
       id="rect2419" />
    <path
       inkscape:connector-curvature="0"
       style="fill:#000000;fill-opacity:0.23529412;stroke:none"
       d="m 90.539218,1029.8874 0,5.0663 c 0,6.668 -5.364487,12.0325 -12.032476,12.0325 l -61.04902,0 c -6.667991,0 -12.0324826,-5.3645 -12.0324826,-12.0325 l 0,-5.0663 c 0,6.6681 5.3644916,12.0324 12.0324826,12.0324 l 61.04902,0 c 6.667989,0 12.032476,-5.3643 12.032476,-12.0324 z"
       id="rect5265-0" />
    <path
       inkscape:connector-curvature="0"
       style="fill:#000000;fill-opacity:0.09803922;stroke:none"
       d="m 90.539218,1033.9404 0,1.0133 c 0,6.668 -5.364487,12.0325 -12.032476,12.0325 l -61.04902,0 c -6.667991,0 -12.0324826,-5.3645 -12.0324826,-12.0325 l 0,-1.0133 c 0,6.6681 5.3644916,12.0325 12.0324826,12.0325 l 61.04902,0 c 6.667989,0 12.032476,-5.3644 12.032476,-12.0325 z"
       id="path5252-0" />
    <g
       transform="matrix(-1,0,0,1,96.470847,953.94998)"
       id="layer5"
       style="display:inline">
      <rect
         width="66"
         height="66"
         rx="12"
         ry="12"
         x="15"
         y="15"
         clip-path="url(#clipPath3613-55)"
         id="rect3171"
         style="opacity:0.3;fill:url(#linearGradient90466);fill-opacity:1;fill-rule:nonzero;stroke:#ffffff;stroke-width:0.5;stroke-linecap:round;stroke-linejoin:miter;stroke-miterlimit:4;stroke-opacity:1;stroke-dasharray:none;stroke-dashoffset:0;filter:url(#filter3794-41)" />
    </g>
    <path
       inkscape:connector-curvature="0"
       style="fill:url(#linearGradient3152);fill-opacity:1;stroke:none;display:inline"
       id="path2841"
       d="m 47.5,1019.8623 a 18.00008,18.00008 0 1 1 0,-36.00008 18.00008,18.00008 0 0 1 0,36.00008 z" />
    <path
       style="opacity:0.6;fill:#ffffff;fill-opacity:1;stroke:none;display:inline"
       id="path3979"
       inkscape:connector-curvature="0"
       d="m 29.531251,1002.3623 c -0.0046,0.1674 -0.03125,0.3314 -0.03125,0.5 0,9.9411 8.058874,18 18,18 9.941126,0 18,-8.0589 18,-18 0,-0.1686 -0.02664,-0.3326 -0.03125,-0.5 -0.266962,9.708 -8.196218,17.5 -17.96875,17.5 -9.772532,0 -17.701788,-7.792 -17.96875,-17.5 z" />
    <path
       style="opacity:0.15;fill:#550000;fill-opacity:1;stroke:none;display:inline"
       id="path4001"
       inkscape:connector-curvature="0"
       d="m 47.500001,983.86222 c -9.941126,0 -18,8.0588 -18,18.00008 0,9.9411 8.058874,18 18,18 9.941126,0 18,-8.0589 18,-18 0,-9.94128 -8.058874,-18.00008 -18,-18.00008 z m 0,2 c 8.836556,0 16,7.1634 16,16.00008 0,8.8365 -7.163444,16 -16,16 -8.836556,0 -16,-7.1635 -16,-16 0,-8.83668 7.163444,-16.00008 16,-16.00008 z" />
    <path
       style="opacity:0.3;fill:#550000;fill-opacity:1;stroke:none;display:inline"
       id="path3997"
       inkscape:connector-curvature="0"
       d="m 47.500001,983.86222 c -9.941126,0 -18,8.0588 -18,18.00008 0,9.9411 8.058874,18 18,18 9.941126,0 18,-8.0589 18,-18 0,-9.94128 -8.058874,-18.00008 -18,-18.00008 z m 0,1 c 9.388841,0 17,7.6111 17,17.00008 0,9.3888 -7.611159,17 -17,17 -9.388841,0 -17,-7.6112 -17,-17 0,-9.38898 7.611159,-17.00008 17,-17.00008 z" />
    <path
       style="opacity:0.6;fill:#550000;fill-opacity:1;stroke:none;display:inline"
       id="path3988"
       inkscape:connector-curvature="0"
       d="m 47.500001,983.86222 c -9.941126,0 -18,8.0588 -18,18.00008 0,0.1686 0.02664,0.3325 0.03125,0.5 0.266962,-9.70818 8.196218,-17.50008 17.96875,-17.50008 9.772532,0 17.701788,7.7919 17.96875,17.50008 0.0046,-0.1675 0.03125,-0.3314 0.03125,-0.5 0,-9.94128 -8.058874,-18.00008 -18,-18.00008 z" />
  </g>
</svg>
