<?xml version="1.0" encoding="UTF-8" standalone="no"?>
<!-- Created with Inkscape (http://www.inkscape.org/) -->
<svg id="svg2" xmlns:rdf="http://www.w3.org/1999/02/22-rdf-syntax-ns#" xmlns="http://www.w3.org/2000/svg" height="96" width="96" version="1.1" xmlns:cc="http://creativecommons.org/ns#" xmlns:xlink="http://www.w3.org/1999/xlink" xmlns:dc="http://purl.org/dc/elements/1.1/">
 <defs id="defs4">
  <linearGradient id="linearGradient11508-3">
   <stop id="stop11510-2" offset="0"/>
   <stop id="stop11512-4" stop-opacity="0" offset="1"/>
  </linearGradient>
  <linearGradient id="linearGradient3844" y2="5.9877" gradientUnits="userSpaceOnUse" x2="48" gradientTransform="matrix(1.0536 0 0 -1.0536 -2.6295 98.571)" y1="90" x1="48">
   <stop id="stop7670-5" stop-color="#94b6db" offset="0"/>
   <stop id="stop7672-3" stop-color="#3465a4" offset="1"/>
  </linearGradient>
  <radialGradient id="radialGradient4326" gradientUnits="userSpaceOnUse" cy="41.704" cx="59.852" gradientTransform="matrix(.37707 -.72166 .090208 .047134 37.969 1038.5)" r="18.183">
   <stop id="stop10412-0" stop-color="#fff" offset="0"/>
   <stop id="stop10414-2" stop-color="#fff" stop-opacity="0" offset="1"/>
  </radialGradient>
  <linearGradient id="linearGradient4329" y2="57.993" gradientUnits="userSpaceOnUse" x2="47.451" gradientTransform="matrix(.81423 0 0 .81423 10.837 968.26)" y1="68.172" x1="58.652">
   <stop id="stop10388-0" stop-color="#fff" offset="0"/>
   <stop id="stop10390-9" stop-color="#fff" stop-opacity="0" offset="1"/>
  </linearGradient>
  <linearGradient id="linearGradient4334" y2="67.674" gradientUnits="userSpaceOnUse" x2="13.406" gradientTransform="matrix(.59072 -.15822 .15862 .59174 32.214 983.14)" y1="77.502" x1="24.249">
   <stop id="stop6533-2" stop-color="#c38125" offset="0"/>
   <stop id="stop10377-64" stop-color="#c68d31" offset=".62963"/>
   <stop id="stop6535-5" stop-color="#fffce6" offset="1"/>
  </linearGradient>
  <linearGradient id="linearGradient4338" y2="39.534" gradientUnits="userSpaceOnUse" x2="68.223" gradientTransform="matrix(.81423 0 0 .81423 10.837 968.26)" y1="35.606" x1="60.899">
   <stop id="stop10396-9" stop-color="#1a1a1a" offset="0"/>
   <stop id="stop10404-5" stop-color="#636363" offset=".35185"/>
   <stop id="stop10402-4" stop-color="#c7c7c7" offset=".5"/>
   <stop id="stop10406-3" stop-color="#636363" offset="0.65"/>
   <stop id="stop10398-7" offset="1"/>
  </linearGradient>
  <linearGradient id="linearGradient4341" y2="6.2082" xlink:href="#linearGradient11508-3" gradientUnits="userSpaceOnUse" x2="87.732" gradientTransform="matrix(.98634 .12131 -.15118 .79144 16.055 965.01)" y1="82.474" x1="43.7"/>
  <linearGradient id="linearGradient4344" y2="16.212" xlink:href="#linearGradient11508-3" gradientUnits="userSpaceOnUse" x2="77.924" gradientTransform="matrix(1.0122 .18119 -.32272 .56830 29.169 981.02)" y1="82.474" x1="43.7"/>
  <linearGradient id="linearGradient4349" y2="44.5" gradientUnits="userSpaceOnUse" x2="35.095" gradientTransform="matrix(1.5027 0 0 1.519 5.0726 963.97)" y1="4.7143" x1="25.071">
   <stop id="stop3721-6" stop-color="#eaedf1" offset="0"/>
   <stop id="stop3723-19" stop-color="#c1ccdb" offset="1"/>
  </linearGradient>
 </defs>
 <metadata id="metadata7">
  <rdf:RDF>
   <cc:Work rdf:about="">
    <dc:format>image/svg+xml</dc:format>
    <dc:type rdf:resource="http://purl.org/dc/dcmitype/StillImage"/>
    <dc:title/>
   </cc:Work>
  </rdf:RDF>
 </metadata>
 <g id="layer1" transform="translate(0 -956.36)">
  <rect id="rect5263-0" fill-opacity=".019608" ry="12.724" height="89.978" width="89.978" y="959.35" x="2.9998"/>
  <rect id="rect5261-6" fill-opacity=".039216" ry="12.552" height="88.762" width="88.762" y="959.96" x="3.6078"/>
  <rect id="rect5259-9" fill-opacity=".078431" ry="12.38" height="87.546" width="87.546" y="960.57" x="4.2157"/>
  <rect id="rect5257-5" fill-opacity=".15686" ry="12.208" height="86.33" width="86.33" y="961.18" x="4.8237"/>
  <path id="rect2419" d="m17.469 5.4062c-6.668 0-12.032 5.3948-12.032 12.063l0.0005 61.031c0 6.668 5.3635 12.031 12.032 12.031h61.03c6.668 0 12.031-5.363 12.031-12.031v-61.031c0-6.668-5.363-12.063-12.031-12.063l-61.031 0.0002z" transform="translate(0 956.36)" fill="url(#linearGradient3844)"/>
  <path id="rect5265-0" d="m5.4316 1029.8v5.0663c0 6.668 5.3645 12.032 12.032 12.032h61.049c6.668 0 12.032-5.3645 12.032-12.032v-5.0663c0 6.6681-5.3645 12.032-12.032 12.032h-61.049c-6.668 0-12.032-5.3643-12.032-12.032z" fill-opacity=".23223"/>
  <path id="path5252-0" d="m5.4316 1033.9v1.0133c0 6.668 5.3645 12.032 12.032 12.032h61.049c6.668 0 12.032-5.3645 12.032-12.032v-1.0133c0 6.6681-5.3645 12.032-12.032 12.032h-61.049c-6.668 0-12.032-5.3644-12.032-12.032z" fill-opacity=".098039"/>
  <path id="path3766" opacity=".05" d="m42.348 969.84c-1.882 0.0424-3.5829 0.99159-5.25 2.3125-1.6714 1.3243-3.376 3.1282-5.0938 5.2812-3.4361 4.3068-6.9419 10.062-10.188 16.25-3.2459 6.1882-6.2078 12.81-8.3438 18.844-2.13 6.0172-3.5041 11.377-3.5 15.438 0.000009 0.01-0.000022 0.022 0 0.031-0.000047 0.031-0.000094 0.091 0 0.094a0.86422 0.86422 0 0 0 0 0.031c0.14849 2.6016 1.8975 4.3324 3.75 5 1.7682 0.6371 3.5692 0.6213 4.8125 0.6562a0.86422 0.86422 0 0 0 0.03125 0c0.0044 0 0.1206 0.0003 0.125 0s0.08938-0.031 0.09375-0.031c0.0044-0.0006 0.12066 0.0008 0.125 0 0.0033-0.0006 0.06361-0.025 0.09375-0.031h0.03125c8.894-1.8526 18.91-6.5736 26.906-10.969 4.002-2.1998 7.4829-4.3115 10.031-5.9688 1.2817-0.8336 2.3066-1.5749 3.0625-2.125 0.3607-0.2625 0.70689-0.4773 1-0.7187 0.16563-0.1365 0.3859-0.3723 0.625-0.6875 5.159 9.2573 9.5312 17.625 9.5312 17.625 0.003 0.01 0.09033 0.1196 0.09375 0.125 0.0034 0.01 0.08988 0.1511 0.09375 0.1562 0.0039 0.01 0.08947 0.1203 0.09375 0.125 0.0043 0 0.12033 0.089 0.125 0.094 0.0047 0 0.11998 0.121 0.125 0.125 0.005 0 0.11967 0.09 0.125 0.094 0.0053 0 0.15064 0.091 0.15625 0.094 0.0056 0 0.1504 0.06 0.15625 0.063 0.0059 0 0.11895 0.06 0.125 0.063 0.0061 0 0.15004 0.061 0.15625 0.063 0.0062 0 0.18118 0.03 0.1875 0.031 0.0063 0 0.14986-0.0005 0.15625 0 0.0064 0.0006 0.14984 0 0.15625 0 0.0064 0 0.14986 0.0006 0.15625 0 0.0064-0.0005 0.18118 0 0.1875 0 0.0063 0 0.15004-0.03 0.15625-0.031 0.0062 0 0.1502-0.06 0.15625-0.063 0.006 0 0.1504-0.06 0.15625-0.063 0.0059 0 0.11939-0.059 0.125-0.063 0.0056 0 0.15092-0.09 0.15625-0.094 0.0053 0 0.11998-0.09 0.125-0.094 0.005 0 0.12034-0.1206 0.125-0.125 0.0047 0 0.12072-0.089 0.125-0.094 0.0043 0 0.08989-0.1199 0.09375-0.125 0.0039-0.01 0.09033-0.1508 0.09375-0.1562 0.0034-0.01 0.09079-0.1193 0.09375-0.125 0.003-0.01 0.06003-0.1504 0.0625-0.1563 0.0025-0.01 0.06054-0.1501 0.0625-0.1562 0.002-0.01 0.0298-0.15 0.03125-0.1563 0.0014-0.01 0.03033-0.1499 0.03125-0.1562 0.000916-0.01 0.03087-0.1499 0.03125-0.1563 0.000382-0.01 0.000156-0.1811 0-0.1875-0.24486-11.234-5.3233-25.909-11.531-38-3.1044-6.0464-6.5144-11.428-9.8438-15.375-3.3181-3.934-6.5731-6.769-10.188-6.6875zm0.125 16.188c0.08788 0.0489 0.17773 0.0987 0.3125 0.1875 0.35282 0.23236 0.85822 0.61195 1.375 1.1562 1.0776 1.135 2.4242 2.9163 3.9062 5.0312 2.9599 4.224 6.4361 9.9187 9.7188 15.625 0.43789 0.7612 0.72624 1.3359 1.1562 2.0938-0.04105 0-0.09031-0.0005-0.09375 0-0.0057 0.0008-0.15059 0.03-0.15625 0.031-0.0057 0-0.11946 0.061-0.125 0.063a0.86422 0.86422 0 0 0 -0.03125 0s-8.6522 2.8035-17.531 5.1875c-4.4393 1.192-8.9421 2.2945-12.344 2.8438-1.7029 0.2749-3.1265 0.3962-4.0312 0.375-0.146 0-0.18746-0.016-0.3125-0.031 0.01257-0.2557 0.01914-0.5026 0.09375-0.8437 0.23349-1.0677 0.72591-2.5612 1.375-4.2813 1.2959-3.4341 3.2647-7.8005 5.5-12 2.2359-4.2006 4.7464-8.2759 6.9688-11.219 1.108-1.4672 2.154-2.6365 3-3.375 0.41073-0.35856 0.76784-0.61163 1.0312-0.75 0.17923-0.0942 0.16921-0.0818 0.1875-0.0937z" fill-rule="evenodd"/>
  <path id="path3762" opacity=".1" d="m42.379 970.71c-1.5976 0.036-3.1539 0.86037-4.75 2.125s-3.2468 3.0059-4.9375 5.125c-3.3813 4.2381-6.8967 9.9704-10.125 16.125s-6.1626 12.734-8.2812 18.719c-2.1187 5.9851-3.4471 11.324-3.4375 15.188a1.0931 1.0931 0 0 0 0 0.063c0.12861 2.2533 1.5792 3.6817 3.1562 4.25 1.577 0.5682 3.2928 0.5581 4.5625 0.5937a1.0931 1.0931 0 0 0 0.25 -0.031c8.74-1.8151 18.754-6.4972 26.719-10.875 3.9822-2.1889 7.4399-4.2929 9.9688-5.9375 1.2644-0.8224 2.2811-1.5479 3.0312-2.0938 0.37505-0.2729 0.69838-0.4905 0.9375-0.6875s0.35119-0.2514 0.59375-0.625a1.0931 1.0931 0 0 0 -1.25 -1.625s-8.6858 2.827-17.594 5.2188c-4.454 1.1959-8.9784 2.2852-12.438 2.8437-1.7296 0.2793-3.1775 0.43-4.1875 0.4063-0.505-0.012-0.91989-0.093-1.125-0.1563-0.20511-0.063-0.13855-0.08-0.0625 0.063 0.06829 0.1282-0.09431-0.6981 0.15625-1.8437 0.25056-1.1457 0.74952-2.6659 1.4062-4.4063 1.3135-3.4807 3.3105-7.8628 5.5625-12.094 2.252-4.231 4.7652-8.3432 7.0312-11.344 1.133-1.5003 2.2089-2.7003 3.125-3.5 0.91605-0.79969 1.6623-1.0993 1.9062-1.0938 0.02708 0.00063 1.0513 0.45959 2.1875 1.6562 1.1362 1.1967 2.5064 2.9935 4 5.125 2.9872 4.2629 6.4601 9.9687 9.75 15.687 6.5797 11.438 12.438 22.875 12.438 22.875a1.0931 1.0931 0 0 0 2.0625 -0.5312c-0.23948-10.986-5.2725-25.618-11.438-37.625-3.0826-6.004-6.4531-11.347-9.7188-15.219-3.2657-3.8718-6.3722-6.4455-9.5-6.375z" fill-rule="evenodd"/>
  <path id="path3756" opacity=".3" d="m11.942 1028c-0.03577-14.394 20.79-55.983 30.483-56.202 4.8476-0.10931 12.111 9.0949 18.22 20.994 6.1092 11.899 11.065 26.492 11.297 37.161 0 0-23.453-45.813-29.302-45.949-5.9571-0.13563-22.126 32.277-20.203 35.888 1.8784 3.5261 36.732-7.8413 36.732-7.8413-0.75134 1.1573-23.506 16.202-40.572 19.746-2.576-0.072-6.4401-0.036-6.6547-3.7974z" fill-rule="evenodd"/>
  <path id="path5556" d="m11.942 1027c-0.03577-14.394 20.79-55.983 30.483-56.202 4.8476-0.10931 12.111 9.0949 18.22 20.994 6.1092 11.899 11.065 26.492 11.297 37.161 0 0-23.453-45.813-29.302-45.949-5.9571-0.13563-22.126 32.277-20.203 35.888 1.8784 3.5261 36.732-7.8413 36.732-7.8413-0.75134 1.1573-23.506 16.202-40.572 19.746-2.576-0.072-6.4401-0.036-6.6547-3.7974z" fill-rule="evenodd" fill="url(#linearGradient4349)"/>
  <path id="path3738" opacity=".6" d="m41.442 972.84c-0.4901 0.0111-1.533 0.4302-2.8438 1.4688s-2.844 2.6277-4.4375 4.625c-3.1871 3.9947-6.6511 9.5666-9.8125 15.594-3.1614 6.0271-6.0359 12.53-8.0938 18.344-2.0423 5.7692-3.2705 10.919-3.2812 14.031 0.07029 1.1369 0.27903 1.1752 1.0938 1.4688 0.76826 0.2768 2.1028 0.3355 3.3438 0.375 0.12474-0.027 0.2495-0.066 0.375-0.094-0.66834-0.053-1.2892-0.1264-1.7188-0.2812-0.81472-0.2936-1.0235-0.3319-1.0938-1.4688 0.01071-3.1118 1.239-8.262 3.2812-14.031 2.0578-5.8133 4.9323-12.317 8.0938-18.344 3.1614-6.0271 6.6254-11.599 9.8125-15.594 1.5935-1.9973 3.1267-3.5864 4.4375-4.625 0.7339-0.58149 1.3591-0.95728 1.875-1.1875-0.42752-0.18224-0.77464-0.28704-1.0312-0.28125zm2.2188 8.1562c-0.3753-0.008-0.73228 0.0215-1.0625 0.0937 1.4562 0.32761 2.3282 1.3629 3.4375 2.5312 1.3234 1.3938 2.7686 3.2654 4.3125 5.4688 3.0878 4.4066 6.5917 10.176 9.9062 15.937 3.6404 6.3281 4.5359 8.2166 6.875 12.625-0.6338-2.6459-1.439-5.374-2.3438-8.125-0.69428-1.2545-1.4801-2.6727-2.5312-4.5-3.3145-5.7616-6.8184-11.531-9.9062-15.937-1.5439-2.2033-2.9891-4.0749-4.3125-5.4688-1.3234-1.3938-2.2961-2.5775-4.3438-2.625a2.0437 2.0437 0 0 0 -0.03125 0zm1.2188 36.125c-1.8422 0.5319-1.89 0.6316-3.8438 1.1562-4.507 1.2102-9.0863 2.3147-12.75 2.9063-1.213 0.1958-2.3083 0.3417-3.3125 0.4062 0.17834 0.014 0.34468 0.027 0.53125 0.031 1.3613 0.032 2.9494-0.1417 4.7812-0.4375 3.614-0.5836 8.1149-1.6842 12.562-2.875 0.04787-0.026 0.10853-0.036 0.15625-0.063 0.75123-0.413 1.1638-0.7202 1.875-1.125z" fill-rule="evenodd" fill="#fff"/>
  <path id="path3743" opacity=".1" d="m42.411 970.81c-9.6934 0.21856-30.505 41.794-30.469 56.188 0.21467 3.7612 4.0802 3.7401 6.6562 3.8125 17.066-3.5443 39.811-18.593 40.562-19.75 0 0-34.84 11.37-36.719 7.8437-1.9233-3.6105 14.23-36.011 20.188-35.875 5.8497 0.13562 29.312 45.937 29.312 45.937-0.23256-10.669-5.2033-25.258-11.312-37.156-6.1092-11.899-13.371-21.109-18.219-21zm0.03125 0.9375c1.8269-0.0412 4.7895 1.9609 7.9062 5.6562 3.1168 3.6953 6.4379 8.9407 9.4688 14.844 5.1894 10.107 9.337 22.072 10.625 31.875-2.1662-4.1362-5.5809-10.578-10.156-18.531-3.3057-5.7464-6.7918-11.488-9.8438-15.844-1.526-2.1777-2.9308-4.0201-4.1875-5.3438-1.2567-1.3236-2.2655-2.2817-3.5938-2.3125-1.1691-0.0266-2.2264 0.64564-3.3125 1.5938-1.0861 0.94811-2.2214 2.2436-3.4062 3.8125-2.3696 3.1378-4.8998 7.3271-7.1875 11.625s-4.3305 8.7164-5.6875 12.313c-0.6785 1.798-1.1836 3.3837-1.4688 4.6875-0.28514 1.3037-0.47089 2.2761 0.03125 3.2187 0.2814 0.5283 0.76171 0.7871 1.25 0.9375 0.48829 0.1505 1.0381 0.2043 1.6562 0.2188 1.2362 0.029 2.7983-0.1164 4.5938-0.4063 3.5909-0.5798 8.1369-1.7012 12.625-2.9062 6.3259-1.6985 9.3581-2.7041 12.469-3.6875-2.4716 1.6019-5.8296 3.5981-9.6875 5.7187-7.8238 4.3006-17.642 8.8972-25.969 10.656-1.2899-0.036-2.7988-0.081-3.875-0.4688-1.0749-0.3873-1.7062-0.9026-1.8125-2.4062-0.00002-0.01 0.000005-0.023 0-0.031-0.000832-0.013 0.000752-0.018 0-0.031 0.0039-3.3759 1.2431-8.5916 3.3125-14.438 2.0795-5.8745 4.971-12.396 8.1562-18.469 3.1852-6.0725 6.6813-11.7 9.9375-15.781 1.6281-2.0407 3.1814-3.6934 4.5938-4.8125 1.4124-1.119 2.678-1.6676 3.5625-1.6875z" fill-rule="evenodd"/>
  <path id="path10456" opacity=".3" d="m90.618 1006.4c-4.3052 2.0006-8.509 3.9883-12.305 6.2085-5.0986 2.9825-8.6722 5.9688-10.313 8.2441-0.0075 0.01-0.0223 0.015-0.02971 0.026-0.99898 0.5127-8.1616 4.2124-11.799 6.3612-3.9714 2.3458-10.67 8.3458-10.67 8.3458l0.77275 0.4072c6.5828-2.6277 19.824-5.2417 19.824-5.2417l0.44582-0.1017-0.11888-0.2545s-0.05798-0.1062 0-0.4326c0.05799-0.3263 0.25419-0.8397 0.74303-1.5266 1.0622-1.4927 3.7458-3.068 5.5578-4.0203 4.1792-0.8832 10.092-3.2388 15.604-6.463 0.7829-0.458 1.5339-0.9254 2.2885-1.3995v-10.152z" fill="url(#linearGradient4344)"/>
  <path id="path10430" opacity=".2" d="m90.618 980.98c-6.8096 7.2724-14.692 13.153-20.745 20.127-3.9525 4.5535-6.4715 8.9528-7.4006 12.163-0.0042 0.015-0.02555 0.036-0.02973 0.051-0.7931 0.7972-6.4585 6.4943-9.273 9.7708-3.0727 3.577-7.7275 12.315-7.7275 12.315l0.83219 0.458c5.422-4.2575 17-9.2619 17-9.2619l0.38638-0.1781-0.1486-0.3308s-0.08757-0.1456-0.11888-0.5852c-0.03133-0.4396-0.0069-1.1437 0.26749-2.1119 0.59615-2.1039 2.6985-4.5039 4.1312-5.9795 3.647-1.6622 8.5071-5.4587 12.78-10.382 3.6729-4.2314 6.7353-8.8272 10.046-13.562v-12.493z" fill="url(#linearGradient4341)"/>
  <path id="path10375" d="m69.007 1002.4c-4.0496 8.2509-9.7641 14.119-11.845 13.001-2.2191-1.1923-1.1463-8.7964 3.0089-17.262 4.1542-8.4641 10.627-15.8 14.882-25.25 0.81079-1.801 2.3809-4.4618 4.6101-3.3316 2.3106 1.1714 1.6837 3.3635 0.46294 5.8534-4.7142 9.6155-7.0695 18.739-11.119 26.99z" stroke="#000" fill="url(#linearGradient4338)"/>
  <path id="path4343" d="m61.785 1010.8a3.3364 2.6238 29.388 1 1 -5.6492 1.5131 3.3364 2.6238 29.388 1 1 5.6492 -1.5131z" stroke="#2e3436" stroke-linecap="round" stroke-width="1.969" fill="none"/>
  <path id="path4341" d="m45.804 1035.5s2.4075-9.3899 4.2814-13.255c1.8738-3.8654 6.3041-11.555 6.3041-11.555s1.2782-1.912 3.3416-0.895 1.4678 2.9703 1.4678 2.9703-3.1117 4.6865-3.3706 8.3025c-0.14923 2.0844 0.3394 2.9362 0.3394 2.9362s-8.5696 6.4436-12.364 11.496z" fill-rule="evenodd" stroke="#c17d11" fill="url(#linearGradient4334)"/>
  <path id="path6537" d="m52.077 1022.2a0.54471 1.2425 27.633 0 1 -1.0039 -0.43 0.54471 1.2425 27.633 1 1 1.0039 0.43z" fill-opacity=".6" stroke="#c17d11" stroke-linecap="round" stroke-width=".33466"/>
  <path id="path8007" d="m45.852 1035.3c1.6988-4.3791 2.9113-8.0673 5.0356-12.112" fill-rule="evenodd" stroke="#c17d11" stroke-width=".34298" fill="#c17d11"/>
  <path id="path10381" d="m59.437 1011.1c-0.17821 0.1447-0.29683 0.2952-0.30534 0.3053-0.00005 0.0001-0.02539-0.0001-0.02544 0-0.06143 0.1067-4.405 7.679-6.2085 11.399-0.61451 1.2676-1.3455 3.3136-2.0101 5.4198 2.7494-2.4748 5.1081-4.2483 5.7505-4.7328-0.12267-0.6032-0.20766-1.4464-0.12722-2.5699 0.15355-2.1448 1.0634-4.3076 1.9084-6.005 0.76484-1.5364 1.367-2.4403 1.5012-2.6462 0.009-0.036 0.0442-0.172 0-0.4326-0.04097-0.2416-0.08618-0.4776-0.48345-0.7379z" fill-rule="evenodd" fill="url(#linearGradient4329)"/>
  <path id="path10408" d="m71.156 984.16a1.8506 14.805 27.587 1 1 -13.713 26.24 1.8506 14.805 27.587 0 1 13.713 -26.24z" fill="url(#radialGradient4326)"/>
 </g>
</svg>
