<?xml version="1.0" encoding="UTF-8" standalone="no"?>
<!-- Created with Inkscape (http://www.inkscape.org/) -->
<svg id="svg2" xmlns:rdf="http://www.w3.org/1999/02/22-rdf-syntax-ns#" xmlns="http://www.w3.org/2000/svg" height="96" width="96" version="1.1" xmlns:cc="http://creativecommons.org/ns#" xmlns:xlink="http://www.w3.org/1999/xlink" xmlns:dc="http://purl.org/dc/elements/1.1/">
 <metadata id="metadata7">
  <rdf:RDF>
   <cc:Work rdf:about="">
    <dc:format>image/svg+xml</dc:format>
    <dc:type rdf:resource="http://purl.org/dc/dcmitype/StillImage"/>
    <dc:title/>
   </cc:Work>
  </rdf:RDF>
 </metadata>
 <g id="layer1" transform="translate(0 -956.36)">
  <rect id="rect5263-0" fill-opacity=".019608" ry="12.724" height="89.978" width="89.978" y="959.35" x="2.9998"/>
  <rect id="rect5261-6" fill-opacity=".039216" ry="12.552" height="88.762" width="88.762" y="959.96" x="3.6078"/>
  <rect id="rect5259-9" fill-opacity=".078431" ry="12.38" height="87.546" width="87.546" y="960.57" x="4.2157"/>
  <rect id="rect5257-5" fill-opacity=".15686" ry="12.208" height="86.33" width="86.33" y="961.18" x="4.8237"/>
  <path id="rect5237" fill="#eaeff1" d="m17.469 961.77c-6.668 0-12.031 5.3945-12.031 12.062v61.031c0 6.668 5.3633 12.031 12.031 12.031h61.031c6.668 0 12.031-5.3633 12.031-12.031v-61.031c0-6.668-5.3633-12.062-12.031-12.062h-61.031z"/>
  <path id="rect5265-0" d="m5.4316 1029.8v5.0663c0 6.668 5.3645 12.032 12.032 12.032h61.049c6.668 0 12.032-5.3645 12.032-12.032v-5.0663c0 6.6681-5.3645 12.032-12.032 12.032h-61.049c-6.668 0-12.032-5.3643-12.032-12.032z" fill-opacity=".20379"/>
  <path id="path5252-0" d="m5.4316 1033.9v1.0133c0 6.668 5.3645 12.032 12.032 12.032h61.049c6.668 0 12.032-5.3645 12.032-12.032v-1.0133c0 6.6681-5.3645 12.032-12.032 12.032h-61.049c-6.668 0-12.032-5.3644-12.032-12.032z" fill-opacity=".098039"/>
  <rect id="rect3329" ry="4.4268" height="31.305" width="31.663" y="967.29" x="12.801" fill="#536c67"/>
  <rect id="rect3331" style="color:#000000" ry="4.4268" height="31.305" width="31.663" y="1004.8" x="12.801" fill="#536c67"/>
  <rect id="rect3333" rx="4.4775" ry="4.6822" height="68.823" width="31.663" y="967.4" x="51.672" fill="#a40"/>
  <rect id="rect3335" rx="4.4775" ry="4.4268" height="28.887" width="31.663" y="967.29" x="12.801" fill="#93aca7"/>
  <rect id="rect3337" rx="4.4775" ry="4.4268" height="28.887" width="31.663" y="1004.8" x="12.801" fill="#93aca7"/>
  <rect id="rect3339" rx="4.4775" ry="4.6822" height="66.053" width="31.663" y="967.4" x="51.672" fill="#ff7f2a"/>
  <g id="g4062" fill="#b3b3b3" transform="matrix(.92683 0 0 .92683 2.5213 72.325)">
   <rect id="rect4064" rx="3.9315" ry="1.9322" height="20" width="4.5" y="971.86" x="25.625"/>
   <rect id="rect4066" transform="rotate(90)" rx="3.9315" ry="1.9322" height="20" width="4.5" y="-37.875" x="979.61"/>
  </g>
  <g id="g4058" fill="#fff" transform="matrix(.92683 0 0 .92683 2.0579 71.862)">
   <rect id="rect4054" rx="3.9315" ry="1.9322" height="20" width="4.5" y="971.86" x="25.625"/>
   <rect id="rect4056" ry="1.9322" rx="3.9315" transform="rotate(90)" height="20" width="4.5" y="-37.875" x="979.61"/>
  </g>
  <g id="g4068" fill="#b3b3b3" transform="matrix(.66761 .64289 -.64289 .66761 640.75 346.51)">
   <rect id="rect4070" rx="3.9315" ry="1.9322" height="20" width="4.5" y="971.86" x="25.625"/>
   <rect id="rect4072" ry="1.9322" rx="3.9315" transform="rotate(90)" height="20" width="4.5" y="-37.875" x="979.61"/>
  </g>
  <g id="g4074" fill="#fff" transform="matrix(.66761 .64289 -.64289 .66761 640.74 345.86)">
   <rect id="rect4076" rx="3.9315" ry="1.9322" height="20" width="4.5" y="971.86" x="25.625"/>
   <rect id="rect4078" transform="rotate(90)" rx="3.9315" ry="1.9322" height="20" width="4.5" y="-37.875" x="979.61"/>
  </g>
  <g id="g4080" fill="#b3b3b3" transform="matrix(.66761 .64289 -.64289 .66761 640.75 346.51)">
   <rect id="rect4082" rx="3.9315" ry="1.9322" height="20" width="4.5" y="971.86" x="25.625"/>
   <rect id="rect4084" transform="rotate(90)" rx="3.9315" ry="1.9322" height="20" width="4.5" y="-37.875" x="979.61"/>
  </g>
  <g id="g4086" fill="#fff" transform="matrix(.66761 .64289 -.64289 .66761 640.74 345.86)">
   <rect id="rect4088" rx="3.9315" ry="1.9322" height="20" width="4.5" y="971.86" x="25.625"/>
   <rect id="rect4090" ry="1.9322" rx="3.9315" transform="rotate(90)" height="20" width="4.5" y="-37.875" x="979.61"/>
  </g>
  <g id="g4104" fill="#ccc" transform="translate(0 -.75)">
   <rect id="rect4096" transform="rotate(90)" rx="3.6438" ry="1.7908" height="18.537" width="4.1707" y="-77.162" x="994.67"/>
   <rect id="rect4102" ry="1.7908" rx="3.6438" transform="rotate(90)" height="18.537" width="4.1707" y="-77.162" x="1004.7"/>
  </g>
  <g id="g4108" fill="#fff" transform="translate(0,-1.5)">
   <rect id="rect4110" ry="1.7908" rx="3.6438" transform="rotate(90)" height="18.537" width="4.1707" y="-77.162" x="994.67"/>
   <rect id="rect4112" transform="rotate(90)" rx="3.6438" ry="1.7908" height="18.537" width="4.1707" y="-77.162" x="1004.7"/>
  </g>
 </g>
</svg>
