<?xml version="1.0" encoding="UTF-8" standalone="no"?>
<!-- Created with Inkscape (http://www.inkscape.org/) -->
<svg id="svg2" xmlns:rdf="http://www.w3.org/1999/02/22-rdf-syntax-ns#" xmlns="http://www.w3.org/2000/svg" height="96" width="96" version="1.1" xmlns:cc="http://creativecommons.org/ns#" xmlns:xlink="http://www.w3.org/1999/xlink" xmlns:dc="http://purl.org/dc/elements/1.1/">
 <defs id="defs4">
  <mask id="XMLID_23_">
   <g id="g31" filter="url(#Adobe_OpacityMaskFilter)">
    <radialGradient id="XMLID_24_" gradientUnits="userSpaceOnUse" cy="-20.899" cx="88.978" r="673.12">
     <stop id="stop34" stop-color="#fff" offset="0.309"/>
     <stop id="stop36" offset="1"/>
    </radialGradient>
    <ellipse id="ellipse38" cx="295.89" rx="512.93" cy="286.17" ry="349.11" fill="url(#XMLID_24_) #000000"/>
   </g>
  </mask>
  <linearGradient id="XMLID_5_" y2="560.35" gradientUnits="userSpaceOnUse" x2="278.14" y1="634.63" x1="220.95">
   <stop id="stop119" stop-color="#fff" offset="0"/>
   <stop id="stop121" stop-color="#193d6b" offset="1"/>
  </linearGradient>
  <linearGradient id="linearGradient5498">
   <stop id="stop5500" stop-color="#eee" offset="0"/>
   <stop id="stop5502" stop-color="#eee" stop-opacity="0" offset="1"/>
  </linearGradient>
  <linearGradient id="linearGradient17486" y2="491.07" xlink:href="#linearGradient5498" gradientUnits="userSpaceOnUse" x2="185.21" gradientTransform="matrix(.085425 0 0 .087133 11.766 964.9)" y1="756.76" x1="220.37"/>
  <linearGradient id="linearGradient17489" y2="580.55" xlink:href="#linearGradient5498" gradientUnits="userSpaceOnUse" x2="130.32" gradientTransform="matrix(.085425 0 0 .087133 11.766 964.9)" y1="274.88" x1="247.48"/>
  <linearGradient id="linearGradient17492" y2="458.38" xlink:href="#linearGradient5498" gradientUnits="userSpaceOnUse" x2="370.21" gradientTransform="matrix(.085425 0 0 .087133 11.766 964.9)" y1="-309.6" x1="370.62"/>
  <linearGradient id="linearGradient17495" y2="630.52" xlink:href="#linearGradient5498" gradientUnits="userSpaceOnUse" x2="361.14" gradientTransform="matrix(.085425 0 0 .087133 11.766 964.9)" y1="-363.42" x1="1508.5"/>
  <linearGradient id="linearGradient17498" y2="688.75" xlink:href="#XMLID_5_" gradientUnits="userSpaceOnUse" x2="409.85" gradientTransform="matrix(.096157 0 0 .098080 8.189 961.46)" y1="790.52" x1="331.5"/>
  <linearGradient id="linearGradient17501" y2="626.01" xlink:href="#XMLID_5_" gradientUnits="userSpaceOnUse" x2="373.13" gradientTransform="matrix(.096157 0 0 .098080 8.189 961.46)" y1="713.55" x1="319.19"/>
  <linearGradient id="linearGradient17504" y2="612.61" xlink:href="#XMLID_5_" gradientUnits="userSpaceOnUse" x2="335.1" gradientTransform="matrix(.096157 0 0 .098080 8.189 961.46)" y1="704.24" x1="264.54"/>
  <linearGradient id="linearGradient17507" y2="565.87" xlink:href="#XMLID_5_" gradientUnits="userSpaceOnUse" x2="328.18" gradientTransform="matrix(.096157 0 0 .098080 8.189 961.46)" y1="684.02" x1="237.21"/>
  <linearGradient id="linearGradient17510" y2="560.35" xlink:href="#XMLID_5_" gradientUnits="userSpaceOnUse" x2="278.14" gradientTransform="matrix(.096157 0 0 .098080 8.189 961.46)" y1="634.63" x1="220.95"/>
  <linearGradient id="linearGradient17513" y2="643.31" gradientUnits="userSpaceOnUse" x2="480.12" gradientTransform="matrix(-.096157 0 0 .098080 99.66 961.46)" y1="815.45" x1="429.85">
   <stop id="stop112" stop-color="#fff" offset="0"/>
   <stop id="stop114" stop-color="#e5eaf2" offset="1"/>
  </linearGradient>
  <radialGradient id="radialGradient17517" gradientUnits="userSpaceOnUse" cy="783.16" cx="375.21" gradientTransform="matrix(.096157 0 0 .098080 8.189 961.46)" r="300.58">
   <stop id="stop29547" stop-color="#eeeeef" stop-opacity=".94118" offset=".0112"/>
   <stop id="stop29549" stop-color="#6193cf" offset=".29210"/>
   <stop id="stop29551" stop-color="#2c72c7" offset=".45750"/>
   <stop id="stop29553" stop-color="#0057ae" offset=".6767"/>
   <stop id="stop29555" stop-color="#004d9a" offset=".8653"/>
   <stop id="stop29557" stop-color="#00438a" offset="1"/>
  </radialGradient>
  <radialGradient id="radialGradient17527" gradientUnits="userSpaceOnUse" cy="649.23" cx="663.91" gradientTransform="matrix(.085425 0 0 .087133 11.766 964.9)" r="427.12">
   <stop id="stop14" stop-color="#fff" offset="0"/>
   <stop id="stop16" stop-color="#e6e6e6" offset=".2814"/>
   <stop id="stop18" stop-color="#c0c0c0" offset=".75150"/>
   <stop id="stop20" stop-color="#b2b2b2" offset="1"/>
  </radialGradient>
  <linearGradient id="linearGradient17550" y2="103.99" gradientUnits="userSpaceOnUse" x2="47.995" y1="-5.1163" x1="47.995">
   <stop id="stop17546" stop-color="#f2f2f2" offset="0"/>
   <stop id="stop17548" stop-color="#f2f2f2" stop-opacity="0" offset="1"/>
  </linearGradient>
 </defs>
 <metadata id="metadata7">
  <rdf:RDF>
   <cc:Work rdf:about="">
    <dc:format>image/svg+xml</dc:format>
    <dc:type rdf:resource="http://purl.org/dc/dcmitype/StillImage"/>
    <dc:title/>
   </cc:Work>
  </rdf:RDF>
 </metadata>
 <g id="layer1" transform="translate(0 -956.36)">
  <path id="path3685" d="m17.469 5.4062c-6.668 0-12.032 5.3948-12.032 12.063l0.0005 61.031c0 6.668 5.3635 12.031 12.032 12.031h61.03c6.668 0 12.031-5.363 12.031-12.031v-61.031c0-6.668-5.363-12.063-12.031-12.063l-61.031 0.0002z" transform="translate(0 956.36)" fill="#fff"/>
  <rect id="rect5263-0" fill-opacity=".019608" ry="12.724" height="89.978" width="89.978" y="959.35" x="2.9998"/>
  <rect id="rect5261-6" fill-opacity=".039216" ry="12.552" height="88.762" width="88.762" y="959.96" x="3.6078"/>
  <rect id="rect5259-9" fill-opacity=".078431" ry="12.38" height="87.546" width="87.546" y="960.57" x="4.2157"/>
  <rect id="rect5257-5" fill-opacity=".15686" ry="12.208" height="86.33" width="86.33" y="961.18" x="4.8237"/>
  <path id="rect2419-7" d="m17.469 5.4062c-6.668 0-12.032 5.3948-12.032 12.063l0.0005 61.031c0 6.668 5.3635 12.031 12.032 12.031h61.03c6.668 0 12.031-5.363 12.031-12.031v-61.031c0-6.668-5.363-12.063-12.031-12.063l-61.031 0.0002z" transform="translate(0 956.36)" fill="url(#linearGradient17550)"/>
  <path id="rect5265-0" d="m5.4316 1029.8v5.0663c0 6.668 5.3645 12.032 12.032 12.032h61.049c6.668 0 12.032-5.3645 12.032-12.032v-5.0663c0 6.6681-5.3645 12.032-12.032 12.032h-61.049c-6.668 0-12.032-5.3643-12.032-12.032z" fill-opacity=".17"/>
  <path id="path5252-0" d="m5.4316 1033.9v1.0133c0 6.668 5.3645 12.032 12.032 12.032h61.049c6.668 0 12.032-5.3645 12.032-12.032v-1.0133c0 6.6681-5.3645 12.032-12.032 12.032h-61.049c-6.668 0-12.032-5.3644-12.032-12.032z" fill-opacity=".098039"/>
  <path id="circle22" d="m83.537 1002.1c0 19.867-15.807 35.99-35.285 35.99-19.477 0-35.285-16.124-35.285-35.99 0-19.867 15.807-35.99 35.285-35.99 19.477 0 35.285 16.124 35.285 35.99z" fill="url(#radialGradient17527)"/>
  <path id="path4002" opacity=".4" fill="#323232" d="m67.222 986.99c-0.29775 0.20537-0.61842 0.41303-0.98184 0.71073-0.48012 0.3933-0.97999 0.83501-1.4569 1.2276-0.47693 0.39261-0.8188 0.72766-1.5519 1.0661 0.16887-0.0779-0.74416 0.43783-1.6786 1.0338-0.93447 0.59595-2.1036 1.3505-3.2622 2.1322s-2.3115 1.5834-3.1989 2.2291c-0.44369 0.32287-0.84242 0.62674-1.1085 0.83995-0.26611 0.2132-0.46835 0.45168-0.28505 0.22614-1.2461 1.5339-3.1715 2.2233-4.9092 2.0999-0.43354-0.0308-1.6218-0.0595-2.7238 0-1.1021 0.0594-2.3276 0.38246-2.1537 0.29075 0.17314-0.0913-0.53194 0.41811-1.2352 1.0015-0.70328 0.5834-1.5887 1.3108-2.4704 2.0676-0.88175 0.7567-1.7727 1.5263-2.5655 2.1645-0.79276 0.6381-1.2991 1.1093-2.1854 1.5183-1.8122 0.8362-3.7171 1.1823-4.9092 1.2923 0.88734-0.082 0.4423-0.1341 0.12669 0.097-0.31561 0.231-0.78265 0.603-1.2352 1.0014-0.90513 0.7969-1.6248 1.5573-2.4704 2.1645-0.67292 0.4829-1.0673 0.6192-1.7736 0.9369-0.70634 0.3177-1.5338 0.6784-2.3754 1.0338-0.61571 0.26-1.1617 0.5111-1.7103 0.743 0.37227 0.5657 0.73324 1.1196 1.2352 1.7768 0.7374 0.9655 1.5466 1.9311 2.1854 2.6168 0.3194 0.3428 0.59564 0.6018 0.76014 0.743 0.16449 0.1413 0.489 0.056-0.50676-0.097 0.31957 0.049 0.72678-0.037 1.4569 0.6461 0.36507 0.3414 0.75253 1.089 0.72846 1.8091-0.02407 0.7202-0.32369 1.1902-0.53843 1.4538-0.42948 0.5272-0.70571 0.6181-0.95017 0.743-0.24446 0.125-0.46071 0.2106-0.69679 0.2908h-0.03167c0.34737 0.5818 0.56223 1.0517 1.1085 1.7768 1.9294 2.5609 5.1363 5.8041 10.198 8.3672 8.5796 4.3438 15.02 1.7833 18.877 0.5815 1.1004-0.3429 1.5131-0.569 1.6153-0.6138 0.09557-1.3374 0.24194-2.4023 0.41174-3.8121 0.03658-0.3037 0.30726-4.1171 0.79181-7.9149 0.24227-1.8989 0.53196-3.8779 0.95017-5.6535s0.86738-3.3204 1.8053-4.652c1.4964-2.1252 3.8668-3.9488 6.2394-5.492 1.0383-0.6753 2.0041-1.2159 2.9455-1.7122-0.58653 0.047-1.0926 0.112-1.837 0.097-0.64202-0.013-1.3013-0.059-1.9637-0.1938-0.66242-0.1347-1.5066-0.1016-2.3438-1.3892-0.48793-0.7507-0.40108-1.294-0.38007-1.6476 0.02102-0.3535 0.06036-0.5919 0.12669-0.83992 0.13265-0.49596 0.32016-0.97299 0.53843-1.4861 0.43654-1.0262 1.0189-2.2027 1.647-3.3921 1.2562-2.3789 2.5689-4.602 3.0089-5.2982 0.14696-0.23262 0.18957-0.39897 0.19003-0.48458 0.000466-0.0856 0.01134-0.1914-0.28505-0.5492-0.50623-0.61089-0.84153-1.108-1.1719-1.5507z"/>
  <g id="g17533" fill="#e6e6e6" transform="matrix(1 0 0 .95759 0 44.03)">
   <path id="ellipse40" opacity="0.86" d="m699.57 390.89c0 162.15-129.16 293.75-288.3 293.75s-288.3-131.6-288.3-293.75 129.16-293.75 288.3-293.75 288.3 131.6 288.3 293.75z" mask="url(#XMLID_23_)" transform="matrix(.096157 0 0 .098080 8.189 961.46)"/>
   <path id="path3993" opacity=".15" d="m48.25 967.25c-19.477 0-35.283 15.871-35.283 35.427 0 19.557 15.806 35.427 35.283 35.427s35.283-15.871 35.283-35.427c0-19.557-15.806-35.427-35.283-35.427zm0 3.5936c17.499 0 31.704 14.263 31.704 31.834s-14.205 31.834-31.704 31.834-31.704-14.263-31.704-31.834 14.205-31.834 31.704-31.834z"/>
  </g>
  <path id="path43" opacity="0.22" d="m67.693 984.31c-1.4683 0-4.3194 3.1234-5.3877 3.6166-1.0688 0.49315-9.5282 6.0818-10.33 7.0681-0.80118 0.98619-1.8698 1.3972-3.0273 1.315-1.1574-0.0822-4.817-0.11593-6.0634 0.5416-1.2468 0.65752-6.9371 6.0335-8.362 6.6911-1.4247 0.6573-3.2835 0.9943-4.1739 1.0764-0.89041 0.082-3.8403 3.1152-4.6418 3.6908-0.80136 0.575-6.6604 2.8793-7.5507 3.3722-0.89051 0.4933 5.2356 8.2984 6.3042 8.4627 1.0684 0.1645-1.0496 0.9703-3.1055 0.9703-0.22635 0 2.9381 8.4641 13.728 13.927 9.3277 4.7225 16.843 1.8546 20.518 0.7093 2.5989-0.8099 3.0702-1.171 3.1595-2.4861 0.08914-1.3149 0.2501-2.3541 0.42828-3.8334 0.17818-1.4791 0.80108-13.89 3.1166-17.177 2.3149-3.2875 8.9323-7.234 11.247-7.6448 2.3153-0.4109 1.8701-1.2327 1.8701-1.9725 0-0.7397-0.35626-2.3835-0.97955-2.6301-0.62338-0.24644-3.0556 1.2342-3.8569 1.3986-0.80146 0.1643-4.6303 0.4109-5.1647-0.4109-0.53425-0.822 4.3196-9.2054 4.9429-10.192 0.62309-0.98629 0.89031-2.3013-0.26703-3.6985-1.158-1.3974-1.9595-2.7946-2.4046-2.7946z" fill="#323232"/>
  <path id="path58" d="m64.569 979.96c-1.4244 0-4.1897 3.348-5.2262 3.8766-1.0365 0.52865-9.242 6.5192-10.019 7.5766-0.77733 1.0571-1.8139 1.4977-2.9366 1.4096-1.1227-0.088-4.6722-0.12427-5.8814 0.58053-1.2094 0.7049-6.7288 6.4675-8.1108 7.1724-1.3819 0.7046-3.1848 1.0656-4.0486 1.1538-0.86359 0.088-3.7249 3.339-4.5022 3.9558-0.77733 0.6168-6.9198 3.328-7.7835 3.8563-0.86377 0.5287 6.3012 7.932 7.3377 8.1081 1.0365 0.1764-0.98277 3.1676-2.7081 4.1877-3.0272 1.7898 1.2696 7.0389 11.736 12.894 9.0479 5.062 19.543 3.9958 23.108 2.7682 2.521-0.8684 0.36773-2.9147 0.45427-4.3242 0.08615-1.4097 0.15875-3.2632 0.33155-4.8489 0.17289-1.5858 0.77723-14.889 3.0231-18.413 2.2455-3.5237 8.664-7.7541 10.91-8.1945 2.2458-0.4405 1.8138-1.3216 1.8138-2.1143 0-0.79277-0.34539-2.5549-0.95012-2.8192-0.60454-0.26422-2.9636 1.3229-3.741 1.499-0.77733 0.17615-4.4914 0.44058-5.0098-0.44038-0.51819-0.88114 4.1899-9.8673 4.7946-10.924 0.60473-1.0573 0.86368-2.467-0.25924-3.9645-1.1224-1.498-1.8999-2.9956-2.3317-2.9956z" fill="url(#radialGradient17517)"/>
  <path id="path60" d="m47.34 996.57s-3.4218-0.53708-5.3962 1.4769c-1.9745 2.0139-3.6859 6.4443-3.5538 7.7869 0.13145 1.3426 4.0803-4.5648 5.7912-4.9674 1.7113-0.4029 3.5539-3.3568 3.1588-4.2964z" fill="#fff"/>
  <path id="path116" opacity="0.18" d="m55.98 1015.1s-3.062 10.632-3.1394 10.796c-0.43761 0.9276-1.2447 3.6157-0.96685 4.4838 0.32722 1.0227 1.5537 2.5096 2.1261 3.253 0.57242 0.7438 0.81771 1.1155 0.65415 1.3945-0.16347 0.2789-2.2896 0.2789-2.2896 0.2789s-1.6353-2.5097-1.9626-3.4392c-0.32693-0.9293-0.49059-2.8812-0.16337-3.5317 0.32703-0.6507 5.7416-13.236 5.7416-13.236z" fill="url(#linearGradient17513)"/>
  <path id="polygon123" opacity=".2" d="m34.398 1017.1-5.5939 4.9394 7.0133-4.2581-1.4194-0.6813z" fill="url(#linearGradient17510)"/>
  <path id="polygon130" opacity=".2" d="m39.908 1015.4-9.5181 12.604 10.937-11.752-1.4193-0.8514z" fill="url(#linearGradient17507)"/>
  <path id="polygon137" opacity=".20132" d="m40.66 1019.7-7.2639 11.752 8.9336-10.986-1.6698-0.7664z" fill="url(#linearGradient17504)"/>
  <path id="polygon144" opacity=".2" d="m44.918 1019.2-6.095 14.563 8.0988-14.137-2.0038-0.426z" fill="url(#linearGradient17501)"/>
  <path id="polygon151" opacity=".2" d="m47.339 1023-0.50107 13.285 2.1707-13.115-1.6697-0.1704z" fill="url(#linearGradient17498)"/>
  <path id="path2270" opacity="0.58" d="m47.723 1028.5c-5.947-2.6988-11.311-6.4023-15.945-11.009-0.52023-0.5172-0.63646-0.6553-0.63646-0.7558 0-0.1055 0.14838-0.2559 1.0458-1.0595 1.8274-1.6366 2.2294-2.0734 2.5409-2.7606 0.31798-0.7017 0.97505-1.5288 2.2567-2.8407 2.8294-2.8963 7.9657-7.2245 10.388-8.7542 0.42106-0.2659 0.66305-0.458 0.99612-0.7911 1.0568-1.0565 2.6936-3.1916 6.1037-7.9615 3.63-5.0775 4.852-6.7186 6.0602-8.139 0.73007-0.85825 1.2669-1.3677 1.4751-1.3999 0.08847-0.0137 0.23541-0.0379 0.32652-0.0538 0.0911-0.0159 0.20754-0.009 0.25874 0.0163 0.0512 0.0249 0.1261 0.056 0.16646 0.0691 0.07735 0.0251 1.5506 1.7254 2.0932 2.4158 0.64995 0.82702 0.70848 1.0573 0.38325 1.5079-0.12138 0.16817-0.23829 0.41-0.32828 0.67905-0.15456 0.46215-0.95086 2.1039-2.1761 4.4866-0.9633 1.8733-2.2672 4.5215-2.6746 5.4323-0.8602 1.9227-1.2798 3.2472-1.17 3.6934 0.03595 0.1461 0.25321 0.2506 0.83681 0.4025 1.3651 0.3553 2.6272 0.3015 3.8032-0.1621 0.17789-0.07 0.59511-0.2875 0.92717-0.483 1.0137-0.5968 1.7779-0.9304 2.732-1.1928 0.45582-0.12535 0.56417-0.13852 1.1715-0.1424 0.63716-0.004 0.67947 0.001 0.8837 0.10813 0.18539 0.0972 0.21937 0.13594 0.25041 0.28589 0.06994 0.3379 0.08221 0.5552 0.03412 0.6043-0.02628 0.027-0.04779 0.093-0.04779 0.1463 0 0.2201-0.51907 0.398-1.9661 0.6738-1.5179 0.2893-1.5912 0.3204-2.6476 1.1259-2.3646 1.8032-6.0437 5.0696-7.3489 6.5246-0.59209 0.6601-1.4998 1.9376-2.7232 3.8327-2.7449 4.252-4.6464 7.924-5.1544 9.9534-0.10094 0.4032-0.3849 2.2247-0.64268 4.1223-0.23792 1.7515-0.24854 1.8042-0.36246 1.8003-0.05027 0-0.46013-0.1705-0.91077-0.375z" fill="url(#linearGradient17495)"/>
  <path id="path2476" d="m31.639 1004.8c-0.02642-0.096-0.02112-0.9441 0.0088-1.3408 0.02112-0.2838 0.0387-0.3776 0.11293-0.6006 0.22934-0.6894 0.56465-1.0731 1.0497-1.2013 0.18092-0.048 0.27909-0.097 0.54071-0.27 0.53739-0.3556 1.2233-0.9461 2.321-1.998 0.29785-0.28544 1.5062-1.4977 2.6852-2.6939s2.1967-2.2141 2.2614-2.2619c0.06479-0.0478 0.16018-0.0984 0.212-0.11242 0.37856-0.10218 1.2941-0.15172 3.6156-0.19563 2.1814-0.0413 3.1103-0.0841 3.3968-0.15674 0.29673-0.0752 0.9738-0.48419 2.3387-1.4127 0.98688-0.67133 3.0872-2.1526 4.3043-3.0357 0.3266-0.23697 0.45948-0.32025 0.51092-0.32025 0.03823 0 0.07608-0.0108 0.08408-0.024s0.03077-0.024 0.0506-0.024c0.02963 0 0.03378 0.0245 0.02335 0.13814-0.02676 0.29148-0.04364 0.35138-0.13348 0.4736-0.24477 0.33299-0.8895 0.87044-1.6495 1.3751-0.19513 0.12955-0.57408 0.40892-0.84212 0.62082-2.7032 2.137-4.5396 3.4019-5.3336 3.6738-0.15743 0.0539-0.21835 0.0614-0.50177 0.0614-0.54664 0-1.1745 0.12085-2.2459 0.43229-1.579 0.45903-3.0316 1.0611-3.7947 1.5728-0.66272 0.4444-1.1952 1.2974-1.7302 2.7716-0.21049 0.58-0.45872 1.4373-0.75776 2.6171-0.07452 0.294-0.14265 0.5463-0.15144 0.5608-0.0088 0.014-1.4245 0.3338-3.146 0.7096s-3.1482 0.6889-3.1704 0.6959c-0.0293 0.01-0.04555-0.01-0.05893-0.055z" fill="url(#linearGradient17492)"/>
  <path id="path5482" opacity=".7" d="m23.531 1015.5c-0.03273-0.01-0.0973-0.014-0.14345-0.014-0.20238 0-0.77682-0.2981-1.3949-0.7187-0.67039-0.4562-1.2092-0.8924-1.8201-1.4732-0.12297-0.1169-0.33722-0.3182-0.47613-0.4472-0.373-0.3466-0.94848-0.9363-1.1176-1.1453-0.30924-0.3822-0.47478-0.6634-0.49753-0.8453-0.03461-0.2767-0.0334-0.3419 0.01106-0.5798 0.0099-0.054 0.14076-0.17 0.31868-0.2828 0.33299-0.2111 1.0414-0.7012 3.5374-2.4471 3.7976-2.6564 5.3976-3.7364 6.2412-4.2129 0.21374-0.1207 0.27262-0.1342 0.58828-0.1346 0.3025-0.0003 0.55704 0.027 0.73791 0.08 0.36164 0.1059 0.92068 0.3288 1.4136 0.5636 0.24605 0.1172 0.26371 0.1284 0.26371 0.1665 0 0.037-0.0088 0.043-0.08547 0.065-0.17696 0.051-0.64929 0.2093-1.0367 0.3481-2.3537 0.8434-4.7087 2.0066-6.8146 3.3658-0.4991 0.3221-0.55705 0.3654-0.74346 0.5556-0.52951 0.5401-1.0062 1.384-1.1391 2.0166-0.01858 0.088-0.02709 0.1932-0.0272 0.3335-0.000166 0.2237 0.0261 0.3408 0.10858 0.4842 0.32588 0.5672 1.9802 1.1028 4.12 1.3338 0.62426 0.067 0.91179 0.083 1.5456 0.084l0.61681 0.0008 0.16349-0.058c0.43714-0.154 1.0353-0.5026 2.3335-1.3597 1.1249-0.7428 1.4721-0.9592 1.8727-1.1671 0.3751-0.1947 0.56462-0.2525 0.72614-0.2216 0.06148 0.012 0.07275 0.047 0.07353 0.2288 0.000973 0.2629-0.0272 0.363-0.15774 0.5609-0.37727 0.5719-1.3057 1.3491-2.6118 2.1863-1.0976 0.7036-2.3477 1.3561-3.0134 1.5727-0.06302 0.02-0.23213 0.065-0.37576 0.098-0.76754 0.179-1.5342 0.4578-2.5479 0.9266-0.14352 0.066-0.27021 0.1149-0.31954 0.1222-0.14546 0.022-0.28841 0.027-0.34928 0.013z" fill="url(#linearGradient17489)"/>
  <path id="path6524" d="m26.172 1011.1c-0.01448 0-0.20167-0.01-0.41607-0.012-0.386-0.01-0.62769-0.025-0.97228-0.068-0.79922-0.1-1.3319-0.2604-1.5188-0.458-0.03959-0.042-0.05274-0.092-0.05207-0.198 0.000575-0.1385 0.01327-0.1926 0.07142-0.3087 0.24618-0.4926 0.95442-1.2726 1.7885-1.9697 0.18301-0.153 0.48651-0.3853 0.64404-0.493l0.11364-0.078 2.5796-0.3183 2.5796-0.3182 0.1708 0.01c0.1588 0.01 0.29471 0.019 0.64072 0.048 0.15959 0.013 0.17197 0.019 0.15688 0.075-0.0056 0.019-0.0088 0.051-0.0088 0.071-0.000066 0.053-0.08126 0.2468-0.19437 0.464-0.60989 1.1718-1.8417 2.6478-2.6612 3.1888-0.2349 0.155-0.39975 0.2284-0.61152 0.2721-0.21604 0.044-0.49195 0.073-0.79871 0.082-0.30145 0.01-1.4639 0.017-1.511 0.011z" fill="url(#linearGradient17486)"/>
  <path id="path3966" style="block-progression:tb;text-indent:0;color:#000000;text-transform:none" d="m48.25 964.9c-20.127 0-36.486 16.686-36.486 37.216s16.359 37.216 36.486 37.216 36.486-16.686 36.486-37.216-16.359-37.216-36.486-37.216zm0 2.4532c18.827 0 34.081 15.56 34.081 34.763s-15.255 34.763-34.081 34.763c-18.827 0-34.081-15.56-34.081-34.763s15.255-34.763 34.081-34.763z" fill="#1c5eaa"/>
  <path id="path3832" style="block-progression:tb;text-indent:0;color:#000000;text-transform:none" d="m48.25 964.9c-20.127 0-36.486 16.686-36.486 37.216 0 0.1742 0.02933 0.3433 0.03167 0.5169 0.27429-20.29 16.498-36.699 36.455-36.699s36.181 16.409 36.455 36.699c0.0023-0.1736 0.03167-0.3427 0.03167-0.5169 0-20.53-16.359-37.216-36.486-37.216zm-34.079 37.733c-0.0025 0.1739 0 0.3424 0 0.5169 0 19.203 15.253 34.761 34.079 34.761 18.827 0 34.079-15.558 34.079-34.761 0-0.1745 0.0025-0.343 0-0.5169-0.27379 18.962-15.424 34.244-34.079 34.244-18.656 0-33.806-15.282-34.079-34.244z" fill="#00438a"/>
  <path id="path17539" d="m48.312 11c-16.86 0-30.863 12.364-33.75 28.656 4.15-14.658 17.686-25.406 33.75-25.406 16.065 0 29.601 10.748 33.75 25.406-2.886-16.292-16.889-28.656-33.75-28.656z" transform="translate(0 956.36)" fill="#999"/>
 </g>
</svg>
