<?xml version="1.0" encoding="UTF-8" standalone="no"?>
<!-- Created with Inkscape (http://www.inkscape.org/) -->
<svg id="svg2" xmlns:rdf="http://www.w3.org/1999/02/22-rdf-syntax-ns#" xmlns="http://www.w3.org/2000/svg" height="96" width="96" version="1.1" xmlns:cc="http://creativecommons.org/ns#" xmlns:xlink="http://www.w3.org/1999/xlink" xmlns:dc="http://purl.org/dc/elements/1.1/">
 <defs id="defs4">
  <linearGradient id="linearGradient2862-8" y2="138.66" gradientUnits="userSpaceOnUse" x2="48" y1="20.221" x1="48">
   <stop id="stop3739-1-6" stop-color="#fff" offset="0"/>
   <stop id="stop3741-5-1" stop-color="#fff" stop-opacity="0" offset="1"/>
  </linearGradient>
  <clipPath id="clipPath3613-8">
   <rect id="rect3615-2" rx="6" ry="6" height="84" width="84" y="6" x="6" fill="#fff"/>
  </clipPath>
  <filter id="filter3794-9" height="1.384" width="1.384" color-interpolation-filters="sRGB" y="-.192" x="-.192">
   <feGaussianBlur id="feGaussianBlur3796-4" stdDeviation="5.28"/>
  </filter>
  <linearGradient id="linearGradient4141" y2="48" gradientUnits="userSpaceOnUse" x2="106.07" y1="48" x1="4.4591">
   <stop id="stop4027-6" stop-color="#47294f" offset="0"/>
   <stop id="stop4029-0" stop-color="#47294f" stop-opacity="0" offset="1"/>
  </linearGradient>
  <clipPath id="clipPath3613-3">
   <rect id="rect3615-3" rx="6" ry="6" height="84" width="84" y="6" x="6" fill="#fff"/>
  </clipPath>
  <filter id="filter3794-4" height="1.384" width="1.384" color-interpolation-filters="sRGB" y="-.192" x="-.192">
   <feGaussianBlur id="feGaussianBlur3796-24" stdDeviation="5.28"/>
  </filter>
  <linearGradient id="linearGradient3107" y2="5.9877" gradientUnits="userSpaceOnUse" y1="90" gradientTransform="matrix(1.0295 0 0 -1.0295 -1.1542 97.154)" x2="48" x1="48">
   <stop id="stop4035" stop-color="#d9cce6" offset="0"/>
   <stop id="stop4037" stop-color="#a895b9" offset="1"/>
  </linearGradient>
 </defs>
 <metadata id="metadata7">
  <rdf:RDF>
   <cc:Work rdf:about="">
    <dc:format>image/svg+xml</dc:format>
    <dc:type rdf:resource="http://purl.org/dc/dcmitype/StillImage"/>
    <dc:title/>
   </cc:Work>
  </rdf:RDF>
 </metadata>
 <g id="layer1" transform="translate(0 -956.36)">
  <rect id="rect5263-0" fill-opacity=".019608" ry="12.724" height="89.978" width="89.978" y="959.35" x="2.9998"/>
  <rect id="rect5261-6" fill-opacity=".039216" ry="12.552" height="88.762" width="88.762" y="959.96" x="3.6078"/>
  <rect id="rect5259-9" fill-opacity=".078431" ry="12.38" height="87.546" width="87.546" y="960.57" x="4.2157"/>
  <rect id="rect5257-5" fill-opacity=".15686" ry="12.208" height="86.33" width="86.33" y="961.18" x="4.8237"/>
  <path id="rect2419-1" d="m17.469 5.4062c-6.668 0-12.032 5.3948-12.032 12.063l0.0005 61.031c0 6.668 5.3635 12.031 12.032 12.031h61.03c6.668 0 12.031-5.363 12.031-12.031v-61.031c0-6.668-5.363-12.063-12.031-12.063l-61.031 0.0002z" transform="translate(0 956.36)" fill="url(#linearGradient3107)"/>
  <path id="rect5265-0" d="m5.4316 1029.8v5.0663c0 6.668 5.3645 12.032 12.032 12.032h61.049c6.668 0 12.032-5.3645 12.032-12.032v-5.0663c0 6.6681-5.3645 12.032-12.032 12.032h-61.049c-6.668 0-12.032-5.3643-12.032-12.032z" fill-opacity=".2"/>
  <path id="path5252-0" d="m5.4316 1033.9v1.0133c0 6.668 5.3645 12.032 12.032 12.032h61.049c6.668 0 12.032-5.3645 12.032-12.032v-1.0133c0 6.6681-5.3645 12.032-12.032 12.032h-61.049c-6.668 0-12.032-5.3644-12.032-12.032z" fill-opacity=".098039"/>
  <g id="layer5" transform="translate(-1.029e-7 953.86)">
   <rect id="rect3171" height="66" stroke="#fff" stroke-linecap="round" stroke-width=".5" fill="url(#linearGradient2862-8)" rx="12" ry="12" width="66" opacity=".2" clip-path="url(#clipPath3613-8)" filter="url(#filter3794-9)" y="15" x="15"/>
  </g>
  <g id="layer5-1" transform="matrix(1.0295 0 0 1.0295 -1.1542 954.69)">
   <rect id="rect3171-1" height="66" stroke="#fff" stroke-linecap="round" stroke-width=".5" fill="url(#linearGradient2862-8)" rx="12" ry="12" width="66" opacity=".1" clip-path="url(#clipPath3613-3)" filter="url(#filter3794-4)" y="15" x="15"/>
  </g>
  <g id="layer4" transform="matrix(1.0295 0 0 1.0295 -1.1542 954.69)">
   <path id="path3964" style="color:#000000" d="m80 48a32 32 0 1 1 -64 0 32 32 0 1 1 64 0z" transform="matrix(0 1 1 0 -.023893 0)" fill="url(#linearGradient4141)"/>
   <path id="path4073" opacity=".4" style="color:#000000" d="m16 47.5c-0.0025 0.16628-0.03125 0.33312-0.03125 0.5 0 17.673 14.327 32 32 32s32-14.327 32-32c0-0.16667 0.0025-0.33394 0-0.5-0.267 17.443-14.494 31.5-32 31.5s-31.702-14.057-31.969-31.5z" fill="#fff"/>
   <g id="g4067">
    <path id="path4059" opacity="0.08" d="m48.219 14.844c-14.001-0.19087-23.826 6.58-29.344 16.125-5.5137 9.5371-6.9457 21.705-4.9375 32.75a0.97695 0.97695 0 0 0 0.032 0.031c0.0006 0.0025 0.0305 0.12256 0.03125 0.125 0.000749 0.0024 0.03035 0.12261 0.03125 0.125 0.000896 0.0024 0.06146 0.12267 0.0625 0.125 0.001 0.0023 0.03007 0.09149 0.03125 0.09375 0 0 0.12571 0.27301 0.34375 0.5625 0.18612 0.24711 0.458 0.55011 0.84375 0.84375 0.66848 0.50886 1.6854 0.95098 3 1.2188 0.38263 4.25 0.8879 8.8107 1.5 14.719 0.000207 0.0021-0.00031 0.09169 0 0.09375 0.00031 0.0021 0.03084 0.12296 0.03125 0.125 0.000412 0.002 0.03074 0.09173 0.03125 0.09375 0.000513 0.002-0.000612 0.09176 0 0.09375 0.000612 0.002 0.06179 0.09179 0.0625 0.09375 0.000711 0.002 0.03044 0.09183 0.03125 0.09375 0.000807 0.0019 0.03035 0.09187 0.03125 0.09375 0.000901 0.0019 0.06151 0.09192 0.0625 0.09375 0.000994 0.0018 0.03017 0.09197 0.03125 0.09375 0.0011 0.0018 0.06133 0.09202 0.0625 0.09375 0.0012 0.0017 0.06124 0.09208 0.0625 0.09375 0.0013 0.0017 0.06116 0.0609 0.0625 0.0625 0.0013 0.0016 0.06109 0.09222 0.0625 0.09375 0.0014 0.0015 0.06101 0.06104 0.0625 0.0625 0.0015 0.0015 0.09219 0.06111 0.09375 0.0625 0.0016 0.0014 0.06087 0.06119 0.0625 0.0625a0.97695 0.97695 0 0 0 0.031 0.03s2.8468 2.2369 6.875 2.7812c0.0026 0.000334 0.12236-0.000169 0.125 0 0.0026 0.000169 0.12235 0.03125 0.125 0.03125 0.0026 0.000002 0.15361-0.03109 0.15625-0.03125 0.0026-0.000164 0.12238 0.00033 0.125 0 0.0026-0.00033 0.1224-0.03075 0.125-0.03125 0.0026-0.000495 0.12244-0.03059 0.125-0.03125 0.0026-0.000657 0.12248-0.03043 0.125-0.03125 0.0025-0.000817 0.12254-0.03028 0.125-0.03125 0.0025-0.000974 0.12261-0.06137 0.125-0.0625 0.0024-0.0011 0.12268-0.06122 0.125-0.0625 0.0023-0.0013 0.09152-0.06108 0.09375-0.0625 0.0022-0.0014 0.12286-0.06094 0.125-0.0625 0.0021-0.0016 0.09171-0.09206 0.09375-0.09375 0.002-0.0017 0.09182-0.09194 0.09375-0.09375 0.0019-0.0018 0.09194-0.06057 0.09375-0.0625 0.0018-0.0019 0.09207-0.12296 0.09375-0.125 0.0017-0.002 0.06095-0.09161 0.0625-0.09375 0.0016-0.0021 0.09233-0.09152 0.09375-0.09375 0.0014-0.0022 0.06123-0.12268 0.0625-0.125 0.0013-0.0023 0.06138-0.1226 0.0625-0.125 0.0011-0.0024 0.03028-0.12254 0.03125-0.125 0.000971-0.0025 0.06169-0.12248 0.0625-0.125 0.000814-0.0025 0.0306-0.12244 0.03125-0.125 0.000654-0.0026 0.03076-0.1224 0.03125-0.125 0.000492-0.0026 0.03092-0.12237 0.03125-0.125 0.000327-0.0026-0.000161-0.12236 0-0.125 0.000161-0.0026 0.000005-0.12235 0-0.125-0.000005-0.0026 0.000171-0.12236 0-0.125-0.000171-0.0026-0.03091-0.12238-0.03125-0.125-0.000337-0.0026 0.000502-0.15365 0-0.15625s-0.03059-0.12244-0.03125-0.125c-0.000664-0.0026-0.03043-0.12249-0.03125-0.125-0.37111-1.0785-0.64388-2.1375-0.9375-3.1875 1.1722 0.52927 2.6216 1.0729 4.2188 1.3125 0.0027 0.00042 0.12232-0.000249 0.125 0 0.0027 0.000249 0.15356 0.03117 0.15625 0.03125 0.0027 0.000077 0.12231 0.000095 0.125 0 0.0027-0.000095 0.12232-0.03098 0.125-0.03125 0.0027-0.000267 0.12234 0.000438 0.125 0 0.0027-0.000438 0.15363-0.03064 0.15625-0.03125 0.0026-0.000607 0.12242-0.03048 0.125-0.03125 0.0026-0.000773 0.12248-0.03031 0.125-0.03125 0.0025-0.000937 0.12254-0.0614 0.125-0.0625 0.0025-0.0011 0.09137-0.06125 0.09375-0.0625 0.0024-0.0013 0.1227-0.0611 0.125-0.0625s0.1228-0.06096 0.125-0.0625c0.0022-0.0015 0.09165-0.09207 0.09375-0.09375 0.0021-0.0017 0.09176-0.09194 0.09375-0.09375 0.002-0.0018 0.09188-0.09181 0.09375-0.09375 0.0019-0.0019 0.09201-0.0917 0.09375-0.09375 0.0017-0.0021 0.09215-0.09159 0.09375-0.09375 0.0016-0.0022 0.06104-0.12274 0.0625-0.125 0.0015-0.0023 0.09243-0.0914 0.09375-0.09375 0.0013-0.0023 0.06134-0.12257 0.0625-0.125 0.0012-0.0024 0.03024-0.1225 0.03125-0.125 0.001-0.0025 0.06166-0.12244 0.0625-0.125 0.000844-0.0026 0.03057-0.1224 0.03125-0.125 0.000679-0.0026 0.03074-0.12236 0.03125-0.125 0.000511-0.0026 0.03091-0.12233 0.03125-0.125 0.000341-0.0027-0.00017-0.15356 0-0.15625 0.00017-0.0027 0.000003-0.12231 0-0.125-0.000003-0.0027 0.000175-0.12231 0-0.125-0.000175-0.0027 0.000346-0.12233 0-0.125-0.000346-0.0027-0.03073-0.15361-0.03125-0.15625-0.000516-0.0026-0.03057-0.1224-0.03125-0.125-0.000523-0.002-0.02082-0.0588-0.03125-0.09375-0.0032-0.01019 0.0032-0.02106 0-0.03125-8.13-25.938-6.157-40.343-0.345-47.407 5.817-7.07 16.114-7.838 26.593-5.156a0.97695 0.97695 0 0 0 0.0625 0.03125c0.0038 0.000768 0.18367 0.03083 0.1875 0.03125 0.0038 0.000418 0.18364-0.000066 0.1875 0 0.0039 0.000066 0.18366 0.000288 0.1875 0 0.0038-0.000288 0.1837-0.03061 0.1875-0.03125 0.0038-0.000639 0.18377-0.03027 0.1875-0.03125 0.0037-0.000984 0.18388-0.06118 0.1875-0.0625 0.0036-0.0013 0.15276-0.06085 0.15625-0.0625 0.0035-0.0016 0.18418-0.09179 0.1875-0.09375 0.0033-0.002 0.15312-0.12274 0.15625-0.125 0.0031-0.0023 0.15334-0.09122 0.15625-0.09375 0.0029-0.0025 0.12234-0.15346 0.125-0.15625 0.0027-0.0028 0.1226-0.12198 0.125-0.125 0.0024-0.003 0.12289-0.15302 0.125-0.15625 0.0021-0.0032 0.09195-0.15284 0.09375-0.15625 0.0018-0.0034 0.06101-0.18394 0.0625-0.1875 0.0015-0.0036 0.0926-0.18382 0.09375-0.1875 0.0012-0.0037 0.03044-0.18373 0.03125-0.1875 0.000811-0.0038 0.03079-0.18367 0.03125-0.1875 0.000463-0.0038 0.03114-0.18365 0.03125-0.1875 0.00011-0.0039-0.03101-0.18365-0.03125-0.1875-0.000041-0.000641 0.000953-0.02237 0-0.03125 0.59521 0.13733 1.0555 0.14271 1.6875 0.3125a0.97695 0.97695 0 0 0 0.0625 0.03125c0.0038 0.000768 0.18367 0.03083 0.1875 0.03125 0.0038 0.000418 0.18364-0.000066 0.1875 0 0.0039 0.000066 0.18366 0.000288 0.1875 0 0.0038-0.000288 0.1837-0.03061 0.1875-0.03125 0.0038-0.000639 0.18377-0.03027 0.1875-0.03125 0.0037-0.000984 0.18388-0.06118 0.1875-0.0625 0.0036-0.0013 0.15276-0.06085 0.15625-0.0625 0.0035-0.0016 0.18418-0.09179 0.1875-0.09375 0.0033-0.002 0.15312-0.12274 0.15625-0.125 0.0031-0.0023 0.15334-0.09122 0.15625-0.09375 0.0029-0.0025 0.12234-0.15346 0.125-0.15625 0.0027-0.0028 0.1226-0.12198 0.125-0.125 0.0024-0.003 0.12289-0.15302 0.125-0.15625 0.0021-0.0032 0.09194-0.15284 0.09375-0.15625 0.0018-0.0034 0.06101-0.18394 0.0625-0.1875 0.0015-0.0036 0.0926-0.18382 0.09375-0.1875 0.0012-0.0037 0.03044-0.18373 0.03125-0.1875 0.000811-0.0038 0.03079-0.18367 0.03125-0.1875 0.000463-0.0038 0.03114-0.18365 0.03125-0.1875 0.00011-0.0039-0.03101-0.18365-0.03125-0.1875-0.000243-0.0038 0.000595-0.18369 0-0.1875-0.000595-0.0038-0.03031-0.18376-0.03125-0.1875-0.000941-0.0037-0.06122-0.18386-0.0625-0.1875-0.0013-0.0036-0.06089-0.15274-0.0625-0.15625-0.0016-0.0035-0.09183-0.18416-0.09375-0.1875-0.0019-0.0033-0.12278-0.1531-0.125-0.15625-0.0022-0.0032-0.09125-0.15331-0.09375-0.15625-0.0025-0.0029-0.12224-0.1223-0.125-0.125-0.0028-0.0027-0.15326-0.12257-0.15625-0.125-0.003-0.0024-0.15305-0.12285-0.15625-0.125-0.0032-0.0021-0.15286-0.09191-0.15625-0.09375-0.0034-0.0018-0.18396-0.09222-0.1875-0.09375a0.97695 0.97695 0 0 0 -0.03125 0s-2.4634-0.89713-5.5625-1.7812c-0.25216-0.07194-0.49788-0.12553-0.75-0.1875-0.0024-0.02942 0.000134-0.06129 0-0.0625-0.000269-0.0024-0.03084-0.1226-0.03125-0.125-0.000408-0.0024-0.0307-0.12263-0.03125-0.125-0.000547-0.0024-0.03057-0.09141-0.03125-0.09375-0.000683-0.0023-0.03043-0.1227-0.03125-0.125-0.000818-0.0023-0.0303-0.12276-0.03125-0.125 0.001-0.001-0.06-0.091-0.061-0.093s-0.061-0.123-0.062-0.125c-0.002-0.002-0.062-0.092-0.063-0.094s-0.061-0.092-0.063-0.094c-0.001-0.002-0.06-0.091-0.062-0.093l-0.094-0.094c-0.001-0.002-0.06-0.092-0.062-0.094-0.002-0.001-0.092-0.061-0.094-0.062-0.002-0.002-0.092-0.093-0.094-0.094s-0.091-0.061-0.094-0.063l-0.124-0.062c-0.0021-0.0012-0.09158-0.06139-0.09375-0.0625-0.0022-0.0011-0.12277-0.06151-0.125-0.0625-0.0022-0.000987-0.09147-0.03039-0.09375-0.03125-0.0023-0.000857-0.12267-0.03053-0.125-0.03125-0.0023-0.000723-0.09139-0.03066-0.09375-0.03125a0.97695 0.97695 0 0 0 -0.03125 0c-3.8465-0.88252-7.4979-1.391-10.906-1.4375z"/>
    <path id="path4055" opacity="0.12" d="m48.219 15.812c-13.683-0.18654-23.131 6.3687-28.5 15.656-5.3694 9.2876-6.7835 21.222-4.8125 32.062a1.103 1.103 0 0 0 0.093 0.251s0.10431 0.21282 0.25 0.40625 0.34994 0.42308 0.65625 0.65625c0.61262 0.46634 1.584 0.93917 3.0312 1.1562a1.103 1.103 0 0 0 0.28125 0c0.38684 4.4067 0.91895 9.2571 1.5625 15.469a1.103 1.103 0 0 0 0.40625 0.75s2.6712 2.089 6.4062 2.5938a1.103 1.103 0 0 0 1.1875 -1.4375c-0.6427-1.8678-1.0815-3.616-1.5938-5.4062 0.56967 0.3316 3.2756 1.846 5.9688 2.25a1.103 1.103 0 0 0 1.22 -1.439c-8.184-26.098-6.31-40.865-0.156-48.343 6.153-7.479 16.921-8.201 27.593-5.469a1.103 1.103 0 0 0 0.657 -2.094c-1.6927-0.61788-3.1822-0.93796-4.75-1.375 2.5402 0.34069 5.187 0.75408 8.3125 1.5938a1.103 1.103 0 0 0 0.656 -2.094s-2.4351-0.87564-5.5-1.75c-0.50158-0.14309-1.0666-0.26552-1.5938-0.40625a1.103 1.103 0 0 0 -0.6875 -1.625c-3.794-0.871-7.365-1.361-10.687-1.407zm-18.844 11.719c-2.6478 3.3792-4.3989 7.5724-5.4375 12.188 0.008-0.04 0.062-0.438 0.062-0.438a1.103 1.103 0 0 0 -1.4375 -1.25c1.7114-4.2163 4.0187-7.6993 6.8125-10.5z"/>
    <path id="path4051" opacity=".3" d="m48.228 16.917c3.2245 0.04396 6.7087 0.50035 10.444 1.3573-21.275-4.204-44.739 10.213-39.589 46.64-2.593-0.389-3.092-1.584-3.092-1.584-3.857-21.216 5.58-46.776 32.237-46.413zm3.4687 1.6213c5.0207 0.08789 14.629 3.5064 14.629 3.5064-15.495-4.1629-24.243-1.2819-24.243-1.2819s3.5112-2.3313 9.6144-2.2245zm-5.0146 2.1868c4.3569 0.02044 9.4765 0.99727 15.421 3.1671-21.783-5.575-45.273 2.723-28.806 55.236-2.593-0.389-5.957-2.337-5.957-2.337-6.128-20.392-7.283-56.191 19.342-56.066zm-23.791 18.324s-3.9644 19.022 4.8638 44.679c-3.4025-0.4598-5.8818-2.3753-5.8818-2.3753-2.1151-20.415-3.7639-27.774 1.018-42.303z"/>
    <path id="path3987" fill="#fff" d="m48.228 15.917c3.2245 0.04396 6.7087 0.50035 10.444 1.3573-21.275-4.204-44.739 10.213-39.589 46.64-2.593-0.389-3.092-1.584-3.092-1.584-3.857-21.216 5.58-46.776 32.237-46.413zm3.4687 1.6213c5.0207 0.08789 14.629 3.5064 14.629 3.5064-15.495-4.1629-24.243-1.2819-24.243-1.2819s3.5112-2.3313 9.6144-2.2245zm-5.0146 2.1868c4.3569 0.02044 9.4765 0.99727 15.421 3.1671-21.783-5.575-45.273 2.723-28.806 55.236-2.593-0.389-5.957-2.337-5.957-2.337-6.128-20.392-7.283-56.191 19.342-56.066zm-23.791 18.324s-3.9644 19.022 4.8638 44.679c-3.4025-0.4598-5.8818-2.3753-5.8818-2.3753-2.1151-20.415-3.7639-27.774 1.018-42.303z"/>
   </g>
   <g id="g4061">
    <path id="path4047" opacity="0.08" d="m33.656 11.781c0.0029-0.000385-0.0618 0.02617-0.09375 0.03125-0.0098 0.0016-0.03215 0.00017-0.03125 0-0.03756 0.0086-0.1609 0.03251-0.15625 0.03125 0.0056-0.0015-0.16166 0.06447-0.15625 0.0625 0.0054-0.002-0.16147 0.06492-0.15625 0.0625 0.0052-0.0024-0.16124 0.06536-0.15625 0.0625 0.005-0.0029-0.16098 0.09703-0.15625 0.09375 0.0047-0.0033-0.12943 0.12867-0.125 0.125 0.0044-0.0037-0.1291 0.09778-0.125 0.09375 0.0041-0.004-0.12874 0.16062-0.125 0.15625 0.0037-0.0044-0.09711 0.12967-0.09375 0.125 0.0034-0.0047-0.12795 0.16119-0.125 0.15625 0.0029-0.0049-0.06501 0.13018-0.0625 0.125 0.0025-0.0052-0.06456 0.16162-0.0625 0.15625 0.0021-0.0054-0.0641 0.19303-0.0625 0.1875 0.0016-0.0055-0.03237 0.16189-0.03125 0.15625 0.0011-0.0056-0.03188 0.19322-0.03125 0.1875 0.000511-0.0046-0.02822 0.08198-0.03125 0.125-0.000597 0.01193 0.000585 0.01934 0 0.03125-0.22335 4.5495 0.40611 7.865 1.6562 10.312 1.2614 2.4696 3.2086 3.9602 5.125 4.6562 3.748 1.3613 7.2827 0.06488 7.375 0.03125 0.0012-0.00044 0.0625 0 0.0625 0v-0.03125c0.05312-0.01753 0.09722-0.03258 0.09375-0.03125-0.0059 0.0023 0.19318-0.06531 0.1875-0.0625-0.0057 0.0028 0.16164-0.09708 0.15625-0.09375-0.0054 0.0033 0.1613-0.09758 0.15625-0.09375-0.0051 0.0038 0.16092-0.12928 0.15625-0.125-0.0047 0.0043 0.12925-0.16096 0.125-0.15625-0.0042 0.0047 0.12879-0.13008 0.125-0.125-0.0038 0.0051 0.12829-0.16167 0.125-0.15625-0.0033 0.0054 0.09652-0.1932 0.09375-0.1875-0.0028 0.0057 0.06472-0.16219 0.0625-0.15625-0.0022 0.0059 0.06415-0.19362 0.0625-0.1875-0.0017 0.0061 0.03232-0.19375 0.03125-0.1875-0.00052 0.003-0.0058-0.0462 0-0.09375 0.56271 0.21951 1.3142 0.55788 1.9375 0.8125-0.01336 0.0154-0.03219 0.03241-0.03125 0.03125 0.0028-0.0035-0.09632 0.09739-0.09375 0.09375 0.0026-0.0036-0.06482 0.12881-0.0625 0.125 0.0023-0.0038-0.06457 0.12895-0.0625 0.125 0.0021-0.004-0.0643 0.12908-0.0625 0.125 0.0018-0.0041-0.06403 0.12919-0.0625 0.125 0.0015-0.0042-0.03249 0.12928-0.03125 0.125 0.0012-0.0043-0.03221 0.12936-0.03125 0.125 0.000959-0.0044-0.03192 0.12941-0.03125 0.125 0.000668-0.0044-0.000375 0.12944 0 0.125 0.000375-0.0044-0.03133 0.16071-0.03125 0.15625 0.000079-0.0045 0.03147 0.12946 0.03125 0.125-0.000216-0.0045 0.000511 0.12943 0 0.125-0.000511-0.0044 0.03205 0.16064 0.03125 0.15625-0.000602-0.0033-0.0081 0.05643 0 0.09375 0 0-0.000072 0.03092 0 0.03125 0.0057 0.02615 0.25504 1.0397 0.78125 2.1875 0.50213 1.0953 1.3504 2.7376 3.2188 3.3125-0.0045-0.0013 0.16082 0.03222 0.15625 0.03125-0.0046-0.000966 0.12963 0.0319 0.125 0.03125-0.0046-0.000647 0.16091 0.03157 0.15625 0.03125-0.0047-0.000324 0.12967 0 0.125 0-0.0047 0 0.12966-0.000324 0.125 0-0.0047 0.000324 0.16088-0.0319 0.15625-0.03125-0.0046 0.000647 0.12957-0.03222 0.125-0.03125-0.0037 0.00078 0.09099-0.0229 0.125-0.03125 0.01-0.0026 0.0213 0.0027 0.03125 0 0.8256-0.22352 1.4659-0.62623 2-1.0938 0.03406 0.03509 0.06537 0.09648 0.0625 0.09375-0.004-0.0038 0.12928 0.09721 0.125 0.09375-0.0043-0.0035 0.1608 0.09685 0.15625 0.09375-0.0045-0.0031 0.12979 0.09646 0.125 0.09375-0.0048-0.0027 0.16124 0.06481 0.15625 0.0625-0.005-0.0023 0.16142 0.0644 0.15625 0.0625a1.114 1.114 0 0 0 0 0.03125s9.5683 3.5215 17.094 10.125c-0.31887 0.4914-0.67867 0.96449-0.90625 1.4688-0.0352 0.078-0.03315 0.08988-0.0625 0.15625-7.4228-3.789-13.499-4.2666-17.75-3.3125-2.9932 0.67171-4.6531 1.7092-5.6875 2.4688-0.72399-0.61897-1.7246-1.5657-2.5625-3-0.62642-1.0724-0.95002-2.1655-0.8125-3.1562 0.13928-1.0034 0.64945-2.0717 2.4688-3.4062-0.000746 0.000507 0.02428 0.0051 0.03125 0 0.02789-0.02045 0.09659-0.06472 0.09375-0.0625-0.0035 0.0028 0.09711-0.09676 0.09375-0.09375-0.0034 0.003 0.0969-0.09698 0.09375-0.09375-0.0031 0.0032 0.09667-0.09718 0.09375-0.09375-0.0029 0.0034 0.09644-0.09737 0.09375-0.09375-0.0027 0.0036 0.06494-0.12879 0.0625-0.125-0.0024 0.0038 0.06468-0.12894 0.0625-0.125-0.0022 0.0039 0.06441-0.12908 0.0625-0.125-0.0019 0.0041 0.06414-0.1292 0.0625-0.125-0.0016 0.0042 0.0326-0.1293 0.03125-0.125-0.0014 0.0043 0.06356-0.12938 0.0625-0.125-0.0011 0.0044 0.000763-0.12944 0-0.125-0.000763 0.0044 0.03171-0.12948 0.03125-0.125-0.000464 0.0045 0.000163-0.16076 0-0.15625-0.000163 0.0045-0.000139-0.12951 0-0.125 0.000139 0.0045-0.00044-0.12949 0-0.125 0.00044 0.0045-0.000739-0.1607 0-0.15625 0.000739 0.0044-0.03229-0.12939-0.03125-0.125 0.001 0.0044-0.03258-0.12931-0.03125-0.125 0.0013 0.0043-0.06411-0.12921-0.0625-0.125 0.0016 0.0042-0.06439-0.12909-0.0625-0.125 0.0019 0.0041-0.03341-0.12896-0.03125-0.125 0.0022 0.004-0.09617-0.1288-0.09375-0.125 0.0024 0.0038-0.06517-0.12863-0.0625-0.125 0.0027 0.0036-0.09666-0.0972-0.09375-0.09375 0.0029 0.0034-0.09688-0.09699-0.09375-0.09375 0.0031 0.0032-0.09709-0.09678-0.09375-0.09375 0.0033 0.003-0.09728-0.09655-0.09375-0.09375 0.0035 0.0028-0.12871-0.0963-0.125-0.09375 0.0037 0.0026-0.09763-0.0648-0.09375-0.0625 0.0039 0.0023-0.12902-0.06453-0.125-0.0625 0.004 0.002-0.12915-0.06426-0.125-0.0625-1.557-0.69-4.813-2.405-4.813-2.405 0.0051 0.0027-0.16151-0.09599-0.15625-0.09375 0.0053 0.0022-0.16168-0.06429-0.15625-0.0625 0.0054 0.0018-0.19306-0.03257-0.1875-0.03125 0.0056 0.0013-0.1619-0.03209-0.15625-0.03125 0.0057 0.000841-0.1932-0.03161-0.1875-0.03125 0.0057 0.000358-0.16196 0.000127-0.15625 0 0.0057-0.000127-0.19318 0.000611-0.1875 0 0.0057-0.000611-0.16186 0.03234-0.15625 0.03125 0.0056-0.0011-0.16175 0.03281-0.15625 0.03125 0.0055-0.0016-0.19285 0.06452-0.1875 0.0625 0.0053-0.002-0.1614 0.06497-0.15625 0.0625 0.0052-0.0025-0.16118 0.09665-0.15625 0.09375 0.0049-0.0029-0.12966 0.09706-0.125 0.09375 0.0047-0.0033-0.16062 0.09744-0.15625 0.09375 0.0044-0.0037-0.12904 0.12905-0.125 0.125 0.0034-0.0034-0.06804 0.0659-0.09375 0.09375-0.0049 0.0053-0.000589 0.03195 0 0.03125-2.8464 3.2234-4.0348 6.4979-3.9062 9.5 0.12866 3.0053 1.5086 5.5302 3.125 7.5312 3.2184 3.9843 7.649 6.1998 7.6875 6.2188 0.000167 0.000082 0.03125 0 0.03125 0 0.03286 0.01594 0.09681 0.03262 0.09375 0.03125-0.004-0.0018 0.1291 0.06403 0.125 0.0625-0.0041-0.0015 0.12919 0.03251 0.125 0.03125-0.0042-0.0013 0.12927 0.03223 0.125 0.03125-0.0043-0.00098 0.12932 0.03195 0.125 0.03125-0.0043-0.0007 0.12936 0.03167 0.125 0.03125-0.0044-0.000418 0.16062 0.000134 0.15625 0-0.0044-0.000134 0.12938-0.000151 0.125 0-0.0044 0.000151 0.12936-0.000435 0.125 0-0.0044 0.000435 0.12932-0.03197 0.125-0.03125-0.0043 0.000717 0.12926-0.03225 0.125-0.03125-0.0043 0.000996 0.12919-0.03252 0.125-0.03125-0.0042 0.0013 0.1291-0.03279 0.125-0.03125-0.0041 0.0015 0.12899-0.0643 0.125-0.0625-0.004 0.0018 0.12886-0.06456 0.125-0.0625-0.0039 0.0021 0.12872-0.06481 0.125-0.0625 10.791-6.9369 25.25 2.375 25.25 2.375-0.0035-0.0023 0.1286 0.06461 0.125 0.0625-0.0036-0.0021 0.09747 0.06438 0.09375 0.0625-0.0037-0.0019 0.12883 0.0329 0.125 0.03125-0.0038-0.0016 0.09768 0.06391 0.09375 0.0625-0.0039-0.0014 0.12901 0.03241 0.125 0.03125-0.004-0.0012 0.12907 0.03216 0.125 0.03125-0.0041-0.000911 0.12912 0.03191 0.125 0.03125-0.0041-0.000657 0.12915 0.000401 0.125 0-0.0042-0.000401 0.12917 0.03139 0.125 0.03125-0.0042-0.000143 0.12917-0.000115 0.125 0-0.0042 0.000115 0.12915-0.03162 0.125-0.03125-0.0042 0.000373 0.12912-0.00063 0.125 0-0.0041 0.00063 0.12908-0.03213 0.125-0.03125-0.0041 0.000884 0.12901-0.03238 0.125-0.03125-0.004 0.0011 0.12894-0.03263 0.125-0.03125-0.0039 0.0014 0.12884-0.03287 0.125-0.03125-0.0038 0.0016 0.09749-0.06436 0.09375-0.0625-0.0037 0.0019 0.12861-0.06459 0.125-0.0625-0.0036 0.0021 0.09723-0.0648 0.09375-0.0625-0.0035 0.0023 0.09708-0.09627 0.09375-0.09375-0.0033 0.0025 0.12816-0.06522 0.125-0.0625-0.0032 0.0027 0.06549-0.09666 0.0625-0.09375-0.003 0.0029 0.09655-0.09684 0.09375-0.09375-0.0028 0.0031 0.09636-0.09701 0.09375-0.09375-0.0026 0.0033 0.0649-0.09716 0.0625-0.09375-0.0024 0.0034 0.09594-0.0973 0.09375-0.09375-0.0022 0.0036 0.03321-0.12868 0.03125-0.125-0.002 0.0037 0.06423-0.09755 0.0625-0.09375-0.0017 0.0038 0.06399-0.1289 0.0625-0.125-0.0015 0.0039 0.0325-0.12898 0.03125-0.125-0.0012 0.004 0.03225-0.12905 0.03125-0.125-0.000763 0.0031 0.02392-0.05973 0.03125-0.09375 0.0023-0.01047 0.000175-0.03222 0-0.03125 1.2532-6.6665 4.5312-9.9688 4.5312-9.9688a1.114 1.114 0 0 0 0.031 -0.031c-0.0042 0.0045 0.12881-0.12984 0.125-0.125-0.0038 0.0048 0.0971-0.16142 0.09375-0.15625-0.0033 0.0052 0.09661-0.1617 0.09375-0.15625-0.0029 0.0055 0.0961-0.16194 0.09375-0.15625-0.0024 0.0057 0.06432-0.19338 0.0625-0.1875-0.0018 0.0059 0.03253-0.19352 0.03125-0.1875-0.0013 0.006 0.03197-0.16237 0.03125-0.15625-0.00072 0.0061 0.03141-0.19366 0.03125-0.1875-0.000158 0.0062-0.03166-0.19365-0.03125-0.1875 0.000405 0.0061-0.000965-0.19358 0-0.1875 0.000965 0.0061-0.03277-0.19347-0.03125-0.1875 0.0015 0.006-0.06456-0.19331-0.0625-0.1875 0.0021 0.0058-0.06508-0.16184-0.0625-0.15625 0.0026 0.0056-0.09683-0.16158-0.09375-0.15625 0.0031 0.0053-0.0973-0.16128-0.09375-0.15625 0.0036 0.005-0.129-0.16094-0.125-0.15625-3.3246-3.9051-8.2987-7.2042-12.469-9.625-3.4397-1.9968-5.4269-2.8734-6.25-3.25l0.125-0.96875v-0.03125c0.0032-0.03302 0.03146-0.09678 0.03125-0.09375-0.00027 0.004 0.000035-0.12898 0-0.125-0.000035 0.004-0.000199-0.12897 0-0.125 0.000199 0.004-0.03168-0.12895-0.03125-0.125 0.000434 0.004-0.000666-0.12892 0-0.125 0.000666 0.0039-0.03215-0.09762-0.03125-0.09375 0.000896 0.0039-0.03237-0.12881-0.03125-0.125 0.0011 0.0038-0.0326-0.12874-0.03125-0.125 0.0013 0.0037-0.03281-0.0974-0.03125-0.09375 0.0016 0.0037-0.06428-0.12856-0.0625-0.125 0.0018 0.0036-0.06449-0.09719-0.0625-0.09375 0.002 0.0034-0.06468-0.09707-0.0625-0.09375 0.0022 0.0033-0.06488-0.09694-0.0625-0.09375 0.0024 0.0032-0.06506-0.09679-0.0625-0.09375 0.0026 0.003-0.09649-0.09663-0.09375-0.09375 0.0027 0.0029-0.09665-0.09647-0.09375-0.09375-3.1955-2.8997-8.5027-4.5619-13.969-6.625-5.4714-2.0651-11.088-4.4616-14.469-7.5-0.0202-0.01711-0.09627-0.06452-0.09375-0.0625 0.003 0.0024-0.09691-0.06475-0.09375-0.0625 0.0032 0.0022-0.09703-0.06456-0.09375-0.0625 0.0033 0.0021-0.09715-0.06437-0.09375-0.0625 0.0034 0.0019-0.1285-0.06417-0.125-0.0625 0.0035 0.0017-0.09734-0.03272-0.09375-0.03125 0.0036 0.0015-0.12867-0.06376-0.125-0.0625 0.0037 0.0013-0.09748-0.0323-0.09375-0.03125 0.0037 0.001-0.12879-0.03208-0.125-0.03125 0.0038 0.000829-0.09758-0.000609-0.09375 0 0.0038 0.000609-0.12886-0.03164-0.125-0.03125 0.0039 0.000388-0.12888-0.000165-0.125 0 0.0039 0.000165-0.12888 0.000058-0.125 0 0.0039-0.000058-0.09762 0.000282-0.09375 0 0.0039-0.000282-0.12884 0.000504-0.125 0z"/>
    <path id="path4043" opacity="0.12" d="m33.75 12.906a0.912 0.912 0 0 0 -0.75 0.875c-0.22195 4.4391 0.39536 7.5575 1.5312 9.7812 1.1359 2.2238 2.8217 3.4842 4.5 4.0938 3.3566 1.2191 6.6875 0.03125 6.6875 0.03125a0.912 0.912 0 0 0 -0.375 -1.7812c-0.78018 0.0593-2.3972-0.07104-3.75-0.84375-0.90809-0.51871-1.6152-1.4889-2.125-2.75 1.6622 0.94635 3.3833 1.7165 5.5 2.5 2.659 0.98424 6.1395 2.3417 10.75 4.5312-0.639-0.014-1.766-0.25-2.719-0.499-0.985-0.258-1.781-0.532-1.781-0.532a0.912 0.912 0 0 0 -1.1562 1.0938s0.21106 0.96077 0.6875 2 1.157 2.2959 2.5312 2.7188a0.912 0.912 0 0 0 0.5 0c1.4453-0.38258 2.2773-1.3904 2.625-2.25 0.34769-0.85964 0.3125-1.6562 0.3125-1.6562a0.912 0.912 0 0 0 -0.15625 -0.5c0.09151 0.04445 0.15748 0.04853 0.25 0.09375l-0.158 2.812a0.912 0.912 0 0 0 0.594 0.937s10.355 3.7035 18.188 10.906c-0.57164 0.67408-1.0269 1.4474-1.375 2.2188-0.27778 0.61548-0.32588 0.7565-0.46875 1.1562-7.764-4.259-13.91-4.626-18.094-3.687-3.4918 0.7836-5.2923 2.1605-6.0312 2.7812-0.62217-0.48751-2.2565-1.8221-3.4375-3.8438-0.71218-1.2192-1.1202-2.5587-0.9375-3.875 0.18272-1.3163 0.93704-2.6952 2.9375-4.1562a0.912 0.912 0 0 0 -0.157 -1.593c-1.655-0.736-4.906-2.469-4.906-2.469a0.912 0.912 0 0 0 -1.125 0.21875c-2.7158 3.0678-3.7402 6.0272-3.625 8.7188 0.11523 2.6916 1.3553 5.025 2.875 6.9062 3.0393 3.7626 7.3438 5.9062 7.3438 5.9062a0.912 0.912 0 0 0 0.90625 -0.03125c11.534-7.4146 26.469 2.375 26.469 2.375a0.912 0.912 0 0 0 1.406 -0.594c1.302-6.979 4.843-10.562 4.843-10.562a0.912 0.912 0 0 0 0.03125 -1.2188c-3.1653-3.718-8.0664-6.9826-12.188-9.375-3.7931-2.2019-6.3974-3.3781-6.875-3.5938l0.22-1.75a0.912 0.912 0 0 0 -0.281 -0.781c-2.876-2.61-8.13-4.333-13.625-6.407-5.495-2.073-11.199-4.439-14.813-7.687a0.912 0.912 0 0 0 -0.781 -0.219z"/>
    <path id="path4039" opacity=".3" d="m33.915 13.826c7.6067 6.8364 23.225 9.3756 28.424 14.094l-0.27635 2.3687s13.278 5.9025 19.344 13.028c0 0-3.7446 3.7928-5.0927 11.014 0 0-15.344-10.207-27.477-2.4082 0 0-16.716-8.3472-6.3165-20.094 0 0 3.2411 1.7168 4.9742 2.4871-8.5696 6.2587 1.9344 13.778 1.9344 13.778s8.4975-8.4492 24.674 0.98695c0 0 1.2007-3.8313 2.645-4.6979-8.087-7.801-19.186-11.687-19.186-11.687l0.19739-3.4346c-11.265-5.584-15.388-5.551-19.817-8.921 0.46706 5.9058 5.5548 6.6193 7.4613 6.4744 0 0-12.355 4.3435-11.488-12.988zm17.015 15.357s3.2563 1.0659 4.8953 1.0659c0 0 0.07158 2.3857-2.2502 3.0003-1.7755-0.54631-2.645-4.0662-2.645-4.0662z"/>
    <path id="path3983" fill="#fff" d="m33.915 12.826c7.6067 6.8364 23.225 9.3756 28.424 14.094l-0.27635 2.3687s13.278 5.9025 19.344 13.028c0 0-3.7446 3.7928-5.0927 11.014 0 0-15.344-10.207-27.477-2.4082 0 0-16.716-8.3472-6.3165-20.094 0 0 3.2411 1.7168 4.9742 2.4871-8.5696 6.2587 1.9344 13.778 1.9344 13.778s8.4975-8.4492 24.674 0.98695c0 0 1.2007-3.8313 2.645-4.6979-8.087-7.801-19.186-11.687-19.186-11.687l0.19739-3.4346c-11.265-5.584-15.388-5.551-19.817-8.921 0.46706 5.9058 5.5548 6.6193 7.4613 6.4744 0 0-12.355 4.3435-11.488-12.988zm17.015 15.357s3.2563 1.0659 4.8953 1.0659c0 0 0.07158 2.3857-2.2502 3.0003-1.7755-0.54631-2.645-4.0662-2.645-4.0662z"/>
   </g>
  </g>
 </g>
</svg>
