<?xml version="1.0" encoding="UTF-8" standalone="no"?>
<!-- Created with Inkscape (http://www.inkscape.org/) -->
<svg id="svg2" xmlns:rdf="http://www.w3.org/1999/02/22-rdf-syntax-ns#" xmlns="http://www.w3.org/2000/svg" height="96" width="96" version="1.1" xmlns:cc="http://creativecommons.org/ns#" xmlns:xlink="http://www.w3.org/1999/xlink" xmlns:dc="http://purl.org/dc/elements/1.1/">
 <defs id="defs4">
  <linearGradient id="linearGradient3613-3" y2="138.66" gradientUnits="userSpaceOnUse" x2="48" y1="20.221" x1="48">
   <stop id="stop3739-10" stop-color="#fff" offset="0"/>
   <stop id="stop3741-2" stop-color="#fff" stop-opacity="0" offset="1"/>
  </linearGradient>
  <clipPath id="clipPath3613-29">
   <rect id="rect3615-1" rx="6" ry="6" height="84" width="84" y="6" x="6" fill="#fff"/>
  </clipPath>
  <filter id="filter3794-0" height="1.384" width="1.384" color-interpolation-filters="sRGB" y="-.192" x="-.192">
   <feGaussianBlur id="feGaussianBlur3796-8" stdDeviation="5.28"/>
  </filter>
  <clipPath id="clipPath3613-25">
   <rect id="rect3615-14" rx="6" ry="6" height="84" width="84" y="6" x="6" fill="#fff"/>
  </clipPath>
  <filter id="filter3794-6" height="1.384" width="1.384" color-interpolation-filters="sRGB" y="-.192" x="-.192">
   <feGaussianBlur id="feGaussianBlur3796-26" stdDeviation="5.28"/>
  </filter>
  <linearGradient id="linearGradient3105" y2="5.9877" gradientUnits="userSpaceOnUse" y1="90" gradientTransform="matrix(1.0168 0 0 1.021 -.61038 -.84736)" x2="48" x1="48">
   <stop id="stop3927-9" stop-color="#3c6eb4" offset="0"/>
   <stop id="stop3929-8" stop-color="#81a4d5" offset="1"/>
  </linearGradient>
  <linearGradient id="linearGradient3327-8">
   <stop id="stop3330-7" offset="0"/>
   <stop id="stop3333-0" stop-opacity="0" offset="1"/>
  </linearGradient>
  <linearGradient id="ButtonColor-6" y2=".99930" gradientUnits="userSpaceOnUse" x2="10.32" y1="21" x1="10.32">
   <stop id="stop3189-2" stop-color="#afafaf" offset="0"/>
   <stop id="stop3191-6" stop-color="#d8d8d8" offset="1"/>
  </linearGradient>
  <clipPath id="clipPath2849-2">
   <rect id="rect2851-4" fill-rule="evenodd" rx="2" ry="2" height="20" width="20" y="1" x="1" fill="#fff"/>
  </clipPath>
  <filter id="filter3194-1" height="1.36" width="1.36" color-interpolation-filters="sRGB" y="-0.18" x="-0.18">
   <feGaussianBlur id="feGaussianBlur3196-4" stdDeviation="1.2"/>
  </filter>
  <linearGradient id="linearGradient3764" y2="5.4252" gradientUnits="userSpaceOnUse" x2="58.65" gradientTransform="matrix(1.0172 0 0 1.0172 -1.1034 -1.1034)" y1="122" x1="58.65">
   <stop id="stop3766" stop-color="#969696" offset="0"/>
   <stop id="stop3768" stop-color="#cacaca" offset="1"/>
  </linearGradient>
  <clipPath id="clipPath6183">
   <rect id="rect6185" fill-rule="evenodd" rx="2" ry="2" height="20" width="20" y="1" x="1" fill="#fff"/>
  </clipPath>
  <clipPath id="clipPath3739">
   <path id="path3741" d="m33 1c-0.277 0-0.54181 0.055313-0.78125 0.15625-0.37163 0.26346-0.71445 0.58231-1 0.9375-0.138 0.2716-0.219 0.5798-0.219 0.9062v4.9688c0.89033 1.2931 2.3739 2.1563 4.0625 2.1562 2.727 0 4.938-2.2106 4.938-4.9375 0-1.7705-0.944-3.316-2.344-4.1875h-4.656zm7.5312 0 0.5625 0.84375 0.46875-0.25l0.437-0.0938h1.125l0.25 0.59375-0.75 0.8125-0.40625 0.25-0.53125 0.15625 0.25 1.0938 0.5-0.0625 0.46875 0.0625 1.0312 0.4375v0.65625l-1.031 0.4688-0.468 0.0312-0.5-0.03125-0.25 1.125 0.531 0.1562 0.406 0.2188 0.75 0.8124-0.25 0.5938-1.125 0.0312-0.438-0.125-0.468-0.2812-0.625 0.96875 0.375 0.3125 0.3125 0.40625 0.4375 1.0312-0.469 0.469-1.031-0.438-0.406-0.25-0.313-0.438-0.96875 0.65625 0.25 0.4375 0.15625 0.5-0.03125 1.0625-0.625 0.282-0.781-0.781-0.281-0.407-0.094-0.531-1.125 0.25 0.03125 0.5-0.0625 0.5-0.4375 1h-0.65625l-0.46875-1-0.03125-0.5 0.03125-0.5-1.125-0.25-0.094 0.531-0.281 0.407-0.781 0.781-0.59375-0.28125-0.0625-1.0625 0.15625-0.5 0.25-0.4375-0.75-0.5v8.281c0 1.108 0.892 2 2 2h6.8438l0.28125-0.25 0.46875-0.25-0.46875-1.1562-0.53125 0.1875-0.5 0.03125-1.1562-0.25-0.15625-0.6875 0.96875-0.6875 0.5-0.15625 0.53125-0.0625v-1.2188l-0.53125-0.03125-0.5-0.1875-1-0.65625 0.15625-0.6875 1.1562-0.25h0.5l0.53125 0.1875 0.46875-1.1562-0.5-0.25-0.40625-0.3125-0.625-1 0.375-0.59375 1.1562 0.1875 0.5 0.25 0.40625 0.34375 0.84375-0.875-0.34375-0.40625-0.21875-0.46875-0.21875-1.1875 0.5625-0.375 1 0.625 0.34375 0.375 0.28125 0.5 1.125-0.46875-0.188-0.5308-0.031-0.5312 0.25-1.1562 0.6875-0.125 0.6875 0.96875 0.15625 0.46875 0.0625 0.5625 1.2188-0.03125 0.03125-0.53125 0.1875-0.5 0.656-0.9688 0.688 0.125 0.281 1.1563-0.031 0.5312-0.188 0.5 1.157 0.469 0.25-0.469 0.281-0.3438v-6.6562c0-1.108-0.892-2-2-2h-8.4688zm-5.5 0.3125c2.1217 0 3.8438 1.7221 3.8438 3.8438 0 2.1216-1.722 3.8437-3.844 3.8437-2.121 0-3.843-1.7221-3.843-3.8438s1.7221-3.8438 3.8438-3.8438zm0 1.7188c-1.242 0-2.25 0.95205-2.25 2.125s1.008 2.125 2.25 2.125 2.25-0.95205 2.25-2.125-1.008-2.125-2.25-2.125zm12.094 8.375c-1.2762 0-2.4599 0.44167-3.4062 1.1562l1.8125 1.9375c0.46114-0.28724 1.0108-0.4375 1.5938-0.4375 0.29398 0 0.57511 0.04631 0.84375 0.125l1.2188-2.375c-0.642-0.253-1.334-0.407-2.064-0.407zm3.0938 0.9375l-1.219 2.375c0.68574 0.54448 1.1138 1.3722 1.125 2.3125l0.875 0.156v-4.219c-0.24222-0.22776-0.50205-0.44206-0.78125-0.625zm-7.3438 1c-0.87349 0.99394-1.4062 2.2926-1.4062 3.7188 0 0.63718 0.11756 1.2409 0.3125 1.8125l2.407-1.094c-0.056-0.228-0.063-0.474-0.063-0.719 0-0.66266 0.1992-1.2839 0.5625-1.7812l-1.8125-1.9375zm4.25 2.75c-0.53504 0-0.96875 0.43372-0.96875 0.96875 0 0.53504 0.43372 0.96875 0.96875 0.96875 0.53504 0 0.96875-0.43372 0.96875-0.96875 0-0.53504-0.43372-0.96875-0.96875-0.96875zm2.8125 2.0625c-0.32204 0.82378-1.0024 1.4646-1.8438 1.75l0.156 1.094h0.75c1.108 0 2-0.892 2-2v-0.65625l-1.0625-0.1875zm-5.25 0.65625-2.4375 1.125c0.23048 0.39031 0.49754 0.7398 0.8125 1.0625h4l-0.125-0.9375c-0.93376-0.05393-1.7355-0.53535-2.25-1.25z" fill-rule="evenodd" fill="#fff"/>
  </clipPath>
  <filter id="filter3743" color-interpolation-filters="sRGB">
   <feGaussianBlur id="feGaussianBlur3745" stdDeviation="0.8"/>
  </filter>
  <linearGradient id="linearGradient4320" y2="-9.8173" xlink:href="#linearGradient3327-8" gradientUnits="userSpaceOnUse" x2="11.375" y1="22" x1="11.375"/>
  <linearGradient id="linearGradient4322" y2="7.2537" xlink:href="#ButtonColor-6" gradientUnits="userSpaceOnUse" x2="-3.0608" gradientTransform="translate(11.119 -6.2582)" y1="27.258" x1="-3.0608"/>
  <linearGradient id="linearGradient4324" y2=".90025" xlink:href="#linearGradient3764" gradientUnits="userSpaceOnUse" x2="5" y1="21" x1="5"/>
  <linearGradient id="linearGradient3144-3" y2="44.091" gradientUnits="userSpaceOnUse" x2="16" gradientTransform="matrix(1.0116 0 0 1 -.50395 959.33)" y1="48" x1="16">
   <stop id="stop3640" offset="0"/>
   <stop id="stop3646" stop-opacity=".49804" offset=".25926"/>
   <stop id="stop3642" stop-opacity="0" offset="1"/>
  </linearGradient>
  <linearGradient id="linearGradient3149" y2="104" gradientUnits="userSpaceOnUse" x2="40" gradientTransform="matrix(1.0116 0 0 1.0208 -.50395 -6.1977)" y1="56.209" x1="40">
   <stop id="stop3621" stop-color="#fff" offset="0"/>
   <stop id="stop3627" stop-color="#fff" stop-opacity=".49804" offset=".29592"/>
   <stop id="stop3623" stop-color="#fff" stop-opacity="0" offset="1"/>
  </linearGradient>
  <linearGradient id="linearGradient3660">
   <stop id="stop3668" stop-color="#dcdcdc" offset="0"/>
   <stop id="stop3670" stop-color="#fff" offset="1"/>
  </linearGradient>
  <linearGradient id="linearGradient3633">
   <stop id="stop3635" stop-opacity=".53906" offset="0"/>
   <stop id="stop3637" stop-opacity="0" offset="1"/>
  </linearGradient>
  <linearGradient id="linearGradient7007" y2="-9.8173" gradientUnits="userSpaceOnUse" x2="11.375" y1="22" x1="11.375">
   <stop id="stop3330" offset="0"/>
   <stop id="stop3333" stop-opacity="0" offset="1"/>
  </linearGradient>
  <linearGradient id="linearGradient7009" y2="7.2537" gradientUnits="userSpaceOnUse" x2="-3.0608" gradientTransform="translate(11.119 -6.2582)" y1="27.258" x1="-3.0608">
   <stop id="stop3189-8" stop-color="#a0a0a0" offset="0"/>
   <stop id="stop3191-4" stop-color="#dcdcdc" offset="1"/>
  </linearGradient>
  <linearGradient id="linearGradient7011" y2="105" gradientUnits="userSpaceOnUse" x2="51.484" gradientTransform="matrix(.19897 0 0 .18111 -1.7338 -.59153)" y1="23" x1="51.484">
   <stop id="stop3270" stop-color="#414141" offset="0"/>
   <stop id="stop3272" stop-color="#696969" offset="1"/>
  </linearGradient>
  <linearGradient id="linearGradient7013" y2="22.99" gradientUnits="userSpaceOnUse" x2="45.987" gradientTransform="matrix(.19897 0 0 .18111 -1.7338 -.59153)" y1="105" x1="45.987">
   <stop id="stop3300-5" stop-color="#c8c8c8" offset="0"/>
   <stop id="stop3302-9" stop-color="#d9d9d9" offset="1"/>
  </linearGradient>
  <linearGradient id="linearGradient7015" y2="62.264" xlink:href="#linearGradient3660" gradientUnits="userSpaceOnUse" x2="29.247" gradientTransform="translate(21.201 -20.841)" y1="41.248" x1="29.247"/>
  <linearGradient id="linearGradient7017" y2="22.156" xlink:href="#linearGradient3633" gradientUnits="userSpaceOnUse" x2="54.072" y1="42.659" x1="54.094"/>
  <linearGradient id="linearGradient7021" y2="20.779" xlink:href="#linearGradient3633" gradientUnits="userSpaceOnUse" x2="53.634" y1="42.659" x1="54.094"/>
 </defs>
 <metadata id="metadata7">
  <rdf:RDF>
   <cc:Work rdf:about="">
    <dc:format>image/svg+xml</dc:format>
    <dc:type rdf:resource="http://purl.org/dc/dcmitype/StillImage"/>
    <dc:title/>
   </cc:Work>
  </rdf:RDF>
 </metadata>
 <g id="layer1" transform="translate(0 -956.36)">
  <rect id="rect5263-0" fill-opacity=".019608" ry="12.724" height="89.978" width="89.978" y="959.35" x="2.9998"/>
  <rect id="rect5261-6" fill-opacity=".039216" ry="12.552" height="88.762" width="88.762" y="959.96" x="3.6078"/>
  <rect id="rect5259-9" fill-opacity=".078431" ry="12.38" height="87.546" width="87.546" y="960.57" x="4.2157"/>
  <rect id="rect5257-5" fill-opacity=".15686" ry="12.208" height="86.33" width="86.33" y="961.18" x="4.8237"/>
  <path id="rect2419-5" d="m17.469 5.4062c-6.251 0-11.355 4.7568-11.969 10.844v63.469c0.6136 6.083 5.718 10.812 11.969 10.812h61.031c6.454 0 11.671-5.036 12-11.406v-62.281c-0.321-6.377-5.54-11.438-12-11.438l-61.031 0.0002z" transform="translate(0 956.36)" fill="url(#linearGradient3105)"/>
  <path id="rect5265-0" d="m5.4316 1029.8v5.0663c0 6.668 5.3645 12.032 12.032 12.032h61.049c6.668 0 12.032-5.3645 12.032-12.032v-5.0663c0 6.6681-5.3645 12.032-12.032 12.032h-61.049c-6.668 0-12.032-5.3643-12.032-12.032z" fill-opacity=".17"/>
  <path id="path5252-0" d="m5.4316 1033.9v1.0133c0 6.668 5.3645 12.032 12.032 12.032h61.049c6.668 0 12.032-5.3645 12.032-12.032v-1.0133c0 6.6681-5.3645 12.032-12.032 12.032h-61.049c-6.668 0-12.032-5.3644-12.032-12.032z" fill-opacity=".098039"/>
  <rect id="rect3171" ry="12" stroke="#fff" stroke-linecap="round" stroke-width=".5" fill="url(#linearGradient3613-3)" rx="12" transform="matrix(1.0149 0 0 1.0238 -.83801 955.22)" width="66" opacity=".05" clip-path="url(#clipPath3613-29)" height="66" filter="url(#filter3794-0)" y="15" x="15"/>
  <g id="layer5" transform="matrix(1.0168 0 0 1.021 -.61038 955.51)">
   <rect id="rect3171-4" height="66" stroke="#fff" stroke-linecap="round" stroke-width=".5" fill="url(#linearGradient3613-3)" rx="12" ry="12" width="66" opacity=".1" clip-path="url(#clipPath3613-25)" filter="url(#filter3794-6)" y="15" x="15"/>
  </g>
  <path id="rect3613" opacity=".5" d="m5.5625 50.969v24.093c0.7937 5.888 5.7935 10.407 11.906 10.407h61.032c6.668 0 12.031-5.363 12.031-12.031v-22.469h-84.968zm84.968 27.531c0 1.229-0.192 2.416-0.531 3.531 0.334-0.76 0.531-1.58 0.531-2.469v-1.062z" transform="translate(0 956.36)" fill="url(#linearGradient3149)"/>
  <rect id="rect3632" opacity=".6" height="1" width="84.972" y="1007.3" x="5.5655" fill="#fff"/>
  <rect id="rect3634" opacity="0" height="1" width="84.972" y="1007.3" x="5.5655"/>
  <rect id="rect3636" opacity=".3" height="4" width="84.972" y="1003.3" x="5.5655" fill="url(#linearGradient3144-3)"/>
  <path id="path3886" d="m21.817 1028-7.1472 7.3143 14.162-0.1355-7.0148-7.1788z" fill="#fff" fill-opacity=".67760"/>
  <g id="g4292" transform="matrix(1.0116 0 0 1 -82.189 972.83)">
   <g id="g4294" transform="translate(117.75,41.5)">
    <g id="g4296">
     <rect id="rect4298" opacity=".3" rx="2.5" ry="2.5" height="21.5" width="21" y=".5" x=".5" fill="url(#linearGradient4320)"/>
     <rect id="rect4300" opacity=".5" rx="2.381" ry="2.3256" height="20" width="20" y="2" x="1"/>
    </g>
    <rect id="rect4302" fill-rule="evenodd" rx="2" ry="2" height="20" width="20" y="1" x="1" fill="url(#linearGradient4322)"/>
   </g>
   <g id="g4304" transform="translate(117.75,41.5)">
    <rect id="rect4306" opacity=".15" filter="url(#filter3194-1)" clip-path="url(#clipPath2849-2)" rx="2" ry="2" height="16" width="16" y="3" x="3" fill="#fff"/>
   </g>
   <path id="path4308" d="m4.75-3.6562-0.46875 1l-0.0312 0.4687 0.0312 0.5313-1.125 0.2187-0.0937-0.4687-0.2813-0.4376-0.7812-0.7812-0.5938 0.25-0.0624 1.125 0.1562 0.4688 0.25 0.4375-0.96875 0.625-0.3125-0.375-0.375-0.3125-1.0625-0.375-0.46875 0.4375 0.4374 1.0312 0.28125 0.40625 0.40625 0.3125-0.65625 0.93755-0.40625-0.25-0.4688-0.0938h-1.125l-0.28125 0.59375 0.78125 0.8125 0.4375 0.25 0.5 0.15625-0.25 1.0938-0.5-0.0625-0.5 0.0625-1 0.4375v0.65625l1 0.46875 0.5 0.03125 0.5-0.03125 0.25 1.125-0.5 0.15625-0.4375 0.21875-0.7813 0.8124 0.2812 0.5938 1.125 0.0312 0.4688-0.125 0.40625-0.2812 0.65625 0.9688-0.40625 0.3124-0.28125 0.4068-0.4375 1.031 0.46875 0.469 1.0625-0.438 0.375-0.25 0.3125-0.438 0.96875 0.657-0.25 0.4375-0.15625 0.5 0.0625 1.0625 0.5938 0.281 0.7812-0.781 0.2813-0.407 0.09375-0.53125 1.125 0.25-0.03125 0.5 0.03125 0.5 0.46875 1h0.65625l0.4375-1 0.0625-0.5-0.03125-0.5 1.1249-0.25 0.0938 0.531 0.2812 0.407 0.7812 0.781 0.625-0.28125 0.03125-1.0625-0.15625-0.5-0.25-0.4375 0.9688-0.657 0.3125 0.438 0.40625 0.25 1.0312 0.4375 0.46875-0.46875-0.4375-1.0312-0.3125-0.40625-0.375-0.3125 0.625-0.9688 0.468 0.2812 0.438 0.125 1.125-0.0312 0.25-0.5938-0.75-0.8124-0.406-0.2188-0.531-0.1562 0.25-1.125 0.5 0.0312 0.468-0.0312 1.032-0.4688v-0.65625l-1.0312-0.4375-0.46875-0.0625-0.5 0.0625-0.25-1.0938 0.53125-0.15625 0.40625-0.25 0.75-0.8125-0.25-0.5937h-1.125l-0.4375 0.09375-0.46875 0.25-0.625-0.9375 0.375-0.3125 0.3125-0.40625 0.4375-1.0312-0.46875-0.4375-1.0312 0.375-0.40625 0.3125-0.3125 0.375-0.96875-0.625 0.25-0.4375 0.1561-0.4688-0.0313-1.125-0.625-0.25-0.7812 0.7812-0.2812 0.4376-0.0938 0.4687-1.125-0.2187 0.0312-0.5313-0.0625-0.46875-0.4375-1h-0.65625zm0.3125 3.9062c2.7269 0 4.9375 2.2106 4.9375 4.9375s-2.2106 4.9375-4.9375 4.9375-4.9375-2.2106-4.9375-4.9375 2.2106-4.9375 4.9375-4.9375zm-0.0313 1.0625c-2.1216 0-3.8437 1.7221-3.8437 3.8437 0 2.1217 1.7221 3.8438 3.8437 3.8438 2.1217 0 3.8438-1.7221 3.8438-3.8438 0-2.1216-1.7221-3.8437-3.8438-3.8437zm0 1.7188c1.242 0 2.25 0.95205 2.25 2.125s-1.008 2.125-2.25 2.125-2.25-0.95205-2.25-2.125 1.008-2.125 2.25-2.125zm13.531 4.6562-0.65625 0.96875-0.1875 0.5l-0.03 0.5313-1.219 0.0313-0.063-0.5626-0.156-0.4687-0.688-0.9687-0.687 0.125-0.25 1.1562 0.03125 0.53125 0.1875 0.53125-1.125 0.46875-0.28125-0.5-0.34375-0.375-1-0.625-0.5625 0.375 0.21875 1.1875 0.21875 0.46875 0.34375 0.40625-0.84375 0.875-0.407-0.344-0.5-0.25-1.1562-0.1875-0.375 0.59375 0.625 1 0.40625 0.3125 0.5 0.25-0.46875 1.1562-0.53125-0.1875h-0.5l-1.1562 0.25-0.15625 0.6875 1 0.65625 0.5 0.1875 0.53125 0.03125v1.2188l-0.53125 0.0625-0.5 0.15625-0.96875 0.6875 0.15625 0.6875 1.1562 0.25 0.5-0.03125 0.53125-0.1875 0.46875 1.1562-0.46875 0.25-0.40625 0.34375-0.625 1 0.40625 0.5625 1.1562-0.1875 0.46875-0.25 0.40625-0.34375 0.875 0.84375-0.34375 0.4375-0.21875 0.46875-0.21875 1.1562 0.59375 0.375 1-0.625 0.34375-0.40625 0.25-0.5 1.125 0.46875-0.15625 0.53125-0.03125 0.5 0.25 1.1875 0.6875 0.125 0.6875-1 0.15625-0.46875 0.03125-0.5625h1.25l0.03125 0.53125 0.1875 0.5 0.6875 0.96875 0.6875-0.15625 0.25-1.1562-0.0625-0.5-0.15625-0.53125 1.125-0.46875 0.25 0.46875 0.34375 0.40625 1 0.625 0.59375-0.40625-0.21875-1.1562-0.25-0.46875-0.34375-0.40625 0.875-0.875 0.40625 0.34375 0.46875 0.21875 1.1875 0.21875 0.375-0.59375-0.65625-1-0.40625-0.34375-0.46875-0.25 0.46875-1.125 0.5 0.15625 0.53125 0.03125 1.1562-0.25 0.126-0.689-0.969-0.688-0.5-0.156-0.531-0.031-0.03125-1.25 0.5625-0.03125 0.46875-0.1875 0.96875-0.6875-0.125-0.6875-1.1562-0.21875-0.53125 0.03125-0.5 0.15625-0.5-1.125 0.5-0.25 0.375-0.34375 0.625-1-0.375-0.59375-1.1875 0.21875-0.4375 0.25-0.4375 0.34375-0.875-0.875 0.344-0.406 0.25-0.469 0.187-1.1562-0.594-0.4063-0.969 0.6563-0.343 0.4062-0.25 0.469-1.157-0.469 0.188-0.5 0.031-0.5312-0.281-1.1563-0.688-0.125zm-1.4375 3.7188c0.72958 0 1.4223 0.15408 2.0625 0.40625l-1.2188 2.375c-0.26864-0.07869-0.54977-0.125-0.84375-0.125-0.5829 0-1.1326 0.15026-1.5938 0.4375l-1.8125-1.9375c0.94634-0.71458 2.13-1.1562 3.4062-1.1562zm3.0938 0.9375c1.5392 1.0085 2.5625 2.7419 2.5625 4.7188 0 0.14764-0.02011 0.29269-0.03125 0.4375l-2.624-0.469c-0.011-0.94-0.439-1.768-1.125-2.312l1.2188-2.375zm-7.3438 1 1.8125 1.9375c-0.3633 0.49738-0.5625 1.1186-0.5625 1.7812 0 0.24463 0.0073 0.49099 0.0625 0.71875l-2.405 1.093c-0.19494-0.57162-0.3125-1.1753-0.3125-1.8125 0-1.4262 0.53276-2.7248 1.4062-3.7188zm4.25 2.75c0.53504 0 0.96875 0.43372 0.96875 0.96875 0 0.53504-0.43372 0.96875-0.96875 0.96875-0.53504 0-0.96875-0.43372-0.96875-0.96875 0-0.53504 0.43372-0.96875 0.96875-0.96875zm2.8125 2.0625 2.625 0.46875c-0.55993 1.9369-2.1538 3.463-4.125 3.9375l-0.34375-2.6562c0.84138-0.28535 1.5217-0.92622 1.8438-1.75zm-5.25 0.65625c0.51451 0.71465 1.3162 1.1961 2.25 1.25l0.375 2.6562c-0.05979 0.0019-0.12725-0.000001-0.1875 0-2.0715 0.000001-3.8919-1.1163-4.875-2.7812l2.4375-1.125z" clip-path="url(#clipPath6183)" transform="translate(117.75,41.5)" fill="url(#linearGradient4324)"/>
   <path id="path4310" opacity=".2" d="m128.44 42.719-0.21875 0.1875 0.625 0.9375 0.46875-0.25 0.4375-0.09375h1.125l0.0937 0.25 0.15625-0.15625-0.25-0.59375h-1.125l-0.4375 0.09375-0.46875 0.25-0.40625-0.625zm-5.6562 0.09375c-2.1217 0-3.8438 1.7221-3.8438 3.8438 0 0.08492 0.0258 0.16645 0.0312 0.25 0.1303-2.004 1.7758-3.5938 3.8125-3.5938 2.0368 0 3.6822 1.5897 3.8125 3.5938 0.005-0.08355 0.0312-0.16508 0.0312-0.25 0-2.1217-1.7221-3.8438-3.8438-3.8438zm6.75 2.4688-0.0937 0.03125 0.25 1.0938 0.5-0.0625 0.46875 0.0625 1.0312 0.4375v-0.5l-1.0312-0.4375-0.46875-0.0625-0.5 0.0625-0.15625-0.625zm-8.9688 1.625c-0.0101 0.08156-0.0312 0.1659-0.0312 0.25 0 1.173 1.008 2.125 2.25 2.125s2.25-0.95205 2.25-2.125c0-0.0841-0.0212-0.16844-0.0312-0.25-0.1305 1.056-1.0658 1.875-2.2188 1.875-1.1529 0-2.0882-0.81904-2.2188-1.875zm7.1875 0.03125c-0.13175 2.6092-2.2955 4.6875-4.9375 4.6875-1.692 0.000001-3.1709-0.85784-4.0625-2.1562v0.5c0.89033 1.2931 2.3739 2.1563 4.0625 2.1562 2.7269 0 4.9375-2.2106 4.9375-4.9375 0-0.08488 0.004-0.16617 0-0.25zm1.7812 1.6875-0.0937 0.46875 0.53125 0.15625 0.40625 0.21875 0.59375 0.65625 0.15625-0.34375-0.75-0.8125-0.40625-0.21875-0.4375-0.125zm6.7812 0.5625-0.65625 0.96875-0.1875 0.5-0.0312 0.53125-1.2188 0.03125-0.0625-0.5625l-0.15-0.468-0.6875-0.96875-0.6875 0.125-0.25 1.1562 0.0312 0.40625 0.21875-1.0625 0.6875-0.125 0.6875 0.96875 0.15625 0.46875 0.0625 0.5625 1.2188-0.03125 0.0312-0.53125 0.1875-0.5 0.65625-0.96875 0.6875 0.125 0.25 1.0625 0.0312-0.40625-0.28-1.157-0.6875-0.125zm-6.875 1.625-0.15625 0.09375 0.0937 0.4375 0.46875-0.3125 1 0.625 0.34375 0.375 0.28125 0.5 1.125-0.46875-0.15625-0.4375-0.96875 0.40625-0.28125-0.5-0.34375-0.375-0.4375-0.28125-0.65625 0.03125-0.3125-0.09375zm-1 0.34375-0.21875 0.3125 0.375 0.3125 0.3125 0.40625 0.28125 0.6875 0.15625-0.15625-0.4375-1.0312-0.3125-0.40625-0.15625-0.125zm10.312 0-0.28125 0.34375-0.25 0.46875-1-0.40625-0.15625 0.4375 1.1562 0.46875 0.25-0.46875 0.28125-0.34375v-0.5zm-11.594 1.9062-0.375 0.59375 0.15625 0.25 0.21875-0.34375 1.1562 0.1875 0.5 0.25 0.40625 0.34375 0.84375-0.875-0.21875-0.28125-0.625 0.65625-0.28125-0.21875-0.0625 0.0625-1.0312-0.4375-0.15625-0.09375-0.53125-0.09375zm-7.875 0.03125-0.0312 0.0625-0.15625 0.5 0.0312 0.40625 0.125-0.40625 0.25-0.4375-0.21875-0.125zm7.0938 0-0.21875 0.125 0.25 0.4375 0.15625 0.46875v-0.46875l-0.15625-0.5-0.0312-0.0625zm10.344 0.65625-1 1.9375c-0.26864-0.07869-0.54977-0.125-0.84375-0.125-0.58291 0-1.1326 0.15026-1.5938 0.4375l-1.52-1.625c-0.0946 0.06312-0.19087 0.11925-0.28125 0.1875l1.8125 1.9375c0.46114-0.28724 1.0108-0.4375 1.5938-0.4375 0.29398 0 0.57511 0.04631 0.84375 0.125l1.2188-2.375c-0.07-0.028-0.15-0.038-0.22-0.063zm-14.71 0.281v0.25l0.0312-0.25h-0.0312zm1.625 0v0.15625l0.0312-0.15625h-0.0312zm4.5312 1.5938-0.3125 0.75-0.53125-0.1875h-0.5l-1.1562 0.25-0.15625 0.6875 0.0937 0.0625 0.0625-0.25 1.1562-0.25h0.5l0.53125 0.1875 0.46875-1.1562-0.15625-0.09375zm8.75 0.75-0.15625 0.34375c0.68574 0.54448 1.1138 1.3722 1.125 2.3125l0.875 0.15625v-0.5l-0.875-0.15625c-0.0103-0.86198-0.38054-1.615-0.96875-2.1562zm-4.65 0.719c-0.24217 0.43822-0.375 0.93265-0.375 1.4688 0 0.12232-0.009 0.25436 0 0.375 0.0231-0.61626 0.22181-1.1898 0.5625-1.6562l-0.1875-0.1875zm-3 1.7188c-0.004 0.08572-0.0312 0.1633-0.0312 0.25 0 0.63718 0.11756 1.2409 0.3125 1.8125l2.4062-1.0938c-0.0368-0.15184-0.0563-0.3064-0.0625-0.46875l-2.3438 1.0625c-0.16894-0.49522-0.2547-1.0182-0.2813-1.5625zm4.6875 0c-0.0223 0.08151-0.0312 0.16143-0.0312 0.25 0 0.53504 0.43371 0.96875 0.96875 0.96875 0.53503 0 0.96875-0.43372 0.96875-0.96875 0-0.08857-0.009-0.16849-0.0312-0.25-0.11222 0.41087-0.49104 0.71875-0.9375 0.71875-0.44647 0-0.82528-0.30788-0.9375-0.71875zm-6.4062 0.40625-0.53125 0.0625-0.5 0.15625-0.96875 0.6875 0.0937 0.4375 0.875-0.625 0.5-0.15625 0.53125-0.0625v-0.5zm2.72 2.593-0.25 0.126c0.11547 0.19555 0.23738 0.38301 0.375 0.5625h0.4375c-0.20566-0.21224-0.39189-0.44548-0.5625-0.6875zm5.6562 0.0625c-0.0221 0.0081-0.0401 0.02366-0.0625 0.03125l0.0625 0.59375h0.0937l-0.0937-0.625zm-7.7188 0.21875-0.3125 0.15625-0.28125 0.25h0.75l-0.15625-0.40625z"/>
   <path id="path4312" opacity=".5" d="m37.656 1c1.4 0.8715 2.344 2.417 2.344 4.1875 0 2.7269-2.211 4.9375-4.938 4.9375-1.688 0-3.172-0.8631-4.062-2.1562v2.75l0.75 0.5-0.25 0.4375-0.15625 0.5 0.0625 1.0625 0.594 0.281 0.78125-0.78125 0.28125-0.40625 0.09375-0.53125 1.125 0.25-0.03125 0.5 0.03125 0.5 0.46875 1h0.65625l0.4375-1 0.0625-0.5-0.03125-0.5 1.125-0.25 0.09375 0.53125 0.28125 0.40625 0.78125 0.78125 0.625-0.28125 0.03125-1.0625-0.15625-0.5-0.25-0.4375 0.969-0.657 0.313 0.438 0.40625 0.25 1.0312 0.4375 0.46875-0.46875-0.4375-1.0312-0.3125-0.40625-0.375-0.3125 0.625-0.9688 0.468 0.2812 0.438 0.125 1.125-0.0312 0.25-0.5938-0.75-0.8124-0.406-0.2188-0.531-0.1562 0.25-1.125 0.5 0.0312 0.468-0.0312 1.032-0.4688v-0.65625l-1.0312-0.4375-0.46875-0.0625-0.5 0.0625-0.25-1.0938 0.53125-0.15625 0.40625-0.25 0.75-0.8125-0.25-0.5937h-1.125l-0.438 0.0938-0.468 0.25-0.563-0.8438h-2.875zm-5.4375 0.15625c-0.45752 0.19287-0.82314 0.55084-1.0312 1 0.29499-0.37574 0.64102-0.72335 1.0312-1zm2.8125 0.15625c-2.1217 0-3.8438 1.7221-3.8438 3.8438 0.002 2.1217 1.724 3.8438 3.845 3.8438 2.122 0 3.844-1.7221 3.844-3.8438 0-2.1216-1.722-3.8437-3.844-3.8437zm0 1.7188c1.242 0 2.25 0.95205 2.25 2.125s-1.008 2.125-2.25 2.125-2.25-0.95205-2.25-2.125 1.008-2.125 2.25-2.125zm13.531 4.6562-0.65625 0.96875-0.1875 0.5l-0.03 0.5313-1.219 0.0313-0.063-0.5626-0.156-0.4687-0.688-0.9687-0.687 0.125-0.25 1.1562 0.03125 0.53125 0.1875 0.53125-1.125 0.46875-0.28125-0.5-0.34375-0.375-1-0.625-0.5625 0.375 0.21875 1.1875 0.21875 0.46875 0.34375 0.40625-0.84375 0.875-0.407-0.344-0.5-0.25-1.1562-0.1875-0.375 0.59375 0.625 1 0.40625 0.3125 0.5 0.25-0.46875 1.1562-0.53125-0.1875h-0.5l-1.1562 0.25-0.15625 0.6875 1 0.65625 0.5 0.1875 0.53125 0.03125v1.2188l-0.53125 0.0625-0.5 0.15625-0.96875 0.6875 0.15625 0.6875 1.1562 0.25 0.5-0.03125 0.532-0.187 0.469 1.156-0.469 0.25-0.281 0.25h3.218c-0.314-0.323-0.582-0.672-0.812-1.062l2.4375-1.125c0.51451 0.71465 1.3162 1.1961 2.25 1.25l0.124 0.937h1.188l-0.156-1.094c0.84138-0.28535 1.5217-0.92622 1.8438-1.75l1.062 0.188v-1.156l-0.875-0.157c-0.011-0.94-0.439-1.768-1.125-2.312l1.2188-2.375c0.2792 0.18294 0.53903 0.39724 0.78125 0.625v-3.3128l-0.281 0.3438-0.25 0.469-1.157-0.469 0.188-0.5 0.031-0.5312-0.281-1.1563-0.688-0.125zm-1.4375 3.7188c0.72958 0 1.4223 0.15408 2.0625 0.40625l-1.2188 2.375c-0.26864-0.07869-0.54977-0.125-0.84375-0.125-0.5829 0-1.1326 0.15026-1.5938 0.4375l-1.8125-1.9375c0.94634-0.71458 2.13-1.1562 3.4062-1.1562zm-4.25 1.9375 1.8125 1.9375c-0.3633 0.49738-0.5625 1.1186-0.5625 1.7812 0 0.24463 0.0073 0.49099 0.0625 0.71875l-2.405 1.093c-0.19494-0.57162-0.3125-1.1753-0.3125-1.8125 0-1.4262 0.53276-2.7248 1.4062-3.7188zm4.25 2.75c0.53504 0 0.96875 0.43372 0.96875 0.96875 0 0.53504-0.43372 0.96875-0.96875 0.96875-0.53504 0-0.96875-0.43372-0.96875-0.96875 0-0.53504 0.43372-0.96875 0.96875-0.96875z" clip-path="url(#clipPath3739)" transform="translate(87.75,41.5)" filter="url(#filter3743)" fill="#fff"/>
   <g id="g4314" fill-rule="evenodd" transform="translate(117.75,41.5)">
    <path id="path4316" opacity=".4" d="m3 1c-1.108 0-2 0.892-2 2v1c0-1.108 0.892-2 2-2h16c1.108 0 2 0.892 2 2v-1c0-1.108-0.892-2-2-2h-16z" fill="#fff"/>
    <path id="path4318" opacity=".15" d="m3 21c-1.108 0-2-0.892-2-2v-1c0 1.108 0.892 2 2 2h16c1.108 0 2-0.892 2-2v1c0 1.108-0.892 2-2 2h-16z"/>
   </g>
  </g>
  <g id="g4326" transform="matrix(1.0116 0 0 1 -55.888 972.83)">
   <g id="g4328" transform="translate(117.75,41.5)">
    <g id="g4330">
     <rect id="rect4332" opacity=".3" rx="2.5" ry="2.5" height="21.5" width="21" y=".5" x=".5" fill="url(#linearGradient4320)"/>
     <rect id="rect4334" opacity=".5" rx="2.381" ry="2.3256" height="20" width="20" y="2" x="1"/>
    </g>
    <rect id="rect4336" fill-rule="evenodd" rx="2" ry="2" height="20" width="20" y="1" x="1" fill="url(#linearGradient4322)"/>
   </g>
   <g id="g4338" transform="translate(117.75,41.5)">
    <rect id="rect4340" opacity=".15" filter="url(#filter3194-1)" clip-path="url(#clipPath2849-2)" rx="2" ry="2" height="16" width="16" y="3" x="3" fill="#fff"/>
   </g>
   <path id="path4342" d="m4.75-3.6562-0.46875 1l-0.0312 0.4687 0.0312 0.5313-1.125 0.2187-0.0937-0.4687-0.2813-0.4376-0.7812-0.7812-0.5938 0.25-0.0624 1.125 0.1562 0.4688 0.25 0.4375-0.96875 0.625-0.3125-0.375-0.375-0.3125-1.0625-0.375-0.46875 0.4375 0.4374 1.0312 0.28125 0.40625 0.40625 0.3125-0.65625 0.93755-0.40625-0.25-0.4688-0.0938h-1.125l-0.28125 0.59375 0.78125 0.8125 0.4375 0.25 0.5 0.15625-0.25 1.0938-0.5-0.0625-0.5 0.0625-1 0.4375v0.65625l1 0.46875 0.5 0.03125 0.5-0.03125 0.25 1.125-0.5 0.15625-0.4375 0.21875-0.7813 0.8124 0.2812 0.5938 1.125 0.0312 0.4688-0.125 0.40625-0.2812 0.65625 0.9688-0.40625 0.3124-0.28125 0.4068-0.4375 1.031 0.46875 0.469 1.0625-0.438 0.375-0.25 0.3125-0.438 0.96875 0.657-0.25 0.4375-0.15625 0.5 0.0625 1.0625 0.5938 0.281 0.7812-0.781 0.2813-0.407 0.09375-0.53125 1.125 0.25-0.03125 0.5 0.03125 0.5 0.46875 1h0.65625l0.4375-1 0.0625-0.5-0.03125-0.5 1.1249-0.25 0.0938 0.531 0.2812 0.407 0.7812 0.781 0.625-0.28125 0.03125-1.0625-0.15625-0.5-0.25-0.4375 0.9688-0.657 0.3125 0.438 0.40625 0.25 1.0312 0.4375 0.46875-0.46875-0.4375-1.0312-0.3125-0.40625-0.375-0.3125 0.625-0.9688 0.468 0.2812 0.438 0.125 1.125-0.0312 0.25-0.5938-0.75-0.8124-0.406-0.2188-0.531-0.1562 0.25-1.125 0.5 0.0312 0.468-0.0312 1.032-0.4688v-0.65625l-1.0312-0.4375-0.46875-0.0625-0.5 0.0625-0.25-1.0938 0.53125-0.15625 0.40625-0.25 0.75-0.8125-0.25-0.5937h-1.125l-0.4375 0.09375-0.46875 0.25-0.625-0.9375 0.375-0.3125 0.3125-0.40625 0.4375-1.0312-0.46875-0.4375-1.0312 0.375-0.40625 0.3125-0.3125 0.375-0.96875-0.625 0.25-0.4375 0.1561-0.4688-0.0313-1.125-0.625-0.25-0.7812 0.7812-0.2812 0.4376-0.0938 0.4687-1.125-0.2187 0.0312-0.5313-0.0625-0.46875-0.4375-1h-0.65625zm0.3125 3.9062c2.7269 0 4.9375 2.2106 4.9375 4.9375s-2.2106 4.9375-4.9375 4.9375-4.9375-2.2106-4.9375-4.9375 2.2106-4.9375 4.9375-4.9375zm-0.0313 1.0625c-2.1216 0-3.8437 1.7221-3.8437 3.8437 0 2.1217 1.7221 3.8438 3.8437 3.8438 2.1217 0 3.8438-1.7221 3.8438-3.8438 0-2.1216-1.7221-3.8437-3.8438-3.8437zm0 1.7188c1.242 0 2.25 0.95205 2.25 2.125s-1.008 2.125-2.25 2.125-2.25-0.95205-2.25-2.125 1.008-2.125 2.25-2.125zm13.531 4.6562-0.65625 0.96875-0.1875 0.5l-0.03 0.5313-1.219 0.0313-0.063-0.5626-0.156-0.4687-0.688-0.9687-0.687 0.125-0.25 1.1562 0.03125 0.53125 0.1875 0.53125-1.125 0.46875-0.28125-0.5-0.34375-0.375-1-0.625-0.5625 0.375 0.21875 1.1875 0.21875 0.46875 0.34375 0.40625-0.84375 0.875-0.407-0.344-0.5-0.25-1.1562-0.1875-0.375 0.59375 0.625 1 0.40625 0.3125 0.5 0.25-0.46875 1.1562-0.53125-0.1875h-0.5l-1.1562 0.25-0.15625 0.6875 1 0.65625 0.5 0.1875 0.53125 0.03125v1.2188l-0.53125 0.0625-0.5 0.15625-0.96875 0.6875 0.15625 0.6875 1.1562 0.25 0.5-0.03125 0.53125-0.1875 0.46875 1.1562-0.46875 0.25-0.40625 0.34375-0.625 1 0.40625 0.5625 1.1562-0.1875 0.46875-0.25 0.40625-0.34375 0.875 0.84375-0.34375 0.4375-0.21875 0.46875-0.21875 1.1562 0.59375 0.375 1-0.625 0.34375-0.40625 0.25-0.5 1.125 0.46875-0.15625 0.53125-0.03125 0.5 0.25 1.1875 0.6875 0.125 0.6875-1 0.15625-0.46875 0.03125-0.5625h1.25l0.03125 0.53125 0.1875 0.5 0.6875 0.96875 0.6875-0.15625 0.25-1.1562-0.0625-0.5-0.15625-0.53125 1.125-0.46875 0.25 0.46875 0.34375 0.40625 1 0.625 0.59375-0.40625-0.21875-1.1562-0.25-0.46875-0.34375-0.40625 0.875-0.875 0.40625 0.34375 0.46875 0.21875 1.1875 0.21875 0.375-0.59375-0.65625-1-0.40625-0.34375-0.46875-0.25 0.46875-1.125 0.5 0.15625 0.53125 0.03125 1.1562-0.25 0.126-0.689-0.969-0.688-0.5-0.156-0.531-0.031-0.03125-1.25 0.5625-0.03125 0.46875-0.1875 0.96875-0.6875-0.125-0.6875-1.1562-0.21875-0.53125 0.03125-0.5 0.15625-0.5-1.125 0.5-0.25 0.375-0.34375 0.625-1-0.375-0.59375-1.1875 0.21875-0.4375 0.25-0.4375 0.34375-0.875-0.875 0.344-0.406 0.25-0.469 0.187-1.1562-0.594-0.4063-0.969 0.6563-0.343 0.4062-0.25 0.469-1.157-0.469 0.188-0.5 0.031-0.5312-0.281-1.1563-0.688-0.125zm-1.4375 3.7188c0.72958 0 1.4223 0.15408 2.0625 0.40625l-1.2188 2.375c-0.26864-0.07869-0.54977-0.125-0.84375-0.125-0.5829 0-1.1326 0.15026-1.5938 0.4375l-1.8125-1.9375c0.94634-0.71458 2.13-1.1562 3.4062-1.1562zm3.0938 0.9375c1.5392 1.0085 2.5625 2.7419 2.5625 4.7188 0 0.14764-0.02011 0.29269-0.03125 0.4375l-2.624-0.469c-0.011-0.94-0.439-1.768-1.125-2.312l1.2188-2.375zm-7.3438 1 1.8125 1.9375c-0.3633 0.49738-0.5625 1.1186-0.5625 1.7812 0 0.24463 0.0073 0.49099 0.0625 0.71875l-2.405 1.093c-0.19494-0.57162-0.3125-1.1753-0.3125-1.8125 0-1.4262 0.53276-2.7248 1.4062-3.7188zm4.25 2.75c0.53504 0 0.96875 0.43372 0.96875 0.96875 0 0.53504-0.43372 0.96875-0.96875 0.96875-0.53504 0-0.96875-0.43372-0.96875-0.96875 0-0.53504 0.43372-0.96875 0.96875-0.96875zm2.8125 2.0625 2.625 0.46875c-0.55993 1.9369-2.1538 3.463-4.125 3.9375l-0.34375-2.6562c0.84138-0.28535 1.5217-0.92622 1.8438-1.75zm-5.25 0.65625c0.51451 0.71465 1.3162 1.1961 2.25 1.25l0.375 2.6562c-0.05979 0.0019-0.12725-0.000001-0.1875 0-2.0715 0.000001-3.8919-1.1163-4.875-2.7812l2.4375-1.125z" clip-path="url(#clipPath6183)" transform="translate(117.75,41.5)" fill="url(#linearGradient4324)"/>
   <path id="path4344" opacity=".2" d="m128.44 42.719-0.21875 0.1875 0.625 0.9375 0.46875-0.25 0.4375-0.09375h1.125l0.0937 0.25 0.15625-0.15625-0.25-0.59375h-1.125l-0.4375 0.09375-0.46875 0.25-0.40625-0.625zm-5.6562 0.09375c-2.1217 0-3.8438 1.7221-3.8438 3.8438 0 0.08492 0.0258 0.16645 0.0312 0.25 0.1303-2.004 1.7758-3.5938 3.8125-3.5938 2.0368 0 3.6822 1.5897 3.8125 3.5938 0.005-0.08355 0.0312-0.16508 0.0312-0.25 0-2.1217-1.7221-3.8438-3.8438-3.8438zm6.75 2.4688-0.0937 0.03125 0.25 1.0938 0.5-0.0625 0.46875 0.0625 1.0312 0.4375v-0.5l-1.0312-0.4375-0.46875-0.0625-0.5 0.0625-0.15625-0.625zm-8.9688 1.625c-0.0101 0.08156-0.0312 0.1659-0.0312 0.25 0 1.173 1.008 2.125 2.25 2.125s2.25-0.95205 2.25-2.125c0-0.0841-0.0212-0.16844-0.0312-0.25-0.1305 1.056-1.0658 1.875-2.2188 1.875-1.1529 0-2.0882-0.81904-2.2188-1.875zm7.1875 0.03125c-0.13175 2.6092-2.2955 4.6875-4.9375 4.6875-1.692 0.000001-3.1709-0.85784-4.0625-2.1562v0.5c0.89033 1.2931 2.3739 2.1563 4.0625 2.1562 2.7269 0 4.9375-2.2106 4.9375-4.9375 0-0.08488 0.004-0.16617 0-0.25zm1.7812 1.6875-0.0937 0.46875 0.53125 0.15625 0.40625 0.21875 0.59375 0.65625 0.15625-0.34375-0.75-0.8125-0.40625-0.21875-0.4375-0.125zm6.7812 0.5625-0.65625 0.96875-0.1875 0.5-0.0312 0.53125-1.2188 0.03125-0.0625-0.5625l-0.15-0.468-0.6875-0.96875-0.6875 0.125-0.25 1.1562 0.0312 0.40625 0.21875-1.0625 0.6875-0.125 0.6875 0.96875 0.15625 0.46875 0.0625 0.5625 1.2188-0.03125 0.0312-0.53125 0.1875-0.5 0.65625-0.96875 0.6875 0.125 0.25 1.0625 0.0312-0.40625-0.28-1.157-0.6875-0.125zm-6.875 1.625-0.15625 0.09375 0.0937 0.4375 0.46875-0.3125 1 0.625 0.34375 0.375 0.28125 0.5 1.125-0.46875-0.15625-0.4375-0.96875 0.40625-0.28125-0.5-0.34375-0.375-0.4375-0.28125-0.65625 0.03125-0.3125-0.09375zm-1 0.34375-0.21875 0.3125 0.375 0.3125 0.3125 0.40625 0.28125 0.6875 0.15625-0.15625-0.4375-1.0312-0.3125-0.40625-0.15625-0.125zm10.312 0-0.28125 0.34375-0.25 0.46875-1-0.40625-0.15625 0.4375 1.1562 0.46875 0.25-0.46875 0.28125-0.34375v-0.5zm-11.594 1.9062-0.375 0.59375 0.15625 0.25 0.21875-0.34375 1.1562 0.1875 0.5 0.25 0.40625 0.34375 0.84375-0.875-0.21875-0.28125-0.625 0.65625-0.28125-0.21875-0.0625 0.0625-1.0312-0.4375-0.15625-0.09375-0.53125-0.09375zm-7.875 0.03125-0.0312 0.0625-0.15625 0.5 0.0312 0.40625 0.125-0.40625 0.25-0.4375-0.21875-0.125zm7.0938 0-0.21875 0.125 0.25 0.4375 0.15625 0.46875v-0.46875l-0.15625-0.5-0.0312-0.0625zm10.344 0.65625-1 1.9375c-0.26864-0.07869-0.54977-0.125-0.84375-0.125-0.58291 0-1.1326 0.15026-1.5938 0.4375l-1.52-1.625c-0.0946 0.06312-0.19087 0.11925-0.28125 0.1875l1.8125 1.9375c0.46114-0.28724 1.0108-0.4375 1.5938-0.4375 0.29398 0 0.57511 0.04631 0.84375 0.125l1.2188-2.375c-0.07-0.028-0.15-0.038-0.22-0.063zm-14.71 0.281v0.25l0.0312-0.25h-0.0312zm1.625 0v0.15625l0.0312-0.15625h-0.0312zm4.5312 1.5938-0.3125 0.75-0.53125-0.1875h-0.5l-1.1562 0.25-0.15625 0.6875 0.0937 0.0625 0.0625-0.25 1.1562-0.25h0.5l0.53125 0.1875 0.46875-1.1562-0.15625-0.09375zm8.75 0.75-0.15625 0.34375c0.68574 0.54448 1.1138 1.3722 1.125 2.3125l0.875 0.15625v-0.5l-0.875-0.15625c-0.0103-0.86198-0.38054-1.615-0.96875-2.1562zm-4.65 0.719c-0.24217 0.43822-0.375 0.93265-0.375 1.4688 0 0.12232-0.009 0.25436 0 0.375 0.0231-0.61626 0.22181-1.1898 0.5625-1.6562l-0.1875-0.1875zm-3 1.7188c-0.004 0.08572-0.0312 0.1633-0.0312 0.25 0 0.63718 0.11756 1.2409 0.3125 1.8125l2.4062-1.0938c-0.0368-0.15184-0.0563-0.3064-0.0625-0.46875l-2.3438 1.0625c-0.16894-0.49522-0.2547-1.0182-0.2813-1.5625zm4.6875 0c-0.0223 0.08151-0.0312 0.16143-0.0312 0.25 0 0.53504 0.43371 0.96875 0.96875 0.96875 0.53503 0 0.96875-0.43372 0.96875-0.96875 0-0.08857-0.009-0.16849-0.0312-0.25-0.11222 0.41087-0.49104 0.71875-0.9375 0.71875-0.44647 0-0.82528-0.30788-0.9375-0.71875zm-6.4062 0.40625-0.53125 0.0625-0.5 0.15625-0.96875 0.6875 0.0937 0.4375 0.875-0.625 0.5-0.15625 0.53125-0.0625v-0.5zm2.72 2.593-0.25 0.126c0.11547 0.19555 0.23738 0.38301 0.375 0.5625h0.4375c-0.20566-0.21224-0.39189-0.44548-0.5625-0.6875zm5.6562 0.0625c-0.0221 0.0081-0.0401 0.02366-0.0625 0.03125l0.0625 0.59375h0.0937l-0.0937-0.625zm-7.7188 0.21875-0.3125 0.15625-0.28125 0.25h0.75l-0.15625-0.40625z"/>
   <path id="path4346" opacity=".5" d="m37.656 1c1.4 0.8715 2.344 2.417 2.344 4.1875 0 2.7269-2.211 4.9375-4.938 4.9375-1.688 0-3.172-0.8631-4.062-2.1562v2.75l0.75 0.5-0.25 0.4375-0.15625 0.5 0.0625 1.0625 0.594 0.281 0.78125-0.78125 0.28125-0.40625 0.09375-0.53125 1.125 0.25-0.03125 0.5 0.03125 0.5 0.46875 1h0.65625l0.4375-1 0.0625-0.5-0.03125-0.5 1.125-0.25 0.09375 0.53125 0.28125 0.40625 0.78125 0.78125 0.625-0.28125 0.03125-1.0625-0.15625-0.5-0.25-0.4375 0.969-0.657 0.313 0.438 0.40625 0.25 1.0312 0.4375 0.46875-0.46875-0.4375-1.0312-0.3125-0.40625-0.375-0.3125 0.625-0.9688 0.468 0.2812 0.438 0.125 1.125-0.0312 0.25-0.5938-0.75-0.8124-0.406-0.2188-0.531-0.1562 0.25-1.125 0.5 0.0312 0.468-0.0312 1.032-0.4688v-0.65625l-1.0312-0.4375-0.46875-0.0625-0.5 0.0625-0.25-1.0938 0.53125-0.15625 0.40625-0.25 0.75-0.8125-0.25-0.5937h-1.125l-0.438 0.0938-0.468 0.25-0.563-0.8438h-2.875zm-5.4375 0.15625c-0.45752 0.19287-0.82314 0.55084-1.0312 1 0.29499-0.37574 0.64102-0.72335 1.0312-1zm2.8125 0.15625c-2.1217 0-3.8438 1.7221-3.8438 3.8438 0.002 2.1217 1.724 3.8438 3.845 3.8438 2.122 0 3.844-1.7221 3.844-3.8438 0-2.1216-1.722-3.8437-3.844-3.8437zm0 1.7188c1.242 0 2.25 0.95205 2.25 2.125s-1.008 2.125-2.25 2.125-2.25-0.95205-2.25-2.125 1.008-2.125 2.25-2.125zm13.531 4.6562-0.65625 0.96875-0.1875 0.5l-0.03 0.5313-1.219 0.0313-0.063-0.5626-0.156-0.4687-0.688-0.9687-0.687 0.125-0.25 1.1562 0.03125 0.53125 0.1875 0.53125-1.125 0.46875-0.28125-0.5-0.34375-0.375-1-0.625-0.5625 0.375 0.21875 1.1875 0.21875 0.46875 0.34375 0.40625-0.84375 0.875-0.407-0.344-0.5-0.25-1.1562-0.1875-0.375 0.59375 0.625 1 0.40625 0.3125 0.5 0.25-0.46875 1.1562-0.53125-0.1875h-0.5l-1.1562 0.25-0.15625 0.6875 1 0.65625 0.5 0.1875 0.53125 0.03125v1.2188l-0.53125 0.0625-0.5 0.15625-0.96875 0.6875 0.15625 0.6875 1.1562 0.25 0.5-0.03125 0.532-0.187 0.469 1.156-0.469 0.25-0.281 0.25h3.218c-0.314-0.323-0.582-0.672-0.812-1.062l2.4375-1.125c0.51451 0.71465 1.3162 1.1961 2.25 1.25l0.124 0.937h1.188l-0.156-1.094c0.84138-0.28535 1.5217-0.92622 1.8438-1.75l1.062 0.188v-1.156l-0.875-0.157c-0.011-0.94-0.439-1.768-1.125-2.312l1.2188-2.375c0.2792 0.18294 0.53903 0.39724 0.78125 0.625v-3.3128l-0.281 0.3438-0.25 0.469-1.157-0.469 0.188-0.5 0.031-0.5312-0.281-1.1563-0.688-0.125zm-1.4375 3.7188c0.72958 0 1.4223 0.15408 2.0625 0.40625l-1.2188 2.375c-0.26864-0.07869-0.54977-0.125-0.84375-0.125-0.5829 0-1.1326 0.15026-1.5938 0.4375l-1.8125-1.9375c0.94634-0.71458 2.13-1.1562 3.4062-1.1562zm-4.25 1.9375 1.8125 1.9375c-0.3633 0.49738-0.5625 1.1186-0.5625 1.7812 0 0.24463 0.0073 0.49099 0.0625 0.71875l-2.405 1.093c-0.19494-0.57162-0.3125-1.1753-0.3125-1.8125 0-1.4262 0.53276-2.7248 1.4062-3.7188zm4.25 2.75c0.53504 0 0.96875 0.43372 0.96875 0.96875 0 0.53504-0.43372 0.96875-0.96875 0.96875-0.53504 0-0.96875-0.43372-0.96875-0.96875 0-0.53504 0.43372-0.96875 0.96875-0.96875z" clip-path="url(#clipPath3739)" transform="translate(87.75,41.5)" filter="url(#filter3743)" fill="#fff"/>
   <g id="g4348" fill-rule="evenodd" transform="translate(117.75,41.5)">
    <path id="path4350" opacity=".4" d="m3 1c-1.108 0-2 0.892-2 2v1c0-1.108 0.892-2 2-2h16c1.108 0 2 0.892 2 2v-1c0-1.108-0.892-2-2-2h-16z" fill="#fff"/>
    <path id="path4352" opacity=".15" d="m3 21c-1.108 0-2-0.892-2-2v-1c0 1.108 0.892 2 2 2h16c1.108 0 2-0.892 2-2v1c0 1.108-0.892 2-2 2h-16z"/>
   </g>
  </g>
  <g id="g6906" transform="translate(31.731 -5.9662)">
   <rect id="rect4360-3" opacity=".4" rx="1" ry="1" height="6" width="24" y="999.36" x="-22"/>
   <g id="g3129" transform="translate(-21 1008.4)">
    <g id="layer1-1">
     <g id="g3337">
      <rect id="rect3371" opacity=".3" rx="2.5" ry="2.5" height="21.5" width="21" y=".5" x=".5" fill="url(#linearGradient7007)"/>
      <rect id="rect2553" opacity=".5" rx="2.381" ry="2.3256" height="20" width="20" y="2" x="1"/>
     </g>
     <rect id="rect3173" fill-rule="evenodd" rx="2" ry="2" height="20" width="20" y="1" x="1" fill="url(#linearGradient7009)"/>
     <path id="rect3183" d="m3 1c-1.108 0-2 0.892-2 2v1c0-1.108 0.892-2 2-2h16c1.108 0 2 0.892 2 2v-1c0-1.108-0.892-2-2-2h-16z" fill-rule="evenodd" fill="#ececec"/>
     <path id="path3188" d="m3 21c-1.108 0-2-0.892-2-2v-1c0 1.108 0.892 2 2 2h16c1.108 0 2-0.892 2-2v1c0 1.108-0.892 2-2 2h-16z" fill-rule="evenodd" fill="#8b8b8b"/>
    </g>
    <g id="layer2-0">
     <path id="rect3250" stroke-linejoin="round" d="m4.1468 3.7509h0.79586c0.22045 0 0.39793 0.16155 0.39793 0.36223v13.765c0 0.20068-0.17748 0.36223-0.39793 0.36223h-0.79586c-0.22045 0-0.39793-0.16155-0.39793-0.36223v-13.765c0-0.20067 0.17748-0.36223 0.39793-0.36223zm5.9694 0.00433h0.79586c0.22045 0 0.39793 0.16155 0.39793 0.36223v13.765c0 0.20068-0.17748 0.36223-0.39793 0.36223h-0.79586c-0.22045 0-0.39793-0.16155-0.39793-0.36223v-13.765c0-0.20067 0.17748-0.36223 0.39793-0.36223zm6.0135-0.00433h0.79586c0.22045 0 0.39793 0.16155 0.39793 0.36223v13.765c0 0.20068-0.17748 0.36223-0.39793 0.36223h-0.79586c-0.22045 0-0.39793-0.16155-0.39793-0.36223v-13.765c0-0.20067 0.17748-0.36223 0.39793-0.36223z" fill-rule="evenodd" stroke="url(#linearGradient7013)" stroke-width="0.5" fill="url(#linearGradient7011)"/>
     <g id="g3624" transform="matrix(.28552 0 0 .27229 -4.6901 5.0203)" stroke-width="3.5864">
      <rect id="rect3630" stroke-linejoin="round" fill-rule="evenodd" rx="2" ry="2" height="22" width="14" stroke="url(#linearGradient7017)" y="20.159" x="46.201" fill="url(#linearGradient7015)"/>
      <path id="path3688" opacity=".1" d="m47.948 31.541h10.507" stroke="#000" fill="none"/>
     </g>
     <g id="g3641" transform="matrix(.28552 0 0 .27229 -10.69 .014384)" stroke-width="3.5864">
      <rect id="rect3643" stroke-linejoin="round" fill-rule="evenodd" rx="2" ry="2" height="22" width="14" stroke="url(#linearGradient7021)" y="20.159" x="46.201" fill="url(#linearGradient7015)"/>
      <path id="path3645" opacity=".1" d="m47.948 31.541h10.507" stroke="#000" fill="none"/>
     </g>
     <g id="g3651" transform="matrix(.28552 0 0 .27229 1.3099 2.0144)" stroke-width="3.5864">
      <rect id="rect3653" stroke-linejoin="round" fill-rule="evenodd" rx="2" ry="2" height="22" width="14" stroke="url(#linearGradient7021)" y="20.159" x="46.201" fill="url(#linearGradient7015)"/>
      <path id="path3655" opacity=".1" d="m47.948 31.541h10.507" stroke="#000" fill="none"/>
     </g>
    </g>
   </g>
   <g id="text3149" fill="#fff" transform="translate(-32 957.36)">
    <path id="path3154" d="m14.455 45.809-0.17629-0.50772h-0.75735l-0.17629 0.50772h-0.41605l0.72492-1.9872h0.4908l0.7221 1.9872h-0.41182m-0.46541-1.392c-0.01128-0.03291-0.02257-0.06581-0.03385-0.09872-0.01034-0.03385-0.01975-0.0644-0.02821-0.09167-0.0075-0.0282-0.0141-0.05124-0.01974-0.06911-0.0047-0.01786-0.0075-0.02773-0.0085-0.02962-0.000941 0.0028-0.0038 0.01317-0.0085 0.03103-0.0047 0.01787-0.01128 0.04043-0.01974 0.0677-0.0075 0.02727-0.01693 0.05783-0.02821 0.09167-0.01034 0.03291-0.02116 0.06582-0.03244 0.09872l-0.19604 0.57119h0.57119l-0.19604-0.57119"/>
    <path id="path3156" d="m16.746 45.809h-0.41887l-0.24258-0.93082c-0.0075-0.02915-0.01505-0.06158-0.02257-0.09731-0.0075-0.03667-0.01457-0.07099-0.02116-0.10296l-0.02257-0.11283c-0.0085 0.03761-0.01693 0.07522-0.02539 0.11283-0.0075 0.03197-0.01551 0.06629-0.02398 0.10296-0.0085 0.03667-0.01646 0.07005-0.02398 0.10013l-0.2454 0.928h-0.41887l-0.3949-1.526h0.37233l0.19322 0.89698c0.0056 0.02539 0.01175 0.05406 0.01834 0.08603 0.0066 0.03103 0.01269 0.06018 0.01833 0.08744 0.0066 0.03197 0.01363 0.06394 0.02115 0.0959 0.0066-0.03573 0.01316-0.07052 0.01975-0.10436 0.0056-0.02915 0.01175-0.05876 0.01834-0.08885 0.0066-0.03009 0.01222-0.05547 0.01692-0.07616l0.23976-0.89698h0.42451l0.23412 0.89698c0.0066 0.02445 0.01316 0.05218 0.01975 0.08321 0.0066 0.03103 0.01269 0.06018 0.01833 0.08744 0.0066 0.03197 0.01316 0.06488 0.01975 0.09872 0.0075-0.03385 0.01457-0.06676 0.02116-0.09872 0.0056-0.02727 0.01175-0.05641 0.01834-0.08744 0.0066-0.03103 0.01269-0.05876 0.01833-0.08321l0.20168-0.89698h0.36669l-0.40054 1.526"/>
    <path id="path3158" d="m18.329 45.809v-0.85608c-0.000001-0.05923-0.0047-0.1133-0.0141-0.16219-0.0094-0.04983-0.02492-0.09214-0.04654-0.12693-0.02163-0.03573-0.04983-0.06346-0.08462-0.08321-0.03479-0.01974-0.0771-0.02962-0.12693-0.02962-0.04795 0.000002-0.09167 0.01081-0.13116 0.03244-0.03855 0.02069-0.07193 0.05077-0.10014 0.09026-0.02821 0.03855-0.0503 0.08509-0.06629 0.13962-0.01504 0.05359-0.02257 0.11283-0.02257 0.1777v0.818h-0.39631v-1.1847c0-0.03291-0.00047-0.06676-0.0014-0.10154-0.000001-0.03479-0.000941-0.0677-0.0028-0.09872-0.00094-0.03197-0.0019-0.06017-0.0028-0.08462-0.00094-0.02538-0.0024-0.04419-0.0042-0.05641h0.37797c0.0019 0.01128 0.0038 0.02962 0.0056 0.055 0.0019 0.02445 0.0038 0.05171 0.0056 0.0818 0.0019 0.03009 0.0033 0.06018 0.0042 0.09026 0.0019 0.03009 0.0028 0.05548 0.0028 0.07616h0.0056c0.05359-0.11659 0.12082-0.20121 0.20168-0.25386s0.17723-0.07898 0.28912-0.07898c0.09214 0.000002 0.16971 0.01505 0.23271 0.04513 0.06393 0.03009 0.11565 0.07146 0.15514 0.12411 0.04043 0.05265 0.06958 0.11471 0.08744 0.18616 0.01786 0.07146 0.02679 0.14856 0.0268 0.2313v0.9689h-0.3949"/>
    <path id="path3160" d="m21.52 45.237c-0.000002 0.09026-0.01646 0.17253-0.04936 0.24681-0.03291 0.07334-0.08415 0.13633-0.15373 0.18899-0.06864 0.05265-0.15702 0.09355-0.26514 0.1227-0.10719 0.02821-0.23506 0.04231-0.38361 0.04231-0.13163 0-0.24775-0.01175-0.34835-0.03526s-0.18711-0.05829-0.2595-0.10436c-0.07146-0.04607-0.12975-0.10296-0.17488-0.17065-0.04419-0.06864-0.07616-0.14715-0.0959-0.23553l0.40195-0.06629c0.01128 0.04419 0.02774 0.08462 0.04936 0.12129s0.05124 0.06864 0.08885 0.0959c0.03855 0.02633 0.08603 0.04701 0.14244 0.06206 0.05735 0.0141 0.12646 0.02116 0.20732 0.02115 0.14103 0.000001 0.24869-0.02115 0.32297-0.06346 0.07522-0.04325 0.11283-0.11048 0.11283-0.20168-0.000001-0.05453-0.01505-0.09919-0.04513-0.13398-0.03009-0.03479-0.07005-0.06347-0.11988-0.08603-0.04983-0.02257-0.10719-0.04137-0.17206-0.05641-0.06488-0.01504-0.13257-0.02962-0.20309-0.04372-0.05642-0.01316-0.11283-0.0268-0.16924-0.0409-0.05642-0.0141-0.11048-0.03103-0.16219-0.05077-0.05077-0.01974-0.09825-0.04325-0.14244-0.07052-0.04419-0.02726-0.08274-0.06064-0.11565-0.10013-0.03197-0.04043-0.05735-0.08744-0.07616-0.14103-0.01786-0.05359-0.0268-0.11659-0.0268-0.18899 0-0.09872 0.01974-0.18334 0.05923-0.25386s0.09402-0.12787 0.1636-0.17206c0.07052-0.04513 0.1542-0.07804 0.25104-0.09872s0.20262-0.03102 0.31733-0.03103c0.12975 0.000002 0.2407 0.01034 0.33284 0.03103 0.09308 0.01975 0.17065 0.0503 0.23271 0.09167 0.06299 0.04137 0.11236 0.09355 0.14809 0.15655 0.03667 0.06206 0.06346 0.13492 0.08039 0.2186l-0.40336 0.055c-0.02069-0.08556-0.063-0.14996-0.12693-0.19322-0.063-0.04325-0.15373-0.06487-0.2722-0.06488-0.07334 0.000002-0.13445 0.0066-0.18334 0.01975-0.04795 0.01222-0.0865 0.02915-0.11565 0.05077-0.02821 0.02163-0.04842 0.04701-0.06065 0.07616-0.01222 0.02821-0.01834 0.0583-0.01833 0.09026-0.000001 0.04889 0.01175 0.08932 0.03526 0.12129 0.02351 0.03103 0.05641 0.05736 0.09872 0.07898 0.04231 0.02069 0.09261 0.03855 0.15091 0.05359 0.05923 0.0141 0.12411 0.02868 0.19463 0.04372 0.06205 0.01317 0.12364 0.02727 0.18476 0.04231 0.06111 0.0141 0.11941 0.03103 0.17488 0.05077 0.05547 0.01975 0.10718 0.04372 0.15514 0.07193 0.04795 0.02821 0.08932 0.063 0.12411 0.10437 0.03573 0.04043 0.06346 0.08885 0.08321 0.14526 0.02068 0.05641 0.03102 0.12317 0.03103 0.20027"/>
    <path id="path3162" d="m22.462 45.837c-0.11001 0-0.2092-0.01598-0.29758-0.04795-0.08744-0.03291-0.16219-0.08227-0.22424-0.14809-0.06205-0.06676-0.10954-0.14997-0.14244-0.24963-0.03291-0.1006-0.04936-0.21813-0.04936-0.35259-0.000001-0.14573 0.01927-0.26843 0.05782-0.3681 0.03949-0.09966 0.09214-0.18005 0.15796-0.24117 0.06676-0.06205 0.14338-0.10671 0.22988-0.13398 0.0865-0.02726 0.1777-0.0409 0.27361-0.0409 0.12035 0.000001 0.22283 0.02116 0.30745 0.06347 0.08556 0.04137 0.15561 0.09967 0.21014 0.17488 0.05453 0.07522 0.09449 0.16548 0.11988 0.27079 0.02538 0.10437 0.03808 0.22001 0.03808 0.34694v0.01128h-0.97878c0 0.06394 0.0056 0.12364 0.01692 0.17911 0.01128 0.05453 0.02962 0.10202 0.055 0.14244 0.02538 0.03949 0.05829 0.07099 0.09872 0.09449 0.04043 0.02257 0.08932 0.03385 0.14668 0.03385 0.06958 0.000001 0.12646-0.01457 0.17065-0.04372 0.04419-0.03009 0.07569-0.07616 0.09449-0.13821l0.37374 0.03244c-0.01693 0.04325-0.0409 0.08932-0.07193 0.13821-0.03009 0.04889-0.07052 0.09402-0.12129 0.13539-0.05077 0.04043-0.11424 0.07428-0.1904 0.10154-0.07522 0.02633-0.16689 0.03949-0.27502 0.03949m0-1.3328c-0.04043 0.000001-0.07851 0.0071-0.11424 0.02116-0.03479 0.01317-0.06535 0.03479-0.09167 0.06488-0.02539 0.02915-0.04607 0.06723-0.06206 0.11424-0.01598 0.04701-0.02492 0.10343-0.0268 0.16924h0.59234c-0.0075-0.12317-0.03714-0.21531-0.08885-0.27643-0.05171-0.06205-0.12129-0.09308-0.20873-0.09308"/>
    <path id="path3164" d="m23.835 45.835c-0.11659 0-0.20638-0.0315-0.26938-0.09449-0.063-0.06394-0.09449-0.16031-0.09449-0.28912v-0.8998h-0.19322v-0.26796h0.21296l0.12411-0.35823h0.24822v0.35823h0.28912v0.26796h-0.28912v0.79261c-0.000001 0.07428 0.0141 0.12928 0.04231 0.16501 0.02821 0.03479 0.07193 0.05218 0.13116 0.05218 0.02445 0 0.04654-0.0019 0.06629-0.0056 0.01974-0.0038 0.04184-0.0085 0.06629-0.0141v0.2454c-0.04889 0.01598-0.10061 0.02774-0.15514 0.03526-0.05453 0.0085-0.11424 0.01269-0.17911 0.01269"/>
    <path id="path3166" d="m24.8 45.835c-0.11659 0-0.20638-0.0315-0.26938-0.09449-0.063-0.06394-0.09449-0.16031-0.09449-0.28912v-0.8998h-0.19322v-0.26796h0.21296l0.12411-0.35823h0.24822v0.35823h0.28912v0.26796h-0.28912v0.79261c-0.000001 0.07428 0.0141 0.12928 0.04231 0.16501 0.02821 0.03479 0.07193 0.05218 0.13116 0.05218 0.02445 0 0.04654-0.0019 0.06629-0.0056 0.01974-0.0038 0.04184-0.0085 0.06629-0.0141v0.2454c-0.04889 0.01598-0.10061 0.02774-0.15514 0.03526-0.05453 0.0085-0.11424 0.01269-0.17911 0.01269"/>
    <path id="path3168" d="m25.374 44.008v-0.29194h0.39631v0.29194h-0.39631m0 1.801v-1.526h0.39631v1.526h-0.39631"/>
    <path id="path3170" d="m27.164 45.809v-0.85608c-0.000001-0.05923-0.0047-0.1133-0.0141-0.16219-0.0094-0.04983-0.02492-0.09214-0.04654-0.12693-0.02163-0.03573-0.04983-0.06346-0.08462-0.08321-0.03479-0.01974-0.0771-0.02962-0.12693-0.02962-0.04795 0.000002-0.09167 0.01081-0.13116 0.03244-0.03855 0.02069-0.07193 0.05077-0.10013 0.09026-0.02821 0.03855-0.0503 0.08509-0.06629 0.13962-0.01505 0.05359-0.02257 0.11283-0.02257 0.1777v0.818h-0.39631v-1.1847c0-0.03291-0.00047-0.06676-0.0014-0.10154 0-0.03479-0.000941-0.0677-0.0028-0.09872-0.00094-0.03197-0.0019-0.06017-0.0028-0.08462-0.00094-0.02538-0.0023-0.04419-0.0042-0.05641h0.37797c0.0019 0.01128 0.0038 0.02962 0.0056 0.055 0.0019 0.02445 0.0038 0.05171 0.0056 0.0818 0.0019 0.03009 0.0033 0.06018 0.0042 0.09026 0.0019 0.03009 0.0028 0.05548 0.0028 0.07616h0.0056c0.05359-0.11659 0.12082-0.20121 0.20168-0.25386s0.17723-0.07898 0.28912-0.07898c0.09214 0.000002 0.16971 0.01505 0.23271 0.04513 0.06393 0.03009 0.11565 0.07146 0.15514 0.12411 0.04043 0.05265 0.06958 0.11471 0.08744 0.18616 0.01786 0.07146 0.02679 0.14856 0.0268 0.2313v0.9689h-0.3949"/>
    <path id="path3172" d="m28.58 46.421c-0.1006-0.000001-0.18946-0.01034-0.26656-0.03103-0.07616-0.01975-0.1415-0.04795-0.19604-0.08462-0.05359-0.03573-0.09684-0.07898-0.12975-0.12975-0.03197-0.04983-0.05406-0.10484-0.06629-0.16501l0.39631-0.04654c0.0141 0.06112 0.04419 0.10907 0.09026 0.14386 0.04701 0.03479 0.10813 0.05218 0.18334 0.05218 0.04701-0.000001 0.08979-0.0066 0.12834-0.01975 0.03949-0.01316 0.07287-0.03573 0.10013-0.0677 0.02821-0.03103 0.04983-0.0724 0.06488-0.12411 0.01598-0.05171 0.02397-0.11565 0.02398-0.19181-0.000001-0.02633-0.000001-0.05312 0-0.08039-0.000001-0.02727 0.000469-0.05218 0.0014-0.07475 0.000939-0.02633 0.0014-0.05171 0.0014-0.07616h-0.0028c-0.04607 0.09872-0.11095 0.17018-0.19463 0.21437-0.08274 0.04419-0.18146 0.06629-0.29617 0.06629-0.09684 0-0.18052-0.0188-0.25104-0.05641-0.06958-0.03855-0.1274-0.09167-0.17347-0.15937-0.04607-0.06864-0.08039-0.14997-0.10296-0.24399-0.02163-0.09496-0.03244-0.19933-0.03244-0.3131 0-0.11753 0.01175-0.22377 0.03526-0.31874 0.02351-0.0959 0.05923-0.17817 0.10719-0.24681 0.04889-0.06864 0.11001-0.12129 0.18334-0.15796 0.07428-0.03761 0.16219-0.05641 0.26373-0.05641 0.10154 0.000002 0.19228 0.02163 0.2722 0.06488 0.08086 0.04325 0.14385 0.1133 0.18898 0.21014h0.0071c-0.000001-0.01974 0.000469-0.04231 0.0014-0.0677 0.0019-0.02632 0.0038-0.05124 0.0056-0.07475 0.0019-0.02444 0.0038-0.04607 0.0056-0.06488 0.0028-0.0188 0.0052-0.0315 0.0071-0.03808h0.37515c-0.0019 0.03385-0.0038 0.08133-0.0056 0.14244-0.0019 0.06112-0.0028 0.13116-0.0028 0.21014v1.1269c-0.000002 0.11095-0.01599 0.20732-0.04795 0.28912-0.03197 0.08274-0.07898 0.15138-0.14103 0.20591-0.06112 0.05453-0.1368 0.09543-0.22706 0.1227-0.08932 0.02727-0.19134 0.0409-0.30604 0.0409m0.33143-1.3962c-0.000001-0.0959-0.0094-0.17582-0.02821-0.23976-0.01881-0.06393-0.04325-0.11518-0.07334-0.15373s-0.06488-0.06582-0.10437-0.0818c-0.03855-0.01598-0.07757-0.02398-0.11706-0.02398-0.05077 0.000001-0.0959 0.0099-0.13539 0.02962-0.03855 0.01975-0.07146 0.0503-0.09872 0.09167-0.02727 0.04137-0.04795 0.09402-0.06206 0.15796-0.0141 0.06394-0.02116 0.1401-0.02116 0.22848 0 0.16454 0.02633 0.28865 0.07898 0.37233s0.13116 0.12552 0.23553 0.12552c0.03949 0 0.07851-0.0075 0.11706-0.02257 0.03949-0.01598 0.07475-0.04325 0.10578-0.0818 0.03103-0.03949 0.05594-0.09167 0.07475-0.15655 0.0188-0.06488 0.02821-0.14667 0.02821-0.2454"/>
    <path id="path3174" d="m30.993 45.364c-0.000002 0.07334-0.01552 0.13915-0.04654 0.19745-0.03009 0.05829-0.07428 0.10813-0.13257 0.1495-0.05829 0.04043-0.12975 0.07193-0.21437 0.09449-0.08462 0.02163-0.18099 0.03244-0.28912 0.03244-0.09684 0-0.18428-0.0071-0.26232-0.02116-0.07804-0.0141-0.14668-0.03714-0.20591-0.06911-0.05829-0.03291-0.10719-0.07522-0.14668-0.12693s-0.06911-0.11565-0.08885-0.19181l0.34835-0.05218c0.01128 0.04231 0.0268 0.07663 0.04654 0.10296s0.04419 0.04654 0.07334 0.06065c0.02915 0.0141 0.063 0.02351 0.10154 0.02821 0.03949 0.0047 0.08415 0.0071 0.13398 0.0071 0.04513 0 0.08697-0.0023 0.12552-0.0071 0.03949-0.0056 0.07334-0.01457 0.10154-0.0268 0.02915-0.01316 0.05171-0.03103 0.0677-0.05359 0.01598-0.02351 0.02397-0.05265 0.02398-0.08744-0.000002-0.03949-0.01175-0.07052-0.03526-0.09308-0.02257-0.02351-0.05406-0.04231-0.09449-0.05641-0.03949-0.01504-0.0865-0.02774-0.14103-0.03808-0.05359-0.01128-0.11095-0.02398-0.17206-0.03808-0.06394-0.0141-0.12693-0.03103-0.18898-0.05077-0.06206-0.01974-0.11753-0.04654-0.16642-0.08039s-0.08838-0.07663-0.11847-0.12834c-0.03009-0.05265-0.04513-0.11894-0.04513-0.19886 0-0.0724 0.0141-0.1368 0.04231-0.19322 0.02821-0.05735 0.06958-0.10578 0.12411-0.14527 0.05453-0.04043 0.12176-0.07099 0.20168-0.09167 0.08086-0.02162 0.17347-0.03244 0.27784-0.03244 0.08274 0.000002 0.15984 0.008 0.2313 0.02398 0.07146 0.01505 0.13539 0.03949 0.19181 0.07334 0.05641 0.03291 0.10342 0.07522 0.14103 0.12693 0.03855 0.05171 0.06534 0.11424 0.08039 0.18758l-0.35118 0.03667c-0.0066-0.03667-0.01834-0.06675-0.03526-0.09026-0.01693-0.02445-0.03808-0.04372-0.06347-0.05782-0.02445-0.0141-0.05312-0.0235-0.08603-0.02821-0.03291-0.0056-0.06911-0.0085-0.1086-0.0085-0.09402 0.000001-0.16454 0.01222-0.21155 0.03667-0.04701 0.02351-0.07052 0.06347-0.07052 0.11988-0.000001 0.03479 0.0094 0.06253 0.02821 0.08321 0.01974 0.02069 0.04701 0.03808 0.0818 0.05218 0.03573 0.01316 0.07757 0.02492 0.12552 0.03526 0.04889 0.0094 0.10201 0.02116 0.15937 0.03526 0.07052 0.01504 0.13962 0.03291 0.20732 0.05359 0.06863 0.01975 0.12928 0.04748 0.18193 0.08321 0.05359 0.03479 0.09637 0.07992 0.12834 0.13539 0.03291 0.05547 0.04936 0.12599 0.04936 0.21155"/>
   </g>
  </g>
 </g>
</svg>
