<?xml version="1.0" encoding="UTF-8" standalone="no"?>
<!-- Created with Inkscape (http://www.inkscape.org/) -->
<svg id="svg2" xmlns:rdf="http://www.w3.org/1999/02/22-rdf-syntax-ns#" xmlns="http://www.w3.org/2000/svg" height="96" width="96" version="1.1" xmlns:cc="http://creativecommons.org/ns#" xmlns:xlink="http://www.w3.org/1999/xlink" xmlns:dc="http://purl.org/dc/elements/1.1/">
 <defs id="defs4">
  <clipPath id="clipPath3613-25">
   <rect id="rect3615-14" rx="6" ry="6" height="84" width="84" y="6" x="6" fill="#fff"/>
  </clipPath>
  <filter id="filter3794-6" height="1.384" width="1.384" color-interpolation-filters="sRGB" y="-.192" x="-.192">
   <feGaussianBlur id="feGaussianBlur3796-26" stdDeviation="5.28"/>
  </filter>
  <linearGradient id="linearGradient3105" y2="5.9877" gradientUnits="userSpaceOnUse" y1="90" gradientTransform="matrix(1.0168 0 0 1.021 -.61038 -.84736)" x2="48" x1="48">
   <stop id="stop3927-9" stop-color="#3c6eb4" offset="0"/>
   <stop id="stop3929-8" stop-color="#81a4d5" offset="1"/>
  </linearGradient>
  <linearGradient id="linearGradient3057" y2="87.236" gradientUnits="userSpaceOnUse" x2="75.446" gradientTransform="matrix(.68045 0 0 .68045 3.8341 956.06)" y1="27.258" x1="75.446">
   <stop id="stop39173" stop-color="#fff" offset="0"/>
   <stop id="stop39175" stop-color="#fff" stop-opacity="0" offset="1"/>
  </linearGradient>
  <radialGradient id="radialGradient3060" gradientUnits="userSpaceOnUse" cy="67.409" cx="78.564" gradientTransform="matrix(.68045 0 0 .61944 3.8341 960.17)" r="11.648">
   <stop id="stop4943" stop-color="#3f78c2" offset="0"/>
   <stop id="stop4945" stop-color="#2d578e" offset="1"/>
  </radialGradient>
  <linearGradient id="linearGradient3063" y2="-458.06" gradientUnits="userSpaceOnUse" x2="190.46" gradientTransform="matrix(.098393 0 0 .098185 44.333 1004.8)" y1="193.33" x1="185.99">
   <stop id="stop3566" stop-color="#fff" offset="0"/>
   <stop id="stop3568" stop-color="#fff" stop-opacity="0" offset="1"/>
  </linearGradient>
  <linearGradient id="linearGradient3066" y2="34.375" gradientUnits="userSpaceOnUse" x2="29.875" gradientTransform="matrix(1.1856 0 0 1.2088 20.328 971.51)" y1="18.875" x1="31.188">
   <stop id="stop39157" stop-color="#fff" offset="0"/>
   <stop id="stop39159" stop-color="#dadada" offset="1"/>
  </linearGradient>
  <linearGradient id="linearGradient3069" y2="94.975" gradientUnits="userSpaceOnUse" x2="79.465" gradientTransform="matrix(.68045 0 0 .68045 3.8341 956.06)" y1="52.146" x1="79.465">
   <stop id="stop4951" stop-color="#ed6800" offset="0"/>
   <stop id="stop4953" stop-color="#fd9400" offset="1"/>
  </linearGradient>
  <linearGradient id="linearGradient3146" y2="5.9877" gradientUnits="userSpaceOnUse" y1="90" gradientTransform="matrix(1.1136 0 0 1.0842 -5.1392 -4.831)" x2="48" x1="48">
   <stop id="stop3189" stop-color="#264b79" offset="0"/>
   <stop id="stop3191" stop-color="#6087b8" offset="1"/>
  </linearGradient>
  <linearGradient id="linearGradient8394" y2="138.66" gradientUnits="userSpaceOnUse" x2="48" y1="20.221" x1="48">
   <stop id="stop3739-60" stop-color="#fff" offset="0"/>
   <stop id="stop3741-46" stop-color="#fff" stop-opacity="0" offset="1"/>
  </linearGradient>
 </defs>
 <metadata id="metadata7">
  <rdf:RDF>
   <cc:Work rdf:about="">
    <dc:format>image/svg+xml</dc:format>
    <dc:type rdf:resource="http://purl.org/dc/dcmitype/StillImage"/>
    <dc:title/>
   </cc:Work>
  </rdf:RDF>
 </metadata>
 <g id="layer1" transform="translate(0 -956.36)">
  <rect id="rect5263-0" fill-opacity=".019608" ry="12.724" height="89.978" width="89.978" y="959.35" x="2.9998"/>
  <rect id="rect5261-6" fill-opacity=".039216" ry="12.552" height="88.762" width="88.762" y="959.96" x="3.6078"/>
  <rect id="rect5259-9" fill-opacity=".078431" ry="12.38" height="87.546" width="87.546" y="960.57" x="4.2157"/>
  <rect id="rect5257-5" fill-opacity=".15686" ry="12.208" height="86.33" width="86.33" y="961.18" x="4.8237"/>
  <path id="rect2419" d="m26.562 14.219c-6.746 0-12.187 5.475-12.187 12.281v43c0 6.806 5.441 12.281 12.187 12.281h42.626c6.746 0 12.187-5.475 12.187-12.281v-43c0-6.806-5.441-12.281-12.187-12.281h-42.626z" transform="translate(0 956.36)" fill="url(#linearGradient3146)"/>
  <path id="rect2419-5" d="m17.469 5.4062c-6.251 0-11.355 4.7568-11.969 10.844v63.469c0.6136 6.083 5.718 10.812 11.969 10.812h61.031c6.454 0 11.671-5.036 12-11.406v-62.281c-0.321-6.377-5.54-11.438-12-11.438l-61.031 0.0002z" transform="translate(0 956.36)" fill="url(#linearGradient3105)"/>
  <path id="rect5265-0" d="m5.4316 1029.8v5.0663c0 6.668 5.3645 12.032 12.032 12.032h61.049c6.668 0 12.032-5.3645 12.032-12.032v-5.0663c0 6.6681-5.3645 12.032-12.032 12.032h-61.049c-6.668 0-12.032-5.3643-12.032-12.032z" fill-opacity=".11765"/>
  <path id="path5252-0" d="m5.4316 1033.9v1.0133c0 6.668 5.3645 12.032 12.032 12.032h61.049c6.668 0 12.032-5.3645 12.032-12.032v-1.0133c0 6.6681-5.3645 12.032-12.032 12.032h-61.049c-6.668 0-12.032-5.3644-12.032-12.032z" fill-opacity=".098039"/>
  <g id="layer5" transform="matrix(1.0168 0 0 1.021 -.61038 955.51)">
   <rect id="rect3171-4" height="66" stroke="#fff" stroke-linecap="round" stroke-width=".5" fill="url(#linearGradient8394)" rx="12" ry="12" width="66" opacity=".1" clip-path="url(#clipPath3613-25)" filter="url(#filter3794-6)" y="15" x="15"/>
  </g>
  <path id="path3731" opacity=".05" style="block-progression:tb;text-indent:0;color:#000000;text-transform:none" d="m49.045 969.71v0.0313c-4.1318-0.16634-7.9661 3.2761-7.75 7.5h-0.0313c-0.0692 0.19179 0.002 0.347-0.0313 0.53125-0.18907 1.0544 0.0521 2.007 0.1875 2.7188 0.0265 0.13936 0.0172 0.13628 0.0313 0.25-4.5422 0.0277-9.1119-0.0765-13.719 0.0937a1.1468 1.1468 0 0 0 -0.0313 0c-4.6614 0.2192-8.1654 4.5427-7.6875 9.0938h-0.0313c0.0193 1.1706-0.16565 2.7773 0.65625 4.3438h-0.0313c0.0117 0.0649 0.0794 0.093 0.0937 0.15625 0.0476 0.0825 0.008 0.16804 0.0625 0.25l0.0313-0.0313c0.44992 1.5532 1.6154 2.6417 2.7812 3.375 0.55181 0.34706 0.81581 0.42416 1.3125 0.65621-3.3543 2.485-6.7571 4.9404-10.062 7.4686a1.1468 1.1468 0 0 0 -0.0625 0.031c-2.4371 2.0518-3.8337 5.2095-3.5312 8.4375 0.0369 0.394-0.00031 0.9964 0 1.6875 0.00024 0.5511 0.19523 1.2068 0.5 1.8438h-0.0625c0.41537 2.7354 2.4796 4.5822 4.8125 5.3437 2.311 0.7544 4.9624 0.5584 7.0625-0.75 0.0114-0.01 0.0199-0.024 0.0313-0.031h0.0313c3.223-1.8687 5.7354-4.5067 8.4375-6.5625a1.1468 1.1468 0 0 0 0.0625 -0.031c0.0448 0.099-0.006 0.027 0.0313 0.1563 0.1658 0.5771 0.34309 1.3476 0.59375 2.0937 0.19843 0.5906 0.50426 1.1825 1 1.6875 0.0104 0.011 0.0206 0.021 0.0313 0.031 6.6173 11.565 22.069 15.889 34.062 10.75h0.0313c9.5534-3.7126 16.479-13.619 15.625-24.031-0.00087-0.011 0.00088-0.021 0-0.031 0.004-0.053-0.004-0.1038 0-0.1563 0.51362-6.9776-2.6517-13.843-7.7812-18.406-0.0498-0.0443-0.0749-0.11242-0.125-0.15625l-0.0313 0.0313c-1.3377-1.5468-3.0051-2.366-4.125-3.375a1.1468 1.1468 0 0 0 -0.0937 -0.0625c-5.7818-4.4145-11.834-9.1034-17.469-13.375a1.1468 1.1468 0 0 0 -0.0625 -0.0625c-1.2452-0.82166-2.8967-1.497-4.6562-1.4688-0.0337 0.00054-0.06-0.0323-0.0937-0.0313z" fill-rule="evenodd"/>
  <path id="path3709" style="block-progression:tb;text-indent:0;color:#000000;text-transform:none" d="m49.076 971.93c-1.0866 0.002-2.1785 0.32853-3.0938 0.96875-0.86969 0.60598-1.4375 1.4663-1.5625 2.4062-0.007 0.0538-0.0271 0.1019-0.0313 0.15625-0.0152 0.19969-0.001 0.39861 0.0313 0.59375v2.2812c-0.005 0.0422-0.028 0.0821-0.0313 0.125-0.0151 0.19899 0.004 0.39818 0.0313 0.59375 0.10964 0.79079 0.53993 1.5353 1.2188 2.0938v0.0313c0.74281 0.58516 1.5018 1.1855 2.25 1.7812h-18.719c-1.5972 0-2.9662 0.35605-4 1.0938-1.0338 0.7377-1.6867 1.8338-1.9062 3.0625-0.0284 0.15871-0.0548 0.3083-0.0625 0.46875-0.001 0.0211 0.00066 0.0414 0 0.0625v2.9375c-0.009 0.15204-0.009 0.28523 0 0.4375v0.3125h0.0313c0.26435 2.0219 2.0254 3.9062 4.5938 3.9062 1.901 0.002 3.8114 0.00006 5.7188 0l-16.406 12.125c0.002 0-0.0325 0.016-0.0937 0.063-1.2515 0.9578-2.1022 2.2387-2.4375 3.5938-0.0784 0.3169-0.10855 0.6456-0.125 0.9687h-0.0313v0.4063 2.6562c-0.007 0.1734-0.0108 0.3586 0 0.5313v0.1562h0.0313c0.0778 0.806 0.35427 1.5839 0.875 2.25 1.8081 2.3113 5.4076 2.2255 7.9375 0.1875l10.719-8.7812c0.0174 1.0245 0.28868 2.6256 0.71875 4 0.88306 2.8093 2.3955 5.4052 4.4688 7.6875 2.1258 2.3407 4.74 4.2316 7.75 5.5625 3.1668 1.3982 6.577 2.0993 10.125 2.0937 3.5478-0.01 6.9913-0.7167 10.156-2.125 3.007-1.3432 5.6256-3.2469 7.75-5.5937 2.0678-2.2905 3.5548-4.9088 4.4375-7.7188 0.44706-1.4226 0.72771-2.8622 0.84375-4.3125 0.078-0.9967 0.0721-2.0028 0-3 0.003-0.042-0.003-0.083 0-0.125-0.002-0.031 0.003-0.062 0-0.094 0.0917-1.3536 0.0678-2.7106-0.125-4.0625-0.39483-2.7816-1.3646-5.4066-2.8438-7.7811-1.1592-1.8623-2.6608-3.4958-4.3438-4.9375l0.0625-0.0625-0.90625-0.6875-19.906-15.25c0.001 0.001-0.0255-0.0261-0.0313-0.0313-0.009-0.008-0.0356-0.0108-0.0625-0.0313-0.0113-0.009-0.0199-0.0227-0.0313-0.0313-0.86457-0.64778-1.9276-0.97052-3-0.96875z" fill-rule="evenodd" fill="#ac4d00"/>
  <path id="path2482" d="m35.007 1006.4c0.0141 0.8304 0.2835 2.4448 0.6798 3.7113 0.83918 2.6698 2.2609 5.1443 4.241 7.3241 2.031 2.2363 4.5288 4.0364 7.4158 5.3129 3.038 1.3414 6.3271 2.0267 9.7402 2.0213 3.4131-0.01 6.702-0.7037 9.7385-2.0548 2.886-1.2891 5.3838-3.0935 7.4133-5.3356 1.9757-2.1885 3.3947-4.6669 4.2338-7.3382 0.42461-1.3511 0.68818-2.7205 0.7983-4.097 0.10579-1.3525 0.0606-2.712-0.13251-4.066-0.37514-2.643-1.2933-5.1213-2.7022-7.383-1.2922-2.0759-2.9549-3.8943-4.931-5.4241l0.003-0.003-19.954-15.291c-0.017-0.0141-0.0325-0.0281-0.0509-0.0408-1.3117-1.0021-3.5133-0.99926-4.9519 0.007-1.4584 1.0162-1.5754 2.6052-0.28213 3.6692 2.7413 2.1595 5.4718 4.4177 8.2283 6.577l-25.326-0.0168c-2.8782 0-4.5717 1.3649-4.9283 3.3603-0.31468 1.7608 1.0792 3.9427 3.5786 3.9427 4.2662 0.006 8.5742-0.01 12.856-0.0183l-22.946 16.939c-0.0296 0.023-0.0592 0.042-0.0889 0.065-2.1607 1.6536-2.8617 4.4052-1.5006 6.1462 1.385 1.7705 4.3257 1.7719 6.5146 0.01l12.521-10.226s-0.18053 1.382-0.16786 2.211z" fill-rule="evenodd" stroke="#ce5c00" stroke-width="2" fill="url(#linearGradient3069)"/>
  <path id="path39153" d="m71.011 1002.6a13.708 12.239 0 0 1 -27.416 0 13.708 12.239 0 1 1 27.416 0z" fill="url(#linearGradient3066)"/>
  <path id="path3562" opacity=".48571" d="m49.074 974.6c-0.58419 0.00082-1.1812 0.18099-1.5804 0.46024l-0.003 0.003c-0.40433 0.28172-0.48607 0.52989-0.49812 0.66275-0.012 0.13286-0.0191 0.24087 0.27367 0.48172 0.0274 0.0227 0.0541 0.0462 0.0799 0.0706 0.1793 0.14547 8.2312 6.6797 8.2312 6.6797 0.53917 0.43787 0.74434 1.1667 0.51253 1.8206-0.23179 0.654-0.85051 0.5511-1.5457 0.55334-8.1299 0.0736-25.41 0.0276-25.41 0.0276-1.3751 0.00095-3.387 0.74413-3.4827 2.2834-0.0917 1.4758 1.3121 2.0987 2.2774 2.0987l12.742-0.0246c0.70469-0.00089 1.3316 0.31899 1.5591 0.98455 0.22742 0.66557 0.005 0.7654-0.55361 1.1943l-22.944 17.575c-0.002 0-0.004 0-0.006 0.01-0.0924 0.07-0.12232 0.09-0.0892 0.064-0.79894 0.6114-1.2931 1.4121-1.4698 2.1263-0.17669 0.7142-0.0672 1.2708 0.2706 1.7029 0.69094 0.8833 2.5531 1.0542 4.1817-0.2577l12.514-10.22c0.52229-0.4259 1.2521-0.4905 1.8414-0.163 0.58923 0.3275 0.91846 0.9807 0.83062 1.648 0 0-0.16234 1.4112-0.15375 1.9729 0.27756 3.7962 2.0899 7.0772 4.4954 9.9567 4.1525 4.5685 9.8834 6.5606 15.934 6.7962 6.0654-0.063 11.812-2.3937 15.934-6.8515 7.5307-9.1951 5.6878-19.243-2.5213-25.908-6.4881-5.2684-13.294-10.196-19.943-15.292-0.006-0.005-0.0123-0.0102-0.0185-0.0153-0.0103-0.007-0.0206-0.0142-0.0307-0.0215-0.3038-0.23209-0.84362-0.41502-1.4267-0.41421z" stroke="url(#linearGradient3063)" stroke-width="1.5" fill="none"/>
  <path id="path2478" d="m49.377 1001.6c0.10745-1.9598 1.0668-3.6898 2.5089-4.9146 1.4192-1.204 3.3249-1.9392 5.4066-1.9392 2.0804 0 3.9861 0.73516 5.405 1.9392 1.4437 1.2248 2.4019 2.9535 2.5106 4.9133 0.11137 2.0171-0.69666 3.89-2.1128 5.2772-1.4437 1.4131-3.5022 2.3002-5.8027 2.3002-2.3018 0-4.3603-0.8871-5.8039-2.3002-1.4177-1.3872-2.2229-3.2601-2.1116-5.2759z" fill-rule="evenodd" fill="url(#radialGradient3060)"/>
  <path id="path39166" opacity="0.52" d="m49.096 974.61c-0.58418 0.00081-1.2241 0.17073-1.6233 0.44997-0.40433 0.28172-0.48397 0.5421-0.49602 0.67496-0.012 0.13286-0.0222 0.25412 0.27056 0.49497 0.0274 0.0227 0.0643 0.0206 0.0902 0.045 0.1793 0.14547 8.2519 6.7046 8.2519 6.7046 0.53918 0.43786 0.72782 1.1459 0.49602 1.7999-0.23179 0.654-0.838 0.53774-1.5332 0.53997-8.1299 0.0736-25.432 0.045-25.432 0.045-1.3751 0.00095-3.3765 0.75564-3.4721 2.2949-0.0917 1.4758 1.3344 2.0699 2.2997 2.0699h12.716c0.70469-0.00089 1.3508 0.32438 1.5782 0.98994 0.22743 0.66557-0.0278 0.74101-0.5862 1.1699l-22.907 17.594h-0.0451c-0.0924 0.07-0.0782 0.07-0.0451 0.045-0.79894 0.6114-1.3114 1.4457-1.488 2.1598-0.1767 0.7142-0.0673 1.2328 0.27055 1.6649 0.69093 0.8833 2.565 1.087 4.1936-0.225l12.491-10.214c0.52228-0.4259 1.2596-0.5075 1.8488-0.18 0.58922 0.3275 0.89951 0.9976 0.81166 1.6649 0 0-0.14386 1.3731-0.13527 1.9349 0.13705 1.8744 0.65166 3.6312 1.4271 5.2761 3.7854 6.6155 13.844-17.759 37.533-15.4-1.2234-2.142-2.9382-4.0979-5.0955-5.8496-6.4881-5.2684-13.327-10.203-19.976-15.299-0.0103-0.007-0.0349-0.0377-0.0451-0.045-0.30381-0.2321-0.81478-0.40579-1.3979-0.40498z" fill-rule="evenodd" fill="url(#linearGradient3057)"/>
 </g>
</svg>
