<?xml version="1.0" encoding="UTF-8" standalone="no"?>
<!-- Created with Inkscape (http://www.inkscape.org/) -->
<svg id="svg2" xmlns:rdf="http://www.w3.org/1999/02/22-rdf-syntax-ns#" xmlns="http://www.w3.org/2000/svg" height="96" width="96" version="1.1" xmlns:cc="http://creativecommons.org/ns#" xmlns:xlink="http://www.w3.org/1999/xlink" xmlns:dc="http://purl.org/dc/elements/1.1/">
 <defs id="defs4">
  <clipPath id="clipPath3613-7">
   <rect id="rect3615-3" rx="6" ry="6" height="84" width="84" y="6" x="6" fill="#fff"/>
  </clipPath>
  <filter id="filter3794-52" height="1.384" width="1.384" color-interpolation-filters="sRGB" y="-.192" x="-.192">
   <feGaussianBlur id="feGaussianBlur3796-95" stdDeviation="5.28"/>
  </filter>
  <linearGradient id="linearGradient3087" y2="5.9877" gradientUnits="userSpaceOnUse" y1="90" gradientTransform="matrix(1.0595 0 0 1.0774 -2.1071 -3.7143)" x2="48" x1="48">
   <stop id="stop3702" stop-color="#553025" offset="0"/>
   <stop id="stop3704" stop-color="#a55033" offset="1"/>
  </linearGradient>
  <linearGradient id="linearGradient5573" y2="12.541" gradientUnits="userSpaceOnUse" x2="47.264" y1="77.865" x1="47.264">
   <stop id="stop3714" stop-color="#e7cf93" offset="0"/>
   <stop id="stop3716" stop-color="#fefef4" offset="1"/>
  </linearGradient>
  <linearGradient id="linearGradient5585" y2="138.66" gradientUnits="userSpaceOnUse" x2="48" y1="20.221" x1="48">
   <stop id="stop3739-0" stop-color="#fff" offset="0"/>
   <stop id="stop3741-8" stop-color="#fff" stop-opacity="0" offset="1"/>
  </linearGradient>
 </defs>
 <metadata id="metadata7">
  <rdf:RDF>
   <cc:Work rdf:about="">
    <dc:format>image/svg+xml</dc:format>
    <dc:type rdf:resource="http://purl.org/dc/dcmitype/StillImage"/>
    <dc:title/>
   </cc:Work>
  </rdf:RDF>
 </metadata>
 <g id="layer1" transform="translate(0 -956.36)">
  <rect id="rect5263-0" fill-opacity=".019608" ry="12.724" height="89.978" width="89.978" y="959.35" x="2.9998"/>
  <rect id="rect5261-6" fill-opacity=".039216" ry="12.552" height="88.762" width="88.762" y="959.96" x="3.6078"/>
  <rect id="rect5259-9" fill-opacity=".078431" ry="12.38" height="87.546" width="87.546" y="960.57" x="4.2157"/>
  <rect id="rect5257-5" fill-opacity=".15686" ry="12.208" height="86.33" width="86.33" y="961.18" x="4.8237"/>
  <path id="rect2419" d="m17.469 5.4062c-6.668 0-12.032 5.3948-12.032 12.063l0.0005 61.031c0 6.668 5.3635 12.031 12.032 12.031h61.03c6.668 0 12.031-5.363 12.031-12.031v-61.031c0-6.668-5.363-12.063-12.031-12.063l-61.031 0.0002z" transform="translate(0 956.36)" fill="url(#linearGradient3087)"/>
  <path id="rect5265-0" d="m5.4316 1029.8v5.0663c0 6.668 5.3645 12.032 12.032 12.032h61.049c6.668 0 12.032-5.3645 12.032-12.032v-5.0663c0 6.6681-5.3645 12.032-12.032 12.032h-61.049c-6.668 0-12.032-5.3643-12.032-12.032z" fill-opacity=".11765"/>
  <path id="path5252-0" d="m5.4316 1033.9v1.0133c0 6.668 5.3645 12.032 12.032 12.032h61.049c6.668 0 12.032-5.3645 12.032-12.032v-1.0133c0 6.6681-5.3645 12.032-12.032 12.032h-61.049c-6.668 0-12.032-5.3644-12.032-12.032z" fill-opacity=".098039"/>
  <g id="layer5" transform="matrix(.89286 0 0 .92262 5.1429 959.33)">
   <rect id="rect3171" height="66" stroke="#fff" stroke-linecap="round" stroke-width=".5" fill="url(#linearGradient5585)" rx="12" ry="12" width="66" opacity=".1" clip-path="url(#clipPath3613-7)" filter="url(#filter3794-52)" y="15" x="15"/>
  </g>
  <g id="layer4" transform="translate(0 955.61)">
   <path id="path3736" opacity=".05" style="color:#000000" d="m49.781 10.969a1.0327 1.0327 0 0 0 -0.093 0.031c-1.4287 0.34709-2.2333 1.497-2.75 2.5-0.51668 1.003-0.89504 1.9596-1.3125 2.4688a1.0327 1.0327 0 0 0 -0.03125 0.0625c-0.72944 1.0473-1.314 2.5445-1.8125 3.9688-0.24829-0.21419-0.47335-0.44537-0.8125-0.5625-0.0062-0.0021 0.0062-0.02916 0-0.03125-0.01083-0.0039-0.02042 0.0037-0.03125 0-1.2026-0.41384-2.4131 0.07912-3.125 0.78125-0.65893 0.64985-1.0228 1.4375-1.3125 2.125-0.0019 0.0045-0.02935-0.0045-0.03125 0-0.03676 0.05795-0.05761 0.12886-0.09375 0.1875-2.2483 3.6472-3.2979 8.6025-0.59375 12.562a1.0327 1.0327 0 0 0 0.03125 0.0625c1.437 1.8037 1.0909 4.2473 0.875 6.875a1.0327 1.0327 0 0 0 0.03125 0.3125c0.16687 0.81118 0.646 1.3369 1.25 1.7188-4.1828-0.01441-8.3736-0.06797-12.562 0.03125a1.0327 1.0327 0 0 0 -0.282 0.061c-0.69818 0.22599-1.2877 0.65082-1.625 1.1875-0.33728 0.53668-0.44852 1.1192-0.5 1.6562-0.10296 1.074 0.04771 2.0967 0 2.6875a1.0327 1.0327 0 0 0 0 0.094c-0.07674 6.6684-0.26867 14.09 4.0312 20.125a1.0327 1.0327 0 0 0 0.094 0.125c-0.12799-0.0059-0.20768 0.007-0.34375 0a1.0327 1.0327 0 0 0 -0.0625 0c-4.3996 0.04439-8.8531-0.08894-13.312 0.0625a1.0327 1.0327 0 0 0 -0.3125 0.0625c-0.81252 0.28369-1.454 0.85635-1.7812 1.5312-0.32723 0.6749-0.36828 1.4083-0.28125 2.0938 0.17297 1.3623 0.87515 2.6025 1.8438 3.4375v0.03125c4.783 4.177 11.384 4.64 17.094 4.783a1.0327 1.0327 0 0 0 0.031 0c11.507-0.04277 23.029 0.09606 34.562-0.0625a1.0327 1.0327 0 0 0 0.09375 0c5.0184-0.41135 10.906-1.0798 14.875-5.1875v-0.03125c0.891-0.891 1.451-2.128 1.469-3.438 0.009-0.659-0.14-1.364-0.531-1.969-0.392-0.604-1.043-1.062-1.844-1.25a1.0327 1.0327 0 0 0 -0.25 -0.03125c-4.531-0.062-9.047-0.03-13.563-0.031 1.8674-2.339 2.7094-5.2574 3.2812-8 1.1727-0.01012 2.4547 0.09464 3.8438 0 1.6488-0.11234 3.4511-0.61274 4.7188-2.1875a1.0327 1.0327 0 0 0 0 -0.03125c1.101-1.4126 1.3478-3.0526 1.375-4.5625 0.027-1.486-0.12-2.881-0.031-4.093 0.003-0.021-0.003-0.041 0-0.063 0.562-3.805-2.677-7.432-6.594-7.031-0.045 0.005-0.08-0.037-0.125-0.031h-20.281c1.2099-2.1338 2.2211-4.4744 2.75-6.9375 0.4976 0.27944 1.0172 0.53714 1.5312 0.5 0.64024-0.04626 1.1981-0.33139 1.6562-0.65625 0.86302-0.61195 1.4468-1.4449 1.875-2.1562 0.02644-0.04391 0.09993-0.08221 0.125-0.125l-0.031-0.031c2.689-3.406 2.49-8.136 0.188-11.594a1.0327 1.0327 0 0 0 -0.0625 -0.09375c-0.63428-0.79543-0.64997-1.4871-0.46875-2.5s0.64071-2.1863 0.78125-3.5a1.0327 1.0327 0 0 0 0 -0.1875c-0.116-1.754-1.762-2.967-3.438-2.718a1.0327 1.0327 0 0 0 -0.156 0.031c-1.2738 0.39254-2.0446 1.3902-2.5938 2.3125-0.54917 0.92226-0.93598 1.8361-1.3438 2.4375a1.0327 1.0327 0 0 0 -0.03125 0.0625c-0.59128 0.94781-0.87714 1.9165-1.0625 2.9062-0.30143-2.1407-0.18794-4.3749 0.3125-6.5312h-0.03125c0.37906-1.0166 0.24024-2.1062-0.3125-2.9375-0.58654-0.8821-1.6877-1.495-2.9062-1.3125zm-3 27.219c0.1685 1.0812 0.22715 2.1541 0.03125 3.25h0.0625c-0.46535 1.0302-0.32153 2.0129-0.34375 2.5625-0.0016 0.04049 0.004-0.000615 0 0.03125a1.0327 1.0327 0 0 0 -0.311 -0.032c-0.94251 0.0065-1.899-0.000202-2.8438 0 0.36796-0.23788 0.6717-0.5554 0.90625-0.96875l0.0625 0.0625c1.1462-1.3941 1.9295-3.1126 2.4375-4.9062zm24.219 14.812c0.01658 0.0013 0.0834-0.000788 0.09375 0-0.0031 0.06592-0.0087 0.06692-0.0625 0.25a1.0327 1.0327 0 0 0 0 0.125 1.0327 1.0327 0 0 0 -0.03125 0v-0.375z" fill="#280b0b"/>
   <path id="path3730" opacity=".1" style="color:#000000" d="m49.938 12c-2.0514 0.49836-2.3238 3.18-3.5083 4.6246-1.3884 1.9935-2.7706 6.6326-2.6031 7.4932 0.1734-1.312 0.39777-3.2217-1.2011-3.7428-1.6807-0.60133-2.747 1.2011-3.2713 2.5049-2.1757 3.4304-3.1707 8.0167-0.72778 11.594 1.7604 2.2096 1.3039 5.0508 1.0928 7.6198 0.37917 1.8432 3.0807 2.0061 3.8259 0.32859 2.568-3.125 3.849-7.764 1.58-11.423 1.8239 3.2228 3.3888 6.8293 2.7104 10.624-0.77584 1.2447 0.59343 4.0838-1.6283 3.4068-6.2541 0.04316-12.527-0.08536-18.77 0.0625-2.0059 0.64927-1.2787 3.0682-1.4062 4.6482-0.0768 6.6739-0.21043 13.858 3.8457 19.551 2.4172 1.927 0.88214 1.8427-1.1501 1.7381-4.4271 0.04467-8.8739-0.08745-13.289 0.0625-2.3563 0.8227-1.3389 4.1085 0.10929 5.3439 4.4518 3.9001 10.775 4.3889 16.453 4.5311 11.518-0.04281 23.039 0.08814 34.555-0.07018 4.9962-0.40953 10.618-1.0845 14.263-4.8717 1.3188-1.3037 1.8632-4.4254-0.44293-4.9643-5.3177-0.0729-10.647-0.01043-15.969-0.03125 3.1157-2.3813 4.1899-6.394 4.9062-10.062 2.8901-0.19411 6.417 0.79386 8.5167-1.8145 1.8266-2.3436 0.91939-5.4495 1.1395-8.1884 0.50617-3.1865-2.2717-6.3473-5.5496-5.9346h-22.138c3.265-5.071 5.579-11.935 2.302-17.57-2.232-3.762-2.526-8.272-1.552-12.469 0.643-1.445-0.454-3.239-2.093-2.994zm8.125 3.0312c-1.8592 0.5729-2.3938 2.8632-3.3911 4.334-2.4092 3.8619-0.54268 8.2068 1.3054 11.789 0.09659 1.6188-1.7784 3.7058 0.02311 4.9706 1.6559 1.2524 3.2691-0.70218 4.0428-2.0228 2.4887-3.02 2.2965-7.3637 0.18606-10.534-1.6973-2.1286-0.15552-4.5508 0.08369-6.7867-0.07301-1.1028-1.1773-1.9093-2.25-1.75zm-14.313 10.938c0.12358 1.7231 0.80448 4.392 0.10145 1.2575-0.055-0.417-0.088-0.837-0.101-1.257zm26.219 26c1.3525-0.14871 2.5635-0.15582 2.0625 1.549 0.53904 1.1659-2.6191 1.1936-2.0625-0.01094v-1.538z" fill="#280b0b"/>
   <path id="path3726" opacity=".15" style="color:#000000" d="m50.094 13.062a0.91275 0.91275 0 0 0 -0.656 0.438c-2.0953 3.5103-3.5172 6.1413-4.2188 8.5625-0.70158 2.4212-0.6436 4.6356 0.15625 7 1.4871 4.396 4.8799 5.9954 3.1562 15.062a0.91275 0.91275 0 0 0 1.6875 0.65625c2.99-4.6663 5.364-10.869 2.8438-16-2.315-4.709-3.376-7.076-1.939-14.655a0.91275 0.91275 0 0 0 -1.0312 -1.0625zm8.125 3.0312a0.91275 0.91275 0 0 0 -0.594 0.407c-1.4678 2.1709-2.4295 3.9006-2.8438 5.5938-0.41421 1.6932-0.23376 3.3393 0.46875 4.9688 0.69851 1.6202 1.376 2.4992 1.625 3.3125 0.24903 0.81335 0.26284 1.7205-0.5625 3.8438a0.91275 0.91275 0 0 0 1.5312 0.9375c1.649-1.86 2.588-3.462 2.907-5.064 0.319-1.603-0.048-3.104-0.75-4.594-0.7006-1.4866-1.3042-2.4104-1.5312-3.4375-0.22709-1.0271-0.16739-2.3367 0.75-4.75a0.91275 0.91275 0 0 0 -1 -1.2188zm-16.375 5.25a0.91275 0.91275 0 0 0 -0.65625 0.4375c-1.3193 2.2656-2.2091 3.9875-2.6562 5.5938-0.44719 1.6063-0.42077 3.13 0.125 4.6875 1.0263 2.9289 3.1172 3.6857 2.0938 9.4062a0.91275 0.91275 0 0 0 1.625 0.71875c1.7065-2.1529 2.5838-4.0835 2.8125-5.875 0.22871-1.7915-0.20899-3.3862-1-4.8125-1.3834-2.4945-2.1663-4.3062-1.3125-9.0938a0.91275 0.91275 0 0 0 -1.0312 -1.0625zm-14.031 24.75a0.91275 0.91275 0 0 0 -0.719 0.907v8c0 4.5545 0.9081 8.66 2.4375 11.719 1.5294 3.0588 3.7629 5.1875 6.4688 5.1875h24c2.2837 0 4.2606-1.5214 5.7188-3.8125 1.3423-2.1091 2.2476-4.9761 2.75-8.1875h5.5312c2.1518 0 3.9062-1.7544 3.9062-3.9062v-6c0-2.1518-1.7544-3.9062-3.9062-3.9062h-6-40a0.91275 0.91275 0 0 0 -0.1875 0zm5.0625 3.7812h0.21875v5.125c0.0084 0.72521 0.0012 1.6134 0 2.4688-0.044-0.819-0.159-1.758-0.22-2.468v-0.09375-5.0312zm36.031 1.0312h3.2188c0.54892 0 0.96875 0.41982 0.96875 0.96875v2.5c0 0.54892-0.41982 0.96875-0.96875 0.96875h-3.2188c0.002-0.11647 0-0.22371 0-0.34375v-4.0938zm-53.095 21.189a0.91275 0.91275 0 0 0 -0.718 0.906c0 1.1576 0.63125 2.2029 1.5625 3.0312 0.93125 0.8284 2.1697 1.4933 3.6875 2.0625 3.0355 1.1383 7.1324 1.8125 11.656 1.8125h32c4.5238 0 8.6207-0.67418 11.656-1.8125 1.5178-0.56916 2.7562-1.2341 3.6875-2.0625 0.93125-0.8284 1.5625-1.8737 1.5625-3.0312a0.91275 0.91275 0 0 0 -0.906 -0.906h-64a0.91275 0.91275 0 0 0 -0.1875 0z" fill="#280b0b"/>
   <path id="path3720" opacity=".3" style="color:#000000" d="m50.219 13.969c-4.1669 6.9811-5.4719 10.369-3.9688 14.812 1.3626 4.028 4.9583 6.1848 3.1875 15.5 2.908-4.538 5.096-10.444 2.812-15.093-2.323-4.73-3.492-7.513-2.031-15.219zm8.156 3.031c-2.8827 4.2637-3.5681 6.7027-2.2812 9.6875 1.3103 3.0392 2.7838 3.4469 1.0625 7.875 3.1758-3.5813 3.3395-5.9116 2.0312-8.6875-1.335-2.831-2.715-3.871-0.813-8.874zm-16.406 5.25c-2.6154 4.4915-3.4292 6.6699-2.4375 9.5 0.89893 2.5654 3.1925 3.908 2.125 9.875 3.2762-4.1332 3.1694-7.0718 1.7188-9.6875-1.414-2.551-2.287-4.752-1.406-9.688zm-13.969 24.75v8c0 8.864 3.568 16 8 16h24c3.7395 0 6.8649-5.088 7.75-12h6.25c1.662 0 3-1.338 3-3v-6c0-1.662-1.338-3-3-3h-6-40zm3.9688 1.9688h2.0312v6.031c0.05175 4.4618-0.5427 11.505 4 14.031h-1.5c-4.608-2.172-4.156-9.789-4.531-14.031v-6.0312zm36.031 1.031h4.125c1.039 0 1.875 0.836 1.875 1.875v2.5c0 1.0388-0.83625 1.875-1.875 1.875h-4.1562c0.016-0.418 0.031-0.824 0.031-1.25v-5zm-52 23c0 3.324 7.136 6 16 6h32c8.864 0 16-2.676 16-6h-64z" fill="#280b0b"/>
   <path id="rect3675" style="color:#000000" d="m50.219 12.969c-4.1669 6.9811-5.4719 10.369-3.9688 14.812 1.3626 4.028 4.9583 6.1848 3.1875 15.5 2.908-4.538 5.096-10.444 2.812-15.093-2.323-4.73-3.492-7.513-2.031-15.219zm8.156 3.031c-2.8827 4.2637-3.5681 6.7027-2.2812 9.6875 1.3103 3.0392 2.7838 3.4469 1.0625 7.875 3.1758-3.5813 3.3395-5.9116 2.0312-8.6875-1.335-2.831-2.715-3.871-0.813-8.874zm-16.406 5.25c-2.6154 4.4915-3.4292 6.6699-2.4375 9.5 0.89893 2.5654 3.1925 3.908 2.125 9.875 3.2762-4.1332 3.1694-7.0718 1.7188-9.6875-1.414-2.551-2.287-4.752-1.406-9.688zm-13.969 24.75v8c0 8.864 3.568 16 8 16h24c3.7395 0 6.8649-5.088 7.75-12h6.25c1.662 0 3-1.338 3-3v-6c0-1.662-1.338-3-3-3h-6-40zm3.9688 1.9688h2.0312v6.031c0.05175 4.4618-0.5427 11.505 4 14.031h-1.5c-4.608-2.172-4.156-9.789-4.531-14.031v-6.0312zm36.031 1.031h4.125c1.039 0 1.875 0.836 1.875 1.875v2.5c0 1.0388-0.83625 1.875-1.875 1.875h-4.1562c0.016-0.418 0.031-0.824 0.031-1.25v-5zm-52 23c0 3.324 7.136 6 16 6h32c8.864 0 16-2.676 16-6h-64z" fill="url(#linearGradient5573)"/>
   <path id="path3738" style="color:#000000" d="m50.219 12.969c-3.1752 5.3196-4.687 8.5463-4.5625 11.75 0.1885-2.8154 1.6501-5.8307 4.3438-10.375 0.07225-0.45412 0.1254-0.88245 0.21875-1.375zm8.156 3.031c-2.1408 3.1664-3.0657 5.3129-2.875 7.4375 0.12176-1.5814 0.87636-3.2724 2.25-5.4375 0.14921-0.59948 0.3347-1.2363 0.625-2zm-8.8125 3.4375c-0.07356 3.9481 1.0159 6.3466 2.6875 9.75 0.56638 1.1531 0.86398 2.3886 0.9375 3.6562 0.04524-1.6183-0.22383-3.2032-0.9375-4.6562-1.5267-3.1084-2.5768-5.3724-2.6875-8.75zm7.9062 1.0312c-0.20676 2.2804 0.76781 3.3884 1.7188 5.4062 0.39844 0.84547 0.6369 1.658 0.71875 2.4688 0.10384-1.1632-0.15647-2.2756-0.71875-3.4688-0.79752-1.6923-1.5989-2.7655-1.7188-4.4062zm-15.5 0.78125c-2.0634 3.5435-2.9937 5.6613-2.8125 7.7812 0.13522-1.7441 1.0126-3.6404 2.625-6.4375 0.05367-0.43272 0.10154-0.86174 0.1875-1.3438zm-0.3125 3.9688c-0.11371 2.9789 0.6255 4.7475 1.7188 6.7188 0.5128 0.92464 0.85063 1.8936 0.9375 2.9375 0.10894-1.4393-0.2646-2.7242-0.9375-3.9375-0.96383-1.7379-1.6416-3.3287-1.7188-5.7188zm16.25 5.5938c-0.0737 0.72624-0.30077 1.5943-0.75 2.75 0.19562-0.2206 0.35813-0.4135 0.53125-0.625 0.22955-0.87762 0.2885-1.5401 0.21875-2.125zm-16 7.4375c-0.02523 0.70497-0.09038 1.4828-0.25 2.375 0.0696-0.0878 0.12094-0.16327 0.1875-0.25 0.08902-0.79826 0.09323-1.4962 0.0625-2.125zm8 1.0312c-0.03661 1.176-0.18045 2.4835-0.46875 4 0.07995-0.12478 0.17121-0.24821 0.25-0.375 0.19602-1.3661 0.24337-2.5606 0.21875-3.625zm-21.906 6.719v1h40 6c1.662 0 3 1.338 3 3v-1c0-1.662-1.338-3-3-3h-6-40zm46 7.375c0 1.0388-0.83625 1.875-1.875 1.875h-4.125c-0.0044 0.33562-0.01829 0.66586-0.03125 1h4.1562c1.039 0 1.875-0.836 1.875-1.875v-1zm-42.031 0.625v1c0.375 4.242-0.077 11.859 4.531 14.031h1.5c-0.50039-0.27831-0.92904-0.62158-1.3125-1h-0.1875c-4.608-2.172-4.156-9.789-4.531-14.031zm-15.969 18c0 0.33747 0.0773 0.67801 0.21875 1h63.562c0.142-0.322 0.219-0.663 0.219-1h-64z" fill="#fff"/>
  </g>
 </g>
</svg>
