<?xml version="1.0" encoding="UTF-8" standalone="no"?>
<!-- Created with Inkscape (http://www.inkscape.org/) -->
<svg id="svg2" xmlns:rdf="http://www.w3.org/1999/02/22-rdf-syntax-ns#" xmlns="http://www.w3.org/2000/svg" height="96" width="96" version="1.1" xmlns:cc="http://creativecommons.org/ns#" xmlns:xlink="http://www.w3.org/1999/xlink" xmlns:dc="http://purl.org/dc/elements/1.1/">
 <defs id="defs4">
  <linearGradient id="linearGradient3131" y2="5.9877" gradientUnits="userSpaceOnUse" y1="90" gradientTransform="matrix(1.0536 0 0 1.0655 -2.3214 -3.1739)" x2="48" x1="48">
   <stop id="stop3189-3" stop-color="#037ac0" offset="0"/>
   <stop id="stop3191-0" stop-color="#7edafe" offset="1"/>
  </linearGradient>
  <linearGradient id="linearGradient3060-7" y2="115.21" gradientUnits="userSpaceOnUse" x2="49.848" gradientTransform="matrix(.67066 0 0 .73298 14.433 958.86)" y1="13.928" x1="49.848">
   <stop id="stop3284-7" stop-color="#fff" offset="0"/>
   <stop id="stop3286-2" stop-color="#dcdcdc" offset="1"/>
  </linearGradient>
  <linearGradient id="linearGradient3063-5" y2="103.03" xlink:href="#linearGradient3656-0" gradientUnits="userSpaceOnUse" x2="57.689" gradientTransform="matrix(1 0 0 1.0929 1.3308 928.77)" y1="36.601" x1="22.406"/>
  <linearGradient id="linearGradient3656-0">
   <stop id="stop3658-9" stop-color="#0b70aa" offset="0"/>
   <stop id="stop3660-51" stop-color="#0b70aa" stop-opacity="0" offset="1"/>
  </linearGradient>
 </defs>
 <metadata id="metadata7">
  <rdf:RDF>
   <cc:Work rdf:about="">
    <dc:format>image/svg+xml</dc:format>
    <dc:type rdf:resource="http://purl.org/dc/dcmitype/StillImage"/>
    <dc:title/>
   </cc:Work>
  </rdf:RDF>
 </metadata>
 <g id="layer1" transform="translate(0 -956.36)">
  <rect id="rect5263-0" fill-opacity=".019608" ry="12.724" height="89.978" width="89.978" y="959.35" x="2.9998"/>
  <rect id="rect5261-6" fill-opacity=".039216" ry="12.552" height="88.762" width="88.762" y="959.96" x="3.6078"/>
  <rect id="rect5259-9" fill-opacity=".078431" ry="12.38" height="87.546" width="87.546" y="960.57" x="4.2157"/>
  <rect id="rect5257-5" fill-opacity=".15686" ry="12.208" height="86.33" width="86.33" y="961.18" x="4.8237"/>
  <path id="rect2419" d="m17.469 5.4062c-6.668 0-12.032 5.3948-12.032 12.063l0.0005 61.031c0 6.668 5.3635 12.031 12.032 12.031h61.03c6.668 0 12.031-5.363 12.031-12.031v-61.031c0-6.668-5.363-12.063-12.031-12.063l-61.031 0.0002z" transform="translate(0 956.36)" fill="#f2f2f2"/>
  <path id="rect2419-66" d="m17.469 5.4062c-6.668 0-12.032 5.3948-12.032 12.063l0.0005 61.031c0 6.668 5.3635 12.031 12.032 12.031h61.03c6.668 0 12.031-5.363 12.031-12.031v-61.031c0-6.668-5.363-12.063-12.031-12.063l-61.031 0.0002z" transform="translate(0 956.36)" fill="url(#linearGradient3131)"/>
  <path id="path3738" opacity=".1" d="m24.893 966.99c-1.2029 0.17303-2.045 1.1674-2.375 2.1517-0.31817 0.94904-0.32298 1.8984-0.25 2.7323 0.000039 0.0341-0.000039 0.0683 0 0.10241 0.02046 18.05-0.04153 36.132 0.03125 54.168a0.96409 1.0537 0 0 0 0 0.1708c0.39765 2.905 4.1189 3.6373 5.5312 1.2295l0.03125 0.034 9.9062-12.979c4.5749 11.288 9.0943 22.614 13.719 33.881a0.96409 1.0537 0 0 0 0.0937 0.1707c0.77153 1.1946 2.0305 1.5023 3.0312 1.5028s1.911-0.17 2.5-0.1028a0.96409 1.0537 0 0 0 0.125 0c4.842-0.1536 9.7169-0.1629 14.594-0.4098a0.96409 1.0537 0 0 0 0.25 -0.034c1.1868-0.3946 1.9077-1.5471 2.0625-2.6981 0.14545-1.0813-0.14907-2.2346-0.90625-3.0738l-0.125-0.1709-23.031-36.51c5.6875 0.028 11.411 0.1787 17.125 0.069a0.96409 1.0537 0 0 0 0.1875 -0.034c2.6442-0.631 3.0338-4.6935 0.78125-6.1135l0.0313-0.034c-13.783-11.179-27.522-22.444-41.344-33.573-0.67904-0.51502-1.414-0.49333-1.875-0.47815a0.96409 1.0537 0 0 0 -0.09375 0z" fill-rule="evenodd" fill="url(#linearGradient3063-5)"/>
  <path id="path3724" opacity=".15" d="m25.018 968.04c-1.7319 0.24912-1.9252 2.3062-1.7812 3.8177 0.02082 18.088-0.04164 36.214 0.03125 54.278 0.2768 2.0223 2.9537 2.5397 3.854 0.7585 3.632-4.7611 7.264-9.5223 10.896-14.283 4.7896 11.8 9.5122 23.646 14.344 35.418 1.1141 1.7249 3.2435 0.7668 4.8518 0.9511 4.8595-0.1542 9.7375-0.1595 14.586-0.405 1.6388-0.545 1.8629-2.9526 0.65626-4.1269l-24.219-38.36c6.3104 0 12.637 0.1901 18.938 0.069 1.8318-0.4371 2.0652-3.3651 0.4631-4.2636-13.786-11.182-27.521-22.454-41.338-33.579-0.3811-0.28904-0.83862-0.2877-1.2812-0.27312z" fill-rule="evenodd" fill="url(#linearGradient3063-5)"/>
  <path id="path3715" opacity=".3" d="m25.268 969.21a0.9922 1.0844 0 0 0 -0.9375 1.0929v55.466a0.9922 1.0844 0 0 0 1.75 0.6831l12.25-16.052 14.875 36.852a0.9922 1.0844 0 0 0 0.9375 0.6488l17.062-0.4098a0.9922 1.0844 0 0 0 0.78125 -1.7077l-25.812-40.916 20.5 0.1708a0.9922 1.0844 0 0 0 0.59375 -1.9468l-41.342-33.76a0.9922 1.0844 0 0 0 -0.65625 -0.23907z" fill-rule="evenodd" fill="url(#linearGradient3063-5)"/>
  <path id="path3277" d="m71.176 1046.4-26.894-42.67 22.377 0.2062-41.329-33.626v55.454l13.266-17.385 15.509 38.436 17.07-0.4143z" fill-rule="evenodd" fill="url(#linearGradient3060-7)"/>
  <path id="rect5265-0" d="m5.4316 1029.8v5.0663c0 6.668 5.3645 12.032 12.032 12.032h61.049c6.668 0 12.032-5.3645 12.032-12.032v-5.0663c0 6.6681-5.3645 12.032-12.032 12.032h-61.049c-6.668 0-12.032-5.3643-12.032-12.032z" fill-opacity=".11765"/>
  <path id="path5252-0" d="m5.4316 1033.9v1.0133c0 6.668 5.3645 12.032 12.032 12.032h61.049c6.668 0 12.032-5.3645 12.032-12.032v-1.0133c0 6.6681-5.3645 12.032-12.032 12.032h-61.049c-6.668 0-12.032-5.3644-12.032-12.032z" fill-opacity=".098039"/>
 </g>
</svg>
