<?xml version="1.0" encoding="UTF-8" standalone="no"?>
<!-- Created with Inkscape (http://www.inkscape.org/) -->
<svg id="svg2" xmlns:rdf="http://www.w3.org/1999/02/22-rdf-syntax-ns#" xmlns="http://www.w3.org/2000/svg" height="96" width="96" version="1.1" xmlns:cc="http://creativecommons.org/ns#" xmlns:xlink="http://www.w3.org/1999/xlink" xmlns:dc="http://purl.org/dc/elements/1.1/">
 <defs id="defs4">
  <filter id="filter5085" color-interpolation-filters="sRGB">
   <feGaussianBlur id="feGaussianBlur5087" stdDeviation="0.525"/>
  </filter>
  <linearGradient id="linearGradient7892" y2="5.9877" gradientUnits="userSpaceOnUse" x2="48" gradientTransform="translate(.10586 954.13)" y1="90" x1="48">
   <stop id="stop3189-4" stop-color="#b4b4b4" offset="0"/>
   <stop id="stop3191-5" stop-color="#e6e6e6" offset="1"/>
  </linearGradient>
  <radialGradient id="radialGradient4331" gradientUnits="userSpaceOnUse" cy="-15.957" cx="25.481" gradientTransform="matrix(0 2.7303 1.3856 -.0056138 70.105 860.02)" r="35.938">
   <stop id="stop3177" stop-color="#4490e6" offset="0"/>
   <stop id="stop3179" stop-color="#103d8f" offset="1"/>
  </radialGradient>
 </defs>
 <metadata id="metadata7">
  <rdf:RDF>
   <cc:Work rdf:about="">
    <dc:format>image/svg+xml</dc:format>
    <dc:type rdf:resource="http://purl.org/dc/dcmitype/StillImage"/>
    <dc:title/>
   </cc:Work>
  </rdf:RDF>
 </metadata>
 <g id="layer1" transform="translate(0 -956.36)">
  <rect id="rect5263-0" fill-opacity=".019608" ry="12.724" height="89.978" width="89.978" y="959.35" x="2.9998"/>
  <rect id="rect5261-6" fill-opacity=".039216" ry="12.552" height="88.762" width="88.762" y="959.96" x="3.6078"/>
  <rect id="rect5259-9" fill-opacity=".078431" ry="12.38" height="87.546" width="87.546" y="960.57" x="4.2157"/>
  <rect id="rect5257-5" fill-opacity=".15686" ry="12.208" height="86.33" width="86.33" y="961.18" x="4.8237"/>
  <path id="rect2419" d="m17.469 5.4062c-6.668 0-12.032 5.3948-12.032 12.063l0.0005 61.031c0 6.668 5.3635 12.031 12.032 12.031h61.03c6.668 0 12.031-5.363 12.031-12.031v-61.031c0-6.668-5.363-12.063-12.031-12.063l-61.031 0.0002z" transform="translate(0 956.36)" fill="#f2f2f2"/>
  <path id="path3215" style="enable-background:new" d="m84.043 968.46v71.868h-71.937v-71.868h71.937z" fill="url(#radialGradient4331)"/>
  <rect id="rect3469" style="enable-background:new" transform="matrix(1 0 0 -1 93.106 2002.7)" rx="3" ry="3" height="68" filter="url(#filter5085)" width="68" stroke="#0f2958" stroke-linecap="square" y="964.36" x="-79" stroke-width="2" fill="none"/>
  <path id="path3957" opacity=".05" style="enable-background:new" d="m60.293 986.9a1.3945 1.3945 0 0 0 -0.09375 0.031c-2.0278 0.518-2.8869 2.1526-3.5938 2.75a1.3945 1.3945 0 0 0 -0.09375 0.063l-12.688 12.656c-2.0481-2.0464-4.0675-4.1306-6.1562-6.1562a1.3945 1.3945 0 0 0 -0.0625 -0.063c-0.8738-0.7642-2.0504-0.9217-3-0.6875-0.88729 0.2189-1.5997 0.7606-2.1562 1.4375l-0.03125-0.031c-0.04079 0.041-0.08411 0.083-0.125 0.125-1.5744 1.5996-3.206 3.1888-4.7812 4.8438a1.3945 1.3945 0 0 0 -0.0625 0.063c-0.76445 0.874-0.92248 2.0514-0.6875 3.0001 0.21955 0.8864 0.76476 1.5997 1.4375 2.1562l-0.03125 0.031c0.04167 0.041 0.08334 0.083 0.125 0.1251 4.4217 4.4026 8.8281 8.8692 13.281 13.25a1.3945 1.3945 0 0 0 0.0625 0.063c0.87399 0.7644 2.0513 0.9225 3 0.6875 0.88052-0.2181 1.601-0.7403 2.1562-1.4063l0.03125 0.031 0.125-0.1563 21.594-21.594v-0.031c0.80612-0.801 1.1068-1.9008 0.96875-2.875-0.13105-0.9246-0.60114-1.7901-1.3438-2.4063-0.04124-0.04-0.08381-0.085-0.125-0.125-1.6888-1.6566-3.337-3.4206-5.1562-5.0937a1.3945 1.3945 0 0 0 -0.1875 -0.1563c-0.67622-0.4322-1.4973-0.5936-2.2812-0.5312a1.3945 1.3945 0 0 0 -0.125 0z" fill="#4ae5ff"/>
  <path id="path3951" opacity="0.12" style="enable-background:new" d="m60.543 988.28c-1.3134 0.3355-2.0369 1.6242-3.0283 2.4621-4.5531 4.5439-9.1062 9.0878-13.659 13.632-2.3884-2.3678-4.7526-4.7941-7.1562-7.1251-1.0485-0.917-2.5376-0.3587-3.2859 0.6327-1.6267 1.6566-3.311 3.29-4.9016 4.9611-0.91772 1.0493-0.35715 2.536 0.63115 3.2875 4.4698 4.449 8.9151 8.9569 13.4 13.369 1.0492 0.9177 2.5359 0.3571 3.2874-0.6312l21.744-21.744c0.96224-0.9394 0.65312-2.5354-0.36154-3.299-1.7637-1.7224-3.4528-3.5358-5.2635-5.201-0.42054-0.2688-0.9029-0.3838-1.4062-0.3437z" fill="#4ae5ff"/>
  <path id="path3947" opacity=".25" style="enable-background:new" d="m60.731 989.47a0.89829 0.89829 0 0 0 -0.53125 0.2812l-16.344 16.313-7.8438-7.8439a0.89829 0.89829 0 0 0 -1.25 0l-5.2812 5.3126a0.89829 0.89829 0 0 0 0 1.25l13.75 13.75a0.89829 0.89829 0 0 0 1.25 0l22.25-22.25a0.89829 0.89829 0 0 0 0 -1.25l-5.2812-5.2813a0.89829 0.89829 0 0 0 -0.71875 -0.2812z" fill="#4ae5ff"/>
  <path id="path3190" d="m35.4 998.85 8.4706 8.4708 16.941-16.941 5.2941 5.2941-22.235 22.236-13.765-13.765 5.2941-5.2942z" style="enable-background:new" fill="#fff"/>
  <path id="rect2419-7" style="enable-background:new" d="m17.469 961.77c-6.668 0-12.031 5.3945-12.031 12.062v61.031c0 5.1917 3.2567 9.5871 7.8438 11.281h69.406c4.587-1.6942 7.8438-6.0896 7.8438-11.281v-61.031c0-6.668-5.3633-12.062-12.031-12.062zm-0.375 6.375h1 60 1c1.6838 0 3 1.3162 3 3v1 58 1c0 1.6838-1.3162 3-3 3h-1-60-1c-1.6838 0-3-1.3162-3-3v-1-58-1c0-1.6838 1.3162-3 3-3z" fill="url(#linearGradient7892)"/>
  <path id="rect5265-0" d="m5.4316 1029.8v5.0663c0 6.668 5.3645 12.032 12.032 12.032h61.049c6.668 0 12.032-5.3645 12.032-12.032v-5.0663c0 6.6681-5.3645 12.032-12.032 12.032h-61.049c-6.668 0-12.032-5.3643-12.032-12.032z" fill-opacity=".11765"/>
  <path id="path5252-0" d="m5.4316 1033.9v1.0133c0 6.668 5.3645 12.032 12.032 12.032h61.049c6.668 0 12.032-5.3645 12.032-12.032v-1.0133c0 6.6681-5.3645 12.032-12.032 12.032h-61.049c-6.668 0-12.032-5.3644-12.032-12.032z" fill-opacity=".098039"/>
 </g>
</svg>
