<?xml version="1.0" encoding="UTF-8" standalone="no"?>
<!-- Created with Inkscape (http://www.inkscape.org/) -->
<svg id="svg2" xmlns:rdf="http://www.w3.org/1999/02/22-rdf-syntax-ns#" xmlns="http://www.w3.org/2000/svg" height="96" width="96" version="1.1" xmlns:cc="http://creativecommons.org/ns#" xmlns:xlink="http://www.w3.org/1999/xlink" xmlns:dc="http://purl.org/dc/elements/1.1/">
 <defs id="defs4">
  <mask id="mask3787">
   <g id="g3789">
    <g id="g3791" clip-path="url(#clipPath3769)">
     <path id="path3793" d="m189.13 356.08h33.081v-77.999h-33.081v77.999z"/>
     <g id="g3795">
      <g id="g3799">
       <g id="g3801" clip-path="url(#clipPath3773)">
        <g id="g3803">
         <g id="g3805">
          <g id="g3807">
           <g id="g3809">
            <path id="path3811" d="m222.21 356.08s-29.5-4.584-33-54.333c0 0-0.081-18.999 6.833-22.499 0 0 3.834-1.167 3.417 6.333 0 0-1.083 10.501 0.917 28.418 0 0 2.083 26.666 21.833 42.081" fill="url(#linearGradient3781)"/>
           </g>
          </g>
         </g>
        </g>
       </g>
      </g>
     </g>
    </g>
   </g>
  </mask>
  <clipPath id="clipPath3769">
   <path id="path3771" d="m189.21 356.08h33v-76.898h-33v76.898z"/>
  </clipPath>
  <clipPath id="clipPath3773">
   <path id="path3775" d="m189.13 356.08h33.081v-77.999h-33.081v77.999z"/>
  </clipPath>
  <linearGradient id="linearGradient3781" gradientUnits="userSpaceOnUse" gradientTransform="matrix(13.958 29.902 29.902 -13.958 199.79 311.26)">
   <stop id="stop3783" stop-color="#353435" offset="0"/>
   <stop id="stop3785" stop-color="#7d7e81" offset="1"/>
  </linearGradient>
  <clipPath id="clipPath3817">
   <path id="path3819" d="m189.21 356.08h33v-76.898h-33v76.898z"/>
  </clipPath>
  <clipPath id="clipPath5400">
   <path id="path5402" d="m-5.2423 19.004 37.351-10.156 8.846 10.812 36.696 15.726 15.071-19.33 1.639 39.644-9.502 2.294-10.485-3.932-12.45 20.314-21.624 5.242 13.433 17.365-25.884-1.638-8.518-13.106 8.191-18.02-6.553-15.727 3.932-20.969-28.833 4.915-1.3103-13.434z" fill="#f0f"/>
  </clipPath>
  <linearGradient id="linearGradient15003" y2="5.9877" gradientUnits="userSpaceOnUse" x2="48" y1="90" x1="48">
   <stop id="stop3702-5" stop-color="#333" offset="0"/>
   <stop id="stop3704-6" stop-color="#636363" offset="1"/>
  </linearGradient>
  <linearGradient id="linearGradient15005" y2="30.582" gradientUnits="userSpaceOnUse" x2="53.966" gradientTransform="matrix(1.0582 0 0 1.0582 -2.7019 951.85)" y1="-3.6041" x1="57.279">
   <stop id="stop6168" stop-color="#647fad" offset="0"/>
   <stop id="stop6172" stop-color="#2a4c8a" offset="1"/>
  </linearGradient>
  <radialGradient id="radialGradient15007" gradientUnits="userSpaceOnUse" cy="53.368" cx="35.358" gradientTransform="matrix(2.3035 -.12012 .23533 4.5129 -59.292 770.79)" r="16.578">
   <stop id="stop71" stop-color="#93bef2" offset="0"/>
   <stop id="stop73" stop-color="#80b3ef" offset=".1433"/>
   <stop id="stop75" stop-color="#5095e8" offset=".43190"/>
   <stop id="stop77" stop-color="#4d93e8" offset=".44850"/>
   <stop id="stop79" stop-color="#4d92e5" offset=".60090"/>
   <stop id="stop81" stop-color="#4f8fdb" offset=".71620"/>
   <stop id="stop83" stop-color="#5189cb" offset="0.819"/>
   <stop id="stop85" stop-color="#5286c3" offset=".8574"/>
  </radialGradient>
  <radialGradient id="radialGradient15009" gradientUnits="userSpaceOnUse" cy="63.093" cx="59.228" gradientTransform="matrix(1.9137 -.79769 .45451 1.0904 -82.044 997.4)" r="28.913">
   <stop id="stop47" stop-color="#d1dce7" offset=".0909"/>
   <stop id="stop49" stop-color="#cfdae5" offset=".4443"/>
   <stop id="stop51" stop-color="#c9d3dd" offset=".63640"/>
   <stop id="stop53" stop-color="#c0c9d2" offset=".74720"/>
   <stop id="stop55" stop-color="#a9afb5" offset=".94070"/>
   <stop id="stop57" stop-color="#a1a6ab" offset="1"/>
  </radialGradient>
  <radialGradient id="radialGradient15011" gradientUnits="userSpaceOnUse" cy="43.451" cx="48" gradientTransform="matrix(1.4095 -9.239e-8 -9.2298e-8 -1.4081 -19.563 1068.8)" r="16">
   <stop id="stop90" stop-color="#b1def4" offset="0"/>
   <stop id="stop92" stop-color="#9bcef2" offset=".1202"/>
   <stop id="stop94" stop-color="#62a5ec" offset=".3698"/>
   <stop id="stop96" stop-color="#5098ea" offset=".44240"/>
   <stop id="stop98" stop-color="#0b86d2" offset=".69090"/>
   <stop id="stop100" stop-color="#0f7fc5" offset=".7317"/>
   <stop id="stop102" stop-color="#186da2" offset=".80780"/>
   <stop id="stop104" stop-color="#274f69" offset="0.91"/>
   <stop id="stop106" stop-color="#363232" offset="1"/>
  </radialGradient>
  <linearGradient id="linearGradient15013" y2="73.323" gradientUnits="userSpaceOnUse" x2="74.199" gradientTransform="matrix(1.0582 0 0 1.0582 -2.7019 951.85)" y1="94.933" x1="93.592">
   <stop id="stop4887" stop-color="#fff" offset="0"/>
   <stop id="stop4889" stop-color="#fff" stop-opacity="0" offset="1"/>
  </linearGradient>
  <linearGradient id="linearGradient15015" y2="23.164" gradientUnits="userSpaceOnUse" x2="42.255" gradientTransform="matrix(-.52912 .91646 -.91646 -.52912 117.29 984.39)" y1="54.806" x1="41.373">
   <stop id="stop4658-1" stop-color="#fff" offset="0"/>
   <stop id="stop4660-3" stop-color="#fff" stop-opacity="0" offset="1"/>
  </linearGradient>
  <linearGradient id="linearGradient15017" y2="27.042" gradientUnits="userSpaceOnUse" x2="47.846" gradientTransform="matrix(.73011 0 0 -.47794 13.048 1017.9)" y1="63.867" x1="47.846">
   <stop id="stop4887-3" stop-color="#fff" offset="0"/>
   <stop id="stop4889-9" stop-color="#fff" stop-opacity="0" offset="1"/>
  </linearGradient>
  <clipPath id="clipPath15019" clipPathUnits="userSpaceOnUse">
   <path id="path15021" d="m18.969 961.77c-6.668 0-12.031 5.3945-12.031 12.062v61.031c0 6.668 5.3633 12.031 12.031 12.031h61.031c6.668 0 12.031-5.3632 12.031-12.031v-61.031c0-6.668-5.3633-12.062-12.031-12.062h-61.031z" fill="#f2f2f2"/>
  </clipPath>
 </defs>
 <metadata id="metadata7">
  <rdf:RDF>
   <cc:Work rdf:about="">
    <dc:format>image/svg+xml</dc:format>
    <dc:type rdf:resource="http://purl.org/dc/dcmitype/StillImage"/>
    <dc:title/>
   </cc:Work>
  </rdf:RDF>
 </metadata>
 <g id="layer1" transform="translate(0 -956.36)">
  <rect id="rect5263-0" fill-opacity=".019608" ry="12.724" height="89.978" width="89.978" y="959.35" x="2.9998"/>
  <rect id="rect5261-6" fill-opacity=".039216" ry="12.552" height="88.762" width="88.762" y="959.96" x="3.6078"/>
  <rect id="rect5259-9" fill-opacity=".078431" ry="12.38" height="87.546" width="87.546" y="960.57" x="4.2157"/>
  <rect id="rect5257-5" fill-opacity=".15686" ry="12.208" height="86.33" width="86.33" y="961.18" x="4.8237"/>
  <g id="g14957" clip-path="url(#clipPath15019)" transform="translate(-1.5)">
   <g id="layer1-7" transform="matrix(1.0582 0 0 1.0582 -2.7019 951.85)">
    <path id="path5464" d="m48.106 11.011c-1.2831 0-2.8038 0.04423-4.4866 0.18628 0 0-7.7514 0.47905-15.675 5.1041 0 0-0.3379 0.44549-0.3379 2.105 0 0-0.26718-0.14902-0.826-0.14902-0.25942 0-0.58514 0.04632-0.97616 0.1304 0 0-1.4958 0.32626-3.1726 1.7138 0 0-12.207 8.8274-13.441 24.254 0 0-0.41127 3.5132 0 7.0228 0 0 1.9879 28.103 33.49 33.437 0 0 4.4423 0.53814 5.7444-0.22353 0 0 1.4128-0.0915 1.9336-0.54022 0 0 2.7408 0.38281 4.7119 0.0186 0 0 27.57-3.4382 31.669-31.761 0 0 0.49626-2.9262 0.11264-7.1159 0 0-0.65578-10.446-7.2087-18.2 0 0-0.16317-0.05585-0.30036-0.05585 0 0-7.0888-13.641-26.939-15.722 0 0-1.6519-0.20491-4.2989-0.20491zm0.58195 72.687c0.24214 0.0611 0.48593 0.11499 0.73212 0.16765-0.21209-0.0457-0.45778-0.0975-0.73212-0.16765z"/>
    <rect id="rect2419" clip-path="url(#clipPath5400)" rx="6" ry="6" height="84" width="84" y="6" x="6" fill="url(#linearGradient15003)"/>
    <g id="g5448" transform="matrix(.27384 0 0 -.27384 -174.55 255.22)"></g>
    <g id="g5454" transform="matrix(.27384 0 0 -.27384 -174.55 255.22)"></g>
   </g>
   <path id="path4702" opacity=".1" style="color:#000000" d="m48.093 984.62c-10.509 0-19.081 8.5719-19.081 19.081s8.5719 19.081 19.081 19.081 19.081-8.5719 19.081-19.081-8.5719-19.081-19.081-19.081z"/>
   <path id="path4698" opacity=".15" style="color:#000000" d="m48.093 985.64c-9.9628 0-18.056 8.0933-18.056 18.056 0 9.9628 8.0933 18.056 18.056 18.056 9.9628 0 18.056-8.0933 18.056-18.056 0-9.9628-8.0933-18.056-18.056-18.056z"/>
   <path id="path4684" opacity=".3" style="color:#000000" d="m65.025 1003.7a16.932 16.932 0 0 1 -33.863 0 16.932 16.932 0 1 1 33.863 0z"/>
   <path id="path4558" opacity=".1" d="m9.9969 958.19c-3.5176 0-6.3494 2.8318-6.3494 6.3494v10.946c0.036827 0.00006 0.09577 0.00012 0.099156 0 0.00423-0.00014 0.094712 0.00042 0.099156 0 0.00423-0.00041 0.12781 0.00067 0.13228 0 0.00423-0.00066 0.12787-0.0322 0.13228-0.0331 0.00423-0.00092 0.12792-0.0319 0.13228-0.0331l21.363-5.721c0.45175-0.12105 0.8557-0.1784 1.1574-0.16535 1.6493 0.0713 3.2169 1.2824 3.6707 2.9763l3.803 14.154c0.0013 0 0.03157 0.12794 0.03307 0.13228 0.0015 0 0.03131 0.12794 0.03307 0.13228 0.0018 0 0.06413 0.0952 0.06614 0.0995 0.002 0 0.06388 0.12826 0.06614 0.13228 0.0022 0 0.06364 0.0952 0.06614 0.0995 0.0025 0 0.06341 0.12857 0.06614 0.13228 0.0028 0 0.09626 0.0952 0.09921 0.0995 0.003 0 0.06297 0.0963 0.06614 0.0995 0.0032 0 0.09584 0.0963 0.09921 0.0995 0.0034 0 0.09566 0.0635 0.09921 0.0667 0.0036 0 0.09548 0.0963 0.09921 0.0995 0.0037 0 0.09533 0.0635 0.09921 0.0667 0.0039 0 0.12824 0.0635 0.13228 0.0667 0.004 0 0.09504 0.0646 0.09921 0.0667 0.0041 0 0.12799 0.0645 0.13228 0.0667 0.0043 0 0.12789 0.0317 0.13228 0.0328 0.0044 0.001 0.09472 0.0645 0.09921 0.0667 0.0044 0.001 0.12773 0.0317 0.13228 0.0328 0.0046 0.001 0.12767 0.0328 0.13228 0.0328 0.0047 0.00084 0.12763-0.00053 0.13228 0 0.0047 0.00063 0.1276 0.0328 0.13228 0.0328 0.0047 0.00032 0.1276 0.00011 0.13228 0 0.0047 0 0.12761 0.00032 0.13228 0 0.0047-0.00021 0.12763-0.0328 0.13228-0.0328 0.0047-0.00053 0.12768 0.00084 0.13228 0 0.0047-0.00085 0.12773-0.0317 0.13228-0.0328 0.0046-0.001 0.12781-0.0317 0.13228-0.0328 0.0044-0.001 0.1279-0.0645 0.13228-0.0667 0.0043 0 0.128-0.0307 0.13228-0.0328 0.0042 0 0.09506-0.0646 0.09921-0.0667 0.0041 0 0.12826-0.0635 0.13228-0.0667 0.004 0 0.09535-0.0635 0.09921-0.0667 3.0056-2.0003 6.5687-3.1747 10.45-3.1747 8.3917 0 15.46 5.4631 17.957 12.996a0.99729 0.99729 0 0 0 0 0.0328c0.0015 0 0.06436 0.0952 0.06614 0.0995 0.0018 0 0.03103 0.12794 0.03307 0.13228 0.002 0 0.06384 0.12815 0.06614 0.13228 0.0023 0 0.0636 0.0952 0.06614 0.0995 0.0025 0 0.09643 0.12847 0.09921 0.13228 0.0028 0 0.06313 0.0952 0.06614 0.0995 0.003 0 0.09598 0.0952 0.09921 0.0995 0.0032 0 0.09578 0.0963 0.09921 0.0995 0.0034 0 0.09559 0.0963 0.09921 0.0995 0.0036 0 0.09541 0.0635 0.09921 0.0667 0.0038 0 0.09524 0.0635 0.09921 0.0667 0.0039 0 0.12816 0.0963 0.13228 0.0995 0.0041 0 0.09495 0.0645 0.09921 0.0667 0.0042 0 0.1279 0.0317 0.13228 0.0328 0.0043 0 0.1278 0.0645 0.13228 0.0667 0.0044 0 0.12771 0.0318 0.13228 0.0328l16.502 4.3924c0.88078 0.2361 1.8913 0.1838 2.7448-0.3307 0.82901-0.4997 1.3282-1.3056 1.5543-2.1494l4.1668-15.576v-20.999c0-3.5176-2.8318-6.3494-6.3494-6.3494h-76.193zm16.27 11.806c-0.14323 0.0121-0.33866 0.0481-0.52912 0.0992l-22.091 5.9195v64.717c0 3.5176 2.8318 6.3494 6.3494 6.3494h26.72c-0.01693-0.034-0.06379-0.095-0.06614-0.099-0.003 0-0.09593-0.1277-0.09921-0.1322-0.0033 0-0.0956-0.128-0.09921-0.1323-0.0036 0-0.09531-0.1283-0.09921-0.1323a0.99729 0.99729 0 0 0 -0.03307 0l-6.4155-6.4155c-1.5286-1.5286-1.5286-4.0604 0-5.5889l10.384-10.384a0.99729 0.99729 0 0 0 0.03307 0c0.0032 0 0.06313-0.096 0.06614-0.1 0.003 0 0.09642-0.095 0.09921-0.099 0.0028 0 0.06356-0.095 0.06614-0.099 0.0025 0 0.06378-0.095 0.06614-0.1 0.0023 0 0.064-0.1282 0.06614-0.1323 0.0021 0 0.06425-0.095 0.06614-0.099 0.0019 0 0.03142-0.1281 0.03307-0.1323 0.0017 0 0.06473-0.095 0.06614-0.099 0.0014 0 0.03192-0.1278 0.03307-0.1323 0.0012 0 0.03218-0.1278 0.03307-0.1322 0.000891 0-0.00063-0.1278 0-0.1323 0.000629 0 0.0327-0.1277 0.03307-0.1323 0.000368 0-0.000102-0.1277 0-0.1323 0.000103 0 0.000162-0.1277 0-0.1323-0.000162 0 0.000426-0.095 0-0.099-0.000425 0-0.03238-0.1279-0.03307-0.1323-0.000688 0-0.03212-0.1278-0.03307-0.1323-0.000948 0-0.03186-0.1279-0.03307-0.1323-0.0012 0-0.03161-0.128-0.03307-0.1322-0.0015 0-0.03137-0.095-0.03307-0.099-0.0017 0-0.06419-0.1282-0.06614-0.1323-0.0019 0-0.03089-0.095-0.03307-0.1-0.0022 0-0.06373-0.1284-0.06614-0.1322-0.0024 0-0.09658-0.095-0.09921-0.1-0.0026 0-0.06329-0.095-0.06614-0.099-0.0029 0-0.06309-0.096-0.06614-0.1-0.0031 0-0.09597-0.096-0.09921-0.099-0.0033 0-0.09579-0.096-0.09921-0.099-0.0034 0-0.09562-0.063-0.09921-0.067-0.0036 0-0.09546-0.063-0.09921-0.067-0.0037 0-0.09531-0.096-0.09921-0.099-0.0039 0-0.12826-0.065-0.13228-0.067a0.99729 0.99729 0 0 0 -0.03307 0c-6.2506-3.096-10.582-9.5085-10.582-16.965 0-4.8392 1.8444-9.214 4.8282-12.566 0.0033 0 0.06309-0.0952 0.06614-0.0995 0.0031 0 0.09642-0.12826 0.09921-0.13228 0.0028 0 0.06361-0.0952 0.06614-0.0995 0.0025 0 0.06388-0.12794 0.06614-0.13228 0.0022 0 0.06416-0.12773 0.06614-0.13228 0.002 0 0.03138-0.12762 0.03307-0.13228 0.0017 0 0.06474-0.12752 0.06614-0.13228 0.0014 0 0.03197-0.12751 0.03307-0.13228 0.0011 0 0.03228-0.12741 0.03307-0.13228 0.000797 0-0.000489-0.12741 0-0.13227 0.000489 0 0.03289-0.12731 0.03307-0.13228 0.00018 0 0.00013-0.16043 0-0.1654-0.00013 0-0.03263-0.12731-0.03307-0.13228-0.00044 0 0.000748-0.12731 0-0.13228-0.000748 0-0.03201-0.12741-0.03307-0.13228-0.0011 0-0.03171-0.12752-0.03307-0.13228l-4.4313-16.469c-0.35111-1.3104-1.4434-2.4119-2.9101-2.5794-0.34336-0.0392-0.6307 0.002-0.59526 0 0.0028-0.00014-0.08826-0.0121-0.23149 0zm65.842 5.5557c0.08709 0.0436 0.19845 0.0993 0.19842 0.0992-0.00001 0 0.02233 0.0528 0.03312 0.0661-0.02847-0.015-0.12536-0.10929-0.23149-0.16535zm-1.5212 1.422c0.02508 0.0451 0.19829 0.33055 0.19842 0.3307 0.000117 0.00014 0.33282 0.2389 0.42991 0.29763-0.0545-0.0118-0.1323-0.0331-0.13228-0.0331 0.000053 0.00002-0.21807-0.19956-0.29763-0.26456-0.01439-0.0118-0.06614-0.0331-0.06614-0.0331 0.000042 0.00005-0.13231-0.29771-0.13228-0.29763zm0 0.29763c0.000211 0.00033 0.16508 0.19817 0.16535 0.19842-0.0032-0.002-0.03312-0.00001-0.03312 0 0.00018 0.00018-0.09566-0.14974-0.13228-0.19842zm1.6535 16.303c-0.0053 0.00074-0.15973 0.0317-0.16535 0.0328-0.0053 0.001-0.15982 0.0317-0.16535 0.0328-0.0053 0.001-0.12688 0.0646-0.13228 0.0667-0.0053 0-0.16011 0.0635-0.16535 0.0667-0.0053 0-0.12723 0.0635-0.13228 0.0667-0.0053 0-0.12744 0.0635-0.13228 0.0667-0.0053 0-0.16076 0.0963-0.16535 0.0995-0.0042 0-0.09492 0.0952-0.09916 0.0995-0.0042 0-0.12824 0.0952-0.13228 0.0995-0.0042 0-0.09545 0.12794-0.09916 0.13228-0.0042 0-0.09577 0.12762-0.09916 0.13228-0.0032 0-0.09619 0.12741-0.09916 0.13228-0.0032 0-0.09651 0.1272-0.09916 0.13228-0.0032 0-0.06381 0.16011-0.06614 0.16529-0.0021 0-0.06423 0.12688-0.06614 0.13228-0.0021 0-0.03154 0.1599-0.03312 0.1654l-1.6204 6.0187c-0.55538 2.0727-2.7404 3.3372-4.8282 2.7778l-14.121-3.7699c-0.0044 0-0.12773-0.032-0.13228-0.033-0.0045-0.001-0.12768-0.033-0.13228-0.033-0.0045-0.0007-0.12765 0.0004-0.13228 0-0.0047-0.0004-0.12763 0.0001-0.13228 0-0.0047-0.0001-0.12763-0.0001-0.13228 0-0.0047 0.0001-0.12765-0.0004-0.13228 0-0.0047 0.0004-0.12768-0.0008-0.13228 0-0.0045 0.0006-0.12773 0.032-0.13228 0.033-0.0045 0.0009-0.1278 0.032-0.13228 0.033-0.0044 0.001-0.09481 0.032-0.09921 0.033-0.0044 0-0.12797 0.032-0.13228 0.033-0.0043 0-0.12808 0.065-0.13228 0.067-0.0042 0-0.09514 0.063-0.09921 0.067-0.004 0-0.12835 0.063-0.13228 0.067-0.0039 0-0.09543 0.063-0.09921 0.067-0.0038 0-0.09559 0.096-0.09921 0.099-0.0036 0-0.09577 0.063-0.09921 0.067-0.0034 0-0.09596 0.096-0.09921 0.1-0.0033 0-0.09616 0.095-0.09921 0.099-0.0031 0-0.06331 0.095-0.06614 0.099-0.0029 0-0.09661 0.095-0.09921 0.1-0.0026 0-0.06376 0.1283-0.06614 0.1323-0.0023 0-0.064 0.095-0.06614 0.099-0.0021 0-0.03119 0.128-0.03307 0.1322-0.0019 0-0.06451 0.095-0.06614 0.1-0.0016 0-0.03169 0.1279-0.03307 0.1323-0.0014 0-0.03196 0.1277-0.03307 0.1323-0.0012 0-0.03222 0.1277-0.03307 0.1323-0.000842 0-0.0325 0.1276-0.03307 0.1322-0.000572 0 0.000298 0.1277 0 0.1323-0.000299 0 0.000024 0.1276 0 0.1323-0.000025 0-0.00025 0.1276 0 0.1322 0.02279 0.3692 0.03307 0.7698 0.03307 1.1905 0 10.485-8.4644 18.949-18.949 18.949-1.2985 0-2.594-0.1758-3.8361-0.43-0.10942-0.022-0.19445-0.021-0.26456-0.033-0.03505-0.011-0.05867-0.029-0.09921-0.033h-0.09921c-0.01877 0-0.03102-0.0005-0.06614 0s-0.16448 0.033-0.16535 0.033c-0.000318 0-0.10487 0.048-0.16535 0.067-0.0217 0.011-0.06607-0.0001-0.06614 0-0.02241 0-0.03138 0.033-0.03307 0.033-0.0095 0.011-0.02053-0.011-0.03307 0-0.03251 0.011-0.09602 0.032-0.09921 0.033-0.0041 0-0.12819 0.032-0.13228 0.033-0.0041 0-0.09521 0.032-0.09921 0.033-0.004 0-0.09531 0.064-0.09921 0.067-0.0039 0-0.12849 0.063-0.13228 0.067-0.0038 0-0.09555 0.031-0.09921 0.033-0.0037 0-0.09569 0.096-0.09921 0.099-0.0035 0-0.09583 0.063-0.09921 0.067-0.0034 0-0.09599 0.063-0.09921 0.067-0.0026 0-0.04516 0.078-0.06614 0.099-0.0042 0-0.03256-0.0005-0.03307 0l-12.004 12.037c-0.62705 0.627-1.0913 1.4835-1.0913 2.4803 0 0.9966 0.48094 1.8368 1.0913 2.4472l7.2423 7.2422h48.745c3.5176 0 6.3494-2.8318 6.3494-6.3494v-47.157h-0.06614c-0.0042 0.00011-0.09503-0.00032-0.09916 0-0.0042 0.00032-0.12814-0.00053-0.13228 0z"/>
   <path id="path4554" opacity=".15" d="m9.9969 958.19c-3.5176 0-6.3494 2.8318-6.3494 6.3494v9.954a1.2333 1.2333 0 0 0 0.3307 -0.0331l21.363-5.721c0.51139-0.13703 1.0034-0.21794 1.4551-0.19841 2.0936 0.0906 4.0269 1.5775 4.5967 3.7038l3.803 14.154a1.2333 1.2333 0 0 0 1.885 0.69452c3.1599-2.1031 6.9295-3.3401 11.012-3.3401 8.8255 0 16.287 5.7595 18.916 13.691a1.2333 1.2333 0 0 0 0.82674 0.79368l16.502 4.3983c0.64318 0.1723 1.3778 0.114 1.9511-0.2315 0.57331-0.3456 0.95645-0.9276 1.1244-1.5543l5.1258-19.147v-17.163c0-3.5176-2.8318-6.3494-6.3494-6.3494h-76.193zm16.535 12.798c-0.08668 0.004-0.29002 0.002-0.52912 0.0661l-22.355 5.9856v63.692c0 3.5176 2.8318 6.3494 6.3494 6.3494h25.431l-6.2171-6.2171c-1.9149-1.915-1.9149-5.0628 0-6.9777l10.384-10.384a1.2333 1.2333 0 0 0 -0.29763 -1.9511c-6.5775-3.2578-11.145-10.014-11.145-17.858 0-5.0904 1.9231-9.7038 5.0597-13.228a1.2333 1.2333 0 0 0 0.26456 -1.1575l-4.432-16.31c-0.24459-0.91282-1.072-1.7401-2.0503-1.8519-0.23719-0.027-0.3763-0.004-0.46298 0zm65.247 5.4234 0.09916 0.13228a1.2333 1.2333 0 0 0 -0.56219 0.39683c0.07482-0.1336-0.01884-0.005 0.06614-0.13227 0.08498-0.12738 0.0042 0.0212 0.09916-0.0992 0.09461-0.1204-0.0042 0.0134 0.09916-0.0992 0.1036-0.11268-0.01291 0.005 0.09916-0.0992 0.11208-0.10435-0.02064-0.004 0.09916-0.0992zm0.59526 18.155a1.2333 1.2333 0 0 0 -1.0252 0.89283l-1.6204 6.0187c-0.69823 2.6059-3.4368 4.173-6.0518 3.4723l-14.121-3.7699a1.2333 1.2333 0 0 0 -1.5543 1.2566c0.0246 0.3987 0.03307 0.8229 0.03307 1.2567 0 11.022-8.9186 19.941-19.941 19.941-1.3779 0-2.7376-0.1645-4.0345-0.43-0.41191-0.082-0.39054-0.061-0.13228 0a1.2333 1.2333 0 0 0 -0.99209 0.3639l-12.037 12.037c-0.46564 0.4656-0.79367 1.1133-0.79367 1.7857 0 0.6723 0.32803 1.2871 0.79367 1.7527l7.9367 7.9367h47.356c3.5176 0 6.3494-2.8318 6.3494-6.3494v-46.165a1.2333 1.2333 0 0 0 -0.16535 0z"/>
   <path id="path4541" opacity=".3" d="m9.9969 959.25c-3.5176 0-6.3494 2.8318-6.3494 6.3494v7.6722l21.363-5.7211c0.60101-0.16104 1.2348-0.25816 1.8519-0.23149 2.6315 0.1138 5.01 1.9431 5.7211 4.5967l3.803 14.154c3.3538-2.232 7.376-3.5384 11.707-3.5384 9.3607 0 17.281 6.0937 20.073 14.518l16.502 4.3983c0.74137 0.1986 1.355-0.1822 1.5543-0.926l6.1179-22.851a0.58411 0.58411 0 0 1 0.19842 -0.29763v-11.773c0-3.5176-2.8318-6.3494-6.3494-6.3494h-76.193zm16.601 12.963c-0.08881 0.004-0.17151 0.008-0.26456 0.0331l-22.686 6.0848v63.461c0 3.5175 2.8318 6.3493 6.3494 6.3493h24.769l-6.4155-6.4155c-2.3909-2.391-2.3909-6.3064 0-8.6973l10.384-10.384c-6.9826-3.4585-11.806-10.629-11.806-18.949 0-5.3994 2.0293-10.316 5.3573-14.055l-4.4313-16.469c-0.15173-0.56626-0.50699-0.9036-0.99209-0.95902-0.08085-0.01-0.17575-0.004-0.26456 0zm65.941 23.579-1.6204 6.0187c-0.87531 3.2667-4.3088 5.2068-7.573 4.3322l-14.121-3.77c0.02704 0.4381 0.03307 0.8779 0.03307 1.3228 0 11.689-9.4757 21.165-21.165 21.165-1.4611 0-2.8882-0.1479-4.266-0.4298h-0.03307l-12.037 12.037c-0.54815 0.548-0.54815 1.2706 0 1.8188l9.8548 9.8547h44.578c3.5176 0 6.3494-2.8318 6.3494-6.3493v-46z"/>
   <path id="path4476" d="m9.9969 958.19c-3.5176 0-6.3494 2.8318-6.3494 6.3494v7.6722l21.363-5.7211c0.60101-0.16104 1.2348-0.25817 1.8519-0.23149 2.6315 0.11379 5.01 1.9431 5.7211 4.5967l3.803 14.154c3.3538-2.232 7.376-3.5384 11.707-3.5384 9.3607 0 17.281 6.0937 20.073 14.518l16.502 4.3984c0.74137 0.1986 1.355-0.1823 1.5543-0.926l6.1179-22.851a0.58411 0.58411 0 0 1 0.19842 -0.29763v-11.773c0-3.5176-2.8318-6.3494-6.3494-6.3494h-76.193z" fill="url(#linearGradient15005)"/>
   <path id="path4474" d="m26.862 971.16c-0.1617-0.0185-0.34302-0.0168-0.52912 0.0331l-22.686 6.0848v63.461c0 3.5176 2.8318 6.3494 6.3494 6.3494h24.769l-6.4155-6.4155c-2.3909-2.391-2.3909-6.3064 0-8.6973l10.384-10.384c-6.9826-3.4585-11.806-10.629-11.806-18.949 0-5.3994 2.0293-10.316 5.3573-14.055l-4.4313-16.469c-0.15173-0.56626-0.50699-0.9036-0.99209-0.95902z" fill="url(#radialGradient15007)"/>
   <path id="rect4464" d="m92.539 994.74-1.6204 6.0187c-0.87531 3.2667-4.3088 5.2067-7.573 4.3321l-14.121-3.7699c0.02704 0.4381 0.03307 0.8779 0.03307 1.3228 0 11.689-9.4757 21.165-21.165 21.165-1.4611 0-2.8882-0.1479-4.266-0.4299h-0.03307l-12.037 12.037c-0.54815 0.5481-0.54815 1.2707 0 1.8188l9.8548 9.8548h44.578c3.5176 0 6.3494-2.8318 6.3494-6.3494v-46z" fill="url(#radialGradient15009)"/>
   <path id="path4568" opacity=".5" d="m26.862 965.21c-0.61713-0.0267-1.2509 0.0705-1.8519 0.23149l-21.363 5.7211v1.0582l21.363-5.7211c0.60101-0.16104 1.2348-0.25817 1.8519-0.23149 2.6315 0.11379 5.01 1.9431 5.7211 4.5967l3.803 14.154c3.3538-2.232 7.376-3.5384 11.707-3.5384 9.3607 0 17.281 6.0937 20.073 14.518l16.502 4.3984c0.74137 0.1986 1.355-0.1823 1.5543-0.926l6.1179-22.851a0.58411 0.58411 0 0 1 0.19842 -0.29763v-1.0582a0.58411 0.58411 0 0 0 -0.19842 0.29762l-6.1179 22.851c-0.19928 0.74373-0.81291 1.1246-1.5543 0.92595l-16.502-4.3983c-2.7922-8.4238-10.713-14.518-20.073-14.518-4.3307 0-8.3529 1.3064-11.707 3.5384l-3.803-14.154c-0.71103-2.6536-3.0896-4.4829-5.7211-4.5967z" fill="#16266a"/>
   <path id="path4577" d="m32.087 987.79c-3.1987 3.7073-5.1589 8.5094-5.1589 13.79 0 0.1882 0.02816 0.3751 0.03307 0.5621 0.12035-5.2039 2.0986-9.9345 5.3242-13.559l-0.19842-0.79368zm5.9526 33.434-9.6894 9.6895c-1.3201 1.32-1.8903 3.0917-1.7527 4.8281 0.13075-1.3743 0.70666-2.724 1.7527-3.7699l10.384-10.384c-0.23355-0.1158-0.46584-0.2399-0.69446-0.3638z" fill="#205fa9"/>
   <path id="path4586" opacity="0" d="m69.225 1002.4c0.01488 0.2411 0.02841 0.4849 0.03307 0.7275 0.0033-0.154 0-0.3081 0-0.4629 0-0.089 0.000601-0.176 0-0.2646h-0.03307zm-37.733 34.459c-0.24527 0.4765-0.16574 1.0248 0.26456 1.4551l8.9282 8.884 0.92658-0.088-9.8548-9.8548c-0.12498-0.125-0.19657-0.2579-0.26456-0.3968z"/>
   <path id="path4599" opacity=".5" d="m69.225 1001.3c0.01488 0.2411 0.02841 0.4849 0.03307 0.7275 0.0033-0.154 0-0.3081 0-0.4629 0-0.089 0.000601-0.176 0-0.2646h-0.03307zm-37.733 34.459c-0.24527 0.4765-0.16574 1.0247 0.26456 1.455l9.8548 9.8548 1.1472 0.0008-11.002-10.914c-0.12498-0.125-0.19657-0.2579-0.26456-0.3968z" fill="#4d4d4d"/>
   <path id="path4664" opacity=".6" d="m92.539 994.74-1.6204 6.0187c-0.87531 3.2667-4.3088 5.2067-7.573 4.3321l-14.121-3.7699c0.02163 0.3505 0.03067 0.7037 0.03307 1.0582l14.088 3.77c3.2641 0.8746 6.6977-1.0655 7.573-4.3322l1.6204-6.0187v-1.0582zm-23.281 8.3666c-0.24644 11.475-9.6306 20.702-21.165 20.702-1.4611 0-2.8882-0.1479-4.266-0.4299h-0.03307l-12.037 12.037c-0.42318 0.4231-0.49476 0.9514-0.26456 1.422 0.06718-0.1305 0.1467-0.2459 0.26456-0.3637l12.037-12.037h0.03307c1.3778 0.2819 2.8049 0.4298 4.266 0.4298 11.689 0 21.165-9.4757 21.165-21.165 0-0.2001 0.0038-0.397 0-0.5953z" fill="#fff"/>
   <path id="path4673" opacity=".5" d="m26.598 971.16c-0.08881 0.004-0.17151 0.008-0.26456 0.0331l-22.686 6.0848v1.0582l22.686-6.0848c0.1861-0.0498 0.36741-0.0515 0.52912-0.0331 0.48511 0.0555 0.84036 0.39276 0.99209 0.95902l4.2329 15.675c0.07184-0.0836 0.12531-0.18234 0.19842-0.26456l-4.4313-16.469c-0.15173-0.56626-0.50699-0.9036-0.99209-0.95902-0.08085-0.01-0.17575-0.004-0.26456 0zm0.36377 32.045c-0.0038 0.1652-0.03307 0.3299-0.03307 0.4961 0 8.0417 4.5049 15.005 11.111 18.585l0.69446-0.6944c-6.8246-3.3802-11.561-10.307-11.773-18.387zm-0.36377 33.698c-0.13584 1.7346 0.43408 3.5096 1.7527 4.8282l5.3573 5.3573h1.0582l-6.4155-6.4155c-1.046-1.0461-1.6219-2.3956-1.7527-3.77z" fill="#fff"/>
   <path id="path3604" style="color:#000000" d="m65.025 1002.6a16.932 16.932 0 1 0 -33.863 0 16.932 16.932 0 0 0 33.863 0z" fill="url(#radialGradient15011)"/>
   <path id="path4721" opacity=".3" style="color:#000000" d="m48.093 985.71c-9.3511 0-16.932 7.5805-16.932 16.932 0 0.1799 0.0275 0.3505 0.03307 0.5291 0.28392-9.1024 7.7274-16.403 16.899-16.403 9.1712 0 16.615 7.3002 16.899 16.403 0.0056-0.1786 0.03307-0.3492 0.03307-0.5291 0-9.3512-7.5806-16.932-16.932-16.932z" fill="#fff"/>
   <path id="path4730" style="color:#000000" d="m31.195 1002.1c-0.0056 0.1785-0.03307 0.3492-0.03307 0.5291 0 9.3511 7.5806 16.932 16.932 16.932 9.3511 0 16.932-7.5806 16.932-16.932 0-0.1799-0.0275-0.3506-0.03307-0.5291-0.28392 9.1023-7.7274 16.402-16.899 16.402-9.1712 0-16.615-7.3002-16.899-16.402z" fill="#124a93"/>
   <path id="path4871" opacity=".5" style="color:#000000" d="m92.539 1014.2c-4.1763 16.04-16.799 28.662-32.838 32.838h26.489c3.5176 0 6.3494-2.8318 6.3494-6.3494v-26.489z" fill="url(#linearGradient15013)"/>
   <path id="path4893" opacity=".62338" style="block-progression:tb;text-indent:0;color:#000000;text-transform:none" d="m81.593 1023.6-0.26456 0.3638c-4.4836 6.9826-11.019 12.344-18.618 15.377l-0.52912 0.1984 0.23149 0.5291 3.4723 7.0108h1.1905l-3.4723-7.0108c7.4434-3.0921 13.863-8.3534 18.354-15.179l10.582 4.332v-1.1573l-10.549-4.2991-0.39684-0.1654zm-23.48 17.296-0.52912 0.1323c-3.4257 0.851-7.0014 1.2014-10.648 1.0913l-0.52912-0.033v0.5622 4.4313h1.0582v-3.9352c3.3694 0.058 6.6907-0.2435 9.8879-0.9921l1.2897 4.9273h1.0913l-1.4881-5.688-0.13228-0.496z" fill="#999"/>
   <path id="path4909" opacity=".5" style="block-progression:tb;text-indent:0;color:#000000;text-transform:none" d="m81.957 1024.9c-4.4911 6.8255-10.91 12.087-18.354 15.179l0.42991 0.8598c7.258-3.1147 13.521-8.2887 17.924-14.98l10.582 4.3321v-1.0583l-10.582-4.332zm-19.346 15.543-0.42991 0.1653 0.23149 0.5292 2.9432 5.9525h0.52912l-3.2739-6.647zm-5.2581 1.7197c-0.58457 0.141-1.193 0.2183-1.7858 0.3307-0.21158 0.038-0.41583 0.097-0.62833 0.1323-2.441 0.4189-4.9327 0.6076-7.4738 0.5621v1.0252c3.3694 0.058 6.6907-0.2435 9.8879-0.9921l1.0252 3.8691h0.26456l-1.2897-4.9273z" fill="#fff"/>
   <path id="path5345" style="color:#000000" d="m59.435 1012.1c-1.7358 1.5545-3.8436 2.7418-6.2481 3.3861-8.1857 2.1934-16.6-2.6644-18.793-10.85-0.6443-2.4046-0.6699-4.8236-0.1917-7.1041-1.0147 2.7666-1.2403 5.8486-0.41964 8.9113 2.1177 7.9034 10.241 12.594 18.145 10.476 3.0626-0.8206 5.619-2.557 7.5075-4.8191z" fill="#0b6ead"/>
   <g id="g5360" opacity=".60173" transform="matrix(-0.125 -.12116 -.12023 .12404 118.66 996.73)">
    <g id="g5364" mask="url(#mask3787)">
     <g id="g5368">
      <g id="g5370" clip-path="url(#clipPath3817)">
       <g id="g5372" transform="translate(222.21 356.07)">
        <path id="path5374" d="m0 0s-29.5-4.583-33-54.333c0 0-0.081-18.999 6.833-22.499 0 0 3.834-1.167 3.417 6.333 0 0-1.083 10.501 0.917 28.418 0 0 2.083 26.666 21.833 42.081" fill="#fff"/>
       </g>
      </g>
     </g>
    </g>
   </g>
   <path id="path5010" opacity=".66667" d="m51.402 1016.7c14.324-2.3442 13.824-20.423 5.0741-25.723-5.744-3.4789-3.9272 0.42541-1.7441 1.7085 10.292 6.0491 8.933 21.362-3.33 24.014z" fill="url(#linearGradient15015)"/>
   <path id="path4156" opacity=".6" style="color:#000000" d="m59.775 995.01a11.682 7.647 0 1 0 -23.363 0 11.682 7.647 0 0 0 23.363 0z" fill="url(#linearGradient15017)"/>
  </g>
  <path id="rect5265-0" d="m5.4316 1029.8v5.0663c0 6.668 5.3645 12.032 12.032 12.032h61.049c6.668 0 12.032-5.3645 12.032-12.032v-5.0663c0 6.6681-5.3645 12.032-12.032 12.032h-61.049c-6.668 0-12.032-5.3643-12.032-12.032z" fill-opacity=".11765"/>
  <path id="path5252-0" d="m5.4316 1033.9v1.0133c0 6.668 5.3645 12.032 12.032 12.032h61.049c6.668 0 12.032-5.3645 12.032-12.032v-1.0133c0 6.6681-5.3645 12.032-12.032 12.032h-61.049c-6.668 0-12.032-5.3644-12.032-12.032z" fill-opacity=".098039"/>
 </g>
</svg>
