<?xml version="1.0" encoding="UTF-8" standalone="no"?>
<!-- Created with Inkscape (http://www.inkscape.org/) -->
<svg id="svg2" xmlns:rdf="http://www.w3.org/1999/02/22-rdf-syntax-ns#" xmlns="http://www.w3.org/2000/svg" height="96" width="96" version="1.1" xmlns:cc="http://creativecommons.org/ns#" xmlns:xlink="http://www.w3.org/1999/xlink" xmlns:dc="http://purl.org/dc/elements/1.1/">
 <defs id="defs4">
  <linearGradient id="linearGradient4044">
   <stop id="stop4046" stop-color="#2f5a88" offset="0"/>
   <stop id="stop4048" stop-color="#346396" stop-opacity="0" offset="1"/>
  </linearGradient>
  <linearGradient id="linearGradient13015" y2="5.9877" gradientUnits="userSpaceOnUse" x2="48" gradientTransform="matrix(1.0909 0 0 1.0909 11.636 961.5)" y1="90" x1="48">
   <stop id="stop3702-3" stop-color="#e0e0e0" offset="0"/>
   <stop id="stop3704-7" stop-color="#fff" offset="1"/>
  </linearGradient>
  <radialGradient id="radialGradient13017" gradientUnits="userSpaceOnUse" cy="-6.55" cx="48" gradientTransform="matrix(1.9048 0 0 .625 -27.429 977.96)" r="42">
   <stop id="stop3879" stop-color="#5f89b7" offset="0"/>
   <stop id="stop3881" stop-color="#4071a0" offset="1"/>
  </radialGradient>
  <radialGradient id="radialGradient13019" gradientUnits="userSpaceOnUse" cy="57.493" cx="80.272" gradientTransform="matrix(0 2.6037 -2.4521 0 214.11 797.69)" r="21">
   <stop id="stop3906" stop-color="#d0e2f1" offset="0"/>
   <stop id="stop3976" stop-color="#c6dcef" offset=".60883"/>
   <stop id="stop3970" stop-color="#b1cfea" offset=".79731"/>
   <stop id="stop3908" stop-color="#92bce3" offset="1"/>
  </radialGradient>
  <radialGradient id="radialGradient13021" gradientUnits="userSpaceOnUse" cy="55.203" cx="30.792" gradientTransform="matrix(0 1.6123 -1.6664 0 148.2 964.29)" r="30.406">
   <stop id="stop3898" stop-color="#89b7e1" offset="0"/>
   <stop id="stop3974" stop-color="#85b4df" offset=".57429"/>
   <stop id="stop3972" stop-color="#77a9d9" offset=".75"/>
   <stop id="stop3900" stop-color="#679cd2" offset="1"/>
  </radialGradient>
  <radialGradient id="radialGradient13023" gradientUnits="userSpaceOnUse" cy="37.516" cx="45.438" gradientTransform="matrix(3.1146e-8 2.1111 -3.1667 4.6719e-8 182.8 901.05)" r="16">
   <stop id="stop3869" stop-color="#98bbe2" offset="0"/>
   <stop id="stop3871" stop-color="#3878bb" offset="1"/>
  </radialGradient>
  <linearGradient id="linearGradient13025" y2="42.517" xlink:href="#linearGradient4044" gradientUnits="userSpaceOnUse" x2="55.387" gradientTransform="translate(16 965.86)" y1="26.065" x1="49.923"/>
  <linearGradient id="linearGradient13027" y2="66.37" xlink:href="#linearGradient4044" gradientUnits="userSpaceOnUse" x2="39.037" gradientTransform="translate(16 965.86)" y1="63.379" x1="63.781"/>
  <linearGradient id="linearGradient13029" y2="30.996" xlink:href="#linearGradient4044" gradientUnits="userSpaceOnUse" x2="36.989" gradientTransform="translate(16 965.86)" y1="51.935" x1="25.87"/>
  <clipPath id="clipPath13031" clipPathUnits="userSpaceOnUse">
   <path id="path13033" d="m34.851 975.04c-6.3474 0-11.453 5.1351-11.453 11.483v58.097c0 6.3474 5.1054 11.453 11.453 11.453h58.097c6.3474 0 11.453-5.1054 11.453-11.453v-58.097c0-6.3474-5.1054-11.483-11.453-11.483h-58.097z" fill="#f2f2f2"/>
  </clipPath>
 </defs>
 <metadata id="metadata7">
  <rdf:RDF>
   <cc:Work rdf:about="">
    <dc:format>image/svg+xml</dc:format>
    <dc:type rdf:resource="http://purl.org/dc/dcmitype/StillImage"/>
    <dc:title/>
   </cc:Work>
  </rdf:RDF>
 </metadata>
 <g id="layer1" transform="translate(0 -956.36)">
  <rect id="rect5263-0" fill-opacity=".019608" ry="12.724" height="89.978" width="89.978" y="959.35" x="2.9998"/>
  <rect id="rect5261-6" fill-opacity=".039216" ry="12.552" height="88.762" width="88.762" y="959.96" x="3.6078"/>
  <rect id="rect5259-9" fill-opacity=".078431" ry="12.38" height="87.546" width="87.546" y="960.57" x="4.2157"/>
  <rect id="rect5257-5" fill-opacity=".15686" ry="12.208" height="86.33" width="86.33" y="961.18" x="4.8237"/>
  <g id="g13002" clip-path="url(#clipPath13031)" transform="matrix(1.0505 0 0 1.0505 -19.142 -62.521)">
   <path id="path4012" fill="#dca325" d="m62 981.86c-3.324 0-6 2.676-6 6v5.5c2.48-0.9687 5.177-1.5 8-1.5 12.15 0 22 9.8497 22 22h20v-22-10h-44z"/>
   <path id="path3999" fill="#3b9342" d="m85.938 1015.4c-0.23 3.4467-1.2393 6.67-2.875 9.5-0.0805 0.1392-0.16659 0.269-0.25 0.4063-3.8585 6.3502-10.839 10.594-18.812 10.594-2.8278 0-5.5163-0.5292-8-1.5v21.5h9.1562 22.844v-36c0-1.8062-0.80762-3.4018-2.0625-4.5z"/>
   <path id="path3989-6" fill="#df2227" d="m22 981.86v3.2813 52.719h28c2.5034 0 4.6292-1.5182 5.5312-3.6875-4.4638-1.8642-8.194-5.1606-10.594-9.3125-0.0968-0.1675-0.18879-0.3298-0.28125-0.5-1.6934-3.1173-2.6562-6.703-2.6562-10.5 0-9.3272 5.8062-17.299 14-20.5v-5.5c0-3.324-2.676-6-6-6h-28z"/>
   <path id="rect3982" d="m64 989.86c-13.255 0-24 10.745-24 24s10.745 24 24 24 24-10.745 24-24-10.745-24-24-24z" fill="url(#linearGradient13015)"/>
   <path id="path3824" fill="url(#radialGradient13017)" d="m28 971.86c-3.324 0-6 2.676-6 6v7.2813l22.656 39.219c-1.693-3.2-2.656-6.7-2.656-10.5 0-12.15 9.8497-22 22-22h42v-14c0-3.324-2.676-6-6-6h-72z"/>
   <path id="path3847" fill="url(#radialGradient13019)" d="m64 991.86c12.15 0 22 9.8497 22 22 0 4.0043-1.0681 7.7657-2.9375 11-0.0805 0.1392-0.16659 0.269-0.25 0.4063l-17.656 30.594h34.844c3.324 0 6-2.676 6-6v-58h-42z"/>
   <path id="path3849" fill="url(#radialGradient13021)" d="m22 985.14v64.719c0 3.324 2.676 6 6 6h37.156l17.656-30.594c-3.8585 6.3502-10.839 10.594-18.812 10.594-8.146 0-15.26-4.4203-19.062-11-0.0968-0.1675-0.18879-0.3298-0.28125-0.5l-22.657-39.26z"/>
   <path id="path3822" style="color:#000000" d="m83 1013.9a19 19 0 0 1 -38 0 19 19 0 1 1 38 0z" fill="url(#radialGradient13023)"/>
   <path id="path3929" opacity=".3" d="m64 991.86c6.9455 0 13.124 3.223 17.156 8.25l24.844-6.08v-2.1563h-42z" fill="url(#linearGradient13025)"/>
   <path id="path3933" opacity=".25" d="m82.812 1025.3c-3.3083 5.4447-8.9122 9.3433-15.469 10.344l-5.9375 20.25h3.75l17.656-30.594z" fill="url(#linearGradient13027)"/>
   <path id="path3935" fill="url(#linearGradient13029)" d="m22 982.17v2.9688l22.656 39.219c-1.693-3.2-2.656-6.7-2.656-10.5 0-2.8724 0.56126-5.6095 1.5625-8.125l-21.562-23.63z"/>
  </g>
  <path id="rect5265-0" d="m5.4316 1029.8v5.0663c0 6.668 5.3645 12.032 12.032 12.032h61.049c6.668 0 12.032-5.3645 12.032-12.032v-5.0663c0 6.6681-5.3645 12.032-12.032 12.032h-61.049c-6.668 0-12.032-5.3643-12.032-12.032z" fill-opacity=".11765"/>
  <path id="path5252-0" d="m5.4316 1033.9v1.0133c0 6.668 5.3645 12.032 12.032 12.032h61.049c6.668 0 12.032-5.3645 12.032-12.032v-1.0133c0 6.6681-5.3645 12.032-12.032 12.032h-61.049c-6.668 0-12.032-5.3644-12.032-12.032z" fill-opacity=".098039"/>
 </g>
</svg>
