<?xml version="1.0" encoding="UTF-8" standalone="no"?>
<!-- Created with Inkscape (http://www.inkscape.org/) -->
<svg id="svg2" xmlns:rdf="http://www.w3.org/1999/02/22-rdf-syntax-ns#" xmlns="http://www.w3.org/2000/svg" height="96" width="96" version="1.1" xmlns:cc="http://creativecommons.org/ns#" xmlns:xlink="http://www.w3.org/1999/xlink" xmlns:dc="http://purl.org/dc/elements/1.1/">
 <defs id="defs4">
  <radialGradient id="radialGradient3238" xlink:href="#linearGradient6537" gradientUnits="userSpaceOnUse" cy="69.59" cx="177.56" gradientTransform="matrix(1 0 0 .65480 0 24.022)" r="9.496"/>
  <linearGradient id="linearGradient6537">
   <stop id="stop6539" offset="0"/>
   <stop id="stop6541" stop-opacity="0" offset="1"/>
  </linearGradient>
  <radialGradient id="radialGradient3246" xlink:href="#linearGradient12477" gradientUnits="userSpaceOnUse" cy="104.07" cx="172.5" gradientTransform="matrix(.52941 -2.5137e-7 4.6003e-7 .7 81.176 34.5)" r="8.5"/>
  <linearGradient id="linearGradient12477">
   <stop id="stop12479" stop-color="#616161" offset="0"/>
   <stop id="stop12481" offset="1"/>
  </linearGradient>
  <radialGradient id="radialGradient3248" xlink:href="#linearGradient12495" gradientUnits="userSpaceOnUse" cy="129.77" cx="175.62" gradientTransform="matrix(1 0 0 2.6445 0 -212.81)" r="5.625"/>
  <linearGradient id="linearGradient12495">
   <stop id="stop12497" stop-color="#616161" offset="0"/>
   <stop id="stop12499" stop-color="#616161" stop-opacity="0" offset="1"/>
  </linearGradient>
  <filter id="filter12535" height="1.3108" width="1.3661" color-interpolation-filters="sRGB" y="-.15542" x="-.18307">
   <feGaussianBlur id="feGaussianBlur12537" stdDeviation="0.85812722"/>
  </filter>
  <radialGradient id="radialGradient3250" xlink:href="#linearGradient12297" gradientUnits="userSpaceOnUse" cy="172.87" cx="142.75" gradientTransform="matrix(1 0 0 .49231 0 89.646)" r="16.25"/>
  <linearGradient id="linearGradient12297">
   <stop id="stop12299" stop-color="#fdfcbc" offset="0"/>
   <stop id="stop12301" stop-color="#fdfcbc" stop-opacity="0" offset="1"/>
  </linearGradient>
  <filter id="filter12325" height="1.1637" width="1.214" color-interpolation-filters="sRGB" y="-.081841" x="-.10702">
   <feGaussianBlur id="feGaussianBlur12327" stdDeviation="1.4492839"/>
  </filter>
  <radialGradient id="radialGradient3262" gradientUnits="userSpaceOnUse" cy="170.59" cx="318.61" gradientTransform="matrix(.97553 .26596 -1.4619 3.5986 257.06 -527.35)" r=".82420">
   <stop id="stop6822" stop-color="#244206" offset="0"/>
   <stop id="stop6824" offset="1"/>
  </radialGradient>
  <radialGradient id="radialGradient3264" gradientUnits="userSpaceOnUse" cy="58.524" cx="173.33" gradientTransform="matrix(1.3058 .34318 -2.8114 10.697 110.55 -617.95)" r="4.8358">
   <stop id="stop6322" stop-color="#fff" offset="0"/>
   <stop id="stop6324" stop-color="#fff" stop-opacity="0" offset="1"/>
  </radialGradient>
  <filter id="filter6444" height="1.1785" width="1.5371" color-interpolation-filters="sRGB" y="-.089254" x="-.26856">
   <feGaussianBlur id="feGaussianBlur6446" stdDeviation="1.0822378"/>
  </filter>
  <radialGradient id="radialGradient3266" gradientUnits="userSpaceOnUse" cy="58.899" cx="182.12" gradientTransform="matrix(5.5457 0 0 5.2229 -825.95 -246.1)" r="2.3375">
   <stop id="stop6816" stop-color="#a7cc5c" offset="0"/>
   <stop id="stop6818" stop-color="#a7cc5c" stop-opacity="0" offset="1"/>
  </radialGradient>
  <filter id="filter6531" height="1.1254" width="1.6388" color-interpolation-filters="sRGB" y="-.062723" x="-.31940">
   <feGaussianBlur id="feGaussianBlur6533" stdDeviation="0.6221794"/>
  </filter>
  <radialGradient id="radialGradient3272" gradientUnits="userSpaceOnUse" cy="170.59" cx="318.61" gradientTransform="matrix(.92151 .27813 -1.3177 3.5229 249.74 -518.25)" r=".82420">
   <stop id="stop6810" stop-color="#244206" offset="0"/>
   <stop id="stop6812" offset="1"/>
  </radialGradient>
  <linearGradient id="linearGradient3274" y2="57.767" gradientUnits="userSpaceOnUse" x2="180.92" y1="55.165" x1="169.51">
   <stop id="stop6599" stop-color="#eeeeec" stop-opacity="0" offset="0"/>
   <stop id="stop6605" stop-color="#fff" offset=".52820"/>
   <stop id="stop6601" stop-color="#eeeeec" stop-opacity="0" offset="1"/>
  </linearGradient>
  <radialGradient id="radialGradient3276" gradientUnits="userSpaceOnUse" cy="58.899" cx="182.12" gradientTransform="matrix(5.5457 0 0 5.2229 -825.95 -246.1)" r="2.3375">
   <stop id="stop4010" stop-color="#fff9e8" offset="0"/>
   <stop id="stop4012" stop-color="#a7cc5c" offset="1"/>
  </radialGradient>
  <radialGradient id="radialGradient3210" gradientUnits="userSpaceOnUse" cy="273.7" cx="140.19" gradientTransform="matrix(.38282 0 0 -.20445 -6.6043 1022.7)" r="81.986">
   <stop id="stop6007" stop-color="#fff" offset="0"/>
   <stop id="stop6009" stop-color="#fff" stop-opacity="0" offset="1"/>
  </radialGradient>
  <clipPath id="clipPath11530">
   <path id="path11532" d="m118.62 209.5c2.5833-0.38773 5.1667-0.51062 7.75 0.75 0 0 0.28209 5.4813-1.625 5.625-2.3783 0.17918-6.125-6.375-6.125-6.375z" stroke="#000" stroke-width=".087522" fill="none"/>
  </clipPath>
  <linearGradient id="linearGradient3280-1" y2="191.97" xlink:href="#linearGradient6537" gradientUnits="userSpaceOnUse" x2="183.49" gradientTransform="matrix(.087522 0 0 .087522 302.94 165.2)" y1="187.81" x1="182.1"/>
  <linearGradient id="linearGradient3282-3" y2="191.97" xlink:href="#linearGradient6537" gradientUnits="userSpaceOnUse" x2="183.49" gradientTransform="matrix(.087522 0 0 .087522 302.93 165.22)" y1="187.81" x1="182.1"/>
  <radialGradient id="radialGradient3228" xlink:href="#linearGradient6782" gradientUnits="userSpaceOnUse" cy="173.48" cx="314.97" gradientTransform="matrix(4.2922 0 0 -5.2389 -1304.4 1928.1)" r="9.0312"/>
  <linearGradient id="linearGradient6782">
   <stop id="stop6784" stop-color="#fce94f" offset="0"/>
   <stop id="stop6786" stop-color="#a7cc5c" offset="0.7"/>
   <stop id="stop6788" stop-color="#789e2d" offset="1"/>
  </linearGradient>
  <radialGradient id="radialGradient18970" gradientUnits="userSpaceOnUse" cy="169.69" cx="315.07" gradientTransform="matrix(5.8993 0 -.00021442 6.3684 -1811.2 -111.79)" r="8.6256">
   <stop id="stop6501" stop-color="#fff" offset="0"/>
   <stop id="stop6503" stop-color="#a7cc5c" stop-opacity=".24194" offset="1"/>
  </radialGradient>
  <linearGradient id="linearGradient18978" y2="1035.8" xlink:href="#linearGradient6782" gradientUnits="userSpaceOnUse" x2="47.995" y1="865.33" x1="47.995"/>
 </defs>
 <metadata id="metadata7">
  <rdf:RDF>
   <cc:Work rdf:about="">
    <dc:format>image/svg+xml</dc:format>
    <dc:type rdf:resource="http://purl.org/dc/dcmitype/StillImage"/>
    <dc:title/>
   </cc:Work>
  </rdf:RDF>
 </metadata>
 <g id="layer1" transform="translate(0 -956.36)">
  <rect id="rect5263-0" fill-opacity=".019608" ry="12.724" height="89.978" width="89.978" y="959.35" x="2.9998"/>
  <rect id="rect5261-6" fill-opacity=".039216" ry="12.552" height="88.762" width="88.762" y="959.96" x="3.6078"/>
  <rect id="rect5259-9" fill-opacity=".078431" ry="12.38" height="87.546" width="87.546" y="960.57" x="4.2157"/>
  <rect id="rect5257-5" fill-opacity=".15686" ry="12.208" height="86.33" width="86.33" y="961.18" x="4.8237"/>
  <path id="path15790" d="m17.469 961.77c-6.668 0-12.031 5.3945-12.031 12.062v61.031c0 6.668 5.3633 12.031 12.031 12.031h61.031c6.668 0 12.031-5.3631 12.031-12.031v-61.031c0-6.6679-5.3633-12.062-12.031-12.062h-61.031z" fill="url(#linearGradient18978)"/>
  <path id="rect5265-0" d="m5.4316 1029.8v5.0663c0 6.668 5.3645 12.032 12.032 12.032h61.049c6.668 0 12.032-5.3645 12.032-12.032v-5.0663c0 6.6681-5.3645 12.032-12.032 12.032h-61.049c-6.668 0-12.032-5.3643-12.032-12.032z" fill-opacity=".11765"/>
  <path id="path5252-0" d="m5.4316 1033.9v1.0133c0 6.668 5.3645 12.032 12.032 12.032h61.049c6.668 0 12.032-5.3645 12.032-12.032v-1.0133c0 6.6681-5.3645 12.032-12.032 12.032h-61.049c-6.668 0-12.032-5.3644-12.032-12.032z" fill-opacity=".098039"/>
  <path id="path6824" stroke-linejoin="round" d="m83.741 1001.8a36.241 36.241 0 1 0 -72.481 0 36.241 36.241 0 0 0 72.481 0z" stroke="#7c9236" stroke-linecap="round" stroke-width="1.3758" fill="url(#radialGradient3228)"/>
  <g id="g2734" transform="matrix(1.7679 0 0 1.7679 3.6689 959.58)">
   <g id="g5835" transform="matrix(-6.3251 5.4649 5.4649 6.3251 1037.9 -2859)">
    <g id="g5837" transform="matrix(-.82067 .57140 .57140 .82067 471.33 -148.1)">
     <path id="path5839" d="m313.21 183.48c0.22609-0.0339 0.45219-0.0447 0.67829 0.0657 0 0 0.0247 0.47973-0.14223 0.4923-0.20815 0.0157-0.53606-0.55795-0.53606-0.55795z" fill="#a4ac9b"/>
     <path id="path5841" opacity=".6" d="m118.62 209.5c2.5833-0.38773 5.1667-0.51062 7.75 0.75 0 0 0.28209 5.4813-1.625 5.625-2.3783 0.17918-6.125-6.375-6.125-6.375z" clip-path="url(#clipPath11530)" transform="matrix(.087522 0 0 .087522 302.83 165.14)" stroke="#000" stroke-width="1.4519" fill="none"/>
     <path id="path5843" d="m313.7 183.95c-0.15838-0.088-0.27148-0.2666-0.37196-0.47043l0.22974-0.0109c0.00029 0.17617 0.0545 0.33435 0.14222 0.48137z" fill="#fff"/>
    </g>
    <path id="path5845" opacity=".75248" d="m318.61 181.89 0.13151 0.18179c0.11446-0.37326 0.24526-0.49053 0.39066-0.37905l-0.004-0.25142c-0.18429 0.10922-0.37372 0.20049-0.5183 0.44868z" fill="url(#linearGradient3280-1)"/>
   </g>
   <g id="g5823" transform="matrix(6.2401 5.082 -5.082 6.2401 -1030.8 -2721.4)">
    <g id="g5825" transform="matrix(-.82067 .57140 .57140 .82067 471.33 -148.1)">
     <path id="path5827" d="m313.23 183.49c0.22609-0.0339 0.45219-0.0447 0.67829 0.0656 0 0 0.0247 0.47973-0.14223 0.4923-0.20815 0.0157-0.53606-0.55795-0.53606-0.55795z" fill="#a4ac9b"/>
     <path id="path5829" opacity=".6" d="m118.62 209.5c2.5833-0.38773 5.1667-0.51062 7.75 0.75 0 0 0.28209 5.4813-1.625 5.625-2.3783 0.17918-6.125-6.375-6.125-6.375z" clip-path="url(#clipPath11530)" transform="matrix(.087522 0 0 .087522 302.85 165.15)" stroke="#000" stroke-width="1.626" fill="none"/>
     <path id="path5831" d="m313.72 183.96c-0.15838-0.088-0.27148-0.2666-0.37196-0.47043l0.22974-0.0109c0.00029 0.17617 0.0545 0.33435 0.14222 0.48137z" fill="#fff"/>
    </g>
    <path id="path5833" opacity=".38119" d="m318.6 181.91 0.13151 0.1818c0.11446-0.37327 0.24526-0.49054 0.39067-0.37906l-0.004-0.25142c-0.18429 0.10923-0.37372 0.20049-0.51831 0.44868z" fill="url(#linearGradient3282-3)"/>
   </g>
  </g>
  <path id="path2591" d="m16.156 1016.8h62.758" stroke="#000" stroke-width="1.3757" fill="none"/>
  <path id="path6840" opacity=".39902" d="m15.683 1000.3c-0.61219-44.78 63.637-43.399 62.758-3.6041-0.82984-37.773-61.845-38.959-62.746 3.6041h-0.01196z" fill-rule="evenodd" fill="url(#radialGradient3210)"/>
  <path id="path7025" stroke-linejoin="round" d="m47.496 966.67c-19.431 0-35.146 15.715-35.146 35.146s15.715 35.146 35.146 35.146 35.146-15.715 35.146-35.146-15.715-35.146-35.146-35.146z" stroke="url(#radialGradient18970)" stroke-linecap="round" stroke-width="1.0695" fill="none"/>
  <g id="g5880" transform="matrix(-5.7301 2.8991 2.8991 5.7301 1349.6 -924.46)">
   <g id="g5882" transform="translate(-.038229 -.1623)" fill="url(#radialGradient3238)">
    <path id="path5884" d="m187.05 69.59a9.496 6.218 0 1 1 -18.992 0 9.496 6.218 0 1 1 18.992 0z" transform="matrix(.083493 .027555 -.034539 .081529 305.81 160.85)"/>
    <path id="path5886" opacity=".60396" d="m187.05 69.59a9.496 6.218 0 1 1 -18.992 0 9.496 6.218 0 1 1 18.992 0z" transform="matrix(.10272 .036991 -.042813 .10853 303.09 157.38)"/>
   </g>
   <path id="path5888" d="m317.57 170.65c-0.50716 0.60775 0.94601 1.4143 1.3452 0.64672 0.44663-0.85884-0.0474-2.0294-0.56597-2.5458-0.11396-0.11371-0.36282 0.013-0.33031 0.15591 0.1368 0.60141-0.11676 1.3452-0.4489 1.7432z" fill="url(#radialGradient3272)"/>
   <path id="path5890" opacity=".44554" d="m174.78 40.614c0.70089 7.2249 0.0346 13.617-5.2635 23.17 1.2917 2.4591 2.6506 4.8817 6.5473 5.9303 5.5962-12.023 2.7392-21.292-1.2838-29.101z" transform="matrix(.085866 -.0022003 -.0022003 .082630 303.25 166.05)" filter="url(#filter6531)" fill="url(#linearGradient3274)"/>
   <path id="path5892" opacity=".30693" d="m180.62 46.373c4.5129 9.9991 5.0017 18.586-1.2593 23.807 1.6034-8.4591 3.2087-16.791 1.2593-23.807z" transform="matrix(.085866 -.0022003 -.0022003 .082630 303.31 166.06)" filter="url(#filter6531)" fill="url(#radialGradient3276)"/>
  </g>
  <g id="g5865" transform="matrix(5.7687 2.394 -2.394 5.7687 -1352.7 -769.57)">
   <g id="g5867" transform="translate(-.038229 -.1623)" fill="url(#radialGradient3238)">
    <path id="path5869" d="m187.05 69.59a9.496 6.218 0 1 1 -18.992 0 9.496 6.218 0 1 1 18.992 0z" transform="matrix(.082071 .032092 -.030023 .083006 305.58 159.79)"/>
    <path id="path5871" opacity=".60396" d="m187.05 69.59a9.496 6.218 0 1 1 -18.992 0 9.496 6.218 0 1 1 18.992 0z" transform="matrix(.10490 .040889 -.040834 .11201 302.42 156.38)"/>
   </g>
   <path id="path5873" d="m317.46 170.58c-0.5499 0.62574 0.98217 1.4186 1.4199 0.63253 0.48978-0.87949-0.0158-2.0587-0.55861-2.5736-0.11928-0.11337-0.38617 0.0197-0.35403 0.16407 0.13528 0.60793-0.14716 1.3672-0.50727 1.777z" fill="url(#radialGradient3262)"/>
   <path id="path5876" opacity=".66832" d="m174.78 40.614c0.70089 7.2249 0.0346 13.617-5.2635 23.17 1.2917 2.4591 2.6506 4.8817 6.5473 5.9303 5.5962-12.023 2.7392-21.292-1.2838-29.101z" transform="matrix(.091379 -.0037516 -.0037516 .083896 302.31 166.16)" filter="url(#filter6444)" fill="url(#radialGradient3264)"/>
   <path id="path5878" opacity=".66832" d="m180.62 46.373c4.5129 9.9991 5.0017 18.586-1.2593 23.807 1.6034-8.4591 3.2087-16.791 1.2593-23.807z" transform="matrix(.091379 -.0037516 -.0037516 .083896 302.37 166.17)" filter="url(#filter6531)" fill="url(#radialGradient3266)"/>
  </g>
  <path id="path3893" opacity=".99459" d="m126.5 187s2.2108-41.347 15.5-41.5c13.731-0.15831 17 42.5 17 42.5-15.307-21.808-23.645-10.165-32.5-1z" fill-rule="evenodd" transform="matrix(.27198 0 0 -.22878 29.005 1047.5)" filter="url(#filter12325)" fill="url(#radialGradient3250)"/>
  <g id="g2665" transform="matrix(1.7679 0 0 1.7679 26.304 982.04)">
   <g id="use12709" transform="matrix(.30013 0 0 .12879 -28.672 -2.6773)">
    <path id="path13214" d="m181 115a8.5 17 0 1 1 -17 0 8.5 17 0 1 1 17 0z" transform="matrix(.97998 0 0 1.1418 4.7534 -19.896)" fill="url(#radialGradient3246)"/>
    <path id="path13216" d="m170 119.75s0.97644 13.116 5.25 13.25c4.2253 0.13228 6-12.75 6-12.75-3.0256 4.18-4.5212 17.54-11.25-0.5z" fill-rule="evenodd" transform="matrix(.97998 0 0 .97054 1.8134 -.19923)" filter="url(#filter12535)" fill="url(#radialGradient3248)"/>
   </g>
   <path id="path2658" d="m326.94 57.594a0.40625 0.40625 0 1 1 -0.8125 0 0.40625 0.40625 0 1 1 0.8125 0z" transform="matrix(1.1402 0 0 1.1292 -348.81 -54.748)" fill="#eeeeec"/>
  </g>
  <path id="path2762" opacity=".99459" d="m126.5 187s2.2108-41.347 15.5-41.5c13.731-0.15831 17 42.5 17 42.5-15.307-21.808-23.645-10.165-32.5-1z" fill-rule="evenodd" transform="matrix(.27198 0 0 -.22878 -11.655 1047.5)" filter="url(#filter12325)" fill="url(#radialGradient3250)"/>
  <g id="g2764" transform="matrix(1.7679 0 0 1.7679 -16.14 982.04)">
   <g id="g2766" transform="matrix(.30013 0 0 .12879 -28.672 -2.6773)">
    <path id="path2768" d="m181 115a8.5 17 0 1 1 -17 0 8.5 17 0 1 1 17 0z" transform="matrix(.97998 0 0 1.1418 8.1132 -19.896)" fill="url(#radialGradient3246)"/>
    <path id="path2770" d="m170 119.75s0.97644 13.116 5.25 13.25c4.2253 0.13228 6-12.75 6-12.75-3.0256 4.18-4.5212 17.54-11.25-0.5z" fill-rule="evenodd" transform="matrix(.97998 0 0 .97054 5.1733 -.19923)" filter="url(#filter12535)" fill="url(#radialGradient3248)"/>
   </g>
   <path id="path2772" d="m326.94 57.594a0.40625 0.40625 0 1 1 -0.8125 0 0.40625 0.40625 0 1 1 0.8125 0z" transform="matrix(1.1402 0 0 1.1292 -347.8 -54.748)" fill="#eeeeec"/>
  </g>
  <g id="g4394" transform="matrix(-5.7301 2.8991 2.8991 5.7301 1349.3 -925.5)" fill="url(#radialGradient3238)">
   <path id="path4396" d="m187.05 69.59a9.496 6.218 0 1 1 -18.992 0 9.496 6.218 0 1 1 18.992 0z" transform="matrix(.083493 .027555 -.034539 .081529 305.81 160.85)"/>
   <path id="path4398" opacity=".60396" d="m187.05 69.59a9.496 6.218 0 1 1 -18.992 0 9.496 6.218 0 1 1 18.992 0z" transform="matrix(.10272 .036991 -.042813 .10853 303.09 157.38)"/>
  </g>
  <g id="g4408" transform="matrix(5.7687 2.394 -2.394 5.7687 -1352.5 -770.6)" fill="url(#radialGradient3238)">
   <path id="path4410" d="m187.05 69.59a9.496 6.218 0 1 1 -18.992 0 9.496 6.218 0 1 1 18.992 0z" transform="matrix(.082071 .032092 -.030023 .083006 305.58 159.79)"/>
   <path id="path4412" opacity=".60396" d="m187.05 69.59a9.496 6.218 0 1 1 -18.992 0 9.496 6.218 0 1 1 18.992 0z" transform="matrix(.10490 .040889 -.040834 .11201 302.42 156.38)"/>
  </g>
 </g>
</svg>
