<?xml version="1.0" encoding="UTF-8" standalone="no"?>
<!-- Created with Inkscape (http://www.inkscape.org/) -->
<svg id="svg2" xmlns:rdf="http://www.w3.org/1999/02/22-rdf-syntax-ns#" xmlns="http://www.w3.org/2000/svg" height="96" width="96" version="1.1" xmlns:cc="http://creativecommons.org/ns#" xmlns:xlink="http://www.w3.org/1999/xlink" xmlns:dc="http://purl.org/dc/elements/1.1/">
 <defs id="defs4">
  <linearGradient id="linearGradient22436" y2="2.9934" gradientUnits="userSpaceOnUse" x2="47.995" y1="104.5" x1="47.995">
   <stop id="stop22447" stop-color="#800000" offset="0"/>
   <stop id="stop22449" stop-color="#f58500" offset="1"/>
  </linearGradient>
 </defs>
 <metadata id="metadata7">
  <rdf:RDF>
   <cc:Work rdf:about="">
    <dc:format>image/svg+xml</dc:format>
    <dc:type rdf:resource="http://purl.org/dc/dcmitype/StillImage"/>
    <dc:title/>
   </cc:Work>
  </rdf:RDF>
 </metadata>
 <g id="layer1" transform="translate(0 -956.36)">
  <rect id="rect5263-0" fill-opacity=".019608" ry="12.724" height="89.978" width="89.978" y="959.35" x="2.9998"/>
  <rect id="rect5261-6" fill-opacity=".039216" ry="12.552" height="88.762" width="88.762" y="959.96" x="3.6078"/>
  <rect id="rect5259-9" fill-opacity=".078431" ry="12.38" height="87.546" width="87.546" y="960.57" x="4.2157"/>
  <rect id="rect5257-5" fill-opacity=".15686" ry="12.208" height="86.33" width="86.33" y="961.18" x="4.8237"/>
  <path id="rect2419-7" d="m17.469 5.4062c-6.668 0-12.032 5.3948-12.032 12.063l0.0005 61.031c0 6.668 5.3635 12.031 12.032 12.031h61.03c6.668 0 12.031-5.363 12.031-12.031v-61.031c0-6.668-5.363-12.063-12.031-12.063l-61.031 0.0002z" transform="translate(0 956.36)" fill="url(#linearGradient22436)"/>
  <path id="rect5265-0" d="m5.4316 1029.8v5.0663c0 6.668 5.3645 12.032 12.032 12.032h61.049c6.668 0 12.032-5.3645 12.032-12.032v-5.0663c0 6.6681-5.3645 12.032-12.032 12.032h-61.049c-6.668 0-12.032-5.3643-12.032-12.032z" fill-opacity=".11765"/>
  <path id="path5252-0" d="m5.4316 1033.9v1.0133c0 6.668 5.3645 12.032 12.032 12.032h61.049c6.668 0 12.032-5.3645 12.032-12.032v-1.0133c0 6.6681-5.3645 12.032-12.032 12.032h-61.049c-6.668 0-12.032-5.3644-12.032-12.032z" fill-opacity=".098039"/>
  <path id="path22169" style="enable-background:new" d="m47.875 972.04c-9.0099 0-16.312 7.0452-16.312 15.719 0.02191 0.994 0.02479 2.1074 0.125 3.3438-1.4259 0.784-1.6156 3.8465-0.34375 6.9375 0.49044 1.1918 1.1678 2.1531 1.8438 2.9375 0.02253 0.026 0.07106 0.068 0.09375 0.094 0.16135 0.8166 0.27362 1.4225 0.46875 2.3437 0.60448 1.8705 3.1129 5.413 5.3125 8.4376 0.21936 2.3332 0.22259 4.6585-0.21875 7.3125-5.9088 5.0564-20.422 7.48-22.312 12.344-0.008 0.022-0.0232 0.04-0.0313 0.063-0.47945 0.8517-0.75 1.83-0.75 2.875 0 0.6433 0.12213 1.2651 0.3125 1.8438 6.2602-1.5554 18.166-2.5938 31.844-2.5938 13.719 0 25.661 1.0307 31.906 2.5938 0.19229-0.5787 0.3125-1.2005 0.3125-1.8438 0-2.6195-1.7321-4.8268-4.125-5.625-5.1187-2.964-14.657-5.6489-19.125-9.6562-0.2532-2.1486-0.31639-4.2589-0.1875-6.375 1.9999-3.1819 4.6433-7.3044 5.3125-9.3751 0.24595-1.0724 0.37148-1.7979 0.5625-2.7187 0.59056-0.7445 1.1266-1.5968 1.5625-2.6563 1.2078-2.9353 1.0748-5.7657-0.15625-6.7187 0.08602-1.2754 0.18279-2.4725 0.21875-3.5625 0.000022-8.6736-7.3026-15.719-16.312-15.719z" fill="#501616"/>
  <path id="path3798-8" style="enable-background:new" d="m47.875 969.55c-0.52068 0-1.0231 0.0165-1.5312 0.0625-8.2857 0.75018-14.781 7.484-14.781 15.656 0.02191 0.994 0.02479 2.1074 0.125 3.3438-0.20109 0.11056-0.37997 0.27387-0.53125 0.46875-1.2806 0.66439-1.861 2.4826-0.6875 6.4688 0.52583 2.3856 1.5275 2.2687 2.25 2.375 0.0041 0.005 0.02718-0.005 0.03125 0 0.1485 0.1927 0.28706 0.3879 0.4375 0.5625 0.02253 0.026 0.07106 0.068 0.09375 0.094 0.16135 0.8166 0.27362 1.4225 0.46875 2.3437 0.24351 0.7535 0.84572 1.8157 1.5625 2.9688 1.1028 1.9859 2.551 4.3062 3.8125 6.3125 0.14416 2.0545 0.10688 4.1347-0.28125 6.4687-5.9088 5.0564-20.422 7.4801-22.312 12.344-0.008 0.022-0.02315 0.04-0.03125 0.063-0.0277 0.049-0.03621 0.1062-0.0625 0.1562-0.13181 0.2509-0.24908 0.5112-0.34375 0.7813-0.01455 0.041-0.01761 0.083-0.03125 0.125-0.08752 0.268-0.17043 0.5291-0.21875 0.8125-0.0035 0.02 0.0033 0.042 0 0.063-0.04846 0.3042-0.09375 0.6192-0.09375 0.9375 0 0.6433 0.12213 1.265 0.3125 1.8437 6.2602-1.5554 18.166-2.5937 31.844-2.5937 1.7148 0 3.4108 0 5.0625 0.031 0.01023 0.0002 0.02102-0.0002 0.03125 0 1.6406 0.031 3.2494 0.096 4.8125 0.1563 0.01011 0.0003 0.02114-0.0004 0.03125 0 1.5619 0.06 3.062 0.1314 4.5312 0.2187 0.01009 0.0006 0.02117-0.0006 0.03125 0 7.3826 0.4397 13.509 1.212 17.406 2.1875 0.19229-0.5787 0.3125-1.2004 0.3125-1.8437 0-0.317-0.04492-0.6344-0.09375-0.9375-0.0034-0.021 0.0036-0.041 0-0.063-0.04832-0.2834-0.13123-0.5445-0.21875-0.8125-0.01296-0.04-0.01747-0.086-0.03125-0.125-0.09467-0.2701-0.21194-0.5304-0.34375-0.7813-0.02629-0.05-0.03481-0.1071-0.0625-0.1562-0.0081-0.023-0.02325-0.04-0.03125-0.063-1.8903-4.8637-16.404-7.2874-22.312-12.344-0.38813-2.334-0.42541-4.4142-0.28125-6.4687 1.2615-2.0063 2.7097-4.3266 3.8125-6.3125 0.71678-1.1531 1.319-2.2153 1.5625-2.9688 0.19513-0.9212 0.3074-1.5271 0.46875-2.3437 0.02269-0.026 0.07122-0.068 0.09375-0.094 0.15044-0.1746 0.289-0.3698 0.4375-0.5625 0.01007-0.002 0.02106 0.001 0.03125 0 0.72254-0.10627 1.7242 0.0106 2.25-2.375 1.1735-3.9861 0.59307-5.8044-0.6875-6.4688-0.15128-0.19488-0.33016-0.35819-0.53125-0.46875 0.10021-1.2364 0.10309-2.3498 0.125-3.3438 0-8.1723-6.4956-14.906-14.781-15.656-0.54841-0.0537-1.0931-0.0625-1.6562-0.0625z" fill="#ececec"/>
 </g>
</svg>
