<?xml version="1.0" encoding="UTF-8" standalone="no"?>
<!-- Created with Inkscape (http://www.inkscape.org/) -->
<svg id="svg2" xmlns:rdf="http://www.w3.org/1999/02/22-rdf-syntax-ns#" xmlns="http://www.w3.org/2000/svg" height="96" width="96" version="1.1" xmlns:cc="http://creativecommons.org/ns#" xmlns:xlink="http://www.w3.org/1999/xlink" xmlns:dc="http://purl.org/dc/elements/1.1/">
 <defs id="defs4">
  <linearGradient id="linearGradient3756">
   <stop id="stop3758" stop-color="#fff" offset="0"/>
   <stop id="stop3760" stop-color="#fff" stop-opacity="0" offset="1"/>
  </linearGradient>
  <linearGradient id="linearGradient3692">
   <stop id="stop3694" offset="0"/>
   <stop id="stop3696" stop-opacity="0" offset="1"/>
  </linearGradient>
  <clipPath id="clipPath3613-94">
   <rect id="rect3615-98" rx="6" ry="6" height="84" width="84" y="6" x="6" fill="#fff"/>
  </clipPath>
  <filter id="filter3794-96" height="1.384" width="1.384" color-interpolation-filters="sRGB" y="-.192" x="-.192">
   <feGaussianBlur id="feGaussianBlur3796-0" stdDeviation="5.28"/>
  </filter>
  <linearGradient id="linearGradient5776" y2="5.9877" gradientUnits="userSpaceOnUse" x2="48" gradientTransform="matrix(1.1136 0 0 1.1684 -5.5483 -9.6645)" y1="90" x1="48">
   <stop id="stop3702-6" stop-color="#667981" offset="0"/>
   <stop id="stop3704-14" stop-color="#a4b2b8" offset="1"/>
  </linearGradient>
  <linearGradient id="linearGradient5800" y2="22.99" xlink:href="#linearGradient3692" gradientUnits="userSpaceOnUse" x2="49" y1="75" x1="49"/>
  <linearGradient id="linearGradient5802" y2="24" xlink:href="#linearGradient3692" gradientUnits="userSpaceOnUse" x2="47" y1="74" x1="47"/>
  <linearGradient id="linearGradient5804" y2="26" xlink:href="#linearGradient3692" gradientUnits="userSpaceOnUse" x2="52" y1="73" x1="51"/>
  <radialGradient id="radialGradient5806" gradientUnits="userSpaceOnUse" cy="58.667" cx="48" gradientTransform="matrix(1,0,0,1.5,0,-24)" r="16">
   <stop id="stop3719" stop-color="#fff" offset="0"/>
   <stop id="stop3721-5" stop-color="#93a3aa" offset="1"/>
  </radialGradient>
  <linearGradient id="linearGradient5808" y2="46.271" gradientUnits="userSpaceOnUse" x2="48.353" y1="24.342" x1="48.353">
   <stop id="stop3784" stop-color="#697c84" offset="0"/>
   <stop id="stop3786-9" stop-color="#697c84" stop-opacity="0" offset="1"/>
  </linearGradient>
  <linearGradient id="linearGradient5810" y2="22.683" gradientUnits="userSpaceOnUse" x2="41.864" y1="71.088" x1="41.646">
   <stop id="stop3746" stop-color="#fff" offset="0"/>
   <stop id="stop3748-0" stop-color="#fff" stop-opacity="0" offset="1"/>
  </linearGradient>
  <radialGradient id="radialGradient5812" xlink:href="#linearGradient3756" gradientUnits="userSpaceOnUse" cy="46.454" cx="55.598" gradientTransform="matrix(.94969 -.31318 1.2097 3.6681 -53.397 -103.87)" r="2.6137"/>
  <radialGradient id="radialGradient5814" xlink:href="#linearGradient3756" gradientUnits="userSpaceOnUse" cy="46.454" cx="55.598" gradientTransform="matrix(.39510 -.13029 .50325 1.5261 6.3824 -26.002)" r="2.6137"/>
  <linearGradient id="linearGradient5833" y2="138.66" gradientUnits="userSpaceOnUse" x2="48" y1="20.221" x1="48">
   <stop id="stop3739-09" stop-color="#fff" offset="0"/>
   <stop id="stop3741-3" stop-color="#fff" stop-opacity="0" offset="1"/>
  </linearGradient>
 </defs>
 <metadata id="metadata7">
  <rdf:RDF>
   <cc:Work rdf:about="">
    <dc:format>image/svg+xml</dc:format>
    <dc:type rdf:resource="http://purl.org/dc/dcmitype/StillImage"/>
    <dc:title/>
   </cc:Work>
  </rdf:RDF>
 </metadata>
 <g id="layer1" transform="translate(0 -956.36)">
  <rect id="rect5263-0" fill-opacity=".019608" ry="12.724" height="89.978" width="89.624" y="959.35" x="3.3534"/>
  <rect id="rect5261-6" fill-opacity=".039216" ry="12.552" height="88.762" width="88.413" y="959.96" x="3.9589"/>
  <rect id="rect5259-9" fill-opacity=".078431" ry="12.38" height="87.546" width="87.202" y="960.57" x="4.5645"/>
  <rect id="rect5257-5" fill-opacity=".15686" ry="12.208" height="86.33" width="85.991" y="961.18" x="5.1701"/>
  <path id="rect2419" d="m17.75 5.4062c-6.642 0-11.969 5.3948-11.969 12.063l0.0002 61.031c0 6.668 5.3268 12.031 11.969 12.031h60.812c6.642 0 11.969-5.363 11.969-12.031v-61.031c0-6.668-5.327-12.063-11.969-12.063l-60.812 0.0002z" transform="translate(0 956.36)" fill="url(#linearGradient5776)"/>
  <path id="rect5265-0" d="m5.7756 1029.8v5.0663c0 6.668 5.3434 12.032 11.985 12.032h60.809c6.6418 0 11.985-5.3645 11.985-12.032v-5.0663c0 6.6681-5.3434 12.032-11.985 12.032h-60.809c-6.6418 0-11.985-5.3643-11.985-12.032z" fill-opacity=".11765"/>
  <path id="path5252-0" d="m5.7756 1033.9v1.0133c0 6.668 5.3434 12.032 11.985 12.032h60.809c6.6418 0 11.985-5.3645 11.985-12.032v-1.0133c0 6.6681-5.3434 12.032-11.985 12.032h-60.809c-6.6418 0-11.985-5.3644-11.985-12.032z" fill-opacity=".098039"/>
  <rect id="rect3171-7" ry="12" stroke="#fff" stroke-linecap="round" stroke-width=".5" fill="url(#linearGradient5833)" rx="12" transform="matrix(.81468 0 0 .85702 9.6857 962)" width="66" opacity=".1" clip-path="url(#clipPath3613-94)" height="66" filter="url(#filter3794-96)" y="15" x="15"/>
  <g id="layer6" transform="translate(.79036 955.13)">
   <path id="path3688" opacity=".1" style="color:#000000" d="m47.656 22.938c-1.8514 0.37018-1.8924 2.6727-2.8563 3.9502-4.5798 8.1112-11.091 15.237-13.945 24.245-2.1206 6.3978-0.49444 13.905 4.381 18.631 5.5153 5.7156 14.926 6.9772 21.745 2.9007 7.016-3.907 11.077-13.115 8.071-20.767-2.676-6.656-7.731-11.937-11.349-18.057-1.762-2.897-3.463-6.004-3.734-9.435-0.259-0.995-1.304-1.61-2.313-1.468z" fill="url(#linearGradient5800)"/>
   <path id="path3684" opacity=".15" style="color:#000000" d="m47.844 24.062a0.93794 0.93794 0 0 0 -0.719 0.594c-1.534 3.988-5.505 9.244-9.125 14.844s-6.938 11.603-6.938 17.5c0 9.3434 7.5941 16.938 16.938 16.938 9.3434 0 16.938-7.5941 16.938-16.938 0-5.1822-4.0543-10.724-8-16.312-3.9457-5.5885-7.8037-11.203-8-15.719a0.93794 0.93794 0 0 0 -1.094 -0.907z" fill="url(#linearGradient5802)"/>
   <path id="path3679" opacity=".3" style="color:#000000" d="m48 25c-3.2512 8.4531-16 20.927-16 32 0 8.8366 7.1634 16 16 16s16-7.1634 16-16c0-9.32-15.567-22.03-16-32z" fill="url(#linearGradient5804)"/>
  </g>
  <g id="layer4" transform="translate(.79036 955.13)">
   <path id="path3663" style="color:#000000" d="m48 24c-3.2512 8.4531-16 20.927-16 32 0 8.8366 7.1634 16 16 16s16-7.1634 16-16c0-9.32-15.567-22.03-16-32z" fill="url(#radialGradient5806)"/>
   <path id="path3780" opacity=".8" style="color:#000000" d="m48 24c-2.884 7.497-13.227 18.147-15.531 28.188h30.812c-3.073-8.784-14.904-19.516-15.281-28.188z" fill="url(#linearGradient5808)"/>
   <path id="path3732" opacity=".4" d="m47.475 28.785c-6.306 9.531-16.643 22.631-13.22 30.129 4.114 2.411-3.262-5.926 13.22-30.129z" fill="#6b7d85"/>
   <path id="path3734" opacity=".6" d="m47.316 27.425c-8.831 14.936-13.628 18.643-14.391 28.019 0.205 15.156 14.391 15.699 14.391 15.699l-1.4173-8.8308s-3.4563 0.80742-5.9962-8.2857c-1.3805-4.9422 7.4135-26.601 7.4135-26.601z" fill="url(#linearGradient5810)"/>
   <path id="path3727" opacity=".3" style="color:#000000" d="m59.807 55.754c0 7.8754-6.0153 12.987-13.641 12.987-1.8712 0-3.6592-0.39331-5.2812-1.0625 2.1634 1.4167 4.7375 2.25 7.5312 2.25 7.6257 0 13.75-6.1243 13.75-13.75 0-3.4127-1.4977-6.154-7.4062-14.469 2.3384 5.5482 5.0472 6.1835 5.0472 14.044z" fill="#697c84"/>
   <path id="path3752" d="m41.973 68.635-1.308-6.868c-7.086-3.489-3.598-13.737-3.598-13.737s-7.7406 13.301 4.906 20.605z" fill="#fff"/>
   <path id="path3754" fill="url(#radialGradient5812)" d="m52.331 37.673c0.92985 4.8942 4.8817 8.6231 5.1142 11.497 0.7555 5.1272-2.499 2.8744-3.022 0.46611 0 0-1.511-5.438-2.0922-11.964z"/>
   <path id="path3766" opacity=".6" style="color:#000000" d="m60.156 51.562c0.23056 1.1939 0.40625 2.4724 0.40625 4.1875 0 6.911-4.5197 11.837-10.656 13.281 6.4901-0.74478 11.5-6.1412 11.5-12.844 0-1.4753-0.35588-2.7934-1.25-4.625z" fill="#697c84"/>
   <path id="path3769" opacity=".5" style="color:#000000" d="m48 24c-0.17598 0.45756-0.39689 0.92599-0.625 1.4062 2.417 9.549 15.625 21.006 15.625 29.594 0 8.837-7.163 16-16 16-4.162 0-7.935-1.614-10.781-4.219 2.925 3.197 7.106 5.219 11.781 5.219 8.837 0 16-7.163 16-16 0-9.32-15.567-22.03-16-32z" fill="#6a7d84"/>
   <path id="path3774" opacity=".5" d="m50.368 32.886c0.38684 2.0361 2.0309 3.5875 2.1276 4.7833 0.31431 2.1331-1.0396 1.1958-1.2572 0.19392 0 0-0.62862-2.2624-0.8704-4.9772z" fill="url(#radialGradient5814)"/>
  </g>
 </g>
</svg>
