<?xml version="1.0" encoding="UTF-8" standalone="no"?>
<!-- Created with Inkscape (http://www.inkscape.org/) -->
<svg id="svg2" xmlns:rdf="http://www.w3.org/1999/02/22-rdf-syntax-ns#" xmlns="http://www.w3.org/2000/svg" height="96" width="96" version="1.1" xmlns:cc="http://creativecommons.org/ns#" xmlns:xlink="http://www.w3.org/1999/xlink" xmlns:dc="http://purl.org/dc/elements/1.1/">
 <defs id="defs4">
  <linearGradient id="linearGradient3613-6" y2="138.66" gradientUnits="userSpaceOnUse" x2="48" y1="20.221" x1="48">
   <stop id="stop3739-73" stop-color="#fff" offset="0"/>
   <stop id="stop3741-93" stop-color="#fff" stop-opacity="0" offset="1"/>
  </linearGradient>
  <clipPath id="clipPath3613-5">
   <rect id="rect3615-80" rx="6" ry="6" height="84" width="84" y="6" x="6" fill="#fff"/>
  </clipPath>
  <filter id="filter3794-72" height="1.384" width="1.384" color-interpolation-filters="sRGB" y="-.192" x="-.192">
   <feGaussianBlur id="feGaussianBlur3796-97" stdDeviation="5.28"/>
  </filter>
  <linearGradient id="linearGradient3737-99">
   <stop id="stop3739-8" stop-color="#fff" offset="0"/>
   <stop id="stop3741-17" stop-color="#fff" stop-opacity="0" offset="1"/>
  </linearGradient>
  <linearGradient id="linearGradient3613-7" y2="138.66" xlink:href="#linearGradient3737-99" gradientUnits="userSpaceOnUse" x2="48" y1="20.221" x1="48"/>
  <clipPath id="clipPath3613-731">
   <rect id="rect3615-82" rx="6" ry="6" height="84" width="84" y="6" x="6" fill="#fff"/>
  </clipPath>
  <filter id="filter3794-63" height="1.384" width="1.384" color-interpolation-filters="sRGB" y="-.192" x="-.192">
   <feGaussianBlur id="feGaussianBlur3796-1" stdDeviation="5.28"/>
  </filter>
  <filter id="filter3850" color-interpolation-filters="sRGB">
   <feGaussianBlur id="feGaussianBlur3852" stdDeviation="0.46499996"/>
  </filter>
  <radialGradient id="radialGradient13618" xlink:href="#linearGradient3737-99" gradientUnits="userSpaceOnUse" cy="90.172" cx="48" gradientTransform="matrix(1.0449 0 0 .93759 -1.7757 956.32)" r="42"/>
  <linearGradient id="linearGradient13621" y2="63.893" xlink:href="#linearGradient3737-99" gradientUnits="userSpaceOnUse" x2="36.357" gradientTransform="matrix(.90288 0 0 .94144 5.042 956.14)" y1="6" x1="36.357"/>
  <linearGradient id="linearGradient13629" y2="5.9795" gradientUnits="userSpaceOnUse" x2="54.75" gradientTransform="matrix(.90288 0 0 .94144 5.042 956.14)" y1="90" x1="54.75">
   <stop id="stop3629" stop-color="#a91c1c" offset="0"/>
   <stop id="stop3631" stop-color="#dd2c2c" offset="1"/>
  </linearGradient>
  <linearGradient id="linearGradient13634" y2="28" gradientUnits="userSpaceOnUse" x2="84" gradientTransform="matrix(.90288 0 0 .94144 5.042 956.14)" y1="44" x1="84">
   <stop id="stop3808-1" stop-color="#4baa0c" offset="0"/>
   <stop id="stop3810" stop-color="#66d819" offset="1"/>
  </linearGradient>
  <linearGradient id="linearGradient13638" y2="9.9688" gradientUnits="userSpaceOnUse" x2="83" gradientTransform="matrix(.90288 0 0 .94144 5.042 956.14)" y1="26" x1="83">
   <stop id="stop3787-5" stop-color="#ff8e00" offset="0"/>
   <stop id="stop3789" stop-color="#ffcc0a" offset="1"/>
  </linearGradient>
  <linearGradient id="linearGradient13642" y2="45.969" gradientUnits="userSpaceOnUse" x2="84" gradientTransform="matrix(.90288 0 0 .94144 5.042 956.14)" y1="62" x1="84">
   <stop id="stop3816" stop-color="#2499b6" offset="0"/>
   <stop id="stop3818" stop-color="#57c3de" offset="1"/>
  </linearGradient>
  <linearGradient id="linearGradient13647" y2="8" gradientUnits="userSpaceOnUse" x2="88" gradientTransform="matrix(.90288 0 0 .94144 5.042 956.14)" y1="88" x1="88">
   <stop id="stop3768" stop-color="#d9d9d9" offset="0"/>
   <stop id="stop3770-9" stop-color="#fff" offset="1"/>
  </linearGradient>
  <linearGradient id="linearGradient13650" y2="5.9795" gradientUnits="userSpaceOnUse" x2="54.75" gradientTransform="matrix(.90288 0 0 .94144 5.042 956.14)" y1="90" x1="54.75">
   <stop id="stop3748-6" stop-color="#8b1717" offset="0"/>
   <stop id="stop3751-6" stop-color="#cc2121" offset="1"/>
  </linearGradient>
  <linearGradient id="linearGradient13730" y2="12.967" gradientUnits="userSpaceOnUse" x2="48.25" y1="83.324" x1="48.25">
   <stop id="stop13726" stop-color="#a00" offset="0"/>
   <stop id="stop13728" stop-color="#aa2e00" offset="1"/>
  </linearGradient>
 </defs>
 <metadata id="metadata7">
  <rdf:RDF>
   <cc:Work rdf:about="">
    <dc:format>image/svg+xml</dc:format>
    <dc:type rdf:resource="http://purl.org/dc/dcmitype/StillImage"/>
    <dc:title/>
   </cc:Work>
  </rdf:RDF>
 </metadata>
 <g id="layer1" transform="translate(0 -956.36)">
  <rect id="rect5263-0" fill-opacity=".019608" ry="12.724" height="89.978" width="89.624" y="959.35" x="3.3534"/>
  <rect id="rect5261-6" fill-opacity=".039216" ry="12.552" height="88.762" width="88.413" y="959.96" x="3.9589"/>
  <rect id="rect5259-9" fill-opacity=".078431" ry="12.38" height="87.546" width="87.202" y="960.57" x="4.5645"/>
  <rect id="rect5257-5" fill-opacity=".15686" ry="12.208" height="86.33" width="85.991" y="961.18" x="5.1701"/>
  <path id="rect2419" d="m17.75 5.4062c-6.642 0-11.969 5.3948-11.969 12.063l0.0002 61.031c0 6.668 5.3268 12.031 11.969 12.031h60.812c6.642 0 11.969-5.363 11.969-12.031v-61.031c0-6.668-5.327-12.063-11.969-12.063l-60.812 0.0002z" transform="translate(0 956.36)" fill="url(#linearGradient13730)"/>
  <path id="rect5265-0" d="m5.7756 1029.8v5.0663c0 6.668 5.3434 12.032 11.985 12.032h60.809c6.6418 0 11.985-5.3645 11.985-12.032v-5.0663c0 6.6681-5.3434 12.032-11.985 12.032h-60.809c-6.6418 0-11.985-5.3643-11.985-12.032z" fill-opacity=".11765"/>
  <path id="path5252-0" d="m5.7756 1033.9v1.0133c0 6.668 5.3434 12.032 11.985 12.032h60.809c6.6418 0 11.985-5.3645 11.985-12.032v-1.0133c0 6.6681-5.3434 12.032-11.985 12.032h-60.809c-6.6418 0-11.985-5.3644-11.985-12.032z" fill-opacity=".098039"/>
  <g id="layer5" transform="translate(-21.881 961.94)">
   <rect id="rect3171" height="66" stroke="#fff" stroke-linecap="round" stroke-width=".5" fill="url(#linearGradient3613-6)" rx="12" ry="12" width="66" opacity=".1" clip-path="url(#clipPath3613-5)" filter="url(#filter3794-72)" y="15" x="15"/>
  </g>
  <path id="rect3717" d="m70.049 961.79v79.081h10.835c3.0012 0 5.4173-2.5193 5.4173-5.6487v-67.784c0-3.1294-2.4161-5.6487-5.4173-5.6487h-10.835z" fill="url(#linearGradient13650)"/>
  <path id="path3729" d="m71.94 963.76v75.139h8.9441c1.9837 0 3.5269-1.6092 3.5269-3.6776v-67.784c0-2.0684-1.5432-3.6775-3.5269-3.6775h-8.9441z" fill="url(#linearGradient13647)"/>
  <path id="path3764" opacity=".1" d="m64.632 961.79v79.081h10.835c3.0012 0 5.4173-2.5193 5.4173-5.6487v-67.784c0-3.1294-2.4161-5.6487-5.4173-5.6487h-10.835z"/>
  <rect id="rect3779" style="color:#000000" rx="1.8058" ry="1.8829" height="15.063" width="7.223" y="999.44" x="76.369" fill="url(#linearGradient13642)"/>
  <path id="path3804" opacity=".2" style="color:#000000" d="m76.369 1011.7v0.9415c0 1.0431 0.80537 1.8829 1.8058 1.8829h3.6115c1.0004 0 1.8058-0.8398 1.8058-1.8829v-0.9415c0 1.0432-0.80537 1.883-1.8058 1.883h-3.6115c-1.0004 0-1.8058-0.8398-1.8058-1.883z"/>
  <rect id="rect3775" style="color:#000000" rx="1.8058" ry="1.8829" height="15.063" width="7.223" y="965.55" x="76.369" fill="url(#linearGradient13638)"/>
  <path id="rect3793" opacity=".2" style="color:#000000" d="m76.369 977.79v0.94145c0 1.0431 0.80537 1.8829 1.8058 1.8829h3.6115c1.0004 0 1.8058-0.83976 1.8058-1.8829v-0.94145c0 1.0431-0.80537 1.8829-1.8058 1.8829h-3.6115c-1.0004 0-1.8058-0.83977-1.8058-1.8829z"/>
  <rect id="rect3777" style="color:#000000" rx="1.8058" ry="1.8829" height="15.063" width="7.223" y="982.5" x="76.369" fill="url(#linearGradient13634)"/>
  <path id="path3802" opacity=".2" style="color:#000000" d="m76.369 994.74v0.94147c0 1.0431 0.80537 1.8829 1.8058 1.8829h3.6115c1.0004 0 1.8058-0.8398 1.8058-1.8829v-0.94147c0 1.0431-0.80537 1.8829-1.8058 1.8829h-3.6115c-1.0004 0-1.8058-0.83976-1.8058-1.8829z"/>
  <path id="path3759" opacity=".3" d="m63.729 961.79v79.081h10.835c3.0012 0 5.4173-2.5193 5.4173-5.6487v-67.784c0-3.1294-2.4161-5.6487-5.4173-5.6487h-10.835z"/>
  <rect id="rect2419-8" rx="5.4173" ry="5.6487" height="79.081" width="68.619" y="961.79" x="10.459" fill="url(#linearGradient13629)"/>
  <rect id="rect3650" opacity=".15" height="79.081" width=".90288" y="961.79" x="26.711" fill="#fff"/>
  <rect id="rect3648" opacity=".4" height="79.081" width=".90288" y="961.79" x="25.808"/>
  <path id="rect3728" opacity=".3" d="m15.877 961.79c-3.4763-0.12742-5.9307 3.5237-5.4173 6.9255 0.01644 22.323-0.03278 44.647 0.02456 66.969-0.77529 2.1637 4.0569 5.469 2.9662 4.4513-2.8939-1.8724-1.916-5.6697-2.0879-8.6212 0.01544-21.206-0.03079-42.414 0.02311-63.619 0.18861-3.0683 3.2623-4.6527 5.9199-4.2228 18.94 0.0161 37.881-0.0321 56.82 0.0241 2.9426 0.19668 4.4621 3.4017 4.0498 6.1728-0.02112 22.267 0.04235 44.537-0.03178 66.802 0.37283 2.2888-4.6524 5.2042-0.98208 2.816 2.7662-2.3694 1.7057-6.3181 1.9167-9.5535-0.01859-21.025 0.03712-42.052-0.0279-63.075-0.22658-3.5155-3.703-5.5542-6.8181-5.0695h-56.356z" fill="url(#linearGradient13621)"/>
  <path id="path3615" opacity=".2" d="m15.877 1040.9c-3.4763 0.1273-5.9307-3.5237-5.4173-6.9255 0.01644-22.323-0.03278-44.647 0.02456-66.969-0.77529-2.1638 4.0569-5.4689 2.9662-4.4513-2.8939 1.8724-1.916 5.6697-2.0879 8.6211 0.01544 21.206-0.03079 42.414 0.02311 63.619 0.18861 3.0684 3.2623 4.6528 5.9199 4.2227 18.94-0.016 37.881 0.032 56.82-0.024 2.9426-0.1967 4.4621-3.4017 4.0498-6.1728-0.02112-22.267 0.04235-44.537-0.03178-66.802 0.37283-2.2889-4.6524-5.2044-0.98208-2.816 2.7662 2.3694 1.7057 6.3181 1.9167 9.5535-0.01859 21.025 0.03712 42.052-0.0279 63.075-0.22658 3.5155-3.703 5.5541-6.8181 5.0695h-56.356z" fill="url(#radialGradient13618)"/>
  <g id="layer5-0" transform="matrix(.90288 0 0 .94144 5.042 956.14)">
   <rect id="rect3171-1" height="66" stroke="#fff" stroke-linecap="round" stroke-width=".5" fill="url(#linearGradient3613-7)" rx="12" ry="12" width="66" opacity=".1" clip-path="url(#clipPath3613-731)" filter="url(#filter3794-63)" y="15" x="15"/>
  </g>
  <g id="layer3" transform="matrix(1.3003 0 0 1.3558 -16.02 936.25)">
   <path id="path3854" opacity=".3" d="m39.844 29.188a0.82494 0.82494 0 0 0 -0.656 0.812v36a0.82494 0.82494 0 0 0 0.812 0.812h11.812c2.1121 0 4.0777-0.41946 5.9062-1.25 1.8505-0.83386 3.4657-2.0613 4.8125-3.6875 1.3464-1.6257 2.3985-3.6219 3.1562-5.9688 0.76401-2.3842 1.125-5.1232 1.125-8.1875-0.000033-3.1316-0.35941-5.8448-1.1562-8.1875a0.82494 0.82494 0 0 0 0 -0.03125c-0.79055-2.3239-1.9183-4.2375-3.375-5.7812-1.4541-1.5409-3.2169-2.698-5.2188-3.4375-1.9864-0.73366-4.1483-1.0937-6.5-1.0938h-10.562a0.82494 0.82494 0 0 0 -0.15625 0zm7.0625 7.4375h3.5312c1.304 0.000028 2.4633 0.20881 3.5 0.625a0.82494 0.82494 0 0 0 0 0.03125c1.0312 0.40914 1.9054 1.0259 2.6562 1.9062 0.73799 0.85019 1.353 1.997 1.7812 3.4062 0.43535 1.3908 0.65623 3.0872 0.65625 5.125-0.00002 1.9863-0.21053 3.7327-0.625 5.1875-0.40564 1.4696-0.9827 2.6619-1.6875 3.625-0.69548 0.95203-1.4822 1.6285-2.4062 2.0938-0.92289 0.47084-1.9304 0.75001-3.0312 0.75h-4.375v-22.75z" filter="url(#filter3850)" fill="#faa"/>
   <path id="path3827" fill="#fff" d="m66 47.732c-0.000032 2.9979-0.36574 5.638-1.0971 7.9205-0.73145 2.2654-1.732 4.1647-3.0016 5.6977-1.2697 1.533-2.7739 2.6913-4.5127 3.4748-1.7251 0.78353-3.5881 1.1753-5.5892 1.1753h-11.799v-36h10.557c2.2633 0.000039 4.3402 0.34924 6.2309 1.0476 1.8906 0.6984 3.5191 1.7715 4.8853 3.2193 1.3662 1.4479 2.4288 3.2875 3.1879 5.5188 0.759 2.2314 1.1385 4.8801 1.1385 7.9461m-6.1481 0c-0.000021-2.0951-0.23462-3.8921-0.70382-5.3911-0.45543-1.4989-1.0972-2.7253-1.9252-3.6792-0.82805-0.97087-1.8217-1.6863-2.9809-2.1462-1.1455-0.45987-2.4151-0.68982-3.8089-0.68985h-4.3264v24.349h5.1752c1.2282 0.000009 2.3599-0.26399 3.3949-0.79205 1.0488-0.52803 1.9527-1.3116 2.7118-2.3506 0.7728-1.0561 1.3731-2.3591 1.801-3.9092 0.44159-1.55 0.6624-3.347 0.66242-5.3911"/>
   <path id="path3838" opacity=".25" d="m40 30v1h10.562c2.2633 0.000039 4.3281 0.36418 6.2188 1.0625 1.8906 0.6984 3.54 1.7709 4.9062 3.2188s2.4285 3.2687 3.1875 5.5c0.71627 2.1058 1.0847 4.5884 1.125 7.4375 0.0024-0.16884-0.000002-0.32883 0-0.5-0.000032-3.066-0.366-5.7061-1.125-7.9375-0.75905-2.2313-1.8213-4.0521-3.1875-5.5-1.365-1.449-3.014-2.521-4.905-3.22-1.89-0.698-3.955-1.062-6.219-1.062h-10.562zm19.844 18.219c-0.03374 1.836-0.25144 3.4853-0.65625 4.9062-0.42784 1.55-1.0397 2.8502-1.8125 3.9062-0.75904 1.039-1.6387 1.8157-2.6875 2.3438-1.035 0.52806-2.178 0.81251-3.4062 0.8125h-5.1875v1h5.1875c1.2282 0.000009 2.3712-0.28444 3.4062-0.8125 1.0488-0.52803 1.9285-1.3047 2.6875-2.3438 0.7728-1.0561 1.3847-2.3562 1.8125-3.9062 0.44159-1.55 0.65623-3.3622 0.65625-5.4062-0.000002-0.17451 0.0033-0.32962 0-0.5z"/>
   <path id="path3843" fill="#941a1a" d="m40 29v1h10.562c2.2633 0.000039 4.3281 0.36418 6.2188 1.0625 1.8906 0.6984 3.54 1.7709 4.9062 3.2188s2.4285 3.2687 3.1875 5.5c0.71627 2.1058 1.0847 4.5884 1.125 7.4375 0.0024-0.16884-0.000002-0.32883 0-0.5-0.000032-3.066-0.366-5.7061-1.125-7.9375-0.75905-2.2313-1.8213-4.0521-3.1875-5.5-1.365-1.449-3.014-2.521-4.905-3.22-1.89-0.698-3.955-1.062-6.219-1.062h-10.562zm19.844 18.219c-0.03374 1.836-0.25144 3.4853-0.65625 4.9062-0.42784 1.55-1.0397 2.8502-1.8125 3.9062-0.75904 1.039-1.6387 1.8157-2.6875 2.3438-1.035 0.52806-2.178 0.81251-3.4062 0.8125h-5.1875v1h5.1875c1.2282 0.000009 2.3712-0.28444 3.4062-0.8125 1.0488-0.52803 1.9285-1.3047 2.6875-2.3438 0.7728-1.0561 1.3847-2.3562 1.8125-3.9062 0.44159-1.55 0.65623-3.3622 0.65625-5.4062-0.000002-0.17451 0.0033-0.32962 0-0.5z"/>
  </g>
 </g>
</svg>
