<?xml version="1.0" encoding="UTF-8" standalone="no"?>
<!-- Created with Inkscape (http://www.inkscape.org/) -->
<svg id="svg2" xmlns:rdf="http://www.w3.org/1999/02/22-rdf-syntax-ns#" xmlns="http://www.w3.org/2000/svg" height="96" width="96" version="1.1" xmlns:cc="http://creativecommons.org/ns#" xmlns:xlink="http://www.w3.org/1999/xlink" xmlns:dc="http://purl.org/dc/elements/1.1/">
 <defs id="defs4">
  <linearGradient id="linearGradient3613-57" y2="138.66" gradientUnits="userSpaceOnUse" x2="48" y1="20.221" x1="48">
   <stop id="stop3739-921" stop-color="#fff" offset="0"/>
   <stop id="stop3741-88" stop-color="#fff" stop-opacity="0" offset="1"/>
  </linearGradient>
  <clipPath id="clipPath3613-82">
   <rect id="rect3615-88" rx="6" ry="6" height="84" width="84" y="6" x="6" fill="#fff"/>
  </clipPath>
  <filter id="filter3794-71" height="1.384" width="1.384" color-interpolation-filters="sRGB" y="-.192" x="-.192">
   <feGaussianBlur id="feGaussianBlur3796-951" stdDeviation="5.28"/>
  </filter>
  <linearGradient id="linearGradient3731">
   <stop id="stop3733" stop-color="#520" offset="0"/>
   <stop id="stop3735" stop-color="#520" stop-opacity="0" offset="1"/>
  </linearGradient>
  <linearGradient id="linearGradient3707-0">
   <stop id="stop3709" stop-color="#a8d4fb" offset="0"/>
   <stop id="stop3711-8" stop-color="#dff0fa" offset="1"/>
  </linearGradient>
  <linearGradient id="linearGradient3724">
   <stop id="stop3726" stop-color="#0d82e4" offset="0"/>
   <stop id="stop3728" stop-color="#bcdbf7" offset="1"/>
  </linearGradient>
  <linearGradient id="linearGradient3757">
   <stop id="stop3759" stop-color="#389bed" offset="0"/>
   <stop id="stop3761" stop-color="#c2e5fc" offset="1"/>
  </linearGradient>
  <linearGradient id="linearGradient15160" y2="5.9877" gradientUnits="userSpaceOnUse" x2="48" gradientTransform="matrix(1.0833 0 0 1.0833 -4.3849 -4.3937)" y1="90" x1="48">
   <stop id="stop3702-96" stop-color="#eec00f" offset="0"/>
   <stop id="stop3704-40" stop-color="#fff8a0" offset="1"/>
  </linearGradient>
  <linearGradient id="linearGradient15182" y2="21.944" xlink:href="#linearGradient3731" gradientUnits="userSpaceOnUse" x2="53.246" gradientTransform="translate(-109.88 856.47)" y1="77.265" x1="53.246"/>
  <linearGradient id="linearGradient15188" y2="28.007" xlink:href="#linearGradient3731" gradientUnits="userSpaceOnUse" x2="48.322" gradientTransform="translate(-109.88 857.47)" y1="74.688" x1="47.835"/>
  <linearGradient id="linearGradient15190" y2="33.305" gradientUnits="userSpaceOnUse" x2="76.624" gradientTransform="translate(-109.88 856.47)" y1="33.305" x1="47.917">
   <stop id="stop3742" stop-color="#5cacf5" offset="0"/>
   <stop id="stop3744" stop-color="#abd4f4" offset="1"/>
  </linearGradient>
  <linearGradient id="linearGradient15192" y2="33.25" gradientUnits="userSpaceOnUse" x2="47.995" gradientTransform="translate(-109.88 856.47)" y1="33.25" x1="19.288">
   <stop id="stop3751-0" stop-color="#5aabf2" offset="0"/>
   <stop id="stop3753-9" stop-color="#badaf5" offset="1"/>
  </linearGradient>
  <linearGradient id="linearGradient15194" y2="47.979" xlink:href="#linearGradient3707-0" gradientUnits="userSpaceOnUse" x2="48.035" gradientTransform="translate(-109.88 856.47)" y1="47.979" x1="31"/>
  <linearGradient id="linearGradient15196" y2="59.065" xlink:href="#linearGradient3724" gradientUnits="userSpaceOnUse" x2="48.112" gradientTransform="translate(-109.88 856.47)" y1="59.065" x1="27.395"/>
  <linearGradient id="linearGradient15198" y2="47.979" xlink:href="#linearGradient3707-0" gradientUnits="userSpaceOnUse" x2="65.112" gradientTransform="translate(-109.88 856.47)" y1="47.979" x1="48.077"/>
  <linearGradient id="linearGradient15200" y2="59.065" xlink:href="#linearGradient3724" gradientUnits="userSpaceOnUse" x2="69.018" gradientTransform="translate(-109.88 856.47)" y1="59.065" x1="48"/>
  <linearGradient id="linearGradient15202" y2="53.65" xlink:href="#linearGradient3757" gradientUnits="userSpaceOnUse" x2="76.734" gradientTransform="translate(-109.88 856.47)" y1="53.65" x1="47.917"/>
  <linearGradient id="linearGradient15204" y2="53.65" xlink:href="#linearGradient3757" gradientUnits="userSpaceOnUse" x2="47.886" gradientTransform="translate(-109.88 856.47)" y1="53.65" x1="19.069"/>
  <linearGradient id="linearGradient15206" y2="59.065" gradientUnits="userSpaceOnUse" x2="48.112" gradientTransform="translate(-109.88 856.47)" y1="59.065" x1="31.085">
   <stop id="stop3786-99" stop-color="#1b8cee" offset="0"/>
   <stop id="stop3788-6" stop-color="#79b8e8" offset="1"/>
  </linearGradient>
  <linearGradient id="linearGradient15208" y2="59.065" gradientUnits="userSpaceOnUse" x2="69.018" gradientTransform="translate(-109.88 856.47)" y1="59.065" x1="48">
   <stop id="stop3803" stop-color="#107cd9" offset="0"/>
   <stop id="stop3805" stop-color="#79b8e8" offset="1"/>
  </linearGradient>
 </defs>
 <metadata id="metadata7">
  <rdf:RDF>
   <cc:Work rdf:about="">
    <dc:format>image/svg+xml</dc:format>
    <dc:type rdf:resource="http://purl.org/dc/dcmitype/StillImage"/>
    <dc:title/>
   </cc:Work>
  </rdf:RDF>
 </metadata>
 <g id="layer1" transform="translate(0 -956.36)">
  <rect id="rect5263-0" fill-opacity=".019608" ry="12.724" height="89.978" width="89.624" y="959.35" x="3.3534"/>
  <rect id="rect5261-6" fill-opacity=".039216" ry="12.552" height="88.762" width="88.413" y="959.96" x="3.9589"/>
  <rect id="rect5259-9" fill-opacity=".078431" ry="12.38" height="87.546" width="87.202" y="960.57" x="4.5645"/>
  <rect id="rect5257-5" fill-opacity=".15686" ry="12.208" height="86.33" width="85.991" y="961.18" x="5.1701"/>
  <path id="rect2419-9" d="m17.75 5.4062c-6.642 0-11.969 5.3948-11.969 12.063l0.0002 61.031c0 6.668 5.3268 12.031 11.969 12.031h60.812c6.642 0 11.969-5.363 11.969-12.031v-61.031c0-6.668-5.327-12.063-11.969-12.063l-60.812 0.0002z" transform="translate(0 956.36)" fill="url(#linearGradient15160)"/>
  <path id="rect5265-0" d="m5.7756 1029.8v5.0663c0 6.668 5.3434 12.032 11.985 12.032h60.809c6.6418 0 11.985-5.3645 11.985-12.032v-5.0663c0 6.6681-5.3434 12.032-11.985 12.032h-60.809c-6.6418 0-11.985-5.3643-11.985-12.032z" fill-opacity=".11765"/>
  <path id="path5252-0" d="m5.7756 1033.9v1.0133c0 6.668 5.3434 12.032 11.985 12.032h60.809c6.6418 0 11.985-5.3645 11.985-12.032v-1.0133c0 6.6681-5.3434 12.032-11.985 12.032h-60.809c-6.6418 0-11.985-5.3644-11.985-12.032z" fill-opacity=".098039"/>
  <g id="layer5" transform="translate(-109.88 856.47)">
   <rect id="rect3171" height="66" stroke="#fff" stroke-linecap="round" stroke-width=".5" fill="url(#linearGradient3613-57)" rx="12" ry="12" width="66" opacity=".1" clip-path="url(#clipPath3613-82)" filter="url(#filter3794-71)" y="15" x="15"/>
  </g>
  <g id="g15162" transform="translate(110 97)">
   <path id="path3771-9" opacity=".05" style="color:#000000" d="m-73.822 877a1.0566 1.0566 0 0 0 -0.375 0.0937c-3.2369 1.5476-6.0599 3.6712-9 5.3125a1.0566 1.0566 0 0 0 -0.0625 0.0313c-3.1879 2.0275-6.6549 3.8639-9.8438 6.1562a1.0566 1.0566 0 0 0 -0.1875 0.1875c-0.54835 0.67232-0.8438 1.4182-0.84375 2.1562 0.000045 0.73807 0.27353 1.3975 0.625 1.9375 0.66688 1.0246 1.5999 1.7322 2.3125 2.3125 0.0357 0.0421 0.08814 0.0833 0.125 0.125 1.1221 1.268 2.7517 2.3167 4.1562 3.375 1.2435 0.937 1.9064 1.7777 2.1875 2.3125-2.9262 2.3955-6.0589 4.6443-8.9062 7.3125a1.0566 1.0566 0 0 0 -0.21875 0.28125c-0.45936 0.84228-0.59307 1.7192-0.40625 2.5 0.18682 0.78078 0.64554 1.3912 1.1562 1.875 1.0214 0.96752 2.3166 1.5799 3.0938 2.0938a1.0566 1.0566 0 0 0 0.03125 0c2.5467 1.6286 5.0905 3.2247 7.5938 4.875-0.0587 1.1858 0.25115 2.2876 0.9375 3.0625 0.82555 0.93202 1.9166 1.5479 2.8438 2.0312v0.0313c0.03759 0.0264 0.08741 0.0361 0.125 0.0625 5.0142 3.5174 9.9733 7.1878 15.125 10.562a1.0566 1.0566 0 0 0 0.3125 0.15625c1.5131 0.42354 2.8548-0.21468 3.8438-0.90625 0.9889-0.69157 1.8188-1.4568 2.5-1.8125a1.0566 1.0566 0 0 0 0.125 -0.0937c4.6717-3.3871 9.5498-6.5333 14.219-10.062a1.0566 1.0566 0 0 0 0.3125 -0.375c0.56722-1.1389 0.67565-2.1908 0.90625-2.8125 0.2306-0.62173 0.36201-0.85658 1.375-1.125a1.0566 1.0566 0 0 0 0.3125 -0.15625c2.909-1.9242 6.081-3.6436 8.9688-5.875a1.0566 1.0566 0 0 0 0.21875 -0.25c0.86933-1.2635 0.66808-2.7806 0.03125-3.8125-0.595-0.96409-1.4957-1.6165-2.3125-2.125l0.03125-0.0313c-0.05337-0.048-0.13331-0.0771-0.1875-0.125-2.1992-1.9455-4.8634-3.8164-6.5312-5.5 2.907-2.5217 6.0044-4.9483 8.8125-7.6875a1.0566 1.0566 0 0 0 0.1875 -0.28125c0.48028-0.93358 0.58768-1.8947 0.3125-2.7188-0.27518-0.82406-0.83601-1.4529-1.4375-1.9375-1.203-0.9692-2.7194-1.5972-3.4688-2.125a1.0566 1.0566 0 0 0 -0.0625 -0.0313c-4.8004-2.8829-9.5316-5.8985-14.438-8.6875a1.0566 1.0566 0 0 0 -0.3125 -0.125c-1.6135-0.34663-2.9416 0.45402-3.875 1.2812-0.93338 0.82723-1.6878 1.7058-2.3438 2.0938a1.0566 1.0566 0 0 0 -0.0625 0.0313c-1.2677 0.88222-2.4344 2.0989-3.5625 3.125-0.98878 0.8994-1.9036 1.4707-2.6562 1.7812-3.2119-2.6342-6.2603-5.6482-9.75-8.1562a1.0566 1.0566 0 0 0 -0.21875 -0.125c-0.68555-0.27777-1.2818-0.21678-1.625-0.21875a1.0566 1.0566 0 0 0 -0.09375 0z" fill="url(#linearGradient15182)"/>
   <path id="path3746" opacity=".1" style="color:#000000" d="m-73.729 878.06c-3.112 1.4879-5.9473 3.587-8.9687 5.2737-3.2381 2.0594-6.6736 3.8673-9.7813 6.1013-1.718 2.1064 0.61501 3.8339 2.0963 5.055 1.8977 2.2382 6.709 4.4744 7.0466 6.7149-3.1653 2.6551-6.576 5.071-9.5804 7.8864-1.4596 2.6764 1.7497 3.9315 3.5048 5.0919 2.6793 1.7134 5.376 3.4 8.0265 5.1581-0.71134 2.3767 1.5658 3.914 3.375 4.8438 5.0651 3.5506 10.092 7.246 15.25 10.625 2.261 0.63287 3.7706-1.6828 5.5548-2.6145 4.7026-3.4096 9.5993-6.5754 14.226-10.073 0.93001-1.8673 0.38408-3.8168 2.9341-4.4925 2.9586-1.9569 6.1102-3.6881 8.9096-5.8513 1.288-1.8721-0.57484-3.6894-2.0938-4.5938-2.3785-2.1395-5.8111-4.273-7.5625-6.4062 3.1891-2.8238 6.5919-5.4788 9.625-8.4375 1.5324-2.9786-2.4061-4.13-4.2429-5.4236-4.8163-2.8924-9.5695-5.9299-14.445-8.7014-2.4178-0.51941-3.6759 2.184-5.4777 3.2495-2.2842 1.5896-4.6385 4.717-6.9048 5.3275-3.4801-2.7848-6.6797-6.0252-10.274-8.6082-0.39254-0.15905-0.80892-0.12265-1.2188-0.125z" fill="url(#linearGradient15182)"/>
   <path id="path3728" opacity=".15" style="color:#000000" d="m-73.572 879a0.80774 0.80774 0 0 0 -0.3125 0.125c-5.8648 3.5262-11.845 7.1417-17.688 10.75a0.80774 0.80774 0 0 0 -0.21875 0.21875c-0.27902 0.38536-0.40175 0.92102-0.28125 1.3438 0.1205 0.42273 0.38831 0.68367 0.625 0.90625 0.47338 0.44516 1.0082 0.77816 1.125 0.90625a0.80774 0.80774 0 0 0 0.0625 0.0937c2.9587 2.5383 5.985 4.9805 8.875 7.5312-0.02031 0.0158-0.0067 0.0141-0.03125 0.0313-0.23212 0.1619-0.63652 0.42573-1 0.8125l-0.03125-0.0313c-3.1479 2.5522-6.332 5.0614-9.4688 7.6562a0.80774 0.80774 0 0 0 -0.1875 0.21875c-0.21936 0.38337-0.29698 0.88995-0.15625 1.2812 0.14073 0.3913 0.38662 0.65486 0.625 0.84375 0.47676 0.37778 1.0172 0.5962 1.1875 0.71875a0.80774 0.80774 0 0 0 0.03125 0.0313c3.332 2.1532 6.7081 4.195 9.9688 6.375 0.06811 0.42671-0.09472 1.0598-0.03125 1.9688a0.80774 0.80774 0 0 0 0.125 0.375c0.8194 1.2284 2.2363 1.6871 2.9062 2.2812a0.80774 0.80774 0 0 0 0.0625 0.0625c4.9201 3.4347 9.8425 6.9598 14.781 10.344a0.80774 0.80774 0 0 0 0.34375 0.125c0.82224 0.13677 1.4639-0.29851 1.9062-0.65625 0.44234-0.35774 0.79005-0.65743 1-0.75a0.80774 0.80774 0 0 0 0.15625 -0.0937c5.084-3.6447 10.303-7.2242 15.375-10.812a0.80774 0.80774 0 0 0 0.125 -0.125c0.31984-0.34905 0.43723-0.78979 0.46875-1.1562 0.03152-0.36646 0.000202-0.65964-0.03125-0.9375-0.05872-0.51871-0.02865-0.77065 0.03125-0.875 3.6835-2.3779 7.4705-4.6911 11.125-7.1562a0.80774 0.80774 0 0 0 0.3125 -0.34375c0.17911-0.43628 0.14916-0.96929-0.03125-1.3438-0.18041-0.37446-0.43901-0.61608-0.6875-0.8125-0.49698-0.39284-0.99354-0.69482-1.0938-0.8125a0.80774 0.80774 0 0 0 -0.125 -0.0937c-2.9265-2.3959-5.8992-4.7136-8.75-7.125 0.01889-0.0152 0.0088-0.0148 0.03125-0.0313 0.23278-0.17032 0.64318-0.4034 1-0.8125l0.03125 0.0313c3.0847-2.663 6.2611-5.3045 9.3125-8.0312a0.80774 0.80774 0 0 0 0.1875 -0.25c0.19071-0.41046 0.20983-0.93253 0.03125-1.3125s-0.46492-0.60766-0.71875-0.78125c-0.50766-0.34718-1.0193-0.58294-1.1562-0.6875a0.80774 0.80774 0 0 0 -0.09375 -0.0313c-5.3605-3.2265-10.715-6.578-16.094-9.75a0.80774 0.80774 0 0 0 -0.28125 -0.125c-0.84476-0.12118-1.4598 0.41006-1.875 0.8125-0.41521 0.40244-0.77933 0.79727-0.96875 0.90625a0.80774 0.80774 0 0 0 -0.125 0.0625c-2.9283 2.482-5.7858 5.031-8.7188 7.4375-0.08758-0.042-0.13776-0.0428-0.3125-0.21875-0.2388-0.24048-0.54976-0.61283-1-0.90625-0.03934-0.0333-0.08567-0.0604-0.125-0.0937-3.0639-2.5954-6.1285-5.3398-9.25-7.875a0.80774 0.80774 0 0 0 -0.28125 -0.15625c-0.26325-0.0791-0.47024-0.068-0.625-0.0625a0.80774 0.80774 0 0 0 -0.0625 0z" fill="url(#linearGradient15182)"/>
   <path id="path3720" opacity=".3" style="color:#000000" d="m-73.479 879.81c-0.03257 0.007 0.000838 0.022-0.03125 0.0313-0.03209 0.009-0.03101-0.0111-0.0625 0s-0.000457 0.0183-0.03125 0.0313c-0.03079 0.0129-0.0013-0.0147-0.03125 0-0.02999 0.0147-0.0022 0.0148-0.03125 0.0313-0.02908 0.0164-0.0032-0.0181-0.03125 0a0.49999 0.49999 0 0 1 -0.03125 0.0313l-17.25 10.5c-0.02886 0.0176-0.0035-0.0193-0.03125 0-0.02777 0.0193-0.0047 0.0104-0.03125 0.0313-0.02658 0.0209-0.0059 0.009-0.03125 0.0313-0.02531 0.0224-0.0073 0.007-0.03125 0.0313-0.02394 0.0239-0.0088 0.006-0.03125 0.0313-0.02249 0.0252-0.01028 0.005-0.03125 0.0313-0.02097 0.0265-0.01188 0.004-0.03125 0.0313-0.01937 0.0277 0.0177 0.002 0 0.0313-0.0177 0.0288-0.01528 0.002-0.03125 0.0313-0.01597 0.0298-0.01706 0.0318-0.03125 0.0625s0.01235-0.00022 0 0.0313c-0.01235 0.0315-0.02077-0.00089-0.03125 0.0313-0.01048 0.0321 0.0086-0.001 0 0.0313-0.0086 0.0327 0.0066 0.0294 0 0.0625-0.0066 0.0332 0.0047-0.002 0 0.0313-0.0047 0.0335-0.02858-0.002-0.03125 0.0313-0.0027 0.0337 0.000683 0.0287 0 0.0625s-0.0013-0.002 0 0.0313c0.0013 0.0338-0.0033 0.0289 0 0.0625s0.02597-0.002 0.03125 0.0313c0.0053 0.0334-0.0072-0.002 0 0.0313 0.0072 0.033-0.0092 0.03 0 0.0625s0.02018-0.00069 0.03125 0.0313c0.01107 0.0319-0.01293 0.00002 0 0.0313 0.01293 0.0312 0.0165 0.00084 0.03125 0.0313 0.01475 0.0304-0.01652 0.033 0 0.0625s0.01302 0.003 0.03125 0.0313c0.01823 0.0285 0.01137 0.004 0.03125 0.0313s0.0098 0.005 0.03125 0.0313c0.02145 0.0261-0.02296 0.006 0 0.0313 0.02296 0.0248 0.0069 0.008 0.03125 0.0313 0.02438 0.0234 0.0055 0.009 0.03125 0.0313l10.5 8.875a0.49999 0.49999 0 0 1 0 0.75l-10.688 8.5938c-0.02626 0.0211-0.0063 0.009-0.03125 0.0313-0.02498 0.0226-0.0076 0.007-0.03125 0.0313-0.0236 0.0241-0.0091 0.006-0.03125 0.0313-0.02215 0.0254-0.01064 0.005-0.03125 0.0313-0.02061 0.0267-0.01224 0.003-0.03125 0.0313-0.01901 0.0278 0.01734 0.0336 0 0.0625s-0.01563 0.001-0.03125 0.0313c-0.01562 0.0299-0.01742 0.00051-0.03125 0.0313-0.01383 0.0307 0.012-0.00025 0 0.0313-0.012 0.0315-0.02112-0.0009-0.03125 0.0313s0.0082 0.0298 0 0.0625 0.0063-0.002 0 0.0313c-0.0063 0.0331 0.0043-0.002 0 0.0313-0.0043 0.0334-0.02889 0.0289-0.03125 0.0625-0.0024 0.0336 0.000378-0.002 0 0.0313-0.000378 0.0337-0.0016 0.0288 0 0.0625s0.02767-0.002 0.03125 0.0313c0.0036 0.0335-0.0055-0.002 0 0.0313s-0.0075 0.0296 0 0.0625-0.0094-0.001 0 0.0313c0.0094 0.0324 0.01996-0.00051 0.03125 0.0313 0.01129 0.0318-0.01314 0.00021 0 0.0313 0.01314 0.031 0.01631 0.0323 0.03125 0.0625s-0.01669 0.002 0 0.0313 0.01287 0.003 0.03125 0.0313 0.01124 0.004 0.03125 0.0313c0.02001 0.0271 0.0097 0.005 0.03125 0.0313 0.02157 0.0259 0.0082 0.007 0.03125 0.0313 0.02306 0.0246 0.0068 0.008 0.03125 0.0313 0.02446 0.0232 0.0055 0.01 0.03125 0.0313 0.02578 0.0217 0.0042 0.0111 0.03125 0.0313 0.01351 0.0101 0.02949-0.001 0.03125 0l11.406 7.25a0.49999 0.49999 0 0 1 0.21875 0.4375l-0.03125 1.375a0.49999 0.49999 0 0 1 -0.03125 0.1875c-0.0093 0.0225-0.02296 0.008-0.03125 0.0313-0.0083 0.0229 0.0073 0.008 0 0.0313-0.0073 0.0232 0.0063 0.008 0 0.0313-0.0063 0.0235 0.0053 0.008 0 0.0313-0.0053 0.0238-0.02695 0.007-0.03125 0.0313-0.0043 0.024 0.0033 0.007 0 0.0313-0.0033 0.0241 0.0023 0.007 0 0.0313-0.0023 0.0242 0.0012 0.007 0 0.0313s0.000188 0.007 0 0.0313-0.000845 0.007 0 0.0313-0.0019 0.007 0 0.0313-0.0029 0.007 0 0.0313c0.0029 0.0242-0.0039 0.007 0 0.0313 0.0039 0.024 0.02631 0.007 0.03125 0.0313 0.006 0.0236-0.0069 0.008 0 0.0313s-0.0079 0.008 0 0.0313c0.0079 0.023 0.02235 0.009 0.03125 0.0313 0.0089 0.0226-0.0099 0.009 0 0.0313 0.0099 0.0222-0.01079 0.009 0 0.0313 0.01079 0.0218 0.01954 0.01 0.03125 0.0313s-0.0126 0.0104 0 0.0313c0.0126 0.0208 0.01778 0.011 0.03125 0.0313 0.01432 0.0197 0.0161 0.0122 0.03125 0.0313 0.01515 0.019 0.01531 0.0129 0.03125 0.0313s-0.01671 0.0136 0 0.0313 0.01381-0.017 0.03125 0 0.0131 0.015 0.03125 0.0313c0.01815 0.0162-0.01882 0.0158 0 0.0313 0.01882 0.0154 0.01179-0.0146 0.03125 0s0.01119 0.0175 0.03125 0.0313l17.062 12c0.01799 0.0127 0.01279-0.012 0.03125 0s0.01234 0.02 0.03125 0.0313c0.01933 0.0105 0.01153 0.0215 0.03125 0.0313 0.01972 0.01 0.01117-0.009 0.03125 0s0.01084-0.008 0.03125 0 0.01054 0.0238 0.03125 0.0313c0.02071 0.008 0.01027-0.007 0.03125 0 0.02122 0.006 0.0098 0.0262 0.03125 0.0313 0.02143 0.005 0.0096-0.004 0.03125 0 0.02161 0.004 0.0095-0.003 0.03125 0s0.0094-0.002 0.03125 0c0.02187 0.003 0.0093-0.002 0.03125 0s0.0093-0.00085 0.03125 0c0.022 0.00084 0.0092 0 0.03125 0 0.022-0.00085 0.0093 0.002 0.03125 0s0.0094 0.003 0.03125 0c0.02187-0.002 0.0095 0.003 0.03125 0s0.0096 0.004 0.03125 0c0.02161-0.004 0.0098 0.005 0.03125 0 0.02143-0.005 0.01003-0.0254 0.03125-0.0313 0.02098-0.007 0.01054 0.008 0.03125 0 0.02071-0.007 0.01084-0.023 0.03125-0.0313 0.02041-0.008 0.01117 0.009 0.03125 0s0.01153 0.01 0.03125 0 0.01192-0.0207 0.03125-0.0313c0.01891-0.0113 0.01279-0.0193 0.03125-0.0313s0.01326 0.0127 0.03125 0l10.594-7.5a0.49999 0.49999 0 0 1 0.03125 0 0.49999 0.49999 0 0 1 0.0625 -0.0625 0.49999 0.49999 0 0 1 0.03125 0l0.0625-0.0313 6.1562-4.3125a0.49999 0.49999 0 0 1 0.03125 -0.0313c0.02269-0.0137 0.0092 0.0147 0.03125 0 0.02204-0.0147 0.0099-0.0155 0.03125-0.0313a0.49999 0.49999 0 0 1 0.03125 -0.0313c0.01829-0.0103 0.01335 0.011 0.03125 0 0.0089-0.005 0.03012 0.00072 0.03125 0 0.0011-0.00072-0.0087-0.0254 0-0.0313 0.01704-0.0123 0.01467-0.0183 0.03125-0.0313a0.49999 0.49999 0 0 1 0.0625 -0.0625 0.49999 0.49999 0 0 1 0.03125 -0.0313c0.01847-0.019-0.01757-0.0114 0-0.0313s0.01462-0.0106 0.03125-0.0313c0.01663-0.0206 0.0156-0.01 0.03125-0.0313 0.01465-0.0221 0.01764-0.008 0.03125-0.0313 0.01361-0.0228-0.01254-0.008 0-0.0313 0.01254-0.0234 0.0198-0.007 0.03125-0.0313 0.01145-0.0239-0.01033-0.007 0-0.0313 0.01033-0.0244 0.02206-0.006 0.03125-0.0313 0.0092-0.0249-0.008-0.006 0-0.0313s-0.0069-0.006 0-0.0313c0.0069-0.0256-0.0057-0.005 0-0.0313 0.0057-0.0259 0.02679-0.005 0.03125-0.0313 0.0045-0.0261-0.0032-0.005 0-0.0313s-0.002-0.005 0-0.0313c0.002-0.0264-0.000799-0.005 0-0.0313l-0.03125-2.0312a0.49999 0.49999 0 0 1 0.21875 -0.4375l11.062-7.0312c0.0018-0.001 0.01774 0.0101 0.03125 0 0.02701-0.0202 0.0055-0.01 0.03125-0.0313 0.02578-0.0217 0.0068-0.008 0.03125-0.0313 0.02446-0.0232 0.0082-0.007 0.03125-0.0313 0.02306-0.0246 0.0097-0.005 0.03125-0.0313 0.02157-0.0259 0.01124-0.004 0.03125-0.0313 0.02001-0.0271 0.01287-0.003 0.03125-0.0313 0.01838-0.0282 0.01456-0.002 0.03125-0.0313s-0.01494-0.001 0-0.0313c0.01494-0.0302 0.01811-0.0315 0.03125-0.0625s-0.01129 0.00051 0-0.0313c0.01129-0.0318 0.02184 0.001 0.03125-0.0313 0.0094-0.0324-0.0075 0.002 0-0.0313 0.0075-0.0329-0.0055-0.0292 0-0.0625 0.0055-0.0332-0.0036 0.002 0-0.0313 0.0036-0.0335 0.02965 0.002 0.03125-0.0313 0.0016-0.0337 0.000378-0.0288 0-0.0625s0.0024 0.002 0-0.0313c-0.0024-0.0336-0.02692-0.0291-0.03125-0.0625-0.0043-0.0334 0.0063 0.002 0-0.0313-0.0063-0.0331 0.0082 0.001 0-0.0313-0.0082-0.0327 0.01013-0.0303 0-0.0625s-0.01925 0.00025-0.03125-0.0313c-0.012-0.0315 0.01383-0.00051 0-0.0313-0.01383-0.0307-0.01564-0.001-0.03125-0.0313-0.01561-0.0299-0.01391-0.002-0.03125-0.0313-0.01734-0.0289 0.01901-0.0347 0-0.0625s-0.01063-0.005-0.03125-0.0313c-0.02062-0.0267-0.0091-0.006-0.03125-0.0313-0.02215-0.0254-0.0076-0.007-0.03125-0.0313-0.0236-0.0241-0.0063-0.009-0.03125-0.0313-0.02497-0.0226-0.005-0.0101-0.03125-0.0313l-10.562-8.5a0.49999 0.49999 0 0 1 0 -0.75l10.5-8.9375c0.02572-0.0219 0.0069-0.008 0.03125-0.0313 0.02438-0.0234 0.0083-0.006 0.03125-0.0313 0.02296-0.0248-0.02145-0.005 0-0.0313 0.02145-0.0261 0.01137-0.004 0.03125-0.0313s0.01302-0.003 0.03125-0.0313c0.01823-0.0285 0.01473-0.002 0.03125-0.0313 0.01652-0.0295-0.01475-0.0321 0-0.0625s0.01832-0.00002 0.03125-0.0313c0.01293-0.0312-0.01107 0.00069 0-0.0313 0.01107-0.0319 0.02208 0.001 0.03125-0.0313 0.0092-0.0325-0.0072-0.0295 0-0.0625s-0.0053 0.002 0-0.0313c0.0053-0.0334 0.02795 0.002 0.03125-0.0313 0.0033-0.0336-0.0013-0.0287 0-0.0625s0.000683 0.003 0-0.0313c-0.000683-0.0338 0.0027-0.0288 0-0.0625s-0.02659 0.002-0.03125-0.0313c-0.0047-0.0335 0.0066 0.002 0-0.0313-0.0066-0.0331 0.0086-0.0298 0-0.0625s0.01048 0.00089 0-0.0313c-0.01048-0.0321-0.0189 0.00022-0.03125-0.0313-0.01235-0.0315 0.01419-0.00057 0-0.0313-0.01419-0.0307-0.01528-0.0327-0.03125-0.0625s-0.01355-0.002-0.03125-0.0313c-0.0177-0.0288 0.01937-0.003 0-0.0313-0.01937-0.0277-0.01028-0.005-0.03125-0.0313-0.02097-0.0265-0.0088-0.006-0.03125-0.0313-0.02249-0.0252-0.0073-0.007-0.03125-0.0313-0.02394-0.0239-0.0059-0.009-0.03125-0.0313-0.02531-0.0224-0.0047-0.0104-0.03125-0.0313-0.02658-0.0209-0.0035-0.012-0.03125-0.0313-0.02777-0.0193-0.0024 0.0176-0.03125 0l-17.25-10.469c-0.01882-0.0115-0.012-0.0205-0.03125-0.0313s-0.0116 0.01-0.03125 0-0.01123-0.022-0.03125-0.0313c-0.02002-0.009-0.01088 0.009-0.03125 0-0.02068-0.008-0.01029-0.0243-0.03125-0.0313s-0.01004 0.006-0.03125 0-0.0098 0.005-0.03125 0c-0.02143-0.005-0.0096 0.004-0.03125 0-0.02162-0.004-0.0095 0.004-0.03125 0-0.02177-0.004 0.02189-0.0285 0-0.0313-0.02189-0.003-0.0093 0.002-0.03125 0-0.02199-0.002-0.0092 0.001-0.03125 0-0.02204-0.001-0.0092 0.00023-0.03125 0-0.02207-0.00023-0.0092-0.00062-0.03125 0-0.02206 0.00062-0.0092-0.001-0.03125 0-0.02202 0.002-0.0093-0.002-0.03125 0s-0.0094-0.003-0.03125 0c-0.02184 0.003-0.0095 0.0273-0.03125 0.0313-0.02153 0.005-0.0099-0.006-0.03125 0-0.02133 0.006-0.01015-0.006-0.03125 0-0.0211 0.007-0.01042 0.024-0.03125 0.0313-0.02083 0.007-0.01071-0.008-0.03125 0s-0.01104-0.009-0.03125 0 0.01986 0.0216 0 0.0313c-0.01986 0.01-0.01178-0.0104-0.03125 0s-0.01219-0.0111-0.03125 0-0.01264 0.0194-0.03125 0.0313c-0.01814 0.0126-0.0136 0.018-0.03125 0.0313s-0.01413-0.0139-0.03125 0l-10.594 9.125a0.49999 0.49999 0 0 1 -0.625 0l-10.688-9.1875c-0.02122-0.0178-0.0092 0.0167-0.03125 0s-0.0084-0.0156-0.03125-0.0313c-0.02283-0.0156-0.0077-0.0167-0.03125-0.0313-0.02356-0.0145-0.007 0.0134-0.03125 0-0.02424-0.0134-0.0064-0.0191-0.03125-0.0313s-0.0058 0.011-0.03125 0c-0.02541-0.011-0.0053-0.0215-0.03125-0.0313-0.02591-0.01-0.0049 0.009-0.03125 0-0.02635-0.008-0.0045 0.007-0.03125 0-0.02673-0.007-0.0042-0.0254-0.03125-0.0313-0.02705-0.006-0.004 0.005-0.03125 0-0.0273-0.005-0.0038 0.003-0.03125 0-0.02749-0.003-0.0036 0.002-0.03125 0-0.02761-0.002-0.03482 0.00059-0.0625 0s-0.0036-0.00075-0.03125 0c-0.0166 0.002-0.02913-0.00029-0.03125 0-0.0021 0.00029-0.01478-0.003-0.03125 0-0.03295 0.005 0.0013-0.007-0.03125 0z" fill="url(#linearGradient15188)"/>
   <path id="path2919" style="color:#000000" d="m-73.479 878.81c-0.03257 0.007 0.000838 0.022-0.03125 0.0313-0.03209 0.009-0.03101-0.0111-0.0625 0s-0.000457 0.0183-0.03125 0.0313c-0.03079 0.0129-0.0013-0.0147-0.03125 0-0.02999 0.0147-0.0022 0.0148-0.03125 0.0313-0.02908 0.0164-0.0032-0.0181-0.03125 0a0.49999 0.49999 0 0 1 -0.03125 0.0313l-17.25 10.5c-0.02886 0.0176-0.0035-0.0193-0.03125 0-0.02777 0.0193-0.0047 0.0104-0.03125 0.0313-0.02658 0.0209-0.0059 0.009-0.03125 0.0313-0.02531 0.0224-0.0073 0.007-0.03125 0.0313-0.02394 0.0239-0.0088 0.006-0.03125 0.0313-0.02249 0.0252-0.01028 0.005-0.03125 0.0313-0.02097 0.0265-0.01188 0.004-0.03125 0.0313-0.01937 0.0277 0.0177 0.002 0 0.0313-0.0177 0.0288-0.01528 0.002-0.03125 0.0313-0.01597 0.0298-0.01706 0.0318-0.03125 0.0625s0.01235-0.00022 0 0.0313c-0.01235 0.0315-0.02077-0.00089-0.03125 0.0313-0.01048 0.0321 0.0086-0.001 0 0.0313-0.0086 0.0327 0.0066 0.0294 0 0.0625-0.0066 0.0332 0.0047-0.002 0 0.0313-0.0047 0.0335-0.02858-0.002-0.03125 0.0313-0.0027 0.0337 0.000683 0.0287 0 0.0625s-0.0013-0.002 0 0.0313c0.0013 0.0338-0.0033 0.0289 0 0.0625s0.02597-0.002 0.03125 0.0313c0.0053 0.0334-0.0072-0.002 0 0.0313 0.0072 0.033-0.0092 0.03 0 0.0625s0.02018-0.00069 0.03125 0.0313c0.01107 0.0319-0.01293 0.00002 0 0.0313 0.01293 0.0312 0.0165 0.00084 0.03125 0.0313 0.01475 0.0304-0.01652 0.033 0 0.0625s0.01302 0.003 0.03125 0.0313c0.01823 0.0285 0.01137 0.004 0.03125 0.0313s0.0098 0.005 0.03125 0.0313c0.02145 0.0261-0.02296 0.006 0 0.0313 0.02296 0.0248 0.0069 0.008 0.03125 0.0313 0.02438 0.0234 0.0055 0.009 0.03125 0.0313l10.5 8.875a0.49999 0.49999 0 0 1 0 0.75l-10.688 8.5938c-0.02626 0.0211-0.0063 0.009-0.03125 0.0313-0.02498 0.0226-0.0076 0.007-0.03125 0.0313-0.0236 0.0241-0.0091 0.006-0.03125 0.0313-0.02215 0.0254-0.01064 0.005-0.03125 0.0313-0.02061 0.0267-0.01224 0.003-0.03125 0.0313-0.01901 0.0278 0.01734 0.0336 0 0.0625s-0.01563 0.001-0.03125 0.0313c-0.01562 0.0299-0.01742 0.00051-0.03125 0.0313-0.01383 0.0307 0.012-0.00025 0 0.0313-0.012 0.0315-0.02112-0.0009-0.03125 0.0313s0.0082 0.0298 0 0.0625 0.0063-0.002 0 0.0313c-0.0063 0.0331 0.0043-0.002 0 0.0313-0.0043 0.0334-0.02889 0.0289-0.03125 0.0625-0.0024 0.0336 0.000378-0.002 0 0.0313-0.000378 0.0337-0.0016 0.0288 0 0.0625s0.02767-0.002 0.03125 0.0313c0.0036 0.0335-0.0055-0.002 0 0.0313s-0.0075 0.0296 0 0.0625-0.0094-0.001 0 0.0313c0.0094 0.0324 0.01996-0.00051 0.03125 0.0313 0.01129 0.0318-0.01314 0.00021 0 0.0313 0.01314 0.031 0.01631 0.0323 0.03125 0.0625s-0.01669 0.002 0 0.0313 0.01287 0.003 0.03125 0.0313 0.01124 0.004 0.03125 0.0313c0.02001 0.0271 0.0097 0.005 0.03125 0.0313 0.02157 0.0259 0.0082 0.007 0.03125 0.0313 0.02306 0.0246 0.0068 0.008 0.03125 0.0313 0.02446 0.0232 0.0055 0.01 0.03125 0.0313 0.02578 0.0217 0.0042 0.0111 0.03125 0.0313 0.01351 0.0101 0.02949-0.001 0.03125 0l11.406 7.25a0.49999 0.49999 0 0 1 0.21875 0.4375l-0.03125 1.375a0.49999 0.49999 0 0 1 -0.03125 0.1875c-0.0093 0.0225-0.02296 0.008-0.03125 0.0313-0.0083 0.0229 0.0073 0.008 0 0.0313-0.0073 0.0232 0.0063 0.008 0 0.0313-0.0063 0.0235 0.0053 0.008 0 0.0313-0.0053 0.0238-0.02695 0.007-0.03125 0.0313-0.0043 0.024 0.0033 0.007 0 0.0313-0.0033 0.0241 0.0023 0.007 0 0.0313-0.0023 0.0242 0.0012 0.007 0 0.0313s0.000188 0.007 0 0.0313-0.000845 0.007 0 0.0313-0.0019 0.007 0 0.0313-0.0029 0.007 0 0.0313c0.0029 0.0242-0.0039 0.007 0 0.0313 0.0039 0.024 0.02631 0.007 0.03125 0.0313 0.006 0.0236-0.0069 0.008 0 0.0313s-0.0079 0.008 0 0.0313c0.0079 0.023 0.02235 0.009 0.03125 0.0313 0.0089 0.0226-0.0099 0.009 0 0.0313 0.0099 0.0222-0.01079 0.009 0 0.0313 0.01079 0.0218 0.01954 0.01 0.03125 0.0313s-0.0126 0.0104 0 0.0313c0.0126 0.0208 0.01778 0.011 0.03125 0.0313 0.01432 0.0197 0.0161 0.0122 0.03125 0.0313 0.01515 0.019 0.01531 0.0129 0.03125 0.0313s-0.01671 0.0136 0 0.0313 0.01381-0.017 0.03125 0 0.0131 0.015 0.03125 0.0313c0.01815 0.0162-0.01882 0.0158 0 0.0313 0.01882 0.0154 0.01179-0.0146 0.03125 0s0.01119 0.0175 0.03125 0.0313l17.062 12c0.01799 0.0127 0.01279-0.012 0.03125 0s0.01234 0.02 0.03125 0.0313c0.01933 0.0105 0.01153 0.0215 0.03125 0.0313 0.01972 0.01 0.01117-0.009 0.03125 0s0.01084-0.008 0.03125 0 0.01054 0.0238 0.03125 0.0313c0.02071 0.008 0.01027-0.007 0.03125 0 0.02122 0.006 0.0098 0.0262 0.03125 0.0313 0.02143 0.005 0.0096-0.004 0.03125 0 0.02161 0.004 0.0095-0.003 0.03125 0s0.0094-0.002 0.03125 0c0.02187 0.003 0.0093-0.002 0.03125 0s0.0093-0.00085 0.03125 0c0.022 0.00084 0.0092 0 0.03125 0 0.022-0.00085 0.0093 0.002 0.03125 0s0.0094 0.003 0.03125 0c0.02187-0.002 0.0095 0.003 0.03125 0s0.0096 0.004 0.03125 0c0.02161-0.004 0.0098 0.005 0.03125 0 0.02143-0.005 0.01003-0.0254 0.03125-0.0313 0.02098-0.007 0.01054 0.008 0.03125 0 0.02071-0.007 0.01084-0.023 0.03125-0.0313 0.02041-0.008 0.01117 0.009 0.03125 0s0.01153 0.01 0.03125 0 0.01192-0.0207 0.03125-0.0313c0.01891-0.0113 0.01279-0.0193 0.03125-0.0313s0.01326 0.0127 0.03125 0l10.594-7.5a0.49999 0.49999 0 0 1 0.03125 0 0.49999 0.49999 0 0 1 0.0625 -0.0625 0.49999 0.49999 0 0 1 0.03125 0l0.0625-0.0313 6.1562-4.3125a0.49999 0.49999 0 0 1 0.03125 -0.0313c0.02269-0.0137 0.0092 0.0147 0.03125 0 0.02204-0.0147 0.0099-0.0155 0.03125-0.0313a0.49999 0.49999 0 0 1 0.03125 -0.0313c0.01829-0.0103 0.01335 0.011 0.03125 0 0.0089-0.005 0.03012 0.00072 0.03125 0 0.0011-0.00072-0.0087-0.0254 0-0.0313 0.01704-0.0123 0.01467-0.0183 0.03125-0.0313a0.49999 0.49999 0 0 1 0.0625 -0.0625 0.49999 0.49999 0 0 1 0.03125 -0.0313c0.01847-0.019-0.01757-0.0114 0-0.0313s0.01462-0.0106 0.03125-0.0313c0.01663-0.0206 0.0156-0.01 0.03125-0.0313 0.01465-0.0221 0.01764-0.008 0.03125-0.0313 0.01361-0.0228-0.01254-0.008 0-0.0313 0.01254-0.0234 0.0198-0.007 0.03125-0.0313 0.01145-0.0239-0.01033-0.007 0-0.0313 0.01033-0.0244 0.02206-0.006 0.03125-0.0313 0.0092-0.0249-0.008-0.006 0-0.0313s-0.0069-0.006 0-0.0313c0.0069-0.0256-0.0057-0.005 0-0.0313 0.0057-0.0259 0.02679-0.005 0.03125-0.0313 0.0045-0.0261-0.0032-0.005 0-0.0313s-0.002-0.005 0-0.0313c0.002-0.0264-0.000799-0.005 0-0.0313l-0.03125-2.0312a0.49999 0.49999 0 0 1 0.21875 -0.4375l11.062-7.0312c0.0018-0.001 0.01774 0.0101 0.03125 0 0.02701-0.0202 0.0055-0.01 0.03125-0.0313 0.02578-0.0217 0.0068-0.008 0.03125-0.0313 0.02446-0.0232 0.0082-0.007 0.03125-0.0313 0.02306-0.0246 0.0097-0.005 0.03125-0.0313 0.02157-0.0259 0.01124-0.004 0.03125-0.0313 0.02001-0.0271 0.01287-0.003 0.03125-0.0313 0.01838-0.0282 0.01456-0.002 0.03125-0.0313s-0.01494-0.001 0-0.0313c0.01494-0.0302 0.01811-0.0315 0.03125-0.0625s-0.01129 0.00051 0-0.0313c0.01129-0.0318 0.02184 0.001 0.03125-0.0313 0.0094-0.0324-0.0075 0.002 0-0.0313 0.0075-0.0329-0.0055-0.0292 0-0.0625 0.0055-0.0332-0.0036 0.002 0-0.0313 0.0036-0.0335 0.02965 0.002 0.03125-0.0313 0.0016-0.0337 0.000378-0.0288 0-0.0625s0.0024 0.002 0-0.0313c-0.0024-0.0336-0.02692-0.0291-0.03125-0.0625-0.0043-0.0334 0.0063 0.002 0-0.0313-0.0063-0.0331 0.0082 0.001 0-0.0313-0.0082-0.0327 0.01013-0.0303 0-0.0625s-0.01925 0.00025-0.03125-0.0313c-0.012-0.0315 0.01383-0.00051 0-0.0313-0.01383-0.0307-0.01564-0.001-0.03125-0.0313-0.01561-0.0299-0.01391-0.002-0.03125-0.0313-0.01734-0.0289 0.01901-0.0347 0-0.0625s-0.01063-0.005-0.03125-0.0313c-0.02062-0.0267-0.0091-0.006-0.03125-0.0313-0.02215-0.0254-0.0076-0.007-0.03125-0.0313-0.0236-0.0241-0.0063-0.009-0.03125-0.0313-0.02497-0.0226-0.005-0.0101-0.03125-0.0313l-10.562-8.5a0.49999 0.49999 0 0 1 0 -0.75l10.5-8.9375c0.02572-0.0219 0.0069-0.008 0.03125-0.0313 0.02438-0.0234 0.0083-0.006 0.03125-0.0313 0.02296-0.0248-0.02145-0.005 0-0.0313 0.02145-0.0261 0.01137-0.004 0.03125-0.0313s0.01302-0.003 0.03125-0.0313c0.01823-0.0285 0.01473-0.002 0.03125-0.0313 0.01652-0.0295-0.01475-0.0321 0-0.0625s0.01832-0.00002 0.03125-0.0313c0.01293-0.0312-0.01107 0.00069 0-0.0313 0.01107-0.0319 0.02208 0.001 0.03125-0.0313 0.0092-0.0325-0.0072-0.0295 0-0.0625s-0.0053 0.002 0-0.0313c0.0053-0.0334 0.02795 0.002 0.03125-0.0313 0.0033-0.0336-0.0013-0.0287 0-0.0625s0.000683 0.003 0-0.0313c-0.000683-0.0338 0.0027-0.0288 0-0.0625s-0.02659 0.002-0.03125-0.0313c-0.0047-0.0335 0.0066 0.002 0-0.0313-0.0066-0.0331 0.0086-0.0298 0-0.0625s0.01048 0.00089 0-0.0313c-0.01048-0.0321-0.0189 0.00022-0.03125-0.0313-0.01235-0.0315 0.01419-0.00057 0-0.0313-0.01419-0.0307-0.01528-0.0327-0.03125-0.0625s-0.01355-0.002-0.03125-0.0313c-0.0177-0.0288 0.01937-0.003 0-0.0313-0.01937-0.0277-0.01028-0.005-0.03125-0.0313-0.02097-0.0265-0.0088-0.006-0.03125-0.0313-0.02249-0.0252-0.0073-0.007-0.03125-0.0313-0.02394-0.0239-0.0059-0.009-0.03125-0.0313-0.02531-0.0224-0.0047-0.0104-0.03125-0.0313-0.02658-0.0209-0.0035-0.012-0.03125-0.0313-0.02777-0.0193-0.0024 0.0176-0.03125 0l-17.25-10.469c-0.01882-0.0115-0.012-0.0205-0.03125-0.0313s-0.0116 0.01-0.03125 0-0.01123-0.022-0.03125-0.0313c-0.02002-0.009-0.01088 0.009-0.03125 0-0.02068-0.008-0.01029-0.0243-0.03125-0.0313s-0.01004 0.006-0.03125 0-0.0098 0.005-0.03125 0c-0.02143-0.005-0.0096 0.004-0.03125 0-0.02162-0.004-0.0095 0.004-0.03125 0-0.02177-0.004 0.02189-0.0285 0-0.0313-0.02189-0.003-0.0093 0.002-0.03125 0-0.02199-0.002-0.0092 0.001-0.03125 0-0.02204-0.001-0.0092 0.00023-0.03125 0-0.02207-0.00023-0.0092-0.00062-0.03125 0-0.02206 0.00062-0.0092-0.001-0.03125 0-0.02202 0.002-0.0093-0.002-0.03125 0s-0.0094-0.003-0.03125 0c-0.02184 0.003-0.0095 0.0273-0.03125 0.0313-0.02153 0.005-0.0099-0.006-0.03125 0-0.02133 0.006-0.01015-0.006-0.03125 0-0.0211 0.007-0.01042 0.024-0.03125 0.0313-0.02083 0.007-0.01071-0.008-0.03125 0s-0.01104-0.009-0.03125 0 0.01986 0.0216 0 0.0313c-0.01986 0.01-0.01178-0.0104-0.03125 0s-0.01219-0.0111-0.03125 0-0.01264 0.0194-0.03125 0.0313c-0.01814 0.0126-0.0136 0.018-0.03125 0.0313s-0.01413-0.0139-0.03125 0l-10.594 9.125a0.49999 0.49999 0 0 1 -0.625 0l-10.688-9.1875c-0.02122-0.0178-0.0092 0.0167-0.03125 0s-0.0084-0.0156-0.03125-0.0313c-0.02283-0.0156-0.0077-0.0167-0.03125-0.0313-0.02356-0.0145-0.007 0.0134-0.03125 0-0.02424-0.0134-0.0064-0.0191-0.03125-0.0313s-0.0058 0.011-0.03125 0c-0.02541-0.011-0.0053-0.0215-0.03125-0.0313-0.02591-0.01-0.0049 0.009-0.03125 0-0.02635-0.008-0.0045 0.007-0.03125 0-0.02673-0.007-0.0042-0.0254-0.03125-0.0313-0.02705-0.006-0.004 0.005-0.03125 0-0.0273-0.005-0.0038 0.003-0.03125 0-0.02749-0.003-0.0036 0.002-0.03125 0-0.02761-0.002-0.03482 0.00059-0.0625 0s-0.0036-0.00075-0.03125 0c-0.0166 0.002-0.02913-0.00029-0.03125 0-0.0021 0.00029-0.01478-0.003-0.03125 0-0.03295 0.005 0.0013-0.007-0.03125 0z" fill="#0b5a9a"/>
   <path id="rect3683" style="color:#000000" d="m-61.927 907.47 17.042 12.021-17.042 12.021-17.042-12.021 17.042-12.021z" fill="#fdfffe"/>
   <path id="rect3688" style="color:#000000" d="m-50.501 879.58 17.24 10.494-11.665 9.8966-17.042-10.5 11.467-9.8903z" fill="url(#linearGradient15190)"/>
   <path id="path3691" style="color:#000000" d="m-73.357 879.52-17.24 10.494 11.665 9.8966 17.042-10.5-11.467-9.8903z" fill="url(#linearGradient15192)"/>
   <path id="path3698" fill="url(#linearGradient15194)" d="m-78.885 919.47 0.17256-19.754 16.863-10.288v18.023l-17.035 12.018z"/>
   <path id="path3700" opacity=".6" d="m-61.927 931.27 0.1547-20.885-17.017-10.597v19.725l16.863 11.757z" fill="url(#linearGradient15196)"/>
   <path id="path3702" fill="url(#linearGradient15198)" d="m-44.882 919.47-0.06284-19.754-16.917-10.343v18.297l16.98 11.799z"/>
   <path id="path3704" opacity=".6" d="m-61.73 931.27-0.1547-20.885 17.017-10.597v19.725l-16.863 11.757z" fill="url(#linearGradient15200)"/>
   <path id="rect3693" style="color:#000000" d="m-44.927 899.92 11.775 9.4577-17.151 10.939-11.665-9.8966 17.042-10.5z" fill="url(#linearGradient15202)"/>
   <path id="path3696" style="color:#000000" d="m-79.041 899.92-11.775 9.4577 17.151 10.939 11.665-9.8966-17.042-10.5z" fill="url(#linearGradient15204)"/>
   <path id="path3775-2" opacity=".2" style="color:#000000" d="m-61.927 907.47 17.042 12.021-17.042 12.021-17.042-12.021 17.042-12.021z" fill="#fdfffe"/>
   <path id="path3777" opacity=".6" d="m-78.791 900.06v16.969l5.125 3.2812 11.656-9.9062-16.781-10.344z" fill="url(#linearGradient15206)"/>
   <path id="path3792" opacity=".6" d="m-44.916 899.91-12.969 8-4 2.4688v0.125l11.594 9.8125 5.4375-3.4688v-16.875l-0.0625-0.0625z" fill="url(#linearGradient15208)"/>
  </g>
 </g>
</svg>
