<?xml version="1.0" encoding="UTF-8" standalone="no"?>
<!-- Created with Inkscape (http://www.inkscape.org/) -->
<svg id="svg2" xmlns:rdf="http://www.w3.org/1999/02/22-rdf-syntax-ns#" xmlns="http://www.w3.org/2000/svg" height="96" width="96" version="1.1" xmlns:cc="http://creativecommons.org/ns#" xmlns:xlink="http://www.w3.org/1999/xlink" xmlns:dc="http://purl.org/dc/elements/1.1/">
 <defs id="defs4">
  <linearGradient id="linearGradient3613-57" y2="138.66" gradientUnits="userSpaceOnUse" x2="48" y1="20.221" x1="48">
   <stop id="stop3739-921" stop-color="#fff" offset="0"/>
   <stop id="stop3741-88" stop-color="#fff" stop-opacity="0" offset="1"/>
  </linearGradient>
  <clipPath id="clipPath3613-82">
   <rect id="rect3615-88" rx="6" ry="6" height="84" width="84" y="6" x="6" fill="#fff"/>
  </clipPath>
  <filter id="filter3794-71" height="1.384" width="1.384" color-interpolation-filters="sRGB" y="-.192" x="-.192">
   <feGaussianBlur id="feGaussianBlur3796-951" stdDeviation="5.28"/>
  </filter>
  <clipPath id="clipPath3721">
   <path id="path3723" d="m76.014 47.513a28.284 28.284 0 1 1 -56.569 0 28.284 28.284 0 1 1 56.569 0z" transform="matrix(1.3435 0 0 1.3435 -16.125 74.167)" fill="#f00"/>
  </clipPath>
  <filter id="filter3751" color-interpolation-filters="sRGB">
   <feGaussianBlur id="feGaussianBlur3753" stdDeviation="1.44"/>
  </filter>
  <clipPath id="clipPath4031">
   <path id="path4033" fill="#bbb1bf" d="m48 32c-19.882 0-36 16.118-36 36s16.118 36 36 36 36-16.118 36-36-16.118-36-36-36zm0 24c6.6274 0 12 5.3726 12 12s-5.3726 12-12 12-12-5.3726-12-12 5.3726-12 12-12z"/>
  </clipPath>
  <filter id="filter4035" height="1.3414" width="1.3807" color-interpolation-filters="sRGB" y="-.17070" x="-.19037">
   <feGaussianBlur id="feGaussianBlur4037" stdDeviation="4.9476562"/>
  </filter>
  <clipPath id="clipPath4187-8">
   <path id="path4189-1" fill="#bbb1bf" d="m48 102c-19.882 0-36 16.118-36 36s16.118 36 36 36 36-16.118 36-36-16.118-36-36-36zm0 24c6.6274 0 12 5.3726 12 12s-5.3726 12-12 12-12-5.3726-12-12 5.3726-12 12-12z"/>
  </clipPath>
  <filter id="filter4195-6" height="1.36" width="1.36" color-interpolation-filters="sRGB" y="-0.18" x="-0.18">
   <feGaussianBlur id="feGaussianBlur4197-2" stdDeviation="5.2159999"/>
  </filter>
  <linearGradient id="linearGradient4235">
   <stop id="stop4237" stop-color="#fff" stop-opacity="0" offset="0"/>
   <stop id="stop4245" stop-color="#fff" stop-opacity="0" offset=".25"/>
   <stop id="stop4243" stop-color="#fff" stop-opacity=".70161" offset=".5"/>
   <stop id="stop4247" stop-color="#fff" stop-opacity="0" offset=".75"/>
   <stop id="stop4239" stop-color="#fff" stop-opacity="0" offset="1"/>
  </linearGradient>
  <clipPath id="clipPath4592">
   <path id="path4594" d="m12 6c-3.324 0-6 2.676-6 6v72c0 3.324 2.676 6 6 6h72c3.324 0 6-2.676 6-6v-72c0-3.324-2.676-6-6-6h-72zm36 4c20.987 0 38 17.013 38 38s-17.013 38-38 38-38-17.013-38-38 17.013-38 38-38z" fill="#f0f"/>
  </clipPath>
  <filter id="filter4662" height="1.24" width="1.24" color-interpolation-filters="sRGB" y="-.12" x="-.12">
   <feGaussianBlur id="feGaussianBlur4664" stdDeviation="4.2"/>
  </filter>
  <linearGradient id="linearGradient17857" y2="48" xlink:href="#linearGradient4235" gradientUnits="userSpaceOnUse" x2="88" gradientTransform="matrix(.70711 -.70711 .70711 .70711 -122.47 866.73)" y1="48" x1="8"/>
  <linearGradient id="linearGradient17922" y2="4.788" gradientUnits="userSpaceOnUse" x2="47.921" gradientTransform="translate(-5.0871 954.23)" y1="89.669" x1="47.921">
   <stop id="stop4580" stop-color="#a0a0a0" stop-opacity=".54118" offset="0"/>
   <stop id="stop4582" stop-color="#a0a0a0" stop-opacity=".34510" offset="1"/>
  </linearGradient>
  <radialGradient id="radialGradient17924" gradientUnits="userSpaceOnUse" cy="47.765" cx="46.467" gradientTransform="matrix(1.0597 0 0 1.0597 -6.3265 951.62)" r="35.86">
   <stop id="stop4642-1" stop-opacity="0" offset="0"/>
   <stop id="stop4648" stop-opacity="0" offset="0.93"/>
   <stop id="stop4644-2" offset="1"/>
  </radialGradient>
  <linearGradient id="linearGradient17926" y2="61.922" gradientUnits="userSpaceOnUse" x2="94.568" gradientTransform="matrix(0 .16827 -.20214 0 55.43 992.15)" y1="61.922" x1="25.22">
   <stop id="stop3364-3" stop-color="#4d4d4d" offset="0"/>
   <stop id="stop3366-1" stop-color="#fff" offset="1"/>
  </linearGradient>
  <radialGradient id="radialGradient17928" gradientUnits="userSpaceOnUse" cy="61.922" cx="59.894" gradientTransform="matrix(0 .29065 -.29243 0 61.021 984.83)" r="33.714">
   <stop id="stop3344-7" stop-opacity="0" offset="0"/>
   <stop id="stop3350-96" stop-opacity="0" offset="0.85"/>
   <stop id="stop3346-9" offset="1"/>
  </radialGradient>
  <linearGradient id="linearGradient17930" y2="61.922" gradientUnits="userSpaceOnUse" x2="93.608" gradientTransform="matrix(0 .29065 -.34916 0 64.533 984.83)" y1="61.922" x1="26.18">
   <stop id="stop3332-7" stop-color="#fff" stop-opacity=".20312" offset="0"/>
   <stop id="stop3334-2" stop-color="#fff" stop-opacity=".67969" offset="1"/>
  </linearGradient>
  <linearGradient id="linearGradient17932" y2="49.028" xlink:href="#linearGradient4235" gradientUnits="userSpaceOnUse" x2="88.142" gradientTransform="matrix(.69554 -.69554 .69554 .69554 -24.21 1001.2)" y1="49.028" x1="6.8121"/>
  <linearGradient id="linearGradient17934" y2="49.028" xlink:href="#linearGradient4235" gradientUnits="userSpaceOnUse" x2="88.142" gradientTransform="matrix(-.69554 -.69554 -.69554 .69554 110.04 1001.2)" y1="49.028" x1="6.8121"/>
  <linearGradient id="linearGradient17936" y2="63.184" gradientUnits="userSpaceOnUse" x2="48.253" gradientTransform="translate(-5.0871 954.23)" y1="7.409" x1="48">
   <stop id="stop3702-381" stop-color="#fff" stop-opacity="0" offset="0"/>
   <stop id="stop3704-5" stop-color="#fff" stop-opacity=".23387" offset="1"/>
  </linearGradient>
  <linearGradient id="linearGradient17938" y2="64" gradientUnits="userSpaceOnUse" x2="40" gradientTransform="translate(-5.0871 954.23)" y1="96" x1="40">
   <stop id="stop3960" stop-color="#002e93" offset="0"/>
   <stop id="stop3962" stop-color="#2f62c6" offset="1"/>
  </linearGradient>
  <linearGradient id="linearGradient17940" y2="61" gradientUnits="userSpaceOnUse" x2="11" gradientTransform="matrix(1 0 0 1.3333 -5.0871 930.9)" y1="64" x1="11">
   <stop id="stop3991" offset="0"/>
   <stop id="stop3997-2" stop-opacity=".49804" offset="0.3"/>
   <stop id="stop3993-0" stop-opacity="0" offset="1"/>
  </linearGradient>
  <clipPath id="clipPath17944" clipPathUnits="userSpaceOnUse">
   <path id="path17946" d="m14.916 962.15c-6.2687 0-11.296 5.0915-11.296 11.385v57.603c0 6.2934 5.0277 11.355 11.296 11.355h57.396c6.2687 0 11.296-5.0619 11.296-11.355v-57.603c0-6.2933-5.0277-11.385-11.296-11.385h-57.396z" fill="url(#linearGradient17948)"/>
  </clipPath>
  <linearGradient id="linearGradient17948" y2="5.9877" gradientUnits="userSpaceOnUse" x2="48" gradientTransform="matrix(1.0225 0 0 1.0225 -5.9749 952.9)" y1="90" x1="48">
   <stop id="stop3702-96" stop-color="#eec00f" offset="0"/>
   <stop id="stop3704-40" stop-color="#fff8a0" offset="1"/>
  </linearGradient>
  <linearGradient id="linearGradient17956" y2="64" gradientUnits="userSpaceOnUse" x2="40" gradientTransform="matrix(.95642 0 0 .86734 1.6993 965.29)" y1="88" x1="40">
   <stop id="stop4072" stop-color="#dbdbdb" offset="0"/>
   <stop id="stop4074" stop-color="#fff" offset="1"/>
  </linearGradient>
 </defs>
 <metadata id="metadata7">
  <rdf:RDF>
   <cc:Work rdf:about="">
    <dc:format>image/svg+xml</dc:format>
    <dc:type rdf:resource="http://purl.org/dc/dcmitype/StillImage"/>
    <dc:title/>
   </cc:Work>
  </rdf:RDF>
 </metadata>
 <g id="layer1" transform="translate(0 -956.36)">
  <rect id="rect5263-0" fill-opacity=".019608" ry="12.724" height="89.978" width="89.624" y="959.35" x="3.3534"/>
  <rect id="rect5261-6" fill-opacity=".039216" ry="12.552" height="88.762" width="88.413" y="959.96" x="3.9589"/>
  <rect id="rect5259-9" fill-opacity=".078431" ry="12.38" height="87.546" width="87.202" y="960.57" x="4.5645"/>
  <rect id="rect5257-5" fill-opacity=".15686" ry="12.208" height="86.33" width="85.991" y="961.18" x="5.1701"/>
  <path id="rect2419-9" d="m17.75 5.4062c-6.642 0-11.969 5.3948-11.969 12.063l0.0002 61.031c0 6.668 5.3268 12.031 11.969 12.031h60.812c6.642 0 11.969-5.363 11.969-12.031v-61.031c0-6.668-5.327-12.063-11.969-12.063l-60.812 0.0002z" fill-opacity=".94340" transform="translate(0 956.36)" fill="#fff"/>
  <g id="g17891" clip-path="url(#clipPath17944)" transform="matrix(1.0595 0 0 1.0595 1.9457 -57.657)">
   <rect id="rect4576" rx="6" ry="6" height="84" width="84" y="960.23" x=".91294" fill="url(#linearGradient17922)"/>
   <path id="path4630" opacity=".4" d="m80.913 1002.2a38 38 0 0 1 -76 0 38 38 0 1 1 76 0z" fill="url(#radialGradient17924)"/>
   <path id="path3724" opacity=".8" d="m48 102c-19.882 0-36 16.118-36 36s16.118 36 36 36 36-16.118 36-36-16.118-36-36-36zm0 24c6.6274 0 12 5.3726 12 12s-5.3726 12-12 12-12-5.3726-12-12 5.3726-12 12-12z" clip-path="url(#clipPath3721)" transform="translate(-5.0871 864.23)" filter="url(#filter3751)"/>
   <path id="path3978" fill="#ccbb98" d="m42.913 966.23c-19.882 0-36 16.118-36 36s16.118 36 36 36 36-16.118 36-36-16.118-36-36-36zm0 24c6.6274 0 12 5.3726 12 12s-5.3726 12-12 12-12-5.3726-12-12 5.3726-12 12-12z"/>
   <path id="path3992" opacity=".3" d="m42.913 990.23c-6.6274 0-12 5.3726-12 12s5.3726 12 12 12 12-5.3726 12-12-5.3726-12-12-12zm0 7c2.7614 0 5 2.2386 5 5s-2.2386 5-5 5-5-2.2386-5-5 2.2386-5 5-5z" fill="#fff"/>
   <path id="path4002" opacity=".6" d="m42.913 1007.7a5.5 5.5 0 1 1 0 -11 5.5 5.5 0 1 1 0 11z" stroke="url(#linearGradient17926)" stroke-linecap="round" fill="none"/>
   <path id="path4010" opacity=".5" d="m42.913 1011.7a9.5 9.4999 0 1 1 0 -19 9.5 9.4999 0 1 1 0 19z" fill-rule="evenodd" stroke="url(#linearGradient17930)" stroke-linecap="round" fill="url(#radialGradient17928)"/>
   <path id="path4018" opacity=".8" d="m57.312 33.219-9.312 34.781 31.188-18c-4.774-8.269-12.653-14.31-21.876-16.781zm-9.312 34.781-31.188 18c4.7739 8.2686 12.653 14.31 21.875 16.781l9.313-34.78z" clip-path="url(#clipPath4031)" transform="translate(-5.0871 934.23)" filter="url(#filter4035)" fill="#fff"/>
   <g id="g4175" opacity=".6" clip-path="url(#clipPath4187-8)" transform="translate(-5.0871 864.23)" filter="url(#filter4195-6)">
    <path id="path4039" d="m60.947 57.784a20.708 18.814 0 0 1 -2.6155 2.9059l-14.643-13.304z" transform="matrix(1.5055 .86922 -.95673 1.6571 27.56 21.5)" fill="#7137c8"/>
    <path id="path4041" d="m60.779 58.011a20.708 18.814 0 0 1 -3.384 3.4788l-13.706-14.104z" transform="matrix(1.6792 .44994 -.49524 1.8483 -1.8956 30.76)" fill="#0cf"/>
    <path id="path4043" d="m62.724 54.796a20.708 18.814 0 0 1 -2.2597 3.6221l-16.775-11.032z" transform="matrix(1.7384 0 -6.0266e-8 1.9135 -27.951 47.328)" fill="#fc0"/>
    <path id="path4045" d="m61.623 56.793a20.708 18.814 0 0 1 -1.6993 2.2728l-16.235-11.68z" transform="matrix(1.6792 -.44994 .49524 1.8483 -48.831 70.075)" fill="#f00"/>
    <path id="path4144" d="m63.123 53.883a20.708 18.814 0 0 1 -2.37 4.1619l-17.064-10.659z" transform="matrix(1.6792 .44994 -.49524 1.8483 -1.8956 30.76)" fill="#0f0"/>
    <path id="path4155" d="m60.947 57.784a20.708 18.814 0 0 1 -2.6155 2.9059l-14.643-13.304z" transform="matrix(-1.5055 -.86922 .95673 -1.6571 68.44 254.5)" fill="#7137c8"/>
    <path id="path4157" d="m60.779 58.011a20.708 18.814 0 0 1 -3.384 3.4788l-13.706-14.104z" transform="matrix(-1.6792 -.44994 .49524 -1.8483 97.896 245.24)" fill="#0cf"/>
    <path id="path4159" d="m62.724 54.796a20.708 18.814 0 0 1 -2.2597 3.6221l-16.775-11.032z" transform="matrix(-1.7384 0 6.0266e-8 -1.9135 123.95 228.67)" fill="#fc0"/>
    <path id="path4161" d="m61.623 56.793a20.708 18.814 0 0 1 -1.6993 2.2728l-16.235-11.68z" transform="matrix(-1.6792 .44994 -.49524 -1.8483 144.83 205.92)" fill="#f00"/>
    <path id="path4163" d="m63.123 53.883a20.708 18.814 0 0 1 -2.37 4.1619l-17.064-10.659z" transform="matrix(-1.6792 -.44994 .49524 -1.8483 97.896 245.24)" fill="#0f0"/>
   </g>
   <path id="path3986" opacity=".2" d="m42.913 987.73c-8.0081 0-14.5 6.4919-14.5 14.5s6.4919 14.5 14.5 14.5 14.5-6.4919 14.5-14.5-6.4919-14.5-14.5-14.5zm0 2.5c6.6274 0 12 5.3726 12 12s-5.3726 12-12 12-12-5.3726-12-12 5.3726-12 12-12z"/>
   <path id="path4199" opacity=".4" d="m42.913 966.23c-19.882 0-36 16.118-36 36 0 0.3371 0.022 0.6652 0.0312 1 0.53379-19.416 16.424-35 35.969-35s35.435 15.584 35.969 35c0.0092-0.3348 0.03125-0.6629 0.03125-1 0-19.882-16.118-36-36-36z" fill="#fff"/>
   <path id="path3745" opacity=".6" d="m39.91 972.47-4.4043 0.01h-3.3131l-0.33726 1.4036 2.5096 0.01h0.58029c1.611 0 2.5954 0.65053 2.3212 1.7905-0.29594 1.2492-1.709 1.7954-3.1991 1.7954h-0.5555l0.71917-3.0701h-2.4948l-1.0664 4.4836h3.5512c2.6627 0 5.2057-1.4009 5.6442-3.209 0.08747-0.329 0.07951-1.1538-0.12896-1.6466 0-0.022-0.01394-0.0306-0.0248-0.0744-0.01124-0.0108-0.01903-0.0885 0.0248-0.0992 0.0221-0.0111 0.06353 0.0336 0.0744 0.0446 0.02173 0.0548 0.03472 0.0942 0.03472 0.0942l2.2567 6.3783 5.7533-6.4874h2.4303 0.58525c1.611 0 2.5944 0.65054 2.3311 1.7905-0.30681 1.2492-1.7188 1.7954-3.209 1.7954h-0.56046l0.72413-3.0701h-2.4997l-1.0614 4.4836h3.5512c2.6631 0 5.217-1.4009 5.6442-3.209 0.4383-1.7973-1.4476-3.204-4.1216-3.204h-5.2921s-1.4033 1.6561-1.6665 1.974c-1.3915 1.6764-1.6471 2.1262-1.6913 2.2468 0.01105-0.12062-0.04315-0.56794-0.63485-2.2666-0.16408-0.46031-0.66461-1.9542-0.66461-1.9542h-1.8103v-0.01zm2.2815 7.9356c-6.7507 0-12.221 0.77776-12.221 1.731 0 0.96443 5.4702 1.731 12.221 1.731 6.7505 0 12.226-0.76653 12.226-1.731 0-0.95321-5.4753-1.731-12.226-1.731zm-0.44142 1.1953c1.5453 0 2.7973 0.25288 2.7973 0.57037 0 0.31786-1.252 0.58029-2.7973 0.58029-1.5455 0-2.7924-0.26243-2.7924-0.58029 0-0.31749 1.2469-0.57037 2.7924-0.57037z" fill-rule="evenodd"/>
   <path id="path4616" d="m70.49 974.66a39 39 0 1 1 -55.154 55.14 39 39 0 0 1 55.154 -55.14z" stroke="url(#linearGradient17932)" stroke-linecap="round" stroke-width="2" fill="none"/>
   <path id="path4626" opacity=".4" d="m15.336 974.66a39 39 0 1 0 55.154 55.14 39 39 0 0 0 -55.154 -55.14z" stroke="url(#linearGradient17934)" stroke-linecap="round" stroke-width="2" fill="none"/>
   <path id="rect3638" opacity=".8" d="m6.9129 960.23c-3.324 0-6 2.676-6 6v43.656c18.407-8.9 43.001-14.32 70.062-14.32 4.7286 0 9.3777 0.17935 13.938 0.5v-29.844c0-3.324-2.676-6-6-6h-72z" fill="url(#linearGradient17936)"/>
   <path id="path4590" opacity=".8" d="m12 6c-3.324 0-6 2.676-6 6v72c0 3.324 2.676 6 6 6h72c3.324 0 6-2.676 6-6v-72c0-3.324-2.676-6-6-6h-72zm36 4c20.987 0 38 17.013 38 38s-17.013 38-38 38-38-17.013-38-38 17.013-38 38-38z" clip-path="url(#clipPath4592)" transform="translate(-5.0871 954.23)" filter="url(#filter4662)" stroke="#fff" stroke-width="2" fill="none"/>
   <path id="rect3169" d="m0.91295 1016.2v22c0 3.324 2.676 6 6 6h72c3.324 0 6-2.676 6-6v-22z" fill="url(#linearGradient17938)"/>
   <path id="path3976" opacity=".2" d="m0.91295 1016.2v1h84v-1h-84z" fill="#fff"/>
   <path id="path3987" opacity=".3" d="m0.91295 1012.2v4h84v-4h-84z" fill="url(#linearGradient17940)"/>
  </g>
  <path id="rect5265-0" d="m5.7756 1029.8v5.0663c0 6.668 5.3434 12.032 11.985 12.032h60.809c6.6418 0 11.985-5.3645 11.985-12.032v-5.0663c0 6.6681-5.3434 12.032-11.985 12.032h-60.809c-6.6418 0-11.985-5.3643-11.985-12.032z" fill-opacity=".11765"/>
  <path id="path5252-0" d="m5.7756 1033.9v1.0133c0 6.668 5.3434 12.032 11.985 12.032h60.809c6.6418 0 11.985-5.3645 11.985-12.032v-1.0133c0 6.6681-5.3434 12.032-11.985 12.032h-60.809c-6.6418 0-11.985-5.3644-11.985-12.032z" fill-opacity=".098039"/>
  <g id="layer5" transform="translate(-109.88 856.47)">
   <rect id="rect3171" height="66" stroke="#fff" stroke-linecap="round" stroke-width=".5" fill="url(#linearGradient3613-57)" rx="12" ry="12" width="66" opacity=".1" clip-path="url(#clipPath3613-82)" filter="url(#filter3794-71)" y="15" x="15"/>
  </g>
  <path id="path4230" opacity=".6" d="m-82.871 838.45c-15.621 15.621-15.621 40.948 0 56.569s40.948 15.621 56.569 0 15.621-40.948 0-56.569-40.948-15.621-56.569 0zm1.4142 1.4142c14.84-14.84 38.9-14.84 53.74 0s14.84 38.9 0 53.74-38.9 14.84-53.74 0-14.84-38.9 0-53.74z" display="none" fill="url(#linearGradient17857)"/>
  <g id="g17950" transform="matrix(1 0 0 .93732 0 63.946)">
   <path id="path4038" opacity="0.08" d="m51.104 1020.2c-1.2887 0.1958-1.6538 1.4688-1.4944 2.4924 0.09526 1.0709-0.22631 2.2211 0.23911 3.2267-1.846-1.0887-4.1674-0.5969-5.9776-0.3524-1.8204-0.2451-3.7244-0.042-5.5779-0.1085-1.3715-0.1758-2.3314 1.0897-2.0735 2.2334 0.01999 3.8715-0.03997 7.7492 0.02994 11.617 0.23097 1.2088 1.686 1.4546 2.8166 1.3282 1.6681-0.048 3.366 0.1004 5.0141-0.082 1.4706-0.3536 1.3181-1.8826 1.2852-2.964 0.0724-1.8715-0.26322-3.833 0.56025-5.6053 1.0354 0.4162 2.6041 0.6891 3.2356-0.4292 0.53338-1.2536 0.46997-0.3915 0.44832 0.4627 0.02027 2.4289-0.04027 4.8639 0.02994 7.289 0.23097 1.2088 1.686 1.4546 2.8166 1.3281 1.7477-0.049 3.5256 0.1017 5.2532-0.082 1.4706-0.3535 1.3181-1.8826 1.2852-2.9639-0.02009-3.6732 0.03997-7.3524-0.02994-11.022-0.42027-0.7871 0.25077-1.6304 0.02994-2.5075-0.13627-1.2382 0.49304-2.9084-0.95642-3.6722-1.4669-0.3913-3.056-0.099-4.5761-0.1898h-2.3579zm19.248 4.9601c-1.6008 0.1835-2.7739 0.7292-4.2991 0.2712-1.8212 0.049-3.6733-0.1035-5.4744 0.082-1.4706 0.3537-1.3181 1.8828-1.2852 2.964 0.01999 4.7574-0.03997 9.5207 0.02994 14.274 0.23097 1.2088 1.686 1.4545 2.8166 1.3282 1.7174-0.051 3.4663 0.105 5.1636-0.082 1.4706-0.3536 1.3181-1.8827 1.2852-2.9641-0.28965-1.6179 2.4992 0.3296 3.5233-0.6181 3.5303-0.8259 5.3482-4.2903 5.1741-7.3951 0.15191-3.7023-2.3224-7.9521-6.9341-7.8602zm-49.854 0.028c-1.2887 0.1958-1.6538 1.4689-1.4944 2.4925 0.05538 1.6144-0.1136 3.2568 0.08961 4.8528 0.27038 0.6667-0.29919 1.4348-0.08961 2.2019 0.05518 1.5758-0.11334 3.1793 0.08961 4.7369 0.39001 1.3336 2.076 1.1953 3.2684 1.1654 1.5772-0.049 3.1844 0.1005 4.7416-0.082 0.80277-0.2144 1.7377 0.2543 2.654 0.082 1.6625-0.049 3.355 0.1012 4.9974-0.082 1.4706-0.3535 1.3181-1.8825 1.2852-2.964-0.05346-1.4302 0.11081-2.8877-0.08961-4.2999-0.23645-0.7279 0.28041-1.5758 0.08961-2.4066-0.05395-1.5078 0.1115-3.0427-0.08961-4.5321-0.39001-1.3336-2.076-1.1953-3.2684-1.1655-1.5673 0.046-3.1561-0.085-4.7117 0.054-0.79442 0.3041-1.6735-0.2506-2.5559-0.054h-4.9161zm48.269 6.5864c0.63107 0.9464-0.28396 3.2208-0.19786 0.8858 0.03356-0.2951 0.07862-0.6168 0.19786-0.8858z"/>
   <path id="path4034" opacity="0.12" d="m51.344 1021.1a0.89747 0.81387 0 0 0 -0.80698 0.8132v3.2525a0.89747 0.81387 0 0 0 0.89665 0.8132h5.7385a0.89747 0.81387 0 0 0 0.89665 -0.8132v-3.2525a0.89747 0.81387 0 0 0 -0.89665 -0.8132h-5.7385a0.89747 0.81387 0 0 0 -0.08961 0zm19.009 4.9601c-0.96224 0-1.9008 0.2101-2.7198 0.6235-0.12043 0.061-0.2136 0.2241-0.32877 0.2982a0.89747 0.81387 0 0 0 -0.86676 -0.6506h-5.3201a0.89747 0.81387 0 0 0 -0.89665 0.8132v15.341a0.89747 0.81387 0 0 0 0.89665 0.8131h5.6489a0.89747 0.81387 0 0 0 0.89665 -0.8131v-3.2526c0.11912 0.058 0.2042 0.1674 0.32877 0.2169 0.71526 0.2805 1.5043 0.4066 2.3313 0.4066 1.7176 0 3.2503-0.6512 4.3637-1.8161 1.1474-1.2088 1.6737-2.9 1.6737-4.9601-0.000019-1.8784-0.48574-3.5355-1.4944-4.8787-1.0273-1.3798-2.6436-2.1413-4.5131-2.1413zm-49.614 0.027a0.89747 0.81387 0 0 0 -0.80698 0.8132v5.204a0.89747 0.81387 0 0 0 0.89665 0.8131h5.7385a0.89747 0.81387 0 0 0 0.89665 -0.8131v-5.204a0.89747 0.81387 0 0 0 -0.89665 -0.8132h-5.7385a0.89747 0.81387 0 0 0 -0.08961 0zm7.6514 0a0.89747 0.81387 0 0 0 -0.80698 0.8132v5.204a0.89747 0.81387 0 0 0 0.89665 0.8131h5.7385a0.89747 0.81387 0 0 0 0.89665 -0.8131v-5.204a0.89747 0.81387 0 0 0 -0.89665 -0.8132h-5.7385a0.89747 0.81387 0 0 0 -0.08961 0zm18.262 0c-0.91527 0-1.7632 0.2075-2.4508 0.6234-0.06408 0.038-0.08779 0.1473-0.14944 0.1898a0.89747 0.81387 0 0 0 -0.86676 -0.5421h-5.1408a0.89747 0.81387 0 0 0 -0.89665 0.8131v11.872a0.89747 0.81387 0 0 0 0.89665 0.8132h5.4994a0.89747 0.81387 0 0 0 0.89665 -0.8132v-3.9844c-0.000009-1.8228 0.34581-2.9694 0.68743-3.388 0.24846-0.3094 0.48309-0.4336 0.95642-0.4336 0.15202 0 0.58584 0.087 1.1955 0.298a0.89747 0.81387 0 0 0 1.1358 -0.4064l1.7036-3.2525a0.89747 0.81387 0 0 0 -0.41844 -1.0843c-1.0521-0.4569-2.0723-0.7047-3.0486-0.7047zm4.6924 0.054a0.89747 0.81387 0 0 0 -0.80698 0.8131v12.088a0.89747 0.81387 0 0 0 0.89665 0.8133h5.7385a0.89747 0.81387 0 0 0 0.89665 -0.8133v-12.088a0.89747 0.81387 0 0 0 -0.89665 -0.8131h-5.7385a0.89747 0.81387 0 0 0 -0.08961 0zm17.485 4.8246c0.27096 0 0.43327 0.056 0.68743 0.3523a0.89747 0.81387 0 0 0 0 0.026c0.18929 0.2172 0.38854 0.7006 0.38855 1.545-0.000009 0.9106-0.22026 1.4464-0.38855 1.6534-0.24924 0.2878-0.36193 0.3523-0.62765 0.3523-0.37068 0-0.56592-0.082-0.83687-0.3794-0.22739-0.2502-0.41844-0.7175-0.41843-1.5178-0.000009-0.9013 0.19728-1.439 0.38855-1.6535 0.26065-0.2922 0.46873-0.3794 0.80698-0.3794zm-48.09 2.0599a0.89747 0.81387 0 0 0 -0.80698 0.8131v5.2039a0.89747 0.81387 0 0 0 0.89665 0.8133h5.7385a0.89747 0.81387 0 0 0 0.89665 -0.8133v-5.2039a0.89747 0.81387 0 0 0 -0.89665 -0.8131h-5.7385a0.89747 0.81387 0 0 0 -0.08961 0zm7.6514 0a0.89747 0.81387 0 0 0 -0.80698 0.8131v5.2039a0.89747 0.81387 0 0 0 0.89665 0.8133h5.7385a0.89747 0.81387 0 0 0 0.89665 -0.8133v-5.2039a0.89747 0.81387 0 0 0 -0.89665 -0.8131h-5.7385a0.89747 0.81387 0 0 0 -0.08961 0z"/>
   <path id="path4030" opacity=".3" d="m51.433 1021.9v3.2525h5.7385v-3.2525h-5.7385zm18.919 4.9602c-0.8247 0-1.5919 0.1719-2.2715 0.5148-0.50399 0.2556-1.0406 0.741-1.6439 1.4636v-1.7074h-5.3201v15.341h5.6489v-4.8517c0.4658 0.4597 0.99609 0.8234 1.5841 1.057 0.59561 0.2336 1.2548 0.3523 1.9726 0.3523 1.4814 0 2.7065-0.5303 3.6762-1.5449 0.96977-1.0217 1.4645-2.4838 1.4645-4.418-0.00002-1.7517-0.45156-3.2281-1.345-4.4179-0.8858-1.1897-2.1394-1.7888-3.7659-1.7888zm-49.525 0.027v5.204h5.7385v-5.204h-5.7385zm7.6514 0v5.204h5.7385v-5.204h-5.7385zm18.172 0c-0.77233 0-1.4129 0.1673-1.9427 0.4878-0.52088 0.3132-1.0304 0.8924-1.5243 1.7348v-1.9516h-5.1408v11.872h5.4994v-3.9843c-0.00001-1.9007 0.30098-3.1826 0.86676-3.8759 0.39514-0.492 0.9553-0.7588 1.6737-0.7588 0.37718 0 0.87769 0.1286 1.5243 0.3523l1.7036-3.2525c-0.96093-0.4173-1.8518-0.6234-2.6601-0.6234zm4.7821 0.054v12.088h5.7385v-12.088h-5.7385zm17.395 3.1982c0.54979 0 1.0229 0.2325 1.4047 0.6775 0.3818 0.4381 0.56787 1.1186 0.56788 2.06-0.000009 1.0219-0.20136 1.7378-0.56788 2.1684-0.36654 0.4233-0.80281 0.6505-1.345 0.6505-0.61853 0-1.1196-0.2324-1.5243-0.6775-0.40472-0.4454-0.62766-1.1134-0.62765-2.0328-0.00001-1 0.20068-1.7231 0.59776-2.1686 0.39707-0.445 0.89879-0.6775 1.4944-0.6775zm-48 3.6863v5.2039h5.7385v-5.2039h-5.7385zm7.6514 0v5.2039h5.7385v-5.2039h-5.7385z"/>
   <path id="path4004" d="m51.433 1021v3.2526h5.7385v-3.2526h-5.7385zm18.919 4.9602c-0.8247 0-1.5919 0.172-2.2715 0.515-0.50399 0.2554-1.0406 0.741-1.6439 1.4635v-1.7075h-5.3201v15.341h5.6489v-4.8515c0.4658 0.4597 0.99609 0.8235 1.5841 1.0571 0.59561 0.2335 1.2548 0.3521 1.9726 0.3521 1.4814 0 2.7065-0.5303 3.6762-1.5448 0.96977-1.0218 1.4645-2.4838 1.4645-4.4181-0.00002-1.7516-0.45156-3.228-1.345-4.4178-0.8858-1.1897-2.1394-1.7889-3.7659-1.7889zm-49.525 0.028v5.204h5.7385v-5.204h-5.7385zm7.6514 0v5.204h5.7385v-5.204h-5.7385zm18.172 0c-0.77233 0-1.4129 0.1673-1.9427 0.4879-0.52088 0.313-1.0304 0.8922-1.5243 1.7346v-1.9515h-5.1408v11.872h5.4994v-3.9843c-0.00001-1.9007 0.30098-3.1826 0.86676-3.8759 0.39514-0.4919 0.9553-0.7588 1.6737-0.7588 0.37718 0 0.87769 0.1286 1.5243 0.3522l1.7036-3.2524c-0.96093-0.4175-1.8518-0.6234-2.6601-0.6234zm4.7821 0.054v12.088h5.7385v-12.088h-5.7385zm17.395 3.1983c0.54979 0 1.0229 0.2324 1.4047 0.6776 0.3818 0.438 0.56787 1.1184 0.56788 2.06-0.000009 1.0219-0.20136 1.7377-0.56788 2.1683-0.36654 0.4234-0.80281 0.6505-1.345 0.6505-0.61853 0-1.1196-0.2325-1.5243-0.6776-0.40472-0.4452-0.62766-1.1132-0.62765-2.0328-0.00001-0.9999 0.20068-1.723 0.59776-2.1684 0.39707-0.4452 0.89879-0.6776 1.4944-0.6776zm-48 3.6862v5.2039h5.7385v-5.2039h-5.7385zm7.6514 0v5.2039h5.7385v-5.2039h-5.7385z" fill="url(#linearGradient17956)"/>
  </g>
 </g>
</svg>
