<?xml version="1.0" encoding="UTF-8" standalone="no"?>
<!-- Created with Inkscape (http://www.inkscape.org/) -->
<svg id="svg2" xmlns:rdf="http://www.w3.org/1999/02/22-rdf-syntax-ns#" xmlns="http://www.w3.org/2000/svg" height="96" width="96" version="1.1" xmlns:cc="http://creativecommons.org/ns#" xmlns:xlink="http://www.w3.org/1999/xlink" xmlns:dc="http://purl.org/dc/elements/1.1/">
 <defs id="defs4">
  <linearGradient id="linearGradient3700-09">
   <stop id="stop3702-67" stop-color="#70a83e" offset="0"/>
   <stop id="stop3704-18" stop-color="#9fd058" offset="1"/>
  </linearGradient>
  <linearGradient id="linearGradient9745" y2="5.9877" xlink:href="#linearGradient3700-09" gradientUnits="userSpaceOnUse" x2="48" gradientTransform="translate(-169.06 968.2)" y1="90" x1="48"/>
  <linearGradient id="linearGradient14455" y2="5.9877" gradientUnits="userSpaceOnUse" x2="48" gradientTransform="matrix(1.0558 0 0 1.0558 -2.8461 -4.0196)" y1="90" x1="48">
   <stop id="stop3702-2" stop-color="#2276c5" offset="0"/>
   <stop id="stop3704-96" stop-color="#68baf4" offset="1"/>
  </linearGradient>
  <clipPath id="clipPath4805-9" clipPathUnits="userSpaceOnUse">
   <rect id="rect4807-2" ry="5.5818" transform="rotate(-15)" height="39.472" width="39.472" y="968.37" x="-327.7" fill="url(#linearGradient4809)"/>
  </clipPath>
 </defs>
 <metadata id="metadata7">
  <rdf:RDF>
   <cc:Work rdf:about="">
    <dc:format>image/svg+xml</dc:format>
    <dc:type rdf:resource="http://purl.org/dc/dcmitype/StillImage"/>
    <dc:title/>
   </cc:Work>
  </rdf:RDF>
 </metadata>
 <g id="layer1" transform="translate(0 -956.36)">
  <rect id="rect5263-0" fill-opacity=".019608" ry="12.724" height="89.978" width="89.624" y="959.35" x="3.3534"/>
  <rect id="rect5261-6" fill-opacity=".039216" ry="12.552" height="88.762" width="88.413" y="959.96" x="3.9589"/>
  <rect id="rect5259-9" fill-opacity=".078431" ry="12.38" height="87.546" width="87.202" y="960.57" x="4.5645"/>
  <rect id="rect5257-5" fill-opacity=".15686" ry="12.208" height="86.33" width="85.991" y="961.18" x="5.1701"/>
  <path id="rect3145" d="m17.75 5.4062c-6.642 0-11.969 5.3948-11.969 12.063l0.0002 61.031c0 6.668 5.3268 12.031 11.969 12.031h60.812c6.642 0 11.969-5.363 11.969-12.031v-61.031c0-6.668-5.327-12.063-11.969-12.063l-60.812 0.0002z" transform="translate(0 956.36)" fill="url(#linearGradient14455)"/>
  <path id="rect5265-0" d="m5.7756 1029.8v5.0663c0 6.668 5.3434 12.032 11.985 12.032h60.809c6.6418 0 11.985-5.3645 11.985-12.032v-5.0663c0 6.6681-5.3434 12.032-11.985 12.032h-60.809c-6.6418 0-11.985-5.3643-11.985-12.032z" fill-opacity=".18957"/>
  <path id="path5252-0" d="m5.7756 1033.9v1.0133c0 6.668 5.3434 12.032 11.985 12.032h60.809c6.6418 0 11.985-5.3645 11.985-12.032v-1.0133c0 6.6681-5.3434 12.032-11.985 12.032h-60.809c-6.6418 0-11.985-5.3644-11.985-12.032z" fill-opacity=".098039"/>
  <rect id="rect4772" display="none" height="107.79" width="107.79" y="971.68" x="-369.64" fill="none"/>
  <g id="g4788" display="none" transform="matrix(.21052 0 0 .21052 -369.68 971.63)"></g>
  <g id="g4806" display="none" transform="matrix(.21052 0 0 .21052 -369.68 971.63)">
   <g id="g4808" display="inline">
    <path id="path4810" d="m349.1 256.65c-0.265-0.254 37.637 27.605 39.421 25.012 6.362-9.252 82.046-93.137 84.784-116.24 0.242-2.003-0.516-4.096-0.516-4.096s-1.19-0.144-6.325-4.314c-2.692-2.192-5.483-4.581-5.483-4.581-16.054 0.998-57.885 41.559-111.06 103.57" fill="#050505" display="none"/>
   </g>
  </g>
  <g id="g4796" transform="matrix(.21052 0 0 .21052 -369.68 971.63)"></g>
  <rect id="rect3873" rx="6" ry="6" height="84" width="84" display="none" y="974.2" x="-163.06" fill="url(#linearGradient9745)"/>
  <rect id="rect3880" rx="6" ry="6" height="84" width="84" display="none" y="974.2" x="-163.06" fill="url(#linearGradient9745)"/>
  <g id="g4008" opacity=".22167" fill-rule="evenodd" fill-opacity=".21714" clip-path="url(#clipPath4805-9)" transform="matrix(2.0602 .55842 -.55202 2.0841 704.88 -1127.5)" fill="#fff">
   <rect id="rect3963" style="color:#000000" transform="matrix(-.96593 -.25882 -.25882 .96593 0 0)" height="56.093" width=".93606" y="980" x="-231.71"/>
   <rect id="rect3978" style="color:#000000" transform="matrix(-.96593 -.25882 -.25882 .96593 0 0)" height="56.093" width=".93606" y="980" x="-243.45"/>
   <rect id="rect3980" style="color:#000000" transform="matrix(-.96593 -.25882 -.25882 .96593 0 0)" height="56.093" width=".93606" y="980" x="-222.9"/>
   <rect id="rect3982" style="color:#000000" transform="matrix(-.96593 -.25882 -.25882 .96593 0 0)" height="56.093" width=".93606" y="980" x="-249.33"/>
   <rect id="rect3984" style="color:#000000" transform="matrix(-.96593 -.25882 -.25882 .96593 0 0)" height="56.093" width=".93606" y="980" x="-240.52"/>
   <rect id="rect3986" style="color:#000000" transform="matrix(-.96593 -.25882 -.25882 .96593 0 0)" height="56.093" width=".93606" y="980" x="-211.16"/>
   <rect id="rect3988" style="color:#000000" transform="matrix(-.96593 -.25882 -.25882 .96593 0 0)" height="56.093" width=".93606" y="980" x="-214.09"/>
   <rect id="rect3990" style="color:#000000" transform="matrix(-.96593 -.25882 -.25882 .96593 0 0)" height="56.093" width=".93606" y="980" x="-205.29"/>
   <rect id="rect3992" style="color:#000000" transform="matrix(-.96593 -.25882 -.25882 .96593 0 0)" height="56.093" width=".93606" y="980" x="-217.03"/>
   <rect id="rect3994" style="color:#000000" transform="matrix(-.96593 -.25882 -.25882 .96593 0 0)" height="56.093" width=".93606" y="980" x="-225.84"/>
   <rect id="rect3996" style="color:#000000" transform="matrix(-.96593 -.25882 -.25882 .96593 0 0)" height="56.093" width=".93606" y="980" x="-208.22"/>
   <rect id="rect3998" style="color:#000000" transform="matrix(-.96593 -.25882 -.25882 .96593 0 0)" height="56.093" width=".93606" y="980" x="-219.97"/>
   <rect id="rect4000" style="color:#000000" transform="matrix(-.96593 -.25882 -.25882 .96593 0 0)" height="56.093" width=".93606" y="980" x="-234.65"/>
   <rect id="rect4002" style="color:#000000" transform="matrix(-.96593 -.25882 -.25882 .96593 0 0)" height="56.093" width=".93606" y="980" x="-246.39"/>
   <rect id="rect4004" style="color:#000000" transform="matrix(-.96593 -.25882 -.25882 .96593 0 0)" height="56.093" width=".93606" y="980" x="-237.58"/>
   <rect id="rect4006" style="color:#000000" transform="matrix(-.96593 -.25882 -.25882 .96593 0 0)" height="56.093" width=".93606" y="980" x="-228.77"/>
  </g>
  <g id="g3039" transform="matrix(1.6483 0 0 1.6674 9.28 -704.28)">
   <path id="path3070" d="m16.688 6.7188c-0.735 0-1.384 0.2713-1.907 0.7812-0.51 0.5224-0.781 1.1723-0.781 1.9062 0 0.73397 0.27179 1.3656 0.78125 1.875 0.51934 0.51936 1.1656 0.8125 1.9062 0.8125 0.74063 0 1.3946-0.28837 1.9062-0.8125 0.524-0.51149 0.78124-1.1447 0.78125-1.875 0-0.7302-0.257-1.3817-0.781-1.9062-0.515-0.5146-1.172-0.7812-1.906-0.7812zm13.969 0c-0.73402 0-1.3839 0.27138-1.9062 0.78125-0.50992 0.52236-0.78127 1.1723-0.78125 1.9062-0.000016 0.73398 0.27178 1.3656 0.78125 1.875 0.51933 0.51937 1.1656 0.8125 1.9062 0.8125 0.74062 0 1.3685-0.29369 1.875-0.8125 0.51879-0.50642 0.81248-1.1344 0.8125-1.875 0-0.7406-0.293-1.3868-0.813-1.9062-0.509-0.5094-1.141-0.7812-1.875-0.7812zm-22.562 6.875c-0.57833 0-1.0982 0.18667-1.5 0.5625-0.40737 0.39425-0.59374 0.93138-0.59375 1.5 0.0000093 0.4127 0.082276 0.79995 0.3125 1.125 0.22123 0.33184 0.59852 0.59271 1.0625 0.8125 2.7278 1.3022 5.4253 2.285 8.125 2.9375 2.7135 0.66427 5.4513 0.96875 8.2188 0.96875 2.7445-0.0112 5.4348-0.31589 8.125-0.96875 2.7011-0.64158 5.4501-1.635 8.1562-2.9375 0.42309-0.20558 0.7301-0.44977 0.96875-0.78125 0.2575-0.33881 0.37497-0.7381 0.375-1.1562-0.000029-0.26714-0.02566-0.53665-0.15625-0.8125h0.03125c-0.11665-0.27691-0.32084-0.489-0.5-0.65625-0.184-0.171-0.387-0.33-0.658-0.438-0.235-0.099-0.507-0.156-0.812-0.156a0.32629 0.32629 0 0 0 -0.03125 0c-0.39904 0.03515-0.75111 0.11185-1.0312 0.28125-0.0079 0.0048-0.02344-0.0049-0.03125 0-4.8365 2.3587-9.6479 3.5625-14.469 3.5625-2.3913 0-4.8077-0.31909-7.2812-0.9375-2.464-0.619-4.88-1.505-7.282-2.656a0.32629 0.32629 0 0 0 -0.03125 0c-0.16123-0.07442-0.30167-0.14182-0.4375-0.1875-0.15145-0.03735-0.35689-0.0625-0.5625-0.0625z" fill-opacity=".045714" transform="translate(0 1004.4)" fill="#111"/>
   <path id="path3842" d="m16.688 6.0312c-0.89164 0-1.7408 0.34971-2.375 0.96875a1.0015 1.0015 0 0 0 -0.03125 0.03125c-0.6191 0.63422-0.96875 1.4834-0.96875 2.375 0 0.89159 0.35102 1.7573 0.96875 2.375 0.625 0.62502 1.4943 1 2.4062 1 0.89705 0 1.753-0.37919 2.375-1v-0.03125h0.03125c0.619-0.622 0.968-1.478 0.968-2.3438 0-0.8802-0.328-1.7654-0.968-2.4062-0.634-0.6337-1.515-0.9688-2.406-0.9688zm13.969 0c-0.89165 0-1.7408 0.3497-2.375 0.96875a1.0015 1.0015 0 0 0 -0.032 0.0312c-0.61912 0.63422-0.96877 1.4834-0.96875 2.375-0.000019 0.8916 0.351 1.7573 0.96875 2.375 0.62499 0.62504 1.4943 1 2.4062 1 0.89671 0 1.7375-0.3946 2.3438-1v-0.03125h0.03125c0.60541-0.60627 0.99998-1.447 1-2.3438-0.000025-0.91197-0.37504-1.7812-1-2.4062-0.61766-0.61758-1.4834-0.96875-2.375-0.96875zm-22.562 6.875c-0.73683 0-1.4507 0.29672-1.9688 0.78125-0.53512 0.51789-0.81249 1.2617-0.8125 1.9688 0.0000116 0.51851 0.16618 1.0607 0.46875 1.5 0.00366 0.0054-0.00369 0.02591 0 0.03125 0.30903 0.44657 0.74812 0.7787 1.2812 1.0312 2.7658 1.3204 5.501 2.3044 8.25 2.9688 2.7682 0.67767 5.5878 1 8.4062 1 2.7839-0.01136 5.5485-0.33933 8.2812-1 0.0092-0.0022 0.02204 0.0022 0.03125 0 2.744-0.65408 5.5136-1.6517 8.25-2.9688 0.49114-0.23864 0.93288-0.55951 1.25-1 0.35203-0.46319 0.49996-1.0174 0.5-1.5625-0.000033-0.2956-0.05222-0.67767-0.21875-1.0625-0.0081-0.0186 0.0084-0.04447 0-0.0625-0.17311-0.36958-0.43395-0.63416-0.625-0.8125-0.216-0.2-0.506-0.445-0.876-0.593-0.283-0.119-0.633-0.219-1.062-0.219a1.0015 1.0015 0 0 0 -0.09375 0c-0.44146 0.03889-0.84546 0.14446-1.25 0.375v-0.03125c-4.7665 2.3288-9.5003 3.5-14.219 3.5-2.3331 0-4.7011-0.30024-7.125-0.90625-2.415-0.60648-4.7904-1.4911-7.1562-2.625a1.0015 1.0015 0 0 0 -0.03125 0c-0.1947-0.09-0.3598-0.141-0.4998-0.188a1.0015 1.0015 0 0 0 -0.0625 -0.031c-0.188-0.046-0.4338-0.094-0.7187-0.094z" fill-opacity=".045714" transform="translate(0 1004.4)" fill="#111"/>
   <path id="path3840" d="m16.688 6.375c-0.81124 0-1.5791 0.31165-2.1562 0.875-0.5634 0.57716-0.875 1.3451-0.875 2.1562 0 0.81119 0.3125 1.5625 0.875 2.125 0.57111 0.57113 1.3317 0.90625 2.1562 0.90625 0.82458 0 1.5894-0.32552 2.1562-0.90625 0.58048-0.56662 0.87499-1.3212 0.875-2.125 0-0.8037-0.294-1.5747-0.875-2.1562-0.573-0.573-1.345-0.875-2.156-0.875zm13.969 0c-0.81124 0-1.5791 0.31164-2.1562 0.875-0.56342 0.57716-0.87502 1.3451-0.875 2.1562-0.000017 0.8112 0.31248 1.5625 0.875 2.125 0.5711 0.57114 1.3317 0.90625 2.1562 0.90625 0.82457 0 1.5686-0.33624 2.125-0.90625 0.57001-0.55642 0.90623-1.3004 0.90625-2.125-0.001-0.8245-0.336-1.5851-0.907-2.1562-0.562-0.5624-1.314-0.875-2.125-0.875zm-22.563 6.875c-0.65598 0-1.26 0.25841-1.7188 0.6875a0.65706 0.65706 0 0 0 -0.03125 0c-0.46996 0.45482-0.68749 1.0823-0.6875 1.7188 0.0000105 0.46937 0.13478 0.92922 0.40625 1.3125 0.26464 0.39696 0.65141 0.69835 1.1562 0.9375 2.7464 1.3111 5.4636 2.2792 8.1875 2.9375 2.7403 0.67084 5.52 1 8.3125 1 2.7688-0.0113 5.5029-0.3409 8.2188-1 2.7266-0.64764 5.462-1.6257 8.1875-2.9375 0.44254-0.21503 0.81861-0.50752 1.0938-0.875h0.03125c0.0038-0.0052-0.0038-0.02603 0-0.03125 0.29103-0.39495 0.43746-0.87333 0.4375-1.3438-0.000031-0.28028-0.03923-0.60759-0.1875-0.9375-0.0039-0.0091 0.004-0.02226 0-0.03125h-0.03125c-0.14486-0.31741-0.34892-0.54854-0.53125-0.71875-0.19885-0.18557-0.43082-0.40384-0.75-0.53125v0.03125c-0.261-0.109-0.573-0.219-0.939-0.219a0.65706 0.65706 0 0 0 -0.0625 0c-0.41738 0.03677-0.7831 0.11394-1.125 0.3125-0.02013 0.01169-0.04264 0.01871-0.0625 0.03125-4.7851 2.3276-9.5586 3.5-14.312 3.5-2.3628 0-4.7695-0.29392-7.2188-0.90625-2.44-0.613-4.835-1.514-7.219-2.657-0.1777-0.082-0.3309-0.141-0.4688-0.187a0.65706 0.65706 0 0 0 -0.0625 0c-0.1693-0.042-0.3804-0.094-0.6249-0.094z" fill-opacity=".045714" transform="translate(0 1004.4)" fill="#111"/>
   <path id="path3060" d="m16.688 7.0312c-0.65783 0-1.2192 0.2304-1.6875 0.6875-0.45714 0.4683-0.6875 1.0297-0.6875 1.6875s0.23036 1.1992 0.6875 1.6562c0.46828 0.4683 1.0297 0.71875 1.6875 0.71875 0.65782 0 1.2304-0.25045 1.6875-0.71875 0.46828-0.4571 0.6875-0.99845 0.6875-1.6562-0.000005-0.6578-0.21922-1.2192-0.6875-1.6875-0.45714-0.4571-1.0297-0.6875-1.6875-0.6875zm13.969 0c-0.65784 0-1.2192 0.2304-1.6875 0.6875-0.45715 0.4683-0.68751 1.0297-0.6875 1.6875-0.000014 0.6578 0.23035 1.1992 0.6875 1.6562 0.46827 0.4683 1.0297 0.71875 1.6875 0.71875 0.65781 0 1.1991-0.25045 1.6562-0.71875 0.46827-0.4571 0.71873-0.99845 0.71875-1.6562-0.000018-0.6578-0.25048-1.2192-0.71875-1.6875-0.45715-0.4571-0.99844-0.6875-1.6562-0.6875zm-22.562 6.875c-0.50173 0-0.9356 0.1767-1.2812 0.5-0.34563 0.3345-0.49999 0.7483-0.5 1.25 0.000008 0.3568 0.091714 0.6699 0.28125 0.9375 0.1784 0.2676 0.48257 0.51805 0.90625 0.71875 2.7094 1.2934 5.3866 2.2596 8.0625 2.9062 2.6871 0.6578 5.4134 0.96875 8.1562 0.96875 2.7205-0.0111 5.3977-0.32205 8.0625-0.96875 2.6759-0.6356 5.3754-1.613 8.0625-2.9062 0.39021-0.1896 0.67428-0.4087 0.875-0.6875 0.21182-0.2787 0.31247-0.61195 0.3125-0.96875-0.000027-0.2453-0.02468-0.4756-0.125-0.6875-0.091-0.211-0.241-0.374-0.408-0.53-0.16727-0.1561-0.33953-0.286-0.5625-0.375-0.21187-0.0888-0.44223-0.15625-0.6875-0.15625-0.37911 0.0334-0.69443 0.1162-0.90625 0.25-4.8836 2.386-9.7727 3.5938-14.656 3.5938-2.4195 0-4.8775-0.3131-7.375-0.9375-2.487-0.625-4.925-1.528-7.3442-2.688-0.145-0.067-0.2725-0.111-0.4063-0.156-0.1338-0.033-0.3015-0.063-0.4687-0.063z" transform="translate(0 1004.4)" fill="#dfdfde"/>
  </g>
 </g>
</svg>
