<?xml version="1.0" encoding="UTF-8" standalone="no"?>
<!-- Created with Inkscape (http://www.inkscape.org/) -->
<svg id="svg2" xmlns:rdf="http://www.w3.org/1999/02/22-rdf-syntax-ns#" xmlns="http://www.w3.org/2000/svg" height="96" width="96" version="1.1" xmlns:cc="http://creativecommons.org/ns#" xmlns:xlink="http://www.w3.org/1999/xlink" xmlns:dc="http://purl.org/dc/elements/1.1/">
 <defs id="defs4">
  <linearGradient id="linearGradient3700-09">
   <stop id="stop3702-67" stop-color="#70a83e" offset="0"/>
   <stop id="stop3704-18" stop-color="#9fd058" offset="1"/>
  </linearGradient>
  <linearGradient id="linearGradient9745" y2="5.9877" xlink:href="#linearGradient3700-09" gradientUnits="userSpaceOnUse" x2="48" gradientTransform="translate(-169.06 968.2)" y1="90" x1="48"/>
  <linearGradient id="linearGradient3799" y2="24.109" gradientUnits="userSpaceOnUse" x2="53.568" gradientTransform="matrix(2.2852 0 0 2.3029 -8.4202 -7.4371)" y1="24.109" x1="24.689">
   <stop id="stop4592" stop-color="#c00" offset="0"/>
   <stop id="stop4594" stop-color="#ffa2a2" offset="1"/>
  </linearGradient>
  <linearGradient id="linearGradient6286" y2="5.9877" gradientUnits="userSpaceOnUse" x2="48" gradientTransform="matrix(1.1052 0 0 -1.0723 -7.5066 97.666)" y1="90" x1="48">
   <stop id="stop4600" stop-color="#e6eef7" offset="0"/>
   <stop id="stop4602" stop-color="#8ab0d8" offset="1"/>
  </linearGradient>
 </defs>
 <metadata id="metadata7">
  <rdf:RDF>
   <cc:Work rdf:about="">
    <dc:format>image/svg+xml</dc:format>
    <dc:type rdf:resource="http://purl.org/dc/dcmitype/StillImage"/>
    <dc:title/>
   </cc:Work>
  </rdf:RDF>
 </metadata>
 <g id="layer1" transform="translate(0 -956.36)">
  <rect id="rect5263-0" fill-opacity=".019608" ry="12.724" height="89.978" width="89.624" y="959.35" x="3.3534"/>
  <rect id="rect5261-6" fill-opacity=".039216" ry="12.552" height="88.762" width="88.413" y="959.96" x="3.9589"/>
  <rect id="rect5259-9" fill-opacity=".078431" ry="12.38" height="87.546" width="87.202" y="960.57" x="4.5645"/>
  <rect id="rect5257-5" fill-opacity=".15686" ry="12.208" height="86.33" width="85.991" y="961.18" x="5.1701"/>
  <path id="rect2419-8" d="m17.75 5.4062c-6.642 0-11.969 5.3948-11.969 12.063l0.0002 61.031c0 6.668 5.3268 12.031 11.969 12.031h60.812c6.642 0 11.969-5.363 11.969-12.031v-61.031c0-6.668-5.327-12.063-11.969-12.063l-60.812 0.0002z" transform="translate(0 956.36)" fill="url(#linearGradient6286)"/>
  <path id="rect5265-0" d="m5.7756 1029.8v5.0663c0 6.668 5.3434 12.032 11.985 12.032h60.809c6.6418 0 11.985-5.3645 11.985-12.032v-5.0663c0 6.6681-5.3434 12.032-11.985 12.032h-60.809c-6.6418 0-11.985-5.3643-11.985-12.032z" fill-opacity=".17"/>
  <path id="path5252-0" d="m5.7756 1033.9v1.0133c0 6.668 5.3434 12.032 11.985 12.032h60.809c6.6418 0 11.985-5.3645 11.985-12.032v-1.0133c0 6.6681-5.3434 12.032-11.985 12.032h-60.809c-6.6418 0-11.985-5.3644-11.985-12.032z" fill-opacity=".098039"/>
  <rect id="rect4772" display="none" height="107.79" width="107.79" y="971.68" x="-369.64" fill="none"/>
  <g id="g4788" display="none" transform="matrix(.21052 0 0 .21052 -369.68 971.63)"></g>
  <g id="g4806" display="none" transform="matrix(.21052 0 0 .21052 -369.68 971.63)">
   <g id="g4808" display="inline">
    <path id="path4810" d="m349.1 256.65c-0.265-0.254 37.637 27.605 39.421 25.012 6.362-9.252 82.046-93.137 84.784-116.24 0.242-2.003-0.516-4.096-0.516-4.096s-1.19-0.144-6.325-4.314c-2.692-2.192-5.483-4.581-5.483-4.581-16.054 0.998-57.885 41.559-111.06 103.57" fill="#050505" display="none"/>
   </g>
  </g>
  <g id="g4796" transform="matrix(.21052 0 0 .21052 -369.68 971.63)"></g>
  <rect id="rect3873" rx="6" ry="6" height="84" width="84" display="none" y="974.2" x="-163.06" fill="url(#linearGradient9745)"/>
  <rect id="rect3880" rx="6" ry="6" height="84" width="84" display="none" y="974.2" x="-163.06" fill="url(#linearGradient9745)"/>
  <g id="layer4" transform="translate(.42210 951.85)">
   <path id="path3792" style="color:#000000" d="m6 78c10.603-9.339 56.335-51.914 44.814-52.854-5.978-0.487-19.98 3.394-26.227 15.175-11.697 22.06 14.672 25.295 25.62 23.96 17.939-2.816 39.793-14.556 39.793-14.556l-0.013 11.979c-38.447 10.958-62.88 9.501-76.278-3.619-13.035-12.764 18.098-41.572 43.326-38.921 26.047 2.736-51.035 58.836-51.035 58.836z" fill="url(#linearGradient3799)"/>
   <path id="path3801" opacity=".2" style="color:#000000" d="m54.656 18c-20.837-0.59602-44.556 18.74-44 32.25 0.62586-13.97 25.515-33.285 46.375-31.094 3.5215 0.36998 5.1469 1.7311 5.3438 3.7812 0.27826-2.6156-1.2738-4.3537-5.3438-4.7812-0.788-0.083-1.576-0.133-2.375-0.156zm-2.031 8.406c-0.84 5.417-14.113 19.536-26.594 31.782-2.474-2.005-4.139-4.672-4.343-8.188-0.07612 4.0117 1.6414 6.9976 4.3438 9.1875 13.323-13.074 27.553-28.316 26.593-32.782zm37.375 22.313s-21.843 11.746-39.781 14.562c-5.451 0.665-14.724 0.172-21.219-3.187-0.25477 0.20936-0.49649 0.3863-0.75 0.59375 6.5126 3.7306 16.304 4.2848 21.969 3.5938 17.938-2.817 39.781-14.563 39.781-14.563v-1zm-69.25 14.625c-6.279 6.009-11.845 11.097-14.75 13.656 0 0 2.4757-1.7989 6.2812-4.6875 2.6963-2.4855 5.8019-5.4053 9.1562-8.625-0.22578-0.12049-0.46569-0.2192-0.6875-0.34375z"/>
   <path id="path3810" opacity=".6" style="color:#000000" d="m62.375 23.938c-0.84874 7.9783-18.727 24.149-34.125 36.75 0.24664 0.14128 0.49436 0.27404 0.75 0.40625 15.904-13.069 34.088-29.729 33.375-37.156zm-12.781 1.1562c-6.4866 0.06795-19.144 4.1735-25 15.219-2.2341 4.2135-3.0769 7.7482-2.9062 10.688 0.05183-2.7312 0.9188-5.9392 2.9062-9.6875 6.2469-11.782 20.241-15.644 26.219-15.156 1.0657 0.08688 1.6534 0.50994 1.8125 1.25 0.20537-1.3244-0.33975-2.1299-1.8125-2.25-0.3736-0.03046-0.78631-0.06703-1.2188-0.0625zm-38.938 26.218c-0.11492 2.9005 0.82216 5.5875 3.0625 7.7812 2.0773 2.0342 4.4123 3.7794 7.0312 5.25 0.2273-0.21751 0.45836-0.43631 0.6875-0.65625-2.8916-1.5431-5.4655-3.3873-7.7188-5.5938-1.9797-1.9386-2.945-4.2689-3.0625-6.7812zm79.344 10.407c-30.552 8.7072-52.246 9.5314-66.594 2.9375-4.2827 3.4186-8.1156 6.372-11.125 8.6562-2.5759 2.374-4.8102 4.392-6.281 5.687 0 0 7.708-5.602 17.406-13.344 14.348 6.594 36.042 5.77 66.594-2.937v-1z" fill="#fff"/>
   <path id="path3828" opacity=".2" style="color:#000000" d="m52.312 19c-24.179 0.977-50.826 27.115-38.593 39.094 2.253 2.206 4.827 4.05 7.719 5.594-6.56 6.295-12.428 11.661-15.438 14.312 0 0 7.708-5.602 17.406-13.344 14.348 6.594 36.042 5.77 66.594-2.937v-1.8438l-2.4062 0.4375c-0.0099 0.0027-0.02137-0.0027-0.03125 0-29.346 8.131-49.995 8.59-63.313 2.437a1.9744 1.9744 0 0 0 -1.062 -0.156 1.9744 1.9744 0 0 0 -0.782 -0.782c-2.7636-1.4822-5.259-3.1142-7.3125-5.125-2.5433-2.4904-3.0172-5.4045-2-9.0625 1.017-3.657 3.755-7.879 7.656-11.78 7.802-7.804 20.191-14.359 31.594-14.844 0.76634-0.0326 1.5072-0.05145 2.25-0.03125 0.74284 0.0202 1.4877 0.07944 2.2188 0.15625 1.8077 0.18992 2.7932 0.65178 3.1875 1.0312 0.39432 0.37948 0.51634 0.71872 0.40625 1.625-0.221 1.813-2.159 5.303-5.407 9.219-4.093 4.936-10.179 10.636-16.594 16.312 3.8741-4.0742 7.4412-8.0225 10.219-11.5 2.6424-3.3083 4.6127-6.1071 5.5312-8.5625 0.45926-1.2277 0.75478-2.4669 0.21875-3.8125s-2.0486-2.1393-3.4062-2.25c-3.5341-0.28813-8.6798 0.64012-14 3.1562s-10.758 6.6803-14.125 13.031c-2.5706 4.8481-3.4659 9.035-2.9688 12.625 0.49718 3.59 2.4359 6.453 4.9688 8.5312a1.9744 1.9744 0 0 0 1.5312 0.40625 1.9744 1.9744 0 0 0 0.96875 1.4062c7.1672 4.1071 17.05 4.6473 23.125 3.9062a1.9744 1.9744 0 0 0 0.0625 -0.03125c16.458-2.583 33.417-11.225 37.468-13.343v-0.03125h0.03125l1.9688-1.0625v-2.0625s-21.843 11.746-39.781 14.562c-5.665 0.691-15.456 0.137-21.969-3.593 20.447-16.732 45.265-39.8 28.781-41.532-0.788-0.083-1.576-0.133-2.375-0.156-0.773-0.022-1.564-0.032-2.344 0zm-2.7188 6.0938c0.43244-0.0045 0.84515 0.03204 1.2188 0.0625 7.4959 0.61113-9.2491 18.791-24.781 34.031-4.5421-3.6808-6.3442-9.6211-1.4375-18.875 5.8565-11.045 18.513-15.151 25-15.219z" fill="#500"/>
   <path id="path3819-5" opacity=".4" style="color:#000000" d="m54.656 19c-20.837-0.59602-44.556 18.74-44 32.25 0.62586-13.97 25.515-33.285 46.375-31.094 3.5215 0.36998 5.1469 1.7311 5.3438 3.7812 0.27826-2.6156-1.2738-4.3537-5.3438-4.7812-0.788-0.083-1.576-0.133-2.375-0.156zm-2.031 8.406c-0.84 5.417-14.113 19.536-26.594 31.782-2.474-2.005-4.139-4.672-4.343-8.188-0.07612 4.0117 1.6414 6.9976 4.3438 9.1875 13.323-13.074 27.553-28.316 26.593-32.782zm37.375 22.313s-21.843 11.746-39.781 14.562c-5.451 0.665-14.724 0.172-21.219-3.187-0.25477 0.20936-0.49649 0.3863-0.75 0.59375 6.5126 3.7306 16.304 4.2848 21.969 3.5938 17.938-2.817 39.781-14.563 39.781-14.563v-1zm-69.25 14.625c-6.279 6.009-11.845 11.097-14.75 13.656 0 0 2.4757-1.7989 6.2812-4.6875 2.6963-2.4855 5.8019-5.4053 9.1562-8.625-0.22578-0.12049-0.46569-0.2192-0.6875-0.34375z" fill="#500"/>
  </g>
 </g>
</svg>
