<?xml version="1.0" encoding="UTF-8" standalone="no"?>
<!-- Created with Inkscape (http://www.inkscape.org/) -->
<svg id="svg2" xmlns:rdf="http://www.w3.org/1999/02/22-rdf-syntax-ns#" xmlns="http://www.w3.org/2000/svg" height="96" width="96" version="1.1" xmlns:cc="http://creativecommons.org/ns#" xmlns:xlink="http://www.w3.org/1999/xlink" xmlns:dc="http://purl.org/dc/elements/1.1/">
 <defs id="defs4">
  <linearGradient id="linearGradient3700-09">
   <stop id="stop3702-67" stop-color="#70a83e" offset="0"/>
   <stop id="stop3704-18" stop-color="#9fd058" offset="1"/>
  </linearGradient>
  <linearGradient id="linearGradient9745" y2="5.9877" xlink:href="#linearGradient3700-09" gradientUnits="userSpaceOnUse" x2="48" gradientTransform="translate(-169.06 968.2)" y1="90" x1="48"/>
  <filter id="filter3808" color-interpolation-filters="sRGB">
   <feGaussianBlur id="feGaussianBlur3810" stdDeviation="0.375"/>
  </filter>
  <linearGradient id="linearGradient5314" y2="5.9877" gradientUnits="userSpaceOnUse" x2="48" gradientTransform="matrix(1.1814 0 0 1.0558 -9.635 -2.6629)" y1="90" x1="48">
   <stop id="stop3702-83" stop-color="#f7d687" offset="0"/>
   <stop id="stop3704-58" stop-color="#fbe9bf" offset="1"/>
  </linearGradient>
  <linearGradient id="linearGradient5337" y2="16.413" gradientUnits="userSpaceOnUse" x2="73.214" gradientTransform="translate(-6.2186 959.95)" y1="44.5" x1="73.214">
   <stop id="stop3750-89" offset="0"/>
   <stop id="stop3752-9" stop-opacity=".58824" offset="1"/>
  </linearGradient>
  <linearGradient id="linearGradient5366" y2="5.9877" gradientUnits="userSpaceOnUse" x2="48" gradientTransform="translate(-169.88 932.55)" y1="90" x1="48">
   <stop id="stop3189-6" stop-opacity=".13725" offset="0"/>
   <stop id="stop3191-4" stop-color="#fff" stop-opacity="0" offset="1"/>
  </linearGradient>
  <linearGradient id="linearGradient5370" y2="44.972" gradientUnits="userSpaceOnUse" x2="99.195" gradientTransform="matrix(.92754 0 0 .88555 -22.754 .66380)" y1="18.936" x1="99.195">
   <stop id="stop3742" stop-color="#536d98" offset="0"/>
   <stop id="stop3744" stop-color="#7990b6" offset="1"/>
  </linearGradient>
 </defs>
 <metadata id="metadata7">
  <rdf:RDF>
   <cc:Work rdf:about="">
    <dc:format>image/svg+xml</dc:format>
    <dc:type rdf:resource="http://purl.org/dc/dcmitype/StillImage"/>
    <dc:title/>
   </cc:Work>
  </rdf:RDF>
 </metadata>
 <g id="layer1" transform="translate(0 -956.36)">
  <rect id="rect5263-0" fill-opacity=".019608" ry="12.724" height="89.978" width="89.624" y="959.35" x="3.3534"/>
  <rect id="rect5261-6" fill-opacity=".039216" ry="12.552" height="88.762" width="88.413" y="959.96" x="3.9589"/>
  <rect id="rect5259-9" fill-opacity=".078431" ry="12.38" height="87.546" width="87.202" y="960.57" x="4.5645"/>
  <rect id="rect5257-5" fill-opacity=".15686" ry="12.208" height="86.33" width="85.991" y="961.18" x="5.1701"/>
  <path id="rect2419" d="m17.75 5.4062c-6.642 0-11.969 5.3948-11.969 12.063l0.0002 61.031c0 6.668 5.3268 12.031 11.969 12.031h60.812c6.642 0 11.969-5.363 11.969-12.031v-61.031c0-6.668-5.327-12.063-11.969-12.063l-60.812 0.0002z" transform="translate(0 956.36)" fill="url(#linearGradient5314)"/>
  <path id="rect5265-0" d="m5.7756 1029.8v5.0663c0 6.668 5.3434 12.032 11.985 12.032h60.809c6.6418 0 11.985-5.3645 11.985-12.032v-5.0663c0 6.6681-5.3434 12.032-11.985 12.032h-60.809c-6.6418 0-11.985-5.3643-11.985-12.032z" fill-opacity=".17"/>
  <path id="path5252-0" d="m5.7756 1033.9v1.0133c0 6.668 5.3434 12.032 11.985 12.032h60.809c6.6418 0 11.985-5.3645 11.985-12.032v-1.0133c0 6.6681-5.3434 12.032-11.985 12.032h-60.809c-6.6418 0-11.985-5.3644-11.985-12.032z" fill-opacity=".098039"/>
  <rect id="rect4772" display="none" height="107.79" width="107.79" y="971.68" x="-369.64" fill="none"/>
  <g id="g4788" display="none" transform="matrix(.21052 0 0 .21052 -369.68 971.63)"></g>
  <g id="g4806" display="none" transform="matrix(.21052 0 0 .21052 -369.68 971.63)">
   <g id="g4808" display="inline">
    <path id="path4810" d="m349.1 256.65c-0.265-0.254 37.637 27.605 39.421 25.012 6.362-9.252 82.046-93.137 84.784-116.24 0.242-2.003-0.516-4.096-0.516-4.096s-1.19-0.144-6.325-4.314c-2.692-2.192-5.483-4.581-5.483-4.581-16.054 0.998-57.885 41.559-111.06 103.57" fill="#050505" display="none"/>
   </g>
  </g>
  <g id="g4796" transform="matrix(.21052 0 0 .21052 -369.68 971.63)"></g>
  <rect id="rect3873" rx="6" ry="6" height="84" width="84" display="none" y="974.2" x="-163.06" fill="url(#linearGradient9745)"/>
  <rect id="rect3880" rx="6" ry="6" height="84" width="84" display="none" y="974.2" x="-163.06" fill="url(#linearGradient9745)"/>
  <path id="path3782" d="m54.698 976.45c0 0.483-0.41067 0.875-0.91667 0.875v1.75c0.506 0 0.91667 0.392 0.91667 0.875s-0.41067 0.875-0.91667 0.875v1.75c0.506 0 0.91667 0.392 0.91667 0.875s-0.41067 0.875-0.91667 0.875v1.75c0.506 0 0.91667 0.392 0.91667 0.875s-0.41067 0.875-0.91667 0.875v1.75c0.506 0 0.91667 0.392 0.91667 0.875s-0.41067 0.875-0.91667 0.875v1.75c0.506 0 0.91667 0.392 0.91667 0.875s-0.41067 0.875-0.91667 0.875v1.75c0.506 0 0.91667 0.392 0.91667 0.875s-0.41067 0.875-0.91667 0.875v1.75c0.506 0 0.91667 0.392 0.91667 0.875s-0.41067 0.875-0.91667 0.875v1.75c0.506 0 0.91667 0.392 0.91667 0.875h1.8333c0-0.483 0.41067-0.875 0.91667-0.875s0.91667 0.392 0.91667 0.875h1.8333c-0.000002-0.483 0.41066-0.875 0.91666-0.875s0.91667 0.392 0.91667 0.875h1.8333c-0.000002-0.483 0.41067-0.875 0.91667-0.875s0.91667 0.392 0.91667 0.875h1.8333c0-0.483 0.41067-0.875 0.91667-0.875 0.50599 0 0.91666 0.392 0.91666 0.875h1.8333c0-0.483 0.41067-0.875 0.91667-0.875s0.91666 0.392 0.91666 0.875h1.8333c0-0.483 0.41067-0.875 0.91667-0.875v-1.75c-0.506 0-0.91667-0.392-0.91667-0.875s0.41067-0.875 0.91667-0.875v-1.75c-0.506 0-0.91667-0.392-0.91667-0.875s0.41067-0.875 0.91667-0.875v-1.75c-0.506 0-0.91667-0.392-0.91667-0.875s0.41067-0.875 0.91667-0.875v-1.75c-0.506 0-0.91667-0.392-0.91667-0.875s0.41067-0.875 0.91667-0.875v-1.75c-0.506 0-0.91667-0.392-0.91667-0.875s0.41067-0.875 0.91667-0.875v-1.75c-0.506 0-0.91667-0.392-0.91667-0.875s0.41067-0.875 0.91667-0.875v-1.75c-0.506 0-0.91667-0.392-0.91667-0.875s0.41067-0.875 0.91667-0.875v-1.75c-0.506 0-0.91667-0.392-0.91667-0.875h-1.8333c0 0.483-0.41066 0.875-0.91666 0.875s-0.91667-0.392-0.91667-0.875h-1.8333c0 0.483-0.41067 0.875-0.91666 0.875-0.506 0-0.91667-0.392-0.91667-0.875h-1.8333c0 0.483-0.41067 0.875-0.91667 0.875s-0.91667-0.392-0.91667-0.875h-1.8333c0 0.483-0.41067 0.875-0.91667 0.875s-0.91666-0.392-0.91666-0.875h-1.8333c0 0.483-0.41067 0.875-0.91667 0.875s-0.91667-0.392-0.91667-0.875h-1.8333z" filter="url(#filter3808)" fill="url(#linearGradient5337)"/>
  <path id="path3718" d="m54.698 975.95c0 0.483-0.41067 0.875-0.91667 0.875v1.75c0.506 0 0.91667 0.392 0.91667 0.875s-0.41067 0.875-0.91667 0.875v1.75c0.506 0 0.91667 0.392 0.91667 0.875s-0.41067 0.875-0.91667 0.875v1.75c0.506 0 0.91667 0.392 0.91667 0.875s-0.41067 0.875-0.91667 0.875v1.75c0.506 0 0.91667 0.392 0.91667 0.875s-0.41067 0.875-0.91667 0.875v1.75c0.506 0 0.91667 0.392 0.91667 0.875s-0.41067 0.875-0.91667 0.875v1.75c0.506 0 0.91667 0.392 0.91667 0.875s-0.41067 0.875-0.91667 0.875v1.75c0.506 0 0.91667 0.392 0.91667 0.87502 0 0.483-0.41067 0.875-0.91667 0.875v1.75c0.506 0 0.91667 0.392 0.91667 0.875h1.8333c0-0.483 0.41067-0.875 0.91667-0.875s0.91667 0.392 0.91667 0.875h1.8333c-0.000002-0.483 0.41066-0.875 0.91666-0.875s0.91667 0.392 0.91667 0.875h1.8333c-0.000002-0.483 0.41067-0.875 0.91667-0.875s0.91667 0.392 0.91667 0.875h1.8333c0-0.483 0.41067-0.875 0.91667-0.875 0.50599 0 0.91666 0.392 0.91666 0.875h1.8333c0-0.483 0.41067-0.875 0.91667-0.875s0.91666 0.392 0.91666 0.875h1.8333c0-0.483 0.41067-0.875 0.91667-0.875v-1.75c-0.506 0-0.91667-0.392-0.91667-0.875 0-0.48302 0.41067-0.87502 0.91667-0.87502v-1.75c-0.506 0-0.91667-0.392-0.91667-0.875s0.41067-0.875 0.91667-0.875v-1.75c-0.506 0-0.91667-0.392-0.91667-0.875s0.41067-0.875 0.91667-0.875v-1.75c-0.506 0-0.91667-0.392-0.91667-0.875s0.41067-0.875 0.91667-0.875v-1.75c-0.506 0-0.91667-0.392-0.91667-0.875s0.41067-0.875 0.91667-0.875v-1.75c-0.506 0-0.91667-0.392-0.91667-0.875s0.41067-0.875 0.91667-0.875v-1.75c-0.506 0-0.91667-0.392-0.91667-0.875s0.41067-0.875 0.91667-0.875v-1.75c-0.506 0-0.91667-0.392-0.91667-0.875h-1.8333c0 0.483-0.41066 0.875-0.91666 0.875s-0.91667-0.392-0.91667-0.875h-1.8333c0 0.483-0.41067 0.875-0.91666 0.875-0.506 0-0.91667-0.392-0.91667-0.875h-1.8333c0 0.483-0.41067 0.875-0.91667 0.875s-0.91667-0.392-0.91667-0.875h-1.8333c0 0.483-0.41067 0.875-0.91667 0.875s-0.91666-0.392-0.91666-0.875h-1.8333c0 0.483-0.41067 0.875-0.91667 0.875s-0.91667-0.392-0.91667-0.875h-1.8333z" fill="#fff"/>
  <g id="g3772" transform="matrix(.96557 0 0 .95605 -2.8148 962.28)">
   <rect id="rect3738" height="23.011" width="16.57" y="17.432" x="61.721" fill="url(#linearGradient5370)"/>
   <path id="path3456" opacity=".8" d="m69.531 34.209c-0.55153-0.17357-0.87225-0.34586-1.4138-0.75952-1.4537-1.1103-2.2103-2.7472-1.7984-3.8908 0.17016-0.47242 0.3641-0.77178 0.71499-1.1036 0.60927-0.57617 1.5594-1.0012 2.7468-1.2287 1.8439-0.35333 3.2959 0.08728 3.4095 1.0345 0.08245 0.68775-0.4771 1.3138-2.0902 2.3385-1.1451 0.72744-1.5911 1.1151-1.5911 1.3827 0 0.38472 0.49495 0.77048 0.98858 0.77048 0.31149 0 0.47148-0.15868 0.60922-0.60424 0.18238-0.5899 0.55511-0.79795 1.4434-0.8057 0.62227-0.0054 0.81552 0.13054 0.84409 0.59385 0.01673 0.27134-0.01847 0.40823-0.18842 0.73285-0.27858 0.53212-0.93161 1.1431-1.5059 1.4089-0.39186 0.1814-0.51284 0.20568-1.1203 0.22486-0.52987 0.01672-0.76251-0.0042-1.0485-0.09418zm-3.5683-6.4861c-0.46993-0.38798-0.67212-1.1625-0.37611-1.4409 0.45119-0.42425 1.0236-0.11174 1.2055 0.65819 0.19173 0.81144-0.26849 1.2458-0.82938 0.7827zm1.5841-1.0812c-0.33676-0.33368-0.44893-0.59781-0.4521-1.0646-0.0027-0.39578-0.0032-0.50491 0.2171-0.71206 0.43719-0.41109 0.98636-0.10546 1.1556 0.75542 0.08323 0.42336-0.01071 0.8069-0.25782 1.0526-0.22812 0.22684-0.41089 0.21818-0.66278-0.03142zm4.5256 0.0012c-0.21757-0.1075-0.45539-0.44634-0.51183-0.72927-0.10948-0.54874 0.3085-1.5433 0.81145-1.9308 0.82099-0.63258 2.0325-0.70851 2.3414-0.14674 0.25136 0.45704-0.07994 1.2709-0.81555 2.0035-0.68096 0.67816-1.4204 1.0035-1.8255 0.80336zm-2.4566-0.43863c-0.2602-0.11807-0.44797-0.58491-0.44959-1.1178-0.0024-0.77811 0.32569-1.1931 0.94354-1.1937 0.37691-0.000318 0.5962 0.23937 0.6603 0.72172 0.07831 0.58937-0.31541 1.4661-0.71762 1.5979-0.24282 0.07959-0.24319 0.07959-0.43664-0.0082z" fill="#fff"/>
   <path id="path4494" opacity=".6" d="m73.761 38.79c-0.30118-0.09394-0.47633-0.18718-0.77208-0.41104-0.79382-0.60088-1.207-1.4868-0.98211-2.1056 0.09292-0.25567 0.19882-0.41768 0.39044-0.59726 0.33272-0.31182 0.85155-0.54182 1.5-0.66497 1.0069-0.19122 1.7999 0.04723 1.8619 0.55988 0.04503 0.3722-0.26053 0.711-1.1414 1.2656-0.62532 0.39368-0.8689 0.60345-0.8689 0.7483 0 0.20821 0.27028 0.41697 0.53986 0.41697 0.1701 0 0.25747-0.08588 0.33269-0.32701 0.0996-0.31925 0.30314-0.43184 0.78825-0.43604 0.33982-0.0029 0.44536 0.07064 0.46096 0.32139 0.0091 0.14685-0.01009 0.22093-0.1029 0.39661-0.15212 0.28798-0.50874 0.61863-0.82235 0.76249-0.21399 0.09817-0.28006 0.11131-0.61177 0.12169-0.28936 0.0091-0.4164-0.0023-0.57258-0.05097zm-1.948-3.51c-0.25662-0.20997-0.36704-0.62916-0.20538-0.77979 0.24639-0.2296 0.55896-0.06047 0.65831 0.3562 0.1047 0.43915-0.14662 0.6742-0.45292 0.42359zm0.86509-0.58512c-0.1839-0.18058-0.24516-0.32353-0.24688-0.57614-0.0015-0.21419-0.0018-0.27325 0.11855-0.38536 0.23875-0.22248 0.53864-0.05707 0.63106 0.40883 0.04546 0.22912-0.0058 0.43669-0.14079 0.56967-0.12457 0.12276-0.22438 0.11807-0.36194-0.017zm2.4714 0.000636c-0.11881-0.05818-0.24869-0.24155-0.27951-0.39467-0.05978-0.29697 0.16847-0.83522 0.44313-1.0449 0.44835-0.34235 1.1099-0.38344 1.2786-0.07942 0.13727 0.24735-0.04366 0.6878-0.44536 1.0843-0.37187 0.36701-0.77564 0.54311-0.9969 0.43477zm-1.3415-0.23738c-0.14208-0.0639-0.24464-0.31655-0.24551-0.60492-0.0013-0.42111 0.17785-0.64572 0.51526-0.646 0.20583-0.000173 0.32559 0.12955 0.36059 0.39059 0.04276 0.31896-0.17224 0.79342-0.39189 0.86476-0.1326 0.04308-0.1328 0.04307-0.23845-0.0044z" fill="#fff"/>
   <path id="path4496" opacity=".4" d="m64.946 36.443c-0.18262-0.05696-0.28881-0.11349-0.46814-0.24923-0.48132-0.36433-0.73186-0.90148-0.59548-1.2767 0.05634-0.15502 0.12056-0.25325 0.23674-0.36214 0.20174-0.18907 0.51632-0.32852 0.90952-0.40319 0.61053-0.11594 1.0913 0.02864 1.1289 0.33948 0.0273 0.22568-0.15797 0.4311-0.69209 0.76736-0.37916 0.2387-0.52685 0.36589-0.52685 0.45372 0 0.12624 0.16388 0.25282 0.32734 0.25282 0.10314 0 0.15611-0.05207 0.20172-0.19828 0.06039-0.19357 0.18381-0.26184 0.47794-0.26438 0.20604-0.0018 0.27003 0.04283 0.27949 0.19487 0.0055 0.08904-0.0061 0.13396-0.06239 0.24048-0.09224 0.17461-0.30846 0.37509-0.49861 0.46232-0.12975 0.05952-0.16981 0.06749-0.37093 0.07379-0.17545 0.0055-0.25248-0.0014-0.34718-0.0309zm-1.1815-2.1283c-0.1556-0.12731-0.22254-0.38148-0.12453-0.47281 0.14939-0.13922 0.33892-0.03667 0.39915 0.21598 0.06348 0.26627-0.0889 0.40879-0.27462 0.25683zm0.52453-0.35478c-0.11151-0.10949-0.14865-0.19616-0.14969-0.34933-0.000895-0.12987-0.0011-0.16568 0.07188-0.23366 0.14476-0.1349 0.32659-0.0346 0.38263 0.24788 0.02756 0.13892-0.0035 0.26478-0.08537 0.34541-0.07553 0.07444-0.13605 0.07159-0.21946-0.01031zm1.4985 0.000386c-0.07204-0.03527-0.15079-0.14646-0.16948-0.2393-0.03625-0.18006 0.10215-0.50642 0.26868-0.63358 0.27184-0.20758 0.67299-0.23249 0.77528-0.04815 0.08323 0.14997-0.02647 0.41704-0.27004 0.65742-0.22548 0.22253-0.4703 0.3293-0.60445 0.26361zm-0.8134-0.14393c-0.08615-0.03874-0.14833-0.19193-0.14887-0.36678-0.000787-0.25533 0.10784-0.39152 0.31242-0.39169 0.1248-0.000105 0.19741 0.07855 0.21864 0.23683 0.02593 0.1934-0.10444 0.48107-0.23762 0.52433-0.0804 0.02612-0.08052 0.02612-0.14457-0.0027z" fill="#fff"/>
   <path id="path4498" opacity=".4" d="m71.898 22.772c-0.18261-0.05696-0.28881-0.11349-0.46814-0.24923-0.48132-0.36433-0.73185-0.90148-0.59548-1.2767 0.05634-0.15502 0.12055-0.25325 0.23674-0.36214 0.20173-0.18907 0.51632-0.32852 0.90951-0.40319 0.61054-0.11594 1.0913 0.02864 1.1289 0.33948 0.0273 0.22568-0.15797 0.4311-0.69209 0.76736-0.37916 0.2387-0.52685 0.36589-0.52685 0.45372 0 0.12624 0.16389 0.25282 0.32734 0.25282 0.10314 0 0.15611-0.05207 0.20172-0.19828 0.06039-0.19357 0.18381-0.26184 0.47794-0.26438 0.20606-0.0018 0.27004 0.04283 0.27949 0.19487 0.0055 0.08904-0.0061 0.13396-0.06238 0.24048-0.09225 0.17461-0.30847 0.37509-0.49862 0.46232-0.12975 0.05952-0.16981 0.06749-0.37094 0.07378-0.17545 0.0055-0.25248-0.0014-0.34718-0.0309zm-1.1815-2.1283c-0.1556-0.12731-0.22254-0.38148-0.12453-0.47281 0.14939-0.13922 0.33891-0.03667 0.39916 0.21598 0.06348 0.26627-0.0889 0.40879-0.27462 0.25684zm0.52453-0.35478c-0.11151-0.10949-0.14865-0.19616-0.14969-0.34933-0.000901-0.12987-0.0011-0.16568 0.07188-0.23366 0.14476-0.1349 0.3266-0.03461 0.38263 0.24788 0.02757 0.13892-0.0035 0.26478-0.08536 0.34541-0.07553 0.07444-0.13605 0.07159-0.21946-0.01031zm1.4985 0.000386c-0.07204-0.03527-0.15079-0.14646-0.16948-0.2393-0.03625-0.18006 0.10215-0.50642 0.26869-0.63358 0.27184-0.20758 0.67299-0.23249 0.77529-0.04815 0.08323 0.14997-0.02647 0.41704-0.27004 0.65743-0.22548 0.22253-0.47029 0.3293-0.60445 0.26361zm-0.8134-0.14393c-0.08615-0.03874-0.14833-0.19193-0.14887-0.36678-0.000779-0.25533 0.10784-0.39152 0.31242-0.39169 0.1248-0.000105 0.19742 0.07855 0.21864 0.23683 0.02592 0.1934-0.10444 0.48107-0.23762 0.52434-0.0804 0.02612-0.08052 0.02612-0.14458-0.0027z" fill="#fff"/>
   <path id="path4500" opacity=".4" d="m64.752 24.278c-0.11736-0.0366-0.18561-0.07294-0.30086-0.16017-0.30933-0.23415-0.47035-0.57936-0.3827-0.82052 0.03621-0.09963 0.07748-0.16276 0.15215-0.23274 0.12965-0.12151 0.33183-0.21114 0.58453-0.25912 0.39238-0.07451 0.70138 0.01841 0.72554 0.21818 0.01754 0.14504-0.10152 0.27706-0.44479 0.49317-0.24368 0.15341-0.3386 0.23515-0.3386 0.2916 0 0.08113 0.10533 0.16249 0.21037 0.16249 0.06629 0 0.10033-0.03346 0.12964-0.12743 0.03881-0.1244 0.11813-0.16828 0.30716-0.16991 0.13242-0.0011 0.17354 0.02753 0.17962 0.12524 0.0036 0.05722-0.0039 0.08609-0.04009 0.15455-0.05928 0.11222-0.19825 0.24106-0.32045 0.29713-0.08339 0.03825-0.10914 0.04338-0.2384 0.04742-0.11276 0.0035-0.16226-0.000879-0.22312-0.01986zm-0.75934-1.3678c-0.1-0.08182-0.14302-0.24517-0.08003-0.30387 0.09601-0.08947 0.21781-0.02356 0.25653 0.1388 0.0408 0.17112-0.05714 0.26272-0.1765 0.16506zm0.3371-0.22801c-0.07166-0.07037-0.09553-0.12607-0.09621-0.22451-0.000577-0.08347-0.000684-0.10648 0.0462-0.15017 0.09304-0.08669 0.2099-0.02224 0.24591 0.15931 0.01772 0.08928-0.0023 0.17017-0.05486 0.22199-0.04854 0.04784-0.08744 0.04601-0.14104-0.0066zm0.96304 0.000248c-0.0463-0.02267-0.09691-0.09413-0.10892-0.1538-0.0233-0.11572 0.06565-0.32546 0.17268-0.40719 0.17471-0.1334 0.43252-0.14942 0.49826-0.03095 0.05349 0.09638-0.01701 0.26802-0.17355 0.42251-0.14491 0.14302-0.30224 0.21164-0.38847 0.16942zm-0.52276-0.0925c-0.05537-0.0249-0.09533-0.12335-0.09568-0.23572-0.0005-0.1641 0.06931-0.25162 0.20079-0.25173 0.08021-0.000067 0.12688 0.05048 0.14052 0.1522 0.01666 0.12429-0.06712 0.30918-0.15271 0.33698-0.05167 0.01679-0.05175 0.01678-0.09291-0.0017z" fill="#fff"/>
  </g>
  <g id="g5339" transform="matrix(.88607 0 0 .83724 156.43 180.49)">
   <g id="g2684" transform="matrix(.75058 0 0 .66667 -169.88 1014.5)">
    <path id="path2620" d="m108.62 12h-13.215l3.3038-6h13.215l-3.3038 6z" fill="#ca1e18"/>
    <path id="path2622" d="m88.799 12h-13.215l3.3038-6h13.215l-3.3038 6z" fill="#2c72c7"/>
    <path id="path2624" d="m68.977 12h-13.215l3.3038-6h13.215l-3.3038 6z" fill="#ca1e18"/>
    <path id="path2626" d="m49.154 12h-13.215l3.3038-6h13.215l-3.3038 6z" fill="#2c72c7"/>
    <path id="path2628" d="m29.215 12h-13.215l3.304-6h13.215l-3.304 6z" fill="#ca1e18"/>
   </g>
   <g id="g2727" transform="matrix(.66667 0 0 .75058 -87.875 932.48)">
    <path id="path2729" d="m6 19.378v13.215l6-3.304v-13.215l-6 3.304z" fill="#2c72c7"/>
    <path id="path2731" d="m6 39.201v13.215l6-3.3038v-13.215l-6 3.3038z" fill="#ca1e18"/>
    <path id="path2733" d="m6 59.023v13.215l6-3.3038v-13.215l-6 3.3038z" fill="#2c72c7"/>
    <path id="path2735" d="m6 78.846v13.215l6-3.3038v-13.215l-6 3.3038z" fill="#ca1e18"/>
    <path id="path2737" d="m6 98.785v13.215l6-3.3v-13.219l-6 3.304z" fill="#2c72c7"/>
   </g>
   <g id="g3466" transform="matrix(.66667 0 0 .75058 -167.88 932.48)">
    <path id="path3468" d="m6 19.378v13.215l6-3.304v-13.215l-6 3.304z" fill="#2c72c7"/>
    <path id="path3470" d="m6 39.201v13.215l6-3.3038v-13.215l-6 3.3038z" fill="#ca1e18"/>
    <path id="path3472" d="m6 59.023v13.215l6-3.3038v-13.215l-6 3.3038z" fill="#2c72c7"/>
    <path id="path3474" d="m6 78.846v13.215l6-3.3038v-13.215l-6 3.3038z" fill="#ca1e18"/>
    <path id="path3476" d="m6 98.785v13.215l6-3.3v-13.219l-6 3.304z" fill="#2c72c7"/>
   </g>
   <g id="g3478" transform="matrix(.75058 0 0 .66667 -169.88 934.55)">
    <path id="path3480" d="m108.62 12h-13.215l3.3038-6h13.215l-3.3038 6z" fill="#ca1e18"/>
    <path id="path3482" d="m88.799 12h-13.215l3.3038-6h13.215l-3.3038 6z" fill="#2c72c7"/>
    <path id="path3484" d="m68.977 12h-13.215l3.3038-6h13.215l-3.3038 6z" fill="#ca1e18"/>
    <path id="path3486" d="m49.154 12h-13.215l3.3038-6h13.215l-3.3038 6z" fill="#2c72c7"/>
    <path id="path3488" d="m29.215 12h-13.215l3.304-6h13.215l-3.304 6z" fill="#ca1e18"/>
   </g>
   <path id="rect3407" d="m-155.41 938.55-2.4688 4h9.9062l2.5-4h-9.9375zm14.969 0-2.4688 4h9.9062l2.5-4h-9.9375zm14.875 0-2.4688 4h9.9062l2.5-4h-9.9375zm14.875 0-2.4688 4h9.9375l2.4688-4h-9.9375zm14.906 0-2.5 4h9.9375l2.4688-4h-9.9062zm-64.094 6-4 2.4688v9.9375l4-2.5v-9.9062zm80 0-4 2.4688v9.9375l4-2.5v-9.9062zm-80 14.875-4 2.4688v9.9375l4-2.4688v-9.9375zm80 0-4 2.4688v9.9375l4-2.4688v-9.9375zm-80 14.875-4 2.5v9.9062l4-2.4688v-9.9375zm80 0-4 2.5v9.9062l4-2.4688v-9.9375zm-80 14.875-4 2.5v9.9063l4-2.4688v-9.9375zm80 0-4 2.5v9.9063l4-2.4688v-9.9375zm-80 14.969-4 2.5v9.9062l4-2.4687v-9.9375zm80 0-4 2.5v9.9062l4-2.4687v-9.9375zm-75.531 14.406-2.4688 4h9.9062l2.5-4h-9.9375zm14.969 0-2.4688 4h9.9062l2.5-4h-9.9375zm14.875 0-2.4688 4h9.9062l2.5-4h-9.9375zm14.875 0-2.4688 4h9.9375l2.4688-4h-9.9375zm14.906 0-2.5 4h9.9375l2.4688-4h-9.9062z" fill="url(#linearGradient5366)"/>
  </g>
  <text id="text5372" style="word-spacing:0px;letter-spacing:0px" xml:space="preserve" transform="scale(.95175 1.0507)" font-size="5.6814px" y="970.927" x="21.313492" font-family="Serif" line-height="125%" fill="#000000"><tspan id="tspan5374" y="970.927" x="21.313492">Sherlock Holmes</tspan><tspan id="tspan5376" y="978.02875" x="21.313492">Baker Street 221B</tspan></text>
 </g>
</svg>
