<?xml version="1.0" encoding="UTF-8" standalone="no"?>
<!-- Created with Inkscape (http://www.inkscape.org/) -->
<svg id="svg2" xmlns:rdf="http://www.w3.org/1999/02/22-rdf-syntax-ns#" xmlns="http://www.w3.org/2000/svg" height="96" width="96" version="1.1" xmlns:cc="http://creativecommons.org/ns#" xmlns:xlink="http://www.w3.org/1999/xlink" xmlns:dc="http://purl.org/dc/elements/1.1/">
 <defs id="defs4">
  <linearGradient id="linearGradient3700-09">
   <stop id="stop3702-67" stop-color="#70a83e" offset="0"/>
   <stop id="stop3704-18" stop-color="#9fd058" offset="1"/>
  </linearGradient>
  <linearGradient id="linearGradient9745" y2="5.9877" xlink:href="#linearGradient3700-09" gradientUnits="userSpaceOnUse" x2="48" gradientTransform="translate(-169.06 968.2)" y1="90" x1="48"/>
  <clipPath id="clipPath4095">
   <rect id="rect4097" rx="6.7488" ry="6.7488" height="94.483" width="94.483" y="8.4115" x="1.4663" fill="#f0f"/>
  </clipPath>
  <linearGradient id="linearGradient4321">
   <stop id="stop4323" stop-color="#848484" offset="0"/>
   <stop id="stop4325" stop-color="#454545" offset="1"/>
  </linearGradient>
  <linearGradient id="linearGradient4341-6">
   <stop id="stop4343-5" offset="0"/>
   <stop id="stop4345-8" stop-opacity="0" offset="1"/>
  </linearGradient>
  <linearGradient id="linearGradient8714" y2="24.147" xlink:href="#linearGradient4321" gradientUnits="userSpaceOnUse" x2="97.732" gradientTransform="matrix(1.0777 0 0 1.0777 -5.3853 -3.7078)" y1="24.147" x1="48.917"/>
  <linearGradient id="linearGradient8716" y2="24.147" xlink:href="#linearGradient4321" gradientUnits="userSpaceOnUse" x2="97.732" gradientTransform="matrix(.76208 .76208 -.76208 .76208 48.272 -29.567)" y1="24.147" x1="48.917"/>
  <linearGradient id="linearGradient8718" y2="23.509" xlink:href="#linearGradient4341-6" gradientUnits="userSpaceOnUse" x2="53.392" gradientTransform="matrix(.76208 .76208 -.76208 .76208 48.272 -29.567)" y1="22.625" x1="56.27"/>
  <linearGradient id="linearGradient8720" y2="24.147" xlink:href="#linearGradient4321" gradientUnits="userSpaceOnUse" x2="97.732" gradientTransform="matrix(0 1.0777 -1.0777 0 101.32 -7.344)" y1="24.147" x1="48.917"/>
  <linearGradient id="linearGradient8722" y2="23.509" xlink:href="#linearGradient4341-6" gradientUnits="userSpaceOnUse" x2="53.392" gradientTransform="matrix(0 1.0777 -1.0777 0 101.32 -7.344)" y1="22.625" x1="56.27"/>
  <linearGradient id="linearGradient8724" y2="24.147" xlink:href="#linearGradient4321" gradientUnits="userSpaceOnUse" x2="97.732" gradientTransform="matrix(-.76208 .76208 -.76208 -.76208 123.3 45.941)" y1="24.147" x1="48.917"/>
  <linearGradient id="linearGradient8726" y2="23.509" xlink:href="#linearGradient4341-6" gradientUnits="userSpaceOnUse" x2="53.392" gradientTransform="matrix(-.76208 .76208 -.76208 -.76208 123.3 45.941)" y1="22.625" x1="56.27"/>
  <linearGradient id="linearGradient8728" y2="24.147" xlink:href="#linearGradient4321" gradientUnits="userSpaceOnUse" x2="97.732" gradientTransform="matrix(-1.0777 0 0 -1.0777 102.59 101.76)" y1="24.147" x1="48.917"/>
  <linearGradient id="linearGradient8730" y2="23.509" xlink:href="#linearGradient4341-6" gradientUnits="userSpaceOnUse" x2="53.392" gradientTransform="matrix(-1.0777 0 0 -1.0777 102.59 101.76)" y1="22.625" x1="56.27"/>
  <linearGradient id="linearGradient8732" y2="24.147" xlink:href="#linearGradient4321" gradientUnits="userSpaceOnUse" x2="97.732" gradientTransform="matrix(-.76208 -.76208 .76208 -.76208 48.297 122.99)" y1="24.147" x1="48.917"/>
  <linearGradient id="linearGradient8734" y2="23.509" xlink:href="#linearGradient4341-6" gradientUnits="userSpaceOnUse" x2="53.392" gradientTransform="matrix(-.76208 -.76208 .76208 -.76208 48.297 122.99)" y1="22.625" x1="56.27"/>
  <linearGradient id="linearGradient8736" y2="24.147" xlink:href="#linearGradient4321" gradientUnits="userSpaceOnUse" x2="97.732" gradientTransform="matrix(0 -1.0777 1.0777 0 -6.7689 100.51)" y1="24.147" x1="48.917"/>
  <linearGradient id="linearGradient8738" y2="23.509" xlink:href="#linearGradient4341-6" gradientUnits="userSpaceOnUse" x2="53.392" gradientTransform="matrix(0 -1.0777 1.0777 0 -6.7689 100.51)" y1="22.625" x1="56.27"/>
  <linearGradient id="linearGradient8740" y2="24.147" xlink:href="#linearGradient4321" gradientUnits="userSpaceOnUse" x2="97.732" gradientTransform="matrix(.76208 -.76208 .76208 .76208 -27.993 47.228)" y1="24.147" x1="48.917"/>
  <linearGradient id="linearGradient8742" y2="23.509" xlink:href="#linearGradient4341-6" gradientUnits="userSpaceOnUse" x2="53.392" gradientTransform="matrix(.76208 -.76208 .76208 .76208 -27.993 47.228)" y1="22.625" x1="56.27"/>
  <linearGradient id="linearGradient8744" y2="23.509" xlink:href="#linearGradient4341-6" gradientUnits="userSpaceOnUse" x2="53.392" gradientTransform="matrix(1.0777 0 0 1.0777 -5.3853 -3.7078)" y1="22.625" x1="56.27"/>
  <clipPath id="clipPath8752" clipPathUnits="userSpaceOnUse">
   <path id="path8754" d="m19.312 955.49c-6.0274 0-10.862 4.6592-10.862 10.418v52.711c0 5.7591 4.8342 10.391 10.862 10.391h55.187c6.0274 0 10.862-4.6321 10.862-10.391v-52.711c0-5.759-4.8342-10.418-10.862-10.418h-55.187z" fill="url(#radialGradient8756)"/>
  </clipPath>
  <radialGradient id="radialGradient8756" gradientUnits="userSpaceOnUse" cy="6" cx="6" gradientTransform="matrix(.94969 0 0 -.91188 1.789 1036.1)" r="42">
   <stop id="stop4982" stop-color="#74c332" offset="0"/>
   <stop id="stop4984" stop-color="#9ecd5e" offset="1"/>
  </radialGradient>
  <linearGradient id="linearGradient8770" y2="82" gradientUnits="userSpaceOnUse" x2="34" gradientTransform="matrix(1.0108 0 0 1 2.6729 948.29)" y1="78" x1="34">
   <stop id="stop3827" stop-color="#333" offset="0"/>
   <stop id="stop3829" stop-color="#494949" offset="1"/>
  </linearGradient>
  <linearGradient id="linearGradient8773" y2="74.938" gradientUnits="userSpaceOnUse" x2="37" gradientTransform="matrix(1.0108 0 0 1 1.6621 948.29)" y1="83" x1="37">
   <stop id="stop3854-4" stop-color="#fff" offset="0"/>
   <stop id="stop3856" stop-color="#fff" stop-opacity="0" offset="1"/>
  </linearGradient>
  <linearGradient id="linearGradient8776" y2="68" gradientUnits="userSpaceOnUse" x2="40" gradientTransform="translate(-.099525 948.29)" y1="72" x1="40">
   <stop id="stop3800" offset="0"/>
   <stop id="stop3806-7" stop-opacity=".49804" offset=".34375"/>
   <stop id="stop3802" stop-opacity="0" offset="1"/>
  </linearGradient>
  <linearGradient id="linearGradient8780" y2="72" gradientUnits="userSpaceOnUse" x2="40" gradientTransform="matrix(1.0108 0 0 1.6445 -.35936 -54.473)" y1="88" x1="40">
   <stop id="stop3781-0" stop-color="#ccc" offset="0"/>
   <stop id="stop3783-8" stop-color="#dfdfdf" offset="1"/>
  </linearGradient>
  <radialGradient id="radialGradient8784" gradientUnits="userSpaceOnUse" cy="78.2" cx="32" gradientTransform="matrix(1.5 9.9073e-7 -9.9073e-7 1.5 -16 -39.3)" r="4">
   <stop id="stop3865" stop-color="#ebebeb" offset="0"/>
   <stop id="stop3867-8" stop-color="#c0c0c0" offset="1"/>
  </radialGradient>
 </defs>
 <metadata id="metadata7">
  <rdf:RDF>
   <cc:Work rdf:about="">
    <dc:format>image/svg+xml</dc:format>
    <dc:type rdf:resource="http://purl.org/dc/dcmitype/StillImage"/>
    <dc:title/>
   </cc:Work>
  </rdf:RDF>
 </metadata>
 <g id="layer1" transform="translate(0 -956.36)">
  <rect id="rect5263-0" fill-opacity=".019608" ry="12.724" height="89.978" width="89.624" y="959.35" x="3.3534"/>
  <rect id="rect5261-6" fill-opacity=".039216" ry="12.552" height="88.762" width="88.413" y="959.96" x="3.9589"/>
  <rect id="rect5259-9" fill-opacity=".078431" ry="12.38" height="87.546" width="87.202" y="960.57" x="4.5645"/>
  <rect id="rect5257-5" fill-opacity=".15686" ry="12.208" height="86.33" width="85.991" y="961.18" x="5.1701"/>
  <g id="g8686" clip-path="url(#clipPath8752)" transform="matrix(1.1019 0 0 1.1578 -3.5309 -144.53)">
   <path id="path2955" d="m73.652 988.89a23.764 23.764 0 0 1 -47.528 0 23.764 23.764 0 1 1 47.528 0z" fill="#333"/>
   <g id="g4592" fill-rule="evenodd" transform="matrix(.88905 0 0 .88905 6.2385 946.71)" clip-path="url(#clipPath4095)">
    <path id="path4319" d="m63.746 52.942-18.232-65.8 54.43 4.549v60.162l-36.199 1.0887z" fill="url(#linearGradient8714)"/>
    <path id="path4329" opacity=".2" d="m45.879-13.705 17.879 66.646 1.5326-0.64021-17.879-66.612-1.5326 0.60653z" fill="#fff"/>
    <path id="path4424" d="m57.098 59.374 31.706-54.916 37.206 37.202-42.545 42.541-26.367-24.827z" fill="url(#linearGradient8716)"/>
    <path id="path4426" opacity=".2" d="m88.806 4.4407-31.698 54.941 1.695 0.538 31.674-54.917-1.671-0.5623z" fill="#fff"/>
    <path id="path4428" opacity=".6" d="m85.302 1.0891-31.243 55.245 3.1198 2.9292 31.626-54.822-3.5032-3.3516z" fill="url(#linearGradient8718)"/>
    <path id="path4436" d="m44.668 61.788 61.252-16.412v52.611h-60.162l-1.0887-36.199z" fill="url(#linearGradient8720)"/>
    <path id="path4438" opacity=".2" d="m105.93 45.364-61.263 16.436 0.03368 1.8359 61.229-16.436v-1.8359z" fill="#fff"/>
    <path id="path4440" opacity=".6" d="m105.93 41.054-61.263 16.436 0.13472 4.2773 61.128-16.402v-4.311z" fill="url(#linearGradient8722)"/>
    <path id="path4448" d="m34.359 54.767 54.916 31.705-37.202 37.198-42.54-42.537 24.826-26.366z" fill="url(#linearGradient8724)"/>
    <path id="path4450" opacity=".2" d="m89.292 86.474-54.941-31.698-1.0976 1.3924 54.917 31.674 1.1214-1.3686z" fill="#fff"/>
    <path id="path4452" opacity=".6" d="m92.341 83.426-54.942-31.698l-2.9292 3.1198 54.822 31.626 3.0483-3.0483z" fill="url(#linearGradient8726)"/>
    <path id="path4460" d="m33.461 45.115 16.412 61.251h-52.611v-60.162l36.199-1.0887z" fill="url(#linearGradient8728)"/>
    <path id="path4462" opacity=".2" d="m49.884 106.38-16.436-61.263-1.6843 0.48858 16.436 61.229 1.6843-0.4549z" fill="#fff"/>
    <path id="path4464" opacity=".6" d="m54.195 106.38-16.436-61.263-4.2773 0.13472 16.402 61.128h4.311z" fill="url(#linearGradient8730)"/>
    <path id="path4472" d="m39.472 34.048-31.706 54.916-37.202-37.202 42.541-42.541 26.367 24.827z" fill="url(#linearGradient8732)"/>
    <path id="path4474" opacity=".2" d="m7.7642 88.981 31.698-54.941-1.392-1.193-31.674 54.917 1.3682 1.217z" fill="#fff"/>
    <path id="path4476" opacity=".6" d="m10.813 92.029 31.697-54.941-3.119-2.929-31.627 54.822 3.049 3.048z" fill="url(#linearGradient8734)"/>
    <path id="path4484" d="m-11.375-4.8125v52.594l61.25-16.406-1.0312-34.094-0.5625-2.0938h-59.656z" fill="url(#linearGradient8736)"/>
    <path id="path4486" opacity=".2" d="m-11.383 47.805 61.263-16.436-0.48858-1.6843-61.229 16.436 0.4549 1.6843z" fill="#fff"/>
    <path id="path4488" opacity=".6" d="m-11.383 52.116 61.263-16.436-0.13472-4.2773-61.128 16.402v4.311z" fill="url(#linearGradient8738)"/>
    <path id="path4496" d="m43.219-30.5-37.188 37.188 53.625 30.969-13.277-49.293h18.094l-21.254-18.864z" fill="url(#linearGradient8740)"/>
    <path id="path4498" opacity=".2" d="m6.6532 5.1793-0.6532 1.5082 53.656 30.968-0.503-2.227-52.5-30.25z" fill="#fff"/>
    <path id="path4500" opacity=".6" d="m6 6.6875-3.0312 3.0625 54.937 31.688 2.156-2.282-0.406-1.531-53.656-30.938z" fill="url(#linearGradient8742)"/>
    <path id="path4334" opacity=".6" d="m41.635-13.544 17.803 66.482l1.4062-0.03125 1.9688-3.4375-16.865-63.013h-4.3125z" fill="url(#linearGradient8744)"/>
   </g>
  </g>
  <path id="rect3002" style="color:#000000" d="m5.7812 63.938v14.562c0 6.668 5.3268 12.031 11.969 12.031h60.812c6.642 0 11.969-5.363 11.969-12.031v-14.562h-84.75z" transform="translate(0 956.36)" fill="url(#linearGradient8780)"/>
  <path id="rect5265-0" d="m5.7756 1029.8v5.0663c0 6.668 5.3434 12.032 11.985 12.032h60.809c6.6418 0 11.985-5.3645 11.985-12.032v-5.0663c0 6.6681-5.3434 12.032-11.985 12.032h-60.809c-6.6418 0-11.985-5.3643-11.985-12.032z" fill-opacity="0.17"/>
  <path id="path5252-0" d="m5.7756 1033.9v1.0133c0 6.668 5.3434 12.032 11.985 12.032h60.809c6.6418 0 11.985-5.3645 11.985-12.032v-1.0133c0 6.6681-5.3434 12.032-11.985 12.032h-60.809c-6.6418 0-11.985-5.3644-11.985-12.032z" fill-opacity=".098039"/>
  <rect id="rect4772" display="none" height="107.79" width="107.79" y="971.68" x="-369.64" fill="none"/>
  <g id="g4788" display="none" transform="matrix(.21052 0 0 .21052 -369.68 971.63)"></g>
  <g id="g4806" display="none" transform="matrix(.21052 0 0 .21052 -369.68 971.63)">
   <g id="g4808" display="inline">
    <path id="path4810" d="m349.1 256.65c-0.265-0.254 37.637 27.605 39.421 25.012 6.362-9.252 82.046-93.137 84.784-116.24 0.242-2.003-0.516-4.096-0.516-4.096s-1.19-0.144-6.325-4.314c-2.692-2.192-5.483-4.581-5.483-4.581-16.054 0.998-57.885 41.559-111.06 103.57" fill="#050505" display="none"/>
   </g>
  </g>
  <g id="g4796" transform="matrix(.21052 0 0 .21052 -369.68 971.63)"></g>
  <rect id="rect3873" rx="6" ry="6" height="84" width="84" display="none" y="974.2" x="-163.06" fill="url(#linearGradient9745)"/>
  <rect id="rect3880" rx="6" ry="6" height="84" width="84" display="none" y="974.2" x="-163.06" fill="url(#linearGradient9745)"/>
  <path id="path3787" opacity=".6" style="color:#000000" d="m5.7052 1020.3v1h84.903v-1h-84.903z" fill="#fff"/>
  <path id="path3796" opacity=".6" style="color:#000000" d="m5.9005 1016.3v4h84v-4h-84z" fill="url(#linearGradient8776)"/>
  <path id="path3848" opacity=".6" style="color:#000000" d="m26.931 1025.4c-1.6323 0-2.9691 1.3226-2.9691 2.9375s1.3368 2.9375 2.9691 2.9375h46.495c1.6323 0 2.9691-1.3226 2.9691-2.9375s-1.3368-2.9375-2.9691-2.9375h-46.495z" fill="url(#linearGradient8773)"/>
  <rect id="rect3823" style="color:#000000" rx="2.0215" ry="2" height="4" width="50.538" y="1026.3" x="24.909" fill="url(#linearGradient8770)"/>
  <g id="g3904" transform="matrix(1.0108 0 0 1 3.6837 948.29)">
   <path id="path3893" opacity=".05" style="color:#000000" d="m32 74.219c-3.1711 0-5.7812 2.6101-5.7812 5.7812s2.6101 5.7812 5.7812 5.7812 5.7812-2.6101 5.7812-5.7812-2.6101-5.7812-5.7812-5.7812z" transform="matrix(1.125,0,0,1.125,-4,-9.5)"/>
   <path id="path3889" opacity=".15" style="color:#000000" d="m32 75.125c-2.6816 0-4.875 2.1934-4.875 4.875s2.1934 4.875 4.875 4.875 4.875-2.1934 4.875-4.875-2.1934-4.875-4.875-4.875z" transform="matrix(1.125,0,0,1.125,-4,-9.5)"/>
   <path id="path3875" opacity=".3" style="color:#000000" d="m36 80a4 4 0 1 1 -8 0 4 4 0 1 1 8 0z" transform="matrix(1.125,0,0,1.125,-4,-9.5)"/>
   <path id="path3861" style="color:#000000" d="m36 80a4 4 0 1 1 -8 0 4 4 0 1 1 8 0z" fill="url(#radialGradient8784)"/>
   <path id="path3895" opacity=".6" style="color:#000000" d="m32 76c-2.2091 0-4 1.7909-4 4 0 0.17012 0.04189 0.33547 0.0625 0.5 0.248-1.972 1.899-3.5 3.938-3.5s3.6904 1.528 3.9375 3.5c0.02-0.165 0.062-0.33 0.062-0.5 0-2.209-1.791-4-4-4z" fill="#fff"/>
  </g>
  <path id="path3915" opacity=".3" d="m77.469 1032.3h3.0323v3h2.0215v-3h3.0323l-4.043-9-4.043 9z"/>
  <path id="path3917" opacity=".3" d="m15.813 1031.3h2.0215v3h2.0215v-3h2.0215l-3.0323-7-3.0323 7z"/>
  <path id="path3919" opacity=".3" d="m9.7482 1031.3h2.0215v3h2.0215v-3h2.0215l-3.0323-7-3.0323 7z"/>
  <path id="path3923" opacity=".2" d="m81.512 1023.3-4.043 9h0.4422l3.6008-8 3.6008 8h0.4422l-4.043-9zm-68.731 1-3.0323 7h0.44221l2.5901-6 2.5901 6h0.4422l-3.0323-7zm3.0323 7h0.4422l2.5901-6 2.5901 6h0.4422l-3.0323-7-3.0323 7z"/>
  <path id="path3930" opacity=".3" d="m10.19 1031.3-0.44221 1h2.0215v-1h-1.5793zm3.6008 0v1h2.0215l-0.4422-1h-1.5793zm2.0215 1h2.0215v-1h-1.5793l-0.4422 1zm4.043-1v1h2.0215l-0.4422-1h-1.5793zm58.055 1-0.4422 1h3.0323v-1h-2.5901zm4.6116 0v1h3.0323l-0.4422-1h-2.5901zm-70.753 2v1h2.0215v-1h-2.0215zm6.0645 0v1h2.0215v-1h-2.0215zm62.667 1v1h2.0215v-1h-2.0215z" fill="#fff"/>
 </g>
</svg>
