<?xml version="1.0" encoding="UTF-8" standalone="no"?>
<!-- Created with Inkscape (http://www.inkscape.org/) -->
<svg id="svg2" xmlns:rdf="http://www.w3.org/1999/02/22-rdf-syntax-ns#" xmlns="http://www.w3.org/2000/svg" height="96" width="96" version="1.1" xmlns:cc="http://creativecommons.org/ns#" xmlns:xlink="http://www.w3.org/1999/xlink" xmlns:dc="http://purl.org/dc/elements/1.1/">
 <defs id="defs4">
  <linearGradient id="linearGradient3250">
   <stop id="stop3252" stop-color="#c4875e" offset="0"/>
   <stop id="stop3254" stop-color="#c4875e" stop-opacity="0" offset="1"/>
  </linearGradient>
  <linearGradient id="linearGradient3238">
   <stop id="stop3240" stop-color="#784421" offset="0"/>
   <stop id="stop3242" stop-color="#784421" stop-opacity="0" offset="1"/>
  </linearGradient>
  <linearGradient id="linearGradient3613-17" y2="138.66" gradientUnits="userSpaceOnUse" x2="48" y1="20.221" x1="48">
   <stop id="stop3739-92" stop-color="#fff" offset="0"/>
   <stop id="stop3741-36" stop-color="#fff" stop-opacity="0" offset="1"/>
  </linearGradient>
  <clipPath id="clipPath3613-7">
   <rect id="rect3615-0" rx="6" ry="6" height="84" width="84" y="6" x="6" fill="#fff"/>
  </clipPath>
  <filter id="filter3794-6" height="1.384" width="1.384" color-interpolation-filters="sRGB" y="-.192" x="-.192">
   <feGaussianBlur id="feGaussianBlur3796-28" stdDeviation="5.28"/>
  </filter>
  <radialGradient id="radialGradient3122" gradientUnits="userSpaceOnUse" cy="133.1" cx="115.9" gradientTransform="matrix(.19023 0 0 .19024 30 18)" r="154.62">
   <stop id="stop3899-4" stop-color="#294172" stop-opacity=".37405" offset="0"/>
   <stop id="stop3901-7" stop-color="#294172" offset="1"/>
  </radialGradient>
  <radialGradient id="radialGradient2877-3" gradientUnits="userSpaceOnUse" cy="133.1" cx="115.9" gradientTransform="matrix(.19023 0 0 .19024 30 18)" r="154.62">
   <stop id="stop3899-0" stop-color="#294172" stop-opacity="0" offset="0"/>
   <stop id="stop3901-3" stop-color="#294172" offset="1"/>
  </radialGradient>
  <linearGradient id="linearGradient3850" y2="67" xlink:href="#linearGradient3250" gradientUnits="userSpaceOnUse" x2="24" gradientTransform="translate(0,-1)" y1="67" x1="6"/>
  <linearGradient id="linearGradient3852" y2="67" xlink:href="#linearGradient3250" gradientUnits="userSpaceOnUse" x2="24" gradientTransform="translate(0,-2)" y1="67" x1="6"/>
  <linearGradient id="linearGradient3854" y2="67" xlink:href="#linearGradient3238" gradientUnits="userSpaceOnUse" x2="24" gradientTransform="translate(0,1)" y1="67" x1="6"/>
  <linearGradient id="linearGradient3856" y2="67" xlink:href="#linearGradient3238" gradientUnits="userSpaceOnUse" x2="24" y1="67" x1="6"/>
  <linearGradient id="linearGradient3888" y2="80" gradientUnits="userSpaceOnUse" x2="16" gradientTransform="matrix(.97605 0 0 -1.6072 3.2947 1107.2)" y1="80" x1="32">
   <stop id="stop4077" stop-color="#fff" offset="0"/>
   <stop id="stop4079" stop-color="#fff" stop-opacity="0" offset="1"/>
  </linearGradient>
  <linearGradient id="linearGradient3892" y2="80" gradientUnits="userSpaceOnUse" x2="40" gradientTransform="matrix(.95072 0 0 -1.6072 3.4981 1107.2)" y1="88" x1="40">
   <stop id="stop3892" stop-color="#fff" offset="0"/>
   <stop id="stop3898" stop-color="#eceadb" offset=".5"/>
   <stop id="stop3894" stop-color="#d8d3a6" offset="1"/>
  </linearGradient>
  <linearGradient id="linearGradient4699" y2="1008" gradientUnits="userSpaceOnUse" x2="23.242" y1="1008" x1="4.7249">
   <stop id="stop4695" stop-color="#292d63" offset="0"/>
   <stop id="stop4697" stop-color="#294172" offset="1"/>
  </linearGradient>
  <clipPath id="clipPath4709" clipPathUnits="userSpaceOnUse">
   <rect id="rect4711" ry="12.036" height="85.114" width="85.114" y="961.78" x="5.4316" fill="#e6d1aa"/>
  </clipPath>
  <linearGradient id="linearGradient4713" y2="88" gradientUnits="userSpaceOnUse" x2="88" gradientTransform="matrix(.97605 0 0 -1.4644 3.2947 1096.4)" y1="80" x1="88">
   <stop id="stop3296-8" stop-color="#0e1f4c" offset="0"/>
   <stop id="stop3298-4" stop-color="#3e45cd" stop-opacity="0" offset="1"/>
  </linearGradient>
 </defs>
 <metadata id="metadata7">
  <rdf:RDF>
   <cc:Work rdf:about="">
    <dc:format>image/svg+xml</dc:format>
    <dc:type rdf:resource="http://purl.org/dc/dcmitype/StillImage"/>
    <dc:title/>
   </cc:Work>
  </rdf:RDF>
 </metadata>
 <g id="layer1" transform="translate(0 -956.36)">
  <rect id="rect5263-0" fill-opacity=".019608" ry="12.724" height="89.978" width="89.978" y="959.35" x="2.9998"/>
  <rect id="rect5261-6" fill-opacity=".039216" ry="12.552" height="88.762" width="88.762" y="959.96" x="3.6078"/>
  <rect id="rect5259-9" fill-opacity=".078431" ry="12.38" height="87.546" width="87.546" y="960.57" x="4.2157"/>
  <rect id="rect5257-5" fill-opacity=".15686" ry="12.208" height="86.33" width="86.33" y="961.18" x="4.8237"/>
  <g id="g4028" transform="matrix(1.0287 0 0 -1.1307 -1.4476 1062.3)">
   <g id="g3972" transform="translate(0,2)">
    <g id="g3958" transform="translate(0,-2)">
     <path id="rect3922" opacity=".5" style="color:#000000" d="m11 63c-2.77 0-5 2.23-5 5v1c0-2.77 2.23-5 5-5h13v-1h-13z" fill="url(#linearGradient3850)"/>
     <path id="path3946" opacity=".2" style="color:#000000" d="m11 62c-2.77 0-5 2.23-5 5v1c0-2.77 2.23-5 5-5h13v-1h-13z" fill="url(#linearGradient3852)"/>
     <path id="path3950" opacity=".3" style="color:#000000" d="m11 65c-2.77 0-5 2.23-5 5v1c0-2.77 2.23-5 5-5h13v-1h-13z" fill="url(#linearGradient3854)"/>
     <path id="path3952" opacity=".6" style="color:#000000" d="m11 64c-2.77 0-5 2.23-5 5v1c0-2.77 2.23-5 5-5h13v-1h-13z" fill="url(#linearGradient3856)"/>
    </g>
   </g>
   <g id="g3988" transform="translate(0,-18)">
    <g id="g3990" transform="translate(0,-2)">
     <path id="path3992" opacity=".5" style="color:#000000" d="m11 63c-2.77 0-5 2.23-5 5v1c0-2.77 2.23-5 5-5h13v-1h-13z" fill="url(#linearGradient3850)"/>
     <path id="path3994" opacity=".2" style="color:#000000" d="m11 62c-2.77 0-5 2.23-5 5v1c0-2.77 2.23-5 5-5h13v-1h-13z" fill="url(#linearGradient3852)"/>
     <path id="path3996" opacity=".3" style="color:#000000" d="m11 65c-2.77 0-5 2.23-5 5v1c0-2.77 2.23-5 5-5h13v-1h-13z" fill="url(#linearGradient3854)"/>
     <path id="path3998" opacity=".6" style="color:#000000" d="m11 64c-2.77 0-5 2.23-5 5v1c0-2.77 2.23-5 5-5h13v-1h-13z" fill="url(#linearGradient3856)"/>
    </g>
   </g>
   <g id="g4008" transform="translate(0,-38)">
    <g id="g4010" transform="translate(0,-2)">
     <path id="path4012" opacity=".5" style="color:#000000" d="m11 63c-2.77 0-5 2.23-5 5v1c0-2.77 2.23-5 5-5h13v-1h-13z" fill="url(#linearGradient3850)"/>
     <path id="path4014" opacity=".2" style="color:#000000" d="m11 62c-2.77 0-5 2.23-5 5v1c0-2.77 2.23-5 5-5h13v-1h-13z" fill="url(#linearGradient3852)"/>
     <path id="path4016" opacity=".3" style="color:#000000" d="m11 65c-2.77 0-5 2.23-5 5v1c0-2.77 2.23-5 5-5h13v-1h-13z" fill="url(#linearGradient3854)"/>
     <path id="path4018" opacity=".6" style="color:#000000" d="m11 64c-2.77 0-5 2.23-5 5v1c0-2.77 2.23-5 5-5h13v-1h-13z" fill="url(#linearGradient3856)"/>
    </g>
   </g>
  </g>
  <g id="g4703" clip-path="url(#clipPath4709)">
   <rect id="rect2419" rx="7.0831" transform="scale(1,-1)" ry="6.7841" width="87.502" y="-1055.5" x="3.6372" height="94.978" fill="#4a79ba"/>
   <path id="rect3170" d="m10.897 1055.5c-3.4195 0-6.1724-3.0256-6.1724-6.784v-81.409c0-3.7584 2.7529-6.7841 6.1724-6.7841h12.345v94.977h-12.345z" fill="url(#linearGradient4699)"/>
   <rect id="rect3941" opacity=".1" transform="scale(1,-1)" height="94.978" width="1.0287" y="-1055.5" x="23.242" fill="#fff"/>
   <rect id="rect3943" opacity=".1" transform="scale(1,-1)" height="94.978" width="1.0287" y="-1055.5" x="22.213"/>
  </g>
  <path id="rect3964" d="m91.139 985.08c0-3.2451-1.7413-5.8575-3.9042-5.8575h-3.9042-67.347c-2.7036 0-4.8802-3.2656-4.8802-7.3219 0-3.5493 1.6763-6.5041 3.9042-7.1846 0.12233-0.0303 0.2412-0.0727 0.36602-0.0914 0.0403-0.007 0.0814 0.005 0.122 0 0.15891-0.0191 0.3257-0.0458 0.48802-0.0458h67.439 1.8606c3.2444 0 5.8563 3.9187 5.8563 8.7863z" fill="url(#linearGradient4713)"/>
  <path id="path3073" style="color:#000000" d="m15.857 978.6c-2.12 0-3.7732-2.7947-3.7732-6.3787 0-3.5841 1.6531-6.3787 3.7732-6.3787h66.848c1.4345 0.25763 2.5551 2.2759 2.5551 4.7715v7.986z" fill="url(#linearGradient3892)"/>
  <path id="path3853" opacity=".1" style="color:#000000" d="m91.139 986.69c0-3.5616-1.7413-6.4289-3.9042-6.4289h-4.8802v-0.0505h-67.347c-2.1765 0-3.8737-2.7947-3.8737-6.3788 0-0.27599 0.0415-0.53789 0.061-0.80363 0.2346 3.1849 1.8038 5.5751 3.8127 5.5751h72.228v0.0503c2.1629 0 3.9042 2.8672 3.9042 6.4289v1.6073z"/>
  <path id="path3880" opacity=".1" style="color:#000000" d="m91.139 988.3c0-3.5616-1.7413-6.4289-3.9042-6.4289h-4.8802v-0.0505h-67.347c-2.1765 0-3.8737-2.7947-3.8737-6.3787 0-0.27601 0.0415-0.53792 0.061-0.80364 0.2346 3.1849 1.8038 5.5751 3.8127 5.5751h72.228v0.0505c2.1629 0 3.9042 2.8673 3.9042 6.4289v1.6073z" fill="url(#linearGradient3888)"/>
  <path id="path3885" opacity=".5" style="color:#000000" d="m14.907 978.6c-2.1201 0-3.7732-2.7947-3.7732-6.3787 0-3.5841 1.6531-6.3787 3.7732-6.3787h0.95071c-2.12 0-3.7732 2.7947-3.7732 6.3787s1.6531 6.3787 3.7732 6.3787h-0.95071z"/>
  <path id="path3918" opacity=".15" d="m85.26 978.4-71.037-0.45204 71.037-0.20091v0.65295zm0-1.0548-72.671-1.9588c-0.002-0.005-0.0277 0.005-0.0298 0-0.004-0.013 0.004-0.0371 0-0.0503l72.7 0.35157v1.6575zm0-3.2647-73.057-0.40183 73.057-0.20088v0.60271zm-73.176-2.0091 73.176-1.6072c0.00094 0.0509 0 0.0992 0 0.15064v0.85384l-73.176 0.60271zm0.14856-1.557c0.0245-0.15472 0.0581-0.30248 0.0891-0.45205l50.537 0.15067-50.626 0.30136zm72.938-1.0045-72.374-1.0547c0.009-0.0193 0.0213-0.0309 0.0298-0.0503l72.166 0.20089c0.0221 0.0805 0.0406 0.16723 0.0594 0.25114 0.0488 0.20881 0.0876 0.43054 0.11884 0.65294zm-0.44565-1.7077-71.334-0.4018 70.65-0.20092 0.47535 0.20092c0.0717 0.13253 0.14541 0.25635 0.20798 0.4018z"/>
  <path id="path4001" opacity=".2" style="color:#000000" d="m85.26 978.6v-7.986c0-2.4956-1.1206-4.5138-2.5551-4.7715h0.95072c1.4345 0.25763 2.5551 2.2759 2.5551 4.7715v7.986h-0.95072z"/>
  <path id="path4010" opacity=".25" style="color:#000000" d="m91.139 985.08c0-3.5616-1.7413-6.4289-3.9042-6.4289h-4.8802v-0.0503h-66.371c-2.1765 0-3.8737-2.7947-3.8737-6.3787 0-0.27598 0.0415-0.53788 0.061-0.80362 0.2346 3.1849 1.8038 5.5751 3.8127 5.5751h71.251v0.0503c2.1629 0 3.9042 2.8672 3.9042 6.4289z"/>
  <path id="path4093" opacity=".1" style="color:#000000" d="m91.139 983.47c0-3.5616-1.7413-6.4289-3.9042-6.4289h-4.8802v-0.0503h-66.371c-2.1765 0-3.8737-2.7947-3.8737-6.3787 0-0.27598 0.0415-0.53788 0.061-0.80363 0.2346 3.1849 1.8038 5.5751 3.8127 5.5751h71.251v0.0503c2.1629 0 3.9042 2.8673 3.9042 6.429z"/>
  <path id="rect5265-0" d="m5.4316 1029.8v5.0663c0 6.668 5.3645 12.032 12.032 12.032h61.049c6.668 0 12.032-5.3645 12.032-12.032v-5.0663c0 6.6681-5.3645 12.032-12.032 12.032h-61.049c-6.668 0-12.032-5.3643-12.032-12.032z" fill-opacity=".17"/>
  <path id="path5252-0" d="m5.4316 1033.9v1.0133c0 6.668 5.3645 12.032 12.032 12.032h61.049c6.668 0 12.032-5.3645 12.032-12.032v-1.0133c0 6.6681-5.3645 12.032-12.032 12.032h-61.049c-6.668 0-12.032-5.3644-12.032-12.032z" fill-opacity=".098039"/>
  <g id="layer5" transform="translate(-80.234 938.61)">
   <rect id="rect3171" height="66" stroke="#fff" stroke-linecap="round" stroke-width=".5" fill="url(#linearGradient3613-17)" rx="12" ry="12" width="66" opacity=".1" clip-path="url(#clipPath3613-7)" filter="url(#filter3794-6)" y="15" x="15"/>
  </g>
  <g id="layer4" transform="translate(3.2656 969.86)">
   <rect id="rect3959" style="color:#000000" height="16" width="16" y="0" x="104" fill="#294172"/>
   <rect id="rect3961" style="color:#000000" height="16" width="16" y="24" x="104" fill="#3c6eb4"/>
   <path id="speech-bubble-7" d="m54 18c-13.249 0-23.991 10.74-24 23.987v15.267 3.3051 1.7161c0 2.064 1.661 3.725 3.725 3.725h1.7288 12.025 6.5338c13.25-0.0055 23.987-10.748 23.987-24 0-13.256-10.745-24-24-24z" fill="url(#radialGradient3122)"/>
   <path id="speech-bubble" d="m54 18c-13.249 0-23.991 10.74-24 23.987v15.267 3.3051 1.7161c0 2.064 1.661 3.725 3.725 3.725h1.7288 12.025 6.5338c13.25-0.0055 23.987-10.748 23.987-24 0-13.256-10.745-24-24-24z" fill="url(#radialGradient2877-3)"/>
   <path id="f-script-path-6" d="m61.233 23.259c-6.356 0-11.508 5.1524-11.508 11.508v0.008 6.091h-6.072-0.0015c-6.3558 0-11.508 5.1273-11.508 11.483 0 6.3564 5.1522 11.509 11.508 11.509 6.355 0 11.507-5.1522 11.507-11.509v-0.008-6.1162h6.0718 0.0025c6.355 0 11.507-5.1021 11.507-11.458s-5.1522-11.508-11.507-11.508zm-11.508 29.101c-0.0048 3.349-2.7228 6.0639-6.0736 6.0639-3.3543 0-6.0986-2.7194-6.0986-6.0738 0-3.3556 2.7444-6.1254 6.0986-6.1254h0.008 5.2045 0.0039c0.47382 0 0.85805 0.38347 0.85805 0.85653 0 0.0009-0.000584 0.0009-0.000584 0.0022v5.2766h-0.000193zm11.507-11.494h-0.0057-5.2079-0.0031c-0.47382 0-0.85708-0.38327-0.85708-0.8575v-0.000194-5.2511c0.0057-3.3509 2.7228-6.0649 6.0738-6.0649 3.3543 0 6.0992 2.7196 6.0992 6.0746 0 3.3546-2.745 6.0991-6.0992 6.0991z" fill="#5484c6"/>
   <path id="blue-inifity-connectors-2" fill="#fff" d="m49.725 40.866v-6.0911-0.008c0-6.3559 5.152-11.508 11.508-11.508 0.96416 0 1.6492 0.10865 2.5417 0.34226 1.3016 0.34129 2.3644 1.4075 2.365 2.6487 0.000581 1.5004-1.0885 2.5912-2.7162 2.5912-0.77545 0-1.0557-0.14849-2.1911-0.14849-3.351 0-6.0681 2.714-6.0738 6.0649v5.2509 0.000195c0 0.47423 0.38325 0.8575 0.85708 0.8575h0.0031 3.9884c1.4864 0 2.6867 1.19 2.6878 2.6804 0 1.4909-1.202 2.6782-2.6878 2.6782h-4.8486v6.1162 0.0091c0 6.3553-5.1522 11.507-11.507 11.507-0.96436 0-1.6494-0.10865-2.5419-0.34246-1.3016-0.3411-2.3648-1.4079-2.3654-2.6487 0-1.5 1.0884-2.5912 2.7168-2.5912 0.77467 0 1.0557 0.14868 2.1905 0.14868 3.351 0 6.0689-2.7142 6.0742-6.0639v-5.2785c0-0.47326-0.38423-0.85653-0.85805-0.85653h-0.0022-3.9882c-1.4868 0-2.688-1.1862-2.688-2.6775-0.00039-1.4997 1.2137-2.681 2.7162-2.681h4.8196v-0.000194z"/>
   <path id="path3933" opacity=".15" d="m54 18c-13.249 0-23.991 10.729-24 23.977v0.75c0.009-13.248 10.751-23.977 24-23.977 13.13 0 23.8 10.542 24 23.625 0.0019-0.12452 0-0.25003 0-0.375 0-13.256-10.745-24-24-24z"/>
   <path id="path4066" opacity=".15" d="m78 42.5c-0.264 13.023-10.916 23.495-24 23.5h-6.5312-12-1.75c-2.063 0-3.719-1.656-3.719-3.719v1c0 2.063 1.656 3.719 3.719 3.719h1.75 12 6.531c13.25-0.0055 24-10.748 24-24 0-0.16559 0.0033-0.33521 0-0.5z" fill="#fff"/>
  </g>
 </g>
</svg>
