<?xml version="1.0" encoding="UTF-8" standalone="no"?>
<!-- Created with Inkscape (http://www.inkscape.org/) -->
<svg id="svg2" xmlns:rdf="http://www.w3.org/1999/02/22-rdf-syntax-ns#" xmlns="http://www.w3.org/2000/svg" height="96" width="96" version="1.1" xmlns:cc="http://creativecommons.org/ns#" xmlns:xlink="http://www.w3.org/1999/xlink" xmlns:dc="http://purl.org/dc/elements/1.1/">
 <defs id="defs4">
  <linearGradient id="ButtonColor" y2="5.4252" gradientUnits="userSpaceOnUse" x2="58.65" y1="122" x1="58.65">
   <stop id="stop3189" stop-color="#a00000" offset="0"/>
   <stop id="stop3191" stop-color="#ff0505" offset="1"/>
  </linearGradient>
  <clipPath id="XMLID_68_">
   <use id="use99" xlink:href="#XMLID_8_" height="127.219" width="132.72" y="0" x="0"/>
  </clipPath>
  <radialGradient id="radialGradient14954" gradientUnits="userSpaceOnUse" cy="90.172" cx="48" gradientTransform="matrix(1.1573 0 0 .99591 -33.405 960.54)" r="42">
   <stop id="stop3739-86" stop-color="#fff" offset="0"/>
   <stop id="stop3741-8" stop-color="#fff" stop-opacity="0" offset="1"/>
  </radialGradient>
  <radialGradient id="radialGradient16501" gradientUnits="userSpaceOnUse" cy="14.165" cx="64.552" gradientTransform="matrix(.93805 0 0 .94030 -12.084 948.48)" r="52.242">
   <stop id="stop85" stop-color="#0f80bc" offset="0"/>
   <stop id="stop87" stop-color="#0a5f9e" offset=".33760"/>
   <stop id="stop89" stop-color="#00145a" offset="1"/>
  </radialGradient>
  <radialGradient id="radialGradient16504" gradientUnits="userSpaceOnUse" cy="14.173" cx="64.551" gradientTransform="matrix(.93805 0 0 .94030 -12.084 948.48)" r="52.233">
   <stop id="stop76" stop-color="#0f80bc" offset="0"/>
   <stop id="stop78" stop-color="#0a5f9e" offset=".33760"/>
   <stop id="stop80" stop-color="#00145a" offset="1"/>
  </radialGradient>
  <radialGradient id="radialGradient16507" gradientUnits="userSpaceOnUse" cy="19.12" cx="65.405" gradientTransform="matrix(.93805 0 0 .94030 -12.084 948.48)" r="57.383">
   <stop id="stop65" stop-color="#0f80bc" offset="0"/>
   <stop id="stop67" stop-color="#0b629b" offset=".26430"/>
   <stop id="stop69" stop-color="#031747" offset=".84390"/>
   <stop id="stop71" stop-color="#00022f" offset="1"/>
  </radialGradient>
  <radialGradient id="radialGradient16521" gradientUnits="userSpaceOnUse" cy="14.175" cx="64.552" gradientTransform="matrix(.93805 0 0 .94030 -12.084 948.48)" r="52.232">
   <stop id="stop36" stop-color="#0f80bc" offset="0"/>
   <stop id="stop38" stop-color="#0a5f9e" offset=".33760"/>
   <stop id="stop40" stop-color="#00145a" offset="1"/>
  </radialGradient>
  <linearGradient id="linearGradient16525" y2="18.029" gradientUnits="userSpaceOnUse" x2="93.232" y1="16.592" x1="76.372">
   <stop id="stop102" stop-color="#0f80bc" offset="0"/>
   <stop id="stop104" stop-color="#0a5f9e" offset=".33760"/>
   <stop id="stop106" stop-color="#00145a" offset="1"/>
  </linearGradient>
  <linearGradient id="linearGradient16527" y2="32.832" gradientUnits="userSpaceOnUse" x2="29.174" y1="19.147" x1="38.492">
   <stop id="stop111" stop-color="#0f80bc" offset="0"/>
   <stop id="stop113" stop-color="#0a5f9e" offset=".33760"/>
   <stop id="stop115" stop-color="#00145a" offset="1"/>
  </linearGradient>
  <radialGradient id="radialGradient16529" gradientUnits="userSpaceOnUse" cy="14.176" cx="64.554" r="52.229">
   <stop id="stop47" stop-color="#0f80bc" offset="0"/>
   <stop id="stop49" stop-color="#0a5f9e" offset=".33760"/>
   <stop id="stop51" stop-color="#00145a" offset="1"/>
  </radialGradient>
  <radialGradient id="radialGradient16531" gradientUnits="userSpaceOnUse" cy="14.172" cx="64.549" r="52.237">
   <stop id="stop56" stop-color="#0f80bc" offset="0"/>
   <stop id="stop58" stop-color="#0a5f9e" offset=".33760"/>
   <stop id="stop60" stop-color="#00145a" offset="1"/>
  </radialGradient>
  <radialGradient id="radialGradient16533" gradientUnits="userSpaceOnUse" cy="7.2266" cx="64.569" r="104.22">
   <stop id="stop13" stop-color="#67c5d5" offset="0"/>
   <stop id="stop15" stop-color="#66c2d3" offset=".1604"/>
   <stop id="stop17" stop-color="#62b9ce" offset=".27950"/>
   <stop id="stop19" stop-color="#5ca8c6" offset=".38520"/>
   <stop id="stop21" stop-color="#5392ba" offset=".48320"/>
   <stop id="stop23" stop-color="#4874aa" offset=".57590"/>
   <stop id="stop25" stop-color="#3a5097" offset=".66460"/>
   <stop id="stop27" stop-color="#2a2781" offset=".74850"/>
   <stop id="stop29" stop-color="#1b006d" offset=".81460"/>
   <stop id="stop31" stop-color="#596aad" offset="1"/>
  </radialGradient>
  <clipPath id="clipPath16571" clipPathUnits="userSpaceOnUse">
   <path id="path16573" d="m17.469 961.77c-6.668 0-12.031 5.3945-12.031 12.062v61.031c0 6.668 5.3633 12.031 12.031 12.031h61.031c6.4543 0 11.671-5.0367 12-11.406v-62.281c-0.32117-6.3771-5.5404-11.438-12-11.438h-61.031z" fill="url(#linearGradient16575)"/>
  </clipPath>
  <linearGradient id="linearGradient16575" y2="5.9877" xlink:href="#ButtonColor" gradientUnits="userSpaceOnUse" x2="48" gradientTransform="matrix(1.202 0 0 1.2231 -9.6142 943.19)" y1="90" x1="48"/>
  <linearGradient id="linearGradient16577" y2="100.18" gradientUnits="userSpaceOnUse" x2="102.91" gradientTransform="matrix(.9951 .0989 -.0989 .9951 10.384 -6.0754)" y1="93.582" x1="54.24">
   <stop id="stop612" stop-color="#de7210" offset=".0562"/>
   <stop id="stop614" stop-color="#f6c08f" offset="1"/>
  </linearGradient>
  <linearGradient id="linearGradient16579" y2="107.65" gradientUnits="userSpaceOnUse" x2="95.522" gradientTransform="matrix(.9895 .1448 -.1448 .9895 14.283 -5.8352)" y1="89.89" x1="39.013">
   <stop id="stop619" stop-color="#de7210" offset=".0562"/>
   <stop id="stop621" stop-color="#f6c08f" offset="1"/>
  </linearGradient>
  <linearGradient id="linearGradient16581" y2="680.4" gradientUnits="userSpaceOnUse" x2="-574.6" gradientTransform="matrix(.9837 -.1799 .1799 .9837 500.95 -643.73)" y1="628.96" x1="-601.47">
   <stop id="stop626" stop-color="#de7210" offset=".0562"/>
   <stop id="stop628" stop-color="#f6c08f" offset="1"/>
  </linearGradient>
  <linearGradient id="linearGradient16583" y2="72.741" gradientUnits="userSpaceOnUse" x2="117.26" y1="117.37" x1="88.331">
   <stop id="stop444" stop-color="#de5c01" offset="0"/>
   <stop id="stop446" stop-color="#fefd00" offset=".736"/>
   <stop id="stop448" stop-color="#fefe26" offset=".77830"/>
   <stop id="stop450" stop-color="#fffe54" offset=".8369"/>
   <stop id="stop452" stop-color="#ffff76" offset=".889"/>
   <stop id="stop454" stop-color="#ffff8b" offset="0.932"/>
   <stop id="stop456" stop-color="#ffff92" offset=".96070"/>
  </linearGradient>
  <linearGradient id="linearGradient16585" y2="14.417" gradientUnits="userSpaceOnUse" x2="86.211" y1="22.738" x1="105.16">
   <stop id="stop461" stop-color="#f79a09" offset="0"/>
   <stop id="stop463" stop-color="#fefd00" offset=".736"/>
   <stop id="stop465" stop-color="#fefe26" offset=".77830"/>
   <stop id="stop467" stop-color="#fffe54" offset=".8369"/>
   <stop id="stop469" stop-color="#ffff76" offset=".889"/>
   <stop id="stop471" stop-color="#ffff8b" offset="0.932"/>
   <stop id="stop473" stop-color="#ffff92" offset=".96070"/>
  </linearGradient>
  <linearGradient id="linearGradient16587" y2="17.106" gradientUnits="userSpaceOnUse" x2="91.359" y1="41.729" x1="117.88">
   <stop id="stop478" stop-color="#de5c01" offset="0"/>
   <stop id="stop480" stop-color="#fefd00" offset=".736"/>
   <stop id="stop482" stop-color="#fefe26" offset=".77830"/>
   <stop id="stop484" stop-color="#fffe54" offset=".8369"/>
   <stop id="stop486" stop-color="#ffff76" offset=".889"/>
   <stop id="stop488" stop-color="#ffff8b" offset="0.932"/>
   <stop id="stop490" stop-color="#ffff92" offset=".96070"/>
  </linearGradient>
  <linearGradient id="linearGradient16589" y2="133.96" gradientUnits="userSpaceOnUse" x2="-9.9659" gradientTransform="matrix(.9996 -.0282 .0282 .9996 104.78 -104.62)" y1="145.45" x1="1.1396">
   <stop id="stop495" stop-color="#f79a09" offset="0"/>
   <stop id="stop497" stop-color="#fefd00" offset=".736"/>
   <stop id="stop499" stop-color="#fefe26" offset=".77830"/>
   <stop id="stop501" stop-color="#fffe54" offset=".8369"/>
   <stop id="stop503" stop-color="#ffff76" offset=".889"/>
   <stop id="stop505" stop-color="#ffff8b" offset="0.932"/>
   <stop id="stop507" stop-color="#ffff92" offset=".96070"/>
  </linearGradient>
  <linearGradient id="linearGradient16591" y2="34.332" gradientUnits="userSpaceOnUse" x2="119.69" y1="55.834" x1="113.44">
   <stop id="stop512" stop-color="#f79a09" offset="0"/>
   <stop id="stop514" stop-color="#fefd00" offset=".736"/>
   <stop id="stop516" stop-color="#fefe26" offset=".77830"/>
   <stop id="stop518" stop-color="#fffe54" offset=".8369"/>
   <stop id="stop520" stop-color="#ffff76" offset=".889"/>
   <stop id="stop522" stop-color="#ffff8b" offset="0.932"/>
   <stop id="stop524" stop-color="#ffff92" offset=".96070"/>
  </linearGradient>
  <linearGradient id="linearGradient16593" y2="196.43" gradientUnits="userSpaceOnUse" x2="-52.194" gradientTransform="matrix(.9992 -.0412 .0412 .9992 151.9 -153.91)" y1="212.79" x1="-51.966">
   <stop id="stop529" stop-color="#f79a09" offset="0"/>
   <stop id="stop531" stop-color="#fefd00" offset=".736"/>
   <stop id="stop533" stop-color="#fefe26" offset=".77830"/>
   <stop id="stop535" stop-color="#fffe54" offset=".8369"/>
   <stop id="stop537" stop-color="#ffff76" offset=".889"/>
   <stop id="stop539" stop-color="#ffff8b" offset="0.932"/>
   <stop id="stop541" stop-color="#ffff92" offset=".96070"/>
  </linearGradient>
  <linearGradient id="linearGradient16595" y2="309.89" gradientUnits="userSpaceOnUse" x2="-161.46" gradientTransform="matrix(.9975 -.0707 .0707 .9975 254.6 -268.47)" y1="332.08" x1="-172.72">
   <stop id="stop546" stop-color="#f79a09" offset="0"/>
   <stop id="stop548" stop-color="#fefd00" offset=".736"/>
   <stop id="stop550" stop-color="#fefe26" offset=".77830"/>
   <stop id="stop552" stop-color="#fffe54" offset=".8369"/>
   <stop id="stop554" stop-color="#ffff76" offset=".889"/>
   <stop id="stop556" stop-color="#ffff8b" offset="0.932"/>
   <stop id="stop558" stop-color="#ffff92" offset=".96070"/>
  </linearGradient>
  <linearGradient id="linearGradient16597" y2="63.169" gradientUnits="userSpaceOnUse" x2="100.72" gradientTransform="matrix(.9975 -.0707 .0707 .9975 -10.967 13.651)" y1="87.747" x1="99.206">
   <stop id="stop563" stop-color="#de5c01" offset="0"/>
   <stop id="stop565" stop-color="#fefd00" offset=".736"/>
   <stop id="stop567" stop-color="#fefe26" offset=".77830"/>
   <stop id="stop569" stop-color="#fffe54" offset=".8369"/>
   <stop id="stop571" stop-color="#ffff76" offset=".889"/>
   <stop id="stop573" stop-color="#ffff8b" offset="0.932"/>
   <stop id="stop575" stop-color="#ffff92" offset=".96070"/>
  </linearGradient>
  <linearGradient id="linearGradient16599" y2="85.465" gradientUnits="userSpaceOnUse" x2="105.88" y1="113.86" x1="58.369">
   <stop id="stop580" stop-color="#b9120d" offset="0"/>
   <stop id="stop582" stop-color="#bb180d" offset=".078"/>
   <stop id="stop584" stop-color="#c0290c" offset=".1822"/>
   <stop id="stop586" stop-color="#c8450a" offset=".30130"/>
   <stop id="stop588" stop-color="#d36c08" offset=".4314"/>
   <stop id="stop590" stop-color="#e29e05" offset=".57060"/>
   <stop id="stop592" stop-color="#f4da02" offset=".71510"/>
   <stop id="stop594" stop-color="#fefd00" offset=".79210"/>
   <stop id="stop596" stop-color="#fefd07" offset=".8136"/>
   <stop id="stop598" stop-color="#fefd1b" offset=".84550"/>
   <stop id="stop600" stop-color="#fefe3c" offset=".88370"/>
   <stop id="stop602" stop-color="#fffe69" offset=".92680"/>
   <stop id="stop604" stop-color="#ffffa3" offset=".97360"/>
   <stop id="stop606" stop-color="#ffffc7" offset="1"/>
  </linearGradient>
  <linearGradient id="linearGradient16601" y2="48.085" gradientUnits="userSpaceOnUse" x2="78.466" y1="56.301" x1="64.478">
   <stop id="stop149" stop-color="#df731b" offset="0"/>
   <stop id="stop151" stop-color="#df731b" offset=".5449"/>
   <stop id="stop153" stop-color="#ec8811" offset=".70140"/>
   <stop id="stop155" stop-color="#f4950b" offset=".85930"/>
   <stop id="stop157" stop-color="#f79a09" offset="1"/>
  </linearGradient>
  <linearGradient id="linearGradient16603" y2="37.892" gradientUnits="userSpaceOnUse" x2="52.697" y1="36.962" x1="41.839">
   <stop id="stop162" stop-color="#941403" offset=".0112"/>
   <stop id="stop164" stop-color="#e85c0a" offset=".89720"/>
  </linearGradient>
  <linearGradient id="linearGradient16605" y2="38.852" gradientUnits="userSpaceOnUse" x2="63.643" y1="33.953" x1="24.45">
   <stop id="stop169" stop-color="#941403" offset=".0112"/>
   <stop id="stop171" stop-color="#a32104" offset=".1357"/>
   <stop id="stop173" stop-color="#c84107" offset=".49780"/>
   <stop id="stop175" stop-color="#df5509" offset=".78930"/>
   <stop id="stop177" stop-color="#e85c0a" offset=".972"/>
  </linearGradient>
  <linearGradient id="linearGradient16607" y2="42.945" gradientUnits="userSpaceOnUse" x2="51.856" y1="44.32" x1="48.731">
   <stop id="stop182" stop-color="#f2c8a9" offset="0"/>
   <stop id="stop184" stop-color="#ffc" offset="1"/>
  </linearGradient>
  <linearGradient id="linearGradient16609" y2="84.747" gradientUnits="userSpaceOnUse" x2="91.339" y1="82.582" x1="38.768">
   <stop id="stop189" stop-color="#b30000" offset="0"/>
   <stop id="stop191" stop-color="#df731b" offset="1"/>
  </linearGradient>
  <linearGradient id="linearGradient16611" y2="84.212" gradientUnits="userSpaceOnUse" x2="78.689" y1="74.424" x1="51.278">
   <stop id="stop196" stop-color="#941403" offset="0"/>
   <stop id="stop198" stop-color="#df731b" offset="1"/>
  </linearGradient>
  <linearGradient id="linearGradient16613" y2="87.057" gradientUnits="userSpaceOnUse" x2="32.828" gradientTransform="matrix(.9988 .049 -.049 .9988 4.7153 -1.2399)" y1="87.057" x1="6.1064">
   <stop id="stop203" stop-color="#b30000" offset=".0562"/>
   <stop id="stop205" stop-color="#de5c01" offset="1"/>
  </linearGradient>
  <linearGradient id="linearGradient16615" y2="-85.619" gradientUnits="userSpaceOnUse" x2="224.26" gradientTransform="matrix(.9929 .1186 -.1186 .9929 -207.27 181.29)" y1="-130.66" x1="209.72">
   <stop id="stop210" stop-color="#de7210" offset=".0562"/>
   <stop id="stop212" stop-color="#f6c08f" offset="1"/>
  </linearGradient>
  <linearGradient id="linearGradient16617" y2="111.45" gradientUnits="userSpaceOnUse" x2="12.471" gradientTransform="matrix(.999 .0448 -.0448 .999 3.2321 -.6968)" y1="61.107" x1="12.471">
   <stop id="stop217" stop-color="#de7210" offset=".0562"/>
   <stop id="stop219" stop-color="#f6c08f" offset="1"/>
  </linearGradient>
  <linearGradient id="linearGradient16619" y2="16.85" gradientUnits="userSpaceOnUse" x2="12.886" y1="30.846" x1="18.348">
   <stop id="stop226" stop-color="#941403" offset=".0112"/>
   <stop id="stop228" stop-color="#e85c0a" offset=".47190"/>
   <stop id="stop230" stop-color="#f9bd5f" offset="1"/>
  </linearGradient>
  <linearGradient id="linearGradient16621" y2="16.853" gradientUnits="userSpaceOnUse" x2="54.792" y1="34.058" x1="41.704">
   <stop id="stop235" stop-color="#de7210" offset=".19660"/>
   <stop id="stop237" stop-color="#f9bd5f" offset=".8427"/>
   <stop id="stop239" stop-color="#fffccf" offset="1"/>
  </linearGradient>
  <linearGradient id="linearGradient16623" y2="84.079" gradientUnits="userSpaceOnUse" x2="48.052" y1="57.542" x1="34.784">
   <stop id="stop244" stop-color="#941403" offset=".0169"/>
   <stop id="stop246" stop-color="#e35100" offset=".5"/>
   <stop id="stop248" stop-color="#df731b" offset="1"/>
  </linearGradient>
  <linearGradient id="linearGradient16625" y2="44.27" gradientUnits="userSpaceOnUse" x2="58.139" y1="41.267" x1="54.825">
   <stop id="stop253" stop-color="#eea272" offset="0"/>
   <stop id="stop255" stop-color="#efa777" offset=".1865"/>
   <stop id="stop257" stop-color="#f2b585" offset=".4064"/>
   <stop id="stop259" stop-color="#f6cd9c" offset="0.643"/>
   <stop id="stop261" stop-color="#fceebb" offset=".88980"/>
   <stop id="stop263" stop-color="#ffc" offset="1"/>
  </linearGradient>
  <linearGradient id="linearGradient16627" y2="63.893" gradientUnits="userSpaceOnUse" x2="50.721" y1="48.361" x1="35.5">
   <stop id="stop268" stop-color="#df731b" offset=".19660"/>
   <stop id="stop270" stop-color="#f9bd5f" offset=".8427"/>
   <stop id="stop272" stop-color="#fffccf" offset="1"/>
  </linearGradient>
  <linearGradient id="linearGradient16629" y2="-1008" gradientUnits="userSpaceOnUse" x2="847.47" gradientTransform="matrix(.9673 .2537 -.2537 .9673 -1076.7 855.23)" y1="-1065" x1="847.47">
   <stop id="stop277" stop-color="#de7210" offset=".0562"/>
   <stop id="stop279" stop-color="#f6c08f" offset="1"/>
  </linearGradient>
  <linearGradient id="linearGradient16631" y2="67.833" gradientUnits="userSpaceOnUse" x2="-3.4365" gradientTransform="matrix(.9897 -.0801 .0949 1.1727 -3.8203 -4.9468)" y1="36.413" x1="15.856">
   <stop id="stop284" stop-color="#de7210" offset=".0562"/>
   <stop id="stop286" stop-color="#f2c06e" offset="1"/>
  </linearGradient>
  <linearGradient id="linearGradient16633" y2="71.76" gradientUnits="userSpaceOnUse" x2="60.433" y1="67.845" x1="80.929">
   <stop id="stop291" stop-color="#fffaee" offset=".0047"/>
   <stop id="stop293" stop-color="#f5f89b" offset=".2757"/>
   <stop id="stop295" stop-color="#f3ed91" offset=".31020"/>
   <stop id="stop297" stop-color="#ecc267" offset=".4668"/>
   <stop id="stop299" stop-color="#e6a046" offset=".6182"/>
   <stop id="stop301" stop-color="#e2872e" offset=".76110"/>
   <stop id="stop303" stop-color="#e07820" offset=".89210"/>
   <stop id="stop305" stop-color="#df731b" offset="1"/>
  </linearGradient>
  <linearGradient id="linearGradient16635" y2="475.32" gradientUnits="userSpaceOnUse" x2="-411.27" gradientTransform="matrix(.992 .1261 -.1261 .992 477.06 -332.39)" y1="427.63" x1="-411.27">
   <stop id="stop310" stop-color="#de7210" offset=".0562"/>
   <stop id="stop312" stop-color="#f2c06e" offset="1"/>
  </linearGradient>
  <linearGradient id="linearGradient16637" y2="470.37" gradientUnits="userSpaceOnUse" x2="-414.44" gradientTransform="matrix(.9324 .3616 -.3616 .9324 554.92 -207.71)" y1="422.68" x1="-414.44">
   <stop id="stop317" stop-color="#de7210" offset=".0562"/>
   <stop id="stop319" stop-color="#f2c06e" offset="1"/>
  </linearGradient>
  <linearGradient id="linearGradient16639" y2="75.716" gradientUnits="userSpaceOnUse" x2=".56920" gradientTransform="matrix(.8104 -.5859 .5859 .8104 -28.537 20.331)" y1="55.797" x1="13.848">
   <stop id="stop324" stop-color="#de7210" offset=".0562"/>
   <stop id="stop326" stop-color="#f2c072" offset="1"/>
  </linearGradient>
  <linearGradient id="linearGradient16641" y2="69.189" gradientUnits="userSpaceOnUse" x2="7.7561" gradientTransform="matrix(.8104 -.5859 .5859 .8104 -28.537 20.331)" y1="49.271" x1="21.035">
   <stop id="stop331" stop-color="#de7210" offset=".0562"/>
   <stop id="stop333" stop-color="#f2c072" offset="1"/>
  </linearGradient>
  <linearGradient id="linearGradient16643" y2="48.709" gradientUnits="userSpaceOnUse" x2="6.504" y1="37.865" x1="12.314">
   <stop id="stop338" stop-color="#de7210" offset=".0562"/>
   <stop id="stop340" stop-color="#eed8a5" offset="1"/>
  </linearGradient>
  <linearGradient id="linearGradient16645" y2="55.335" gradientUnits="userSpaceOnUse" x2="5.9211" y1="44.492" x1="11.73">
   <stop id="stop345" stop-color="#de7210" offset=".0562"/>
   <stop id="stop347" stop-color="#eed8a5" offset="1"/>
  </linearGradient>
  <linearGradient id="linearGradient16647" y2="53.833" gradientUnits="userSpaceOnUse" x2="12.698" y1="39.891" x1="18.313">
   <stop id="stop352" stop-color="#de7210" offset=".0562"/>
   <stop id="stop354" stop-color="#f2c072" offset="1"/>
  </linearGradient>
  <linearGradient id="linearGradient16649" y2="53.023" gradientUnits="userSpaceOnUse" x2="7.1675" y1="33.104" x1="20.447">
   <stop id="stop359" stop-color="#de7210" offset=".0562"/>
   <stop id="stop361" stop-color="#f2c072" offset="1"/>
  </linearGradient>
  <linearGradient id="linearGradient16651" y2="55.279" gradientUnits="userSpaceOnUse" x2="9.2385" y1="37.126" x1="21.341">
   <stop id="stop366" stop-color="#de7210" offset=".0562"/>
   <stop id="stop368" stop-color="#f2c072" offset="1"/>
  </linearGradient>
  <linearGradient id="linearGradient16653" y2="36.006" gradientUnits="userSpaceOnUse" x2="61.245" y1="34.297" x1="60.286">
   <stop id="stop373" stop-color="#8b8b89" offset="0"/>
   <stop id="stop375" stop-color="#120500" offset="1"/>
  </linearGradient>
  <linearGradient id="linearGradient16655" y2="23.245" gradientUnits="userSpaceOnUse" x2="22.56" y1="28.492" x1="22.56">
   <stop id="stop380" stop-color="#de7210" offset=".0562"/>
   <stop id="stop382" stop-color="#f6c08f" offset="1"/>
  </linearGradient>
  <linearGradient id="linearGradient16657" y2="21.918" gradientUnits="userSpaceOnUse" x2="33.993" gradientTransform="matrix(.9992 .0398 -.0398 .9992 .9958 -1.3319)" y1="34.751" x1="23.012">
   <stop id="stop387" stop-color="#de7210" offset=".0562"/>
   <stop id="stop389" stop-color="#f6c08f" offset="1"/>
  </linearGradient>
  <linearGradient id="linearGradient16659" y2="44.352" gradientUnits="userSpaceOnUse" x2="9.6995" y1="33.508" x1="15.509">
   <stop id="stop394" stop-color="#de7210" offset=".0562"/>
   <stop id="stop396" stop-color="#eed8a5" offset="1"/>
  </linearGradient>
  <linearGradient id="linearGradient16661" y2="23.268" gradientUnits="userSpaceOnUse" x2="27.067" gradientTransform="matrix(.9946 .1039 -.1039 .9946 3.786 -2.0567)" y1="35.805" x1="16.34">
   <stop id="stop401" stop-color="#de7210" offset=".0562"/>
   <stop id="stop403" stop-color="#f6c08f" offset="1"/>
  </linearGradient>
  <linearGradient id="linearGradient16663" y2="24.641" gradientUnits="userSpaceOnUse" x2="26.26" gradientTransform="matrix(.9959 .0903 -.0903 .9959 2.3457 -2.346)" y1="22.876" x1="13.372">
   <stop id="stop408" stop-color="#de7210" offset=".0562"/>
   <stop id="stop410" stop-color="#f6c08f" offset="1"/>
  </linearGradient>
  <linearGradient id="linearGradient16665" y2="25.601" gradientUnits="userSpaceOnUse" x2="25.178" y1="23.109" x1="6.9834">
   <stop id="stop415" stop-color="#de7210" offset=".0562"/>
   <stop id="stop417" stop-color="#f6c08f" offset="1"/>
  </linearGradient>
  <linearGradient id="linearGradient16667" y2="23.85" gradientUnits="userSpaceOnUse" x2="27.724" gradientTransform="matrix(.9959 .0903 -.0903 .9959 2.3457 -2.346)" y1="22.228" x1="15.881">
   <stop id="stop422" stop-color="#de7210" offset=".0562"/>
   <stop id="stop424" stop-color="#f6c08f" offset="1"/>
  </linearGradient>
  <linearGradient id="linearGradient16669" y2="25.844" gradientUnits="userSpaceOnUse" x2="4.5215" y1="26.94" x1="15.201">
   <stop id="stop429" stop-color="#de7210" offset=".0562"/>
   <stop id="stop431" stop-color="#f6c08f" offset="1"/>
  </linearGradient>
  <linearGradient id="linearGradient16671" y2="19.835" gradientUnits="userSpaceOnUse" x2="25.719" gradientTransform="matrix(.9946 .1039 -.1039 .9946 3.786 -2.0567)" y1="37.1" x1="10.945">
   <stop id="stop436" stop-color="#de7210" offset=".0562"/>
   <stop id="stop438" stop-color="#f6c08f" offset="1"/>
  </linearGradient>
  <clipPath id="clipPath17685" clipPathUnits="userSpaceOnUse">
   <path id="path17687" d="m-8.3406 969.55c-6.668 0-12.031 5.3945-12.031 12.062v61.031c0 6.668 5.3633 12.031 12.031 12.031h61.031c6.4543 0 11.671-5.0366 12-11.406v-62.281c-0.32117-6.3771-5.5404-11.438-12-11.438h-61.031z" fill="url(#linearGradient17689)"/>
  </clipPath>
  <linearGradient id="linearGradient17689" y2="5.9877" xlink:href="#ButtonColor" gradientUnits="userSpaceOnUse" x2="48" gradientTransform="matrix(1.202 0 0 1.2231 -35.424 950.97)" y1="90" x1="48"/>
 </defs>
 <metadata id="metadata7">
  <rdf:RDF>
   <cc:Work rdf:about="">
    <dc:format>image/svg+xml</dc:format>
    <dc:type rdf:resource="http://purl.org/dc/dcmitype/StillImage"/>
    <dc:title/>
   </cc:Work>
  </rdf:RDF>
 </metadata>
 <g id="layer1" transform="translate(0 -956.36)">
  <rect id="rect5263-0" fill-opacity=".019608" ry="12.724" height="89.978" width="89.978" y="959.35" x="2.9998"/>
  <rect id="rect5261-6" fill-opacity=".039216" ry="12.552" height="88.762" width="88.762" y="959.96" x="3.6078"/>
  <rect id="rect5259-9" fill-opacity=".078431" ry="12.38" height="87.546" width="87.546" y="960.57" x="4.2157"/>
  <rect id="rect5257-5" fill-opacity=".15686" ry="12.208" height="86.33" width="86.33" y="961.18" x="4.8237"/>
  <g id="g16535" clip-path="url(#clipPath16571)">
   <ellipse id="ellipse10" d="m 123.091,59.375 c 0,32.791907 -26.565632,59.375 -59.335999,59.375 C 30.984634,118.75 4.4190025,92.166907 4.4190025,59.375 4.4190025,26.583093 30.984634,0 63.755001,0 96.525368,0 123.091,26.583093 123.091,59.375 z" rx="59.336" ry="59.375" transform="matrix(.93805 0 0 .94030 -12.084 948.48)" cy="59.375" cx="63.755" fill="#110070"/>
   <ellipse id="ellipse33" d="m 121.97,59.375 c 0,32.172797 -26.063742,58.254 -58.214999,58.254 C 31.603744,117.629 5.5400009,91.547797 5.5400009,59.375 5.5400009,27.202203 31.603744,1.1209984 63.755001,1.1209984 95.906258,1.1209984 121.97,27.202203 121.97,59.375 z" rx="58.215" ry="58.254" transform="matrix(.93805 0 0 .94030 -12.084 948.48)" cy="59.375" cx="63.755" fill="url(#radialGradient16533)"/>
   <path id="path42" d="m39.889 1032.6c-0.06751-0.2972-0.8039-1.1594-1.3677-1.3522-0.5619-0.1927-1.1144 0.8313-1.4765-0.8688-1.1876 0.6826-1.6997-0.1881-1.6997-0.1881s-1.2804 0.075-1.5281 1.6465c-0.60973 0.7232-2.1725 3.3531-1.3424 0.6178 0.83581-2.7523-0.88176-0.2164-1.0412 1.1659-0.2983 0.614-0.80203 0.6761-0.48497-2.0855-1.1003-0.3809-1.6622-2.9403-1.0591-2.9892-0.70073-0.9789-0.15009-2.4758 0.43338-2.396 0.58348 0.075 1.5853-1.2788 1.5544-1.5927-0.03097-0.3132 0.45214-0.09 0.42212-2.1966-0.03097-2.1129 0.79453-2.6356 0.86208-0.8689 0.07126 1.7603 1.12-0.5764 1.0122-1.4724-0.10881-0.8925 0.10507-2.9094 0.74387-1.717-0.74387-2.9498-0.15665-3.0663 0.28987-1.1031 1.1191 0.089 1.1575 0.6865 1.1575 0.6865 1.2392-0.3056 1.833 0.63 1.9286 1.1547 1.1482-1.3587 2.3076 0.1067 2.3076 0.1067s0.80016-0.2661 0.41743 1.1284c-0.3846 1.3897 1.6622 0.6374 1.1735-0.3612 1.0065-0.5105 2.5008 1.0363 2.9717 2.0913 0.47091 1.0597-0.80672 2.5604 0.18948 2.9234 1.0018 0.361 0.56284 2.1081 0.56284 2.1081s2.0937 1.1641 0.64069 2.1637l-0.49529 1.1894s0.94744 1.0598 1.2701 0.4288c0.32269-0.6318 0.43713 0.6423 0.43713 0.6423-0.12101-0.2258 0.23264 1.3126 1.5384 1.6361 1.3114 0.3206 2.1416 2.3977 0.68572 2.424-1.4502 0.023-1.5628-0.016-1.9558 0.8331-0.39117 0.8454-2.2429 0.8755-3.2016-0.219-1.0197 0.3459-2.8339-0.1-2.3001-0.9178-0.87989 0.5143-1.711-0.867-1.0234-1.4829 0.68759-0.6139-0.38647-1.4095-0.74763-0.5293-0.3574 0.8792-2.2551 1.3126-2.1228-0.1834 0.03937-0.4438 1.0506-0.7033 1.0637-0.3328 0.1848 0.4278 0.25984-0.035 0.18386-0.09z" fill="url(#radialGradient16521)"/>
   <g id="g44" transform="matrix(.93805 0 0 .94030 -12.084 948.48)">
    <path id="path53" d="m103.54 43.916c0.309 0.306 0.917 0.238 1.254 0.144 0.339-0.097 0.291-0.337 0.583-0.431 0.287-0.097 1.397 0.431 1.107 1.584-0.673 0.094-0.917 0.912-0.917 0.912s-0.673 0.287-1.013 0.144c-0.338-0.144-0.338-0.097-0.821-0.05-0.483 0.05-1.643-0.622-0.387-0.622 1.257 0-0.143-0.577-0.675-0.577-0.53 0-0.097-0.528 0.532-0.384-0.436-0.72-0.195-1.251 0.337-0.72z" fill="url(#radialGradient16529)"/>
    <path id="path62" d="m99.188 46.524c-0.337 0.334 0.049 1.344 0.483 1.294 0.433-0.047 1.11-0.238 1.11-0.238s0.337 0.672 0 0.866c-0.337 0.19-1.319 0.106-0.047 0.575 1.304 0.479 1.64 0.334 1.737 0.094 0.097-0.238 0.53-1.054 0.773-1.006 0.193-0.431-0.676-0.815-0.192-1.105 0.479-0.288 0.096-1.343 0.096-1.343s-0.677 0.047-0.966 0.528c-0.29 0.48-0.674-0.047-0.964-0.047-0.049 0.287-0.243 0.527-0.243 0.527l-0.193-0.434c-0.001-0.001-1.354-0.047-1.594 0.289z" fill="url(#radialGradient16531)"/>
   </g>
   <path id="path73" d="m72.496 992.97c-0.03937-0.11573 0.3602-0.58309 0.25328 0.0227-0.24577 0.43072 0.99246 0.81808 1.3395 0.33858 1.1641-1.5985-1.0975-2.3714-2.0787-1.6287-0.99058 0.74943-1.5365-0.8575-0.39867-1.086 1.1341-0.23037 1.2298-2.2849-0.01974-2.2924 1.1031-0.54537-0.42493-2.1796-1.6876-2.4589-0.20355-1.7584-2.0534-2.8764-3.0262-2.2379-0.98213 0.64033-1.0666 0.5275-2.5055-0.34792-1.4333-0.87166-2.1238 1.8129-1.0694 2.9854 1.0609 1.181 0.29173 3.0851 0.33582 2.7598 0 0-0.39961 0.72025-0.37334 0.99012-1.2138 0.41279-1.5684-1.3004-2.3217-1.6794-0.54877 0.71745-1.4352 1.1001-1.4352 1.1001l0.0666-1.4603s-3.7682-2.0574-4.9257-1.481c-1.4268 0.44194-1.7645 3.7527-0.46903 4.237 1.2973 0.48985-1.6275 1.7095 1.3067 4.8106 3.014 3.1838 4.179 3.275 4.7944 2.757 0.15196-0.13072 0.41462-0.32633 0.73543-0.5435 0.02905 0.1222 0.07783 0.23975 0.1529 0.35071 0.7542 1.1368-1.7532 2.033-2.1031 3.6616-0.35552 1.6463-0.02814 4.708 1.4596 4.8124 0.28329-1.6314 3.0674-1.055 1.5525 0.4231-1.5422 1.5073-0.46058 1.7734-0.46058 1.7734s0.07318 2.8237 2.4314 1.9211c-0.06842 0.1617-0.12382 0.3685-0.15665 0.5941-0.65945-0.1334-2.271-0.3356-2.665 0.7909-0.49717 1.4218-2.6022-0.4814-4.0749 0.157-1.4662 0.6338-3.6059 2.7148-2.8854 4.1778 1.3846-0.6583 2.4446 2.3093 0.5103 1.7-1.9408-0.6111-1.5637 0.5482-1.5637 0.5482s-2.0206 1.5975-0.12851 3.2986c-0.72699 0.1112-2.0187 0.9223-1.5834 2.7024 0 0-0.83017 0.031-0.9418 1.623-2.7082 0.5472-2.5431 1.3897 1.5318 0.4663-1.6444 0.8557 1.15 1.2581 2.3883 1.1443 1.2401-0.1123 4.4952 1.496 2.0496 1.512-2.4502 0.014-1.7204 1.2168 1.2138 1.2741 2.9295 0.06 2.6219 0.741 3.0571 0.7109 0.43526-0.03 2.3301 1.4679 2.2269 2.298-0.10598 0.8313 1.9849 1.6937 3.3451 0.7411 0.06944 0.8642 3.6453 0.1899 4.1743-1.3681 3.8723 0.5932 3.7832-0.1307 2.9211-0.5915-1.939-0.2972-5.497-2.8801-1.6378-1.5515 3.8394 1.3267 0.14071-1.0437-0.87145-1.9549-2.2044-0.4297-2.317-2.2718-2.317-2.2718s1.2176-0.6948 0.25703-2.4315c2.3817-0.4429 0.94368-1.2826 1.211-2.0828 0.26734-0.803 1.4765-1.8261 1.8911-1.9087 0.07885-0.1079 0.727 0.021 0.12571 0.266-0.51969 0-0.15103 1.4725 0.4709 1.5477 2.1031 0.2567 1.4878-2.4954 0.25233-3.0494-1.2382-0.5585-0.12664-2.0724 0.74294-1.053 0.86958 1.0174 2.8076-0.1251 2.0806-1.4143 1.1557 0.803 1.7786-1.795 1.287-3.2863 1.5459-1.3437 1.4962-4.0226 0.30017-4.6215-0.58815-0.2944-0.87238-0.4852-1.015-0.851 0.7101-0.3367 1.6519-0.5849 2.0215-0.253 0.60129 0.5445 2.2748-0.9572 2.1688-2.7128 0.70448 0.3874 1.8264-3.1922 0.87332-4.4447 2.1819-3.0578 1.5938-3.3353 0.86395-2.8227-1.0975 1.5251-4.7025 3.3502-1.908 0.64686 2.7128-2.6243-0.72136-0.63471-1.8705-0.20877-1.3517 1.6973-2.786 0.88207-2.786 0.88207s0.06093-1.3907-1.6847-1.419c0.80673-2.2313-0.49341-1.4254-0.94837-2.0348-0.4559-0.60839-0.62006-2.0959-0.48028-2.4767z" fill="url(#radialGradient16507)"/>
   <path id="path82" d="m44.206 970.62c-0.33863 0.88482 1.105 2.3225 1.8301 1.8599 0.72699-0.46545 1.7682-1.3935 1.7682-1.3935s1.1041 0.88859 0.65758 1.5223c-0.44933 0.63188-2.2382 1.3427 0.35083 1.055 2.6556-0.29431 3.1397-0.84345 3.1265-1.3512-0.01407-0.50589 0.13226-2.3216 0.59192-2.4476 0.01407-0.9309-1.8058-0.8444-1.1754-1.7762 0.63037-0.92714-0.84894-2.4504-0.84894-2.4504s-1.1519 0.67608-1.2964 1.7753c-0.1454 1.0973-1.2232 0.50588-1.7335 0.75788 0.13226 0.54913-0.0244 1.1396-0.0244 1.1396l-0.66696-0.59145c0.000942-0.00094-2.4117 1.0983-2.5796 1.9003z" fill="url(#radialGradient16504)"/>
   <path id="path91" d="m48.524 1017.1c-0.31612 0.314 0.04686 1.2628 0.45308 1.2185 0.40711-0.047 1.0412-0.2256 1.0412-0.2256s0.31612 0.6319 0 0.8135c-0.31801 0.1786-1.2373 0.1008-0.04595 0.5405 1.2223 0.4514 1.5403 0.316 1.6313 0.09 0.08907-0.2256 0.49624-0.9929 0.72324-0.9486 0.18292-0.4054-0.63413-0.7655-0.18104-1.0363 0.45307-0.2736 0.09281-1.2656 0.09281-1.2656s-0.63412 0.045-0.90616 0.4974c-0.27203 0.4504-0.63412-0.047-0.90616-0.047-0.04595 0.2707-0.22514 0.4964-0.22514 0.4964l-0.18104-0.4053c-0.000931 0-1.2701-0.046-1.4962 0.2709z" fill="url(#radialGradient16501)"/>
   <g id="g93" transform="matrix(.93805 0 0 .94030 -12.084 948.48)">
    <defs id="defs95">
     <ellipse id="XMLID_8_" cx="63.755" rx="58.215" ry="58.254" cy="59.375"/>
    </defs>
    <clipPath id="clipPath3943">
     <use id="use3945" xlink:href="#XMLID_8_" height="127.219" width="132.72" y="0" x="0"/>
    </clipPath>
    <path id="path108" d="m65.061 1.002c-0.912 0.203 0.613 3.503 0.613 3.503s-0.055 2.216 0.321 2.329c0.374 0.113 2.852 0.733 4.147 2.345 1.301 1.614 0.625 2.463-0.458 1.997-1.084-0.465-0.797 0.959-0.797 0.959s3.27 1.063 0.8 0.995c-2.475-0.066 1.666 1.741 1.393 1.93-0.273 0.191-0.429 1.231-0.429 1.231s-2.183 0.182-0.333 0.959c6.26 2.637-0.669 1.925-0.669 1.925l-0.884 1.087 1.749 2.194 1.345 0.962s2.833-0.945 3.716-1.093c0.884-0.146 3.114-1.815 3.114-1.815s0.669 0.478 0.169-0.497c-0.501-0.976 1.841-0.54 2.425 0.186l4.134 1.867c0.054 0.144 0.146 0.274 0.292 0.375 0.806 0.565-0.729 1.535-0.573 2.562 0.156 1.016 1.093 2.704 2.121 2.526-0.18-0.969 1.851-1.086 1.144-0.006-0.706 1.077 0.077 1.056 0.077 1.056s0.653 1.521 2.034 0.676c-0.056 0.464 0.227 1.397 1.413 1.459 0 0-0.126 0.506 0.848 0.865-0.132 1.737 0.424 1.792 0.561-0.846 0.245 1.157 0.992-0.471 1.141-1.25 0.15-0.784 1.756-2.505 1.322-0.984-0.431 1.508 4.735 2.06 5.308 0.259 0.578-1.815 2.637-2.763 2.699-3.038 0.062-0.281-4.583-0.712-4.07-0.493 0.514 0.219 1.47-0.948 1.115-1.986 0.576 0.116 0.83-2.301-0.083-2.927 1.143-2.405 0.651-2.48 0.182-2.001-0.57 1.205-2.922 3.023-1.327 0.783 1.609-2.263-0.653-0.284-1.438 0.208-0.689 1.341-1.899 1.08-1.899 1.08s-0.222-0.911-1.516-0.607c0.151-1.612-0.653-0.838-1.12-1.154-0.285-0.193-0.558-0.627-0.726-0.999 1.115 0.452 2.612 0.933 2.354 0.104-0.167-0.542 2.112 0.643 2.192 0.396l2.848-0.396 2.769-1.75c-17.692-15.814-38.019-14.976-38.019-14.976z" fill="url(#linearGradient16525)" clip-path="url(#XMLID_68_)"/>
    <path id="path117" d="m38.752 6.095c-10.573 4.747-18.551 14.531-18.551 14.531s0.938 2.145 1.265 1.987c0.33-0.156-2.361 5.628-0.386 5.954 1.985 0.325 7.696-3.578 6.637-3.22-1.056 0.356 0.595-2.112 0.595-2.112s2.972-1.318 1.214 0.202c-1.743 1.511 2.318 0.187 2.255 0.496-0.064 0.311 0.525 1.147 0.525 1.147s-1.393 1.494 0.406 0.892c6.172-2.075 0.812 1.779 0.812 1.779l0.106 1.312 2.67 0.464 1.578-0.15s1.381-2.436 1.914-3.098c0.535-0.663 1.028-3.284 1.028-3.284s0.803-0.084-0.213-0.468c-1.016-0.385 0.972-1.583 1.886-1.434l4.303-1.336c0.138 0.068 0.292 0.103 0.47 0.082 0.985-0.114 0.489 1.603 1.294 2.25 0.796 0.644 2.627 1.264 3.283 0.469-0.784-0.594 0.674-2.011 0.86-0.751 0.187 1.249 0.767 0.723 0.767 0.723s1.543-2.654 2.036-4.177c0.27 0.377 2.788-3.309 2.025-5.067-0.771-1.78 0.479-3.456 0.34-3.715-0.143-0.256-0.896 0.528-0.34 0.34 0.561-0.192-1.589 0.772-1.874-2.061-0.288-2.89-0.707 0.243-0.985 1.169 0.377 1.508 4.29-6.093 4.29-6.093l5.044-2.057c0 0.004-11.481-0.957-25.254 5.226z" fill="url(#linearGradient16527)" clip-path="url(#XMLID_68_)"/>
   </g>
  </g>
  <g id="g16673" clip-path="url(#clipPath17685)" transform="translate(25.809 -7.7782)">
   <g id="Fox" transform="matrix(.82674 0 0 .82872 -30.702 971.47)">
    <g id="g146">
     <path id="path159" d="m125.32 43.084-1.426 9.15s-2.039-16.94-4.538-23.273c-3.83-9.704-5.534-9.626-5.545-9.612 2.565 6.519 2.1 10.021 2.1 10.021s-4.545-12.387-16.562-16.328c-14.232-4.665-21.482-2.979-21.428-2.914 0.054 0.066 14.709 2.562 17.308 6.133 0 0-6.225 0-12.42 1.785-0.28 0.08 22.793 2.882 27.51 25.938 0 0-2.529-5.277-5.657-6.173 2.057 6.258 1.529 18.133-0.43 24.035-0.252 0.759-0.51-3.281-4.369-5.021 1.236 8.857-0.074 22.905-6.219 26.775-0.479 0.301 3.852-13.868 0.871-8.39-17.797 27.287-38.956 11.04-47.538 5.249 6.888 1.688 14.205 0.472 18.441-2.423 4.275-2.922 6.804-5.058 9.075-4.553 2.27 0.507 3.781-1.771 2.018-3.792-1.765-2.025-6.051-4.808-11.849-3.291-4.089 1.071-9.156 5.595-16.891 1.014-6.599-3.91-6.554-7.085-6.554-9.108 0-2.024 1.8-5.1 5.076-4.595 2.934 0.453 1.388-1.27 4.545 0 0.86 0.346-0.086-4.129-1.31-6.996 2.357-4.919 10.004-6.381 10.575-6.812 1.034-0.782 0.465-1.172 0.818-2.35 0.33-1.097 0.541-4.062-8.017-3.243-3.938 0.377-6.443-4.726-7.264-5.965 0.266-1.577 0.693-3.018 1.271-4.338 0.587-1.203 1.228-2.305 1.868-3.139 0.2-0.261 0.374-0.49 0.532-0.703 1.276-1.488 2.842-2.76 4.722-3.818 0.981-0.554-10.969-0.035-16.346 6.974-1.443 0.188-3.423-0.228-5.636-0.228-2.774 0-4.953 0.303-6.97 0.81-0.323 0.081-0.844 0.037-1.481-0.115-1.775-1.839-6.797-6.259-7.027-12.254 0 0-7.302 5.612-6.209 20.912-0.096 8.461-2.594 6.042-3.879 10.634-0.598 2.176 0.899 3.815 0.899 3.879-0.002 0.033 1.796-1.946 1.796-1.946s-11.323 19.617 3.3 44.66c12.604 21.589 33.755 31.13 55.703 29.272 3.839-0.25 7.706-0.822 11.564-1.754 51.133-12.363 45.573-74.107 45.573-74.107z" fill="url(#linearGradient16601)"/>
    </g>
    <path id="path166" d="m45.469 27.61s2.21 6.039 7.167 6.019c9.457-0.038 9.646 0.093 9.707 1.243 0.188 3.5-1.54 4.647-2.201 5.145-0.663 0.497-9.668 5.718-9.999 7.211-0.331 1.492-10.391-14.198-10.391-14.198l5.717-5.42z" fill="url(#linearGradient16603)"/>
    <path id="path179" d="m50.504 34.12s3.072 3.922 0.749 5.491c-2.838 1.916 4.012 2.335 6.494 0.942s4.006-3.44 4.093-3.745 0.902-3.054-4.279-2.096c-3.276 0.606-4.476 0.746-7.057-0.592z" fill="url(#linearGradient16605)"/>
    <path id="path186" d="m60.143 40.017c0.502-0.378 1.616-1.137 2.042-3.011-0.311 0.126-0.34-0.23-0.707-0.076-6.955 7.255-7.221 2.203-11.017 3.22-3.46 0.947-4.237 2.246-4.383 2.347 0.051 0.073 0.104 0.148 0.155 0.221 0.997 0.506 1.953 2.122 2.671 3.564 0.702 0.836 1.173 1.248 1.241 0.945 0.33-1.493 9.335-6.714 9.998-7.21z" fill="url(#linearGradient16607)"/>
    <path id="path193" d="m8.18 45.782c-1.42 2.979-10.532 18.377 4.339 44.005 14.552 25.084 39.737 33.276 65.45 27.71 7.34-1.588 15.803-7.331 21.196-11.545-3.465-8.738-1.414-8.41-3.271-7.26-20.714 12.82-37.18 0.174-49.924-1.443-46.883-5.942-37.625-51.558-37.625-51.558l-0.165 0.093z" fill="url(#linearGradient16609)"/>
    <path id="path200" d="m47.219 80.933c4.419 1.325 14.06 0.183 18.201-2.897 2.79-2.074 4.898-3.638 6.671-4.292-3.134-2.129-3.184 0.889-9.774 2.415-13.728 3.185-20.393-3.695-20.393-3.695 0.972 5.444 4.372 8.095 5.902 9.036-0.406-0.36-0.619-0.571-0.607-0.567z" fill="url(#linearGradient16611)"/>
    <path id="path207" d="m32.332 105.79s-11.428-12.896-14.618-27.338c-4.704-4.443-8.042-8.2-10.259-10.917 1.28 10.277 6.52 26.232 24.877 38.255z" fill="url(#linearGradient16613)"/>
    <path id="path214" d="m22.799 94.082s-7.887-11.228-4.93-20.762c2.66-8.571-0.565-3.472-2.441-1.64-1.895 1.851-2.869-5.464-2.821-6.307 0.003-0.018 0.001-0.026-0.001-0.027-0.119-0.025-3.754 17.526 10.193 28.736z" fill="url(#linearGradient16615)"/>
    <path id="path221" d="m11.115 84.294s-1.798-22.788 3.885-26.009c9.025-5.115 0.753-3.919-1.864-2.499-2.645 1.433-2.4-8-2.026-8.896 0.367-0.883-9.315 8.918 0.005 37.404z" fill="url(#linearGradient16617)"/>
    <path id="path223" d="m50.601 17.239s-7.145 7.257-7.092 7.282c0.054 0.026 0.205 9.315 0.438 11.948 0.856 1.011 3.524 7.588 1.482 6.128-2.086-1.49-0.582-1.522-0.4-0.765 0.005 0.025 0.005 0.037 0 0.037-0.138 0.064-5.185-10.923 5.572-24.63z" fill="#a40000"/>
    <path id="path232" d="m16.613 11.647s-7.594 5.825-6.143 21.805c5.878-5.277 14.19-9.222 14.19-9.222-1.395-0.878-7.794-5.997-8.047-12.583z" fill="url(#linearGradient16619)"/>
    <path id="path241" d="m35.328 29.122 11.406 14.185c-3.291-13.93-0.761-22.288 7.34-26.847 1.199-0.676-16.925 0.243-18.746 12.662z" fill="url(#linearGradient16621)"/>
    <path id="path250" d="m27.292 64.164c1.945-12.256 19.002-10.454 19.002-10.454-0.761 0.565-3.683 0.903-4.52 3.241-2.762 7.719-0.128 24.581 17.078 31.653 1.815 0.748-34.434-6.328-31.56-24.44z" fill="url(#linearGradient16623)"/>
    <path id="path265" d="m62.087 37.338c-0.084-0.015-0.158-0.013-0.195 0.037-0.21 0.281-1.021 1.239-2.95 2.81-3.583 2.915-5.093 2.177-7.762 2.774-1.215 0.271-2.37 1.087-3.148 1.741 0.315 0.509 0.609 1.057 0.871 1.582 0.702 0.836 1.173 1.248 1.241 0.945 0.331-1.493 9.336-6.714 9.999-7.211 0.47-0.353 1.468-1.054 1.944-2.678z" fill="url(#linearGradient16625)"/>
    <path id="path274" d="m51.09 55.865c0.1-2.59-0.081-8.881-2.774-11.611-2.057-2.085-2.54-4.474-2.816-7.201-22.363 8.353-25.556 19.272-23.32 18.917 17.886-2.835 22.914-3.182 28.91-0.105z" fill="url(#linearGradient16627)"/>
    <path id="path281" d="m3.411 71.171s1.554-20.192 11.661-27.582c7.935-5.805 1.773-3.696-1.291-3.456-3.231 0.256-4.954 2.221-4.331 1.498 0.027-0.03 0.036-0.047 0.031-0.055-0.106-0.125-7.584 6.15-6.07 29.595z" fill="url(#linearGradient16629)"/>
    <path id="path288" d="m2.347 55.658s5.416-17.192 16.362-17.047c7.259 0.097 1.501-6.134-0.695-7.081-2.291-0.981-2.839-0.943-3.374-0.469-0.802 0.71-8.004 0.436-12.293 24.597z" fill="url(#linearGradient16631)"/>
    <path id="path307" d="m76.185 72.486c0.823-0.807 0.249-3.903-4.924-5.78-4.694-1.705-12.021 2.63-14.195 3.486 0 0 8.299-1.555 11.411-1.037 4.218 0.702 5.7 5.301 7.708 3.331z" fill="url(#linearGradient16633)"/>
    <path id="path314" d="m10.342 66.822s-0.899-16.902 6.676-24.121c5.947-5.67 1.069-3.255-1.444-2.724-2.65 0.562-3.865 2.377-3.426 1.71 0.019-0.028 0.023-0.043 0.019-0.049-0.103-0.091-5.619 5.919-1.825 25.184z" fill="url(#linearGradient16635)"/>
    <path id="path321" d="m4.508 61.453s3.201-16.621 12.293-21.801c7.138-4.069 1.823-2.901-0.745-2.991-2.708-0.093-4.324 1.375-3.738 0.834 0.025-0.022 0.033-0.037 0.03-0.042-0.076-0.115-6.878 4.389-7.84 24z" fill="url(#linearGradient16637)"/>
    <path id="path328" d="m15.303 68.275s-1.75-10.074 2.021-15.033c3.01-3.957 0.367-2.021-1.03-1.451-1.458 0.596-2.011 1.771-1.812 1.34 0.193-0.421-6.488 4.756 0.821 15.144z" fill="url(#linearGradient16639)"/>
    <path id="path335" d="m17.303 58.775s-1.75-10.074 2.021-15.033c3.01-3.957 0.367-2.021-1.03-1.451-1.458 0.596-2.011 1.771-1.812 1.34 0.193-0.421-6.488 4.756 0.821 15.144z" fill="url(#linearGradient16641)"/>
    <path id="path342" d="m6.725 45.003s4.087-8.375 9.52-10.024c4.336-1.315 1.35-1.296 0.014-1.622-1.396-0.338-2.431 0.234-2.054 0.022 0.368-0.207-7.33 0.049-7.48 11.624z" fill="url(#linearGradient16643)"/>
    <path id="path349" d="m6.142 51.631s4.087-8.375 9.52-10.024c4.336-1.315 1.35-1.296 0.014-1.622-1.396-0.338-2.431 0.234-2.054 0.022 0.367-0.208-7.331 0.049-7.48 11.624z" fill="url(#linearGradient16645)"/>
    <path id="path356" d="m9.109 49.803s7.209-14.774 16.794-17.684c7.65-2.32 2.382-2.287 0.024-2.86-2.462-0.597-4.288 0.414-3.624 0.039 0.65-0.367-12.93 0.085-13.194 20.505z" fill="url(#linearGradient16647)"/>
    <path id="path363" d="m14.037 41.846s4.484-9.189 10.445-10.999c4.758-1.443 1.481-1.422 0.015-1.779-1.532-0.371-2.667 0.257-2.254 0.024 0.404-0.228-8.042 0.053-8.206 12.754z" fill="url(#linearGradient16649)"/>
    <path id="path370" d="m15.499 45.092s4.087-8.375 9.52-10.024c4.336-1.315 1.35-1.296 0.014-1.622-1.396-0.338-2.431 0.234-2.054 0.022 0.367-0.208-7.331 0.049-7.48 11.624z" fill="url(#linearGradient16651)"/>
    <path id="path377" d="m62.344 34.872c-0.047-0.873-0.176-1.158-4.356-1.229 0.479 0.217 1.305 0.652 2.214 1.398 1.201 0.984 1.396 2.081 1.52 3.217 0.407-0.774 0.705-1.841 0.622-3.386z" fill="url(#linearGradient16653)"/>
    <path id="path384" d="m37.802 23.206-3.625 5.833s-14.496-2.273-26.785 9.616c-1.016 0.982 8.038-21.023 30.41-15.449z" fill="url(#linearGradient16655)"/>
    <path id="path391" d="m24.784 33.646s3.863-7.172 8.872-9.339c-2.589 0.082-8.403 2.106-8.872 9.339z" fill="url(#linearGradient16657)"/>
    <path id="path398" d="m9.92 40.646s4.087-8.375 9.52-10.024c4.336-1.315 1.35-1.296 0.014-1.622-1.396-0.338-2.431 0.234-2.054 0.022 0.368-0.207-7.331 0.049-7.48 11.624z" fill="url(#linearGradient16659)"/>
    <path id="path405" d="m18.482 34.745s4.217-6.751 9.235-8.548c-2.527-0.083-8.323 1.526-9.235 8.548z" fill="url(#linearGradient16661)"/>
    <path id="path412" d="m25.712 23.214s-3.18 1.389-8.787-0.942l4.999 2.513 3.788-1.571z" fill="url(#linearGradient16663)"/>
    <path id="path419" d="m24.175 24.105s-4.238 1.642-12.394-0.802l6.977 2.776c0.863-0.798 5.417-1.974 5.417-1.974z" fill="url(#linearGradient16665)"/>
    <path id="path426" d="m27.268 22.759s-2.813 0.856-8.009-1.154l4.999 2.513c0.528-0.467 3.01-1.359 3.01-1.359z" fill="url(#linearGradient16667)"/>
    <path id="path433" d="m18.496 25.993s-2.09 1.735-7.443 1.806l4.63 0.151 2.813-1.957z" fill="url(#linearGradient16669)"/>
    <path id="path440" d="m13.411 34.871s7.153-9.318 13.044-11.428c-2.968-0.097-11.975 3.186-13.044 11.428z" fill="url(#linearGradient16671)"/>
   </g>
   <g id="Fire" transform="matrix(.82674 0 0 .82872 -30.702 971.47)">
    <path id="path458" d="m124.2 50.76s0.771 17.288-23.244 41.304c-2.669 2.668-17.16 16.244-16.65 20.317 0.179 1.439 38.021-5.805 39.894-61.621z" fill="url(#linearGradient16583)"/>
    <path id="path475" d="m77.64 10.096c28.926 2.222 34.528 23.021 34.53 21.748 0.073-20.22-27.444-21.755-34.53-21.748z" fill="url(#linearGradient16585)"/>
    <path id="path492" d="m86.449 18.003s20.053 4.099 25.709 25.354c0.75 2.815-2.416-17.267-1.439-15.361 0.975 1.916-8.071-9.358-24.27-9.993z" fill="url(#linearGradient16587)"/>
    <path id="path509" d="m94.464 17.483s18.11 3.775 18.29 32.509c0.127 20.338 3.141 7.635 6.131 3.064 2.578-3.948 0.816-8.76 0.754-8.748-0.01 0.003-1.305-3.743-0.432-2.156 0.039 0.07-1.216-1.034-1.207-1.035 0.201-0.03-0.697-20.652-23.536-23.634z" fill="url(#linearGradient16589)"/>
    <path id="path526" d="m114.86 21.376s6.505 16.945-0.389 25.371c-2.25 2.75-2.502 16.839 0.247 15.545 2.756-1.296 2.157 7.481 1.796 8.48-0.008 0.019-0.01 0.028-0.006 0.031 0.18 0.111 13.592-21.66-1.648-49.427z" fill="url(#linearGradient16591)"/>
    <path id="path543" d="m105.81 39.215s4.095 11.989-0.193 20.56l3.244 7.245c2.379-5.844 5.408-18.203-3.051-27.805z" fill="url(#linearGradient16593)"/>
    <path id="path560" d="m113.02 37.789s2.832 19.03-7.387 36.208c0.158 3.973-0.539 7.569-1.496 10.532 0.445 0.586 1.041 0.987 1.827 1.057-0.347 0.32-0.692 0.62-1.026 0.904-0.614 0.271-1.243 0.558-1.852 0.853-0.13 0.303-0.261 0.597-0.389 0.879 0.68-0.477 1.438-1.056 2.24-1.731 2.087-0.922 3.965-1.638 3.961-1.642 0 0-0.383 0.143-1.303 0.478-0.619 0.225-1.16 0.301-1.632 0.259 7.892-7.192 18.706-23.275 7.057-47.797zm-11.907 50.59c-0.902 0.529-1.558 1.025-1.698 1.408-0.103 0.279 0.512 0.118 1.575-0.479 0.055-0.319 0.1-0.632 0.123-0.929z" fill="url(#linearGradient16595)"/>
    <path id="path577" d="m100.41 58.065s8.057 22.932-17.693 44.432c-1.519 1.269 10.452 0.726 11.5 0.25 3.086-1.402 6.733-10.757 6.303-9.637-0.427 1.119 11.957-16.536-0.11-35.045z" fill="url(#linearGradient16597)"/>
    <path id="path608" d="m111.68 72.61s-4.86 29.744-38.461 32.137c-13.157 0.938-32.048-2.141-30.375 2.877 0.519 1.556 2.992 8.043 8.636 9.548 15.275 4.075 55.915 2.741 60.2-44.562z" fill="url(#linearGradient16599)"/>
   </g>
   <g id="Layer_6" transform="matrix(.82674 0 0 .82872 -30.702 971.47)">
    <path id="path616" d="m83.657 95.119s-20.559 4.697-33.878-6.641c-12.187-10.377-6.141-1.643-4.488 2.665 1.698 4.418-7.853 1.042-9.289 0.332-1.431-0.701 22.623 14.384 47.655 3.644z" fill="url(#linearGradient16577)"/>
    <path id="path623" d="m70.408 106.32s-24.525-4.82-32.29-21.438c-6.635-14.197-4.879-3.779-5.178 0.962-0.314 4.877-7.191-1.783-8.11-2.942-0.026-0.028-0.044-0.047-0.046-0.042-0.137 0.09 12.649 20.134 45.624 23.46z" fill="url(#linearGradient16579)"/>
    <path id="path630" d="m43.617 104.18s-11.714-9.073-16.995-21.514c-4.438-1.542-10.339-5.067-10.456-5.67 1.875 9.667 11.746 20.954 27.451 27.184z" fill="url(#linearGradient16581)"/>
   </g>
   <path id="path3615" opacity=".2" d="m-13.854 1050.3c-3.324 0-6-2.676-6-6v-2-68-2c0-0.33472 0.0413-0.6507 0.0937-0.96875 0.0487-0.2956 0.097-0.59691 0.1875-0.875 0.01-0.0304 0.0209-0.0636 0.0313-0.0937 0.0989-0.28777 0.23488-0.54745 0.375-0.8125 0.14459-0.27351 0.31562-0.53561 0.5-0.78125 0.18438-0.24563 0.37378-0.47347 0.59375-0.6875 0.43995-0.42806 0.94291-0.81453 1.5-1.0938 0.27854-0.13961 0.57347-0.24695 0.875-0.34375-0.2562 0.10022-0.48671 0.23627-0.71875 0.375-0.007 0.004-0.0239-0.005-0.0313 0-0.0319 0.0193-0.0623 0.0425-0.0937 0.0625-0.1204 0.0767-0.23102 0.16351-0.34375 0.25-0.10617 0.0808-0.21328 0.16111-0.3125 0.25-0.17793 0.16143-0.34746 0.34539-0.5 0.53125-0.10758 0.13026-0.21839 0.26528-0.3125 0.40625-0.0251 0.0384-0.0384 0.0859-0.0625 0.125-0.0648 0.10303-0.13023 0.20452-0.1875 0.3125-0.10101 0.19471-0.20567 0.4157-0.28125 0.625-0.008 0.0218-0.0236 0.0405-0.0313 0.0625-0.0318 0.0919-0.0358 0.18683-0.0625 0.28125-0.0303 0.10662-0.0704 0.20303-0.0937 0.3125-0.0729 0.34151-0.125 0.69821-0.125 1.0625v2 68 2c0 2.7818 2.2182 5 5 5h2 68 2c2.7818 0 5-2.2182 5-5v-2-68-2c0-0.36429-0.05212-0.72099-0.125-1.0625-0.04415-0.20689-0.08838-0.39766-0.15625-0.59375-0.0077-0.022-0.0233-0.0407-0.03125-0.0625-0.06274-0.17374-0.13838-0.36745-0.21875-0.53125-0.04158-0.0828-0.07904-0.16995-0.125-0.25-0.0546-0.0972-0.12677-0.18835-0.1875-0.28125-0.09411-0.14097-0.20492-0.27599-0.3125-0.40625-0.14317-0.17445-0.30314-0.347-0.46875-0.5-0.01117-0.0102-0.01998-0.0212-0.03125-0.0313-0.13839-0.12556-0.28509-0.23444-0.4375-0.34375-0.10257-0.0732-0.20432-0.15336-0.3125-0.21875-0.0074-0.005-0.02384 0.004-0.03125 0-0.23204-0.13873-0.46255-0.27478-0.71875-0.375 0.30153 0.0968 0.59646 0.20414 0.875 0.34375 0.55709 0.27922 1.0601 0.66569 1.5 1.0938 0.21997 0.21403 0.40937 0.44187 0.59375 0.6875 0.18438 0.24564 0.35541 0.50774 0.5 0.78125 0.14012 0.26505 0.27614 0.52473 0.375 0.8125 0.01041 0.0308 0.02133 0.0627 0.03125 0.0937 0.09046 0.27809 0.1388 0.5794 0.1875 0.875 0.0524 0.31805 0.09375 0.63403 0.09375 0.96875v2 68 2c0 3.324-2.676 6-6 6h-72z" fill="url(#radialGradient14954)"/>
  </g>
  <path id="rect5265-0" d="m5.4316 1029.8v5.0663c0 6.668 5.3645 12.032 12.032 12.032h61.049c6.668 0 12.032-5.3645 12.032-12.032v-5.0663c0 6.6681-5.3645 12.032-12.032 12.032h-61.049c-6.668 0-12.032-5.3643-12.032-12.032z" fill-opacity=".29412"/>
  <path id="path5252-0" d="m5.4316 1033.9v1.0133c0 6.668 5.3645 12.032 12.032 12.032h61.049c6.668 0 12.032-5.3645 12.032-12.032v-1.0133c0 6.6681-5.3645 12.032-12.032 12.032h-61.049c-6.668 0-12.032-5.3644-12.032-12.032z" fill-opacity=".098039"/>
 </g>
</svg>
