<?xml version="1.0" encoding="UTF-8" standalone="no"?>
<!-- Created with Inkscape (http://www.inkscape.org/) -->
<svg id="svg2" xmlns:rdf="http://www.w3.org/1999/02/22-rdf-syntax-ns#" xmlns="http://www.w3.org/2000/svg" height="96" width="96" version="1.1" xmlns:cc="http://creativecommons.org/ns#" xmlns:xlink="http://www.w3.org/1999/xlink" xmlns:dc="http://purl.org/dc/elements/1.1/">
 <defs id="defs4">
  <linearGradient id="linearGradient3613-7" y2="138.66" gradientUnits="userSpaceOnUse" x2="48" y1="20.221" x1="48">
   <stop id="stop3739-40" stop-color="#fff" offset="0"/>
   <stop id="stop3741-8" stop-color="#fff" stop-opacity="0" offset="1"/>
  </linearGradient>
  <clipPath id="clipPath3613-22">
   <rect id="rect3615-13" rx="6" ry="6" height="84" width="84" y="6" x="6" fill="#fff"/>
  </clipPath>
  <filter id="filter3794-3" height="1.384" width="1.384" color-interpolation-filters="sRGB" y="-.192" x="-.192">
   <feGaussianBlur id="feGaussianBlur3796-52" stdDeviation="5.28"/>
  </filter>
  <linearGradient id="linearGradient26737" y2="5.9877" gradientUnits="userSpaceOnUse" x2="48" gradientTransform="matrix(1.0833 0 0 1.0833 -3.0226 -3.9975)" y1="90" x1="48">
   <stop id="stop3702" stop-color="#e1e1e1" offset="0"/>
   <stop id="stop3704" stop-color="#f5f5f5" offset="1"/>
  </linearGradient>
  <linearGradient id="linearGradient26749" y2="40" gradientUnits="userSpaceOnUse" x2="48" gradientTransform="matrix(0 .9375 -.9375 0 96.477 958.36)" y1="40" x1="16">
   <stop id="stop3738" stop-color="#ff41a3" offset="0"/>
   <stop id="stop3740" stop-color="#ff0084" offset="1"/>
  </linearGradient>
  <linearGradient id="linearGradient26752" y2="40" gradientUnits="userSpaceOnUse" x2="48" gradientTransform="matrix(0 .9375 -.9375 0 74.477 958.36)" y1="40" x1="16">
   <stop id="stop3746" stop-color="#167fff" offset="0"/>
   <stop id="stop3748" stop-color="#0063db" offset="1"/>
  </linearGradient>
 </defs>
 <metadata id="metadata7">
  <rdf:RDF>
   <cc:Work rdf:about="">
    <dc:format>image/svg+xml</dc:format>
    <dc:type rdf:resource="http://purl.org/dc/dcmitype/StillImage"/>
    <dc:title/>
   </cc:Work>
  </rdf:RDF>
 </metadata>
 <g id="layer1" transform="translate(0 -956.36)">
  <rect id="rect5263-0" fill-opacity=".019608" ry="12.724" height="89.978" width="89.978" y="959.35" x="2.9998"/>
  <rect id="rect5261-6" fill-opacity=".039216" ry="12.552" height="88.762" width="88.762" y="959.96" x="3.6078"/>
  <rect id="rect5259-9" fill-opacity=".078431" ry="12.38" height="87.546" width="87.546" y="960.57" x="4.2157"/>
  <rect id="rect5257-5" fill-opacity=".15686" ry="12.208" height="86.33" width="86.33" y="961.18" x="4.8237"/>
  <path id="rect2419" d="m17.469 5.4062c-6.668 0-12.032 5.3948-12.032 12.063l0.0005 61.031c0 6.668 5.3635 12.031 12.032 12.031h61.03c6.454 0 11.671-5.036 12-11.406v-62.281c-0.321-6.377-5.54-11.438-12-11.438l-61.031 0.0002z" transform="translate(0 956.36)" fill="url(#linearGradient26737)"/>
  <path id="rect5265-0" d="m5.4316 1029.8v5.0663c0 6.668 5.3645 12.032 12.032 12.032h61.049c6.668 0 12.032-5.3645 12.032-12.032v-5.0663c0 6.6681-5.3645 12.032-12.032 12.032h-61.049c-6.668 0-12.032-5.3643-12.032-12.032z" fill-opacity=".23529"/>
  <path id="path5252-0" d="m5.4316 1033.9v1.0133c0 6.668 5.3645 12.032 12.032 12.032h61.049c6.668 0 12.032-5.3645 12.032-12.032v-1.0133c0 6.6681-5.3645 12.032-12.032 12.032h-61.049c-6.668 0-12.032-5.3644-12.032-12.032z" fill-opacity=".098039"/>
  <g id="layer5" transform="translate(-95.023 954.86)">
   <rect id="rect3171" height="66" stroke="#fff" stroke-linecap="round" stroke-width=".5" fill="url(#linearGradient3613-7)" rx="12" ry="12" width="66" opacity=".1" clip-path="url(#clipPath3613-22)" filter="url(#filter3794-3)" y="15" x="15"/>
  </g>
  <path id="path2407" d="m14.78 1022.3h-3.3022v-4.0728h3.377v-0.8166c0-4.4715 1.8218-6.0294 5.4153-6.0294 0.97332 0 2.0504 0.1731 2.6242 0.2886l-0.27442 3.5771c-0.37424-0.1442-1.077-0.2309-1.7508-0.2309-1.1479 0-1.5972 0.9232-1.5972 2.3946v0.8168h3.5227v4.0728h-3.5227v11.063h-4.492v-11.063z" fill="#0063db"/>
  <rect id="rect2409" height="22.186" width="4.5255" y="1011.2" x="25.923" fill="#0063db"/>
  <rect id="rect2411" height="4.2078" width="4.5256" y="1011.4" x="34.695" fill="#0063db"/>
  <rect id="rect2413" height="15.208" width="4.4162" y="1018.2" x="34.695" fill="#0063db"/>
  <path id="path2415" d="m53.507 1022.8c-0.83769-0.5708-1.6754-0.828-2.767-0.828-1.98 0-3.5032 1.5421-3.5032 4.1127 0 2.3705 1.7771 3.9125 3.7571 3.9125 1.0409 0 2.0818-0.2568 2.8432-0.7139l0.10154 3.827c-1.1425 0.4287-2.5131 0.6571-3.7316 0.6571-4.3665 0-7.6918-2.856-7.6918-7.7683 0-4.9409 3.3253-7.7968 7.6918-7.7968 1.3709 0 2.5891 0.257 3.6301 0.8282l-0.33011 3.7695z" fill="#0063db"/>
  <path id="polygon2417" d="m72.013 1018.1-5.6109 7.2637 6.0397 8.0538h-5.9022l-4.8817-7.3681h-0.05724v7.3681h-4.4875v-21.967h4.4875v13.342h0.05724l5.0533-6.6928h5.3019z" fill="#0063db"/>
  <path id="path2419" d="m84.338 1022.2c-0.52852-0.171-1.0572-0.171-1.6118-0.171-2.2196 0-3.4618 1.742-3.4618 4.6551v6.7209h-4.7564v-15.318h4.3336v2.7418h0.05292c0.81896-1.885 2.0082-3.0844 4.0695-3.0844 0.5545 0 1.1359 0.085 1.6121 0.1712l-0.23807 4.2839z" fill="#ff0084"/>
  <path id="path3732" style="color:#000000" d="m36.977 1003.4a15 15 0 1 1 0 -30 15 15 0 0 1 0 30z" fill="url(#linearGradient26752)"/>
  <path id="path3734" style="color:#000000" d="m58.977 1003.4a15 15 0 1 1 0 -30 15 15 0 0 1 0 30z" fill="url(#linearGradient26749)"/>
  <path id="path3780" opacity="0.08" style="color:#000000" d="m36.977 973.36c-8.2843 0-15 6.7157-15 15s6.7157 15 15 15 15-6.7157 15-15-6.7157-15-15-15zm0 2c7.2038 0 13 5.7962 13 13s-5.7962 13-13 13-13-5.7962-13-13 5.7962-13 13-13z"/>
  <path id="path3773" opacity=".15" style="color:#000000" d="m36.977 973.36c-8.2843 0-15 6.7157-15 15s6.7157 15 15 15 15-6.7157 15-15-6.7157-15-15-15zm0 0.875c7.808 0 14.125 6.317 14.125 14.125s-6.317 14.125-14.125 14.125-14.125-6.317-14.125-14.125 6.317-14.125 14.125-14.125z"/>
  <path id="path3761" style="color:#000000" d="m22.009 988.86c-0.0056 0.16786-0.03125 0.33078-0.03125 0.5 0 8.2843 6.7157 15 15 15s15-6.7157 15-15c0-0.16922-0.02569-0.33214-0.03125-0.5-0.26665 8.0502-6.8537 14.5-14.969 14.5-8.1151 0-14.702-6.4498-14.969-14.5z" fill="#fff"/>
  <path id="path3771" style="color:#000000" d="m44.009 988.86c-0.0056 0.16786-0.03125 0.33078-0.03125 0.5 0 8.2843 6.7157 15 15 15s15-6.7157 15-15c0-0.16922-0.02569-0.33214-0.03125-0.5-0.26665 8.0502-6.8537 14.5-14.969 14.5-8.1151 0-14.702-6.4498-14.969-14.5z" fill="#fff"/>
  <path id="path3787" opacity="0.08" style="color:#000000" d="m58.977 973.36c-8.2843 0-15 6.7157-15 15s6.7157 15 15 15 15-6.7157 15-15-6.7157-15-15-15zm0 2c7.2038 0 13 5.7962 13 13s-5.7962 13-13 13-13-5.7962-13-13 5.7962-13 13-13z"/>
  <path id="path3789" opacity=".15" style="color:#000000" d="m58.977 973.36c-8.2843 0-15 6.7157-15 15s6.7157 15 15 15 15-6.7157 15-15-6.7157-15-15-15zm0 0.875c7.808 0 14.125 6.317 14.125 14.125s-6.317 14.125-14.125 14.125-14.125-6.317-14.125-14.125 6.317-14.125 14.125-14.125z"/>
  <path id="path3752" opacity=".3" style="color:#000000" d="m36.977 973.36c-8.2843 0-15 6.7157-15 15 0 0.16922 0.02569 0.33214 0.03125 0.5 0.26665-8.0502 6.8537-14.5 14.969-14.5 8.1151 0 14.702 6.4498 14.969 14.5 0.0056-0.16786 0.03125-0.33078 0.03125-0.5 0-8.2843-6.7157-15-15-15z"/>
  <path id="path3791" opacity=".3" style="color:#000000" d="m58.977 973.36c-8.2843 0-15 6.7157-15 15 0 0.16922 0.02569 0.33214 0.03125 0.5 0.26665-8.0502 6.8537-14.5 14.969-14.5 8.1151 0 14.702 6.4498 14.969 14.5 0.0056-0.16786 0.03125-0.33078 0.03125-0.5 0-8.2843-6.7157-15-15-15z"/>
  <path id="path26761" d="m52.724 32.391c0 5.5772-3.2881 9.9127-3.8007 9.9127-0.51256 0-3.8007-4.3819-3.8007-9.9591s3.2881-10.238 3.8007-10.238c0.51256 0 3.8007 4.7069 3.8007 10.284z" transform="matrix(1 0 0 .95186 -.92808 957.78)" fill="#f2f2f2"/>
 </g>
</svg>
