<?xml version="1.0" encoding="UTF-8" standalone="no"?>
<!-- Created with Inkscape (http://www.inkscape.org/) -->
<svg id="svg2" xmlns:rdf="http://www.w3.org/1999/02/22-rdf-syntax-ns#" xmlns="http://www.w3.org/2000/svg" height="96" width="96" version="1.1" xmlns:cc="http://creativecommons.org/ns#" xmlns:xlink="http://www.w3.org/1999/xlink" xmlns:dc="http://purl.org/dc/elements/1.1/">
 <defs id="defs4">
  <linearGradient id="linearGradient3613-7" y2="138.66" gradientUnits="userSpaceOnUse" x2="48" y1="20.221" x1="48">
   <stop id="stop3739-40" stop-color="#fff" offset="0"/>
   <stop id="stop3741-8" stop-color="#fff" stop-opacity="0" offset="1"/>
  </linearGradient>
  <clipPath id="clipPath3613-22">
   <rect id="rect3615-13" rx="6" ry="6" height="84" width="84" y="6" x="6" fill="#fff"/>
  </clipPath>
  <filter id="filter3794-3" height="1.384" width="1.384" color-interpolation-filters="sRGB" y="-.192" x="-.192">
   <feGaussianBlur id="feGaussianBlur3796-52" stdDeviation="5.28"/>
  </filter>
  <linearGradient id="linearGradient35173" y2="5.9877" gradientUnits="userSpaceOnUse" x2="48" gradientTransform="matrix(1.1599 0 0 1.1599 -7.5939 -9.8805)" y1="90" x1="48">
   <stop id="stop3189-8" stop-color="#242424" offset="0"/>
   <stop id="stop3191-5" stop-color="#505050" offset="1"/>
  </linearGradient>
 </defs>
 <metadata id="metadata7">
  <rdf:RDF>
   <cc:Work rdf:about="">
    <dc:format>image/svg+xml</dc:format>
    <dc:type rdf:resource="http://purl.org/dc/dcmitype/StillImage"/>
    <dc:title/>
   </cc:Work>
  </rdf:RDF>
 </metadata>
 <g id="layer1" transform="translate(0 -956.36)">
  <rect id="rect5263-0" fill-opacity=".019608" ry="12.724" height="89.978" width="89.978" y="959.35" x="2.9998"/>
  <rect id="rect5261-6" fill-opacity=".039216" ry="12.552" height="88.762" width="88.762" y="959.96" x="3.6078"/>
  <rect id="rect5259-9" fill-opacity=".078431" ry="12.38" height="87.546" width="87.546" y="960.57" x="4.2157"/>
  <rect id="rect5257-5" fill-opacity=".15686" ry="12.208" height="86.33" width="86.33" y="961.18" x="4.8237"/>
  <path id="rect2419" d="m17.469 5.4062c-6.668 0-12.032 5.3948-12.032 12.063l0.0005 61.031c0 6.668 5.3635 12.031 12.032 12.031h61.03c6.454 0 11.671-5.036 12-11.406v-62.281c-0.321-6.377-5.54-11.438-12-11.438l-61.031 0.0002z" transform="translate(0 956.36)" fill="url(#linearGradient35173)"/>
  <g id="g35197" transform="translate(3)">
   <path id="path3427" d="m47.585 994.01c-0.24207 0.0464-0.43466 0.24729-0.48296 0.4946-0.04834 0.24732 0.05736 0.49135 0.26343 0.62951 5.4198 3.5142 8.2209 7.8061 9.0226 12.433 0.80167 4.6266-0.40467 9.6476-3.1831 14.568-5.5569 9.8418-17.415 19.202-31.392 23.899-0.24273 0.098-0.3865 0.3451-0.3732 0.607h51.83c8.4874-15.095 7.4969-27.216 1.6465-36.017-5.8822-8.8489-16.529-14.341-27.09-16.614-0.07966-0.0166-0.16181-0.0166-0.24148 0z" fill-rule="evenodd"/>
   <path id="path3309" d="m21.132 961.75c-6.0891 7.1347-9.2045 13.703-10.076 19.627-0.88758 6.0314 0.57304 11.374 3.4905 15.895 5.8349 9.0414 17.397 14.833 27.968 17.109 0.28959 0.044 0.57088-0.1266 0.68054-0.4047 0.10965-0.2781 0.01905-0.5904-0.21953-0.7643-5.4213-3.5152-8.3043-7.7284-9.3958-12.253-1.0914-4.5245-0.36538-9.4022 1.6245-14.231 3.9798-9.6582 13.032-19.026 22.194-24.416 0.20226-0.11574 0.32768-0.33317 0.32928-0.56205h-36.595z" fill-rule="evenodd"/>
   <path id="path3299" d="m21.944 961.79c-25.014 28.88-0.1953 47.458 20.701 51.957-22.117-14.34-4.1138-41.084 14.445-52.001-12.183 0.0599-22.963-0.10188-35.146 0.045z" fill-rule="evenodd" fill="#e72121"/>
   <path id="path3301" stroke-linejoin="round" d="m52.325 1011.6a10.306 6.2151 46.464 0 1 -14.397 -14.745 10.306 6.2151 46.464 1 1 14.397 14.745z" stroke="#000" stroke-linecap="square" stroke-width="1.0134" fill="#e00"/>
   <path id="path3351" opacity=".3" d="m38.518 1008c-13.02-10.138 1.9298-36.221 17.004-43.09-21.886 15.585-25.374 35.536-17.004 43.09z" fill-rule="evenodd" fill="#fff"/>
   <path id="path3353" opacity=".3" d="m45.903 995.52c-9.5708-5.528-11.441-1.2995-9.9912 5.847-0.37666-3.695-0.04814-9.4009 9.9912-5.847z" fill-rule="evenodd"/>
   <path id="path3355" opacity=".3" d="m44.411 1012.8c9.5708 5.5281 11.441 1.2995 9.9912-5.847 0.37666 3.6951 0.04814 9.401-9.9912 5.847z" fill-rule="evenodd" fill="#fff"/>
   <path id="path3357" opacity=".3" d="m28.487 1009.7c-19.073-5.7-29.123-27.01-11.982-43.38-15.076 21.02-2.845 36.88 11.982 43.38z" fill-rule="evenodd"/>
   <path id="path3399" d="m72.62 1046.6c17.115-30.138-4.0196-47.458-24.916-51.957 22.117 14.34 2.5279 42.522-25.685 52.002 12.183-0.06 38.418 0.1018 50.601-0.045z" fill-rule="evenodd" fill="#e72121"/>
   <path id="path3405" opacity=".3" d="m51.83 1000.3c13.02 10.138-3.334 34.064-21.567 41.112 23.114-13.608 30.815-31.582 21.567-41.112z" fill-rule="evenodd"/>
   <path id="path3407" opacity=".2" d="m61.862 998.71c19.073 5.6364 26.315 28.951 13.386 46.214 12.091-22.096 1.4404-39.723-13.386-46.214z" fill-rule="evenodd" fill="#fff"/>
  </g>
  <path id="rect5265-0" d="m5.4316 1029.8v5.0663c0 6.668 5.3645 12.032 12.032 12.032h61.049c6.668 0 12.032-5.3645 12.032-12.032v-5.0663c0 6.6681-5.3645 12.032-12.032 12.032h-61.049c-6.668 0-12.032-5.3643-12.032-12.032z" fill-opacity=".23529"/>
  <path id="path5252-0" d="m5.4316 1033.9v1.0133c0 6.668 5.3645 12.032 12.032 12.032h61.049c6.668 0 12.032-5.3645 12.032-12.032v-1.0133c0 6.6681-5.3645 12.032-12.032 12.032h-61.049c-6.668 0-12.032-5.3644-12.032-12.032z" fill-opacity=".098039"/>
  <g id="layer5" transform="translate(-95.023 954.86)">
   <rect id="rect3171" height="66" stroke="#fff" stroke-linecap="round" stroke-width=".5" fill="url(#linearGradient3613-7)" rx="12" ry="12" width="66" opacity=".1" clip-path="url(#clipPath3613-22)" filter="url(#filter3794-3)" y="15" x="15"/>
  </g>
 </g>
</svg>
