<?xml version="1.0" encoding="UTF-8" standalone="no"?>
<!-- Created with Inkscape (http://www.inkscape.org/) -->
<svg id="svg2" xmlns:rdf="http://www.w3.org/1999/02/22-rdf-syntax-ns#" xmlns="http://www.w3.org/2000/svg" height="96" width="96" version="1.1" xmlns:cc="http://creativecommons.org/ns#" xmlns:xlink="http://www.w3.org/1999/xlink" xmlns:dc="http://purl.org/dc/elements/1.1/">
 <defs id="defs4">
  <linearGradient id="linearGradient3613-7" y2="138.66" gradientUnits="userSpaceOnUse" x2="48" y1="20.221" x1="48">
   <stop id="stop3739-40" stop-color="#fff" offset="0"/>
   <stop id="stop3741-8" stop-color="#fff" stop-opacity="0" offset="1"/>
  </linearGradient>
  <clipPath id="clipPath3613-22">
   <rect id="rect3615-13" rx="6" ry="6" height="84" width="84" y="6" x="6" fill="#fff"/>
  </clipPath>
  <filter id="filter3794-3" height="1.384" width="1.384" color-interpolation-filters="sRGB" y="-.192" x="-.192">
   <feGaussianBlur id="feGaussianBlur3796-52" stdDeviation="5.28"/>
  </filter>
  <linearGradient id="linearGradient3169" gradientUnits="userSpaceOnUse" x2="8" gradientTransform="matrix(1.3007 0 0 1.3007 -.00044714 949.9)" y1="16.422" x1="11.469">
   <stop id="stop5734" stop-color="#e2f39e" stop-opacity="0" offset="0"/>
   <stop id="stop5736" stop-color="#e0f298" stop-opacity=".29134" offset="0.3"/>
   <stop id="stop4243" stop-color="#e0f297" stop-opacity=".16535" offset="1"/>
  </linearGradient>
  <linearGradient id="linearGradient43176" y2="5.9877" gradientUnits="userSpaceOnUse" x2="48" gradientTransform="matrix(1.2231 0 0 1.4504 -11.855 -10.606)" y1="90" x1="48">
   <stop id="stop3189-5" stop-color="#5a9b0f" offset="0"/>
   <stop id="stop3191-8" stop-color="#8fe02f" offset="1"/>
  </linearGradient>
 </defs>
 <metadata id="metadata7">
  <rdf:RDF>
   <cc:Work rdf:about="">
    <dc:format>image/svg+xml</dc:format>
    <dc:type rdf:resource="http://purl.org/dc/dcmitype/StillImage"/>
    <dc:title/>
   </cc:Work>
  </rdf:RDF>
 </metadata>
 <g id="layer1" transform="translate(0 -956.36)">
  <rect id="rect5263-0" fill-opacity=".019608" ry="12.724" height="89.978" width="89.978" y="959.35" x="2.9998"/>
  <rect id="rect5261-6" fill-opacity=".039216" ry="12.552" height="88.762" width="88.762" y="959.96" x="3.6078"/>
  <rect id="rect5259-9" fill-opacity=".078431" ry="12.38" height="87.546" width="87.546" y="960.57" x="4.2157"/>
  <rect id="rect5257-5" fill-opacity=".15686" ry="12.208" height="86.33" width="86.33" y="961.18" x="4.8237"/>
  <path id="path43174" d="m17.469 5.4062c-6.668 0-12.032 5.3948-12.032 12.063l0.0005 61.031c0 6.668 5.3635 12.031 12.032 12.031h61.03c6.454 0 11.671-5.036 12-11.406v-62.281c-0.321-6.377-5.54-11.438-12-11.438l-61.031 0.0002z" transform="translate(0 956.36)" fill="url(#linearGradient43176)"/>
  <path id="rect5265-0" d="m5.4316 1029.8v5.0663c0 6.668 5.3645 12.032 12.032 12.032h61.049c6.668 0 12.032-5.3645 12.032-12.032v-5.0663c0 6.6681-5.3645 12.032-12.032 12.032h-61.049c-6.668 0-12.032-5.3643-12.032-12.032z" fill-opacity=".23529"/>
  <path id="path5252-0" d="m5.4316 1033.9v1.0133c0 6.668 5.3645 12.032 12.032 12.032h61.049c6.668 0 12.032-5.3645 12.032-12.032v-1.0133c0 6.6681-5.3645 12.032-12.032 12.032h-61.049c-6.668 0-12.032-5.3644-12.032-12.032z" fill-opacity=".098039"/>
  <g id="layer5" transform="translate(-95.023 954.86)">
   <rect id="rect3171" height="66" stroke="#fff" stroke-linecap="round" stroke-width=".5" fill="url(#linearGradient3613-7)" rx="12" ry="12" width="66" opacity=".1" clip-path="url(#clipPath3613-22)" filter="url(#filter3794-3)" y="15" x="15"/>
  </g>
  <path id="path5768" opacity=".3" d="m15.608 957.7c-0.22977 0-0.46635 0.0215-0.69098 0.0406 2.8748 11.537 6.5846 26.57 6.5846 27.07l3.4955-27.111h-9.3892z" fill="url(#linearGradient3169)"/>
  <path id="path4179" opacity=".3" d="m28.696 969.53c-0.40243-0.0137-0.83472-0.0106-1.2194 0.0406-1.2266 0.16119-2.4662 0.13479-3.6988 0.32518-2.3612 0.36476-4.6169 1.1068-6.8285 1.9917-0.8053 0.32201-1.6177 0.67913-2.3981 1.0567-0.29041 0.14027-0.70136 0.22157-0.93485 0.44721-0.12148 0.11639-0.10717 0.41176-0.12186 0.56889-0.04111 0.44224-0.11979 0.89941-0.16258 1.3414-0.16517 1.7056-0.2849 3.4573-0.04071 5.1619 0.07908 0.55074 0.25792 1.5202 0.93485 1.6258 1.041 0.16249 1.8466-1.0808 2.3575-1.7884 1.1932-1.6522 2.5548-3.204 4.5117-3.9425 2.3037-0.8695 4.9604-1.0929 7.3975-1.26 6.8377-0.46863 14.31 0.77606 19.347 5.8125 0.71633 0.71596 1.3744 1.4812 1.951 2.3166 2.2552 3.2656 3.4496 6.9929 4.0239 10.893 0.27004 1.831 0.45832 3.6636 0.04071 5.4872-0.72482 3.1634-2.6124 5.9476-4.7962 8.2917-1.4947 1.6045-3.2082 3.0308-4.9588 4.349-0.97729 0.7358-2.0482 1.3906-2.9671 2.1949-1.0583 0.9266-1.9323 2.0562-2.6013 3.2925-1.8004 3.3283-2.318 7.34-1.7884 11.056 0.10848 0.7617 0.2339 1.5252 0.40646 2.2763 0.05151 0.2246 0.05789 0.6293 0.20323 0.8129 0.27203 0.3434 1.0069 0.5082 1.4226 0.5282 0.43354 0.02 0.70667-0.3023 0.81292-0.6907 0.18193-0.6662 0.10536-1.403 0-2.073-0.21591-1.3724-0.42701-2.7529-0.36581-4.1459 0.11276-2.5722 1.103-4.9643 2.8859-6.8286 1.8132-1.8959 4.2802-3.0047 6.3407-4.5927 4.1529-3.2012 7.8386-7.5018 9.2672-12.641 0.51062-1.8378 0.68032-3.7984 0.4471-5.6902-0.29469-2.3933-1.1671-4.7779-1.9916-7.0317-2.5131-6.8701-6.8108-13.4-13.657-16.543-2.7171-1.2473-5.5529-1.826-8.495-2.2356-1.3797-0.19209-2.7568-0.30488-4.1459-0.36581-0.38576-0.0166-0.77629-0.0277-1.1787-0.0406zm-4.2678 28.493c-0.54841 0.0532-1.0617 0.2346-1.5445 0.52838-0.86764 0.52838-1.3538 1.4511-1.6258 2.3982-0.54008 1.8807-0.29638 4.0456 0.0813 5.9343 0.12071 0.6041 0.23702 1.1955 0.40646 1.7884 0.06127 0.2139 0.10472 0.513 0.24387 0.691 0.24281 0.3111 0.81522 0.4269 1.1787 0.3657 1.0906-0.1827 0.80939-2.0004 0.77227-2.7637-0.08702-1.7889-0.59189-3.5051-0.0813-5.2841 0.21621-0.7528 0.62172-1.6241 1.382-1.9508 0.6863-0.29561 1.3947 0.0609 1.6665 0.73145 0.44003 1.0854 0.3337 2.3664 0.60969 3.4956 0.09378 0.384 0.19269 0.7395 0.36581 1.0973 0.05021 0.1035 0.09845 0.3384 0.24388 0.3252 0.35335-0.034 0.87318-0.6348 1.1381-0.8534 0.85575-0.7073 1.738-1.4684 2.7233-1.9918 0.46358-0.2461 1.2336-0.6219 1.7071-0.2031 0.12071 0.1065 0.19811 0.2307 0.28452 0.3657 0.55652 0.8718-0.0038 1.5286-0.36581 2.3574-0.46838 1.0731-0.94716 2.1304-1.6258 3.0892-0.58343 0.8244-1.3629 1.5787-1.8291 2.4794-0.30006 0.5799-0.48992 1.2153-0.36581 1.8698 0.10055 0.5291 0.517 0.8151 1.0568 0.691 0.40408-0.094 0.66385-0.4122 0.89421-0.7316 0.41059-0.5701 0.81134-1.1756 1.2194-1.748 0.78944-1.1069 1.7342-2.143 2.3981-3.3329 0.80021-1.4345 1.1796-3.0404 1.1787-4.6743-0.000508-1.3353-0.47691-3.3782-2.0323-3.6581-0.29268-0.0517-0.64413-0.0502-0.93486 0-0.36125 0.0624-0.72667 0.20614-1.0568 0.36604-0.88435 0.42751-1.6597 1.0618-2.3168 1.7883-0.40998 0.4527-0.77349 1.0102-1.26 1.382 0-0.9863-0.15867-2.0589-0.73162-2.8859-0.71796-1.0361-1.9685-1.6212-3.211-1.6665-0.18637 0-0.38623-0.0183-0.56904 0zm-7.1943 15.974c-0.14163-0.018-0.28692 0.018-0.4471 0.041-1.3343 0.191-1.7504 1.2322-1.5039 2.4387 0.31567 1.5442 1.5605 2.7304 2.7639 3.6581 3.0832 2.3764 7.0509 3.6656 10.934 3.4956 1.5151-0.067 3.1619-0.3326 4.5523-0.9756 0.74551-0.3446 1.5437-1.5823 0.5284-2.1136-0.13912-0.072-0.33272-0.096-0.48775-0.1217-0.44342-0.072-0.92112 0.1232-1.3413 0.2439-0.74098 0.2128-1.5134 0.4059-2.2762 0.5283-2.279 0.3659-4.7384-0.1533-6.6253-1.5037-1.5253-1.0921-2.7374-2.5278-3.902-3.9834-0.62377-0.7797-1.2034-1.6308-2.1949-1.707zm-1.6258 7.5194c-0.20174 0-0.40837 0.018-0.56904 0.041-0.33946 0.044-0.72542 0.029-1.0161 0.244-0.60638 0.4449 0.04669 1.3419 0.36581 1.7476 0.92514 1.1756 2.158 2.1476 3.3736 3.0079 3.3889 2.397 7.2116 3.7814 11.34 4.0646 1.187 0.081 2.4029-0.018 3.5768-0.2033 0.42926-0.072 0.98527-0.097 1.382-0.2846 1.1226-0.5249 0.7987-2.6174-0.20323-3.0891-0.43749-0.2055-1.1671 0.059-1.6258 0.1217-1.085 0.1522-2.1605 0.1491-3.2517 0.1218-2.8599-0.07-5.9218-0.927-8.4137-2.3168-0.97956-0.5469-1.8416-1.2109-2.6826-1.9512-0.51145-0.4502-1.0438-1.195-1.7071-1.4225-0.15442-0.053-0.36728-0.084-0.56904-0.081zm0.12186 6.4221c-0.48338 0.055-0.86079 0.2916-1.1787 0.6502-0.21903 0.2471-0.40258 0.4607-0.5284 0.7724-0.69366 1.7157 1.121 3.3356 2.3981 4.1458 1.4213 0.9017 3.011 1.5913 4.593 2.1542 3.568 1.2699 7.716 2.0702 11.421 0.9349 1.1014-0.3371 2.207-0.9551 3.0078-1.7885 0.45108-0.4694 0.74608-1.1625-0.0813-1.4631-0.49019-0.1773-1.0593 0.2679-1.5039 0.4471-1.0495 0.4231-2.1657 0.7578-3.2923 0.8941-1.4839 0.1792-2.7971-0.1698-4.2272-0.5283-1.2215-0.3054-2.4771-0.6165-3.6581-1.0568-1.0076-0.3758-2.0041-0.7987-2.8859-1.4226-0.26351-0.1864-0.55635-0.367-0.77227-0.6097-0.70583-0.7943-1.2348-1.7241-1.9916-2.4795-0.32699-0.3262-0.80022-0.7061-1.3007-0.6502z" fill="#fff"/>
  <path id="path26" d="m28.696 968.23c-0.40243-0.0137-0.83472-0.0106-1.2194 0.0406-1.2266 0.16119-2.4662 0.13479-3.6988 0.32515-2.3612 0.36466-4.6169 1.1069-6.8285 1.9917-0.8053 0.32201-1.6177 0.67913-2.3981 1.0567-0.29041 0.14027-0.70136 0.22157-0.93485 0.44703-0.12148 0.11638-0.10717 0.41194-0.12186 0.56907-0.04111 0.44224-0.11979 0.89941-0.16258 1.3414-0.16517 1.7056-0.2849 3.4573-0.04071 5.1619 0.07908 0.5508 0.25792 1.5202 0.93485 1.6258 1.041 0.16249 1.8466-1.0809 2.3575-1.7884 1.1932-1.6522 2.5548-3.204 4.5117-3.9425 2.3037-0.8695 4.9604-1.0929 7.3975-1.26 6.8377-0.46863 14.31 0.77606 19.347 5.8124 0.71633 0.71606 1.3744 1.4812 1.951 2.3167 2.2552 3.2655 3.4496 6.9929 4.0239 10.893 0.27004 1.8311 0.45832 3.6638 0.04071 5.4872-0.72482 3.1636-2.6124 5.9476-4.7962 8.2918-1.4947 1.6044-3.2082 3.0307-4.9588 4.349-0.97729 0.7358-2.0482 1.3906-2.9671 2.1948-1.0583 0.9266-1.9323 2.0563-2.6013 3.2924-1.8004 3.3285-2.318 7.3402-1.7884 11.056 0.10848 0.7616 0.2339 1.5249 0.40646 2.2762 0.05151 0.2247 0.05789 0.6292 0.20323 0.8128 0.27203 0.3436 1.0069 0.5082 1.4226 0.5284 0.43354 0.02 0.70667-0.3023 0.81292-0.691 0.18193-0.6662 0.10536-1.4027 0-2.0727-0.21591-1.3726-0.42701-2.753-0.36581-4.1461 0.11276-2.5722 1.103-4.9643 2.8859-6.8284 1.8132-1.8961 4.2802-3.0048 6.3407-4.5931 4.1529-3.2008 7.8386-7.5015 9.2672-12.641 0.51062-1.8379 0.68032-3.7983 0.4471-5.6903-0.29469-2.3933-1.1671-4.7777-1.9916-7.0317-2.5131-6.8699-6.8108-13.4-13.657-16.543-2.7171-1.2472-5.5529-1.8259-8.495-2.2356-1.3797-0.19209-2.7568-0.30489-4.1459-0.36582-0.38576-0.0166-0.77629-0.0277-1.1787-0.0406zm-4.2678 28.493c-0.54841 0.0533-1.0617 0.2346-1.5445 0.52823-0.86764 0.52853-1.3538 1.4512-1.6258 2.3983-0.54008 1.8805-0.29638 4.0455 0.0813 5.9343 0.12071 0.6039 0.23702 1.1953 0.40646 1.7883 0.06127 0.214 0.10472 0.5131 0.24387 0.6911 0.24281 0.3111 0.81522 0.4269 1.1787 0.3657 1.0906-0.1827 0.80939-2.0005 0.77227-2.7639-0.08702-1.7887-0.59189-3.505-0.0813-5.2839 0.21621-0.75294 0.62172-1.6241 1.382-1.951 0.6863-0.29545 1.3947 0.0608 1.6665 0.73163 0.44003 1.0854 0.3337 2.3661 0.60969 3.4955 0.09378 0.3839 0.19269 0.7396 0.36581 1.0974 0.05021 0.1035 0.09845 0.3381 0.24388 0.3251 0.35335-0.033 0.87318-0.6347 1.1381-0.8533 0.85575-0.7073 1.738-1.4686 2.7233-1.9918 0.46358-0.2462 1.2336-0.6221 1.7071-0.2031 0.12071 0.1065 0.19811 0.2306 0.28452 0.3657 0.55652 0.8718-0.0038 1.5286-0.36581 2.3574-0.46838 1.073-0.94716 2.1304-1.6258 3.0892-0.58343 0.8244-1.3629 1.5787-1.8291 2.4794-0.30006 0.5799-0.48992 1.2151-0.36581 1.8696 0.10055 0.5293 0.517 0.8153 1.0568 0.6912 0.40408-0.093 0.66385-0.4123 0.89421-0.7318 0.41059-0.5699 0.81134-1.1754 1.2194-1.7478 0.78944-1.107 1.7342-2.143 2.3981-3.3329 0.80021-1.4345 1.1796-3.0405 1.1787-4.6743-0.000508-1.3353-0.47691-3.3782-2.0323-3.6581-0.29268-0.0517-0.64413-0.0517-0.93486 0-0.36125 0.0624-0.72667 0.20599-1.0568 0.36574-0.88435 0.42781-1.6597 1.0621-2.3168 1.7885-0.40998 0.45277-0.77349 1.0102-1.26 1.3819 0-0.9862-0.15867-2.0587-0.73162-2.8858-0.71796-1.0361-1.9685-1.6215-3.211-1.6665-0.18637 0-0.38623-0.0182-0.56904 0zm-7.1943 15.974c-0.14163-0.018-0.28692 0.018-0.4471 0.041-1.3343 0.1909-1.7504 1.2319-1.5039 2.4386 0.31567 1.5442 1.5605 2.7305 2.7639 3.6582 3.0832 2.3764 7.0509 3.6656 10.934 3.4955 1.5151-0.067 3.1619-0.3326 4.5523-0.9755 0.74551-0.3446 1.5437-1.5824 0.5284-2.1136-0.13912-0.072-0.33272-0.096-0.48775-0.1218-0.44342-0.072-0.92112 0.1233-1.3413 0.2439-0.74098 0.2129-1.5134 0.4059-2.2762 0.5284-2.279 0.3659-4.7384-0.1534-6.6253-1.5037-1.5253-1.0922-2.7374-2.528-3.902-3.9835-0.62377-0.7797-1.2034-1.6309-2.1949-1.707zm-1.6258 7.5195c-0.20174 0-0.40837 0.02-0.56904 0.041-0.33946 0.044-0.72542 0.029-1.0161 0.2439-0.60638 0.445 0.04669 1.342 0.36581 1.7478 0.92514 1.1756 2.158 2.1476 3.3736 3.0078 3.3889 2.397 7.2116 3.7815 11.34 4.0646 1.187 0.081 2.4029-0.018 3.5768-0.2032 0.42926-0.072 0.98527-0.097 1.382-0.2847 1.1226-0.5249 0.7987-2.6175-0.20323-3.089-0.43749-0.2057-1.1671 0.059-1.6258 0.1217-1.085 0.1522-2.1605 0.1491-3.2517 0.1217-2.8599-0.07-5.9218-0.9268-8.4137-2.3167-0.97956-0.547-1.8416-1.2107-2.6826-1.9511-0.51145-0.4501-1.0438-1.1951-1.7071-1.4226-0.15442-0.053-0.36728-0.084-0.56904-0.081zm0.12186 6.422c-0.48338 0.055-0.86079 0.2915-1.1787 0.6503-0.21903 0.247-0.40258 0.4606-0.5284 0.7724-0.69366 1.7156 1.121 3.3356 2.3981 4.1457 1.4213 0.9015 3.011 1.5914 4.593 2.1543 3.568 1.2699 7.716 2.0702 11.421 0.9349 1.1014-0.3373 2.207-0.9551 3.0078-1.7885 0.45108-0.4695 0.74608-1.1625-0.0813-1.4632-0.49019-0.1772-1.0593 0.268-1.5039 0.4472-1.0495 0.4231-2.1657 0.7576-3.2923 0.8941-1.4839 0.1792-2.7971-0.1698-4.2272-0.5284-1.2215-0.3055-2.4771-0.6166-3.6581-1.0567-1.0076-0.3758-2.0041-0.7988-2.8859-1.4227-0.26351-0.1863-0.55635-0.3669-0.77227-0.6097-0.70583-0.7942-1.2348-1.7241-1.9916-2.4794-0.32699-0.3262-0.80022-0.7061-1.3007-0.6503z" fill="#fff"/>
  <path id="path4219" opacity=".1" d="m28.696 966.93c-0.40243-0.0137-0.83472-0.0106-1.2194 0.0408-1.2266 0.16119-2.4662 0.1348-3.6988 0.32517-2.3612 0.36463-4.6169 1.1068-6.8285 1.9916-0.8053 0.32216-1.6177 0.67922-2.3981 1.0568-0.29041 0.14027-0.70136 0.22158-0.93485 0.44703-0.12148 0.11639-0.10717 0.41175-0.12186 0.56907-0.04111 0.44222-0.11979 0.89941-0.16258 1.3414-0.12382 1.2792-0.22421 2.5693-0.16258 3.8613 0.02133-0.85085 0.0813-1.7213 0.16258-2.5607 0.0428-0.44204 0.12148-0.89921 0.16258-1.3414 0.01476-0.15696 0.000403-0.45147 0.12186-0.56909 0.2335-0.22545 0.64444-0.30651 0.93485-0.44703 0.78038-0.37759 1.5928-0.73469 2.3981-1.0567 2.2116-0.88485 4.4673-1.6271 6.8285-1.9917 1.2326-0.1904 2.4721-0.16398 3.6988-0.32517 0.38466-0.0507 0.81695-0.0535 1.2194-0.0406 0.40244 0.0122 0.79296 0.0237 1.1787 0.0406 1.389 0.0609 2.7662 0.17374 4.1459 0.36582 2.9421 0.40968 5.7779 0.98835 8.495 2.2356 6.8462 3.1428 11.144 9.6728 13.657 16.543 0.82457 2.2539 1.697 4.6385 1.9916 7.0317 0.03994 0.3242 0.02405 0.64841 0.04071 0.97566 0.03174-0.76663 0.05269-1.5192-0.04071-2.2763-0.29469-2.3933-1.1671-4.7779-1.9916-7.0317-2.5131-6.87-6.8108-13.4-13.657-16.543-2.7171-1.2472-5.5529-1.8258-8.495-2.2355-1.3797-0.19207-2.7568-0.30488-4.1459-0.3658-0.38576-0.0166-0.77629-0.0277-1.1787-0.0408zm25.363 28.33c-0.02705 0.58147-0.07036 1.1675-0.20323 1.7476-0.72482 3.1636-2.6124 5.9476-4.7962 8.2917-1.4947 1.6046-3.2082 3.0309-4.9588 4.3492-0.9773 0.7359-2.0482 1.3905-2.9671 2.1949-1.0583 0.9265-1.9323 2.0561-2.6013 3.2924-1.4854 2.7461-2.0797 5.9378-1.951 9.0638 0.06828-2.704 0.67153-5.3979 1.951-7.7632 0.66901-1.2362 1.543-2.3659 2.6013-3.2924 0.91893-0.8043 1.9898-1.459 2.9671-2.1949 1.7506-1.3183 3.4641-2.7446 4.9588-4.3492 2.1838-2.3441 4.0714-5.1281 4.7962-8.2915 0.23348-1.0195 0.2569-2.0254 0.20323-3.0484zm-29.631 0.16248c-0.54841 0.0533-1.0617 0.23445-1.5445 0.52823-0.86764 0.52837-1.3538 1.4509-1.6258 2.398-0.25178 0.87693-0.30759 1.8204-0.28452 2.7641 0.04721-0.4972 0.14951-0.993 0.28452-1.4634 0.27203-0.94706 0.7582-1.8696 1.6258-2.3982 0.48279-0.29378 0.99613-0.47528 1.5445-0.52823 0.1828-0.0182 0.38267 0 0.56904 0 1.2425 0.0456 2.4931 0.63031 3.211 1.6664 0.57296 0.82703 0.73162 1.8998 0.73162 2.886 0.48653-0.3717 0.85004-0.9292 1.26-1.3819 0.65711-0.72646 1.4325-1.3607 2.3168-1.7885 0.33012-0.16065 0.69554-0.30275 1.0568-0.36574 0.29072-0.0517 0.64218-0.0517 0.93485 0 1.3395 0.24114 1.8674 1.7703 1.9916 3.0484 0.01521-0.2299 0.04085-0.4595 0.04071-0.691-0.000508-1.3352-0.47691-3.3781-2.0323-3.658-0.29268-0.0517-0.64413-0.0517-0.93485 0-0.36125 0.0624-0.72667 0.206-1.0568 0.36574-0.88435 0.42782-1.6597 1.0621-2.3168 1.7885-0.40998 0.45261-0.77349 1.0102-1.26 1.3819 0-0.98631-0.15867-2.0589-0.73162-2.8859-0.71795-1.0358-1.9685-1.6212-3.211-1.6662-0.18637 0-0.38623-0.0182-0.56904 0zm9.5924 6.0966c-0.12357 0.294-0.26532 0.6116-0.40646 0.9349-0.46838 1.0729-0.94716 2.1303-1.6258 3.089-0.58343 0.8245-1.3629 1.5788-1.8291 2.4796-0.30006 0.5799-0.48992 1.2151-0.36581 1.8696 0.01415 0.076 0.05489 0.1385 0.0813 0.2031 0.07205-0.2673 0.15527-0.5223 0.28452-0.7721 0.46616-0.9008 1.2456-1.6549 1.8291-2.4794 0.67867-0.9588 1.1574-2.0163 1.6258-3.0892 0.34596-0.7926 0.84756-1.4191 0.40646-2.2355zm-10.365 0.2033c-0.06933 1.3169 0.21928 2.6011 0.28452 3.9425 0.0052 0.096 0.03148 0.2424 0.04071 0.3659 0.07908-0.592-0.02119-1.2664-0.04071-1.6665-0.04345-0.8941-0.21124-1.7668-0.28452-2.6419zm-6.422 9.6735c-0.14163-0.018-0.28692 0.018-0.4471 0.041-1.3343 0.191-1.7504 1.2322-1.5039 2.4386 0.18705-0.5974 0.68662-1.021 1.5039-1.1379 0.16018-0.024 0.30548-0.052 0.4471-0.041 0.99149 0.078 1.5711 0.9276 2.1949 1.7073 1.1646 1.4555 2.3767 2.8912 3.902 3.9833 1.8869 1.3502 4.3462 1.8697 6.6253 1.5037 0.7628-0.1217 1.5352-0.3157 2.2762-0.5282 0.42019-0.1217 0.89789-0.3165 1.3413-0.2439 0.15503 0.026 0.34863 0.05 0.48775 0.1217 0.08806 0.046 0.14122 0.1065 0.20323 0.1625 0.3521-0.501 0.45073-1.1211-0.20323-1.4633-0.13912-0.072-0.33272-0.096-0.48775-0.1217-0.44342-0.071-0.92112 0.1232-1.3413 0.2437-0.74098 0.2127-1.5134 0.4061-2.2762 0.5284-2.279 0.366-4.7384-0.1532-6.6253-1.5039-1.5253-1.092-2.7374-2.5276-3.902-3.9831-0.62377-0.7799-1.2034-1.6308-2.1949-1.7073zm-1.6258 7.5198c-0.20174 0-0.40837 0.018-0.56904 0.041-0.33946 0.044-0.72542 0.029-1.0161 0.2438-0.42952 0.3153-0.22736 0.8669 0.04071 1.3007 0.28702-0.192 0.64735-0.2007 0.9755-0.2439 0.16068-0.02 0.36729-0.038 0.56904-0.041 0.20176 0 0.41461 0.027 0.56904 0.081 0.66331 0.2275 1.1957 0.9725 1.7071 1.4227 0.84104 0.7403 1.7031 1.4041 2.6826 1.9512 2.4918 1.3897 5.5538 2.2467 8.4137 2.3167 1.0912 0.026 2.1667 0.029 3.2517-0.1217 0.45876-0.062 1.1883-0.3275 1.6258-0.1217 0.36629 0.1718 0.66542 0.5663 0.81292 1.0163 0.25858-0.8293-0.09612-1.9796-0.81292-2.3169-0.43749-0.2057-1.1671 0.059-1.6258 0.1217-1.085 0.1521-2.1605 0.1491-3.2517 0.1217-2.8599-0.07-5.9218-0.9267-8.4137-2.3168-0.97956-0.5469-1.8416-1.2107-2.6826-1.951-0.51145-0.45-1.0438-1.1952-1.7071-1.4226-0.15444-0.053-0.36728-0.084-0.56904-0.081zm23.615 5.2837c-0.06127 1.3932 0.1499 2.7737 0.36581 4.1461 0.02226 0.14 0.02316 0.3009 0.04071 0.447 0.09157-0.5797 0.04864-1.1803-0.04071-1.7478-0.14906-0.9475-0.30935-1.8886-0.36581-2.8453zm-23.493 1.1382c-0.48338 0.055-0.86079 0.2916-1.1787 0.6504-0.21903 0.2471-0.40258 0.4605-0.52839 0.7724-0.19596 0.4845-0.17637 0.9691-0.04071 1.4225 0.01384-0.041 0.02405-0.081 0.04071-0.1217 0.12579-0.3119 0.30936-0.5254 0.52839-0.7724 0.31794-0.3588 0.69535-0.5963 1.1787-0.6504 0.50044-0.055 0.97368 0.324 1.3007 0.6504 0.75686 0.7553 1.2858 1.6852 1.9916 2.4794 0.21592 0.2428 0.50875 0.4232 0.77227 0.6097 0.88179 0.6239 1.8782 1.0469 2.8859 1.4227 1.1811 0.4401 2.4366 0.7511 3.6581 1.0567 1.4301 0.3579 2.7432 0.7082 4.2272 0.5282 1.1266-0.1369 2.2428-0.4708 3.2923-0.8941 0.4446-0.179 1.0137-0.625 1.5039-0.447 0.06893 0.024 0.10873 0.05 0.16258 0.081 0.40187-0.4642 0.61389-1.1-0.16258-1.3819-0.49019-0.1772-1.0593 0.2679-1.5039 0.447-1.0495 0.4232-2.1657 0.7579-3.2923 0.8943-1.4839 0.179-2.7971-0.1698-4.2272-0.5283-1.2215-0.3056-2.4771-0.6166-3.6581-1.0569-1.0076-0.3757-2.0041-0.7988-2.8859-1.4228-0.26351-0.1862-0.55634-0.3668-0.77227-0.6094-0.70583-0.7942-1.2348-1.7242-1.9916-2.4796-0.32699-0.3263-0.80022-0.7061-1.3007-0.6504z"/>
 </g>
</svg>
