<?xml version="1.0" encoding="UTF-8" standalone="no"?>
<!-- Created with Inkscape (http://www.inkscape.org/) -->
<svg id="svg2" xmlns:rdf="http://www.w3.org/1999/02/22-rdf-syntax-ns#" xmlns="http://www.w3.org/2000/svg" height="96" width="96" version="1.1" xmlns:cc="http://creativecommons.org/ns#" xmlns:xlink="http://www.w3.org/1999/xlink" xmlns:dc="http://purl.org/dc/elements/1.1/">
 <defs id="defs4">
  <linearGradient id="linearGradient3613-7" y2="138.66" gradientUnits="userSpaceOnUse" x2="48" y1="20.221" x1="48">
   <stop id="stop3739-40" stop-color="#fff" offset="0"/>
   <stop id="stop3741-8" stop-color="#fff" stop-opacity="0" offset="1"/>
  </linearGradient>
  <clipPath id="clipPath3613-22">
   <rect id="rect3615-13" rx="6" ry="6" height="84" width="84" y="6" x="6" fill="#fff"/>
  </clipPath>
  <filter id="filter3794-3" height="1.384" width="1.384" color-interpolation-filters="sRGB" y="-.192" x="-.192">
   <feGaussianBlur id="feGaussianBlur3796-52" stdDeviation="5.28"/>
  </filter>
  <linearGradient id="linearGradient3700-0">
   <stop id="stop3702-2" stop-color="#70a83e" offset="0"/>
   <stop id="stop3704-9" stop-color="#9fd058" offset="1"/>
  </linearGradient>
  <linearGradient id="linearGradient4982" y2="5.9877" xlink:href="#linearGradient3700-0" gradientUnits="userSpaceOnUse" x2="48" gradientTransform="translate(101.91 941.34)" y1="90" x1="48"/>
  <linearGradient id="linearGradient3701">
   <stop id="stop3703" stop-color="#fff" offset="0"/>
   <stop id="stop3705" stop-color="#fff" stop-opacity="0" offset="1"/>
  </linearGradient>
  <linearGradient id="linearGradient8846" y2="30.688" xlink:href="#linearGradient3701" gradientUnits="userSpaceOnUse" x2="76.014" gradientTransform="matrix(1.5483 0 0 1.5483 -26.587 923.63)" y1="41.125" x1="49.125"/>
  <linearGradient id="linearGradient8849" y2="80.767" xlink:href="#linearGradient3701" gradientUnits="userSpaceOnUse" x2="47.342" gradientTransform="matrix(1.5483 0 0 1.5483 -26.587 923.63)" y1="39.073" x1="47.342"/>
  <linearGradient id="linearGradient8852" y2="47.639" xlink:href="#linearGradient3701" gradientUnits="userSpaceOnUse" x2="133.59" gradientTransform="matrix(1.5483 0 0 1.5483 -150.45 923.63)" y1="30.34" x1="137.63"/>
  <linearGradient id="linearGradient8855" y2="54.954" xlink:href="#linearGradient3701" gradientUnits="userSpaceOnUse" x2="113.77" gradientTransform="matrix(1.5483 0 0 1.5483 -150.45 923.63)" y1="38.074" x1="113.77"/>
  <linearGradient id="linearGradient8862" y2="52.121" gradientUnits="userSpaceOnUse" x2="41.723" gradientTransform="matrix(1.5483 0 0 1.5483 -26.587 923.04)" y1="34.444" x1="34.784">
   <stop id="stop3746-2" offset="0"/>
   <stop id="stop3748-5" stop-opacity="0" offset="1"/>
  </linearGradient>
  <linearGradient id="linearGradient8864" y2="52.121" gradientUnits="userSpaceOnUse" x2="41.723" gradientTransform="matrix(1.5483 0 0 1.5483 -26.587 923.04)" y1="32.676" x1="39.072">
   <stop id="stop3740-8" stop-opacity="0" offset="0"/>
   <stop id="stop3742" stop-opacity="0" offset="1"/>
  </linearGradient>
  <linearGradient id="linearGradient8867" y2="69.789" gradientUnits="userSpaceOnUse" x2="40.068" gradientTransform="matrix(1.5483 0 0 1.5483 -26.587 923.63)" y1="37.445" x1="40.068">
   <stop id="stop3675" stop-color="#f70000" offset="0"/>
   <stop id="stop3677" stop-color="#ff6e2a" stop-opacity=".83871" offset="1"/>
  </linearGradient>
  <linearGradient id="linearGradient8870" y2="66.137" gradientUnits="userSpaceOnUse" x2="59.031" gradientTransform="matrix(1.5483 0 0 1.5483 -26.587 923.63)" y1="37.727" x1="59.031">
   <stop id="stop3683" stop-color="#28c809" offset="0"/>
   <stop id="stop3685" stop-color="#88f342" stop-opacity=".75806" offset="1"/>
  </linearGradient>
  <linearGradient id="linearGradient8873" y2="74.737" gradientUnits="userSpaceOnUse" x2="61.96" gradientTransform="matrix(1.5483 0 0 1.5483 -26.587 923.63)" y1="58.322" x1="36.281">
   <stop id="stop3693" offset="0"/>
   <stop id="stop3695" stop-opacity="0" offset="1"/>
  </linearGradient>
  <linearGradient id="linearGradient8876" y2="48.084" gradientUnits="userSpaceOnUse" x2="96.83" gradientTransform="matrix(1.4887 .42534 -1.4887 .42534 -26.587 923.63)" y1="15.626" x1="64.372">
   <stop id="stop3665" stop-color="#6ecbf8" offset="0"/>
   <stop id="stop3667" stop-color="#0077b9" offset="1"/>
  </linearGradient>
  <linearGradient id="linearGradient8883" y2="47.969" gradientUnits="userSpaceOnUse" x2="59.447" gradientTransform="matrix(1.0324 0 0 1.0568 -1.844 946.65)" y1="90.524" x1="47.774">
   <stop id="stop3817" offset="0"/>
   <stop id="stop3819" stop-opacity="0" offset="1"/>
  </linearGradient>
  <linearGradient id="linearGradient9683" y2="-5.1163" gradientUnits="userSpaceOnUse" x2="47.995" y1="84.385" x1="47.995">
   <stop id="stop9679" stop-color="#666" offset="0"/>
   <stop id="stop9681" stop-color="#666" stop-opacity="0" offset="1"/>
  </linearGradient>
 </defs>
 <metadata id="metadata7">
  <rdf:RDF>
   <cc:Work rdf:about="">
    <dc:format>image/svg+xml</dc:format>
    <dc:type rdf:resource="http://purl.org/dc/dcmitype/StillImage"/>
    <dc:title/>
   </cc:Work>
  </rdf:RDF>
 </metadata>
 <g id="layer1" transform="translate(0 -956.36)">
  <rect id="rect5263-0" fill-opacity=".019608" ry="12.724" height="89.978" width="89.978" y="959.35" x="2.9998"/>
  <rect id="rect5261-6" fill-opacity=".039216" ry="12.552" height="88.762" width="88.762" y="959.96" x="3.6078"/>
  <rect id="rect5259-9" fill-opacity=".078431" ry="12.38" height="87.546" width="87.546" y="960.57" x="4.2157"/>
  <rect id="rect5257-5" fill-opacity=".15686" ry="12.208" height="86.33" width="86.33" y="961.18" x="4.8237"/>
  <path id="rect2419-3" d="m17.469 5.4062c-6.668 0-12.032 5.3948-12.032 12.063l0.0005 61.031c0 6.668 5.3635 12.031 12.032 12.031h61.03c6.454 0 11.671-5.036 12-11.406v-62.281c-0.321-6.377-5.54-11.438-12-11.438l-61.031 0.0002z" transform="translate(0 956.36)" fill="url(#linearGradient9683)"/>
  <path id="rect5265-0" d="m5.4316 1029.8v5.0663c0 6.668 5.3645 12.032 12.032 12.032h61.049c6.668 0 12.032-5.3645 12.032-12.032v-5.0663c0 6.6681-5.3645 12.032-12.032 12.032h-61.049c-6.668 0-12.032-5.3643-12.032-12.032z" fill-opacity=".23529"/>
  <path id="path5252-0" d="m5.4316 1033.9v1.0133c0 6.668 5.3645 12.032 12.032 12.032h61.049c6.668 0 12.032-5.3645 12.032-12.032v-1.0133c0 6.6681-5.3645 12.032-12.032 12.032h-61.049c-6.668 0-12.032-5.3644-12.032-12.032z" fill-opacity=".098039"/>
  <g id="layer5" transform="translate(-95.023 954.86)">
   <rect id="rect3171" height="66" stroke="#fff" stroke-linecap="round" stroke-width=".5" fill="url(#linearGradient3613-7)" rx="12" ry="12" width="66" opacity=".1" clip-path="url(#clipPath3613-22)" filter="url(#filter3794-3)" y="15" x="15"/>
  </g>
  <rect id="rect3873" rx="6" ry="6" height="84" width="84" display="none" y="947.34" x="107.91" fill="url(#linearGradient4982)"/>
  <rect id="rect3880" rx="6" ry="6" height="84" width="84" display="none" y="947.34" x="107.91" fill="url(#linearGradient4982)"/>
  <path id="path3813" d="m49.589 1024.1 38.898-19.6-32.469-19.83-30.21 28.53 23.781 10.9z" fill="url(#linearGradient8883)"/>
  <path id="path3717" opacity=".8" d="m46.569 967.8-32.127 8.4187v0.87091l0.77414-0.0968 30.965-8.1284 33.675 5.2254 1.3547 0.19354v-0.8709l-34.643-5.6125z" fill="#045"/>
  <path id="rect3659" opacity=".8" d="m46.181 968.87 33.671 5.2313-29.988 11.588-34.649-8.6874 30.965-8.1324z" fill="url(#linearGradient8876)"/>
  <path id="rect3661" d="m46.377 1005.4 30.983 9.6334-27.544 18.187-31.765-14.081 28.326-13.739z" fill="url(#linearGradient8873)"/>
  <path id="path3679" opacity=".8" d="m49.853 985.65v50.44l29.911-20.136v-41.838l-29.911 11.534z" fill="url(#linearGradient8870)"/>
  <path id="path3681" opacity=".8" d="m49.853 985.65v50.44l-34.351-15.375-0.15501-43.715 34.506 8.6508z" fill="url(#linearGradient8867)"/>
  <path id="path3727" opacity=".2" d="m19.439 978.03 26.979-7.429-0.391 32.454-26.588 14.076v-39.101z" stroke="url(#linearGradient8864)" stroke-width="1.5483" fill="url(#linearGradient8862)"/>
  <path id="path3699" opacity=".6" d="m17.387 980.47 29.032 7.7222-22.385 33.627-6.7447-3.0302 0.09769-38.319h0.000063z" fill="url(#linearGradient8855)"/>
  <path id="path3709" opacity=".4" d="m48.178 970.6v33.431l28.934 8.7976v-37.928l-28.934-4.301z" fill="url(#linearGradient8852)"/>
  <path id="path2889" opacity=".7" style="block-progression:tb;text-indent:0;color:#000000;text-transform:none" d="m18.506 976.12-3.2901 0.87091 0.14515 0.0484v1.4999l32.852 8.8058v47.997l1.645 0.7256 1.4515-0.9676v-48.965-1.2096l-1.1128-0.29029-31.691-8.5155z" fill="url(#linearGradient8849)"/>
  <path id="path2891" opacity=".7" style="block-progression:tb;text-indent:0;color:#000000;text-transform:none" d="m76.711 973.61-27.24 10.79 1.1612 2.903 29.127-11.612v-1.5483l0.09677-0.0484-3.1449-0.48384z" fill="url(#linearGradient8846)"/>
  <path id="path3704" d="m14.442 976.99 0.14515 44.901 35.272 15.773v-1.5966l-34.352-15.338-0.14515-43.766-0.91929 0.0269z" fill="#800000"/>
  <path id="path3710" opacity=".8" d="m81.308 974.28-1.5483-0.22583v41.883l-29.901 20.128v1.7902l31.449-20.708v-42.867z" fill="#250"/>
 </g>
</svg>
