<?xml version="1.0" encoding="UTF-8" standalone="no"?>
<!-- Created with Inkscape (http://www.inkscape.org/) -->
<svg id="svg2" xmlns:rdf="http://www.w3.org/1999/02/22-rdf-syntax-ns#" xmlns="http://www.w3.org/2000/svg" height="96" width="96" version="1.1" xmlns:cc="http://creativecommons.org/ns#" xmlns:xlink="http://www.w3.org/1999/xlink" xmlns:dc="http://purl.org/dc/elements/1.1/">
 <defs id="defs4">
  <linearGradient id="linearGradient3613-7" y2="138.66" gradientUnits="userSpaceOnUse" x2="48" y1="20.221" x1="48">
   <stop id="stop3739-40" stop-color="#fff" offset="0"/>
   <stop id="stop3741-8" stop-color="#fff" stop-opacity="0" offset="1"/>
  </linearGradient>
  <clipPath id="clipPath3613-22">
   <rect id="rect3615-13" rx="6" ry="6" height="84" width="84" y="6" x="6" fill="#fff"/>
  </clipPath>
  <filter id="filter3794-3" height="1.384" width="1.384" color-interpolation-filters="sRGB" y="-.192" x="-.192">
   <feGaussianBlur id="feGaussianBlur3796-52" stdDeviation="5.28"/>
  </filter>
  <linearGradient id="linearGradient3700-0">
   <stop id="stop3702-2" stop-color="#70a83e" offset="0"/>
   <stop id="stop3704-9" stop-color="#9fd058" offset="1"/>
  </linearGradient>
  <linearGradient id="linearGradient4982" y2="5.9877" xlink:href="#linearGradient3700-0" gradientUnits="userSpaceOnUse" x2="48" gradientTransform="translate(101.91 941.34)" y1="90" x1="48"/>
  <linearGradient id="linearGradient4325-2" y2="5.9877" xlink:href="#linearGradient14659" gradientUnits="userSpaceOnUse" x2="48" gradientTransform="matrix(1.1429 0 0 -1.1429 -6.0758 103.7)" y1="120" x1="48"/>
  <linearGradient id="linearGradient14659" y2="161.94" gradientUnits="userSpaceOnUse" x2="149.61" gradientTransform="matrix(1 .0046 -.0046 1 1.194 -1.0432)" y1="202.22" x1="164.95">
   <stop id="stop14671" stop-color="#fcc644" offset=".182"/>
   <stop id="stop14683" stop-color="#ff8b00" offset="1"/>
  </linearGradient>
  <linearGradient id="linearGradient20987" y2="222.77" gradientUnits="userSpaceOnUse" x2="91.008" gradientTransform="matrix(.72764 .0033471 -.0033471 .72764 -149.67 868.96)" y1="213.89" x1="82.442">
   <stop id="stop3125" stop-color="#fff" offset="0"/>
   <stop id="stop3127" stop-color="#ecf5fe" offset=".1178"/>
   <stop id="stop3129" stop-color="#badafa" offset=".35750"/>
   <stop id="stop3131" stop-color="#6ab0f4" offset=".69390"/>
   <stop id="stop3133" stop-color="#1c86ee" offset="1"/>
  </linearGradient>
  <linearGradient id="linearGradient20989" y2="160.4" gradientUnits="userSpaceOnUse" x2="122.26" gradientTransform="matrix(.72764 .0033471 -.0033471 .72764 -149.67 868.96)" y1="131.51" x1="115.28">
   <stop id="stop3138" stop-color="#fff7ff" offset=".0056"/>
   <stop id="stop3140" stop-color="#cedffb" offset=".1382"/>
   <stop id="stop3142" stop-color="#98c4f7" offset=".30230"/>
   <stop id="stop3144" stop-color="#6caef4" offset=".46290"/>
   <stop id="stop3146-4" stop-color="#499cf1" offset=".61630"/>
   <stop id="stop3148-7" stop-color="#3090f0" offset=".76070"/>
   <stop id="stop3150" stop-color="#2189ee" offset=".89240"/>
   <stop id="stop3152" stop-color="#1c86ee" offset="1"/>
  </linearGradient>
  <linearGradient id="linearGradient20991" y2="222.59" gradientUnits="userSpaceOnUse" x2="91.114" gradientTransform="matrix(.72764 .0033471 -.0033471 .72764 -149.67 868.96)" y1="213.67" x1="82.511">
   <stop id="stop3157" stop-color="#fff" offset="0"/>
   <stop id="stop3159" stop-color="#ecf5fe" offset=".1178"/>
   <stop id="stop3161-3" stop-color="#badafa" offset=".35750"/>
   <stop id="stop3163-8" stop-color="#6ab0f4" offset=".69390"/>
   <stop id="stop3165-6" stop-color="#1c86ee" offset="1"/>
  </linearGradient>
  <linearGradient id="linearGradient20993" y2="232.34" gradientUnits="userSpaceOnUse" x2="100.52" gradientTransform="matrix(.72764 .0033471 -.0033471 .72764 -149.67 868.96)" y1="229.57" x1="97.844">
   <stop id="stop3170-0" stop-color="#fff" offset="0"/>
   <stop id="stop3172-0" stop-color="#ecf5fe" offset=".1178"/>
   <stop id="stop3174-0" stop-color="#badafa" offset=".35750"/>
   <stop id="stop3176-1" stop-color="#6ab0f4" offset=".69390"/>
   <stop id="stop3178-7" stop-color="#1c86ee" offset="1"/>
  </linearGradient>
  <linearGradient id="linearGradient20995" y2="190" gradientUnits="userSpaceOnUse" x2="90.039" gradientTransform="matrix(.72764 .0033471 -.0033471 .72764 -149.67 868.96)" y1="180.47" x1="86.227">
   <stop id="stop3183-9" stop-color="#fff" offset="0"/>
   <stop id="stop3185-37" stop-color="#ecf5fe" offset=".1178"/>
   <stop id="stop3187" stop-color="#badafa" offset=".35750"/>
   <stop id="stop3189-9" stop-color="#6ab0f4" offset=".69390"/>
   <stop id="stop3191-2" stop-color="#1c86ee" offset="1"/>
  </linearGradient>
  <linearGradient id="linearGradient20997" y2="198.56" gradientUnits="userSpaceOnUse" x2="127.96" gradientTransform="matrix(.72764 .0033471 -.0033471 .72764 -149.67 868.96)" y1="216.01" x1="127.33">
   <stop id="stop3196-5" stop-color="#fff" offset="0"/>
   <stop id="stop3198-4" stop-color="#ecf5fe" offset=".1178"/>
   <stop id="stop3200" stop-color="#badafa" offset=".35750"/>
   <stop id="stop3202" stop-color="#6ab0f4" offset=".69390"/>
   <stop id="stop3204-0" stop-color="#1c86ee" offset="1"/>
  </linearGradient>
  <radialGradient id="radialGradient20999" gradientUnits="userSpaceOnUse" cy="161.26" cx="155.75" gradientTransform="matrix(1.0169 .0102 .0047 1.0111 -2.8353 -3.7854)" r="52.717">
   <stop id="stop3213-6" stop-color="#1c86ee" offset=".118"/>
   <stop id="stop3215" stop-color="#80d1ff" offset=".5169"/>
   <stop id="stop3217" stop-color="#5bb5f9" offset=".60360"/>
   <stop id="stop3219" stop-color="#2e93f1" offset=".72150"/>
   <stop id="stop3221-9" stop-color="#1c86ee" offset=".7809"/>
  </radialGradient>
  <linearGradient id="linearGradient21001" y2="75.129" gradientUnits="userSpaceOnUse" x2="129.74" gradientTransform="matrix(1.0119 .0089 .0036 1.008 -1.7908 -3.1402)" y1="186.31" x1="153.16">
   <stop id="stop3226" stop-color="#1c86ee" offset="0"/>
   <stop id="stop3228" stop-color="#1c86ee" offset=".118"/>
   <stop id="stop3230-1" stop-color="#7dcffe" offset=".5169"/>
   <stop id="stop3232-0" stop-color="#5bb5f8" offset=".59890"/>
   <stop id="stop3234-8" stop-color="#2d93f1" offset=".71990"/>
   <stop id="stop3236-3" stop-color="#1c86ee" offset=".7809"/>
   <stop id="stop3238" stop-color="#1c86ee" offset="1"/>
  </linearGradient>
  <linearGradient id="linearGradient21003" y2="76.239" gradientUnits="userSpaceOnUse" x2="136.47" gradientTransform="matrix(1.007 .0076 .0025 1.0049 -.7472 -2.493)" y1="187.27" x1="151.55">
   <stop id="stop3243-7" stop-color="#1d86ee" offset="0"/>
   <stop id="stop3245" stop-color="#1d86ee" offset=".118"/>
   <stop id="stop3247" stop-color="#7accfe" offset=".5169"/>
   <stop id="stop3249" stop-color="#5bb5f9" offset="0.594"/>
   <stop id="stop3251" stop-color="#2d93f1" offset=".71820"/>
   <stop id="stop3253" stop-color="#1c86ee" offset=".7809"/>
   <stop id="stop3255" stop-color="#1c86ee" offset="1"/>
  </linearGradient>
  <linearGradient id="linearGradient21005" y2="78.149" gradientUnits="userSpaceOnUse" x2="142.96" gradientTransform="matrix(1.002 .0063 .0014 1.0019 .2973 -1.8467)" y1="188.08" x1="149.83">
   <stop id="stop3260" stop-color="#1d87ee" offset="0"/>
   <stop id="stop3262-3" stop-color="#1d87ee" offset=".118"/>
   <stop id="stop3264-8" stop-color="#77cafd" offset=".5169"/>
   <stop id="stop3266-8" stop-color="#5bb5f8" offset=".5887"/>
   <stop id="stop3268-2" stop-color="#2d93f1" offset=".71650"/>
   <stop id="stop3270" stop-color="#1c86ee" offset=".7809"/>
   <stop id="stop3272" stop-color="#1c86ee" offset="1"/>
  </linearGradient>
  <linearGradient id="linearGradient21007" y2="80.827" gradientUnits="userSpaceOnUse" x2="149.1" gradientTransform="matrix(.9971 .0051 .00027418 .9988 1.3409 -1.201)" y1="188.72" x1="148.01">
   <stop id="stop3277-5" stop-color="#1e87ee" offset="0"/>
   <stop id="stop3279" stop-color="#1d87ee" offset=".118"/>
   <stop id="stop3281" stop-color="#74c8fd" offset=".5169"/>
   <stop id="stop3283" stop-color="#5bb5f9" offset=".58310"/>
   <stop id="stop3285-9" stop-color="#2d93f1" offset=".71460"/>
   <stop id="stop3287-6" stop-color="#1c86ee" offset=".7809"/>
   <stop id="stop3289-5" stop-color="#1c86ee" offset="1"/>
  </linearGradient>
  <linearGradient id="linearGradient21009" y2="84.218" gradientUnits="userSpaceOnUse" x2="154.8" gradientTransform="matrix(.9921 .0038 -.00083227 .9957 2.385 -.5547)" y1="189.17" x1="146.1">
   <stop id="stop3294-2" stop-color="#1e87ee" offset="0"/>
   <stop id="stop3296-7" stop-color="#1e87ee" offset=".118"/>
   <stop id="stop3298-1" stop-color="#71c5fc" offset=".5169"/>
   <stop id="stop3300-2" stop-color="#5bb5f8" offset=".5772"/>
   <stop id="stop3302" stop-color="#2d93f1" offset=".71260"/>
   <stop id="stop3304" stop-color="#1c86ee" offset=".7809"/>
   <stop id="stop3306" stop-color="#1c86ee" offset="1"/>
  </linearGradient>
  <linearGradient id="linearGradient21011" y2="88.244" gradientUnits="userSpaceOnUse" x2="159.97" gradientTransform="matrix(.9872 .0025 -.0019 .9926 3.4291 .0906)" y1="189.43" x1="144.13">
   <stop id="stop3311-9" stop-color="#1e87ee" offset="0"/>
   <stop id="stop3313-4" stop-color="#1e87ee" offset=".118"/>
   <stop id="stop3315" stop-color="#6ec3fc" offset=".5169"/>
   <stop id="stop3317" stop-color="#5cb5f9" offset=".5686"/>
   <stop id="stop3319-5" stop-color="#2e93f1" offset=".7098"/>
   <stop id="stop3321-9" stop-color="#1d86ee" offset=".7809"/>
   <stop id="stop3323-3" stop-color="#1c86ee" offset="1"/>
  </linearGradient>
  <linearGradient id="linearGradient21013" y2="92.828" gradientUnits="userSpaceOnUse" x2="164.54" gradientTransform="matrix(.9822 .0012 -.003 .9896 4.4727 .7373)" y1="189.48" x1="142.13">
   <stop id="stop3328-8" stop-color="#1f88ee" offset="0"/>
   <stop id="stop3330" stop-color="#1e87ee" offset=".118"/>
   <stop id="stop3332" stop-color="#6bc1fb" offset=".5169"/>
   <stop id="stop3334" stop-color="#5cb5f8" offset=".56160"/>
   <stop id="stop3336" stop-color="#2e93f1" offset=".70740"/>
   <stop id="stop3338" stop-color="#1d86ee" offset=".7809"/>
   <stop id="stop3340" stop-color="#1c86ee" offset="1"/>
  </linearGradient>
  <linearGradient id="linearGradient21015" y2="97.86" gradientUnits="userSpaceOnUse" x2="168.44" gradientTransform="matrix(.9772 -.000070982 -.0042 .9865 5.5168 1.3831)" y1="189.32" x1="140.12">
   <stop id="stop3345-6" stop-color="#1f88ee" offset="0"/>
   <stop id="stop3347-5" stop-color="#1f88ee" offset=".118"/>
   <stop id="stop3349" stop-color="#68befb" offset=".5169"/>
   <stop id="stop3351" stop-color="#5cb5f9" offset=".55410"/>
   <stop id="stop3353-1" stop-color="#2e94f1" offset=".70490"/>
   <stop id="stop3355-1" stop-color="#1d87ee" offset=".7809"/>
   <stop id="stop3357-9" stop-color="#1c86ee" offset="1"/>
  </linearGradient>
  <linearGradient id="linearGradient21017" y2="103.24" gradientUnits="userSpaceOnUse" x2="171.65" gradientTransform="matrix(.9723 -.0014 -.0053 .9834 6.5608 2.0294)" y1="188.95" x1="138.12">
   <stop id="stop3362-3" stop-color="#1f88ee" offset="0"/>
   <stop id="stop3364-0" stop-color="#1f88ee" offset=".118"/>
   <stop id="stop3366-1" stop-color="#65bcfa" offset=".5169"/>
   <stop id="stop3368" stop-color="#5cb5f8" offset=".546"/>
   <stop id="stop3370" stop-color="#2e94f1" offset=".7022"/>
   <stop id="stop3372" stop-color="#1d87ee" offset=".7809"/>
   <stop id="stop3374" stop-color="#1c86ee" offset="1"/>
  </linearGradient>
  <linearGradient id="linearGradient21019" y2="108.85" gradientUnits="userSpaceOnUse" x2="174.13" gradientTransform="matrix(.9673 -.0026 -.0064 .9803 7.6049 2.6751)" y1="188.37" x1="136.15">
   <stop id="stop3379" stop-color="#2088ee" offset="0"/>
   <stop id="stop3381" stop-color="#2088ee" offset=".118"/>
   <stop id="stop3383" stop-color="#62bafa" offset=".5169"/>
   <stop id="stop3385" stop-color="#5cb5f9" offset=".53730"/>
   <stop id="stop3387" stop-color="#2e94f1" offset=".69930"/>
   <stop id="stop3389-4" stop-color="#1d87ee" offset=".7809"/>
   <stop id="stop3391-2" stop-color="#1c86ee" offset="1"/>
  </linearGradient>
  <linearGradient id="linearGradient21021" y2="114.58" gradientUnits="userSpaceOnUse" x2="175.87" gradientTransform="matrix(.9624 -.0039 -.0075 .9772 8.6485 3.3214)" y1="187.59" x1="134.25">
   <stop id="stop3396" stop-color="#2088ee" offset="0"/>
   <stop id="stop3398-9" stop-color="#2088ee" offset=".118"/>
   <stop id="stop3400-0" stop-color="#5fb7f9" offset=".5169"/>
   <stop id="stop3402-9" stop-color="#5cb5f8" offset=".52790"/>
   <stop id="stop3404" stop-color="#2e94f1" offset=".69620"/>
   <stop id="stop3406" stop-color="#1d87ee" offset=".7809"/>
   <stop id="stop3408" stop-color="#1c86ee" offset="1"/>
  </linearGradient>
  <linearGradient id="linearGradient21023" y2="120.31" gradientUnits="userSpaceOnUse" x2="176.89" gradientTransform="matrix(.9574 -.0052 -.0086 .9742 9.6931 3.9672)" y1="186.62" x1="132.43">
   <stop id="stop3413" stop-color="#2189ee" offset="0"/>
   <stop id="stop3415" stop-color="#2088ee" offset=".118"/>
   <stop id="stop3417" stop-color="#5cb5f8" offset=".5169"/>
   <stop id="stop3419" stop-color="#5cb5f8" offset=".5176"/>
   <stop id="stop3421" stop-color="#2e94f1" offset=".69270"/>
   <stop id="stop3423" stop-color="#1d87ee" offset=".7809"/>
   <stop id="stop3425-4" stop-color="#1c86ee" offset="1"/>
  </linearGradient>
  <linearGradient id="linearGradient21025" y2="125.96" gradientUnits="userSpaceOnUse" x2="177.22" gradientTransform="matrix(.9524 -.0065 -.0097 .9711 10.737 4.6134)" y1="185.47" x1="130.72">
   <stop id="stop3430" stop-color="#2189ee" offset="0"/>
   <stop id="stop3432-0" stop-color="#2189ee" offset=".118"/>
   <stop id="stop3434-7" stop-color="#59b3f8" offset=".5169"/>
   <stop id="stop3436" stop-color="#2e94f1" offset="0.689"/>
   <stop id="stop3438" stop-color="#1d87ee" offset=".7809"/>
   <stop id="stop3440" stop-color="#1c86ee" offset="1"/>
  </linearGradient>
  <linearGradient id="linearGradient21027" y2="131.41" gradientUnits="userSpaceOnUse" x2="176.9" gradientTransform="matrix(.9475 -.0078 -.0108 .968 11.781 5.2592)" y1="184.17" x1="129.13">
   <stop id="stop3445" stop-color="#2189ee" offset="0"/>
   <stop id="stop3447" stop-color="#2189ee" offset=".118"/>
   <stop id="stop3449" stop-color="#56b0f7" offset=".5169"/>
   <stop id="stop3451" stop-color="#2e94f1" offset=".68490"/>
   <stop id="stop3453-6" stop-color="#1d87ee" offset=".7809"/>
   <stop id="stop3455-5" stop-color="#1c86ee" offset="1"/>
  </linearGradient>
  <linearGradient id="linearGradient21029" y2="136.57" gradientUnits="userSpaceOnUse" x2="175.98" gradientTransform="matrix(.9425 -.0091 -.0119 .9649 12.825 5.9054)" y1="182.71" x1="127.68">
   <stop id="stop3460" stop-color="#2289ee" offset="0"/>
   <stop id="stop3462" stop-color="#2189ee" offset=".118"/>
   <stop id="stop3464" stop-color="#53aef7" offset=".5169"/>
   <stop id="stop3466" stop-color="#2e94f1" offset=".6803"/>
   <stop id="stop3468-6" stop-color="#1d87ee" offset=".7809"/>
   <stop id="stop3470-4" stop-color="#1c86ee" offset="1"/>
  </linearGradient>
  <linearGradient id="linearGradient21031" y2="141.39" gradientUnits="userSpaceOnUse" x2="174.54" gradientTransform="matrix(.9376 -.0103 -.013 .9619 13.869 6.5512)" y1="181.14" x1="126.37">
   <stop id="stop3475-0" stop-color="#228aef" offset="0"/>
   <stop id="stop3477-8" stop-color="#2289ef" offset=".118"/>
   <stop id="stop3479" stop-color="#4facf6" offset=".5169"/>
   <stop id="stop3481" stop-color="#2f94f1" offset=".67160"/>
   <stop id="stop3483" stop-color="#1e87ee" offset=".7809"/>
   <stop id="stop3485" stop-color="#1c86ee" offset="1"/>
  </linearGradient>
  <linearGradient id="linearGradient21033" y2="145.8" gradientUnits="userSpaceOnUse" x2="172.63" gradientTransform="matrix(.9326 -.0116 -.0141 .9588 14.912 7.1975)" y1="179.47" x1="125.21">
   <stop id="stop3490-1" stop-color="#238aef" offset="0"/>
   <stop id="stop3492" stop-color="#2289ef" offset=".118"/>
   <stop id="stop3494" stop-color="#4caaf6" offset=".5169"/>
   <stop id="stop3496" stop-color="#2f94f1" offset=".6656"/>
   <stop id="stop3498" stop-color="#1e87ee" offset=".7809"/>
   <stop id="stop3500" stop-color="#1c86ee" offset="1"/>
  </linearGradient>
  <linearGradient id="linearGradient21035" y2="149.76" gradientUnits="userSpaceOnUse" x2="170.35" gradientTransform="matrix(.9277 -.0129 -.0152 .9557 15.957 7.8433)" y1="177.73" x1="124.19">
   <stop id="stop3505" stop-color="#238aef" offset="0"/>
   <stop id="stop3507" stop-color="#2289ef" offset=".118"/>
   <stop id="stop3509" stop-color="#49a7f5" offset=".5169"/>
   <stop id="stop3511" stop-color="#2f94f1" offset=".65870"/>
   <stop id="stop3513" stop-color="#1e87ee" offset=".7809"/>
   <stop id="stop3515" stop-color="#1c86ee" offset="1"/>
  </linearGradient>
  <linearGradient id="linearGradient21037" y2="153.22" gradientUnits="userSpaceOnUse" x2="167.76" gradientTransform="matrix(.9227 -.0142 -.0163 .9526 17.001 8.4895)" y1="175.92" x1="123.31">
   <stop id="stop3520" stop-color="#238aef" offset="0"/>
   <stop id="stop3522" stop-color="#238aef" offset=".118"/>
   <stop id="stop3524" stop-color="#46a5f5" offset=".5169"/>
   <stop id="stop3526" stop-color="#2f94f1" offset=".65090"/>
   <stop id="stop3528" stop-color="#1e87ee" offset=".7809"/>
   <stop id="stop3530" stop-color="#1c86ee" offset="1"/>
  </linearGradient>
  <linearGradient id="linearGradient21039" y2="156.19" gradientUnits="userSpaceOnUse" x2="164.93" gradientTransform="matrix(.9177 -.0155 -.0174 .9496 18.045 9.1353)" y1="174.08" x1="122.57">
   <stop id="stop3535" stop-color="#248bef" offset="0"/>
   <stop id="stop3537" stop-color="#238aef" offset=".118"/>
   <stop id="stop3539" stop-color="#43a3f4" offset=".5169"/>
   <stop id="stop3541" stop-color="#2f94f1" offset=".64220"/>
   <stop id="stop3543" stop-color="#1e87ee" offset=".7809"/>
   <stop id="stop3545" stop-color="#1c86ee" offset="1"/>
  </linearGradient>
  <linearGradient id="linearGradient21041" y2="158.65" gradientUnits="userSpaceOnUse" x2="161.94" gradientTransform="matrix(.9128 -.0168 -.0185 .9465 19.089 9.7816)" y1="172.22" x1="121.93">
   <stop id="stop3550" stop-color="#248bef" offset="0"/>
   <stop id="stop3552" stop-color="#238aef" offset=".118"/>
   <stop id="stop3554" stop-color="#40a0f3" offset=".5169"/>
   <stop id="stop3556" stop-color="#2f94f1" offset=".6318"/>
   <stop id="stop3558" stop-color="#1e87ee" offset=".7809"/>
   <stop id="stop3560" stop-color="#1c86ee" offset="1"/>
  </linearGradient>
  <linearGradient id="linearGradient21043" y2="160.6" gradientUnits="userSpaceOnUse" x2="158.82" gradientTransform="matrix(.9078 -.018 -.0196 .9434 20.132 10.427)" y1="170.34" x1="121.4">
   <stop id="stop3565" stop-color="#258bef" offset="0"/>
   <stop id="stop3567" stop-color="#248aef" offset=".118"/>
   <stop id="stop3569" stop-color="#3d9ef3" offset=".5169"/>
   <stop id="stop3571" stop-color="#2f94f1" offset=".6196"/>
   <stop id="stop3573" stop-color="#1e87ee" offset=".7809"/>
   <stop id="stop3575" stop-color="#1c86ee" offset="1"/>
  </linearGradient>
  <linearGradient id="linearGradient21045" y2="162.06" gradientUnits="userSpaceOnUse" x2="155.63" gradientTransform="matrix(.9029 -.0193 -.0207 .9403 21.176 11.074)" y1="168.45" x1="120.93">
   <stop id="stop3580" stop-color="#258bef" offset="0"/>
   <stop id="stop3582" stop-color="#248aef" offset=".118"/>
   <stop id="stop3584" stop-color="#3a9cf2" offset=".5169"/>
   <stop id="stop3586" stop-color="#2f94f0" offset=".6049"/>
   <stop id="stop3588" stop-color="#1e87ee" offset=".7809"/>
   <stop id="stop3590" stop-color="#1c86ee" offset="1"/>
  </linearGradient>
  <linearGradient id="linearGradient21047" y2="163.05" gradientUnits="userSpaceOnUse" x2="152.4" gradientTransform="matrix(.8979 -.0206 -.0219 .9372 22.22 11.719)" y1="166.55" x1="120.53">
   <stop id="stop3595" stop-color="#258bef" offset="0"/>
   <stop id="stop3597" stop-color="#258bef" offset=".118"/>
   <stop id="stop3599-4" stop-color="#3799f2" offset=".5169"/>
   <stop id="stop3601-2" stop-color="#2f94f1" offset=".5869"/>
   <stop id="stop3603" stop-color="#1e88ee" offset=".7809"/>
   <stop id="stop3605" stop-color="#1c86ee" offset="1"/>
  </linearGradient>
  <linearGradient id="linearGradient21049" y2="163.57" gradientUnits="userSpaceOnUse" x2="149.16" gradientTransform="matrix(.8929 -.0219 -.023 .9342 23.265 12.366)" y1="164.63" x1="120.18">
   <stop id="stop3610-3" stop-color="#268cef" offset="0"/>
   <stop id="stop3612-0" stop-color="#258bef" offset=".118"/>
   <stop id="stop3614-7" stop-color="#3497f1" offset=".5169"/>
   <stop id="stop3616-2" stop-color="#2f94f0" offset=".56450"/>
   <stop id="stop3618-3" stop-color="#1e88ee" offset=".7809"/>
   <stop id="stop3620" stop-color="#1c86ee" offset="1"/>
  </linearGradient>
  <linearGradient id="linearGradient21051" y2="163.62" gradientUnits="userSpaceOnUse" x2="145.91" gradientTransform="matrix(.888 -.0232 -.0241 .9311 24.308 13.012)" y1="162.69" x1="119.87">
   <stop id="stop3625" stop-color="#268cef" offset="0"/>
   <stop id="stop3627" stop-color="#258bef" offset=".118"/>
   <stop id="stop3629" stop-color="#3195f1" offset=".5169"/>
   <stop id="stop3631" stop-color="#3095f1" offset=".52390"/>
   <stop id="stop3633" stop-color="#1f88ee" offset=".7809"/>
   <stop id="stop3635" stop-color="#1c86ee" offset="1"/>
  </linearGradient>
  <linearGradient id="linearGradient21053" y2="163.22" gradientUnits="userSpaceOnUse" x2="142.68" gradientTransform="matrix(.883 -.0245 -.0252 .928 25.352 13.658)" y1="160.71" x1="119.59">
   <stop id="stop3640" stop-color="#268cef" offset="0"/>
   <stop id="stop3642" stop-color="#268bef" offset=".118"/>
   <stop id="stop3644" stop-color="#2e92f0" offset=".5169"/>
   <stop id="stop3646" stop-color="#1f88ee" offset=".7809"/>
   <stop id="stop3648" stop-color="#1c86ee" offset="1"/>
  </linearGradient>
  <linearGradient id="linearGradient21055" y2="162.36" gradientUnits="userSpaceOnUse" x2="139.48" gradientTransform="matrix(.8781 -.0257 -.0263 .9249 26.396 14.304)" y1="158.67" x1="119.34">
   <stop id="stop3653" stop-color="#278cef" offset="0"/>
   <stop id="stop3655" stop-color="#268bef" offset=".118"/>
   <stop id="stop3657" stop-color="#2b90f0" offset=".5169"/>
   <stop id="stop3659" stop-color="#1f88ee" offset=".7809"/>
   <stop id="stop3661" stop-color="#1c86ee" offset="1"/>
  </linearGradient>
  <linearGradient id="linearGradient21057" y2="161.02" gradientUnits="userSpaceOnUse" x2="136.32" gradientTransform="matrix(.8731 -.027 -.0274 .9219 27.44 14.95)" y1="156.58" x1="119.15">
   <stop id="stop3666" stop-color="#278def" offset="0"/>
   <stop id="stop3668" stop-color="#268cef" offset=".118"/>
   <stop id="stop3670" stop-color="#288eef" offset=".5169"/>
   <stop id="stop3672" stop-color="#1f88ee" offset=".7809"/>
   <stop id="stop3674-8" stop-color="#1c86ee" offset="1"/>
  </linearGradient>
  <linearGradient id="linearGradient21059" y2="159.21" gradientUnits="userSpaceOnUse" x2="133.22" gradientTransform="matrix(.8682 -.0283 -.0285 .9188 28.485 15.596)" y1="154.4" x1="119.01">
   <stop id="stop3679" stop-color="#288def" offset="0"/>
   <stop id="stop3681" stop-color="#278cef" offset=".118"/>
   <stop id="stop3683-8" stop-color="#258bef" offset=".5169"/>
   <stop id="stop3685-0" stop-color="#1f88ee" offset=".7809"/>
   <stop id="stop3687" stop-color="#1c86ee" offset="1"/>
  </linearGradient>
  <linearGradient id="linearGradient21061" y2="156.89" gradientUnits="userSpaceOnUse" x2="130.23" gradientTransform="matrix(.8632 -.0296 -.0296 .9157 29.528 16.242)" y1="152.15" x1="118.95">
   <stop id="stop3692-1" stop-color="#288def" offset="0"/>
   <stop id="stop3694-2" stop-color="#1c86ee" offset="1"/>
  </linearGradient>
  <linearGradient id="linearGradient21063" y2="157.55" gradientUnits="userSpaceOnUse" x2="133.78" gradientTransform="matrix(.9353 -.0269 -.0269 .9832 16.726 6.8872)" y1="153.22" x1="123.5">
   <stop id="stop3701" stop-color="#288def" offset="0"/>
   <stop id="stop3703-2" stop-color="#1c86ee" offset="1"/>
  </linearGradient>
  <linearGradient id="linearGradient21065" y2="158.05" gradientUnits="userSpaceOnUse" x2="135.24" gradientTransform="matrix(.9373 -.0258 -.0258 .9833 16.174 6.7037)" y1="153.08" x1="123.57">
   <stop id="stop3708" stop-color="#2f91ef" offset="0"/>
   <stop id="stop3710" stop-color="#2f91ef" offset=".0169"/>
   <stop id="stop3712" stop-color="#2b8fef" offset=".19660"/>
   <stop id="stop3714" stop-color="#258bef" offset=".64710"/>
   <stop id="stop3716" stop-color="#1c86ee" offset="1"/>
  </linearGradient>
  <linearGradient id="linearGradient21067" y2="158.56" gradientUnits="userSpaceOnUse" x2="136.69" gradientTransform="matrix(.9393 -.0247 -.0247 .9833 15.622 6.521)" y1="152.93" x1="123.65">
   <stop id="stop3721-4" stop-color="#3694f0" offset="0"/>
   <stop id="stop3723-2" stop-color="#3694f0" offset=".0169"/>
   <stop id="stop3725" stop-color="#3092f0" offset=".19660"/>
   <stop id="stop3727" stop-color="#2a8fef" offset=".57210"/>
   <stop id="stop3729" stop-color="#1c87ee" offset="1"/>
  </linearGradient>
  <linearGradient id="linearGradient21069" y2="159.07" gradientUnits="userSpaceOnUse" x2="138.11" gradientTransform="matrix(.9413 -.0236 -.0236 .9834 15.07 6.3374)" y1="152.78" x1="123.73">
   <stop id="stop3734" stop-color="#3d98f0" offset="0"/>
   <stop id="stop3736" stop-color="#3d98f0" offset=".0169"/>
   <stop id="stop3738-3" stop-color="#3595f0" offset=".19660"/>
   <stop id="stop3740-0" stop-color="#2f92f0" offset=".52250"/>
   <stop id="stop3742-4" stop-color="#1e88ee" offset=".95960"/>
   <stop id="stop3744" stop-color="#1c87ee" offset="1"/>
  </linearGradient>
  <linearGradient id="linearGradient21071" y2="159.58" gradientUnits="userSpaceOnUse" x2="139.52" gradientTransform="matrix(.9433 -.0226 -.0226 .9834 14.517 6.1537)" y1="152.62" x1="123.8">
   <stop id="stop3749" stop-color="#449cf1" offset="0"/>
   <stop id="stop3751" stop-color="#449cf1" offset=".0169"/>
   <stop id="stop3753" stop-color="#3998f1" offset=".19660"/>
   <stop id="stop3755" stop-color="#3394f0" offset=".49330"/>
   <stop id="stop3757" stop-color="#228aef" offset=".89110"/>
   <stop id="stop3759" stop-color="#1c87ee" offset="1"/>
  </linearGradient>
  <linearGradient id="linearGradient21073" y2="160.11" gradientUnits="userSpaceOnUse" x2="140.91" gradientTransform="matrix(.9453 -.0215 -.0215 .9835 13.964 5.9706)" y1="152.48" x1="123.88">
   <stop id="stop3764" stop-color="#4b9ff1" offset="0"/>
   <stop id="stop3766" stop-color="#4b9ff1" offset=".0169"/>
   <stop id="stop3768" stop-color="#3e9bf1" offset=".19660"/>
   <stop id="stop3770" stop-color="#3897f0" offset=".4648"/>
   <stop id="stop3772" stop-color="#278def" offset=".82430"/>
   <stop id="stop3774" stop-color="#1c87ee" offset="1"/>
  </linearGradient>
  <linearGradient id="linearGradient21075" y2="160.64" gradientUnits="userSpaceOnUse" x2="142.29" gradientTransform="matrix(.9472 -.0204 -.0204 .9836 13.412 5.7875)" y1="152.32" x1="123.96">
   <stop id="stop3779" stop-color="#52a3f2" offset="0"/>
   <stop id="stop3781" stop-color="#52a3f2" offset=".0169"/>
   <stop id="stop3783-2" stop-color="#439df2" offset=".19660"/>
   <stop id="stop3785-0" stop-color="#3d9af1" offset=".4425"/>
   <stop id="stop3787" stop-color="#2c91f0" offset="0.772"/>
   <stop id="stop3789" stop-color="#1c88ee" offset="1"/>
  </linearGradient>
  <linearGradient id="linearGradient21077" y2="161.17" gradientUnits="userSpaceOnUse" x2="143.65" gradientTransform="matrix(.9492 -.0193 -.0193 .9836 12.86 5.6043)" y1="152.17" x1="124.04">
   <stop id="stop3794" stop-color="#59a7f2" offset="0"/>
   <stop id="stop3796-6" stop-color="#59a7f2" offset=".0169"/>
   <stop id="stop3798-6" stop-color="#48a0f2" offset=".19660"/>
   <stop id="stop3800" stop-color="#429df1" offset=".42430"/>
   <stop id="stop3802" stop-color="#3193f0" offset=".7295"/>
   <stop id="stop3804" stop-color="#1c88ee" offset="1"/>
  </linearGradient>
  <linearGradient id="linearGradient21079" y2="161.71" gradientUnits="userSpaceOnUse" x2="144.99" gradientTransform="matrix(.9512 -.0182 -.0182 .9837 12.307 5.4207)" y1="152.01" x1="124.12">
   <stop id="stop3809" stop-color="#5faaf3" offset="0"/>
   <stop id="stop3811" stop-color="#5faaf3" offset=".0169"/>
   <stop id="stop3813" stop-color="#4da3f3" offset=".19660"/>
   <stop id="stop3815" stop-color="#47a0f2" offset=".4093"/>
   <stop id="stop3817-0" stop-color="#3696f1" offset="0.695"/>
   <stop id="stop3819-3" stop-color="#1c88ee" offset="1"/>
  </linearGradient>
  <linearGradient id="linearGradient21081" y2="162.26" gradientUnits="userSpaceOnUse" x2="146.31" gradientTransform="matrix(.9532 -.0171 -.0171 .9838 11.755 5.2376)" y1="151.85" x1="124.2">
   <stop id="stop3824-4" stop-color="#66aef3" offset="0"/>
   <stop id="stop3826" stop-color="#66aef3" offset=".0169"/>
   <stop id="stop3828" stop-color="#52a6f3" offset=".19660"/>
   <stop id="stop3830" stop-color="#4ca3f2" offset=".39660"/>
   <stop id="stop3832" stop-color="#3b9af1" offset=".6652"/>
   <stop id="stop3834" stop-color="#1f8bee" offset=".97170"/>
   <stop id="stop3836-8" stop-color="#1c89ee" offset="1"/>
  </linearGradient>
  <linearGradient id="linearGradient21083" y2="162.81" gradientUnits="userSpaceOnUse" x2="147.62" gradientTransform="matrix(.9552 -.0161 -.0161 .9838 11.202 5.0544)" y1="151.7" x1="124.29">
   <stop id="stop3841" stop-color="#6db2f4" offset="0"/>
   <stop id="stop3843" stop-color="#6db2f4" offset=".0169"/>
   <stop id="stop3845" stop-color="#57a9f4" offset=".19660"/>
   <stop id="stop3847" stop-color="#51a6f3" offset=".38570"/>
   <stop id="stop3849" stop-color="#409cf2" offset=".6397"/>
   <stop id="stop3851" stop-color="#248def" offset=".92940"/>
   <stop id="stop3853" stop-color="#1c89ee" offset="1"/>
  </linearGradient>
  <linearGradient id="linearGradient21085" y2="163.36" gradientUnits="userSpaceOnUse" x2="148.91" gradientTransform="matrix(.9572 -.015 -.015 .9839 10.65 4.8708)" y1="151.54" x1="124.37">
   <stop id="stop3858" stop-color="#74b5f4" offset="0"/>
   <stop id="stop3860" stop-color="#74b5f4" offset=".0169"/>
   <stop id="stop3862" stop-color="#5cacf4" offset=".19660"/>
   <stop id="stop3864" stop-color="#56a9f3" offset=".3761"/>
   <stop id="stop3866" stop-color="#459ff2" offset=".61730"/>
   <stop id="stop3868" stop-color="#2990ef" offset=".89250"/>
   <stop id="stop3870" stop-color="#1c89ee" offset="1"/>
  </linearGradient>
  <linearGradient id="linearGradient21087" y2="163.92" gradientUnits="userSpaceOnUse" x2="150.18" gradientTransform="matrix(.9592 -.0139 -.0139 .9839 10.098 4.6877)" y1="151.38" x1="124.45">
   <stop id="stop3875" stop-color="#7bb9f4" offset="0"/>
   <stop id="stop3877" stop-color="#7bb9f4" offset=".0169"/>
   <stop id="stop3879" stop-color="#60aff4" offset=".19660"/>
   <stop id="stop3881" stop-color="#5aacf3" offset=".36940"/>
   <stop id="stop3883" stop-color="#49a2f2" offset=".60150"/>
   <stop id="stop3885" stop-color="#2d92ef" offset=".86630"/>
   <stop id="stop3887" stop-color="#1c89ee" offset="1"/>
  </linearGradient>
  <linearGradient id="linearGradient21089" y2="164.49" gradientUnits="userSpaceOnUse" x2="151.44" gradientTransform="matrix(.9612 -.0128 -.0128 .984 9.5455 4.5045)" y1="151.22" x1="124.54">
   <stop id="stop3892" stop-color="#82bdf5" offset="0"/>
   <stop id="stop3894" stop-color="#82bdf5" offset=".0169"/>
   <stop id="stop3896" stop-color="#65b2f5" offset=".19660"/>
   <stop id="stop3898" stop-color="#5faff4" offset=".36180"/>
   <stop id="stop3900" stop-color="#4ea5f3" offset=".5837"/>
   <stop id="stop3902" stop-color="#3296f0" offset=".83680"/>
   <stop id="stop3904" stop-color="#1c8aee" offset="1"/>
  </linearGradient>
  <linearGradient id="linearGradient21091" y2="165.06" gradientUnits="userSpaceOnUse" x2="152.68" gradientTransform="matrix(.9632 -.0117 -.0117 .9841 8.9927 4.3209)" y1="151.05" x1="124.62">
   <stop id="stop3909" stop-color="#89c0f5" offset="0"/>
   <stop id="stop3911" stop-color="#89c0f5" offset=".0169"/>
   <stop id="stop3913" stop-color="#6ab5f5" offset=".19660"/>
   <stop id="stop3915" stop-color="#64b2f4" offset="0.355"/>
   <stop id="stop3917" stop-color="#53a8f3" offset=".56770"/>
   <stop id="stop3919" stop-color="#3799f0" offset=".81030"/>
   <stop id="stop3921" stop-color="#1c8aee" offset="1"/>
  </linearGradient>
  <linearGradient id="linearGradient21093" y2="165.63" gradientUnits="userSpaceOnUse" x2="153.91" gradientTransform="matrix(.9652 -.0106 -.0106 .9841 8.4403 4.1378)" y1="150.89" x1="124.71">
   <stop id="stop3926" stop-color="#90c4f6" offset="0"/>
   <stop id="stop3928" stop-color="#90c4f6" offset=".0169"/>
   <stop id="stop3930" stop-color="#6fb8f6" offset=".19660"/>
   <stop id="stop3932-0" stop-color="#69b5f5" offset=".34890"/>
   <stop id="stop3934-0" stop-color="#58abf4" offset=".55340"/>
   <stop id="stop3936" stop-color="#3c9cf1" offset=".78670"/>
   <stop id="stop3938" stop-color="#1c8aee" offset="1"/>
  </linearGradient>
  <linearGradient id="linearGradient21095" y2="166.22" gradientUnits="userSpaceOnUse" x2="155.12" gradientTransform="matrix(.9671 -.0096 -.0096 .9842 7.888 3.9546)" y1="150.73" x1="124.79">
   <stop id="stop3943" stop-color="#97c8f6" offset="0"/>
   <stop id="stop3945" stop-color="#97c8f6" offset=".0169"/>
   <stop id="stop3947" stop-color="#74baf6" offset=".19660"/>
   <stop id="stop3949" stop-color="#6eb7f5" offset=".34330"/>
   <stop id="stop3951" stop-color="#5daef4" offset=".54040"/>
   <stop id="stop3953" stop-color="#419ff1" offset=".76620"/>
   <stop id="stop3955" stop-color="#1c8bee" offset="1"/>
  </linearGradient>
  <linearGradient id="linearGradient21097" y2="166.8" gradientUnits="userSpaceOnUse" x2="156.32" gradientTransform="matrix(.9691 -.0085 -.0085 .9842 7.3352 3.7715)" y1="150.57" x1="124.88">
   <stop id="stop3960" stop-color="#9eccf7" offset="0"/>
   <stop id="stop3962" stop-color="#9eccf7" offset=".0169"/>
   <stop id="stop3964" stop-color="#79bdf7" offset=".19660"/>
   <stop id="stop3966" stop-color="#73baf6" offset=".33830"/>
   <stop id="stop3968" stop-color="#62b1f5" offset=".52860"/>
   <stop id="stop3970" stop-color="#46a1f2" offset=".74660"/>
   <stop id="stop3972" stop-color="#1f8dee" offset=".98370"/>
   <stop id="stop3974" stop-color="#1c8bee" offset="1"/>
  </linearGradient>
  <linearGradient id="linearGradient21099" y2="167.39" gradientUnits="userSpaceOnUse" x2="157.5" gradientTransform="matrix(.9711 -.0074 -.0074 .9843 6.7829 3.5878)" y1="150.4" x1="124.97">
   <stop id="stop3979" stop-color="#a5cff7" offset="0"/>
   <stop id="stop3981" stop-color="#a5cff7" offset=".0169"/>
   <stop id="stop3983" stop-color="#7ec0f7" offset=".19660"/>
   <stop id="stop3985" stop-color="#78bdf6" offset=".3337"/>
   <stop id="stop3987" stop-color="#67b3f5" offset=".51780"/>
   <stop id="stop3989" stop-color="#4ba4f2" offset=".72870"/>
   <stop id="stop3991" stop-color="#248fef" offset=".958"/>
   <stop id="stop3993" stop-color="#1c8bee" offset="1"/>
  </linearGradient>
  <linearGradient id="linearGradient21101" y2="167.98" gradientUnits="userSpaceOnUse" x2="158.67" gradientTransform="matrix(.9731 -.0063 -.0063 .9844 6.2306 3.4052)" y1="150.23" x1="125.05">
   <stop id="stop3998" stop-color="#acd3f8" offset="0"/>
   <stop id="stop4000" stop-color="#acd3f8" offset=".0169"/>
   <stop id="stop4002" stop-color="#83c3f8" offset=".19660"/>
   <stop id="stop4004" stop-color="#7dc0f7" offset=".3294"/>
   <stop id="stop4006" stop-color="#6cb7f6" offset=".50780"/>
   <stop id="stop4008" stop-color="#50a8f3" offset=".71220"/>
   <stop id="stop4010" stop-color="#2993ef" offset=".93440"/>
   <stop id="stop4012" stop-color="#1c8cee" offset="1"/>
  </linearGradient>
  <linearGradient id="linearGradient21103" y2="168.58" gradientUnits="userSpaceOnUse" x2="159.83" gradientTransform="matrix(.9751 -.0052 -.0052 .9844 5.6782 3.2215)" y1="150.07" x1="125.14">
   <stop id="stop4017" stop-color="#b3d7f8" offset="0"/>
   <stop id="stop4019" stop-color="#b3d7f8" offset=".0169"/>
   <stop id="stop4021" stop-color="#87c6f8" offset=".19660"/>
   <stop id="stop4023" stop-color="#81c3f7" offset=".32620"/>
   <stop id="stop4025" stop-color="#70b9f6" offset=".50040"/>
   <stop id="stop4027" stop-color="#54aaf3" offset=".69980"/>
   <stop id="stop4029" stop-color="#2d95f0" offset=".91660"/>
   <stop id="stop4031" stop-color="#1c8cee" offset="1"/>
  </linearGradient>
  <linearGradient id="linearGradient21105" y2="169.19" gradientUnits="userSpaceOnUse" x2="160.96" gradientTransform="matrix(.9771 -.0041 -.0041 .9845 5.1254 3.0379)" y1="149.9" x1="125.23">
   <stop id="stop4036" stop-color="#badaf8" offset="0"/>
   <stop id="stop4038" stop-color="#badaf8" offset=".0169"/>
   <stop id="stop4040" stop-color="#8cc9f8" offset=".19660"/>
   <stop id="stop4042" stop-color="#86c6f7" offset=".32250"/>
   <stop id="stop4044" stop-color="#75bcf6" offset=".49170"/>
   <stop id="stop4046" stop-color="#59adf3" offset=".68550"/>
   <stop id="stop4048" stop-color="#3298f0" offset="0.896"/>
   <stop id="stop4050" stop-color="#1c8cee" offset="1"/>
  </linearGradient>
  <linearGradient id="linearGradient21107" y2="169.8" gradientUnits="userSpaceOnUse" x2="162.09" gradientTransform="matrix(.9791 -.0031 -.0031 .9845 4.5731 2.8548)" y1="149.73" x1="125.32">
   <stop id="stop4055" stop-color="#c1def9" offset="0"/>
   <stop id="stop4057" stop-color="#c1def9" offset=".0169"/>
   <stop id="stop4059" stop-color="#91ccf9" offset=".19660"/>
   <stop id="stop4061" stop-color="#8bc9f8" offset=".31910"/>
   <stop id="stop4063" stop-color="#7abff7" offset=".48360"/>
   <stop id="stop4065" stop-color="#5eb0f4" offset=".67210"/>
   <stop id="stop4067" stop-color="#379bf1" offset="0.877"/>
   <stop id="stop4069" stop-color="#1c8cee" offset="1"/>
  </linearGradient>
  <linearGradient id="linearGradient21109" y2="170.41" gradientUnits="userSpaceOnUse" x2="163.2" gradientTransform="matrix(.9811 -.002 -.002 .9846 4.0208 2.6716)" y1="149.56" x1="125.42">
   <stop id="stop4074" stop-color="#c8e2f9" offset="0"/>
   <stop id="stop4076" stop-color="#c8e2f9" offset=".0169"/>
   <stop id="stop4078" stop-color="#96cff9" offset=".19660"/>
   <stop id="stop4080" stop-color="#90ccf8" offset=".31580"/>
   <stop id="stop4082" stop-color="#7fc2f7" offset=".4761"/>
   <stop id="stop4084" stop-color="#63b3f4" offset=".65970"/>
   <stop id="stop4086" stop-color="#3c9ef1" offset=".85910"/>
   <stop id="stop4088" stop-color="#1c8dee" offset="1"/>
  </linearGradient>
  <linearGradient id="linearGradient21111" y2="171.03" gradientUnits="userSpaceOnUse" x2="164.3" gradientTransform="matrix(.9831 -.00088709 -.00088709 .9847 3.4679 2.4885)" y1="149.39" x1="125.51">
   <stop id="stop4093" stop-color="#cee5fa" offset="0"/>
   <stop id="stop4095" stop-color="#cee5fa" offset=".0169"/>
   <stop id="stop4097" stop-color="#9bd2fa" offset=".19660"/>
   <stop id="stop4099" stop-color="#95cff9" offset=".31290"/>
   <stop id="stop4101" stop-color="#84c5f8" offset=".4691"/>
   <stop id="stop4103" stop-color="#68b6f5" offset=".64810"/>
   <stop id="stop4105" stop-color="#41a1f1" offset=".84250"/>
   <stop id="stop4107" stop-color="#1c8dee" offset="1"/>
  </linearGradient>
  <linearGradient id="linearGradient21113" y2="171.65" gradientUnits="userSpaceOnUse" x2="165.38" gradientTransform="matrix(.9851 .00019678 .00019678 .9847 2.9156 2.3048)" y1="149.21" x1="125.6">
   <stop id="stop4112" stop-color="#d5e9fa" offset="0"/>
   <stop id="stop4114" stop-color="#d5e9fa" offset=".0169"/>
   <stop id="stop4116" stop-color="#a0d5fa" offset=".19660"/>
   <stop id="stop4118" stop-color="#9ad2f9" offset=".31"/>
   <stop id="stop4120" stop-color="#89c8f8" offset=".46250"/>
   <stop id="stop4122" stop-color="#6db9f5" offset=".6372"/>
   <stop id="stop4124" stop-color="#46a4f2" offset=".82690"/>
   <stop id="stop4126" stop-color="#1c8dee" offset="1"/>
  </linearGradient>
  <linearGradient id="linearGradient21115" y2="172.27" gradientUnits="userSpaceOnUse" x2="166.46" gradientTransform="matrix(.987 .0013 .0013 .9848 2.3638 2.1222)" y1="149.04" x1="125.69">
   <stop id="stop4131" stop-color="#dcedfb" offset="0"/>
   <stop id="stop4133" stop-color="#dcedfb" offset=".0169"/>
   <stop id="stop4135" stop-color="#a5d7fb" offset=".19660"/>
   <stop id="stop4137" stop-color="#9fd4fa" offset=".30740"/>
   <stop id="stop4139" stop-color="#8ecbf9" offset=".45640"/>
   <stop id="stop4141" stop-color="#72bcf6" offset="0.627"/>
   <stop id="stop4143" stop-color="#4ba7f2" offset=".81350"/>
   <stop id="stop4145" stop-color="#1c8eee" offset="1"/>
  </linearGradient>
  <linearGradient id="linearGradient21117" y2="172.91" gradientUnits="userSpaceOnUse" x2="167.52" gradientTransform="matrix(.989 .0024 .0024 .9849 1.8114 1.9385)" y1="148.87" x1="125.79">
   <stop id="stop4150" stop-color="#e3f0fb" offset="0"/>
   <stop id="stop4152" stop-color="#e3f0fb" offset=".0169"/>
   <stop id="stop4154" stop-color="#aadafb" offset=".19660"/>
   <stop id="stop4156" stop-color="#a4d7fa" offset=".30490"/>
   <stop id="stop4158" stop-color="#93cef9" offset=".45050"/>
   <stop id="stop4160" stop-color="#77bff6" offset=".61730"/>
   <stop id="stop4162" stop-color="#50aaf3" offset=".7999"/>
   <stop id="stop4164" stop-color="#1e8fee" offset=".99330"/>
   <stop id="stop4166" stop-color="#1c8eee" offset="1"/>
  </linearGradient>
  <linearGradient id="linearGradient21119" y2="173.54" gradientUnits="userSpaceOnUse" x2="168.56" gradientTransform="matrix(.991 .0034 .0034 .9849 1.2586 1.7549)" y1="148.69" x1="125.88">
   <stop id="stop4171" stop-color="#eaf4fc" offset="0"/>
   <stop id="stop4173" stop-color="#eaf4fc" offset=".0169"/>
   <stop id="stop4175" stop-color="#aeddfc" offset=".19660"/>
   <stop id="stop4177" stop-color="#a8dafb" offset=".303"/>
   <stop id="stop4179" stop-color="#97d0fa" offset="0.446"/>
   <stop id="stop4181" stop-color="#7bc1f7" offset=".6099"/>
   <stop id="stop4183" stop-color="#54acf3" offset=".78930"/>
   <stop id="stop4185" stop-color="#2291ef" offset=".97930"/>
   <stop id="stop4187" stop-color="#1c8eee" offset="1"/>
  </linearGradient>
  <linearGradient id="linearGradient21121" y2="174.18" gradientUnits="userSpaceOnUse" x2="169.59" gradientTransform="matrix(.993 .0045 .0045 .985 .7063 1.5718)" y1="148.52" x1="125.98">
   <stop id="stop4192" stop-color="#f1f8fc" offset="0"/>
   <stop id="stop4194" stop-color="#f1f8fc" offset=".0169"/>
   <stop id="stop4196" stop-color="#b3e0fc" offset=".19660"/>
   <stop id="stop4198" stop-color="#adddfb" offset=".3008"/>
   <stop id="stop4200" stop-color="#9cd3fa" offset=".44080"/>
   <stop id="stop4202" stop-color="#80c4f7" offset=".6013"/>
   <stop id="stop4204" stop-color="#59aff4" offset=".77690"/>
   <stop id="stop4206" stop-color="#2794ef" offset=".96280"/>
   <stop id="stop4208" stop-color="#1c8eee" offset="1"/>
  </linearGradient>
  <linearGradient id="linearGradient21123" y2="174.82" gradientUnits="userSpaceOnUse" x2="170.62" gradientTransform="matrix(.995 .0056 .0056 .985 .154 1.3886)" y1="148.34" x1="126.08">
   <stop id="stop4213" stop-color="#f8fbfd" offset="0"/>
   <stop id="stop4215" stop-color="#f8fbfd" offset=".0169"/>
   <stop id="stop4217" stop-color="#b8e3fd" offset=".19660"/>
   <stop id="stop4219" stop-color="#b2e0fc" offset=".2987"/>
   <stop id="stop4221" stop-color="#a1d7fb" offset=".43580"/>
   <stop id="stop4223" stop-color="#85c7f8" offset="0.593"/>
   <stop id="stop4225" stop-color="#5eb2f4" offset="0.765"/>
   <stop id="stop4227" stop-color="#2c98f0" offset=".94710"/>
   <stop id="stop4229" stop-color="#1c8fee" offset="1"/>
  </linearGradient>
  <linearGradient id="linearGradient21125" y2="175.47" gradientUnits="userSpaceOnUse" x2="171.62" gradientTransform="matrix(.997 .0067 .0067 .9851 -.3988 1.2055)" y1="148.17" x1="126.18">
   <stop id="stop4234" stop-color="#fffffd" offset=".0169"/>
   <stop id="stop4236" stop-color="#bde6fd" offset=".19660"/>
   <stop id="stop4238" stop-color="#b7e3fc" offset=".29660"/>
   <stop id="stop4240" stop-color="#a6d9fb" offset=".43110"/>
   <stop id="stop4242" stop-color="#8acaf8" offset=".5851"/>
   <stop id="stop4244" stop-color="#63b5f5" offset=".75380"/>
   <stop id="stop4246" stop-color="#319af0" offset=".93230"/>
   <stop id="stop4248" stop-color="#1c8fee" offset="1"/>
  </linearGradient>
  <linearGradient id="linearGradient21127" y2="161.94" gradientUnits="userSpaceOnUse" x2="149.61" gradientTransform="matrix(.72764 .0033471 -.0033471 .72764 -149.67 868.96)" y1="202.22" x1="164.95">
   <stop id="stop4253" stop-color="#fff" offset=".0169"/>
   <stop id="stop4255" stop-color="#fff8d8" offset=".0405"/>
   <stop id="stop4257" stop-color="#fff0ab" offset=".0716"/>
   <stop id="stop4259" stop-color="#ffe982" offset=".1058"/>
   <stop id="stop4261" stop-color="#ffe35f" offset=".1424"/>
   <stop id="stop4263" stop-color="#ffdd41" offset=".182"/>
   <stop id="stop4265" stop-color="#ffd929" offset=".22570"/>
   <stop id="stop4267" stop-color="#ffd617" offset=".27490"/>
   <stop id="stop4269" stop-color="#ffd40a" offset=".33310"/>
   <stop id="stop4271" stop-color="#ffd202" offset=".40890"/>
   <stop id="stop4273" stop-color="#ffd200" offset=".56740"/>
   <stop id="stop4275" stop-color="#ff8b00" offset="1"/>
  </linearGradient>
  <linearGradient id="linearGradient21129" y2="191.54" gradientUnits="userSpaceOnUse" x2="142.95" gradientTransform="matrix(.72764 .0033471 -.0033471 .72764 -149.67 868.96)" y1="143.79" x1="174.78">
   <stop id="stop4299-0" stop-color="#1c86ee" offset=".0056"/>
   <stop id="stop4301-0" stop-color="#fcfffc" offset=".37640"/>
   <stop id="stop4303-2" stop-color="#f0f9fb" offset="0.437"/>
   <stop id="stop4305" stop-color="#d0e7f9" offset=".54650"/>
   <stop id="stop4307" stop-color="#9dccf6" offset=".69240"/>
   <stop id="stop4309" stop-color="#56a6f2" offset=".86690"/>
   <stop id="stop4311" stop-color="#1c86ee" offset="1"/>
  </linearGradient>
  <linearGradient id="linearGradient21131" y2="156.72" gradientUnits="userSpaceOnUse" x2="164.26" gradientTransform="matrix(.72764 .0033471 -.0033471 .72764 -149.67 868.96)" y1="142.13" x1="187.45">
   <stop id="stop4316-6" stop-color="#cdf0fc" offset="0"/>
   <stop id="stop4318-3" stop-color="#c1e9fb" offset=".0783"/>
   <stop id="stop4320" stop-color="#a1d6f9" offset=".21970"/>
   <stop id="stop4322-7" stop-color="#6eb7f4" offset="0.408"/>
   <stop id="stop4324" stop-color="#278def" offset=".63390"/>
   <stop id="stop4326" stop-color="#1c86ee" offset=".66850"/>
  </linearGradient>
  <clipPath id="clipPath21145" clipPathUnits="userSpaceOnUse">
   <path id="path21147" d="m-77.013 949.98c-6.2291-1.3588-12.339 2.5877-13.698 8.8168l-12.437 57.014c-1.3588 6.2291 2.5585 12.332 8.7876 13.691l57.014 12.437c6.0295 1.3153 11.929-2.3268 13.535-8.2101l12.692-58.182c0.99951-6.0228-2.845-11.814-8.8794-13.13l-57.014-12.437z" fill="url(#linearGradient21149)"/>
  </clipPath>
  <linearGradient id="linearGradient21149" y2="5.9877" xlink:href="#linearGradient14659" gradientUnits="userSpaceOnUse" x2="48" gradientTransform="matrix(1.0676 .23290 .23290 -1.0676 -119.04 1037)" y1="120" x1="48"/>
 </defs>
 <metadata id="metadata7">
  <rdf:RDF>
   <cc:Work rdf:about="">
    <dc:format>image/svg+xml</dc:format>
    <dc:type rdf:resource="http://purl.org/dc/dcmitype/StillImage"/>
    <dc:title/>
   </cc:Work>
  </rdf:RDF>
 </metadata>
 <g id="layer1" transform="translate(0 -956.36)">
  <rect id="rect5263-0" fill-opacity=".019608" ry="12.724" height="89.978" width="89.978" y="959.35" x="2.9998"/>
  <rect id="rect5261-6" fill-opacity=".039216" ry="12.552" height="88.762" width="88.762" y="959.96" x="3.6078"/>
  <rect id="rect5259-9" fill-opacity=".078431" ry="12.38" height="87.546" width="87.546" y="960.57" x="4.2157"/>
  <rect id="rect5257-5" fill-opacity=".15686" ry="12.208" height="86.33" width="86.33" y="961.18" x="4.8237"/>
  <path id="rect2419-5" d="m17.469 5.4062c-6.668 0-12.032 5.3948-12.032 12.063l0.0005 61.031c0 6.668 5.3635 12.031 12.032 12.031h61.03c6.454 0 11.671-5.036 12-11.406v-62.281c-0.321-6.377-5.54-11.438-12-11.438l-61.031 0.0002z" transform="translate(0 956.36)" fill="url(#linearGradient4325-2)"/>
  <g id="g20268" clip-path="url(#clipPath21145)" transform="matrix(1.0218 -.22290 .22290 1.0218 -115.59 -26.111)">
   <path id="path7533" opacity=".15" d="m-36.842 961.05c-3.3856-0.557-6.68 0.9672-10.027 0.035-8.2483-0.9587-17.209 1.0773-23.125 7.2289-8.0823 7.968-10.014 19.545-13.387 29.918-0.6714 3.3517-6.0268 1.1267-8.3305 3.0367-4.6664 1.0546-9.3761 5.7394-8.2968 10.581 0.47254 4.6977 5.7236 8.2717 10.236 6.6591-1.1392 2.7806-1.5738 5.5269-2.9618 8.1356-2.8111 2.3162-7.4665 2.0448-9.2331 5.7813-2.9724 4.6022 0.39844 11.271 5.7922 11.814 3.1224 1.5415 8.3859-3.8831 7.85 1.5223 1.1459 3.9532 5.8377 6.4893 9.702 5.0147 3.5481-0.7919 6.6003-3.3323 9.306-5.6853 4.6178-4.1534 6.754-10.112 8.6411-15.801 0.12881-3.7757 3.3095 0.1998 5.6144-0.6032 1.8952-0.2743 2.9746-0.4853 4.1146-1.2287 2.8577-1.8995 4.1769-5.7358 3.1082-9.0261 7.8135 1.5812 15.648-2.7539 20.853-8.3021 10.036-10.787 13.023-28.953 3.9188-41.166-0.9436-1.2999-3.1492-3.7156-4.9745-4.7091-1.4924-0.9719-1.8569-1.0245-2.6359-1.4934-1.8993-0.8049-4.0378-1.4925-6.1645-1.7124zm-6.9255 0.4566c0.0494 0.1442-0.42503 0.065 0 0zm20.891 8.0671c0.23794 0.1611-0.43774 1.3555 0 0zm-64.156 72.756c0.13556-0.027-0.14536 0.097 0 0z" fill="#f60"/>
   <path id="path7529" opacity=".3" d="m-36.956 962.38c-1.9658-0.2145-4.0811-0.1065-6.2025 0.3424-0.13813 0.029-0.14283 0.061-0.19025 0.076h-0.0381l-1.0655-0.076h-0.0381a1.207 1.207 0 0 0 -0.0761 0 1.207 1.207 0 0 0 -0.0381 0c-0.7803-0.125-1.5356-0.2443-2.2451-0.3044v0.038c-5.0692-0.6153-11.079-0.2997-16.667 2.7018-5.6009 3.0087-10.689 8.6967-13.965 18.417-0.54371 1.6145-1.8321 5.8471-3.4628 11.225l-1.8265 6.0884c-6.2414 0.5302-10.993 1.9272-13.813 4.6043-0.007 0.012 0.007 0.031 0 0.038h-0.0381c-1.3226 1.1719-2.1179 2.8146-2.207 4.5663-0.0255 0.5091 0.0687 0.9931 0.1522 1.4459h-0.0381c0.005 0.042 0.0327 0.073 0.0381 0.1146 0.41453 3.1998 3.1021 5.7107 6.3547 5.8981 1.7461 0.1018 3.3974-0.5712 4.7185-1.6744a1.207 1.207 0 0 0 0.19025 -0.076l-0.38052 1.1037c-0.001-0.0004-0.038-0.0002-0.0381 0-0.003 0.013-0.0306 0.053-0.0381 0.076-0.0149 0.044-0.009 0.1088-0.0381 0.1902-0.056 0.1647-0.13207 0.4016-0.22831 0.6849-0.19248 0.5668-0.46591 1.2978-0.723 2.0548-0.51417 1.5141-1.0274 3.0442-1.0274 3.0442a1.207 1.207 0 0 0 0 0.038l-0.1522 0.5326-0.0381 0.1146-0.0381 0.076 1.1035 0.4566 1.1416 0.4187c-0.005 0.013-0.0761 0.1521-0.0761 0.1521s-0.0381 0.076-0.0381 0.076l-0.0761 0.1146-0.95131-0.761-1.1796-0.1523v-0.038l-0.41858 1.1797c-0.3689 1.0765-0.51031 1.3958-0.53273 1.4459-0.28576 0.6165-0.76747 1.178-1.3699 1.6363-0.61686 0.4486-1.4869 0.8844-2.6256 1.2177l-0.41858 0.1146c-1.2183 0.3325-3.4662 0.9505-4.9468 3.0442-1.7168 2.438-1.5976 5.7355 0.34247 7.9909 1.7285 2.0175 4.4998 2.8181 7.306 2.2451 1.5905-0.3233 3.2375-0.9016 4.8707-1.5982 0.0498-0.021 0.1023-0.017 0.15221-0.038h0.0381c0.0267-0.013 0.0493-0.027 0.0761-0.038 0.0232-0.013 0.0304 0 0.0381 0h0.0381c0.0128 0 0.0272-0.034 0.0381-0.038 0.0219-0.013 0.0134-0.028 0.0381-0.038 0.0492-0.02 0.1141-0.038 0.1141-0.038a1.207 1.207 0 0 0 0.0381 0c0.22662-0.1 0.48392-0.2323 0.72299-0.3424-0.24875 0.5971-0.65688 1.1343-0.72299 1.7883-0.17969 1.7872 0.34648 3.5592 1.484 4.9468 1.1216 1.3668 2.745 2.2283 4.4902 2.3973 0.8846 0.091 1.7352-0.1899 2.5876-0.4566 0.0366-0.012 0.0778 0.013 0.1141 0a1.207 1.207 0 0 0 0.68494 -0.076c3.5517-1.5829 6.5926-3.7447 9.0184-6.3927a1.207 1.207 0 0 0 0.0381 0c1.1502-1.2937 2.1148-2.7331 3.0061-4.2619 0.0219-0.03 0.0552-0.045 0.0761-0.076a1.207 1.207 0 0 0 0.1141 -0.2283 1.207 1.207 0 0 0 0.0381 -0.1145c0.0808-0.1335 0.19684-0.2515 0.26637-0.3805 0.88866-1.643 1.6259-3.3858 2.207-5.2133a1.207 1.207 0 0 0 0 -0.038l0.1141-0.4186c0.0153-0.022 0.0267-0.021 0.0381-0.038 0.0371-0.058 0.0571-0.1145 0.0761-0.1523 0.0499-0.098 0.0817-0.1851 0.1141-0.2664 0.065-0.1624 0.13038-0.3197 0.19027-0.4945 0.0684-0.2001 0.0721-0.2876 0.11409-0.4187a1.207 1.207 0 0 0 0.0381 -0.038c0.007-0.022 0.0327-0.06 0.0381-0.076a1.207 1.207 0 0 0 0.0381 -0.1145 1.207 1.207 0 0 0 0.0381 -0.076l1.5221-4.7947 0.0381-0.076c0.009-0.025-0.002-0.031 0-0.038 0.003-0.012-0.003-0.028 0-0.038 0.006-0.022 0.0273-0.042 0.0381-0.076 0.0215-0.069 0.0401-0.188 0.0761-0.3043 0.0127-0.042 0.0238-0.1065 0.0381-0.1523 0.0674 0.071 0.0782 0.1181 0.15222 0.1903 2.2845 2.2111 5.5363 2.804 8.1812 1.484 0.0257-0.013 0.0506-0.024 0.0761-0.038 0.0365-0.019 0.0779-0.019 0.1141-0.038 0.047-0.025 0.10565-0.013 0.1522-0.038 0.009 0 0.0378-0.038 0.0381-0.038a1.207 1.207 0 0 0 0.0381 -0.038 1.207 1.207 0 0 0 0.0761 -0.038 1.207 1.207 0 0 0 0.0381 0l0.26636-0.1903a1.207 1.207 0 0 0 0.0761 -0.076c0.0206-0.014 0.0551-0.023 0.0761-0.038a1.207 1.207 0 0 0 0 -0.038c0.1792-0.125 0.35945-0.2298 0.57079-0.4187 2.2427-1.9992 2.8146-5.2868 1.484-8.067-0.007-0.016-0.0307-0.022-0.0381-0.038-0.15914-0.3439-0.44091-0.6308-0.64689-0.9513 1.2721 0.3494 2.5531 0.6077 3.8813 0.6849l0.15221 0.038a1.207 1.207 0 0 0 0.11409 0h0.0381a1.207 1.207 0 0 0 0.0761 0.038c0.25033 0.017 0.35219-0.0007 0.38053 0 3.1685 0.078 6.2658-0.6339 9.2467-2.0548 0.0141 0 0.0244 0.011 0.0381 0 0.22654-0.1088 0.4356-0.2333 0.49467-0.2665 0.0265-0.013-0.002-0.019 0.0381-0.038h0.0381c0.4131-0.2068 0.81604-0.4538 1.2177-0.685 6.2611-3.6158 11.222-10.052 13.737-17.694 3.1529-9.5761 1.9628-19.777-3.3106-26.751l-0.03805-0.038-0.03805-0.076a1.207 1.207 0 0 0 -0.07611 -0.076c-0.0095-0.013-0.02849-0.025-0.03805-0.038a1.207 1.207 0 0 0 -0.03805 -0.038c-0.0036 0 0.01954-0.02 0-0.038-0.0059 0-0.02662-0.028-0.03805-0.038-0.0087-0.012-0.0181-0.021-0.03805-0.038-0.18408-0.2428-0.35388-0.5015-0.60884-0.7991-1.543-1.798-3.3592-3.2463-5.3654-4.2999a1.207 1.207 0 0 0 -0.03805 0l-0.07611-0.038-0.07611-0.038c-0.05763-0.035-0.04358-0.022-0.07611-0.038-0.0037 0 0.10523 0.024-0.03805-0.038-0.02071-0.013-0.06866-0.034-0.07611-0.038-0.0557-0.029-0.17852-0.086-0.30442-0.1523-0.03873-0.021-0.02446-0.051-0.07611-0.076a1.207 1.207 0 0 0 -0.03805 0 1.207 1.207 0 0 0 -0.03805 0c-0.0091 0-0.02798 0.011-0.03805 0-0.0067 0 0.0059-0.034 0-0.038a1.207 1.207 0 0 0 -0.03805 0c-0.01781-0.012 0.008-0.034 0-0.038a1.207 1.207 0 0 0 -0.07611 0l-0.03805-0.038c-0.0146-0.013-0.02445 0.012-0.03805 0-0.06679-0.034-0.10228-0.054-0.15221-0.076a1.207 1.207 0 0 0 -0.11416 -0.076c-0.02257-0.012-0.05309-0.028-0.07611-0.038a1.207 1.207 0 0 0 -0.03805 0 1.207 1.207 0 0 0 -0.07611 -0.038c-0.07223-0.029-0.08516-0.021-0.15221-0.038-0.15259-0.066-0.33954-0.053-0.49468-0.1146-1.4192-0.5575-2.9299-1.023-4.4902-1.1795h-0.0381zm-52.056 61.797c-0.00019 0.0008-1.1414-0.3809-1.1416-0.3805-0.00034 0.001 0.005 0.023 0 0.038-0.009 0.03-0.0381 0.076-0.0381 0.076v0.038l1.1796 0.2283z" fill="#f60"/>
   <path id="path5383" opacity=".6" d="m-25.043 970.53-0.0073-0.012h-0.0051c-0.0022-0.0008-0.0088-0.013-0.0131-0.013-0.22339-0.2961-0.46496-0.5958-0.75602-0.9356-1.4662-1.7086-3.174-3.0686-5.0695-4.0516l0.04875 0.025-0.15062-0.091c-0.0037 0-0.02328-0.012-0.04802-0.021-0.04585-0.028-0.09387-0.056-0.16445-0.093-0.13607-0.072-0.26122-0.1294-0.36164-0.1775-0.04438-0.02-0.08441-0.039-0.11498-0.054h-0.0095c-0.09095-0.044-0.10041-0.047-0.10041-0.047l-0.07276-0.035c-0.06767-0.035-0.179-0.096-0.32089-0.1579l-0.05675-0.024c-0.08438-0.034-0.1419-0.054-0.1419-0.054l-0.02472-0.013c-1.4393-0.6184-3.0175-1.0245-4.6409-1.1838-1.8468-0.2052-3.8194-0.096-5.8299 0.3281-0.0553 0.012-0.26996 0.057-0.26996 0.057-0.083 0.017-0.19064 0.045-0.28158 0.065l-1.1999-0.1099-0.17973-0.028c-0.74947-0.1205-1.4735-0.211-2.1524-0.2684-9.8224-1.2021-22.988 1.3417-29.392 20.34-0.52536 1.5599-1.814 5.8057-3.4439 11.182l-2.0723 6.8129c-6.6135 0.4504-11.284 1.9406-13.893 4.4414-1.0973 0.9562-1.7704 2.3154-1.8438 3.7597-0.0204 0.4084 0.0248 0.8238 0.10831 1.2538 0.29469 2.6631 2.5278 4.7756 5.2441 4.9319 1.6386 0.096 3.23-0.5179 4.3673-1.683l0.0575-0.046c-0.0494 0.052-0.0815 0.076-0.0822 0.076 0.19428-0.1449 0.90663-0.4578 2.3415-0.7715-0.0553 0.1777-0.24594 0.7816-0.24594 0.7816l-0.84115 2.6602-0.0409-0.081c0.003-0.012-2.025 6.0505-2.025 6.0505l-0.21757 0.6497-0.0655 0.1972c0.0124-0.034-0.0356 0.103-0.0356 0.103l-0.43367 1.2449 0.0104 0.017c-0.37401 1.0914-0.51589 1.4538-0.56829 1.5709-0.3791 0.8179-0.98304 1.5535-1.75 2.1291-0.7633 0.5552-1.7718 1.0144-3.051 1.3818l-0.40964 0.1134c-1.2181 0.3326-3.0597 0.8324-4.2742 2.5498-1.4116 2.0045-1.2908 4.6874 0.28888 6.5238 1.4189 1.6562 3.7241 2.349 6.1653 1.8505 1.611-0.3275 3.2875-0.8709 4.9814-1.6198 0.002 0 0.16153-0.072 0.16153-0.072 0.61267-0.2699 1.2617-0.5603 1.9086-0.9111 0.29397 0.2744 0.6003 0.5342 0.91974 0.7823-0.61851 0.8135-1.0027 1.7726-1.1053 2.7877-0.14843 1.4763 0.28525 2.9148 1.2188 4.0536 0.92264 1.1242 2.2244 1.822 3.6658 1.9616 0.94375 0.097 1.9093-0.061 2.7818-0.4612l-0.0145 0.029c3.417-1.523 6.3181-3.567 8.6218-6.0817 1.1133-1.2523 2.1029-2.6326 2.971-4.1337l-0.0349-0.025c0.15936-0.2249 0.30706-0.4511 0.43367-0.6861 0.85207-1.5755 1.5674-3.2657 2.1254-5.0208l0.23576-0.7408 0.0407-0.016c0.0859-0.024 0.49699-1.3193 0.49699-1.3193l0.0167-0.054 1.5601-4.905h0.005c0.002 0 0.78002-2.4602 0.78002-2.4602 0.0233-0.073 0.0472-0.1411 0.0706-0.2132 0.14408 0.1863 0.26195 0.3514 0.37983 0.5204 0.26121 0.3747 0.55737 0.7981 1.0565 1.2813 2.0607 1.9944 4.9116 2.4522 7.12 1.1599l-0.0305 0.021c0.0226-0.013 0.0371-0.023 0.0589-0.036 0.009-0.013 0.0204-0.013 0.0306-0.015l0.27795-0.1681 0.0684-0.069c0.008 0 0.0204-0.014 0.0262-0.017 0.14918-0.1 0.33181-0.2213 0.53626-0.4039 1.8438-1.6438 2.3095-4.3165 1.1722-6.6624-0.34053-0.7472-0.80769-1.4152-1.3964-1.9857-0.0553-0.054-0.10634-0.094-0.1608-0.1419-0.22557-0.2618-0.45986-0.5326-0.71599-0.8179-0.32745-0.3754-0.73129-0.8287-1.1933-1.3234 0.0604 0 0.12153 0.016 0.18191 0.023 0.46496 0.2641 0.92047 0.5071 1.3752 0.7138 2.0272 0.9233 4.1861 1.4459 6.42 1.5572h0.10045l0.1499 0.012c0.0872 0 0.21101 0.013 0.32016 0.013 2.9848 0.073 5.8902-0.5785 8.7302-1.9377 0.16228-0.075 0.30779-0.1587 0.41403-0.2184 0.0378-0.022 0.0786-0.044 0.0982-0.054 0.38055-0.1892 0.79967-0.4132 1.2079-0.6482 5.9594-3.4418 10.773-9.6508 13.204-17.035 3.0503-9.2644 1.8344-19.113-3.1718-25.702l-0.07568-0.098z" fill="#f60"/>
   <path id="path3108" d="m-50.552 1016.9c0.008 0.019 0.0138 0.039 0.0226 0.058 0.006 0.012 0.0153 0.022 0.0211 0.038l-0.0437-0.094z" fill="#fff"/>
   <path id="path3110" d="m-25.043 969.31-0.0073-0.012h-0.0051c-0.0022-0.0006-0.0088-0.012-0.0131-0.012-0.22339-0.2962-0.46496-0.5959-0.75602-0.9357-1.4662-1.7085-3.174-3.0685-5.0695-4.0515l0.04875 0.025-0.15062-0.091c-0.0037 0-0.02328-0.012-0.04802-0.021-0.04585-0.028-0.09387-0.055-0.16445-0.092-0.13607-0.072-0.26122-0.1295-0.36164-0.1776-0.04438-0.02-0.0844-0.039-0.11498-0.054h-0.0095c-0.09096-0.044-0.10041-0.048-0.10041-0.048l-0.07276-0.036c-0.06767-0.035-0.179-0.096-0.32089-0.1577l-0.05675-0.024c-0.08438-0.034-0.14188-0.054-0.14188-0.054l-0.02472-0.013c-1.4393-0.6185-3.0175-1.0245-4.6409-1.1839-1.8468-0.2052-3.8194-0.096-5.8299 0.3282-0.0553 0.012-0.26995 0.058-0.26995 0.058-0.083 0.017-0.19064 0.045-0.28161 0.065l-1.1999-0.1099-0.17972-0.028c-0.74948-0.1205-1.4735-0.2109-2.1524-0.2685-9.8224-1.202-22.988 1.3418-29.392 20.34-0.52537 1.5599-1.814 5.8057-3.4439 11.182l-2.0723 6.8129c-6.6135 0.4504-11.284 1.9406-13.893 4.4415-1.0973 0.9561-1.7704 2.3154-1.8438 3.7597-0.0204 0.4082 0.0248 0.8237 0.10832 1.2537 0.2947 2.6631 2.5278 4.7756 5.2441 4.9319 1.6386 0.096 3.23-0.518 4.3673-1.6829l0.0575-0.046c-0.0494 0.052-0.0815 0.076-0.0822 0.076 0.19428-0.1448 0.90664-0.4578 2.3416-0.7714-0.0553 0.1776-0.24595 0.7814-0.24595 0.7814l-0.84116 2.6603-0.0408-0.08c0.003-0.013-2.025 6.0503-2.025 6.0503l-0.21757 0.6497-0.0655 0.1973c0.0124-0.035-0.0356 0.103-0.0356 0.103l-0.43366 1.245 0.0104 0.017c-0.37401 1.0913-0.51591 1.4538-0.56829 1.5709-0.37911 0.8179-0.98304 1.5535-1.75 2.1291-0.76329 0.5552-1.7718 1.0144-3.051 1.3819l-0.40965 0.1134c-1.2181 0.3326-3.0598 0.8325-4.2742 2.5497-1.4116 2.0045-1.2908 4.6874 0.28886 6.5239 1.4189 1.6561 3.7241 2.3489 6.1653 1.8504 1.611-0.3275 3.2875-0.8709 4.9814-1.6196 0.002 0 0.16153-0.072 0.16153-0.072 0.61267-0.27 1.2617-0.5604 1.9086-0.9111 0.29396 0.2743 0.6003 0.5341 0.91973 0.7822-0.61849 0.8136-1.0027 1.7726-1.1053 2.7876-0.14844 1.4764 0.28523 2.9149 1.2188 4.0536 0.92264 1.1242 2.2244 1.8221 3.6658 1.9618 0.94376 0.097 1.9093-0.061 2.7818-0.4614l-0.0145 0.029c3.417-1.523 6.3181-3.5669 8.6218-6.0817 1.1133-1.2522 2.1029-2.6326 2.971-4.1336l-0.0349-0.025c0.15935-0.225 0.30707-0.4512 0.43366-0.6863 0.85207-1.5753 1.5674-3.2656 2.1254-5.0207l0.23575-0.7408 0.0409-0.016c0.0859-0.024 0.49699-1.3193 0.49699-1.3193l0.0167-0.054 1.5601-4.9051h0.005c0.002 0 0.78002-2.4601 0.78002-2.4601 0.0233-0.073 0.0472-0.1413 0.0706-0.2131 0.14408 0.1863 0.26196 0.3513 0.37983 0.5201 0.26122 0.3748 0.55738 0.7984 1.0565 1.2815 2.0607 1.9944 4.9116 2.4522 7.12 1.1598l-0.0305 0.021c0.0226-0.013 0.0371-0.022 0.0589-0.036 0.009-0.013 0.0204-0.013 0.0306-0.015l0.27795-0.1682 0.0684-0.069c0.008 0 0.0204-0.014 0.0262-0.017 0.14916-0.1 0.33181-0.2211 0.53627-0.4037 1.8438-1.6438 2.3095-4.3164 1.1722-6.6623-0.34053-0.7473-0.80769-1.4153-1.3964-1.9858-0.0553-0.054-0.10623-0.094-0.1608-0.1419-0.22556-0.2618-0.45986-0.5325-0.71599-0.8179-0.32745-0.3754-0.73129-0.8287-1.1933-1.3234 0.0604 0 0.12153 0.016 0.18191 0.023 0.46497 0.2641 0.92047 0.5072 1.3752 0.7138 2.0272 0.9234 4.1861 1.4457 6.42 1.5572h0.10045l0.1499 0.013c0.0873 0 0.21102 0.012 0.32016 0.012 2.9848 0.073 5.8903-0.5785 8.7302-1.9378 0.16227-0.075 0.30778-0.1586 0.41402-0.2182 0.0378-0.022 0.0786-0.044 0.0983-0.054 0.38056-0.1892 0.79967-0.4132 1.2079-0.6483 5.9594-3.4417 10.773-9.6507 13.204-17.035 3.0503-9.2643 1.8344-19.113-3.1718-25.702l-0.07568-0.098z" fill="#fff"/>
   <path id="path3112" d="m-95.81 1005.2c0.0139-0.015 0.0306-0.026 0.045-0.038 0.0407-0.036 0.0771-0.074 0.11932-0.1099l-0.16444 0.1477z" fill="#fff"/>
   <path id="path3135" d="m-79.811 1038.3c2.621 0.8025 5.4973 0.5142 7.9073-0.786 1.1875-0.6418 2.3648-1.496 3.0139-2.6945 0.78657-1.4552 1.4305-2.9876 1.9304-4.5629-3.516 0.8113-7.2662 0.4984-10.661-0.6847-3.3712-1.1759-6.9126-3.3247-8.5927-6.5947-0.23358 0.689-1.114 3.3974-1.4153 4.0472-0.5763 1.2442-1.4677 2.311-2.5642 3.1347-1.17 0.8513-2.5256 1.4116-3.9125 1.8089-1.1817 0.3383-2.4907 0.5725-3.2489 1.6451-0.69636 0.9895-0.65923 2.3423 0.13534 3.2649 0.89937 1.0494 2.3357 1.2429 3.6244 0.9796 1.5179-0.3078 3.0248-0.8231 4.4415-1.4474 1.2428-0.5487 2.5751-1.1134 3.5552-2.0869 0.74002 1.0572 1.6794 1.9669 2.7563 2.6762 0.53627 0.3515 1.1067 0.6542 1.702 0.8987 0.32961 0.1347 1.3483 0.406 1.3287 0.4018" fill="url(#linearGradient20987)"/>
   <path id="path3154" d="m-23.723 978.59c-1.2472-5.2944-4.3979-9.8567-8.7164-12.123-2.2833-1.199-4.8912-1.7586-7.7188-1.4444-0.2605 0.029-0.52173 0.066-0.78441 0.1111-0.17608 0.029-0.35144 0.065-0.52898 0.1007-0.0758 0.017-0.15427 0.03-0.23431 0.048-0.22338 0.05-0.45186 0.1076-0.68107 0.1665-0.0211 0.012-0.043 0.012-0.0655 0.02-0.24593 0.066-0.49697 0.139-0.74801 0.2213-1.368 0.4365-2.7745 1.071-4.2101 1.9369-3.9045 2.3561-6.9664 5.4639-9.2097 8.9559-0.10981 0.1717-0.21247 0.3484-0.32017 0.5217 1.0464-2.8626 2.45-4.8897 3.54-6.0461 1.9319-2.046 4.8002-4.4138 8.1707-5.7607-0.70217-0.1122-1.3607-0.1928-1.9603-0.2445-11.818-1.4436-21.596 3.5445-26.651 18.544-0.77494 2.2986-3.3238 10.831-6.0925 19.891-4.6882 0.2125-10.93 1.0595-13.892 3.8944-0.60905 0.492-1.0165 1.218-1.066 2.0484-0.0938 1.5919 1.1562 2.9593 2.7898 3.053 0.90664 0.051 1.7383-0.2953 2.3183-0.8877h0.005c0.96267-1.0434 4.2472-1.7775 8.0026-2.1225-0.0976 0.3137-0.19428 0.625-0.28888 0.9365-0.3216 1.0107-0.64104 2.0207-0.95757 3.0321-0.43804 1.3906-0.87316 2.7817-1.317 4.1701-0.22047 0.692-0.44458 1.3862-0.66942 2.0781-0.0611 1.9443 1.1453 3.9563 3.4199 5.6763 3.4956 2.6436 9.805 4.6468 15.406 2.8038 0.61849-1.9472 1.4436-4.5449 2.3575-7.4133h0.003c0.50645-1.6016 1.0471-2.9754 1.6088-4.1556 1.0485 0.951 2.0869 1.9981 3.0044 3.0088 0.58502 0.7392 0.74802 1.1256 1.2676 1.6292 1.408 1.3621 3.3028 1.5695 4.5186 0.3347 1.2144-1.2325 1.0609-3.3362-0.3449-4.699-0.067-0.065-0.1368-0.1245-0.20811-0.1827-1.0289-1.205-2.7672-3.1194-4.8228-4.9094 2.4754-2.1516 4.9945-1.9851 6.834-1.3505 0.0233 0.014 0.0429 0.028 0.0648 0.04 4.4364 2.5984 9.4746 2.3823 14.039 0.2008 3.7379-1.7856 6.9883-4.8118 9.4702-8.4865 2.2659-3.3558 3.8798-7.2356 4.7122-11.244 0.85571-4.1359 0.88481-8.4174-0.04512-12.357zm-5.5177 22.063c-4.6751 6.6769-12.789 10.235-18.923 5.5971-9.0955-6.8784-7.7072-24.604 3.9016-32.902 8.6611-6.1943 16.656-1.2703 18.932 7.0625 1.742 6.3765 0.06621 14.562-3.9103 20.242z" fill="url(#linearGradient20989)"/>
   <path id="path3167" d="m-79.811 1038.3c-0.56757 0.3353-1.1664 0.6628-1.8344 0.9683-0.10265 0.035-0.2001 0.08-0.29616 0.1245-0.38711 0.2298-0.73782 0.4934-1.0245 0.8179-0.32163 0.4132-0.53772 0.9189-0.59448 1.4799-0.15718 1.5659 0.96412 2.9586 2.5045 3.1093 0.50425 0.05 0.98958-0.038 1.4203-0.2351l0.008 0.019c3.4919-1.5551 5.9776-3.5218 7.7465-5.4508 1.0034-1.1308 1.8744-2.3634 2.6297-3.6688-2.5977 2.7935-6.6637 4.0261-10.56 2.8364z" fill="url(#linearGradient20991)"/>
   <path id="path3180" d="m-79.811 1038.3c-0.56757 0.3353-1.1664 0.6628-1.8344 0.9683-0.10265 0.035-0.2001 0.08-0.29616 0.1245-0.38711 0.2298-0.73782 0.4934-1.0245 0.8179-0.32163 0.4132-0.53772 0.9189-0.59448 1.4799-0.15718 1.5659 0.96412 2.9586 2.5045 3.1093 0.50425 0.05 0.98958-0.038 1.4203-0.2351l0.008 0.019c3.4919-1.5551 5.9776-3.5218 7.7465-5.4508 1.0034-1.1308 1.8744-2.3634 2.6297-3.6688-2.5977 2.7935-6.6637 4.0261-10.56 2.8364z" fill="url(#linearGradient20993)"/>
   <path id="path3193" d="m-92.288 1012c0.86009 0.044 1.6488-0.2932 2.1938-0.8585h0.006c1.4247-1.5667 8.2886-2.4559 13.805-2.303l0.27287 0.013c0.001 0 0.2714-0.044 0.2714-0.044s1.4568-1.2327 1.0936-3.252c-0.36236-2.0191-1.4822-2.2433-1.4822-2.2433-3.2067-0.091-13.795-0.068-17.836 3.8551-0.57484 0.4716-0.95612 1.1642-0.99688 1.9538-0.0778 1.5126 1.1198 2.8028 2.6719 2.88z" fill="url(#linearGradient20995)"/>
   <path id="path3206" d="m-53.64 1017.1c-0.0641-0.066-0.13171-0.1288-0.20157-0.1856-1.2784-1.5622-3.6949-4.3011-6.4913-6.4855-0.61922 1.9508-1.2646 3.9837-1.9013 5.9878 1.0398 0.9816 2.0672 2.0527 2.971 3.0902 0.56247 0.7429 0.71237 1.1227 1.2232 1.6365 1.3738 1.3803 3.2911 1.6706 4.5718 0.5284 1.2792-1.1417 1.2035-3.1893-0.17173-4.5718z" fill="url(#linearGradient20997)"/>
   <g id="g3208" transform="matrix(.72764 0 0 .72764 -150.54 869.72)">
    <g id="g3210">
     <path id="path3223" d="m173.48 171.2c-6.066 18.417-22.996 29.434-37.141 22.992-13.995-6.372-18.005-26.599-9.819-43.702 7.471-15.623 22.702-23.197 34.678-18.066 12.077 5.179 17.815 21.979 12.282 38.776z" fill="url(#radialGradient20999)"/>
     <path id="path3240" d="m173.44 171.21c-6.034 18.341-22.859 29.278-36.93 22.872-13.924-6.337-17.989-26.464-9.914-43.532 7.385-15.642 22.567-23.264 34.547-18.128 12.079 5.181 17.816 22.009 12.297 38.788z" fill="url(#linearGradient21001)"/>
     <path id="path3257" d="m173.41 171.23c-6.001 18.265-22.723 29.122-36.719 22.752-13.853-6.303-17.973-26.33-10.008-43.363 7.299-15.662 22.432-23.331 34.416-18.191 12.081 5.187 17.817 22.041 12.311 38.802z" fill="url(#linearGradient21003)"/>
     <path id="path3274" d="m173.37 171.24c-5.968 18.188-22.585 28.966-36.508 22.632-13.782-6.268-17.957-26.195-10.103-43.193 7.213-15.681 22.296-23.397 34.284-18.253 12.084 5.19 17.819 22.071 12.327 38.814z" fill="url(#linearGradient21005)"/>
     <path id="path3291" d="m173.34 171.25c-5.936 18.112-22.449 28.81-36.298 22.512-13.71-6.233-17.94-26.061-10.197-43.024 7.127-15.7 22.161-23.464 34.153-18.315 12.087 5.194 17.821 22.101 12.342 38.827z" fill="url(#linearGradient21007)"/>
     <path id="path3308" d="m173.3 171.27c-5.903 18.036-22.312 28.654-36.087 22.392-13.64-6.198-17.924-25.926-10.292-42.854 7.041-15.719 22.026-23.531 34.021-18.378 12.09 5.197 17.823 22.131 12.358 38.84z" fill="url(#linearGradient21009)"/>
     <path id="path3325" d="m173.26 171.28c-5.871 17.96-22.175 28.498-35.876 22.272-13.569-6.164-17.908-25.791-10.387-42.686 6.955-15.738 21.891-23.597 33.891-18.44 12.092 5.202 17.824 22.162 12.372 38.854z" fill="url(#linearGradient21011)"/>
     <path id="path3342" d="m173.23 171.29c-5.837 17.884-22.038 28.342-35.666 22.152-13.498-6.129-17.892-25.656-10.481-42.516 6.869-15.757 21.755-23.664 33.759-18.502 12.095 5.205 17.826 22.192 12.388 38.866z" fill="url(#linearGradient21013)"/>
     <path id="path3359" d="m173.2 171.31c-5.805 17.808-21.902 28.186-35.455 22.033-13.427-6.095-17.876-25.522-10.577-42.347 6.784-15.777 21.621-23.731 33.628-18.564 12.098 5.208 17.828 22.222 12.404 38.878z" fill="url(#linearGradient21015)"/>
     <path id="path3376" d="m173.16 171.32c-5.772 17.731-21.765 28.03-35.244 21.913-13.356-6.06-17.86-25.387-10.671-42.177 6.698-15.796 21.485-23.797 33.497-18.626 12.1 5.211 17.83 22.252 12.418 38.89z" fill="url(#linearGradient21017)"/>
     <path id="path3393" d="m173.12 171.33c-5.74 17.655-21.628 27.874-35.033 21.793-13.285-6.025-17.844-25.252-10.766-42.008 6.612-15.815 21.35-23.864 33.366-18.689 12.103 5.215 17.831 22.282 12.433 38.904z" fill="url(#linearGradient21019)"/>
     <path id="path3410" d="m173.09 171.35c-5.708 17.579-21.491 27.718-34.823 21.673-13.214-5.99-17.828-25.118-10.861-41.838 6.526-15.834 21.215-23.931 33.234-18.751 12.106 5.218 17.834 22.312 12.45 38.916z" fill="url(#linearGradient21021)"/>
     <path id="path3427" d="m173.05 171.36c-5.674 17.503-21.354 27.562-34.612 21.553-13.143-5.956-17.811-24.983-10.955-41.669 6.44-15.854 21.08-23.997 33.103-18.813 12.109 5.222 17.836 22.342 12.464 38.929z" fill="url(#linearGradient21023)"/>
     <path id="path3442" d="m173.02 171.37c-5.642 17.427-21.217 27.405-34.401 21.433-13.072-5.921-17.795-24.848-11.05-41.5 6.354-15.873 20.944-24.064 32.972-18.876 12.111 5.227 17.837 22.374 12.479 38.943z" fill="url(#linearGradient21025)"/>
     <path id="path3457" d="m172.98 171.38c-5.609 17.351-21.081 27.25-34.191 21.313-13.001-5.886-17.779-24.714-11.145-41.331 6.268-15.892 20.809-24.131 32.84-18.938 12.114 5.231 17.839 22.405 12.496 38.956z" fill="url(#linearGradient21027)"/>
     <path id="path3472" d="m172.95 171.4c-5.577 17.274-20.944 27.093-33.98 21.193-12.93-5.852-17.763-24.579-11.239-41.161 6.182-15.911 20.674-24.197 32.709-19 12.116 5.234 17.841 22.435 12.51 38.968z" fill="url(#linearGradient21029)"/>
     <path id="path3487" d="m172.91 171.41c-5.543 17.198-20.807 26.938-33.769 21.074-12.859-5.817-17.746-24.444-11.334-40.992 6.097-15.931 20.539-24.264 32.578-19.063 12.119 5.237 17.843 22.465 12.525 38.981z" fill="url(#linearGradient21031)"/>
     <path id="path3502" d="m172.88 171.42c-5.511 17.122-20.67 26.781-33.558 20.954-12.788-5.782-17.73-24.31-11.429-40.822 6.011-15.95 20.404-24.331 32.447-19.125 12.121 5.24 17.844 22.494 12.54 38.993z" fill="url(#linearGradient21033)"/>
     <path id="path3517" d="m172.84 171.44c-5.479 17.045-20.533 26.625-33.348 20.834-12.717-5.748-17.714-24.175-11.523-40.653 5.925-15.969 20.269-24.397 32.315-19.187 12.124 5.244 17.846 22.525 12.556 39.006z" fill="url(#linearGradient21035)"/>
     <path id="path3532" d="m172.8 171.45c-5.446 16.969-20.396 26.469-33.137 20.714-12.646-5.713-17.698-24.04-11.618-40.483 5.839-15.989 20.133-24.464 32.184-19.249 12.127 5.247 17.848 22.555 12.571 39.018z" fill="url(#linearGradient21037)"/>
     <path id="path3547" d="m172.77 171.46c-5.413 16.893-20.259 26.313-32.926 20.594-12.575-5.678-17.681-23.906-11.712-40.314 5.753-16.008 19.998-24.531 32.053-19.312 12.129 5.252 17.849 22.586 12.585 39.032z" fill="url(#linearGradient21039)"/>
     <path id="path3562" d="m172.73 171.48c-5.38 16.817-20.123 26.157-32.716 20.474-12.504-5.643-17.665-23.771-11.807-40.145 5.667-16.027 19.863-24.597 31.921-19.374 12.133 5.255 17.852 22.616 12.602 39.045z" fill="url(#linearGradient21041)"/>
     <path id="path3577" d="m172.7 171.49c-5.348 16.741-19.986 26.001-32.505 20.354-12.433-5.609-17.649-23.637-11.902-39.976 5.581-16.046 19.728-24.664 31.79-19.436 12.135 5.259 17.853 22.647 12.617 39.058z" fill="url(#linearGradient21043)"/>
     <path id="path3592" d="m172.66 171.5c-5.315 16.665-19.849 25.845-32.294 20.234-12.362-5.574-17.633-23.501-11.997-39.806 5.495-16.065 19.592-24.73 31.659-19.498 12.138 5.262 17.855 22.676 12.632 39.07z" fill="url(#linearGradient21045)"/>
     <path id="path3607" d="m172.63 171.52c-5.283 16.588-19.712 25.689-32.083 20.115-12.292-5.54-17.617-23.367-12.092-39.637 5.41-16.085 19.458-24.798 31.528-19.561 12.14 5.266 17.856 22.707 12.647 39.083z" fill="url(#linearGradient21047)"/>
     <path id="path3622" d="m172.59 171.53c-5.25 16.512-19.575 25.533-31.873 19.995-12.22-5.504-17.601-23.232-12.187-39.467 5.324-16.104 19.322-24.864 31.396-19.623 12.145 5.269 17.86 22.737 12.664 39.095z" fill="url(#linearGradient21049)"/>
     <path id="path3637" d="m172.56 171.54c-5.217 16.436-19.438 25.377-31.662 19.875-12.149-5.47-17.584-23.098-12.281-39.298 5.238-16.123 19.187-24.931 31.266-19.685 12.146 5.273 17.86 22.768 12.677 39.108z" fill="url(#linearGradient21051)"/>
     <path id="path3650" d="m172.52 171.56c-5.185 16.36-19.302 25.221-31.451 19.755-12.079-5.435-17.568-22.963-12.376-39.128 5.152-16.143 19.052-24.998 31.134-19.747 12.149 5.275 17.862 22.796 12.693 39.12z" fill="url(#linearGradient21053)"/>
     <path id="path3663" d="m172.48 171.57c-5.152 16.284-19.165 25.065-31.241 19.635-12.007-5.401-17.552-22.829-12.47-38.959 5.066-16.162 18.917-25.064 31.003-19.81 12.15 5.28 17.863 22.828 12.708 39.134z" fill="url(#linearGradient21055)"/>
     <path id="path3676" d="m172.45 171.58c-5.119 16.208-19.028 24.909-31.03 19.515-11.936-5.366-17.536-22.694-12.565-38.79 4.98-16.181 18.781-25.131 30.872-19.872 12.154 5.284 17.866 22.858 12.723 39.147z" fill="url(#linearGradient21057)"/>
     <path id="path3689" d="m172.41 171.6c-5.086 16.131-18.892 24.753-30.819 19.396-11.865-5.332-17.52-22.559-12.66-38.621 4.894-16.2 18.646-25.198 30.74-19.934 12.156 5.288 17.867 22.888 12.739 39.159z" fill="url(#linearGradient21059)"/>
     <path id="path3696" d="m172.38 171.61c-5.054 16.055-18.754 24.597-30.608 19.275-11.794-5.296-17.503-22.424-12.754-38.451 4.808-16.219 18.511-25.264 30.609-19.996 12.158 5.292 17.868 22.919 12.753 39.172z" fill="url(#linearGradient21061)"/>
    </g>
   </g>
   <g id="g3698" transform="matrix(.72764 0 0 .72764 -150.54 869.72)">
    <path id="path3705" d="m173.43 171.12c-5.866 18.006-22.17 28.784-35.066 22.997-12.833-5.761-16.029-25.442-7.991-42.314 7.276-15.275 20.611-23.793 31.373-19.106 10.804 4.703 17.343 21.18 11.684 38.423z" fill="url(#linearGradient21063)"/>
    <path id="path3718" d="m173.38 171.18c-5.875 17.927-22.109 28.601-34.94 22.809-12.754-5.759-15.965-25.325-8.007-42.12 7.222-15.252 20.551-23.762 31.32-19.078 10.825 4.707 17.303 21.196 11.627 38.389z" fill="url(#linearGradient21065)"/>
    <path id="path3731" d="m173.33 171.25c-5.885 17.848-22.048 28.418-34.813 22.621-12.677-5.756-15.903-25.208-8.024-41.925 7.168-15.229 20.492-23.732 31.268-19.05 10.847 4.711 17.262 21.212 11.569 38.354z" fill="url(#linearGradient21067)"/>
    <path id="path3746" d="m173.28 171.31c-5.894 17.77-21.987 28.235-34.687 22.434-12.599-5.754-15.839-25.09-8.04-41.731 7.114-15.207 20.432-23.701 31.215-19.021 10.868 4.713 17.222 21.226 11.512 38.318z" fill="url(#linearGradient21069)"/>
    <path id="path3761" d="m173.23 171.38c-5.903 17.691-21.925 28.052-34.561 22.246-12.521-5.751-15.776-24.973-8.057-41.536 7.061-15.184 20.372-23.671 31.163-18.994 10.889 4.718 17.182 21.243 11.455 38.284z" fill="url(#linearGradient21071)"/>
    <path id="path3776" d="m173.18 171.44c-5.913 17.612-21.864 27.869-34.434 22.058-12.444-5.75-15.713-24.855-8.073-41.342 7.007-15.161 20.312-23.64 31.11-18.965 10.911 4.722 17.141 21.259 11.397 38.249z" fill="url(#linearGradient21073)"/>
    <path id="path3791" d="m173.13 171.5c-5.922 17.534-21.803 27.687-34.308 21.871-12.366-5.747-15.65-24.738-8.089-41.147 6.953-15.138 20.252-23.61 31.058-18.938 10.931 4.726 17.1 21.274 11.339 38.214z" fill="url(#linearGradient21075)"/>
    <path id="path3806" d="m173.08 171.57c-5.931 17.455-21.742 27.504-34.182 21.683-12.288-5.745-15.587-24.621-8.106-40.953 6.899-15.115 20.192-23.579 31.005-18.909 10.954 4.729 17.062 21.29 11.283 38.179z" fill="url(#linearGradient21077)"/>
    <path id="path3821" d="m173.03 171.63c-5.94 17.376-21.68 27.321-34.055 21.495-12.21-5.742-15.524-24.503-8.122-40.757 6.845-15.093 20.132-23.549 30.953-18.881 10.975 4.732 17.02 21.304 11.224 38.143z" fill="url(#linearGradient21079)"/>
    <path id="path3838" d="m172.98 171.7c-5.95 17.298-21.619 27.138-33.929 21.308-12.132-5.74-15.46-24.386-8.138-40.563 6.791-15.07 20.073-23.519 30.9-18.854 10.996 4.736 16.98 21.32 11.167 38.109z" fill="url(#linearGradient21081)"/>
    <path id="path3855" d="m172.94 171.76c-5.959 17.219-21.558 26.955-33.803 21.12-12.055-5.737-15.398-24.268-8.155-40.368 6.737-15.047 20.013-23.488 30.848-18.825 11.018 4.739 16.939 21.335 11.11 38.073z" fill="url(#linearGradient21083)"/>
    <path id="path3872" d="m172.88 171.83c-5.968 17.14-21.496 26.772-33.676 20.932-11.977-5.735-15.334-24.151-8.171-40.174 6.683-15.025 19.953-23.458 30.795-18.797 11.039 4.743 16.899 21.351 11.052 38.039z" fill="url(#linearGradient21085)"/>
    <path id="path3889" d="m172.84 171.89c-5.978 17.062-21.435 26.589-33.55 20.745-11.899-5.733-15.271-24.034-8.188-39.979 6.63-15.002 19.893-23.427 30.743-18.769 11.06 4.746 16.858 21.366 10.995 38.003z" fill="url(#linearGradient21087)"/>
    <path id="path3906" d="m172.79 171.96c-5.987 16.983-21.374 26.406-33.424 20.557-11.822-5.73-15.208-23.916-8.204-39.785 6.576-14.979 19.833-23.396 30.69-18.741 11.082 4.749 16.819 21.382 10.938 37.969z" fill="url(#linearGradient21089)"/>
    <path id="path3923" d="m172.74 172.02c-5.996 16.904-21.313 26.223-33.297 20.369-11.744-5.728-15.145-23.799-8.22-39.59 6.522-14.957 19.773-23.366 30.638-18.713 11.102 4.753 16.777 21.398 10.879 37.934z" fill="url(#linearGradient21091)"/>
    <path id="path3940" d="m172.69 172.08c-6.005 16.825-21.251 26.04-33.171 20.181-11.666-5.726-15.082-23.681-8.237-39.396 6.468-14.934 19.713-23.335 30.585-18.685 11.125 4.758 16.738 21.415 10.823 37.9z" fill="url(#linearGradient21093)"/>
    <path id="path3957" d="m172.64 172.15c-6.015 16.747-21.19 25.857-33.045 19.994-11.588-5.723-15.019-23.564-8.253-39.201 6.414-14.911 19.654-23.305 30.533-18.657 11.145 4.761 16.697 21.43 10.765 37.864z" fill="url(#linearGradient21095)"/>
    <path id="path3976" d="m172.59 172.21c-6.024 16.668-21.129 25.674-32.918 19.806-11.511-5.721-14.956-23.446-8.27-39.006 6.36-14.888 19.594-23.274 30.48-18.628 11.167 4.763 16.656 21.444 10.708 37.828z" fill="url(#linearGradient21097)"/>
    <path id="path3995" d="m172.54 172.28c-6.033 16.589-21.067 25.492-32.792 19.619-11.433-5.718-14.893-23.329-8.286-38.812 6.306-14.865 19.534-23.244 30.427-18.601 11.189 4.768 16.617 21.461 10.651 37.794z" fill="url(#linearGradient21099)"/>
    <path id="path4014" d="m172.49 172.34c-6.042 16.511-21.006 25.309-32.666 19.431-11.355-5.716-14.83-23.211-8.302-38.617 6.252-14.842 19.474-23.213 30.375-18.572 11.209 4.77 16.575 21.475 10.593 37.758z" fill="url(#linearGradient21101)"/>
    <path id="path4033" d="m172.44 172.41c-6.052 16.432-20.945 25.125-32.54 19.243-11.277-5.714-14.767-23.094-8.319-38.423 6.199-14.819 19.415-23.183 30.323-18.544 11.231 4.775 16.536 21.492 10.536 37.724z" fill="url(#linearGradient21103)"/>
    <path id="path4052" d="m172.39 172.47c-6.061 16.354-20.884 24.942-32.413 19.056-11.199-5.711-14.703-22.977-8.335-38.229 6.145-14.797 19.354-23.152 30.27-18.516 11.253 4.778 16.496 21.507 10.478 37.689z" fill="url(#linearGradient21105)"/>
    <path id="path4071" d="m172.34 172.54c-6.07 16.274-20.822 24.76-32.287 18.868-11.122-5.709-14.641-22.859-8.352-38.034 6.091-14.774 19.294-23.122 30.217-18.488 11.275 4.782 16.456 21.523 10.422 37.654z" fill="url(#linearGradient21107)"/>
    <path id="path4090" d="m172.29 172.6c-6.08 16.196-20.761 24.577-32.161 18.68-11.044-5.707-14.577-22.742-8.368-37.839 6.037-14.751 19.235-23.091 30.165-18.46 11.295 4.785 16.415 21.538 10.364 37.619z" fill="url(#linearGradient21109)"/>
    <path id="path4109" d="m172.24 172.66c-6.089 16.117-20.7 24.394-32.034 18.492-10.966-5.704-14.514-22.625-8.384-37.644 5.983-14.729 19.175-23.061 30.112-18.432 11.317 4.789 16.374 21.553 10.306 37.584z" fill="url(#linearGradient21111)"/>
    <path id="path4128" d="m172.19 172.73c-6.098 16.039-20.639 24.21-31.908 18.305-10.889-5.702-14.451-22.507-8.4-37.45 5.929-14.706 19.115-23.03 30.06-18.404 11.337 4.793 16.333 21.57 10.248 37.549z" fill="url(#linearGradient21113)"/>
    <path id="path4147" d="m172.14 172.79c-6.107 15.96-20.578 24.028-31.782 18.117-10.811-5.699-14.388-22.39-8.417-37.255 5.875-14.683 19.055-23 30.007-18.376 11.361 4.797 16.295 21.585 10.192 37.514z" fill="url(#linearGradient21115)"/>
    <path id="path4168" d="m172.09 172.86c-6.117 15.881-20.516 23.845-31.655 17.93-10.733-5.697-14.325-22.272-8.433-37.061 5.821-14.661 18.995-22.969 29.955-18.348 11.38 4.8 16.252 21.6 10.133 37.479z" fill="url(#linearGradient21117)"/>
    <path id="path4189" d="m172.04 172.92c-6.126 15.803-20.455 23.662-31.529 17.742-10.655-5.694-14.262-22.155-8.45-36.866 5.768-14.638 18.936-22.939 29.902-18.32 11.403 4.804 16.214 21.616 10.077 37.444z" fill="url(#linearGradient21119)"/>
    <path id="path4210" d="m172 172.99c-6.135 15.724-20.394 23.479-31.403 17.554-10.577-5.692-14.198-22.038-8.466-36.671 5.713-14.615 18.875-22.908 29.85-18.292 11.424 4.806 16.173 21.631 10.019 37.409z" fill="url(#linearGradient21121)"/>
    <path id="path4231" d="m171.94 173.05c-6.145 15.645-20.332 23.296-31.276 17.366-10.5-5.689-14.136-21.92-8.482-36.477 5.66-14.592 18.816-22.878 29.797-18.264 11.445 4.811 16.132 21.648 9.961 37.375z" fill="url(#linearGradient21123)"/>
    <path id="path4250" d="m171.9 173.12c-6.154 15.566-20.271 23.113-31.15 17.179-10.422-5.688-14.072-21.803-8.499-36.282 5.605-14.569 18.756-22.847 29.745-18.235 11.466 4.812 16.092 21.661 9.904 37.338z" fill="url(#linearGradient21125)"/>
   </g>
   <path id="path4277" d="m-43.607 1006.2c3.1543 0.2584 6.2592-0.9174 8.7957-2.7307 1.8678-1.3331 3.4599-2.9813 4.6918-4.8716 0.0095-0.013 0.01455-0.023 0.02328-0.035 0.24376-0.3748 0.47224-0.759 0.68908-1.1518 0.0015-0.013 0.0051-0.014 0.0088-0.018 0.43294-0.7954 0.80477-1.6277 1.1104-2.4922 1.3876-3.9132 1.7922-8.0789 0.91246-12.159-0.78149-3.6172-2.6777-7.1113-5.704-9.321-1.4436-1.0528-3.0052-1.6991-4.7973-1.8126-2.0185-0.1295-4.0253 0.3755-5.8364 1.253-0.21247 0.1382-0.42421 0.278-0.63524 0.4301-6.6928 4.7835-9.981 12.7-9.829 19.865 0.24231 4.1744 1.7827 8.0216 4.67 10.619 1.6903 1.3432 3.7132 2.2448 5.9004 2.4245z" fill="url(#linearGradient21127)"/>
   <path id="path4279" d="m-39.308 988.85c0.43659-2.8123-0.37982-5.0972-1.937-4.9836-1.6837 0.1231-3.4585 2.9484-3.815 6.1529-0.3369 3.0518 0.79168 4.977 2.3896 4.4677 1.4902-0.4774 2.9477-2.9418 3.3624-5.637z" fill="#1c86ee"/>
   <path id="path4281" d="m-32.203 988.2c-0.16663-0.053-0.43294-0.089-0.74218 0.07-1.0558 0.5267-1.937 3.1905-2.1029 3.721-0.23211 0.7466-0.9503 3.2591-0.34418 4.1869 0.16009 0.2423 0.39367 0.3922 0.66216 0.4293 0.66724 0.09 1.1497-0.5333 1.4531-1.0078 0.17609-0.275 0.35727-0.6098 0.53409-0.9925 0.2554-0.5464 0.49916-1.1795 0.69926-1.8249 0.48097-1.5339 1.1016-4.1694-0.15936-4.5812z" fill="#1c86ee"/>
   <path id="path4313" d="m-25.473 980.32c-1.13-4.1352-3.6702-7.4206-7.0006-8.9361 1.9574 1.2893 3.5611 3.2292 4.6445 5.6006 0.38128 0.8244 0.7029 1.7005 0.95321 2.618 1.3585 4.9735 0.63305 11.041-1.6365 16.168 0.09896-0.2778 0.1921-0.5581 0.28233-0.8427-0.09387 0.2345-0.18992 0.4665-0.29106 0.6935 0.0073-0.014 0.01455-0.024 0.01965-0.038-0.71673 1.9762-1.6801 3.8485-2.8604 5.493-3.0263 4.2238-7.5835 7.0922-12.024 7.1075 5.0775 0.6214 10.502-2.6253 14.003-7.622 3.9773-5.6807 5.6523-13.866 3.9103-20.243z" fill="url(#linearGradient21129)"/>
   <path id="path4328" d="m-31.085 972.4c-0.91028-0.7961-1.8591-1.3986-3.0372-1.6925-1.2523-0.3129-2.5453-0.366-3.8216-0.1973-2.0862 0.2765-4.0537 1.1671-5.7891 2.3329 1.8169-0.8833 3.8303-1.3912 5.856-1.261 1.7922 0.1134 3.3537 0.7588 4.7973 1.8126 3.0263 2.2097 4.9225 5.7039 5.704 9.321 0.87972 4.08 0.47515 8.2456-0.91246 12.159-0.30488 0.8645-0.67743 1.6969-1.1104 2.4923-0.0037 0.012-0.0073 0.014-0.0088 0.018-0.21684 0.3928-0.44532 0.7778-0.68908 1.1518-0.0088 0.013-0.01382 0.022-0.02328 0.035-1.2319 1.891-2.824 3.5391-4.6918 4.8715-2.5373 1.8133-5.6414 2.9891-8.7957 2.7307-2.1873-0.1797-4.2101-1.0813-5.9004-2.4252-3.166-2.8487-4.7311-7.1948-4.718-11.834-0.18481 5.7236 1.774 11.115 5.923 14.25 1.5419 1.1671 3.2111 1.8148 4.9174 2.0244 2.7658-0.013 5.5781-1.125 8.0361-2.9863 3.6069-2.642 6.2737-6.7968 7.6097-10.881 2.2746-6.9612 2.6719-16.66-3.3457-21.922z" fill="url(#linearGradient21131)"/>
  </g>
  <path id="rect5265-0" d="m5.4316 1029.8v5.0663c0 6.668 5.3645 12.032 12.032 12.032h61.049c6.668 0 12.032-5.3645 12.032-12.032v-5.0663c0 6.6681-5.3645 12.032-12.032 12.032h-61.049c-6.668 0-12.032-5.3643-12.032-12.032z" fill-opacity=".23529"/>
  <path id="path5252-0" d="m5.4316 1033.9v1.0133c0 6.668 5.3645 12.032 12.032 12.032h61.049c6.668 0 12.032-5.3645 12.032-12.032v-1.0133c0 6.6681-5.3645 12.032-12.032 12.032h-61.049c-6.668 0-12.032-5.3644-12.032-12.032z" fill-opacity=".098039"/>
  <g id="layer5" transform="translate(-95.023 954.86)">
   <rect id="rect3171" height="66" stroke="#fff" stroke-linecap="round" stroke-width=".5" fill="url(#linearGradient3613-7)" rx="12" ry="12" width="66" opacity=".1" clip-path="url(#clipPath3613-22)" filter="url(#filter3794-3)" y="15" x="15"/>
  </g>
  <rect id="rect3873" rx="6" ry="6" height="84" width="84" display="none" y="947.34" x="107.91" fill="url(#linearGradient4982)"/>
  <rect id="rect3880" rx="6" ry="6" height="84" width="84" display="none" y="947.34" x="107.91" fill="url(#linearGradient4982)"/>
 </g>
</svg>
