<?xml version="1.0" encoding="UTF-8" standalone="no"?>
<!-- Created with Inkscape (http://www.inkscape.org/) -->
<svg id="svg2" xmlns:rdf="http://www.w3.org/1999/02/22-rdf-syntax-ns#" xmlns="http://www.w3.org/2000/svg" height="96" width="96" version="1.1" xmlns:cc="http://creativecommons.org/ns#" xmlns:xlink="http://www.w3.org/1999/xlink" xmlns:dc="http://purl.org/dc/elements/1.1/">
 <defs id="defs4">
  <linearGradient id="linearGradient6400" y2="2.9934" gradientUnits="userSpaceOnUse" x2="47.995" y1="84.031" x1="47.995">
   <stop id="stop6396" stop-color="#ccc" offset="0"/>
   <stop id="stop6398" stop-color="#dae0de" offset="1"/>
  </linearGradient>
  <radialGradient id="radialGradient4635" gradientUnits="userSpaceOnUse" cy="-15.871" cx="56.066" gradientTransform="matrix(-.0022616 -1.0568 1.3856 0 10.224 1077.8)" r="35.938">
   <stop id="stop3177-6" stop-color="#4490e6" offset="0"/>
   <stop id="stop3179-3" stop-color="#103d8f" offset="1"/>
  </radialGradient>
  <clipPath id="clipPath4637" clipPathUnits="userSpaceOnUse">
   <rect id="rect4639" opacity=".75104" ry="7.1631" height="56" width="69.679" y="971.67" x="-46.872" fill="url(#linearGradient4641)"/>
  </clipPath>
  <linearGradient id="linearGradient4641" y2="975.65" gradientUnits="userSpaceOnUse" x2="3468.4" gradientTransform="matrix(.31367 0 0 .31367 -1073 514.25)" y1="1636.7" x1="3382.6">
   <stop id="stop4911" stop-color="#1a1a1a" offset="0"/>
   <stop id="stop4913" stop-color="#7a7a7a" offset="1"/>
  </linearGradient>
  <clipPath id="clipPath4038">
   <path id="path4040" d="m-76 14v64h68v-64h-68zm34 12c6.5074 0 11.781 4.9455 11.781 11.031-0.02598 0.76483-0.09415 1.6051-0.15625 2.5 0.88909 0.6687 0.99735 2.6592 0.125 4.7188-0.31486 0.74336-0.72972 1.3526-1.1562 1.875-0.13796 0.64609-0.22861 1.1538-0.40625 1.9062-0.48333 1.4529-2.3681 4.3299-3.8125 6.5625-0.09309 1.4848-0.05787 2.9613 0.125 4.4688 4.5167 3.9354 16.263 6.0693 16.281 9.4375l0.218 1.5h-46l0.21875-1.5c-0.0175-3.9354 11.677-5.6361 16.25-9.4375 0.31875-1.8622 0.31468-3.4879 0.15625-5.125-1.5887-2.1222-3.3759-4.5938-3.8125-5.9062-0.14093-0.64634-0.22721-1.0832-0.34375-1.6562-0.0164-0.01791-0.0462-0.04411-0.0625-0.0625-0.48819-0.55032-0.98953-1.2262-1.3438-2.0625-0.9186-2.1687-0.77983-4.3249 0.25-4.875-0.0723-0.8675-0.078-1.6463-0.0937-2.3438 0-6.088 5.274-11.033 11.781-11.033z" fill="#f0f"/>
  </clipPath>
  <filter id="filter4034" height="1.4909" width="1.4696" color-interpolation-filters="sRGB" y="-.24545" x="-.23478">
   <feGaussianBlur id="feGaussianBlur4036" stdDeviation="4.4999998"/>
  </filter>
 </defs>
 <metadata id="metadata7">
  <rdf:RDF>
   <cc:Work rdf:about="">
    <dc:format>image/svg+xml</dc:format>
    <dc:type rdf:resource="http://purl.org/dc/dcmitype/StillImage"/>
    <dc:title/>
   </cc:Work>
  </rdf:RDF>
 </metadata>
 <g id="layer1" transform="translate(0 -956.36)">
  <rect id="rect5263-0" fill-opacity=".019608" ry="12.724" height="89.978" width="89.624" y="959.35" x="3.3534"/>
  <rect id="rect5261-6" fill-opacity=".039216" ry="12.552" height="88.762" width="88.413" y="959.96" x="3.9589"/>
  <rect id="rect5259-9" fill-opacity=".078431" ry="12.38" height="87.546" width="87.202" y="960.57" x="4.5645"/>
  <rect id="rect5257-5" fill-opacity=".15686" ry="12.208" height="86.33" width="85.991" y="961.18" x="5.1701"/>
  <path id="rect2419" d="m17.75 5.4062c-6.642 0-11.969 5.3948-11.969 12.063l0.0002 61.031c0 6.668 5.3268 12.031 11.969 12.031h60.812c6.642 0 11.969-5.363 11.969-12.031v-61.031c0-6.668-5.327-12.063-11.969-12.063l-60.812 0.0002z" transform="translate(0 956.36)" fill="url(#linearGradient6400)"/>
  <path id="rect5265-0" d="m5.7756 1029.8v5.0663c0 6.668 5.3434 12.032 11.985 12.032h60.809c6.6418 0 11.985-5.3645 11.985-12.032v-5.0663c0 6.6681-5.3434 12.032-11.985 12.032h-60.809c-6.6418 0-11.985-5.3643-11.985-12.032z" fill-opacity=".11765"/>
  <path id="path5252-0" d="m5.7756 1033.9v1.0133c0 6.668 5.3434 12.032 11.985 12.032h60.809c6.6418 0 11.985-5.3645 11.985-12.032v-1.0133c0 6.6681-5.3434 12.032-11.985 12.032h-60.809c-6.6418 0-11.985-5.3644-11.985-12.032z" fill-opacity=".098039"/>
  <rect id="rect4891" opacity=".5" ry="7.259" height="56.75" width="71.472" y="968.65" x="12.232" fill="#1a1a1a"/>
  <rect id="rect4935" transform="scale(1,-1)" ry="1.2796" height="2.5593" width="17.309" y="-1036.3" x="58.934" fill="#999"/>
  <rect id="rect4939" transform="scale(1,-1)" ry="1.2796" height="2.5593" width="17.309" y="-1035.4" x="58.934" fill="#808080"/>
  <g id="g4632" clip-path="url(#clipPath4637)" transform="translate(60)">
   <path id="path3215-5" d="m24.076 1029.6v-61.521h-71.937v61.521h71.937z" fill="url(#radialGradient4635)"/>
  </g>
  <g id="g5053" transform="translate(-104.5 81.707)">
   <path id="path4030" opacity=".8" style="enable-background:new" d="m-42 26c-6.5074 0-11.778 4.9455-11.778 11.031 0.01581 0.69744 0.02037 1.4763 0.09275 2.3438-1.0298 0.5501-1.1659 2.7063-0.24731 4.875 0.35422 0.83627 0.84111 1.5122 1.3293 2.0625 0.01627 0.01839 0.04544 0.04458 0.06182 0.06249 0.11653 0.573 0.19912 1.0099 0.34005 1.6562 0.43658 1.3124 2.2447 3.7841 3.8333 5.9063 0.15843 1.6371 0.16418 3.2628-0.15457 5.125-4.5727 3.8014-16.278 5.5021-16.261 9.4375l-0.217 1.502h46l-0.2164-1.5c-0.01865-3.3682-11.775-5.5021-16.292-9.4375-0.18287-1.5075-0.21675-2.984-0.12365-4.4687 1.4444-2.2326 3.35-5.1096 3.8333-6.5625 0.17764-0.75242 0.26392-1.2602 0.40188-1.9062 0.42653-0.52238 0.82896-1.1316 1.1438-1.875 0.87235-2.0595 0.76544-4.0501-0.12366-4.7188 0.06213-0.89489 0.1286-1.7352 0.15457-2.5 0.000007-6.0857-5.2709-11.031-11.778-11.031z" clip-path="url(#clipPath4038)" transform="translate(195 870.76)" filter="url(#filter4034)" fill="#fff"/>
   <path id="path3798-9" style="enable-background:new" d="m153 896.76c-6.5074 0-11.778 4.9455-11.778 11.031 0.0158 0.69743 0.0204 1.4762 0.0927 2.3438-1.0298 0.5501-1.1659 2.7063-0.24731 4.875 0.35422 0.83626 0.84111 1.5122 1.3293 2.0625 0.0163 0.0184 0.0454 0.0446 0.0618 0.0625 0.11653 0.573 0.19912 1.0099 0.34005 1.6562 0.43659 1.3124 2.2447 3.7841 3.8333 5.9062 0.15843 1.6371 0.16418 3.2628-0.15457 5.125-4.5727 3.8014-16.278 5.5021-16.261 9.4375l-0.21639 1.5h46l-0.2164-1.5c-0.0187-3.3682-11.775-5.5021-16.292-9.4375-0.18287-1.5075-0.21675-2.984-0.12365-4.4688 1.4444-2.2325 3.35-5.1096 3.8333-6.5625 0.17763-0.75243 0.26392-1.2602 0.40188-1.9062 0.42653-0.52238 0.82896-1.1316 1.1438-1.875 0.87235-2.0595 0.76544-4.05-0.12366-4.7188 0.0621-0.89488 0.1286-1.7352 0.15457-2.5 0.00001-6.0857-5.2709-11.031-11.778-11.031z" fill="#0a2559"/>
  </g>
 </g>
</svg>
