<?xml version="1.0" encoding="UTF-8" standalone="no"?>
<!-- Created with Inkscape (http://www.inkscape.org/) -->
<svg id="svg2" xmlns:rdf="http://www.w3.org/1999/02/22-rdf-syntax-ns#" xmlns="http://www.w3.org/2000/svg" height="96" width="96" version="1.1" xmlns:cc="http://creativecommons.org/ns#" xmlns:xlink="http://www.w3.org/1999/xlink" xmlns:dc="http://purl.org/dc/elements/1.1/">
 <defs id="defs4">
  <linearGradient id="linearGradient6400" y2="2.9934" gradientUnits="userSpaceOnUse" x2="47.995" y1="84.031" x1="47.995">
   <stop id="stop6396" stop-color="#ccc" offset="0"/>
   <stop id="stop6398" stop-color="#dae0de" offset="1"/>
  </linearGradient>
  <linearGradient id="linearGradient3733" y2="52.101" xlink:href="#linearGradient3715-05" gradientUnits="userSpaceOnUse" x2="19.942" y1="52.101" x1="80.711"/>
  <linearGradient id="linearGradient3715-05">
   <stop id="stop3717" stop-color="#fff" offset="0"/>
   <stop id="stop3719-3" stop-color="#fff" stop-opacity="0" offset="1"/>
  </linearGradient>
  <filter id="filter3780" height="1.3025" width="1.0888" color-interpolation-filters="sRGB" y="-.15126" x="-.044412">
   <feGaussianBlur id="feGaussianBlur3782" stdDeviation="1.1526305"/>
  </filter>
  <filter id="filter3776" height="1.0908" width="1.3035" color-interpolation-filters="sRGB" y="-.045378" x="-.15174">
   <feGaussianBlur id="feGaussianBlur3778" stdDeviation="1.1526305"/>
  </filter>
  <radialGradient id="radialGradient4635" gradientUnits="userSpaceOnUse" cy="-15.871" cx="56.066" gradientTransform="matrix(-.0022616 -1.0568 1.3856 0 10.224 1077.8)" r="35.938">
   <stop id="stop3177-6" stop-color="#4490e6" offset="0"/>
   <stop id="stop3179-3" stop-color="#103d8f" offset="1"/>
  </radialGradient>
  <clipPath id="clipPath4637" clipPathUnits="userSpaceOnUse">
   <rect id="rect4639" opacity=".75104" ry="7.1631" height="56" width="69.679" y="971.67" x="-46.872" fill="url(#linearGradient4641)"/>
  </clipPath>
  <linearGradient id="linearGradient4641" y2="975.65" gradientUnits="userSpaceOnUse" x2="3468.4" gradientTransform="matrix(.31367 0 0 .31367 -1073 514.25)" y1="1636.7" x1="3382.6">
   <stop id="stop4911" stop-color="#1a1a1a" offset="0"/>
   <stop id="stop4913" stop-color="#7a7a7a" offset="1"/>
  </linearGradient>
 </defs>
 <metadata id="metadata7">
  <rdf:RDF>
   <cc:Work rdf:about="">
    <dc:format>image/svg+xml</dc:format>
    <dc:type rdf:resource="http://purl.org/dc/dcmitype/StillImage"/>
    <dc:title/>
   </cc:Work>
  </rdf:RDF>
 </metadata>
 <g id="layer1" transform="translate(0 -956.36)">
  <rect id="rect5263-0" fill-opacity=".019608" ry="12.724" height="89.978" width="89.624" y="959.35" x="3.3534"/>
  <rect id="rect5261-6" fill-opacity=".039216" ry="12.552" height="88.762" width="88.413" y="959.96" x="3.9589"/>
  <rect id="rect5259-9" fill-opacity=".078431" ry="12.38" height="87.546" width="87.202" y="960.57" x="4.5645"/>
  <rect id="rect5257-5" fill-opacity=".15686" ry="12.208" height="86.33" width="85.991" y="961.18" x="5.1701"/>
  <path id="rect2419" d="m17.75 5.4062c-6.642 0-11.969 5.3948-11.969 12.063l0.0002 61.031c0 6.668 5.3268 12.031 11.969 12.031h60.812c6.642 0 11.969-5.363 11.969-12.031v-61.031c0-6.668-5.327-12.063-11.969-12.063l-60.812 0.0002z" transform="translate(0 956.36)" fill="url(#linearGradient6400)"/>
  <path id="rect5265-0" d="m5.7756 1029.8v5.0663c0 6.668 5.3434 12.032 11.985 12.032h60.809c6.6418 0 11.985-5.3645 11.985-12.032v-5.0663c0 6.6681-5.3434 12.032-11.985 12.032h-60.809c-6.6418 0-11.985-5.3643-11.985-12.032z" fill-opacity=".11765"/>
  <path id="path5252-0" d="m5.7756 1033.9v1.0133c0 6.668 5.3434 12.032 11.985 12.032h60.809c6.6418 0 11.985-5.3645 11.985-12.032v-1.0133c0 6.6681-5.3434 12.032-11.985 12.032h-60.809c-6.6418 0-11.985-5.3644-11.985-12.032z" fill-opacity=".098039"/>
  <rect id="rect4891" opacity=".5" ry="7.259" height="56.75" width="71.472" y="968.65" x="12.232" fill="#4d4d4d"/>
  <rect id="rect4935" transform="scale(1,-1)" ry="1.2796" height="2.5593" width="17.309" y="-1036.3" x="58.934" fill="#999"/>
  <rect id="rect4939" transform="scale(1,-1)" ry="1.2796" height="2.5593" width="17.309" y="-1035.4" x="58.934" fill="#808080"/>
  <g id="g4632" clip-path="url(#clipPath4637)" transform="translate(60)">
   <path id="path3215-5" d="m24.076 1029.6v-61.521h-71.937v61.521h71.937z" fill="url(#radialGradient4635)"/>
  </g>
  <rect id="rect3784" opacity=".1" height="14.734" width="14.758" y="1008.1" x="18.906" fill="#fff"/>
  <g id="g3744" fill-rule="evenodd" transform="matrix(0 -.60614 .60523 0 -12.627 1044.1)" filter="url(#filter3776)">
   <path id="path3746" d="m48.808 61.281 44.058 4.5502v-9.1004l-44.058 4.5502z"/>
   <path id="path3748" stroke-linejoin="round" d="m89.91 52.101 19.667 9.1442-19.667 9.1442c3.1419-5.3987 3.1238-12.785 0.000001-18.288z" stroke-width=".625"/>
  </g>
  <g id="g2942" fill-rule="evenodd" transform="matrix(0 -.60614 .60523 0 -12.627 1043.2)" fill="url(#linearGradient3733)">
   <path id="path2944" d="m48.808 61.281 44.058 4.5502v-9.1004l-44.058 4.5502z"/>
   <path id="path2948" stroke-linejoin="round" d="m89.91 52.101 19.667 9.1442-19.667 9.1442c3.1419-5.3987 3.1238-12.785 0.000001-18.288z" stroke-width=".625"/>
  </g>
  <g id="g3750" fill-rule="evenodd" transform="matrix(.60714 0 0 .60423 -.58133 981.23)" filter="url(#filter3780)">
   <path id="path3752" d="m47.289 61.281 45.577 4.5502v-9.1004l-45.577 4.5502z"/>
   <path id="path3754" stroke-linejoin="round" d="m89.91 52.101 19.667 9.1442-19.667 9.1442c3.1419-5.3987 3.1238-12.785 0.000001-18.288z" stroke-width=".625"/>
  </g>
  <g id="g3723" fill-rule="evenodd" transform="matrix(.60714 0 0 .60423 -.58133 980.31)" fill="url(#linearGradient3733)">
   <path id="path3725" d="m47.289 61.281 45.577 4.5502v-9.1004l-45.577 4.5502z"/>
   <path id="path3727" stroke-linejoin="round" d="m89.91 52.101 19.667 9.1442-19.667 9.1442c3.1419-5.3987 3.1238-12.785 0.000001-18.288z" stroke-width=".625"/>
  </g>
  <rect id="rect3786" opacity=".2" stroke-dasharray="1.84324521, 1.84324521" stroke-dashoffset=".92162" height="25.784" width="25.827" stroke="#fff" y="996.14" x="19.828" stroke-width="1.8432" fill="none"/>
 </g>
</svg>
