<?xml version="1.0" encoding="UTF-8" standalone="no"?>
<!-- Created with Inkscape (http://www.inkscape.org/) -->
<svg id="svg2" xmlns:rdf="http://www.w3.org/1999/02/22-rdf-syntax-ns#" xmlns="http://www.w3.org/2000/svg" height="96" width="96" version="1.1" xmlns:cc="http://creativecommons.org/ns#" xmlns:xlink="http://www.w3.org/1999/xlink" xmlns:dc="http://purl.org/dc/elements/1.1/">
 <defs id="defs4">
  <linearGradient id="linearGradient6400" y2="2.9934" gradientUnits="userSpaceOnUse" x2="47.995" y1="84.031" x1="47.995">
   <stop id="stop6396" stop-color="#ccc" offset="0"/>
   <stop id="stop6398" stop-color="#dae0de" offset="1"/>
  </linearGradient>
  <radialGradient id="radialGradient4635" gradientUnits="userSpaceOnUse" cy="-15.871" cx="56.066" gradientTransform="matrix(-.0022616 -1.0568 1.3856 0 10.224 1077.8)" r="35.938">
   <stop id="stop3177-6" stop-color="#4490e6" offset="0"/>
   <stop id="stop3179-3" stop-color="#103d8f" offset="1"/>
  </radialGradient>
  <clipPath id="clipPath4637" clipPathUnits="userSpaceOnUse">
   <rect id="rect4639" opacity=".75104" ry="7.1631" height="56" width="69.679" y="971.67" x="-46.872" fill="url(#linearGradient4641)"/>
  </clipPath>
  <linearGradient id="linearGradient4641" y2="975.65" gradientUnits="userSpaceOnUse" x2="3468.4" gradientTransform="matrix(.31367 0 0 .31367 -1073 514.25)" y1="1636.7" x1="3382.6">
   <stop id="stop4911" stop-color="#1a1a1a" offset="0"/>
   <stop id="stop4913" stop-color="#7a7a7a" offset="1"/>
  </linearGradient>
  <clipPath id="clipPath3798">
   <path id="path3800" d="m61.367 45.997a13.637 13.637 0 1 1 -27.274 0 13.637 13.637 0 1 1 27.274 0z" transform="matrix(1.0266 0 0 1.0266 -1 .77836)" fill="#f0f"/>
  </clipPath>
  <filter id="filter3833" height="1.48" width="1.48" color-interpolation-filters="sRGB" y="-0.24" x="-0.24">
   <feGaussianBlur id="feGaussianBlur3835" stdDeviation="2.8000002"/>
  </filter>
  <filter id="filter3987" color-interpolation-filters="sRGB">
   <feGaussianBlur id="feGaussianBlur3989" stdDeviation="0.42020394"/>
  </filter>
  <linearGradient id="linearGradient4793" y2="52.099" gradientUnits="userSpaceOnUse" x2="76.838" y1="52.099" x1="16.162">
   <stop id="stop3666" stop-opacity=".29839" offset="0"/>
   <stop id="stop3668" stop-color="#fff" stop-opacity=".64516" offset="1"/>
  </linearGradient>
  <linearGradient id="linearGradient4795" y2="44.482" gradientUnits="userSpaceOnUse" x2="76.772" y1="44.482" x1="16.162">
   <stop id="stop3721-2" stop-color="#4b4b4b" offset="0"/>
   <stop id="stop3723-3" stop-color="#232323" offset=".37373"/>
   <stop id="stop3725" stop-color="#5c5c5c" offset="1"/>
  </linearGradient>
  <linearGradient id="linearGradient4797" y2="44.482" gradientUnits="userSpaceOnUse" x2="76.772" y1="44.482" x1="16.162">
   <stop id="stop3709" stop-color="#141414" offset="0"/>
   <stop id="stop3654-9" stop-color="#616161" offset="1"/>
  </linearGradient>
  <radialGradient id="radialGradient4799" gradientUnits="userSpaceOnUse" cy="48.001" cx="48" gradientTransform="matrix(1 0 0 .99997 0 .0016595)" r="27.002">
   <stop id="stop3734" stop-opacity="0" offset="0"/>
   <stop id="stop3740" stop-opacity="0" offset="0.95"/>
   <stop id="stop3736" offset="1"/>
  </radialGradient>
  <linearGradient id="linearGradient4801" y2="44.482" gradientUnits="userSpaceOnUse" x2="76.772" y1="44.482" x1="16.162">
   <stop id="stop3748-9" stop-color="#5d5d5d" offset="0"/>
   <stop id="stop3753" stop-color="#0a0a0a" offset="0.6"/>
   <stop id="stop3751-7" stop-color="#4e4e4e" offset="1"/>
  </linearGradient>
  <linearGradient id="linearGradient4803" y2="39.929" gradientUnits="userSpaceOnUse" x2="61.491" gradientTransform="matrix(1.0266 0 0 1.0266 -1 50.778)" y1="59.608" x1="53.511">
   <stop id="stop3883" stop-color="#d40000" stop-opacity="0" offset="0"/>
   <stop id="stop3889" stop-color="#d40000" offset=".5"/>
   <stop id="stop3885" stop-color="#d40000" stop-opacity="0" offset="1"/>
  </linearGradient>
  <linearGradient id="linearGradient4805" y2="38.831" gradientUnits="userSpaceOnUse" x2="62.586" gradientTransform="matrix(.72593 .72593 -.72593 .72593 46.743 29.961)" y1="60.139" x1="53.731">
   <stop id="stop3893" stop-color="#d42aff" stop-opacity="0" offset="0"/>
   <stop id="stop3899" stop-color="#d42aff" offset=".5"/>
   <stop id="stop3895-5" stop-color="#d42aff" stop-opacity="0" offset="1"/>
  </linearGradient>
  <linearGradient id="linearGradient4807" y2="39.437" gradientUnits="userSpaceOnUse" x2="61.983" gradientTransform="matrix(0 1.0266 -1.0266 0 95.222 49)" y1="60.346" x1="53.388">
   <stop id="stop3903" stop-color="#60f" stop-opacity="0" offset="0"/>
   <stop id="stop3909" stop-color="#60f" offset=".5"/>
   <stop id="stop3905" stop-color="#60f" stop-opacity="0" offset="1"/>
  </linearGradient>
  <linearGradient id="linearGradient4811" y2="39.683" gradientUnits="userSpaceOnUse" x2="60.999" gradientTransform="matrix(-1.0266 0 0 -1.0266 97 145.22)" y1="61.33" x1="53.879">
   <stop id="stop3923-0" stop-color="#5fd3bc" stop-opacity="0" offset="0"/>
   <stop id="stop3929" stop-color="#5fd3bc" offset=".5"/>
   <stop id="stop3925" stop-color="#5fd3bc" stop-opacity="0" offset="1"/>
  </linearGradient>
  <linearGradient id="linearGradient4813" y2="39.701" gradientUnits="userSpaceOnUse" x2="60.324" gradientTransform="matrix(-.72593 -.72593 .72593 -.72593 49.257 166.04)" y1="59.878" x1="53.47">
   <stop id="stop3853" stop-color="#55d400" stop-opacity="0" offset="0"/>
   <stop id="stop3859-79" stop-color="#55d400" offset=".5"/>
   <stop id="stop3855-2" stop-color="#55d400" stop-opacity="0" offset="1"/>
  </linearGradient>
  <linearGradient id="linearGradient4815" y2="60.715" gradientUnits="userSpaceOnUse" x2="52.881" gradientTransform="matrix(0 -1.0266 1.0266 0 .77836 147)" y1="39.683" x1="61.628">
   <stop id="stop3863-1" stop-color="#fc0" stop-opacity="0" offset="0"/>
   <stop id="stop3869-5" stop-color="#fc0" offset=".5"/>
   <stop id="stop3865" stop-color="#fc0" stop-opacity="0" offset="1"/>
  </linearGradient>
  <linearGradient id="linearGradient4817" y2="40.484" gradientUnits="userSpaceOnUse" x2="61.803" gradientTransform="matrix(.72593 -.72593 .72593 .72593 -20.039 99.257)" y1="61.183" x1="53.035">
   <stop id="stop3873" stop-color="#f60" stop-opacity="0" offset="0"/>
   <stop id="stop3879-3" stop-color="#f60" offset=".5"/>
   <stop id="stop3875" stop-color="#f60" stop-opacity="0" offset="1"/>
  </linearGradient>
  <radialGradient id="radialGradient4819" gradientUnits="userSpaceOnUse" cy="52" cx="41" gradientTransform="matrix(1 0 0 .61803 0 19.862)" r="9.7082">
   <stop id="stop3799" stop-color="#fff" offset="0"/>
   <stop id="stop3805" stop-color="#fff" offset=".5"/>
   <stop id="stop3801" stop-color="#fff" stop-opacity="0" offset="1"/>
  </radialGradient>
  <linearGradient id="linearGradient4823" y2="40.223" gradientUnits="userSpaceOnUse" x2="61.89" gradientTransform="matrix(-.72593 .72593 -.72593 -.72593 116.04 96.743)" y1="59.183" x1="53.296">
   <stop id="stop3913" stop-color="#2a7fff" stop-opacity="0" offset="0"/>
   <stop id="stop3919" stop-color="#2a7fff" offset=".5"/>
   <stop id="stop3915" stop-color="#2a7fff" stop-opacity="0" offset="1"/>
  </linearGradient>
 </defs>
 <metadata id="metadata7">
  <rdf:RDF>
   <cc:Work rdf:about="">
    <dc:format>image/svg+xml</dc:format>
    <dc:type rdf:resource="http://purl.org/dc/dcmitype/StillImage"/>
    <dc:title/>
   </cc:Work>
  </rdf:RDF>
 </metadata>
 <g id="layer1" transform="translate(0 -956.36)">
  <rect id="rect5263-0" fill-opacity=".019608" ry="12.724" height="89.978" width="89.624" y="959.35" x="3.3534"/>
  <rect id="rect5261-6" fill-opacity=".039216" ry="12.552" height="88.762" width="88.413" y="959.96" x="3.9589"/>
  <rect id="rect5259-9" fill-opacity=".078431" ry="12.38" height="87.546" width="87.202" y="960.57" x="4.5645"/>
  <rect id="rect5257-5" fill-opacity=".15686" ry="12.208" height="86.33" width="85.991" y="961.18" x="5.1701"/>
  <path id="rect2419" d="m17.75 5.4062c-6.642 0-11.969 5.3948-11.969 12.063l0.0002 61.031c0 6.668 5.3268 12.031 11.969 12.031h60.812c6.642 0 11.969-5.363 11.969-12.031v-61.031c0-6.668-5.327-12.063-11.969-12.063l-60.812 0.0002z" transform="translate(0 956.36)" fill="url(#linearGradient6400)"/>
  <path id="rect5265-0" d="m5.7756 1029.8v5.0663c0 6.668 5.3434 12.032 11.985 12.032h60.809c6.6418 0 11.985-5.3645 11.985-12.032v-5.0663c0 6.6681-5.3434 12.032-11.985 12.032h-60.809c-6.6418 0-11.985-5.3643-11.985-12.032z" fill-opacity=".11765"/>
  <path id="path5252-0" d="m5.7756 1033.9v1.0133c0 6.668 5.3434 12.032 11.985 12.032h60.809c6.6418 0 11.985-5.3645 11.985-12.032v-1.0133c0 6.6681-5.3434 12.032-11.985 12.032h-60.809c-6.6418 0-11.985-5.3644-11.985-12.032z" fill-opacity=".098039"/>
  <rect id="rect4891" opacity=".5" ry="7.259" height="56.75" width="71.472" y="968.65" x="12.232" fill="#1a1a1a"/>
  <rect id="rect4935" transform="scale(1,-1)" ry="1.2796" height="2.5593" width="17.309" y="-1036.3" x="58.934" fill="#999"/>
  <rect id="rect4939" transform="scale(1,-1)" ry="1.2796" height="2.5593" width="17.309" y="-1035.4" x="58.934" fill="#808080"/>
  <g id="g4632" clip-path="url(#clipPath4637)" transform="translate(60)">
   <path id="path3215-5" d="m24.076 1029.6v-61.521h-71.937v61.521h71.937z" fill="url(#radialGradient4635)"/>
  </g>
  <g id="g4759" transform="matrix(.73438 0 0 .73438 -77.578 261.42)">
   <g id="layer3" transform="translate(123 956.86)">
    <path id="path3660" d="m76.772 44.482a30.305 30.305 0 1 1 -60.609 0 30.305 30.305 0 1 1 60.609 0z" transform="matrix(0 1.0559 -1.0559 0 94.971 -1.0667)" fill="url(#linearGradient4793)"/>
    <path id="path3648" d="m76.772 44.482a30.305 30.305 0 1 1 -60.609 0 30.305 30.305 0 1 1 60.609 0z" transform="matrix(0.7 0.7 -0.7 0.7 46.611 -15.664)" fill="url(#linearGradient4795)"/>
    <path id="path3672" d="m76.772 44.482a30.305 30.305 0 1 1 -60.609 0 30.305 30.305 0 1 1 60.609 0z" transform="matrix(0 .98170 -.98170 0 91.668 2.3833)" stroke="#000" stroke-width=".50932" fill="none"/>
    <path id="path3697" d="m76.772 44.482a30.305 30.305 0 1 1 -60.609 0 30.305 30.305 0 1 1 60.609 0z" transform="matrix(0 .89095 -.89095 0 87.632 6.6)" fill="url(#linearGradient4797)"/>
    <g id="g3691" opacity=".2" transform="matrix(.92593 0 0 .92593 3.5556 3.5556)" stroke="#000" fill="none">
     <path id="path3676" d="m76.772 44.482a30.305 30.305 0 1 1 -60.609 0 30.305 30.305 0 1 1 60.609 0z" transform="matrix(0 .88270 -.88270 0 87.265 6.9833)" stroke-width=".61176"/>
     <path id="path3678" d="m76.772 44.482a30.305 30.305 0 1 1 -60.609 0 30.305 30.305 0 1 1 60.609 0z" transform="matrix(0 .81671 -.81671 0 84.329 10.05)" stroke-width=".66119"/>
     <path id="path3680" d="m76.772 44.482a30.305 30.305 0 1 1 -60.609 0 30.305 30.305 0 1 1 60.609 0z" transform="matrix(0 .84971 -.84971 0 85.797 8.5167)" stroke-width=".63551"/>
     <path id="path3682" d="m76.772 44.482a30.305 30.305 0 1 1 -60.609 0 30.305 30.305 0 1 1 60.609 0z" transform="matrix(0 .78371 -.78371 0 82.861 11.583)" stroke-width=".68903"/>
    </g>
    <path id="path3727" opacity=".6" d="m48 21c-6.9099 0-13.822 2.6342-19.094 7.9062-10.544 10.544-10.544 27.643 0 38.188 10.544 10.544 27.643 10.544 38.188 0 10.544-10.544 10.544-27.643 0-38.188-5.272-5.272-12.184-7.906-19.094-7.906zm0 2.5c6.2701 0 12.529 2.4036 17.312 7.1875 9.5678 9.5678 9.5678 25.057 0 34.625-9.5678 9.5678-25.057 9.5678-34.625 0-9.5678-9.5678-9.5678-25.057 0-34.625 4.784-4.783 11.043-7.187 17.313-7.187z" fill="url(#radialGradient4799)"/>
    <path id="path3742" d="m76.772 44.482a30.305 30.305 0 1 1 -60.609 0 30.305 30.305 0 1 1 60.609 0z" transform="matrix(0 .64908 -.64908 0 76.872 17.839)" stroke="#1a1a1a" stroke-width="1.5406" fill="url(#linearGradient4801)"/>
   </g>
   <g id="layer6" transform="translate(123 956.86)">
    <g id="g3786" opacity=".4" clip-path="url(#clipPath3798)" filter="url(#filter3833)">
     <path id="path3756" d="m61.367 45.997a13.637 13.637 0 0 1 -3.9942 9.6429l-9.6429-9.6429z" transform="matrix(1.0266 0 0 1.0266 -1 .77836)" fill="#d40000"/>
     <path id="path3772" d="m61.367 45.997a13.637 13.637 0 0 1 -3.9942 9.6429l-9.6429-9.6429z" transform="matrix(.72593 .72593 -.72593 .72593 46.743 -20.039)" fill="#d42aff"/>
     <path id="path3774" d="m61.367 45.997a13.637 13.637 0 0 1 -3.9942 9.6429l-9.6429-9.6429z" transform="matrix(0 1.0266 -1.0266 0 95.222 -1)" fill="#60f"/>
     <path id="path3776" d="m61.367 45.997a13.637 13.637 0 0 1 -3.9942 9.6429l-9.6429-9.6429z" transform="matrix(-.72593 .72593 -.72593 -.72593 116.04 46.743)" fill="#2a7fff"/>
     <path id="path3778" d="m61.367 45.997a13.637 13.637 0 0 1 -3.9942 9.6429l-9.6429-9.6429z" transform="matrix(-1.0266 0 0 -1.0266 97 95.222)" fill="#5fd3bc"/>
     <path id="path3780" d="m61.367 45.997a13.637 13.637 0 0 1 -3.9942 9.6429l-9.6429-9.6429z" transform="matrix(-.72593 -.72593 .72593 -.72593 49.257 116.04)" fill="#55d400"/>
     <path id="path3782" d="m61.367 45.997a13.637 13.637 0 0 1 -3.9942 9.6429l-9.6429-9.6429z" transform="matrix(0 -1.0266 1.0266 0 .77836 97)" fill="#fc0"/>
     <path id="path3784" d="m61.367 45.997a13.637 13.637 0 0 1 -3.9942 9.6429l-9.6429-9.6429z" transform="matrix(.72593 -.72593 .72593 .72593 -20.039 49.257)" fill="#f60"/>
    </g>
    <g id="g3957" opacity=".8" transform="translate(0,-50)" filter="url(#filter3987)">
     <path id="path3726" opacity=".8" d="m61.531 94.375-0.96875 0.25c0.288 1.074 0.438 2.21 0.438 3.375 0 4.8078-2.6196 9.0009-6.5 11.25l0.5 0.875c5.4876-3.1682 8.1713-9.6294 6.5312-15.75z" fill="url(#linearGradient4803)"/>
     <path id="path3728" opacity=".8" d="m59.25 104.5c-2.2491 3.8804-6.4422 6.5-11.25 6.5-1.165 0-2.3007-0.15008-3.375-0.4375l-0.25 0.96875c6.1206 1.64 12.582-1.0437 15.75-6.5312l-0.875-0.5z" fill="url(#linearGradient4805)"/>
     <path id="path3730" d="m36.75 104.5-0.875 0.5c3.1682 5.4876 9.6294 8.1712 15.75 6.5312l-0.25-0.96875c-1.074 0.29-2.21 0.44-3.375 0.44-4.8078 0-9.0009-2.6196-11.25-6.5z" fill="url(#linearGradient4807)"/>
     <path id="path3732" opacity=".9" d="m34.469 94.375c-1.64 6.1206 1.0437 12.582 6.5312 15.75l0.5-0.875c-3.88-2.24-6.5-6.43-6.5-11.24 0-1.165 0.15008-2.3007 0.4375-3.375l-0.96875-0.25z" fill="url(#linearGradient4823)"/>
     <path id="path3734" d="m41 85.875c-5.4876 3.1682-8.1713 9.6294-6.5312 15.75l0.96875-0.25c-0.288-1.07-0.438-2.205-0.438-3.37 0-4.808 2.62-9.001 6.5-11.25l-0.5-0.875z" fill="url(#linearGradient4811)"/>
     <path id="path3736" d="m48.156 84c-4.972-0.061-9.707 2.541-12.281 7l0.875 0.5c2.249-3.88 6.442-6.5 11.25-6.5 1.165 0 2.3007 0.15008 3.375 0.4375l0.25-0.96875c-1.148-0.308-2.321-0.455-3.469-0.469z" fill="url(#linearGradient4813)"/>
     <path id="path3738" d="m47.844 84c-1.1475 0.01398-2.3211 0.16125-3.4688 0.46875l0.25 0.96875c1.074-0.288 2.21-0.438 3.375-0.438 4.8078 0 9.0009 2.6196 11.25 6.5l0.875-0.5c-2.574-4.459-7.309-7.061-12.281-7z" fill="url(#linearGradient4815)"/>
     <path id="path3740" opacity=".9" d="m55 85.875-0.5 0.875c3.8804 2.2491 6.5 6.4422 6.5 11.25 0 1.165-0.15008 2.3007-0.4375 3.375l0.96875 0.25c1.64-6.126-1.043-12.587-6.531-15.755z" fill="url(#linearGradient4817)"/>
    </g>
    <path id="path3793-2" d="m50.708 52a9.7082 6 0 1 1 -19.416 0 9.7082 6 0 1 1 19.416 0z" transform="matrix(.23288 -.23288 .23288 .23288 33.267 52.135)" fill="url(#radialGradient4819)"/>
   </g>
  </g>
 </g>
</svg>
