<?xml version="1.0" encoding="UTF-8" standalone="no"?>
<!-- Created with Inkscape (http://www.inkscape.org/) -->
<svg id="svg2" xmlns:rdf="http://www.w3.org/1999/02/22-rdf-syntax-ns#" xmlns="http://www.w3.org/2000/svg" height="96" width="96" version="1.1" xmlns:cc="http://creativecommons.org/ns#" xmlns:xlink="http://www.w3.org/1999/xlink" xmlns:dc="http://purl.org/dc/elements/1.1/">
 <defs id="defs4">
  <linearGradient id="linearGradient3700-0">
   <stop id="stop3702-2" stop-color="#70a83e" offset="0"/>
   <stop id="stop3704-9" stop-color="#9fd058" offset="1"/>
  </linearGradient>
  <linearGradient id="linearGradient4982" y2="5.9877" xlink:href="#linearGradient3700-0" gradientUnits="userSpaceOnUse" x2="48" gradientTransform="translate(101.91 941.34)" y1="90" x1="48"/>
  <linearGradient id="linearGradient48787" y2="5.9877" gradientUnits="userSpaceOnUse" x2="48" gradientTransform="matrix(1.1726 0 0 1.1726 -9.9888 -14.036)" y1="90" x1="48">
   <stop id="stop3189-75" stop-color="#a0a0a0" offset="0"/>
   <stop id="stop3191-89" stop-color="#dcdcdc" offset="1"/>
  </linearGradient>
  <clipPath id="clipPath3613-18">
   <rect id="rect3615-72" rx="6" ry="6" height="84" width="84" y="6" x="6" fill="#fff"/>
  </clipPath>
  <filter id="filter3794-73" height="1.384" width="1.384" color-interpolation-filters="sRGB" y="-.192" x="-.192">
   <feGaussianBlur id="feGaussianBlur3796-96" stdDeviation="5.28"/>
  </filter>
  <linearGradient id="linearGradient3735-1">
   <stop id="stop3737-2" stop-color="#f5ab00" offset="0"/>
   <stop id="stop3740-6" stop-color="#dd6700" offset="1"/>
  </linearGradient>
  <linearGradient id="linearGradient4949">
   <stop id="stop4951" stop-color="#fff" stop-opacity=".73643" offset="0"/>
   <stop id="stop4957" stop-color="#7f7f7f" stop-opacity="0" offset=".5"/>
   <stop id="stop4953" offset="1"/>
  </linearGradient>
  <linearGradient id="linearGradient4876">
   <stop id="stop4878" stop-color="#1cbedd" offset="0"/>
   <stop id="stop4880" stop-color="#117089" offset="1"/>
  </linearGradient>
  <linearGradient id="linearGradient4761">
   <stop id="stop4763" stop-color="#ff355f" offset="0"/>
   <stop id="stop4765" stop-color="#f10022" offset="1"/>
  </linearGradient>
  <linearGradient id="linearGradient91491" y2="18" xlink:href="#linearGradient3735-1" gradientUnits="userSpaceOnUse" x2="-66" y1="30" x1="-78"/>
  <linearGradient id="linearGradient91493" y2="78" xlink:href="#linearGradient4949" gradientUnits="userSpaceOnUse" x2="30" y1="66" x1="18"/>
  <linearGradient id="linearGradient91503" y2="54" xlink:href="#linearGradient4876" gradientUnits="userSpaceOnUse" x2="-66" y1="66" x1="-78"/>
  <linearGradient id="linearGradient91505" y2="78" xlink:href="#linearGradient4949" gradientUnits="userSpaceOnUse" x2="66" y1="66" x1="54"/>
  <linearGradient id="linearGradient91515" y2="45" xlink:href="#linearGradient4761" gradientUnits="userSpaceOnUse" x2="-18" y1="57" x1="-30"/>
  <linearGradient id="linearGradient91517" y2="30" xlink:href="#linearGradient4949" gradientUnits="userSpaceOnUse" x2="57" y1="18" x1="45"/>
  <linearGradient id="linearGradient91539" y2="138.66" gradientUnits="userSpaceOnUse" x2="48" y1="20.221" x1="48">
   <stop id="stop3739-67" stop-color="#fff" offset="0"/>
   <stop id="stop3741-56" stop-color="#fff" stop-opacity="0" offset="1"/>
  </linearGradient>
 </defs>
 <metadata id="metadata7">
  <rdf:RDF>
   <cc:Work rdf:about="">
    <dc:format>image/svg+xml</dc:format>
    <dc:type rdf:resource="http://purl.org/dc/dcmitype/StillImage"/>
    <dc:title/>
   </cc:Work>
  </rdf:RDF>
 </metadata>
 <g id="layer1" transform="translate(0 -956.36)">
  <rect id="rect5261-6" fill-opacity=".039216" ry="12.552" height="88.762" width="88.762" y="959.96" x="3.6078"/>
  <rect id="rect5259-9" fill-opacity=".078431" ry="12.38" height="87.546" width="87.546" y="960.57" x="4.2157"/>
  <rect id="rect5257-5" fill-opacity=".15686" ry="12.208" height="86.33" width="86.33" y="961.18" x="4.8237"/>
  <path id="rect2419" d="m17.469 5.4062c-6.668 0-12.032 5.3948-12.032 12.063l0.0005 61.031c0 5.418 3.5332 9.982 8.4375 11.5h68.187c4.715-1.457 8.172-5.734 8.438-10.875v-62.281c-0.321-6.377-5.54-11.438-12-11.438l-61.031 0.0002z" transform="translate(0 956.36)" fill="url(#linearGradient48787)"/>
  <rect id="rect3873" rx="6" ry="6" height="84" width="84" display="none" y="947.34" x="107.91" fill="url(#linearGradient4982)"/>
  <rect id="rect3880" rx="6" ry="6" height="84" width="84" display="none" y="947.34" x="107.91" fill="url(#linearGradient4982)"/>
  <path id="rect5265-0" d="m5.4316 1029.8v5.0663c0 6.668 5.3645 12.032 12.032 12.032h61.049c6.668 0 12.032-5.3645 12.032-12.032v-5.0663c0 6.6681-5.3645 12.032-12.032 12.032h-61.049c-6.668 0-12.032-5.3643-12.032-12.032z" fill-opacity=".23529"/>
  <path id="path5252-0" d="m5.4316 1033.9v1.0133c0 6.668 5.3645 12.032 12.032 12.032h61.049c6.668 0 12.032-5.3645 12.032-12.032v-1.0133c0 6.6681-5.3645 12.032-12.032 12.032h-61.049c-6.668 0-12.032-5.3644-12.032-12.032z" fill-opacity=".098039"/>
  <g id="layer5" transform="translate(.63544 954.37)">
   <rect id="rect3171" height="66" stroke="#fff" stroke-linecap="round" stroke-width=".5" fill="url(#linearGradient91539)" rx="12" ry="12" width="66" opacity=".1" clip-path="url(#clipPath3613-18)" filter="url(#filter3794-73)" y="15" x="15"/>
  </g>
  <path id="path4607" opacity=".05" style="color:#000000" d="m44.335 967.93c-2.9174 0-5.3417 2.4244-5.3417 5.3417v2.6877 5.9129c0 2.9174 2.4244 5.3417 5.3417 5.3417h8.6005c0.86627 0 1.5556-0.30595 2.1501-0.63832 0.59452 0.33237 1.2839 0.63832 2.1501 0.63832h7.5591v1.6462 5.9129c0 2.5323 1.8207 4.7093 4.2667 5.2073 0.4064 0.0827 0.76105 0.13434 1.0751 0.13434h8.6005c2.1944 0 4.0674-1.3851 4.8714-3.2923 0.01881-0.0447 0.23183-0.46272 0.33596-0.97428 0.08278-0.4064 0.13438-0.76105 0.13438-1.0751v-5.9129-2.6877c0-0.77784-0.22669-1.4714-0.47034-2.0493-0.03569-0.0847-0.11846-0.22286-0.16798-0.33596 0.28752-0.56157 0.63832-1.1222 0.63832-1.915v-8.6005c0-2.9174-2.4244-5.3417-5.3417-5.3417h-8.6005c-0.31418 0-0.66883 0.0517-1.0751 0.13438-0.5321 0.10833-0.75232 0.33609-1.0415 0.53753-0.61133-0.34092-1.3064-0.67191-2.1837-0.67191h-8.6005c-0.31418 0-0.66883 0.0517-1.0751 0.13438-0.5321 0.10833-0.75232 0.33609-1.0415 0.53753-0.61133-0.34092-1.3064-0.67191-2.1837-0.67191h-8.6005zm0 25.802c-2.9174 0-5.3417 2.4244-5.3417 5.3417v2.6877 4.8713h-7.5591c-2.9174 0-5.3417 2.4244-5.3417 5.3418v2.6877 4.8713h-7.5591c-2.9174 0-5.3417 2.4244-5.3417 5.3418v2.6877 5.9129c0 2.9173 2.4244 5.3418 5.3417 5.3418h8.6005c0.86627 0 1.5556-0.306 2.1501-0.6384 0.59452 0.3324 1.2839 0.6384 2.1501 0.6384h8.6005c0.86627 0 1.5556-0.306 2.1501-0.6384 0.59452 0.3324 1.2839 0.6384 2.1501 0.6384h8.6005c0.86627 0 1.5556-0.306 2.1501-0.6384 0.59452 0.3324 1.2839 0.6384 2.1501 0.6384h8.6005c2.9174 0 5.3417-2.4245 5.3417-5.3418v-8.6006c0-0.8662-0.30595-1.5556-0.63832-2.1501 0.33237-0.5945 0.63832-1.2838 0.63832-2.1501v-8.6006c0-2.9174-2.4244-5.3418-5.3417-5.3418h-7.5591v-7.559c0-2.9174-2.4244-5.3417-5.3417-5.3417h-8.6005z"/>
  <path id="path4603" opacity=".1" style="color:#000000" d="m44.335 968.97c-2.3479 0-4.3003 1.9524-4.3003 4.3003v2.6877 5.9129c0 2.3479 1.9524 4.3003 4.3003 4.3003h8.6005c0.84426 0 1.5361-0.36712 2.1501-0.7727 0.61407 0.40558 1.3059 0.7727 2.1501 0.7727h8.6005v2.6877 5.9129c0 2.0437 1.458 3.7986 3.4268 4.1994 0.34607 0.071 0.65418 0.10105 0.87349 0.10105h8.6005c1.7628 0 3.2803-1.1111 3.9307-2.654 0.05762-0.13658 0.19368-0.40389 0.26877-0.77271 0.07042-0.34607 0.10073-0.65418 0.10073-0.87349v-5.9129-2.6877c0-0.59404-0.15943-1.1478-0.36955-1.6462-0.09052-0.2147-0.17426-0.43373-0.30236-0.63832 0.35802-0.58526 0.67192-1.2356 0.67192-2.0158v-8.6005c0-2.3479-1.9524-4.3003-4.3003-4.3003h-8.6005c-0.21941 0-0.52751 0.0303-0.87349 0.10073-0.50888 0.10364-0.85149 0.41796-1.243 0.67192-0.61996-0.41447-1.3248-0.77271-2.1837-0.77271h-8.6005c-0.21941 0-0.52751 0.0303-0.87349 0.10074-0.50888 0.10363-0.85149 0.41796-1.243 0.67191-0.61996-0.41447-1.3248-0.7727-2.1837-0.7727h-8.6005zm0 25.802c-2.3479 0-4.3003 1.9524-4.3003 4.3003v2.6877 5.9129h-8.6005c-2.3479 0-4.3003 1.9524-4.3003 4.3002v2.6877 5.9129h-8.6005c-2.3479 0-4.3003 1.9524-4.3003 4.3002v2.6877 5.9129c0 2.3478 1.9524 4.3002 4.3003 4.3002h8.6005c0.84426 0 1.5361-0.3671 2.1501-0.7726 0.61407 0.4055 1.3059 0.7726 2.1501 0.7726h8.6005c0.84426 0 1.5361-0.3671 2.1501-0.7726 0.61407 0.4055 1.3059 0.7726 2.1501 0.7726h8.6005c0.84426 0 1.5361-0.3671 2.1501-0.7726 0.61407 0.4055 1.3059 0.7726 2.1501 0.7726h8.6005c2.3479 0 4.3003-1.9524 4.3003-4.3002v-8.6006c0-0.8442-0.36712-1.536-0.7727-2.1501 0.40558-0.6141 0.7727-1.3059 0.7727-2.1501v-8.6006c0-2.3478-1.9524-4.3002-4.3003-4.3002h-8.6005v-8.6006c0-2.3479-1.9524-4.3003-4.3003-4.3003h-8.6005z"/>
  <path id="path4599" opacity=".15" style="color:#000000" d="m44.335 969.94c-1.8171 0-3.326 1.5089-3.326 3.326v2.6877 5.9129c0 1.8171 1.5089 3.326 3.326 3.326h8.6005c0.83291 0 1.5646-0.39086 2.1501-0.90709 0.58557 0.51623 1.3172 0.90709 2.1501 0.90709h8.6005c0.65028 0 1.1651-0.37564 1.6798-0.70551-0.32987 0.51472-0.70551 1.0295-0.70551 1.6798v2.6877 5.9129c0 1.5882 1.1319 2.9489 2.6541 3.2587 0.27069 0.0548 0.49666 0.0677 0.67192 0.0677h8.6005c1.3616 0 2.5535-0.85448 3.0572-2.0493 0.06418-0.15235 0.14726-0.33794 0.20158-0.60473 0.05515-0.27069 0.06719-0.49666 0.06719-0.67191v-5.9129-2.6877c0-0.45304-0.09998-0.87614-0.26877-1.2766-0.08783-0.20841-0.1857-0.39816-0.30236-0.57113-0.0845-0.12525-0.23524-0.19039-0.33596-0.30236 0.51623-0.58558 0.90709-1.3172 0.90709-2.1501v-8.6005c0-1.8171-1.5089-3.326-3.326-3.326h-8.6005c-0.17528 0-0.40128 0.0122-0.67192 0.0672-0.58487 0.11907-1.0834 0.4256-1.5118 0.8063-0.58118-0.49905-1.2993-0.8735-2.1165-0.8735h-8.6005c-0.17528 0-0.40128 0.0122-0.67192 0.0672-0.58487 0.11907-1.0834 0.4256-1.5118 0.8063-0.58118-0.49905-1.2993-0.8735-2.1165-0.8735h-8.6005zm0 25.802c-1.8171 0-3.326 1.5089-3.326 3.326v2.6877 5.9129c0 0.607 0.31677 1.1179 0.60472 1.6126-0.4925-0.2914-0.97114-0.6384-1.579-0.6384h-8.6005c-1.8171 0-3.326 1.509-3.326 3.326v2.6877 5.9129c0 0.607 0.31677 1.1179 0.60472 1.6126-0.4925-0.2914-0.97114-0.6384-1.579-0.6384h-8.6005c-1.8171 0-3.326 1.509-3.326 3.326v2.6877 5.9129c0 1.8171 1.5089 3.326 3.326 3.326h8.6005c0.83291 0 1.5646-0.3909 2.1501-0.9071 0.58557 0.5162 1.3172 0.9071 2.1501 0.9071h8.6005c0.83291 0 1.5646-0.3909 2.1501-0.9071 0.58557 0.5162 1.3172 0.9071 2.1501 0.9071h8.6005c0.83291 0 1.5646-0.3909 2.1501-0.9071 0.58557 0.5162 1.3172 0.9071 2.1501 0.9071h8.6005c1.8171 0 3.326-1.5089 3.326-3.326v-8.6006c0-0.8328-0.39086-1.5645-0.90709-2.1501 0.51623-0.5856 0.90709-1.3173 0.90709-2.1501v-8.6006c0-1.817-1.5089-3.326-3.326-3.326h-8.6005c-0.17528 0-0.40128 0.012-0.67192 0.068-0.39651 0.081-0.64456 0.396-0.97428 0.6047 0.3154-0.5066 0.67192-1.0115 0.67192-1.6461v-8.6006c0-1.8171-1.5089-3.326-3.326-3.326h-8.6005z"/>
  <path id="rect4370" opacity=".3" style="color:#000000" d="m44.335 971.12c-1.1912 0-2.1501 0.95896-2.1501 2.1501v2.6877 5.9129c0 1.1912 0.95896 2.1501 2.1501 2.1501h8.6005c1.1912 0 2.1501-0.95896 2.1501-2.1501 0 1.1912 0.95896 2.1501 2.1501 2.1501h8.6005c1.1912 0 2.1501-0.95896 2.1501-2.1501 0 1.1912 0.95896 2.1501 2.1501 2.1501-1.1912 0-2.1501 0.95896-2.1501 2.1501v2.6877 5.9129c0 1.0423 0.73184 1.9167 1.7134 2.1165 0.14022 0.0286 0.28785 0.0337 0.43675 0.0337h8.6005c0.89338 0 1.6566-0.53801 1.9822-1.3102 0.05429-0.12871 0.10589-0.26293 0.13438-0.40315 0.0286-0.14022 0.03365-0.28785 0.03365-0.43675v-5.9129-2.6877c0-0.2978-0.05945-0.58249-0.16798-0.8399-0.05429-0.12871-0.12445-0.2552-0.20158-0.36955-0.38564-0.57177-1.0361-0.94069-1.7806-0.94069 1.1912 0 2.1501-0.95896 2.1501-2.1501v-8.6005c0-1.1912-0.95896-2.1501-2.1501-2.1501h-8.6005c-0.1489 0-0.29652 0.005-0.43675 0.0336-0.84133 0.17129-1.5085 0.83846-1.6798 1.6798-0.0286 0.14022-0.03365 0.28785-0.03365 0.43674 0-1.1912-0.95896-2.1501-2.1501-2.1501h-8.6005c-0.1489 0-0.29652 0.005-0.43675 0.0336-0.84133 0.17129-1.5085 0.83847-1.6798 1.6798-0.0286 0.14022-0.03365 0.28785-0.03365 0.43675 0-1.1912-0.95896-2.1501-2.1501-2.1501h-8.6005zm0 25.802c-1.1912 0-2.1501 0.95896-2.1501 2.1501v2.6877 5.9129c0 1.0422 0.73184 1.9167 1.7134 2.1165 0.14022 0.029 0.28785 0.033 0.43675 0.033-0.1489 0-0.29652 0-0.43675 0.033-0.84133 0.1714-1.5085 0.8386-1.6798 1.6798-0.0286 0.1403-0.03365 0.2879-0.03365 0.4368 0-1.1912-0.95896-2.1501-2.1501-2.1501h-8.6005c-1.1912 0-2.1501 0.9589-2.1501 2.1501v2.6877 5.9128c0 1.0423 0.73184 1.9168 1.7134 2.1165 0.14022 0.029 0.28785 0.033 0.43675 0.033-0.1489 0-0.29652 0-0.43675 0.033-0.84133 0.1713-1.5085 0.8385-1.6798 1.6799-0.0286 0.1402-0.03365 0.2878-0.03365 0.4367 0-1.1912-0.95896-2.1502-2.1501-2.1502h-8.6005c-1.1912 0-2.1501 0.959-2.1501 2.1502v2.6876 5.9129c0 1.1912 0.95896 2.1501 2.1501 2.1501h8.6005c1.1912 0 2.1501-0.9589 2.1501-2.1501 0 1.1912 0.95896 2.1501 2.1501 2.1501h8.6005c1.1912 0 2.1501-0.9589 2.1501-2.1501 0 1.1912 0.95896 2.1501 2.1501 2.1501h8.6005c1.1912 0 2.1501-0.9589 2.1501-2.1501 0 1.1912 0.95896 2.1501 2.1501 2.1501h8.6005c1.1912 0 2.1501-0.9589 2.1501-2.1501v-8.6005c0-1.1912-0.95896-2.1502-2.1501-2.1502 1.1912 0 2.1501-0.9589 2.1501-2.1501v-8.6005c0-1.1912-0.95896-2.1502-2.1501-2.1502h-8.6005c-0.1489 0-0.29652 0-0.43675 0.033-0.98155 0.1998-1.7134 1.0742-1.7134 2.1164 0-1.1911-0.95896-2.1501-2.1501-2.1501 1.1912 0 2.1501-0.959 2.1501-2.1501v-8.6006c0-1.1912-0.95896-2.1501-2.1501-2.1501h-8.6005zm-2.1501 23.652c0 1.1911 0.95896 2.1501 2.1501 2.1501-0.1489 0-0.29652 0-0.43675 0.033-0.84133 0.1713-1.5085 0.8385-1.6798 1.6798-0.0286 0.1402-0.03365 0.2878-0.03365 0.4367 0-1.191-0.95896-2.1501-2.1501-2.1501 1.1912 0 2.1501-0.959 2.1501-2.1501zm12.901 0c0 1.1911 0.95896 2.1501 2.1501 2.1501-0.1489 0-0.29652 0-0.43675 0.033-0.84133 0.1713-1.5085 0.8385-1.6798 1.6798-0.0286 0.1402-0.03365 0.2878-0.03365 0.4367 0-1.191-0.95896-2.1501-2.1501-2.1501 0.89338 0 1.6566-0.538 1.9822-1.3102 0.05429-0.1287 0.10589-0.263 0.13438-0.4031 0.0286-0.1402 0.03365-0.288 0.03365-0.4368z"/>
  <g id="g5049" transform="matrix(1.0751 0 0 1.0751 -2.9678 950.69)">
   <rect id="rect3677-7" style="color:#000000" rx="2" ry="2" transform="rotate(-90)" width="12" y="18" x="-78" height="12" fill="url(#linearGradient91491)"/>
   <path id="rect3746" opacity=".5" style="color:#000000" d="m20 66c-1.108 0-2 0.892-2 2v8c0 1.108 0.892 2 2 2h8c1.108 0 2-0.892 2-2v-8c0-1.108-0.892-2-2-2h-8zm0 1h8c0.57508 0 1 0.42492 1 1v8c0 0.57508-0.42492 1-1 1h-8c-0.57508 0-1-0.42492-1-1v-8c0-0.57508 0.42492-1 1-1z" fill="url(#linearGradient91493)"/>
  </g>
  <g id="g5003" transform="matrix(1.0751 0 0 1.0751 -2.9678 950.69)">
   <rect id="rect3918" style="color:#000000" rx="2" ry="2" transform="rotate(-90)" width="12" y="54" x="-78" height="12" fill="url(#linearGradient91503)"/>
   <path id="path3922" opacity=".5" style="color:#000000" d="m56 66c-1.108 0-2 0.892-2 2v8c0 1.108 0.892 2 2 2h8c1.108 0 2-0.892 2-2v-8c0-1.108-0.892-2-2-2h-8zm0 1h8c0.57508 0 1 0.42492 1 1v8c0 0.57508-0.42492 1-1 1h-8c-0.57508 0-1-0.42492-1-1v-8c0-0.57508 0.42492-1 1-1z" fill="url(#linearGradient91505)"/>
  </g>
  <g id="g4074" transform="matrix(1.0751 0 0 1.0751 -6.193 950.69)">
   <rect id="rect3995" style="color:#000000" rx="2" ry="2" transform="rotate(-90)" width="12" y="45" x="-30" height="12" fill="url(#linearGradient91515)"/>
   <path id="path3999" opacity=".6" style="color:#000000" d="m47 18c-1.108 0-2 0.892-2 2v8c0 1.108 0.892 2 2 2h8c1.108 0 2-0.892 2-2v-8c0-1.108-0.892-2-2-2h-8zm0 1h8c0.57508 0 1 0.42492 1 1v8c0 0.57508-0.42492 1-1 1h-8c-0.57508 0-1-0.42492-1-1v-8c0-0.57508 0.42492-1 1-1z" fill="url(#linearGradient91517)"/>
  </g>
  <g id="g4959" transform="matrix(1.0751 0 0 1.0751 6.7078 950.69)">
   <rect id="rect4961" style="color:#000000" rx="2" ry="2" transform="rotate(-90)" width="12" y="45" x="-30" height="12" fill="url(#linearGradient91515)"/>
   <path id="path4963" opacity=".6" style="color:#000000" d="m47 18c-1.108 0-2 0.892-2 2v8c0 1.108 0.892 2 2 2h8c1.108 0 2-0.892 2-2v-8c0-1.108-0.892-2-2-2h-8zm0 1h8c0.57508 0 1 0.42492 1 1v8c0 0.57508-0.42492 1-1 1h-8c-0.57508 0-1-0.42492-1-1v-8c0-0.57508 0.42492-1 1-1z" fill="url(#linearGradient91517)"/>
  </g>
  <g id="g4969" transform="matrix(1.0751 0 0 1.0751 19.609 950.69)">
   <rect id="rect4971" style="color:#000000" rx="2" ry="2" transform="rotate(-90)" width="12" y="45" x="-30" height="12" fill="url(#linearGradient91515)"/>
   <path id="path4973" opacity=".6" style="color:#000000" d="m47 18c-1.108 0-2 0.892-2 2v8c0 1.108 0.892 2 2 2h8c1.108 0 2-0.892 2-2v-8c0-1.108-0.892-2-2-2h-8zm0 1h8c0.57508 0 1 0.42492 1 1v8c0 0.57508-0.42492 1-1 1h-8c-0.57508 0-1-0.42492-1-1v-8c0-0.57508 0.42492-1 1-1z" fill="url(#linearGradient91517)"/>
  </g>
  <g id="g4979" transform="matrix(1.0751 0 0 1.0751 19.609 963.59)">
   <rect id="rect4981" style="color:#000000" rx="2" ry="2" transform="rotate(-90)" width="12" y="45" x="-30" height="12" fill="url(#linearGradient91515)"/>
   <path id="path4983" opacity=".6" style="color:#000000" d="m47 18c-1.108 0-2 0.892-2 2v8c0 1.108 0.892 2 2 2h8c1.108 0 2-0.892 2-2v-8c0-1.108-0.892-2-2-2h-8zm0 1h8c0.57508 0 1 0.42492 1 1v8c0 0.57508-0.42492 1-1 1h-8c-0.57508 0-1-0.42492-1-1v-8c0-0.57508 0.42492-1 1-1z" fill="url(#linearGradient91517)"/>
  </g>
  <g id="g5007" transform="matrix(1.0751 0 0 1.0751 -2.9678 937.79)">
   <rect id="rect5009" style="color:#000000" rx="2" ry="2" transform="rotate(-90)" width="12" y="54" x="-78" height="12" fill="url(#linearGradient91503)"/>
   <path id="path5011" opacity=".5" style="color:#000000" d="m56 66c-1.108 0-2 0.892-2 2v8c0 1.108 0.892 2 2 2h8c1.108 0 2-0.892 2-2v-8c0-1.108-0.892-2-2-2h-8zm0 1h8c0.57508 0 1 0.42492 1 1v8c0 0.57508-0.42492 1-1 1h-8c-0.57508 0-1-0.42492-1-1v-8c0-0.57508 0.42492-1 1-1z" fill="url(#linearGradient91505)"/>
  </g>
  <g id="g5017" transform="matrix(1.0751 0 0 1.0751 -15.869 937.79)">
   <rect id="rect5019" style="color:#000000" rx="2" ry="2" transform="rotate(-90)" width="12" y="54" x="-78" height="12" fill="url(#linearGradient91503)"/>
   <path id="path5021" opacity=".5" style="color:#000000" d="m56 66c-1.108 0-2 0.892-2 2v8c0 1.108 0.892 2 2 2h8c1.108 0 2-0.892 2-2v-8c0-1.108-0.892-2-2-2h-8zm0 1h8c0.57508 0 1 0.42492 1 1v8c0 0.57508-0.42492 1-1 1h-8c-0.57508 0-1-0.42492-1-1v-8c0-0.57508 0.42492-1 1-1z" fill="url(#linearGradient91505)"/>
  </g>
  <g id="g5027" transform="matrix(1.0751 0 0 1.0751 -15.869 924.89)">
   <rect id="rect5029" style="color:#000000" rx="2" ry="2" transform="rotate(-90)" width="12" y="54" x="-78" height="12" fill="url(#linearGradient91503)"/>
   <path id="path5031" opacity=".5" style="color:#000000" d="m56 66c-1.108 0-2 0.892-2 2v8c0 1.108 0.892 2 2 2h8c1.108 0 2-0.892 2-2v-8c0-1.108-0.892-2-2-2h-8zm0 1h8c0.57508 0 1 0.42492 1 1v8c0 0.57508-0.42492 1-1 1h-8c-0.57508 0-1-0.42492-1-1v-8c0-0.57508 0.42492-1 1-1z" fill="url(#linearGradient91505)"/>
  </g>
  <g id="g5053" transform="matrix(1.0751 0 0 1.0751 9.933 950.69)">
   <rect id="rect5055" style="color:#000000" rx="2" ry="2" transform="rotate(-90)" width="12" y="18" x="-78" height="12" fill="url(#linearGradient91491)"/>
   <path id="path5057" opacity=".5" style="color:#000000" d="m20 66c-1.108 0-2 0.892-2 2v8c0 1.108 0.892 2 2 2h8c1.108 0 2-0.892 2-2v-8c0-1.108-0.892-2-2-2h-8zm0 1h8c0.57508 0 1 0.42492 1 1v8c0 0.57508-0.42492 1-1 1h-8c-0.57508 0-1-0.42492-1-1v-8c0-0.57508 0.42492-1 1-1z" fill="url(#linearGradient91493)"/>
  </g>
  <g id="g5063" transform="matrix(1.0751 0 0 1.0751 22.834 950.69)">
   <rect id="rect5065" style="color:#000000" rx="2" ry="2" transform="rotate(-90)" width="12" y="18" x="-78" height="12" fill="url(#linearGradient91491)"/>
   <path id="path5067" opacity=".5" style="color:#000000" d="m20 66c-1.108 0-2 0.892-2 2v8c0 1.108 0.892 2 2 2h8c1.108 0 2-0.892 2-2v-8c0-1.108-0.892-2-2-2h-8zm0 1h8c0.57508 0 1 0.42492 1 1v8c0 0.57508-0.42492 1-1 1h-8c-0.57508 0-1-0.42492-1-1v-8c0-0.57508 0.42492-1 1-1z" fill="url(#linearGradient91493)"/>
  </g>
  <g id="g5073" transform="matrix(1.0751 0 0 1.0751 9.933 937.79)">
   <rect id="rect5075" style="color:#000000" rx="2" ry="2" transform="rotate(-90)" width="12" y="18" x="-78" height="12" fill="url(#linearGradient91491)"/>
   <path id="path5077" opacity=".5" style="color:#000000" d="m20 66c-1.108 0-2 0.892-2 2v8c0 1.108 0.892 2 2 2h8c1.108 0 2-0.892 2-2v-8c0-1.108-0.892-2-2-2h-8zm0 1h8c0.57508 0 1 0.42492 1 1v8c0 0.57508-0.42492 1-1 1h-8c-0.57508 0-1-0.42492-1-1v-8c0-0.57508 0.42492-1 1-1z" fill="url(#linearGradient91493)"/>
  </g>
 </g>
</svg>
