<?xml version="1.0" encoding="UTF-8" standalone="no"?>
<!-- Created with Inkscape (http://www.inkscape.org/) -->
<svg id="svg2" xmlns:rdf="http://www.w3.org/1999/02/22-rdf-syntax-ns#" xmlns="http://www.w3.org/2000/svg" height="96" width="96" version="1.1" xmlns:cc="http://creativecommons.org/ns#" xmlns:xlink="http://www.w3.org/1999/xlink" xmlns:dc="http://purl.org/dc/elements/1.1/">
 <defs id="defs4">
  <linearGradient id="linearGradient3700-0">
   <stop id="stop3702-2" stop-color="#70a83e" offset="0"/>
   <stop id="stop3704-9" stop-color="#9fd058" offset="1"/>
  </linearGradient>
  <linearGradient id="linearGradient4982" y2="5.9877" xlink:href="#linearGradient3700-0" gradientUnits="userSpaceOnUse" x2="48" gradientTransform="translate(101.91 941.34)" y1="90" x1="48"/>
  <linearGradient id="linearGradient4081">
   <stop id="stop4083" stop-color="#8c8c8c" offset="0"/>
   <stop id="stop4085" stop-color="#dcdcdc" offset="1"/>
  </linearGradient>
  <linearGradient id="linearGradient3182" y2="5.9877" xlink:href="#linearGradient4081" gradientUnits="userSpaceOnUse" y1="90" gradientTransform="matrix(1.125 0 0 1.0417 -7.75 -3.25)" x2="48" x1="48"/>
  <linearGradient id="linearGradient4376-6" y2="71.877" xlink:href="#linearGradient4370-3" gradientUnits="userSpaceOnUse" x2="8" y1="38.127" x1="8"/>
  <linearGradient id="linearGradient4370-3">
   <stop id="stop4372" stop-color="#8a5b30" offset="0"/>
   <stop id="stop4374" stop-color="#8a5b30" stop-opacity="0" offset="1"/>
  </linearGradient>
  <linearGradient id="linearGradient3706-35" y2="39.853" gradientUnits="userSpaceOnUse" x2="54.187" y1="90" x1="54.187">
   <stop id="stop4291" stop-color="#996c3b" offset="0"/>
   <stop id="stop4293" stop-color="#c19e6d" offset="1"/>
  </linearGradient>
  <radialGradient id="radialGradient4432" gradientUnits="userSpaceOnUse" cy="73.146" cx="48" gradientTransform="matrix(.86776 0 0 .095238 6.3473 36.19)" r="42">
   <stop id="stop4428-2" stop-color="#71461e" offset="0"/>
   <stop id="stop4430-1" stop-color="#71461e" stop-opacity="0" offset="1"/>
  </radialGradient>
  <linearGradient id="linearGradient4400-2" y2="87.03" xlink:href="#linearGradient4370-3" gradientUnits="userSpaceOnUse" x2="8" gradientTransform="matrix(-1,0,0,1,96,0)" y1="38.127" x1="8"/>
  <linearGradient id="linearGradient4402" y2="89.666" xlink:href="#linearGradient3737-75" gradientUnits="userSpaceOnUse" x2="10" gradientTransform="matrix(-1,0,0,1,96,0)" y1="40.263" x1="10"/>
  <linearGradient id="linearGradient3737-75">
   <stop id="stop3739-80" stop-color="#fff" offset="0"/>
   <stop id="stop3741-17" stop-color="#fff" stop-opacity="0" offset="1"/>
  </linearGradient>
  <linearGradient id="linearGradient4394" y2="89.666" xlink:href="#linearGradient3737-75" gradientUnits="userSpaceOnUse" x2="10" y1="40.263" x1="10"/>
  <linearGradient id="linearGradient5100" y2="9.4099" gradientUnits="userSpaceOnUse" x2="6.5963" y1="32.783" x1="47.079">
   <stop id="stop5094" stop-color="#be9f6a" offset="0"/>
   <stop id="stop5096" stop-color="#e5d2b2" offset="1"/>
  </linearGradient>
  <filter id="filter4362" height="1.8526" width="1.6231" color-interpolation-filters="sRGB" y="-.42628" x="-.31156">
   <feGaussianBlur id="feGaussianBlur4364" stdDeviation="6.2124381"/>
  </filter>
  <linearGradient id="linearGradient2489" y2="18.202" xlink:href="#linearGradient4295" gradientUnits="userSpaceOnUse" x2="6.7813" y1="42" x1="48"/>
  <linearGradient id="linearGradient4295">
   <stop id="stop4297-7" stop-color="#b88f56" offset="0"/>
   <stop id="stop4299-1" stop-color="#d9bd98" offset="1"/>
  </linearGradient>
  <linearGradient id="linearGradient3264" y2="18.082" xlink:href="#linearGradient4295" gradientUnits="userSpaceOnUse" x2="6.3304" gradientTransform="matrix(-1,0,0,1,96,0)" y1="29.04" x1="47.227"/>
  <linearGradient id="linearGradient3285" y2="6" xlink:href="#linearGradient3737-75" gradientUnits="userSpaceOnUse" x2="66.964" y1="42" x1="23.143"/>
  <linearGradient id="linearGradient4420" y2="52.263" xlink:href="#linearGradient4414" gradientUnits="userSpaceOnUse" x2="8.9651" y1="44.04" x1="8.9651"/>
  <linearGradient id="linearGradient4414">
   <stop id="stop4416" stop-color="#dac3a2" offset="0"/>
   <stop id="stop4418" stop-color="#dac3a2" stop-opacity="0" offset="1"/>
  </linearGradient>
  <linearGradient id="linearGradient4424" y2="52.263" xlink:href="#linearGradient4414" gradientUnits="userSpaceOnUse" x2="8.9651" gradientTransform="matrix(-1 0 0 1 96.087 0)" y1="44.04" x1="8.9651"/>
  <radialGradient id="radialGradient2858-3" gradientUnits="userSpaceOnUse" cy="90.172" cx="48" gradientTransform="matrix(1.1573 0 0 .99591 -7.551 .19713)" r="42">
   <stop id="stop3739-1-8" stop-color="#fff" offset="0"/>
   <stop id="stop3741-8-0" stop-color="#fff" stop-opacity="0" offset="1"/>
  </radialGradient>
  <linearGradient id="linearGradient3934" y2="4.6666" xlink:href="#linearGradient3928" gradientUnits="userSpaceOnUse" x2="48.401" y1="61.991" x1="48.401"/>
  <linearGradient id="linearGradient3928">
   <stop id="stop3930-1" stop-color="#3a240f" offset="0"/>
   <stop id="stop3932-1" stop-color="#3a240f" stop-opacity="0" offset="1"/>
  </linearGradient>
  <linearGradient id="linearGradient3942" y2="6.0179" xlink:href="#linearGradient3928" gradientUnits="userSpaceOnUse" x2="46.796" y1="60.307" x1="46.796"/>
  <linearGradient id="linearGradient3277-5" y2="47.295" gradientUnits="userSpaceOnUse" x2="50.499" gradientTransform="matrix(1.0201 0 0 1.0201 -5.2982 5.7562)" y1="19.882" x1="50.499">
   <stop id="stop4311-3" stop-color="#d8cab2" offset="0"/>
   <stop id="stop4321-4" stop-color="#d2b98c" offset=".45711"/>
   <stop id="stop4323-7" stop-color="#f9f7ef" offset=".48590"/>
   <stop id="stop4325-1" stop-color="#fff" offset=".49110"/>
   <stop id="stop4327-9" stop-color="#fbf9f4" offset=".49180"/>
   <stop id="stop4329-7" stop-color="#efe7d0" offset=".4946"/>
   <stop id="stop4331-9" stop-color="#e4d6b0" offset=".49770"/>
   <stop id="stop4333-5" stop-color="#dac894" offset=".5011"/>
   <stop id="stop4335-2" stop-color="#c7a572" offset=".50490"/>
   <stop id="stop4347-5" stop-color="#d7c198" offset="1"/>
  </linearGradient>
  <linearGradient id="linearGradient12697" y2="4.9937" gradientUnits="userSpaceOnUse" x2="10.541" gradientTransform="matrix(3.9162 .20637 -.20630 3.9169 145.68 963.64)" y1="15.373" x1="11.087">
   <stop id="stop3660-1" stop-color="#ff9604" offset="0"/>
   <stop id="stop3662-3" stop-color="#fff580" offset="1"/>
  </linearGradient>
  <linearGradient id="linearGradient12699" y2="18.702" gradientUnits="userSpaceOnUse" x2="48.714" gradientTransform="matrix(0.7 0 0 0.7 151.96 972.17)" y1="76.203" x1="48.714">
   <stop id="stop3688" stop-color="#dcdcdc" offset="0"/>
   <stop id="stop3690-1" stop-color="#f0f0f0" offset="1"/>
  </linearGradient>
  <linearGradient id="linearGradient12701" y2="74.185" gradientUnits="userSpaceOnUse" x2="52.821" gradientTransform="matrix(0.7 0 0 0.7 151.96 972.17)" y1="32.81" x1="52.821">
   <stop id="stop3703-5" stop-color="#fff" offset="0"/>
   <stop id="stop3705-4" stop-color="#fff" stop-opacity="0" offset="1"/>
  </linearGradient>
  <clipPath id="clipPath12721" clipPathUnits="userSpaceOnUse">
   <path id="path12723" opacity=".9" d="m19.836 8.6538c-6.1891 0-11.167 5.1265-11.167 11.463v57.999c0 5.1486 3.2795 9.4859 7.8315 10.929h63.29c4.3762-1.3844 7.585-5.4488 7.8315-10.335v-59.187c-0.298-6.06-5.143-10.869-11.139-10.869h-56.648z" fill="url(#linearGradient12725)"/>
  </clipPath>
  <linearGradient id="linearGradient12725" y2="5.9877" xlink:href="#linearGradient4081" gradientUnits="userSpaceOnUse" x2="48" gradientTransform="matrix(1.0442 0 0 .98991 -3.5718 .42759)" y1="90" x1="48"/>
 </defs>
 <metadata id="metadata7">
  <rdf:RDF>
   <cc:Work rdf:about="">
    <dc:format>image/svg+xml</dc:format>
    <dc:type rdf:resource="http://purl.org/dc/dcmitype/StillImage"/>
    <dc:title/>
   </cc:Work>
  </rdf:RDF>
 </metadata>
 <g id="layer1" transform="translate(0 -956.36)">
  <rect id="rect5261-6" fill-opacity=".039216" ry="12.552" height="88.762" width="88.762" y="959.96" x="3.6078"/>
  <rect id="rect5259-9" fill-opacity=".078431" ry="12.38" height="87.546" width="87.546" y="960.57" x="4.2157"/>
  <rect id="rect5257-5" fill-opacity=".15686" ry="12.208" height="86.33" width="86.33" y="961.18" x="4.8237"/>
  <path id="rect2419" opacity=".9" d="m17.469 5.4062c-6.668 0-12.032 5.3948-12.032 12.063l0.0005 61.031c0 5.418 3.5332 9.982 8.4375 11.5h68.187c4.715-1.457 8.172-5.734 8.438-10.875v-62.281c-0.321-6.377-5.54-11.438-12-11.438l-61.031 0.0002z" transform="translate(0 956.36)" fill="url(#linearGradient3182)"/>
  <g id="layer1-2" clip-path="url(#clipPath12721)" transform="matrix(1.0774 0 0 1.0523 -3.9018 952.66)">
   <path id="rect5138" d="m6 36v48c0 1.7818 0.77457 3.3717 2 4.4688v-52.469h-2z" fill="url(#linearGradient4376-6)"/>
   <rect id="rect2419-9" rx="6" ry="6" height="84" width="84" y="6" x="6" fill="url(#linearGradient3706-35)"/>
   <path id="path3287" d="m6 36v2c0 3.324 2.676 6 6 6h72c3.324 0 6-2.676 6-6v-2c0 3.324-2.676 6-6 6h-72c-3.324 0-6-2.676-6-6z" fill="url(#radialGradient4432)"/>
   <path id="path4396" d="m90 36v48c0 1.7818-0.77457 3.3717-2 4.4688v-52.469h2z" fill="url(#linearGradient4400-2)"/>
   <rect id="rect2483" rx="6" ry="6" height="24" width="84" y="18" x="6" fill="#3c2510"/>
   <path id="path4398" opacity=".3" d="m88 36v52.469c-0.57686 0.51642-1.2549 0.92309-2 1.1875v-53.656h2z" fill="url(#linearGradient4402)"/>
   <path id="path4378" opacity=".3" d="m8 36v52.469c0.57686 0.51642 1.2549 0.92309 2 1.1875v-53.656h-2z" fill="url(#linearGradient4394)"/>
   <path id="path5055" d="m12 6c-3.2266 0-6 2.2593-6 7v2 20.656l42 0.035v-29.691h-34-2z" fill="url(#linearGradient5100)"/>
   <rect id="rect4356" opacity=".3" transform="matrix(1 0 0 .85560 10 8.5841)" rx="6" ry="6" height="34.977" filter="url(#filter4362)" width="47.856" y="41.957" x="12.753" fill="#dac7a8"/>
   <path id="rect2481" d="m12 6c-3.324 0-6 2.676-6 6v24c0 3.324 2.676 6 6 6l36-2v-36l-36 2z" fill="url(#linearGradient2489)"/>
   <path id="path3262" d="m84 6c3.324 0 6 2.676 6 6v24c0 3.324-2.676 6-6 6l-36-2v-36l36 2z" fill="url(#linearGradient3264)"/>
   <path id="rect3266" opacity=".3" d="m12 6c-3.324 0-6 2.676-6 6v24c0 3.324 2.676 6 6 6l36-2 36 2c3.324 0 6-2.676 6-6v-24c0-3.324-2.676-6-6-6l-36-2-36 2zm0 2 36-2 36 2c2.2458 0 4 1.7542 4 4v24c0 2.2458-1.7542 4-4 4l-36-2-36 2c-2.2458 0-4-1.754-4-4v-24c0-2.2458 1.7542-4 4-4z" fill="url(#linearGradient3285)"/>
   <path id="path4404" d="m6.1872 37.285c2.3991 5.5558 1.894 16.036 1.894 16.036l1.8309-0.252c-0.2525-8.208 0.4419-11.238 4.9879-11.365-7.1692-1.195-8.7128-4.419-8.7128-4.419z" fill-rule="evenodd" fill="url(#linearGradient4420)"/>
   <path id="path4422" d="m89.9 37.285c-2.3991 5.5558-1.894 16.036-1.894 16.036l-1.831-0.252c0.252-8.208-0.442-11.238-4.988-11.365 7.169-1.195 8.713-4.419 8.713-4.419z" fill-rule="evenodd" fill="url(#linearGradient4424)"/>
   <path id="path3615" opacity=".2" d="m12 90c-3.324 0-6-2.676-6-6v-2-68-2c0-0.33472 0.04135-0.6507 0.09375-0.96875 0.0487-0.2956 0.09704-0.59692 0.1875-0.875 0.0099-0.03 0.0209-0.063 0.0313-0.094 0.0989-0.2873 0.2349-0.547 0.375-0.812 0.1446-0.2735 0.3156-0.5356 0.5-0.7812 0.1844-0.2457 0.3738-0.4735 0.5937-0.6876 0.44-0.428 0.943-0.8145 1.5-1.0937 0.2786-0.1396 0.5735-0.2469 0.8748-0.3437-0.256 0.1002-0.4865 0.2362-0.7185 0.375-0.00741 0.0044-0.023866-0.0045-0.03125 0-0.031933 0.0193-0.062293 0.04251-0.09375 0.0625-0.1204 0.0767-0.23102 0.16351-0.34375 0.25-0.10617 0.0808-0.21328 0.16111-0.3125 0.25-0.1779 0.1614-0.3474 0.3453-0.5 0.5312-0.1075 0.1303-0.2183 0.2653-0.3124 0.4063-0.0251 0.0383-0.0385 0.0858-0.0626 0.125-0.0647 0.103-0.1302 0.2045-0.1874 0.3124-0.1011 0.1948-0.2057 0.4158-0.2813 0.625-0.008 0.0219-0.0236 0.0406-0.0313 0.0626-0.0318 0.0919-0.0358 0.1868-0.0624 0.2812-0.0304 0.1066-0.0704 0.203-0.0938 0.3125-0.0729 0.3415-0.125 0.6985-0.125 1.0625v2 68 2c0 2.7818 2.2182 5 5 5h2 68 2c2.7818 0 5-2.2182 5-5v-2-68-2c0-0.364-0.052-0.721-0.125-1.0625-0.044-0.2069-0.088-0.3977-0.156-0.5937-0.008-0.022-0.024-0.0407-0.031-0.0626-0.063-0.1737-0.139-0.3674-0.219-0.5312-0.042-0.0828-0.079-0.17-0.125-0.25-0.055-0.0972-0.127-0.1884-0.188-0.2812-0.094-0.141-0.205-0.276-0.312-0.4063-0.143-0.1745-0.303-0.347-0.469-0.5-0.011-0.0102-0.02-0.0211-0.031-0.0313-0.139-0.1255-0.285-0.2344-0.438-0.3437-0.102-0.0731-0.204-0.1534-0.312-0.2187-0.0074-0.0045-0.02384 0.0044-0.03125 0-0.23204-0.13873-0.46255-0.27478-0.71875-0.375 0.30153 0.0968 0.59646 0.20414 0.875 0.34375 0.55709 0.27922 1.0601 0.66569 1.5 1.0938 0.21997 0.21403 0.40937 0.44186 0.59375 0.6875s0.35541 0.50774 0.5 0.78125c0.14012 0.26505 0.27614 0.52473 0.375 0.8125 0.01041 0.03078 0.02133 0.06274 0.03125 0.09375 0.09046 0.27808 0.1388 0.5794 0.1875 0.875 0.053 0.318 0.094 0.634 0.094 0.969v2 68 2c0 3.324-2.676 6-6 6h-72z" fill="url(#radialGradient2858-3)"/>
   <path id="path5008" opacity=".5" d="m54.12 7h-12.12l0.06 24.062 0.135 28.938 5.687-0.495 6.044-0.525 0.032-5.551 0.102-22.367 0.06-24.062z" fill="#3a240f"/>
   <path id="path3926" opacity=".1" d="m41.688 5.125c0.0042-0.0007112-0.19165 0.032337-0.1875 0.03125 0.0042-0.00109-0.16029 0.063954-0.15625 0.0625 0.004-0.00145-0.16014 0.064309-0.15625 0.0625 0.0039-0.00181-0.12871 0.06465-0.125 0.0625 0.0037-0.00215-0.15976 0.096223-0.15625 0.09375 0.0035-0.00247-0.12827 0.12778-0.125 0.125 0.0033-0.00278-0.12801 0.096809-0.125 0.09375 0.003-0.00306-0.12772 0.12832-0.125 0.125 0.0027-0.00332-0.09617 0.1598-0.09375 0.15625 0.0024-0.00355-0.09584 0.12875-0.09375 0.125 0.0021-0.00375-0.06424 0.16017-0.0625 0.15625 0.0017-0.00392-0.06389 0.16031-0.0625 0.15625 0.0014-0.00406-0.03227 0.16042-0.03125 0.15625 0.001-0.00417-0.06314 0.16049-0.0625 0.15625 0.000642-0.00424-0.00026 0.19178 0 0.1875 0.000208-0.00343 0.000769 0.08233 0 0.125v0.03125l0.062 24.031 0.124 28.938a1.0058 1.0058 0 0 0 0 0.03125c-0.000042-0.0025 0.000168 0.0962 0 0.09375-0.000168-0.0025 0.000294 0.09619 0 0.09375-0.000294-0.0024 0.03167 0.09617 0.03125 0.09375-0.000419-0.0024 0.000542 0.09615 0 0.09375s0.03191 0.09611 0.03125 0.09375c-0.000664-0.0024 0.03204 0.09608 0.03125 0.09375-0.000785-0.0023 0.03215 0.06479 0.03125 0.0625-0.000903-0.0023 0.03227 0.09599 0.03125 0.09375-0.001-0.0022 0.06363 0.09593 0.0625 0.09375-0.0011-0.0022 0.03249 0.09587 0.03125 0.09375-0.0012-0.0021 0.06385 0.06455 0.0625 0.0625-0.0014-0.0021 0.0327 0.09573 0.03125 0.09375-0.0015-0.002 0.06405 0.0644 0.0625 0.0625-0.0016-0.0019 0.06415 0.09557 0.0625 0.09375-0.0016-0.0018 0.06424 0.06423 0.0625 0.0625-0.0017-0.0017 0.09558 0.06414 0.09375 0.0625-0.0018-0.0016 0.06441 0.06405 0.0625 0.0625-0.0019-0.0015 0.06448 0.06395 0.0625 0.0625-0.002-0.0014 0.09581 0.06384 0.09375 0.0625-0.0021-0.0013 0.06462 0.03249 0.0625 0.03125-0.0021-0.0012 0.09593 0.06363 0.09375 0.0625-0.0022-0.0011 0.09599 0.03226 0.09375 0.03125-0.0022-0.001 0.09604 0.03215 0.09375 0.03125-0.0023-0.000897 0.09608 0.03203 0.09375 0.03125-0.0023-0.000779 0.09612 0.03191 0.09375 0.03125-0.0024-0.000658 0.09615 0.03179 0.09375 0.03125-0.0024-0.000536 0.09617 0.000412 0.09375 0-0.0024-0.000412 0.09619 0.03154 0.09375 0.03125-0.0024-0.000288 0.0962 0.000162 0.09375 0-0.0025-0.000162 0.09621 0.000036 0.09375 0-0.0025-0.000036 0.0962-0.00009 0.09375 0-0.0025 0.00009 0.0962-0.000216 0.09375 0l5.6875-0.5 6.0312-0.53125c-0.000893 0.000051 0.02019 0.0012 0.03125 0 0.04424-0.0047 0.12854-0.000537 0.125 0-0.0044 0.000671 0.19184-0.06358 0.1875-0.0625-0.0043 0.0011 0.16047-0.03273 0.15625-0.03125-0.0042 0.0015 0.16031-0.06437 0.15625-0.0625-0.0041 0.0019 0.16012-0.09599 0.15625-0.09375-0.0039 0.0022 0.1599-0.09634 0.15625-0.09375-0.0036 0.0026 0.12839-0.09667 0.125-0.09375-0.0034 0.0029 0.1281-0.12822 0.125-0.125-0.0031 0.0032 0.12779-0.1285 0.125-0.125-0.0028 0.0035 0.0962-0.15999 0.09375-0.15625-0.0025 0.0037 0.09584-0.1602 0.09375-0.15625-0.0021 0.004 0.09546-0.16038 0.09375-0.15625-0.0017 0.0041 0.06382-0.16052 0.0625-0.15625-0.0013 0.0043 0.03217-0.16063 0.03125-0.15625-0.000916 0.0044 0.03175-0.19194 0.03125-0.1875-0.000504 0.0044 0.000087-0.16072 0-0.15625a1.0058 1.0058 0 0 0 0 -0.03125l0.031-5.531 0.094-22.376 0.062-24.062c-0.000073 0.00479-0.000406-0.16103 0-0.15625s-0.03213-0.19221-0.03125-0.1875c0.000881 0.00471-0.0326-0.1921-0.03125-0.1875 0.0013 0.0046-0.0643-0.19194-0.0625-0.1875s-0.09599-0.16049-0.09375-0.15625c0.0022 0.00424-0.0964-0.16025-0.09375-0.15625 0.0026 0.004-0.09678-0.15996-0.09375-0.15625 0.003 0.00371-0.12839-0.15964-0.125-0.15625 0.0034 0.00339-0.15996-0.12803-0.15625-0.125 0.004 0.0029-0.16-0.0965-0.156-0.0939 0.004 0.0027-0.16-0.096-0.156-0.0937 0.004 0.0022-0.161-0.0956-0.156-0.0938 0.0044 0.0018-0.1921-0.063848-0.1875-0.0625 0.0046 0.00135-0.19221-0.032132-0.1875-0.03125 0.0047 0.0008815-0.19228-0.031656-0.1875-0.03125 0.0048 0.0004063-0.16104 0.000073-0.15625 0h-12.031c0.0026 0.0002364-0.04386 0.00229-0.09375 0-0.03326-0.00153-0.06424 0-0.0625 0 0.0043 0-0.19183 0.000394-0.1875 0a1.0058 1.0058 0 0 0 -0.0625 0z" fill="url(#linearGradient3934)"/>
   <path id="path3922" opacity=".2" d="m42 6.125a0.86198 0.86198 0 0 0 -0.875 0.875l0.063 24.062 0.124 28.938a0.86198 0.86198 0 0 0 0.9375 0.84375l5.6875-0.5 6.062-0.532a0.86198 0.86198 0 0 0 0.8125 -0.84375l0.032-5.53 0.094-22.376 0.062-24.062a0.86198 0.86198 0 0 0 -0.875 -0.875h-12.125z" fill="url(#linearGradient3942)"/>
   <path id="polygon120" d="m54.06 4.3687-6.06-0.442-6.06 0.442 0.06 25.693 0.135 28.938l5.6868-0.49473 6.0439-0.52533 0.03264-5.5512 0.10201-22.367 0.06018-25.694z" fill="url(#linearGradient3277-5)"/>
   <rect id="rect4363" opacity=".2" height="35.714" width="1" y="4.125" x="47" fill="#8d6137"/>
   <rect id="rect4365" opacity=".2" height="35.714" width="1" y="4.125" x="48" fill="#fff"/>
  </g>
  <path id="rect5265-0" d="m5.4316 1029.8v5.0663c0 6.668 5.3645 12.032 12.032 12.032h61.049c6.668 0 12.032-5.3645 12.032-12.032v-5.0663c0 6.6681-5.3645 12.032-12.032 12.032h-61.049c-6.668 0-12.032-5.3643-12.032-12.032z" fill-opacity=".23529"/>
  <path id="path5252-0" d="m5.4316 1033.9v1.0133c0 6.668 5.3645 12.032 12.032 12.032h61.049c6.668 0 12.032-5.3645 12.032-12.032v-1.0133c0 6.6681-5.3645 12.032-12.032 12.032h-61.049c-6.668 0-12.032-5.3644-12.032-12.032z" fill-opacity=".098039"/>
  <rect id="rect3873" rx="6" ry="6" height="84" width="84" display="none" y="947.34" x="107.91" fill="url(#linearGradient4982)"/>
  <rect id="rect3880" rx="6" ry="6" height="84" width="84" display="none" y="947.34" x="107.91" fill="url(#linearGradient4982)"/>
  <g id="layer5-9" transform="matrix(1.0298 0 0 1.0174 -1.6161 955.8)">
   <g id="g3745" transform="translate(0,-2)">
    <rect id="rect3739" rx="1.8667" ry="2" height="19" width="14" stroke="#825023" y="49.5" x="15.5" fill="none"/>
    <path id="path3741" d="m18.25 66v-9.25h-1.25l2.5-4.75 2.5 4.75h-1.25v9.25h-2.5z" fill="#825023"/>
    <path id="path3743" d="m24.25 66v-9.25h-1.25l2.5-4.75 2.5 4.75h-1.25v9.25h-2.5z" fill="#825023"/>
   </g>
   <g id="text3750" fill="#553417">
    <path id="path3137" d="m15.148 74.082h1.0937v0.30762h-0.64941v0.25h0.55469v0.28906h-0.55469v0.58496h-0.44434v-1.4316"/>
    <path id="path3139" d="m17.176 75.278h-0.50391l-0.06934 0.23633h-0.45215l0.53809-1.4316h0.48242l0.53809 1.4316h-0.46289l-0.07031-0.23633m-0.09277-0.30957-0.1582-0.51465-0.15723 0.51465h0.31543"/>
    <path id="path3141" d="m17.849 74.082h1.1855v0.30566h-0.74219v0.22754h0.68848v0.29199h-0.68848v0.28223h0.76367v0.32422h-1.207v-1.4316"/>
    <path id="path3143" d="m19.298 74.082h0.41308l0.53906 0.79199v-0.79199h0.41699v1.4316h-0.41699l-0.53613-0.78613v0.78613h-0.41602v-1.4316"/>
    <path id="path3145" d="m20.927 74.082h1.252v0.28613l-0.80273 0.83789h0.83203v0.30762h-1.3584v-0.29688l0.79395-0.8291h-0.7168v-0.30566"/>
    <path id="path3147" d="m23.289 75.278h-0.50391l-0.06934 0.23633h-0.45215l0.53809-1.4316h0.48242l0.53809 1.4316h-0.46289l-0.07031-0.23633m-0.09277-0.30957-0.1582-0.51465-0.15723 0.51465h0.31543"/>
   </g>
   <g id="text3754" fill="#553417">
    <path id="path3037" d="m15.11 81.514v-1.0737h0.14209v0.53247l0.5332-0.53247h0.19263l-0.45044 0.43506 0.47022 0.63867h-0.1875l-0.38232-0.54346-0.17578 0.17139v0.37207h-0.14209"/>
    <path id="path3039" d="m16.633 81.263 0.13623 0.01685c-0.02149 0.07959-0.06128 0.14136-0.11938 0.1853-0.05811 0.04395-0.13232 0.06592-0.22266 0.06592-0.11377 0-0.2041-0.03491-0.271-0.10474-0.06641-0.07031-0.09961-0.1687-0.09961-0.29517 0-0.13086 0.03369-0.23242 0.10107-0.30469 0.06738-0.07226 0.15478-0.1084 0.26221-0.1084 0.104 0.000001 0.18896 0.0354 0.25488 0.1062s0.09888 0.17041 0.09888 0.29883c-0.000001 0.0078-0.000245 0.01953-0.000733 0.03516h-0.58008c0.0049 0.08545 0.02905 0.15088 0.07251 0.19629s0.09766 0.06812 0.1626 0.06812c0.04834 0 0.0896-0.0127 0.12378-0.03809s0.06128-0.06592 0.0813-0.12158m-0.43286-0.21314h0.43433c-0.0059-0.06543-0.02246-0.1145-0.0498-0.14722-0.04199-0.05078-0.09644-0.07617-0.16333-0.07617-0.06055 0.000001-0.11157 0.02026-0.15308 0.06079-0.04102 0.04053-0.06372 0.09473-0.06812 0.1626"/>
    <path id="path3041" d="m17.468 81.263 0.13623 0.01685c-0.02149 0.07959-0.06128 0.14136-0.11938 0.1853-0.05811 0.04395-0.13232 0.06592-0.22266 0.06592-0.11377 0-0.2041-0.03491-0.271-0.10474-0.06641-0.07031-0.09961-0.1687-0.09961-0.29517 0-0.13086 0.03369-0.23242 0.10107-0.30469 0.06738-0.07226 0.15478-0.1084 0.26221-0.1084 0.104 0.000001 0.18896 0.0354 0.25488 0.1062s0.09888 0.17041 0.09888 0.29883c-0.000001 0.0078-0.000245 0.01953-0.000733 0.03516h-0.58008c0.0049 0.08545 0.02905 0.15088 0.07251 0.19629s0.09766 0.06812 0.1626 0.06812c0.04834 0 0.0896-0.0127 0.12378-0.03809s0.06128-0.06592 0.0813-0.12158m-0.43286-0.21314h0.43433c-0.0059-0.06543-0.02246-0.1145-0.0498-0.14722-0.04199-0.05078-0.09644-0.07617-0.16333-0.07617-0.06055 0.000001-0.11157 0.02026-0.15308 0.06079-0.04102 0.04053-0.06372 0.09473-0.06812 0.1626"/>
    <path id="path3043" d="m17.771 81.812v-1.0759h0.12012v0.10107c0.02832-0.03955 0.0603-0.06909 0.09595-0.08862 0.03564-0.02002 0.07886-0.03003 0.12964-0.03003 0.06641 0.000001 0.125 0.01709 0.17578 0.05127s0.08911 0.08252 0.11499 0.14502c0.02588 0.06201 0.03882 0.13013 0.03882 0.20435-0.000001 0.07959-0.01441 0.15137-0.04321 0.21533-0.02832 0.06348-0.06983 0.1123-0.12451 0.14648-0.0542 0.03369-0.11133 0.05054-0.17139 0.05054-0.04395 0-0.0835-0.0093-0.11865-0.02783-0.03467-0.01855-0.06323-0.04199-0.08569-0.07031v0.37866h-0.13184m0.11938-0.68262c0 0.1001 0.02026 0.17407 0.06079 0.22192s0.0896 0.07178 0.14722 0.07178c0.05859 0 0.10864-0.02466 0.15015-0.07398 0.04199-0.0498 0.06299-0.12671 0.06299-0.23071 0-0.09912-0.02051-0.17334-0.06152-0.22266-0.04053-0.04932-0.08911-0.07397-0.14575-0.07398-0.05615 0.000001-0.10596 0.02637-0.14941 0.0791-0.04297 0.05225-0.06445 0.12842-0.06445 0.22852"/>
    <path id="path3045" d="m19.022 80.592v-0.15161h0.13184v0.15161h-0.13184m0 0.92212v-0.77783h0.13184v0.77783h-0.13184"/>
    <path id="path3047" d="m19.356 81.514v-0.77783h0.11865v0.1106c0.05713-0.08545 0.13965-0.12817 0.24756-0.12817 0.04687 0.000001 0.08984 0.0085 0.12891 0.02564 0.03955 0.0166 0.06909 0.03857 0.08862 0.06592 0.01953 0.02734 0.0332 0.05982 0.04102 0.09741 0.0049 0.02441 0.0073 0.06714 0.0073 0.12817v0.47827h-0.13184v-0.47314c-0.000001-0.05371-0.0051-0.09375-0.01538-0.12012-0.01025-0.02685-0.02857-0.0481-0.05493-0.06372-0.02588-0.01611-0.0564-0.02417-0.09155-0.02417-0.05615 0-0.10474 0.01782-0.14575 0.05347-0.04053 0.03565-0.06079 0.10327-0.06079 0.20288v0.4248h-0.13184"/>
    <path id="path3049" d="m21.114 81.418c-0.04883 0.0415-0.09595 0.0708-0.14136 0.08789-0.04492 0.01709-0.09326 0.02563-0.14502 0.02563-0.08545 0-0.15112-0.02075-0.19702-0.06226-0.0459-0.04199-0.06885-0.09546-0.06885-0.1604 0-0.03809 0.0085-0.07275 0.02563-0.104 0.01758-0.03174 0.04028-0.05713 0.06812-0.07617 0.02832-0.01904 0.06006-0.03345 0.09521-0.04321 0.02588-0.0068 0.06494-0.01343 0.11719-0.01977 0.10644-0.0127 0.18481-0.02783 0.23511-0.04541 0.000488-0.01807 0.000732-0.02954 0.000733-0.03442-0.000001-0.05371-0.01245-0.09155-0.03735-0.11352-0.03369-0.02979-0.08374-0.04468-0.15015-0.04468-0.06201 0.000001-0.10791 0.01099-0.1377 0.03296-0.0293 0.02148-0.05103 0.05982-0.06519 0.11499l-0.12891-0.01758c0.01172-0.05517 0.03101-0.09961 0.05786-0.1333 0.02686-0.03418 0.06567-0.0603 0.11646-0.07837 0.05078-0.01855 0.10962-0.02783 0.17651-0.02783 0.06641 0.000001 0.12036 0.0078 0.16186 0.02344 0.0415 0.01563 0.07202 0.0354 0.09155 0.05933 0.01953 0.02344 0.0332 0.05322 0.04102 0.08935 0.0044 0.02246 0.0066 0.06299 0.0066 0.12158v0.17578c0 0.12256 0.0027 0.2002 0.0081 0.23291 0.0059 0.03223 0.01709 0.06323 0.03369 0.09302h-0.1377c-0.01367-0.02734-0.02246-0.05933-0.02637-0.09595m-0.01099-0.29443c-0.04785 0.01953-0.11963 0.03613-0.21533 0.04981-0.0542 0.0078-0.09253 0.0166-0.11499 0.02637-0.02246 0.0098-0.0398 0.02417-0.052 0.04321-0.01221 0.01855-0.01831 0.03931-0.01831 0.06226 0 0.03516 0.01318 0.06445 0.03955 0.08789 0.02686 0.02344 0.06592 0.03516 0.11719 0.03516 0.05078 0 0.09595-0.01099 0.1355-0.03296 0.03955-0.02246 0.0686-0.05298 0.08716-0.09155 0.01416-0.02978 0.02124-0.07373 0.02124-0.13184v-0.04834"/>
    <path id="path3051" d="m21.805 81.282 0.13037-0.02051c0.0073 0.05225 0.02759 0.09229 0.06079 0.12012 0.03369 0.02783 0.08057 0.04175 0.14062 0.04175 0.06055 0 0.10547-0.01221 0.13476-0.03662 0.0293-0.0249 0.04395-0.05395 0.04395-0.08716-0.000001-0.02979-0.01294-0.05322-0.03882-0.07031-0.01807-0.01172-0.06299-0.02661-0.13476-0.04468-0.09668-0.02441-0.16382-0.04541-0.20142-0.06299-0.03711-0.01807-0.06543-0.04272-0.08496-0.07398-0.01904-0.03174-0.02857-0.06665-0.02857-0.10474 0-0.03467 0.0078-0.06665 0.02344-0.09595 0.01611-0.02978 0.03784-0.05444 0.06518-0.07397 0.02051-0.01514 0.04834-0.02783 0.0835-0.03809 0.03564-0.01074 0.07373-0.01611 0.11426-0.01611 0.06104 0.000001 0.1145 0.0088 0.1604 0.02637 0.04639 0.01758 0.08057 0.04151 0.10254 0.07178 0.02197 0.02979 0.03711 0.06982 0.04541 0.12012l-0.12891 0.01758c-0.0059-0.04004-0.02295-0.07129-0.05127-0.09375-0.02783-0.02246-0.06738-0.03369-0.11865-0.03369-0.06055 0.000001-0.10376 0.01001-0.12964 0.03003s-0.03882 0.04346-0.03882 0.07031c0 0.01709 0.0054 0.03247 0.01611 0.04614 0.01074 0.01416 0.02759 0.02588 0.05054 0.03516 0.01318 0.0049 0.052 0.01611 0.11646 0.03369 0.09326 0.0249 0.1582 0.04541 0.19482 0.06152 0.03711 0.01563 0.06616 0.03858 0.08716 0.06885s0.03149 0.06787 0.03149 0.11279c-0.000001 0.04395-0.01294 0.08545-0.03882 0.12451-0.02539 0.03858-0.06226 0.0686-0.1106 0.09009-0.04834 0.021-0.10303 0.03149-0.16406 0.03149-0.10107 0-0.17822-0.021-0.23144-0.06299-0.05274-0.04199-0.08643-0.10425-0.10107-0.18677"/>
    <path id="path3053" d="m23.115 81.418c-0.04883 0.0415-0.09595 0.0708-0.14136 0.08789-0.04492 0.01709-0.09326 0.02563-0.14502 0.02563-0.08545 0-0.15112-0.02075-0.19702-0.06226-0.0459-0.04199-0.06885-0.09546-0.06885-0.1604 0-0.03809 0.0085-0.07275 0.02563-0.104 0.01758-0.03174 0.04028-0.05713 0.06812-0.07617 0.02832-0.01904 0.06006-0.03345 0.09521-0.04321 0.02588-0.0068 0.06494-0.01343 0.11719-0.01977 0.10644-0.0127 0.18481-0.02783 0.23511-0.04541 0.000488-0.01807 0.000732-0.02954 0.000732-0.03442 0-0.05371-0.01245-0.09155-0.03735-0.11352-0.03369-0.02979-0.08374-0.04468-0.15015-0.04468-0.06201 0.000001-0.10791 0.01099-0.1377 0.03296-0.0293 0.02148-0.05102 0.05982-0.06518 0.11499l-0.12891-0.01758c0.01172-0.05517 0.03101-0.09961 0.05786-0.1333 0.02686-0.03418 0.06567-0.0603 0.11646-0.07837 0.05078-0.01855 0.10962-0.02783 0.17651-0.02783 0.06641 0.000001 0.12036 0.0078 0.16187 0.02344 0.0415 0.01563 0.07202 0.0354 0.09155 0.05933 0.01953 0.02344 0.0332 0.05322 0.04102 0.08935 0.0044 0.02246 0.0066 0.06299 0.0066 0.12158v0.17578c-0.000001 0.12256 0.0027 0.2002 0.0081 0.23291 0.0059 0.03223 0.01709 0.06323 0.03369 0.09302h-0.1377c-0.01367-0.02734-0.02246-0.05933-0.02637-0.09595m-0.01099-0.29443c-0.04785 0.01953-0.11963 0.03613-0.21533 0.04981-0.0542 0.0078-0.09253 0.0166-0.11499 0.02637-0.02246 0.0098-0.03979 0.02417-0.052 0.04321-0.01221 0.01855-0.01831 0.03931-0.01831 0.06226 0 0.03516 0.01318 0.06445 0.03955 0.08789 0.02686 0.02344 0.06592 0.03516 0.11719 0.03516 0.05078 0 0.09595-0.01099 0.1355-0.03296 0.03955-0.02246 0.0686-0.05298 0.08716-0.09155 0.01416-0.02978 0.02124-0.07373 0.02124-0.13184v-0.04834"/>
    <path id="path3055" d="m23.474 81.514v-0.67529h-0.11646v-0.10254h0.11646v-0.08276c0-0.05224 0.0046-0.09106 0.01392-0.11646 0.0127-0.03418 0.03491-0.06177 0.06665-0.08276 0.03223-0.02148 0.07715-0.03223 0.13477-0.03223 0.03711 0.000001 0.07813 0.0044 0.12305 0.01318l-0.01977 0.11499c-0.02735-0.0049-0.05322-0.0073-0.07764-0.0073-0.04004 0.000001-0.06836 0.0085-0.08496 0.02564-0.0166 0.01709-0.0249 0.04907-0.0249 0.09595v0.07178h0.15161v0.10254h-0.15161v0.67529h-0.1311"/>
    <path id="path3057" d="m24.391 81.263 0.13623 0.01685c-0.02148 0.07959-0.06128 0.14136-0.11938 0.1853-0.05811 0.04395-0.13232 0.06592-0.22266 0.06592-0.11377 0-0.2041-0.03491-0.271-0.10474-0.06641-0.07031-0.09961-0.1687-0.09961-0.29517 0-0.13086 0.03369-0.23242 0.10107-0.30469 0.06738-0.07226 0.15478-0.1084 0.26221-0.1084 0.104 0.000001 0.18896 0.0354 0.25488 0.1062s0.09888 0.17041 0.09888 0.29883c0 0.0078-0.000245 0.01953-0.000732 0.03516h-0.58008c0.0049 0.08545 0.02905 0.15088 0.07251 0.19629s0.09766 0.06812 0.1626 0.06812c0.04834 0 0.0896-0.0127 0.12378-0.03809s0.06128-0.06592 0.0813-0.12158m-0.43286-0.21314h0.43433c-0.0059-0.06543-0.02246-0.1145-0.0498-0.14722-0.04199-0.05078-0.09644-0.07617-0.16333-0.07617-0.06055 0.000001-0.11157 0.02026-0.15308 0.06079-0.04102 0.04053-0.06372 0.09473-0.06811 0.1626"/>
    <path id="path3059" d="m25.11 81.812v-1.0759h0.12012v0.10107c0.02832-0.03955 0.0603-0.06909 0.09595-0.08862 0.03564-0.02002 0.07886-0.03003 0.12964-0.03003 0.06641 0.000001 0.125 0.01709 0.17578 0.05127s0.08911 0.08252 0.11499 0.14502c0.02588 0.06201 0.03882 0.13013 0.03882 0.20435-0.000001 0.07959-0.01441 0.15137-0.04321 0.21533-0.02832 0.06348-0.06983 0.1123-0.12451 0.14648-0.0542 0.03369-0.11133 0.05054-0.17139 0.05054-0.04395 0-0.0835-0.0093-0.11865-0.02783-0.03467-0.01855-0.06323-0.04199-0.08569-0.07031v0.37866h-0.13184m0.11938-0.68262c0 0.1001 0.02026 0.17407 0.06079 0.22192s0.0896 0.07178 0.14722 0.07178c0.05859 0 0.10864-0.02466 0.15015-0.07398 0.04199-0.0498 0.06299-0.12671 0.06299-0.23071 0-0.09912-0.02051-0.17334-0.06152-0.22266-0.04053-0.04932-0.08911-0.07397-0.14575-0.07398-0.05615 0.000001-0.10596 0.02637-0.14941 0.0791-0.04297 0.05225-0.06445 0.12842-0.06445 0.22852"/>
    <path id="path3061" d="m25.942 81.514v-1.0737h0.13184v1.0737h-0.13184"/>
    <path id="path3063" d="m26.786 81.418c-0.04883 0.0415-0.09595 0.0708-0.14136 0.08789-0.04492 0.01709-0.09326 0.02563-0.14502 0.02563-0.08545 0-0.15112-0.02075-0.19702-0.06226-0.0459-0.04199-0.06885-0.09546-0.06885-0.1604 0-0.03809 0.0085-0.07275 0.02563-0.104 0.01758-0.03174 0.04028-0.05713 0.06812-0.07617 0.02832-0.01904 0.06006-0.03345 0.09521-0.04321 0.02588-0.0068 0.06494-0.01343 0.11719-0.01977 0.10644-0.0127 0.18481-0.02783 0.23511-0.04541 0.000488-0.01807 0.000732-0.02954 0.000733-0.03442-0.000001-0.05371-0.01245-0.09155-0.03735-0.11352-0.03369-0.02979-0.08374-0.04468-0.15015-0.04468-0.06201 0.000001-0.10791 0.01099-0.1377 0.03296-0.0293 0.02148-0.05103 0.05982-0.06519 0.11499l-0.12891-0.01758c0.01172-0.05517 0.03101-0.09961 0.05786-0.1333 0.02686-0.03418 0.06567-0.0603 0.11646-0.07837 0.05078-0.01855 0.10962-0.02783 0.17651-0.02783 0.06641 0.000001 0.12036 0.0078 0.16186 0.02344 0.0415 0.01563 0.07202 0.0354 0.09155 0.05933 0.01953 0.02344 0.0332 0.05322 0.04102 0.08935 0.0044 0.02246 0.0066 0.06299 0.0066 0.12158v0.17578c0 0.12256 0.0027 0.2002 0.0081 0.23291 0.0059 0.03223 0.01709 0.06323 0.03369 0.09302h-0.1377c-0.01367-0.02734-0.02246-0.05933-0.02637-0.09595m-0.01099-0.29443c-0.04785 0.01953-0.11963 0.03613-0.21533 0.04981-0.0542 0.0078-0.09253 0.0166-0.11499 0.02637-0.02246 0.0098-0.0398 0.02417-0.052 0.04321-0.01221 0.01855-0.01831 0.03931-0.01831 0.06226 0 0.03516 0.01318 0.06445 0.03955 0.08789 0.02686 0.02344 0.06592 0.03516 0.11719 0.03516 0.05078 0 0.09595-0.01099 0.1355-0.03296 0.03955-0.02246 0.0686-0.05298 0.08716-0.09155 0.01416-0.02978 0.02124-0.07373 0.02124-0.13184v-0.04834"/>
    <path id="path3065" d="m27.621 81.229 0.12964 0.01685c-0.01416 0.08936-0.05054 0.15942-0.10913 0.2102-0.05811 0.05029-0.12964 0.07544-0.2146 0.07544-0.10645 0-0.19214-0.03467-0.25708-0.104-0.06445-0.06982-0.09668-0.16968-0.09668-0.29956 0-0.08398 0.01392-0.15747 0.04175-0.22046s0.07007-0.11011 0.12671-0.14136c0.05713-0.03174 0.11914-0.04761 0.18604-0.04761 0.08447 0.000001 0.15356 0.02149 0.20728 0.06445 0.05371 0.04248 0.08813 0.10303 0.10327 0.18164l-0.12817 0.01978c-0.01221-0.05224-0.03394-0.09155-0.06518-0.11792-0.03076-0.02637-0.06812-0.03955-0.11206-0.03955-0.06641 0.000001-0.12036 0.02393-0.16186 0.07178-0.0415 0.04736-0.06226 0.12256-0.06226 0.22559 0 0.10449 0.02002 0.18042 0.06006 0.22778s0.09229 0.07104 0.15674 0.07104c0.05176 0 0.09497-0.01587 0.12964-0.04761s0.05664-0.08057 0.06592-0.14648"/>
    <path id="path3067" d="m28.396 81.263 0.13623 0.01685c-0.02149 0.07959-0.06128 0.14136-0.11938 0.1853-0.05811 0.04395-0.13232 0.06592-0.22266 0.06592-0.11377 0-0.2041-0.03491-0.271-0.10474-0.06641-0.07031-0.09961-0.1687-0.09961-0.29517 0-0.13086 0.03369-0.23242 0.10107-0.30469 0.06738-0.07226 0.15478-0.1084 0.26221-0.1084 0.104 0.000001 0.18896 0.0354 0.25488 0.1062s0.09888 0.17041 0.09888 0.29883c-0.000001 0.0078-0.000245 0.01953-0.000732 0.03516h-0.58008c0.0049 0.08545 0.02905 0.15088 0.07251 0.19629s0.09766 0.06812 0.1626 0.06812c0.04834 0 0.0896-0.0127 0.12378-0.03809s0.06128-0.06592 0.0813-0.12158m-0.43286-0.21314h0.43433c-0.0059-0.06543-0.02246-0.1145-0.0498-0.14722-0.04199-0.05078-0.09644-0.07617-0.16333-0.07617-0.06055 0.000001-0.11157 0.02026-0.15308 0.06079-0.04102 0.04053-0.06372 0.09473-0.06811 0.1626"/>
    <path id="path3069" d="m16.077 83.389h-0.23584l-0.09375-0.2439h-0.4292l-0.08862 0.2439h-0.22998l0.41821-1.0737h0.22925l0.42993 1.0737m-0.39917-0.4248-0.14795-0.39844-0.14502 0.39844h0.29297" fill="#553417"/>
    <path id="path3071" d="m16.905 83.389h-0.19116v-0.11426c-0.03174 0.04443-0.06934 0.07764-0.11279 0.09961-0.04297 0.02148-0.08643 0.03223-0.13037 0.03223-0.08936 0-0.16602-0.03589-0.22998-0.10767-0.06348-0.07227-0.09521-0.17285-0.09521-0.30176 0-0.13184 0.03101-0.23193 0.09302-0.30029 0.06201-0.06885 0.14038-0.10327 0.23511-0.10327 0.08691 0.000001 0.16211 0.03613 0.22559 0.1084v-0.38672h0.20581v1.0737m-0.54932-0.40576c0 0.08301 0.01147 0.14307 0.03442 0.18018 0.0332 0.05371 0.07959 0.08057 0.13916 0.08057 0.04736 0 0.08765-0.02002 0.12085-0.06006 0.0332-0.04053 0.0498-0.10083 0.0498-0.18091 0-0.08935-0.01611-0.15356-0.04834-0.19263-0.03223-0.03955-0.07349-0.05933-0.12378-0.05933-0.04883 0-0.08984 0.01953-0.12305 0.05859-0.03271 0.03858-0.04907 0.09644-0.04907 0.17358" fill="#553417"/>
    <path id="path3073" d="m17.093 82.611h0.1897v0.1062c0.06787-0.08252 0.14868-0.12378 0.24243-0.12378 0.0498 0.000001 0.09302 0.01026 0.12964 0.03076 0.03662 0.02051 0.06665 0.05151 0.09009 0.09302 0.03418-0.0415 0.07104-0.07251 0.1106-0.09302 0.03955-0.02051 0.08179-0.03076 0.12671-0.03076 0.05713 0.000001 0.10547 0.01172 0.14502 0.03516 0.03955 0.02295 0.06909 0.05689 0.08862 0.10181 0.01416 0.0332 0.02124 0.08691 0.02124 0.16113v0.49731h-0.20581v-0.44458c-0.000001-0.07715-0.0071-0.12695-0.02124-0.14941-0.01904-0.0293-0.04834-0.04395-0.08789-0.04395-0.02881 0-0.05591 0.0088-0.0813 0.02637-0.02539 0.01758-0.0437 0.04346-0.05493 0.07764-0.01123 0.03369-0.01685 0.08716-0.01685 0.1604v0.37354h-0.20581v-0.42627c-0.000001-0.07568-0.0037-0.12451-0.01099-0.14648-0.0073-0.02197-0.0188-0.03833-0.03442-0.04907-0.01514-0.01074-0.03589-0.01611-0.06226-0.01611-0.03174 0-0.0603 0.0085-0.08569 0.02563-0.02539 0.01709-0.0437 0.04175-0.05493 0.07397-0.01074 0.03223-0.01611 0.08569-0.01611 0.1604v0.37793h-0.20581v-0.77783" fill="#553417"/>
    <path id="path3075" d="m18.442 82.506v-0.19043h0.20581v0.19043h-0.20581m0 0.8833v-0.77783h0.20581v0.77783h-0.20581" fill="#553417"/>
    <path id="path3077" d="m19.565 83.389h-0.20581v-0.39697c-0.000001-0.08398-0.0044-0.13818-0.01318-0.1626-0.0088-0.0249-0.02319-0.04419-0.04321-0.05786-0.01953-0.01367-0.04321-0.02051-0.07105-0.02051-0.03564 0-0.06763 0.0098-0.09595 0.0293-0.02832 0.01953-0.04785 0.04541-0.05859 0.07764-0.01026 0.03223-0.01538 0.0918-0.01538 0.17871v0.3523h-0.20581v-0.77783h0.19116v0.11426c0.06787-0.08789 0.15332-0.13184 0.25635-0.13184 0.04541 0.000001 0.08691 0.0083 0.12451 0.0249 0.0376 0.01611 0.06592 0.03687 0.08496 0.06226 0.01953 0.02539 0.03296 0.0542 0.04028 0.08643 0.0078 0.03223 0.01172 0.07837 0.01172 0.13843v0.4834" fill="#553417"/>
    <path id="path3079" d="m19.775 82.506v-0.19043h0.20581v0.19043h-0.20581m0 0.8833v-0.77783h0.20581v0.77783h-0.20581" fill="#553417"/>
    <path id="path3081" d="m20.118 83.167 0.20654-0.03149c0.0088 0.04004 0.02661 0.07056 0.05347 0.09155 0.02685 0.02051 0.06445 0.03076 0.11279 0.03076 0.05322 0 0.09326-0.0098 0.12012-0.0293 0.01807-0.01367 0.0271-0.03198 0.0271-0.05493-0.000001-0.01563-0.0049-0.02856-0.01465-0.03882-0.01025-0.0098-0.0332-0.0188-0.06885-0.0271-0.16602-0.03662-0.27124-0.07007-0.31567-0.10034-0.06152-0.04199-0.09229-0.10034-0.09229-0.17505-0.000001-0.06738 0.02661-0.12402 0.07983-0.16992s0.13574-0.06885 0.24756-0.06885c0.10644 0.000001 0.18555 0.01734 0.2373 0.052 0.05176 0.03467 0.0874 0.08594 0.10693 0.15381l-0.19409 0.03589c-0.0083-0.03027-0.02417-0.05347-0.04761-0.06958-0.02295-0.01611-0.05591-0.02417-0.09888-0.02417-0.0542 0.000001-0.09302 0.0076-0.11646 0.0227-0.01563 0.01074-0.02344 0.02466-0.02344 0.04175-0.000001 0.01465 0.0068 0.0271 0.02051 0.03735 0.01855 0.01367 0.08252 0.03296 0.1919 0.05786 0.10986 0.0249 0.18652 0.05542 0.22998 0.09155 0.04297 0.03662 0.06445 0.08765 0.06445 0.15308-0.000001 0.07129-0.02979 0.13257-0.08936 0.18384s-0.14771 0.0769-0.2644 0.0769c-0.10596 0-0.18994-0.02148-0.25195-0.06445-0.06152-0.04297-0.10181-0.10132-0.12085-0.17505" fill="#553417"/>
    <path id="path3083" d="m21.382 82.611v0.16406h-0.14062v0.31348c0 0.06348 0.0012 0.10059 0.0037 0.11133 0.0029 0.01025 0.009 0.0188 0.01831 0.02563 0.0098 0.0068 0.02148 0.01025 0.03516 0.01025 0.01904 0 0.04663-0.0066 0.08276-0.01977l0.01758 0.15967c-0.04785 0.02051-0.10205 0.03076-0.1626 0.03076-0.03711 0-0.07056-0.0061-0.10034-0.01831-0.02979-0.0127-0.05176-0.02881-0.06592-0.04834-0.01367-0.02002-0.02319-0.04687-0.02856-0.08057-0.0044-0.02393-0.0066-0.07227-0.0066-0.14502v-0.33911h-0.09448v-0.16406h0.09448v-0.15454l0.20654-0.12012v0.27466h0.14062" fill="#553417"/>
    <path id="path3085" d="m21.724 83.389h-0.20581v-0.77783h0.19116v0.1106c0.03271-0.05225 0.06201-0.08667 0.08789-0.10327 0.02637-0.0166 0.05615-0.0249 0.08936-0.0249 0.04687 0.000001 0.09204 0.01294 0.1355 0.03882l-0.06372 0.17944c-0.03467-0.02246-0.06689-0.03369-0.09668-0.03369-0.02881 0.000001-0.05322 0.0081-0.07324 0.02417-0.02002 0.01563-0.03589 0.04419-0.04761 0.08569-0.01123 0.0415-0.01685 0.12842-0.01685 0.26074v0.24023" fill="#553417"/>
    <path id="path3087" d="m22.263 82.848-0.18677-0.03369c0.021-0.07519 0.05713-0.13086 0.1084-0.16699s0.12744-0.0542 0.22852-0.0542c0.0918 0.000001 0.16016 0.01099 0.20508 0.03296 0.04492 0.02148 0.07642 0.04907 0.09448 0.08276 0.01855 0.0332 0.02783 0.09448 0.02783 0.18384l-0.0022 0.24023c-0.000001 0.06836 0.0032 0.1189 0.0095 0.15161 0.0068 0.03223 0.01929 0.0669 0.03735 0.104h-0.20361c-0.0054-0.01367-0.01196-0.03393-0.01977-0.06079-0.0034-0.01221-0.0059-0.02026-0.0073-0.02417-0.03516 0.03418-0.07276 0.05982-0.11279 0.0769-0.04004 0.01709-0.08276 0.02563-0.12817 0.02563-0.08008 0-0.14331-0.02173-0.1897-0.06518-0.0459-0.04346-0.06885-0.09839-0.06885-0.1648 0-0.04395 0.0105-0.08301 0.03149-0.11719 0.021-0.03467 0.05029-0.06103 0.08789-0.0791 0.03809-0.01855 0.09277-0.03467 0.16406-0.04834 0.09619-0.01807 0.16284-0.03491 0.19995-0.05054v-0.02051c0-0.03955-0.0098-0.06763-0.0293-0.08423-0.01953-0.01709-0.0564-0.02563-0.1106-0.02563-0.03662 0-0.06519 0.0073-0.08569 0.02197-0.02051 0.01416-0.03711 0.03931-0.0498 0.07544m0.27539 0.16699c-0.02637 0.0088-0.06811 0.01929-0.12524 0.03149-0.05713 0.01221-0.09448 0.02417-0.11206 0.03589-0.02686 0.01904-0.04028 0.04321-0.04028 0.07251 0 0.02881 0.01074 0.05371 0.03223 0.07471 0.02148 0.021 0.04883 0.03149 0.08203 0.03149 0.03711 0 0.07251-0.01221 0.1062-0.03662 0.0249-0.01855 0.04126-0.04126 0.04907-0.06812 0.0054-0.01758 0.0081-0.05102 0.0081-0.10034v-0.04102" fill="#553417"/>
    <path id="path3089" d="m23.301 82.611v0.16406h-0.14062v0.31348c-0.000001 0.06348 0.0012 0.10059 0.0037 0.11133 0.0029 0.01025 0.009 0.0188 0.01831 0.02563 0.0098 0.0068 0.02148 0.01025 0.03516 0.01025 0.01904 0 0.04663-0.0066 0.08276-0.01977l0.01758 0.15967c-0.04785 0.02051-0.10205 0.03076-0.1626 0.03076-0.03711 0-0.07056-0.0061-0.10034-0.01831-0.02979-0.0127-0.05176-0.02881-0.06592-0.04834-0.01367-0.02002-0.02319-0.04687-0.02857-0.08057-0.0044-0.02393-0.0066-0.07227-0.0066-0.14502v-0.33911h-0.09448v-0.16406h0.09448v-0.15454l0.20654-0.12012v0.27466h0.14062" fill="#553417"/>
    <path id="path3091" d="m23.398 82.989c0-0.06836 0.01685-0.13452 0.05054-0.19849 0.03369-0.06396 0.0813-0.11279 0.14282-0.14648 0.06201-0.03369 0.1311-0.05054 0.20728-0.05054 0.11768 0.000001 0.21411 0.03833 0.28931 0.11499 0.07519 0.07617 0.11279 0.17261 0.11279 0.28931-0.000001 0.11768-0.03809 0.21533-0.11426 0.29297-0.07568 0.07715-0.17114 0.11572-0.28638 0.11572-0.07129 0-0.1394-0.01611-0.20435-0.04834-0.06445-0.03223-0.11352-0.07935-0.14722-0.14136-0.03369-0.0625-0.05054-0.13843-0.05054-0.22778m0.21094 0.01099c-0.000001 0.07715 0.01831 0.13623 0.05493 0.17725s0.08179 0.06152 0.1355 0.06152 0.09863-0.02051 0.13477-0.06152c0.03662-0.04102 0.05493-0.10058 0.05493-0.17871-0.000001-0.07617-0.01831-0.13476-0.05493-0.17578-0.03613-0.04102-0.08105-0.06152-0.13477-0.06152-0.05371 0-0.09888 0.02051-0.1355 0.06152-0.03662 0.04102-0.05493 0.1001-0.05493 0.17725" fill="#553417"/>
    <path id="path3093" d="m24.56 83.389h-0.20581v-0.77783h0.19116v0.1106c0.03271-0.05225 0.06201-0.08667 0.08789-0.10327 0.02637-0.0166 0.05615-0.0249 0.08936-0.0249 0.04687 0.000001 0.09204 0.01294 0.1355 0.03882l-0.06372 0.17944c-0.03467-0.02246-0.0669-0.03369-0.09668-0.03369-0.02881 0.000001-0.05322 0.0081-0.07324 0.02417-0.02002 0.01563-0.03589 0.04419-0.04761 0.08569-0.01123 0.0415-0.01685 0.12842-0.01685 0.26074v0.24023" fill="#553417"/>
    <path id="path3095" d="m24.873 83.167 0.20654-0.03149c0.0088 0.04004 0.02661 0.07056 0.05347 0.09155 0.02685 0.02051 0.06445 0.03076 0.11279 0.03076 0.05322 0 0.09326-0.0098 0.12012-0.0293 0.01807-0.01367 0.0271-0.03198 0.0271-0.05493 0-0.01563-0.0049-0.02856-0.01465-0.03882-0.01025-0.0098-0.0332-0.0188-0.06885-0.0271-0.16602-0.03662-0.27124-0.07007-0.31567-0.10034-0.06152-0.04199-0.09229-0.10034-0.09229-0.17505 0-0.06738 0.02661-0.12402 0.07983-0.16992s0.13574-0.06885 0.24756-0.06885c0.10644 0.000001 0.18555 0.01734 0.2373 0.052 0.05176 0.03467 0.0874 0.08594 0.10693 0.15381l-0.19409 0.03589c-0.0083-0.03027-0.02417-0.05347-0.04761-0.06958-0.02295-0.01611-0.05591-0.02417-0.09888-0.02417-0.0542 0.000001-0.09302 0.0076-0.11646 0.0227-0.01563 0.01074-0.02344 0.02466-0.02344 0.04175 0 0.01465 0.0068 0.0271 0.02051 0.03735 0.01855 0.01367 0.08252 0.03296 0.1919 0.05786 0.10986 0.0249 0.18652 0.05542 0.22998 0.09155 0.04297 0.03662 0.06445 0.08765 0.06445 0.15308 0 0.07129-0.02979 0.13257-0.08936 0.18384s-0.14771 0.0769-0.2644 0.0769c-0.10596 0-0.18994-0.02148-0.25195-0.06445-0.06152-0.04297-0.10181-0.10132-0.12085-0.17505" fill="#553417"/>
    <path id="path3097" d="m26.149 82.989c0-0.06836 0.01685-0.13452 0.05054-0.19849 0.03369-0.06396 0.0813-0.11279 0.14282-0.14648 0.06201-0.03369 0.1311-0.05054 0.20728-0.05054 0.11768 0.000001 0.21411 0.03833 0.28931 0.11499 0.0752 0.07617 0.11279 0.17261 0.11279 0.28931-0.000001 0.11768-0.03809 0.21533-0.11426 0.29297-0.07568 0.07715-0.17114 0.11572-0.28638 0.11572-0.07129 0-0.1394-0.01611-0.20434-0.04834-0.06445-0.03223-0.11353-0.07935-0.14722-0.14136-0.03369-0.0625-0.05054-0.13843-0.05054-0.22778m0.21094 0.01099c0 0.07715 0.01831 0.13623 0.05493 0.17725s0.08179 0.06152 0.1355 0.06152 0.09863-0.02051 0.13477-0.06152c0.03662-0.04102 0.05493-0.10058 0.05493-0.17871 0-0.07617-0.01831-0.13476-0.05493-0.17578-0.03613-0.04102-0.08106-0.06152-0.13477-0.06152s-0.09888 0.02051-0.1355 0.06152c-0.03662 0.04102-0.05493 0.1001-0.05493 0.17725" fill="#553417"/>
    <path id="path3099" d="m27.821 83.389h-0.20581v-0.39697c0-0.08398-0.0044-0.13818-0.01318-0.1626-0.0088-0.0249-0.02319-0.04419-0.04321-0.05786-0.01953-0.01367-0.04321-0.02051-0.07105-0.02051-0.03564 0-0.06763 0.0098-0.09595 0.0293-0.02832 0.01953-0.04785 0.04541-0.05859 0.07764-0.01025 0.03223-0.01538 0.0918-0.01538 0.17871v0.3523h-0.20581v-0.77783h0.19116v0.11426c0.06787-0.08789 0.15332-0.13184 0.25635-0.13184 0.04541 0.000001 0.08691 0.0083 0.12451 0.0249 0.0376 0.01611 0.06592 0.03687 0.08496 0.06226 0.01953 0.02539 0.03296 0.0542 0.04028 0.08643 0.0078 0.03223 0.01172 0.07837 0.01172 0.13843v0.4834" fill="#553417"/>
    <path id="path3101" d="m28.031 83.389v-1.0737h0.20581v1.0737h-0.20581" fill="#553417"/>
    <path id="path3103" d="m28.349 82.611h0.21899l0.18604 0.55225 0.18164-0.55225h0.21314l-0.27466 0.74854-0.04907 0.1355c-0.01807 0.04541-0.0354 0.08008-0.052 0.104-0.01611 0.02393-0.03491 0.04321-0.0564 0.05786-0.021 0.01514-0.04712 0.02685-0.07837 0.03516-0.03076 0.0083-0.06567 0.01245-0.10474 0.01245-0.03955 0-0.07837-0.0042-0.11646-0.01245l-0.01831-0.16113c0.03223 0.0063 0.06128 0.0095 0.08716 0.0095 0.04785 0 0.08325-0.01416 0.1062-0.04248 0.02295-0.02783 0.04053-0.06348 0.05273-0.10693l-0.2959-0.78003" fill="#553417"/>
   </g>
   <g id="text3762" fill="#553417">
    <path id="path3106" d="m15.052 78.159 0.31567-0.01978c0.0068 0.05127 0.02075 0.09033 0.04175 0.11719 0.03418 0.04346 0.08301 0.06518 0.14648 0.06518 0.04736 0 0.08374-0.01099 0.10913-0.03296 0.02588-0.02246 0.03882-0.04834 0.03882-0.07764 0-0.02783-0.01221-0.05273-0.03662-0.07471-0.02441-0.02197-0.08106-0.04272-0.16992-0.06226-0.14551-0.03271-0.24927-0.07617-0.31128-0.13037-0.0625-0.0542-0.09375-0.12329-0.09375-0.20728 0-0.05517 0.01587-0.10718 0.04761-0.15601 0.03223-0.04932 0.08032-0.08789 0.14429-0.11572 0.06445-0.02832 0.15259-0.04248 0.2644-0.04248 0.13721 0.000001 0.2417 0.02564 0.31348 0.0769 0.07226 0.05078 0.11523 0.13184 0.12891 0.24316l-0.31274 0.01831c-0.0083-0.04834-0.02588-0.0835-0.05273-0.10547-0.02637-0.02197-0.06299-0.03296-0.10986-0.03296-0.03857 0.000001-0.06763 0.0083-0.08716 0.0249-0.01953 0.01611-0.0293 0.03589-0.0293 0.05933 0 0.01709 0.0081 0.03247 0.02417 0.04614 0.01562 0.01416 0.05273 0.02734 0.11133 0.03955 0.14502 0.03125 0.24878 0.06299 0.31128 0.09521 0.06299 0.03174 0.10864 0.07129 0.13696 0.11865 0.02881 0.04736 0.04321 0.10034 0.04321 0.15894-0.000001 0.06885-0.01904 0.13232-0.05713 0.19043-0.03809 0.0581-0.09131 0.1023-0.15967 0.13257-0.06836 0.02978-0.15454 0.04468-0.25854 0.04468-0.18262 0-0.30908-0.03516-0.37939-0.10547s-0.11011-0.15967-0.11938-0.26807"/>
    <path id="path3108" d="m16.137 78.127c0-0.11865 0.04004-0.21631 0.12012-0.29297 0.08008-0.07715 0.18823-0.11572 0.32446-0.11572 0.15576 0.000001 0.27344 0.04517 0.35303 0.1355 0.06396 0.07275 0.09595 0.16235 0.09595 0.2688-0.000001 0.11963-0.0398 0.21777-0.11938 0.29443-0.0791 0.07617-0.18872 0.11426-0.32886 0.11426-0.125 0-0.22608-0.03174-0.30322-0.09521-0.09473-0.07861-0.14209-0.18164-0.14209-0.30908m0.29883-0.000732c0 0.06934 0.01392 0.12061 0.04175 0.15381 0.02832 0.0332 0.06372 0.0498 0.1062 0.0498 0.04297 0 0.07812-0.01636 0.10547-0.04907 0.02783-0.03271 0.04175-0.0852 0.04175-0.15747 0-0.06738-0.01392-0.11743-0.04175-0.15015-0.02783-0.0332-0.06226-0.0498-0.10327-0.04981-0.04346 0.000001-0.07935 0.01685-0.10767 0.05054-0.02832 0.0332-0.04248 0.08398-0.04248 0.15234"/>
    <path id="path3110" d="m17.508 77.736h0.14209v0.21826h-0.14209v0.55957h-0.29883v-0.55957h-0.11133v-0.21826h0.11133v-0.03516c0-0.03174 0.0034-0.06665 0.01025-0.10474 0.0068-0.03809 0.01953-0.06909 0.03809-0.09302 0.01904-0.02441 0.04541-0.04394 0.0791-0.05859 0.03418-0.01514 0.08398-0.0227 0.14941-0.02271 0.05224 0.000001 0.12817 0.0061 0.22778 0.01831l-0.03296 0.18018c-0.03564-0.0059-0.06445-0.0088-0.08643-0.0088-0.02686 0.000001-0.04614 0.0046-0.05786 0.01392-0.01172 0.0088-0.02002 0.02295-0.0249 0.04248-0.0024 0.01074-0.0037 0.03345-0.0037 0.06811"/>
    <path id="path3112" d="m18.119 77.44v0.2959h0.16406v0.21753h-0.16406v0.27612c0 0.0332 0.0032 0.05518 0.0095 0.06592 0.0098 0.0166 0.02685 0.0249 0.05127 0.0249 0.02197 0 0.05273-0.0063 0.09229-0.01904l0.02197 0.20581c-0.07373 0.01611-0.14258 0.02417-0.20654 0.02417-0.07422 0-0.12891-0.0095-0.16406-0.02856-0.03516-0.01904-0.06128-0.04785-0.07837-0.08643-0.0166-0.03906-0.0249-0.10205-0.0249-0.18896v-0.27393h-0.10986v-0.21753h0.10986v-0.14282l0.29883-0.15308"/>
    <path id="path3114" d="m18.336 77.736h0.28857l0.12524 0.48999 0.1582-0.48999h0.2688l0.16406 0.48999 0.12524-0.48999h0.28638l-0.28638 0.77783h-0.26514l-0.15747-0.46802-0.15234 0.46802h-0.2666l-0.28857-0.77783"/>
    <path id="path3116" d="m20.093 77.988-0.28491-0.03003c0.01074-0.0498 0.02612-0.08887 0.04614-0.11719 0.02051-0.02881 0.0498-0.05371 0.08789-0.07471 0.02734-0.01514 0.06494-0.02685 0.11279-0.03516 0.04785-0.0083 0.09961-0.01245 0.15527-0.01245 0.08936 0.000001 0.16113 0.0051 0.21533 0.01538 0.0542 0.0098 0.09936 0.03052 0.1355 0.06226 0.02539 0.02197 0.04541 0.05322 0.06006 0.09375 0.01465 0.04004 0.02197 0.07837 0.02197 0.11499v0.34351c-0.000001 0.03662 0.0022 0.06543 0.0066 0.08643 0.0049 0.02051 0.01514 0.04687 0.03076 0.0791h-0.27978c-0.01123-0.02002-0.01855-0.03516-0.02197-0.04541-0.0034-0.01074-0.0068-0.02734-0.01025-0.0498-0.03906 0.0376-0.07788 0.06445-0.11646 0.08057-0.05273 0.02148-0.11401 0.03223-0.18384 0.03223-0.09277 0-0.16333-0.02148-0.21167-0.06445-0.04785-0.04297-0.07178-0.09595-0.07178-0.15894 0-0.05908 0.01733-0.10767 0.052-0.14575 0.03467-0.03809 0.09863-0.06641 0.1919-0.08496 0.11182-0.02246 0.18432-0.03809 0.21753-0.04687 0.0332-0.0093 0.06836-0.02124 0.10547-0.03589-0.000001-0.03662-0.0076-0.06226-0.02271-0.0769-0.01514-0.01465-0.04175-0.02197-0.07983-0.02197-0.04883 0.000001-0.08545 0.0078-0.10986 0.02344-0.01904 0.01221-0.03442 0.03516-0.04614 0.06885m0.25854 0.15674c-0.04102 0.01465-0.08374 0.02759-0.12817 0.03882-0.06055 0.01611-0.09888 0.03198-0.11499 0.04761-0.0166 0.01611-0.0249 0.03442-0.0249 0.05493 0 0.02344 0.0081 0.04273 0.02417 0.05786 0.0166 0.01465 0.04077 0.02197 0.07251 0.02197 0.0332 0 0.06396-0.0081 0.09228-0.02417 0.02881-0.01611 0.04907-0.03564 0.06079-0.05859 0.01221-0.02344 0.01831-0.05371 0.01831-0.09082v-0.04761"/>
    <path id="path3118" d="m20.826 77.736h0.27905v0.12744c0.02686-0.05518 0.05444-0.09302 0.08276-0.11353 0.02881-0.02099 0.06421-0.03149 0.1062-0.03149 0.04394 0.000001 0.09204 0.01367 0.14429 0.04102l-0.09229 0.2124c-0.03516-0.01465-0.06299-0.02197-0.0835-0.02197-0.03906 0.000001-0.06934 0.01611-0.09082 0.04834-0.03076 0.04541-0.04614 0.13037-0.04614 0.25488v0.26074h-0.29956v-0.77783"/>
    <path id="path3120" d="m22.375 78.199h-0.59766c0.0054 0.04785 0.01831 0.0835 0.03882 0.10693 0.02881 0.03369 0.06641 0.05054 0.11279 0.05054 0.0293 0.000001 0.05713-0.0073 0.0835-0.02197 0.01611-0.0093 0.03345-0.02564 0.052-0.04907l0.2937 0.0271c-0.04492 0.07813-0.09912 0.13428-0.1626 0.16846-0.06348 0.03369-0.15454 0.05054-0.27319 0.05054-0.10303 0-0.18408-0.0144-0.24316-0.04321-0.05908-0.0293-0.10815-0.07544-0.14722-0.13843-0.03858-0.06348-0.05786-0.13794-0.05786-0.22339 0-0.12158 0.03882-0.21997 0.11646-0.29517 0.07813-0.0752 0.18579-0.11279 0.323-0.11279 0.11133 0.000001 0.19922 0.01685 0.26367 0.05054s0.11352 0.08252 0.14722 0.14648c0.03369 0.06397 0.05054 0.14722 0.05054 0.24976v0.03369m-0.303-0.143c-0.0059-0.05762-0.02148-0.09888-0.04687-0.12378-0.0249-0.0249-0.05786-0.03735-0.09888-0.03735-0.04736 0-0.08521 0.0188-0.11353 0.0564-0.01807 0.02344-0.02954 0.05835-0.03442 0.10474h0.2937"/>
    <path id="path3122" d="m23.017 77.736h0.27832v0.11353c0.04004-0.04736 0.08032-0.08105 0.12085-0.10108 0.04101-0.02002 0.09033-0.03003 0.14795-0.03003 0.06201 0.000001 0.11108 0.01099 0.14722 0.03296 0.03613 0.02197 0.06567 0.05469 0.08862 0.09815 0.04687-0.05078 0.0896-0.08521 0.12817-0.10327 0.03857-0.01855 0.08618-0.02783 0.14282-0.02783 0.08349 0.000001 0.14868 0.0249 0.19556 0.07471 0.04687 0.04932 0.07031 0.12671 0.07031 0.23218v0.48852h-0.29883v-0.44312c-0.000001-0.03516-0.0068-0.06128-0.02051-0.07837-0.02002-0.02685-0.04492-0.04028-0.07471-0.04028-0.03516 0-0.06348 0.0127-0.08496 0.03809-0.02149 0.02539-0.03223 0.06616-0.03223 0.12231v0.40137h-0.29883v-0.42847c0-0.03418-0.002-0.05737-0.0059-0.06958-0.0063-0.01953-0.01733-0.03516-0.03296-0.04687-0.01563-0.01221-0.03394-0.01831-0.05493-0.01831-0.03418 0-0.06226 0.01294-0.08423 0.03882s-0.03296 0.06836-0.03296 0.12744v0.39697h-0.29883v-0.77783"/>
    <path id="path3124" d="m24.787 77.988-0.28491-0.03003c0.01074-0.0498 0.02612-0.08887 0.04614-0.11719 0.02051-0.02881 0.0498-0.05371 0.08789-0.07471 0.02734-0.01514 0.06494-0.02685 0.11279-0.03516 0.04785-0.0083 0.09961-0.01245 0.15527-0.01245 0.08935 0.000001 0.16113 0.0051 0.21533 0.01538 0.0542 0.0098 0.09936 0.03052 0.1355 0.06226 0.02539 0.02197 0.04541 0.05322 0.06006 0.09375 0.01465 0.04004 0.02197 0.07837 0.02197 0.11499v0.34351c-0.000001 0.03662 0.0022 0.06543 0.0066 0.08643 0.0049 0.02051 0.01514 0.04687 0.03076 0.0791h-0.27978c-0.01123-0.02002-0.01855-0.03516-0.02197-0.04541-0.0034-0.01074-0.0068-0.02734-0.01025-0.0498-0.03906 0.0376-0.07788 0.06445-0.11646 0.08057-0.05274 0.02148-0.11401 0.03223-0.18384 0.03223-0.09277 0-0.16333-0.02148-0.21167-0.06445-0.04785-0.04297-0.07178-0.09595-0.07178-0.15894 0-0.05908 0.01733-0.10767 0.052-0.14575 0.03467-0.03809 0.09863-0.06641 0.1919-0.08496 0.11182-0.02246 0.18433-0.03809 0.21753-0.04687 0.0332-0.0093 0.06836-0.02124 0.10547-0.03589-0.000001-0.03662-0.0076-0.06226-0.0227-0.0769-0.01514-0.01465-0.04175-0.02197-0.07983-0.02197-0.04883 0.000001-0.08545 0.0078-0.10986 0.02344-0.01904 0.01221-0.03443 0.03516-0.04614 0.06885m0.25854 0.15674c-0.04102 0.01465-0.08374 0.02759-0.12817 0.03882-0.06055 0.01611-0.09888 0.03198-0.11499 0.04761-0.0166 0.01611-0.0249 0.03442-0.0249 0.05493-0.000001 0.02344 0.0081 0.04273 0.02417 0.05786 0.0166 0.01465 0.04077 0.02197 0.07251 0.02197 0.0332 0 0.06396-0.0081 0.09229-0.02417 0.02881-0.01611 0.04907-0.03564 0.06079-0.05859 0.01221-0.02344 0.01831-0.05371 0.01831-0.09082v-0.04761"/>
    <path id="path3126" d="m25.517 77.736h0.27759v0.12671c0.0415-0.05176 0.0835-0.08862 0.12598-0.1106 0.04248-0.02246 0.09424-0.03369 0.15527-0.03369 0.08252 0.000001 0.14697 0.02466 0.19336 0.07398 0.04687 0.04883 0.07031 0.12451 0.07031 0.22705v0.49438h-0.29956v-0.42773c-0.000001-0.04883-0.009-0.08325-0.0271-0.10327-0.01807-0.02051-0.04346-0.03076-0.07617-0.03076-0.03613 0-0.06543 0.01367-0.08789 0.04102-0.02246 0.02734-0.03369 0.07642-0.03369 0.14722v0.37354h-0.2981v-0.77783"/>
    <path id="path3128" d="m26.791 77.988-0.28491-0.03003c0.01074-0.0498 0.02612-0.08887 0.04614-0.11719 0.02051-0.02881 0.0498-0.05371 0.08789-0.07471 0.02734-0.01514 0.06494-0.02685 0.11279-0.03516 0.04785-0.0083 0.09961-0.01245 0.15527-0.01245 0.08936 0.000001 0.16113 0.0051 0.21533 0.01538 0.0542 0.0098 0.09936 0.03052 0.1355 0.06226 0.02539 0.02197 0.04541 0.05322 0.06006 0.09375 0.01465 0.04004 0.02197 0.07837 0.02197 0.11499v0.34351c-0.000001 0.03662 0.0022 0.06543 0.0066 0.08643 0.0049 0.02051 0.01514 0.04687 0.03076 0.0791h-0.27978c-0.01123-0.02002-0.01856-0.03516-0.02197-0.04541-0.0034-0.01074-0.0068-0.02734-0.01025-0.0498-0.03906 0.0376-0.07788 0.06445-0.11646 0.08057-0.05274 0.02148-0.11401 0.03223-0.18384 0.03223-0.09277 0-0.16333-0.02148-0.21167-0.06445-0.04785-0.04297-0.07178-0.09595-0.07178-0.15894 0-0.05908 0.01733-0.10767 0.052-0.14575 0.03467-0.03809 0.09863-0.06641 0.19189-0.08496 0.11182-0.02246 0.18433-0.03809 0.21753-0.04687 0.0332-0.0093 0.06836-0.02124 0.10547-0.03589 0-0.03662-0.0076-0.06226-0.0227-0.0769-0.01514-0.01465-0.04175-0.02197-0.07983-0.02197-0.04883 0.000001-0.08545 0.0078-0.10986 0.02344-0.01904 0.01221-0.03442 0.03516-0.04614 0.06885m0.25854 0.15674c-0.04102 0.01465-0.08374 0.02759-0.12817 0.03882-0.06055 0.01611-0.09888 0.03198-0.11499 0.04761-0.0166 0.01611-0.0249 0.03442-0.0249 0.05493 0 0.02344 0.0081 0.04273 0.02417 0.05786 0.0166 0.01465 0.04077 0.02197 0.07251 0.02197 0.0332 0 0.06396-0.0081 0.09229-0.02417 0.02881-0.01611 0.04907-0.03564 0.06079-0.05859 0.01221-0.02344 0.01831-0.05371 0.01831-0.09082v-0.04761"/>
    <path id="path3130" d="m28.085 77.736h0.27905v0.73462l0.000732 0.03442c-0.000001 0.04883-0.0105 0.09521-0.03149 0.13916-0.02051 0.04443-0.0481 0.08032-0.08276 0.10767-0.03418 0.02734-0.07788 0.04712-0.1311 0.05933-0.05273 0.01221-0.11328 0.01831-0.18164 0.01831-0.15625 0-0.26367-0.02344-0.32226-0.07031-0.05811-0.04687-0.08716-0.10962-0.08716-0.18823 0-0.0098 0.000488-0.02295 0.0015-0.03955l0.28931 0.03296c0.0073 0.02686 0.01855 0.04541 0.03369 0.05566 0.02197 0.01514 0.04956 0.02271 0.08276 0.02271 0.04297 0 0.07495-0.01147 0.09595-0.03442 0.02148-0.02295 0.03223-0.06299 0.03223-0.12012v-0.11792c-0.0293 0.03467-0.05859 0.05982-0.08789 0.07544-0.0459 0.02441-0.09546 0.03662-0.14868 0.03662-0.104 0-0.18799-0.04541-0.25195-0.13623-0.04541-0.06445-0.06812-0.14966-0.06812-0.25562 0-0.12109 0.0293-0.21338 0.08789-0.27686s0.13525-0.09521 0.22998-0.09522c0.06055 0.000001 0.11035 0.01026 0.14942 0.03076 0.03955 0.02051 0.07642 0.05444 0.1106 0.10181v-0.11499m-0.28052 0.3772c-0.000001 0.05615 0.01196 0.0979 0.03589 0.12524 0.02393 0.02685 0.05542 0.04028 0.09448 0.04028 0.03711 0 0.06811-0.01392 0.09302-0.04175 0.02539-0.02832 0.03809-0.0708 0.03809-0.12744s-0.01318-0.09985-0.03955-0.12964c-0.02637-0.03027-0.05859-0.04541-0.09668-0.04541-0.03809 0.000001-0.0686 0.01392-0.09155 0.04175-0.02246 0.02734-0.03369 0.073-0.03369 0.13696"/>
    <path id="path3132" d="m29.41 78.199h-0.59766c0.0054 0.04785 0.01831 0.0835 0.03882 0.10693 0.02881 0.03369 0.06641 0.05054 0.11279 0.05054 0.0293 0.000001 0.05713-0.0073 0.0835-0.02197 0.01611-0.0093 0.03345-0.02564 0.052-0.04907l0.2937 0.0271c-0.04492 0.07813-0.09912 0.13428-0.1626 0.16846-0.06348 0.03369-0.15454 0.05054-0.27319 0.05054-0.10303 0-0.18408-0.0144-0.24316-0.04321-0.05908-0.0293-0.10815-0.07544-0.14722-0.13843-0.03857-0.06348-0.05786-0.13794-0.05786-0.22339 0-0.12158 0.03882-0.21997 0.11646-0.29517 0.07813-0.0752 0.18579-0.11279 0.323-0.11279 0.11133 0.000001 0.19922 0.01685 0.26367 0.05054s0.11352 0.08252 0.14722 0.14648c0.03369 0.06397 0.05054 0.14722 0.05054 0.24976v0.03369m-0.304-0.143c-0.0059-0.05762-0.02149-0.09888-0.04687-0.12378-0.0249-0.0249-0.05786-0.03735-0.09888-0.03735-0.04736 0-0.0852 0.0188-0.11352 0.0564-0.01807 0.02344-0.02954 0.05835-0.03442 0.10474h0.2937"/>
    <path id="path3134" d="m29.551 77.736h0.27905v0.12744c0.02686-0.05518 0.05444-0.09302 0.08276-0.11353 0.02881-0.02099 0.06421-0.03149 0.1062-0.03149 0.04395 0.000001 0.09204 0.01367 0.14429 0.04102l-0.09228 0.2124c-0.03516-0.01465-0.06299-0.02197-0.0835-0.02197-0.03906 0.000001-0.06934 0.01611-0.09082 0.04834-0.03076 0.04541-0.04614 0.13037-0.04614 0.25488v0.26074h-0.29956v-0.77783"/>
   </g>
  </g>
  <g id="g12686" transform="matrix(.76168 0 0 .77323 -70.28 244.21)">
   <path id="path4270" opacity=".05" d="m185.31 984.34a0.99193 0.99193 0 0 0 0 0.0313c-0.002 0.00019-0.1235-0.00028-0.125 0-0.002 0.00028-0.12352 0.0309-0.125 0.0313-0.002 0.00037-0.12354 0.0308-0.125 0.0313-0.002 0.00046-0.0923 0.0307-0.0937 0.0313-0.001 0.00055-0.12361 0.0619-0.125 0.0625-0.001 0.00063-0.12365 0.0618-0.125 0.0625-0.001 0.00071-0.0924 0.0617-0.0937 0.0625-0.001 0.00079-0.0925 0.0616-0.0937 0.0625-0.001 0.00087-0.0926 0.0616-0.0937 0.0625-0.001 0.00094-0.12386 0.0927-0.125 0.0937l-0.0625 0.0625c-0.001 0.001-0.0927 0.0926-0.0937 0.0937-0.001 0.001-0.0928 0.0925-0.0937 0.0937-0.00094 0.001-0.0616 0.0925-0.0625 0.0937-0.00087 0.001-0.0617 0.12369-0.0625 0.125-0.00079 0.001-0.0618 0.0924-0.0625 0.0937l-6.2812 11.938-13.25 2.2812c-0.002 0.00026-0.12329-0.00038-0.125 0-0.002 0.00038-0.15457 0.062-0.15625 0.0625-0.002 0.0005-0.12336 0.0306-0.125 0.0313-0.002 0.00061-0.1234 0.0618-0.125 0.0625-0.002 0.00073-0.12346 0.0617-0.125 0.0625-0.002 0.00083-0.12352 0.0616-0.125 0.0625-0.002 0.00094-0.12359 0.0927-0.125 0.0937-0.001 0.001-0.0924 0.061-0.0937 0.063-0.001 0-0.12374 0.1237-0.125 0.125-0.001 0-0.0926 0.092-0.0937 0.094-0.001 0-0.0927 0.092-0.0937 0.094-0.001 0-0.0928 0.1235-0.0937 0.125-0.00098 0-0.0616 0.1235-0.0625 0.125-0.00088 0-0.0617 0.1234-0.0625 0.125-0.00077 0-0.0618 0.1234-0.0625 0.125-0.00066 0-0.0619 0.1233-0.0625 0.125-0.00055 0-0.0308 0.1546-0.0313 0.1563-0.00043 0-0.0309 0.1232-0.0313 0.125-0.00031 0 0.00019 0.1545 0 0.1562-0.00019 0-0.0312 0.1232-0.0313 0.125-0.00007 0-0.00005 0.1545 0 0.1563 0.00005 0 0.0311 0.1232 0.0313 0.125 0.00017 0-0.00029 0.1545 0 0.1562 0.00029 0 0.0308 0.1233 0.0313 0.125 0.00041 0 0.0307 0.1546 0.0313 0.1563 0.00052 0 0.0619 0.1233 0.0625 0.125 0.00064 0 0.0617 0.1234 0.0625 0.125 0.00075 0 0.0616 0.1234 0.0625 0.125 0.00086 0 0.0615 0.1235 0.0625 0.125 0.00096 0 0.0927 0.1236 0.0937 0.125 0.001 0 0.0614 0.092 0.0625 0.094 0.00097 0 0.0716 0.07 0.0937 0.094l9.4062 9.6562-1.9375 13.281c-0.00028 0-0.0311 0.1232-0.0313 0.125-0.00016 0 0.00004 0.1545 0 0.1562-0.00004 0-0.00008 0.1233 0 0.125 0.00008 0-0.0002 0.1545 0 0.1563 0.0002 0 0.0309 0.1232 0.0313 0.125 0.00032 0 0.0308 0.1545 0.0313 0.1562 0.00043 0 0.0307 0.1233 0.0313 0.125 0.00055 0 0.0618 0.1234 0.0625 0.125 0.00066 0 0.0617 0.1547 0.0625 0.1563 0.00077 0 0.0616 0.1234 0.0625 0.125 0.00087 0 0.0615 0.092 0.0625 0.094 0.00098 0 0.0927 0.1236 0.0937 0.125 0.001 0 0.0926 0.092 0.0937 0.094 0.001 0 0.0925 0.1237 0.0937 0.125 0.001 0 0.0924 0.093 0.0937 0.094 0.001 0 0.1236 0.093 0.125 0.094 0.001 0.001 0.0923 0.062 0.0937 0.063 0.001 0.0009 0.12347 0.062 0.125 0.063 0.001 0.0008 0.12341 0.062 0.125 0.063 0.002 0.0007 0.15462 0.062 0.15625 0.063 0.002 0.0006 0.12333 0.062 0.125 0.063 0.002 0.0005 0.1233 0.031 0.125 0.031 0.002 0.0004 0.15453 0.031 0.15625 0.031 0.002 0.0002 0.12326-0.0002 0.125 0 0.002 0.0001 0.15451-0.0001 0.15625 0h0.125c0.002-0.0001 0.15452 0.0002 0.15625 0 0.002-0.0003 0.12329-0.031 0.125-0.031 0.002-0.0003 0.15456-0.031 0.15625-0.031 0.002-0.0005 0.12335-0.031 0.125-0.031 0.002-0.0006 0.12339-0.062 0.125-0.063 0.002-0.0007 0.12344-0.062 0.125-0.063l12.094-5.9375 12.062 5.9375c0.002 0.0008 0.12339 0.062 0.125 0.063 0.002 0.0007 0.12335 0.062 0.125 0.063 0.002 0.0006 0.12331 0.031 0.125 0.031 0.002 0.0004 0.15454 0.031 0.15625 0.031 0.002 0.0003 0.12327 0.031 0.125 0.031 0.002 0.0002 0.15451-0.0001 0.15625 0h0.125c0.002-0.0001 0.15451 0.0001 0.15625 0 0.002-0.0002 0.12328 0.0002 0.125 0 0.002-0.0003 0.15455-0.031 0.15625-0.031 0.002-0.0004 0.12333-0.031 0.125-0.031 0.002-0.0005 0.12337-0.062 0.125-0.063 0.002-0.0007 0.15466-0.062 0.15625-0.063 0.002-0.0008 0.12347-0.062 0.125-0.063 0.001-0.0009 0.12353-0.062 0.125-0.063 0.001-0.001 0.0923-0.062 0.0937-0.063 0.001 0 0.12367-0.093 0.125-0.094 0.001 0 0.0925-0.092 0.0937-0.094 0.001 0 0.0926-0.1238 0.0937-0.125 0.001 0 0.0927-0.092 0.0937-0.094 0.001 0 0.0928-0.1236 0.0937-0.125 0.00098 0 0.0616-0.092 0.0625-0.094 0.00087 0 0.0617-0.1235 0.0625-0.125 0.00077 0 0.0618-0.1547 0.0625-0.1563 0.00066 0 0.0619-0.1233 0.0625-0.125 0.00055 0 0.0308-0.1233 0.0313-0.125 0.00043 0 0.0309-0.1545 0.0313-0.1562 0.00032 0 0.031-0.1233 0.0313-0.125 0.0002 0-0.00008-0.1546 0-0.1563 0.00008 0 0.00004-0.1233 0-0.125-0.00004 0 0.00016-0.1545 0-0.1562-0.00016 0-0.031-0.1233-0.0313-0.125l-1.9375-13.312 9.375-9.5938c0.00035-0.0003 0.0204-0.02 0.0313-0.031 0.028-0.029 0.0617-0.093 0.0625-0.094 0.001 0 0.0927-0.092 0.0937-0.094 0.001 0 0.0928-0.1236 0.0937-0.125 0.00096 0 0.0616-0.1235 0.0625-0.125 0.00086 0 0.0617-0.1235 0.0625-0.125 0.00076 0 0.0618-0.1234 0.0625-0.125 0.00065 0 0.062-0.1234 0.0625-0.125 0.00054 0 0.0308-0.1234 0.0313-0.125 0.00042 0 0.0309-0.1546 0.0313-0.1563 0.00031 0 0.0311-0.1233 0.0313-0.125 0.00019 0-0.00007-0.1545 0-0.1562 0.00007 0 0.00005-0.1233 0-0.125-0.00005 0 0.00017-0.1546 0-0.1563-0.00017 0-0.031-0.1233-0.0313-0.125-0.00028 0-0.0309-0.1546-0.0313-0.1562-0.0004 0-0.0307-0.1234-0.0313-0.125-0.00052 0-0.0619-0.1234-0.0625-0.125-0.00063 0-0.0305-0.1235-0.0313-0.125-0.00074 0-0.0617-0.1235-0.0625-0.125-0.00084 0-0.0928-0.1236-0.0937-0.125-0.00094 0-0.0615-0.1237-0.0625-0.125-0.001 0-0.0926-0.093-0.0937-0.094-0.001 0-0.0925-0.1238-0.0937-0.125-0.001 0-0.0925-0.093-0.0937-0.094-0.001 0-0.12362-0.093-0.125-0.094-0.001 0-0.12355-0.0616-0.125-0.0625-0.001-0.00096-0.0922-0.0929-0.0937-0.0937-0.002-0.00086-0.12343-0.0618-0.125-0.0625-0.002-0.00075-0.12339-0.0619-0.125-0.0625-0.002-0.00065-0.1546-0.0307-0.15625-0.0313-0.002-0.00053-0.12331-0.0308-0.125-0.0313-0.002-0.00042-0.12329-0.031-0.125-0.0313a0.99193 0.99193 0 0 0 -0.0313 0l-13.25-2.2812-6.2812-11.938c-0.00089-0.002-0.0615-0.12339-0.0625-0.125-0.001-0.002-0.0926-0.12347-0.0937-0.125-0.001-0.002-0.0925-0.12356-0.0937-0.125l-0.125-0.125c-0.001-0.001-0.0923-0.0925-0.0937-0.0937-0.001-0.001-0.12347-0.0926-0.125-0.0937-0.002-0.001-0.12339-0.0927-0.125-0.0937-0.002-0.001-0.12332-0.0616-0.125-0.0625-0.002-0.00089-0.15451-0.0617-0.15625-0.0625-0.002-0.00076-0.12321-0.0619-0.125-0.0625-0.002-0.00063-0.15442-0.062-0.15625-0.0625-0.002-0.00049-0.15438-0.0309-0.15625-0.0313-0.002-0.00035-0.15436-0.031-0.15625-0.0313-0.002-0.00021-0.15435 0.00007-0.15625 0-0.002-0.00007-0.15435-0.00007-0.15625 0-0.002 0.00007-0.15436-0.00021-0.15625 0z"/>
   <path id="path4266" opacity=".1" d="m185.44 985.34a1.0681 1.0681 0 0 0 -0.8125 0.5625l-6.5 12.344-13.75 2.375a1.0681 1.0681 0 0 0 -0.59375 1.8125l9.7188 10-2 13.781a1.0681 1.0681 0 0 0 1.5312 1.125l12.531-6.1562 12.5 6.1562a1.0681 1.0681 0 0 0 1.5312 -1.125l-2-13.812 9.7188-9.9687a1.0681 1.0681 0 0 0 -0.5625 -1.8125l-13.75-2.375-6.5-12.344a1.0681 1.0681 0 0 0 -1.0625 -0.5625z"/>
   <path id="path4247" opacity=".3" d="m185.56 986.4-6.75 12.812-14.25 2.4688 10.062 10.375-2.0625 14.312 13-6.375 12.969 6.375-2.0625-14.312 10.094-10.375-14.25-2.4688-6.75-12.812z"/>
   <path id="path3748" d="m164.56 1000.7 14.252-2.4623 6.7524-12.792 6.7455 12.796 14.25 2.4703-10.083 10.371 2.0548 14.319-12.977-6.3865-12.98 6.3793 2.0626-14.318z" fill="url(#linearGradient12697)"/>
   <path id="path3684" opacity=".1" d="m185.56 988.78-5.5996 10.636-11.854 2.0544 8.3812 8.6175-1.7272 11.908 10.799-5.3087 10.781 5.3087-1.709-11.908 8.3812-8.6175-11.835-2.0544-5.6178-10.636zm0.0182 2.8362 4.4542 8.4902a1.2921 1.2919 1.5484 0 0 0.87266 0.6727l9.5084 1.6181-6.6904 6.7813a1.2921 1.2919 1.5484 0 0 -0.34543 0.9999l1.3272 9.5629-8.5448-4.2179a1.2921 1.2919 1.5484 0 0 -1.1272 0.036l-8.5812 4.1451 1.309-9.4174a1.2921 1.2919 1.5484 0 0 -0.34542 -1.0363l-6.6722-6.8904 9.472-1.7453a1.2921 1.2919 1.5484 0 0 0.94538 -0.65452l4.4178-8.3448z" fill="#a40"/>
   <path id="path3682" opacity=".2" d="m185.56 987.78-5.9367 11.276-12.567 2.1781 8.8858 9.1364-1.8311 12.625 11.449-5.6284 11.43 5.6284-1.8119-12.625 8.8858-9.1364-12.548-2.1781-5.956-11.276zm0.0192 3.0069 4.7224 9.0015a1.37 1.3697 1.5484 0 0 0.92521 0.71318l10.081 1.7155-7.0932 7.1896a1.37 1.3697 1.5484 0 0 -0.36623 1.0601l1.4071 10.139-9.0593-4.4718a1.37 1.3697 1.5484 0 0 -1.1951 0.039l-9.0978 4.3947 1.3878-9.9845a1.37 1.3697 1.5484 0 0 -0.3662 -1.0987l-7.074-7.3053 10.042-1.8504a1.37 1.3697 1.5484 0 0 1.0023 -0.69389l4.6838-8.8473z" fill="#a40"/>
   <path id="path3680" opacity=".4" d="m185.56 986.53-6.3582 12.076-13.46 2.3327 9.5166 9.785-1.9611 13.522 12.262-6.0279 12.242 6.0279-1.9405-13.522 9.5166-9.785-13.439-2.3327-6.3788-12.076zm0.0206 3.2204 5.0576 9.6405a1.4672 1.4669 1.5484 0 0 0.99089 0.76379l10.797 1.8373-7.5968 7.7a1.4672 1.4669 1.5484 0 0 -0.39222 1.1354l1.507 10.858-9.7024-4.7893a1.4672 1.4669 1.5484 0 0 -1.2799 0.041l-9.7437 4.7067 1.4863-10.693a1.4672 1.4669 1.5484 0 0 -0.39222 -1.1767l-7.5762-7.8239 10.755-1.9818a1.4672 1.4669 1.5484 0 0 1.0735 -0.74317l5.0164-9.4754z" fill="#a40"/>
   <path id="path3677" d="m185.56 985.4-6.7375 12.797-14.262 2.4719 10.084 10.369-2.0781 14.328 12.994-6.3876 12.972 6.3876-2.0562-14.328 10.084-10.369-14.241-2.4719-6.7594-12.797zm0.0219 3.4125 5.3594 10.216a1.5547 1.5544 1.5484 0 0 1.05 0.80938l11.441 1.9469-8.05 8.1594a1.5547 1.5544 1.5484 0 0 -0.41562 1.2031l1.5969 11.506-10.281-5.075a1.5547 1.5544 1.5484 0 0 -1.3562 0.044l-10.325 4.9875 1.575-11.331a1.5547 1.5544 1.5484 0 0 -0.41568 -1.2469l-8.0281-8.2906 11.397-2.1a1.5547 1.5544 1.5484 0 0 1.1375 -0.7875l5.3156-10.041z" fill="url(#linearGradient12699)"/>
   <path id="path3694" d="m185.56 985.4-6.7375 12.797-14.262 2.4719 10.084 10.369-2.0781 14.328 12.994-6.3876 12.972 6.3876-2.0562-14.328 10.084-10.369-14.241-2.4719-6.7594-12.797zm0.0219 1.2031 6.2344 11.878a0.50921 0.50912 1.5484 0 0 0.13125 0.10937 0.50921 0.50912 1.5484 0 0 0.10932 0.13125 0.50921 0.50912 1.5484 0 0 0.13125 0.0219 0.50921 0.50912 1.5484 0 0 0.10932 0l13.256 2.2968-9.45 9.5594a0.50921 0.50912 1.5484 0 0 -0.13125 0.1094 0.50921 0.50912 1.5484 0 0 -0.0219 0.1312 0.50921 0.50912 1.5484 0 0 0 0.1313 0.50921 0.50912 1.5484 0 0 0 0.1094l1.8595 13.366-11.944-5.9063a0.50921 0.50912 1.5484 0 0 -0.13125 -0.022 0.50921 0.50912 1.5484 0 0 -0.13125 0 0.50921 0.50912 1.5484 0 0 -0.10932 0 0.50921 0.50912 1.5484 0 0 -0.13125 -0.022l-12.075 5.8844 1.7938-13.3a0.50921 0.50912 1.5484 0 0 0 -0.1094 0.50921 0.50912 1.5484 0 0 0.0219 -0.1312 0.50921 0.50912 1.5484 0 0 -0.13125 -0.1313l-9.2969-9.6906 13.256-2.3625a0.50921 0.50912 1.5484 0 0 0.10931 0 0.50921 0.50912 1.5484 0 0 0.13125 -0.10938 0.50921 0.50912 1.5484 0 0 0.13125 -0.13125l6.2781-11.812z" fill="url(#linearGradient12701)"/>
  </g>
 </g>
</svg>
