<?xml version="1.0" encoding="UTF-8" standalone="no"?>
<!-- Created with Inkscape (http://www.inkscape.org/) -->
<svg id="svg2" xmlns:rdf="http://www.w3.org/1999/02/22-rdf-syntax-ns#" xmlns="http://www.w3.org/2000/svg" height="96" width="96" version="1.1" xmlns:cc="http://creativecommons.org/ns#" xmlns:xlink="http://www.w3.org/1999/xlink" xmlns:dc="http://purl.org/dc/elements/1.1/">
 <defs id="defs4">
  <linearGradient id="linearGradient3613-7" y2="138.66" gradientUnits="userSpaceOnUse" x2="48" y1="20.221" x1="48">
   <stop id="stop3739-40" stop-color="#fff" offset="0"/>
   <stop id="stop3741-8" stop-color="#fff" stop-opacity="0" offset="1"/>
  </linearGradient>
  <clipPath id="clipPath3613-22">
   <rect id="rect3615-13" rx="6" ry="6" height="84" width="84" y="6" x="6" fill="#fff"/>
  </clipPath>
  <filter id="filter3794-3" height="1.384" width="1.384" color-interpolation-filters="sRGB" y="-.192" x="-.192">
   <feGaussianBlur id="feGaussianBlur3796-52" stdDeviation="5.28"/>
  </filter>
  <linearGradient id="linearGradient3700-0">
   <stop id="stop3702-2" stop-color="#70a83e" offset="0"/>
   <stop id="stop3704-9" stop-color="#9fd058" offset="1"/>
  </linearGradient>
  <linearGradient id="linearGradient4982" y2="5.9877" xlink:href="#linearGradient3700-0" gradientUnits="userSpaceOnUse" x2="48" gradientTransform="translate(101.91 941.34)" y1="90" x1="48"/>
  <clipPath id="clipPath3613-00">
   <rect id="rect3615-0" rx="6" ry="6" height="84" width="84" y="6" x="6" fill="#fff"/>
  </clipPath>
  <filter id="filter3794-56" height="1.384" width="1.384" color-interpolation-filters="sRGB" y="-.192" x="-.192">
   <feGaussianBlur id="feGaussianBlur3796-46" stdDeviation="5.28"/>
  </filter>
  <linearGradient id="linearGradient38181" y2="5.9877" gradientUnits="userSpaceOnUse" x2="48" gradientTransform="matrix(1.0357 0 0 1.0357 -1.2143 -3.2143)" y1="90" x1="48">
   <stop id="stop3616-1" stop-color="#65a31b" offset="0"/>
   <stop id="stop3618-36" stop-color="#a0de42" offset="1"/>
  </linearGradient>
  <linearGradient id="linearGradient38187" y2="48.273" gradientUnits="userSpaceOnUse" x2="81" gradientTransform="matrix(1.0476 0 0 1.0476 -1.7857 951.08)" y1="48.273" x1="15">
   <stop id="stop3742-7" stop-color="#fff" offset="0"/>
   <stop id="stop3744-2" stop-color="#fff" stop-opacity="0" offset="1"/>
  </linearGradient>
 </defs>
 <metadata id="metadata7">
  <rdf:RDF>
   <cc:Work rdf:about="">
    <dc:format>image/svg+xml</dc:format>
    <dc:type rdf:resource="http://purl.org/dc/dcmitype/StillImage"/>
    <dc:title/>
   </cc:Work>
  </rdf:RDF>
 </metadata>
 <g id="layer1" transform="translate(0 -956.36)">
  <rect id="rect5261-6" fill-opacity=".039216" ry="12.552" height="88.762" width="88.762" y="959.96" x="3.6078"/>
  <rect id="rect5259-9" fill-opacity=".078431" ry="12.38" height="87.546" width="87.546" y="960.57" x="4.2157"/>
  <rect id="rect5257-5" fill-opacity=".15686" ry="12.208" height="86.33" width="86.33" y="961.18" x="4.8237"/>
  <path id="rect2419-1" d="m17.469 5.4062c-6.668 0-12.032 5.3948-12.032 12.063l0.0005 61.031c0 5.418 3.5332 9.982 8.4375 11.5h68.187c4.715-1.457 8.172-5.734 8.438-10.875v-62.281c-0.321-6.377-5.54-11.438-12-11.438l-61.031 0.0002z" transform="translate(0 956.36)" fill="url(#linearGradient38181)"/>
  <path id="rect5265-0" d="m5.4316 1029.8v5.0663c0 6.668 5.3645 12.032 12.032 12.032h61.049c6.668 0 12.032-5.3645 12.032-12.032v-5.0663c0 6.6681-5.3645 12.032-12.032 12.032h-61.049c-6.668 0-12.032-5.3643-12.032-12.032z" fill-opacity=".23529"/>
  <path id="path5252-0" d="m5.4316 1033.9v1.0133c0 6.668 5.3645 12.032 12.032 12.032h61.049c6.668 0 12.032-5.3645 12.032-12.032v-1.0133c0 6.6681-5.3645 12.032-12.032 12.032h-61.049c-6.668 0-12.032-5.3644-12.032-12.032z" fill-opacity=".098039"/>
  <g id="layer5" transform="translate(-95.023 954.86)">
   <rect id="rect3171" height="66" stroke="#fff" stroke-linecap="round" stroke-width=".5" fill="url(#linearGradient3613-7)" rx="12" ry="12" width="66" opacity=".1" clip-path="url(#clipPath3613-22)" filter="url(#filter3794-3)" y="15" x="15"/>
  </g>
  <rect id="rect3873" rx="6" ry="6" height="84" width="84" display="none" y="947.34" x="107.91" fill="url(#linearGradient4982)"/>
  <rect id="rect3880" rx="6" ry="6" height="84" width="84" display="none" y="947.34" x="107.91" fill="url(#linearGradient4982)"/>
  <g id="layer5-1" transform="matrix(1.0476 0 0 1.0476 -1.7857 951.08)">
   <rect id="rect3171-6" height="66" stroke="#fff" stroke-linecap="round" stroke-width=".5" fill="url(#linearGradient3613-7)" rx="12" ry="12" width="66" opacity=".1" clip-path="url(#clipPath3613-00)" filter="url(#filter3794-56)" y="15" x="15"/>
  </g>
  <path id="path3724" opacity=".05" d="m48.5 966.53c-21.075 0-39.024 14.201-39.024 32.738 0 10.562 6.1998 19.588 15.027 25.438-0.16438 0.5503-0.27928 1.0885-0.65476 1.6696-0.96368 1.4916-2.2336 2.7732-5.0744 3.6012h-0.03279c-0.01791 0-0.01425-0.011-0.03279 0-0.06307 0.018-0.13337 0.034-0.13095 0.033 0.0031 0-0.11155 0.045-0.16369 0.066-0.01299 0-0.03342 0.034-0.03279 0.032l-0.13095 0.033a1.2584 1.2584 0 0 0 -0.03279 0v0.033a1.2584 1.2584 0 0 0 -0.06548 0 1.2584 1.2584 0 0 0 0 0.033 1.2584 1.2584 0 0 0 -0.03279 0 1.2584 1.2584 0 0 0 -0.13095 0.066 1.2584 1.2584 0 0 0 -0.09816 0.033s-0.04505 0.065-0.09816 0.098a1.2584 1.2584 0 0 0 -0.03279 0c-0.01257 0.011-0.02032 0.025-0.03279 0.033h-0.03279c0.000325 0-0.0308 0.0005-0.03279 0-0.01184 0.011 0.0063 0.029 0 0.033h-0.03279c-0.01812 0.011-0.01446 0-0.06548 0.033a1.2584 1.2584 0 0 0 -0.06548 0.032c-0.02368 0.017-0.0031 0.01-0.03279 0.033-0.08737 0.052-0.01948 0.031-0.06548 0.066 0.000262 0-0.0308 0.0004-0.03279 0a1.2584 1.2584 0 0 0 -0.06548 0.066c-0.02231 0.014 0.0042 0.011-0.03279 0.033-0.02336 0.017-0.0021-0.023-0.03279 0a1.2584 1.2584 0 0 0 -0.06548 0.033c-0.000209 0.001-0.0042 0.034 0 0.032h-0.03279a1.2584 1.2584 0 0 0 -0.22917 0.1965s-0.04107 0.066-0.09816 0.1309c-0.0286 0.033-0.07459 0.039-0.09816 0.066-0.0063 0.011 0.0052 0.026 0 0.033-0.0052 0.011-0.02787-0.011-0.03279 0-0.001 0.0007 0.0031 0.03 0 0.033-0.0084 0.01 0.0073 0.025 0 0.032a1.2584 1.2584 0 0 0 -0.03279 0.033 1.2584 1.2584 0 0 0 -0.03279 0c-0.0052 0 0.0042 0.028 0 0.032a1.2584 1.2584 0 0 0 -0.03279 0c-0.0031 0 0.0021 0.031 0 0.033-0.0021 0-0.03279-0.0001-0.03279 0a1.2584 1.2584 0 0 0 -0.06548 0.066s-0.0571 0.073-0.09816 0.1309c-0.02053 0.028-0.01467 0.04-0.03279 0.066-0.0052 0.01-0.03541 0.039-0.03279 0.032a1.2584 1.2584 0 0 0 -0.03279 0.033 1.2584 1.2584 0 0 0 0 0.033c-0.01215 0.019 0.0063-0.032-0.03279 0.032a1.2584 1.2584 0 0 0 -0.03279 0.033c0.0084-0.012-0.03572 0.092 0 0.033-0.0073 0.01-0.02525-0.012-0.03279 0-0.0063 0.01 0.0063 0.023 0 0.033a1.2584 1.2584 0 0 0 -0.06548 0.066 1.2584 1.2584 0 0 0 -0.06548 0.1309c-0.0021 0 0.00001 0.033 0 0.033-0.0084 0.019-0.03876 0.071-0.06548 0.1309-0.01613 0.037-0.01959 0.068-0.03279 0.099-0.0132 0.029-0.0063-0.049-0.06548 0.099 0.10883-0.2722 0.06139-0.1698-0.03279 0.066-0.01068 0.022-0.02336 0.01-0.03279 0.033-0.0084 0.021 0.0073 0.012 0 0.032l-0.06548 0.1637a1.2584 1.2584 0 0 0 -0.06548 0.3274 1.2584 1.2584 0 0 0 0 0.032c-0.0084 0.012-0.06548 0.065-0.06548 0.066-0.0063 0.029 0.0042 0.011 0 0.033-0.0031 0.012 0.0021 0.021 0 0.033-0.0042 0.017-0.02933 0.016-0.03279 0.033-0.0042 0.022 0.0031 0.013 0 0.032l-0.03279 0.1637a1.2584 1.2584 0 0 0 0 0.033c-0.0063 0.028 0.0042 0.01 0 0.032-0.0031 0.012 0.0021 0.021 0 0.033-0.0052 0.024 0.0031 0.012 0 0.033-0.001 0.01-0.03143-0.011-0.03279 0-0.02661 0.1327-0.001 0.1195 0 0.1964a1.2584 1.2584 0 0 0 -0.03132 0.3317v0.1964a1.2584 1.2584 0 0 0 0 0.098 1.2584 1.2584 0 0 0 0 0.033v0.033a1.2584 1.2584 0 0 0 0 0.098 1.2584 1.2584 0 0 0 0 0.066s-0.0084 0.066 0 0.131c0.0042 0.033 0.02912 0.037 0.03279 0.066 0.0042 0.028-0.05154-0.094 0 0.1637 0.0031 0.017 0.02839 0.016 0.03279 0.033 0.0021 0.01-0.0031 0.023 0 0.033 0.0042 0.024-0.0063 0 0 0.032a1.2584 1.2584 0 0 0 0 0.032l0.03279 0.1637a1.2584 1.2584 0 0 0 0.13095 0.2947 1.2584 1.2584 0 0 0 0 0.032c-0.000744 0.018 0 0.099 0 0.099 0.0094 0.023 0.0221 0.01 0.03279 0.033 0.01069 0.022 0.02095 0.011 0.03279 0.033-0.000566 0 0.04337 0.1411 0 0.032a1.2584 1.2584 0 0 0 0 0.033l0.06548 0.1637a1.2584 1.2584 0 0 0 0 0.032c0.0094 0.023 0.02211 0.01 0.03279 0.033 0.01069 0.022 0.02106 0.011 0.03279 0.032 0.0042 0.011-0.0052 0.023 0 0.033a1.2584 1.2584 0 0 0 0 0.032 1.2584 1.2584 0 0 0 0.03279 0.033 1.2584 1.2584 0 0 0 0 0.033 1.2584 1.2584 0 0 0 0.03279 0.033 1.2584 1.2584 0 0 0 0.06548 0.1309 1.2584 1.2584 0 0 0 0 0.033 1.2584 1.2584 0 0 0 0.03279 0.099l0.09816 0.1637c-0.0021 0 0.13352 0.1998 0.13095 0.1964l0.09816 0.131a1.2584 1.2584 0 0 0 0.2619 0.2619 1.2584 1.2584 0 0 0 0.06548 0.033c0.03562 0.041-0.01666 0.016 0.03279 0.066a1.2584 1.2584 0 0 0 0.09816 0.099s0.02525 0.034 0.06548 0.066h0.03279l0.03279 0.032c0.0021 0 0.01812 0.022 0.03279 0.033a1.2584 1.2584 0 0 0 0.03279 0.033h0.03279c0.0021 0-0.0031 0.03 0 0.033a1.2584 1.2584 0 0 0 0.09816 0.098h0.03279a1.2584 1.2584 0 0 0 0.09816 0.098c-0.27408-0.2055-0.19842-0.1407 0.03279 0.033 0.0484 0.037 0.03206 0.012 0.06548 0.033a1.2584 1.2584 0 0 0 0.22917 0.1636s0.09114 0.034 0.16369 0.066c0.03625 0.016 0.06851 0.02 0.09816 0.032 0.02975 0.014-0.04955 0.011 0.09816 0.066-0.27243-0.1091-0.1696-0.062 0.06548 0.033 0.02221 0.01 0.0094 0.023 0.03279 0.032 0.02095 0.011 0.01247-0.01 0.03279 0l0.16369 0.066 0.16369 0.066a1.2584 1.2584 0 0 0 0.32738 0.066h0.03279c0.01142 0.01 0.06548 0.066 0.06548 0.066 0.02881 0.011 0.0084 0 0.03279 0h0.03279c0.01697 0 0.01551 0.029 0.03279 0.033h0.03279l0.16369 0.033a1.2584 1.2584 0 0 0 0.19643 0c-0.0021-0.0002 0.13334 0 0.13095 0h0.09816 0.03279c-0.000021 0.0008 0.000021 0.033 0 0.033h0.03279 0.06548v-0.033c10.218 1.0039 17.513-3.29 21.902-7.2679 2.1908 0.3507 4.4376 0.622 6.8423 0.622 21.075 0 39.024-14.201 39.024-32.738s-17.949-32.738-39.024-32.738zm-28.875 71.762a1.2584 1.2584 0 0 0 0.03279 0v0.1637l-0.03279-0.1637z"/>
  <path id="path3720" opacity=".05" d="m48.5 967.77c-20.512 0-37.78 13.775-37.78 31.494 0 10.419 6.261 19.371 15.289 25.012-0.23046 0.8733-0.45726 1.7676-1.1131 2.7828-1.0805 1.6723-2.6693 3.2221-5.7946 4.125h-0.03279a1.1344 1.1344 0 0 0 -0.19643 0.066l-0.16369 0.066 0.4256 1.0476c-0.22087-0.5225-0.45065-1.0508-0.45833-1.0476-0.0154 0.01-0.01226 0.024-0.03279 0.032-0.02043 0.01-0.05018 0.026-0.06548 0.032-0.0153 0.011-0.03279 0-0.03279 0s-0.24969 0.1545-0.2619 0.1636c-0.01226 0.011-0.04913 0.02-0.06548 0.033 0.0154-0.011-0.06548 0.033-0.06548 0.033-0.01173 0.01-0.02357 0.027-0.03279 0.033-0.01529 0.01-0.03279 0-0.03279 0s-0.08591 0.089-0.09816 0.098c-0.01226 0.01-0.04913 0.02-0.06548 0.032-0.01634 0.013-0.02053 0.023-0.03279 0.033-0.01226 0.011-0.03279 0-0.03279 0s-0.22001 0.2497-0.22917 0.2619c-0.0094 0.013-0.02043 0.017-0.03279 0.033-0.0063 0.011 0.0063 0.026 0 0.033h-0.03279c-0.01393 0.017-0.03279 0.032-0.03279 0.032-0.01226 0.013-0.03279 0.033-0.03279 0.033s-0.1545 0.2138-0.16369 0.2292c-0.0094 0.016-0.02043 0.045-0.03279 0.066-0.01226 0.021-0.02347 0.018-0.03279 0.032-0.0094 0.016-0.03279 0.033-0.03279 0.033-0.0042 0.011 0.0042 0.028 0 0.033-0.0094 0.013-0.03279 0-0.03279 0s-0.12484 0.2793-0.13095 0.2947c-0.0063 0.016-0.02451 0.045-0.03279 0.066-0.0084 0.021-0.02661 0.018-0.03279 0.032-0.0063 0.016 0 0.033 0 0.033l-0.06548 0.1636 1.0476 0.4257 1.0804 0.3601s-2.1904-0.5718-2.1935-0.5565c-0.0031 0.015 0.0042 0.045 0 0.066s-0.02965 0.018-0.03279 0.032c-0.0031 0.016 0 0.033 0 0.033l-0.03279 0.1637 0.75298 0.1637c-0.33983-0.057-0.75194-0.1362-0.75298-0.131-0.0031 0.016 0.0042 0.045 0 0.066s-0.02965 0.018-0.03279 0.033c-0.0031 0.016 0 0.033 0 0.033l1.1131 0.2291h-1.1458v0.1964h1.1458c-0.56708 0.01-1.1458 0.025-1.1458 0.032v0.066 0.033 0.033s0.02965 0.2465 0.03279 0.2619c0.0031 0.016 0.0286 0.013 0.03279 0.033 0.0042 0.02-0.0031 0.05 0 0.066s0 0.032 0 0.032l0.03279 0.1637 1.1131-0.2291 1.0804-0.2947s-2.1341 0.7376-2.128 0.753c0.0063 0.016 0.02451 0.013 0.03279 0.033 0.0084 0.02 0.02661 0.05 0.03279 0.066 0.0063 0.016 0 0.032 0 0.032l0.06548 0.1637 0.85119-0.3601c-0.41857 0.1848-0.85375 0.3865-0.85119 0.3929 0.0063 0.016 0.02451 0.013 0.03279 0.032 0.0084 0.02 0.02661 0.05 0.03279 0.066 0.0063 0.016 0 0.032 0 0.032l1.0476-0.4256-0.98214 0.5893 0.09816 0.1637a1.1344 1.1344 0 0 0 0.06548 0.099l0.09816 0.1309 0.91667-0.6874 0.88393-0.7203s-1.6819 1.5264-1.6696 1.5387c0.01226 0.013 0.04913 0.017 0.06548 0.033 0.01634 0.017 0.02043 0.053 0.03279 0.066 0 0 0.15148 0.1217 0.16369 0.1309 0.01226 0.011 0.01634 0.021 0.03279 0.033 0.0073 0.011 0.02452 0.024 0.03279 0.033 0.0084 0.01 0.02755 0 0.03279 0 0.0073 0.01-0.0063 0.026 0 0.032 0.01226 0.013 0.03279 0.032 0.03279 0.032s0.11867 0.089 0.13095 0.099c0.01226 0.011 0.01634 0.02 0.03279 0.033 0.01634 0.013 0.05322 0.023 0.06548 0.032 0.01226 0.01 0 0.033 0 0.033s0.27937 0.1248 0.29464 0.131c0.0153 0.01 0.04505 0.024 0.06548 0.032 0.02043 0.011 0.01739 0.026 0.03279 0.033 0.0154 0.011 0.03279 0 0.03279 0l0.16369 0.066 0.16369 0.066 0.4256-1.0476 0.32738-1.0804s-0.53912 2.1904-0.52381 2.1935h0.06548c0.02043 0 0.01739 0.029 0.03279 0.033h0.03279l0.16369 0.033a1.1344 1.1344 0 0 0 0.13095 0 1.1344 1.1344 0 0 0 0.06548 0.032h0.09816v-0.032c10.21 1.0492 17.37-3.4028 21.542-7.3334 2.3204 0.3871 4.7025 0.6875 7.2024 0.6875 20.512 0 37.78-13.774 37.78-31.494s-17.268-31.494-37.78-31.494zm2.9137 15.845c0.63013 0 0.6196-0.0136 1.0476 0.39286 0.01624 0.0157 0.01519 0.0157 0.03279 0.0325a1.1344 1.1344 0 0 0 0.03279 0.0325c0.48528 0.45729 0.36011 0.17946 0.36012 0.75303-0.000011 0.58405 0.08748 0.38102-0.32738 0.75292-0.01477 0.0136-0.01886 0.0199-0.03279 0.0325-0.38932 0.35504-0.48268 0.39286-1.1131 0.39286-0.6357 0-0.74695-0.0367-1.1458-0.39286-0.02504-0.0231-0.01079-0.0126-0.03279-0.0325-0.41488-0.3719-0.32738-0.16887-0.32738-0.75292 0-0.61495-0.13898-0.32109 0.36012-0.78571 0.45981-0.42817 0.49706-0.42565 1.1458-0.42565zm-3.6339 12.964c0.5392 0.0964 1.1899 0.14834 1.4077 0.32738-0.001 0 0.09994 0.0995 0.09816 0.0985 0.27083 0.23749 0.35185 0.33157 0.39286 0.42554 0.04096 0.0943 0.06548 0.28296 0.06548 0.72024-0.000021 0.23393 0.03405 0.63559-0.03279 1.2768a1.1344 1.1344 0 0 0 -0.03279 0.0325c-0.0441 0.52873-0.12792 1.0266-0.2619 1.4733a1.1344 1.1344 0 0 0 0 0.033l-1.9643 6.9405v0.033c-0.1856 0.6519-0.37936 1.3807-0.52381 2.1934-0.14353 0.8073-0.26192 1.5249-0.2619 2.2262-0.000011 0.747 0.16625 1.6151 0.49107 2.4554-0.73357-0.097-1.2285-0.251-1.506-0.4911-0.54686-0.4992-0.49107-0.3895-0.49107-1.1458 0-0.3717 0.0021-0.819 0.06548-1.2769 0.06359-0.4708 0.20727-1.0632 0.36012-1.7023a1.1344 1.1344 0 0 0 0.03279 -0.3274l1.7351-6.2203a1.1344 1.1344 0 0 0 0.03279 -0.032 1.1344 1.1344 0 0 0 0.09816 -0.2947 1.1344 1.1344 0 0 0 0 -0.066h0.03279a1.1344 1.1344 0 0 0 0 -0.033c0.01048-0.042 0.02734-0.077 0.03279-0.099a1.1344 1.1344 0 0 0 0 -0.066c0.15611-0.6041 0.30986-1.2273 0.4256-1.8333 0.08748-0.4582 0.08276-0.4704 0-0.033 0.15404-0.7515 0.2619-1.4916 0.2619-2.2262 0-0.7281-0.16066-1.5678-0.45833-2.3899z"/>
  <path id="path3716" opacity="0.12" d="m48.5 968.92c-20.006 0-36.634 13.369-36.634 30.348 0 10.28 6.3017 19.182 15.518 24.619-0.23864 1.0973-0.64241 2.4104-1.5387 3.7976-1.2037 1.8631-3.0874 3.6472-6.5149 4.6162a1.0332 1.0332 0 0 0 -0.03279 0c0.000104-0.0002-0.1638 0.066-0.16369 0.066 0.000105-0.0002-0.1638 0.066-0.16369 0.066 0.000104-0.0002-0.13105 0.098-0.13095 0.098 0.000095-0.0001-0.16378 0.099-0.16369 0.099 0.000094-0.0001-0.13104 0.099-0.13095 0.099 0.000084-0.0001-0.09827 0.131-0.09816 0.1309 0.000073-0.0001-0.13103 0.1311-0.13095 0.131 0.000074-0.0001-0.09827 0.1637-0.09816 0.1637 0.000063-0.0001-0.09827 0.131-0.09816 0.131 0.000053-0.0001-0.06548 0.1637-0.06548 0.1636 0.000042-0.0001-0.06548 0.1639-0.06548 0.1638 0.000031-0.0002-0.03279 0.1637-0.03279 0.1636 0.000031-0.0001-0.03279 0.1638-0.03279 0.1637 0.000021-0.0002-0.03279 0.1638-0.03279 0.1637 0.00001-0.0001 0 0.1965 0 0.1964s0.00001 0.1639 0 0.1638c-0.000011-0.0003 0.03279 0.1637 0.03279 0.1636-0.000021-0.0001 0.03279 0.1638 0.03279 0.1637-0.000032-0.0002 0.06548 0.1638 0.06548 0.1637-0.000042-0.0001 0.06548 0.1638 0.06548 0.1637-0.000052-0.0001 0.06548 0.1638 0.06548 0.1637-0.000063-0.0002 0.09827 0.1637 0.09816 0.1637-0.000063-0.0001 0.09827 0.1309 0.09816 0.1309-0.000073-0.0001 0.13104 0.131 0.13095 0.131-0.000084-0.0001 0.13104 0.099 0.13095 0.099-0.000084-0.0001 0.13105 0.131 0.13095 0.1309-0.000094-0.0001 0.13105 0.099 0.13095 0.099-0.000094-0.0001 0.1638 0.066 0.16369 0.066-0.000105-0.0001 0.1638 0.066 0.16369 0.066-0.000104-0.0001 0.1638 0.066 0.16369 0.066-0.000115-0.0001 0.16381 0.033 0.16369 0.033-0.000115 0 0.16381 0.033 0.16369 0.033a1.0332 1.0332 0 0 0 0.03279 0c10.219 1.1105 17.236-3.5193 21.214-7.3989 2.4417 0.4299 4.9531 0.7203 7.5625 0.7203 20.006 0 36.634-13.369 36.634-30.348s-16.628-30.348-36.634-30.348zm2.9137 13.554c0.82803 0 1.2724 0.19046 1.8661 0.75293a1.0332 1.0332 0 0 0 0.03279 0 1.0332 1.0332 0 0 0 0 0.0325c0.56836 0.53554 0.72023 0.84072 0.72024 1.5714-0.00001 0.74339-0.12624 1.0511-0.72024 1.6041-0.56402 0.517-1.0622 0.72024-1.8988 0.72024-0.83837 0-1.3541-0.2003-1.9315-0.72024-0.59401-0.55303-0.72024-0.86082-0.72024-1.6041 0-0.74339 0.12619-1.0511 0.72024-1.6042 0.59568-0.55461 1.102-0.75292 1.9315-0.75292zm-4.3869 12.768c1.4671 0 2.3143 0.32005 2.881 0.78571a1.0332 1.0332 0 0 0 0.03279 0.0325 1.0332 1.0332 0 0 0 0.09816 0.0985c0.65476 0.5742 0.85118 0.9768 0.85119 1.997-0.000011 0.2046 0.0073 0.70337-0.06548 1.4078-0.05165 0.6192-0.17421 1.1918-0.32738 1.7024l-1.9643 6.9731c-0.18124 0.6342-0.35285 1.3177-0.49107 2.0952-0.13898 0.7817-0.22919 1.4453-0.22917 2.0298-0.000021 1.2075 0.25674 2.5998 1.375 3.503-0.3992 0.06-0.69005 0.1965-1.1786 0.1965-1.5885 0-2.4981-0.3542-3.1101-0.884-0.66425-0.6064-0.88393-1.0628-0.88393-1.997 0-0.4187 0.02609-0.921 0.09816-1.4405 0.0726-0.5375 0.20356-1.146 0.36012-1.8006h-0.03279l1.9315-6.875a1.0332 1.0332 0 0 0 0 -0.033h0.03279a1.0332 1.0332 0 0 0 0 -0.066c0.01194-0.046 0.02095-0.086 0.03279-0.1309 0.16129-0.6242 0.31531-1.2231 0.4256-1.8007 0.0021-0.01-0.0021-0.023 0-0.033 0.14615-0.705 0.22916-1.3812 0.22917-2.0297-0.000011-1.1547-0.20762-2.4433-1.1786-3.3721-0.06788-0.0649-0.1583-0.0733-0.22917-0.13095 0.44582-0.0838 0.95757-0.22912 1.3423-0.22912z"/>
  <path id="path3712" opacity="0.24" d="m48.5 969.97c-19.548 0-35.586 12.999-35.586 29.301 0 10.127 6.2837 18.951 15.649 24.194-0.22054 1.2494-0.68234 2.9981-1.8333 4.7797-1.3148 2.035-3.4468 4.0078-7.1042 5.0417a1.029 1.029 0 0 0 0.19643 1.997c10.152 1.1033 17.019-3.6624 20.789-7.4643 2.5445 0.4761 5.1693 0.753 7.8899 0.753 19.548 0 35.586-12.999 35.586-29.301 0-16.301-16.038-29.301-35.586-29.301zm2.9137 11.458c1.0557 0 1.8488 0.34896 2.5863 1.0476a1.029 1.029 0 0 0 0.03279 0c0.74678 0.69531 1.0476 1.3978 1.0476 2.3571-0.000011 0.95931-0.30087 1.6618-1.0476 2.3572-0.73366 0.6821-1.5545 1.0148-2.619 1.0148-1.0646 0-1.9027-0.33032-2.6518-1.0148-0.74677-0.69531-1.0476-1.3978-1.0476-2.3572-0.00001-0.9593 0.30082-1.6618 1.0476-2.3571 0.7529-0.70096 1.5961-1.0476 2.6518-1.0476zm-4.3869 12.768c1.7257 0 2.9089 0.42942 3.6994 1.1458a1.029 1.029 0 0 0 0 0.0325c0.82678 0.72495 1.2113 1.5481 1.2113 2.7827-0.000021 0.2618-0.02179 0.77252-0.09816 1.506-0.05793 0.69548-0.1883 1.3261-0.36012 1.8988l-1.9643 6.9733c-0.17194 0.6016-0.32614 1.2534-0.45833 1.997-0.13248 0.745-0.19645 1.3378-0.19643 1.8333-0.00001 1.0792 0.20098 2.0536 0.98214 2.6845 0.74879 0.6048 1.6892 0.7202 2.8155 0.7202 0.33951 0 0.73576-0.1037 1.1131-0.1636-1.0695 0.4088-2.1198 0.8117-2.8155 1.0476a1.029 1.029 0 0 0 -0.03279 0c-0.80121 0.2852-1.7544 0.4584-2.9137 0.4584-1.7548 0-2.9635-0.4238-3.7976-1.1459-0.84234-0.7615-1.244-1.6031-1.244-2.7827 0-0.4961 0.05563-1.0292 0.13095-1.5714 0.07773-0.5751 0.19602-1.2127 0.36012-1.8988l1.9315-6.9078a1.029 1.029 0 0 0 0 -0.033c0.18257-0.6972 0.34292-1.3543 0.45833-1.9643 0.13752-0.6533 0.19642-1.2432 0.19643-1.8333-0.000011-1.0394-0.17404-1.9713-0.85119-2.619-0.68799-0.65812-1.6421-0.81851-2.8155-0.81851-0.35269 0-0.67915 0.10058-1.0149 0.16375 0.89654-0.34079 1.788-0.69112 2.619-0.94946a1.029 1.029 0 0 0 0.03279 0c1.1053-0.3585 2.0925-0.5565 3.0119-0.5565z"/>
  <path id="path3620" d="m48.5 969.93c-19.093 0-34.571 12.664-34.571 28.286 0 9.9507 6.2855 18.693 15.78 23.735-0.36104 2.6282-2.0052 9.0617-9.7887 11.262 10.081 1.0956 16.776-3.82 20.33-7.5297 2.6437 0.5295 5.4068 0.8184 8.25 0.8184 19.093 0 34.571-12.664 34.571-28.286s-15.478-28.286-34.571-28.286zm2.9137 9.4286c1.293 0 2.3966 0.44754 3.3065 1.3095 0.92588 0.86209 1.375 1.8969 1.375 3.1102-0.000021 1.2132-0.44912 2.2481-1.375 3.1101-0.90995 0.84606-2.0135 1.2768-3.3065 1.2768-1.2931 0-2.4134-0.43078-3.3393-1.2768-0.92591-0.86198-1.375-1.8968-1.375-3.1101-0.000011-1.2132 0.44909-2.2481 1.375-3.1102 0.92588-0.86198 2.0462-1.3095 3.3393-1.3095zm-4.3869 12.768c1.8997 0 3.3652 0.4819 4.3869 1.4078 1.0376 0.90985 1.5387 2.0997 1.5387 3.5684-0.000021 0.30328-0.01844 0.83788-0.09816 1.6042-0.06391 0.76623-0.20131 1.4566-0.39286 2.0952l-1.9643 6.9732c-0.15965 0.5587-0.2979 1.1804-0.4256 1.8988-0.12773 0.7183-0.19644 1.2697-0.19643 1.6369-0.00001 0.9259 0.20696 1.5636 0.62202 1.8988 0.41505 0.3352 1.139 0.4911 2.1607 0.4911 0.4789 0 1.0303-0.069 1.6369-0.2292 0.6066-0.1756 1.0381-0.3306 1.3095-0.4583l-0.52381 2.1607c-1.5804 0.6226-2.8558 1.0885-3.7976 1.4078-0.94187 0.3352-2.0287 0.491-3.2738 0.491-1.9157 0-3.4156-0.4491-4.4851-1.375-1.0536-0.9418-1.5714-2.1317-1.5714-3.5684 0-0.5588 0.05112-1.1278 0.13095-1.7024 0.07983-0.5906 0.18452-1.2627 0.36012-1.9971l1.9643-6.9731c0.17559-0.6705 0.31385-1.3082 0.4256-1.8988 0.1277-0.60668 0.19643-1.1421 0.19643-1.6369 0-0.89404-0.18939-1.5148-0.55655-1.8661-0.36717-0.35116-1.0576-0.5565-2.0952-0.5565-0.51084 0-1.0287 0.10267-1.5714 0.26191-0.52681 0.15966-0.99188 0.3146-1.375 0.45833l0.52381-2.1607c1.2931-0.52685 2.5508-0.97513 3.7321-1.3423 1.1813-0.38311 2.2857-0.58928 3.3393-0.58928z" fill="#f2f2f2"/>
  <path id="path3666" d="m48.5 969.93c-19.093 0-34.571 12.664-34.571 28.286 0 0.21833 0.02671 0.43759 0.03279 0.65476 0.92593-14.945 16.042-26.845 34.539-26.845 18.659 0 33.857 12.108 34.539 27.238 0.01582-0.35189 0.03279-0.69247 0.03279-1.0476 0-15.622-15.478-28.286-34.571-28.286zm-1.6696 14.896c-0.08098 0.33095-0.13095 0.68483-0.13095 1.0476-0.000011 1.2132 0.44909 2.2481 1.375 3.1101 0.92588 0.84606 2.0462 1.2768 3.3393 1.2768 1.293 0 2.3966-0.43078 3.3065-1.2768 0.92588-0.86198 1.375-1.8968 1.375-3.1101 0-0.36279-0.04997-0.71667-0.13095-1.0476-0.18999 0.77608-0.59498 1.4582-1.244 2.0624-0.90995 0.84606-2.0135 1.2768-3.3065 1.2768-1.2931 0-2.4134-0.43078-3.3393-1.2768-0.6491-0.60426-1.0541-1.2864-1.244-2.0624zm-4.4524 10.673c-0.33054 0-0.67363 0.0576-1.0149 0.13096-0.46644 0.17317-0.92956 0.32895-1.4077 0.52381l-0.52381 2.1607c0.38312-0.14373 0.84819-0.29868 1.375-0.45833 0.54276-0.15966 1.0606-0.26191 1.5714-0.26191 1.0376 0 1.7281 0.20533 2.0952 0.5565 0.20679 0.19779 0.3664 0.48169 0.45833 0.85119 0.05908-0.3784 0.09816-0.74779 0.09816-1.0803 0-0.89404-0.18939-1.5148-0.55655-1.8661-0.36717-0.35116-1.0576-0.5565-2.0952-0.5565zm10.509 2.881c-0.01152 0.13734-0.01645 0.17055-0.03279 0.32738-0.0639 0.76623-0.20131 1.4566-0.39286 2.0952l-1.9643 6.9732c-0.15965 0.5587-0.2979 1.1804-0.4256 1.8988-0.12773 0.7183-0.19644 1.2697-0.19643 1.6369 0 0.3915 0.05689 0.7276 0.13095 1.0149 0.02703-0.181 0.02818-0.3466 0.06548-0.5566 0.12769-0.7183 0.26595-1.3401 0.4256-1.8988l1.9643-6.9732c0.19155-0.6386 0.32899-1.329 0.39286-2.0952 0.07983-0.7663 0.09816-1.3009 0.09816-1.6042 0-0.28653-0.02703-0.55325-0.06548-0.8184zm-10.869 14.568c-0.04788 0.428-0.06548 0.8583-0.06548 1.2768 0 1.4367 0.51782 2.6266 1.5714 3.5684 1.0696 0.9259 2.5695 1.375 4.4851 1.375 1.2452 0 2.3319-0.1558 3.2738-0.491 0.94184-0.3193 2.2172-0.7852 3.7976-1.4078l0.52381-2.1607c-0.27141 0.1277-0.70292 0.2828-1.3095 0.4583-0.19774 0.052-0.37115 0.065-0.55655 0.098-0.88108 0.3321-1.8459 0.71-2.4554 0.9167-0.94187 0.3352-2.0287 0.491-3.2738 0.491-1.9157 0-3.4156-0.4491-4.4851-1.375-0.84153-0.7523-1.3389-1.6819-1.506-2.75zm-12.702 10.869c-0.82645 3.0652-3.0822 7.6112-9.3958 9.3959 1.5071 0.1638 2.9321 0.179 4.2887 0.099 4.139-2.8657 5.2186-7.2165 5.5-9.2648-0.13535-0.072-0.25882-0.1559-0.39286-0.2293z" fill="url(#linearGradient38187)"/>
 </g>
</svg>
