<?xml version="1.0" encoding="UTF-8" standalone="no"?>
<!-- Created with Inkscape (http://www.inkscape.org/) -->
<svg id="svg2" xmlns:rdf="http://www.w3.org/1999/02/22-rdf-syntax-ns#" xmlns="http://www.w3.org/2000/svg" height="96" width="96" version="1.1" xmlns:cc="http://creativecommons.org/ns#" xmlns:xlink="http://www.w3.org/1999/xlink" xmlns:dc="http://purl.org/dc/elements/1.1/">
 <defs id="defs4">
  <linearGradient id="linearGradient3700-0">
   <stop id="stop3702-2" stop-color="#70a83e" offset="0"/>
   <stop id="stop3704-9" stop-color="#9fd058" offset="1"/>
  </linearGradient>
  <linearGradient id="linearGradient4982" y2="5.9877" xlink:href="#linearGradient3700-0" gradientUnits="userSpaceOnUse" x2="48" gradientTransform="translate(101.91 941.34)" y1="90" x1="48"/>
  <clipPath id="clipPath3613-55">
   <rect id="rect3615-88" rx="6" ry="6" height="84" width="84" y="6" x="6" fill="#fff"/>
  </clipPath>
  <filter id="filter3794-41" height="1.384" width="1.384" color-interpolation-filters="sRGB" y="-.192" x="-.192">
   <feGaussianBlur id="feGaussianBlur3796-50" stdDeviation="5.28"/>
  </filter>
  <linearGradient id="linearGradient3182" y2="5.9877" gradientUnits="userSpaceOnUse" y1="90" gradientTransform="matrix(1.125 0 0 1.0417 -7.75 -3.25)" x2="48" x1="48">
   <stop id="stop4083" stop-color="#8c8c8c" offset="0"/>
   <stop id="stop4085" stop-color="#dcdcdc" offset="1"/>
  </linearGradient>
  <linearGradient id="linearGradient90466" y2="138.66" gradientUnits="userSpaceOnUse" x2="48" y1="20.221" x1="48">
   <stop id="stop3739-532" stop-color="#fff" offset="0"/>
   <stop id="stop3741-666" stop-color="#fff" stop-opacity="0" offset="1"/>
  </linearGradient>
  <linearGradient id="linearGradient4416-6" y2="80" gradientUnits="userSpaceOnUse" x2="48" y1="16" x1="48">
   <stop id="stop4283-9-2" stop-color="#1e1e1e" offset="0"/>
   <stop id="stop4285-8-6" stop-color="#505050" offset="1"/>
  </linearGradient>
 </defs>
 <metadata id="metadata7">
  <rdf:RDF>
   <cc:Work rdf:about="">
    <dc:format>image/svg+xml</dc:format>
    <dc:type rdf:resource="http://purl.org/dc/dcmitype/StillImage"/>
    <dc:title/>
   </cc:Work>
  </rdf:RDF>
 </metadata>
 <g id="layer1" transform="translate(0 -956.36)">
  <rect id="rect5261-6" fill-opacity=".039216" ry="12.552" height="88.762" width="88.762" y="959.96" x="3.6078"/>
  <rect id="rect5259-9" fill-opacity=".078431" ry="12.38" height="87.546" width="87.546" y="960.57" x="4.2157"/>
  <rect id="rect5257-5" fill-opacity=".15686" ry="12.208" height="86.33" width="86.33" y="961.18" x="4.8237"/>
  <path id="rect2419" opacity=".9" d="m17.469 5.4062c-6.668 0-12.032 5.3948-12.032 12.063l0.0005 61.031c0 5.418 3.5332 9.982 8.4375 11.5h68.187c4.715-1.457 8.172-5.734 8.438-10.875v-62.281c-0.321-6.377-5.54-11.438-12-11.438l-61.031 0.0002z" transform="translate(0 956.36)" fill="url(#linearGradient3182)"/>
  <path id="rect5265-0" d="m5.4316 1029.8v5.0663c0 6.668 5.3645 12.032 12.032 12.032h61.049c6.668 0 12.032-5.3645 12.032-12.032v-5.0663c0 6.6681-5.3645 12.032-12.032 12.032h-61.049c-6.668 0-12.032-5.3643-12.032-12.032z" fill-opacity=".23529"/>
  <path id="path5252-0" d="m5.4316 1033.9v1.0133c0 6.668 5.3645 12.032 12.032 12.032h61.049c6.668 0 12.032-5.3645 12.032-12.032v-1.0133c0 6.6681-5.3645 12.032-12.032 12.032h-61.049c-6.668 0-12.032-5.3644-12.032-12.032z" fill-opacity=".098039"/>
  <rect id="rect3873" rx="6" ry="6" height="84" width="84" display="none" y="947.34" x="107.91" fill="url(#linearGradient4982)"/>
  <rect id="rect3880" rx="6" ry="6" height="84" width="84" display="none" y="947.34" x="107.91" fill="url(#linearGradient4982)"/>
  <g id="layer5" transform="translate(-.5 953.86)">
   <rect id="rect3171" height="66" stroke="#fff" stroke-linecap="round" stroke-width=".5" fill="url(#linearGradient90466)" rx="12" ry="12" width="66" opacity=".3" clip-path="url(#clipPath3613-55)" filter="url(#filter3794-41)" y="15" x="15"/>
  </g>
  <g id="layer4" transform="translate(-.49578 956.37)">
   <path id="rect4223" style="color:#000000" d="m48 16c-2.216 0-4 1.784-4 4v24c0 2.216 1.784 4 4 4s4-1.784 4-4v-24c0-2.216-1.784-4-4-4zm11.688 7.1875a4.0004 4.0004 0 0 0 -1.688 7.5c9.607 5.546 12.859 17.705 7.312 27.312-5.546 9.607-17.705 12.859-27.312 7.312-9.607-5.546-12.859-17.705-7.312-27.312 1.755-3.041 4.271-5.557 7.312-7.312a4.004 4.004 0 0 0 -4 -6.938c-4.256 2.457-7.793 5.994-10.25 10.25-7.708 13.351-3.101 30.542 10.25 38.25s30.542 3.101 38.25-10.25 3.101-30.542-10.25-38.25a4.0004 4.0004 0 0 0 -2.3125 -0.5625z" fill="url(#linearGradient4416-6)"/>
   <path id="path4289" opacity=".6" style="color:#000000" d="m55.969 27.625a4.0004 4.0004 0 0 0 2.031 4.063c6.353 3.6679 9.9118 10.23 10 17.031 0.266-7.151-3.337-14.185-10-18.031a4.0004 4.0004 0 0 1 -2.031 -3.063zm-16 0.1875a4.004 4.004 0 0 1 -1.969 2.876c-3.041 1.755-5.557 4.271-7.312 7.312-1.879 3.254-2.733 6.798-2.688 10.281 0.117-3.16 0.988-6.337 2.688-9.281 1.755-3.041 4.271-5.557 7.312-7.312a4.004 4.004 0 0 0 1.9688 -3.875zm4.031 16.188v1c0 2.216 1.784 4 4 4s4-1.784 4-4v-1c0 2.216-1.784 4-4 4s-4-1.784-4-4zm-23.969 4.594c-0.123 9.814 4.897 19.418 13.969 24.656 13.351 7.708 30.542 3.101 38.25-10.25 2.588-4.483 3.772-9.406 3.719-14.25-0.113 4.516-1.31 9.078-3.719 13.25-7.708 13.351-24.899 17.958-38.25 10.25-8.762-5.059-13.748-14.195-13.969-23.656z" fill="#fff"/>
   <path id="path4321" opacity=".1" style="color:#000000" d="m48 16c-2.6099-0.09191-4.3945 2.5544-4 4.9845 0.01371 7.8084-0.02742 15.618 0.02058 23.426 0.1602 3.2417 4.6387 4.8226 6.8104 2.4209 1.81-1.867 0.978-4.607 1.169-6.933-0.014-6.769 0.027-13.54-0.021-20.308-0.162-1.992-1.98-3.632-3.979-3.59zm0 2c2.1019-0.03411 2.098 2.2858 2 3.805-0.0258 7.5365 0.05162 15.078-0.03874 22.611-0.51 2.718-4.72 1.509-3.961-1.072 0.026-7.92-0.052-15.844 0.039-23.76 0.149-0.927 1.031-1.615 1.961-1.584zm11.688 5.1875c-3.3256 0.02315-5.0608 4.6143-2.5817 6.8313 3.2282 2.0501 6.3427 4.5135 8.2121 7.9407 4.6405 7.6695 3.1045 18.288-3.4048 24.419-6.3925 6.4467-17.282 7.4808-24.795 2.3955-7.8474-4.8478-11.287-15.489-7.7605-24.012 1.692-4.5118 5.1736-8.1392 9.2916-10.541 2.6076-2.0691 1.1443-6.7587-2.1772-6.9777-2.782-0.15191-4.8644 2.1813-6.9376 3.7076-8.209 7.012-11.572 18.991-8.279 29.26 3.054 10.465 12.755 18.536 23.608 19.606 11.04 1.344 22.549-4.582 27.738-14.446 5.556-9.899 4.105-23.073-3.354-31.602-2.341-2.632-5.079-5.105-8.354-6.474-0.393-0.097-0.802-0.133-1.206-0.107zm0.125 1.9688c1.7487 0.13966 3.0493 1.6437 4.4623 2.5499 9.1873 7.137 12.398 20.748 7.3303 31.227-4.495 10.07-15.898 16.383-26.824 14.878-10.932-1.189-20.404-10.077-22.312-20.904-2.233-10.601 3.096-22.161 12.53-27.439 1.69-1.1049 3.8812 1.1533 2.7188 2.8125-1.392 1.4058-3.3952 2.1603-4.7498 3.676-7.0859 6.4493-9.0517 17.699-4.5012 26.15 4.4599 8.9967 15.561 13.904 25.216 11.135 9.754-2.414 16.907-12.22 16.283-22.239-0.251-7.578-4.822-14.693-11.405-18.347-1.3283-1.1218-0.47947-3.4402 1.25-3.5z"/>
   <path id="path4307" opacity=".2" style="color:#000000" d="m48 16c-2.6099-0.09191-4.3945 2.5544-4 4.9845 0.01371 7.8084-0.02742 15.618 0.02058 23.426 0.1602 3.2417 4.6387 4.8226 6.8104 2.4209 1.81-1.867 0.978-4.607 1.169-6.933-0.014-6.769 0.027-13.54-0.021-20.308-0.162-1.992-1.98-3.632-3.979-3.59zm0 0.96875c2.6578-0.07434 3.2722 2.7408 3.0312 4.8362-0.03994 7.6033 0.08018 15.214-0.06059 22.813-0.66278 3.9054-6.8654 2.526-6.0019-1.2742v-23.344c-0.048-1.637 1.393-3.079 3.031-3.031zm11.688 6.2188c-3.3256 0.02315-5.0608 4.6143-2.5817 6.8313 3.2282 2.0501 6.3427 4.5135 8.2121 7.9407 4.6405 7.6695 3.1045 18.288-3.4048 24.419-6.3925 6.4467-17.282 7.4808-24.795 2.3955-7.8474-4.8478-11.287-15.489-7.7605-24.012 1.692-4.5118 5.1736-8.1392 9.2916-10.541 2.6076-2.0691 1.1443-6.7587-2.1772-6.9777-2.782-0.15191-4.8644 2.1813-6.9376 3.7076-8.209 7.012-11.572 18.991-8.279 29.26 3.054 10.465 12.755 18.536 23.608 19.606 11.04 1.344 22.549-4.582 27.738-14.446 5.556-9.899 4.105-23.073-3.354-31.602-2.341-2.632-5.079-5.105-8.354-6.474-0.393-0.097-0.802-0.133-1.206-0.107zm0.0625 0.96875c2.1565 0.02689 3.7624 1.8379 5.4449 2.9758 8.9654 7.1957 12.31 20.4 7.8701 31-3.914 10.07-14.359 17.058-25.16 16.889-10.977 0.122-21.545-7.202-25.214-17.566-3.992-10.226-0.866-22.653 7.473-29.779 1.915-1.359 3.794-3.617 6.336-3.458 2.7267 0.30251 3.4663 4.3779 1.0312 5.625-8.22 4.5798-12.49 15.074-9.6544 24.077 2.6269 9.5795 12.763 16.263 22.602 14.91 9.532-0.961 17.594-9.235 18.396-18.767 0.932-8.21-3.59-16.568-10.813-20.502-2.219-1.606-1.052-5.323 1.688-5.406z"/>
   <path id="path4298" opacity=".6" style="color:#000000" d="m48 16c-2.216 0-4 1.784-4 4v1c0-2.216 1.784-4 4-4s4 1.784 4 4v-1c0-2.216-1.784-4-4-4zm11.688 7.1875a4.0004 4.0004 0 0 0 -3.719 4.437 4.0004 4.0004 0 0 1 3.719 -3.437 4.0004 4.0004 0 0 1 2.312 0.562c8.762 5.059 13.748 14.195 13.969 23.656 0.123-9.814-4.897-19.418-13.969-24.656a4.0004 4.0004 0 0 0 -2.3125 -0.5625zm-24 0.03125a4.004 4.004 0 0 0 -1.688 0.531c-4.256 2.457-7.793 5.994-10.25 10.25-2.588 4.483-3.772 9.406-3.719 14.25 0.113-4.516 1.31-9.078 3.719-13.25 2.457-4.256 5.994-7.793 10.25-10.25a4.004 4.004 0 0 1 5.9688 2.875 4.004 4.004 0 0 0 -4.2812 -4.4062zm-7.688 25.062c-0.266 7.151 3.337 14.185 10 18.031 9.607 5.547 21.766 2.295 27.312-7.312 1.879-3.254 2.733-6.798 2.688-10.281-0.117 3.16-0.988 6.337-2.688 9.281-5.546 9.607-17.705 12.859-27.312 7.312-6.353-3.667-9.912-10.23-10-17.031z"/>
  </g>
 </g>
</svg>
