<?xml version="1.0" encoding="UTF-8" standalone="no"?>
<!-- Created with Inkscape (http://www.inkscape.org/) -->
<svg id="svg2" xmlns:rdf="http://www.w3.org/1999/02/22-rdf-syntax-ns#" xmlns="http://www.w3.org/2000/svg" height="96" width="96" version="1.1" xmlns:cc="http://creativecommons.org/ns#" xmlns:xlink="http://www.w3.org/1999/xlink" xmlns:dc="http://purl.org/dc/elements/1.1/">
 <defs id="defs4">
  <clipPath id="clipPath3613-87">
   <rect id="rect3615-1" rx="6" ry="6" height="84" width="84" y="6" x="6" fill="#fff"/>
  </clipPath>
  <filter id="filter3794-51" height="1.384" width="1.384" color-interpolation-filters="sRGB" y="-.192" x="-.192">
   <feGaussianBlur id="feGaussianBlur3796-27" stdDeviation="5.28"/>
  </filter>
  <linearGradient id="linearGradient3128" y2="5.9877" gradientUnits="userSpaceOnUse" y1="90" gradientTransform="matrix(1.2262 0 0 1.119 -13.823 -6.4102)" x2="48" x1="48">
   <stop id="stop3189-0" stop-color="#623b6b" offset="0"/>
   <stop id="stop3191-7" stop-color="#ad7fa8" offset="1"/>
  </linearGradient>
  <linearGradient id="linearGradient8763" y2="138.66" gradientUnits="userSpaceOnUse" x2="48" y1="20.221" x1="48">
   <stop id="stop3739-19" stop-color="#fff" offset="0"/>
   <stop id="stop3741-21" stop-color="#fff" stop-opacity="0" offset="1"/>
  </linearGradient>
  <linearGradient id="linearGradient8765" y2="45.017" gradientUnits="userSpaceOnUse" x2="20.759" gradientTransform="matrix(1.2791 0 0 1.2791 17.302 18.582)" y1="1" x1="20.759">
   <stop id="stop3311-1" stop-color="#f6f6f6" offset="0"/>
   <stop id="stop3313-0" stop-color="#d2d2d2" offset="1"/>
  </linearGradient>
  <linearGradient id="linearGradient8767" y2="45" gradientUnits="userSpaceOnUse" x2="37.201" gradientTransform="matrix(1.2791 0 0 1.2791 17.302 18.582)" y1="1" x1="37.201">
   <stop id="stop3399-5" stop-color="#aaa" offset="0"/>
   <stop id="stop3401-0" stop-color="#8c8c8c" offset="1"/>
  </linearGradient>
  <linearGradient id="linearGradient8769" y2="20.895" gradientUnits="userSpaceOnUse" x2="84.639" gradientTransform="matrix(.41503 0 0 .41503 21.438 21.853)" y1="105.1" x1="86.133">
   <stop id="stop5130" stop-color="#e5e5e5" offset="0"/>
   <stop id="stop5132" stop-color="#ababab" offset="1"/>
  </linearGradient>
 </defs>
 <metadata id="metadata7">
  <rdf:RDF>
   <cc:Work rdf:about="">
    <dc:format>image/svg+xml</dc:format>
    <dc:type rdf:resource="http://purl.org/dc/dcmitype/StillImage"/>
    <dc:title/>
   </cc:Work>
  </rdf:RDF>
 </metadata>
 <g id="layer1" transform="translate(0 -956.36)">
  <rect id="rect5263-0" fill-opacity=".019608" ry="12.724" height="89.978" width="89.624" y="959.35" x="3.3534"/>
  <rect id="rect5261-6" fill-opacity=".039216" ry="12.552" height="88.762" width="88.413" y="959.96" x="3.9589"/>
  <rect id="rect5259-9" fill-opacity=".078431" ry="12.38" height="87.546" width="87.202" y="960.57" x="4.5645"/>
  <rect id="rect5257-5" fill-opacity=".15686" ry="12.208" height="86.33" width="85.991" y="961.18" x="5.1701"/>
  <path id="rect2419-4" d="m17.75 5.4062c-6.642 0-11.969 5.3948-11.969 12.063l0.0002 61.031c0 6.668 5.3268 12.031 11.969 12.031h60.812c6.642 0 11.969-5.363 11.969-12.031v-61.031c0-6.668-5.327-12.063-11.969-12.063l-60.812 0.0002z" transform="translate(0 956.36)" fill="url(#linearGradient3128)"/>
  <path id="rect5265-0" d="m5.7756 1029.8v5.0663c0 6.668 5.3434 12.032 11.985 12.032h60.809c6.6418 0 11.985-5.3645 11.985-12.032v-5.0663c0 6.6681-5.3434 12.032-11.985 12.032h-60.809c-6.6418 0-11.985-5.3643-11.985-12.032z" fill-opacity=".29412"/>
  <path id="path5252-0" d="m5.7756 1033.9v1.0133c0 6.668 5.3434 12.032 11.985 12.032h60.809c6.6418 0 11.985-5.3645 11.985-12.032v-1.0133c0 6.6681-5.3434 12.032-11.985 12.032h-60.809c-6.6418 0-11.985-5.3644-11.985-12.032z" fill-opacity=".098039"/>
  <g id="layer5" transform="translate(.034490 955.67)">
   <rect id="rect3171" height="66" stroke="#fff" stroke-linecap="round" stroke-width=".5" fill="url(#linearGradient8763)" rx="12" ry="12" width="66" opacity=".1" clip-path="url(#clipPath3613-87)" filter="url(#filter3794-51)" y="15" x="15"/>
  </g>
  <g id="layer6" transform="matrix(1.2419 0 0 1.2258 -11.578 943.1)">
   <path id="path3706" opacity=".05" d="m34.188 18c-3.032 0-5.438 2.542-5.438 5.5v1.5c-0.40375 0.15655-0.79124 0.35424-1.1875 0.53125l-1.093-1.093c-0.885-0.885-2.2116-1.6427-3.8125-1.6562-1.3981-0.01194-2.8068 0.52558-3.875 1.5938l-5.407 5.405c-2.1478 2.1478-2.0043 5.6205 0.0625 7.6875l1.0938 1.0938c-0.178 0.397-0.375 0.784-0.532 1.188h-1.5c-2.9583 0-5.5 2.406-5.5 5.438v7.625c0 3.0316 2.5417 5.4375 5.5 5.4375h1.5c0.15655 0.40375 0.35424 0.79124 0.53125 1.1875l-1.0938 1.0938c-2.067 2.067-2.2105 5.5397-0.0625 7.6875l5.4062 5.4062c2.1478 2.1478 5.6204 2.0046 7.6875-0.0625l1.094-1.095c0.397 0.177 0.784 0.374 1.188 0.531v1.5c0 2.9583 2.4059 5.5 5.4375 5.5h7.625c3.0316 0 5.4375-2.5417 5.4375-5.5v-1.5c0.40375-0.15655 0.79124-0.35424 1.1875-0.53125l1.0938 1.0938c2.0671 2.0671 5.5397 2.2103 7.6875 0.0625l5.405-5.407c2.1478-2.1478 2.0043-5.6205-0.0625-7.6875l-1.093-1.094c0.177-0.397 0.374-0.784 0.531-1.188h1.5c2.9583 0 5.5-2.4059 5.5-5.4375v-7.625c0-3.031-2.542-5.437-5.5-5.437h-1.5c-0.15655-0.40375-0.35424-0.79124-0.53125-1.1875l1.0938-1.0938c2.067-2.067 2.2105-5.5397 0.0625-7.6875l-5.407-5.405c-2.1478-2.1478-5.6204-2.0046-7.6875 0.0625l-1.094 1.093c-0.397-0.177-0.784-0.374-1.188-0.531v-1.5c0-2.9583-2.4059-5.5-5.4375-5.5h-7.625zm3.812 26.188c2.7171 0 4.8125 2.0954 4.8125 4.8125s-2.0954 4.8125-4.8125 4.8125-4.8125-2.0954-4.8125-4.8125 2.0954-4.8125 4.8125-4.8125z" transform="translate(10)" display="block"/>
   <path id="path3702" opacity="0.08" d="m34.188 19.031c-2.4655 0-4.4062 2.0565-4.4062 4.4688v2.1875c-0.84674 0.30617-1.673 0.6425-2.4688 1.0312l-1.563-1.563c-0.729-0.729-1.806-1.333-3.094-1.344-1.14-0.009-2.288 0.414-3.156 1.282l-5.406 5.406c-1.7411 1.7412-1.6182 4.5691 0.0625 6.25l1.5625 1.5625c-0.38875 0.79572-0.72508 1.622-1.0312 2.4688h-2.1875c-2.4122 0-4.4688 1.9408-4.4688 4.4062v7.625c0 2.4655 2.0565 4.4062 4.4688 4.4062h2.1875c0.30618 0.84674 0.6425 1.673 1.0312 2.4688l-1.5625 1.5625c-1.6808 1.6808-1.8038 4.5089-0.0625 6.25l5.406 5.406c1.7411 1.7411 4.5691 1.6184 6.25-0.0625l1.5625-1.5625c0.79572 0.38875 1.622 0.72508 2.4688 1.0312v2.1875c0 2.4122 1.9408 4.4688 4.4062 4.4688h7.625c2.4655 0 4.4062-2.0565 4.4062-4.4688v-2.1875c0.84674-0.30617 1.673-0.6425 2.4688-1.0312l1.5625 1.5625c1.6809 1.6809 4.5089 1.8036 6.25 0.0625l5.406-5.406c1.7411-1.7412 1.6182-4.5691-0.0625-6.25l-1.5625-1.5625c0.38875-0.79571 0.72508-1.622 1.0312-2.4688h2.1875c2.4122 0 4.4688-1.9408 4.4688-4.4062v-7.625c0-2.4655-2.0565-4.4062-4.4688-4.4062h-2.1875c-0.306-0.847-0.642-1.674-1.031-2.47l1.5625-1.5625c1.6808-1.6808 1.8038-4.5089 0.0625-6.25l-5.406-5.406c-1.7411-1.7411-4.5691-1.6184-6.25 0.0625l-1.5625 1.5625c-0.796-0.388-1.623-0.724-2.469-1.03v-2.1875c0-2.4122-1.9408-4.4688-4.4062-4.4688h-7.625zm3.812 24.125c3.2563 0 5.8438 2.5874 5.8438 5.8438 0 3.2563-2.5874 5.8438-5.8438 5.8438-3.2563 0-5.8438-2.5874-5.8438-5.8438 0-3.2563 2.5874-5.8438 5.8438-5.8438z" transform="translate(10)" display="block"/>
   <path id="path3698" opacity=".2" d="m34.188 20.031c-1.8975 0-3.4062 1.6003-3.4062 3.4688v2.875c-1.2828 0.41908-2.5201 0.94925-3.6875 1.5625l-2.0625-2.0625c-0.58342-0.58342-1.4117-1.0543-2.375-1.0625-0.87648-0.0075-1.766 0.32854-2.4375 1l-5.4062 5.4062c-1.3357 1.3357-1.2376 3.5123 0.0625 4.8125l2.0625 2.0625c-0.61325 1.1674-1.1434 2.4047-1.5625 3.6875h-2.875c-1.8685 0-3.4688 1.5087-3.4688 3.4062v7.625c0 1.8975 1.6003 3.4062 3.4688 3.4062h2.875c0.41908 1.2828 0.94925 2.5201 1.5625 3.6875l-2.0625 2.0625c-1.3002 1.3002-1.3983 3.4768-0.0625 4.8125l5.4062 5.4062c1.3356 1.3357 3.5123 1.2377 4.8125-0.0625l2.0625-2.0625c1.1674 0.61325 2.4047 1.1434 3.6875 1.5625v2.875c0 1.8684 1.5087 3.4688 3.4062 3.4688h7.625c1.8975 0 3.4062-1.6003 3.4062-3.4688v-2.875c1.2828-0.41908 2.5201-0.94925 3.6875-1.5625l2.0625 2.0625c1.3002 1.3002 3.4769 1.3981 4.8125 0.0625l5.4062-5.4062c1.3357-1.3357 1.2376-3.5123-0.0625-4.8125l-2.0625-2.0625c0.61325-1.1674 1.1434-2.4047 1.5625-3.6875h2.875c1.8684 0 3.4688-1.5087 3.4688-3.4062v-7.625c0-1.8975-1.6003-3.4062-3.4688-3.4062h-2.875c-0.41908-1.2828-0.94925-2.5201-1.5625-3.6875l2.0625-2.0625c1.3002-1.3002 1.3983-3.4768 0.0625-4.8125l-5.405-5.408c-1.3356-1.3356-3.5123-1.2377-4.8125 0.0625l-2.0625 2.0625c-1.1674-0.61325-2.4047-1.1434-3.6875-1.5625v-2.875c0-1.8685-1.5088-3.4688-3.4062-3.4688h-7.625zm3.812 22.125c3.7968 0 6.8438 3.047 6.8438 6.8438s-3.047 6.8438-6.8438 6.8438-6.8438-3.047-6.8438-6.8438 3.047-6.8438 6.8438-6.8438z" transform="translate(10)" display="block"/>
   <path id="path3694" opacity=".3" d="m34.188 21c-1.363 0-2.438 1.138-2.438 2.5v3.5c-1.7179 0.49094-3.3491 1.2076-4.875 2.0625l-2.5312-2.5c-0.45629-0.45628-1.0316-0.77569-1.6875-0.78125-0.62972-0.0054-1.2629 0.23163-1.75 0.71875l-5.406 5.406c-0.96063 0.96064-0.8927 2.4822 0.0625 3.4375l2.5 2.5312c-0.854 1.526-1.571 3.157-2.062 4.875h-3.5c-1.3624 0-2.5 1.0755-2.5 2.4375v7.625c0 1.362 1.1376 2.4375 2.5 2.4375h3.5c0.49095 1.7179 1.2076 3.3491 2.0625 4.875l-2.5 2.5312c-0.95529 0.95529-1.0232 2.4769-0.0625 3.4375l5.406 5.406c0.96062 0.96063 2.4822 0.8928 3.4375-0.0625l2.5312-2.5c1.5259 0.85495 3.1571 1.5716 4.875 2.0625v3.5c0 1.3624 1.0755 2.5 2.4375 2.5h7.625c1.362 0 2.4375-1.1376 2.4375-2.5v-3.5c1.7179-0.49094 3.3491-1.2076 4.875-2.0625l2.5312 2.5c0.9553 0.95531 2.4769 1.0231 3.4375 0.0625l5.406-5.406c0.96063-0.96064 0.8927-2.4822-0.0625-3.4375l-2.5-2.5312c0.854-1.526 1.571-3.157 2.062-4.875h3.5c1.3624 0 2.5-1.0755 2.5-2.4375v-7.625c0-1.362-1.138-2.437-2.5-2.437h-3.5c-0.49094-1.7179-1.2076-3.3491-2.0625-4.875l2.5-2.5312c0.95529-0.95529 1.0232-2.4769 0.0625-3.4375l-5.406-5.406c-0.96063-0.96062-2.4822-0.8928-3.4375 0.0625l-2.5312 2.5c-1.526-0.854-3.157-1.571-4.875-2.062v-3.5c0-1.3624-1.0755-2.5-2.4375-2.5h-7.625zm3.812 20.188c4.3161 0 7.8125 3.4964 7.8125 7.8125s-3.4964 7.8125-7.8125 7.8125-7.8125-3.4964-7.8125-7.8125 3.4964-7.8125 7.8125-7.8125z" transform="translate(10)" display="block"/>
   <path id="rect3267" stroke-linejoin="round" d="m44.203 20.5c-1.0823 0-1.9586 0.89778-1.9586 1.9985v3.8772c-1.9351 0.5156-3.7842 1.2944-5.476 2.2783l-2.758-2.758c-0.38918-0.38918-0.85537-0.5953-1.359-0.59956-0.50363-0.0043-1.0163 0.17696-1.399 0.55959l-5.3961 5.3961c-0.76526 0.76527-0.73838 1.9796 0.03989 2.758l2.758 2.758c-0.98393 1.6918-1.7627 3.5408-2.2783 5.476h-3.8772c-1.1008 0-1.9985 0.87631-1.9985 1.9586v7.5944c0 1.0823 0.89779 1.9586 1.9985 1.9586h3.8772c0.51561 1.9352 1.2944 3.7842 2.2783 5.476l-2.758 2.758c-0.77835 0.77835-0.80523 1.9927-0.03989 2.758l5.3961 5.3961c0.76526 0.76527 1.9796 0.73838 2.758-0.03997l2.758-2.758c1.6918 0.98394 3.5408 1.7627 5.476 2.2783v3.8772c0 1.1008 0.87632 1.9985 1.9586 1.9985h7.5944c1.0823 0 1.9586-0.89779 1.9586-1.9985v-3.8772c1.9351-0.5156 3.7842-1.2944 5.476-2.2783l2.758 2.758c0.77835 0.77835 1.9927 0.80524 2.758 0.03997l5.3961-5.3961c0.76526-0.76527 0.73838-1.9796-0.03989-2.758l-2.758-2.758c0.98393-1.6918 1.7627-3.5408 2.2783-5.476h3.8772c1.1007 0 1.9985-0.87631 1.9985-1.9586v-7.5944c0-1.0823-0.89779-1.9586-1.9985-1.9586h-3.8772c-0.514-1.934-1.293-3.783-2.277-5.475l2.758-2.758c0.77835-0.77835 0.80524-1.9927 0.03989-2.758l-5.3961-5.3961c-0.76527-0.76527-1.9796-0.73838-2.758 0.03997l-2.758 2.758c-1.6918-0.98394-3.5408-1.7627-5.476-2.2783v-3.8772c0-1.1008-0.87631-1.9985-1.9586-1.9985h-7.5944zm3.7972 19.186c4.5893 0 8.3139 3.7246 8.3139 8.3139s-3.7246 8.3139-8.3139 8.3139-8.3139-3.7246-8.3139-8.3139 3.7246-8.3139 8.3139-8.3139z" display="block" stroke="url(#linearGradient8767)" fill="url(#linearGradient8765)"/>
   <path id="path28" d="m48 30.733c-9.5212 0-17.267 7.7461-17.267 17.267 0 9.5212 7.7461 17.267 17.267 17.267 9.5212 0 17.267-7.7461 17.267-17.267 0-9.5212-7.7462-17.267-17.267-17.267z" stroke="url(#linearGradient8769)" stroke-width="2" fill="none"/>
   <path id="path3315" opacity=".05" d="m48 31.372c-9.1688 0-16.628 7.4591-16.628 16.628 0 9.1687 7.4591 16.628 16.628 16.628 9.1688-0.000002 16.628-7.4591 16.628-16.628 0-9.1687-7.4591-16.628-16.628-16.628zm0 7.6744c4.9423 0 8.9535 4.0111 8.9535 8.9535 0 4.9423-4.0112 8.9535-8.9535 8.9535s-8.9535-4.0111-8.9535-8.9535c0-4.9423 4.0112-8.9535 8.9535-8.9535z"/>
  </g>
 </g>
</svg>
