<?xml version="1.0" encoding="UTF-8" standalone="no"?>
<!-- Created with Inkscape (http://www.inkscape.org/) -->
<svg id="svg2" xmlns:rdf="http://www.w3.org/1999/02/22-rdf-syntax-ns#" xmlns="http://www.w3.org/2000/svg" height="96" width="96" version="1.1" xmlns:cc="http://creativecommons.org/ns#" xmlns:xlink="http://www.w3.org/1999/xlink" xmlns:dc="http://purl.org/dc/elements/1.1/">
 <defs id="defs4">
  <linearGradient id="linearGradient3700-0">
   <stop id="stop3702-2" stop-color="#70a83e" offset="0"/>
   <stop id="stop3704-9" stop-color="#9fd058" offset="1"/>
  </linearGradient>
  <linearGradient id="linearGradient4982" y2="5.9877" xlink:href="#linearGradient3700-0" gradientUnits="userSpaceOnUse" x2="48" gradientTransform="translate(101.91 941.34)" y1="90" x1="48"/>
  <clipPath id="clipPath3613-55">
   <rect id="rect3615-88" rx="6" ry="6" height="84" width="84" y="6" x="6" fill="#fff"/>
  </clipPath>
  <filter id="filter3794-41" height="1.384" width="1.384" color-interpolation-filters="sRGB" y="-.192" x="-.192">
   <feGaussianBlur id="feGaussianBlur3796-50" stdDeviation="5.28"/>
  </filter>
  <linearGradient id="linearGradient3182" y2="5.9877" gradientUnits="userSpaceOnUse" y1="90" gradientTransform="matrix(1.125 0 0 1.0417 -7.75 -3.25)" x2="48" x1="48">
   <stop id="stop4083" stop-color="#8c8c8c" offset="0"/>
   <stop id="stop4085" stop-color="#dcdcdc" offset="1"/>
  </linearGradient>
  <linearGradient id="linearGradient90466" y2="138.66" gradientUnits="userSpaceOnUse" x2="48" y1="20.221" x1="48">
   <stop id="stop3739-532" stop-color="#fff" offset="0"/>
   <stop id="stop3741-666" stop-color="#fff" stop-opacity="0" offset="1"/>
  </linearGradient>
  <linearGradient id="linearGradient90468" y2="47.996" gradientUnits="userSpaceOnUse" x2="79.996" gradientTransform="matrix(0 1 -1 0 95.996 .0042201)" y1="47.996" x1="15.996">
   <stop id="stop4283-9" stop-color="#1e1e1e" offset="0"/>
   <stop id="stop4285-8" stop-color="#505050" offset="1"/>
  </linearGradient>
 </defs>
 <metadata id="metadata7">
  <rdf:RDF>
   <cc:Work rdf:about="">
    <dc:format>image/svg+xml</dc:format>
    <dc:type rdf:resource="http://purl.org/dc/dcmitype/StillImage"/>
    <dc:title/>
   </cc:Work>
  </rdf:RDF>
 </metadata>
 <g id="layer1" transform="translate(0 -956.36)">
  <rect id="rect5261-6" fill-opacity=".039216" ry="12.552" height="88.762" width="88.762" y="959.96" x="3.6078"/>
  <rect id="rect5259-9" fill-opacity=".078431" ry="12.38" height="87.546" width="87.546" y="960.57" x="4.2157"/>
  <rect id="rect5257-5" fill-opacity=".15686" ry="12.208" height="86.33" width="86.33" y="961.18" x="4.8237"/>
  <path id="rect2419" opacity=".9" d="m17.469 5.4062c-6.668 0-12.032 5.3948-12.032 12.063l0.0005 61.031c0 5.418 3.5332 9.982 8.4375 11.5h68.187c4.715-1.457 8.172-5.734 8.438-10.875v-62.281c-0.321-6.377-5.54-11.438-12-11.438l-61.031 0.0002z" transform="translate(0 956.36)" fill="url(#linearGradient3182)"/>
  <path id="rect5265-0" d="m5.4316 1029.8v5.0663c0 6.668 5.3645 12.032 12.032 12.032h61.049c6.668 0 12.032-5.3645 12.032-12.032v-5.0663c0 6.6681-5.3645 12.032-12.032 12.032h-61.049c-6.668 0-12.032-5.3643-12.032-12.032z" fill-opacity=".23529"/>
  <path id="path5252-0" d="m5.4316 1033.9v1.0133c0 6.668 5.3645 12.032 12.032 12.032h61.049c6.668 0 12.032-5.3645 12.032-12.032v-1.0133c0 6.6681-5.3645 12.032-12.032 12.032h-61.049c-6.668 0-12.032-5.3644-12.032-12.032z" fill-opacity=".098039"/>
  <rect id="rect3873" rx="6" ry="6" height="84" width="84" display="none" y="947.34" x="107.91" fill="url(#linearGradient4982)"/>
  <rect id="rect3880" rx="6" ry="6" height="84" width="84" display="none" y="947.34" x="107.91" fill="url(#linearGradient4982)"/>
  <g id="g90455" transform="translate(-135,14)">
   <g id="layer5" transform="translate(134.5 939.86)">
    <rect id="rect3171" height="66" stroke="#fff" stroke-linecap="round" stroke-width=".5" fill="url(#linearGradient90466)" rx="12" ry="12" width="66" opacity=".3" clip-path="url(#clipPath3613-55)" filter="url(#filter3794-41)" y="15" x="15"/>
   </g>
   <g id="layer4-5" transform="translate(134.5 939.86)">
    <path id="rect4223" style="color:#000000" d="m79.996 48.004c0-2.216-1.784-4-4-4h-24c-2.216 0-4 1.784-4 4s1.784 4 4 4h24c2.216 0 4-1.784 4-4zm-7.1875 11.688a4.0004 4.0004 0 0 0 -7.5 -1.6875c-5.5465 9.6069-17.706 12.859-27.312 7.3125-9.6069-5.5465-12.859-17.706-7.3125-27.312 5.5465-9.6069 17.706-12.859 27.312-7.3125 3.0406 1.7555 5.557 4.2719 7.3125 7.3125a4.004 4.004 0 0 0 6.9375 -4c-2.4574-4.2564-5.9936-7.7926-10.25-10.25-13.351-7.7083-30.542-3.1012-38.25 10.25-7.7083 13.351-3.1012 30.542 10.25 38.25 13.351 7.7083 30.542 3.1012 38.25-10.25a4.0004 4.0004 0 0 0 0.5625 -2.3125z" fill="url(#linearGradient90468)"/>
    <path id="path4321" opacity=".1" style="color:#000000" d="m79.996 48.004c0.09191-2.6099-2.5544-4.3945-4.9845-4-7.8084 0.01371-15.618-0.02742-23.426 0.02058-3.2417 0.1602-4.8226 4.6387-2.4209 6.8104 1.8665 1.8098 4.6065 0.97786 6.9332 1.169 6.7691-0.0137 13.54 0.02741 20.308-0.02058 1.9923-0.16204 3.6323-1.9805 3.5899-3.9794zm-2 0c0.03411 2.1019-2.2858 2.098-3.805 2-7.5365-0.0258-15.078 0.05162-22.611-0.03874-2.7177-0.51036-1.5089-4.7207 1.0726-3.9613 7.9194 0.0258 15.844-0.05162 23.76 0.03874 0.92713 0.1488 1.6145 1.0318 1.5837 1.9613zm-5.1875 11.688c-0.02315-3.3256-4.6143-5.0608-6.8313-2.5817-2.0501 3.2282-4.5135 6.3427-7.9407 8.2121-7.6695 4.6405-18.288 3.1045-24.419-3.4048-6.4467-6.3925-7.4808-17.282-2.3955-24.795 4.8478-7.8474 15.489-11.287 24.012-7.7605 4.5118 1.692 8.1392 5.1736 10.541 9.2916 2.0691 2.6076 6.7587 1.1443 6.9777-2.1772 0.15191-2.782-2.1813-4.8644-3.7076-6.9376-7.012-8.209-18.991-11.571-29.26-8.279-10.465 3.054-18.536 12.755-19.607 23.608-1.343 11.04 4.582 22.549 14.446 27.739 9.8994 5.5559 23.073 4.1045 31.603-3.3542 2.6315-2.341 5.1051-5.0794 6.4739-8.3536 0.09674-0.39376 0.13303-0.80231 0.10723-1.2069zm-1.9688 0.125c-0.13966 1.7487-1.6437 3.0493-2.5499 4.4623-7.137 9.1873-20.748 12.398-31.227 7.3303-10.07-4.495-16.383-15.898-14.878-26.824 1.189-10.932 10.077-20.404 20.904-22.312 10.601-2.233 22.16 3.097 27.439 12.53 1.1049 1.69-1.1533 3.8812-2.8125 2.7188-1.4058-1.392-2.1603-3.3952-3.676-4.7498-6.4493-7.0859-17.699-9.0517-26.15-4.5012-8.9967 4.4599-13.904 15.561-11.135 25.216 2.4137 9.7542 12.22 16.907 22.239 16.283 7.5783-0.25118 14.693-4.822 18.347-11.404 1.1218-1.3283 3.4402-0.47947 3.5 1.25z"/>
    <path id="path4307" opacity=".2" style="color:#000000" d="m79.996 48.004c0.09191-2.6099-2.5544-4.3945-4.9845-4-7.8084 0.01371-15.618-0.02742-23.426 0.02058-3.2417 0.1602-4.8226 4.6387-2.4209 6.8104 1.8665 1.8098 4.6065 0.97786 6.9332 1.169 6.7691-0.0137 13.54 0.02741 20.308-0.02058 1.9923-0.16204 3.6323-1.9805 3.5899-3.9794zm-0.96875 0c0.07434 2.6578-2.7408 3.2722-4.8362 3.0312-7.6033-0.03994-15.214 0.08018-22.813-0.06059-3.9054-0.66278-2.526-6.8654 1.2742-6.0019h23.344c1.6374-0.04784 3.0789 1.3931 3.0312 3.0312zm-6.2188 11.688c-0.02315-3.3256-4.6143-5.0608-6.8313-2.5817-2.0501 3.2282-4.5135 6.3427-7.9407 8.2121-7.6695 4.6405-18.288 3.1045-24.419-3.4048-6.4467-6.3925-7.4808-17.282-2.3955-24.795 4.8478-7.8474 15.489-11.287 24.012-7.7605 4.5118 1.692 8.1392 5.1736 10.541 9.2916 2.0691 2.6076 6.7587 1.1443 6.9777-2.1772 0.15191-2.782-2.1813-4.8644-3.7076-6.9376-7.012-8.209-18.991-11.571-29.26-8.279-10.465 3.054-18.536 12.755-19.607 23.608-1.343 11.04 4.582 22.549 14.446 27.739 9.8994 5.5559 23.073 4.1045 31.603-3.3542 2.6315-2.341 5.1051-5.0794 6.4739-8.3536 0.09674-0.39376 0.13303-0.80231 0.10723-1.2069zm-0.96875 0.0625c-0.02689 2.1565-1.8379 3.7624-2.9758 5.4449-7.195 8.966-20.399 12.311-31 7.87-10.07-3.914-17.059-14.359-16.889-25.16-0.123-10.976 7.202-21.545 17.566-25.213 10.226-3.9927 22.652-0.86621 29.778 7.4724 1.3593 1.915 3.6178 3.7937 3.4586 6.3362-0.30251 2.7267-4.3779 3.4663-5.625 1.0312-4.58-8.221-15.074-12.49-24.077-9.655-9.579 2.627-16.263 12.763-14.91 22.602 0.961 9.532 9.235 17.594 18.766 18.396 8.21 0.93253 16.569-3.5899 20.502-10.812 1.6066-2.22 5.3232-1.0521 5.4062 1.6875z"/>
    <path id="path5058" opacity=".6" style="color:#000000" d="m47.406 20.031c-9.461 0.221-18.597 5.207-23.656 13.969-2.588 4.483-3.772 9.406-3.719 14.25 0.113-4.516 1.31-9.078 3.719-13.25 7.708-13.351 24.899-17.958 38.25-10.25 4.256 2.457 7.793 5.994 10.25 10.25a4.004 4.004 0 0 1 0.5 1.4688 4.004 4.004 0 0 0 -0.5 -2.469c-2.457-4.256-5.994-7.793-10.25-10.25-4.589-2.65-9.638-3.834-14.594-3.719zm4.594 23.969c-2.216 0-4 1.784-4 4 0 0.17027 0.0108 0.33544 0.03125 0.5 0.246-1.977 1.923-3.5 3.969-3.5h24c2.0454 0 3.6913 1.5235 3.9375 3.5 0.02-0.165 0.062-0.329 0.062-0.5 0-2.216-1.784-4-4-4h-24zm-24 4.281c-0.266 7.151 3.337 14.185 10 18.031 9.607 5.547 21.766 2.295 27.312-7.312a4.0004 4.0004 0 0 1 7.469 1.5 4.0004 4.0004 0 0 0 0.031 -0.812 4.0004 4.0004 0 0 0 -7.5 -1.688c-5.546 9.607-17.705 12.859-27.312 7.312-6.353-3.667-9.912-10.23-10-17.031z"/>
    <path id="path5067" opacity=".6" style="color:#000000" d="m48.531 28c-7.086-0.197-14.03 3.395-17.843 10-1.879 3.254-2.733 6.798-2.688 10.281 0.117-3.16 0.988-6.337 2.688-9.281 5.546-9.607 17.705-12.859 27.312-7.312 3.041 1.755 5.557 4.271 7.312 7.312a4.004 4.004 0 0 0 7.438 -2.531 4.004 4.004 0 0 1 -7.438 1.531c-1.755-3.041-4.271-5.557-7.312-7.312-3.002-1.734-6.248-2.599-9.469-2.688zm-0.5 20.5c-0.02 0.165-0.031 0.33-0.031 0.5 0 2.216 1.784 4 4 4h24c2.216 0 4-1.784 4-4 0-0.17065-0.04196-0.33509-0.0625-0.5-0.247 1.977-1.893 3.5-3.938 3.5h-24c-2.0457 0-3.723-1.5229-3.9688-3.5zm-28 0.09375c-0.123 9.814 4.897 19.418 13.969 24.656 13.351 7.708 30.542 3.101 38.25-10.25a4.0004 4.0004 0 0 0 0.562 -2.312 4.0004 4.0004 0 0 0 -0.031 -0.188 4.0004 4.0004 0 0 1 -0.531 1.5c-7.708 13.351-24.899 17.958-38.25 10.25-8.762-5.059-13.748-14.195-13.969-23.656z" fill="#fff"/>
   </g>
  </g>
 </g>
</svg>
