<?xml version="1.0" encoding="UTF-8" standalone="no"?>
<!-- Created with Inkscape (http://www.inkscape.org/) -->
<svg id="svg2" xmlns:rdf="http://www.w3.org/1999/02/22-rdf-syntax-ns#" xmlns="http://www.w3.org/2000/svg" height="96" width="96" version="1.1" xmlns:cc="http://creativecommons.org/ns#" xmlns:xlink="http://www.w3.org/1999/xlink" xmlns:dc="http://purl.org/dc/elements/1.1/">
 <defs id="defs4">
  <linearGradient id="linearGradient3700-0">
   <stop id="stop3702-2" stop-color="#70a83e" offset="0"/>
   <stop id="stop3704-9" stop-color="#9fd058" offset="1"/>
  </linearGradient>
  <linearGradient id="linearGradient4982" y2="5.9877" xlink:href="#linearGradient3700-0" gradientUnits="userSpaceOnUse" x2="48" gradientTransform="translate(101.91 941.34)" y1="90" x1="48"/>
  <linearGradient id="linearGradient8687">
   <stop id="stop8689" stop-color="#a40000" offset="0"/>
   <stop id="stop8691" stop-color="#a40000" stop-opacity="0" offset="1"/>
  </linearGradient>
  <linearGradient id="linearGradient9586">
   <stop id="stop9588" stop-color="#c00" offset="0"/>
   <stop id="stop9590" stop-color="#c00" stop-opacity="0" offset="1"/>
  </linearGradient>
  <linearGradient id="linearGradient4055">
   <stop id="stop4057-4" stop-color="#ed1414" offset="0"/>
   <stop id="stop4059-9" stop-color="#ef2929" stop-opacity="0" offset="1"/>
  </linearGradient>
  <linearGradient id="linearGradient9598">
   <stop id="stop9600" stop-color="#efaa29" offset="0"/>
   <stop id="stop9602" stop-color="#ef2929" stop-opacity="0" offset="1"/>
  </linearGradient>
  <linearGradient id="linearGradient3737-688">
   <stop id="stop3739-877" stop-color="#fff" offset="0"/>
   <stop id="stop3741-076" stop-color="#fff" stop-opacity="0" offset="1"/>
  </linearGradient>
  <clipPath id="clipPath3613-88">
   <rect id="rect3615-762" rx="6" ry="6" height="84" width="84" y="6" x="6" fill="#fff"/>
  </clipPath>
  <filter id="filter3794-80" height="1.384" width="1.384" color-interpolation-filters="sRGB" y="-.192" x="-.192">
   <feGaussianBlur id="feGaussianBlur3796-6" stdDeviation="5.28"/>
  </filter>
  <linearGradient id="linearGradient135363" y2="5.9877" gradientUnits="userSpaceOnUse" x2="48" gradientTransform="matrix(1.1431 0 0 1.1431 -7.1393 -6.6845)" y1="90" x1="48">
   <stop id="stop4086-9" stop-color="#61537d" offset="0"/>
   <stop id="stop4088-5" stop-color="#a192bb" offset="1"/>
  </linearGradient>
  <linearGradient id="linearGradient135535" y2="109.11" xlink:href="#linearGradient3737-688" gradientUnits="userSpaceOnUse" x2="48" gradientTransform="matrix(1.021 0 0 1 -.39657 955.84)" y1="6" x1="48"/>
  <linearGradient id="linearGradient135537" y2="138.66" xlink:href="#linearGradient3737-688" gradientUnits="userSpaceOnUse" x2="48" y1="20.221" x1="48"/>
  <radialGradient id="radialGradient135589" xlink:href="#linearGradient8687" gradientUnits="userSpaceOnUse" cy="25.668" cx="18.685" gradientTransform="matrix(1.8427 0 0 1.8146 13.624 1.3695)" r="5.05"/>
  <radialGradient id="radialGradient135591" xlink:href="#linearGradient9586" gradientUnits="userSpaceOnUse" cy="25.668" cx="18.685" gradientTransform="matrix(1.3162 0 0 1.2961 23.461 14.754)" r="5.05"/>
  <radialGradient id="radialGradient135593" xlink:href="#linearGradient8687" gradientUnits="userSpaceOnUse" cy="25.668" cx="18.685" gradientTransform="matrix(1.8427 0 0 1.8146 1.9923 1.3695)" r="5.05"/>
  <radialGradient id="radialGradient135595" xlink:href="#linearGradient9586" gradientUnits="userSpaceOnUse" cy="25.668" cx="18.685" gradientTransform="matrix(1.3162 0 0 1.2961 11.83 14.754)" r="5.05"/>
  <radialGradient id="radialGradient135597" xlink:href="#linearGradient8687" gradientUnits="userSpaceOnUse" cy="25.668" cx="18.685" gradientTransform="matrix(1.8427 0 0 1.8146 25.256 1.3695)" r="5.05"/>
  <radialGradient id="radialGradient135599" xlink:href="#linearGradient9586" gradientUnits="userSpaceOnUse" cy="25.668" cx="18.685" gradientTransform="matrix(1.3162 0 0 1.2961 35.093 14.754)" r="5.05"/>
  <radialGradient id="radialGradient135601" gradientUnits="userSpaceOnUse" cy="12.464" cx="13.199" gradientTransform="matrix(-5.5599e-8 1.774 -1.7379 -.034892 57.152 11.751)" r="21.009">
   <stop id="stop3979-8" stop-color="#ddd" offset="0"/>
   <stop id="stop3981-2" stop-color="#9a9a9a" offset=".34865"/>
   <stop id="stop3987-8" stop-color="#696969" offset=".67432"/>
   <stop id="stop3983-3" stop-color="#333" offset="1"/>
  </radialGradient>
  <linearGradient id="linearGradient135603" y2="40.081" gradientUnits="userSpaceOnUse" x2="40.503" gradientTransform="matrix(1.1632 0 0 1.1455 20.138 20.455)" y1="5.4583" x1="5.6934">
   <stop id="stop4002-4" stop-color="#eeeeec" offset="0"/>
   <stop id="stop4004-2" stop-color="#eeeeec" stop-opacity="0" offset="1"/>
  </linearGradient>
  <radialGradient id="radialGradient135605" xlink:href="#linearGradient4055" gradientUnits="userSpaceOnUse" cy="25.668" cx="18.685" gradientTransform="matrix(2.4906 0 0 2.4526 -10.114 -14.931)" r="5.05"/>
  <radialGradient id="radialGradient135607" xlink:href="#linearGradient4055" gradientUnits="userSpaceOnUse" cy="25.668" cx="18.685" gradientTransform="matrix(2.4906 0 0 2.4526 1.8862 -14.931)" r="5.05"/>
  <radialGradient id="radialGradient135609" xlink:href="#linearGradient4055" gradientUnits="userSpaceOnUse" cy="25.668" cx="18.685" gradientTransform="matrix(2.4906 0 0 2.4526 13.886 -14.931)" r="5.05"/>
  <radialGradient id="radialGradient135611" xlink:href="#linearGradient9598" gradientUnits="userSpaceOnUse" cy="25.668" cx="18.685" gradientTransform="matrix(.78972 0 0 .77769 33.299 28.061)" r="5.05"/>
  <radialGradient id="radialGradient135613" xlink:href="#linearGradient9598" gradientUnits="userSpaceOnUse" cy="25.668" cx="18.685" gradientTransform="matrix(.78972 0 0 .77769 21.667 28.061)" r="5.05"/>
  <radialGradient id="radialGradient135615" xlink:href="#linearGradient9598" gradientUnits="userSpaceOnUse" cy="25.668" cx="18.685" gradientTransform="matrix(.78972 0 0 .77769 44.931 28.061)" r="5.05"/>
 </defs>
 <metadata id="metadata7">
  <rdf:RDF>
   <cc:Work rdf:about="">
    <dc:format>image/svg+xml</dc:format>
    <dc:type rdf:resource="http://purl.org/dc/dcmitype/StillImage"/>
    <dc:title/>
   </cc:Work>
  </rdf:RDF>
 </metadata>
 <g id="layer1" transform="translate(0 -956.36)">
  <rect id="rect5261-6" fill-opacity=".039216" ry="12.552" height="88.762" width="88.762" y="959.96" x="3.6078"/>
  <rect id="rect5259-9" fill-opacity=".078431" ry="12.38" height="87.546" width="87.546" y="960.57" x="4.2157"/>
  <rect id="rect5257-5" fill-opacity=".15686" ry="12.208" height="86.33" width="86.33" y="961.18" x="4.8237"/>
  <path id="rect4204" d="m17.469 5.4062c-6.668 0-12.032 5.3948-12.032 12.063l0.0005 61.031c0 5.418 3.5332 9.982 8.4375 11.5h68.187c4.715-1.457 8.172-5.734 8.438-10.875v-62.281c-0.321-6.377-5.54-11.438-12-11.438l-61.031 0.0002z" transform="translate(0 956.36)" fill="url(#linearGradient135363)"/>
  <rect id="rect3873" rx="6" ry="6" height="84" width="84" display="none" y="947.34" x="107.91" fill="url(#linearGradient4982)"/>
  <rect id="rect3880" rx="6" ry="6" height="84" width="84" display="none" y="947.34" x="107.91" fill="url(#linearGradient4982)"/>
  <path id="rect5265-0" d="m5.4316 1029.8v5.0663c0 6.668 5.3645 12.032 12.032 12.032h61.049c6.668 0 12.032-5.3645 12.032-12.032v-5.0663c0 6.6681-5.3645 12.032-12.032 12.032h-61.049c-6.668 0-12.032-5.3643-12.032-12.032z" fill-opacity=".23529"/>
  <path id="path5252-0" d="m5.4316 1033.9v1.0133c0 6.668 5.3645 12.032 12.032 12.032h61.049c6.668 0 12.032-5.3645 12.032-12.032v-1.0133c0 6.6681-5.3645 12.032-12.032 12.032h-61.049c-6.668 0-12.032-5.3644-12.032-12.032z" fill-opacity=".098039"/>
  <path id="path4141" opacity=".2" d="m20.918 961.84 26.324 40.656-41.512-26.156v18.5l41.065 9-41.065 8.75v18.375l41.512-25.781-26.707 40.656h18.889l9.1894-40.219 8.9341 40.219h18.762l-26.324-40.656 41.512 26.156v-18.5l-41.065-9 41.065-8.75v-18.375l-41.512 25.781 26.707-40.656h-18.889l-9.1894 40.219-8.9341-40.219h-18.762z" fill="url(#linearGradient135535)"/>
  <g id="layer5-4" transform="matrix(1.021 0 0 1 -.39657 955.84)">
   <rect id="rect3171-5" height="66" stroke="#fff" stroke-linecap="round" stroke-width=".5" fill="url(#linearGradient135537)" rx="12" ry="12" width="66" opacity=".1" clip-path="url(#clipPath3613-88)" filter="url(#filter3794-80)" y="15" x="15"/>
  </g>
  <g id="layer3" transform="matrix(1.439 0 0 1.4093 -21.172 934.01)">
   <path id="path4152" opacity=".05" d="m48.031 22c-11.384-0.16-22.321 7.433-25.937 18.281a0.9609 0.9609 0 0 0 -0.03125 0.0625c-0.42196 1.6478-1.3788 3.6689-1.0312 5.9062a0.9609 0.9609 0 0 0 0.03125 0.125c0.30752 0.96492 1.0948 1.6132 1.875 1.875 0.74795 0.25096 1.4898 0.25072 2.1562 0.1875 0.02877-0.0027 0.06533 0.003 0.09375 0 0.35536 0.001 0.53056-0.02711 0.71875-0.03125-0.09831 0.54581-0.04053 0.8788 0 1.1562-0.56626 0.0066-1.3443-0.07036-2.1875 0.03125-0.90347 0.10886-1.9849 0.5916-2.5 1.6875a0.9609 0.9609 0 0 0 -0.031 0.094c-0.71428 2.0234 0.36326 3.8615 0.5625 5.0938a0.9609 0.9609 0 0 0 0 0.09375c3.178 11.16 14.091 19.331 25.656 19.437 0.01039 0.000096 0.02086-0.000083 0.03125 0 11.372 0.40467 22.405-7.0065 26.25-17.75a0.9609 0.9609 0 0 0 0 -0.03125c0.54526-1.8242 1.5525-3.9606 1.3438-6.3125a0.9609 0.9609 0 0 0 -0.031 -0.156c-0.259-0.956-1.017-1.632-1.781-1.938-0.68-0.272-1.37-0.245-2.031-0.187v-0.0625c-0.47692-0.05649-0.71804 0.0072-0.96875 0.03125 0.02535-0.24251 0.0482-0.49368 0.03125-0.6875-0.01657-0.18944-0.01681-0.32112-0.03125-0.46875 0.55623 0.0029 1.2393 0.05872 2.0312-0.03125 0.91374-0.1038 2.0391-0.57934 2.5625-1.6875a0.9609 0.9609 0 0 0 0.031 -0.093c0.7131-2.0243-0.36624-3.8624-0.5625-5.0938a0.9609 0.9609 0 0 0 0 -0.09375c-3.13-11.069-13.851-19.22-25.313-19.437-0.34546-0.01159-0.65609 0-0.9375 0z"/>
   <path id="path4146" opacity=".1" d="m48.031 22.969c-10.945-0.15377-21.544 7.204-25.017 17.624-0.45429 1.774-1.3335 3.6495-1.0459 5.501 0.42095 1.3208 1.9265 1.5007 3.1213 1.375 0.9171 0.01167 2.1782-0.32062 1.7537 1.0326-0.18092 0.74156 0.52743 2.3724-0.7376 2.0299-1.3827 0.05525-3.285-0.3913-4.0124 1.1562-0.5298 1.5009 0.36394 3.1344 0.60459 4.6228 3.0552 10.729 13.6 18.626 24.727 18.714 10.941 0.403 21.668-6.756 25.365-17.088 0.571-1.909 1.451-3.92 1.272-5.937-0.354-1.308-1.815-1.624-3.005-1.469-0.793-0.094-2.21 0.436-1.776-0.885 0.22-0.703-0.538-2.384 0.59-2.177 1.397-0.067 3.327 0.409 4.067-1.157 0.528-1.501-0.363-3.136-0.601-4.626-3.005-10.632-13.381-18.494-24.397-18.702-0.303-0.01-0.606-0.015-0.909-0.015z"/>
   <path id="path4142" opacity=".15" d="m48.031 24.031c-12.469 0-22.926 8.905-25 20.656l-0.09375 0.59375a0.97506 0.97506 0 0 0 0.96875 1.125h0.59375 3.4062v5.1875h-3.375-0.59375a0.97506 0.97506 0 0 0 -0.96875 1.125l0.09375 0.59375c2.0917 11.727 12.512 20.656 24.969 20.656 12.458 0 22.848-8.9293 24.938-20.656l0.09375-0.59375a0.97506 0.97506 0 0 0 -0.96875 -1.125h-0.59375-3.2812v-5.1875h3.2812 0.59375a0.97506 0.97506 0 0 0 0.96875 -1.125l-0.094-0.593c-2.075-11.746-12.469-20.657-24.938-20.657z"/>
   <path id="path4075" opacity=".3" d="m48.031 25c-12.005 0-22.04 8.561-24.031 19.844l-0.09375 0.59375h0.59375 4.375v7.125h-4.3438-0.59375l0.09375 0.59375c2.009 11.26 12.008 19.843 24 19.843 11.993 0 21.962-8.582 23.969-19.844l0.09375-0.59375h-0.59375-4.25v-7.125h4.25 0.59375l-0.094-0.593c-1.992-11.28-11.964-19.844-23.969-19.844z"/>
   <path id="rect4902" d="m28.877 41.594h38.383v13.491h-38.383v-13.491z" stroke="#2e3436" fill="#2e3436"/>
   <path id="path4962" opacity=".75" d="m57.36 47.946c0 5.061-4.1662 9.1638-9.3055 9.1638s-9.3055-4.1028-9.3055-9.1638 4.1662-9.1638 9.3055-9.1638 9.3055 4.1028 9.3055 9.1638z" fill="url(#radialGradient135589)"/>
   <path id="path4964" opacity=".75" d="m54.701 48.023c0 3.615-2.9759 6.5455-6.6468 6.5455s-6.6468-2.9305-6.6468-6.5455 2.9759-6.5455 6.6468-6.5455 6.6468 2.9305 6.6468 6.5455z" fill="url(#radialGradient135591)"/>
   <path id="path4905" fill="url(#radialGradient135593)" d="m45.728 47.946c0 5.061-4.1662 9.1638-9.3055 9.1638s-9.3055-4.1028-9.3055-9.1638 4.1662-9.1638 9.3055-9.1638 9.3055 4.1028 9.3055 9.1638z"/>
   <path id="path4907" fill="url(#radialGradient135595)" d="m43.069 48.023c0 3.615-2.9759 6.5455-6.6468 6.5455s-6.6468-2.9305-6.6468-6.5455 2.9759-6.5455 6.6468-6.5455 6.6468 2.9305 6.6468 6.5455z"/>
   <path id="path1382" opacity=".5" d="m68.992 47.946c0 5.061-4.1662 9.1638-9.3055 9.1638s-9.3055-4.1028-9.3055-9.1638 4.1662-9.1638 9.3055-9.1638 9.3055 4.1028 9.3055 9.1638z" fill="url(#radialGradient135597)"/>
   <path id="path1384" opacity=".5" d="m66.333 48.023c0 3.615-2.9759 6.5455-6.6468 6.5455s-6.6468-2.9305-6.6468-6.5455 2.9759-6.5455 6.6468-6.5455 6.6468 2.9305 6.6468 6.5455z" fill="url(#radialGradient135599)"/>
   <path id="path2216" d="m48.018 24.5c-11.768 0-21.569 8.395-23.518 19.437h47c-1.95-11.041-11.715-19.437-23.482-19.437zm-23.482 27.563c1.966 11.022 11.729 19.437 23.482 19.437 11.755 0 21.517-8.413 23.482-19.437h-46.964z" fill-rule="evenodd" stroke="#2e3436" stroke-width="1px" fill="url(#radialGradient135601)"/>
   <path id="path3113" d="m48.018 25.645c-10.731 0-19.716 7.3879-22.064 17.254h44.128c-2.348-9.866-11.333-17.254-22.064-17.254zm-22.064 27.456c2.3487 9.8657 11.333 17.218 22.064 17.218s19.716-7.3521 22.064-17.218h-44.128z" stroke="url(#linearGradient135603)" stroke-width="1px" fill="none"/>
   <path id="path4053" opacity=".3" d="m49 48.023c0 6.8405-5.6311 12.386-12.577 12.386-6.9463 0-12.577-5.5453-12.577-12.386 0-6.8405 5.6311-12.386 12.577-12.386 6.946 0 12.577 5.545 12.577 12.386z" fill="url(#radialGradient135605)"/>
   <path id="path4063" opacity=".3" d="m61 48.023c0 6.8405-5.6311 12.386-12.577 12.386-6.9463 0-12.577-5.5453-12.577-12.386 0-6.8405 5.6311-12.386 12.577-12.386 6.946 0 12.577 5.545 12.577 12.386z" fill="url(#radialGradient135607)"/>
   <path id="path4067" opacity=".3" d="m73 48.023c0 6.8405-5.6311 12.386-12.577 12.386-6.9463 0-12.577-5.5453-12.577-12.386 0-6.8405 5.6311-12.386 12.577-12.386 6.946 0 12.577 5.545 12.577 12.386z" fill="url(#radialGradient135609)"/>
   <path id="path4966" opacity=".75" d="m52.043 48.023c0 2.169-1.7855 3.9273-3.9881 3.9273-2.2025 0-3.9881-1.7583-3.9881-3.9273s1.7855-3.9273 3.9881-3.9273c2.2025 0 3.9881 1.7583 3.9881 3.9273z" fill="url(#radialGradient135611)"/>
   <path id="path4909" fill="url(#radialGradient135613)" d="m40.411 48.023c0 2.169-1.7855 3.9273-3.9881 3.9273-2.2025 0-3.9881-1.7583-3.9881-3.9273s1.7855-3.9273 3.9881-3.9273c2.2025 0 3.9881 1.7583 3.9881 3.9273z"/>
   <path id="path1386" opacity=".5" d="m63.674 48.023c0 2.169-1.7855 3.9273-3.9881 3.9273-2.2025 0-3.9881-1.7583-3.9881-3.9273s1.7855-3.9273 3.9881-3.9273c2.2025 0 3.9881 1.7583 3.9881 3.9273z" fill="url(#radialGradient135615)"/>
  </g>
 </g>
</svg>
