<?xml version="1.0" encoding="UTF-8" standalone="no"?>
<!-- Created with Inkscape (http://www.inkscape.org/) -->
<svg id="svg2" xmlns:rdf="http://www.w3.org/1999/02/22-rdf-syntax-ns#" xmlns="http://www.w3.org/2000/svg" height="96" width="96" version="1.1" xmlns:cc="http://creativecommons.org/ns#" xmlns:xlink="http://www.w3.org/1999/xlink" xmlns:dc="http://purl.org/dc/elements/1.1/">
 <defs id="defs4">
  <linearGradient id="linearGradient3613-7" y2="138.66" gradientUnits="userSpaceOnUse" x2="48" y1="20.221" x1="48">
   <stop id="stop3739-40" stop-color="#fff" offset="0"/>
   <stop id="stop3741-8" stop-color="#fff" stop-opacity="0" offset="1"/>
  </linearGradient>
  <clipPath id="clipPath3613-22">
   <rect id="rect3615-13" rx="6" ry="6" height="84" width="84" y="6" x="6" fill="#fff"/>
  </clipPath>
  <filter id="filter3794-3" height="1.384" width="1.384" color-interpolation-filters="sRGB" y="-.192" x="-.192">
   <feGaussianBlur id="feGaussianBlur3796-52" stdDeviation="5.28"/>
  </filter>
  <linearGradient id="linearGradient3700-0">
   <stop id="stop3702-2" stop-color="#70a83e" offset="0"/>
   <stop id="stop3704-9" stop-color="#9fd058" offset="1"/>
  </linearGradient>
  <linearGradient id="linearGradient4982" y2="5.9877" xlink:href="#linearGradient3700-0" gradientUnits="userSpaceOnUse" x2="48" gradientTransform="translate(101.91 941.34)" y1="90" x1="48"/>
  <clipPath id="clipPath3613-1">
   <rect id="rect3615-86" rx="6" ry="6" height="84" width="84" y="6" x="6" fill="#fff"/>
  </clipPath>
  <filter id="filter3794-1" height="1.384" width="1.384" color-interpolation-filters="sRGB" y="-.192" x="-.192">
   <feGaussianBlur id="feGaussianBlur3796-26" stdDeviation="5.28"/>
  </filter>
  <linearGradient id="linearGradient3670-1">
   <stop id="stop3672-1" stop-color="#f0f0f0" offset="0"/>
   <stop id="stop3674-4" stop-color="#dcdcdc" offset="1"/>
  </linearGradient>
  <linearGradient id="linearGradient3711">
   <stop id="stop3713" stop-color="#224478" offset="0"/>
   <stop id="stop3715" stop-color="#376ec2" offset="1"/>
  </linearGradient>
  <clipPath id="clipPath3613-20">
   <rect id="rect3615-82" rx="6" ry="6" height="84" width="84" y="6" x="6" fill="#fff"/>
  </clipPath>
  <filter id="filter3794-38" height="1.384" width="1.384" color-interpolation-filters="sRGB" y="-.192" x="-.192">
   <feGaussianBlur id="feGaussianBlur3796-21" stdDeviation="5.28"/>
  </filter>
  <linearGradient id="linearGradient53883" y2="88" xlink:href="#linearGradient3670-1" gradientUnits="userSpaceOnUse" x2="64" y1="8" x1="64"/>
  <linearGradient id="linearGradient53885" y2="8" xlink:href="#linearGradient3711" gradientUnits="userSpaceOnUse" x2="42" y1="88" x1="42"/>
  <linearGradient id="linearGradient53895" y2="88" xlink:href="#linearGradient3670-1" gradientUnits="userSpaceOnUse" x2="64" gradientTransform="translate(200.5 1009.4)" y1="8" x1="64"/>
  <linearGradient id="linearGradient53897" y2="36.596" gradientUnits="userSpaceOnUse" x2="69.087" gradientTransform="translate(200.5 1009.4)" y1="60.327" x1="69.087">
   <stop id="stop3836-2" stop-color="#d40000" offset="0"/>
   <stop id="stop3838-3" stop-color="#d41400" offset="1"/>
  </linearGradient>
  <clipPath id="clipPath53909" clipPathUnits="userSpaceOnUse">
   <path id="path53911" d="m216.92 1001.2c-7.2448-0.7571-13.685 4.4952-14.442 11.74l-6.9294 66.311c-0.61512 5.8864 2.7056 11.246 7.8617 13.453l74.086 7.7419c5.2881-1.0475 9.5299-5.3019 10.402-10.858l7.0713-67.669c0.37508-6.9652-4.7211-13.056-11.74-13.789l-66.311-6.9294z" fill="#ac9d93"/>
  </clipPath>
 </defs>
 <metadata id="metadata7">
  <rdf:RDF>
   <cc:Work rdf:about="">
    <dc:format>image/svg+xml</dc:format>
    <dc:type rdf:resource="http://purl.org/dc/dcmitype/StillImage"/>
    <dc:title/>
   </cc:Work>
  </rdf:RDF>
 </metadata>
 <g id="layer1" transform="translate(0 -956.36)">
  <rect id="rect5261-6" fill-opacity=".039216" ry="12.552" height="88.762" width="88.762" y="959.96" x="3.6078"/>
  <rect id="rect5259-9" fill-opacity=".078431" ry="12.38" height="87.546" width="87.546" y="960.57" x="4.2157"/>
  <rect id="rect5257-5" fill-opacity=".15686" ry="12.208" height="86.33" width="86.33" y="961.18" x="4.8237"/>
  <path id="rect2419" d="m17.469 5.4062c-6.668 0-12.032 5.3948-12.032 12.063l0.0005 61.031c0 5.418 3.5332 9.982 8.4375 11.5h68.187c4.715-1.457 8.172-5.734 8.438-10.875v-62.281c-0.321-6.377-5.54-11.438-12-11.438l-61.031 0.0002z" transform="translate(0 956.36)" fill="#999"/>
  <g id="g53828" clip-path="url(#clipPath53909)" transform="matrix(.91044 -.095139 .095139 .91044 -275.27 70.884)">
   <g id="g3777" transform="translate(170.5 1009.4)">
    <rect id="rect3785" style="color:#000000" rx="6" ry="6" height="84" width="54" y="6" x="36" fill="url(#linearGradient53883)"/>
    <path id="path3787" style="color:#000000" d="m42 7.9688c-2.2635 0-4.0312 1.7678-4.0312 4.0312v72c0 2.2635 1.7678 4.0312 4.0312 4.0312h42c2.2635 0 4.0312-1.7678 4.0312-4.0312v-72c0-2.2635-1.768-4.0312-4.031-4.0312h-42z" fill="url(#linearGradient53885)"/>
    <path id="path3789" style="color:#000000" d="m32 7.9688c-2.2635 0-4.0312 1.7678-4.0312 4.0312v72c0 2.2635 1.7678 4.0312 4.0312 4.0312h42c2.2635 0 4.0312-1.7678 4.0312-4.0312v-72c0-2.2635-1.768-4.0312-4.031-4.0312h-42zm0 0.9375h42c1.7676 0 3.0938 1.3261 3.0938 3.0938v72c0 1.7676-1.3261 3.0938-3.0938 3.0938h-42c-1.7676 0-3.0938-1.3261-3.0938-3.0938v-72c0-1.7676 1.3261-3.0938 3.0938-3.0938z" transform="translate(10)" fill="#214478"/>
    <path id="path3791" opacity=".3" d="m32 8-4 8 4 8 4-8-4-8zm0 16-4 8 4 8 4-8-4-8zm0 16-4 8 4 8 4-8-4-8zm0 16-4 8 4 8 4-8-4-8zm0 16-4 8 4 8 4-8-4-8zm0-60 2 4-2 4-2-4 2-4zm0 2-1 2 1 2 1-2-1-2zm0 12 3 6-3 6-3-6 3-6zm0 4-1 2 1 2 1-2-1-2zm0 14 2 4-2 4-2-4 2-4zm0 2-1 2 1 2 1-2-1-2zm0 12 3 6-3 6-3-6 3-6zm0 4-1 2 1 2 1-2-1-2zm0 14 2 4-2 4-2-4 2-4zm0 2-1 2 1 2 1-2-1-2z" transform="translate(10)" fill="#162d50"/>
   </g>
   <g id="g3757" transform="translate(180.5 1009.4)">
    <rect id="rect3759" opacity=".1" style="color:#000000" rx="6" ry="6" height="84" width="20" y="6" x="33"/>
    <rect id="rect3761" opacity=".15" style="color:#000000" rx="6" ry="6" height="84" width="20" y="6" x="34"/>
    <rect id="rect3763" opacity=".3" style="color:#000000" rx="6" ry="6" height="84" width="20" y="6" x="35"/>
    <rect id="rect3765" style="color:#000000" rx="6" ry="6" height="84" width="54" y="6" x="36" fill="url(#linearGradient53883)"/>
    <path id="path3767" style="color:#000000" d="m42 7.9688c-2.2635 0-4.0312 1.7678-4.0312 4.0312v72c0 2.2635 1.7678 4.0312 4.0312 4.0312h42c2.2635 0 4.0312-1.7678 4.0312-4.0312v-72c0-2.2635-1.768-4.0312-4.031-4.0312h-42z" fill="url(#linearGradient53885)"/>
    <path id="path3769" style="color:#000000" d="m32 7.9688c-2.2635 0-4.0312 1.7678-4.0312 4.0312v72c0 2.2635 1.7678 4.0312 4.0312 4.0312h42c2.2635 0 4.0312-1.7678 4.0312-4.0312v-72c0-2.2635-1.768-4.0312-4.031-4.0312h-42zm0 0.9375h42c1.7676 0 3.0938 1.3261 3.0938 3.0938v72c0 1.7676-1.3261 3.0938-3.0938 3.0938h-42c-1.7676 0-3.0938-1.3261-3.0938-3.0938v-72c0-1.7676 1.3261-3.0938 3.0938-3.0938z" transform="translate(10)" fill="#214478"/>
    <path id="path3771" opacity=".3" d="m32 8-4 8 4 8 4-8-4-8zm0 16-4 8 4 8 4-8-4-8zm0 16-4 8 4 8 4-8-4-8zm0 16-4 8 4 8 4-8-4-8zm0 16-4 8 4 8 4-8-4-8zm0-60 2 4-2 4-2-4 2-4zm0 2-1 2 1 2 1-2-1-2zm0 12 3 6-3 6-3-6 3-6zm0 4-1 2 1 2 1-2-1-2zm0 14 2 4-2 4-2-4 2-4zm0 2-1 2 1 2 1-2-1-2zm0 12 3 6-3 6-3-6 3-6zm0 4-1 2 1 2 1-2-1-2zm0 14 2 4-2 4-2-4 2-4zm0 2-1 2 1 2 1-2-1-2z" transform="translate(10)" fill="#162d50"/>
   </g>
   <g id="g3690" transform="translate(190.5 1009.4)">
    <rect id="rect3692" opacity=".1" style="color:#000000" rx="6" ry="6" height="84" width="20" y="6" x="33"/>
    <rect id="rect3694" opacity=".15" style="color:#000000" rx="6" ry="6" height="84" width="20" y="6" x="34"/>
    <rect id="rect3696" opacity=".3" style="color:#000000" rx="6" ry="6" height="84" width="20" y="6" x="35"/>
    <rect id="rect3698-1" style="color:#000000" rx="6" ry="6" height="84" width="54" y="6" x="36" fill="url(#linearGradient53883)"/>
    <path id="path3707" style="color:#000000" d="m42 7.9688c-2.2635 0-4.0312 1.7678-4.0312 4.0312v72c0 2.2635 1.7678 4.0312 4.0312 4.0312h42c2.2635 0 4.0312-1.7678 4.0312-4.0312v-72c0-2.2635-1.768-4.0312-4.031-4.0312h-42z" fill="url(#linearGradient53885)"/>
    <path id="path3719" style="color:#000000" d="m32 7.9688c-2.2635 0-4.0312 1.7678-4.0312 4.0312v72c0 2.2635 1.7678 4.0312 4.0312 4.0312h42c2.2635 0 4.0312-1.7678 4.0312-4.0312v-72c0-2.2635-1.768-4.0312-4.031-4.0312h-42zm0 0.9375h42c1.7676 0 3.0938 1.3261 3.0938 3.0938v72c0 1.7676-1.3261 3.0938-3.0938 3.0938h-42c-1.7676 0-3.0938-1.3261-3.0938-3.0938v-72c0-1.7676 1.3261-3.0938 3.0938-3.0938z" transform="translate(10)" fill="#214478"/>
    <path id="path3732" opacity=".3" d="m32 8-4 8 4 8 4-8-4-8zm0 16-4 8 4 8 4-8-4-8zm0 16-4 8 4 8 4-8-4-8zm0 16-4 8 4 8 4-8-4-8zm0 16-4 8 4 8 4-8-4-8zm0-60 2 4-2 4-2-4 2-4zm0 2-1 2 1 2 1-2-1-2zm0 12 3 6-3 6-3-6 3-6zm0 4-1 2 1 2 1-2-1-2zm0 14 2 4-2 4-2-4 2-4zm0 2-1 2 1 2 1-2-1-2zm0 12 3 6-3 6-3-6 3-6zm0 4-1 2 1 2 1-2-1-2zm0 14 2 4-2 4-2-4 2-4zm0 2-1 2 1 2 1-2-1-2z" transform="translate(10)" fill="#162d50"/>
   </g>
   <rect id="rect3682" opacity=".1" style="color:#000000" rx="6" ry="6" height="84" width="20" y="1015.4" x="233.5"/>
   <rect id="rect3680" opacity=".15" style="color:#000000" rx="6" ry="6" height="84" width="20" y="1015.4" x="234.5"/>
   <rect id="rect3678" opacity=".3" style="color:#000000" rx="6" ry="6" height="84" width="20" y="1015.4" x="235.5"/>
   <rect id="rect3666" style="color:#000000" rx="6" ry="6" height="84" width="54" y="1015.4" x="236.5" fill="url(#linearGradient53895)"/>
   <path id="path3805" style="color:#000000" d="m257.5 1045.4c-3.3137 0-6 2.6863-6 6 0 0.2071 0.003 0.4077 0.0234 0.6094 0.51764 8.8877 11.977 17.391 11.977 17.391s11.445-8.8577 11.977-17.391c0.0205-0.2017 0.0234-0.4023 0.0234-0.6094 0-3.3137-2.6863-6-6-6s-6 2.6863-6 6c0-3.3137-2.6863-6-6-6z" fill="url(#linearGradient53897)"/>
   <g id="text3814" fill="#d40000" transform="matrix(1.0046 0 0 1.0099 197.01 1008.7)">
    <path id="path3819" d="m45.38 18.189v0.31055h-2.584v-0.31055l0.89062-0.1582 2.6777-7.4531h1.1133l2.7832 7.4531 0.99609 0.1582v0.31055h-3.3223v-0.31055l1.0547-0.1582-0.7793-2.2676h-3.0938l-0.79102 2.2676 1.0547 0.1582m1.2598-6.7676-1.3477 3.8145h2.7363l-1.3887-3.8145"/>
   </g>
   <path id="path3821" style="color:#000000" d="m242.5 1029.4c-1.1046 0-2 0.8954-2 2 0 0.069 0.001 0.1359 0.008 0.2031 0.17256 2.9626 3.9922 5.7969 3.9922 5.7969s3.815-2.9526 3.9922-5.7969c0.007-0.067 0.008-0.1341 0.008-0.2031 0-1.1046-0.89543-2-2-2s-2 0.8954-2 2c0-1.1046-0.89543-2-2-2z" fill="#d40000"/>
   <path id="path3858" style="color:#000000" d="m251.53 1051c-0.007 0.1226-0.0313 0.2505-0.0313 0.375 0 0.2071 0.0108 0.4233 0.0313 0.625 0.51764 8.8878 11.969 17.375 11.969 17.375s11.437-8.842 11.969-17.375c0.0205-0.2017 0.0313-0.4179 0.0313-0.625 0-0.1245-0.0238-0.2524-0.0313-0.375-0.53172 8.533-11.969 17.375-11.969 17.375s-11.451-8.4872-11.969-17.375z" fill="#9d0000"/>
   <g id="g3823" fill="#c40000" transform="matrix(1.0046 0 0 -1.0099 235.01 1106)">
    <path id="path3825" fill="#c40000" d="m45.38 18.189v0.31055h-2.584v-0.31055l0.89062-0.1582 2.6777-7.4531h1.1133l2.7832 7.4531 0.99609 0.1582v0.31055h-3.3223v-0.31055l1.0547-0.1582-0.7793-2.2676h-3.0938l-0.79102 2.2676 1.0547 0.1582m1.2598-6.7676-1.3477 3.8145h2.7363l-1.3887-3.8145"/>
   </g>
   <path id="path3827" style="color:#000000" d="m280.5 1085.4c-1.1046 0-2-0.8954-2-2 0-0.069 0.001-0.1359 0.008-0.2031 0.17256-2.9626 3.9922-5.7969 3.9922-5.7969s3.815 2.9526 3.9922 5.7969c0.007 0.067 0.008 0.1341 0.008 0.2031 0 1.1046-0.89543 2-2 2s-2-0.8954-2-2c0 1.1046-0.89543 2-2 2z" fill="#c40000"/>
   <g id="layer5-3" transform="translate(200.5 1009.4)">
    <rect id="rect3171-2" height="66" stroke="#fff" stroke-linecap="round" stroke-width=".5" fill="url(#linearGradient3613-7)" rx="12" ry="12" width="66" opacity=".1" clip-path="url(#clipPath3613-20)" filter="url(#filter3794-38)" y="15" x="15"/>
   </g>
  </g>
  <path id="rect5265-0" d="m5.4316 1029.8v5.0663c0 6.668 5.3645 12.032 12.032 12.032h61.049c6.668 0 12.032-5.3645 12.032-12.032v-5.0663c0 6.6681-5.3645 12.032-12.032 12.032h-61.049c-6.668 0-12.032-5.3643-12.032-12.032z" fill-opacity=".23529"/>
  <path id="path5252-0" d="m5.4316 1033.9v1.0133c0 6.668 5.3645 12.032 12.032 12.032h61.049c6.668 0 12.032-5.3645 12.032-12.032v-1.0133c0 6.6681-5.3645 12.032-12.032 12.032h-61.049c-6.668 0-12.032-5.3644-12.032-12.032z" fill-opacity=".098039"/>
  <g id="layer5" transform="translate(-95.023 954.86)">
   <rect id="rect3171" height="66" stroke="#fff" stroke-linecap="round" stroke-width=".5" fill="url(#linearGradient3613-7)" rx="12" ry="12" width="66" opacity=".1" clip-path="url(#clipPath3613-22)" filter="url(#filter3794-3)" y="15" x="15"/>
  </g>
  <rect id="rect3873" rx="6" ry="6" height="84" width="84" display="none" y="947.34" x="107.91" fill="url(#linearGradient4982)"/>
  <rect id="rect3880" rx="6" ry="6" height="84" width="84" display="none" y="947.34" x="107.91" fill="url(#linearGradient4982)"/>
  <g id="layer5-15" transform="translate(.048379 954.04)">
   <rect id="rect3171-4" height="66" stroke="#fff" stroke-linecap="round" stroke-width=".5" fill="url(#linearGradient3613-7)" rx="12" ry="12" width="66" opacity=".1" clip-path="url(#clipPath3613-1)" filter="url(#filter3794-1)" y="15" x="15"/>
  </g>
 </g>
</svg>
