<?xml version="1.0" encoding="UTF-8" standalone="no"?>
<!-- Created with Inkscape (http://www.inkscape.org/) -->
<svg id="svg2" xmlns:rdf="http://www.w3.org/1999/02/22-rdf-syntax-ns#" xmlns="http://www.w3.org/2000/svg" height="96" width="96" version="1.1" xmlns:cc="http://creativecommons.org/ns#" xmlns:xlink="http://www.w3.org/1999/xlink" xmlns:dc="http://purl.org/dc/elements/1.1/">
 <defs id="defs4">
  <linearGradient id="linearGradient3700-0">
   <stop id="stop3702-2" stop-color="#70a83e" offset="0"/>
   <stop id="stop3704-9" stop-color="#9fd058" offset="1"/>
  </linearGradient>
  <linearGradient id="linearGradient4982" y2="5.9877" xlink:href="#linearGradient3700-0" gradientUnits="userSpaceOnUse" x2="48" gradientTransform="translate(101.91 941.34)" y1="90" x1="48"/>
  <clipPath id="clipPath3613-55">
   <rect id="rect3615-88" rx="6" ry="6" height="84" width="84" y="6" x="6" fill="#fff"/>
  </clipPath>
  <filter id="filter3794-41" height="1.384" width="1.384" color-interpolation-filters="sRGB" y="-.192" x="-.192">
   <feGaussianBlur id="feGaussianBlur3796-50" stdDeviation="5.28"/>
  </filter>
  <linearGradient id="linearGradient3182" y2="5.9877" gradientUnits="userSpaceOnUse" y1="90" gradientTransform="matrix(1.125 0 0 1.0417 -7.75 -3.25)" x2="48" x1="48">
   <stop id="stop4083" stop-color="#8c8c8c" offset="0"/>
   <stop id="stop4085" stop-color="#dcdcdc" offset="1"/>
  </linearGradient>
  <linearGradient id="linearGradient90466" y2="138.66" gradientUnits="userSpaceOnUse" x2="48" y1="20.221" x1="48">
   <stop id="stop3739-532" stop-color="#fff" offset="0"/>
   <stop id="stop3741-666" stop-color="#fff" stop-opacity="0" offset="1"/>
  </linearGradient>
  <linearGradient id="linearGradient3299-29" y2="47.996" gradientUnits="userSpaceOnUse" x2="79.996" gradientTransform="matrix(0 1 -1 0 70.996 .0042201)" y1="47.996" x1="15.996">
   <stop id="stop4283-9-6" stop-color="#1e1e1e" offset="0"/>
   <stop id="stop4285-8-5" stop-color="#505050" offset="1"/>
  </linearGradient>
 </defs>
 <metadata id="metadata7">
  <rdf:RDF>
   <cc:Work rdf:about="">
    <dc:format>image/svg+xml</dc:format>
    <dc:type rdf:resource="http://purl.org/dc/dcmitype/StillImage"/>
    <dc:title/>
   </cc:Work>
  </rdf:RDF>
 </metadata>
 <g id="layer1" transform="translate(0 -956.36)">
  <rect id="rect5261-6" fill-opacity=".039216" ry="12.552" height="88.762" width="88.762" y="959.96" x="3.6078"/>
  <rect id="rect5259-9" fill-opacity=".078431" ry="12.38" height="87.546" width="87.546" y="960.57" x="4.2157"/>
  <rect id="rect5257-5" fill-opacity=".15686" ry="12.208" height="86.33" width="86.33" y="961.18" x="4.8237"/>
  <path id="rect2419" opacity=".9" d="m17.469 5.4062c-6.668 0-12.032 5.3948-12.032 12.063l0.0005 61.031c0 5.418 3.5332 9.982 8.4375 11.5h68.187c4.715-1.457 8.172-5.734 8.438-10.875v-62.281c-0.321-6.377-5.54-11.438-12-11.438l-61.031 0.0002z" transform="translate(0 956.36)" fill="url(#linearGradient3182)"/>
  <path id="rect5265-0" d="m5.4316 1029.8v5.0663c0 6.668 5.3645 12.032 12.032 12.032h61.049c6.668 0 12.032-5.3645 12.032-12.032v-5.0663c0 6.6681-5.3645 12.032-12.032 12.032h-61.049c-6.668 0-12.032-5.3643-12.032-12.032z" fill-opacity=".23529"/>
  <path id="path5252-0" d="m5.4316 1033.9v1.0133c0 6.668 5.3645 12.032 12.032 12.032h61.049c6.668 0 12.032-5.3645 12.032-12.032v-1.0133c0 6.6681-5.3645 12.032-12.032 12.032h-61.049c-6.668 0-12.032-5.3644-12.032-12.032z" fill-opacity=".098039"/>
  <rect id="rect3873" rx="6" ry="6" height="84" width="84" display="none" y="947.34" x="107.91" fill="url(#linearGradient4982)"/>
  <rect id="rect3880" rx="6" ry="6" height="84" width="84" display="none" y="947.34" x="107.91" fill="url(#linearGradient4982)"/>
  <g id="layer5" transform="translate(-.5 953.86)">
   <rect id="rect3171" height="66" stroke="#fff" stroke-linecap="round" stroke-width=".5" fill="url(#linearGradient90466)" rx="12" ry="12" width="66" opacity=".3" clip-path="url(#clipPath3613-55)" filter="url(#filter3794-41)" y="15" x="15"/>
  </g>
  <g id="layer4-6" transform="translate(-.26803 954.7)">
   <path id="path3297" style="color:#000000" d="m47.25 20.031c-10.417 0.14876-20.356 6.6902-24.625 16.188-4.8322 10.092-2.75 22.958 5.0312 31 7.2288 7.8604 19.112 10.786 29.188 7.3438 10.341-3.2883 18.114-13.13 19-23.938 1.174-10.968-4.849-22.253-14.656-27.313-4.245-2.299-9.12-3.394-13.938-3.281zm0.75 7.969c8.7374-0.1349 17.006 6.1581 19.25 14.594 0.13923 0.46558 0.24331 0.9335 0.34375 1.4062h-39.188c0.47915-2.4374 1.4048-4.788 2.8125-6.875 3.609-5.6 10.1-9.199 16.782-9.125zm-19.562 24h39.125c-1.152 5.46-4.517 10.462-9.438 13.219-7.679 4.764-18.451 3.213-24.594-3.375-2.661-2.691-4.36-6.176-5.093-9.844z" fill="url(#linearGradient3299-29)"/>
   <path id="path4102" opacity=".2" style="color:#000000" d="m47.25 20.031c-10.417 0.14876-20.356 6.6902-24.625 16.188-4.8322 10.092-2.75 22.958 5.0312 31 7.2288 7.8604 19.112 10.786 29.188 7.3438 10.341-3.2883 18.114-13.13 19-23.938 1.174-10.968-4.849-22.253-14.656-27.313-4.245-2.299-9.12-3.394-13.938-3.281zm0 1.0625a1.0593 1.0593 0 0 0 0.03125 0c4.6405-0.10922 9.3369 0.95119 13.406 3.1562 9.3946 4.8461 15.219 15.74 14.094 26.25a1.0593 1.0593 0 0 0 0 0.03125c-0.84914 10.357-8.3444 19.882-18.25 23.031a1.0593 1.0593 0 0 0 -0.03125 0c-9.661 3.301-21.137 0.469-28.062-7.062a1.0593 1.0593 0 0 0 -0.032 -0.031c-7.454-7.704-9.442-20.113-4.812-29.781a1.0593 1.0593 0 0 0 0 -0.03125c4.091-9.103 13.672-15.421 23.656-15.563zm0.71875 5.8438c-7.044-0.067-13.785 3.71-17.594 9.593h-0.03125c-0.0043 0.0067 0.0043 0.02451 0 0.03125-1.4847 2.2084-2.4664 4.6634-2.9688 7.2188a1.0593 1.0593 0 0 0 1.0312 1.2812h39.188a1.0593 1.0593 0 0 0 1.031 -1.281c-0.1-0.47-0.226-0.966-0.375-1.469-0.002-0.009 0.003-0.021 0-0.031-2.388-8.904-11.019-15.471-20.25-15.343-0.01046 0.000144-0.02079-0.000162-0.03125 0zm0.031 1.062c8.7374-0.1349 17.006 6.1581 19.25 14.594 0.13923 0.46558 0.24331 0.9335 0.34375 1.4062h-39.188c0.47915-2.4374 1.4048-4.788 2.8125-6.875 3.609-5.6 10.1-9.199 16.782-9.125zm-19.656 22.938a1.0593 1.0593 0 0 0 -0.9375 1.2812c0.76719 3.8359 2.5379 7.4927 5.3438 10.344 0.01007 0.0108 0.02115 0.02047 0.03125 0.03125 6.5026 6.9415 17.747 8.5798 25.875 3.5625 0.012-0.0074 0.01926-0.02381 0.03125-0.03125 5.1966-2.9278 8.6987-8.1804 9.9062-13.906a1.0593 1.0593 0 0 0 -1.031 -1.282h-39.125a1.0593 1.0593 0 0 0 -0.0625 0 1.0593 1.0593 0 0 0 -0.03125 0zm0.094 1.062h39.124c-1.151 5.46-4.516 10.462-9.437 13.219-7.679 4.764-18.451 3.213-24.594-3.375-2.661-2.691-4.36-6.176-5.093-9.844z"/>
   <path id="path4109" opacity=".05" style="color:#000000" d="m47.25 20.031c-10.417 0.14876-20.356 6.6902-24.625 16.188-4.8322 10.092-2.75 22.958 5.0312 31 7.2288 7.8604 19.112 10.786 29.188 7.3438 10.341-3.2883 18.114-13.13 19-23.938 1.174-10.968-4.849-22.253-14.656-27.313-4.245-2.299-9.12-3.394-13.938-3.281zm0.03125 2.1875a2.1967 2.1967 0 0 0 0.03125 0c4.4503-0.10475 8.9622 0.92798 12.844 3.0312a2.1967 2.1967 0 0 0 0.03125 0c8.9508 4.6172 14.542 15.137 13.469 25.156a2.1967 2.1967 0 0 0 0 0.03125c-0.809 9.874-8.031 19.032-17.468 22.033a2.1967 2.1967 0 0 0 -0.0625 0c-9.2151 3.1485-20.243 0.42747-26.844-6.75a2.1967 2.1967 0 0 0 -0.032 -0.031c-7.103-7.341-9.068-19.318-4.656-28.532a2.1967 2.1967 0 0 0 0.031 -0.031c3.9-8.678 13.138-14.77 22.656-14.906zm0.6875 3.5938c-7.4482-0.05945-14.543 3.8844-18.562 10.094-0.0081 0.01244-0.02322 0.01879-0.03125 0.03125-1.572 2.3417-2.5968 4.9382-3.125 7.625a2.1967 2.1967 0 0 0 2.1562 2.625h39.188a2.1967 2.1967 0 0 0 2.156 -2.656c-0.09894-0.4657-0.21752-0.96217-0.375-1.5-0.006-0.02246-0.0252-0.04007-0.03125-0.0625-2.5381-9.414-11.547-16.277-21.312-16.156-0.02104 0.00026-0.04145-0.000325-0.0625 0zm0.032 2.188c8.7374-0.1349 17.006 6.1581 19.25 14.594 0.13923 0.46558 0.24331 0.9335 0.34375 1.4062h-39.188c0.47915-2.4374 1.4048-4.788 2.8125-6.875 3.609-5.6 10.1-9.199 16.782-9.125zm-19.719 21.812a2.1967 2.1967 0 0 0 -2 2.625c0.80627 4.0313 2.6756 7.8784 5.6562 10.906 0.01018 0.01091 0.02105 0.02036 0.03125 0.03125 6.881 7.3474 18.597 9.0408 27.219 3.75 0.02807-0.01723 0.06574-0.01387 0.09375-0.03125v-0.03125c5.4816-3.1124 9.1712-8.5893 10.438-14.594a2.1967 2.1967 0 0 0 -2.157 -2.656h-39.125a2.1967 2.1967 0 0 0 -0.15625 0zm0.157 2.188h39.124c-1.151 5.46-4.516 10.462-9.437 13.219-7.679 4.764-18.451 3.213-24.594-3.375-2.661-2.691-4.36-6.176-5.093-9.844z"/>
   <path id="path3316" opacity=".6" style="color:#000000" d="m47.25 20.031c-10.417 0.14876-20.356 6.6902-24.625 16.188-1.8625 3.8897-2.6848 8.1897-2.5625 12.469 0.02522-3.9464 0.84514-7.8822 2.5625-11.469 4.2685-9.4973 14.208-16.039 24.625-16.188 4.8177-0.11339 9.6932 0.9814 13.938 3.2812 8.582 4.427 14.282 13.611 14.782 23.188-0.143-9.931-5.902-19.607-14.781-24.188-4.245-2.299-9.12-3.394-13.938-3.281zm-18.594 23.969c-0.08337 0.33307-0.18378 0.66315-0.25 1h39.188c-0.07151-0.3366-0.16342-0.66739-0.25-1h-38.688zm-0.21875 9c0.73364 3.6681 2.4329 7.153 5.0938 9.8438 6.1429 6.588 16.915 8.1389 24.594 3.375 4.921-2.757 8.286-7.759 9.437-13.219h-0.25c-1.3318 5.0701-4.5653 9.629-9.1875 12.219-7.6787 4.7639-18.451 3.213-24.594-3.375-2.418-2.447-4.047-5.544-4.874-8.844h-0.21875z"/>
   <path id="path4093" opacity=".6" style="color:#000000" d="m48 28c-6.682-0.07355-13.173 3.5246-16.781 9.125-1.4077 2.087-2.3334 4.4376-2.8125 6.875h0.25c0.51988-2.0769 1.3494-4.0764 2.5625-5.875 3.609-5.6 10.1-9.199 16.782-9.125 8.7374-0.1349 17.006 6.1581 19.25 14.594 0.04009 0.13408 0.05873 0.27172 0.09375 0.40625h0.25c-0.101-0.473-0.205-0.941-0.344-1.406-2.244-8.436-10.513-14.729-19.25-14.594zm27.969 20.562c-0.01802 0.68639-0.05159 1.377-0.125 2.0625-0.88609 10.807-8.6588 20.649-19 23.938-10.075 3.4425-21.959 0.51665-29.188-7.3438-4.7821-4.9421-7.3987-11.708-7.5938-18.531-0.04574 7.1578 2.578 14.348 7.5938 19.531 7.2288 7.8604 19.112 10.786 29.188 7.3438 10.341-3.2883 18.114-13.13 19-23.938 0.10901-1.0179 0.13724-2.0444 0.125-3.0625zm-47.531 3.438c0.06657 0.33285 0.13628 0.67062 0.21875 1h38.656c0.08608-0.32771 0.18009-0.66851 0.25-1h-39.125z" fill="#fff"/>
  </g>
 </g>
</svg>
