<?xml version="1.0" encoding="UTF-8" standalone="no"?>
<!-- Created with Inkscape (http://www.inkscape.org/) -->
<svg id="svg2" xmlns:rdf="http://www.w3.org/1999/02/22-rdf-syntax-ns#" xmlns="http://www.w3.org/2000/svg" height="96" width="96" version="1.1" xmlns:cc="http://creativecommons.org/ns#" xmlns:xlink="http://www.w3.org/1999/xlink" xmlns:dc="http://purl.org/dc/elements/1.1/">
 <defs id="defs4">
  <linearGradient id="linearGradient3804">
   <stop id="stop3806" stop-color="#fff" offset="0"/>
   <stop id="stop3808" stop-color="#fff" stop-opacity="0" offset="1"/>
  </linearGradient>
  <linearGradient id="linearGradient3700-09">
   <stop id="stop3702-67" stop-color="#70a83e" offset="0"/>
   <stop id="stop3704-18" stop-color="#9fd058" offset="1"/>
  </linearGradient>
  <linearGradient id="linearGradient9745" y2="5.9877" xlink:href="#linearGradient3700-09" gradientUnits="userSpaceOnUse" x2="48" gradientTransform="translate(-169.06 968.2)" y1="90" x1="48"/>
  <clipPath id="clipPath3800">
   <path id="path3802" d="m62 6c-3.324 0-6 2.676-6 6v0.53125c0-3.6103 2.921-6.531 6.531-6.531h-0.531zm71.469 0c3.61 0 6.53 2.9207 6.53 6.531v-0.531c0-3.324-2.676-6-6-6h-0.53125zm6.53 6.531c0 36.735-3.5426 60.105-7.8438 69.938-10.82 5.031-35.68 7.531-69.629 7.531h71.469c3.324 0 6-2.676 6-6v-71.469zm-77.469 77.469c-3.61-0.006-6.531-2.921-6.531-6.531v0.531c0 3.324 2.676 6 6 6h0.53125z" fill="url(#linearGradient3804)"/>
  </clipPath>
  <filter id="filter3810" color-interpolation-filters="sRGB">
   <feGaussianBlur id="feGaussianBlur3812" stdDeviation="1.2600071"/>
  </filter>
  <linearGradient id="linearGradient5300" y2="59.821" gradientUnits="userSpaceOnUse" x2="59.612" gradientTransform="matrix(1.0059 0 0 1.0888 -.11945 940.93)" y1="82.29" x1="82.08">
   <stop id="stop3739-01" stop-color="#fff" offset="0"/>
   <stop id="stop3741-13" stop-color="#fff" stop-opacity="0" offset="1"/>
  </linearGradient>
  <linearGradient id="linearGradient5315" y2="5.9877" gradientUnits="userSpaceOnUse" x2="48" gradientTransform="matrix(1.0698 0 0 1.0698 -2.6347 -4.1448)" y1="90" x1="48">
   <stop id="stop3189-1" stop-color="#e4b31e" offset="0"/>
   <stop id="stop3191-53" stop-color="#ffef64" offset="1"/>
  </linearGradient>
  <linearGradient id="linearGradient5320" y2="112.41" gradientUnits="userSpaceOnUse" x2="110.99" gradientTransform="matrix(.71186 0 0 .60262 2.5682 963.59)" y1="44.471" x1="59.388">
   <stop id="stop3768" stop-color="#e7ba26" stop-opacity="0" offset="0"/>
   <stop id="stop3770-1" stop-color="#e9ab2c" stop-opacity=".83137" offset=".48412"/>
   <stop id="stop3772-22" stop-color="#eaa82e" offset=".69663"/>
   <stop id="stop3774-0" stop-color="#ebba3f" offset=".84266"/>
   <stop id="stop3776-8" stop-color="#f3e38c" offset="1"/>
  </linearGradient>
  <linearGradient id="linearGradient6110" y2="1032.6" gradientUnits="userSpaceOnUse" x2="56.227" y1="993.9" x1="30.906">
   <stop id="stop6106" stop-color="#f4d849" offset="0"/>
   <stop id="stop6108" stop-color="#f4d849" stop-opacity="0" offset="1"/>
  </linearGradient>
 </defs>
 <metadata id="metadata7">
  <rdf:RDF>
   <cc:Work rdf:about="">
    <dc:format>image/svg+xml</dc:format>
    <dc:type rdf:resource="http://purl.org/dc/dcmitype/StillImage"/>
    <dc:title/>
   </cc:Work>
  </rdf:RDF>
 </metadata>
 <g id="layer1" transform="translate(0 -956.36)">
  <rect id="rect5263-0" fill-opacity=".019608" ry="12.724" height="89.978" width="89.624" y="959.35" x="3.3534"/>
  <rect id="rect5261-6" fill-opacity=".039216" ry="12.552" height="88.762" width="88.413" y="959.96" x="3.9589"/>
  <rect id="rect5259-9" fill-opacity=".078431" ry="12.38" height="87.546" width="87.202" y="960.57" x="4.5645"/>
  <rect id="rect5257-5" fill-opacity=".15686" ry="12.208" height="86.33" width="85.991" y="961.18" x="5.1701"/>
  <path id="rect3781" d="m17.75 5.4062c-6.642 0-11.969 5.3948-11.969 12.063l0.0002 61.031c0 6.668 5.3268 12.031 11.969 12.031h60.812c6.642 0 11.969-5.363 11.969-12.031v-61.031c0-6.668-5.327-12.063-11.969-12.063l-60.812 0.0002z" transform="translate(0 956.36)" fill="url(#linearGradient5315)"/>
  <path id="rect5265-0" d="m5.7756 1029.8v5.0663c0 6.668 5.3434 12.032 11.985 12.032h60.809c6.6418 0 11.985-5.3645 11.985-12.032v-5.0663c0 6.6681-5.3434 12.032-11.985 12.032h-60.809c-6.6418 0-11.985-5.3643-11.985-12.032z" fill-opacity="0.17"/>
  <path id="rect2419" d="m17.75 961.77c-6.0883 0-11.055 4.546-11.844 10.438v60.188c0 3.619 2.6877 6.5312 6.0312 6.5312h72.438c3.3436 0 6.0312-2.9122 6.0312-6.5312v-60.188c-0.7883-5.8915-5.7554-10.438-11.844-10.438h-60.812z" fill="url(#linearGradient6110)"/>
  <path id="path5252-0" d="m5.7756 1033.9v1.0133c0 6.668 5.3434 12.032 11.985 12.032h60.809c6.6418 0 11.985-5.3645 11.985-12.032v-1.0133c0 6.6681-5.3434 12.032-11.985 12.032h-60.809c-6.6418 0-11.985-5.3644-11.985-12.032z" fill-opacity=".098039"/>
  <rect id="rect4772" display="none" height="107.79" width="107.79" y="971.68" x="-369.64" fill="none"/>
  <g id="g4788" display="none" transform="matrix(.21052 0 0 .21052 -369.68 971.63)"></g>
  <g id="g4806" display="none" transform="matrix(.21052 0 0 .21052 -369.68 971.63)">
   <g id="g4808" display="inline">
    <path id="path4810" d="m349.1 256.65c-0.265-0.254 37.637 27.605 39.421 25.012 6.362-9.252 82.046-93.137 84.784-116.24 0.242-2.003-0.516-4.096-0.516-4.096s-1.19-0.144-6.325-4.314c-2.692-2.192-5.483-4.581-5.483-4.581-16.054 0.998-57.885 41.559-111.06 103.57" fill="#050505" display="none"/>
   </g>
  </g>
  <g id="g4796" transform="matrix(.21052 0 0 .21052 -369.68 971.63)"></g>
  <rect id="rect3873" rx="6" ry="6" height="84" width="84" display="none" y="974.2" x="-163.06" fill="url(#linearGradient9745)"/>
  <rect id="rect3880" rx="6" ry="6" height="84" width="84" display="none" y="974.2" x="-163.06" fill="url(#linearGradient9745)"/>
  <path id="path3785" opacity=".5" d="m56 83.483c0 3.6105 2.9067 6.5117 6.5172 6.5172 33.948 0 61.157 0.16315 73.402-3.7963 25.12-103.09-79.92-119.17-79.92-2.721z" clip-path="url(#clipPath3800)" transform="matrix(1.0059 0 0 1.0888 -50.414 940.93)" filter="url(#filter3810)" fill="#4d4d4d"/>
  <path id="path3814" opacity=".5" d="m87.959 949.03c0.90031 1.2147 1.446 2.7717 1.446 4.4571 0 39.995-3.5635 65.44-7.89 76.146-10.88 5.4773-35.887 8.1996-70.035 8.1996-1.5571 0-2.9957-0.591-4.1179-1.5651 1.1995 1.6174 3.0491 2.6506 5.1238 2.6539 34.148 0 59.155-2.7223 70.035-8.1996 4.3264-10.706 7.89-36.15 7.89-76.146 0-2.2456-0.95668-4.2475-2.4519-5.5459z" fill="url(#linearGradient5300)"/>
  <path id="path3831" opacity=".1" d="m90.379 961.93c-0.40767 35.77-3.8038 58.763-7.8585 68.797-10.2 5.135-32.821 7.8448-63.748 8.1657 31.047-0.1088 55.003-1.0956 65.194-6.2265 4.0561-10.036 6.1646-34.732 6.4126-70.736z"/>
  <path id="path3177-4" d="m12.645 966.6c-3.6106 0-6.5172 2.4606-6.5172 5.5171v60.075c0 3.0566 2.9067 5.5125 6.5172 5.5172 33.948 0 58.836-2.1294 69.652-6.3882 4.3011-8.3239 7.8305-28.107 7.8305-59.204 0-3.0565-2.9067-5.5171-6.5172-5.5171h-70.966z" fill="url(#linearGradient5320)"/>
  <path id="rect3839" opacity=".35" d="m17.762 961.2c-3.3787 0-12.099 2.676-12.099 6v6h85.381v-6c0-3.324-8.72-6-12.099-6z" fill="#fff"/>
  <path id="text2443" opacity=".9" d="m12.332 1013.6c-0.10542-0.4889-0.11758-0.8679-0.03649-1.1367 0.08109-0.269 0.30709-0.6398 0.67805-1.1125s0.8392-0.7627 1.4047-0.8701c0.5656-0.1069 0.73318 0.1926 0.50309 0.8995-0.23012 0.707-0.25721 1.3417-0.08131 1.9042 0.17594 0.5625 0.58022 0.8796 1.213 0.9513 0.63275 0.072 1.2323-0.1638 1.7987-0.7063 0.56639-0.5425 1.1966-1.2834 1.8906-2.2225 0.69406-0.939 1.3459-2.0563 1.9556-3.3516 0.60965-1.2954 1.0874-2.5452 1.4332-3.7494 0.34582-1.2041 0.58544-2.3011 0.71888-3.291 0.13341-0.98975 0.12578-1.9224-0.02291-2.7979-0.14875-0.87542-0.62973-1.5947-1.4431-2.1579-0.81339-0.56311-1.3039-1.0968-1.4716-1.601-0.16767-0.50418-0.03052-1.0864 0.4115-1.7466 1.034-0.32348 1.8429-0.22866 2.427 0.28443 0.58401 0.51315 1.1345 1.0541 1.6516 1.623 0.51703 0.56889 0.99185 1.164 1.4245 1.7854 0.43258 0.62138 0.85848 1.1753 1.2777 1.6616 0.41918 0.48643 0.77448 1.0102 1.0659 1.5714 0.29138 0.56125 0.66632 1.1396 1.1248 1.7356 0.45847 0.5958 0.88912 1.2396 1.292 1.9311 0.40281 0.6916 0.7209 0.6312 0.9543-0.1811 0.23333-0.8123 0.66398-1.8778 1.292-3.1962 0.62792-1.3185 1.1795-2.4392 1.6547-3.362 0.47517-0.92278 1.0313-1.8666 1.6685-2.8313 0.63709-0.96474 1.3098-1.8624 2.0181-2.6928 0.70824-0.83043 1.5312-1.6359 2.4688-2.4163 0.9376-0.78043 1.8268-1.2935 2.6677-1.5392 0.84079-0.24562 1.6635-0.35082 2.4681-0.31554 0.80452 0.0354 1.4911 0.15104 2.0599 0.34709 0.56866 0.19612 1.0699 0.50465 1.5037 0.92557 0.43372 0.42099 0.84688 1.2659 1.2395 2.5347-0.07421 0.6147-0.28154 0.94921-0.622 1.0035-0.34054 0.0544-0.63318-0.26287-0.87794-0.95173-0.24482-0.68881-0.65601-1.1908-1.2336-1.5059-0.57761-0.31506-1.1201-0.50629-1.6275-0.57372-0.50744-0.0673-1.1442-0.0508-1.9102 0.0497-0.76611 0.10054-1.4676 0.38525-2.1044 0.85412-0.63692 0.46894-1.2901 1.0995-1.9595 1.8917-0.66946 0.79225-1.4407 1.7511-2.3136 2.8766-0.873 1.1256-1.6676 2.3962-2.3839 3.8119-0.7163 1.4158-1.2716 2.6985-1.6659 3.8481-0.39438 1.1499-0.72288 2.2398-0.98553 3.2701-0.26268 1.0303-0.37268 2.0736-0.32994 3.1301 0.0427 1.0565 0.01215 2.088-0.09166 3.0947-0.10384 1.0067-0.36154 1.8353-0.7731 2.486-0.85733 0.1291-1.3604 0-1.5093-0.3759-0.14898-0.3796-0.16434-0.8575-0.04613-1.4337 0.11813-0.5762 0.16094-1.2724 0.12841-2.0885-0.0326-0.8161-0.1491-1.6365-0.34955-2.461-0.20046-0.8244-0.55098-1.6237-1.0517-2.3978-0.5007-0.7739-0.9515-1.4158-1.3524-1.9253-0.40093-0.5095-0.79636-0.912-1.1863-1.2074-0.38995-0.2955-0.68686-0.1896-0.89072 0.3177-0.20389 0.5075-0.49071 1.2626-0.86043 2.2655-0.36976 1.0029-0.86924 2.1029-1.4985 3.3-0.62923 1.1971-1.4982 2.5997-2.6069 4.2079-1.1087 1.608-2.1893 2.7897-3.2415 3.5452-1.0523 0.7554-1.9762 1.1314-2.7717 1.1281-0.7955 0-1.4033-0.235-1.8233-0.695-0.42002-0.4601-0.84394-1.2408-1.2718-2.342m27.668-6.2821c0.35195 0.3074 0.70882 0.4132 1.0707 0.3174 0.36195-0.096 0.67063-0.3059 0.92667-0.6292 0.25595-0.3236 0.57229-0.6531 0.94907-0.9883 0.37675-0.3354 0.72854-0.7152 1.0554-1.1391 0.3268-0.4241 0.42681-0.86 0.30005-1.3074-0.12673-0.4474-0.38486-0.745-0.77432-0.8927-0.3895-0.1479-0.61195-0.4219-0.66735-0.822-0.05545-0.4002 0.03712-0.7161 0.27768-0.948 0.24055-0.2318 0.68548-0.458 1.3348-0.6785 0.72498-0.07 1.245 0.1584 1.56 0.6861 0.31502 0.5277 0.45527 1.0666 0.42074 1.6167-0.03455 0.55 0.30887 0.9297 1.0303 1.1389 0.72138 0.2091 1.3023 0.171 1.7428-0.1148 0.44048-0.2857 0.75442-0.2147 0.94213 0.2142 0.05978 0.5031 0.01578 0.83-0.1319 0.9805-0.1477 0.1507-0.47634 0.3492-0.98588 0.5955-0.50966 0.2461-1.1968 0.2748-2.0619 0.084-0.86504-0.1904-1.421-0.1081-1.6679 0.2478-0.24688 0.3556-0.63192 0.837-1.1551 1.4442-0.52321 0.6074-1.0588 1.1272-1.6067 1.5596-0.54791 0.4323-1.2172 0.7721-2.0079 1.0195-0.8023-0.027-1.4313-0.261-1.8871-0.7012-0.45576-0.4402-0.77416-0.9797-0.95523-1.6189-0.05073-0.4713 0.12558-1.0614 0.52893-1.7703 0.40335-0.709 0.80878-1.3229 1.2163-1.8419 0.40754-0.5189 0.84983-0.9442 1.3269-1.2761 0.47703-0.3321 0.85636-0.4247 1.138-0.2777 0.28158 0.1467 0.50072 0.3651 0.65741 0.6553 0.15674 0.2902 0.19754 0.5513 0.12262 0.7836-0.07494 0.2321-0.22878 0.4194-0.46154 0.5619-0.23268 0.1428-0.55494 0.3346-0.96647 0.5764-0.41163 0.2415-0.81429 0.6461-1.2082 1.2129-0.39392 0.567-0.41495 1.004-0.06303 1.3114m9.7057-3.428c0.02984-0.479 0.10989-0.9998 0.24019-1.5624 0.13028-0.5626 0.54538-1.4493 1.2453-2.6599 0.69991-1.2105 1.1761-2.2467 1.4285-3.1085-0.67227 0.31476-1.1251 0.51294-1.3586 0.59467-0.23352 0.0813-0.41594-0.0221-0.54756-0.31142-0.13164-0.28933-0.12657-0.53447 0.01515-0.73537 0.14172-0.20091 0.46849-0.42056 0.98031-0.65899 0.51181-0.23844 1.0408-0.50393 1.5869-0.79658 0.73356-1.3254 1.3375-2.3929 1.8117-3.2023s0.98045-1.681 1.5187-2.6149c0.53827-0.93383 1.0714-1.7399 1.5993-2.4183 0.52788-0.67833 1.0328-1.1016 1.5149-1.2698 0.40206 0.30913 0.29852 0.98082-0.31061 2.0151-0.60916 1.0343-1.0846 1.8832-1.4263 2.5468-0.34173 0.66361-0.67009 1.3013-0.9851 1.913-0.31502 0.61177-0.66864 1.3356-1.0608 2.1715 0.71791-0.32892 1.7932-0.81328 3.2259-1.4529 1.4327-0.6396 2.9031-1.2779 4.411-1.915 1.5079-0.63705 3.0329-1.2577 4.575-1.862 1.542-0.60422 3.065-1.159 4.5689-1.6643 1.5039-0.50529 3.0788-0.99363 4.7247-1.4652 1.6459-0.47141 2.9967-0.81581 4.0525-1.0331 1.0558-0.21723 1.967-0.14135 2.7337 0.22762-0.5646 0.40281-1.1156 0.64911-1.6529 0.73893-0.5374 0.0899-1.1082 0.20758-1.7125 0.35315-0.60435 0.14565-1.3175 0.36-2.1394 0.64324-0.82193 0.28326-1.8164 0.62918-2.9835 1.0379-1.1671 0.40871-2.4175 0.83028-3.751 1.265-1.3336 0.43467-2.6714 0.92718-4.0135 1.4775-1.3422 0.55041-2.6136 1.0874-3.8143 1.6109-1.2008 0.52357-2.4544 1.0506-3.7607 1.5811-1.3064 0.53051-2.2352 0.90376-2.7865 1.1197-0.55128 0.21603-1.0026 0.40504-1.3539 0.56713-0.35135 0.16213-0.6279 0.33997-0.82963 0.53354-0.20174 0.1936-0.4017 0.45188-0.59988 0.77481-0.1982 0.32296-0.43499 0.758-0.71036 1.3052-0.27539 0.54715-0.58676 1.2448-0.93418 2.0927-0.3474 0.84811-0.66113 1.5812-0.94122 2.1993-0.28009 0.6182-0.45139 1.1676-0.51388 1.6482-0.06251 0.4805 0.02106 0.8632 0.25068 1.1479 0.22966 0.2848 0.54472 0.4037 0.94524 0.3567 0.40051-0.047 1.085-0.4356 2.0538-1.1645 0.96868-0.7292 1.6381-1.3171 2.0083-1.7633 0.37013-0.4464 0.66173-0.7463 0.87479-0.9 0.21313-0.1533 0.41011-0.1592 0.59152-0.016 0.18131 0.1434 0.08444 0.5174-0.29058 1.1216-0.37503 0.6045-0.72626 1.0884-1.0537 1.4518s-0.71644 0.7286-1.167 1.0957c-0.45052 0.3672-0.98155 0.6985-1.593 0.9942-0.39233 0.1927-0.77112 0.3457-1.136 0.4599-0.22809 0.072-0.45166 0.1294-0.66823 0.183-0.59603 0.1164-1.0879 0.1185-1.4759 0-0.38803-0.1138-0.68508-0.3294-0.8911-0.6476-0.21218-0.2816-0.35449-0.5502-0.4269-0.8058-0.0047-0.016-0.0041-0.043 0.0025-0.08-0.07695-0.2716-0.1005-0.6469-0.07068-1.1259m9.8101-4.374c0.83699-0.60979 1.3706-1.1073 1.6008-1.4925 0.23025-0.38506 0.28861-0.69037 0.17509-0.91579-0.11354-0.22541-0.36976-0.13659-0.76868 0.2666-0.39896 0.40309-0.64849 0.76393-0.74869 1.0822-0.10017 0.31838-0.18634 0.67156-0.25853 1.0595m-1.559 2.2099c-0.23539-0.8309-0.31762-1.501-0.24672-2.0103 0.07092-0.50929 0.26276-1.0738 0.57552-1.6935 0.31274-0.61973 0.6436-1.1756 0.99257-1.6675 0.34897-0.49188 0.74103-0.87549 1.1762-1.1508l0.51779-0.18811c0.4759-0.13146 0.92492-0.12411 1.3471 0.0222 0.42214 0.14627 0.69827 0.55127 0.82841 1.2152 0.13012 0.66379-0.01556 1.3182-0.437 1.9633-0.42149 0.64497-0.95248 1.1808-1.5931 1.6074-0.64063 0.42658-0.96376 0.73198-0.96945 0.91648-0.0056 0.1845 0.16036 0.3324 0.49831 0.4442 0.33787 0.1115 1.0051 0.042 2.0017-0.2088 0.99648-0.2512 1.7828-0.5578 2.3587-0.9206 0.57589-0.36277 1.0305-0.70081 1.364-1.0139 0.33341-0.31304 0.6013-0.53605 0.80369-0.66892 0.20225-0.13328 0.41488-0.0693 0.63783 0.1918-0.22783 0.71503-0.53786 1.286-0.92998 1.7132-0.39217 0.4271-0.91009 0.8631-1.5538 1.3079-0.64366 0.445-1.4681 0.8508-2.4733 1.2176l-0.61582 0.1926c-1.1417 0.2355-1.9347 0.3139-2.379 0.2355-0.44434-0.078-0.8114-0.2202-1.1012-0.4252-0.28986-0.2051-0.55733-0.565-0.80247-1.0797m10.405-3.0205c0.29095 0.41352 0.64288 0.51641 1.0559 0.30899 0.41297-0.20752 0.76419-0.48697 1.0536-0.83847 0.29473-0.36193 0.56048-0.84082 0.79721-1.4368 0.23447-0.6039 0.304-0.98663 0.20858-1.1482-0.70247 0.96783-1.2805 1.6445-1.7341 2.03-0.44602 0.38304-0.9064 0.7446-1.3812 1.0844m-2.5978-0.36139c-0.12964-0.51621-0.19115-0.92308-0.1845-1.221 0.0066-0.29779 0.09528-0.52559 0.2658-0.68324 0.1705-0.15777 0.41234-0.26821 0.72549-0.33141 0.31306-0.0636 0.69402 0.40476 1.1426 1.4038 0.6024-0.32767 1.1004-0.68781 1.494-1.0807 0.39361-0.39274 0.7678-0.76637 1.1226-1.121 0.35252-0.36244 0.77385-0.7596 1.264-1.1913 0.49018-0.43162 0.93554-0.87545 1.3361-1.3313 0.39829-0.46387 0.67721-0.88165 0.83676-1.2534 0.15727-0.37972 0.25372-0.74042 0.28936-1.0821 0.03336-0.34965 0.18431-0.60563 0.45285-0.76795 0.34427-0.0994 0.61677-0.10156 0.81717-0.008 0.19812 0.0859 0.38863 0.37855 0.57151 0.87799 0.04814 0.2285 0.05717 0.46487 0.02708 0.70912-0.03016 0.24427-0.15804 0.56693-0.38372 0.96813-0.22037 0.39076-0.47824 0.73678-0.77365 1.0379-0.29007 0.29082-0.60949 0.63864-0.95828 1.0435-0.34121 0.40246-0.66018 0.89801-0.95691 1.4866-0.28912 0.58635-0.46761 1.1249-0.53546 1.6158-0.0625 0.48055-0.14279 0.92752-0.24088 1.3409-0.10034 0.40542-0.3203 0.783-0.65988 1.1327-0.34183 0.3418-0.92678 0.6727-1.7548 0.9927-0.56724 0.1597-1.0295 0.2225-1.3874 0.1861-0.35779-0.036-0.80659-0.3347-1.3465-0.8965-0.53981-0.56158-0.92763-1.171-1.1634-1.8278"/>
 </g>
</svg>
