<?xml version="1.0" encoding="UTF-8" standalone="no"?>
<!-- Created with Inkscape (http://www.inkscape.org/) -->

<svg
   xmlns:dc="http://purl.org/dc/elements/1.1/"
   xmlns:cc="http://creativecommons.org/ns#"
   xmlns:rdf="http://www.w3.org/1999/02/22-rdf-syntax-ns#"
   xmlns:svg="http://www.w3.org/2000/svg"
   xmlns="http://www.w3.org/2000/svg"
   xmlns:xlink="http://www.w3.org/1999/xlink"
   xmlns:sodipodi="http://sodipodi.sourceforge.net/DTD/sodipodi-0.dtd"
   xmlns:inkscape="http://www.inkscape.org/namespaces/inkscape"
   id="svg2"
   height="96"
   width="96"
   version="1.1"
   inkscape:version="0.48.4 r9939"
   sodipodi:docname="gnome-documents.svg">
  <sodipodi:namedview
     pagecolor="#ffffff"
     bordercolor="#666666"
     borderopacity="1"
     objecttolerance="10"
     gridtolerance="10"
     guidetolerance="10"
     inkscape:pageopacity="0"
     inkscape:pageshadow="2"
     inkscape:window-width="1366"
     inkscape:window-height="719"
     id="namedview143"
     showgrid="false"
     inkscape:zoom="4.889652"
     inkscape:cx="43.525424"
     inkscape:cy="49.016949"
     inkscape:window-x="0"
     inkscape:window-y="25"
     inkscape:window-maximized="1"
     inkscape:current-layer="svg2" />
  <defs
     id="defs4">
    <linearGradient
       id="linearGradient3700-0">
      <stop
         id="stop3702-2"
         stop-color="#70a83e"
         offset="0" />
      <stop
         id="stop3704-9"
         stop-color="#9fd058"
         offset="1" />
    </linearGradient>
    <linearGradient
       id="linearGradient4982"
       y2="5.9877"
       xlink:href="#linearGradient3700-0"
       gradientUnits="userSpaceOnUse"
       x2="48"
       gradientTransform="translate(101.91,941.34)"
       y1="90"
       x1="48" />
    <linearGradient
       id="linearGradient6510"
       y2="5.9877"
       gradientUnits="userSpaceOnUse"
       x2="48"
       y1="90"
       x1="48">
      <stop
         id="stop3702-6-7"
         stop-color="#e6e6e6"
         offset="0" />
      <stop
         id="stop3704-0-5"
         stop-color="#f5f5f5"
         offset="1" />
    </linearGradient>
    <linearGradient
       id="linearGradient6512"
       y2="63.893"
       gradientUnits="userSpaceOnUse"
       x2="36.357"
       y1="6"
       x1="36.357">
      <stop
         id="stop3739-9-4"
         stop-color="#fff"
         offset="0" />
      <stop
         id="stop3741-3-4"
         stop-color="#fff"
         stop-opacity="0"
         offset="1" />
    </linearGradient>
    <radialGradient
       id="radialGradient6514"
       gradientUnits="userSpaceOnUse"
       cy="90.172"
       cx="48"
       gradientTransform="matrix(1.1573 0 0 .99591 -7.551 .19713)"
       r="42">
      <stop
         id="stop3739-6-4"
         stop-color="#fff"
         offset="0" />
      <stop
         id="stop3741-0-2"
         stop-color="#fff"
         stop-opacity="0"
         offset="1" />
    </radialGradient>
    <linearGradient
       id="linearGradient6516"
       y2="16"
       gradientUnits="userSpaceOnUse"
       x2="56"
       gradientTransform="translate(-19,0)"
       y1="80"
       x1="56">
      <stop
         id="stop6085"
         stop-color="#d5d5d5"
         offset="0" />
      <stop
         id="stop6087"
         stop-color="#e3e3e3"
         offset="1" />
    </linearGradient>
    <linearGradient
       id="linearGradient6525"
       y2="30.013"
       gradientUnits="userSpaceOnUse"
       x2="-15.63"
       gradientTransform="matrix(2.3438,0,0,2.3458,91.681,-10.007)"
       y1="14.381"
       x1="-26.434">
      <stop
         id="stop6701-7"
         stop-color="#f7a164"
         offset="0" />
      <stop
         id="stop6295"
         stop-color="#e11c26"
         offset="1" />
    </linearGradient>
    <linearGradient
       id="linearGradient6527"
       y2="30.07"
       gradientUnits="userSpaceOnUse"
       x2="-8.7596"
       gradientTransform="matrix(2.3438,0,0,2.3458,91.681,-10.007)"
       y1="21.995"
       x1="-19.536">
      <stop
         id="stop6713-9"
         stop-color="#8badea"
         offset="0" />
      <stop
         id="stop6715-2"
         stop-color="#3b7caf"
         offset="1" />
    </linearGradient>
    <linearGradient
       id="linearGradient6529"
       y2="25.015"
       gradientUnits="userSpaceOnUse"
       x2="-20.822"
       gradientTransform="matrix(2.3438,0,0,2.3458,91.681,-10.007)"
       y1="30.828"
       x1="-17.863">
      <stop
         id="stop6721-4"
         stop-color="#8cab2a"
         offset="0" />
      <stop
         id="stop6723-4"
         stop-color="#d7e866"
         offset="1" />
    </linearGradient>
    <linearGradient
       id="linearGradient6533"
       y2="18.75"
       gradientUnits="userSpaceOnUse"
       x2="-19.5"
       y1="29"
       x1="-20.75">
      <stop
         id="stop6689-7"
         stop-color="#fff"
         offset="0" />
      <stop
         id="stop6691-6"
         stop-color="#fff"
         stop-opacity="0"
         offset="1" />
    </linearGradient>
    <linearGradient
       id="linearGradient6540"
       y2="5"
       gradientUnits="userSpaceOnUse"
       x2="19"
       gradientTransform="translate(-978.55,17.483)"
       y1="5"
       x1="17">
      <stop
         id="stop6793"
         offset="0" />
      <stop
         id="stop6795"
         stop-opacity="0"
         offset="1" />
    </linearGradient>
    <linearGradient
       id="linearGradient6544"
       y2="2"
       gradientUnits="userSpaceOnUse"
       x2="22"
       gradientTransform="translate(4.4825,955.55)"
       y1="22"
       x1="22">
      <stop
         id="stop6741"
         stop-color="#ebebeb"
         offset="0" />
      <stop
         id="stop6743"
         stop-color="#fafafa"
         offset="1" />
    </linearGradient>
    <linearGradient
       id="linearGradient6635"
       y2="81.157"
       gradientUnits="userSpaceOnUse"
       x2="80.129"
       y1="-22.843"
       x1="20.085">
      <stop
         id="stop6002"
         offset="0" />
      <stop
         id="stop6004"
         stop-opacity="0"
         offset="1" />
    </linearGradient>
    <linearGradient
       inkscape:collect="always"
       xlink:href="#linearGradient3700-0"
       id="linearGradient3850"
       gradientUnits="userSpaceOnUse"
       gradientTransform="translate(101.91,941.34)"
       x1="48"
       y1="90"
       x2="48"
       y2="5.9877" />
    <linearGradient
       inkscape:collect="always"
       xlink:href="#linearGradient6510"
       id="linearGradient3852"
       gradientUnits="userSpaceOnUse"
       x1="48"
       y1="90"
       x2="48"
       y2="5.9877" />
    <linearGradient
       inkscape:collect="always"
       xlink:href="#linearGradient6512"
       id="linearGradient3854"
       gradientUnits="userSpaceOnUse"
       x1="36.357"
       y1="6"
       x2="36.357"
       y2="63.893" />
    <radialGradient
       inkscape:collect="always"
       xlink:href="#radialGradient6514"
       id="radialGradient3856"
       gradientUnits="userSpaceOnUse"
       gradientTransform="matrix(1.1573,0,0,0.99591,-7.551,0.19713)"
       cx="48"
       cy="90.172"
       r="42" />
    <linearGradient
       inkscape:collect="always"
       xlink:href="#linearGradient6510"
       id="linearGradient3858"
       gradientUnits="userSpaceOnUse"
       x1="48"
       y1="90"
       x2="48"
       y2="5.9877" />
    <linearGradient
       inkscape:collect="always"
       xlink:href="#linearGradient6512"
       id="linearGradient3860"
       gradientUnits="userSpaceOnUse"
       x1="36.357"
       y1="6"
       x2="36.357"
       y2="63.893" />
    <radialGradient
       inkscape:collect="always"
       xlink:href="#radialGradient6514"
       id="radialGradient3862"
       gradientUnits="userSpaceOnUse"
       gradientTransform="matrix(1.1573,0,0,0.99591,-7.551,0.19713)"
       cx="48"
       cy="90.172"
       r="42" />
    <linearGradient
       inkscape:collect="always"
       xlink:href="#linearGradient6540"
       id="linearGradient3865"
       gradientUnits="userSpaceOnUse"
       gradientTransform="matrix(1.0931385,0,0,1.0856124,-23.459674,18.307378)"
       x1="17"
       y1="5"
       x2="19"
       y2="5" />
    <linearGradient
       inkscape:collect="always"
       xlink:href="#linearGradient6544"
       id="linearGradient3869"
       gradientUnits="userSpaceOnUse"
       gradientTransform="matrix(1.0856124,0,0,1.0931385,4.1938736,-1.6825089)"
       x1="22"
       y1="22"
       x2="22"
       y2="2" />
    <linearGradient
       inkscape:collect="always"
       xlink:href="#linearGradient3700-0"
       id="linearGradient3961"
       gradientUnits="userSpaceOnUse"
       gradientTransform="translate(101.91,-15.02)"
       x1="48"
       y1="90"
       x2="48"
       y2="5.9877" />
    <linearGradient
       inkscape:collect="always"
       xlink:href="#linearGradient3700-0"
       id="linearGradient3964"
       gradientUnits="userSpaceOnUse"
       gradientTransform="translate(101.91,-15.02)"
       x1="48"
       y1="90"
       x2="48"
       y2="5.9877" />
    <linearGradient
       inkscape:collect="always"
       xlink:href="#linearGradient6510"
       id="linearGradient3972"
       gradientUnits="userSpaceOnUse"
       x1="48"
       y1="90"
       x2="48"
       y2="5.9877" />
    <linearGradient
       inkscape:collect="always"
       xlink:href="#linearGradient6512"
       id="linearGradient3974"
       gradientUnits="userSpaceOnUse"
       x1="36.357"
       y1="6"
       x2="36.357"
       y2="63.893" />
    <radialGradient
       inkscape:collect="always"
       xlink:href="#radialGradient6514"
       id="radialGradient3976"
       gradientUnits="userSpaceOnUse"
       gradientTransform="matrix(1.1573,0,0,0.99591,-7.551,0.19713)"
       cx="48"
       cy="90.172"
       r="42" />
    <linearGradient
       inkscape:collect="always"
       xlink:href="#linearGradient6525"
       id="linearGradient3978"
       gradientUnits="userSpaceOnUse"
       gradientTransform="matrix(2.3438,0,0,2.3458,91.681,-10.007)"
       x1="-26.434"
       y1="14.381"
       x2="-15.63"
       y2="30.013" />
    <linearGradient
       inkscape:collect="always"
       xlink:href="#linearGradient6527"
       id="linearGradient3980"
       gradientUnits="userSpaceOnUse"
       gradientTransform="matrix(2.3438,0,0,2.3458,91.681,-10.007)"
       x1="-19.536"
       y1="21.995"
       x2="-8.7596"
       y2="30.07" />
    <linearGradient
       inkscape:collect="always"
       xlink:href="#linearGradient6529"
       id="linearGradient3982"
       gradientUnits="userSpaceOnUse"
       gradientTransform="matrix(2.3438,0,0,2.3458,91.681,-10.007)"
       x1="-17.863"
       y1="30.828"
       x2="-20.822"
       y2="25.015" />
    <linearGradient
       inkscape:collect="always"
       xlink:href="#linearGradient6533"
       id="linearGradient3984"
       gradientUnits="userSpaceOnUse"
       x1="-20.75"
       y1="29"
       x2="-19.5"
       y2="18.75" />
    <linearGradient
       inkscape:collect="always"
       xlink:href="#linearGradient6510"
       id="linearGradient3986"
       gradientUnits="userSpaceOnUse"
       x1="48"
       y1="90"
       x2="48"
       y2="5.9877" />
    <linearGradient
       inkscape:collect="always"
       xlink:href="#linearGradient6512"
       id="linearGradient3988"
       gradientUnits="userSpaceOnUse"
       x1="36.357"
       y1="6"
       x2="36.357"
       y2="63.893" />
    <radialGradient
       inkscape:collect="always"
       xlink:href="#radialGradient6514"
       id="radialGradient3990"
       gradientUnits="userSpaceOnUse"
       gradientTransform="matrix(1.1573,0,0,0.99591,-7.551,0.19713)"
       cx="48"
       cy="90.172"
       r="42" />
    <linearGradient
       inkscape:collect="always"
       xlink:href="#linearGradient6516"
       id="linearGradient3992"
       gradientUnits="userSpaceOnUse"
       gradientTransform="translate(-19,0)"
       x1="56"
       y1="80"
       x2="56"
       y2="16" />
  </defs>
  <metadata
     id="metadata7">
    <rdf:RDF>
      <cc:Work
         rdf:about="">
        <dc:format>image/svg+xml</dc:format>
        <dc:type
           rdf:resource="http://purl.org/dc/dcmitype/StillImage" />
        <dc:title />
      </cc:Work>
    </rdf:RDF>
  </metadata>
  <rect
     style="fill-opacity:0.03921599"
     x="3.6078"
     y="3.6000221"
     width="88.762001"
     height="88.762001"
     ry="12.552"
     id="rect5261-6" />
  <rect
     style="fill-opacity:0.07843101"
     x="4.2157001"
     y="4.2100072"
     width="87.545998"
     height="87.545998"
     ry="12.38"
     id="rect5259-9" />
  <rect
     style="fill-opacity:0.15685999"
     x="4.8237"
     y="4.8199925"
     width="86.330002"
     height="86.330002"
     ry="12.208"
     id="rect5257-5" />
  <path
     style="fill:#f2f2f2"
     inkscape:connector-curvature="0"
     d="m 17.469,5.4062 c -6.668,0 -12.032,5.3948 -12.032,12.063 l 5e-4,61.031 c 0,5.418 3.5332,9.982 8.4375,11.5 h 68.187 c 4.715,-1.457 8.172,-5.734 8.438,-10.875 v -62.281 c -0.321,-6.377 -5.54,-11.438 -12,-11.438 l -61.031,2e-4 z"
     id="rect2419" />
  <path
     style="fill-opacity:0.23528999"
     inkscape:connector-curvature="0"
     d="m 5.4316,73.44 v 5.0663 c 0,6.668 5.3645,12.032 12.032,12.032 h 61.049 c 6.668,0 12.032,-5.3645 12.032,-12.032 V 73.44 c 0,6.6681 -5.3645,12.032 -12.032,12.032 h -61.049 c -6.668,0 -12.032,-5.3643 -12.032,-12.032 z"
     id="rect5265-0" />
  <path
     style="fill-opacity:0.09803898"
     inkscape:connector-curvature="0"
     d="m 5.4316,77.54 v 1.0133 c 0,6.668 5.3645,12.032 12.032,12.032 h 61.049 c 6.668,0 12.032,-5.3645 12.032,-12.032 V 77.54 c 0,6.6681 -5.3645,12.032 -12.032,12.032 h -61.049 c -6.668,0 -12.032,-5.3644 -12.032,-12.032 z"
     id="path5252-0" />
  <rect
     style="fill:url(#linearGradient3964);display:none"
     x="107.91"
     y="-9.0199728"
     display="none"
     width="84"
     height="84"
     ry="6"
     rx="6"
     id="rect3873" />
  <rect
     style="fill:url(#linearGradient3961);display:none"
     x="107.91"
     y="-9.0199728"
     display="none"
     width="84"
     height="84"
     ry="6"
     rx="6"
     id="rect3880" />
  <path
     style="fill:#2c5aa0"
     inkscape:connector-curvature="0"
     d="m 32.292236,27.132619 h 8.292776 L 36.438624,16.313937 32.292236,27.132619 m -6.386006,8.243575 v -1.615221 h 1.982328 l 8.050576,-21.134739 h 2.542287 l 8.065775,21.134739 h 2.224528 v 1.615221 h -8.217109 v -1.615221 h 2.511999 L 41.175043,28.763035 H 31.6717 l -1.891571,4.997938 h 2.481819 v 1.615221 H 25.90623"
     id="text2412" />
  <g
     transform="matrix(1.0856124,0,0,1.0931385,4.1938736,-1.6825089)"
     id="layer4">
    <path
       style="opacity:0.05"
       inkscape:connector-curvature="0"
       transform="matrix(0.99144,-0.13053,0.13053,0.99144,0,0)"
       d="m 10.688,13.031 c -3.369,0 -6.125,2.756 -6.125,6.125 v 49.719 c 0,3.3669 2.7413,6.1562 6.125,6.1562 h 49.75 c 3.3837,0 6.125,-2.7894 6.125,-6.1562 V 19.156 c 0,-3.369 -2.756,-6.125 -6.125,-6.125 h -49.75 z"
       id="path6324" />
    <path
       style="opacity:0.15"
       inkscape:connector-curvature="0"
       transform="matrix(0.99144,-0.13053,0.13053,0.99144,0,0)"
       d="m 10.688,14.188 c -2.7447,0 -4.9688,2.2241 -4.9688,4.9688 v 49.719 c 0,2.7447 2.2164,5 4.9688,5 h 49.75 c 2.7524,0 4.9688,-2.2553 4.9688,-5 v -49.719 c 0,-2.7447 -2.2241,-4.9688 -4.9688,-4.9688 h -49.75 z"
       id="path6320" />
    <rect
       style="opacity:0.3"
       x="6.5581999"
       y="15.018"
       width="58.007"
       height="58.007"
       ry="4.1434002"
       rx="4.1434002"
       transform="matrix(0.99144,-0.13053,0.13053,0.99144,0,0)"
       id="rect6203" />
    <g
       transform="matrix(0.68466,-0.090137,0.090137,0.68466,3.8136,9.4668)"
       id="g6158">
      <rect
         style="fill:url(#linearGradient3986)"
         x="6"
         y="6"
         width="84"
         height="84"
         ry="6"
         rx="6"
         id="rect2419-8" />
      <path
         inkscape:connector-curvature="0"
         style="opacity:0.5;fill:url(#linearGradient3988)"
         d="M 12,6 C 8.676,6 6,8.676 6,12 v 2 68 2 c 0,0.33472 0.04135,0.6507 0.09375,0.96875 0.0487,0.2956 0.09704,0.59692 0.1875,0.875 0.0099,0.03038 0.02089,0.0636 0.03125,0.09375 0.09886,0.28777 0.23488,0.54745 0.375,0.8125 0.14459,0.27351 0.31562,0.53562 0.5,0.78125 0.18438,0.24564 0.37378,0.47347 0.59375,0.6875 0.43995,0.42806 0.94291,0.81453 1.5,1.0938 0.27854,0.13961 0.57347,0.24695 0.875,0.34375 -0.2562,-0.10022 -0.48671,-0.23627 -0.71875,-0.375 -0.0074,-0.0044 -0.02387,0.0045 -0.03125,0 C 9.37432,89.262 9.34396,89.23879 9.3125,89.2188 9.1921,89.1421 9.08148,89.05529 8.96875,88.9688 8.86258,88.888 8.75547,88.80769 8.65625,88.7188 c -0.1778,-0.162 -0.3473,-0.346 -0.4999,-0.531 -0.1075,-0.131 -0.2183,-0.266 -0.3124,-0.407 -0.0251,-0.038 -0.0385,-0.086 -0.0626,-0.125 -0.0647,-0.103 -0.1302,-0.204 -0.1874,-0.312 -0.1011,-0.195 -0.2057,-0.416 -0.2813,-0.625 -0.008,-0.022 -0.0236,-0.041 -0.0313,-0.063 -0.0318,-0.092 -0.0358,-0.187 -0.0624,-0.281 -0.0304,-0.107 -0.0704,-0.203 -0.0938,-0.313 -0.0729,-0.341 -0.125,-0.698 -0.125,-1.062 v -2 -68 -2 c 0,-2.782 2.2182,-5 5,-5 h 2 68 2 c 2.7818,0 5,2.2182 5,5 v 2 68 2 c 0,0.3643 -0.05212,0.72099 -0.125,1.0625 -0.04415,0.20689 -0.08838,0.39766 -0.15625,0.59375 -0.0077,0.02195 -0.0233,0.04069 -0.03125,0.0625 -0.06274,0.17374 -0.13838,0.36745 -0.21875,0.53125 -0.04158,0.0828 -0.07904,0.16995 -0.125,0.25 -0.0546,0.09721 -0.12677,0.18835 -0.1875,0.28125 -0.09411,0.14096 -0.20492,0.276 -0.3125,0.40625 -0.14317,0.17445 -0.30314,0.347 -0.46875,0.5 -0.01117,0.0102 -0.01998,0.02115 -0.03125,0.03125 -0.13839,0.12556 -0.28509,0.23444 -0.4375,0.34375 -0.10257,0.07315 -0.20432,0.15336 -0.3125,0.21875 -0.0074,0.0045 -0.02384,-0.0044 -0.03125,0 -0.23204,0.13873 -0.46255,0.27478 -0.71875,0.375 0.30153,-0.0968 0.59646,-0.20414 0.875,-0.34375 0.55709,-0.27922 1.0601,-0.66569 1.5,-1.0938 0.21997,-0.21403 0.40937,-0.44186 0.59375,-0.6875 0.18438,-0.24564 0.35541,-0.50774 0.5,-0.78125 0.14012,-0.26505 0.27614,-0.52473 0.375,-0.8125 0.01041,-0.03078 0.02133,-0.06274 0.03125,-0.09375 0.09046,-0.27808 0.1388,-0.5794 0.1875,-0.875 0.053,-0.318 0.094,-0.634 0.094,-0.969 v -2 -68 -2 c 0,-3.324 -2.676,-6 -6,-6 h -72 z"
         id="rect3728-9" />
      <path
         inkscape:connector-curvature="0"
         style="opacity:0.4;fill:url(#radialGradient3990)"
         d="M 12,90 C 8.676,90 6,87.324 6,84 V 82 14 12 c 0,-0.33472 0.04135,-0.6507 0.09375,-0.96875 0.0487,-0.2956 0.09704,-0.59692 0.1875,-0.875 0.0099,-0.03 0.0209,-0.063 0.0313,-0.094 0.0989,-0.2873 0.2349,-0.547 0.375,-0.812 0.1446,-0.2735 0.3156,-0.5356 0.5,-0.7812 0.1844,-0.2457 0.3738,-0.4735 0.5937,-0.6876 0.44,-0.428 0.943,-0.8145 1.5,-1.0937 0.2786,-0.1396 0.5735,-0.2469 0.8748,-0.3437 -0.256,0.1002 -0.4865,0.2362 -0.7185,0.375 -0.00741,0.0044 -0.023866,-0.0045 -0.03125,0 -0.031933,0.0193 -0.062293,0.04251 -0.09375,0.0625 -0.1204,0.0767 -0.23102,0.16351 -0.34375,0.25 -0.10617,0.0808 -0.21328,0.16111 -0.3125,0.25 -0.1779,0.1614 -0.3474,0.3453 -0.5,0.5312 -0.1075,0.1303 -0.2183,0.2653 -0.3124,0.4063 -0.0251,0.0383 -0.0385,0.0858 -0.0626,0.125 -0.0647,0.103 -0.1302,0.2045 -0.1874,0.3124 -0.1011,0.1948 -0.2057,0.4158 -0.2813,0.625 -0.008,0.0219 -0.0236,0.0406 -0.0313,0.0626 -0.0318,0.0919 -0.0358,0.1868 -0.0624,0.2812 -0.0304,0.1066 -0.0704,0.203 -0.0938,0.3125 -0.0729,0.3415 -0.125,0.6985 -0.125,1.0625 v 2 68 2 c 0,2.7818 2.2182,5 5,5 h 2 68 2 c 2.7818,0 5,-2.2182 5,-5 v -2 -68 -2 c 0,-0.364 -0.052,-0.721 -0.125,-1.0625 -0.044,-0.2069 -0.088,-0.3977 -0.156,-0.5937 -0.008,-0.022 -0.024,-0.0407 -0.031,-0.0626 -0.063,-0.1737 -0.139,-0.3674 -0.219,-0.5312 -0.042,-0.0828 -0.079,-0.17 -0.125,-0.25 -0.055,-0.0972 -0.127,-0.1884 -0.188,-0.2812 -0.094,-0.141 -0.205,-0.276 -0.312,-0.4063 -0.143,-0.1745 -0.303,-0.347 -0.469,-0.5 -0.011,-0.0102 -0.02,-0.0211 -0.031,-0.0313 -0.139,-0.1255 -0.285,-0.2344 -0.438,-0.3437 -0.102,-0.0731 -0.204,-0.1534 -0.312,-0.2187 -0.0074,-0.0045 -0.02384,0.0044 -0.03125,0 -0.23204,-0.13873 -0.46255,-0.27478 -0.71875,-0.375 0.30153,0.0968 0.59646,0.20414 0.875,0.34375 0.55709,0.27922 1.0601,0.66569 1.5,1.0938 0.21997,0.21403 0.40937,0.44186 0.59375,0.6875 0.18438,0.24564 0.35541,0.50774 0.5,0.78125 0.14012,0.26505 0.27614,0.52473 0.375,0.8125 0.01041,0.03078 0.02133,0.06274 0.03125,0.09375 0.09046,0.27808 0.1388,0.5794 0.1875,0.875 0.053,0.318 0.094,0.634 0.094,0.969 v 2 68 2 c 0,3.324 -2.676,6 -6,6 h -72 z"
         id="path3615-2" />
      <path
         inkscape:connector-curvature="0"
         d="m 14,16 v 7 57 h 8 V 24 l 61.989,-0.61107 v -8 L 21,15.99993 z"
         style="color:#000000;fill:url(#linearGradient3992)"
         id="rect6070" />
      <rect
         x="62.914001"
         y="38.964001"
         width="21"
         height="9"
         style="opacity:0.5;color:#000000;fill:#80d818"
         id="rect6095" />
      <rect
         x="62.914001"
         y="23.964001"
         width="21"
         height="15"
         style="opacity:0.2;color:#000000;fill:#80d818"
         id="rect6097" />
      <rect
         x="22"
         y="39"
         width="19"
         height="9"
         style="opacity:0.2;color:#000000;fill:#80d818"
         id="rect6099" />
      <path
         inkscape:connector-curvature="0"
         d="m 21,15 v 8 h -8 v 1 h 8 v 7 h -8 v 1 h 8 v 7 h -8 v 1 h 8 v 7 h -8 v 1 h 8 v 7 h -8 v 1 h 8 v 7 h -8 v 1 h 8 v 7 h -8 v 1 h 8 v 9 h 1 v -9 h 19 v 9 h 1 V 72 H 63 V 71 H 42 V 64 H 63 V 63 H 42 V 56 H 63 V 55 H 42 V 48 H 63 V 47 H 42 V 40 H 63 V 39 H 42 V 32 H 63 V 31 H 42 V 24 H 63 V 23 H 42 v -8 h -1 v 8 H 22 v -8 h -1 z m 1,9 h 19 v 7 H 22 v -7 z m 0,8 h 19 v 7 H 22 v -7 z m 0,8 h 19 v 7 H 22 v -7 z m 0,8 h 19 v 7 H 22 v -7 z m 0,8 h 19 v 7 H 22 v -7 z m 0,8 h 19 v 7 H 22 v -7 z"
         style="opacity:0.2;color:#000000"
         id="rect6029" />
      <path
         inkscape:connector-curvature="0"
         d="m 13,15 v 0.5 65 0.5 h 0.5 70 0.5 V 80.5 15.5 15 h -0.5 -70 z m 1,1 H 83 V 80 H 14 z"
         style="text-indent:0;text-transform:none;block-progression:tb;opacity:0.6;color:#000000;fill:#808080"
         id="rect6027" />
      <rect
         x="14"
         y="39"
         width="8"
         height="9"
         style="opacity:0.2;color:#000000;fill:#6e6e6e"
         id="rect6101" />
      <rect
         x="41"
         y="15"
         width="21"
         height="9"
         style="opacity:0.2;color:#000000;fill:#6e6e6e"
         id="rect6103" />
      <g
         style="fill:#4d4d4d"
         transform="translate(-19,0)"
         id="text6105">
        <path
           inkscape:connector-curvature="0"
           d="m 51.213,21 -0.24414,-0.70312 h -1.0488 l -0.244,0.703 h -0.57617 l 1.0039,-2.752 h 0.67969 l 1,2.752 h -0.57031 m -0.64453,-1.9277 c -0.01563,-0.04557 -0.03125,-0.09114 -0.04687,-0.13672 -0.01432,-0.04687 -0.02735,-0.08919 -0.03906,-0.12695 -0.01042,-0.03906 -0.01953,-0.07096 -0.02734,-0.0957 -0.0065,-0.02474 -0.01042,-0.03841 -0.01172,-0.04102 -0.0013,0.0039 -0.0052,0.01823 -0.01172,0.04297 -0.0065,0.02474 -0.01563,0.05599 -0.02734,0.09375 -0.01042,0.03776 -0.02344,0.08008 -0.03906,0.12695 -0.01432,0.04557 -0.0293,0.09115 -0.04492,0.13672 l -0.27148,0.79102 h 0.79102 l -0.27148,-0.79102"
           id="path6166" />
      </g>
      <g
         style="fill:#4d4d4d"
         transform="translate(-19,0)"
         id="text6109">
        <path
           inkscape:connector-curvature="0"
           d="m 71.707,20.215 c -2e-6,0.13932 -0.028,0.25912 -0.08398,0.35938 -0.05599,0.09896 -0.13282,0.18034 -0.23047,0.24414 -0.09636,0.0625 -0.20899,0.10872 -0.33789,0.13867 -0.129,0.029 -0.266,0.043 -0.41,0.043 h -1.377 v -2.752 h 1.2598 c 0.16276,3e-6 0.30729,0.01433 0.43359,0.04297 0.1276,0.02735 0.23502,0.06966 0.32227,0.12695 0.08724,0.05729 0.15299,0.12956 0.19727,0.2168 0.04557,0.08594 0.06836,0.1875 0.06836,0.30469 -2e-6,0.15625 -0.04362,0.28841 -0.13086,0.39648 -0.08594,0.10677 -0.21745,0.17904 -0.39453,0.2168 0.22266,0.02604 0.39192,0.09636 0.50781,0.21094 0.11718,0.11328 0.17578,0.26367 0.17578,0.45117 m -0.739,-1.197 c -2e-6,-0.1237 -0.03972,-0.21159 -0.11914,-0.26367 -0.07813,-0.05208 -0.19466,-0.07812 -0.34961,-0.07813 h -0.65625 v 0.68164 h 0.66016 c 0.16276,2e-6 0.2806,-0.02799 0.35352,-0.08398 0.07422,-0.05729 0.11133,-0.14258 0.11133,-0.25586 m 0.16016,1.1523 c -2e-6,-0.07292 -0.01432,-0.13411 -0.04297,-0.18359 -0.02865,-0.04948 -0.06836,-0.08919 -0.11914,-0.11914 -0.04948,-0.02995 -0.10808,-0.05143 -0.17578,-0.06445 -0.06641,-0.01302 -0.13867,-0.01953 -0.2168,-0.01953 h -0.73047 v 0.78906 h 0.75195 c 0.07552,0 0.14583,-0.0059 0.21094,-0.01758 0.0651,-0.01302 0.12109,-0.0345 0.16797,-0.06445 0.04818,-0.03125 0.08594,-0.07292 0.11328,-0.125 0.02734,-0.05208 0.04101,-0.11719 0.04102,-0.19531"
           id="path6163" />
      </g>
      <g
         style="fill:#4d4d4d"
         transform="translate(-19,0)"
         id="text6113">
        <path
           inkscape:connector-curvature="0"
           d="m 35.584,29 v -0.4082 h 0.68164 v -1.877 l -0.66016,0.41211 v -0.43164 l 0.68945,-0.44726 h 0.51953 v 2.3438 h 0.63086 v 0.4082 h -1.8613"
           id="path6142" />
      </g>
      <g
         style="fill:#4d4d4d"
         transform="translate(-19,0)"
         id="text6117">
        <path
           inkscape:connector-curvature="0"
           d="m 35.471,37 v -0.38086 c 0.0625,-0.13672 0.13867,-0.25976 0.22852,-0.36914 0.08984,-0.11068 0.18359,-0.21159 0.28125,-0.30273 0.09896,-0.09245 0.19661,-0.17773 0.29297,-0.25586 0.09766,-0.07943 0.1849,-0.1556 0.26172,-0.22852 0.07812,-0.07422 0.14128,-0.14844 0.18945,-0.22266 0.04818,-0.07422 0.07227,-0.15299 0.07227,-0.23633 -10e-7,-0.12239 -0.0306,-0.21289 -0.0918,-0.27148 -0.0612,-0.05859 -0.15104,-0.08789 -0.26953,-0.08789 -0.11719,3e-6 -0.20703,0.0319 -0.26953,0.0957 -0.0612,0.0625 -0.10091,0.1569 -0.11914,0.2832 l -0.55273,-0.03125 c 0.01302,-0.10807 0.03971,-0.20963 0.08008,-0.30469 0.04036,-0.09505 0.09766,-0.17838 0.17188,-0.25 0.07552,-0.07161 0.16927,-0.1276 0.28125,-0.16797 0.11328,-0.04166 0.24805,-0.0625 0.4043,-0.0625 0.14844,3e-6 0.27995,0.01758 0.39453,0.05273 0.11458,0.03386 0.21094,0.08399 0.28906,0.15039 0.07812,0.06641 0.13737,0.14779 0.17774,0.24414 0.04036,0.09505 0.06054,0.20378 0.06055,0.32617 -2e-6,0.12891 -0.02539,0.24544 -0.07617,0.34961 -0.05078,0.10417 -0.11589,0.20052 -0.19531,0.28906 -0.07943,0.08724 -0.16797,0.16927 -0.26562,0.24609 -0.09636,0.07682 -0.1901,0.15169 -0.28125,0.22461 -0.09115,0.07292 -0.17448,0.14648 -0.25,0.2207 -0.07422,0.07422 -0.12956,0.15365 -0.16602,0.23828 h 1.2773 v 0.45117 h -1.9258"
           id="path6145" />
      </g>
      <g
         style="fill:#4d4d4d"
         transform="translate(-19,0)"
         id="text6121">
        <path
           inkscape:connector-curvature="0"
           d="m 37.412,44.236 c -2e-6,0.125 -0.02083,0.23763 -0.0625,0.33789 -0.04037,0.09896 -0.10156,0.18359 -0.18359,0.25391 -0.08203,0.07031 -0.18425,0.12435 -0.30664,0.16211 -0.1211,0.03646 -0.26237,0.05469 -0.42383,0.05469 -0.17969,0 -0.33138,-0.02279 -0.45508,-0.06836 -0.1224,-0.04557 -0.22331,-0.10547 -0.30274,-0.17969 -0.07813,-0.07552 -0.13737,-0.16081 -0.17773,-0.25586 -0.03906,-0.09505 -0.06445,-0.19141 -0.07617,-0.28906 l 0.55859,-0.04883 c 0.0078,0.05859 0.02213,0.11263 0.04297,0.16211 0.02213,0.04818 0.05143,0.08984 0.08789,0.125 0.03646,0.03516 0.08073,0.0625 0.13281,0.08203 0.05338,0.01823 0.11588,0.02734 0.1875,0.02734 0.13151,10e-7 0.23372,-0.03255 0.30664,-0.09766 0.07292,-0.0651 0.10937,-0.16471 0.10938,-0.29883 -10e-7,-0.08203 -0.01758,-0.14779 -0.05273,-0.19727 -0.03386,-0.04948 -0.07747,-0.08724 -0.13086,-0.11328 -0.05208,-0.02734 -0.10873,-0.04557 -0.16992,-0.05469 -0.0612,-0.0091 -0.11914,-0.01367 -0.17383,-0.01367 h -0.19141 v -0.44336 h 0.17969 c 0.05469,2e-6 0.11002,-0.0052 0.16602,-0.01563 0.05729,-0.01042 0.10872,-0.02929 0.1543,-0.05664 0.04557,-0.02734 0.08268,-0.0651 0.11133,-0.11328 0.02864,-0.04948 0.04297,-0.11198 0.04297,-0.1875 -1e-6,-0.11328 -0.0319,-0.20182 -0.0957,-0.26562 -0.0625,-0.0651 -0.1543,-0.09765 -0.27539,-0.09766 -0.11328,3e-6 -0.20508,0.03125 -0.27539,0.09375 -0.06901,0.0625 -0.10872,0.15104 -0.11914,0.26562 L 35.47061,42.9645 c 0.01563,-0.1289 0.05078,-0.24088 0.10547,-0.33594 0.05599,-0.09505 0.12565,-0.17382 0.20898,-0.23633 0.08463,-0.0625 0.18164,-0.10872 0.29102,-0.13867 0.10937,-0.03125 0.22526,-0.04687 0.34766,-0.04687 0.16146,3e-6 0.30013,0.01953 0.41602,0.05859 0.11588,0.03907 0.21094,0.0918 0.28516,0.1582 0.07422,0.06641 0.1289,0.14388 0.16406,0.23242 0.03515,0.08854 0.05273,0.18294 0.05273,0.2832 -2e-6,0.08073 -0.01172,0.15625 -0.03516,0.22656 -0.02344,0.06901 -0.05925,0.13151 -0.10742,0.1875 -0.04688,0.05469 -0.10742,0.10222 -0.18164,0.14258 -0.07422,0.03906 -0.16211,0.06836 -0.26367,0.08789 v 0.0078 c 0.11328,0.01302 0.21159,0.03906 0.29492,0.07813 0.08333,0.03776 0.15169,0.08529 0.20508,0.14258 0.05338,0.05729 0.0931,0.1224 0.11914,0.19531 0.02604,0.07162 0.03906,0.14779 0.03906,0.22852"
           id="path6148" />
      </g>
      <g
         style="fill:#4d4d4d"
         transform="translate(-19,0)"
         id="text6125">
        <path
           inkscape:connector-curvature="0"
           d="m 37.168,52.439 v 0.56055 H 36.64456 V 52.439 h -1.252 v -0.41211 l 1.1621,-1.7793 h 0.61328 v 1.7832 h 0.36719 v 0.4082 h -0.36719 m -0.52344,-1.3086 c -10e-7,-0.02213 -10e-7,-0.05078 0,-0.08594 0.0013,-0.03646 0.0026,-0.07357 0.0039,-0.11133 0.0026,-0.03776 0.0046,-0.07357 0.0059,-0.10742 0.0026,-0.03515 0.0052,-0.0625 0.0078,-0.08203 -0.0065,0.01432 -0.01693,0.03516 -0.03125,0.0625 -0.01432,0.02604 -0.0306,0.05469 -0.04883,0.08594 -0.01693,0.02995 -0.03516,0.0599 -0.05469,0.08984 -0.01823,0.02995 -0.03451,0.05599 -0.04883,0.07813 l -0.63867,0.9707 h 0.80469 v -0.90039"
           id="path6151" />
      </g>
      <g
         style="fill:#4d4d4d"
         transform="translate(-19,0)"
         id="text6129">
        <path
           inkscape:connector-curvature="0"
           d="m 37.445,60.084 c -2e-6,0.13802 -0.02214,0.26563 -0.06641,0.38281 -0.04297,0.11589 -0.10742,0.2168 -0.19336,0.30273 -0.08594,0.08464 -0.19271,0.15104 -0.32031,0.19922 -0.1263,0.04687 -0.27279,0.07031 -0.43945,0.07031 -0.15365,0 -0.28776,-0.01823 -0.40234,-0.05469 -0.11458,-0.03776 -0.21159,-0.08919 -0.29102,-0.1543 -0.07813,-0.06641 -0.13997,-0.14388 -0.18555,-0.23242 -0.04427,-0.08854 -0.07487,-0.18359 -0.0918,-0.28516 l 0.54883,-0.04492 c 0.01042,0.04297 0.02474,0.08464 0.04297,0.125 0.01953,0.04037 0.04622,0.07617 0.08008,0.10742 0.03385,0.03125 0.07552,0.05664 0.125,0.07617 0.04948,0.01823 0.10937,0.02734 0.17969,0.02734 0.13672,0 0.24544,-0.04362 0.32617,-0.13086 0.08203,-0.08724 0.12305,-0.21289 0.12305,-0.37695 -10e-7,-0.07292 -0.01042,-0.13867 -0.03125,-0.19727 -0.01953,-0.05859 -0.04818,-0.10872 -0.08594,-0.15039 -0.03646,-0.04167 -0.08203,-0.07357 -0.13672,-0.0957 -0.05339,-0.02213 -0.11458,-0.0332 -0.18359,-0.0332 -0.09115,10e-7 -0.16602,0.01758 -0.22461,0.05273 -0.05859,0.03386 -0.10807,0.07552 -0.14844,0.125 h -0.53516 l 0.0957,-1.5488 h 1.6543 v 0.4082 h -1.1562 l -0.04492,0.69531 c 0.05469,-0.04818 0.1237,-0.08919 0.20703,-0.12305 0.08333,-0.03515 0.18034,-0.05273 0.29102,-0.05273 0.13542,2e-6 0.25651,0.02214 0.36328,0.06641 0.10677,0.04427 0.19726,0.10612 0.27148,0.18555 0.07422,0.07943 0.13086,0.17513 0.16992,0.28711 0.03906,0.11068 0.05859,0.23372 0.05859,0.36914"
           id="path6154" />
      </g>
      <g
         style="fill:#4d4d4d"
         transform="translate(-19,0)"
         id="text6133">
        <path
           inkscape:connector-curvature="0"
           d="m 37.412,68.1 c -2e-6,0.13802 -0.01953,0.26498 -0.05859,0.38086 -0.03907,0.11458 -0.09766,0.21354 -0.17578,0.29688 -0.07682,0.08203 -0.17318,0.14648 -0.28906,0.19336 -0.11589,0.04557 -0.25,0.06836 -0.40234,0.06836 -0.32422,0 -0.57357,-0.11328 -0.74805,-0.33984 -0.17318,-0.22786 -0.25977,-0.5651 -0.25976,-1.0117 -10e-7,-0.49088 0.08789,-0.86002 0.26367,-1.1074 0.17708,-0.2487 0.42969,-0.37304 0.75781,-0.37305 0.10937,3e-6 0.20898,0.01172 0.29883,0.03516 0.08984,0.02214 0.16992,0.0586 0.24023,0.10938 0.07031,0.05078 0.13021,0.11654 0.17969,0.19727 0.04948,0.07943 0.08919,0.17644 0.11914,0.29102 l -0.51758,0.07227 c -0.02604,-0.09635 -0.06836,-0.16536 -0.12695,-0.20703 -0.0586,-0.04297 -0.12695,-0.06445 -0.20508,-0.06445 -0.14714,2e-6 -0.26302,0.07357 -0.34766,0.2207 -0.08333,0.14714 -0.125,0.37044 -0.125,0.66992 0.05859,-0.09766 0.13997,-0.17252 0.24414,-0.22461 0.10416,-0.05208 0.222,-0.07812 0.35352,-0.07813 0.12109,10e-7 0.23047,0.02018 0.32812,0.06055 0.09896,0.03906 0.18294,0.09636 0.25195,0.17188 0.07031,0.07422 0.12435,0.16537 0.16211,0.27344 0.03776,0.10807 0.05664,0.22982 0.05664,0.36523 m -0.55078,0.01563 c -1e-6,-0.07422 -0.0085,-0.14062 -0.02539,-0.19922 -0.01693,-0.05989 -0.04297,-0.11068 -0.07813,-0.15234 -0.03386,-0.04167 -0.07617,-0.07357 -0.12695,-0.0957 -0.05078,-0.02344 -0.10938,-0.03516 -0.17578,-0.03516 -0.04818,2e-6 -0.09636,0.0078 -0.14453,0.02344 -0.04818,0.01563 -0.09115,0.04102 -0.12891,0.07617 -0.03776,0.03386 -0.06836,0.07748 -0.0918,0.13086 -0.02344,0.05339 -0.03516,0.11784 -0.03516,0.19336 0,0.07813 0.0098,0.15104 0.0293,0.21875 0.01953,0.06771 0.04687,0.12695 0.08203,0.17773 0.03646,0.04948 0.08008,0.08854 0.13086,0.11719 0.05078,0.02734 0.10807,0.04102 0.17188,0.04102 0.1237,10e-7 0.22005,-0.04362 0.28906,-0.13086 0.06901,-0.08854 0.10352,-0.21029 0.10352,-0.36524"
           id="path6157" />
      </g>
      <g
         style="fill:#4d4d4d"
         transform="translate(-19,0)"
         id="text6137">
        <path
           inkscape:connector-curvature="0"
           d="m 37.381,74.684 c -0.1237,0.19531 -0.24089,0.38477 -0.35156,0.56836 -0.10938,0.1836 -0.20508,0.36849 -0.28711,0.55469 -0.08203,0.1849 -0.14714,0.37565 -0.19531,0.57226 -0.047,0.195 -0.07,0.402 -0.07,0.621 h -0.573 c -1e-6,-0.21745 0.02539,-0.42383 0.07617,-0.61914 0.05208,-0.19661 0.1224,-0.38802 0.21094,-0.57422 0.08854,-0.1862 0.1914,-0.36979 0.30859,-0.55078 0.11719,-0.18229 0.24088,-0.36784 0.37109,-0.55664 h -1.3672 v -0.45117 h 1.877 v 0.43555"
           id="path6160" />
      </g>
      <path
         inkscape:connector-curvature="0"
         d="m 61.909,38.832 v 9 h 22 v -9 h -22 z m 1,1 h 20 v 7 h -20 v -7 z"
         style="opacity:0.5;color:#000000;fill:#569110"
         id="rect6168" />
      <path
         inkscape:connector-curvature="0"
         d="m 62,72 v 9 h 1 V 72 H 84 V 71 H 63 V 64 H 84 V 63 H 63 V 56 H 84 V 55 H 63 V 48 H 84 V 47 H 63 V 40 H 84 V 39 H 63 V 32 H 84 V 31 H 63 V 24 H 84 V 23 H 63 v -8 h -1 v 8 z m 0,-48 v 7 z m 0,8 v 7 z m 0,8 v 7 z m 0,8 v 7 z m 0,8 v 7 z m 0,8 v 7 z"
         style="opacity:0.2;color:#000000"
         id="path6152" />
      <text
         sodipodi:linespacing="125%"
         xml:space="preserve"
         x="72.235634"
         y="20.946873"
         font-size="3.7519px"
         font-weight="bold"
         line-height="125%"
         style="font-size:3.75189996px;font-weight:bold;line-height:125%;letter-spacing:0px;word-spacing:0px;fill:#4d4d4d;font-family:Sans"
         id="text6154"><tspan
           x="72.235634"
           y="20.946873"
           id="tspan6156">C</tspan></text>
    </g>
  </g>
  <g
     transform="matrix(1.0856124,0,0,1.0931385,4.1938736,-1.6825089)"
     id="layer5">
    <path
       style="opacity:0.05"
       inkscape:connector-curvature="0"
       d="M 48.844,0.59375 C 48.607,0.60823 48.233,0.62904 47.781,0.75 L 7.375,11.594 C 5.5936,12.071 4.405,13.481 3.8438,15.062 3.8312,15.098 3.7931,15.121 3.7812,15.156 3.745,15.193 3.7089,15.221 3.6875,15.25 3.6983,15.234 3.7369,15.235 3.75,15.219 c -0.02,0.062 -0.1073,0.093 -0.125,0.156 -0.00267,0.0053 -0.028792,-0.0051 -0.03125,0 -0.026624,0.0556 -0.020322,0.08732 -0.03125,0.125 -0.0045,0.0154 0.00414,0.01436 0,0.03125 -0.00274,0.01061 -0.029042,0.02179 -0.03125,0.03125 -0.00502,0.02099 0.00483,0.06518 0,0.09375 -0.005,0.03 -0.0291,0.053 -0.0312,0.094 -6.547e-4,0.01315 1.601e-4,0.01674 0,0.03125 -2.199e-4,0.01994 -0.00186,0.04032 0,0.0625 -8.821e-4,0.0095 -5.173e-4,0.01749 0,0.03125 -0.00533,0.02295 -0.024707,0.06203 -0.03125,0.09375 -0.10893,0.27579 -0.055242,0.22011 -0.0625,0.28125 -9.1e-4,0.0094 0.00102,0.01817 0,0.03125 -3.175e-4,0.0041 3.792e-4,0.02541 0,0.03125 a 0.8948,0.8948 0 0 0 0,0.0625 c -0.0027,0.033 -0.0286,0.057 -0.0312,0.095 a 0.8948,0.8948 0 0 0 0,0.0625 c -0.00104,0.01863 6.717e-4,0.04684 0,0.0625 -0.00134,0.03133 -0.0078,-0.0061 0,0.125 -0.00271,0.05811 1.323e-4,0.14197 0,0.21875 -0.00363,0.02779 9.85e-4,0.04719 0,0.0625 0.00127,0.08123 -0.00855,0.12504 0,0.21875 h 0.03125 c 0.0043,0.02618 -0.00478,0.07693 0,0.125 0.02208,0.22345 0.030728,0.52313 0.125,0.875 a 0.8948,0.8948 0 0 0 0,0.03125 l 0.3125,1.0938 v 0.03125 l 5.0938,19.062 5.125,19.062 a 0.8948,0.8948 0 0 0 0,0.03125 l 0.313,1.094 c 0.0025,0.0094 -0.0026,0.0219 0,0.03125 0.04424,0.16109 0.12897,0.31596 0.1875,0.46875 0.0081,0.02103 0.02296,0.04162 0.03125,0.0625 0.0028,0.01331 -0.0017,0.02498 0,0.03125 0.04428,0.16711 0.04397,0.14356 0.0625,0.1875 0.009,0.02042 0.02207,0.04222 0.03125,0.0625 0.01301,0.02961 0.01447,0.05709 0.03125,0.09375 0.07436,0.15348 0.12746,0.19283 0.1875,0.28125 0.04473,0.06588 0.11194,0.20309 0.125,0.21875 0.01449,0.0233 0.01458,0.06814 0.03125,0.09375 l 0.032,-0.031 c 0.01365,0.01629 0.01609,0.01518 0.03125,0.03125 a 0.8948,0.8948 0 0 0 0.03125,0.0625 0.8948,0.8948 0 0 0 0.03125,0 c 0.03139,0.02867 0.03667,0.04074 0.0625,0.0625 0.0584,0.0492 0.15022,0.17105 0.125,0.15625 -0.0472,-0.02771 -0.12744,-0.0937 -0.1875,-0.15625 0.0063,0.01307 -0.002,0.02769 0,0.03125 0.0042,0.0059 0.02727,0.02433 0.03125,0.03125 0.01398,0.02428 0.04791,0.03965 0.0625,0.0625 0.0029,0.0034 -0.01149,0.01908 0,0.03125 0.0032,0.0034 0.01909,0.02025 0.03125,0.03125 0.01314,0.01459 0.03057,0.03058 0.03125,0.03125 0.04692,0.06492 0.05824,0.14031 0.125,0.21875 a 0.8948,0.8948 0 0 0 0.031,0.032 c 3.38e-4,3.53e-4 0.02583,-0.0054 0.03125,0 0.01919,0.02117 0.01556,0.04568 0.03125,0.0625 0.01457,0.01561 0.04847,0.01707 0.0625,0.03125 0.0151,0.01527 0.01391,0.04621 0.03125,0.0625 0.01269,0.01192 0.02992,0.036 0.0625,0.0625 0.01629,0.01325 0.09322,0.06217 0.09375,0.0625 0.02011,0.01089 0.16958,0.13448 0.0625,0.03125 0.0023,0.0025 0.01835,0.01671 0.03125,0.03125 -0.0026,-2.19e-4 0.03315,-7.22e-4 0.03125,0 a 0.8948,0.8948 0 0 0 0.062,0.031 c -0.01393,-0.01176 -0.06379,0.0033 -0.0625,0 0.0093,0.0097 0.03787,0.0088 0.0625,0.03125 0.01232,0.01124 0.0053,0.04224 0.03125,0.0625 0.02597,0.02026 0.15602,0.06238 0.15625,0.0625 1.2741,1.0742 3.0182,1.6683 4.8125,1.1875 l 40.406,-10.844 c 2.2607,-0.60576 3.7949,-2.5967 3.9688,-4.8125 0.0023,-0.01847 0.03048,-0.04703 0.03125,-0.0625 7.67e-4,-0.01547 0.03086,-0.04945 0.03125,-0.0625 1.68e-4,-0.0057 -2.51e-4,-0.02597 0,-0.03125 0.0071,-0.22314 -0.01638,-0.29368 -0.03125,-0.40625 -0.0011,-0.0086 0.001,-0.0239 0,-0.03125 -0.0021,-0.01469 0.0015,-0.05334 0,-0.0625 6e-6,-2.58e-4 8.9e-5,-0.0264 0,-0.03125 -3.56e-4,-0.01942 1.26e-4,-0.02694 0,-0.03125 0.001,-0.035 -0.028,-0.075 -0.031,-0.094 a 0.8948,0.8948 0 0 0 0,-0.125 c -0.022,-0.223 -0.031,-0.523 -0.125,-0.875 a 0.8948,0.8948 0 0 0 0,-0.03125 L 64.9382,43.876 v -0.03125 l -5.126,-19.032 -5.093,-19.093 a 0.8948,0.8948 0 0 0 0,-0.03125 L 54.4067,4.5947 c -0.0025,-0.00938 0.0026,-0.021897 0,-0.03125 C 54.33297,4.29498 54.2044,4.02849 54.0942,3.7822 V 3.75095 c -0.013,-0.0282 -0.021,-0.0403 -0.032,-0.0627 a 0.8948,0.8948 0 0 0 -0.031,-0.0625 c -0.0032,-0.01169 0.0028,-0.021958 0,-0.03125 a 0.8948,0.8948 0 0 0 0,-0.03125 c -0.008,-0.0159 -0.023,-0.0165 -0.031,-0.0314 -0.044,-0.0872 -0.085,-0.1538 -0.125,-0.2187 -0.018,-0.031 -0.041,-0.0891 -0.063,-0.125 -0.028,-0.0469 -0.056,-0.0993 -0.093,-0.1563 -0.205,-0.3155 -0.43,-0.511 -0.563,-0.6562 -0.11,-0.1187 -0.248,-0.2284 -0.375,-0.3438 0,-10e-5 -0.039,-0.0345 -0.062,-0.0624 -0.057,-0.0495 -0.097,-0.1089 -0.157,-0.1563 V 1.7819 c 0,0 -0.024,-0.028 -0.031,-0.0312 -1.015,-0.79542 -2.333,-1.2389 -3.687,-1.1562 z m -33.688,59.625 c -0.0035,-0.0043 -0.02892,0.0035 -0.03125,0 0.01042,0.01548 0.02285,0.0187 0.03125,0.03125 -0.0038,-0.0044 0.003,-0.02745 0,-0.03125 z m 50.094,-13.094 c -0.02907,0.05348 -0.0086,0.06385 -0.0625,0.125 -0.18385,0.20864 -0.47421,0.27122 -0.40625,0.25 0.05928,-0.01851 0.32432,-0.19138 0.46875,-0.375 z m -49.719,13.281 a 0.8948,0.8948 0 0 0 0.09375,0 c -0.01205,0.02276 -0.02238,0.04575 -0.03125,0.0625 -0.02457,0.03893 -0.05554,0.11398 -0.0625,0.125 7.8e-5,4.1e-5 -0.06179,-0.042 -0.09375,-0.0625 0.0093,-0.0115 0.05921,-0.08235 0.09375,-0.125 z"
       id="path6693" />
    <path
       style="opacity:0.1"
       inkscape:connector-curvature="0"
       d="M 48.906,1.5 C 48.664,1.5148 48.346,1.5322 48,1.625 L 7.594,12.469 C 5.9726,12.903 4.8596,14.193 4.4688,15.688 4.4627,15.71 4.4432,15.727 4.4375,15.75 4.4283,15.782 4.4146,15.746 4.4062,15.781 c -0.010206,0.04268 0.00539,0.0286 0,0.0625 -0.014871,0.06547 0.00433,0.04699 0,0.09375 -0.00126,0.01504 3.405e-4,0.01894 0,0.03125 -3.198e-4,0.0013 -0.030917,-0.0013 -0.03125,0 -0.01655,0.06649 -0.042062,0.15943 -0.0625,0.34375 -0.012123,0.11275 -3.55e-4,0.02433 0,0.03125 3.55e-4,0.0069 -0.00967,0.13032 0,0.03125 C 4.32066,16.2543 4.30251,16.22312 4.2812,16.531 c -0.010413,0.16027 -0.00587,0.17403 0,0.0625 -0.00697,0.13239 -0.019452,0.31797 0,0.53125 -0.012927,-0.14068 -0.023101,-0.10757 0,0.125 0.020715,0.20963 0.052186,0.47822 0.125,0.75 l 0.3125,1.125 5.0938,19.094 5.125,19.062 0.3125,1.125 c 0.06238,0.23278 0.14753,0.46115 0.25,0.6875 -0.07385,-0.1631 -0.0719,-0.13158 0.03125,0.09375 0.09965,0.20568 0.17154,0.29336 0.1875,0.3125 0.0019,0.0023 0.03125,0.03125 0.03125,0.03125 -0.006,-0.01346 -0.01521,0.0056 0.0625,0.125 0.01431,0.0271 0.02585,0.0081 0.0625,0.0625 0.15444,0.22936 0.1013,0.15869 0.0625,0.09375 -0.01509,-0.02526 0.0813,0.0986 0.03125,0.03125 -0.02378,-0.02063 -0.0072,0.05253 0.1875,0.28125 a 1.0316,1.0316 0 0 0 0.03125,0.03125 c 0.09206,0.10156 0.12065,0.12274 0.09375,0.09375 0.06484,0.06986 0.07421,0.05714 0.125,0.09375 0.02625,0.02656 0.06686,0.03657 0.09375,0.0625 0.02907,0.01589 0.08645,0.08994 0.09375,0.09375 1.0829,0.98804 2.6379,1.509 4.1875,1.0938 l 40.407,-10.844 c 1.9078,-0.51119 3.1896,-2.1898 3.3125,-4.0625 0.0062,-0.04803 0.02838,-0.0022 0.03125,-0.0625 0.01487,-0.28272 -0.02272,-0.43866 -0.03125,-0.5 0.0013,0.02171 -0.0014,-0.03985 0,-0.03125 0.0056,0.03442 0.01656,0.04658 0,-0.125 -0.02071,-0.20959 -0.05215,-0.47816 -0.125,-0.75 l -0.3125,-1.125 -5.125,-19.062 -5.094,-19.094 -0.313,-1.1255 c -0.062,-0.2328 -0.147,-0.4611 -0.25,-0.6875 -0.05,-0.1102 -0.072,-0.1457 -0.062,-0.125 a 1.0316,1.0316 0 0 0 0,-0.03125 c -0.128,-0.2571 -0.204,-0.3317 -0.157,-0.25 0.143,0.2437 0.14,0.1714 -0.093,-0.1876 -0.142,-0.2187 -0.319,-0.3977 -0.469,-0.5624 -0.151,-0.1625 -0.324,-0.3276 -0.5,-0.4688 -0.006,-0.0044 0.006,-0.0269 0,-0.0312 -0.0073,-0.00579 -0.02392,0.00574 -0.03125,0 C 51.118,1.8015 50.029,1.4305 48.906,1.499 z"
       id="path6689" />
    <path
       style="opacity:0.2"
       inkscape:connector-curvature="0"
       d="M 48.969,2.5312 C 48.737,2.5454 48.514,2.5625 48.281,2.625 L 7.875,13.469 C 6.5995,13.811 5.7299,14.806 5.4375,16 c -0.003,0.01217 -0.0284,0.01904 -0.03125,0.03125 -0.0022,0.0092 0.0021,0.02202 0,0.03125 -0.0044,0.01937 0.0043,0.04321 0,0.0625 -0.02148,0.10431 -0.05067,0.20581 -0.0625,0.3125 -0.0011,0.01023 0.001,0.021 0,0.03125 -0.0054,0.04108 -0.02834,0.08295 -0.03125,0.125 -0.0012,0.01847 9.76e-4,0.04397 0,0.0625 -0.0067,0.1272 -0.01191,0.24442 0,0.375 0.004,0.04353 -0.0043,0.08171 0,0.125 0.01841,0.1863 0.04344,0.37472 0.09375,0.5625 l 0.3125,1.125 5.0933,19.094 5.126,19.062 0.312,1.125 c 0.05032,0.18778 0.11029,0.3607 0.1875,0.53125 0.0138,0.03048 0.01726,0.06319 0.03125,0.09375 0.04452,0.09189 0.10452,0.16346 0.15625,0.25 0.01886,0.03344 0.04185,0.06198 0.0625,0.09375 0.01012,0.01555 0.02091,0.04714 0.03125,0.0625 0.01688,0.02507 0.04471,0.03856 0.0625,0.0625 0.05776,0.08104 0.09225,0.1748 0.15625,0.25 0.02975,0.03282 0.06337,0.06101 0.09375,0.09375 0.02571,0.0277 0.06695,0.03572 0.09375,0.0625 0.85034,0.87005 2.1116,1.3073 3.375,0.96875 l 40.406,-10.844 c 1.4833,-0.39746 2.4675,-1.6771 2.5625,-3.125 0.0012,-0.01883 0.03035,-0.04361 0.03125,-0.0625 0.0067,-0.12737 -0.01932,-0.24425 -0.03125,-0.375 -0.0025,-0.04132 0.004,-0.08355 0,-0.125 -0.019,-0.186 -0.044,-0.374 -0.094,-0.562 l -0.313,-1.125 -5.124,-19.063 -5.094,-19.093 -0.313,-1.1252 c -0.05,-0.1878 -0.11,-0.3607 -0.187,-0.5313 -0.019,-0.0417 -0.043,-0.0833 -0.063,-0.125 -0.034,-0.0678 -0.087,-0.1227 -0.125,-0.1875 -0.028,-0.0482 -0.032,-0.1098 -0.062,-0.1562 -0.103,-0.1589 -0.218,-0.2996 -0.344,-0.4376 -0.122,-0.1317 -0.266,-0.2649 -0.406,-0.375 -0.65858,-0.52241 -1.5031,-0.80321 -2.375,-0.75 z"
       id="rect6536" />
    <g
       transform="matrix(0.561,-0.15032,0.15032,0.561,0.24976,10.894)"
       id="g6478">
      <rect
         style="fill:url(#linearGradient3972)"
         x="6"
         y="6"
         width="84"
         height="84"
         ry="6"
         rx="6"
         id="rect2419-1" />
      <path
         inkscape:connector-curvature="0"
         style="opacity:0.5;fill:url(#linearGradient3974)"
         d="M 12,6 C 8.676,6 6,8.676 6,12 v 2 68 2 c 0,0.33472 0.04135,0.6507 0.09375,0.96875 0.0487,0.2956 0.09704,0.59692 0.1875,0.875 0.0099,0.03038 0.02089,0.0636 0.03125,0.09375 0.09886,0.28777 0.23488,0.54745 0.375,0.8125 0.14459,0.27351 0.31562,0.53562 0.5,0.78125 0.18438,0.24564 0.37378,0.47347 0.59375,0.6875 0.43995,0.42806 0.94291,0.81453 1.5,1.0938 0.27854,0.13961 0.57347,0.24695 0.875,0.34375 -0.2562,-0.10022 -0.48671,-0.23627 -0.71875,-0.375 -0.0074,-0.0044 -0.02387,0.0045 -0.03125,0 C 9.37432,89.262 9.34396,89.23879 9.3125,89.2188 9.1921,89.1421 9.08148,89.05529 8.96875,88.9688 8.86258,88.888 8.75547,88.80769 8.65625,88.7188 c -0.1778,-0.162 -0.3473,-0.346 -0.4999,-0.531 -0.1075,-0.131 -0.2183,-0.266 -0.3124,-0.407 -0.0251,-0.038 -0.0385,-0.086 -0.0626,-0.125 -0.0647,-0.103 -0.1302,-0.204 -0.1874,-0.312 -0.1011,-0.195 -0.2057,-0.416 -0.2813,-0.625 -0.008,-0.022 -0.0236,-0.041 -0.0313,-0.063 -0.0318,-0.092 -0.0358,-0.187 -0.0624,-0.281 -0.0304,-0.107 -0.0704,-0.203 -0.0938,-0.313 -0.0729,-0.341 -0.125,-0.698 -0.125,-1.062 v -2 -68 -2 c 0,-2.782 2.2182,-5 5,-5 h 2 68 2 c 2.7818,0 5,2.2182 5,5 v 2 68 2 c 0,0.3643 -0.05212,0.72099 -0.125,1.0625 -0.04415,0.20689 -0.08838,0.39766 -0.15625,0.59375 -0.0077,0.02195 -0.0233,0.04069 -0.03125,0.0625 -0.06274,0.17374 -0.13838,0.36745 -0.21875,0.53125 -0.04158,0.0828 -0.07904,0.16995 -0.125,0.25 -0.0546,0.09721 -0.12677,0.18835 -0.1875,0.28125 -0.09411,0.14096 -0.20492,0.276 -0.3125,0.40625 -0.14317,0.17445 -0.30314,0.347 -0.46875,0.5 -0.01117,0.0102 -0.01998,0.02115 -0.03125,0.03125 -0.13839,0.12556 -0.28509,0.23444 -0.4375,0.34375 -0.10257,0.07315 -0.20432,0.15336 -0.3125,0.21875 -0.0074,0.0045 -0.02384,-0.0044 -0.03125,0 -0.23204,0.13873 -0.46255,0.27478 -0.71875,0.375 0.30153,-0.0968 0.59646,-0.20414 0.875,-0.34375 0.55709,-0.27922 1.0601,-0.66569 1.5,-1.0938 0.21997,-0.21403 0.40937,-0.44186 0.59375,-0.6875 0.18438,-0.24564 0.35541,-0.50774 0.5,-0.78125 0.14012,-0.26505 0.27614,-0.52473 0.375,-0.8125 0.01041,-0.03078 0.02133,-0.06274 0.03125,-0.09375 0.09046,-0.27808 0.1388,-0.5794 0.1875,-0.875 0.053,-0.318 0.094,-0.634 0.094,-0.969 v -2 -68 -2 c 0,-3.324 -2.676,-6 -6,-6 h -72 z"
         id="rect3728-5" />
      <path
         inkscape:connector-curvature="0"
         style="opacity:0.4;fill:url(#radialGradient3976)"
         d="M 12,90 C 8.676,90 6,87.324 6,84 V 82 14 12 c 0,-0.33472 0.04135,-0.6507 0.09375,-0.96875 0.0487,-0.2956 0.09704,-0.59692 0.1875,-0.875 0.0099,-0.03 0.0209,-0.063 0.0313,-0.094 0.0989,-0.2873 0.2349,-0.547 0.375,-0.812 0.1446,-0.2735 0.3156,-0.5356 0.5,-0.7812 0.1844,-0.2457 0.3738,-0.4735 0.5937,-0.6876 0.44,-0.428 0.943,-0.8145 1.5,-1.0937 0.2786,-0.1396 0.5735,-0.2469 0.8748,-0.3437 -0.256,0.1002 -0.4865,0.2362 -0.7185,0.375 -0.00741,0.0044 -0.023866,-0.0045 -0.03125,0 -0.031933,0.0193 -0.062293,0.04251 -0.09375,0.0625 -0.1204,0.0767 -0.23102,0.16351 -0.34375,0.25 -0.10617,0.0808 -0.21328,0.16111 -0.3125,0.25 -0.1779,0.1614 -0.3474,0.3453 -0.5,0.5312 -0.1075,0.1303 -0.2183,0.2653 -0.3124,0.4063 -0.0251,0.0383 -0.0385,0.0858 -0.0626,0.125 -0.0647,0.103 -0.1302,0.2045 -0.1874,0.3124 -0.1011,0.1948 -0.2057,0.4158 -0.2813,0.625 -0.008,0.0219 -0.0236,0.0406 -0.0313,0.0626 -0.0318,0.0919 -0.0358,0.1868 -0.0624,0.2812 -0.0304,0.1066 -0.0704,0.203 -0.0938,0.3125 -0.0729,0.3415 -0.125,0.6985 -0.125,1.0625 v 2 68 2 c 0,2.7818 2.2182,5 5,5 h 2 68 2 c 2.7818,0 5,-2.2182 5,-5 v -2 -68 -2 c 0,-0.364 -0.052,-0.721 -0.125,-1.0625 -0.044,-0.2069 -0.088,-0.3977 -0.156,-0.5937 -0.008,-0.022 -0.024,-0.0407 -0.031,-0.0626 -0.063,-0.1737 -0.139,-0.3674 -0.219,-0.5312 -0.042,-0.0828 -0.079,-0.17 -0.125,-0.25 -0.055,-0.0972 -0.127,-0.1884 -0.188,-0.2812 -0.094,-0.141 -0.205,-0.276 -0.312,-0.4063 -0.143,-0.1745 -0.303,-0.347 -0.469,-0.5 -0.011,-0.0102 -0.02,-0.0211 -0.031,-0.0313 -0.139,-0.1255 -0.285,-0.2344 -0.438,-0.3437 -0.102,-0.0731 -0.204,-0.1534 -0.312,-0.2187 -0.0074,-0.0045 -0.02384,0.0044 -0.03125,0 -0.23204,-0.13873 -0.46255,-0.27478 -0.71875,-0.375 0.30153,0.0968 0.59646,0.20414 0.875,0.34375 0.55709,0.27922 1.0601,0.66569 1.5,1.0938 0.21997,0.21403 0.40937,0.44186 0.59375,0.6875 0.18438,0.24564 0.35541,0.50774 0.5,0.78125 0.14012,0.26505 0.27614,0.52473 0.375,0.8125 0.01041,0.03078 0.02133,0.06274 0.03125,0.09375 0.09046,0.27808 0.1388,0.5794 0.1875,0.875 0.053,0.318 0.094,0.634 0.094,0.969 v 2 68 2 c 0,3.324 -2.676,6 -6,6 h -72 z"
         id="path3615-0" />
      <path
         style="opacity:0.05"
         inkscape:connector-curvature="0"
         transform="matrix(1.1745,0,0,1.1755,-27.168,-32.468)"
         d="m 64,50.938 c -7.0005,0 -13.373,1.8561 -18.125,5 -4.7563,3.1468 -7.9688,7.7313 -7.9688,12.969 v 4.125 c 0,4.5561 2.4359,8.6309 6.1875,11.656 3.5839,2.8901 8.459,4.8387 13.875,5.7188 0.04558,0.02528 0.09512,0.06319 0.09375,0.0625 -0.0022,-0.0011 0.15856,0.06342 0.15625,0.0625 -0.0023,-9.22e-4 0.15862,0.06323 0.15625,0.0625 -0.0024,-7.25e-4 0.18993,0.03177 0.1875,0.03125 3.9273,0.7684 9.6975,0.71965 14,-0.625 0.03724,-0.01164 0.08798,0.01184 0.125,0 0.03384,-0.0059 0.0226,0.01003 0.0625,0 0.38446,-0.09667 0.75922,-0.19863 1.1562,-0.3125 0.01186,-0.0033 0.01987,0.0033 0.03125,0 0.10245,-0.02949 0.18772,-0.07119 0.25,-0.09375 0.0346,-0.01253 0.07731,-0.0248 0.09375,-0.03125 0.02947,-0.0083 0.0675,-0.02302 0.09375,-0.03125 0.0525,-0.01647 0.09228,-0.0188 0.1875,-0.0625 0.33683,-0.10302 0.6611,-0.22783 1,-0.34375 a 1.0935,1.0935 0 0 0 0.09375,-0.03125 c 0.032,-0.012 0.062,-0.022 0.094,-0.033 a 1.0935,1.0935 0 0 0 0.03125,0 c 0.16059,-0.05553 0.29599,-0.09667 0.375,-0.125 0.37338,-0.13405 0.73017,-0.27767 1.125,-0.4375 0.34163,-0.13673 0.66219,-0.27157 0.96875,-0.40625 0.16346,-0.07299 0.31298,-0.12844 0.4375,-0.1875 0.01826,-0.0087 0.04527,-0.02313 0.0625,-0.03125 0.0036,-0.0013 0.03116,4.4e-5 0.03125,0 0.4945,-0.22829 0.97979,-0.4887 1.4688,-0.75 a 1.0935,1.0935 0 0 0 0.03125,0 c 0.05017,-0.02736 0.0851,-0.07047 0.125,-0.09375 0.01773,-0.01035 0.04567,-0.021 0.0625,-0.03125 2.8377,-1.5489 5.353,-3.5831 7.125,-6.2188 h 0.03125 c 0.0043,-0.0065 -0.0043,-0.02476 0,-0.03125 0.2158,-0.31666 0.38085,-0.58227 0.5,-0.78125 a 1.0935,1.0935 0 0 0 0,-0.03125 c 0.0067,-0.01161 0.05248,-0.04582 0.0625,-0.0625 A 1.0935,1.0935 0 0 0 88.21895,79.78 c 0.04494,-0.07483 0.09223,-0.13279 0.15625,-0.25 0.0089,-0.01623 -0.0078,-0.01517 0,-0.03125 0.16127,-0.29329 0.32253,-0.59085 0.46875,-0.90625 a 1.0935,1.0935 0 0 0 0,-0.0625 1.0935,1.0935 0 0 0 0.03125,-0.0625 c 0.0035,-0.0075 -0.0035,-0.02372 0,-0.03125 0.0026,-0.007 -0.0027,-0.02357 0,-0.03125 a 1.0935,1.0935 0 0 0 0.031,-0.029 c 0.0033,-0.01174 -0.0032,-0.0183 0,-0.03125 0.0021,-0.0083 -0.002,-0.0224 0,-0.03125 0.0051,-0.01093 0.02606,-0.02022 0.03125,-0.03125 0.16752,-0.35585 0.34324,-0.74176 0.5,-1.2188 -0.0027,0.0084 0.03117,-0.08923 0.0625,-0.1875 0.0089,-0.02807 -0.0061,-0.03406 0,-0.0625 0.0042,-0.01375 -0.0035,-0.0172 0,-0.03125 0.25386,-0.83226 0.44787,-1.7132 0.53125,-2.625 0.0098,-0.03676 0.02506,-0.06247 0.03125,-0.09375 0.01631,-0.19725 0.01162,-0.214 0,-0.0625 0.0075,-0.04796 0.02637,-0.10606 0.03125,-0.15625 a 1.0935,1.0935 0 0 0 0,-0.03125 c -9.2e-5,0.002 -3.9e-5,-0.09874 0,-0.15625 v -0.0625 -0.5625 -4.125 c 0,-5.2374 -3.2126,-9.822 -7.9688,-12.969 -4.7518,-3.1439 -11.124,-5 -18.125,-5 z m 24.75,26.5 c 0.02018,0.028 0.03146,0.06284 0.03125,0.0625 -0.015,-0.024 -0.013,-0.035 -0.031,-0.062 z"
         id="path4134" />
      <path
         style="opacity:0.1"
         inkscape:connector-curvature="0"
         transform="matrix(1.1745,0,0,1.1755,-27.168,-32.468)"
         d="m 64,52.031 c -6.8068,0 -12.992,1.8093 -17.531,4.8125 -4.54,3.003 -7.469,7.27 -7.469,12.062 v 4.125 c 0,4.1676 2.2211,7.9415 5.7812,10.812 3.4662,2.7952 8.2621,4.7342 13.656,5.5625 0.01315,0.002 0.01809,0.02925 0.03125,0.03125 a 1.0049,1.0049 0 0 0 0.3125,0.125 c 3.7614,0.73594 9.5904,0.68157 13.625,-0.625 0.01926,-0.0048 0.04323,0.0048 0.0625,0 0.38126,-0.09586 0.75847,-0.1981 1.1562,-0.3125 0.18426,-0.0515 0.26721,-0.08968 0.28125,-0.09375 0.22904,-0.06794 0.27555,-0.0985 0.15625,-0.0625 0.4385,-0.12969 0.88258,-0.27823 1.3438,-0.4375 a 1.0049,1.0049 0 0 0 0.03125,0 c 0.13915,-0.04812 0.24344,-0.08903 0.34375,-0.125 0.37837,-0.13584 0.72951,-0.2588 1.0938,-0.40625 0.30618,-0.12254 0.61976,-0.26666 0.9375,-0.40625 0.16792,-0.07498 0.3266,-0.15174 0.46875,-0.21875 0.0082,-0.0038 0.02303,0.0038 0.03125,0 0.47048,-0.2172 0.96464,-0.46606 1.4375,-0.71875 0.24869,-0.13563 0.23331,-0.14801 0.125,-0.09375 0.0077,-0.0042 0.02353,0.0042 0.03125,0 2.7546,-1.498 5.1571,-3.4287 6.8125,-5.9062 0.19959,-0.29066 0.33871,-0.53284 0.46875,-0.75 a 1.0049,1.0049 0 0 0 0,-0.03125 c 0.05571,-0.09597 0.13353,-0.21897 0.21875,-0.375 0.0054,-0.0099 -0.0055,-0.02108 0,-0.03125 0.15852,-0.28828 0.31116,-0.57123 0.4375,-0.84375 a 1.0049,1.0049 0 0 0 0,-0.03125 c 0.0095,-0.02126 -0.008,-0.01122 0,-0.03125 0.0098,-0.02191 -0.0082,-0.01072 0,-0.03125 0.19521,-0.42545 0.41124,-0.85223 0.5625,-1.3125 0.01041,-0.03204 0.03769,-0.1097 0.0625,-0.1875 0.0038,-0.01184 -0.004,-0.01838 0,-0.03125 0.24733,-0.80494 0.42842,-1.6656 0.5,-2.5312 0.0017,-0.0206 -0.0016,-0.04187 0,-0.0625 0.007,-0.01 0.02,-0.021 0.033,-0.156 a 1.0049,1.0049 0 0 0 0,-0.09375 v -0.625 -4.125 c 0,-4.791 -2.93,-9.059 -7.469,-12.062 -4.539,-3.003 -10.724,-4.813 -17.531,-4.813 z"
         id="path4136" />
      <path
         style="opacity:0.2"
         inkscape:connector-curvature="0"
         d="m 48,29.872 c -15.567,0 -28.188,8.3614 -28.188,18.661 v 4.849 c 0,8.9582 9.547,16.425 22.279,18.221 v 0.03674 c 4.1852,0.81957 11.084,0.74815 15.489,-0.69797 0.471,-0.11856 0.92953,-0.23345 1.3947,-0.36735 0.11346,-0.03173 0.21767,-0.07752 0.33033,-0.1102 0.0626,-0.0186 0.12101,-0.05459 0.18352,-0.07347 0.51997,-0.15392 1.0388,-0.30378 1.5415,-0.47756 0.13695,-0.0474 0.26764,-0.0981 0.40373,-0.14694 0.42895,-0.15414 0.83277,-0.30936 1.2479,-0.47756 0.35832,-0.14354 0.7139,-0.2867 1.0644,-0.44082 0.18622,-0.08323 0.36754,-0.17108 0.55055,-0.25714 0.55402,-0.25576 1.1218,-0.52481 1.6516,-0.80817 0.05473,-0.02988 0.09243,-0.08005 0.14681,-0.1102 3.1242,-1.6965 5.7831,-3.8577 7.5975,-6.5756 0.18949,-0.27621 0.34441,-0.5617 0.51384,-0.84491 0.08527,-0.14701 0.1765,-0.2909 0.25692,-0.44082 0.17144,-0.30976 0.33021,-0.6379 0.47714,-0.95511 0.0047,-0.01023 -0.0047,-0.02651 0,-0.03674 0.22097,-0.47997 0.42453,-0.97387 0.58725,-1.4694 0.02361,-0.07265 0.05086,-0.14718 0.07341,-0.22041 0.28158,-0.91039 0.47749,-1.8384 0.55054,-2.7919 0.0082,-0.07546 0.02936,-0.14443 0.03676,-0.22041 v -0.7347 -4.849 c 0,-10.3 -12.62,-18.661 -28.188,-18.661 z"
         id="path4138" />
      <path
         style="fill:#b82525"
         inkscape:connector-curvature="0"
         d="M 75.217,47.356 C 71.986,39.412 61.03,33.563 48.001,33.563 c -13.03,0 -23.985,5.8493 -27.217,13.794 h -0.97218 v 4.8557 c 0,10.298 12.622,18.646 28.189,18.646 15.568,0 28.187,-8.3476 28.187,-18.646 V 47.357 h -0.97068 z"
         id="path4140" />
      <path
         inkscape:connector-curvature="0"
         style="fill:url(#linearGradient3978)"
         d="m 76.188,47.356 c 0,10.3 -12.619,18.648 -28.187,18.648 -15.568,0 -28.189,-8.3476 -28.189,-18.648 0,-10.3004 12.622,-18.648 28.189,-18.648 15.568,0 28.187,8.3476 28.187,18.648 z"
         id="path4142" />
      <path
         style="fill:#39619a"
         inkscape:connector-curvature="0"
         d="m 76.188,52.938 -0.03606,-5.082 c -3.057,10.558 -9.93,15.031 -18.571,17.221 v 4.6785 c 9.353,-2.355 17.724,-7.715 18.607,-16.818 z"
         id="path4144" />
      <path
         inkscape:connector-curvature="0"
         style="fill:url(#linearGradient3980)"
         d="M 76.188,47.356 C 75.54239,59.271 60.818,64.705 57.528,64.912 L 47.9988,47.356 h 28.187 0.0012 z"
         id="path4146" />
      <path
         style="fill:#70851f"
         inkscape:connector-curvature="0"
         d="m 42.1,70.45 v -4.8541 c 5.3049,0.69142 10.172,0.81325 15.428,-0.50155 l 0.05262,4.6627 c -4.4049,1.4461 -11.296,1.5142 -15.481,0.69458 v -0.0015 z"
         id="path4148" />
      <path
         inkscape:connector-curvature="0"
         style="fill:url(#linearGradient3982)"
         d="m 47.999,47.358 9.5292,17.554 c -5.8346,2.2261 -15.428,0.6835 -15.428,0.6835 l 5.8993,-18.238 z"
         id="path4150" />
      <path
         inkscape:connector-curvature="0"
         transform="matrix(2.3658,0,0,2.3698,92.091,-10.591)"
         display="block"
         d="m -6.875,24.375 a 11.75,7.75 0 1 1 -23.5,0 11.75,7.75 0 1 1 23.5,0 z"
         style="opacity:0.25;color:#000000;fill:none;stroke:url(#linearGradient3984);stroke-width:0.72716999;display:block"
         id="path4152" />
      <g
         style="fill:#808080"
         id="text6421">
        <path
           inkscape:connector-curvature="0"
           d="m 18.453,77.28 -0.58329,1.5817 h 1.1687 L 18.45299,77.28 m -0.24268,-0.42363 h 0.4875 l 1.2113,3.1783 h -0.44705 l -0.28952,-0.81533 h -1.4327 l -0.28952,0.81533 h -0.45344 l 1.2134,-3.1783"
           id="path6426" />
        <path
           inkscape:connector-curvature="0"
           d="m 22.336,78.596 v 1.4391 h -0.3917 v -1.4263 c -2e-6,-0.22565 -0.044,-0.39454 -0.13199,-0.50666 -0.08799,-0.11212 -0.21998,-0.16817 -0.39596,-0.16818 -0.21146,2e-6 -0.37822,0.06741 -0.50027,0.20224 -0.12205,0.13483 -0.18308,0.31861 -0.18308,0.55136 v 1.3475 h -0.39383 v -2.3843 H 20.733 v 0.37041 c 0.09367,-0.14334 0.20366,-0.25049 0.32996,-0.32145 0.12773,-0.07096 0.27461,-0.10644 0.44066,-0.10644 0.2739,3e-6 0.48111,0.08516 0.62161,0.25546 0.1405,0.16889 0.21075,0.41796 0.21075,0.74721"
           id="path6428" />
        <path
           inkscape:connector-curvature="0"
           d="m 25.104,78.596 v 1.4391 h -0.3917 v -1.4263 c -2e-6,-0.22565 -0.044,-0.39454 -0.13199,-0.50666 -0.08799,-0.11212 -0.21998,-0.16817 -0.39596,-0.16818 -0.21146,2e-6 -0.37822,0.06741 -0.50027,0.20224 -0.12205,0.13483 -0.18308,0.31861 -0.18308,0.55136 v 1.3475 h -0.39383 v -2.3843 H 23.501 v 0.37041 c 0.09367,-0.14334 0.20366,-0.25049 0.32996,-0.32145 0.12773,-0.07096 0.27462,-0.10644 0.44066,-0.10644 0.2739,3e-6 0.48111,0.08516 0.62161,0.25546 0.1405,0.16889 0.21075,0.41796 0.21075,0.74721"
           id="path6430" />
        <path
           inkscape:connector-curvature="0"
           d="m 25.849,79.094 v -1.4433 h 0.3917 v 1.4284 c -1e-6,0.22565 0.044,0.39525 0.13199,0.50878 0.08799,0.11212 0.21998,0.16818 0.39596,0.16818 0.21146,10e-7 0.37822,-0.06741 0.50027,-0.20224 0.12347,-0.13482 0.1852,-0.31861 0.18521,-0.55136 v -1.3518 h 0.3917 v 2.3843 h -0.3917 V 79.6688 c -0.09509,0.14476 -0.20579,0.25262 -0.33209,0.32358 -0.12489,0.06954 -0.27036,0.10431 -0.4364,0.10431 -0.27391,0 -0.48182,-0.08515 -0.62374,-0.25546 -0.14192,-0.1703 -0.21288,-0.41937 -0.21288,-0.74721 m 0.98564,-1.5008"
           id="path6432" />
        <path
           inkscape:connector-curvature="0"
           d="m 29.74,78.837 c -0.31648,2e-6 -0.53575,0.03619 -0.6578,0.10857 -0.12205,0.07238 -0.18308,0.19585 -0.18308,0.37041 0,0.13908 0.04541,0.24978 0.13624,0.33209 0.09225,0.08089 0.21714,0.12134 0.37467,0.12134 0.21714,0 0.39099,-0.07664 0.52156,-0.22991 0.13198,-0.15469 0.19798,-0.35977 0.19798,-0.61522 V 78.837 H 29.74 m 0.78127,-0.16179 v 1.3603 h -0.3917 v -0.3619 c -0.08941,0.14476 -0.20082,0.25191 -0.33422,0.32145 -0.13341,0.06812 -0.29661,0.10218 -0.48962,0.10218 -0.2441,0 -0.43853,-0.06812 -0.58329,-0.20436 -0.14334,-0.13766 -0.21501,-0.32145 -0.21501,-0.55136 0,-0.26823 0.08941,-0.47046 0.26823,-0.60671 0.18024,-0.13624 0.44847,-0.20436 0.80469,-0.20436 h 0.54923 v -0.03832 c -2e-6,-0.18024 -0.05961,-0.31932 -0.17882,-0.41725 -0.1178,-0.09934 -0.28384,-0.14901 -0.49814,-0.14902 -0.13624,2e-6 -0.26894,0.01632 -0.39809,0.04896 -0.12915,0.03264 -0.25333,0.08161 -0.37254,0.14689 v -0.3619 c 0.14334,-0.05535 0.28242,-0.0965 0.41725,-0.12347 0.13482,-0.02838 0.2661,-0.04257 0.39383,-0.04258 0.34486,3e-6 0.60245,0.08941 0.77276,0.26823 0.1703,0.17882 0.25546,0.44989 0.25546,0.8132"
           id="path6434" />
        <path
           inkscape:connector-curvature="0"
           d="m 31.33,76.723 h 0.3917 v 3.3124 H 31.33 V 76.723"
           id="path6436" />
        <path
           inkscape:connector-curvature="0"
           d="m 35.496,78.013 v -1.2901 h 0.3917 v 3.3124 H 35.496 v -0.35764 c -0.08232,0.14192 -0.18663,0.24765 -0.31294,0.31719 -0.12489,0.06812 -0.27533,0.10218 -0.45131,0.10218 -0.2881,0 -0.52298,-0.11496 -0.70464,-0.34487 -0.18024,-0.22991 -0.27036,-0.5322 -0.27036,-0.90687 0,-0.37467 0.09012,-0.67696 0.27036,-0.90687 0.18166,-0.22991 0.41654,-0.34486 0.70464,-0.34487 0.17598,3e-6 0.32642,0.03477 0.45131,0.10431 0.12631,0.06812 0.23062,0.17314 0.31294,0.31506 m -1.3348,0.83236 c -10e-7,0.2881 0.0589,0.51446 0.17669,0.67909 0.11921,0.16321 0.28242,0.24481 0.48962,0.24481 0.2072,0 0.37041,-0.0816 0.48962,-0.24481 0.11921,-0.16463 0.17882,-0.39099 0.17882,-0.67909 -2e-6,-0.2881 -0.05961,-0.51375 -0.17882,-0.67696 -0.11922,-0.16463 -0.28242,-0.24694 -0.48962,-0.24694 -0.2072,2e-6 -0.37041,0.08232 -0.48962,0.24694 -0.1178,0.16321 -0.17669,0.38886 -0.17669,0.67696"
           id="path6438" />
        <path
           inkscape:connector-curvature="0"
           d="m 36.695,77.651 h 0.3917 v 2.3843 H 36.695 V 77.651 m 0,-0.92816 h 0.3917 v 0.49601 H 36.695 v -0.49601"
           id="path6440" />
        <path
           inkscape:connector-curvature="0"
           d="m 39.424,77.721 v 0.37041 c -0.1107,-0.05677 -0.22566,-0.09934 -0.34487,-0.12773 -0.11921,-0.02838 -0.24268,-0.04257 -0.37041,-0.04258 -0.19443,2e-6 -0.34061,0.02981 -0.43853,0.08941 -0.09651,0.05961 -0.14476,0.14902 -0.14476,0.26823 -1e-6,0.09083 0.03477,0.1625 0.10431,0.21501 0.06954,0.05109 0.20933,0.10006 0.41938,0.14689 l 0.13411,0.0298 c 0.27816,0.05961 0.47543,0.14405 0.59181,0.25333 0.11779,0.10786 0.17669,0.259 0.17669,0.45344 -2e-6,0.2214 -0.08799,0.39667 -0.26397,0.52582 -0.17456,0.12915 -0.41512,0.19372 -0.72166,0.19372 -0.12773,0 -0.26113,-0.01277 -0.40022,-0.03832 -0.13766,-0.02413 -0.28313,-0.06103 -0.4364,-0.1107 v -0.40447 c 0.14476,0.07522 0.28739,0.13199 0.42789,0.1703 0.1405,0.0369 0.27958,0.05535 0.41724,0.05535 0.1845,0 0.32642,-0.03122 0.42576,-0.09367 0.09934,-0.06386 0.14902,-0.15327 0.14902,-0.26823 -2e-6,-0.10644 -0.03619,-0.18804 -0.10857,-0.24481 -0.07096,-0.05677 -0.22778,-0.11141 -0.47047,-0.16392 l -0.13624,-0.03193 c -0.24268,-0.05109 -0.41796,-0.12915 -0.52582,-0.23417 -0.10786,-0.10644 -0.16179,-0.25191 -0.16179,-0.4364 0,-0.22423 0.07947,-0.39738 0.23843,-0.51943 0.15895,-0.12205 0.3846,-0.18308 0.67696,-0.18308 0.14476,3e-6 0.281,0.01065 0.40873,0.03193 0.12773,0.02129 0.24552,0.05322 0.35338,0.0958"
           id="path6442" />
        <path
           inkscape:connector-curvature="0"
           d="m 40.565,76.974 v 0.67696 h 0.80682 v 0.30442 H 40.565 v 1.2943 c -10e-7,0.19443 0.02625,0.31932 0.07876,0.37467 0.05393,0.05535 0.1625,0.08302 0.32571,0.08302 h 0.40234 v 0.32784 h -0.40234 c -0.30229,0 -0.51091,-0.05606 -0.62587,-0.16818 -0.11496,-0.11354 -0.17243,-0.31932 -0.17243,-0.61735 v -1.2943 h -0.28739 v -0.30442 h 0.28739 V 76.974 H 40.565"
           id="path6444" />
        <path
           inkscape:connector-curvature="0"
           d="m 43.271,78.017 c -0.044,-0.02554 -0.09225,-0.04399 -0.14476,-0.05535 -0.05109,-0.01277 -0.10786,-0.01916 -0.1703,-0.01916 -0.2214,2e-6 -0.3917,0.07238 -0.51091,0.21714 -0.11779,0.14334 -0.17669,0.34984 -0.17669,0.61948 v 1.256 h -0.39383 v -2.3843 h 0.39383 v 0.37041 c 0.08231,-0.14476 0.18946,-0.25191 0.32145,-0.32145 0.13198,-0.07096 0.29236,-0.10644 0.48111,-0.10644 0.02696,3e-6 0.05677,0.0021 0.08941,0.0064 0.03264,0.0028 0.06883,0.0078 0.10857,0.0149 l 0.0021,0.40234"
           id="path6446" />
        <path
           inkscape:connector-curvature="0"
           d="m 43.686,77.651 h 0.3917 v 2.3843 H 43.686 V 77.651 m 0,-0.92816 h 0.3917 v 0.49601 H 43.686 v -0.49601"
           id="path6448" />
        <path
           inkscape:connector-curvature="0"
           d="m 46.607,78.845 c -2e-6,-0.2881 -0.05961,-0.51375 -0.17882,-0.67696 -0.1178,-0.16463 -0.2803,-0.24694 -0.4875,-0.24694 -0.2072,2e-6 -0.37041,0.08232 -0.48962,0.24694 -0.11779,0.16321 -0.17669,0.38886 -0.17669,0.67696 0,0.2881 0.0589,0.51446 0.17669,0.67909 0.11921,0.16321 0.28242,0.24481 0.48962,0.24481 0.2072,0 0.3697,-0.0816 0.4875,-0.24481 C 46.54739,79.35946 46.607,79.1331 46.607,78.845 m -1.3326,-0.83236 c 0.08231,-0.14192 0.18592,-0.24694 0.31081,-0.31506 0.12631,-0.06954 0.27674,-0.10431 0.45131,-0.10431 0.28952,3e-6 0.52439,0.11496 0.70463,0.34487 0.18166,0.22991 0.27248,0.5322 0.27249,0.90687 -2e-6,0.37467 -0.09083,0.67696 -0.27249,0.90687 -0.18024,0.22991 -0.41512,0.34487 -0.70463,0.34487 -0.17456,0 -0.325,-0.03406 -0.45131,-0.10218 -0.12489,-0.06954 -0.22849,-0.17527 -0.31081,-0.31719 v 0.35764 h -0.39383 v -3.3124 h 0.39383 v 1.2901"
           id="path6450" />
        <path
           inkscape:connector-curvature="0"
           d="m 47.622,79.094 v -1.4433 h 0.3917 v 1.4284 c 0,0.22565 0.044,0.39525 0.13199,0.50878 0.08799,0.11212 0.21998,0.16818 0.39596,0.16818 0.21146,10e-7 0.37822,-0.06741 0.50027,-0.20224 0.12347,-0.13482 0.1852,-0.31861 0.18521,-0.55136 v -1.3518 h 0.3917 v 2.3843 h -0.3917 V 79.6688 c -0.09509,0.14476 -0.20579,0.25262 -0.33209,0.32358 -0.12489,0.06954 -0.27036,0.10431 -0.4364,0.10431 -0.27391,0 -0.48182,-0.08515 -0.62374,-0.25546 -0.14192,-0.1703 -0.21288,-0.41937 -0.21288,-0.74721 m 0.98564,-1.5008"
           id="path6452" />
        <path
           inkscape:connector-curvature="0"
           d="m 50.817,76.974 v 0.67696 h 0.80682 v 0.30442 H 50.817 v 1.2943 c -10e-7,0.19443 0.02625,0.31932 0.07877,0.37467 0.05393,0.05535 0.1625,0.08302 0.32571,0.08302 h 0.40234 v 0.32784 h -0.40234 c -0.30229,0 -0.51091,-0.05606 -0.62587,-0.16818 -0.11496,-0.11354 -0.17243,-0.31932 -0.17243,-0.61735 v -1.2943 h -0.28739 v -0.30442 h 0.28739 V 76.974 h 0.39383"
           id="path6454" />
        <path
           inkscape:connector-curvature="0"
           d="m 52.142,77.651 h 0.3917 v 2.3843 H 52.142 V 77.651 m 0,-0.92816 h 0.3917 v 0.49601 H 52.142 v -0.49601"
           id="path6456" />
        <path
           inkscape:connector-curvature="0"
           d="m 54.275,77.925 c -0.21004,2e-6 -0.37609,0.08232 -0.49814,0.24694 -0.12205,0.16321 -0.18308,0.38744 -0.18308,0.6727 -1e-6,0.28526 0.06032,0.5102 0.18095,0.67483 0.12205,0.16321 0.28881,0.24481 0.50027,0.24481 0.20862,10e-7 0.37396,-0.08231 0.49601,-0.24694 0.12205,-0.16463 0.18308,-0.38886 0.18308,-0.6727 -2e-6,-0.28242 -0.06103,-0.50594 -0.18308,-0.67057 C 54.64896,78.00803 54.48362,77.925 54.275,77.925 m 0,-0.33209 c 0.34061,3e-6 0.60813,0.1107 0.80256,0.33209 0.19443,0.2214 0.29164,0.52794 0.29165,0.91964 -2e-6,0.39028 -0.09722,0.69683 -0.29165,0.91964 -0.19443,0.2214 -0.46195,0.33209 -0.80256,0.33209 -0.34203,0 -0.61026,-0.1107 -0.80469,-0.33209 -0.19301,-0.22281 -0.28952,-0.52936 -0.28952,-0.91964 0,-0.3917 0.09651,-0.69825 0.28952,-0.91964 0.19443,-0.22139 0.46266,-0.33209 0.80469,-0.33209"
           id="path6458" />
        <path
           inkscape:connector-curvature="0"
           d="m 57.998,78.596 v 1.4391 h -0.3917 v -1.4263 c -2e-6,-0.22565 -0.044,-0.39454 -0.13199,-0.50666 -0.08799,-0.11212 -0.21998,-0.16817 -0.39596,-0.16818 -0.21146,2e-6 -0.37822,0.06741 -0.50027,0.20224 -0.12205,0.13483 -0.18308,0.31861 -0.18308,0.55136 v 1.3475 h -0.39383 v -2.3843 H 56.395 v 0.37041 c 0.09367,-0.14334 0.20365,-0.25049 0.32996,-0.32145 0.12773,-0.07096 0.27462,-0.10644 0.44066,-0.10644 0.2739,3e-6 0.48111,0.08516 0.62161,0.25546 0.1405,0.16889 0.21075,0.41796 0.21075,0.74721"
           id="path6460" />
        <path
           inkscape:connector-curvature="0"
           d="m 61.095,77.925 c -0.21004,2e-6 -0.37609,0.08232 -0.49814,0.24694 -0.12205,0.16321 -0.18308,0.38744 -0.18308,0.6727 -1e-6,0.28526 0.06032,0.5102 0.18095,0.67483 0.12205,0.16321 0.28881,0.24481 0.50027,0.24481 0.20862,10e-7 0.37396,-0.08231 0.49601,-0.24694 0.12205,-0.16463 0.18308,-0.38886 0.18308,-0.6727 -2e-6,-0.28242 -0.06103,-0.50594 -0.18308,-0.67057 C 61.46896,78.00803 61.30362,77.925 61.095,77.925 m 0,-0.33209 c 0.34061,3e-6 0.60813,0.1107 0.80256,0.33209 0.19443,0.2214 0.29164,0.52794 0.29165,0.91964 -3e-6,0.39028 -0.09722,0.69683 -0.29165,0.91964 -0.19443,0.2214 -0.46195,0.33209 -0.80256,0.33209 -0.34203,0 -0.61026,-0.1107 -0.80469,-0.33209 -0.19301,-0.22281 -0.28952,-0.52936 -0.28952,-0.91964 0,-0.3917 0.09651,-0.69825 0.28952,-0.91964 0.19443,-0.22139 0.46266,-0.33209 0.80469,-0.33209"
           id="path6462" />
        <path
           inkscape:connector-curvature="0"
           d="m 64.044,76.723 v 0.32571 h -0.37467 c -0.1405,3e-6 -0.23843,0.02839 -0.29378,0.08515 -0.05393,0.05677 -0.08089,0.15895 -0.08089,0.30655 v 0.21075 h 0.64503 v 0.30442 h -0.64503 v 2.0798 h -0.39383 v -2.0798 h -0.37467 v -0.30442 h 0.37467 v -0.16605 c -10e-7,-0.26539 0.06173,-0.4584 0.18521,-0.57904 0.12347,-0.12205 0.31932,-0.18307 0.58755,-0.18308 H 64.044"
           id="path6464" />
        <path
           inkscape:connector-curvature="0"
           d="m 66.136,79.677 v 1.2645 H 65.74217 V 77.6504 H 66.136 v 0.3619 c 0.08231,-0.14192 0.18592,-0.24694 0.3108,-0.31506 0.12631,-0.06954 0.27674,-0.10431 0.45131,-0.10431 0.28952,3e-6 0.52439,0.11496 0.70464,0.34487 0.18166,0.22991 0.27248,0.5322 0.27249,0.90687 -3e-6,0.37467 -0.09083,0.67696 -0.27249,0.90687 -0.18024,0.22991 -0.41512,0.34487 -0.70464,0.34487 -0.17456,0 -0.325,-0.03406 -0.45131,-0.10218 -0.12489,-0.06954 -0.22849,-0.17527 -0.3108,-0.31719 m 1.3326,-0.83236 c -2e-6,-0.2881 -0.05961,-0.51375 -0.17882,-0.67696 -0.1178,-0.16463 -0.28029,-0.24694 -0.4875,-0.24694 -0.2072,2e-6 -0.37041,0.08232 -0.48962,0.24694 -0.1178,0.16321 -0.17669,0.38886 -0.17669,0.67696 -10e-7,0.2881 0.0589,0.51446 0.17669,0.67909 0.11921,0.16321 0.28242,0.24481 0.48962,0.24481 0.2072,0 0.3697,-0.0816 0.4875,-0.24481 0.11921,-0.16463 0.17882,-0.39099 0.17882,-0.67909"
           id="path6466" />
        <path
           inkscape:connector-curvature="0"
           d="m 69.906,78.017 c -0.044,-0.02554 -0.09225,-0.04399 -0.14476,-0.05535 -0.05109,-0.01277 -0.10786,-0.01916 -0.1703,-0.01916 -0.2214,2e-6 -0.3917,0.07238 -0.51091,0.21714 -0.1178,0.14334 -0.17669,0.34984 -0.17669,0.61948 v 1.256 h -0.39383 v -2.3843 h 0.39383 v 0.37041 c 0.08231,-0.14476 0.18946,-0.25191 0.32145,-0.32145 0.13198,-0.07096 0.29235,-0.10644 0.48111,-0.10644 0.02696,3e-6 0.05677,0.0021 0.08941,0.0064 0.03264,0.0028 0.06883,0.0078 0.10857,0.0149 l 0.0021,0.40234"
           id="path6468" />
        <path
           inkscape:connector-curvature="0"
           d="m 71.152,77.925 c -0.21004,2e-6 -0.37609,0.08232 -0.49814,0.24694 -0.12205,0.16321 -0.18308,0.38744 -0.18308,0.6727 -1e-6,0.28526 0.06032,0.5102 0.18095,0.67483 0.12205,0.16321 0.28881,0.24481 0.50027,0.24481 0.20862,10e-7 0.37396,-0.08231 0.49601,-0.24694 0.12205,-0.16463 0.18308,-0.38886 0.18308,-0.6727 -2e-6,-0.28242 -0.06103,-0.50594 -0.18308,-0.67057 C 71.52596,78.00803 71.36062,77.925 71.152,77.925 m 0,-0.33209 c 0.34061,3e-6 0.60813,0.1107 0.80256,0.33209 0.19443,0.2214 0.29164,0.52794 0.29165,0.91964 -2e-6,0.39028 -0.09722,0.69683 -0.29165,0.91964 -0.19443,0.2214 -0.46195,0.33209 -0.80256,0.33209 -0.34203,0 -0.61026,-0.1107 -0.80469,-0.33209 -0.19301,-0.22281 -0.28952,-0.52936 -0.28952,-0.91964 -10e-7,-0.3917 0.0965,-0.69825 0.28952,-0.91964 0.19443,-0.22139 0.46266,-0.33209 0.80469,-0.33209"
           id="path6470" />
        <path
           inkscape:connector-curvature="0"
           d="m 74.82,77.651 v 2.3843 h -0.39383 v -2.0798 h -1.075 v 2.0798 h -0.39383 v -2.0798 h -0.37467 v -0.30442 h 0.37467 v -0.16605 c 0,-0.25971 0.06103,-0.4513 0.18308,-0.57478 0.12347,-0.12489 0.31222,-0.18733 0.56626,-0.18734 h 0.39383 v 0.32571 h -0.37467 c -0.1405,3e-6 -0.23843,0.02839 -0.29378,0.08515 -0.05393,0.05677 -0.0809,0.15895 -0.08089,0.30655 v 0.21075 h 1.4689 m -0.39383,-0.9239 h 0.39383 v 0.49601 h -0.39383 v -0.49601"
           id="path6472" />
        <path
           inkscape:connector-curvature="0"
           d="m 76.031,76.974 v 0.67696 h 0.80682 v 0.30442 H 76.031 v 1.2943 c 0,0.19443 0.02625,0.31932 0.07877,0.37467 0.05393,0.05535 0.1625,0.08302 0.32571,0.08302 h 0.40234 v 0.32784 h -0.40234 c -0.30229,0 -0.51091,-0.05606 -0.62587,-0.16818 -0.11496,-0.11354 -0.17243,-0.31932 -0.17243,-0.61735 v -1.2943 h -0.28739 v -0.30442 h 0.28739 V 76.974 h 0.39383"
           id="path6474" />
        <path
           inkscape:connector-curvature="0"
           d="m 78.875,77.721 v 0.37041 c -0.1107,-0.05677 -0.22566,-0.09934 -0.34487,-0.12773 -0.11922,-0.02838 -0.24269,-0.04257 -0.37041,-0.04258 -0.19443,2e-6 -0.34061,0.02981 -0.43853,0.08941 -0.09651,0.05961 -0.14476,0.14902 -0.14476,0.26823 -10e-7,0.09083 0.03477,0.1625 0.10431,0.21501 0.06954,0.05109 0.20933,0.10006 0.41938,0.14689 l 0.13412,0.0298 c 0.27816,0.05961 0.47543,0.14405 0.59181,0.25333 0.11779,0.10786 0.17669,0.259 0.17669,0.45344 -2e-6,0.2214 -0.08799,0.39667 -0.26397,0.52582 -0.17456,0.12915 -0.41512,0.19372 -0.72166,0.19372 -0.12773,0 -0.26114,-0.01277 -0.40022,-0.03832 -0.13766,-0.02413 -0.28313,-0.06103 -0.4364,-0.1107 v -0.40447 c 0.14476,0.07522 0.28739,0.13199 0.42789,0.1703 0.1405,0.0369 0.27958,0.05535 0.41725,0.05535 0.1845,0 0.32642,-0.03122 0.42576,-0.09367 0.09934,-0.06386 0.14901,-0.15327 0.14902,-0.26823 -2e-6,-0.10644 -0.03619,-0.18804 -0.10857,-0.24481 -0.07096,-0.05677 -0.22778,-0.11141 -0.47047,-0.16392 l -0.13624,-0.03193 c -0.24268,-0.05109 -0.41796,-0.12915 -0.52582,-0.23417 -0.10786,-0.10644 -0.16179,-0.25191 -0.16179,-0.4364 -10e-7,-0.22423 0.07948,-0.39738 0.23843,-0.51943 0.15895,-0.12205 0.3846,-0.18308 0.67696,-0.18308 0.14476,3e-6 0.281,0.01065 0.40873,0.03193 0.12773,0.02129 0.24552,0.05322 0.35338,0.0958"
           id="path6476" />
      </g>
    </g>
  </g>
  <path
     style="opacity:0.1"
     inkscape:connector-curvature="0"
     d="m 23.73544,-0.54564495 c -1.47068,0.002186 -2.644552,1.24027499 -2.646181,2.69874035 v 1.1272444 1.6056017 h 5.292361 v -0.034215 h 2.273055 V 7.0380032 C 28.55317,6.9517546 28.49927,6.8352041 28.383272,6.7647186 27.48826,6.2208931 26.449145,6.3240089 25.669241,6.7989338 24.920603,7.2549037 24.367592,8.0767033 24.380076,9.0535319 v 10.9991571 0.03421 c -0.0076,0.588688 0.18349,1.309143 0.712433,1.878887 a 1.0444568,1.0516976 0 0 0 0.03398,0 1.0444568,1.0516976 0 0 0 0.203552,0.204963 l 1.933693,2.015529 c 0.463426,0.482303 1.107868,0.854845 1.865951,0.854014 0.754359,-7.98e-4 1.400331,-0.369896 1.86595,-0.854014 l 1.933693,-2.015529 0.06785,-0.03421 a 1.0444568,1.0516976 0 0 0 0.135701,-0.136643 c 0.471015,-0.507467 0.752634,-1.192614 0.746359,-1.878886 -9.8e-5,-0.01093 2.28e-4,-0.02339 0,-0.03421 V 2.1527674 c 0.0011,-1.46032366 -1.17333,-2.70016137 -2.64618,-2.69874029 h -7.497457 z"
     id="path6784" />
  <path
     style="opacity:0.2"
     inkscape:connector-curvature="0"
     d="m 23.73544,0.50376801 c -0.873083,0.00102 -1.593571,0.75644099 -1.594548,1.63970779 v 1.1272443 1.6056018 h 3.188986 V 3.7831834 h 0.474956 3.901474 l -0.03398,15.6449956 -0.542806,0.58073 -0.542806,-0.58073 V 9.0092598 C 28.594315,8.4521199 28.322206,7.9356338 27.840357,7.6428367 27.329783,7.332604 26.681574,7.3910213 26.211939,7.6770519 25.74303,7.9626453 25.424218,8.4596407 25.431655,9.043475 v 11.034138 c -0.0087,0.395125 0.09206,0.822215 0.407104,1.161459 a 0.49371481,0.49713751 0 0 0 0.03398,0 l 2.137354,2.220383 c 0.296166,0.308232 0.697549,0.512868 1.119483,0.512409 0.420197,-4.49e-4 0.822905,-0.203947 1.119484,-0.512409 l 2.103374,-2.186277 a 0.49371481,0.49713751 0 0 0 0.03398,0 c 0.296264,-0.319196 0.450193,-0.730195 0.44103,-1.16146 V 2.1427106 C 32.828203,1.258285 32.107346,0.50212831 31.232896,0.50300281 H 23.73544 z"
     id="path6753" />
  <path
     style="opacity:0.3"
     inkscape:connector-curvature="0"
     d="m 23.73544,1.0175432 c -0.590628,6.886e-4 -1.084951,0.5116762 -1.085613,1.1272443 v 1.1272444 1.6056018 h 2.171225 V 3.2720319 h 0.983836 4.410301 l -0.03398,16.3631871 -1.017762,1.093139 -1.085612,-1.127245 V 9.0113367 C 28.083263,8.6093132 27.90189,8.2571477 27.568954,8.0548406 27.236018,7.8525444 26.816679,7.8860272 26.483342,8.0890558 26.150004,8.2920735 25.935411,8.6434847 25.940535,9.0455519 V 20.079689 c -0.0065,0.298263 0.07252,0.605698 0.271404,0.819854 l 2.137353,2.220383 c 0.20124,0.216923 0.490491,0.341923 0.780284,0.341606 0.289783,-3.06e-4 0.578566,-0.124312 0.780284,-0.341606 l 2.103374,-2.186277 c 0.199221,-0.214637 0.311669,-0.521602 0.305329,-0.819854 V 2.1447875 C 32.319094,1.5292085 31.823578,1.0168873 31.23295,1.0175432 h -7.497456 z"
     id="path6747" />
  <path
     inkscape:connector-curvature="0"
     style="fill:url(#linearGradient3869)"
     d="m 23.73544,0.43817971 c -0.590628,6.887e-4 -1.084951,0.51167626 -1.085613,1.12724449 v 1.1272443 2.1862769 h 2.171225 V 2.6926685 h 0.983836 4.410301 L 30.181209,19.055856 29.163447,20.148994 28.077835,19.02175 V 8.4319733 C 28.083263,8.0299498 27.90189,7.6777843 27.568954,7.4754772 27.236018,7.273181 26.816679,7.3066638 26.483342,7.5096924 26.150004,7.7127101 25.935411,8.0641213 25.940535,8.4661886 V 19.500326 c -0.0065,0.298263 0.07252,0.605697 0.271404,0.819854 l 2.137353,2.220383 c 0.20124,0.216922 0.490491,0.341923 0.780284,0.341606 0.289783,-3.07e-4 0.578566,-0.124312 0.780284,-0.341606 l 2.103374,-2.186277 c 0.199221,-0.214638 0.311669,-0.521602 0.305329,-0.819854 V 1.5654242 C 32.319094,0.94984507 31.823578,0.43752381 31.23295,0.43817971 z"
     id="Symbol" />
  <path
     style="fill:#ffffff"
     inkscape:connector-curvature="0"
     d="m 23.73544,0.43817971 c -0.590628,6.887e-4 -1.084951,0.51167626 -1.085613,1.12724449 v 1.0931384 c 6.62e-4,-0.6156228 0.494985,-1.1265885 1.085613,-1.1272444 h 7.497456 c 0.590627,-5.793e-4 1.086155,0.51172 1.085612,1.1272444 V 1.5654242 C 32.31904,0.94984507 31.823523,0.43752381 31.232896,0.43817971 H 23.73544 z m 3.290708,6.90043659 c -0.188115,0.00875 -0.376143,0.069305 -0.542806,0.1708028 -0.333338,0.2030177 -0.547931,0.5544289 -0.542807,0.9564962 v 1.0931382 c -0.0054,-0.402067 0.209469,-0.7534782 0.542807,-0.9564959 0.333337,-0.202974 0.752676,-0.2364568 1.085612,-0.034215 0.332936,0.2023071 0.514743,0.5544726 0.508881,0.9564969 V 8.4317001 C 28.083263,8.0296765 27.90189,7.677511 27.568954,7.4752039 27.402486,7.3740886 27.214263,7.3301007 27.026148,7.3385616 z m 1.051687,11.6834617 v 1.093138 l 1.085612,1.127245 1.017762,-1.093139 v -1.093138 l -1.017762,1.093138 -1.085612,-1.127244 z"
     id="path6759" />
  <rect
     x="-4.8763084"
     y="22.649826"
     width="2.1862769"
     height="2.1712248"
     transform="matrix(0,-1,1,0,0,0)"
     style="opacity:0.2;color:#000000;fill:url(#linearGradient3865)"
     id="rect6789" />
</svg>
