<?xml version="1.0" encoding="UTF-8" standalone="no"?>
<!-- Created with Inkscape (http://www.inkscape.org/) -->
<svg id="svg2" xmlns:rdf="http://www.w3.org/1999/02/22-rdf-syntax-ns#" xmlns="http://www.w3.org/2000/svg" height="96" width="96" version="1.1" xmlns:cc="http://creativecommons.org/ns#" xmlns:xlink="http://www.w3.org/1999/xlink" xmlns:dc="http://purl.org/dc/elements/1.1/">
 <defs id="defs4">
  <linearGradient id="linearGradient3700-0">
   <stop id="stop3702-2" stop-color="#70a83e" offset="0"/>
   <stop id="stop3704-9" stop-color="#9fd058" offset="1"/>
  </linearGradient>
  <linearGradient id="linearGradient4982" y2="5.9877" xlink:href="#linearGradient3700-0" gradientUnits="userSpaceOnUse" x2="48" gradientTransform="translate(101.91 941.34)" y1="90" x1="48"/>
  <clipPath id="clipPath5400">
   <path id="path5402" d="m-5.2423 19.004 37.351-10.156 8.846 10.812 36.696 15.726 15.071-19.33 1.639 39.644-9.502 2.294-10.485-3.932-12.45 20.314-21.624 5.242 13.433 17.365-25.884-1.638-8.518-13.106 8.191-18.02-6.553-15.727 3.932-20.969-28.833 4.915-1.3103-13.434z" fill="#f0f"/>
  </clipPath>
  <mask id="mask3787">
   <g id="g3789">
    <g id="g3791" clip-path="url(#clipPath3769)">
     <path id="path3793" d="m189.13 356.08h33.081v-77.999h-33.081v77.999z"/>
     <g id="g3795">
      <g id="g3799">
       <g id="g3801" clip-path="url(#clipPath3773)">
        <g id="g3803">
         <g id="g3805">
          <g id="g3807">
           <g id="g3809">
            <path id="path3811" d="m222.21 356.08s-29.5-4.584-33-54.333c0 0-0.081-18.999 6.833-22.499 0 0 3.834-1.167 3.417 6.333 0 0-1.083 10.501 0.917 28.418 0 0 2.083 26.666 21.833 42.081" fill="url(#linearGradient3781-0)"/>
           </g>
          </g>
         </g>
        </g>
       </g>
      </g>
     </g>
    </g>
   </g>
  </mask>
  <clipPath id="clipPath3769">
   <path id="path3771" d="m189.21 356.08h33v-76.898h-33v76.898z"/>
  </clipPath>
  <clipPath id="clipPath3773">
   <path id="path3775" d="m189.13 356.08h33.081v-77.999h-33.081v77.999z"/>
  </clipPath>
  <linearGradient id="linearGradient3781-0" gradientUnits="userSpaceOnUse" gradientTransform="matrix(13.958 29.902 29.902 -13.958 199.79 311.26)">
   <stop id="stop3783-3" stop-color="#353435" offset="0"/>
   <stop id="stop3785-5" stop-color="#7d7e81" offset="1"/>
  </linearGradient>
  <clipPath id="clipPath3817">
   <path id="path3819" d="m189.21 356.08h33v-76.898h-33v76.898z"/>
  </clipPath>
  <linearGradient id="linearGradient3737-04">
   <stop id="stop3739-871" stop-color="#fff" offset="0"/>
   <stop id="stop3741-49" stop-color="#fff" stop-opacity="0" offset="1"/>
  </linearGradient>
  <linearGradient id="linearGradient27839" y2="5.9877" gradientUnits="userSpaceOnUse" x2="48" y1="90" x1="48">
   <stop id="stop3702-04" stop-color="#3b3b3b" offset="0"/>
   <stop id="stop3704-22" stop-color="#5d5d5d" offset="1"/>
  </linearGradient>
  <linearGradient id="linearGradient27841" y2="33.166" gradientUnits="userSpaceOnUse" x2="43.294" gradientTransform="translate(-125.07 907.29)" y1="4.5842" x1="51.777">
   <stop id="stop5378" stop-color="#f7010b" offset="0"/>
   <stop id="stop5380" stop-color="#d90000" offset=".72124"/>
   <stop id="stop5384" stop-color="#be0201" offset="1"/>
  </linearGradient>
  <radialGradient id="radialGradient27843" gradientUnits="userSpaceOnUse" cy="53.368" cx="35.358" gradientTransform="matrix(2.1768 -.11351 .22238 4.2646 -178.55 736.21)" r="16.578">
   <stop id="stop3383-26" stop-color="#91dd96" offset="0"/>
   <stop id="stop3385-5" stop-color="#00ad00" offset=".68129"/>
   <stop id="stop3389-311" stop-color="#008008" offset="1"/>
  </radialGradient>
  <radialGradient id="radialGradient27845" gradientUnits="userSpaceOnUse" cy="63.093" cx="59.228" gradientTransform="matrix(1.8084 -.75379 .42950 1.0304 -200.05 950.34)" r="28.913">
   <stop id="stop2965" stop-color="#fff055" offset="0"/>
   <stop id="stop2967" stop-color="#f4cf12" offset=".61771"/>
   <stop id="stop2971" stop-color="#d0ae1a" offset="1"/>
  </radialGradient>
  <radialGradient id="radialGradient27847" gradientUnits="userSpaceOnUse" cy="43.451" cx="48" gradientTransform="matrix(1.2289 -9.2437e-8 -8.7665e-8 -1.1655 -136.06 1010.7)" r="16">
   <stop id="stop5406" stop-color="#9fd3f0" offset="0"/>
   <stop id="stop5408" stop-color="#6ea5da" offset=".54891"/>
   <stop id="stop5410" stop-color="#1457ad" offset="1"/>
  </radialGradient>
  <linearGradient id="linearGradient27849" y2="73.323" gradientUnits="userSpaceOnUse" x2="74.199" gradientTransform="translate(-125.07 907.29)" y1="94.933" x1="93.592">
   <stop id="stop4887" stop-color="#fff" offset="0"/>
   <stop id="stop4889" stop-color="#fff" stop-opacity="0" offset="1"/>
  </linearGradient>
  <radialGradient id="radialGradient27851" gradientUnits="userSpaceOnUse" cy="44.647" cx="48" gradientTransform="matrix(.26898 1.0038 -.98503 .26394 -43.173 894.57)" r="16">
   <stop id="stop4495" stop-color="#a9d8f2" offset="0"/>
   <stop id="stop5024" stop-color="#6ea5da" offset=".5"/>
   <stop id="stop4497" stop-color="#165ebb" offset="1"/>
  </radialGradient>
  <linearGradient id="linearGradient27853" y2="63.893" xlink:href="#linearGradient3737-04" gradientUnits="userSpaceOnUse" x2="36.357" y1="6" x1="36.357"/>
  <radialGradient id="radialGradient27855" xlink:href="#linearGradient3737-04" gradientUnits="userSpaceOnUse" cy="90.172" cx="48" gradientTransform="matrix(1.1573 0 0 .99591 -7.551 .19713)" r="42"/>
  <clipPath id="clipPath27857" clipPathUnits="userSpaceOnUse">
   <path id="path27859" d="m-106.29 916.06c-6.2934 0-11.355 5.0113-11.355 11.206v56.696c0 5.0327 3.3347 9.2727 7.9635 10.683h64.357c4.4499-1.3533 7.7128-5.3264 7.9635-10.102v-57.857c-0.30314-5.924-5.2291-10.625-11.326-10.625h-57.603z" fill="url(#linearGradient27861)"/>
  </clipPath>
  <linearGradient id="linearGradient27861" y2="5.9877" gradientUnits="userSpaceOnUse" x2="48" gradientTransform="matrix(1.0233 0 0 .98370 -126.51 907.92)" y1="90" x1="48">
   <stop id="stop3702-0" stop-color="#bf1313" offset="0"/>
   <stop id="stop3704-1" stop-color="#ff5b35" offset="1"/>
  </linearGradient>
 </defs>
 <metadata id="metadata7">
  <rdf:RDF>
   <cc:Work rdf:about="">
    <dc:format>image/svg+xml</dc:format>
    <dc:type rdf:resource="http://purl.org/dc/dcmitype/StillImage"/>
    <dc:title/>
   </cc:Work>
  </rdf:RDF>
 </metadata>
 <g id="layer1" transform="translate(0 -956.36)">
  <rect id="rect5261-6" fill-opacity=".039216" ry="12.552" height="88.762" width="88.762" y="959.96" x="3.6078"/>
  <rect id="rect5259-9" fill-opacity=".078431" ry="12.38" height="87.546" width="87.546" y="960.57" x="4.2157"/>
  <rect id="rect5257-5" fill-opacity=".15686" ry="12.208" height="86.33" width="86.33" y="961.18" x="4.8237"/>
  <g id="g27794" clip-path="url(#clipPath27857)" transform="matrix(1.0595 0 0 1.0765 130.09 -24.34)">
   <g id="layer1-0" transform="translate(-125.07 907.29)">
    <path id="path5464" d="m48.106 11.011c-1.2831 0-2.8038 0.04423-4.4866 0.18628 0 0-7.7514 0.47905-15.675 5.1041 0 0-0.3379 0.44549-0.3379 2.105 0 0-0.26718-0.14902-0.826-0.14902-0.25942 0-0.58514 0.04632-0.97616 0.1304 0 0-1.4958 0.32626-3.1726 1.7138 0 0-12.207 8.8274-13.441 24.254 0 0-0.41127 3.5132 0 7.0228 0 0 1.9879 28.103 33.49 33.437 0 0 4.4423 0.53814 5.7444-0.22353 0 0 1.4128-0.0915 1.9336-0.54022 0 0 2.7408 0.38281 4.7119 0.0186 0 0 27.57-3.4382 31.669-31.761 0 0 0.49626-2.9262 0.11264-7.1159 0 0-0.65578-10.446-7.2087-18.2 0 0-0.16317-0.05585-0.30036-0.05585 0 0-7.0888-13.641-26.939-15.722 0 0-1.6519-0.20491-4.2989-0.20491zm0.58195 72.687c0.24214 0.0611 0.48593 0.11499 0.73212 0.16765-0.21209-0.0457-0.45778-0.0975-0.73212-0.16765z"/>
    <rect id="rect2419" clip-path="url(#clipPath5400)" rx="6" ry="6" height="84" width="84" y="6" x="6" fill="url(#linearGradient27839)"/>
    <g id="g5448" transform="matrix(.27384 0 0 -.27384 -174.55 255.22)"></g>
    <g id="g5454" transform="matrix(.27384 0 0 -.27384 -174.55 255.22)"></g>
   </g>
   <path id="path4702" opacity=".1" style="color:#000000" d="m-77.075 938.26c-9.9311 0-18.031 8.1002-18.031 18.031 0 9.9311 8.1002 18.031 18.031 18.031 9.9311 0 18.031-8.1002 18.031-18.031 0-9.9311-8.1002-18.031-18.031-18.031z"/>
   <path id="path4698" opacity=".15" style="color:#000000" d="m-77.075 939.23c-9.4146 0-17.062 7.6479-17.062 17.062 0 9.4146 7.6479 17.062 17.062 17.062 9.4146 0 17.062-7.6479 17.062-17.062 0-9.4146-7.6479-17.062-17.062-17.062z"/>
   <path id="path4684" opacity=".3" style="color:#000000" d="m-61.075 956.29a16 16 0 0 1 -32 0 16 16 0 1 1 32 0z"/>
   <path id="path4558" opacity=".1" d="m-113.07 913.29c-3.324 0-6 2.676-6 6v10.344c0.0348 0.00005 0.0906 0.00011 0.0937 0 0.004-0.00014 0.0895 0.00039 0.0937 0 0.004-0.00039 0.12078 0.00063 0.125 0 0.004-0.00063 0.12083-0.0304 0.125-0.0313 0.004-0.00087 0.12088-0.0301 0.125-0.0313l20.188-5.4062c0.42689-0.11439 0.80861-0.16858 1.0938-0.15625 1.5585 0.0674 3.0399 1.2118 3.4688 2.8125l3.5938 13.375c0.0012 0.004 0.02983 0.12081 0.03125 0.125 0.0014 0.004 0.02959 0.1209 0.03125 0.125 0.0017 0.004 0.0606 0.0898 0.0625 0.0937 0.0019 0.004 0.06036 0.12113 0.0625 0.125 0.0021 0.004 0.06014 0.09 0.0625 0.0937 0.0024 0.004 0.05992 0.12141 0.0625 0.125 0.0026 0.004 0.09096 0.0903 0.09375 0.0937 0.0028 0.003 0.05951 0.0905 0.0625 0.0937 0.003 0.003 0.09057 0.0907 0.09375 0.0937 0.0032 0.003 0.0904 0.0596 0.09375 0.0625 0.0034 0.003 0.09023 0.0911 0.09375 0.0937 0.0035 0.003 0.09008 0.06 0.09375 0.0625 0.0037 0.002 0.12119 0.0603 0.125 0.0625 0.0038 0.002 0.08981 0.0605 0.09375 0.0625 0.0039 0.002 0.12095 0.0607 0.125 0.0625 0.0041 0.002 0.12085 0.0297 0.125 0.0313 0.0042 0.001 0.08951 0.0612 0.09375 0.0625 0.0042 0.001 0.1207 0.0302 0.125 0.0313 0.0043 0.001 0.12064 0.0305 0.125 0.0313 0.0044 0.00077 0.1206-0.00051 0.125 0s0.12058 0.031 0.125 0.0313c0.0044 0.00025 0.12058 0.00002 0.125 0 0.0044-0.00002 0.12058 0.00028 0.125 0 0.0044-0.00028 0.12061-0.0307 0.125-0.0313 0.0044-0.00054 0.12065 0.0008 0.125 0 0.0044-0.0008 0.1207-0.0302 0.125-0.0313 0.0043-0.001 0.12078-0.0299 0.125-0.0313 0.0042-0.001 0.12086-0.0609 0.125-0.0625 0.0041-0.002 0.12096-0.0294 0.125-0.0313 0.004-0.002 0.08983-0.0605 0.09375-0.0625 0.0039-0.002 0.1212-0.0602 0.125-0.0625 0.0038-0.002 0.0901-0.06 0.09375-0.0625 2.8402-1.8903 6.2072-3 9.875-3 7.9299 0 14.609 5.1624 16.969 12.281a0.94241 0.94241 0 0 0 0 0.0313c0.0014 0.004 0.06082 0.0896 0.0625 0.0937 0.0017 0.004 0.02932 0.12094 0.03125 0.125 0.0019 0.004 0.06033 0.12107 0.0625 0.125 0.0022 0.004 0.0601 0.0899 0.0625 0.0937 0.0024 0.004 0.09112 0.12136 0.09375 0.125 0.0026 0.004 0.05966 0.0903 0.0625 0.0937 0.0028 0.004 0.0907 0.0905 0.09375 0.0937 0.003 0.003 0.09051 0.0906 0.09375 0.0937 0.0032 0.003 0.09033 0.0908 0.09375 0.0937 0.0034 0.003 0.09016 0.0598 0.09375 0.0625 0.0036 0.003 0.09 0.06 0.09375 0.0625 0.0037 0.002 0.12111 0.0915 0.125 0.0937 0.0039 0.002 0.08973 0.0605 0.09375 0.0625 0.004 0.002 0.12087 0.0295 0.125 0.0313 0.0041 0.002 0.12077 0.061 0.125 0.0625 0.0042 0.001 0.12068 0.03 0.125 0.0313l15.594 4.1562c0.83231 0.22302 1.7872 0.17367 2.5938-0.3125 0.78339-0.47224 1.2551-1.2338 1.4688-2.0312l3.9375-14.719v-19.844c0-3.324-2.676-6-6-6h-72zm15.375 11.156c-0.13535 0.0114-0.32002 0.0455-0.5 0.0937l-20.875 5.5938v61.156c0 3.324 2.676 6 6 6h25.25c-0.016-0.0322-0.06028-0.0901-0.0625-0.0937-0.0028-0.005-0.09065-0.12063-0.09375-0.125-0.0031-0.004-0.09034-0.12086-0.09375-0.125-0.0034-0.004-0.09006-0.12112-0.09375-0.125a0.94241 0.94241 0 0 0 -0.03125 0l-6.0625-6.0625c-1.4444-1.4444-1.4444-3.8368 0-5.2812l9.8125-9.8125a0.94241 0.94241 0 0 0 0.03125 0c0.003-0.003 0.05966-0.0905 0.0625-0.0937 0.0028-0.003 0.09111-0.0903 0.09375-0.0937 0.0026-0.003 0.06006-0.0902 0.0625-0.0937 0.0024-0.004 0.06027-0.0901 0.0625-0.0937 0.0022-0.004 0.06048-0.12119 0.0625-0.125 0.002-0.004 0.06071-0.0898 0.0625-0.0937 0.0018-0.004 0.02969-0.12098 0.03125-0.125 0.0016-0.004 0.06117-0.0897 0.0625-0.0937 0.0013-0.004 0.03016-0.12083 0.03125-0.125 0.0011-0.004 0.03041-0.12077 0.03125-0.125 0.000842-0.004-0.000595-0.12073 0-0.125 0.000595-0.004 0.0309-0.1207 0.03125-0.125 0.000347-0.004-0.000097-0.12069 0-0.125 0.000097-0.004 0.000153-0.12069 0-0.125-0.000153-0.004 0.000402-0.0895 0-0.0937-0.000402-0.004-0.0306-0.12074-0.03125-0.125-0.00065-0.004-0.03035-0.12078-0.03125-0.125-0.000896-0.004-0.03011-0.12084-0.03125-0.125-0.0011-0.004-0.02987-0.12091-0.03125-0.125-0.0014-0.004-0.02964-0.0897-0.03125-0.0937-0.0016-0.004-0.06066-0.1211-0.0625-0.125-0.0018-0.004-0.02919-0.09-0.03125-0.0937-0.0021-0.004-0.06022-0.12134-0.0625-0.125-0.0023-0.004-0.09126-0.0902-0.09375-0.0937-0.0025-0.004-0.05981-0.0904-0.0625-0.0937-0.0027-0.003-0.05962-0.0905-0.0625-0.0937-0.0029-0.003-0.09069-0.0907-0.09375-0.0937-0.0031-0.003-0.09052-0.0909-0.09375-0.0937-0.0032-0.003-0.09036-0.0598-0.09375-0.0625-0.0034-0.003-0.09021-0.06-0.09375-0.0625-0.0035-0.003-0.09007-0.0915-0.09375-0.0937-0.0037-0.002-0.1212-0.0605-0.125-0.0625a0.94241 0.94241 0 0 0 -0.03125 0c-5.9066-2.9255-10-8.9852-10-16.031 0-4.573 1.7429-8.707 4.5625-11.875 0.0031-0.004 0.05962-0.0901 0.0625-0.0937 0.0029-0.004 0.09111-0.12115 0.09375-0.125 0.0026-0.004 0.06011-0.0897 0.0625-0.0937 0.0024-0.004 0.06036-0.12085 0.0625-0.125 0.0021-0.004 0.06063-0.12072 0.0625-0.125 0.0019-0.004 0.02965-0.12062 0.03125-0.125 0.0016-0.004 0.06118-0.12052 0.0625-0.125 0.0013-0.005 0.03021-0.12045 0.03125-0.125 0.001-0.005 0.0305-0.12039 0.03125-0.125 0.000753-0.005-0.000462-0.12035 0-0.125 0.000462-0.005 0.03108-0.12033 0.03125-0.125 0.00017-0.005 0.000123-0.15158 0-0.15625-0.000123-0.005-0.03083-0.12035-0.03125-0.125-0.000416-0.005 0.000707-0.12038 0-0.125-0.000707-0.005-0.03025-0.12044-0.03125-0.125-0.000995-0.005-0.02997-0.12051-0.03125-0.125l-4.1875-15.562c-0.33179-1.2383-1.364-2.2792-2.75-2.4375-0.32446-0.037-0.59599 0.002-0.5625 0 0.0026-0.00013-0.0834-0.0114-0.21875 0zm62.219 5.25c0.08228 0.0412 0.18753 0.0938 0.1875 0.0937-0.000007 0 0.02107 0.0499 0.03125 0.0625-0.02688-0.0142-0.11846-0.10328-0.21875-0.15625zm-1.4375 1.3438c0.02366 0.0426 0.18738 0.31236 0.1875 0.3125 0.000114 0.00013 0.31451 0.22575 0.40625 0.28125-0.05153-0.0111-0.12502-0.0313-0.125-0.0313 0.000048 0.00002-0.20607-0.18858-0.28125-0.25-0.01363-0.0111-0.06251-0.0313-0.0625-0.0313 0.00004 0.00005-0.12503-0.28132-0.125-0.28125zm0 0.28125c0.000197 0.00031 0.156 0.18726 0.15625 0.1875-0.0027-0.002-0.03126-0.00001-0.03125 0 0.000169 0.00017-0.09039-0.1415-0.125-0.1875zm1.5625 15.406c-0.0054 0.00072-0.15094 0.0301-0.15625 0.0313-0.0053 0.001-0.15103 0.0298-0.15625 0.0313-0.0052 0.001-0.1199 0.0606-0.125 0.0625-0.0051 0.002-0.1513 0.0603-0.15625 0.0625-0.0049 0.002-0.12023 0.0599-0.125 0.0625-0.0048 0.003-0.12043 0.0596-0.125 0.0625-0.0046 0.003-0.15191 0.0905-0.15625 0.0937-0.0043 0.003-0.08966 0.0902-0.09375 0.0937-0.0041 0.004-0.12118 0.0899-0.125 0.0937-0.0038 0.004-0.09022 0.12088-0.09375 0.125-0.0035 0.004-0.09053 0.12063-0.09375 0.125-0.0032 0.004-0.09086 0.12041-0.09375 0.125-0.0029 0.005-0.0912 0.12021-0.09375 0.125-0.0026 0.005-0.0603 0.15129-0.0625 0.15625-0.0022 0.005-0.06067 0.11989-0.0625 0.125-0.0018 0.005-0.0298 0.15102-0.03125 0.15625l-1.5312 5.6875c-0.52482 1.9587-2.5896 3.1536-4.5625 2.625l-13.344-3.5625c-0.0042-0.001-0.1207-0.0303-0.125-0.0313-0.0043-0.0009-0.12066-0.0306-0.125-0.0313-0.0043-0.00064-0.12063 0.00038-0.125 0-0.0044-0.00038-0.12061 0.00013-0.125 0-0.0044-0.00013-0.12061-0.00013-0.125 0-0.0044 0.00013-0.12063-0.00039-0.125 0-0.0044 0.00039-0.12066-0.00065-0.125 0-0.0043 0.00065-0.1207 0.0303-0.125 0.0313-0.0043 0.0009-0.12076 0.0301-0.125 0.0313-0.0042 0.001-0.08959 0.0299-0.09375 0.0313-0.0042 0.001-0.12093 0.0296-0.125 0.0313-0.0041 0.002-0.12103 0.0606-0.125 0.0625-0.004 0.002-0.0899 0.0604-0.09375 0.0625-0.0038 0.002-0.12128 0.0602-0.125 0.0625-0.0037 0.002-0.09018 0.0599-0.09375 0.0625-0.0036 0.003-0.09033 0.091-0.09375 0.0937-0.0034 0.003-0.0905 0.0595-0.09375 0.0625-0.0032 0.003-0.09068 0.0906-0.09375 0.0937-0.0031 0.003-0.09087 0.0904-0.09375 0.0937-0.0029 0.003-0.05983 0.0903-0.0625 0.0937-0.0027 0.004-0.09129 0.0901-0.09375 0.0937-0.0025 0.004-0.06025 0.12123-0.0625 0.125-0.0022 0.004-0.06048 0.0898-0.0625 0.0937-0.002 0.004-0.02947 0.12099-0.03125 0.125-0.0018 0.004-0.06096 0.0896-0.0625 0.0937-0.0015 0.004-0.02995 0.12081-0.03125 0.125-0.0013 0.004-0.0302 0.12074-0.03125 0.125-0.0011 0.004-0.03045 0.12068-0.03125 0.125-0.000796 0.004-0.03071 0.12064-0.03125 0.125-0.00054 0.004 0.000282 0.12062 0 0.125-0.000282 0.004 0.000023 0.12061 0 0.125-0.000023 0.004-0.000236 0.12062 0 0.125 0.02154 0.34895 0.03125 0.7274 0.03125 1.125 0 9.9076-7.9986 17.906-17.906 17.906-1.227 0-2.4512-0.16606-3.625-0.40625-0.1034-0.0207-0.18375-0.0202-0.25-0.0313-0.03312-0.005-0.05544-0.0267-0.09375-0.0313-0.01916-0.002-0.05827 0.002-0.09375 0-0.01774-0.00099-0.02931-0.00051-0.0625 0s-0.15543 0.0311-0.15625 0.0313c-0.000301 0.00006-0.0991 0.0448-0.15625 0.0625-0.02051 0.006-0.06243-0.00003-0.0625 0-0.02118 0.005-0.02965 0.0309-0.03125 0.0313-0.009 0.005-0.0194-0.007-0.03125 0-0.03072 0.008-0.09074 0.0303-0.09375 0.0313-0.0039 0.001-0.12114 0.0298-0.125 0.0313-0.0039 0.001-0.08997 0.0296-0.09375 0.0313-0.0038 0.002-0.09007 0.0607-0.09375 0.0625-0.0037 0.002-0.12142 0.0605-0.125 0.0625-0.0036 0.002-0.09029 0.029-0.09375 0.0313-0.0035 0.002-0.09042 0.0913-0.09375 0.0937-0.0033 0.002-0.09056 0.0599-0.09375 0.0625-0.0032 0.003-0.09071 0.0597-0.09375 0.0625-0.0025 0.002-0.04268 0.0746-0.0625 0.0937-0.004 0.004-0.03077-0.00049-0.03125 0l-11.344 11.375c-0.59255 0.59255-1.0312 1.4019-1.0312 2.3438 0 0.94183 0.45448 1.7357 1.0312 2.3125l6.8438 6.8438h46.062c3.324 0 6-2.676 6-6v-44.562c-0.03026 0.00001-0.06053-0.00004-0.0625 0-0.0039 0.00008-0.08982-0.00029-0.09375 0-0.0039 0.00029-0.12109-0.0005-0.125 0z"/>
   <path id="path4554" opacity=".15" d="m-113.07 913.29c-3.324 0-6 2.676-6 6v9.4062a1.1654 1.1654 0 0 0 0.3125 -0.0313l20.188-5.4062c0.48325-0.12949 0.94814-0.20595 1.375-0.1875 1.9784 0.0856 3.8054 1.4907 4.3438 3.5l3.5938 13.375a1.1654 1.1654 0 0 0 1.7812 0.65625c2.986-1.9874 6.5482-3.1562 10.406-3.1562 8.3399 0 15.391 5.4425 17.875 12.938a1.1654 1.1654 0 0 0 0.78125 0.75l15.594 4.1562c0.60778 0.16286 1.302 0.10783 1.8438-0.21875 0.54176-0.32658 0.90382-0.87656 1.0625-1.4688l4.8438-18.094v-16.219c0-3.324-2.676-6-6-6h-72zm15.625 12.094c-0.08191 0.004-0.27406 0.002-0.5 0.0625l-21.125 5.6562v60.188c0 3.324 2.676 6 6 6h24.031l-5.875-5.875c-1.8096-1.8096-1.8096-4.7842 0-6.5938l9.8125-9.8125a1.1654 1.1654 0 0 0 -0.28125 -1.8438c-6.2155-3.0785-10.531-9.4632-10.531-16.875 0-4.8103 1.8172-9.1698 4.7812-12.5a1.1654 1.1654 0 0 0 0.25 -1.0938l-4.1875-15.562c-0.23113-0.86259-1.013-1.6444-1.9375-1.75-0.22414-0.0255-0.3556-0.004-0.4375 0zm61.656 5.125 0.09375 0.125a1.1654 1.1654 0 0 0 -0.53125 0.375c0.07065-0.12625-0.01775-0.005 0.0625-0.125 0.08025-0.12037 0.0044 0.02 0.09375-0.0937 0.08936-0.11377-0.0042 0.0127 0.09375-0.0937 0.09793-0.10648-0.01216 0.005 0.09375-0.0937 0.10591-0.0986-0.0195-0.004 0.09375-0.0937zm0.5625 17.156a1.1654 1.1654 0 0 0 -0.96875 0.84375l-1.5312 5.6875c-0.65981 2.4624-3.2477 3.9434-5.7188 3.2812l-13.344-3.5625a1.1654 1.1654 0 0 0 -1.4688 1.1875c0.02325 0.37672 0.03125 0.77764 0.03125 1.1875 0 10.416-8.4278 18.844-18.844 18.844-1.302 0-2.5869-0.15546-3.8125-0.40625-0.38924-0.0779-0.36905-0.0578-0.125 0a1.1654 1.1654 0 0 0 -0.9375 0.34375l-11.375 11.375c-0.44002 0.44002-0.75 1.0522-0.75 1.6875 0 0.63532 0.30998 1.2162 0.75 1.6562l7.5 7.5h44.75c3.324 0 6-2.676 6-6v-43.625a1.1654 1.1654 0 0 0 -0.15625 0z"/>
   <path id="path4541" opacity=".3" d="m-113.07 914.29c-3.324 0-6 2.676-6 6v7.25l20.188-5.4062c0.56794-0.15218 1.1668-0.24396 1.75-0.21875 2.4867 0.10753 4.7344 1.8362 5.4062 4.3438l3.5938 13.375c3.1692-2.1093 6.9701-3.3438 11.062-3.3438 8.8456 0 16.33 5.7584 18.969 13.719l15.594 4.1562c0.70057 0.18772 1.2804-0.17222 1.4688-0.875l5.7812-21.594a0.55197 0.55197 0 0 1 0.1875 -0.28125v-11.125c0-3.324-2.676-6-6-6h-72zm15.688 12.25c-0.08392 0.004-0.16207 0.008-0.25 0.0313l-21.438 5.75v59.969c0 3.324 2.676 6 6 6h23.406l-6.0625-6.0625c-2.2594-2.2594-2.2594-5.9594 0-8.2188l9.8125-9.8125c-6.5983-3.2681-11.156-10.044-11.156-17.906 0-5.1023 1.9177-9.7479 5.0625-13.281l-4.1875-15.562c-0.14338-0.5351-0.47909-0.85388-0.9375-0.90625-0.0764-0.009-0.16608-0.004-0.25 0zm62.312 22.281-1.5312 5.6875c-0.82714 3.0869-4.0717 4.9202-7.1562 4.0938l-13.344-3.5625c0.02555 0.41395 0.03125 0.82961 0.03125 1.25 0 11.046-8.9543 20-20 20-1.3807 0-2.7293-0.13983-4.0312-0.40625-0.01-0.002-0.02125 0.002-0.03125 0l-11.375 11.375c-0.51799 0.51799-0.51799 1.2008 0 1.7188l9.3125 9.3125h42.125c3.324 0 6-2.676 6-6v-43.469z"/>
   <path id="path4476" d="m-113.07 913.29c-3.324 0-6 2.676-6 6v7.25l20.188-5.4062c0.56794-0.15218 1.1668-0.24396 1.75-0.21875 2.4867 0.10753 4.7344 1.8362 5.4062 4.3438l3.5938 13.375c3.1692-2.1093 6.9701-3.3438 11.062-3.3438 8.8456 0 16.33 5.7584 18.969 13.719l15.594 4.1562c0.70057 0.18772 1.2804-0.17222 1.4688-0.875l5.7812-21.594a0.55197 0.55197 0 0 1 0.1875 -0.28125v-11.125c0-3.324-2.676-6-6-6h-72z" fill="url(#linearGradient27841)"/>
   <path id="path4474" d="m-97.137 925.54c-0.1528-0.0175-0.32414-0.0159-0.5 0.0313l-21.438 5.75v59.969c0 3.324 2.676 6 6 6h23.406l-6.0625-6.0625c-2.2594-2.2594-2.2594-5.9594 0-8.2188l9.8125-9.8125c-6.5983-3.2681-11.156-10.044-11.156-17.906 0-5.1023 1.9177-9.7479 5.0625-13.281l-4.1875-15.562c-0.14338-0.5351-0.47909-0.85388-0.9375-0.90625z" fill="url(#radialGradient27843)"/>
   <path id="rect4464" d="m-35.075 947.83-1.5312 5.6875c-0.82714 3.0869-4.0717 4.9202-7.1562 4.0938l-13.344-3.5625c0.02555 0.41395 0.03125 0.82961 0.03125 1.25 0 11.046-8.9543 20-20 20-1.3807 0-2.7293-0.13983-4.0312-0.40625-0.01-0.002-0.02125 0.002-0.03125 0l-11.375 11.375c-0.51799 0.51799-0.51799 1.2008 0 1.7188l9.3125 9.3125h42.125c3.324 0 6-2.676 6-6v-43.469z" fill="url(#radialGradient27845)"/>
   <path id="path4568" opacity=".5" d="m-97.137 919.92c-0.58317-0.0252-1.1821 0.0666-1.75 0.21875l-20.188 5.4062v1l20.188-5.4062c0.56794-0.15218 1.1668-0.24396 1.75-0.21875 2.4867 0.10753 4.7344 1.8362 5.4062 4.3438l3.5938 13.375c3.1692-2.1093 6.9701-3.3438 11.062-3.3438 8.8456 0 16.33 5.7584 18.969 13.719l15.594 4.1562c0.70057 0.18772 1.2804-0.17222 1.4688-0.875l5.7812-21.594a0.55197 0.55197 0 0 1 0.1875 -0.28125v-1a0.55197 0.55197 0 0 0 -0.1875 0.28125l-5.7812 21.594c-0.18831 0.70278-0.76818 1.0627-1.4688 0.875l-15.594-4.1562c-2.6385-7.9604-10.123-13.719-18.969-13.719-4.0924 0-7.8933 1.2345-11.062 3.3438l-3.5938-13.375c-0.6719-2.5076-2.9196-4.2362-5.4062-4.3438z" fill="#500"/>
   <path id="path4577" d="m-92.2 941.26c-3.0227 3.5032-4.875 8.041-4.875 13.031 0 0.17786 0.02661 0.35453 0.03125 0.53125 0.11373-4.9175 1.9832-9.3878 5.0312-12.812l-0.1875-0.75zm5.625 31.594-9.1562 9.1562c-1.2474 1.2474-1.7863 2.9217-1.6562 4.5625 0.12356-1.2987 0.66778-2.574 1.6562-3.5625l9.8125-9.8125c-0.2207-0.10931-0.44021-0.22668-0.65625-0.34375z" fill="#008000"/>
   <path id="path4586" opacity="0" d="m-57.106 955.04c0.01406 0.22779 0.02685 0.45817 0.03125 0.6875 0.0031-0.14556 0-0.2912 0-0.4375 0-0.084 0.000568-0.16633 0-0.25h-0.03125zm-35.656 32.562c-0.23177 0.45029-0.15662 0.96838 0.25 1.375l8.4369 8.3952 0.87559-0.0827-9.3125-9.3125c-0.1181-0.1181-0.18575-0.24367-0.25-0.375z"/>
   <path id="path4599" opacity=".5" d="m-57.106 954.04c0.01406 0.22779 0.02685 0.45817 0.03125 0.6875 0.0031-0.14556 0-0.2912 0-0.4375 0-0.084 0.000568-0.16633 0-0.25h-0.03125zm-35.656 32.562c-0.23177 0.45029-0.15662 0.96838 0.25 1.375l9.3125 9.3125 1.0841 0.00068-10.397-10.313c-0.1181-0.1181-0.18575-0.24367-0.25-0.375z" fill="#a40"/>
   <path id="path4673" opacity=".5" d="m-97.387 925.54c-0.08392 0.004-0.16207 0.008-0.25 0.0313l-21.438 5.75v1l21.438-5.75c0.17586-0.0471 0.3472-0.0487 0.5-0.0313 0.45841 0.0524 0.79412 0.37115 0.9375 0.90625l4 14.812c0.06789-0.0787 0.11842-0.17238 0.1875-0.25l-4.1875-15.562c-0.14338-0.5351-0.47909-0.85388-0.9375-0.90625-0.0764-0.009-0.16608-0.004-0.25 0zm0.34375 30.281c-0.0036 0.15608-0.03125 0.31178-0.03125 0.46875 0 7.5992 4.257 14.18 10.5 17.562l0.65625-0.65625c-6.4491-3.1942-10.925-9.7399-11.125-17.375zm-0.34375 31.844c-0.12837 1.6391 0.41019 3.3164 1.6562 4.5625l5.0625 5.0625h1l-6.0625-6.0625c-0.98847-0.98847-1.5327-2.2638-1.6562-3.5625z" fill="#fff"/>
   <path id="path3604" style="color:#000000" d="m-61.075 955.29a16 16 0 1 0 -32 0 16 16 0 0 0 32 0z" fill="url(#radialGradient27847)"/>
   <path id="path4721" opacity=".3" style="color:#000000" d="m-77.075 939.29c-8.8366 0-16 7.1634-16 16 0 0.16998 0.02599 0.3313 0.03125 0.5 0.2683-8.6014 7.3022-15.5 15.969-15.5 8.6666 0 15.7 6.8986 15.969 15.5 0.0053-0.1687 0.03125-0.33002 0.03125-0.5 0-8.8366-7.1634-16-16-16z" fill="#fff"/>
   <path id="path4730" style="color:#000000" d="m-93.043 954.79c-0.0053 0.1687-0.03125 0.33002-0.03125 0.5 0 8.8366 7.1634 16 16 16s16-7.1634 16-16c0-0.16998-0.02599-0.3313-0.03125-0.5-0.2683 8.6014-7.3022 15.5-15.969 15.5-8.6666 0-15.7-6.8986-15.969-15.5z" fill="#124a93"/>
   <path id="path4871" opacity=".7" style="color:#000000" d="m-35.075 966.26c-3.9465 15.157-15.874 27.085-31.031 31.031h25.031c3.324 0 6-2.676 6-6v-25.031z" fill="url(#linearGradient27849)"/>
   <path id="path4893" opacity=".62338" style="block-progression:tb;text-indent:0;color:#000000;text-transform:none" d="m-45.418 975.11-0.25 0.34375c-4.2369 6.5984-10.413 11.665-17.594 14.531l-0.5 0.1875 0.21875 0.5 3.2812 6.625h1.125l-3.2812-6.625c7.0338-2.922 13.1-7.8938 17.344-14.344l10 4.0938v-1.0938l-9.9688-4.0625-0.375-0.15625zm-22.188 16.344-0.5 0.125c-3.2372 0.80428-6.6161 1.1354-10.062 1.0312l-0.5-0.0313v0.53125 4.1875h1v-3.7188c3.184 0.055 6.3225-0.23009 9.3438-0.9375l1.2188 4.6562h1.0312l-1.4062-5.375-0.125-0.46875z" fill="#a80"/>
   <path id="path4909" opacity=".5" style="block-progression:tb;text-indent:0;color:#000000;text-transform:none" d="m-45.075 976.33c-4.244 6.4499-10.31 11.422-17.344 14.344l0.40625 0.8125c6.8586-2.9433 12.777-7.8326 16.938-14.156l10 4.0938v-1l-10-4.0938zm-18.281 14.688-0.40625 0.15625 0.21875 0.5 2.7812 5.625h0.5l-3.0938-6.2812zm-4.9688 1.625c-0.5524 0.13335-1.1273 0.20636-1.6875 0.3125-0.19994 0.0362-0.39294 0.0923-0.59375 0.125-2.3067 0.39596-4.6612 0.57425-7.0625 0.53125v0.96875c3.184 0.055 6.3225-0.23009 9.3438-0.9375l0.96875 3.6562h0.25l-1.2188-4.6562z" fill="#fff"/>
   <path id="path5345" style="color:#000000" d="m-66.357 964.26c-1.6403 1.4688-3.6321 2.5908-5.9043 3.1997-7.7353 2.0726-15.686-2.5178-17.759-10.253-0.60884-2.2722-0.63304-4.5581-0.18115-6.7131-0.9589 2.6142-1.172 5.5268-0.39654 8.4208 2.0012 7.4685 9.6779 11.901 17.146 9.8995 2.8941-0.77546 5.3098-2.4163 7.0944-4.5538z" fill="url(#radialGradient27851)"/>
   <g id="g5360" opacity=".60173" transform="matrix(-.11812 -.11450 -.11361 .11721 -10.391 949.71)">
    <g id="g5364" mask="url(#mask3787)">
     <g id="g5368">
      <g id="g5370" clip-path="url(#clipPath3817)">
       <g id="g5372" transform="translate(222.21 356.07)">
        <path id="path5374" d="m0 0s-29.5-4.583-33-54.333c0 0-0.081-18.999 6.833-22.499 0 0 3.834-1.167 3.417 6.333 0 0-1.083 10.501 0.917 28.418 0 0 2.083 26.666 21.833 42.081" fill="#fff"/>
       </g>
      </g>
     </g>
    </g>
   </g>
   <g id="layer6" transform="translate(-125.07 907.29)">
    <path id="rect3728" opacity=".4" d="m12 6c-3.324 0-6 2.676-6 6v2 68 2c0 0.33472 0.04135 0.6507 0.09375 0.96875 0.0487 0.2956 0.09704 0.59692 0.1875 0.875 0.00988 0.03038 0.020892 0.0636 0.03125 0.09375 0.098865 0.28777 0.23488 0.54745 0.375 0.8125 0.14459 0.27351 0.31562 0.53562 0.5 0.78125 0.18438 0.24564 0.37378 0.47347 0.59375 0.6875 0.43995 0.42806 0.94291 0.81453 1.5 1.0938 0.27854 0.13961 0.57347 0.24695 0.875 0.34375-0.2562-0.10022-0.48671-0.23627-0.71875-0.375-0.00741-0.0044-0.023866 0.0045-0.03125 0-0.031933-0.0193-0.062293-0.04251-0.09375-0.0625-0.1204-0.0767-0.23102-0.16351-0.34375-0.25-0.10617-0.0808-0.21328-0.16111-0.3125-0.25-0.1778-0.162-0.3473-0.346-0.4999-0.531-0.1075-0.131-0.2183-0.266-0.3124-0.407-0.0251-0.038-0.0385-0.086-0.0626-0.125-0.0647-0.103-0.1302-0.204-0.1874-0.312-0.1011-0.195-0.2057-0.416-0.2813-0.625-0.008-0.022-0.0236-0.041-0.0313-0.063-0.0318-0.092-0.0358-0.187-0.0624-0.281-0.0304-0.107-0.0704-0.203-0.0938-0.313-0.0729-0.341-0.125-0.698-0.125-1.062v-2-68-2c0-2.782 2.2182-5 5-5h2 68 2c2.7818 0 5 2.2182 5 5v2 68 2c0 0.3643-0.05212 0.72099-0.125 1.0625-0.04415 0.20689-0.08838 0.39766-0.15625 0.59375-0.0077 0.02195-0.0233 0.04069-0.03125 0.0625-0.06274 0.17374-0.13838 0.36745-0.21875 0.53125-0.04158 0.0828-0.07904 0.16995-0.125 0.25-0.0546 0.09721-0.12677 0.18835-0.1875 0.28125-0.09411 0.14096-0.20492 0.276-0.3125 0.40625-0.14317 0.17445-0.30314 0.347-0.46875 0.5-0.01117 0.0102-0.01998 0.02115-0.03125 0.03125-0.13839 0.12556-0.28509 0.23444-0.4375 0.34375-0.10257 0.07315-0.20432 0.15336-0.3125 0.21875-0.0074 0.0045-0.02384-0.0044-0.03125 0-0.23204 0.13873-0.46255 0.27478-0.71875 0.375 0.30153-0.0968 0.59646-0.20414 0.875-0.34375 0.55709-0.27922 1.0601-0.66569 1.5-1.0938 0.21997-0.21403 0.40937-0.44186 0.59375-0.6875s0.35541-0.50774 0.5-0.78125c0.14012-0.26505 0.27614-0.52473 0.375-0.8125 0.01041-0.03078 0.02133-0.06274 0.03125-0.09375 0.09046-0.27808 0.1388-0.5794 0.1875-0.875 0.053-0.318 0.094-0.634 0.094-0.969v-2-68-2c0-3.324-2.676-6-6-6h-72z" fill="url(#linearGradient27853)"/>
    <path id="path3615" opacity=".2" d="m12 90c-3.324 0-6-2.676-6-6v-2-68-2c0-0.33472 0.04135-0.6507 0.09375-0.96875 0.0487-0.2956 0.09704-0.59692 0.1875-0.875 0.0099-0.03 0.0209-0.063 0.0313-0.094 0.0989-0.2873 0.2349-0.547 0.375-0.812 0.1446-0.2735 0.3156-0.5356 0.5-0.7812 0.1844-0.2457 0.3738-0.4735 0.5937-0.6876 0.44-0.428 0.943-0.8145 1.5-1.0937 0.2786-0.1396 0.5735-0.2469 0.8748-0.3437-0.256 0.1002-0.4865 0.2362-0.7185 0.375-0.00741 0.0044-0.023866-0.0045-0.03125 0-0.031933 0.0193-0.062293 0.04251-0.09375 0.0625-0.1204 0.0767-0.23102 0.16351-0.34375 0.25-0.10617 0.0808-0.21328 0.16111-0.3125 0.25-0.1779 0.1614-0.3474 0.3453-0.5 0.5312-0.1075 0.1303-0.2183 0.2653-0.3124 0.4063-0.0251 0.0383-0.0385 0.0858-0.0626 0.125-0.0647 0.103-0.1302 0.2045-0.1874 0.3124-0.1011 0.1948-0.2057 0.4158-0.2813 0.625-0.008 0.0219-0.0236 0.0406-0.0313 0.0626-0.0318 0.0919-0.0358 0.1868-0.0624 0.2812-0.0304 0.1066-0.0704 0.203-0.0938 0.3125-0.0729 0.3415-0.125 0.6985-0.125 1.0625v2 68 2c0 2.7818 2.2182 5 5 5h2 68 2c2.7818 0 5-2.2182 5-5v-2-68-2c0-0.364-0.052-0.721-0.125-1.0625-0.044-0.2069-0.088-0.3977-0.156-0.5937-0.008-0.022-0.024-0.0407-0.031-0.0626-0.063-0.1737-0.139-0.3674-0.219-0.5312-0.042-0.0828-0.079-0.17-0.125-0.25-0.055-0.0972-0.127-0.1884-0.188-0.2812-0.094-0.141-0.205-0.276-0.312-0.4063-0.143-0.1745-0.303-0.347-0.469-0.5-0.011-0.0102-0.02-0.0211-0.031-0.0313-0.139-0.1255-0.285-0.2344-0.438-0.3437-0.102-0.0731-0.204-0.1534-0.312-0.2187-0.0074-0.0045-0.02384 0.0044-0.03125 0-0.23204-0.13873-0.46255-0.27478-0.71875-0.375 0.30153 0.0968 0.59646 0.20414 0.875 0.34375 0.55709 0.27922 1.0601 0.66569 1.5 1.0938 0.21997 0.21403 0.40937 0.44186 0.59375 0.6875s0.35541 0.50774 0.5 0.78125c0.14012 0.26505 0.27614 0.52473 0.375 0.8125 0.01041 0.03078 0.02133 0.06274 0.03125 0.09375 0.09046 0.27808 0.1388 0.5794 0.1875 0.875 0.053 0.318 0.094 0.634 0.094 0.969v2 68 2c0 3.324-2.676 6-6 6h-72z" fill="url(#radialGradient27855)"/>
   </g>
  </g>
  <rect id="rect3873" rx="6" ry="6" height="84" width="84" display="none" y="947.34" x="107.91" fill="url(#linearGradient4982)"/>
  <rect id="rect3880" rx="6" ry="6" height="84" width="84" display="none" y="947.34" x="107.91" fill="url(#linearGradient4982)"/>
  <path id="rect5265-0" d="m5.4316 1029.8v5.0663c0 6.668 5.3645 12.032 12.032 12.032h61.049c6.668 0 12.032-5.3645 12.032-12.032v-5.0663c0 6.6681-5.3645 12.032-12.032 12.032h-61.049c-6.668 0-12.032-5.3643-12.032-12.032z" fill-opacity=".23529"/>
  <path id="path5252-0" d="m5.4316 1033.9v1.0133c0 6.668 5.3645 12.032 12.032 12.032h61.049c6.668 0 12.032-5.3645 12.032-12.032v-1.0133c0 6.6681-5.3645 12.032-12.032 12.032h-61.049c-6.668 0-12.032-5.3644-12.032-12.032z" fill-opacity=".098039"/>
 </g>
</svg>
