<?xml version="1.0" encoding="UTF-8" standalone="no"?>
<!-- Created with Inkscape (http://www.inkscape.org/) -->
<svg id="svg2" xmlns:rdf="http://www.w3.org/1999/02/22-rdf-syntax-ns#" xmlns="http://www.w3.org/2000/svg" height="96" width="96" version="1.1" xmlns:cc="http://creativecommons.org/ns#" xmlns:xlink="http://www.w3.org/1999/xlink" xmlns:dc="http://purl.org/dc/elements/1.1/">
 <defs id="defs4">
  <linearGradient id="linearGradient3700-0">
   <stop id="stop3702-2" stop-color="#70a83e" offset="0"/>
   <stop id="stop3704-9" stop-color="#9fd058" offset="1"/>
  </linearGradient>
  <linearGradient id="linearGradient4982" y2="5.9877" xlink:href="#linearGradient3700-0" gradientUnits="userSpaceOnUse" x2="48" gradientTransform="translate(101.91 941.34)" y1="90" x1="48"/>
  <clipPath id="clipPath3613-02">
   <rect id="rect3615-69" rx="6" ry="6" height="84" width="84" y="6" x="6" fill="#fff"/>
  </clipPath>
  <filter id="filter3794-12" height="1.384" width="1.384" color-interpolation-filters="sRGB" y="-.192" x="-.192">
   <feGaussianBlur id="feGaussianBlur3796-54" stdDeviation="5.28"/>
  </filter>
  <clipPath id="clipPath4049">
   <rect id="rect4051" transform="rotate(-90)" rx="6.1" ry="6.1" height="84" width="84" y="6" x="-90" fill="#f0f"/>
  </clipPath>
  <linearGradient id="linearGradient16668" y2="48" gradientUnits="userSpaceOnUse" x2="90" gradientTransform="translate(-1035.2 108.67)" y1="48" x1="6">
   <stop id="stop3916" stop-color="#028537" offset="0"/>
   <stop id="stop3918" stop-color="#03b035" offset="1"/>
  </linearGradient>
  <linearGradient id="linearGradient16670" y2="62.573" gradientUnits="userSpaceOnUse" x2="27" gradientTransform="translate(108.67 939.22)" y1="90.2" x1="23.363">
   <stop id="stop3936-8" stop-color="#e8ac0c" offset="0"/>
   <stop id="stop3938-9" stop-color="#e8db0c" offset="1"/>
  </linearGradient>
  <linearGradient id="linearGradient16672" y2="5.5467" gradientUnits="userSpaceOnUse" x2="69.788" gradientTransform="translate(108.67 939.22)" y1="35.461" x1="69.788">
   <stop id="stop3946" stop-color="#df1a1a" offset="0"/>
   <stop id="stop3948" stop-color="#e44848" offset="1"/>
  </linearGradient>
  <linearGradient id="linearGradient16674" y2="6.6697" gradientUnits="userSpaceOnUse" x2="18.215" gradientTransform="translate(108.67 939.22)" y1="59.016" x1="18.079">
   <stop id="stop3926-3" stop-color="#005ec0" offset="0"/>
   <stop id="stop3928-3" stop-color="#0072ea" offset="1"/>
  </linearGradient>
  <linearGradient id="linearGradient16676" y2="138.66" gradientUnits="userSpaceOnUse" x2="48" y1="20.221" x1="48">
   <stop id="stop3739-36" stop-color="#fff" offset="0"/>
   <stop id="stop3741-39" stop-color="#fff" stop-opacity="0" offset="1"/>
  </linearGradient>
  <linearGradient id="linearGradient16678" y2="90.06" gradientUnits="userSpaceOnUse" x2="24.066" y1="5.112" x1="24.066">
   <stop id="stop4036-3" stop-color="#fff" offset="0"/>
   <stop id="stop4038-4" stop-color="#f0f0f0" offset="1"/>
  </linearGradient>
  <clipPath id="clipPath16682" clipPathUnits="userSpaceOnUse">
   <path id="path16684" d="m127.01 946.19c-6.451 0-11.64 5.2834-11.64 11.814v59.774c0 5.3061 3.4182 9.7762 8.163 11.263h65.969c4.5614-1.4268 7.906-5.6156 8.163-10.651v-60.998c-0.31073-6.2457-5.3601-11.202-11.61-11.202h-59.045z" fill="url(#linearGradient16686)"/>
  </clipPath>
  <linearGradient id="linearGradient16686" y2="5.9877" gradientUnits="userSpaceOnUse" x2="48" gradientTransform="matrix(1.0489 0 0 1.0371 106.28 937.61)" y1="90" x1="48">
   <stop id="stop3702-0" stop-color="#bf1313" offset="0"/>
   <stop id="stop3704-1" stop-color="#ff5b35" offset="1"/>
  </linearGradient>
 </defs>
 <metadata id="metadata7">
  <rdf:RDF>
   <cc:Work rdf:about="">
    <dc:format>image/svg+xml</dc:format>
    <dc:type rdf:resource="http://purl.org/dc/dcmitype/StillImage"/>
    <dc:title/>
   </cc:Work>
  </rdf:RDF>
 </metadata>
 <g id="layer1" transform="translate(0 -956.36)">
  <rect id="rect5261-6" fill-opacity=".039216" ry="12.552" height="88.762" width="88.762" y="959.96" x="3.6078"/>
  <rect id="rect5259-9" fill-opacity=".078431" ry="12.38" height="87.546" width="87.546" y="960.57" x="4.2157"/>
  <rect id="rect5257-5" fill-opacity=".15686" ry="12.208" height="86.33" width="86.33" y="961.18" x="4.8237"/>
  <g id="g16625" clip-path="url(#clipPath16682)" transform="matrix(1.0336 0 0 1.021 -113.81 -4.3232)">
   <rect id="rect2419" transform="rotate(-90)" rx="6.1" ry="6.1" height="84" width="84" y="114.67" x="-1029.2" fill="url(#linearGradient16668)"/>
   <path id="path3932" fill="url(#linearGradient16670)" d="m127.67 1029.2c-6.6669-1.8909-9.2686-8.4577-9.0891-13.398 0.47323-13.022 15.167-14.14 26.526-14.885 5.5058 4.3078 14.324 8.0122 13.941 17.096-0.2461 5.8347-1.2563 7.5018-5.3779 11.186-0.29479 0.1131-5.3285 0.012-12 0-9.4695-0.017-12 0-14 0z"/>
   <path id="path3942" d="m156.46 945.22c3.0102 3.8486 5.9058 7.6636 6.6875 12.125 1.2728 7.2644-0.93527 13.391-5.0625 18.188 6.8109-6.7198 13.617-7.2081 20.938-6.9062 10.486 0.43245 15.305 4.6206 19.656 8.5938v-26c0-3.324-2.676-6-6-6h-36.219z" fill="url(#linearGradient16672)"/>
   <path id="path3922" fill="url(#linearGradient16674)" d="m136.27 945.22c-3.895 0.00075-4.148 0.045-5.8125 1-2.4941 1.4311-4.2626 3.4169-4.9688 6.25-1.549 6.2148-0.2241 13.49 2.4375 18.438 3.4418 6.3983 8.6708 10.589 14.719 9.3125 3.6962-0.78041 6.8541-2.9942 8.25-5.75 2.8142-5.5558 1.3339-16.004-3.4062-23.125-3.5889-5.3918-5.6505-6.1261-11.219-6.125zm-21.572 26.648-0.12119 32.38c7.8442-4.0854 16.423-6.2503 26.215-6.8953-2.2415-3.3474-4.0576-6.8969-2.5838-13.351-11.259 0.3538-18.044-2.4691-23.51-12.133z"/>
   <g id="layer5" transform="translate(108.67 939.22)">
    <rect id="rect3171-3" height="66" stroke="#fff" stroke-linecap="round" stroke-width=".5" fill="url(#linearGradient16676)" rx="12" ry="12" width="66" opacity=".1" clip-path="url(#clipPath3613-02)" filter="url(#filter3794-12)" y="15" x="15"/>
   </g>
   <g id="layer4-7" transform="translate(108.67 939.22)">
    <g id="g4042" clip-path="url(#clipPath4049)">
     <path id="path4032" opacity=".05" d="m38 3.0312c-9.074 0.0972-18.222-0.129-27.344 0.1876a0.96877 0.96877 0 0 0 -0.187 0.0312c-2.665 0.5879-4.6731 2.3537-5.9065 4.5312-1.2179 2.1502-1.7113 4.6908-1.4687 7.1248 0.0002 0.031-0.0003 0.063 0 0.094 0.0496 6.378-0.0609 12.811 0.0937 19.219a0.96877 0.96877 0 0 0 0.0937 0.406c3.4175 6.862 9.8827 12.646 17.875 13.5 0.0411 0.0044 0.08382-0.0041 0.125 0 0.02163 0.0062 0.04081 0.02533 0.0625 0.03125 1.6176 0.44143 3.4 0.16665 4.4375 0.3125 0.53881 0.07574 0.70229 0.19984 0.75 0.28125 0.04671 0.07971 0.1361 0.51104-0.1875 1.4375-0.0069 0.01981 0.0073 0.01093 0 0.03125-0.36143 1.0134-0.15539 2.0406 0.125 2.9688 0.28324 0.93761 0.68211 1.8138 0.9375 2.5312 0.24879 0.69892 0.22133 1.1643 0.25 1.125-0.11686 0.03426-0.42577 0.0595-0.9375 0a0.96877 0.96877 0 0 0 -0.25 0c-7.662 1.038-15.413 3.02-22.248 6.907a0.96877 0.96877 0 0 0 -0.219 0.188c-0.85594 0.89033-0.99729 2.0348-0.96875 2.9688 0.028539 0.93391 0.14955 1.7571 0.0625 2.3125a0.96877 0.96877 0 0 0 0 0.15625c0.0899 5.692-0.202 11.491 0.1562 17.281a0.96877 0.96877 0 0 0 0 0.09375c0.84857 4.8 5.7015 7.6892 10.281 7.1562 0.02083-0.0024 0.04168 0.0026 0.0625 0 2.0081-0.09393 4.2325 0.25214 6.5312-0.15625a0.96877 0.96877 0 0 0 0.21875 -0.09375c2.4644-1.0662 2.0143-4.9771-0.59375-5.4375v-0.03125c-7.7898-2.0474-9.555-14.744-2.3438-18.625 5.3696-3.0544 11.905-3.3335 18.25-3.8438 2.2584 1.7164 4.8005 3.2368 6.9375 4.9688 2.2163 1.7962 3.9558 3.7834 4.6562 6.5 0.0025 0.0096-0.0024 0.02167 0 0.03125 0.5575 3.8727 0.10156 8.2377-3.0312 10.562-0.81083 0.48723-1.5307 1.2465-1.9062 2.1875-0.39006 0.97728-0.27391 2.3073 0.6875 3.1875a0.96877 0.96877 0 0 0 0.125 0.095c1.0024 0.68447 2.1255 0.72055 3.0938 0.6875 0.96823-0.03305 1.8367-0.12003 2.5-0.03125a0.96877 0.96877 0 0 0 0.21875 0c0.67363-0.06745 1.7014 0.09318 2.7812 0.03125 1.0302-0.05908 2.2236-0.5176 2.9375-1.6562l0.03125 0.03125c0.0386-0.04543 0.05525-0.11062 0.09375-0.15625 4.4626-5.2894 8.2619-11.973 7.4062-19.375-0.0013-0.02106 0.0013-0.04147 0-0.0625-0.55846-8.7639-7.4906-14.925-13.594-19.781-0.0056-0.0047-0.02559 0.0047-0.03125 0-1.282-1.0604-2.9845-2.3071-3.9062-3.5312-0.46289-0.61476-0.70351-1.1604-0.71875-1.6875-0.01524-0.52706 0.16143-1.104 0.84375-1.8438 3.2573-3.5334 7.6706-6.4735 10.031-11.375 0.01038-0.02156 0.02094-0.04086 0.03125-0.0625 4.3218-7.8075 3.8347-17.998-1.6875-25.125a0.96877 0.96877 0 0 0 -0.063 -0.061c-0.59-0.6237-1.152-1.595-1.813-2.5625s-1.477-1.9825-2.781-2.4687a0.96877 0.96877 0 0 0 -0.21875 -0.0625c-3.4194-0.42285-6.8539-0.61668-10.125-1.125a0.96877 0.96877 0 0 0 -0.15625 0zm-10.438 6.875a0.96877 0.96877 0 0 0 0.125 0c3.2607-0.35709 6.4747 0.95622 8.0312 3.8438a0.96877 0.96877 0 0 0 0.032 0.094c4.0601 5.9291 6.3304 13.805 4.0312 20.656-2.2359 4.6134-9.349 6.4288-13.219 2.8125a0.96877 0.96877 0 0 0 -0.031 -0.031c-6.562-5.598-8.994-15.576-6.469-23.719 0.43654-1.5278 1.4276-2.4075 2.8125-2.9688 1.3849-0.56125 3.1289-0.72896 4.6875-0.6875z"/>
     <path id="path4023" opacity=".1" d="m38 4c-9.097 0.0974-18.216-0.1219-27.298 0.1933-4.7416 1.0461-7.1223 6.1987-6.6366 10.711 0.0516 6.425-0.0639 12.871 0.0908 19.284 3.3237 6.6738 9.615 12.263 17.283 13.004 2.6104 0.81195 7.3988-1.0499 5.8207 3.3365-1.0128 2.7517 4.0311 7.8299-0.66734 7.2836-7.5876 1.0272-15.222 2.9815-21.905 6.7821-1.2108 1.2595-0.37989 3.2272-0.625 4.7911 0.090602 5.7347-0.19189 11.493 0.16178 17.211 0.75191 4.2532 5.1395 6.8488 9.2566 6.3415 2.1554-0.11033 4.3785 0.2185 6.4879-0.15625 1.639-0.71 1.327-3.442-0.469-3.657-8.685-2.283-10.583-16.089-2.557-20.409 5.738-3.264 12.545-3.471 18.963-3.997 4.5257 3.5328 10.824 6.2518 12.325 12.333 0.59061 4.0601 0.10069 8.8718-3.4585 11.513-1.3062 0.74455-2.4729 2.6307-1.1164 3.8727 1.4902 1.0175 3.4821 0.27234 5.1829 0.5 1.7349-0.17371 4.074 0.66075 5.1138-1.2404 4.439-5.225 8.096-11.768 7.251-18.862-0.5-8.319-7.149-14.3-13.236-19.142-2.454-2.033-7.144-4.962-3.915-8.462 3.379-3.666 7.707-6.575 9.916-11.213 4.167-7.472 3.685-17.317-1.592-24.128-1.428-1.5112-2.197-4.0118-4.221-4.766-3.375-0.4174-6.82-0.6066-10.156-1.125zm-10.406 4.9375c3.5902-0.39317 7.2105 1.0755 8.9723 4.3438 4.2157 6.1564 6.6071 14.391 4.1044 21.662-2.5349 5.2304-10.35 7.2051-14.751 3.0925-6.9-5.886-9.431-16.244-6.788-24.765 1.049-3.668 5.173-4.421 8.462-4.3335z"/>
     <path id="path4019" opacity=".15" d="m38 5.0625c-11.707 0.0201-26 0.0625-26 0.0625-1.98 0-3.6986 1.1077-4.9062 2.5938-1.2077 1.486-1.9688 3.3882-1.9688 5.2812l0.03125 20.656a0.86164 0.86164 0 0 0 0.125 0.4375c2.7905 4.9337 5.9769 8.2019 9.9375 10.156 3.707 1.8292 8.1264 2.4138 13.344 2.3438-0.95714 5.3162 0.31695 8.8541 2.125 11.812-9.272 0.761-17.539 2.926-25.094 6.844a0.86164 0.86164 0 0 0 -0.469 0.75v19c0 3.7864 3.0886 6.875 6.875 6.875h7a0.86842 0.86842 0 0 0 0.25 -1.7188c-3.11-0.882-5.256-2.818-6.625-5.156-1.3692-2.3382-1.9275-5.07-1.8438-7.375 0.22489-6.1885 3.6576-9.3556 8.625-11.281 4.888-1.8948 11.203-2.3487 16.812-2.7188 2.7835 2.1284 6.1645 4.0797 8.8125 6.5 2.7409 2.5052 4.6484 5.397 4.4688 9.6562-0.12111 2.8713-0.40599 4.6142-1.125 6.0625s-1.8989 2.6775-3.9375 4.5a0.86164 0.86164 0 0 0 0.563 1.531h4 3a0.86164 0.86164 0 0 0 0.65625 -0.3125c2.3706-2.871 5.0756-6.4647 6.5312-10.438 1.0843-3.2131 1.3247-7.5709 0.5625-10.812-1.2211-5.193-4.5338-9.3712-11.938-15.344-2.9362-2.3686-4.514-3.7879-5.25-4.8125-0.73599-1.0246-0.77764-1.5972-0.59375-2.9688 0.2175-1.6222 1.3929-3.211 4.8438-6.125 6.2268-5.2879 10.12-12.847 8.5-22.094-0.82972-4.7354-3.8285-8.6449-6.8438-12.5a0.86164 0.86164 0 0 0 -0.593 -0.3118l-9.437-0.9687a0.86164 0.86164 0 0 0 -0.438 -0.125zm-10.406 2.8125c2.7462-0.0005425 4.5033 0.1806 5.9688 0.9375 1.4654 0.7569 2.769 2.1337 4.5312 4.7812 2.2853 3.4333 3.8131 7.7373 4.4062 11.812 0.59314 4.0752 0.21871 7.9394-1.0625 10.469-1.2433 2.4544-4.1852 4.5484-7.6562 5.2812-2.789 0.589-5.318-0.073-7.657-1.656s-4.453-4.111-6.125-7.219c-2.551-4.742-3.827-11.862-2.344-17.812a0.86164 0.86164 0 0 0 0 -0.03125c0.707-3.029 2.054-4.5691 3.782-5.4692 1.727-0.9002 3.915-1.0917 6.156-1.0938z"/>
     <path id="path4015" opacity=".3" d="m38 5.9375c-11.707 0.0201-26 0.0625-26 0.0625-3.324 0-6 3.676-6 7l0.0313 20.656c5.4662 9.6642 12.241 12.479 23.5 12.125-1.4739 6.4539 0.35228 9.9963 2.5938 13.344-9.756 0.643-18.305 2.819-26.125 6.875v19c0 3.324 2.676 6 6 6h7c-6.667-1.891-9.2733-8.466-9.0938-13.406 0.4728-13.022 15.172-14.13 26.532-14.875 5.505 4.308 14.32 8.009 13.937 17.093-0.246 5.835-1.253 7.503-5.375 11.188h4 3c2.35-2.847 4.981-6.352 6.375-10.156 1.017-3.014 1.243-7.319 0.531-10.344-1.166-4.961-4.275-8.946-11.625-14.875-5.89-4.752-6.544-5.669-6.156-8.563 0.261-1.947 1.63-3.705 5.125-6.656 6.058-5.144 9.785-12.34 8.219-21.281-0.782-4.461-3.678-8.276-6.688-12.125l-9.781-1zm-10.406 1.0625c5.5682-0.0011 7.6298 0.73317 11.219 6.125 4.7401 7.1213 6.2204 17.569 3.4062 23.125-1.3959 2.7558-4.5538 4.9696-8.25 5.75-6.048 1.277-11.277-2.914-14.719-9.312-2.662-4.948-3.987-12.223-2.438-18.438 1.502-6.428 6.199-7.2458 10.782-7.25z"/>
     <path id="rect3064-7" d="m38 5.9375c-11.707 0.0201-26 0.0625-26 0.0625-3.324 0-6 2.676-6 6l0.0313 20.656c5.4662 9.6642 12.241 12.479 23.5 12.125-1.4739 6.4539 0.35228 9.9963 2.5938 13.344-9.756 0.643-18.305 2.819-26.125 6.875v19c0 3.324 2.676 6 6 6h7c-6.667-1.891-9.2733-8.466-9.0938-13.406 0.4728-13.022 15.172-14.13 26.532-14.875 5.505 4.308 14.32 8.009 13.937 17.093-0.246 5.835-1.253 7.503-5.375 11.188h4 3c2.35-2.847 4.981-6.352 6.375-10.156 1.017-3.014 1.243-7.319 0.531-10.344-1.166-4.961-4.275-8.946-11.625-14.875-5.89-4.752-6.544-5.669-6.156-8.563 0.261-1.947 1.63-3.705 5.125-6.656 6.058-5.144 9.785-12.34 8.219-21.281-0.782-4.461-3.678-8.2764-6.688-12.125h-9.781zm-10.406 0.0625c5.5682-0.0011 7.6298 0.73317 11.219 6.125 4.7401 7.1213 6.2204 17.569 3.4062 23.125-1.3959 2.7558-4.5538 4.9696-8.25 5.75-6.048 1.277-11.277-2.914-14.719-9.312-2.662-4.948-3.987-12.223-2.438-18.438 0.707-2.833 2.475-4.8189 4.969-6.25 1.665-0.955 1.918-0.9993 5.813-1z" fill="url(#linearGradient16678)"/>
    </g>
   </g>
  </g>
  <rect id="rect3873" rx="6" ry="6" height="84" width="84" display="none" y="947.34" x="107.91" fill="url(#linearGradient4982)"/>
  <rect id="rect3880" rx="6" ry="6" height="84" width="84" display="none" y="947.34" x="107.91" fill="url(#linearGradient4982)"/>
  <path id="rect5265-0" d="m5.4316 1029.8v5.0663c0 6.668 5.3645 12.032 12.032 12.032h61.049c6.668 0 12.032-5.3645 12.032-12.032v-5.0663c0 6.6681-5.3645 12.032-12.032 12.032h-61.049c-6.668 0-12.032-5.3643-12.032-12.032z" fill-opacity=".23529"/>
  <path id="path5252-0" d="m5.4316 1033.9v1.0133c0 6.668 5.3645 12.032 12.032 12.032h61.049c6.668 0 12.032-5.3645 12.032-12.032v-1.0133c0 6.6681-5.3645 12.032-12.032 12.032h-61.049c-6.668 0-12.032-5.3644-12.032-12.032z" fill-opacity=".098039"/>
 </g>
</svg>
