<?xml version="1.0" encoding="UTF-8" standalone="no"?>
<!-- Created with Inkscape (http://www.inkscape.org/) -->
<svg id="svg2" xmlns:rdf="http://www.w3.org/1999/02/22-rdf-syntax-ns#" xmlns="http://www.w3.org/2000/svg" height="96" width="96" version="1.1" xmlns:cc="http://creativecommons.org/ns#" xmlns:xlink="http://www.w3.org/1999/xlink" xmlns:dc="http://purl.org/dc/elements/1.1/">
 <defs id="defs4">
  <linearGradient id="linearGradient3700-0">
   <stop id="stop3702-2" stop-color="#70a83e" offset="0"/>
   <stop id="stop3704-9" stop-color="#9fd058" offset="1"/>
  </linearGradient>
  <linearGradient id="linearGradient4982" y2="5.9877" xlink:href="#linearGradient3700-0" gradientUnits="userSpaceOnUse" x2="48" gradientTransform="translate(101.91 941.34)" y1="90" x1="48"/>
  <clipPath id="clipPath3613-247">
   <rect id="rect3615-38" rx="6" ry="6" height="84" width="84" y="6" x="6" fill="#fff"/>
  </clipPath>
  <filter id="filter3794-80" height="1.384" width="1.384" color-interpolation-filters="sRGB" y="-.192" x="-.192">
   <feGaussianBlur id="feGaussianBlur3796-1" stdDeviation="5.28"/>
  </filter>
  <linearGradient id="linearGradient28296" y2="5.9877" gradientUnits="userSpaceOnUse" x2="48" gradientTransform="matrix(1.0547 0 0 1.101 -4.1889 -5.8078)" y1="202.5" x1="59">
   <stop id="stop3702-252" stop-color="#22193e" offset="0"/>
   <stop id="stop3704-94" stop-color="#9586af" offset="1"/>
  </linearGradient>
  <radialGradient id="radialGradient28317" gradientUnits="userSpaceOnUse" cy="-16.953" cx="64.145" gradientTransform="matrix(.55997 0 0 .15985 11.584 1033.9)" r="60.306">
   <stop id="stop4000-4" stop-color="#fff" offset="0"/>
   <stop id="stop4002-0" stop-color="#fff" stop-opacity="0" offset="1"/>
  </radialGradient>
  <linearGradient id="linearGradient28319" y2="138.66" gradientUnits="userSpaceOnUse" x2="48" y1="20.221" x1="48">
   <stop id="stop3739-89" stop-color="#fff" offset="0"/>
   <stop id="stop3741-634" stop-color="#fff" stop-opacity="0" offset="1"/>
  </linearGradient>
  <radialGradient id="radialGradient28321" gradientUnits="userSpaceOnUse" cy="-33.923" cx="46.972" gradientTransform="matrix(.59848 0 0 .56886 10.564 1014.1)" r="60.306">
   <stop id="stop4226-7" stop-color="#95d2f8" offset="0"/>
   <stop id="stop4240-8" stop-color="#357bb5" offset=".41"/>
   <stop id="stop4228-0" stop-color="#13324e" offset="1"/>
  </radialGradient>
  <radialGradient id="radialGradient28323" gradientUnits="userSpaceOnUse" cy="-19.96" cx="65.261" gradientTransform="matrix(.58463 0 0 .56967 11.483 1014.1)" r="60.306">
   <stop id="stop4465-1" stop-opacity="0" offset="0"/>
   <stop id="stop4467-3" stop-opacity="0" offset="0.91"/>
   <stop id="stop4469-1" offset="1"/>
  </radialGradient>
  <radialGradient id="radialGradient28325" gradientUnits="userSpaceOnUse" cy="19.781" cx="22.109" gradientTransform="matrix(1.5734 0 0 1.4686 8.1799 968.28)" r="19.19">
   <stop id="stop2314" stop-color="#e3ebf3" offset="0"/>
   <stop id="stop2316" stop-color="#cedceb" stop-opacity=".13178" offset="1"/>
  </radialGradient>
  <radialGradient id="radialGradient28327" gradientUnits="userSpaceOnUse" cy="-33.923" cx="46.972" gradientTransform="matrix(.59848 0 0 .56886 10.564 1014.1)" r="60.306">
   <stop id="stop4473-6" stop-color="#fff" offset="0"/>
   <stop id="stop4544-9" stop-color="#f6f6f6" offset=".5"/>
   <stop id="stop4475-9" stop-color="#8aa6c6" offset="1"/>
  </radialGradient>
 </defs>
 <metadata id="metadata7">
  <rdf:RDF>
   <cc:Work rdf:about="">
    <dc:format>image/svg+xml</dc:format>
    <dc:type rdf:resource="http://purl.org/dc/dcmitype/StillImage"/>
    <dc:title/>
   </cc:Work>
  </rdf:RDF>
 </metadata>
 <g id="layer1" transform="translate(0 -956.36)">
  <rect id="rect5261-6" fill-opacity=".039216" ry="12.552" height="88.762" width="88.762" y="959.96" x="3.6078"/>
  <rect id="rect5259-9" fill-opacity=".078431" ry="12.38" height="87.546" width="87.546" y="960.57" x="4.2157"/>
  <rect id="rect5257-5" fill-opacity=".15686" ry="12.208" height="86.33" width="86.33" y="961.18" x="4.8237"/>
  <path id="rect2419" d="m17.469 5.4062c-6.668 0-12.032 5.3948-12.032 12.063l0.0005 61.031c0 5.418 3.5332 9.982 8.4375 11.5h68.187c4.715-1.457 8.172-5.734 8.438-10.875v-62.281c-0.321-6.377-5.54-11.438-12-11.438l-61.031 0.0002z" transform="translate(0 956.36)" fill="url(#linearGradient28296)"/>
  <rect id="rect3873" rx="6" ry="6" height="84" width="84" display="none" y="947.34" x="107.91" fill="url(#linearGradient4982)"/>
  <rect id="rect3880" rx="6" ry="6" height="84" width="84" display="none" y="947.34" x="107.91" fill="url(#linearGradient4982)"/>
  <path id="rect5265-0" d="m5.4316 1029.8v5.0663c0 6.668 5.3645 12.032 12.032 12.032h61.049c6.668 0 12.032-5.3645 12.032-12.032v-5.0663c0 6.6681-5.3645 12.032-12.032 12.032h-61.049c-6.668 0-12.032-5.3643-12.032-12.032z" fill-opacity=".23529"/>
  <path id="path5252-0" d="m5.4316 1033.9v1.0133c0 6.668 5.3645 12.032 12.032 12.032h61.049c6.668 0 12.032-5.3645 12.032-12.032v-1.0133c0 6.6681-5.3645 12.032-12.032 12.032h-61.049c-6.668 0-12.032-5.3644-12.032-12.032z" fill-opacity=".098039"/>
  <g id="g28301" transform="matrix(1.0774 0 0 1.0774 -3.4259 -79.157)">
   <path id="path3990" opacity=".2" style="color:#000000" d="m81.273 1031.2a33.77 9.6397 0 0 1 -67.539 0 33.77 9.6397 0 1 1 67.539 0z" fill-rule="evenodd" fill="url(#radialGradient28317)"/>
   <g id="layer5" transform="translate(-.49660 955.57)">
    <rect id="rect3171" height="66" stroke="#fff" stroke-linecap="round" stroke-width=".5" fill="url(#linearGradient28319)" rx="12" ry="12" width="66" opacity=".1" clip-path="url(#clipPath3613-247)" filter="url(#filter3794-80)" y="15" x="15"/>
   </g>
   <path id="path3942" opacity=".05" style="color:#000000" d="m47.509 970.55c-18.752 0-34.023 15.271-34.023 34.023s15.273 34.007 34.023 34.007c18.751 0 34.007-15.257 34.007-34.007s-15.255-34.023-34.007-34.023z" fill-rule="evenodd"/>
   <path id="path3938" opacity=".1" style="color:#000000" d="m47.509 971.58c-18.195 0-32.995 14.8-32.995 32.995s14.802 32.979 32.995 32.979c18.194 0 32.979-14.786 32.979-32.979 0-18.194-14.784-32.995-32.979-32.995z" fill-rule="evenodd"/>
   <path id="path3934" opacity=".15" style="color:#000000" d="m47.509 972.61c-17.638 0-31.967 14.329-31.967 31.967s14.329 31.951 31.967 31.951 31.951-14.313 31.951-31.951-14.313-31.967-31.951-31.967z" fill-rule="evenodd"/>
   <path id="path3928" opacity=".3" style="color:#000000" d="m78.503 1004.6a31 31 0 0 1 -62 0 31 31 0 1 1 62 0z" fill-rule="evenodd"/>
   <path id="path3253" style="color:#000000" d="m78.503 1003.6a31 31 0 0 1 -62 0 31 31 0 1 1 62 0z" fill-rule="evenodd" fill="url(#radialGradient28321)"/>
   <path id="path4449" style="color:#000000" d="m78.503 1003.6a31 31 0 0 1 -62 0 31 31 0 1 1 62 0z" fill-rule="evenodd" fill="url(#radialGradient28323)"/>
   <path id="path4144" opacity=".6" d="m47.479 973.87-3.43 0.39768-4.2254 1.1682-0.79536 0.7705 2.6346 1.8144v1.0439l-1.0439 1.0439 1.367 2.7092 0.91964-0.4971 1.1433-1.8393c1.767-0.54733 3.3661-1.1604 5.0456-1.9387l1.367-3.5046-2.9826-1.1682zm-8.0282 0.42254c-0.75557 0.21365-1.5066 0.45105-2.237 0.72079l-0.02485 0.0249c-0.01449 0.005-0.03524-0.005-0.04971 0-1.0082 0.37536-1.9788 0.81582-2.9329 1.2925l1.4913 0.27341 0.57166-0.52196 1.1433-0.24855c0.78358-0.38181 1.5795-0.65022 2.4109-0.91963l-0.37282-0.62138zm-6.8351 2.9577-0.2237 0.52196 0.09942 1.2925-0.89478 0.7705-0.57166 1.4416h1.1433l0.57166-1.2925c0.49327-0.34949 0.96404-0.7075 1.4664-1.0439l1.1433 0.39768c0.76218 0.51881 1.5239 1.023 2.2867 1.541l1.1682-1.0439-1.2676-0.4971-0.57167-1.1682-2.1872-0.27341-0.09942-0.64623-1.0439 0.24855-0.44739 0.91964-0.57166-1.1682zm29.304 1.0439-2.1872 0.52196-1.367 0.89478v0.7705l-2.1624 1.4416 0.44739 2.063 1.2676-0.89478 0.79536 0.89478 0.91964 0.52195 0.57166-1.541-0.34797-0.91963 0.34797-0.64623 1.2428-1.1682h0.57166l-0.57166 1.2925v1.1682c0.52553-0.1433 1.0778-0.18155 1.6156-0.24855l-1.4913 1.019-0.12427 0.67109-1.715 1.4167-1.715-0.39768v-1.019l-0.79536 0.4971 0.34797 0.91963h-1.2676l-0.67109 1.1682-0.86992 0.96935-1.541 0.32311 0.91964 0.91964 0.2237 0.89477h-1.1433l-1.4913 0.79537v2.3115h0.69594l0.62138 0.7208 1.4416-0.7208 0.57167-1.4167 1.0191-0.64623 0.2237-0.52196 1.715-0.39768 0.91964 1.0439 1.0191 0.52196-0.57166 1.1682 0.91964-0.24855 0.47225-1.1682-1.1433-1.3173h0.44739l1.1433 0.91964 0.2237 1.2925 1.0439 1.1682 0.2237-1.6901 0.57166-0.24855c0.5655 0.58817 1.015 1.2767 1.4913 1.9387l1.715 0.12428 1.0191 0.64623-0.44739 0.64623-1.0439 0.91963h-1.4664l-1.9635-0.64623-1.0191 0.12428-0.74565 0.84507-2.1127-2.1375-1.4913-0.39768-2.1624 0.2734-1.9635 0.52196c-1.091 1.2392-2.1488 2.4661-3.1814 3.7531l-1.2676 2.9826 0.57167 0.6463-1.0191 1.5658 1.1433 2.7092c0.97254 1.1023 1.9369 2.2027 2.908 3.3057l1.4167-1.2179 0.64623 0.7208 1.541-0.9942 0.52196 0.5966h1.541l0.86993 0.9942-0.54681 1.7895 1.0936 1.2428-0.04971 2.1375 0.79536 1.541-0.57166 1.3173c-0.05696 0.9544-0.09942 1.879-0.09942 2.8335 0.46873 1.2932 0.92442 2.5998 1.367 3.9022l0.32311 2.063v1.0439h0.82022l1.2428-0.7705h1.4913l2.237-2.5352-0.29826-0.8451 1.4913-1.2924-1.0936-1.2428 1.3173-1.0936 1.2676-0.7705 0.57166-0.6462-0.34797-1.4416v-3.6289l1.0439-2.2121 1.2428-1.4167 1.367-3.3803v-0.8948c-0.67819 0.086-1.325 0.1508-1.9884 0.1989l-0.0497 0.05-0.0497-0.05c-0.40158 0.027-0.80497 0.05-1.2179 0.05-0.72835-1.5334-1.2846-3.0686-1.8393-4.6728l-0.96934-1.0936-0.4971-1.889 0.32312-0.37282 1.3173 1.4913 1.541 3.3057 0.91964 1.0191-0.44739 1.1682 0.86992 0.9942h0.09942l1.367-1.367 1.889-1.2925 1.0439-1.1682v-1.3173c-0.22894-0.4326-0.46544-0.8599-0.69595-1.2925l-0.91963 1.0439-0.69594-0.7705-1.0191-0.79532v-1.6653l1.193 1.3422 1.3173-0.17398c0.59916 0.54497 1.1895 1.0448 1.715 1.6653l0.84506-0.94452c-1.2092-7.4079-5.1271-13.905-10.688-18.467l-0.2237 0.34797-1.1433 1.2925-1.4664-1.541h1.4664l0.62138-0.69594c-0.0513-0.0394-0.09757-0.0851-0.14913-0.12428l-2.5104-0.47224-1.4913-0.52196zm-31.268 0.0994c-0.40441 0.27612-0.77818 0.57502-1.1682 0.86993l-0.17398 0.44739s-0.31346 0.0525-0.54681 0.0994c-6.4711 5.2034-10.761 13.028-11.259 21.848 0.3107 0.5335 0.69594 1.1433 0.69594 1.1433l2.4109 1.4167 2.3861 0.6711 1.0439 1.2925 1.5907 1.1682 0.91964-0.1492 0.69594 0.3232v0.1988l-0.91964 2.4607-0.69594 1.0439 0.2237 0.5219-0.57166 1.9387 2.063 3.778 2.063 1.8144 0.91964 1.2924-0.12428 2.7341 0.69594 1.541-0.69594 2.9826s-0.01638 0.022 0.02485 0.1988c0.96136 0.6817 1.9676 1.3215 3.0075 1.889 0.01628 0.01 0.03341 0.016 0.0497 0.025 0.04472 0.021 0.10693 0.055 0.14913 0.075 0.36863 0.1674 0.6391 0.266 0.69594 0.2237 0.22658-0.1724 0.42253-0.3231 0.42253-0.3231l-0.22369-0.6462 0.91964-0.9197 0.34797-0.8947 1.4664-0.522 1.1433-2.8583-0.32312-0.7705 0.79536-1.1682 1.715-0.3977 0.91964-2.0878-0.2237-2.5849 1.367-1.9387 0.2237-1.9387c-1.8777-0.9329-3.7535-1.8978-5.6172-2.8583l-0.89478-1.8145-1.715-0.3976-0.91964-2.4607-2.2867 0.2486-1.9387-1.4168-2.063 1.8145v0.2734c-0.62308-0.1802-1.3839-0.2051-1.9387-0.5469l-0.47224-1.2924v-1.4167l-1.367 0.1242c0.11455-0.9083 0.23264-1.801 0.34797-2.7092h-0.82022l-0.79536 1.0191-0.79536 0.3977-1.1433-0.6463-0.12428-1.4416 0.24855-1.541 1.715-1.2925h1.367l0.2237-0.79536 1.715 0.39768 1.2676 1.5659 0.2237-2.6098 2.1624-1.8144 0.82022-1.9387 1.5907-0.64624 0.91964-1.2925 2.063-0.39767 1.0191-1.5659h-3.082l1.9387-0.89478h1.367l1.9387-0.64623 0.24855-0.79536-0.69594-0.64623-0.79536-0.24855 0.2237-0.77051-0.57167-1.1682-1.367 0.4971 0.22369-1.0191-1.5907-0.91963-1.2676 2.2121 0.12428 0.77051-1.2676 0.52195-0.79536 1.6901-0.34797-1.5659-2.1624-0.89478-0.34797-1.1682 2.8583-1.6901 1.2428-1.1682 0.12428-1.4167-0.69594-0.39768-0.12428-0.0248zm19.909 1.5907-0.89478 0.4971-0.47225-0.12427-0.09942 0.79536 0.79536 0.4971 1.367-0.89478-0.69594-0.77051zm-15.087 0.24855-0.91964 0.64623 1.1433 0.77051h0.91964v-0.89478l-1.1433-0.52196zm18.07 2.9826v0.7705l0.47225 0.52196v1.1682l-0.24855 1.5659 1.2676-0.27341 0.91964-0.89478-0.79536-0.7705c-0.2689-0.71744-0.58308-1.3997-0.91964-2.0878h-0.69594zm-0.44739 1.5659-0.82022 0.24855 0.24855 1.4167 1.0191-0.49711-0.44739-1.1682zm-15.783 2.3364 0.32312 1.8144 0.69594-1.0439-1.0191-0.77051z" fill="url(#radialGradient28325)"/>
   <path id="path3983" opacity=".1" d="m47.41 973.32-3.4375 0.375a0.56475 0.56475 0 0 0 -0.09375 0.0313l-3.5312 1a0.56475 0.56475 0 0 0 -0.0625 -0.0937l-0.375-0.625a0.56475 0.56475 0 0 0 -0.625 -0.25c-0.76806 0.21718-1.5046 0.44346-2.25 0.71875a0.56475 0.56475 0 0 0 -0.03125 0.0313 0.56475 0.56475 0 0 0 -0.03125 0c-0.02275 0.007-0.0032-0.0105-0.03125 0a0.56475 0.56475 0 0 0 -0.03125 0.0313c-1.0147 0.37947-2.0105 0.80252-2.9688 1.2812a0.56475 0.56475 0 0 0 0.03125 1.0312l-0.46875 0.0937a0.56475 0.56475 0 0 0 -0.3125 0.21875l-0.0625-0.15625a0.56475 0.56475 0 0 0 -1 0l-0.25 0.53125a0.56475 0.56475 0 0 0 -0.0625 0.3125l0.0625 0.5625a0.56475 0.56475 0 0 0 -0.125 -0.0937l-0.6875-0.40625a0.56475 0.56475 0 0 0 -0.15625 -0.0625l-0.125-0.0313a0.56475 0.56475 0 0 0 -0.4375 0.0937c-0.42307 0.28886-0.83204 0.61383-1.2188 0.90625a0.56475 0.56475 0 0 0 -0.1875 0.25l-0.0625 0.15625c-0.10478 0.0169-0.13991 0.009-0.25 0.0313a0.56475 0.56475 0 0 0 -0.21875 0.125c-6.5916 5.3003-10.962 13.267-11.469 22.25a0.56475 0.56475 0 0 0 0.0625 0.3125c0.31928 0.5482 0.71875 1.1562 0.71875 1.1562a0.56475 0.56475 0 0 0 0.1875 0.1875l2.4062 1.4375a0.56475 0.56475 0 0 0 0.125 0.031l2.25 0.625 0.90625 1.1563a0.56475 0.56475 0 0 0 0.09375 0.125l1.5938 1.1562a0.56475 0.56475 0 0 0 0.4375 0.094l0.78125-0.125 0.09375 0.063-0.75 2.0313-0.0625 0.125-0.625 0.9062a0.56475 0.56475 0 0 0 -0.0625 0.5313l0.15625 0.375-0.5 1.7187a0.56475 0.56475 0 0 0 0.03125 0.4375l2.0625 3.7813a0.56475 0.56475 0 0 0 0.125 0.1562l2.0625 1.8125 0.71875 1-0.125 2.5625a0.56475 0.56475 0 0 0 0.0625 0.2813l0.625 1.3125-0.6875 2.8125s0.0015 0.09 0 0.125-0.0029 0.058 0 0.094c0.0058 0.071 0.0061 0.1421 0.03125 0.25a0.56475 0.56475 0 0 0 0.25 0.3437c0.97887 0.694 1.9717 1.3279 3.0312 1.9063 0.06193 0.034 0.09195 0.047 0.0625 0.031a0.56475 0.56475 0 0 0 0.03125 0c0.10838 0.051 0.20651 0.071 0.1875 0.063 0.18198 0.083 0.32246 0.1609 0.46875 0.2187 0.07315 0.029 0.15638 0.073 0.25 0.094 0.09361 0.021 0.24357 0.089 0.53125-0.125 0.23557-0.1793 0.4375-0.3437 0.4375-0.3437a0.56475 0.56475 0 0 0 0.1875 -0.6563l-0.09375-0.2812 0.65625-0.6563a0.56475 0.56475 0 0 0 0.125 -0.2187l0.25-0.6563 1.2188-0.4062a0.56475 0.56475 0 0 0 0.34375 -0.3125l1.1562-2.875a0.56475 0.56475 0 0 0 -0.03125 -0.4688l-0.1875-0.4375 0.46875-0.7187 1.5312-0.3438a0.56475 0.56475 0 0 0 0.40625 -0.3437l0.90625-2.0938a0.56475 0.56475 0 0 0 0.03125 -0.2812l-0.1875-2.375 1.25-1.7813a0.56475 0.56475 0 0 0 0.09375 -0.25l0.21875-1.9375a0.56475 0.56475 0 0 0 -0.3125 -0.5625c-1.8173-0.9029-3.6563-1.8466-5.4688-2.7812l-0.8125-1.6563a0.56475 0.56475 0 0 0 -0.375 -0.3125l-1.4375-0.3125-0.78125-2.1562a0.56475 0.56475 0 0 0 -0.59375 -0.375l-2.0312 0.2187-1.7812-1.2812a0.56475 0.56475 0 0 0 -0.71875 0.031l-2.0625 1.8125c-0.42623-0.086-0.86621-0.1613-1.125-0.2813l-0.34375-0.9687v-1.3125a0.56475 0.56475 0 0 0 -0.625 -0.5625l-0.65625 0.063c0.08538-0.6766 0.1639-1.3533 0.25-2.0313a0.56475 0.56475 0 0 0 -0.5625 -0.625h-0.8125a0.56475 0.56475 0 0 0 -0.4375 0.2188l-0.71875 0.9375-0.40625 0.1875-0.65625-0.3438-0.09375-1v-0.063l0.21875-1.2812 1.375-1.0313h1.1875a0.56475 0.56475 0 0 0 0.53125 -0.40625l0.0625-0.25 1.0625 0.25 1.0938 1.375a0.56475 0.56475 0 0 0 1 -0.2813l0.21875-2.375 2-1.6875a0.56475 0.56475 0 0 0 0.15625 -0.21875l0.71875-1.7188 1.375-0.5625a0.56475 0.56475 0 0 0 0.25 -0.21875l0.75-1.0625 1.8438-0.375a0.56475 0.56475 0 0 0 0.375 -0.25l1.0312-1.5625a0.56475 0.56475 0 0 0 -0.03125 -0.65625 0.56475 0.56475 0 0 0 0 -0.0313l0.875-0.28125 0.28125 1.5625a0.56475 0.56475 0 0 0 1.0312 0.21875l0.71875-1.0625a0.56475 0.56475 0 0 0 -0.125 -0.78125l-0.625-0.46875a0.56475 0.56475 0 0 0 0.09375 -0.1875l0.25-0.8125a0.56475 0.56475 0 0 0 -0.15625 -0.5625l-0.6875-0.625a0.56475 0.56475 0 0 0 -0.21875 -0.125l-0.25-0.0937 0.0625-0.21875a0.56475 0.56475 0 0 0 -0.03125 -0.4375l-0.59375-1.1562a0.56475 0.56475 0 0 0 -0.6875 -0.28125l-0.375 0.125a0.56475 0.56475 0 0 0 -0.0625 -0.40625 0.56475 0.56475 0 0 0 0.28125 0.0625h0.9375a0.56475 0.56475 0 0 0 0.5625 -0.5625v-0.40625c0.04301 0.0291 0.08198 0.0645 0.125 0.0937a0.56475 0.56475 0 0 0 0.6875 -0.0313l1.1875-1.0312a0.56475 0.56475 0 0 0 -0.15625 -0.96875l-1.0938-0.4375-0.46875-0.96875a0.56475 0.56475 0 0 0 -0.4375 -0.3125l-1.75-0.1875-0.03125-0.25a0.56475 0.56475 0 0 0 -0.03125 -0.0625l0.375 0.0625a0.56475 0.56475 0 0 0 0.46875 -0.15625l0.4375-0.40625 1.0312-0.21875a0.56475 0.56475 0 0 0 0.125 -0.0625c0.26543-0.12933 0.56981-0.20593 0.84375-0.3125a0.56475 0.56475 0 0 0 0.21875 0.65625l2.375 1.625v0.53125l-0.875 0.875a0.56475 0.56475 0 0 0 -0.09375 0.65625l1.3438 2.7188a0.56475 0.56475 0 0 0 0.78125 0.25l0.9375-0.5a0.56475 0.56475 0 0 0 0.1875 -0.21875l1.0312-1.6875c1.699-0.53568 3.3084-1.1201 4.9375-1.875a0.56475 0.56475 0 0 0 0.28125 -0.28125l1.375-3.5a0.56475 0.56475 0 0 0 -0.34375 -0.75l-3-1.1562a0.56475 0.56475 0 0 0 -0.25 -0.0313zm0.0625 0.5625 3 1.1562-1.375 3.5c-1.6795 0.77829-3.2955 1.3902-5.0625 1.9375l-1.125 1.8438-0.9375 0.5-1.3438-2.7188 1.0312-1.0312v-1.0625l-2.625-1.8125 0.78125-0.75 4.2188-1.1875 3.4375-0.375zm-8.0312 0.40625 0.375 0.625c-0.83141 0.26941-1.6227 0.52444-2.4062 0.90625l-1.1562 0.25-0.5625 0.53125-1.5-0.28125c0.95408-0.47664 1.9293-0.90589 2.9375-1.2812 0.01447-0.005 0.04801 0.005 0.0625 0l0.03125-0.0313c0.73033-0.26974 1.4632-0.5051 2.2188-0.71875zm-6.8125 2.9688 0.5625 1.1562 0.4375-0.90625 1.0625-0.25 0.09375 0.65625 2.1875 0.25 0.5625 1.1875 1.2812 0.5-1.1875 1.0312c-0.7628-0.51802-1.5191-1.0124-2.2812-1.5312l-1.1562-0.40625c-0.5024 0.33641-0.94423 0.68176-1.4375 1.0312l-0.59375 1.3125h-1.125l0.5625-1.4375 0.90625-0.78125-0.125-1.2812 0.25-0.53125zm29.156 0.46875-2.1875 0.53125a0.56475 0.56475 0 0 0 -0.1875 0.0937l-1.3438 0.90625a0.56475 0.56475 0 0 0 -0.25 0.46875v0.4375l-1.9375 1.2812a0.56475 0.56475 0 0 0 -0.25 0.59375l0.46875 2.0625a0.56475 0.56475 0 0 0 0.5625 0.4375 0.56475 0.56475 0 0 0 0.03125 0.28125l0.0625 0.15625h-0.4375a0.56475 0.56475 0 0 0 -0.4375 0.21875l-0.25-0.21875c-0.26043-0.67933-0.55607-1.3479-0.875-2a0.56475 0.56475 0 0 0 -0.5 -0.3125h-0.71875a0.56475 0.56475 0 0 0 -0.5625 0.5625v0.75a0.56475 0.56475 0 0 0 0.03125 0.25 0.56475 0.56475 0 0 0 -0.0625 0.0313l-0.8125 0.25a0.56475 0.56475 0 0 0 -0.40625 0.625l0.25 1.4062a0.56475 0.56475 0 0 0 0.8125 0.40625l0.46875-0.25-0.0625 0.46875a0.56475 0.56475 0 0 0 0.03125 0.25l-0.125 0.0313a0.56475 0.56475 0 0 0 -0.28125 0.96875l0.8125 0.84375h-0.40625a0.56475 0.56475 0 0 0 -0.28125 0.0625l-1.5 0.8125a0.56475 0.56475 0 0 0 -0.28125 0.5v2.3125a0.56475 0.56475 0 0 0 0.5625 0.5625h0.40625l0.4375 0.5c-1.0567 1.2013-2.0848 2.3988-3.0938 3.6562a0.56475 0.56475 0 0 0 -0.09375 0.125l-1.25 2.9688a0.56475 0.56475 0 0 0 0.09375 0.5937l0.28125 0.3438-0.78125 1.1875a0.56475 0.56475 0 0 0 -0.0625 0.5312l1.1562 2.7188a0.56475 0.56475 0 0 0 0.09375 0.1562c0.97072 1.1002 1.9336 2.2077 2.9062 3.3125a0.56475 0.56475 0 0 0 0.8125 0.063l1-0.875 0.28125 0.3125a0.56475 0.56475 0 0 0 0.71875 0.094l1.125-0.75 0.21875 0.25a0.56475 0.56475 0 0 0 0.40625 0.1875h1.25l0.53125 0.5938-0.4375 1.4687a0.56475 0.56475 0 0 0 0.09375 0.5313l0.96875 1.0937-0.0625 1.875a0.56475 0.56475 0 0 0 0.0625 0.2813l0.65625 1.3125-0.46875 1.0937a0.56475 0.56475 0 0 0 -0.03125 0.1875c-0.05736 0.9611-0.09375 1.8747-0.09375 2.8438a0.56475 0.56475 0 0 0 0.03125 0.1875c0.45657 1.2596 0.9122 2.545 1.3438 3.8125 0.01055 0.031 0.02073 0.063 0.03125 0.094l0.28125 1.875v0.094 0.9687a0.56475 0.56475 0 0 0 0.5625 0.5625h0.8125a0.56475 0.56475 0 0 0 0.3125 -0.094l1.0938-0.6875h1.3438a0.56475 0.56475 0 0 0 0.4375 -0.1875l2.2188-2.5312a0.56475 0.56475 0 0 0 0.09375 -0.5625l-0.15625-0.4688 1.2188-1.0312a0.56475 0.56475 0 0 0 0.0625 -0.8125l-0.71875-0.8125 0.8125-0.6875 0.0625-0.031 1.1875-0.75a0.56475 0.56475 0 0 0 0.0937 -0.094l0.59375-0.6563a0.56475 0.56475 0 0 0 0.125 -0.5312l-0.34375-1.2813v-0.031-3.4687l0.9375-1.9688 1.25-1.4062a0.56475 0.56475 0 0 0 0.0937 -0.1563l1.3438-3.375a0.56475 0.56475 0 0 0 0.03135 -0.2187v-0.9063a0.56475 0.56475 0 0 0 -0.625 -0.5625c-0.13145 0.017-0.24775 0.015-0.375 0.031l0.21875-0.2187 1.8125-1.2188a0.56475 0.56475 0 0 0 0.125 -0.094l1.0312-1.1875a0.56475 0.56475 0 0 0 0.125 -0.375v-1.3125a0.56475 0.56475 0 0 0 -0.0312 -0.2187 0.56475 0.56475 0 0 0 0.78125 -0.063l0.84375-0.9375a0.56475 0.56475 0 0 0 0.1562 -0.4688c-1.232-7.5475-5.2429-14.166-10.906-18.812a0.56475 0.56475 0 0 0 -0.53125 -0.0937 0.56475 0.56475 0 0 0 -0.21875 -0.5c-0.03172-0.0244-0.08296-0.0694-0.15625-0.125a0.56475 0.56475 0 0 0 -0.25 -0.125l-2.4062-0.4375-0.09375-0.0313-1.4062-0.5a0.56475 0.56475 0 0 0 -0.3125 -0.0313zm0.125 0.5625 1.5 0.53125 2.5 0.46875c0.05153 0.0391 0.10495 0.0856 0.15625 0.125l-0.625 0.6875h-1.4688l1.4688 1.5625 1.1562-1.3125 0.21875-0.34375c5.5606 4.562 9.4783 11.061 10.688 18.469l-0.84375 0.93755c-0.52554-0.6205-1.1196-1.1113-1.7188-1.6563l-1.3125 0.1875-1.1875-1.3438v1.6562l1 0.7813 0.71876 0.7812 0.90625-1.0312c0.2305 0.4325 0.45855 0.8486 0.6875 1.2812v1.3125l-1.0312 1.1875-1.9063 1.2813-1.3438 1.375c0.66343-0.048 1.2906-0.1332 1.9688-0.2188v0.9063l-1.3438 3.375-1.25 1.4062-1.0625 2.2188v3.625l0.375 1.4375-0.59375 0.6562-1.25 0.7813-1.3125 1.0937 1.0938 1.25-1.5 1.2813 0.28125 0.8437-2.2188 2.5313h-1.5l-1.25 0.7812h-0.8125v-1.0625l-0.3125-2.0625c-0.44261-1.3024-0.90627-2.6131-1.375-3.9062 0-0.9546 0.03679-1.8582 0.09375-2.8125l0.5625-1.3125-0.78125-1.5625 0.0625-2.125-1.0938-1.25 0.53125-1.7813-0.875-1h-1.5312l-0.53125-0.5937-1.5312 1-0.65625-0.7188-1.4062 1.2188c-0.97113-1.1031-1.9337-2.2103-2.9062-3.3125l-1.1562-2.7188 1.0312-1.5625-0.5625-0.6562 1.25-2.9688c1.0327-1.287 2.0965-2.5108 3.1875-3.75l1.9688-0.53125 2.1562-0.28125 1.5 0.40625 2.0938 2.1562 0.75-0.875 1.0312-0.0937 1.9688 0.625h1.4688l1.0312-0.90625 0.4375-0.65625-1-0.65625-1.7188-0.125c-0.47628-0.66195-0.9345-1.3493-1.5-1.9375l-0.5625 0.25-0.21875 1.6875-1.0625-1.1562-0.21875-1.2812-1.1562-0.9375h-0.4375l1.1562 1.3125-0.46875 1.1875-0.9375 0.25 0.5625-1.1875-1-0.5-0.9375-1.0625-1.6875 0.40625-0.25 0.53125-1 0.625-0.59375 1.4375-1.4375 0.71875-0.625-0.71875h-0.6875v-2.3125l1.5-0.8125h1.1562l-0.25-0.875-0.90625-0.9375 1.5312-0.3125 0.875-0.96875 0.6875-1.1875h1.25l-0.34375-0.90625 0.78125-0.5v1.0312l1.7188 0.375 1.7188-1.4062 0.125-0.65625 1.5-1.0312c-0.53781 0.067-1.0995 0.1067-1.625 0.25v-1.1562l0.5625-1.3125h-0.5625l-1.25 1.1875-0.34375 0.625 0.34375 0.9375-0.5625 1.5312-0.90625-0.53125-0.8125-0.875-1.25 0.875-0.46875-2.0625 2.1875-1.4375v-0.75l1.3438-0.90625 2.1875-0.53125zm9.5625 26.938h-0.0937l0.0312 0.031 0.0625-0.031zm-0.0937 0-0.875-1 0.4375-1.1875-0.90625-1-1.5625-3.3126-1.3125-1.5-0.3125 0.375 0.5 1.9062 0.96875 1.0938c0.55464 1.6041 1.1154 3.1228 1.8438 4.6562 0.41292 0 0.81717 0 1.2188-0.031zm-40.719-26.844 0.125 0.0313 0.6875 0.40625-0.125 1.4062-1.25 1.1875-2.8438 1.6875 0.34375 1.1562 2.1562 0.90625 0.34375 1.5625 0.8125-1.6875 1.25-0.53125-0.125-0.78125 1.2812-2.1875 1.5938 0.90625-0.21875 1.0312 1.3438-0.5 0.59375 1.1562-0.25 0.78125 0.8125 0.25 0.6875 0.625-0.25 0.8125-1.9375 0.65625h-1.375l-1.9375 0.875h3.0938l-1.0312 1.5625-2.0625 0.40625-0.90625 1.2812-1.5938 0.65625-0.8125 1.9375-2.1562 1.8125-0.25 2.625-1.25-1.5625-1.7188-0.40625-0.21875 0.78125h-1.375l-1.7188 1.3125-0.25 1.5313 0.125 1.4375 1.1562 0.6562 0.78125-0.4062 0.8125-1.0313h0.8125c-0.11533 0.9082-0.2292 1.8104-0.34375 2.7188l1.375-0.125v1.4062l0.46875 1.3125c0.5548 0.3418 1.3144 0.3511 1.9375 0.5313v-0.25l2.0625-1.8125 1.9375 1.4062 2.2812-0.25 0.90625 2.4688 1.7188 0.375 0.90625 1.8125c1.8637 0.9605 3.7473 1.942 5.625 2.875l-0.21875 1.9375-1.375 1.9375 0.21875 2.5937-0.90625 2.0938-1.7188 0.375-0.8125 1.1875 0.34375 0.75-1.1562 2.875-1.4688 0.5-0.34375 0.9062-0.9375 0.9375 0.25 0.625s-0.21092 0.1713-0.4375 0.3438c-0.05684 0.042-0.31887-0.083-0.6875-0.25-0.0422-0.019-0.11153-0.041-0.15625-0.063-0.01629-0.01-0.04622-0.022-0.0625-0.031-1.0398-0.5676-2.0386-1.1934-3-1.875-0.04123-0.1769-0.03125-0.2188-0.03125-0.2188l0.71875-2.9687-0.71875-1.5313 0.125-2.75-0.90625-1.2812-2.0625-1.8125-2.0625-3.7813 0.5625-1.9375-0.21875-0.5312 0.6875-1.0313 0.9375-2.4687v-0.1875l-0.6875-0.3438-0.9375 0.1563-1.5938-1.1563-1.0312-1.3125-2.4062-0.6562-2.4062-1.4375s-0.3768-0.5915-0.6875-1.125c0.49794-8.8195 4.7789-16.64 11.25-21.844 0.23336-0.0469 0.5625-0.0937 0.5625-0.0937l0.15625-0.46875c0.39-0.29491 0.78309-0.59888 1.1875-0.875zm19.781 1.0312a0.56475 0.56475 0 0 0 -0.15625 0.0625l-0.71875 0.40625-0.21875-0.0625a0.56475 0.56475 0 0 0 -0.71875 0.46875l-0.09375 0.8125a0.56475 0.56475 0 0 0 0.25 0.53125l0.78125 0.5a0.56475 0.56475 0 0 0 0.625 0l1.375-0.90625a0.56475 0.56475 0 0 0 0.125 -0.84375l-0.6875-0.78125a0.56475 0.56475 0 0 0 -0.5625 -0.1875zm-16.156 0.15625 0.75 0.25-0.8125 0.59375a0.56475 0.56475 0 0 0 0.03125 0.9375l0.46875 0.34375-1.125-0.65625a0.56475 0.56475 0 0 0 -0.78125 0.21875l-0.15625 0.25 0.53125-1.1562c0.37632-0.2704 0.73632-0.53202 1.0938-0.78125zm16.281 0.40625 0.6875 0.78125-1.375 0.90625-0.78125-0.5 0.09375-0.8125 0.46875 0.125 0.90625-0.5zm-15.094 0.25 1.1562 0.53125v0.90625h-0.9375l-1.125-0.78125 0.90625-0.65625zm29.781 0.4375h0.1875a0.56475 0.56475 0 0 0 0.125 0l-0.15625 0.15625-0.15625-0.15625zm-34.625 1a0.56475 0.56475 0 0 0 0.40625 0.1875h1.125a0.56475 0.56475 0 0 0 0.375 -0.125l-1 1.7188a0.56475 0.56475 0 0 0 -0.0625 0.375l0.0625 0.34375-0.84375 0.34375a0.56475 0.56475 0 0 0 -0.28125 0.28125l-0.09375 0.21875a0.56475 0.56475 0 0 0 -0.34375 -0.375l-1.9375-0.8125-0.125-0.4375 2.4688-1.4688a0.56475 0.56475 0 0 0 0.09375 -0.0937l0.15625-0.15625zm30.094 1.5h0.375a0.56475 0.56475 0 0 0 -0.09375 0.21875l-0.09375 0.46875-0.625 0.5 0.4375-1.1875zm-7.1875 0.0625h0.71875c0.33656 0.68811 0.63735 1.3763 0.90625 2.0938l0.78125 0.75-0.90625 0.90625-1.2812 0.28125 0.25-1.5938v-1.1562l-0.46875-0.53125v-0.75zm5.0312 1.3125 0.40625 0.25-0.40625-0.0937v-0.15625zm-5.4688 0.25 0.4375 1.1562-1 0.5-0.25-1.4062 0.8125-0.25zm-15.781 2.3438 1.0312 0.75-0.71875 1.0625-0.3125-1.8125zm20.5 3.4688 0.6875 0.78125a0.56475 0.56475 0 0 0 0.1875 0.125l0.5 0.25-0.3125 0.6875a0.56475 0.56475 0 0 0 0.65625 0.78125l0.9375-0.25a0.56475 0.56475 0 0 0 0.375 -0.3125l0.09375-0.25a0.56475 0.56475 0 0 0 0.09375 0.125l1.0625 1.1562a0.56475 0.56475 0 0 0 0.96875 -0.3125l0.15625-1.1562c0.37503 0.45224 0.72354 0.92297 1.0938 1.4375a0.56475 0.56475 0 0 0 0.4375 0.21875l1.5625 0.125 0.40625 0.25-0.03125 0.0625-0.03125 0.0313-0.84375 0.75h-1.1875-0.0625l-1.8125-0.59375a0.56475 0.56475 0 0 0 -0.21875 -0.0313l-1.0312 0.0937a0.56475 0.56475 0 0 0 -0.375 0.1875l-0.34375 0.40625-1.6562-1.7188a0.56475 0.56475 0 0 0 -0.25 -0.125l-1.5-0.40625a0.56475 0.56475 0 0 0 -0.21875 -0.0313l-2.1562 0.28125 0.53125-1.2812 0.84375-0.53125a0.56475 0.56475 0 0 0 0.1875 -0.21875l0.125-0.28125 1.125-0.25zm16.875 7.7812a0.56475 0.56475 0 0 0 -0.0625 0.0313l-0.5 0.5625-0.28126-0.3125a0.56475 0.56475 0 0 0 -0.0625 -0.0625l-0.125-0.0937a0.56475 0.56475 0 0 0 0.0625 0l0.96876-0.125zm-6.9688 0.34375 0.3125 0.37505 0.3125 0.6562-0.5-0.5625-0.125-0.46875zm1.9062 3.6876 0.65625 0.75-0.15625 0.4687c-0.16873-0.4026-0.34437-0.8105-0.5-1.2187z"/>
   <path id="path4540" style="color:#000000" d="m47.503 973.86c-3.7043 0-7.2397 0.69708-10.511 1.9375 9.0048 0.15798 14.087 1.0932 18.697 3.6167 0.38419 0.21029 0.76684 0.42918 1.1464 0.66198 1.1386 0.6984 2.2709 1.504 3.4391 2.4219 5.0348 3.956 5.4755 8.7701 9.7521 12.448 2.6036 2.2394 2.2512 2.0505 3.4552 2.0505 1.3177 0 1.9885-1.191 2.3089-2.4865-3.8342-11.972-15.048-20.651-28.288-20.651zm-11.916 5.4573c-0.6296 0-1.257 0.0679-1.8729 0.19375-0.20529 0.042-0.41022 0.0908-0.61354 0.14532-5.6929 1.5251-10.564 7.8054-12.158 10.689-0.10136 0.18339-0.21624 0.39895-0.32292 0.5974-0.84614 1.7966-1.5275 3.6797-2.0021 5.651 0.45582-0.5832 0.89943-1.1306 1.3401-1.6469 3.0847-3.614 5.9077-5.5703 9.962-5.5703 7.2342 0 8.1533 3.223 21.409 11.867 6.5241 4.2543 16.424 10.121 24.59 10.995 0.33498-1.0983 0.60033-2.2263 0.8073-3.3745-3.0551-0.2205-5.8073-1.3851-8.7833-3.3583-0.42516-0.2819-0.85594-0.5732-1.2917-0.888-3.4858-2.5182-7.3599-6.0786-12.4-10.495-3.8376-3.3626-13.489-14.806-18.665-14.806zm-10.365 33.88c-2.2938 0-4.0053 1.1626-4.1979 3.7781 3.2156 6.3129 8.6161 11.322 15.209 14.031-0.0874-0.1223-0.17036-0.2511-0.25833-0.3875-0.6158-0.9548-1.2109-2.2462-1.2109-3.7297 0-1.7259 1.1161-2.4057 2.3734-2.4057 1.6745 0 7.2017 2.6318 16.453 2.6318 4.6271 0 10.4-0.6778 14.628-2.3089 1.67-1.626 3.1394-3.4464 4.3917-5.425-2.7026 1.0957-7.7002 2.6802-14.208 2.6802-12.573 0-24.038-5.3665-27.351-7.088-0.87868-0.4566-3.131-1.776-5.8286-1.776z" fill-rule="evenodd" fill="url(#radialGradient28327)"/>
   <path id="path3870" opacity=".6" style="color:#000000" d="m47.504 973.85c-3.7043 0-7.25 0.701-10.521 1.9414 1.0055 0.0176 1.9683 0.0558 2.8808 0.0939 2.4367-0.65404 4.9971-1.0333 7.6404-1.0333 13.055 0 24.137 8.4516 28.119 20.166 0.0554-0.16544 0.11412-0.32936 0.15656-0.501-3.8342-11.972-15.036-20.667-28.276-20.667zm-11.931 5.48c-0.6296 0-1.2316 0.062-1.8475 0.18788-0.20529 0.042-0.42294 0.0708-0.62626 0.12525-5.6929 1.5251-10.556 7.826-12.149 10.709-0.10136 0.1834-0.23777 0.39651-0.34444 0.59495-0.84614 1.7966-1.4981 3.665-1.9727 5.6364 0.12569-0.16081 0.25173-0.28292 0.37576-0.43838 0.0028-0.01-0.0028-0.0219 0-0.0313 0.43012-1.4354 0.96652-2.826 1.597-4.1646 0.10667-0.19844 0.24308-0.41155 0.34444-0.59495 1.5935-2.8831 6.4565-9.184 12.149-10.709 0.20332-0.0545 0.42097-0.0833 0.62626-0.12525 0.61588-0.1259 1.2179-0.18788 1.8475-0.18788 5.1751 0 14.856 11.417 18.694 14.78 5.0401 4.4163 8.9142 8.003 12.4 10.521 0.43573 0.3148 0.85868 0.5949 1.2838 0.8768 2.9137 1.9318 5.6009 3.0646 8.5798 3.3192 0.0678-0.3198 0.12962-0.6476 0.18788-0.9707-3.0551-0.2206-5.7916-1.3773-8.7677-3.3505-0.42515-0.2819-0.84811-0.562-1.2838-0.8768-3.4858-2.5182-7.3599-6.105-12.4-10.521-3.837-3.36-13.518-14.78-18.694-14.78zm-10.365 33.912c-2.2938 0-4.0034 1.1734-4.196 3.7889 0.04272 0.084 0.08177 0.1671 0.12525 0.2505 0.4383-2.0951 2.0063-3.0374 4.0707-3.0374 2.6977 0 4.9769 1.3282 5.8555 1.7849 3.3126 1.7215 14.764 7.0767 27.336 7.0767 5.8745 0 10.503-1.2913 13.339-2.3485 0.30766-0.4339 0.59145-0.8956 0.87677-1.3464-2.7026 1.0956-7.7081 2.6929-14.216 2.6929-12.573 0-24.024-5.3552-27.336-7.0768-0.87869-0.4566-3.1579-1.7848-5.8555-1.7848zm9.5818 14.31c-0.01337 0.1231-0.03131 0.2398-0.03131 0.3757 0 1.0471 0.29792 1.982 0.68889 2.7869 0.26064 0.116 0.51828 0.2357 0.78283 0.3444-0.0874-0.1222-0.16253-0.2706-0.2505-0.407-0.52936-0.8208-1.056-1.8736-1.1899-3.1z" fill-rule="evenodd" fill="#fff"/>
   <path id="path3888" opacity=".3" style="color:#000000" d="m39.863 975.89c-0.97804 0.26252-1.9439 0.55281-2.8808 0.90808 9.0048 0.15799 14.084 1.1088 18.694 3.6323 0.38419 0.2103 0.77907 0.42478 1.1586 0.65758 1.1386 0.6984 2.2763 1.4933 3.4444 2.4111 5.0348 3.956 5.4618 8.7843 9.7384 12.463 2.6036 2.2394 2.2718 2.0354 3.4758 2.0354 1.3177 0 1.9655-1.1783 2.2859-2.4737-0.0533-0.16652-0.10039-0.33577-0.15656-0.50101-0.36299 1.0832-0.98619 1.9727-2.1293 1.9727-1.204 0-0.87214 0.20405-3.4758-2.0354-4.2766-3.6783-4.7035-8.5066-9.7384-12.463-1.1681-0.91782-2.3059-1.7127-3.4444-2.4111-0.37952-0.2328-0.7744-0.44728-1.1586-0.65758-4.0955-2.2417-8.5539-3.2349-15.813-3.5384zm-9.9576 13.496c-4.0543 0-6.8729 1.9598-9.9576 5.5737-0.31403 0.36791-0.61902 0.75737-0.93939 1.1586-0.0028 0.009 0.0028 0.0218 0 0.0313-0.14384 0.48183-0.2571 0.94757-0.37576 1.4404 0.45583-0.58319 0.87448-1.112 1.3152-1.6283 3.0847-3.614 5.9032-5.5737 9.9576-5.5737 7.2342 0 8.1621 3.2235 21.418 11.868 6.5241 4.2543 16.415 10.117 24.581 10.991 0.33497-1.0984 0.60717-2.2337 0.81414-3.3818-0.064 0-0.12411-0.026-0.18788-0.031-0.17297 0.8162-0.38557 1.6219-0.62626 2.4111-8.1658-0.8742-18.057-6.7366-24.581-10.991-13.255-8.69-14.183-11.92-21.417-11.92zm42.711 31.031c-0.2631 0.1067-0.57088 0.2304-0.87677 0.3444-1.0427 1.4707-2.2176 2.8465-3.5071 4.102-4.2282 1.6311-10.027 2.2859-14.655 2.2859-9.2509 0-14.765-2.6303-16.439-2.6303-1.2573 0-2.3798 0.6852-2.3798 2.4111 0 0.1855 0.01384 0.3845 0.03131 0.5636 0.17862-1.3958 1.2066-1.9727 2.3485-1.9727 1.6745 0 7.1885 2.6303 16.439 2.6303 4.6271 0 10.426-0.6548 14.655-2.2858 1.67-1.626 3.1316-3.47 4.3838-5.4485z" fill-rule="evenodd"/>
  </g>
 </g>
</svg>
