<?xml version="1.0" encoding="UTF-8" standalone="no"?>
<!-- Created with Inkscape (http://www.inkscape.org/) -->
<svg id="svg2" xmlns:rdf="http://www.w3.org/1999/02/22-rdf-syntax-ns#" xmlns="http://www.w3.org/2000/svg" height="96" width="96" version="1.1" xmlns:cc="http://creativecommons.org/ns#" xmlns:xlink="http://www.w3.org/1999/xlink" xmlns:dc="http://purl.org/dc/elements/1.1/">
 <defs id="defs4">
  <linearGradient id="linearGradient3700-09">
   <stop id="stop3702-67" stop-color="#70a83e" offset="0"/>
   <stop id="stop3704-18" stop-color="#9fd058" offset="1"/>
  </linearGradient>
  <linearGradient id="linearGradient9745" y2="5.9877" xlink:href="#linearGradient3700-09" gradientUnits="userSpaceOnUse" x2="48" gradientTransform="translate(-169.06 968.2)" y1="90" x1="48"/>
  <clipPath id="clipPath3613-01">
   <rect id="rect3615-63" rx="6" ry="6" height="84" width="84" y="6" x="6" fill="#fff"/>
  </clipPath>
  <filter id="filter3794-67" height="1.384" width="1.384" color-interpolation-filters="sRGB" y="-.192" x="-.192">
   <feGaussianBlur id="feGaussianBlur3796-28" stdDeviation="5.28"/>
  </filter>
  <filter id="filter3887" color-interpolation-filters="sRGB">
   <feGaussianBlur id="feGaussianBlur3889" stdDeviation="5.0007327"/>
  </filter>
  <filter id="filter4228" height="1.4843" width="1.4843" color-interpolation-filters="sRGB" y="-.24217" x="-.24217">
   <feGaussianBlur id="feGaussianBlur4230" stdDeviation="7.2651119"/>
  </filter>
  <filter id="filter7119-7" height="1.6345" width="1.6345" color-interpolation-filters="sRGB" y="-.31725" x="-.31725">
   <feGaussianBlur id="feGaussianBlur7121-7" stdDeviation="9.5173656"/>
  </filter>
  <linearGradient id="linearGradient11274" y2="5.9877" gradientUnits="userSpaceOnUse" x2="48" gradientTransform="matrix(1.125 0 0 1.0986 -8.3665 -6.0462)" y1="168" x1="48">
   <stop id="stop4628" stop-color="#e51d00" offset="0"/>
   <stop id="stop4630" stop-color="#ffb982" offset="1"/>
  </linearGradient>
  <linearGradient id="linearGradient11295" y2="138.66" gradientUnits="userSpaceOnUse" x2="48" y1="20.221" x1="48">
   <stop id="stop3739-16" stop-color="#fff" offset="0"/>
   <stop id="stop3741-134" stop-color="#fff" stop-opacity="0" offset="1"/>
  </linearGradient>
  <linearGradient id="linearGradient11297" y2="85.002" gradientUnits="userSpaceOnUse" x2="128" gradientTransform="matrix(.28445 0 0 .28445 4.4329 955.64)" y1="241.01" x1="128">
   <stop id="stop6206" stop-color="#e51d00" offset="0"/>
   <stop id="stop6208" stop-color="#ffb276" offset="1"/>
  </linearGradient>
  <linearGradient id="linearGradient11299" y2="71.568" gradientUnits="userSpaceOnUse" x2="163.98" y1="237.51" x1="163.98">
   <stop id="stop7081" stop-color="#830000" offset="0"/>
   <stop id="stop7083" stop-color="#830000" stop-opacity=".53419" offset="1"/>
  </linearGradient>
  <linearGradient id="linearGradient11301" y2="211.64" gradientUnits="userSpaceOnUse" x2="148.62" y1="257.96" x1="148.62">
   <stop id="stop4198" stop-color="#fff" offset="0"/>
   <stop id="stop4200" stop-color="#fff" stop-opacity="0" offset="1"/>
  </linearGradient>
 </defs>
 <metadata id="metadata7">
  <rdf:RDF>
   <cc:Work rdf:about="">
    <dc:format>image/svg+xml</dc:format>
    <dc:type rdf:resource="http://purl.org/dc/dcmitype/StillImage"/>
    <dc:title/>
   </cc:Work>
  </rdf:RDF>
 </metadata>
 <g id="layer1" transform="translate(0 -956.36)">
  <rect id="rect5263-0" fill-opacity=".019608" ry="12.724" height="89.978" width="89.624" y="959.35" x="3.3534"/>
  <rect id="rect5261-6" fill-opacity=".039216" ry="12.552" height="88.762" width="88.413" y="959.96" x="3.9589"/>
  <rect id="rect5259-9" fill-opacity=".078431" ry="12.38" height="87.546" width="87.202" y="960.57" x="4.5645"/>
  <rect id="rect5257-5" fill-opacity=".15686" ry="12.208" height="86.33" width="85.991" y="961.18" x="5.1701"/>
  <path id="rect2419-2" d="m17.75 5.4062c-6.642 0-11.969 5.3948-11.969 12.063l0.0002 61.031c0 6.668 5.3268 12.031 11.969 12.031h60.812c6.642 0 11.969-5.363 11.969-12.031v-61.031c0-6.668-5.327-12.063-11.969-12.063l-60.812 0.0002z" transform="translate(0 956.36)" fill="url(#linearGradient11274)"/>
  <path id="rect5265-0" d="m5.7756 1029.8v5.0663c0 6.668 5.3434 12.032 11.985 12.032h60.809c6.6418 0 11.985-5.3645 11.985-12.032v-5.0663c0 6.6681-5.3434 12.032-11.985 12.032h-60.809c-6.6418 0-11.985-5.3643-11.985-12.032z" fill-opacity="0.17"/>
  <path id="path5252-0" d="m5.7756 1033.9v1.0133c0 6.668 5.3434 12.032 11.985 12.032h60.809c6.6418 0 11.985-5.3645 11.985-12.032v-1.0133c0 6.6681-5.3434 12.032-11.985 12.032h-60.809c-6.6418 0-11.985-5.3644-11.985-12.032z" fill-opacity=".098039"/>
  <rect id="rect4772" display="none" height="107.79" width="107.79" y="971.68" x="-369.64" fill="none"/>
  <g id="g4788" display="none" transform="matrix(.21052 0 0 .21052 -369.68 971.63)"></g>
  <g id="g4806" display="none" transform="matrix(.21052 0 0 .21052 -369.68 971.63)">
   <g id="g4808" display="inline">
    <path id="path4810" d="m349.1 256.65c-0.265-0.254 37.637 27.605 39.421 25.012 6.362-9.252 82.046-93.137 84.784-116.24 0.242-2.003-0.516-4.096-0.516-4.096s-1.19-0.144-6.325-4.314c-2.692-2.192-5.483-4.581-5.483-4.581-16.054 0.998-57.885 41.559-111.06 103.57" fill="#050505" display="none"/>
   </g>
  </g>
  <g id="g4796" transform="matrix(.21052 0 0 .21052 -369.68 971.63)"></g>
  <rect id="rect3873" rx="6" ry="6" height="84" width="84" display="none" y="974.2" x="-163.06" fill="url(#linearGradient9745)"/>
  <rect id="rect3880" rx="6" ry="6" height="84" width="84" display="none" y="974.2" x="-163.06" fill="url(#linearGradient9745)"/>
  <g id="g11283" transform="translate(2 2.5524)">
   <g id="layer5" transform="translate(-3.7498 952.01)">
    <rect id="rect3171" height="66" stroke="#fff" stroke-linecap="round" stroke-width=".5" fill="url(#linearGradient11295)" rx="12" ry="12" width="66" opacity=".15" clip-path="url(#clipPath3613-01)" filter="url(#filter3794-67)" y="15" x="15"/>
   </g>
   <path id="path4624" opacity=".05" style="color:#000000" d="m56.438 965.04c-3.2065 0.07-6.4163 1.2134-9.0312 3.4687-4.0569 3.4989-4.6894 7.6968-4.9688 10.656-0.13811 1.4631-0.24256 2.6182-0.53125 3.5312-0.29319 0.9273-0.74132 1.6742-1.8438 2.625-1.101 0.9496-1.8792 1.2852-2.8438 1.4375-0.9509 0.1502-2.0948 0.049-3.5625-0.031-2.96-0.1617-7.2028-0.1027-11.25 3.375-0.007 0.01-0.024-0.01-0.0313 0v0.031c-0.0675 0.066-0.23249 0.2308-0.125 0.125-0.0562 0.055-0.0316 0.032-0.0625 0.063s-0.1236 0.092-0.125 0.094c-0.002 0-0.0702 0.1257-0.0937 0.1562-0.003 0-0.00076 0.032 0 0.031 0.00051-0.0008-0.034 0-0.0313 0-0.006 0.01-0.0624 0.094-0.0625 0.094 0.0144-0.015 0.0415-0.01 0.0625-0.031 0.014-0.015 0.0173-0.017 0.0313-0.031l0.28125 0.2188-0.25-0.25c0.006-0.01-0.005-0.026 0-0.031 0.0144-0.015 0.0625-0.031 0.0625-0.031-0.00008 0 0.0477-0.035 0.0937-0.063l0.25 0.4687 0.1875 0.1563 0.0313 0.031c-0.008 0.0003-0.0899 0-0.125 0l0.0625 0.094v0.031l-0.15625-0.125h-0.125c-0.10494 0-0.12103 0.028-0.21875 0.031l-0.25-0.25c0.008-0.025 0.00009-0.063 0-0.063v-0.031c-0.003 0.01-0.0283-0.01-0.0313 0-0.009 0.016 0.006 0.05 0 0.063-0.0102 0.021-0.0557 0.047-0.0625 0.063l0.0625-0.125c0.0138-0.021-0.0923 0.1225-0.0937 0.125-0.00074 0 0.0155 0.01 0 0.031-0.0106 0.011-0.0207 0.021-0.0313 0.031-1.2635 1.2619-2.2567 2.6966-2.9688 4.3125-0.004 0 0.003 0.029 0 0.031-0.002 0-0.0312-0.0001-0.0313 0-0.00007 0-0.0443 0.078-0.0937 0.1562h-0.0313c-0.00032 0.0006-0.0162 0.032-0.0313 0.063v0.031c-0.005 0.01 0.002 0.027 0 0.031-0.001 0-0.0312-0.0001-0.0313 0-0.007 0.013 0.00015 0.031 0 0.031-0.00051 0.001-0.0621 0.093-0.0625 0.094-0.0001 0.0002 0.004 0.022 0 0.031a0.89385 0.89385 0 0 0 -0.0313 0.031 0.89385 0.89385 0 0 0 -0.0937 0.1563c-0.0186 0.052 0.009 0.05 0 0.094-0.003 0.015 0.002 0.018 0 0.031-0.0103 0.028-0.0208 0.065-0.0313 0.094-0.12492 0.3455-0.26888 0.7265-0.375 1.125-0.00044 0-0.0853 0.2411-0.15625 0.5625-0.023 0.1009 0.002 0.079 0 0.125-0.002 0.07-0.0322 0.1739-0.0313 0.1875 0.004 0.013-0.00034 0.089 0 0.094-0.0573 0.2237-0.13273 0.4751-0.1875 0.9062-0.006 0.049-0.0275 0.092-0.0313 0.125-0.0009 0.01 0.00079 0.024 0 0.031-0.002 0.026 0.001 0.045 0 0.063-0.003 0.043-0.00009 0.02 0 0.031-0.00053 0.01 0.0005 0.013 0 0.031a0.89385 0.89385 0 0 0 0 0.031c0.00053 0.013-0.00077 0.016 0 0.031 0.002 0.03-0.00002 0.062 0 0.063a0.89385 0.89385 0 0 0 0 0.031c-0.0179 0.079-0.0488 0.1264-0.0625 0.3125-0.011 0.14695-0.00069 0.21185 0 0.18745 0.004-0.13845-0.0475-0.1331-0.0313 0.2813-0.002-0.054-0.008-0.033 0 0.094 0.00068 0.028 0.00054 0.077 0 0.094-0.002 0.062-0.00045 0.1212 0 0.094-0.00037 0.023-0.00068 0.056 0 0.094-0.0005-0.028-0.001 0.028 0 0.063-0.002 0.1449-0.004 0.3196 0 0.5 0.005 0.1857 0.0239 0.1618 0.0313 0.1562 0.00001 0-0.00001 0.029 0 0.031-0.001 0.018-0.0308 0.047-0.0313 0.063-0.008 0.2647 0.0239 0.3706 0.0313 0.4687 0.0135 0.1807 0.0449 0.2339 0.0625 0.3125 0.002 0.01-0.001 0.025 0 0.031 0.001 0.01-0.001 0.027 0 0.031-0.001 0.01 0.00014 0.026 0 0.031 0.00066 0.027-0.00003 0.062 0 0.063 0.002 0.051-0.002 0.076 0 0.094a0.89385 0.89385 0 0 0 0.0313 0.094 0.89385 0.89385 0 0 0 0 0.031 0.89385 0.89385 0 0 0 0.0625 0.25c0.0508 0.2897 0.0814 0.5433 0.125 0.7188-0.00004 0 0.00091 0.054 0 0.063 0.002 0.01-0.002 0.024 0 0.031-0.0002 0.017-0.00038 0.017 0 0.031-0.00032 0 0.004 0.08 0 0.094-0.001 0 0.0322 0.023 0.0313 0.031a0.89385 0.89385 0 0 0 0 0.031c0.001 0.01-0.001 0.026 0 0.031 0.003 0.043-0.0206 0 0 0.094 0.0697 0.3137 0.14828 0.5329 0.15625 0.5625 0.12064 0.4533 0.26997 0.882 0.40625 1.25 0.003 0.01 0.0284 0.023 0.0313 0.031a0.89385 0.89385 0 0 0 0 0.031 0.89385 0.89385 0 0 0 0 0.031c0.002 0.01-0.002 0.026 0 0.031a0.89385 0.89385 0 0 0 0.0313 0.063 0.89385 0.89385 0 0 0 0.0313 0.063c0.005 0.012-0.00012 0.031 0 0.031 0.0003 0.0007 0.0507 0.037 0.0625 0.063 0.004 0.01-0.0001 0.031 0 0.031 0.00044 0.0009 0.0308 0.093 0.0313 0.094 0.00049 0.0008 0.062 0.093 0.0625 0.094a0.89385 0.89385 0 0 0 0.0937 0.094c0.82536 1.9534 2.028 3.7961 3.75 5.2812 4.0497 3.4927 8.2786 3.5604 11.25 3.4063 1.4719-0.076 2.6435-0.1805 3.5938-0.031 0.96386 0.1514 1.7424 0.4877 2.8438 1.4375 1.1024 0.9508 1.5506 1.6977 1.8438 2.625 0.28869 0.913 0.39314 2.0681 0.53125 3.5313 0.27935 2.9594 0.91189 7.1573 4.9688 10.656 5.9722 5.1508 15.07 4.4698 20.219-1.5 5.1494-5.9707 4.5101-15.094-1.4688-20.25-4.0572-3.4992-8.3399-3.5369-11.312-3.375-1.4717 0.08-2.6126 0.1814-3.5625 0.031-0.96356-0.1524-1.743-0.4882-2.8438-1.4375-1.0932-0.9429-1.5221-1.6579-1.8125-2.5938-0.27234-0.8778-0.40556-2.0216-0.53125-3.375 0.12569-1.3534 0.25891-2.4972 0.53125-3.375 0.29037-0.9359 0.71925-1.6509 1.8125-2.5937 1.1008-0.9494 1.8802-1.2852 2.8438-1.4375 0.94987-0.1502 2.0908-0.049 3.5625 0.031 2.9726 0.1619 7.2553 0.1242 11.312-3.375 5.9789-5.1565 6.6182-14.279 1.4688-20.25-2.8926-3.3539-7.0577-5.0585-11.188-4.9687zm-34.625 25.781c0.008-0.016 0.0423-0.024 0.0625-0.063l-0.0313-0.031c-0.00006 0 0.004 0.025 0 0.031-0.008 0.014-0.0144 0.033-0.0313 0.063zm-3.4062 14.437c-0.0149 0.027-0.0376 0.098-0.0625 0.1563 0.0172-0.039 0.0229-0.1099 0.0313-0.125-0.00015 0.0002 0.0199-0.013 0.0313-0.031z" fill-rule="evenodd" fill="#501616"/>
   <path id="path4620" opacity="0.08" style="color:#000000" d="m56.469 965.95c-3.008 0.065-6.0146 1.1334-8.4688 3.25-3.8312 3.3042-4.4123 7.1471-4.6875 10.062-0.13725 1.454-0.22881 2.6634-0.5625 3.7188-0.33369 1.0553-0.89267 1.9953-2.0938 3.0312-1.1998 1.0347-2.2138 1.4515-3.3125 1.625s-2.294 0.079-3.75 0c-2.9195-0.1594-6.7962-0.1459-10.625 3.1563-0.003 0-0.0907 0.091-0.0937 0.094-0.003 0-0.1222 0.1218-0.125 0.125-0.003 0-0.0912 0.1216-0.0937 0.125-0.00041 0.0005 0.004 0.026 0 0.031-0.002 0-0.0608 0.06-0.0625 0.063-0.006 0.01 0.003 0.027 0 0.031-0.002 0-0.031-0.0004-0.0313 0-0.017 0.024-0.0303 0.061-0.0313 0.063-0.002 0-0.061 0.091-0.0625 0.094-0.001 0-0.0611 0.091-0.0625 0.094-1.3266 1.2972-2.3786 2.771-3.0625 4.4375h-0.0313a0.94748 0.94748 0 0 0 -0.0313 0.063 0.94748 0.94748 0 0 0 -0.0937 0.2188 0.94748 0.94748 0 0 0 -0.0313 0.063 0.94748 0.94748 0 0 0 -0.0313 0c-0.006 0.018 0.004 0.04 0 0.063-0.002 0.011 0.002 0.019 0 0.031-0.13305 0.3629-0.26835 0.7557-0.375 1.1563-0.0317 0.1189-0.10204 0.2856-0.15625 0.5312-0.006 0.029 0.006 0.084 0 0.125-0.005 0.022 0.005 0.07 0 0.094-0.0611 0.2661-0.16289 0.5915-0.21875 1.0312-0.0292 0.2299-0.0249 0.2351 0 0.031a0.94748 0.94748 0 0 0 0 0.063c-0.01 0.1476-0.005 0.1083 0 0.031a0.94748 0.94748 0 0 0 0 0.031c-0.00081 0.013 0.0004 0.02 0 0.031a0.94748 0.94748 0 0 0 0 0.031c-0.001 0.01 0.002 0.051 0 0.063 0.0004 0 0 0.031 0 0.031-0.0155 0.082-0.0473 0.1689-0.0625 0.37495-0.005 0.067 0.002 0.1004 0 0.1563-0.002 0.079-0.0335 0.1613-0.0313 0.2187 0.00091 0.023-0.001 0.043 0 0.063-0.002 0.054 0.003 0.1073 0 0.1875-0.00066 0.024 0.00028 0.045 0 0.063-0.00028 0.017-0.00045 0.038 0 0.063 0.00023 0.012-0.00008 0.093 0 0.094-0.002 0.1463-0.004 0.3125 0 0.4687 0.002 0.079 0.0268 0.1269 0.0313 0.1875 0.00001-0.0001 0.00021 0.025 0 0.031 0.0009 0.01-0.001 0.021 0 0.031-0.003 0.035-0.0296 0.012-0.0313 0.063-0.003 0.095 0.0199 0.2248 0.0313 0.375 0.0146 0.1951 0.0466 0.2879 0.0625 0.375-0.00069 0.054 0.00001 0.028 0 0.031a0.94748 0.94748 0 0 0 0 0.094l0.625 0.031h0.125 0.1875l-0.9375 0.125c0.0549 0.4497 0.15512 0.782 0.21875 1.0625-0.003-0.068 0.00028-0.1596 0-0.1563 0.001-0.013-0.002-0.017 0-0.031 0.019-0.129 0.0861-0.2472 0.0625-0.1875-0.0236 0.06-0.0639 0.2616-0.0625 0.375 0.0006 0.049-0.004 0.061 0 0.094 0.004 0.021-0.005 0.01 0 0.031 0.005 0.028-0.005 0.073 0 0.094 0.0532 0.2393 0.12115 0.4008 0.15625 0.5313 0.11274 0.4236 0.26545 0.8389 0.40625 1.2187 0.007 0.02-0.008 0.01 0 0.031 0.006 0.02-0.008 0.01 0 0.031a0.94748 0.94748 0 0 0 0.0313 0.031 0.94748 0.94748 0 0 0 0 0.031 0.94748 0.94748 0 0 0 0.0937 0.1875 0.94748 0.94748 0 0 0 0.0625 0.063c0.77813 1.917 1.9596 3.6887 3.625 5.125 3.8263 3.3 7.7024 3.3391 10.625 3.1875 1.4576-0.076 2.651-0.1726 3.75 0s2.1127 0.5902 3.3125 1.625c1.2011 1.0359 1.7601 1.9759 2.0938 3.0313 0.33369 1.0553 0.42525 2.2647 0.5625 3.7187 0.27519 2.9154 0.85632 6.7583 4.6875 10.062 5.6043 4.8335 14.106 4.1963 18.938-1.4062 4.8327-5.6035 4.2343-14.131-1.375-18.969-3.8309-3.304-7.7291-3.3157-10.656-3.1562-1.4599 0.08-2.6524 0.1735-3.75 0-1.0976-0.1736-2.1128-0.5904-3.3125-1.625-1.1967-1.0322-1.7347-1.9748-2.0625-3.0313-0.31972-1.0305-0.43272-2.2195-0.5625-3.625 0.12978-1.4054 0.24278-2.5944 0.5625-3.625 0.3278-1.0565 0.86577-1.9991 2.0625-3.0312 1.1997-1.0347 2.2148-1.4515 3.3125-1.625 1.0976-0.1736 2.2901-0.08 3.75 0 2.9272 0.1594 6.8253 0.1477 10.656-3.1563 5.6093-4.8377 6.2077-13.365 1.375-18.969-2.7148-3.1478-6.5968-4.7404-10.469-4.6563zm-37.469 36.594-0.625 0.031c-0.009-0.044-0.0255-0.1454 0 0.063l0.625-0.094z" fill-rule="evenodd" fill="#501616"/>
   <path id="path4616" opacity="0.12" style="color:#000000" d="m56.5 966.89c-2.796 0.061-5.5901 1.0606-7.875 3.0313-3.6011 3.1057-4.1034 6.5602-4.375 9.4375-0.27159 2.8772-0.34001 5.1078-2.9688 7.375-2.6289 2.2672-4.8693 2.001-7.75 1.8437s-6.3366-0.1681-9.9375 2.9375a1.1185 1.1185 0 0 0 -0.21875 0.25 1.1185 1.1185 0 0 0 -0.125 0.1875c-1.4258 1.3402-2.5341 2.8969-3.1875 4.625a1.1185 1.1185 0 0 0 -0.0313 0.031c-0.005 0.016 0.005 0.016 0 0.031-0.13684 0.3675-0.27057 0.7641-0.375 1.1563-0.034 0.1276-0.0759 0.2777-0.125 0.5-0.0164 0.072 0.005 0.046 0 0.094-0.0679 0.3139-0.16921 0.6726-0.21875 1.0625-0.001 0.011 0.001 0.02 0 0.031-0.00059 0.01 0.00087 0.017 0 0.031 0.00002-0.0002 0.00069 0.02 0 0.031-0.002 0.028-0.00002 0.058 0 0.063-0.0007 0.012-0.00001 0.03 0 0.031-0.0162 0.1127-0.0475 0.2329-0.0625 0.43745-0.019 0.2549 0.00024 0.3696 0 0.375 0.0106-0.2175-0.0198-0.1349-0.0313 0.2188-0.002 0.08-0.00077 0.097 0 0.063-0.003 0.1717-0.005 0.3762 0 0.5625 0.006 0.2598 0.0296 0.3068 0.0313 0.25 0.0002-0.01 0.00058 0.043 0 0.031-0.002 0.023-0.0177 0.1403 0 0.375 0.0139 0.1853 0.0445 0.3037 0.0625 0.4375-0.00005 0 0.00004 0.02 0 0.031 0.004 0.028-0.003 0.068 0 0.094 0.00081 0.013-0.00002 0.031 0 0.031 0.0493 0.4041 0.14892 0.771 0.21875 1.0937 0.002 0.01-0.002 0.022 0 0.031 0.006 0.037-0.0107 0.015 0 0.063 0.0486 0.2187 0.0891 0.3665 0.125 0.5 0.10442 0.3923 0.23819 0.7888 0.375 1.1562 0.003 0.01-0.003 0.022 0 0.031a1.1185 1.1185 0 0 0 0.0313 0.031c0.71336 1.8867 1.9002 3.6246 3.5312 5.0313 3.6002 3.1049 7.0569 3.1181 9.9375 2.9687s5.1202-0.4243 7.75 1.8438c2.6287 2.2671 2.6972 4.4977 2.9688 7.375 0.27159 2.8772 0.77393 6.3317 4.375 9.4375 5.2156 4.4982 13.096 3.9026 17.594-1.3125 4.498-5.2153 3.9378-13.124-1.2812-17.625-3.6016-3.1063-7.0804-3.0949-9.9688-2.9375-2.8884 0.1573-5.1219 0.4229-7.75-1.8438-2.6237-2.2628-2.6699-4.5047-2.9375-7.375 0.26759-2.8702 0.31384-5.1122 2.9375-7.375 2.6281-2.2666 4.8616-2.0011 7.75-1.8437 2.8884 0.1573 6.3672 0.1687 9.9688-2.9375 5.2191-4.5012 5.7792-12.41 1.2812-17.625-2.5285-2.9318-6.122-4.4219-9.7188-4.3438z" fill-rule="evenodd" fill="#501616"/>
   <path id="path4508" opacity=".3" style="color:#000000" d="m56.524 968.02c-2.5495 0.055-5.1006 0.9601-7.1825 2.7557-6.6954 5.7744-1.495 11.774-7.3336 16.81-5.8386 5.0355-11.012-0.9832-17.707 4.7912v0.01c-1.4871 1.2826-2.5601 2.8707-3.209 4.5869-0.004 0.011-0.005 0.024-0.009 0.035-0.13068 0.349-0.24234 0.6994-0.33779 1.0579-0.0424 0.1591-0.089 0.3194-0.12445 0.48-0.004 0.017-0.005 0.036-0.009 0.053-0.073 0.3388-0.12699 0.6788-0.1689 1.0223-0.00037 0 0.00035 0.01 0 0.01-0.002 0.018-0.007 0.035-0.009 0.053-0.0186 0.16-0.0326 0.3194-0.0444 0.47995-0.009 0.1208-0.0214 0.2436-0.0267 0.3645-0.003 0.062-0.007 0.1251-0.009 0.1866-0.00057 0.021 0.00046 0.042 0 0.062-0.003 0.1611-0.004 0.3188 0 0.48 0.002 0.082 0.005 0.1665 0.009 0.2489 0.005 0.1209 0.0176 0.2437 0.0267 0.3644 0.0134 0.1789 0.0314 0.3551 0.0533 0.5334 0.00035 0-0.00037 0.01 0 0.01 0.0419 0.3434 0.0959 0.6835 0.1689 1.0223 0.004 0.018 0.005 0.036 0.009 0.053 0.0359 0.1616 0.0813 0.3197 0.12445 0.48 0.0954 0.3585 0.20711 0.7088 0.33779 1.0578 0.004 0.011 0.005 0.024 0.009 0.036 0.64887 1.7161 1.7219 3.3043 3.209 4.5868v0.01c6.6954 5.7745 11.869-0.2442 17.707 4.7913 5.8386 5.0355 0.63822 11.035 7.3336 16.81 4.7587 4.1041 11.941 3.5675 16.045-1.1912 4.1041-4.7586 3.5764-11.941-1.1823-16.045-6.6954-5.7744-11.869 0.2531-17.707-4.7824-2.9494-2.5437-3.0786-5.34-3.3512-8.2225 0.27259-2.8824 0.4018-5.6788 3.3512-8.2224 5.8386-5.0355 11.012 0.992 17.707-4.7824 4.7587-4.1041 5.2864-11.286 1.1823-16.045-2.3086-2.6767-5.5846-4.018-8.8626-3.9468z" fill-rule="evenodd" fill="#501616"/>
   <path id="path3984-0-3-4-7" style="color:#000000" d="m56.524 967.02c-2.5495 0.055-5.1006 0.9601-7.1825 2.7556-6.6954 5.7745-1.495 11.774-7.3336 16.81-5.8386 5.0355-11.012-0.9832-17.707 4.7912v0.01c-1.4871 1.2826-2.5601 2.8707-3.209 4.5868-0.004 0.011-0.005 0.024-0.009 0.036-0.13068 0.349-0.24234 0.6994-0.33779 1.0578-0.0424 0.1592-0.089 0.3194-0.12445 0.48-0.004 0.018-0.005 0.036-0.009 0.053-0.073 0.3387-0.12699 0.6788-0.1689 1.0222-0.00037 0 0.00035 0.01 0 0.01-0.002 0.018-0.007 0.035-0.009 0.053-0.0186 0.16-0.0326 0.3195-0.0444 0.4801-0.009 0.1207-0.0214 0.2435-0.0267 0.3644-0.003 0.062-0.007 0.1251-0.009 0.1867-0.00057 0.021 0.00046 0.042 0 0.062-0.003 0.1611-0.004 0.31875 0 0.47995 0.002 0.082 0.005 0.1665 0.009 0.2489 0.005 0.1209 0.0176 0.2438 0.0267 0.3645 0.0135 0.1788 0.0314 0.3551 0.0533 0.5333 0.00035 0-0.00037 0.01 0 0.01 0.0419 0.3435 0.0959 0.6835 0.1689 1.0223 0.004 0.018 0.005 0.036 0.009 0.053 0.0359 0.1616 0.0813 0.3197 0.12445 0.48 0.0954 0.3585 0.20711 0.7088 0.33779 1.0578 0.004 0.012 0.005 0.024 0.009 0.036 0.64887 1.7162 1.7219 3.3043 3.209 4.5868v0.01c6.6954 5.7745 11.869-0.2442 17.707 4.7913 5.8386 5.0355 0.63822 11.035 7.3336 16.81 4.7587 4.1041 11.941 3.5675 16.045-1.1912 4.1041-4.7586 3.5764-11.941-1.1823-16.045-6.6954-5.7744-11.869 0.2531-17.707-4.7824-2.9494-2.5437-3.0786-5.34-3.3512-8.2225 0.27259-2.8824 0.4018-5.6788 3.3512-8.2224 5.8386-5.0355 11.012 0.992 17.707-4.7824 4.7587-4.1041 5.2864-11.286 1.1823-16.045-2.3086-2.6767-5.5846-4.018-8.8626-3.9468z" fill-rule="evenodd" fill="url(#linearGradient11297)"/>
   <path id="path3984-0-3-4-7-0-9" style="color:#000000" d="m181.17 37.985c-8.9628 0.19468-17.931 3.3752-25.25 9.6875-23.538 20.3-5.2557 41.391-25.781 59.094-20.526 17.702-38.712-3.4563-62.25 16.844v0.0312c-5.2278 4.5088-9.0001 10.092-11.281 16.125-0.01509 0.0396-0.01629 0.0853-0.03125 0.125-0.45938 1.2269-0.85192 2.4586-1.1875 3.7188-0.14899 0.55949-0.31302 1.1229-0.4375 1.6875-0.01373 0.0617-0.01782 0.12571-0.03125 0.1875-0.25661 1.1909-0.44644 2.3864-0.59375 3.5938-0.0013 0.0103 0.0012 0.0209 0 0.0312-0.0077 0.0629-0.02383 0.12461-0.03125 0.1875-0.06548 0.56236-0.11456 1.123-0.15625 1.6875-0.03193 0.42446-0.07534 0.85633-0.09375 1.2812-0.0091 0.2163-0.02562 0.4398-0.03125 0.65625-0.002 0.0721 0.0016 0.14664 0 0.21875-0.01164 0.56641-0.01231 1.1208 0 1.6875 0.006 0.28991 0.01903 0.58534 0.03125 0.875 0.01841 0.42492 0.06182 0.85679 0.09375 1.2812 0.04729 0.62871 0.11048 1.2482 0.1875 1.875 0.0012 0.0103-0.0013 0.0209 0 0.0312 0.14731 1.2073 0.33714 2.4028 0.59375 3.5938 0.01342 0.0623 0.01754 0.1253 0.03125 0.1875 0.12631 0.56806 0.28597 1.1239 0.4375 1.6875 0.33558 1.2602 0.72812 2.4918 1.1875 3.7188 0.01503 0.0402 0.01608 0.0849 0.03125 0.125 2.2811 6.0332 6.0534 11.616 11.281 16.125v0.0312c23.538 20.3 41.724-0.8586 62.25 16.844 20.526 17.702 2.2437 38.794 25.781 59.094 16.729 14.428 41.978 12.542 56.406-4.1875 14.428-16.729 12.573-41.978-4.1562-56.406-23.538-20.3-41.724 0.88984-62.25-16.812-10.369-8.9425-10.823-18.773-11.781-28.906 0.95832-10.133 1.4126-19.964 11.781-28.906 20.526-17.702 38.712 3.4876 62.25-16.812 16.729-14.428 18.584-39.677 4.1562-56.406-8.1158-9.4101-19.633-14.125-31.156-13.875z" transform="matrix(.28445 0 0 .28445 4.4329 955.64)" filter="url(#filter3887)" stroke="url(#linearGradient11299)" stroke-width="14.062" fill="none"/>
   <path id="path3785-66-5-6" opacity=".34836" style="color:#000000" d="m168 232a36 36 0 1 1 -72 0 36 36 0 1 1 72 0z" fill-rule="evenodd" transform="matrix(.16396 0 0 .092843 35.13 1005.6)" filter="url(#filter4228)" fill="url(#linearGradient11301)"/>
   <path id="path6837" opacity=".26639" style="color:#000000" d="m168 232a36 36 0 1 1 -72 0 36 36 0 1 1 72 0z" fill-rule="evenodd" transform="matrix(.16396 0 0 .092843 11.236 983.95)" filter="url(#filter7119-7)" fill="url(#linearGradient11301)"/>
  </g>
 </g>
</svg>
