<?xml version="1.0" encoding="UTF-8" standalone="no"?>
<!-- Created with Inkscape (http://www.inkscape.org/) -->
<svg id="svg2" xmlns:rdf="http://www.w3.org/1999/02/22-rdf-syntax-ns#" xmlns="http://www.w3.org/2000/svg" height="96" width="96" version="1.1" xmlns:cc="http://creativecommons.org/ns#" xmlns:xlink="http://www.w3.org/1999/xlink" xmlns:dc="http://purl.org/dc/elements/1.1/">
 <defs id="defs4">
  <linearGradient id="linearGradient3700-09">
   <stop id="stop3702-67" stop-color="#70a83e" offset="0"/>
   <stop id="stop3704-18" stop-color="#9fd058" offset="1"/>
  </linearGradient>
  <linearGradient id="linearGradient9745" y2="5.9877" xlink:href="#linearGradient3700-09" gradientUnits="userSpaceOnUse" x2="48" gradientTransform="translate(-169.06 968.2)" y1="90" x1="48"/>
  <linearGradient id="linearGradient3657">
   <stop id="stop3659" stop-color="#fff" offset="0"/>
   <stop id="stop3661" stop-color="#fff" stop-opacity="0" offset="1"/>
  </linearGradient>
  <linearGradient id="linearGradient5537">
   <stop id="stop5539" stop-color="#73a0d0" offset="0"/>
   <stop id="stop5541" stop-color="#fff" offset="1"/>
  </linearGradient>
  <linearGradient id="linearGradient10381">
   <stop id="stop10383" stop-color="#3465a4" offset="0"/>
   <stop id="stop10385" stop-color="#3465a4" stop-opacity="0" offset="1"/>
  </linearGradient>
  <radialGradient id="radialGradient23301" gradientUnits="userSpaceOnUse" cy="88.4" cx="48" gradientTransform="matrix(1.6481 0 0 1.0352 -126.26 -1093)" r="42">
   <stop id="stop3702-1" stop-color="#73d019" offset="0"/>
   <stop id="stop3704-95" stop-color="#3a7b0a" offset="1"/>
  </radialGradient>
  <linearGradient id="linearGradient23303" y2="240.92" xlink:href="#linearGradient3657" gradientUnits="userSpaceOnUse" x2="420" gradientTransform="matrix(.54348 -.94133 .94133 .54348 -156.67 314.83)" y1="240.92" x1="98"/>
  <linearGradient id="linearGradient23305" y2="240.92" xlink:href="#linearGradient3657" gradientUnits="userSpaceOnUse" x2="420" gradientTransform="matrix(-.94133 .54348 .54348 .94133 334.23 -173.07)" y1="240.92" x1="98"/>
  <linearGradient id="linearGradient23307" y2="240.92" xlink:href="#linearGradient3657" gradientUnits="userSpaceOnUse" x2="420" gradientTransform="matrix(.94133 -.54348 -.54348 -.94133 150.77 625.27)" y1="240.92" x1="98"/>
  <linearGradient id="linearGradient23309" y2="240.92" xlink:href="#linearGradient3657" gradientUnits="userSpaceOnUse" x2="420" gradientTransform="matrix(-.54348 .94133 -.94133 -.54348 641.67 131.38)" y1="240.92" x1="98"/>
  <radialGradient id="radialGradient23311" xlink:href="#linearGradient3657" gradientUnits="userSpaceOnUse" cy="226.88" cx="246.35" gradientTransform="matrix(1 -.57734 .12401 .21480 -28.136 320.38)" r="154.36"/>
  <radialGradient id="radialGradient23313" xlink:href="#linearGradient3657" gradientUnits="userSpaceOnUse" cy="226.88" cx="246.35" gradientTransform="matrix(-.57734 -1 .21480 -.12401 339.85 501.37)" r="154.36"/>
  <clipPath id="clipPath23315" clipPathUnits="userSpaceOnUse">
   <path id="path23317" d="m-79.093 1002.4c-6.9201 0-12.47 5.5047-12.47 12.309v62.277c0 6.8042 5.5502 12.277 12.47 12.277h63.361c6.9201 0 12.47-5.4727 12.47-12.277v-62.277c0-6.8041-5.5502-12.309-12.47-12.309h-63.361z" fill="url(#linearGradient23319)"/>
  </clipPath>
  <linearGradient id="linearGradient23319" y2="7.1484" gradientUnits="userSpaceOnUse" x2="52.445" gradientTransform="matrix(1.0419 0 0 1.0204 -97.587 996.84)" y1="85.664" x1="47.995">
   <stop id="stop3244-6" stop-color="#b0b0b0" offset="0"/>
   <stop id="stop3246-6" stop-color="#f5f5f5" offset="1"/>
  </linearGradient>
  <radialGradient id="radialGradient23321" gradientUnits="userSpaceOnUse" cy="148.5" cx="156.5" gradientTransform="matrix(.51897 0 0 .51897 132.93 996.44)" r="19.5">
   <stop id="stop12686" stop-color="#fff" offset="0"/>
   <stop id="stop12692" stop-color="#fff" stop-opacity=".84536" offset="0.35"/>
   <stop id="stop12688" stop-color="#fff" stop-opacity="0" offset="1"/>
  </radialGradient>
  <linearGradient id="linearGradient23323" y2="14.321" xlink:href="#linearGradient5537" gradientUnits="userSpaceOnUse" x2="64.943" gradientTransform="matrix(-.29383 -.94083 .64312 -.26547 66.561 108.93)" y1="14.619" x1="70.451"/>
  <linearGradient id="linearGradient23325" y2="14.321" xlink:href="#linearGradient5537" gradientUnits="userSpaceOnUse" x2="64.943" gradientTransform="matrix(-.13821 -.97590 .67752 -.15825 54.736 107.61)" y1="14.619" x1="70.451"/>
  <linearGradient id="linearGradient23327" y2="14.321" xlink:href="#linearGradient5537" gradientUnits="userSpaceOnUse" x2="64.943" gradientTransform="matrix(-.063582 -.98826 .83701 -.069668 47.383 104.47)" y1="14.619" x1="70.451"/>
  <linearGradient id="linearGradient23329" y2="14.321" xlink:href="#linearGradient5537" gradientUnits="userSpaceOnUse" x2="64.943" gradientTransform="matrix(.10499 -.89863 .87344 .063498 35.225 94.387)" y1="14.619" x1="70.451"/>
  <linearGradient id="linearGradient23331" y2="14.321" xlink:href="#linearGradient5537" gradientUnits="userSpaceOnUse" x2="64.943" gradientTransform="matrix(.23669 -.87323 .85446 .19192 26.535 88.557)" y1="14.619" x1="70.451"/>
  <linearGradient id="linearGradient23333" y2="14.321" xlink:href="#linearGradient5537" gradientUnits="userSpaceOnUse" x2="64.943" gradientTransform="matrix(.37403 -.92498 0.894 .32486 17.313 87.355)" y1="14.619" x1="70.451"/>
  <linearGradient id="linearGradient23335" y2="14.321" xlink:href="#linearGradient5537" gradientUnits="userSpaceOnUse" x2="64.943" gradientTransform="matrix(.50829 -.85856 .83529 .45504 9.3342 78.272)" y1="14.619" x1="70.451"/>
  <linearGradient id="linearGradient23337" y2="14.321" xlink:href="#linearGradient5537" gradientUnits="userSpaceOnUse" x2="64.943" gradientTransform="matrix(.69014 -.72055 .70999 .63299 -.92238 63.732)" y1="14.619" x1="70.451"/>
  <linearGradient id="linearGradient23339" y2="14.321" xlink:href="#linearGradient5537" gradientUnits="userSpaceOnUse" x2="64.943" gradientTransform="matrix(.91103 -.72799 .70757 .85540 -13.727 58.023)" y1="14.619" x1="70.451"/>
  <linearGradient id="linearGradient23341" y2="14.321" xlink:href="#linearGradient5537" gradientUnits="userSpaceOnUse" x2="64.943" gradientTransform="matrix(1.0381 -.53132 .52243 .97951 -18.519 38.867)" y1="14.619" x1="70.451"/>
  <linearGradient id="linearGradient23343" y2="14.321" xlink:href="#linearGradient5537" gradientUnits="userSpaceOnUse" x2="64.943" gradientTransform="matrix(1.1069 -.36711 .36724 1.0476 -18.822 24.457)" y1="14.619" x1="70.451"/>
  <linearGradient id="linearGradient23345" y2="14.321" xlink:href="#linearGradient5537" gradientUnits="userSpaceOnUse" x2="64.943" gradientTransform="matrix(1.1518 -.18247 .19222 1.0934 -16.199 10.821)" y1="14.619" x1="70.451"/>
  <linearGradient id="linearGradient23347" y2="14.321" xlink:href="#linearGradient5537" gradientUnits="userSpaceOnUse" x2="64.943" y1="14.619" x1="70.451"/>
  <radialGradient id="radialGradient23349" xlink:href="#linearGradient10381" gradientUnits="userSpaceOnUse" cy="35.27" cx="63.151" gradientTransform="matrix(1.1539 .19868 -.36502 2.12 2.8641 -49.798)" r="6.4435"/>
  <radialGradient id="radialGradient23351" xlink:href="#linearGradient5537" gradientUnits="userSpaceOnUse" cy="36.346" cx="67.607" gradientTransform="matrix(1.4048 .37641 -.60648 2.2634 -5.3235 -67.028)" r="6.4435"/>
  <linearGradient id="linearGradient23353" y2="16.306" xlink:href="#linearGradient10381" gradientUnits="userSpaceOnUse" x2="80.083" gradientTransform="matrix(-.29383 -.94083 .64312 -.26547 66.561 108.93)" y1="13.495" x1="61.917"/>
  <linearGradient id="linearGradient23355" y2="65.869" xlink:href="#linearGradient5537" gradientUnits="userSpaceOnUse" x2="44.036" y1="69.385" x1="9.1014"/>
  <linearGradient id="linearGradient23357" y2="69.033" xlink:href="#linearGradient10381" gradientUnits="userSpaceOnUse" x2="35.177" y1="71.501" x1="37.048"/>
  <linearGradient id="linearGradient23359" y2="44.605" xlink:href="#linearGradient5537" gradientUnits="userSpaceOnUse" x2="61.811" y1="55.175" x1="75.813"/>
  <linearGradient id="linearGradient23363" y2="68.752" xlink:href="#linearGradient10381" gradientUnits="userSpaceOnUse" x2="34.263" y1="70.861" x1="35.888"/>
  <linearGradient id="linearGradient23367" y2="68.86" xlink:href="#linearGradient10381" gradientUnits="userSpaceOnUse" x2="34.322" y1="71.2" x1="36.134"/>
  <linearGradient id="linearGradient23371" y2="68.836" xlink:href="#linearGradient10381" gradientUnits="userSpaceOnUse" x2="34.861" y1="71.452" x1="36.865"/>
  <radialGradient id="radialGradient23381" xlink:href="#linearGradient3657" gradientUnits="userSpaceOnUse" cy="52.375" cx="61.482" gradientTransform="matrix(1 0 0 .39018 0 31.94)" r="13.604"/>
  <linearGradient id="linearGradient23385" y2="162.24" xlink:href="#linearGradient3657" gradientUnits="userSpaceOnUse" x2="185.18" y1="178.87" x1="185.18"/>
  <radialGradient id="radialGradient23387" xlink:href="#linearGradient3657" gradientUnits="userSpaceOnUse" cy="162.24" cx="185.18" gradientTransform="matrix(1.7659 0 0 3.0048 -141.84 -325.26)" r="8.3117"/>
  <linearGradient id="linearGradient23389" y2="43.36" xlink:href="#linearGradient10381" gradientUnits="userSpaceOnUse" x2="56.407" gradientTransform="translate(2.0817 -.099131)" y1="46.038" x1="54.919"/>
  <linearGradient id="linearGradient23391" y2="36.211" gradientUnits="userSpaceOnUse" x2="80.238" y1="37.402" x1="79.55">
   <stop id="stop4691" stop-color="#333" offset="0"/>
   <stop id="stop4693" stop-color="#8e8e8e" offset="1"/>
  </linearGradient>
  <radialGradient id="radialGradient23393" gradientUnits="userSpaceOnUse" cy="49.674" cx="49.605" gradientTransform="matrix(-.85466 1.4803 -1.2931 -.74658 156.59 10.982)" r="7.2366">
   <stop id="stop4367-2" stop-color="#afc9e4" offset="0"/>
   <stop id="stop4373" stop-color="#d7e4f1" offset=".60790"/>
   <stop id="stop4369" stop-color="#fff" stop-opacity="0" offset="1"/>
  </radialGradient>
  <linearGradient id="linearGradient23395" y2="21.171" xlink:href="#linearGradient5537" gradientUnits="userSpaceOnUse" x2="26.543" gradientTransform="matrix(-.27888 -.30701 .48236 -.18420 41.614 61.198)" y1="25.305" x1="20.933"/>
  <linearGradient id="linearGradient23397" y2="21.657" xlink:href="#linearGradient5537" gradientUnits="userSpaceOnUse" x2="25.606" gradientTransform="matrix(-.14252 -.62767 .45739 .0094264 37.194 63.408)" y1="25.738" x1="21.773"/>
  <linearGradient id="linearGradient23399" y2="22.725" xlink:href="#linearGradient5537" gradientUnits="userSpaceOnUse" x2="26.253" gradientTransform="matrix(-.070735 -.63975 .45340 .061014 33.054 62.593)" y1="25.916" x1="23.039"/>
  <linearGradient id="linearGradient23401" y2="22.725" xlink:href="#linearGradient5537" gradientUnits="userSpaceOnUse" x2="26.253" gradientTransform="matrix(-.092871 -.69074 .59530 .065877 28.356 62.824)" y1="25.916" x1="23.039"/>
  <linearGradient id="linearGradient23403" y2="22.998" xlink:href="#linearGradient5537" gradientUnits="userSpaceOnUse" x2="26.077" gradientTransform="matrix(-.041346 -.75680 .64742 .12423 23.07 62.771)" y1="26.208" x1="22.78"/>
  <linearGradient id="linearGradient23405" y2="23.096" xlink:href="#linearGradient5537" gradientUnits="userSpaceOnUse" x2="25.83" gradientTransform="matrix(.055211 -.75591 .62637 .20554 19.138 59.639)" y1="26.208" x1="22.78"/>
  <linearGradient id="linearGradient23407" y2="23.119" xlink:href="#linearGradient5537" gradientUnits="userSpaceOnUse" x2="25.573" gradientTransform="matrix(.16129 -.71515 .70287 .26189 13.609 55.778)" y1="26.208" x1="22.78"/>
  <linearGradient id="linearGradient23409" y2="23.119" xlink:href="#linearGradient5537" gradientUnits="userSpaceOnUse" x2="25.573" gradientTransform="matrix(.24118 -.69231 .66871 .33974 10.673 51.417)" y1="26.208" x1="22.78"/>
  <linearGradient id="linearGradient23411" y2="23.119" xlink:href="#linearGradient5537" gradientUnits="userSpaceOnUse" x2="25.573" gradientTransform="matrix(.36941 -.63324 .59120 .46162 7.4088 46.028)" y1="26.208" x1="22.78"/>
  <linearGradient id="linearGradient23413" y2="23.119" xlink:href="#linearGradient5537" gradientUnits="userSpaceOnUse" x2="25.573" gradientTransform="matrix(.45669 -.57349 .51862 .54189 5.3598 40.667)" y1="26.208" x1="22.78"/>
  <linearGradient id="linearGradient23415" y2="23.701" xlink:href="#linearGradient5537" gradientUnits="userSpaceOnUse" x2="25.08" gradientTransform="matrix(.70482 -.48371 .53050 .62505 -1.6096 34.187)" y1="27.666" x1="21.886"/>
  <linearGradient id="linearGradient23417" y2="23.701" xlink:href="#linearGradient5537" gradientUnits="userSpaceOnUse" x2="25.08" gradientTransform="matrix(.82532 -.37796 .38750 .79638 -2.8355 25.103)" y1="27.666" x1="21.886"/>
  <linearGradient id="linearGradient23419" y2="23.701" xlink:href="#linearGradient5537" gradientUnits="userSpaceOnUse" x2="25.08" gradientTransform="matrix(.86951 -.26068 .27412 .84216 -2.8826 17.907)" y1="27.666" x1="21.886"/>
  <linearGradient id="linearGradient23421" y2="23.701" xlink:href="#linearGradient5537" gradientUnits="userSpaceOnUse" x2="25.08" gradientTransform="matrix(.98577 -.16808 .16808 .98577 -3.5364 9.2269)" y1="27.666" x1="21.886"/>
  <linearGradient id="linearGradient23423" y2="23.701" xlink:href="#linearGradient5537" gradientUnits="userSpaceOnUse" x2="25.08" y1="27.666" x1="21.886"/>
  <linearGradient id="linearGradient23425" y2="22.288" xlink:href="#linearGradient5537" gradientUnits="userSpaceOnUse" x2="27.459" y1="25.361" x1="23.58"/>
  <linearGradient id="linearGradient23427" y2="38.611" xlink:href="#linearGradient5537" gradientUnits="userSpaceOnUse" x2="62.592" y1="45.352" x1="11.004"/>
  <linearGradient id="linearGradient23429" y2="41.672" gradientUnits="userSpaceOnUse" x2="45.741" y1="37.608" x1="49.875">
   <stop id="stop4388" stop-color="#fff" offset="0"/>
   <stop id="stop4390" stop-color="#fff" stop-opacity="0" offset="1"/>
  </linearGradient>
 </defs>
 <metadata id="metadata7">
  <rdf:RDF>
   <cc:Work rdf:about="">
    <dc:format>image/svg+xml</dc:format>
    <dc:type rdf:resource="http://purl.org/dc/dcmitype/StillImage"/>
    <dc:title/>
   </cc:Work>
  </rdf:RDF>
 </metadata>
 <g id="layer1" transform="translate(0 -956.36)">
  <rect id="rect5263-0" fill-opacity=".019608" ry="12.724" height="89.978" width="89.624" y="959.35" x="3.3534"/>
  <rect id="rect5261-6" fill-opacity=".039216" ry="12.552" height="88.762" width="88.413" y="959.96" x="3.9589"/>
  <rect id="rect5259-9" fill-opacity=".078431" ry="12.38" height="87.546" width="87.202" y="960.57" x="4.5645"/>
  <rect id="rect5257-5" fill-opacity=".15686" ry="12.208" height="86.33" width="85.991" y="961.18" x="5.1701"/>
  <g id="g23291" clip-path="url(#clipPath23315)" transform="matrix(.95978 0 0 .97999 93.662 -20.529)">
   <rect id="rect2419-0" rx="6.4894" transform="scale(1,-1)" ry="6.522" width="90.851" y="-1090.6" x="-92.574" height="91.308" fill="url(#radialGradient23301)"/>
   <g id="g11789" opacity=".5" fill-rule="evenodd" transform="matrix(.29987 0 0 -.30138 -120.15 1111.9)">
    <path id="path8152" d="m201.58 398.67s-175.99-177.97 32.579-358.78c-235.79 180.15-32.03 357.83-32.58 358.78z" fill="url(#linearGradient23303)"/>
    <path id="path9971" d="m418.06 185.19s-177.97-175.99-358.78 32.58c180.16-235.8 357.84-32.04 358.78-32.58z" fill="url(#linearGradient23305)"/>
    <path id="path9981" d="m66.938 267.02s177.97 175.99 358.78-32.58c-180.16 235.8-357.84 32.04-358.78 32.58z" fill="url(#linearGradient23307)"/>
    <path id="path9983" d="m283.42 47.542s175.99 177.97-32.579 358.78c235.79-180.15 32.03-357.84 32.58-358.78z" fill="url(#linearGradient23309)"/>
    <path id="path9993" d="m92 316s170.42-72.47 308.71-178.23c-161.71 68.23-309.71 178.23-308.71 178.23z" fill="url(#radialGradient23311)"/>
    <path id="path10888" d="m335.47 381.24s-72.468-170.42-178.23-308.71c68.234 161.71 178.23 309.71 178.23 308.71z" fill="url(#radialGradient23313)"/>
   </g>
  </g>
  <path id="rect5265-0" d="m5.7756 1029.8v5.0663c0 6.668 5.3434 12.032 11.985 12.032h60.809c6.6418 0 11.985-5.3645 11.985-12.032v-5.0663c0 6.6681-5.3434 12.032-11.985 12.032h-60.809c-6.6418 0-11.985-5.3643-11.985-12.032z" fill-opacity="0.17"/>
  <path id="path5252-0" d="m5.7756 1033.9v1.0133c0 6.668 5.3434 12.032 11.985 12.032h60.809c6.6418 0 11.985-5.3645 11.985-12.032v-1.0133c0 6.6681-5.3434 12.032-11.985 12.032h-60.809c-6.6418 0-11.985-5.3644-11.985-12.032z" fill-opacity=".098039"/>
  <rect id="rect4772" display="none" height="107.79" width="107.79" y="971.68" x="-369.64" fill="none"/>
  <g id="g4788" display="none" transform="matrix(.21052 0 0 .21052 -369.68 971.63)"></g>
  <g id="g4806" display="none" transform="matrix(.21052 0 0 .21052 -369.68 971.63)">
   <g id="g4808" display="inline">
    <path id="path4810" d="m349.1 256.65c-0.265-0.254 37.637 27.605 39.421 25.012 6.362-9.252 82.046-93.137 84.784-116.24 0.242-2.003-0.516-4.096-0.516-4.096s-1.19-0.144-6.325-4.314c-2.692-2.192-5.483-4.581-5.483-4.581-16.054 0.998-57.885 41.559-111.06 103.57" fill="#050505" display="none"/>
   </g>
  </g>
  <g id="g4796" transform="matrix(.21052 0 0 .21052 -369.68 971.63)"></g>
  <rect id="rect3873" rx="6" ry="6" height="84" width="84" display="none" y="974.2" x="-163.06" fill="url(#linearGradient9745)"/>
  <rect id="rect3880" rx="6" ry="6" height="84" width="84" display="none" y="974.2" x="-163.06" fill="url(#linearGradient9745)"/>
  <g id="g23170" transform="translate(-166.83 -62.424)">
   <path id="path12694" fill="url(#radialGradient23321)" d="m224.27 1073.5a10.12 10.12 0 0 1 -20.24 0 10.12 10.12 0 1 1 20.24 0z"/>
   <path id="path5182" opacity=".1" d="m225.86 1025.4a1.0093 1.0093 0 0 0 -0.125 0.031c-1.4109 0.4443-1.9837 1.6195-2.25 2 0.0199-0.01-0.0239 0-0.40625-0.3125a1.0093 1.0093 0 0 0 -0.4375 -0.2187c-1.0721-0.2385-2.0699 0.0009-2.6875 0.5625-0.61763 0.5615-0.84868 1.2676-1.0625 1.8125-0.21382 0.5448-0.43307 0.9563-0.5625 1.0937-0.12942 0.1374-0.0886 0.1818-0.625 0.063a1.0093 1.0093 0 0 0 -0.59375 0.063c-0.9087 0.3723-1.5185 1.0941-1.7812 1.8125-0.26272 0.7184-0.28335 1.4033-0.3125 1.9688-0.0291 0.5654-0.0832 1.0241-0.15625 1.1875-0.073 0.1633 0.008 0.1667-0.40625 0.2187a1.0093 1.0093 0 0 0 -0.46875 0.1875c-0.73095 0.5235-1.1364 1.2422-1.3125 1.9375-0.17612 0.6953-0.1514 1.3607-0.125 1.9063 0.0264 0.5455 0.0293 1.0075 0 1.1875a1.0093 1.0093 0 0 0 -0.125 0.063c-0.77864 0.4488-1.2426 1.1929-1.4062 1.875-0.16364 0.682-0.12534 1.2791-0.0937 1.7812 0.0316 0.5021 0.0226 0.8845-0.0313 1.0625-0.0538 0.178-0.038 0.2333-0.40625 0.375a1.0093 1.0093 0 0 0 -0.59375 0.625c-0.39603 1.2704-0.28111 2.3721-0.28125 3.2188-0.00013 0.8466-0.04 1.4208-0.59375 2.1875a1.0093 1.0093 0 0 0 -0.125 1c0.31629 0.7167 0.43569 1.0406 0.4375 1.2187 0.002 0.1781-0.0895 0.4609-0.46875 1.1875a1.0093 1.0093 0 0 0 -0.0625 0.7813c0.16705 0.4972 0.30048 1.4409 0.28125 2-4.1506-2.5439-8.3389-4.9203-11.125-8.6563a1.0093 1.0093 0 0 0 -0.0313 -0.063c-2.7041-3.252-4.952-6.8831-6.6562-10.75a1.0093 1.0093 0 0 0 -0.0313 -0.063c-0.79049-1.5171-2.371-2.1702-3.75-2.2187-1.0899-0.038-2.0637 0.3446-2.8125 1.0312-0.98667-0.1462-1.9076 0.011-2.5312 0.5625-0.7375 0.6525-1.0771 1.5344-1.25 2.4063-0.28517 1.4379-0.16227 2.7726-0.0313 3.6562-0.63745 0.5108-1.1221 1.115-1.2812 1.7813-0.20837 0.8723-0.0472 1.6742 0.125 2.4062 0.17214 0.732 0.36523 1.4104 0.4375 1.9688 0.0723 0.5583 0.0234 0.9315-0.1875 1.2812a1.0093 1.0093 0 0 0 0.125 1.2188c0.70232 0.7583 0.72462 1.6534 0.84375 2.9062 0.0984 1.0349 0.5278 2.2862 1.5312 3.3125-0.25783 0.7143-0.34733 1.421-0.15625 2.0313 0.25309 0.8084 0.77708 1.4011 1.25 1.9062 0.47291 0.5051 0.92934 0.941 1.2188 1.3438 0.2894 0.4027 0.40289 0.7048 0.375 1.0937a1.0093 1.0093 0 0 0 0.625 1c0.13745 0.056 0.17644 0.083 0.28125 0.3125 0.1048 0.2292 0.2061 0.6383 0.34375 1.0938 0.13764 0.4554 0.32034 0.985 0.78124 1.4687 0.30231 0.3173 0.82809 0.3969 1.3125 0.5313 1.5574 2.8432 3.8466 4.3038 5.1875 6.5625a1.0093 1.0093 0 0 0 1.0312 0.5c0.24659-0.042 0.33207-0.01 0.5625 0.1562 0.23043 0.165 0.52551 0.4759 0.875 0.8438 0.3495 0.3678 0.77132 0.8232 1.4375 1.0625 0.46737 0.1678 1.044 0.1095 1.5938-0.063 0.28649 0.2754 0.50706 0.6787 0.84375 0.7812 0.63459 0.1933 1.2011 0.1239 1.625 0.063 0.42394-0.061 0.72394-0.1168 0.875-0.094 0.15107 0.023 0.17353 0.02 0.34375 0.2812a1.0093 1.0093 0 0 0 1.5 0.1875c0.29313-0.2567 0.38351-0.2217 0.46875-0.2187 0.0852 0 0.25038 0.043 0.5625 0.1875 0.31212 0.1444 0.75296 0.3935 1.3438 0.4375 0.32325 0.024 0.68048-0.2149 1.0312-0.3438 0.2301 0.1545 0.4421 0.2774 0.6875 0.3438-1.8304 3.4016-3.8114 6.3498-7.0938 8.25a1.0093 1.0093 0 0 0 -0.0313 0.031c-2.9043 1.8238-5.2036 4.4083-6.0625 7.4063-0.006 0.01 0.006 0.022 0 0.031-0.0215 0.076-0.0741 0.1422-0.0937 0.2188-0.67936 1.3425-0.62293 2.7451-0.3125 3.9062 0.33029 1.2354 0.83341 2.3104 1.0312 3.2188a1.0093 1.0093 0 0 0 0.8125 0.7812c0.39185 0.072 1.0021 0.6598 1.9688 1.1563 0.48334 0.2482 1.1818 0.4339 1.875 0.2187 0.54937-0.1705 0.98564-0.6683 1.4375-1.1875 0.51773 0.035 1.0636 0.1564 1.4688-0.031 0.62078-0.2876 1.0466-0.7004 1.4375-1.0625 0.39092-0.3622 0.73006-0.6839 1-0.8438 0.26995-0.1599 0.41864-0.1847 0.6875-0.125a1.0093 1.0093 0 0 0 0.75 -0.1562c2.1278-1.3368 3.052-3.5118 3.9062-5.4063 0.85423-1.8945 1.6392-3.4588 3.0625-4.1875 4.8269-1.7951 10.424-2.6863 14.906-6.3125 0.0231-0.019 0.0395-0.044 0.0625-0.063 3.533-2.4209 5.5966-5.878 7.25-9.4375 1.665-3.5845 2.9493-7.2995 4.875-10.406a1.0093 1.0093 0 0 0 0.0625 -0.094c0.0877-0.1827 0.90331-0.8967 1.8438-1.1875 0.94044-0.2908 1.8952-0.2539 2.5 0.1875a1.0093 1.0093 0 0 0 0.0625 0.063c0.5257 0.3164 1.2165 0.3917 1.75 0.1563 0.53349-0.2355 0.86998-0.6609 1.0625-1.0938 0.36382-0.8181 0.35996-1.836-0.28125-2.6562l0.0313-0.031c-0.025-0.036-0.0684-0.057-0.0937-0.094-0.005-0.01 0.005-0.025 0-0.031-1.585-2.2674-3.6957-4.129-5.6875-5.7812a1.0093 1.0093 0 0 0 -0.21875 -0.125c-2.1975-1.0438-4.5024-0.6033-6.4062 0.3125-0.65775 0.3164-1.2316 0.7303-1.8125 1.125 0.49086-1.3621 0.81434-2.8113 0.59375-4.4063-0.0148-0.1071 0.0204-0.2043 0-0.3125h-0.0313c0.0684-1.1575-0.13505-2.2453-0.34375-3.2187-0.22895-1.068-0.38213-2.0321-0.21875-2.875a1.0093 1.0093 0 0 0 0 -0.125c0.27863-5.1939 0.90397-10.433 1.2812-15.688a1.0093 1.0093 0 0 0 0 -0.063c0.0163-1.1568-0.33745-2.1055-0.96875-2.75-0.6313-0.6446-1.4488-0.9109-2.2188-0.9688-0.76993-0.058-1.519 0.058-2.1562 0.3125-0.18409 0.073-0.32924 0.1896-0.5 0.2813-0.28262-0.3786-0.48741-0.767-0.875-1.0938-0.7198-0.607-1.6973-1.0793-2.8125-0.9687a1.0093 1.0093 0 0 0 -0.0937 0z"/>
   <path id="path5172" opacity=".15" d="m226.05 1026.4c-0.40346 0.052-0.82196 0.2439-1.125 0.5625-0.0966 0.1009-0.14091 0.1855-0.1875 0.25-0.30252 0.4253-0.49979 0.9973-0.625 1.6562-0.33703-0.3203-0.71264-0.617-1.125-0.7812-0.005 0 0.005-0.029 0-0.031h-0.0313c-0.11534-0.047-0.29015-0.1111-0.53125-0.1562-0.74441-0.1408-1.6085 0.068-2.1875 0.6875-0.56739 0.6066-0.83706 1.4855-0.84375 2.5937-0.0707-0.018-0.14945-0.05-0.21875-0.063-0.3288-0.063-0.36916-0.034-0.125 0-1.0495-0.1439-2.195 0.4438-2.7188 1.5625-0.0908 0.194-0.0786 0.2369-0.0313 0.125-0.13535 0.3184-0.25271 0.6849-0.3125 1.125 0.01-0.07-0.042 0-0.0625 0.1875-0.0211 0.2047-0.008 0.2571 0 0.1563-0.0145 0.1732-0.0335 0.3942-0.0313 0.6562 0.00018 0.011-0.00024 0.021 0 0.031 0.007 0.2874 0.0305 0.566 0.0625 0.8437 0.014 0.1215 0.0431 0.2294 0.0625 0.3438-0.12683 0-0.26278-0.022-0.375 0a0.89706 0.89706 0 0 0 -0.0313 0c-0.34626 0.07-0.6526 0.2107-0.90625 0.4062 0.11253-0.088 0.0654-0.047-0.125 0.125-0.0748 0.067-0.1002 0.1001-0.0937 0.094-0.0867 0.087-0.19839 0.1823-0.3125 0.3437-0.11816 0.1647-0.22938 0.3591-0.3125 0.5313-0.00006 0.0001 0.002 0.026 0 0.031-0.004 0.011-0.0221 0.036-0.0313 0.063-0.0574 0.1183-0.11842 0.2483-0.1875 0.4688-0.067 0.213-0.0863 0.2752-0.0625 0.1875a0.89706 0.89706 0 0 0 0 0.031c-0.0351 0.1299-0.0432 0.2148-0.0625 0.3125-0.0861 0.435-0.15458 0.932-0.125 1.4375 0.0123 0.2292 0.065 0.4203 0.0937 0.5938 0.0149 0.089 0.024 0.1518 0.0313 0.1875-0.0688-0.3395-0.0776-0.3333 0 0.031 0.0446 0.2126 0.1121 0.394 0.15625 0.5313 0.0105 0.032 0.0198 0.089 0.0313 0.125-0.271 0.055-0.56976 0.039-0.78125 0.1875-0.008 0.01-0.0233-0.01-0.0313 0-0.15758 0.1225-0.26036 0.2273-0.21875 0.1875a0.89706 0.89706 0 0 0 0 0.031c-0.0538 0.039-0.0924 0.019-0.15625 0.094-0.15259 0.1728-0.15699 0.2405-0.0937 0.1562-0.39485 0.5442-0.60897 1.2394-0.625 1.9688-0.00023 0.01 0.00017 0.021 0 0.031-0.006 0.3727 0.0446 0.7564 0.125 1.125 0.0477 0.2143 0.11543 0.3796 0.15625 0.5 0.007 0.02 0.0242 0.042 0.0313 0.063-0.0482 0.016-0.1092-0.02-0.15625 0-0.0447 0.019-0.0273 0.012-0.0625 0.031-0.0877 0.04-0.25808 0.1108-0.46875 0.2812-0.23599 0.191-0.30319 0.3324-0.3125 0.3438-0.0577 0.071-0.15825 0.1796-0.25 0.3437 0.0614-0.1079 0.008-0.055-0.0937 0.1563 0.0133-0.028-0.0329 0.032-0.0937 0.1875-0.11008 0.2836-0.10379 0.3584-0.0625 0.2187h0.0313c-0.0734 0.2432-0.14612 0.5027-0.15625 0.7813-0.004 0.095-0.00014 0.137 0 0.125-0.00001 0.034 0.007 0.2053 0.0313 0.4375h-0.0313c0.0285 0.2473 0.0942 0.4155 0.125 0.5312a0.89706 0.89706 0 0 0 0 0.031c0.0373 0.137 0.0856 0.2389 0.125 0.3437-0.0622-0.169-0.0783-0.1082 0.0313 0.1563a0.89706 0.89706 0 0 0 0.0313 0c0.0534 0.1266 0.07 0.172 0.0625 0.1562 0.0222 0.048 0.0598 0.1199 0.0937 0.1875-0.77719 0.5432-1.2313 1.4461-1.125 2.375a0.89706 0.89706 0 0 0 0.0313 0c0.0144 0.119 0.008 0.2936 0.0625 0.5 0.0974 0.3732 0.12005 0.405 0.0313 0.094 0.0451 0.1558 0.12401 0.2913 0.1875 0.4375 0.0933 0.2191 0.16369 0.2952 0.15625 0.2812-0.13859-0.2614-0.1545-0.2011 0.0313 0.125 0.0757 0.1328 0.13165 0.2134 0.15625 0.25-0.0319-0.048-0.002 0.019 0.125 0.1875-0.0204 0.015-0.0421 0.014-0.0625 0.031-0.12207 0.098-0.21844 0.1951-0.3125 0.3125a0.89706 0.89706 0 0 0 -0.0313 0c-0.0768 0.097-0.09 0.1503-0.0937 0.1562 0.0739-0.1118-0.0163-0.064-0.15625 0.2188a0.89706 0.89706 0 0 0 0 0.031c-0.0775 0.1615-0.0808 0.1609-0.0625 0.125 0.004-0.01-0.006 0.048 0 0.031-0.0649 0.1737-0.08 0.332-0.0937 0.4062-0.0149 0.049-0.0227 0.029-0.0313 0.094-0.0286 0.2139-0.0387 0.2706-0.0313 0.1562-0.04 0.5689 0.13763 1.1087 0.40625 1.5938 0.0728 0.1299 0.11779 0.1637 0.0937 0.125 0.0738 0.1198 0.16519 0.2076 0.25 0.3125-0.0583 0.058-0.13352 0.1309-0.15625 0.1562-0.006 0.01-0.14486 0.1409-0.28125 0.375-0.0127 0.022-0.0187 0.01-0.0313 0.031-0.004 0.01 0.006 0.018 0 0.031-0.0213 0.05-0.0624 0.093-0.0625 0.094-0.00003 0.0001 0.002 0.025 0 0.031-0.005 0.014-0.0313 0.031-0.0313 0.031-0.0303 0.063-0.0597 0.097-0.0937 0.2187-0.0693 0.2411-0.0115 0.4761 0 0.7188-0.38361-0.208-0.76531-0.4-1.1562-0.625-0.39751-0.2277-0.77555-0.4586-1.1562-0.6875-1.3433-0.8128-2.6819-1.6857-3.9375-2.5313-1.0837-0.7298-1.9244-1.2933-2.7812-1.9062-0.023-0.021-0.0396-0.041-0.0625-0.063-7.1464-6.6349-10.312-14.656-10.312-14.656a0.89706 0.89706 0 0 0 -0.0937 -0.1562c-0.34187-0.5319-0.83457-0.9085-1.375-1.2188-0.54042-0.3103-1.129-0.5474-1.75-0.5937-0.3105-0.023-0.63572 0.022-0.96874 0.1562-0.33303 0.1342-0.66593 0.39-0.84375 0.75-0.0819 0.1658-0.0629 0.358-0.0937 0.5313-0.23545-0.2003-0.47281-0.4062-0.78125-0.4688-0.78746-0.1598-1.4928 0.2905-1.9375 0.8125-0.88933 1.044-1.2884 2.7323-0.6875 4.4063 0.10972 0.3056 0.38427 0.5761 0.53125 0.875-0.71255 0.072-1.3236 0.5196-1.625 1.0937-0.63161 1.203-0.4562 2.8266 0.5 4.25 0.0299 0.044 0.0622 0.1101 0.0937 0.1563-0.0311 0.034-0.097 0.026-0.125 0.063-0.31369 0.4062-0.44503 0.8838-0.46875 1.375-0.0474 0.9822 0.33328 2.0406 1.1562 2.9375 0.0666 0.073 0.14799 0.1472 0.21875 0.2187-0.0274 0.043-0.1017 0.049-0.125 0.094-0.23228 0.4437-0.27187 0.9271-0.21875 1.4062 0.10623 0.9582 0.64277 1.9281 1.5625 2.6875 0.0537 0.044 0.13144 0.081 0.1875 0.125-0.33508 0.4005-0.54458 0.8991-0.5 1.375 0.10614 1.1332 0.95178 2.1408 2.2188 2.75 0.0842 0.041 0.16535 0.059 0.25 0.094-0.15958 0.4884-0.14775 0.9973 0 1.4687 0.21916 0.6993 0.83219 1.2382 1.5937 1.5625-0.14385 0.5024-0.11555 1.0383 0.0625 1.5 0.30015 0.7782 1.0696 1.3012 2 1.5 0.0567 1.0987 0.9638 2.0801 2.1562 2.3125-0.0155 0.5943 0.20465 1.1377 0.53125 1.5313 0.35248 0.4247 0.79573 0.7407 1.3125 0.9375 0.0738 0.028 0.1722-0.023 0.25 0-0.004 0.055-0.0636 0.1017-0.0625 0.1562 0.0126 0.6125 0.3235 1.1559 0.71875 1.5313 0.5464 0.5188 1.3254 0.6632 2.125 0.5937 0.14074 0.5321 0.43782 1.0367 0.84375 1.375 0.38303 0.3192 0.85792 0.5402 1.4062 0.5625 0.2918 0.012 0.55401-0.2272 0.84375-0.3437 0.12915 0.3697 0.33142 0.7194 0.6875 0.9062 0.5539 0.2905 1.1274 0.2239 1.6875 0.031 0.2272-0.078 0.48339-0.3098 0.71875-0.4375 0.0751 0.2862 0.20573 0.5653 0.46875 0.7812 0.48868 0.4011 1.1607 0.3508 1.6562 0.1563 0.30704-0.1206 0.60589-0.3927 0.90625-0.625 0.0793 0.2264 0.17642 0.4671 0.375 0.6562 0.47885 0.4561 1.2283 0.4305 1.75 0.1875 0.14396-0.067 0.2701-0.2509 0.40625-0.3437 0.15399 0.232 0.35462 0.432 0.625 0.5312 0.52051 0.1909 1.013 0.051 1.4062-0.1562 0.20274-0.1069 0.37319-0.3106 0.5625-0.4688 0.0125 0.01 0.0186 0.024 0.0313 0.031-1.8994 2.7718-3.289 5.3096-4.0312 6.9062-3.2397 2.6117-6.2866 4.8512-9.125 7.4688-0.54596 0.5034-0.61118 1.0778-0.59375 1.6562 0.008 0.2795 0.0499 0.5887 0.15625 0.875-0.28726 0.2643-0.58907 0.5014-0.875 0.7813-0.34885 0.3414-0.47865 0.736-0.5625 1.125-0.0838 0.3889-0.0883 0.8044-0.0313 1.2187 0.0571 0.4143 0.16738 0.835 0.46875 1.2188 0.0942 0.1199 0.30264 0.1218 0.4375 0.2187-0.11179 0.4827-0.25184 0.9693-0.21875 1.4688 0.025 0.3775 0.0789 0.7662 0.375 1.1562 0.29613 0.39 0.97337 0.6176 1.4688 0.5 0.0498-0.012 0.0226-0.018 0.0625-0.031 0.0161 0.095-0.0269 0.185 0 0.2812 0.0913 0.326 0.32184 0.7429 0.8125 0.9375 0.49067 0.1946 0.96289 0.027 1.3125-0.1875 0.44982-0.2759 0.86164-0.6297 1.2812-0.9687 0.32878 0.1693 0.68341 0.3597 1 0.25 0.22728-0.079 0.35916-0.1664 0.4375-0.2188 0.25037-0.1674 0.50823-0.3705 0.75-0.5625 0.55952-0.4442 1.0339-1.0174 1.5312-1.5625 0.19913 0.138 0.39739 0.2875 0.65625 0.2813 0.37045-0.01 0.65691-0.169 0.875-0.3438 2.4392-1.9554 3.7276-5.1116 5.4688-8.9375 2.8487-1.4649 5.2082-1.9427 7.875-2.75 1.6773-0.5048 3.4743-1.1314 5.4688-2.25 0.0267-0.015 0.009-0.017 0.0313-0.031 0.18715-0.1054 0.36276-0.2001 0.5-0.2813 1.0472-0.622 2.1752-1.3697 3.375-2.3125 5.6464-4.4372 7.1908-12.043 10.312-17.812 0.22284-0.4119 0.48261-0.8137 0.71875-1.125-0.13014 0.1699-0.11705 0.1916 0.0313 0a0.89706 0.89706 0 0 0 0 -0.031c0.095-0.124 0.19568-0.2407 0.34375-0.4063 0.00004 0-0.001-0.028 0-0.031-0.00006 0 0.028-0.025 0.0313-0.031 0.0951-0.1026 0.21285-0.1866 0.34375-0.3125 0.37054-0.3549 0.74065-0.6241 1.125-0.875 1.2329-0.2549 2.2364-0.2139 2.9062-0.063 0.61263 0.1385 0.90122 0.2941 0.9375 0.3125 0.001 0.0007 0.031 0.031 0.0313 0.031a0.89706 0.89706 0 0 0 0.0937 0.031 0.89706 0.89706 0 0 0 1.4062 -0.6562c0.0645-1.1282-0.34324-2.0608-0.875-2.7188s-1.161-1.0957-1.6562-1.4687c-0.25531-0.1927-0.44219-0.3237-0.59375-0.4688a0.89706 0.89706 0 0 0 -0.0313 -0.031c-0.003-0.01-0.0277-0.024-0.0313-0.031-0.0116-0.012-0.0206-0.051-0.0313-0.063-0.003-0.01 0.003-0.025 0-0.031a0.89706 0.89706 0 0 0 -0.0313 -0.031c-0.0378-0.083-0.0737-0.1469-0.15625-0.2812 0.0821 0.133 0.0808 0.1135-0.0313-0.063-0.7779-1.2261-2.3123-2.5-4.75-2.5-2.3023 0-4.0274 1.0354-5.4688 2.25-0.74422 0.627-1.4609 1.2043-2.1562 1.8437 0.0159-0.038 0.0319-0.026 0.0625-0.125 0.0704-0.2292 0.16472-0.4616 0.25-0.7187 0.0653-0.197 0.0831-0.31 0.0937-0.3438-0.0599 0.1769-0.0464 0.164 0.0313-0.063 0.0495-0.1428 0.0612-0.176 0.0625-0.1875 0.00021 0 0.00016-0.032 0-0.031 0.33837-0.9611 0.65122-1.8143 0.90625-2.5625 0.013-0.038 0.0209-0.063 0.0313-0.094 0.12421-0.3694 0.2559-0.7402 0.34375-1.125 0.004-0.019-0.003-0.014 0-0.031 0.002-0.01-0.002-0.022 0-0.031 0.0162-0.1299 0.0319-0.2446 0.0313-0.25 0.0182-0.087 0.049-0.1446 0.0625-0.25 0.0244-0.1849 0.0625-0.373 0.0625-0.5625a0.89706 0.89706 0 0 0 -0.0313 -0.2187c-0.0206-0.083-0.0586-0.2445-0.0937-0.4063-0.033-0.1517-0.0638-0.2945-0.0937-0.4375 0.031-0.063 0.0655-0.135 0.0937-0.1875a0.89706 0.89706 0 0 0 0.0937 -0.6562c-0.31227-1.2019-0.57686-2.9691-0.75-4.6875-0.002-0.022 0.002-0.04 0-0.063 0.15009-2.7006 0.45147-6.7576 0.8125-10.719 0.17287-1.8543 0.32425-3.6662 0.53125-5.2187 0.0746-0.5596-0.0313-1.0851-0.21875-1.625-0.18745-0.54-0.43681-1.0887-0.84375-1.5313-0.40693-0.4426-1.0592-0.8535-1.8125-0.7187-0.7533 0.1347-1.3121 0.7124-1.75 1.5312-0.0585 0.1096-0.10755 0.2332-0.15625 0.3438-0.0197-0.069-0.0362-0.1179-0.0937-0.25-0.0548-0.1264-0.0787-0.2198-0.0937-0.25-0.11771-0.2305-0.28854-0.4992-0.46875-0.75-0.13948-0.1958-0.24783-0.3272-0.34375-0.4375-0.0878-0.1-0.23521-0.2444-0.40625-0.4063-0.007-0.01 0.007-0.025 0-0.031-0.0349-0.033-0.005 0.023-0.0313 0-0.13758-0.1204-0.22534-0.2091-0.0937-0.094-0.15387-0.133-0.30633-0.239-0.46875-0.3437 0.003 0-0.0336-0.04-0.125-0.094-0.11801-0.07-0.23019-0.101-0.28125-0.125-0.0493-0.024-0.15248-0.1176-0.40625-0.1875-0.0363-0.01-0.0306 0.01-0.0625 0-0.20538-0.051-0.32123 0-0.3125 0-0.15381-0.017-0.30642-0.052-0.46875-0.031z"/>
   <path id="path4712" opacity=".3" d="m226.17 1027.3c-0.2155 0.028-0.41362 0.1231-0.59375 0.3125-0.0439 0.046-0.084 0.099-0.125 0.1562-0.34991 0.492-0.5986 1.4062-0.625 2.9063-0.0131 0.7206 0.0266 1.5165 0.0937 2.3437-0.17023-0.6467-0.37369-1.4384-0.53125-2.0312-0.27435-1.0324-0.98734-1.7699-1.75-2.0625-0.12523-0.05-0.24919-0.1015-0.375-0.125-1.0085-0.1908-1.976 0.4801-1.9688 2.4687 0.00098 0.2486 0.0293 0.522 0.0625 0.8125 0.0304 0.266 0.0788 0.5621 0.125 0.8438-0.009-0.011-0.0218-0.02-0.0313-0.031-0.0772-0.091-0.16639-0.1717-0.25-0.25-0.251-0.2364-0.528-0.3874-0.8125-0.5-0.0435-0.017-0.0812-0.048-0.125-0.063-0.0815-0.026-0.16822-0.047-0.25-0.063-0.0312-0.01-0.0626 0-0.0937 0-0.70744-0.097-1.3895 0.2257-1.7812 1.0625-0.0142 0.03-0.0178 0.062-0.0313 0.094-0.11082 0.2606-0.20164 0.5502-0.25 0.9062-0.007 0.053-0.0254 0.1015-0.0313 0.1563-0.004 0.043 0.003 0.081 0 0.125-0.0161 0.1929-0.0351 0.3748-0.0313 0.5937 0.004 0.247 0.0301 0.5001 0.0625 0.7813 0.0333 0.2887 0.0926 0.5714 0.15625 0.875 0.0586 0.289 0.13622 0.577 0.21875 0.875 0.005 0.019-0.005 0.043 0 0.063-0.15489-0.1297-0.29174-0.2324-0.4375-0.3125-0.0138-0.01-0.0175-0.024-0.0313-0.031h-0.0313c-0.0233-0.012-0.0395-0.02-0.0625-0.031-0.0822-0.039-0.17112-0.07-0.25-0.094-0.0538-0.016-0.10404-0.022-0.15625-0.031-0.16926-0.034-0.31753-0.03-0.46875 0-0.19101 0.038-0.37222 0.1274-0.53125 0.25-0.0291 0.023-0.0658 0.037-0.0937 0.063-0.022 0.02-0.0412 0.041-0.0625 0.063-0.0773 0.077-0.15151 0.1548-0.21875 0.25-0.0844 0.1175-0.15077 0.2341-0.21875 0.375-0.004 0.01 0.004 0.023 0 0.031-0.065 0.1378-0.139 0.2827-0.1875 0.4375-0.0157 0.05-0.0173 0.1049-0.0313 0.1563-0.0249 0.092-0.0435 0.185-0.0625 0.2812-0.0756 0.3821-0.1178 0.7765-0.0937 1.1875 0.009 0.1712 0.0344 0.3305 0.0625 0.5 0.009 0.052 0.0208 0.1049 0.0313 0.1563 0.002 0.01-0.002 0.021 0 0.031 0.0301 0.1433 0.0805 0.2992 0.125 0.4375 0.0563 0.174 0.10717 0.3384 0.1875 0.5 0.10712 0.2154 0.25038 0.4771 0.4375 0.75 0.1529 0.2323 0.36451 0.4837 0.5625 0.75-0.10178-0.096-0.18431-0.1709-0.28125-0.25-0.88504-0.7345-1.5383-0.7727-2-0.4375-0.0487 0.034-0.0811 0.083-0.125 0.125-0.0272 0.027-0.0684 0.033-0.0937 0.063-0.0249 0.028-0.0394 0.063-0.0625 0.094-0.26672 0.3675-0.42888 0.8857-0.4375 1.4687-0.007 0.3041 0.0258 0.626 0.0937 0.9375 0.0304 0.1364 0.0801 0.2737 0.125 0.4063 0.10227 0.302 0.22593 0.587 0.40625 0.8437 0.0856 0.1219 0.22278 0.2648 0.34375 0.4063-0.54026-0.2371-1.0109-0.2471-1.375-0.094-0.0126 0.01-0.0189 0.026-0.0313 0.031-0.0969 0.045-0.19924 0.09-0.28125 0.1562-0.0728 0.059-0.12693 0.1451-0.1875 0.2188-0.0553 0.068-0.11185 0.1393-0.15625 0.2187-0.0192 0.034-0.0453 0.058-0.0625 0.094-0.0195 0.041-0.0457 0.082-0.0625 0.125-0.0197 0.051-0.0154 0.1026-0.0313 0.1562-0.055 0.1821-0.0862 0.356-0.0937 0.5625-0.001 0.03 0.00038 0.063 0 0.094-0.00004 0.1153-0.0153 0.2244 0 0.3437 0.0159 0.138 0.0564 0.2657 0.0937 0.4063 0.0252 0.092 0.059 0.1887 0.0937 0.2812 0.0145 0.039 0.015 0.086 0.0313 0.125 0.0179 0.042 0.0425 0.083 0.0625 0.125 0.0401 0.086 0.0761 0.1657 0.125 0.25 0.0392 0.067 0.0801 0.1218 0.125 0.1875 0.0856 0.1272 0.17386 0.2548 0.28125 0.375 0.0383 0.043 0.084 0.084 0.125 0.125 0.0107 0.011 0.0203 0.021 0.0313 0.031-0.22712-0.022-0.44335-0.018-0.625 0.031-0.0219 0.01-0.0413 0.024-0.0625 0.031-0.70904 0.2331-1.0333 0.9753-0.9375 1.8125 0.0144 0.1188 0.0307 0.2538 0.0625 0.375 0.006 0.022 0.0249 0.04 0.0313 0.063 0.0343 0.1185 0.0737 0.2256 0.125 0.3437 0.0336 0.079 0.0837 0.1408 0.125 0.2188 0.0148 0.028 0.0155 0.066 0.0313 0.094 0.0387 0.068 0.0804 0.1212 0.125 0.1875 0.0347 0.052 0.0554 0.1055 0.0937 0.1563 0.0672 0.089 0.1402 0.1656 0.21875 0.25 0.22437 0.2439 0.49229 0.467 0.8125 0.6562-0.41371-0.018-0.7369 0.056-1 0.1875-0.0938 0.047-0.175 0.095-0.25 0.1563-0.0712 0.057-0.13276 0.1191-0.1875 0.1875-0.0232 0.029-0.0423 0.062-0.0625 0.094-0.0278 0.042-0.0714 0.08-0.0937 0.125-0.0139 0.029-0.0195 0.064-0.0313 0.094-0.0324 0.081-0.0463 0.1623-0.0625 0.25-0.004 0.023-0.0282 0.039-0.0313 0.063-0.004 0.033 0.002 0.06 0 0.094-0.0243 0.3449 0.0789 0.7283 0.28125 1.0938 0.0183 0.033 0.0424 0.061 0.0625 0.094 0.10866 0.1764 0.24499 0.3384 0.40625 0.5 0.0159 0.016 0.0149 0.047 0.0313 0.063 0.16454 0.1581 0.34707 0.3061 0.5625 0.4375-0.11359 0.019-0.21396 0.063-0.3125 0.094-0.0206 0.01-0.0425 0.024-0.0625 0.031-0.18586 0.066-0.33871 0.1461-0.46875 0.25-0.0632 0.049-0.10567 0.1-0.15625 0.1563-0.0737 0.081-0.13922 0.1255-0.1875 0.2187-0.004 0.01 0.004 0.024 0 0.031-0.0332 0.068-0.0735 0.146-0.0937 0.2187-0.13091 0.4557-0.009 0.987 0.34375 1.4688 0.0516 0.072 0.0947 0.1494 0.15625 0.2187 0.10488 0.1149 0.24294 0.2413 0.375 0.3438 0.0467 0.036 0.10624 0.059 0.15625 0.094 0.13486 0.092 0.27917 0.1746 0.4375 0.25 0.0351 0.017 0.0576 0.047 0.0937 0.063-0.0984 0.049-0.20096 0.097-0.28125 0.1563-0.0119 0.01-0.0197 0.022-0.0313 0.031-0.12623 0.099-0.20057 0.2223-0.28125 0.3438-0.0589-0.05-0.13243-0.1088-0.1875-0.1563-0.11879-0.1024-0.0863-0.066-0.1875-0.1562-0.65123-0.5692-1-0.9063-1-0.9063-0.6726-0.342-1.3666-0.7243-2.0625-1.125-0.39365-0.2255-0.79226-0.4499-1.1875-0.6875-1.3639-0.8252-2.7086-1.7139-3.9688-2.5625-1.1196-0.754-1.9914-1.3673-2.875-2-7.3627-6.8022-10.625-15.031-10.625-15.031-0.89217-1.3879-4.5441-2.5839-3.1562 0.6875 0 0 0.0528 1.3542 1.9062 4.0937-1.4899-1.6248-2.6148-3.0842-3-4.0937-1.0961-2.8727-3.5584 0.1877-2.5938 2.875 0.3942 1.0981 1.1151 2.2145 2 3.3125-0.23046-0.1904-0.48457-0.3745-0.65625-0.5313-2.3564-2.1519-3.6234 0.88-2.0312 3.25 0.1924 0.2864 0.40265 0.5875 0.65625 0.875-1.2605 0.086-1.4361 2.0996-0.0937 3.5625 0.25316 0.2759 0.54174 0.5456 0.875 0.8125-1.1717 0.3117-1.0367 2.2571 0.46875 3.5 0.42159 0.3481 0.94865 0.6941 1.5312 1-2.2072-0.2245-1.8814 2.1302 0.1875 3.125 0.40051 0.1926 0.86861 0.3249 1.375 0.4688-1.337 0.5677-0.77036 2.8597 1.0625 2.9062 0.20527 0.01 0.42939 0 0.65625 0-1.6196 0.5876-0.75085 3.0756 1.1875 2.8438 0.0964-0.012 0.21147-0.017 0.3125-0.031-0.69079 1.025 0.50555 2.7096 2.125 2.1875 0.49254-0.1588 1.064-0.4016 1.6562-0.6562-0.25476 0.1365-0.90155 0.4918-1.0938 0.5937-1.9161 1.0163 0.39648 3.1671 1.625 2.5938 0.0656-0.031 0.15117-0.061 0.21875-0.094-1.4587 1.3882 0.55161 3.0372 2.0625 2.2188 0.086-0.047 0.19256-0.103 0.28125-0.1563-0.5617 1.3052 1.1345 2.8906 2.3438 1.7813 0.30728-0.2819 0.65336-0.6449 1-1.0313-1.126 2.1668 0.16003 2.9636 2.4375 1.1563 0.24788-0.1968 0.49155-0.4421 0.75-0.7188-1.0248 2.1697-0.0774 3.0458 1.7188 1.3125 0.4714-0.4549 0.99458-1.1793 1.5-2.0312-0.051 0.114-0.1785 0.3435-0.21875 0.4375-1.1583 2.7036-0.0264 3.7326 1.6875 1.6562 0.18434-0.2233 0.37872-0.4993 0.5625-0.8125-0.0367 0.1061-0.12932 0.3223-0.15625 0.4063-0.59377 1.8504 0.46805 2.1089 1.6875 0.75 0.62938 0.7313 1.1568 0.6486 1.75 0.2812-2.462 3.3365-4.081 6.4545-4.9062 8.25-3.3214 2.6855-6.4129 4.9461-9.25 7.5625-0.40286 0.3715-0.43156 1.5666 0.125 2-0.46672 0.4314-0.95007 0.8661-1.4062 1.3125-0.56991 0.5577-0.56022 2.7034 0.65625 2.6875-0.39652 1.1038-0.53576 2.9184 0.4375 2.6875 0.0823-0.019 0.15134-0.074 0.25-0.125 0.31209-0.16 0.64285-0.3127 0.9375-0.5-0.21099 1.1191-0.14135 2.2968 0.75 1.75 0.65302-0.4006 1.2631-0.8578 1.8438-1.4062 0.0717 0.437 0.26319 0.7191 0.625 0.5937 0.0708-0.024 0.13431-0.068 0.21875-0.125 0.23151-0.1548 0.46777-0.3255 0.6875-0.5 0.82096-0.6518 1.5697-1.4359 2.2812-2.3437 0.0473 0.6511 0.28226 1.1187 0.78125 0.7187 2.2623-1.8136 3.558-4.9665 5.4062-9l0.0625 0.031c3.0375-1.5935 5.5235-2.0686 8.1875-2.875 1.646-0.4954 3.3583-1.1091 5.2812-2.1875 0.012-0.01 0.0192-0.024 0.0313-0.031 0.15442-0.087 0.31142-0.1882 0.46875-0.2812 1.0184-0.605 2.1147-1.3333 3.2812-2.25 5.3076-4.171 6.8815-11.594 10.094-17.531 0.24504-0.4529 0.51572-0.8688 0.78125-1.2187 0.009-0.012 0.0221-0.02 0.0313-0.031 0.13197-0.1722 0.27159-0.3182 0.40625-0.4687 0.005-0.01-0.005-0.025 0-0.031 0.13464-0.1497 0.27046-0.2757 0.40625-0.4062 0.48601-0.4656 0.98149-0.8032 1.4375-1.0938 2.8944-0.6568 4.6536 0.3771 4.75 0.4375 0.011 0.01 0.0202 0.021 0.0313 0.031 0.10546-1.8456-1.1236-2.6284-2.1562-3.4063-0.3108-0.2346-0.60844-0.4552-0.84375-0.7187-0.01-0.02-0.0211-0.042-0.0313-0.063-0.01-0.011-0.0218-0.02-0.0313-0.031-0.0637-0.1273-0.10847-0.2464-0.1875-0.375-0.0115-0.019-0.0194-0.044-0.0313-0.063-0.65984-1.04-1.8462-2.0625-4-2.0625-4.0841 0-5.9283 3.5553-9.125 5.6875 0.0412-0.2041 0.0495-0.4286 0.0937-0.625 0.007-0.033 0.0223-0.062 0.0313-0.094 0.005-0.024 0.0259-0.039 0.0313-0.063 0.01-0.043 0.0213-0.082 0.0313-0.125 0.0126-0.053 0.0185-0.1036 0.0313-0.1563 0.0961-0.4001 0.18033-0.7833 0.28125-1.1562 0.022-0.078 0.0402-0.1422 0.0625-0.2188 0.009-0.03 0.0225-0.064 0.0313-0.094 0.01-0.034 0.021-0.061 0.0313-0.094 0.0274-0.091 0.0661-0.1607 0.0937-0.25 0.0789-0.2569 0.16999-0.5087 0.25-0.75 0.0374-0.1126 0.0584-0.2321 0.0937-0.3437 0.008-0.025 0.0227-0.038 0.0313-0.063 0.0286-0.082 0.0344-0.1381 0.0625-0.2188 0.3451-0.981 0.65361-1.8213 0.90625-2.5625 0.0114-0.034 0.0201-0.06 0.0313-0.094 0.12437-0.3699 0.2393-0.7107 0.3125-1.0313 0.002-0.01-0.002-0.021 0-0.031 0.0368-0.1642 0.0742-0.3161 0.0937-0.4688 0.0211-0.1601 0.0313-0.2888 0.0313-0.4375-0.0323-0.1292-0.0634-0.2978-0.0937-0.4375-0.052-0.2393-0.10976-0.4852-0.15625-0.75 0.0831-0.1665 0.16276-0.3381 0.25-0.5-0.33816-1.3015-0.60537-3.1059-0.78125-4.875 0.14888-2.7132 0.44513-6.8755 0.8125-10.906 0.17317-1.8575 0.35239-3.6742 0.5625-5.25 0.17348-1.3011-1.486-4.5539-2.9688-1.7813-0.10882 0.204-0.2063 0.4463-0.3125 0.7188-0.1033 0.2622-0.21327 0.5426-0.3125 0.875-0.23075 0.7727-0.38736 1.6532-0.5 2.5937-0.006 0.05 0.006 0.1056 0 0.1563-0.0323 0.2854-0.0702 0.5793-0.0937 0.875-0.0135 0.1663-0.0205 0.3308-0.0313 0.5-0.0159 0.2514-0.0519 0.4935-0.0625 0.75-0.0783-1.0026-0.16078-1.9867-0.21875-2.9375-0.0581-0.9844-0.0948-1.9381-0.125-2.8125-0.003-0.092-0.0362-0.2063-0.0625-0.3125-0.01-0.037-0.0191-0.087-0.0313-0.125-0.0287-0.091-0.0518-0.185-0.0937-0.2813-0.0255-0.059-0.0638-0.1273-0.0937-0.1875-0.10193-0.1996-0.23259-0.4268-0.375-0.625-0.0957-0.1343-0.20327-0.2494-0.3125-0.375-0.11271-0.1281-0.22086-0.2629-0.34375-0.375-0.0285-0.026-0.0648-0.037-0.0937-0.063-0.12226-0.1057-0.24778-0.1992-0.375-0.2812-0.0326-0.021-0.061-0.043-0.0937-0.063-0.0642-0.038-0.12302-0.063-0.1875-0.094-0.0962-0.046-0.18577-0.099-0.28125-0.125h-0.0313c-0.14745-0.038-0.29713-0.049-0.4375-0.031zm-17.125 40.312c-0.16738 0.2566-0.18771 0.3371-0.375 0.625 0.0847-0.1701 0.16884-0.3345 0.25-0.5l0.125-0.125zm-3.2812 1.125c-0.0987 0.1257-0.18226 0.2487-0.28125 0.375 0.0746-0.1117 0.14522-0.2331 0.21875-0.3438l0.0625-0.031z"/>
   <g id="g4584" transform="translate(165.3 1024)">
    <path id="path4643" fill="url(#linearGradient23323)" d="m63.213 39.352c-0.31877 0.13158-8.0549 2.2619-12.678 3.6537-2.7128 0.81682-1.0223 4.1479 1.2964 3.7249 2.4933-0.45493 11.911-5.9126 11.911-5.9126l-0.5298-1.4659z"/>
    <path id="path4639" fill="url(#linearGradient23325)" d="m62.656 38.402c-0.33582 0.07843-8.3143 0.93289-13.101 1.5608-2.809 0.36851-1.678 3.9287 0.6785 3.8852 2.5341-0.04676 12.709-3.9138 12.709-3.9138l-0.287-1.532z"/>
    <path id="path4635" fill="url(#linearGradient23327)" d="m64.328 36.673c-0.41487 0.03453-10.164-0.14838-16.025-0.1435-3.4397 0.0029-2.449 3.6893 0.40839 3.951 3.0726 0.28145 15.801-2.2469 15.801-2.2469l-0.18382-1.5606z"/>
    <path id="path4631" fill="url(#linearGradient23329)" d="m64.356 35.954c-0.43293-0.03147-10.435-1.6656-16.468-2.5448-3.5405-0.51593-3.1567 2.9497-0.26106 3.6159 3.1138 0.71637 16.649 0.3605 16.649 0.3605l0.07994-1.4316z"/>
    <path id="path4627" fill="url(#linearGradient23331)" d="m63.983 35.072c-0.42352-0.09513-10.074-3.19-15.911-4.9514-3.4254-1.0337-3.558 2.4506-0.79274 3.5376 2.9736 1.1688 16.413 2.8179 16.413 2.8179l0.2907-1.4041z"/>
    <path id="path4623" fill="url(#linearGradient23333)" d="m64.94 33.779c-0.443-0.161-10.757-4.169-16.46-7.559-3.387-2.013-4.1661 2.2078-1.3364 3.7695 3.0429 1.6793 17.291 5.2884 17.291 5.2884l0.50462-1.4993z"/>
    <path id="path4619" fill="url(#linearGradient23335)" d="m64.445 32.43c-0.414-0.226-10.011-5.732-15.143-9.937-3.0474-2.4974-4.4497 1.5592-1.8856 3.5269 2.7572 2.116 16.305 7.8175 16.305 7.8175l0.7234-1.4069z"/>
    <path id="path4615" fill="url(#linearGradient23337)" d="m63.166 31.616c-0.35191-0.31374-7.9204-8.3067-12.487-13.119-3.0017-3.1633-4.0794 0.9543-2.638 3.006 1.998 2.8438 14.101 11.319 14.101 11.319l1.0242-1.2056z"/>
    <path id="path4611" fill="url(#linearGradient23339)" d="m65.058 31.042c-0.35071-0.42398-7.6853-10.996-12.113-17.363-2.9101-4.1852-4.8328 0.44503-3.5244 3.0766 1.8137 3.6476 14.262 15.526 14.262 15.526l1.3748-1.2395z"/>
    <path id="path4607" fill="url(#linearGradient23341)" d="m64.068 28.168c-0.259-0.486-5.29-12.329-8.399-19.433-1.129-2.5796-4.642-2.649-4.106 1.999 0.83455 7.2434 10.911 18.374 10.911 18.374l1.5947-0.93982z"/>
    <path id="path4603" fill="url(#linearGradient23343)" d="m64.432 26.454c-0.182-0.519-3.352-12.99-5.344-20.485-0.723-2.7212-4.555-3.5461-4.023 1.1022 0.83 7.2558 7.648 20.069 7.648 20.069l1.7192-0.68612z"/>
    <path id="path4599" fill="url(#linearGradient23345)" d="m65.625 26.313c-0.095-0.542-1.677-13.33-1.945-21.081-0.058-1.662-4.036-5.9658-4.149 0.4344-0.133 7.3026 4.287 21.045 4.287 21.045l1.8078-0.39779z"/>
    <path id="path4589" fill="url(#linearGradient23347)" d="m66.814 25.32c0-0.49566 0.56236-12.099 1.487-19.033 0.198-1.4874-1.981-5.5155-3.569-0.1987-1.883 6.3077 0.496 19.331 0.496 19.331l1.5861-0.09913z"/>
    <path id="path4568" opacity=".4" d="m66.719 19.281-0.5 4.6562-1-3.1875-0.1875 3.7812-1.5-3.375 0.3125 3.5625-2-2.875 0.8125 3.4688-2.2812-1.1875 1.4688 2.1875-2.6562-0.6875 2.2812 1.7812-3.5625-0.59375 2.875 1.875-2.5938 0.09375 2.1875 1.0938-3.0625 0.3125 2.4688 0.875-3.2812 0.40625 2.2812 1-2.9688 0.28125 2.9688 0.8125-2.5625 0.59375 2.6562 0.59375-3.375 0.875 2.7812 0.5-3.375 1 3.2812 0.375-3.375 1.0938 2.9688 0.3125-2.6562 1.1875h2.6562l-2.0625 1.1875 2.375-0.1875-1.875 1.5625 2.5625-0.78125-1.1875 1.9688 7.0312-1.1875s0.31809-8.3032 3.0938-13.656c-0.79305-3.1722-1-9.7188-1-9.7188z" transform="matrix(1.1567 0 0 1.113 -10.615 -4.9545)" fill="url(#radialGradient23349)"/>
    <path id="path4546" fill="url(#radialGradient23351)" d="m64.633 42.668c0.19826-7.5339 3.0731-11.301 3.0731-13.68-0.79305-3.1722-0.99131-9.7148-0.99131-9.7148l-0.49565 4.6592-0.99131-3.1722-0.19826 3.767-1.487-3.3704 0.29739 3.5687-1.9826-2.8748 0.79305 3.4696-2.28-1.1896 1.487 2.1809-2.6765-0.69392 2.28 1.7844-3.5687-0.59478 2.8748 1.8835-2.5774 0.09913 2.1809 1.0904-3.0731 0.29739 2.4783 0.89218-3.2713 0.39652 2.28 0.99131-2.9739 0.29739 2.9739 0.79305-2.5774 0.59478 2.6765 0.59479-3.3704 0.89218 2.7757 0.49565-3.3705 0.99131 3.2713 0.39652-3.3704 1.0904 2.9739 0.29739-2.6765 1.1896h2.6765l-2.0817 1.1896 2.3791-0.19826-1.8835 1.5861 2.5774-0.79305-1.1896 1.9826 7.0383-1.1896z"/>
    <path id="path4579" opacity=".1" d="m67.625 28.562s-4.0971 8.5455-4.5927 12.511l1.624 0.646c0.403-6.896 3.063-10.444 3.063-12.719-0.033-0.129-0.064-0.298-0.094-0.438z"/>
    <path id="path4647" opacity=".3" d="m60.875 2.2812c-0.719 0.0934-1.302 0.975-1.344 3.375-0.013 0.7391 0.023 1.5563 0.094 2.4063-0.175-0.6667-0.369-1.4838-0.531-2.0937-0.723-2.721-4.563-3.5546-4.032 1.0937 0.03154 0.27567 0.07688 0.5843 0.125 0.875-1.4106-1.7373-4.0982-1.3263-3.625 2.7812 0.06654 0.57752 0.20076 1.1932 0.375 1.8125-2.3186-1.9413-3.6813 1.9059-2.5312 4.2188 0.2005 0.40324 0.57075 0.92275 1 1.5-2.7909-2.6325-3.7714 1.2624-2.375 3.25 0.08561 0.12185 0.22278 0.26483 0.34375 0.40625-2.2395-0.98268-3.1512 2.0018-1.3125 3.8125-2.0925-0.20286-2.2746 2.8751 0 4.2188-2.2065-0.09859-2.2512 2.2933-0.34375 3.4375-2.01 0.31465-1.6965 2.5838 0.25 3.4375-1.6502 0.81899-0.72411 3.2393 1.4688 3.625-1.0517 0.89602-0.4343 2.7563 0.96875 3.2812-0.91694 1.255 0.57099 3.3406 2.4375 3 1.2219-0.22295 4.0942-1.6364 6.7188-3.0312l6.0625-1.0312c0.0086-0.32831 0.0129-0.6233 0.03125-0.9375 0.0082-0.14009 0.02125-0.2689 0.03125-0.40625 0.03195-0.44202 0.07621-0.89816 0.125-1.3125s0.12458-0.79969 0.1875-1.1875c0.0088-0.05415 0.02222-0.1026 0.03125-0.15625 0.08288-0.48409 0.14998-0.96202 0.25-1.4062 0.03425-0.15213 0.08917-0.28986 0.125-0.4375 0.12243-0.50974 0.23986-1.0101 0.375-1.4688 0.11688-0.39346 0.25479-0.73514 0.375-1.0938 0.04459-0.13444 0.0805-0.27648 0.125-0.40625 0.37026-1.0685 0.6987-1.9889 0.96875-2.7812 0.01145-0.03382 0.02014-0.06036 0.03125-0.09375 0.12437-0.36986 0.2393-0.71064 0.3125-1.0312 0.0024-0.01043-0.0023-0.02087 0-0.03125 0.03676-0.16412 0.07417-0.31609 0.09375-0.46875 0.0211-0.16012 0.03125-0.2888 0.03125-0.4375-0.03231-0.12923-0.06339-0.29775-0.09375-0.4375-0.05198-0.23928-0.10976-0.48522-0.15625-0.75 0.08309-0.16648 0.16276-0.33812 0.25-0.5-0.33816-1.3015-0.60537-3.1059-0.78125-4.875 0.21756-3.965 0.7139-11.198 1.375-16.156 0.2-1.4877-2.005-5.5051-3.592-0.1882-0.417 1.3958-0.616 3.1292-0.688 4.9682-0.162-2.0629-0.283-4.0943-0.343-5.8432-0.036-1.0388-1.615-3.0931-2.813-2.9376z" fill="url(#linearGradient23353)"/>
   </g>
   <g id="g4505" transform="translate(165.3 1024)">
    <g id="g4140" transform="matrix(.58697 .039425 -.078653 1.2102 26.636 -11.588)">
     <path id="path4142" fill="url(#linearGradient23355)" d="m43.168 60.566c-3.7757 3.1278-7.2363 5.5845-10.405 8.507-0.5706 0.52621-0.47978 2.7522 1.1249 2.0389 4.3992-1.9556 6.1507-5.3845 9.9834-9.9131 0.55838-0.65978-0.46026-0.83388-0.70306-0.63275z"/>
     <path id="path4144" fill="url(#linearGradient23357)" d="m35.928 63.806c-3.7757 3.1278 0.0033 2.3448-3.1657 5.2673-0.5706 0.52621-0.47978 2.7522 1.1249 2.0389 4.3992-1.9556 6.1507-5.3845 9.9834-9.9131 0.55838-0.65978-7.6998 2.4058-7.9426 2.6069z"/>
    </g>
    <path id="path4038" fill="url(#linearGradient23359)" d="m74.297 32.198c-4.164 0-5.981 3.687-9.297 5.802-5.004 3.192-10.353 6.75-14.496 11-6.273 6.435-9.166 14.089-9.166 14.089l5.0557 3.767c6.047-3.1722 10.001-1.9374 17.249-7.6331 5.3076-4.1709 6.8991-11.609 10.111-17.546 2.0213-3.7359 4.9474-3.6408 5.3531-5.1548 0 0-0.33827-4.3232-4.8091-4.3232z"/>
    <path id="path4703" fill="#729fcf" d="m78 33.844c0.02142 0.05009 0.70266 1.5942 0.625 1.9062-0.08187 0.32895-0.53432 0.05783-0.90625 0.71875-0.16108 0.28624 0.24628 0.62097-0.03125 1.0625-0.25258 0.40184-1.2732 1.1371-1.4688 1.2812 1.3864-1.0173 2.6215-1.335 2.875-2.2812 0 0-0.11107-1.4618-1.0938-2.6875z"/>
    <path id="path4535" opacity=".2" d="m78.969 35.844c-0.71478 1.1976-3.3536 1.3964-5.2188 4.8438-3.2123 5.9371-4.7861 13.36-10.094 17.531-10.111 7.1374-12.492 4.858-17.25 8.625 6.047-3.1722 10.002-1.9293 17.25-7.625 5.3076-4.1709 6.8815-11.594 10.094-17.531 2.0213-3.7359 4.9381-3.6423 5.3438-5.1562 0 0-0.02343-0.2822-0.125-0.6875z"/>
    <path id="path4040" fill="#222" d="m78.526 34.679c0.98428 1.1952 3.1992 1.7605 3.0586 4.2212 0 0-1.8793-1.2149-4.9727-0.44152 0 0 0.18802-0.06565 0.45138-0.20696s0.60206-0.3583 0.9034-0.66096c0.30135-0.30266-0.48176-1.3392 0.67931-1.5241 0.4911-0.0782-0.0705-0.80189-0.11999-1.3876z"/>
    <g id="g4094">
     <path id="path4042" fill="url(#linearGradient23355)" d="m43.168 60.566c-3.7757 3.1278-7.2363 5.5845-10.405 8.507-0.5706 0.52621-0.47978 2.7522 1.1249 2.0389 4.3992-1.9556 6.1507-5.3845 9.9834-9.9131 0.55838-0.65978-0.46026-0.83388-0.70306-0.63275z"/>
     <path id="path4090" fill="url(#linearGradient23363)" d="m43.168 60.566c-3.7757 3.1278-7.2363 5.5845-10.405 8.507-0.5706 0.52621-0.47978 2.7522 1.1249 2.0389 4.3992-1.9556 6.1507-5.3845 9.9834-9.9131 0.55838-0.65978-0.46026-0.83388-0.70306-0.63275z"/>
    </g>
    <g id="g4098" transform="matrix(1.1516 0 0 1.2221 -6.2547 -12.026)">
     <path id="path4100" fill="url(#linearGradient23355)" d="m43.168 60.566c-3.7757 3.1278-7.2363 5.5845-10.405 8.507-0.5706 0.52621-0.47978 2.7522 1.1249 2.0389 4.3992-1.9556 6.1507-5.3845 9.9834-9.9131 0.55838-0.65978-0.46026-0.83388-0.70306-0.63275z"/>
     <path id="path4102" fill="url(#linearGradient23367)" d="m43.168 60.566c-3.7757 3.1278-7.2363 5.5845-10.405 8.507-0.5706 0.52621-0.47978 2.7522 1.1249 2.0389 4.3992-1.9556 6.1507-5.3845 9.9834-9.9131 0.55838-0.65978-0.46026-0.83388-0.70306-0.63275z"/>
    </g>
    <g id="g4108" transform="matrix(.85173 .16786 -.29695 1.5123 25.08 -35.598)">
     <path id="path4110" fill="url(#linearGradient23355)" d="m43.168 60.566c-3.7757 3.1278-7.2363 5.5845-10.405 8.507-0.5706 0.52621-0.47978 2.7522 1.1249 2.0389 4.3992-1.9556 6.1507-5.3845 9.9834-9.9131 0.55838-0.65978-0.46026-0.83388-0.70306-0.63275z"/>
     <path id="path4112" fill="url(#linearGradient23371)" d="m43.168 60.566c-3.7757 3.1278-7.2363 5.5845-10.405 8.507-0.5706 0.52621-0.47978 2.7522 1.1249 2.0389 4.3992-1.9556 6.1507-5.3845 9.9834-9.9131 0.55838-0.65978-0.46026-0.83388-0.70306-0.63275z"/>
    </g>
    <g id="g4118" transform="matrix(.73377 .14309 -.29172 1.5133 30.369 -33.577)">
     <path id="path4120" fill="url(#linearGradient23355)" d="m43.168 60.566c-3.7757 3.1278-7.2363 5.5845-10.405 8.507-0.5706 0.52621-0.47978 2.7522 1.1249 2.0389 4.3992-1.9556 6.1507-5.3845 9.9834-9.9131 0.55838-0.65978-0.46026-0.83388-0.70306-0.63275z"/>
     <path id="path4122" fill="url(#linearGradient23357)" d="m43.168 60.566c-3.7757 3.1278-7.2363 5.5845-10.405 8.507-0.5706 0.52621-0.47978 2.7522 1.1249 2.0389 4.3992-1.9556 6.1507-5.3845 9.9834-9.9131 0.55838-0.65978-0.46026-0.83388-0.70306-0.63275z"/>
    </g>
    <g id="g4130" transform="matrix(.73882 .11420 -.23213 1.5236 28.671 -34.27)">
     <path id="path4132" fill="url(#linearGradient23355)" d="m43.168 60.566c-3.7757 3.1278-7.2363 5.5845-10.405 8.507-0.5706 0.52621-0.47978 2.7522 1.1249 2.0389 4.3992-1.9556 6.1507-5.3845 9.9834-9.9131 0.55838-0.65978-0.46026-0.83388-0.70306-0.63275z"/>
     <path id="path4134" fill="url(#linearGradient23357)" d="m35.928 63.806c-3.7757 3.1278 0.0033 2.3448-3.1657 5.2673-0.5706 0.52621-0.47978 2.7522 1.1249 2.0389 4.3992-1.9556 6.1507-5.3845 9.9834-9.9131 0.55838-0.65978-7.6998 2.4058-7.9426 2.6069z"/>
    </g>
    <path id="path4170" style="color:#000000" d="m75.086 52.375a13.604 5.3081 0 1 1 -27.208 0 13.604 5.3081 0 1 1 27.208 0z" transform="matrix(.87062 -.77390 .79969 .83942 -35.904 54.299)" fill="url(#radialGradient23381)"/>
    <path id="path4188" style="color:#000000" d="m75.086 52.375a13.604 5.3081 0 1 1 -27.208 0 13.604 5.3081 0 1 1 27.208 0z" transform="matrix(.41850 -.32158 .38441 .34881 24.199 39.826)" fill="url(#radialGradient23381)"/>
    <path id="path6450" d="m73.439 33.666s2.7637-1.2143 3.5546 1.7374c-2.7992 0.75005-0.70318-2.5015-3.5546-1.7374z" fill-rule="evenodd" fill="#729fcf"/>
    <g id="g9129" transform="matrix(.094776 .025395 -.025395 .094776 61.818 13.791)">
     <path id="path7337" d="m193.5 170.56a8.3117 8.3117 0 1 1 -16.623 0 8.3117 8.3117 0 1 1 16.623 0z" transform="matrix(1.396 0 0 1.396 -71.556 -66.826)"/>
     <path id="path8224" d="m193.5 170.56a8.3117 8.3117 0 1 1 -16.623 0 8.3117 8.3117 0 1 1 16.623 0z" transform="matrix(.55042 0 0 .25629 85.038 134.22)" fill="url(#linearGradient23385)"/>
     <path id="path9119" d="m193.5 170.56a8.3117 8.3117 0 1 1 -16.623 0 8.3117 8.3117 0 1 1 16.623 0z" transform="matrix(.86905 0 0 .48914 26.032 83.33)" fill="url(#radialGradient23387)"/>
    </g>
    <path id="path4394" opacity=".8" d="m58 42.688c-0.67369 0.48594-1.3437 0.99444-2 1.5l-0.1875 0.25 7.9375 2-5.75-3.75z" fill="url(#linearGradient23389)"/>
    <path id="path4684" fill="url(#linearGradient23391)" d="m78.531 34.688c0.04949 0.58576 0.6161 1.2968 0.125 1.375-0.65658 0.10455-0.72667 0.48122-0.6875 0.84375 1.7988 0.22232 3.2228 0.98138 3.5938 1.9688 0.01038 0.0087 0.02109 0.02232 0.03125 0.03125 0.14061-2.4607-2.0782-3.0236-3.0625-4.2188z"/>
    <path id="path4701" opacity=".5" d="m81.595 38.891c-0.37846-1.7157-3.608-2.2834-3.608-2.2834l0.06308 0.64338s1.8166-0.000001 3.5449 1.64z"/>
   </g>
   <g id="g4345" transform="translate(165.3 1024)">
    <path id="path4343" fill="url(#radialGradient23393)" d="m44.906 52.68c1.9826 2.8748 2.9987-2.6022 6.9392-0.42131 2.3982 1.3273 5.0557 3.0978 5.0557 3.0978l2.478-7.236-10.904-5.254s-2.4783 4.0644-3.5687 9.814z"/>
    <path id="path4339" fill="url(#linearGradient23395)" d="m47.055 43.052s-3.0085 7.3379-3.5934 9.1606c-0.6602 2.0575 0.73264 2.1837 2.1055 0.26176 1.8239-2.5535 2.1447-9.5501 2.1447-9.5501l-0.65673 0.12781z"/>
    <path id="path4335" fill="url(#linearGradient23397)" d="m47.091 39.335s-4.6777 9.2541-5.7039 11.649c-1.1583 2.7037-0.03166 3.7213 1.6822 1.6449 2.277-2.7586 4.6081-13.096 4.6081-13.096l-0.58649-0.19788z"/>
    <path id="path4331" fill="url(#linearGradient23399)" d="m45.606 39.792s-5.6928 8.6667-6.9828 10.931c-1.4562 2.5556-0.45166 3.6939 1.4858 1.8243 2.574-2.4839 6.0574-12.492 6.0574-12.492l-0.56039-0.26284z"/>
    <path id="path4327" fill="url(#linearGradient23401)" d="m44.836 38.206s-7.4743 9.3575-9.1681 11.802c-1.912 2.7593-0.593 3.9883 1.9507 1.9697 3.3795-2.6819 7.9531-13.488 7.9531-13.488l-0.73577-0.28379z"/>
    <path id="path4323" fill="url(#linearGradient23403)" d="m43.311 37.554s-8.7076 9.7753-11.094 11.976c-1.4476 1.3335 0.58576 3.5756 1.9678 2.3077 3.4831-3.1954 9.9091-13.911 9.9091-13.911l-0.78245-0.37286z"/>
    <path id="path4319" fill="url(#linearGradient23405)" d="m42.421 37.201s-9.8084 8.6937-12.527 10.468c-2.2002 1.436 0.02727 3.4228 1.6584 2.5392 4.1561-2.2514 11.597-12.538 11.597-12.538l-0.72869-0.46931z"/>
    <path id="path4315" fill="url(#linearGradient23407)" d="m43.595 36.825s-12.702 6.9558-15.928 8.667c-1.9161 1.0163 0.37636 3.1695 1.6049 2.5961 4.82-2.249 15.111-10.739 15.111-10.739l-0.78814-0.52422z"/>
    <path id="path4311" fill="url(#linearGradient23409)" d="m42.611 35.979s-13.333 5.6806-16.806 6.8089c-2.1061 0.68327-0.70784 3.4087 1.3008 2.761 5.0624-1.6322 16.229-8.9599 16.229-8.9599l-0.724-0.61z"/>
    <path id="path4307" fill="url(#linearGradient23411)" d="m41.714 36.998s-14.175 3.0196-17.8 3.4613c-2.198 0.26691-1.3481 3.2098 0.74746 2.9592 5.2814-0.63162 17.646-5.683 17.646-5.683l-0.59341-0.73746z"/>
    <path id="path4303" fill="url(#linearGradient23413)" d="m40.607 36.667s-14.462 0.94845-18.113 0.86386c-2.2135-0.05216-1.7959 2.9824 0.31385 3.0359 5.3173 0.13494 18.28-3.0846 18.28-3.0846l-0.481-0.815z"/>
    <path id="path4299" fill="url(#linearGradient23415)" d="m43.681 36.483s-18.755-1.3754-23.004-2.3522c-2.7177-0.62478-2.4983 1.9825-0.29154 3.0436 5.7963 2.787 23.717 0.19596 23.717 0.19596l-0.42145-0.88739z"/>
    <path id="path4295" fill="url(#linearGradient23417)" d="m42.312 37.29s-18.595-5.5107-22.651-7.4861c-2.5941-1.2635-2.9888 1.6325-1.0132 3.2636 5.1889 4.2841 23.88 5.2823 23.88 5.2823l-0.21551-1.0597z"/>
    <path id="path4291" fill="url(#linearGradient23419)" d="m40.156 36.197s-17.659-8.0194-21.404-10.535c-2.3953-1.6087-3.1851 1.2053-1.453 3.0929 4.5494 4.958 22.925 8.521 22.925 8.521l-0.06749-1.0793z"/>
    <path id="path4287" fill="url(#linearGradient23421)" d="m40.442 35.961s-17.965-11.548-21.649-14.912c-2.3564-2.1519-3.6497 0.89708-2.0575 3.2671 4.1818 6.225 23.614 12.868 23.614 12.868l0.09322-1.2226z"/>
    <path id="path4257" fill="url(#linearGradient23423)" d="m38.859 33.746s-17.056-13.678-18.835-18.339c-1.0961-2.8726-3.542 0.18753-2.5774 2.8748 2.876 8.012 21.115 16.654 21.115 16.654l0.29739-1.1896z"/>
    <path id="path4255" fill="url(#linearGradient23425)" d="m39.454 33.349c-10.607-7.038-15.167-18.636-15.167-18.636-0.89218-1.3878-4.56-2.5774-3.1722 0.69392 0 0 0.19826 6.047 17.447 18.637l0.89218-0.69392z"/>
    <path id="path4253" fill="url(#linearGradient23427)" d="m62.452 46.236c-11.003-3.568-17.447-10.111-17.447-10.111-5.848-2.974-13.184-8.624-13.184-8.624l6.1461 5.6505-5.9479-3.1722 4.3618 3.3704-4.4609-1.0904 4.6592 2.3791s-4.4609 0.09913-4.0644 0c0.39652-0.09913 4.0644 1.0904 4.0644 1.0904l-3.0731 0.69392 3.2713 0.19826-2.28 1.1896 2.6765-0.29739-2.7757 1.7844 3.2713-0.89218-2.7757 2.6765 3.5687-1.487-2.5774 2.9739 3.8661-2.3791-2.0817 2.1809 3.3705-1.7844-2.0817 2.6765 2.7757-1.5861-1.9826 2.4783 2.6765-1.6852-1.5861 2.4783 2.9739-2.3791-2.0817 3.3704 2.4783-1.9826-1.2887 2.28 2.4783-1.7844-1.5861 2.5774 2.3791-1.6852-1.1896 2.28 2.3791-1.7844-0.89218 2.0817 2.28-1.8835-0.89218 2.3791 1.8835-1.487-0.59478 1.3878 1.9826-1.1896-0.89218 1.487 1.9826-1.0904-0.29739 0.89218 1.3878-0.89218s1.8249-1.0231 4.56 1.3878c1.7653 1.556 5.4607 0.96879 4.56-2.6765z"/>
    <path id="path4381" fill="url(#linearGradient23429)" d="m37.781 31.75 1.969 6.75 11.411 7.345 8.558-0.595c-9.327-3.665-14.719-9.125-14.719-9.125-2.365-1.203-4.951-2.848-7.219-4.375z"/>
   </g>
  </g>
 </g>
</svg>
