<?xml version="1.0" encoding="UTF-8" standalone="no"?>
<!-- Created with Inkscape (http://www.inkscape.org/) -->
<svg id="svg2" xmlns:rdf="http://www.w3.org/1999/02/22-rdf-syntax-ns#" xmlns="http://www.w3.org/2000/svg" height="96" width="96" version="1.1" xmlns:cc="http://creativecommons.org/ns#" xmlns:xlink="http://www.w3.org/1999/xlink" xmlns:dc="http://purl.org/dc/elements/1.1/">
 <defs id="defs4">
  <linearGradient id="linearGradient3700-09">
   <stop id="stop3702-67" stop-color="#70a83e" offset="0"/>
   <stop id="stop3704-18" stop-color="#9fd058" offset="1"/>
  </linearGradient>
  <linearGradient id="linearGradient9745" y2="5.9877" xlink:href="#linearGradient3700-09" gradientUnits="userSpaceOnUse" x2="48" gradientTransform="translate(-169.06 968.2)" y1="90" x1="48"/>
  <linearGradient id="linearGradient3613-43" y2="138.66" gradientUnits="userSpaceOnUse" x2="48" y1="20.221" x1="48">
   <stop id="stop3739-48" stop-color="#fff" offset="0"/>
   <stop id="stop3741-76" stop-color="#fff" stop-opacity="0" offset="1"/>
  </linearGradient>
  <clipPath id="clipPath3613-58">
   <rect id="rect3615-983" rx="6" ry="6" height="84" width="84" y="6" x="6" fill="#fff"/>
  </clipPath>
  <filter id="filter3794-475" height="1.384" width="1.384" color-interpolation-filters="sRGB" y="-.192" x="-.192">
   <feGaussianBlur id="feGaussianBlur3796-28" stdDeviation="5.28"/>
  </filter>
  <linearGradient id="linearGradient3657-2">
   <stop id="stop3659-2" stop-color="#fff" offset="0"/>
   <stop id="stop3661-8" stop-color="#fff" stop-opacity="0" offset="1"/>
  </linearGradient>
  <linearGradient id="linearGradient5537-3">
   <stop id="stop5539-8" stop-color="#73a0d0" offset="0"/>
   <stop id="stop5541-6" stop-color="#fff" offset="1"/>
  </linearGradient>
  <linearGradient id="linearGradient10381-9">
   <stop id="stop10383-1" stop-color="#3465a4" offset="0"/>
   <stop id="stop10385-7" stop-color="#3465a4" stop-opacity="0" offset="1"/>
  </linearGradient>
  <linearGradient id="linearGradient28074" y2="47" gradientUnits="userSpaceOnUse" x2="53" gradientTransform="translate(-1.0552 960.36)" y1="79" x1="53">
   <stop id="stop5185" stop-color="#fff" offset="0"/>
   <stop id="stop5187" stop-color="#fff" stop-opacity="0" offset="1"/>
  </linearGradient>
  <radialGradient id="radialGradient28090" gradientUnits="userSpaceOnUse" cy="222.16" cx="244.72" gradientTransform="matrix(0 -.17870 .17870 0 7.3822 1052.2)" r="183.91">
   <stop id="stop6350" stop-color="#fff" stop-opacity=".44186" offset="0"/>
   <stop id="stop6356" stop-color="#13059a" stop-opacity="0" offset="0.8"/>
   <stop id="stop6352" stop-color="#16104b" offset="1"/>
  </radialGradient>
  <radialGradient id="radialGradient28093" gradientUnits="userSpaceOnUse" cy="222.16" cx="110.93" gradientTransform="matrix(0 -.21750 .17870 0 7.3822 1056.5)" r="183.91">
   <stop id="stop5175" stop-color="#7469ea" offset="0"/>
   <stop id="stop5177" stop-color="#20157e" offset="1"/>
  </radialGradient>
  <radialGradient id="radialGradient28106" xlink:href="#linearGradient5537-3" gradientUnits="userSpaceOnUse" cy="126.36" cx="211.68" gradientTransform="matrix(.28610 -.0073604 .0090985 .35366 6.2263 925.09)" r="14.333"/>
  <radialGradient id="radialGradient28110" xlink:href="#linearGradient5537-3" gradientUnits="userSpaceOnUse" cy="137.96" cx="231.54" gradientTransform="matrix(.11938 .15710 -.28668 .21785 83.431 904.5)" r="22.608"/>
  <radialGradient id="radialGradient28113" gradientUnits="userSpaceOnUse" cy="231.32" cx="221.52" gradientTransform="matrix(.19059 .051069 -.033529 .12513 30.127 948.5)" r="13.714">
   <stop id="stop7359" stop-color="#fff" offset="0"/>
   <stop id="stop7361" stop-color="#fff" stop-opacity="0" offset="1"/>
  </radialGradient>
  <radialGradient id="radialGradient28117" xlink:href="#linearGradient5537-3" gradientUnits="userSpaceOnUse" cy="186.6" cx="221.8" gradientTransform="matrix(-.038184 .14250 -.17468 -.046805 107.45 959.4)" r="66.984"/>
  <radialGradient id="radialGradient28133" xlink:href="#linearGradient5537-3" gradientUnits="userSpaceOnUse" cy="141.67" cx="167.69" gradientTransform="matrix(-.19080 -.11016 -.15521 .18893 134.61 966.17)" r="21.773"/>
  <radialGradient id="radialGradient28136" xlink:href="#linearGradient5537-3" gradientUnits="userSpaceOnUse" cy="141.67" cx="167.69" gradientTransform="matrix(.22031 -7.0696e-8 .039952 .24123 16.343 934.48)" r="21.773"/>
  <linearGradient id="linearGradient28139" y2="36.701" xlink:href="#linearGradient10381-9" gradientUnits="userSpaceOnUse" x2="183.82" gradientTransform="matrix(.15625 0 0 .15625 7.0789 968.04)" y1="306.92" x1="339.83"/>
  <radialGradient id="radialGradient28144" xlink:href="#linearGradient5537-3" gradientUnits="userSpaceOnUse" cy="89.625" cx="262.1" gradientTransform="matrix(.15625 0 0 .070334 7.0789 976.76)" r="142.27"/>
  <radialGradient id="radialGradient28157" gradientUnits="userSpaceOnUse" cy="388.71" cx="235.33" gradientTransform="matrix(.21620 0 0 .19023 -9.189 955.87)" r="126.07">
   <stop id="stop3787-5" stop-color="#fff" offset="0"/>
   <stop id="stop3789-3" stop-color="#fff" stop-opacity="0" offset="1"/>
  </radialGradient>
  <radialGradient id="radialGradient28160" xlink:href="#linearGradient10381-9" gradientUnits="userSpaceOnUse" cy="205.85" cx="129.83" gradientTransform="matrix(.076370 .062814 -.10476 .12737 39.029 978.61)" r="169.41"/>
  <linearGradient id="linearGradient28163" y2="71.4" gradientUnits="userSpaceOnUse" x2="55.693" gradientTransform="matrix(1.4259 0 0 .70133 -1.0552 960.36)" y1="71.4" x1="18.675">
   <stop id="stop3369-1" stop-color="#fff" offset="0"/>
   <stop id="stop3371-4" stop-color="#fff" stop-opacity=".84536" offset="0.35"/>
   <stop id="stop3373" stop-color="#fff" stop-opacity="0" offset="1"/>
  </linearGradient>
  <radialGradient id="radialGradient28166" gradientUnits="userSpaceOnUse" cy="188.13" cx="142.7" gradientTransform="matrix(.26790 0 0 .17169 13.818 994.26)" r="76.514">
   <stop id="stop2764" stop-opacity=".70588" offset="0"/>
   <stop id="stop4540-9" stop-opacity=".35294" offset="0.4"/>
   <stop id="stop2766" stop-opacity="0" offset="1"/>
  </radialGradient>
  <linearGradient id="linearGradient28179" y2="5.9877" gradientUnits="userSpaceOnUse" x2="48" gradientTransform="matrix(1.0855 0 0 1.0855 -3.2254 -5.3564)" y1="90" x1="48">
   <stop id="stop3702-7" stop-color="#5449c0" offset="0"/>
   <stop id="stop3704-603" stop-color="#827aca" offset="1"/>
  </linearGradient>
  <linearGradient id="linearGradient28182" y2="162.24" xlink:href="#linearGradient3657-2" gradientUnits="userSpaceOnUse" x2="185.18" y1="178.87" x1="185.18"/>
  <radialGradient id="radialGradient28184" xlink:href="#linearGradient3657-2" gradientUnits="userSpaceOnUse" cy="162.24" cx="185.18" gradientTransform="matrix(1.7659 0 0 3.0048 -141.84 -325.26)" r="8.3117"/>
  <linearGradient id="linearGradient28190" y2="240.92" xlink:href="#linearGradient3657-2" gradientUnits="userSpaceOnUse" x2="420" gradientTransform="matrix(.54348 -.94133 .94133 .54348 -156.67 314.83)" y1="240.92" x1="98"/>
  <linearGradient id="linearGradient28192" y2="240.92" xlink:href="#linearGradient3657-2" gradientUnits="userSpaceOnUse" x2="420" gradientTransform="matrix(-.94133 .54348 .54348 .94133 334.23 -173.07)" y1="240.92" x1="98"/>
  <linearGradient id="linearGradient28194" y2="240.92" xlink:href="#linearGradient3657-2" gradientUnits="userSpaceOnUse" x2="420" gradientTransform="matrix(.94133 -.54348 -.54348 -.94133 150.77 625.27)" y1="240.92" x1="98"/>
  <linearGradient id="linearGradient28196" y2="240.92" xlink:href="#linearGradient3657-2" gradientUnits="userSpaceOnUse" x2="420" gradientTransform="matrix(-.54348 .94133 -.94133 -.54348 641.67 131.38)" y1="240.92" x1="98"/>
  <radialGradient id="radialGradient28198" xlink:href="#linearGradient3657-2" gradientUnits="userSpaceOnUse" cy="226.88" cx="246.35" gradientTransform="matrix(1 -.57734 .12401 .21480 -28.136 320.38)" r="154.36"/>
  <radialGradient id="radialGradient28200" xlink:href="#linearGradient3657-2" gradientUnits="userSpaceOnUse" cy="226.88" cx="246.35" gradientTransform="matrix(-.57734 -1 .21480 -.12401 339.85 501.37)" r="154.36"/>
  <radialGradient id="radialGradient28202" gradientUnits="userSpaceOnUse" cy="80" cx="48" gradientTransform="matrix(1.3333 0 0 .33333 -17.055 1013.7)" r="24">
   <stop id="stop5159" offset="0"/>
   <stop id="stop5161" stop-opacity="0" offset="1"/>
  </radialGradient>
 </defs>
 <metadata id="metadata7">
  <rdf:RDF>
   <cc:Work rdf:about="">
    <dc:format>image/svg+xml</dc:format>
    <dc:type rdf:resource="http://purl.org/dc/dcmitype/StillImage"/>
    <dc:title/>
   </cc:Work>
  </rdf:RDF>
 </metadata>
 <g id="layer1" transform="translate(0 -956.36)">
  <rect id="rect5263-0" fill-opacity=".019608" ry="12.724" height="89.978" width="89.624" y="959.35" x="3.3534"/>
  <rect id="rect5261-6" fill-opacity=".039216" ry="12.552" height="88.762" width="88.413" y="959.96" x="3.9589"/>
  <rect id="rect5259-9" fill-opacity=".078431" ry="12.38" height="87.546" width="87.202" y="960.57" x="4.5645"/>
  <rect id="rect5257-5" fill-opacity=".15686" ry="12.208" height="86.33" width="85.991" y="961.18" x="5.1701"/>
  <path id="rect2419" d="m17.75 5.4062c-6.642 0-11.969 5.3948-11.969 12.063l0.0002 61.031c0 6.668 5.3268 12.031 11.969 12.031h60.812c6.642 0 11.969-5.363 11.969-12.031v-61.031c0-6.668-5.327-12.063-11.969-12.063l-60.812 0.0002z" transform="translate(0 956.36)" fill="url(#linearGradient28179)"/>
  <path id="rect5265-0" d="m5.7756 1029.8v5.0663c0 6.668 5.3434 12.032 11.985 12.032h60.809c6.6418 0 11.985-5.3645 11.985-12.032v-5.0663c0 6.6681-5.3434 12.032-11.985 12.032h-60.809c-6.6418 0-11.985-5.3643-11.985-12.032z" fill-opacity="0.17"/>
  <path id="path5252-0" d="m5.7756 1033.9v1.0133c0 6.668 5.3434 12.032 11.985 12.032h60.809c6.6418 0 11.985-5.3645 11.985-12.032v-1.0133c0 6.6681-5.3434 12.032-11.985 12.032h-60.809c-6.6418 0-11.985-5.3644-11.985-12.032z" fill-opacity=".098039"/>
  <rect id="rect4772" display="none" height="107.79" width="107.79" y="971.68" x="-369.64" fill="none"/>
  <g id="g4788" display="none" transform="matrix(.21052 0 0 .21052 -369.68 971.63)"></g>
  <g id="g4806" display="none" transform="matrix(.21052 0 0 .21052 -369.68 971.63)">
   <g id="g4808" display="inline">
    <path id="path4810" d="m349.1 256.65c-0.265-0.254 37.637 27.605 39.421 25.012 6.362-9.252 82.046-93.137 84.784-116.24 0.242-2.003-0.516-4.096-0.516-4.096s-1.19-0.144-6.325-4.314c-2.692-2.192-5.483-4.581-5.483-4.581-16.054 0.998-57.885 41.559-111.06 103.57" fill="#050505" display="none"/>
   </g>
  </g>
  <g id="g4796" transform="matrix(.21052 0 0 .21052 -369.68 971.63)"></g>
  <rect id="rect3873" rx="6" ry="6" height="84" width="84" display="none" y="974.2" x="-163.06" fill="url(#linearGradient9745)"/>
  <rect id="rect3880" rx="6" ry="6" height="84" width="84" display="none" y="974.2" x="-163.06" fill="url(#linearGradient9745)"/>
  <g id="layer5" transform="translate(-1.0552 960.36)">
   <rect id="rect3171" height="66" stroke="#fff" stroke-linecap="round" stroke-width=".5" fill="url(#linearGradient3613-43)" rx="12" ry="12" width="66" opacity=".1" clip-path="url(#clipPath3613-58)" filter="url(#filter3794-475)" y="15" x="15"/>
  </g>
  <path id="path5155" opacity=".4" style="color:#000000" d="m78.945 1040.4a32 8 0 0 1 -64 0 32 8 0 1 1 64 0z" fill="url(#radialGradient28202)"/>
  <path id="path1872" fill="url(#radialGradient28093)" d="m47.081 975.59a32.864 32.864 0 0 1 0 65.727 32.864 32.864 0 1 1 0 -65.727z"/>
  <path id="path5461" fill="url(#radialGradient28090)" d="m47.081 975.59a32.864 32.864 0 0 1 0 65.727 32.864 32.864 0 1 1 0 -65.727z"/>
  <g id="g11789" opacity=".5" fill-rule="evenodd" transform="matrix(.17870 0 0 .17870 3.3509 968.75)">
   <path id="path8152" d="m201.58 398.67s-175.99-177.97 32.579-358.78c-235.79 180.15-32.03 357.83-32.58 358.78z" fill="url(#linearGradient28190)"/>
   <path id="path9971" d="m418.06 185.19s-177.97-175.99-358.78 32.58c180.16-235.8 357.84-32.04 358.78-32.58z" fill="url(#linearGradient28192)"/>
   <path id="path9981" d="m66.938 267.02s177.97 175.99 358.78-32.58c-180.16 235.8-357.84 32.04-358.78 32.58z" fill="url(#linearGradient28194)"/>
   <path id="path9983" d="m283.42 47.542s175.99 177.97-32.579 358.78c235.79-180.15 32.03-357.84 32.58-358.78z" fill="url(#linearGradient28196)"/>
   <path id="path9993" d="m92 316s170.42-72.47 308.71-178.23c-161.71 68.23-309.71 178.23-308.71 178.23z" fill="url(#radialGradient28198)"/>
   <path id="path10888" d="m335.47 381.24s-72.468-170.42-178.23-308.71c68.234 161.71 178.23 309.71 178.23 308.71z" fill="url(#radialGradient28200)"/>
  </g>
  <path id="path5191" opacity=".4" d="m15.976 1007.5c-0.0106 0.3347-0.0313 0.6628-0.0313 1 0 17.196 13.929 31.125 31.125 31.125s31.156-13.929 31.156-31.125c0-0.337-0.0206-0.6655-0.0313-1-0.53177 16.73-14.266 30.125-31.125 30.125s-30.562-13.395-31.094-30.125z" fill="url(#linearGradient28074)"/>
  <path id="path5220" opacity=".05" d="m29.226 1009.4c-0.0351 0.01-0.12777 0.032-0.125 0.031 0.003-0.0007-0.12838 0.032-0.125 0.031 0.003-0.0008-0.12831 0.032-0.125 0.031 0.003 0-0.15947 0.064-0.15625 0.063 0.003 0-0.12812 0.064-0.125 0.063 0.003 0-0.128 0.064-0.125 0.063 0.003 0-0.12787 0.065-0.125 0.063 0.003 0-0.0965 0.096-0.0937 0.094 0.003 0-0.12757 0.096-0.125 0.094 0.003 0-0.0962 0.096-0.0937 0.094 0.002 0-0.096 0.1277-0.0937 0.125h-0.0937c0.003 0.0001-0.0964 0.0001-0.0937 0 0.003 0-0.12767 0.0003-0.125 0 0.003-0.0002-0.0964 0.032-0.0937 0.031 0.003-0.0004-0.0964 0.0005-0.0937 0 0.003-0.0005-0.1276 0.032-0.125 0.031 0.003-0.0006-0.0963 0.032-0.0937 0.031-0.0106-0.0007-0.0319 0-0.0313 0 0.003 0.0001-0.0965 0-0.0937 0 0.003 0-0.12774 0.0002-0.125 0 0.003-0.0002-0.0965 0.032-0.0937 0.031 0.003-0.0003-0.1277 0.0005-0.125 0 0.003-0.0004-0.0964 0.032-0.0937 0.031 0.003-0.0006-0.12764 0.032-0.125 0.031 0.003-0.0007-0.0963 0.032-0.0937 0.031 0.003-0.0009-0.12753 0.032-0.125 0.031 0.002-0.001-0.0962 0.064-0.0937 0.063-0.0305 0-0.064 0.0002-0.0625 0 0.001-0.0001-0.008 0.028-0.0313 0.031-0.0348 0.01-0.0642 0.0003-0.0625 0 0.003-0.0005-0.12785 0.032-0.125 0.031 0.003-0.0007-0.1278 0.032-0.125 0.031 0.003-0.0009-0.0965 0.032-0.0937 0.031 0.003-0.001-0.12768 0.033-0.125 0.031 0.003 0-0.0964 0.064-0.0937 0.063 0.003 0-0.12753 0.064-0.125 0.063 0.002 0-0.0962 0.064-0.0937 0.063 0.002 0-0.0961 0.064-0.0937 0.063 0.002 0-0.096 0.096-0.0937 0.094 0.002 0-0.0959 0.065-0.0937 0.063 0.002 0-0.0957 0.096-0.0937 0.094 0.002 0-0.0644 0.096-0.0625 0.094 0.002 0-0.0642 0.096-0.0625 0.094 0.002 0-0.0953 0.096-0.0937 0.094 0.002 0-0.0327 0.096-0.0313 0.094 0.001 0-0.0638 0.1276-0.0625 0.125 0.001 0-0.0636 0.096-0.0625 0.094 0.001 0-0.0322 0.1278-0.0313 0.125 0.00096 0-0.032 0.097-0.0313 0.094 0.0008 0-0.0319 0.1279-0.0313 0.125 0.0003 0 0.005 0.034 0 0.063h-0.0313c-0.0227 0.024-0.064 0.064-0.0625 0.063 0.002 0-0.0643 0.096-0.0625 0.094 0.002 0-0.0642 0.1275-0.0625 0.125 0.002 0-0.064 0.096-0.0625 0.094 0.001 0-0.0639 0.096-0.0625 0.094 0.001 0-0.0637 0.1278-0.0625 0.125 0.001 0-0.0323 0.097-0.0313 0.094 0.001 0-0.0634 0.1279-0.0625 0.125 0.002 0-0.0956 0.1281-0.0937 0.125 0.002 0-0.0641 0.1282-0.0625 0.125 0.002 0-0.0639 0.1283-0.0625 0.125 0.001 0-0.0636 0.1597-0.0625 0.1562 0.001 0-0.0321 0.1286-0.0313 0.125 0.00088 0-0.0319 0.1599-0.0313 0.1563 0.00062 0-0.00037 0.1598 0 0.1562 0.00037 0-0.0314 0.1287-0.0313 0.125 0.00011 0 0.00015 0.1599 0 0.1563-0.00015 0 0.0317 0.1598 0.0313 0.1563-0.00041 0 0.00067 0.1285 0 0.125-0.00067 0 0.0322 0.1597 0.0313 0.1562-0.00092 0 0.0637 0.1284 0.0625 0.125a1.0999 1.0999 0 0 0 0 0.063l0.0625 0.125c-0.01 0.035-0.0632 0.096-0.0625 0.094 0.00081 0-0.0318 0.1597-0.0313 0.1562 0.00057 0-0.00033 0.1285 0 0.125 0.00033 0-0.00008 0.1598 0 0.1563 0.00008 0 0.00016 0.1285 0 0.125-0.00016 0 0.0004 0.1597 0 0.1562-0.00041 0 0.0319 0.1284 0.0313 0.125-0.00065 0 0.0321 0.1596 0.0313 0.1563-0.00089 0 0.0324 0.1283 0.0313 0.125-0.00027-0.0009 0.0268 0.019 0.0313 0.031 0.006 0.017-0.009 0.04 0 0.063-0.004 0.03-0.00014 0.064 0 0.063 0.00029 0-0.00012 0.1279 0 0.125 0.00012 0 0.00005 0.1279 0 0.125-0.00005 0 0.00021 0.097 0 0.094-0.00021 0 0.00038 0.1278 0 0.125-0.00038 0 0.0318 0.1278 0.0313 0.125-0.00055 0 0.032 0.1278 0.0313 0.125-0.00028 0 0.0249 0.01 0.0313 0.031 0.01 0.034 0.00052 0.064 0 0.063-0.004 0.06-0.0313 0.1283-0.0313 0.125 0.00005 0 0.0317 0.2236 0.0313 0.2188-0.00043 0 0.0322 0.1923 0.0313 0.1875-0.0009 0 0.0326 0.1922 0.0313 0.1875-0.001 0 0.0643 0.192 0.0625 0.1875-0.002 0 0.096 0.1918 0.0937 0.1875 0 0 3.8309 7.4385 10.656 11.875 6.1574 4.0023 15.907 10.922 30.562 9.0625 7.722-0.9797 11.766-6.0417 13.531-10.625 1.7594-4.5685 1.5625-8.8438 1.5625-8.8438a1.0999 1.0999 0 0 0 0 -0.031c0.0002 0-0.00055-0.1605 0-0.1563 0.00055 0-0.0322-0.1916-0.0313-0.1875 0.0009 0-0.0637-0.1603-0.0625-0.1562 0.001 0-0.0641-0.1602-0.0625-0.1563 0.002 0-0.0644-0.16-0.0625-0.1562 0.002 0-0.0647-0.1599-0.0625-0.1563 0.002 0-0.0962-0.1284-0.0937-0.125 0.002 0-0.12775-0.1594-0.125-0.1562 0.003 0-0.12801-0.128-0.125-0.125 0.003 0-0.12824-0.096-0.125-0.094 0.003 0-0.12845-0.096-0.125-0.094 0.004 0-0.15989-0.096-0.15625-0.094 0.004 0-0.16005-0.096-0.15625-0.094 0.004 0-0.16019-0.064-0.15625-0.063 0.004 0-0.16029-0.064-0.15625-0.063 0.004 0-0.16037-0.032-0.15625-0.031 0.004 0.0008-0.19168-0.032-0.1875-0.031 0.004 0.0004-0.16045-0.0001-0.15625 0 0.004 0-0.16044 0.0002-0.15625 0 0.004-0.0003-0.19165 0.032-0.1875 0.031 0.004-0.0006-0.16034 0.032-0.15625 0.031 0.004-0.001-0.19149 0.033-0.1875 0.031 0.004 0-0.16012 0.064-0.15625 0.063 0.004 0-0.15997 0.064-0.15625 0.063 0.004 0-0.12855 0.096-0.125 0.094 0.004 0-0.1596 0.096-0.15625 0.094 0.003 0-0.12813 0.1278-0.125 0.125 0.003 0-0.12788 0.097-0.125 0.094 0.003 0-0.12762 0.1595-0.125 0.1562 0.003 0-0.0961 0.1285-0.0937 0.125 0.002 0-0.0958 0.1599-0.0937 0.1563 0.002 0-0.0642 0.16-0.0625 0.1562-2.3144 5.2326-4.4434 7.8741-6.375 8.75-1.9502 0.8843-4.4368 0.5014-8.625-1.5625-5.4761-2.6985-12.25-6.4215-17.625-9.4687-2.6826-1.5208-5.0097-2.867-6.6875-3.8438-1.6618-0.9676-2.5938-1.5625-2.5938-1.5625a1.0999 1.0999 0 0 0 -0.0313 0c0.003 0-0.12801-0.064-0.125-0.063 0.003 0-0.1281-0.064-0.125-0.063 0.003 0-0.12818-0.064-0.125-0.063 0.003 0-0.12825-0.032-0.125-0.031 0.003 0.0009-0.1283-0.032-0.125-0.031 0.003 0.0007-0.15959-0.032-0.15625-0.031 0.003 0.0005-0.12836-0.0002-0.125 0 0.003 0.0003-0.12837 0-0.125 0 0.003 0-0.15961 0.0003-0.15625 0h-0.0313l-0.125-0.125a1.0999 1.0999 0 0 0 -0.0313 -0.031c0.004 0-0.1603-0.1278-0.15625-0.125 0.004 0-0.1918-0.096-0.1875-0.094 0.004 0-0.19201-0.096-0.1875-0.094 0.004 0-0.19218-0.064-0.1875-0.063 0.005 0-0.1923-0.063-0.1875-0.063 0.002 0.0003-0.034 0-0.0625 0h-0.0313c-0.0305-0.018-0.1602-0.1271-0.15625-0.125 0.004 0-0.19218-0.064-0.1875-0.063 0.005 0-0.19235-0.064-0.1875-0.063 0.002 0.0005-0.03-0.023-0.0625-0.031 0.003 0-0.1278-0.096-0.125-0.094 0.003 0-0.0967-0.064-0.0937-0.063 0.003 0-0.12806-0.095-0.125-0.094 0.003 0-0.12816-0.064-0.125-0.063 0.003 0-0.12825-0.032-0.125-0.031 0.003 0-0.15958-0.063-0.15625-0.063 0.003 0.001-0.12839-0.032-0.125-0.031 0.003 0.0008-0.15968-0.032-0.15625-0.031 0.002 0.0003-0.0266 0-0.0625 0 0.001 0.0008-0.034 0.014-0.0625 0-0.019-0.01-0.0322-0.032-0.0313-0.031 0.002 0-0.0962-0.063-0.0937-0.063 0.002 0.001-0.0963-0.032-0.0937-0.031 0.002 0.0009-0.0963-0.032-0.0937-0.031 0.003 0.0008-0.1276-0.032-0.125-0.031 0.003 0.0006-0.0964-0.0005-0.0937 0 0.003 0.0005-0.12765-0.032-0.125-0.031 0.003 0.0004-0.0964-0.0001-0.0937 0 0.003 0.0002-0.12767 0-0.125 0 0.003 0.0001-0.0964 0.0001-0.0937 0 0.003 0-0.0964 0.0003-0.0937 0 0.002-0.0001-0.0631 0-0.0937 0-0.0102 0-0.0319 0.0001-0.0313 0z" fill-rule="evenodd"/>
  <path id="path5215" opacity=".1" d="m29.382 1010.5a0.94879 0.94879 0 0 0 -0.78125 0.625 0.94879 0.94879 0 0 0 -0.46875 0.1875 0.94879 0.94879 0 0 0 -0.0313 0 0.94879 0.94879 0 0 0 -0.78125 0.063 0.94879 0.94879 0 0 0 -0.0313 0 0.94879 0.94879 0 0 0 -0.78125 0.1875 0.94879 0.94879 0 0 0 -1.0312 1.125 0.94879 0.94879 0 0 0 -0.53125 0.6875 0.94879 0.94879 0 0 0 0 0.031 0.94879 0.94879 0 0 0 -0.25 1.0001l0.21875 0.5312a0.94879 0.94879 0 0 0 -0.0937 1l0.0937 0.2188a0.94879 0.94879 0 0 0 0.0625 0.8437 0.94879 0.94879 0 0 0 0.0625 0.7188s3.7716 7.2062 10.281 11.438c6.1982 4.0288 15.584 10.715 29.844 8.9062 7.3089-0.9272 10.958-5.6082 12.625-9.9375 1.6673-4.3293 1.5-8.4062 1.5-8.4062a0.94879 0.94879 0 0 0 -1.8125 -0.3438c-2.3557 5.3258-4.527 8.2336-6.9062 9.3125-2.3793 1.0789-5.2931 0.5568-9.5938-1.5625-5.5145-2.7175-12.272-6.4476-17.656-9.5-2.6899-1.5249-5.0422-2.8989-6.7188-3.875-1.6715-0.9732-2.625-1.5625-2.625-1.5625a0.94879 0.94879 0 0 0 -0.96875 0l-0.5625-0.5313a0.94879 0.94879 0 0 0 -0.6875 -0.2187l-0.0313-0.031a0.94879 0.94879 0 0 0 -0.6875 -0.2812 0.94879 0.94879 0 0 0 -0.90625 -0.4063 0.94879 0.94879 0 0 0 -0.75 -0.2187z" fill-rule="evenodd"/>
  <path id="path5204" opacity=".3" d="m29.507 1011.4v1.1562l-0.8125-0.5312v0.625l-0.9375-0.5 0.21875 0.5-0.84375-0.4063 0.0937 1.0313-0.8125-0.8125 0.3125 1.4375-0.84375-0.4063 0.71875 1.8751-1.0312-1.3438 0.71875 1.8438-0.625-0.4063 0.84375 1.6563-0.71875-0.625 0.8125 1.1562-0.71875-0.4062s3.735 7.0418 9.9688 11.094c6.2338 4.0519 15.265 10.516 29.188 8.75 13.922-1.7662 13.312-17.375 13.312-17.375-4.7792 10.805-8.9818 12.555-17.781 8.2188-5.5475-2.7338-12.326-6.4745-17.719-9.5313-2.6962-1.5284-5.0433-2.8995-6.7188-3.875-1.6754-0.9755-2.6562-1.5625-2.6562-1.5625l-0.125 0.75-1.5312-1.375v0.4375l-0.75-0.75-0.0937 0.625-0.71875-1.0313v0.8438l-0.75-1.0625z" fill-rule="evenodd"/>
  <path id="path15159" d="m77.421 1022.1s0.59946 14.986-12.788 16.684c-13.388 1.6984-22.08-4.4958-28.074-8.3922-5.9944-3.8964-9.5911-10.69-9.5911-10.69l0.69934 0.3996-0.79925-1.099 0.69935 0.5995-0.79926-1.5985 0.59944 0.3996-0.69935-1.7983 0.99907 1.2988-0.69934-1.7984 0.79925 0.3997-0.29972-1.3987 0.79926 0.7992-0.0999-0.9991 0.79926 0.3997-0.19982-0.4996 0.89917 0.4996v-0.5995l0.79926 0.4996v-1.099l0.69935 0.9991v-0.7993l0.69935 0.9991 0.0999-0.5995 0.69935 0.6994v-0.3996l1.4986 1.2987 0.0999-0.6993s15.407 9.1291 26.076 14.387c8.4617 4.1697 12.488 2.4976 17.084-7.8927z" fill-rule="evenodd" fill="url(#radialGradient28166)"/>
  <path id="path11276" d="m78.351 1018.7s0.62338 15.584-13.299 17.351c-13.922 1.7662-22.961-4.6753-29.195-8.7273-6.2338-4.0519-9.974-11.117-9.974-11.117l0.72726 0.4155-0.83116-1.1428 0.72727 0.6234-0.83116-1.6624 0.62337 0.4156-0.72727-1.8701 1.039 1.3506-0.72726-1.8701 0.83116 0.4156-0.31169-1.4545 0.83117 0.8311-0.10389-1.0389 0.83116 0.4155-0.20779-0.5194 0.93506 0.5194v-0.6233l0.83117 0.5194v-1.1428l0.72727 1.039v-0.8312l0.72727 1.0389 0.1039-0.6233 0.72727 0.7272v-0.4155l1.5584 1.3506 0.10389-0.7273s16.022 9.4936 27.117 14.961c8.7995 4.3363 12.987 2.5974 17.766-8.2077z" fill-rule="evenodd" fill="url(#linearGradient28163)"/>
  <path id="path13066" d="m78.351 1018.7s0.62338 15.584-13.299 17.351c-13.922 1.7662-22.961-4.6753-29.195-8.7273-6.2338-4.0519-9.974-11.117-9.974-11.117l0.72726 0.4155-0.83116-1.1428 0.72727 0.6234-0.83116-1.6624 0.62337 0.4156-0.72727-1.8701 1.039 1.3506-0.72726-1.8701 0.83116 0.4156-0.31169-1.4545 0.83117 0.8311-0.10389-1.0389 0.83116 0.4155-0.20779-0.5194 0.93506 0.5194v-0.6233l0.83117 0.5194v-1.1428l0.72727 1.039v-0.8312l0.72727 1.0389 0.1039-0.6233 0.72727 0.7272v-0.4155l1.5584 1.3506 0.10389-0.7273s16.022 9.4936 27.117 14.961c8.7995 4.3363 12.987 2.5974 17.766-8.2077z" fill-rule="evenodd" fill="url(#radialGradient28160)"/>
  <path id="path13072" d="m29.783 1018.2c0.177 1.8954 7.0027 6.6514 7.0027 6.6514s-4.8176-3.0216-5.9604-7.3731c0.71594 2.4592 6.5841 6.0043 6.5841 6.0043s-3.3785-2.1935-5.4648-7.0191c1.4951 2.0927 5.9576 5.669 5.9576 5.669s-4.7777-4.6266-4.7967-7.3351c1.99 3.9316 5.6821 5.9292 5.6821 5.9292s-2.5713-1.1123-4.6637-6.1931c2.4311 3.7117 6.5881 5.3068 6.5881 5.3068s-4.1532-2.7447-5.6914-6.0004c4.9518 3.9045 26.729 15.285 34.159 15.98-4.152 0.6797-15.87-2.8322-15.87-2.8322s9.101 3.9002 14.63 3.1967c-5.4782 0.8243-17.37-2.3467-17.37-2.3467s11.928 3.7677 16.468 3.0204c-4.6519 0.8101-19.831-2.1705-19.831-2.1705s14.746 3.2007 17.327 3.3997c-5.2538 0.6987-19.7-2.9121-19.7-2.9121s15.148 4.196 17.647 3.5447c-4.6438 1.5151-20.177-3.2481-20.177-3.2481s14.259 5.2378 15.993 4.417c-9.8201 1.9086-24.781-6.3306-28.515-15.689z" fill-rule="evenodd" fill="url(#radialGradient28157)"/>
  <path id="path5241" opacity=".1" d="m25.882 1012.5 0.0625 0.1563 0.34375 0.2187-0.0937-0.2187-0.3125-0.1563zm-0.3125 0.5313 0.53125 1.3438 0.5 0.2812-0.8125-1.1563 0.4375 0.375-0.65625-0.8437zm0.0937 1.4375 0.84375 1.6563-0.71875-0.625 0.8125 1.1562-0.71875-0.4062s3.735 7.0418 9.9688 11.094c6.2338 4.0519 15.265 10.516 29.188 8.75 13.922-1.7662 13.312-17.375 13.312-17.375-0.0337 0.076-0.0602 0.1436-0.0937 0.2188-0.4102 4.3478-2.532 13.8-13.219 15.156-13.922 1.7662-22.954-4.6981-29.188-8.75-5.439-3.5353-8.8116-9.0756-9.625-10.5l-0.5625-0.375z" fill-rule="evenodd"/>
  <path id="path5231" opacity=".2" d="m26.414 1011.5 0.0625 0.3125 0.25 0.125-0.0313-0.1563-0.28125-0.2812zm-0.46875 1.0625 0.65625 0.8437-0.25-0.6562-0.40625-0.1875zm-0.375 0.5 0.1875 0.5 0.375 0.25-0.5625-0.75zm0.40625 1.0938 0.3125 0.75-0.28125-0.1875 0.5 0.4375-0.53125-1zm-0.3125 0.3437 0.46875 0.9375 0.46875 0.25-0.75-1.0625-0.1875-0.125zm0.125 1.0313 0.8125 1.1562-0.71875-0.4062s3.735 7.0418 9.9688 11.094c6.2338 4.0519 15.265 10.516 29.188 8.75 13.922-1.7662 13.312-17.375 13.312-17.375-0.01 0.022-0.0214 0.04-0.0313 0.063-0.13773 3.437-1.4662 14.814-13.281 16.312-13.922 1.7662-22.954-4.6981-29.188-8.75-5.3086-3.4506-8.6416-8.8145-9.5625-10.406l-0.5-0.4375z" fill-rule="evenodd"/>
  <path id="path5236" opacity=".3" d="m29.507 1010.4v1l0.75 1.0625v-0.8438l0.71875 1.0313 0.0937-0.625 0.75 0.75v-0.4375l1.5312 1.375 0.125-0.75s15.999 9.5013 27.094 14.969c8.7813 4.3272 12.983 2.5891 17.75-8.1563 0.0246-0.6129 0.0313-1.0625 0.0313-1.0625-4.7792 10.805-8.9818 12.555-17.781 8.2188-11.095-5.4675-27.094-14.969-27.094-14.969l-0.125 0.75-1.5312-1.375v0.4375l-0.75-0.75-0.0937 0.625-0.71875-1.0313v0.8438l-0.75-1.0625zm-0.8125 0.625v0.625l-0.9375-0.5 0.21875 0.5-0.84375-0.4063 0.0937 1.0313 0.75 0.375-0.21875-0.5 0.9375 0.5v-0.625l0.8125 0.5312v-1l-0.8125-0.5312zm-1.4688 1.25-0.8125-0.8125 0.28125 1.2812 0.53125 0.5313-0.0937-1.0313 0.0937 0.031zm-1.3438 0.2187 0.46875 1.2188 0.375 0.1875-0.25-1.125-0.59375-0.2813zm-0.3125 0.5313 0.71875 1.8438-0.15625-0.094 0.46875 0.5938-0.71875-1.8751 0.0625 0.031-0.375-0.5zm0.0937 1.4375 0.3125 0.6563-0.21875-0.5938-0.0937-0.063zm0.125 1.0313 0.0625 0.094 0.15625 0.094-0.21875-0.1875zm0.0937 0.75s0.24577 0.4101 0.40625 0.6875l0.21875 0.1875-0.375-0.7188-0.25-0.1562z" fill-rule="evenodd" fill="#fff"/>
  <path id="path5267" opacity=".05" d="m69.289 960.95c-1.85 0.70239-3.1687 1.4663-5 0.46875-1.0849-0.34099-1.7726 1.3048-2.1213 1.2001-3.3805-3.378-9.6466-0.65265-10.441 3.7999-4.9875 1.0586-10.07 1.6023-15.165 1.6588-6.5304 0.38793-12.743 4.49-15.212 10.623-2.7402 6.3857-2.2414 13.545-1.5856 20.299 0.50506 2.7725 0.89585 6.773 4.1732 7.5843 1.0417 0.2198 2.082 0.063 2.9146-0.5718 0.60697-0.6643 1.4546-0.6956 2.1071-1.3881 1.3302-2.02 1.601-4.9022 0.83044-7.1744-0.89545-4.2966-1.1291-8.8295-0.5-13.187 2.644-2.0806 5.8379-3.7036 9.0987-4.7057 4.6959-1.2049 9.6052-1.3847 14.37-0.45051 0.038 3.8264 2.0767 7.1396 4.2228 10.151 1.6793 3.5691 5.3885 6.6347 9.5411 5.8368 3.2452-0.5249 5.8954-2.6247 8.8611-3.8941 2.6811-1.3466 4.2407-4.0259 6.0883-6.1994 3.8158-2.5156 7.7749-6.3312 7.3525-11.302-0.30155-3.7792-4.2807-7.2722-8.097-5.8422 0.086-1.1061-1.0766-2.0778-2.1562-1.875-0.66232-1.676-2.7959-1.7731-3.7812-3-0.6985-0.839-1.9772-0.57787-2.6875-0.15625-0.14339-1.3236-1.6197-1.9361-2.8125-1.875z" fill-rule="evenodd"/>
  <path id="path5263" opacity=".1" d="m69.32 961.86c-0.49097 0.0164-1.0985 0.19055-1.625 0.625-0.19045 0.15715-0.28053 0.50032-0.4375 0.71875-0.3935-0.17519-0.76624-0.27159-1.125-0.3125-0.56442-0.0644-0.80657-0.0503-1.0625-0.0313a0.99389 0.99389 0 0 0 -1.7188 -0.0937c-0.37618 0.56975-0.4283 1.1562-0.53125 1.7188-0.031 0.0104-0.0631 0.0206-0.0937 0.0313-0.76896-1.0529-1.6883-1.9355-2.875-2.3125-1.4456-0.4592-3.1174-0.19906-4.75 0.8125-1.6048 0.99439-2.3828 2.5678-2.75 4.2188-4.4264 0.90013-9.3386 1.6562-13.594 1.6562-5.7865 0-10.471 1.9622-13.656 5.5312-3.1856 3.5691-4.8528 8.677-4.9062 14.875-0.0524 6.0754 0.36094 9.8582 0.96875 12.281 0.60781 2.4231 1.3842 3.6256 2.5 4.0313 0.35372 0.1286 0.60192 0.253 1.0938 0.1562 0.0282-0.01 0.0629-0.053 0.0937-0.063a0.99389 0.99389 0 0 0 1.1875 -0.3437 0.99389 0.99389 0 0 0 0.0625 -0.031 0.99389 0.99389 0 0 0 0.75 -0.5l0.15625-0.2812h0.34375a0.99389 0.99389 0 0 0 0.4375 -0.125s0.4698-0.2693 0.78125-0.75 0.56392-1.1976 0.5-2.1563c-0.0385-0.5771 0.10385-0.8319 0.25-1.4062 0.14615-0.57434 0.13633-1.4802-0.375-2.375 0.0305 0.053-0.1254-0.2702-0.21875-0.7188-0.0934-0.4485-0.19474-1.0618-0.28125-1.75-0.17302-1.3762-0.31239-3.1147-0.375-4.8437-0.0626-1.729-0.0334-3.4532 0.0937-4.7812 0.0636-0.66403 0.14245-1.2358 0.25-1.625 0.10755-0.38923 0.29215-0.55378 0.1875-0.46875 1.4731-1.1969 6.649-4.3367 10.25-5 3.901-0.7186 6.4567-1.6395 14.781-0.21875 0.0266 0.45678 0.031 0.86672 0.0937 1.4375 0.27321 2.4838 0.89633 4.0585 1.6875 5.4062 0.79117 1.3478 1.6833 2.4647 2.7188 4.2812 1.3933 2.4894 3.1953 4.0764 5.3438 4.625s4.4938 0.033 6.9062-1.3125a0.99389 0.99389 0 0 0 0.0313 -0.031c1.8046-1.0553 3.1662-1.5389 4.5312-2.3125 1.3651-0.77356 2.6764-1.8288 4.1562-3.8438 0.53476-0.72813 0.92366-1.2939 1.25-1.8438 0.63312-0.46967 1.2282-0.95294 1.7812-1.3125a0.99389 0.99389 0 0 0 0.0313 -0.0313c1.6943-1.1369 3.4872-2.8231 4.6562-4.875s1.6819-4.5871 0.4375-6.9062c-0.96113-1.7912-2.3895-2.8751-3.9688-3.125-1.2895-0.20404-2.5758 0.20818-3.8125 0.84375 0.18268-0.44255 0.40515-0.84516 0.375-1.5a0.99389 0.99389 0 0 0 -1.4062 -0.875c-0.16963-0.10971-0.19667-0.16098-0.46875-0.28125-0.16205-0.0716-0.39151-0.10761-0.59375-0.15625-0.10117-0.59158-0.30875-1.1152-0.65625-1.4062-0.59246-0.49629-1.25-0.53125-1.25-0.53125a0.99389 0.99389 0 0 0 -0.96875 0.5c-0.0722-0.008-0.14728 0.00039-0.21875 0l0.125-0.59375a0.99389 0.99389 0 0 0 -1.8125 -0.71875l-0.1875 0.28125c-0.30627-0.34577-0.6998-0.6521-1.2188-0.78125a0.99389 0.99389 0 0 0 -0.40625 -1.0312s-0.29961-0.19684-0.65625-0.28125c-0.20299-0.048-0.47427-0.10506-0.8125-0.0937z" fill-rule="evenodd"/>
  <path id="path5259" opacity=".3" d="m69.351 962.86c-0.64469 0.0216-1.4739 0.378-1.875 1.875-0.23526-1.1497-2.75-0.875-2.75-0.875s0.83313 0.5887 0.8125 1.0312c-0.43195 0.0489-0.86038 0.12882-1.2812 0.21875-0.1824-0.40598 0.0525-1.219-0.0625-1.7812-0.35661 0.54012-0.52104 1.3176-0.59375 1.9375-0.40956 0.11051-0.79518 0.25369-1.1875 0.40625-1.4705-2.5021-3.8811-3.6095-6.7812-1.8125-1.5749 0.97585-2.3146 2.5203-2.5312 4.25-4.5987 0.95616-9.7937 1.7812-14.344 1.7812-11.135 0-17.459 7.3543-17.562 19.406-0.1039 12.052 1.6696 14.959 2.8125 15.375 1.1428 0.4156 0.4375-0.4063 0.4375-0.4063l0.8125 0.5313v-0.5313l0.71875 0.094 0.4375-0.8125h0.9375s0.82265-0.4103 0.71875-1.9688c-0.10389-1.5584 0.83117-1.8892 0-3.3437-0.83116-1.4545-1.7561-14.118-0.0937-15.469 1.6623-1.3506 6.7395-4.4602 10.688-5.1875 3.948-0.72727 6.7634-1.7873 15.906-0.125 0.005 0.61093 0.0573 1.3188 0.15625 2.2188 0.52346 4.7588 2.1329 5.5122 4.2812 9.2812 2.6125 4.6674 6.3627 5.4722 10.906 2.9374 3.745-2.1898 5.5408-2.0471 8.375-5.9062 0.58102-0.79113 0.99353-1.4123 1.3125-1.9688 0.68098-0.50348 1.3554-1.0184 2-1.4375 3.1549-2.117 6.8913-6.5677 4.7812-10.5-1.706-3.1795-4.5667-3.243-7.2188-1.5312-0.24183-0.34067-0.50025-0.65428-0.78125-0.96875 0.1996-0.41757 0.4957-1.1334 0.46875-1.7188-0.40577 0.4752-0.52977 1.6003-1.1875 0.9375-0.65772-0.66284 0.65625-0.78125 0.65625-0.78125s-1.3652-1.0398-1.9062-0.40625c0.51093-1.9068-1.0312-2.0312-1.0312-2.0312s0.63883 0.6659 0.40625 1.1875c-0.0778 0.17428-0.25509 0.25579-0.46875 0.28125-0.23547-0.14131-0.47438-0.27726-0.71875-0.40625-0.0549-0.15554-0.0683-0.33776 0-0.59375-0.40698-0.14501-0.73987-0.0366-0.96875 0.15625-0.17783-0.0791-0.35017-0.17725-0.53125-0.25l0.34375-1.6562-0.9375 1.4375c-0.13787-0.0492-0.26695-0.0795-0.40625-0.125-0.0429-0.58417-0.30072-1.2657-1.2188-1.4375-0.15562 0.58081-0.45043 0.83534-0.78125 0.90625-0.23687-0.0453-0.48051-0.0904-0.71875-0.125-0.32231-0.17698-0.56112-0.47318-0.53125-0.78125 0.077-0.79434 1.375-1.125 1.375-1.125s-0.10893-0.0768-0.3125-0.125c-0.15267-0.0361-0.3476-0.0697-0.5625-0.0625z" fill-rule="evenodd"/>
  <path id="path7708" d="m65.261 963.99s-15.286 4.8831-26.493 4.8831c-11.135 0-17.454 7.3766-17.558 19.429-0.1039 12.052 1.6623 14.961 2.8052 15.377 1.1428 0.4155 0.41558-0.4156 0.41558-0.4156l0.83117 0.5195v-0.5195l0.72727 0.1039 0.41558-0.8312h0.93506s0.83117-0.4156 0.72727-1.974c-0.10389-1.5585 0.83117-1.8701 0-3.3247-0.83116-1.4545-1.7662-14.13-0.10389-15.48 1.6623-1.3506 6.7532-4.4675 10.701-5.1948 3.948-0.72727 6.7532-1.7662 15.896-0.1039s11.844-11.221 10.701-12.468z" fill-rule="evenodd" fill="url(#radialGradient28144)"/>
  <path id="path5292" opacity=".1" d="m65.414 964.33c-0.56108 3.9998-3.7644 11.412-10.844 10.125-9.1428-1.6623-11.958-0.60227-15.906 0.125s-9.0252 3.8368-10.688 5.1875c-0.75357 0.61227-0.96856 3.5523-0.90625 6.7188 0.0566-2.3225 0.31662-4.2397 0.90625-4.7188 1.6623-1.3506 6.7395-4.4602 10.688-5.1875 3.948-0.72727 6.7634-1.7873 15.906-0.125 8.612 1.5658 11.492-9.761 10.844-12.125zm-44.188 23.438c-0.004 0.18089-0.0297 0.34819-0.0313 0.53125-0.1039 12.052 1.6696 14.959 2.8125 15.375 1.1428 0.4156 0.4375-0.4063 0.4375-0.4063l0.8125 0.5313v-0.5313l0.71875 0.094 0.4375-0.8125h0.9375s0.82265-0.4103 0.71875-1.9688c-0.0982-1.4734 0.70544-1.8608 0.0937-3.125-0.0773 0.3026-0.12417 0.6687-0.0937 1.125 0.1039 1.5585-0.71875 1.9688-0.71875 1.9688h-0.9375l-0.4375 0.8125-0.71875-0.094v0.5313l-0.8125-0.5313s0.70535 0.8219-0.4375 0.4063c-1.092-0.3971-2.7262-3.1559-2.7812-13.906z" fill-rule="evenodd"/>
  <path id="path5288" opacity=".2" d="m65.476 964.73c-0.31689 3.8106-3.4777 12.069-10.906 10.719-9.1428-1.6623-11.958-0.60227-15.906 0.125s-9.0252 3.8368-10.688 5.1875c-0.68846 0.55937-0.94817 3.0636-0.9375 5.9062 0.0461-2.4132 0.33092-4.4134 0.9375-4.9062 1.6623-1.3506 6.7395-4.4602 10.688-5.1875 3.948-0.72727 6.7634-1.7873 15.906-0.125 8.21 1.4927 11.204-8.7118 10.906-11.719zm-44.219 26.688c0.20637 9.3968 1.7154 11.874 2.75 12.25 1.1428 0.4156 0.4375-0.4063 0.4375-0.4063l0.8125 0.5313v-0.5313l0.71875 0.094 0.4375-0.8125h0.9375s0.82265-0.4103 0.71875-1.9688c-0.0115-0.1718-0.0101-0.3239 0-0.4687-0.0895 1.1236-0.71875 1.4375-0.71875 1.4375h-0.9375l-0.4375 0.8125-0.71875-0.094v0.5313l-0.8125-0.5313s0.70535 0.8219-0.4375 0.4063c-1-0.3636-2.4659-2.6137-2.75-11.25zm7.0938 6.4687c-0.11797 0.4462-0.33216 0.9238-0.28125 1.6875 0.0115 0.1719 0.009 0.3237 0 0.46879 0.0785-0.89969 0.49189-1.3654 0.28125-2.1563z" fill-rule="evenodd"/>
  <path id="path9488" d="m25.682 982.15c2.0455 29.211-4.5696 19.589-4.1496 5.5948 0.007 4.5697-0.0775 9.2461 1.2402 13.638 0.2966 0.7331 0.59555 1.6504 1.3721 2.0069-1.0743-1.4541 0.86358 0.1897 0.96017-0.4699 1.0381 0.5561 0.81816-1.205 1.9256-0.702 0.71185-0.075 0.74018-1.0898 0.72265-1.6504-0.15364-1.1232 0.81434-2.2516-0.01-3.2861-0.82636-2.7092-0.84171-5.6191-0.99507-8.4421 0.0327-2.3225-0.20917-4.8042 0.72163-6.9827 1.1704-1.2502 2.803-2.0129 4.2488-2.8917 2.7622-1.5791 5.7804-2.6633 8.942-3.1204 4.8046-1.0986 9.785-0.46753 14.563 0.39194-16.285-4.5591-25.378 2.4687-29.542 5.914z" fill-rule="evenodd" fill="url(#linearGradient28139)"/>
  <path id="path3761" d="m55.648 962.85c-3.7935 2.3505-2.7903 8.0635-1.1166 11.474 1.754 3.447 3.2732 8.987 5.5581 7.1742 7.447-7.447 3.2923-23.441-4.4415-18.649z" fill-rule="evenodd" fill="url(#radialGradient28136)"/>
  <path id="path6444" d="m86.383 971.08c2.11 3.9323-1.6153 8.3784-4.7702 10.495-3.2425 2.1083-7.3281 6.1463-8.4005 3.434-2.7258-10.173 8.869-21.946 13.171-13.929z" fill-rule="evenodd" fill="url(#radialGradient28133)"/>
  <path id="path5801" d="m69.906 961.93c-0.6107-0.14453-1.8978-0.18375-2.4326 1.8122-0.23526-1.1497-2.7539-0.87195-2.7539-0.87195s0.8277 0.57165 0.80707 1.0142c-0.0001 0.002-0.001 0.004-0.002 0.006-0.43195 0.0489-0.85992 0.11587-1.2808 0.2058-0.1824-0.40598 0.0552-1.2156-0.0598-1.7779-0.35661 0.54012-0.51466 1.3101-0.58737 1.93-3.1702 0.85543-5.8861 2.9521-7.1883 6.5768-1.3422 3.1034-2.2197 3.0726-1.6962 7.8314 0.52346 4.7588 2.1524 5.5288 4.3008 9.2978 2.6125 4.6674 6.3558 5.4552 10.899 2.9205 3.745-2.1899 5.5393-2.0427 8.3735-5.9018s2.0619-4.2703 2.4526-7.6287c0.75364-3.482-0.31125-6.4858-2.3591-8.7776 0.1996-0.41757 0.48497-1.124 0.45802-1.7094-0.40577 0.47519-0.52187 1.6107-1.1796 0.94787-0.65772-0.66284 0.67736-0.78881 0.67736-0.78881s-1.3888-1.0549-1.9298-0.42134c0.51093-1.9068-1.0322-2.0321-1.0322-2.0321s0.65536 0.66412 0.42278 1.1857c-0.0777 0.17428-0.27172 0.28496-0.48538 0.31042-0.23547-0.14131-0.47562-0.28098-0.72-0.40997-0.0549-0.15554-0.0643-0.35568 0.004-0.61167-0.40698-0.14501-0.719-0.0382-0.94788 0.15456-0.17783-0.0791-0.35803-0.15469-0.53911-0.22744l0.32411-1.6622-0.91406 1.434c-0.13787-0.0492-0.2772-0.0916-0.4165-0.13714-0.0429-0.58416-0.29922-1.2651-1.2172-1.4369-0.15562 0.58081-0.46386 0.84605-0.79468 0.91696-0.23687-0.0453-0.47616-0.0866-0.7144-0.12121-0.32231-0.17697-0.55638-0.49051-0.52651-0.79858 0.077-0.79434 1.386-1.1224 1.386-1.1224s-0.12518-0.0591-0.32875-0.10724z" fill-rule="evenodd" fill="#fff"/>
  <path id="path6446" d="m79.509 981.36 3.6114-2.6082-1.0083 0.10055 1.8959-1.4834-1.7456 0.42388 2.7988-1.7552-2.483 0.7472 2.7536-2.0458-2.1369 0.44018 2.3474-1.6193-2.3174 0.79881 1.7454-1.9453-2.0917 0.73088 0.7823-1.554-1.1888 0.45918 0.55657-1.4861-0.96307 0.39125 0.36107-0.71726-3.0096 1.4128s0.84677 1.647 1.0842 3.9339c0.23737 2.2869-0.99234 5.776-0.99234 5.776z" fill-rule="evenodd" fill="#fff"/>
  <path id="path4650" d="m56.462 975.18-1.8234-4.0645 0.82291 0.5912-0.90021-2.2327 1.2998 1.2399-1.5463-2.9194 1.7767 1.8886-1.3618-3.1486 1.6305 1.4496-1.2233-2.576 1.6076 1.8505-0.53889-2.5574 1.446 1.6788 0.0995-1.737 0.79994 0.99206 0.26104-1.5653 0.63843 0.82037 0.0459-0.80169 1.9 2.7283s-1.5568 1.003-2.9059 2.8648c-1.349 1.8618-2.0286 5.4983-2.0286 5.4983z" fill-rule="evenodd" fill="#fff"/>
  <path id="path6450" d="m59.194 972.18s5.7702 0.63501 4.2492 6.3113c-5.383-1.4424 1.2341-4.842-4.2492-6.3113z" fill-rule="evenodd" fill="#729fcf"/>
  <g id="g9129" transform="matrix(.18226 .048835 -.048835 .18226 35.221 935.27)">
   <path id="path7337" d="m193.5 170.56a8.3117 8.3117 0 1 1 -16.623 0 8.3117 8.3117 0 1 1 16.623 0z" transform="matrix(1.396 0 0 1.396 -71.556 -66.826)"/>
   <path id="path8224" d="m193.5 170.56a8.3117 8.3117 0 1 1 -16.623 0 8.3117 8.3117 0 1 1 16.623 0z" transform="matrix(.55042 0 0 .25629 85.038 134.22)" fill="url(#linearGradient28182)"/>
   <path id="path9119" d="m193.5 170.56a8.3117 8.3117 0 1 1 -16.623 0 8.3117 8.3117 0 1 1 16.623 0z" transform="matrix(.86905 0 0 .48914 26.032 83.33)" fill="url(#radialGradient28184)"/>
  </g>
  <path id="path9138" d="m77.282 977.02s-5.3146-2.3352-6.8356 3.3411c5.383 1.4424 1.3522-4.8104 6.8356-3.3411z" fill-rule="evenodd" fill="#729fcf"/>
  <g id="g9140" transform="matrix(-.18226 -.048835 -.048835 .18226 116.5 957.05)">
   <path id="path9142" d="m193.5 170.56a8.3117 8.3117 0 1 1 -16.623 0 8.3117 8.3117 0 1 1 16.623 0z" transform="matrix(1.396 0 0 1.396 -71.556 -66.826)"/>
   <path id="path9144" d="m193.5 170.56a8.3117 8.3117 0 1 1 -16.623 0 8.3117 8.3117 0 1 1 16.623 0z" transform="matrix(.55042 0 0 .25629 85.038 134.22)" fill="url(#linearGradient28182)"/>
   <path id="path9146" d="m193.5 170.56a8.3117 8.3117 0 1 1 -16.623 0 8.3117 8.3117 0 1 1 16.623 0z" transform="matrix(.86905 0 0 .48914 26.032 83.33)" fill="url(#radialGradient28184)"/>
  </g>
  <path id="path9166" d="m55.5 974.56c-0.26572-0.0391-0.56812 0.13143-0.73272 0.46794-0.13148 0.83523-0.12691 1.9175 0.0606 3.6223 0.51878 4.7162 2.1331 5.4793 4.2622 9.2145 0.402 0.71821 0.8313 1.347 1.2861 1.8819-0.0741-0.37075 0.0637-0.90686-0.11425-1.2263-0.76161-0.0358-0.31713-0.55097 0.12571-0.77609 0.82567-0.68979-0.329 0.0986-0.63655 0.0382 0.21159-1.0033 1.0852-1.7073 1.7326-2.4522 0.88148-0.72131-0.23195-1.5136-1.0004-1.508-0.39836-0.30747-1.8447 0.29284-1.444-0.51345 0.30854-0.64677 0.5288-1.2034 1.0983-1.6669-0.37115-0.0377-1.7834 1.0275-1.2777-0.00075 0.4684-0.86701-0.78983-0.16528-1.0755 0.0471-0.91567 0.51212-0.19927-0.53363 0.12572-0.77609 0.61981-0.47577 0.0553-0.90749-0.49568-0.58199-1.1213 0.27546 0.28888-0.53018 0.62712-0.71133-0.26898-0.16661-0.91611 0.34838-1.3572 0.31958-0.007-0.44489 0.78203-0.70602 1.0865-1.0564 0.86245-0.6491-0.3944-0.49307-0.79874-0.27729-0.85507 0.22169 0.0454-0.4133 0.35842-0.51129 0.78288-0.50304-0.45604-0.24744-0.73478-0.11464-1.271 0.42907-0.5367-0.93602-0.0102-1.3313 0.51428-0.95657-0.53011 0.41383-0.8482-0.0691-0.54026-0.5993 0.54964-0.99171 0.26184-1.3786-0.0541-0.40146-0.26295-0.60509-0.49914-0.63986zm24.112 6.4608c-0.20284-0.0348-0.43961 0.0566-0.65186 0.33145-0.44268 0.19114 0.305 1.0759-0.46253 1.3248-0.51695 0.2592-0.73621-1.4498-0.76912-0.36425 0.25832 0.60555 0.21167 2.1549-0.67448 1.1478-0.17499-0.25436-1.1201-1.0952-0.69365-0.2681 0.22214 0.24139 0.67852 1.2399 0.0489 0.62042-0.24228-0.38905-1.2468-1.151-0.82447-0.15765 0.0885 0.45567 0.63566 1.0749 0.40684 1.4565-0.39642-0.19562-0.69345-0.9636-1.0097-0.9538 0.20236 0.326 1.0149 1.7272 0.18153 0.92801-0.31435-0.55735-1.0132-0.46417-0.71435 0.25776 0.16021 0.37247 0.25776 1.6363-0.27918 0.73498-0.14116-0.32677-0.87995-1.5636-0.90782-0.57855-0.0762 1.1433-0.77253-0.48688-1.1128-0.6398 0.26145 0.6861 0.17386 1.2783 0.11768 1.9927-0.0561 0.89859-1.0027-0.34286-1.5014-0.27576-0.6627-0.38902-2.0231-0.25961-1.6204 0.80579 0.18816 0.96876 0.58682 2.0137 0.26842 2.9884-0.29655-0.1015-0.89642-1.36-0.52626-0.34981 0.27095 0.41641 0.39829 1.0848-0.27918 0.73501-0.27346 0.1635-0.42223 0.5887-0.6226 0.8833 0.61762-0.2239 1.2544-0.5174 1.9062-0.881 3.7115-2.1703 5.4897-2.0244 8.2985-5.8489 1.077-1.4664 1.6284-2.4305 1.9209-3.2495-0.0298-0.34329-0.23754-0.59495-0.49915-0.63986zm-18.662 9.1328c-0.088 0-0.15769-0.01-0.22199-0.022 0.11894 0.1243 0.23794 0.2431 0.36015 0.3559-0.0342-0.1312-0.0745-0.2516-0.13816-0.3344zm6.239 1.6717c-0.0598 0.025-0.12212 0.059-0.1812 0.1097 0.0882-0.022 0.176-0.043 0.265-0.068-0.0277-0.014-0.0543-0.023-0.0838-0.041zm-4.9954-0.5287c-0.0149 0-0.0341 0.0009-0.0504-0.0008 0.073 0.045 0.1447 0.087 0.21871 0.1282-0.0449-0.06-0.098-0.1087-0.16832-0.1273z" fill-rule="evenodd" fill="url(#radialGradient28117)"/>
  <path id="path10070" d="m63.16 986.64c-1.2363 0.0708-1.5247 0.23768-1.3111 1.2568 0.21355 1.0191 0.8022 2.4546 2.1653 2.8198s2.5921-0.5831 3.2871-1.3588c0.69502-0.7757 0.87945-0.80552-0.50704-1.744s-2.3979-1.0446-3.6343-0.97379z" fill-rule="evenodd"/>
  <path id="path10960" d="m63.341 986.91c-1.0793 0.0618-1.331 0.2075-1.1446 1.0972 0.18643 0.88974 2.8146-0.98762 1.8904 2.4617 0.92134-3.4385 2.263-0.50907 2.8697-1.1863 0.60676-0.6772 0.76777-0.70323-0.44265-1.5226-1.2104-0.81931-2.0934-0.91191-3.1728-0.85014z" fill-rule="evenodd" fill="url(#radialGradient28113)"/>
  <path id="path4019" d="m68.297 973.34s1.4528 0.66094 1.0023 2.8493c1.8446-1.8148 0.9508-3.5484 0.9508-3.5484s2.0525 0.95746 1.4164 2.8245c1.6839-1.7221 0.79011-3.4557 0.79011-3.4557s2.0028 0.12917 2.2041 1.4056c-0.0315-1.91-1.4753-3.1119-1.4753-3.1119s3.4557 0.79012 2.8535 2.5304c1.3219-2.9057-1.2127-3.5848-1.2127-3.5848s1.7245-0.35289 2.779 1.2879c-0.40261-2.5528-2.1248-3.0266-2.1248-3.0266 1.7927 0.77264 2.4916 2.1126 2.3509 4.7171-0.10854-1.1157-1.561-1.9278-1.561-1.9278s1.3546 0.91247-0.34747 3.7163c0.15402-1.5887-1.4884-2.2912-1.4884-2.2912s1.2364 1.6649-0.21527 3.338c0.24679-1.428-0.89378-1.7336-0.89378-1.7336s0.11519 2.6116-2.4807 3.6818c0.4663-1.2334-0.1243-2.0707-0.1243-2.0707s0.20132 1.2764-2.3266 2.0932c0.88044-1.2582-0.097-3.6934-0.097-3.6934z" fill-rule="evenodd" fill="url(#radialGradient28110)"/>
  <path id="path5282" opacity=".1" d="m69.257 961.86c0.0427 0.0304 0.0782 0.068 0.125 0.0937 0.23824 0.0346 0.48188 0.0797 0.71875 0.125 0.0306-0.007 0.0639-0.0214 0.0937-0.0313-0.0171-0.0114-0.0952-0.081-0.28125-0.125-0.15268-0.0361-0.3476-0.0697-0.5625-0.0625-0.0292 0.00098-0.0639-0.002-0.0937 0zm9.5938 5c-0.0421 0.0494-0.0568 0.12686-0.0937 0.1875 0.0235 0.0289 0.0393 0.0647 0.0625 0.0937 0.009-0.0925 0.0353-0.19318 0.0313-0.28125zm-25.75 0.34375c-0.26927 2.413 0.47079 5.1549 1.4375 7.125 0.01 0.0198 0.0209 0.042 0.0313 0.0625-0.002-0.67857 0.0567-1.2249 0.15625-1.6875-0.0598-0.12312-0.12718-0.25645-0.1875-0.375-0.70797-1.4428-1.277-3.2883-1.4375-5.125zm33.812 5.3125c-0.50734 2.8514-3.0609 5.5516-5.3125 7.0625-0.64463 0.41914-1.319 0.93402-2 1.4375-0.31897 0.55642-0.73148 1.1776-1.3125 1.9688-2.8342 3.8591-4.63 3.7164-8.375 5.9062-4.5436 2.5348-8.2938 1.73-10.906-2.9375-2.1484-3.769-3.7578-4.5225-4.2812-9.2812-0.051-0.46369-0.10001-0.87072-0.125-1.25-0.077 0.78458-0.0356 1.79 0.125 3.25 0.52346 4.7588 2.1329 5.5122 4.2812 9.2812 2.6125 4.6674 6.3627 5.4722 10.906 2.9374 3.745-2.1898 5.5408-2.0471 8.375-5.9062 0.58102-0.79113 0.99353-1.4123 1.3125-1.9688 0.68098-0.50348 1.3554-1.0184 2-1.4375 2.776-1.8628 6.0151-5.5291 5.3125-9.0625z" fill-rule="evenodd"/>
  <path id="path3754" d="m67.775 964.95c-0.52074-0.23054-2.1099-0.56061-3.2846-0.15609 1.5444-0.63943 3.3382 1.2456 3.3382 1.2456s-2.552-0.5693-3.5301 0.63524c2.7844-0.84035 3.6525 1.5093 3.6525 1.5093s-1.8686-1.1015-3.1327 0.0837c1.2401-0.51288 3.0606 1.0776 3.0606 1.0776s-1.1553 0.0415-1.8852 1.4843c0.92284-0.45489 2.2332-0.22082 2.2332-0.22082-1.0688 0.13696-1.5992 0.31603-2.8946 1.1151 0.85559-1.6724 1.7152-2.1408 1.7152-2.1408s-2.2603-1.401-3.3263-0.46414c1.7518-1.9755 3.1735-1.3536 3.1735-1.3536s-2.3336-1.2738-3.4336-0.21025c1.0895-1.842 3.184-1.6947 3.184-1.6947s-0.89657-0.99626-2.7922-0.78112c2.4103-1.3916 4.443 0.10117 3.9222-0.12937z" fill-rule="evenodd" fill="url(#radialGradient28106)"/>
  <path id="path5271" opacity=".2" d="m69.351 961.86c-0.14171 0.005-0.28447 0.0481-0.4375 0.0937-0.0276 0.0677-0.0551 0.14263-0.0625 0.21875-0.0187 0.19254 0.0727 0.37419 0.21875 0.53125 0.38903-0.45316 1.1562-0.65625 1.1562-0.65625s-0.10893-0.0768-0.3125-0.125c-0.15268-0.0361-0.3476-0.0697-0.5625-0.0625zm-5.1562 0.46875c-0.0129 0.20654 0.006 0.39847 0.0313 0.5625 0.008-0.1959 0.003-0.39394-0.0313-0.5625zm0.9375 0.5c-0.23943 0.008-0.40625 0.0313-0.40625 0.0313s0.0999 0.11236 0.15625 0.15625c0.21956-0.0387 0.43428-0.0999 0.65625-0.125 0.00099-0.0213 0.003-0.0406 0-0.0625-0.13893-0.003-0.29523-0.004-0.40625 0zm8.3125 0.46875-0.3125 0.46875-0.0313 0.1875c0.0646 0.026 0.12444 0.0633 0.1875 0.0937l0.15625-0.75zm1.9375 1.2812s0.13384 0.16192 0.25 0.34375c0.0624-0.0431 0.12385-0.0836 0.15625-0.15625 0.0102-0.0228 0.0243-0.0392 0.0313-0.0625-0.23223-0.10985-0.4375-0.125-0.4375-0.125zm1.0625 0.84375c-0.0136 0.0667-0.012 0.11582-0.0313 0.1875 0.016-0.0187 0.0452-0.0154 0.0625-0.0313-0.0109-0.055-0.0153-0.10714-0.0313-0.15625zm1.0625 1.125c0.0224 0.0746 0.0607 0.15371 0.15625 0.25 0.23247 0.23428 0.39612 0.2298 0.53125 0.125-0.13338-0.0932-0.37146-0.24433-0.6875-0.375zm1.3438 0.3125c-0.17621 0.20636-0.30078 0.52941-0.4375 0.78125 0.0841 0.095 0.16977 0.18539 0.25 0.28125 0.11862-0.34174 0.20302-0.7254 0.1875-1.0625zm-25.781 0.84375c-0.12579 2.2858 0.56746 4.7882 1.4688 6.625 0.0161 0.0316 0.0457 0.0605 0.0625 0.0937 0.0257-0.26153 0.0773-0.49722 0.125-0.71875-0.0598-0.12312-0.12718-0.25645-0.1875-0.375-0.77242-1.5741-1.3823-3.6283-1.4688-5.625zm33.906 5.375c-0.30857 3.0099-3.0088 5.9122-5.375 7.5-0.64463 0.41914-1.319 0.93402-2 1.4375-0.31897 0.55642-0.73148 1.1776-1.3125 1.9688-2.8342 3.8591-4.63 3.7164-8.375 5.9062-4.5436 2.5348-8.2938 1.73-10.906-2.9375-2.1484-3.769-3.7578-4.5225-4.2812-9.2812-0.0787-0.71547-0.107-1.2882-0.125-1.8125-0.0346 0.72034-0.009 1.5956 0.125 2.8125 0.52346 4.7588 2.1329 5.5122 4.2812 9.2812 2.6125 4.6674 6.3627 5.4722 10.906 2.9374 3.745-2.1898 5.5408-2.0471 8.375-5.9062 0.58102-0.79113 0.99353-1.4123 1.3125-1.9688 0.68098-0.50348 1.3554-1.0184 2-1.4375 2.6291-1.7642 5.6581-5.1451 5.375-8.5z" fill-rule="evenodd"/>
 </g>
</svg>
