<?xml version="1.0" encoding="UTF-8" standalone="no"?>
<!-- Created with Inkscape (http://www.inkscape.org/) -->
<svg id="svg2" xmlns:rdf="http://www.w3.org/1999/02/22-rdf-syntax-ns#" xmlns="http://www.w3.org/2000/svg" height="96" width="96" version="1.1" xmlns:cc="http://creativecommons.org/ns#" xmlns:xlink="http://www.w3.org/1999/xlink" xmlns:dc="http://purl.org/dc/elements/1.1/">
 <defs id="defs4">
  <linearGradient id="linearGradient3700-09">
   <stop id="stop3702-67" stop-color="#70a83e" offset="0"/>
   <stop id="stop3704-18" stop-color="#9fd058" offset="1"/>
  </linearGradient>
  <linearGradient id="linearGradient9745" y2="5.9877" xlink:href="#linearGradient3700-09" gradientUnits="userSpaceOnUse" x2="48" gradientTransform="translate(-169.06 968.2)" y1="90" x1="48"/>
  <linearGradient id="linearGradient3599">
   <stop id="stop3601-0" stop-opacity=".41961" offset="0"/>
   <stop id="stop3603" stop-color="#98713b" stop-opacity="0" offset="1"/>
  </linearGradient>
  <linearGradient id="linearGradient39224" y2="76.945" gradientUnits="userSpaceOnUse" x2="49.689" gradientTransform="translate(107.64 993.21)" y1="6" x1="49.689">
   <stop id="stop3739-42" stop-color="#fff" offset="0"/>
   <stop id="stop3741-91" stop-color="#fff" stop-opacity="0" offset="1"/>
  </linearGradient>
  <linearGradient id="linearGradient39267" y2="82.75" xlink:href="#linearGradient3599" gradientUnits="userSpaceOnUse" x2="49" gradientTransform="matrix(.37777 .75519 .86601 -.15619 -35.382 969.93)" y1="96.263" x1="62.75"/>
  <linearGradient id="linearGradient39270" y2="82.75" xlink:href="#linearGradient3599" gradientUnits="userSpaceOnUse" x2="49" gradientTransform="matrix(.75123 0 0 .72536 -.31993 955.83)" y1="96.263" x1="62.75"/>
  <linearGradient id="linearGradient39280" y2="68.389" xlink:href="#linearGradient3599" gradientUnits="userSpaceOnUse" x2="62.394" gradientTransform="matrix(.75123 0 0 .72536 -.31993 955.83)" y1="65.389" x1="41.531"/>
  <linearGradient id="linearGradient39283" y2="117.1" xlink:href="#linearGradient3599" gradientUnits="userSpaceOnUse" x2="83.324" gradientTransform="matrix(.75123 0 0 .72536 -.31993 955.83)" y1="62.345" x1="66.3"/>
  <linearGradient id="linearGradient39301" y2="2.9934" gradientUnits="userSpaceOnUse" x2="47.995" y1="93.004" x1="47.995">
   <stop id="stop3189-64" stop-color="#bd9c5b" offset="0"/>
   <stop id="stop3191-85" stop-color="#fadd96" offset="1"/>
  </linearGradient>
 </defs>
 <metadata id="metadata7">
  <rdf:RDF>
   <cc:Work rdf:about="">
    <dc:format>image/svg+xml</dc:format>
    <dc:type rdf:resource="http://purl.org/dc/dcmitype/StillImage"/>
    <dc:title/>
   </cc:Work>
  </rdf:RDF>
 </metadata>
 <g id="layer1" transform="translate(0 -956.36)">
  <rect id="rect5263-0" fill-opacity=".019608" ry="12.724" height="89.978" width="89.624" y="959.35" x="3.3534"/>
  <rect id="rect5261-6" fill-opacity=".039216" ry="12.552" height="88.762" width="88.413" y="959.96" x="3.9589"/>
  <rect id="rect5259-9" fill-opacity=".078431" ry="12.38" height="87.546" width="87.202" y="960.57" x="4.5645"/>
  <rect id="rect5257-5" fill-opacity=".15686" ry="12.208" height="86.33" width="85.991" y="961.18" x="5.1701"/>
  <path id="rect2419" d="m17.656 5.5938c-6.668 0-12.062 5.3272-12.062 11.968l-0.0002 60.813c0 6.642 5.3942 11.969 12.062 11.969h61.032c6.668 0 12.031-5.327 12.031-11.969v-60.813c0-6.641-5.363-11.968-12.031-11.968l-61.032-0.0002z" transform="translate(0 956.36)" fill="url(#linearGradient39301)"/>
  <path id="rect5265-0" d="m5.7756 1029.8v5.0663c0 6.668 5.3434 12.032 11.985 12.032h60.809c6.6418 0 11.985-5.3645 11.985-12.032v-5.0663c0 6.6681-5.3434 12.032-11.985 12.032h-60.809c-6.6418 0-11.985-5.3643-11.985-12.032z" fill-opacity="0.17"/>
  <path id="path5252-0" d="m5.7756 1033.9v1.0133c0 6.668 5.3434 12.032 11.985 12.032h60.809c6.6418 0 11.985-5.3645 11.985-12.032v-1.0133c0 6.6681-5.3434 12.032-11.985 12.032h-60.809c-6.6418 0-11.985-5.3644-11.985-12.032z" fill-opacity=".098039"/>
  <rect id="rect4772" display="none" height="107.79" width="107.79" y="971.68" x="-369.64" fill="none"/>
  <g id="g4788" display="none" transform="matrix(.21052 0 0 .21052 -369.68 971.63)"></g>
  <g id="g4806" display="none" transform="matrix(.21052 0 0 .21052 -369.68 971.63)">
   <g id="g4808" display="inline">
    <path id="path4810" d="m349.1 256.65c-0.265-0.254 37.637 27.605 39.421 25.012 6.362-9.252 82.046-93.137 84.784-116.24 0.242-2.003-0.516-4.096-0.516-4.096s-1.19-0.144-6.325-4.314c-2.692-2.192-5.483-4.581-5.483-4.581-16.054 0.998-57.885 41.559-111.06 103.57" fill="#050505" display="none"/>
   </g>
  </g>
  <g id="g4796" transform="matrix(.21052 0 0 .21052 -369.68 971.63)"></g>
  <rect id="rect3873" rx="6" ry="6" height="84" width="84" display="none" y="974.2" x="-163.06" fill="url(#linearGradient9745)"/>
  <rect id="rect3880" rx="6" ry="6" height="84" width="84" display="none" y="974.2" x="-163.06" fill="url(#linearGradient9745)"/>
  <g id="g39285">
   <path id="path3589" opacity=".7" d="m39.683 991.01c-3.6526 0.77558-7.9785 1.3076-11.395 2.7566-2.945 1.2491-7.7668 4.0509-9.9376 6.4808-0.88372 4.2954 13.095 5.2219 16.948 6.0194 4.4231 0.7313 9.4199 0.2148 13.174 3.0209 1.9645 1.8417 2.7566 4.9674 1.7792 7.4438-1.3002 2.9917-4.8672 0.9885-7.1069 2.3091-2.1632 1.3857-1.6069 4.5985-0.63556 6.5309 1.3523 1.887 4.1156 2.0968 4.6349 4.6583 2.5301 1.9271 5.0396-2.0168 5.6741-3.7718 2.0713-2.9319 5.0469-4.1261 8.485-3.605 2.8583 0.1082 4.6292-4.1867 1.5877-5.3684-1.91-1.1154-3.6451-2.1005-3.8-4.5978-0.42566-3.0427 5.5299-4.035 7.0737-6.3262 2.5639-4.6043-3.4859-11.283-6.4902-15.225-1.7337-2.5591-4.1424-0.14098-6.1126 1.4494-3.4199-0.72646-4.2577 0.58064-6.2172 3.0533-2.7593-0.1903-3.4147-3.4815-5.8383-4.2804-0.58034-0.25649-1.1945-0.44219-1.8234-0.54778z" fill-rule="evenodd" fill="url(#linearGradient39283)"/>
   <path id="path3611" d="m40.246 998.99c-2.0389 3.6643-10.447 1.0817-9.2513 6.9603 2.3243 3.4045 8.1141 4.1702 11.868 2.8375 3.7033-1.9529 6.5974-7.3837 2.945-10.692-1.6529-1.7738-4.3842-0.93146-5.5612 0.89425z" fill-rule="evenodd" fill="url(#linearGradient39280)"/>
   <path id="path3455" opacity=".8" d="m79.828 997.62c0.27991 0.34336 2.8505 2.6776 0.33034 0.53518-5.8387-4.6292-16.43-12.643-21.517-18.072 1.4419 1.4052 3.1161 2.9772 0.68357 0.70174-2.6942-2.4541-5.2059-5.0854-7.7086-7.7192 1.2482 1.1222 3.4376 3.4977 0.99652 0.96338-2.6126-3.1186-7.6027-2.3773-9.9501 0.63531-4.1331 3.6008-7.9209 7.5704-11.161 11.933-3.2588 3.6036-7.5589 6.0769-11.126 9.3391-1.9806 2.6313-6.2928 6.148-3.76 9.5676-1.1914-0.9911-4.1268-3.8223-0.73988-1.7496 4.5847 1.4801 10.577 1.6446 13.343 6.0636 1.4083 3.5152-3.4075 4.7565-5.1607 7.0016-0.38185 2.8656-4.5704-2.4201-1.7581-0.6368 4.8259 1.0148 9.5504 2.58 14.094 4.42 4.1586 1.346 5.495 6.3305 1.369 8.5192-0.67455 2.0207-1.299 1.1714-2.2523-0.3239 2.556 1.583 5.4161 0.1762 8.1603 0.4951 3.0858 0.4837 4.3067 6.9389 3.1289 7.4345-1.9383-1.5033-1.3961-1.561 0.64743-1.1246 5.6066 0.5997 3.9104 0.2986 7.1031-0.3988-2.5311 1.3836-5.6363 3.3216-8.5926 2.0511-2.3147-0.9426-2.9623-7.3173-2.3965-7.0361 3.8281 2.715-3.3058 1.4159-5.0951 1.6081-2.9979-0.9002-6.1017-4.0323-2.3004-6.2259 2.128-0.7838 0.4678-5.4467 2.666-2.2811 2.0472 1.7158-2.2178-1.4455-3.4008-1.3917-3.8762-1.3731-7.9186-2.2252-11.93-3.1376-4.9399-2.5753 0.38982-6.6412 2.6801-8.7584 1.4811-1.3643-1.4474-3.9321 0.57717-1.6955 1.2688 1.2405 2.8032 2.3968 0.22813 0.8245-4.0847-1.7099-9.4578-1.3069-12.516-4.8101-2.5938-3.8855 0.421-8.2374 3.1651-11.14 3.2552-2.968 7.0648-5.3249 10.113-8.5306 3.2908-3.1089 5.8773-6.8407 9.3062-9.8382 2.7289-2.5112 5.4222-6.2454 9.6816-5.8297 4.1911 1.7578 7.1584 5.5512 10.289 8.6748 1.3414 1.5878-3.6035-3.5262-0.68407-0.62844 1.6679 1.6222 5.8845 5.5819 5.8607 5.7168-3.156-3.025 3.3556 2.9825 4.5274 3.6389 4.0468 3.1359 12.805 9.7017 16.22 13.511-1.0408-0.76843-2.0815-1.5369-3.1223-2.3053z"/>
   <path id="path3459" opacity=".8" d="m62.381 988.57c-1-0.6407-1.9721-1.323-2.9443-2.0026-0.76125-0.48565-1.4285-1.1183-2.2281-1.5472-0.43865-0.21061-0.72976 0.0223-0.99832 0.35432-0.21034 0.41111-0.34965 0.86323-0.47324 1.3074-0.19158 0.40084-0.32711 0.82208-0.55128 1.2077-0.23873 0.4622-0.73175 0.73707-1.1624 1.0177-0.49651 0.31193-0.99563 0.36211-1.5242 0.10934-0.07821-0.0553-0.16556-0.10024-0.23464-0.1659-0.98413-0.9354-1.9579-1.881-2.9227-2.8351-0.17428-0.17236-0.1954-0.2895-0.33212-0.4864-0.08535-0.12292-0.25309-0.30488-0.35252-0.41674 0.84081 0.82182 1.6816 1.6436 2.5224 2.4654-0.09868-0.0731-0.2544-0.27743-0.4072-0.26012-0.13916 0.0158-0.26568 0.17974-0.34408 0.25509-0.38912 0.60482-0.73838 1.2325-1.1535 1.8216-0.29457 0.43098-0.58874 0.85928-0.86026 1.3044-0.28337 0.41972-0.73333 0.56191-1.2195 0.64156-0.67126 0.0708-1.2043-0.27912-1.6964-0.67384-1.6794-1.4816-3.1697-2.3767-3.4497-4.395-0.13301-0.51212-0.14868-1.0323-0.56809-1.4086 0.85237 0.83697 1.7123 1.6668 2.5571 2.5109 0.04976 0.0497-0.10914-0.0905-0.17032-0.12633-0.25673-0.15062-0.56362-0.18817-0.8569-0.19626-0.40313 0.0421-0.80725 0.10271-1.1707 0.28297-0.32607 0.22681-0.6684 0.45276-0.89933 0.77536-0.24379 0.31868-0.48539 0.63263-0.785 0.90517-1.7409 1.1282-3.9736 1.4284-5.9732 1.8707-4.4294 0.95009-8.6466 2.5889-12.856 4.1866l-1.8968-1.9823c4.0987-1.7023 8.1882-3.4655 12.498-4.6235 1.8639-0.54312 3.8838-0.96753 5.4584-2.1344 0.27506-0.26422 0.50515-0.56082 0.73759-0.85998 0.28153-0.35525 0.65121-0.62025 1.0165-0.89134 0.40282-0.23156 0.84722-0.31681 1.3059-0.39024 1.93-0.25672 2.9633 1.6637 4.1691 2.9371 0.25882 0.47936 0.32841 1.0168 0.44167 1.5413 0.369 1.6934 2.3943 2.9964-1.8477-1.0252 0.37808 0.3913 0.83184 0.78245 1.4019 0.85542 0.3778-0.037 0.74622-0.0761 0.96639-0.41254 0.28777-0.43967 0.5934-0.86528 0.89895-1.2932 0.42445-0.60701 0.7996-1.2426 1.1923-1.8684 0.25815-0.27862 0.56536-0.64865 1.0007-0.49831 0.07427 0.0257 0.15518 0.0489 0.21168 0.10217 0.98627 0.92754 1.9388 1.888 2.9082 2.8319 0.17089 0.21963 0.32263 0.45349 0.50109 0.66746 0.06248 0.0749 0.2669 0.28528 0.19557 0.21815-0.7878-0.74132-3.5291-3.3668-2.3468-2.2403 0.41001 0.35877 0.66513 0.45403 1.175 0.17651 0.38698-0.23791 0.818-0.47457 1.0215-0.88874 0.19586-0.36962 0.32562-0.76759 0.49589-1.1484 0.15547-0.48189 0.30041-0.98127 0.58409-1.4087 0.34932-0.41709 0.78377-0.81492 1.3839-0.68585 0.91071 0.32601 1.5618 1.1092 2.3722 1.6024 0.91775 0.65418 1.8711 1.2599 2.79 1.9104l2.419 3.0065z"/>
   <path id="path3478" opacity=".8" d="m24.446 1024.6c-0.35828 0.3275-0.60916 0.7182-0.7627 1.1681-0.0781 0.3424-0.15334 0.738 0.02682 1.067 0.05588 0.102 0.13628 0.1898 0.20441 0.2847 0.43013 0.5488 0.92997 1.0389 1.5068 1.4427 0.38136 0.2795 0.81032 0.4357 1.2799 0.4996 0.38936 0.034 0.77999 0.019 1.1621-0.059 0.88378-0.3745 1.6475-0.9767 2.4203-1.5279l1.4628-2.1616c-0.73134 0.5426-1.4725 1.0846-2.2792 1.5181-0.3574 0.094-0.7136 0.138-1.0863 0.1146-0.43475-0.029-0.83293-0.1429-1.1892-0.3964-0.56279-0.3605-1.0508-0.8168-1.4279-1.3602-0.23344-0.4577-0.20856-0.7242-0.03625-1.1995 0.20428-0.433 0.52178-0.7785 0.82459-1.1488l-2.1062 1.7589z"/>
   <path id="path3482" opacity=".8" d="m35.361 1011.5c0.20392 0.2369 0.74349 0.7348 0.75268 0.7952-0.6044-0.5366-1.2008-1.0822-1.8281-1.594 0.80927 0.8297 1.893 1.3663 3.0406 1.6046 1.07 0.2648 2.1323 0.5601 3.1893 0.8657 1.6038 0.334 3.2478 0.4322 4.8786 0.5655 0.71366-0.011 1.8845 0.172 2.056-0.7466 0.14401-0.7938-0.47207-1.412-0.94897-1.9715 0.63858 0.5509 1.2465 1.1361 1.8882 1.6847-0.61797-0.5427-1.4036-0.8663-2.1972-1.0891-0.61205-0.6699-1.2241-1.3398-1.8362-2.0097 1.0767 0.2831 2.1124 0.76 2.915 1.5222 0.76738 0.6675 1.6068 1.3163 2.1243 2.1936 0.36018 0.6578 0.41295 1.6639-0.33049 2.096-0.77995 0.4311-1.7148 0.2301-2.5657 0.215-1.7932-0.1832-3.6247-0.247-5.349-0.8015-1.4242-0.482-2.9847-0.6242-4.289-1.4024-0.77444-0.4816-1.2781-1.2576-1.9945-1.8096-0.46763-0.393-1.0009-0.6986-1.4098-1.1545-0.50857-0.6329 0.53469 0.1903 0.79421 0.3224 0.36998 0.238 0.73995 0.4761 1.1099 0.714z"/>
   <path id="path3669" d="m36.49 1015.9c1.9352 1.1942 4.3257 1.1343 6.5337 1.0914 2.1245-0.037 4.4328-0.113 6.2914 1.048 0.60466 0.41 1.2941 0.8727 1.4088 1.6335 0.43013 1.6471-0.57804 3.2888-1.8507 4.3185-1.4902 1.2083-3.5277 2.0188-5.4868 1.5985-1.2448-0.2635-2.2103-1.2605-2.5766-2.4163-1.5439-2.3653-2.9415-4.816-4.3199-7.2736z" fill-rule="evenodd" fill="url(#linearGradient39270)"/>
   <path id="path3692" d="m54.791 994.01c2.399 1.6883 3.5296 4.1042 4.5887 6.3332 1.0252 2.1435 2.0943 4.4805 4.415 6.0989 0.79357 0.5196 1.6926 1.1131 2.6587 1.0646 2.1828 0.077 3.636-1.2893 4.2253-2.7903 0.69309-1.7582 0.63622-3.981-0.85071-5.86-0.9406-1.1946-2.6165-1.9505-4.1805-2.0699-3.6005-1.0427-7.229-1.92-10.856-2.7765z" fill-rule="evenodd" fill="url(#linearGradient39267)"/>
  </g>
  <path id="path3638" opacity=".5" d="m119.64 999.21c-3.324 0-6 2.676-6 6v33.219c0.33636 0.019 0.65958 0.044 1 0.063v-32.281c0-2.7818 2.2182-5 5-5h2.0625l1.25 8c0.0632 0.4988 0.49725 0.8671 1 0.875 0.50275 0.01 0.9212-0.3472 1-0.8438l1.0312-5.2812 0.625 2.0312c0.1402 0.4258 0.55201 0.702 1 0.6875 0.44799-0.014 0.82503-0.3161 0.9375-0.75l1.0938-4.7187h5.4688c0.13079 0.1154 0.33143 0.265 0.34375 0.2812 0.34585 0.4573 0.49218 0.9314 1.2812 1.2188 0.38967 0.1419 0.83448 0.086 1.125-0.031 0.29052-0.1171 0.51778-0.2633 0.78125-0.4375 0.47306-0.3127 0.54728-0.6784 0.71875-1.0312h0.75c0.14566 0.4248 0.25011 0.9218 0.46875 1.5 0.0525 0.1388 0.0617 0.2487 0.28125 0.5 0.10976 0.1257 0.36874 0.4189 0.875 0.375 0.50625-0.044 0.76216-0.433 0.84375-0.5938 0.16318-0.3215 0.11436-0.4058 0.125-0.5312 0.0106-0.1254 0.00024-0.2423 0-0.375-0.00043-0.2396-0.0154-0.5769-0.0313-0.875h48.969c2.7818 0 5 2.2182 5 5v7.9375c-0.006 0.01-0.0225 0.055-0.0313 0.063-0.0121 0.011-0.15665 0.096-0.625 0.1875-1.2129 0.236-2.5404 0.3454-3.6562 0.5625-0.32294 0.063-0.64202 0.1239-0.96875 0.1875-0.0309 0.01-0.0701 0.013-0.125 0.031s-0.24925 0.1246-0.25 0.125c-0.00038 0.0003-0.18726 0.156-0.1875 0.1563s-0.21865 0.3435-0.21875 0.3437c-0.0001 0.0003-0.0313 0.4685-0.0313 0.4688 0.00004 0.0003 0.12483 0.3747 0.125 0.375s0.15594 0.2184 0.15625 0.2187c0.00031 0.0004 0.0599 0.068 0.0937 0.094 0.0678 0.051 0.11933 0.075 0.15625 0.094 0.0738 0.038 0.12396 0.052 0.15625 0.063 0.12914 0.044 0.15304 0.049 0.21875 0.063 0.13143 0.026 0.29843 0.062 0.5 0.094 0.40314 0.065 0.95419 0.1255 1.5312 0.2187 0.21821 0.035 0.4077 0.088 0.625 0.125-0.003 0.2034-0.0443 0.4178 0.0313 0.5625 0.2438 0.4673 0.54184 0.5257 0.78125 0.625 0.15594 0.065 0.34661 0.1108 0.53125 0.1563 0.007 0.042 0.026 0.048 0.0313 0.1875 0.0127 0.3347-0.0486 0.7586-0.0625 1.1875-0.0794 0.027-0.16291 0.048-0.3125 0.1562-0.20943 0.1509-0.44187 0.51-0.46875 0.8438-0.058 0.7198 0.20008 0.8805 0.4375 1.25 0.42714 0.6648 1.0062 0.9373 1.5625 1.1562v3.2188c-1.1699 0.6119-2.453 1.3441-3.0938 1.4687-0.81555 0.1587-1.8026 0.4211-2.2812 0.5625-0.0624 0.018-0.12934 0.042-0.1875 0.063-0.0582 0.02-0.0611 0.01-0.25 0.125-0.0472 0.029-0.11011 0.038-0.21875 0.1563-0.0272 0.03-0.0935 0.1247-0.0937 0.125-0.00023 0.0003-0.0936 0.1872-0.0937 0.1875-0.00013 0.0003-0.0937 0.281-0.0937 0.2812-0.00004 0.0003 0.0312 0.3435 0.0313 0.3438 0.00006 0.0003 0.12484 0.3122 0.125 0.3125s0.18724 0.2185 0.1875 0.2187c0.00026 0.0003 0.15588 0.1248 0.15625 0.125 0.00037 0.0003 0.0882 0.048 0.125 0.063 0.14715 0.059 0.22629 0.056 0.28125 0.063 0.21983 0.024 0.24435 0.01 0.3125 0 0.27258-0.029 0.64929-0.1027 1.4062-0.25 0.83651-0.1627 1.3866-0.079 1.7188 0.031 0.32763 0.1084 0.41721 0.2133 0.625 0.375 0.44848 0.349 0.8982 0.5194 1.3438 0.7187v36.562c-0.81837 0.197-1.2574 0.3296-2.0312 0.5313 0.96838-0.256 2.0997-0.5446 3.0312-0.75v-37.969c-0.63757-0.2632-1.1884-0.4935-1.7188-0.9062-0.1392-0.1083-0.42969-0.3632-0.9375-0.5313-0.50781-0.168-1.235-0.2538-2.2188-0.063-1.4978 0.2914-1.6442 0.282-1.2188 0.1563 0.42547-0.1257 1.4243-0.3828 2.1875-0.5313 1.1259-0.219 2.6582-1.1805 3.9062-1.8125v-4.5312c-0.68207-0.2549-1.3986-0.533-1.7188-1.0313-0.20483-0.3187-0.29016-0.5143-0.28125-0.625 0.009-0.1106 0.10446-0.1495 0.21875-0.1875s0.26368-0.056 0.375-0.1562c0.11132-0.1006 0.1875-0.2952 0.1875-0.5938 0-0.3191 0.082-0.8619 0.0625-1.375-0.01-0.2565-0.0377-0.4994-0.125-0.6875-0.0873-0.188-0.22417-0.3334-0.4375-0.375-0.56121-0.1091-0.81824-0.2349-0.875-0.3437-0.0568-0.1088 0.0769-0.1905 0.28125-0.2813 0.40861-0.1815 1.1011-0.3081 1.0938-0.3125-0.65315-0.3811-5.1164-0.9217-4.875-0.9687 0.32484-0.063 0.64392-0.1243 0.96875-0.1875 1.0233-0.1991 2.3697-0.3122 3.6562-0.5625 0.55993-0.1089 0.88548-0.2528 1.0938-0.4375 0.20827-0.1847 0.29608-0.3944 0.375-0.5938v-8.1562c0-3.324-2.676-6-6-6h-50.031c0.0943 1.3811 0.19471 2.919-0.0937 2.1562-0.20553-0.5434-0.32572-1.1127-0.53125-1.6562-0.052-0.1375-0.0975-0.33148-0.15625-0.5h-1.9688c-0.2351 0.48652-0.45735 0.9734-0.78125 1.1875-0.49514 0.3273-0.76026 0.4623-1 0.375-0.23974-0.087-0.45412-0.4012-0.8125-0.875-0.15994-0.21147-0.44187-0.43448-0.75-0.6875h-6.6562l-1.2812 5.5-1.6875-5.5h-0.21875l-1.7188 8.8437-1.375-8.8437h-2.9375zm74.969 69.812c-0.89115 0.2323-2.0776 0.5247-2.3438 0.5937-0.60773 0.1577-1.0127 0.2428-1.3125 0.3438-0.14992 0.051-0.22645 0.037-0.53125 0.2812-0.0762 0.061-0.17748 0.1353-0.28125 0.3438s-0.15522 0.5986-0.0313 0.875c0.24795 0.5527 0.53333 0.5547 0.65625 0.5937 0.23947 0.076 0.35011 0.052 0.5 0.063s0.30412 0.027 0.5 0.031c0.39177 0.01 0.90051 0 1.5 0h3.375v6.0625c0 2.4341-1.7118 4.4436-4 4.9062 2.8472-0.4713 5-2.9213 5-5.9062v-7.0625h-0.5-3.875c-1.198 0-1.996 0-2.1875-0.063-0.1915-0.061 0.23046-0.1869 1.4375-0.5 0.3199-0.083 1.1254-0.3065 2.0938-0.5625zm-77.25-30.375c0.80836 0.061 1.5368 0.1356 2.0312 0.2187 0.64556 0.1086-0.10827 0.2421-1.125 0.3438s-2.3136 0.1974-2.8125 0.2812c-0.60768 0.1022-1.2006 0.1552-1.8125 0.25v1.0313c0.37152 0.036 0.69223 0.031 0.90625 0.031 0.79002 0.0001 1.1323 0.2198 1.2812 0.5625 0.14898 0.3428 0.0937 0.8152 0.0937 1.375 0 0.4199-0.91575 0.6714-1.125 1.375-0.0748 0.2515-0.61801 0.5109-1.1562 0.75v2.1875c0.71848 0.025 1.4116 0.06 1.8125 0.3125 0.27517 0.1735-0.76856 0.3764-1.8125 0.5625v7.5c0.28487 0.046 0.62446 0.1211 1 0.2188v-5.9063c0.22135-0.045 0.46524-0.074 0.65625-0.125 0.21472-0.058 0.37731-0.079 0.65625-0.25 0.13947-0.086 0.43089-0.2175 0.53125-0.75 0.0502-0.2662-0.0348-0.595-0.15625-0.7812-0.1215-0.1862-0.24685-0.2514-0.34375-0.3125-0.46097-0.2906-0.90648-0.3979-1.3438-0.4375v-0.5625c0.0948-0.049 0.18765-0.1007 0.28125-0.1563 0.28487-0.1691 0.64293-0.2934 0.84375-0.9687-0.00077 0 0.0759-0.093 0.3125-0.2813 0.11832-0.094 0.26337-0.192 0.4375-0.375 0.17413-0.1829 0.40625-0.5278 0.40625-1 0-0.4934 0.16443-1.0435-0.15625-1.7812-0.0913-0.2101-0.34056-0.3524-0.53125-0.5313 0.56934-0.061 1.3221-0.1384 2.125-0.2187 0.52733-0.053 0.96886-0.092 1.3438-0.1875 0.0937-0.024 0.164-0.052 0.3125-0.125 0.0743-0.036 0.17472-0.08 0.3125-0.2188 0.13778-0.1384 0.36936-0.4796 0.3125-0.875-0.0569-0.3953-0.30592-0.5926-0.4375-0.6875-0.13158-0.095-0.20874-0.1299-0.28125-0.1562-0.14503-0.053-0.26176-0.075-0.375-0.094-0.56302-0.095-1.3328-0.1612-2.1875-0.2187zm-2.7188 17c1.0897 0.2834 2.3965 0.7119 2.875 0.8125 1.0648 0.2238 1.1853 0.336 0.84375 0.4375-0.34159 0.1015-1.1303 0.1768-1.9375 0.3125-0.95534 0.1606-1.8942 0.4569-2.7812 0.6562v19.344c0 2.9849 2.1528 5.4349 5 5.9062-2.2882-0.4626-4-2.4721-4-4.9062v-18.531c0.66162-0.1696 1.3233-0.3654 1.9375-0.4687 0.76131-0.128 1.4445-0.1601 2.0625-0.3438 0.14965-0.044 0.35042 0.05 0.71875-0.4687 0.18416-0.2592 0.19783-0.8419 0.0313-1.125-0.16658-0.2831-0.32958-0.376-0.4375-0.4375-0.43167-0.2461-0.66061-0.2577-1.2188-0.375-0.18814-0.039-0.92881-0.2474-1.6875-0.4688-0.47356-0.1381-0.9398-0.2305-1.4062-0.3437zm39.062 20.594c-0.00043 0.0001-0.53085 0.1873-0.53125 0.1875-0.0004 0.0003-0.24963 0.2495-0.25 0.25-0.00038 0.0006-0.0724 0.1095-0.0937 0.1563-0.0213 0.047-0.0526 0.094-0.0625 0.125-0.0197 0.062-0.0254 0.093-0.0313 0.125-0.0439 0.2414-0.00076 0.2275 0 0.2812 0.00076 0.054-0.00036 0.1068 0 0.1563 0.003 0.4255-0.0182 1.1704-0.0625 1.6875-0.0891-0.047-0.11899-0.105-0.25-0.125-0.0523-0.01-0.10369 0-0.15625 0 0.0149-0.013 0.0148 0.018 0.0313 0.063 0.0656 0.1778 0.16768 0.771 0.4375 1.4687 0.10788 0.279 0.21618 0.3574 0.3125 0.2813 0.0963-0.076 0.17078-0.2971 0.25-0.5625 0.15844-0.5308 0.287-1.269 0.34375-1.5625 0.12808-0.6624 0.0973-1.7611 0.0937-2.25-0.00089-0.1222-0.006-0.2182 0-0.25 0.0174-0.095 0.0853 0.2959 0.28125 1.5625 0.16001 1.0345 0.55165 2.667 0.71875 3.5312 0.16585 0.8578 0.26937 1.2974 0.375 1.8438h0.84375c-0.0651-0.3105-0.12732-0.5584-0.21875-1.0313-0.17794-0.9203-0.57226-2.5529-0.71875-3.5-0.0983-0.6352-0.17128-1.0469-0.21875-1.3125-0.0237-0.1327-0.0286-0.2208-0.0625-0.3437-0.008-0.031-0.009-0.067-0.0313-0.125-0.0112-0.029-0.035-0.042-0.0625-0.094-0.0138-0.026-0.037-0.056-0.0625-0.094s-0.0933-0.1557-0.0937-0.1563c-0.00049-0.0005-0.28079-0.1872-0.28125-0.1875-0.00046-0.0002-0.49957-0.125-0.5-0.125zm-1.4375 2.8438c-0.28384 0.01-0.56037 0.139-0.6875 0.25-0.30134 0.2632-0.28226 0.3853-0.3125 0.4687-0.0302 0.083-0.0169 0.1287-0.0313 0.1875-0.0573 0.2356-0.12667 0.5238-0.21875 1-0.0349 0.1806-0.30931 0.796-0.59375 1.375-0.13804 0.2811-0.29116 0.557-0.40625 0.8438h0.8125c-0.0467-0.5869 1.0134-2.131 1.1875-3.0313 0.13986-0.7233 0.20538-1.0547 0.25-1.0937zm-19.375 1c0.10432-0.032 0.24356 0.1989 0.46875 0.7812 0.29726 0.7688 0.51235 1.6241 0.65625 2.3438h0.75c0.26973-0.4879 0.55273-1.1108 0.78125-1.4063 0.01-0.013 0.0198-0.025 0.0313-0.031-0.31178 0.041-0.68619 0.2025-0.84375 0.4062-0.074 0.096-0.093 0.1826-0.15625 0.2813-0.0971-0.33-0.1551-0.6425-0.28125-0.9688-0.12163-0.3145-0.20528-0.5506-0.34375-0.7812-0.0692-0.1153-0.13258-0.224-0.3125-0.375-0.13494-0.1133-0.4354-0.2419-0.75-0.25zc-0.10487 0-0.2095-0.0008-0.3125 0.031-0.37693 0.1173-0.48644 0.3285-0.5625 0.4375-0.0761 0.1091-0.10043 0.1666-0.125 0.2188-0.1573 0.3344-0.192 0.5765-0.25 0.875s-0.12186 0.6292-0.1875 0.9687c-0.0449 0.2324-0.0599 0.3891-0.0937 0.5938h0.84375c0.0932-0.4331 0.15326-0.9059 0.25-1.4063 0.1371-0.709 0.22652-1.3445 0.34375-1.5937 0.0293-0.062 0.059-0.1142 0.0937-0.125zm49.906 1.1875c-0.3035 0.048-0.59016 0.2265-0.71875 0.375-0.17146 0.198-0.2142 0.3225-0.25 0.4375-0.0716 0.23-0.081 0.4047-0.0937 0.5937-0.0113 0.1688-0.0255 0.3476-0.0313 0.5313h0.96875c0.0379-0.4891 0.0358-1.0721 0.0625-1.4688 0.02-0.2975 0.0686-0.4867 0.15625-0.4687h-0.0937zm0.0937 0c0.0292 0.01 0.0518 0.04 0.0937 0.094 0.22802 0.2949 0.60721 1.1421 0.9375 1.8438h0.65625c-0.0846-0.1805-0.16546-0.3585-0.25-0.5313-0.17318-0.3539-0.29657-0.634-0.53125-0.9375-0.0131-0.017-0.0494-0.042-0.125-0.125s-0.23588-0.2765-0.5625-0.3437c-0.0668-0.014-0.14822 0-0.21875 0zm-43.562 0.094c-0.085 0.01-0.167 0.01-0.25 0.031-0.28941 0.082-0.46964 0.1919-0.65625 0.3125-0.27615 0.1785-1.094 0.5589-1.5938 0.75-0.0248-0.021-0.0332 0-0.0625-0.031-0.0994-0.096-0.17643-0.2162-0.375-0.375-0.0993-0.079-0.21399-0.2123-0.53125-0.2812-0.0617-0.013-0.14077-0.01-0.21875 0 0.10441 0.023 0.24995 0.1945 0.4375 0.375 0.25006 0.2406 0.56576 0.4851 0.90625 0.375 0.63353-0.2048 1.5815-0.6982 2-0.9688 0.12752-0.082 0.24328-0.1552 0.34375-0.1875zm0.3125 0c0.13074 0.042 0.2108 0.1552 0.3125 0.2813 0.21349 0.2647 0.44372 0.6111 1 0.625-0.0125-0.01-0.0839-0.083-0.21875-0.25-0.10394-0.1289-0.37874-0.4999-0.90625-0.625-0.0364-0.01-0.1185-0.022-0.1875-0.031zm1.9062 0.9063c0.0988 0.01 0.16529 0.021 0.21875 0.063 0.12118 0.094 0.1707 0.3211 0.375 0.875h0.6875c-0.0697-0.1829-0.13372-0.4522-0.4375-0.6875-0.30875-0.2392-0.64955-0.2438-0.84375-0.25z" fill="url(#linearGradient39224)"/>
 </g>
</svg>
