<?xml version="1.0" encoding="UTF-8" standalone="no"?>
<!-- Created with Inkscape (http://www.inkscape.org/) -->
<svg id="svg2" xmlns:rdf="http://www.w3.org/1999/02/22-rdf-syntax-ns#" xmlns="http://www.w3.org/2000/svg" height="96" width="96" version="1.1" xmlns:cc="http://creativecommons.org/ns#" xmlns:xlink="http://www.w3.org/1999/xlink" xmlns:dc="http://purl.org/dc/elements/1.1/">
 <defs id="defs4">
  <linearGradient id="linearGradient3700-09">
   <stop id="stop3702-67" stop-color="#70a83e" offset="0"/>
   <stop id="stop3704-18" stop-color="#9fd058" offset="1"/>
  </linearGradient>
  <linearGradient id="linearGradient9745" y2="5.9877" xlink:href="#linearGradient3700-09" gradientUnits="userSpaceOnUse" x2="48" gradientTransform="translate(-169.06 968.2)" y1="90" x1="48"/>
  <clipPath id="clipPath3613-23">
   <rect id="rect3615-21" rx="6" ry="6" height="84" width="84" y="6" x="6" fill="#fff"/>
  </clipPath>
  <filter id="filter3794-24" height="1.384" width="1.384" color-interpolation-filters="sRGB" y="-.192" x="-.192">
   <feGaussianBlur id="feGaussianBlur3796-40" stdDeviation="5.28"/>
  </filter>
  <linearGradient id="linearGradient6387" y2="5.9877" gradientUnits="userSpaceOnUse" x2="48" gradientTransform="translate(153.56 939.13)" y1="90" x1="48">
   <stop id="stop3702-98" stop-color="#f57900" offset="0"/>
   <stop id="stop3704-76" stop-color="#fab234" offset="1"/>
  </linearGradient>
  <radialGradient id="radialGradient6389" gradientUnits="userSpaceOnUse" cy="48" cx="48" gradientTransform="translate(153.56 939.13)" r="42">
   <stop id="stop3910" stop-color="#d45500" stop-opacity=".34351" offset="0"/>
   <stop id="stop3912" stop-color="#e65c00" offset="1"/>
  </radialGradient>
  <linearGradient id="linearGradient6391" y2="138.66" gradientUnits="userSpaceOnUse" x2="48" y1="20.221" x1="48">
   <stop id="stop3739-43" stop-color="#fff" offset="0"/>
   <stop id="stop3741-96" stop-color="#fff" stop-opacity="0" offset="1"/>
  </linearGradient>
  <clipPath id="clipPath6393" clipPathUnits="userSpaceOnUse">
   <path id="path6395" d="m172.81 947.18c-6.2632 0-11.286 5.0648-11.286 11.325v57.301c0 6.2604 5.0233 11.296 11.286 11.296h57.346c6.2632 0 11.286-5.0355 11.286-11.296v-57.301c0-6.2604-5.0233-11.325-11.286-11.325h-57.346z" fill="url(#radialGradient6397)"/>
  </clipPath>
  <radialGradient id="radialGradient6397" gradientUnits="userSpaceOnUse" cy="6" cx="6" gradientTransform="matrix(.98684 0 0 -.99127 154.6 1034.8)" r="42">
   <stop id="stop4982" stop-color="#74c332" offset="0"/>
   <stop id="stop4984" stop-color="#9ecd5e" offset="1"/>
  </radialGradient>
 </defs>
 <metadata id="metadata7">
  <rdf:RDF>
   <cc:Work rdf:about="">
    <dc:format>image/svg+xml</dc:format>
    <dc:type rdf:resource="http://purl.org/dc/dcmitype/StillImage"/>
    <dc:title/>
   </cc:Work>
  </rdf:RDF>
 </metadata>
 <g id="layer1" transform="translate(0 -956.36)">
  <g id="g5523">
   <rect id="rect5263-0" fill-opacity=".019608" ry="12.724" height="89.978" width="89.624" y="959.35" x="3.3534"/>
   <rect id="rect5261-6" fill-opacity=".039216" ry="12.552" height="88.762" width="88.413" y="959.96" x="3.9589"/>
   <rect id="rect5259-9" fill-opacity=".078431" ry="12.38" height="87.546" width="87.202" y="960.57" x="4.5645"/>
   <rect id="rect5257-5" fill-opacity=".15686" ry="12.208" height="86.33" width="85.991" y="961.18" x="5.1701"/>
  </g>
  <g id="g6381" clip-path="url(#clipPath6393)" transform="matrix(1.0605 0 0 1.0651 -165.51 -47.079)">
   <rect id="rect2419-4" rx="6" ry="6" height="84" width="84" y="945.13" x="159.56" fill="url(#linearGradient6387)"/>
   <path id="path4141" opacity=".5" d="m159.56 1014.3 40.656-25.781-26.156 40.656h18.5l9-40.219 8.75 40.219h18.375l-25.781-40.656 40.656 26.156v-18.5l-40.219-9 40.219-8.75v-18.375l-40.656 25.781 26.156-40.656h-18.5l-9 40.219-8.75-40.219h-18.375l25.781 40.656-40.656-26.156v18.5l40.219 9-40.219 8.75v18.375z" fill="url(#radialGradient6389)"/>
   <g id="layer5" transform="translate(153.56 939.13)">
    <rect id="rect3171" height="66" stroke="#fff" stroke-linecap="round" stroke-width=".5" fill="url(#linearGradient6391)" rx="12" ry="12" width="66" opacity=".1" clip-path="url(#clipPath3613-23)" filter="url(#filter3794-24)" y="15" x="15"/>
   </g>
  </g>
  <path id="rect5265-0" d="m5.7756 1029.8v5.0663c0 6.668 5.3434 12.032 11.985 12.032h60.809c6.6418 0 11.985-5.3645 11.985-12.032v-5.0663c0 6.6681-5.3434 12.032-11.985 12.032h-60.809c-6.6418 0-11.985-5.3643-11.985-12.032z" fill-opacity=".23529"/>
  <path id="path5252-0" d="m5.7756 1033.9v1.0133c0 6.668 5.3434 12.032 11.985 12.032h60.809c6.6418 0 11.985-5.3645 11.985-12.032v-1.0133c0 6.6681-5.3434 12.032-11.985 12.032h-60.809c-6.6418 0-11.985-5.3644-11.985-12.032z" fill-opacity=".098039"/>
  <rect id="rect4772" display="none" height="107.79" width="107.79" y="971.68" x="-369.64" fill="none"/>
  <g id="g4788" display="none" transform="matrix(.21052 0 0 .21052 -369.68 971.63)"></g>
  <g id="g4806" display="none" transform="matrix(.21052 0 0 .21052 -369.68 971.63)">
   <g id="g4808" display="inline">
    <path id="path4810" d="m349.1 256.65c-0.265-0.254 37.637 27.605 39.421 25.012 6.362-9.252 82.046-93.137 84.784-116.24 0.242-2.003-0.516-4.096-0.516-4.096s-1.19-0.144-6.325-4.314c-2.692-2.192-5.483-4.581-5.483-4.581-16.054 0.998-57.885 41.559-111.06 103.57" fill="#050505" display="none"/>
   </g>
  </g>
  <g id="g4796" transform="matrix(.21052 0 0 .21052 -369.68 971.63)"></g>
  <rect id="rect3873" rx="6" ry="6" height="84" width="84" display="none" y="974.2" x="-163.06" fill="url(#linearGradient9745)"/>
  <rect id="rect3880" rx="6" ry="6" height="84" width="84" display="none" y="974.2" x="-163.06" fill="url(#linearGradient9745)"/>
  <g id="g6373" transform="translate(-153.52 14.062)">
   <g id="layer4" transform="translate(153.56 939.13)">
    <path id="path3906" opacity=".05" d="m73.75 12.969a1.0459 1.0459 0 0 0 -0.031 0.031c-4.8148 1.192-9.7666 2.1059-14.656 3.375a1.0459 1.0459 0 0 0 -0.21875 0.0625c-1.1577 0.59188-1.5737 1.8363-1.625 2.7812-0.05129 0.94494 0.08381 1.7881 0.03125 2.2812a1.0459 1.0459 0 0 0 0 0.125c-0.01283 14.172 0.01387 28.365-0.03125 42.531a1.0459 1.0459 0 0 0 0 0.03125c0.03285 1.0303-0.231 2.2593-0.71875 3.0312-0.48775 0.77193-0.99262 1.1511-2.125 0.9375a1.0459 1.0459 0 0 0 -0.28125 0c-1.6475 0.14825-3.3768-0.48435-5.3438-0.875a1.0459 1.0459 0 0 0 -0.28125 0c-0.9987 0.04593-1.8088 0.64458-2.25 1.3438-0.41068 0.65076-0.53618 1.3683-0.5625 2.0625h-0.03125c-0.57528 3.6214-1.2752 7.2504-1.7812 10.938a1.0459 1.0459 0 0 0 0 0.3125c0.09627 0.69899 0.43001 1.2995 0.875 1.7188 0.44499 0.41923 0.97193 0.67585 1.4688 0.84375 0.99365 0.33581 1.9832 0.4214 2.5312 0.59375a1.0459 1.0459 0 0 0 0.125 0.03125c7.408 1.3961 16.136 1.0067 22.188-4.5 5.3408-4.8972 6.216-12.391 6.0312-18.938-0.000287-0.01018 0.000292-0.02108 0-0.03125-0.021-15.355 0.041-30.736-0.032-46.094a1.0459 1.0459 0 0 0 0 -0.125c-0.20357-1.5649-1.6495-2.6346-3.1875-2.4688a1.0459 1.0459 0 0 0 -0.09375 0z" fill="#2b1100"/>
    <path id="path3900" opacity="0.08" d="m73.969 14c-4.8557 1.2021-9.815 2.1185-14.656 3.375-1.5703 0.80283-0.87958 2.8315-1.0312 4.2544-0.01283 14.17 0.02573 28.341-0.0194 42.511 0.077 2.4151-1.0633 5.6146-4.0744 5.0467-1.9476 0.17525-3.8005-0.50644-5.6562-0.875-1.3095 0.06023-1.8632 1.391-1.8721 2.5403-0.57887 3.644-1.2832 7.2788-1.7841 10.928 0.26721 1.9402 2.6914 1.8689 4.1423 2.3252 7.2244 1.3616 15.599 0.9355 21.295-4.2477 4.995-4.58 5.902-11.747 5.717-18.18-0.021-15.37 0.042-30.753-0.031-46.115-0.125-0.957-1.072-1.665-2.031-1.562z" fill="#2b1100"/>
    <path id="path3895" opacity=".15" d="m74.062 14.812a1.0385 1.0385 0 0 0 -0.09375 0.03125l-14.062 3.157a1.0385 1.0385 0 0 0 -0.8125 1v44.312c-0.000005 2.3967-0.44565 4.1216-1.1562 5.1875-0.65674 0.98511-1.7527 1.5-3.75 1.5-1.1591-0.000004-2.1172-0.07683-2.7812-0.1875-0.74963-0.11533-1.5393-0.3256-2.4375-0.625a1.0385 1.0385 0 0 0 -1.375 0.84375l-1.906 11.407a1.0385 1.0385 0 0 0 0.6875 1.1562c1.59 0.52997 3.3007 0.86702 5.125 1.0625 1.7061 0.18955 3.0222 0.31248 4 0.3125 6.2179-0.000019 11.153-1.6271 14.594-5 3.4645-3.3966 5.125-8.5709 5.125-15.281v-47.844a1.0385 1.0385 0 0 0 -1.158 -1.032z" fill="#2b1100"/>
    <path id="path3891" opacity=".3" d="m55.504 82.924c-0.88045-0.000018-2.1697-0.09435-3.8677-0.283-1.7609-0.18868-3.396-0.53457-4.9054-1.0377l1.8867-11.414c0.94334 0.31444 1.8238 0.53455 2.6413 0.66034 0.75467 0.12577 1.7295 0.18866 2.9243 0.18867 2.2011-0.000004 3.7419-0.66034 4.6224-1.981 0.88044-1.3207 1.3207-3.2388 1.3207-5.7544v-44.302l14.056-3.1477v47.827c-0.00002 6.5405-1.6037 11.383-4.811 14.527-3.2074 3.1444-7.8297 4.7167-13.867 4.7167" fill="#2b1100"/>
    <path id="path3884" d="m55.504 81.924c-0.88045-0.000018-2.1697-0.09435-3.8677-0.283-1.7609-0.18868-3.396-0.53457-4.9054-1.0377l1.8867-11.414c0.94334 0.31444 1.8238 0.53455 2.6413 0.66034 0.75467 0.12577 1.7295 0.18866 2.9243 0.18867 2.2011-0.000004 3.7419-0.66034 4.6224-1.981 0.88044-1.3207 1.3207-3.2388 1.3207-5.7544v-44.302l14.056-3.1477v47.827c-0.00002 6.5405-1.6037 11.383-4.811 14.527-3.2074 3.1444-7.8297 4.7167-13.867 4.7167" fill="#fff"/>
   </g>
  </g>
 </g>
</svg>
