<?xml version="1.0" encoding="UTF-8" standalone="no"?>
<!-- Created with Inkscape (http://www.inkscape.org/) -->
<svg id="svg2" xmlns:rdf="http://www.w3.org/1999/02/22-rdf-syntax-ns#" xmlns="http://www.w3.org/2000/svg" height="96" width="96" version="1.1" xmlns:cc="http://creativecommons.org/ns#" xmlns:xlink="http://www.w3.org/1999/xlink" xmlns:dc="http://purl.org/dc/elements/1.1/">
 <defs id="defs4">
  <linearGradient id="linearGradient3700-09">
   <stop id="stop3702-67" stop-color="#70a83e" offset="0"/>
   <stop id="stop3704-18" stop-color="#9fd058" offset="1"/>
  </linearGradient>
  <linearGradient id="linearGradient9745" y2="5.9877" xlink:href="#linearGradient3700-09" gradientUnits="userSpaceOnUse" x2="48" gradientTransform="translate(-169.06 968.2)" y1="90" x1="48"/>
  <linearGradient id="linearGradient3803">
   <stop id="stop3805-1" stop-color="#fff" offset="0"/>
   <stop id="stop3807" stop-color="#fff" stop-opacity="0" offset="1"/>
  </linearGradient>
  <linearGradient id="linearGradient4078" y2="17.913" gradientUnits="userSpaceOnUse" x2="36" y1="41" x1="36">
   <stop id="stop3438-3" stop-color="#fff" offset="0"/>
   <stop id="stop3440-2" stop-color="#fff" stop-opacity="0" offset="1"/>
  </linearGradient>
  <linearGradient id="linearGradient3955-6" y2="40.028" gradientUnits="userSpaceOnUse" x2="37" y1="22" x1="37">
   <stop id="stop3951-8" stop-color="#6262e2" offset="0"/>
   <stop id="stop3953-6" stop-color="#8787ed" offset="1"/>
  </linearGradient>
  <radialGradient id="radialGradient3909-1" xlink:href="#linearGradient3873-5" gradientUnits="userSpaceOnUse" cy="26" cx="69" r="3.5"/>
  <linearGradient id="linearGradient3873-5">
   <stop id="stop3875-9" stop-color="#ebebeb" offset="0"/>
   <stop id="stop3877-4" stop-color="#aaa" offset="1"/>
  </linearGradient>
  <radialGradient id="radialGradient3907-1" xlink:href="#linearGradient3873-5" gradientUnits="userSpaceOnUse" cy="33" cx="69" r="2.5"/>
  <linearGradient id="linearGradient4608" y2="65" xlink:href="#linearGradient4507-5" gradientUnits="userSpaceOnUse" x2="38" y1="65" x1="24"/>
  <linearGradient id="linearGradient4507-5">
   <stop id="stop4509" stop-color="#ebebeb" offset="0"/>
   <stop id="stop4511" stop-color="#696969" offset="1"/>
  </linearGradient>
  <linearGradient id="linearGradient4495" y2="63" xlink:href="#linearGradient4507-5" gradientUnits="userSpaceOnUse" x2="72" y1="63" x1="54"/>
  <radialGradient id="radialGradient3933-5" gradientUnits="userSpaceOnUse" cy="33" cx="69" r="2.5">
   <stop id="stop3937-5" stop-color="#9e9e9e" offset="0"/>
   <stop id="stop3939-0" stop-color="#494949" offset="1"/>
  </radialGradient>
  <linearGradient id="linearGradient4226" y2="44" xlink:href="#linearGradient4212" gradientUnits="userSpaceOnUse" x2="42" y1="22" x1="42"/>
  <linearGradient id="linearGradient4212">
   <stop id="stop4214" stop-color="#3737c8" offset="0"/>
   <stop id="stop4216" stop-color="#3737c8" stop-opacity="0" offset="1"/>
  </linearGradient>
  <linearGradient id="linearGradient4218" y2="45" xlink:href="#linearGradient4212" gradientUnits="userSpaceOnUse" x2="38" y1="22" x1="38"/>
  <linearGradient id="linearGradient4505" y2="65" xlink:href="#linearGradient4499" gradientUnits="userSpaceOnUse" x2="40" y1="65" x1="26"/>
  <linearGradient id="linearGradient4499">
   <stop id="stop4501" stop-color="#cacaca" offset="0"/>
   <stop id="stop4503" stop-color="#fff" offset="1"/>
  </linearGradient>
  <linearGradient id="linearGradient4541" y2="65" xlink:href="#linearGradient4535" gradientUnits="userSpaceOnUse" x2="53.019" gradientTransform="matrix(0,-1,1,0,-32,98)" y1="65" x1="26"/>
  <linearGradient id="linearGradient4535">
   <stop id="stop4537" offset="0"/>
   <stop id="stop4539-4" stop-opacity="0" offset="1"/>
  </linearGradient>
  <linearGradient id="linearGradient4567" y2="27" xlink:href="#linearGradient4535" gradientUnits="userSpaceOnUse" x2="69" y1="27" x1="65"/>
  <linearGradient id="linearGradient4618" y2="65" xlink:href="#linearGradient4499" gradientUnits="userSpaceOnUse" x2="38" y1="65" x1="24"/>
  <linearGradient id="linearGradient4629" y2="65" xlink:href="#linearGradient4535" gradientUnits="userSpaceOnUse" x2="47.8" gradientTransform="matrix(0 -.71429 .71429 0 18.571 87.143)" y1="65" x1="24"/>
  <radialGradient id="radialGradient19338" xlink:href="#linearGradient3803" gradientUnits="userSpaceOnUse" cy="79.971" cx="48.016" gradientTransform="matrix(.87895 0 0 .87976 6.0031 959.6)" r="33.984"/>
  <linearGradient id="linearGradient19341" y2="64" xlink:href="#linearGradient3803" gradientUnits="userSpaceOnUse" x2="48" gradientTransform="matrix(.87895 0 0 .87895 6.0031 959.64)" y1="16" x1="48"/>
  <linearGradient id="linearGradient19345" y2="48" gradientUnits="userSpaceOnUse" x2="83" gradientTransform="matrix(.87895 0 0 .87895 -1044 6.0031)" y1="48" x1="13">
   <stop id="stop3189-62" stop-color="#3d3d3d" offset="0"/>
   <stop id="stop3191-4" stop-color="#696969" offset="1"/>
  </linearGradient>
  <linearGradient id="linearGradient19349" y2="5.9877" gradientUnits="userSpaceOnUse" x2="48" gradientTransform="matrix(1.0723 0 0 1.0723 -3.7671 -3.0294)" y1="90" x1="48">
   <stop id="stop3672" stop-color="#895025" offset="0"/>
   <stop id="stop3674-8" stop-color="#bf7d4e" offset="1"/>
  </linearGradient>
 </defs>
 <metadata id="metadata7">
  <rdf:RDF>
   <cc:Work rdf:about="">
    <dc:format>image/svg+xml</dc:format>
    <dc:type rdf:resource="http://purl.org/dc/dcmitype/StillImage"/>
    <dc:title/>
   </cc:Work>
  </rdf:RDF>
 </metadata>
 <g id="layer1" transform="translate(0 -956.36)">
  <g id="g5523">
   <rect id="rect5263-0" fill-opacity=".019608" ry="12.724" height="89.978" width="89.624" y="959.35" x="3.3534"/>
   <rect id="rect5261-6" fill-opacity=".039216" ry="12.552" height="88.762" width="88.413" y="959.96" x="3.9589"/>
   <rect id="rect5259-9" fill-opacity=".078431" ry="12.38" height="87.546" width="87.202" y="960.57" x="4.5645"/>
   <rect id="rect5257-5" fill-opacity=".15686" ry="12.208" height="86.33" width="85.991" y="961.18" x="5.1701"/>
  </g>
  <path id="rect3772" d="m17.75 5.4062c-6.642 0-11.969 5.3948-11.969 12.063l0.0002 61.031c0 6.668 5.3268 12.031 11.969 12.031h60.812c6.642 0 11.969-5.363 11.969-12.031v-61.031c0-6.668-5.327-12.063-11.969-12.063l-60.812 0.0002z" transform="translate(0 956.36)" fill="url(#linearGradient19349)"/>
  <path id="rect5265-0" d="m5.7756 1029.8v5.0663c0 6.668 5.3434 12.032 11.985 12.032h60.809c6.6418 0 11.985-5.3645 11.985-12.032v-5.0663c0 6.6681-5.3434 12.032-11.985 12.032h-60.809c-6.6418 0-11.985-5.3643-11.985-12.032z" fill-opacity=".23529"/>
  <path id="path5252-0" d="m5.7756 1033.9v1.0133c0 6.668 5.3434 12.032 11.985 12.032h60.809c6.6418 0 11.985-5.3645 11.985-12.032v-1.0133c0 6.6681-5.3434 12.032-11.985 12.032h-60.809c-6.6418 0-11.985-5.3644-11.985-12.032z" fill-opacity=".098039"/>
  <rect id="rect4772" display="none" height="107.79" width="107.79" y="971.68" x="-369.64" fill="none"/>
  <g id="g4788" display="none" transform="matrix(.21052 0 0 .21052 -369.68 971.63)"></g>
  <g id="g4806" display="none" transform="matrix(.21052 0 0 .21052 -369.68 971.63)">
   <g id="g4808" display="inline">
    <path id="path4810" d="m349.1 256.65c-0.265-0.254 37.637 27.605 39.421 25.012 6.362-9.252 82.046-93.137 84.784-116.24 0.242-2.003-0.516-4.096-0.516-4.096s-1.19-0.144-6.325-4.314c-2.692-2.192-5.483-4.581-5.483-4.581-16.054 0.998-57.885 41.559-111.06 103.57" fill="#050505" display="none"/>
   </g>
  </g>
  <g id="g4796" transform="matrix(.21052 0 0 .21052 -369.68 971.63)"></g>
  <rect id="rect3873" rx="6" ry="6" height="84" width="84" display="none" y="974.2" x="-163.06" fill="url(#linearGradient9745)"/>
  <rect id="rect3880" rx="6" ry="6" height="84" width="84" display="none" y="974.2" x="-163.06" fill="url(#linearGradient9745)"/>
  <rect id="rect3776" style="color:#000000" rx="3.5158" ry="3.5158" height="63.301" width="63.262" y="970.17" x="16.573" fill="#1a1a1a"/>
  <rect id="rect3778" style="color:#000000" rx="2.6369" ry="2.6369" transform="rotate(-90)" width="61.527" y="17.429" x="-1032.6" height="61.527" fill="url(#linearGradient19345)"/>
  <path id="rect3789" opacity=".2" style="color:#000000" d="m20.066 971.06c-1.4608 0-2.6369 1.176-2.6369 2.6369v56.253c0 1.4608 1.176 2.6368 2.6369 2.6368h56.253c1.4608 0 2.6369-1.176 2.6369-2.6368v-56.253c0-1.4608-1.176-2.6369-2.6369-2.6369h-56.253zm0 0.76908h56.253c1.0501 0 1.8678 0.81769 1.8678 1.8678v56.253c0 1.0501-0.81769 1.8678-1.8678 1.8678h-56.253c-1.0501 0-1.8678-0.8177-1.8678-1.8678v-56.253c0-1.0501 0.81768-1.8678 1.8678-1.8678z"/>
  <path id="rect3796" opacity=".1" style="color:#000000" d="m20.094 971.91c-0.97388 0-1.7579 0.78403-1.7579 1.7579v56.28c0 0.9739 0.78403 1.7579 1.7579 1.7579h56.225c0.97388 0 1.7579-0.784 1.7579-1.7579v-56.28c0-0.97388-0.78403-1.7579-1.7579-1.7579h-56.225zm0 0.98883h56.225c0.44792 0 0.76909 0.32116 0.76909 0.76908v56.28c0 0.4479-0.32117 0.7691-0.76909 0.7691h-56.225c-0.44793 0-0.76909-0.3212-0.76909-0.7691v-56.28c0-0.44792 0.32116-0.76908 0.76909-0.76908z" fill="url(#linearGradient19341)"/>
  <path id="path3811-8" opacity=".2" style="color:#000000" d="m20.094 1031.7c-0.97388 0-1.7579-0.784-1.7579-1.7579v-38.701c0-0.97388 0.78403-1.7579 1.7579-1.7579h56.225c0.97388 0 1.7579 0.78402 1.7579 1.7579v38.701c0 0.9739-0.78403 1.7579-1.7579 1.7579h-56.225zm0-0.9888h56.225c0.44792 0 0.76909-0.3212 0.76909-0.7691v-38.701c0-0.44792-0.32117-0.76908-0.76909-0.76908h-56.225c-0.44793 0-0.76909 0.32116-0.76909 0.76908v38.701c0 0.4479 0.32116 0.7691 0.76909 0.7691z" fill="url(#radialGradient19338)"/>
  <path id="rect3839" opacity=".2" style="color:#000000" d="m16.578 1030v0.8789c0 1.9478 1.568 3.5158 3.5158 3.5158h56.225c1.9478 0 3.5158-1.568 3.5158-3.5158v-0.8789c0 1.9477-1.568 3.5158-3.5158 3.5158h-56.225c-1.9478 0-3.5158-1.5681-3.5158-3.5158z" fill="#fff"/>
  <g id="layer6" transform="matrix(.87895 0 0 .87895 6.0031 959.64)">
   <path id="path4614" opacity=".1" style="color:#000000" d="m38 65a7 7 0 1 1 -14 0 7 7 0 1 1 14 0z" transform="matrix(0 1.2857 1.2857 0 -18.571 25.143)"/>
   <path id="path4610" opacity=".3" style="color:#000000" d="m38 65a7 7 0 1 1 -14 0 7 7 0 1 1 14 0z" transform="matrix(0 1.1429 1.1429 0 -9.2857 29.571)"/>
   <path id="path4557" opacity=".1" style="color:#000000" d="m72 63a9 9 0 1 1 -18 0 9 9 0 1 1 18 0z" transform="matrix(-1.2222 0 0 1.2222 110 -12)"/>
   <path id="path4479" opacity=".3" style="color:#000000" d="m72 63a9 9 0 1 1 -18 0 9 9 0 1 1 18 0z" transform="matrix(-1.1111 0 0 1.1111 103 -5)"/>
   <path id="path3974" opacity=".3" style="color:#000000" d="m26 20.969c-1.6694 0-3.0312 1.3619-3.0312 3.0312v14c0 1.6694 1.3619 3.0312 3.0312 3.0312h28c1.6694 0 3.0312-1.3619 3.0312-3.0312v-14c0-1.6694-1.3619-3.0312-3.0312-3.0312h-28z" fill="url(#linearGradient4078)"/>
   <rect id="rect3849" style="color:#000000" rx="2" ry="2" height="18" width="32" y="22" x="24" fill="url(#linearGradient3955-6)"/>
   <path id="path3851" style="color:#000000" d="m72 27a3 3 0 1 1 -6 0 3 3 0 1 1 6 0z" stroke-opacity=".68269" transform="matrix(1.5 0 0 1.5 -36.5 -13.5)" stroke="#000" stroke-width=".66667" fill="url(#radialGradient3909-1)"/>
   <path id="path3855" style="color:#000000" d="m71 34a2 2 0 1 1 -4 0 2 2 0 1 1 4 0z" stroke-opacity=".85577" transform="matrix(1.25,0,0,1.25,-59.25,6.5)" stroke="#000" stroke-width="0.8" fill="url(#radialGradient3907-1)"/>
   <path id="path3869" style="color:#000000" d="m38 65a7 7 0 1 1 -14 0 7 7 0 1 1 14 0z" transform="matrix(0,1,1,0,0,34)" fill="url(#linearGradient4608)"/>
   <path id="path3871" style="color:#000000" d="m72 63a9 9 0 1 1 -18 0 9 9 0 1 1 18 0z" transform="matrix(0,1,1,0,-30,2)" fill="url(#linearGradient4495)"/>
   <path id="path3911" style="color:#000000" d="m71 34a2 2 0 1 1 -4 0 2 2 0 1 1 4 0z" stroke-opacity=".85577" transform="matrix(1.25,0,0,1.25,-51.25,6.5)" stroke="#000" stroke-width="0.8" fill="url(#radialGradient3907-1)"/>
   <path id="path3915" style="color:#000000" d="m71 34a2 2 0 1 1 -4 0 2 2 0 1 1 4 0z" stroke-opacity=".85577" transform="matrix(1.25,0,0,1.25,-43.25,6.5)" stroke="#000" stroke-width="0.8" fill="url(#radialGradient3907-1)"/>
   <path id="path3919" style="color:#000000" d="m71 34a2 2 0 1 1 -4 0 2 2 0 1 1 4 0z" stroke-opacity=".85577" transform="matrix(1.25,0,0,1.25,-35.25,6.5)" stroke="#000" stroke-width="0.8" fill="url(#radialGradient3907-1)"/>
   <path id="path3923" style="color:#000000" d="m71 34a2 2 0 1 1 -4 0 2 2 0 1 1 4 0z" stroke-opacity=".85577" transform="matrix(1.25,0,0,1.25,-27.25,6.5)" stroke="#000" stroke-width="0.8" fill="url(#radialGradient3907-1)"/>
   <path id="path3927" style="color:#000000" d="m71 34a2 2 0 1 1 -4 0 2 2 0 1 1 4 0z" stroke-opacity=".85577" transform="matrix(1.25,0,0,1.25,-19.25,6.5)" stroke="#000" stroke-width="0.8" fill="url(#radialGradient3907-1)"/>
   <path id="path3931" style="color:#000000" d="m71 34a2 2 0 1 1 -4 0 2 2 0 1 1 4 0z" stroke-opacity=".71635" transform="matrix(1.25,0,0,1.25,-19.25,-5.5)" stroke="#000" stroke-width="0.8" fill="url(#radialGradient3933-5)"/>
   <path id="path4199" opacity=".15" style="color:#000000" d="m26 22c-1.108 0-2 0.892-2 2v14c0 1.108 0.892 2 2 2h28c1.108 0 2-0.892 2-2v-14c0-1.108-0.892-2-2-2h-28zm0 2h28v14h-28v-14z" fill="url(#linearGradient4226)"/>
   <path id="rect3957" opacity=".6" style="color:#000000" d="m26 22c-1.108 0-2 0.892-2 2v14c0 1.108 0.892 2 2 2h28c1.108 0 2-0.892 2-2v-14c0-1.108-0.892-2-2-2h-28zm0 1h28c0.5656 0 1 0.4344 1 1v14c0 0.5656-0.4344 1-1 1h-28c-0.5656 0-1-0.4344-1-1v-14c0-0.5656 0.4344-1 1-1z" fill="url(#linearGradient4218)"/>
   <rect id="rect4477" opacity=".6" style="color:#000000" height="4" width="28" y="31" x="26" fill="#afafe9"/>
   <path id="path4471" opacity=".7" style="block-progression:tb;text-indent:0;color:#000000;text-transform:none" d="m36.406 23.75-0.03125 0.0625-0.03125 0.15625v0.0625h0.0625 0.15625 0.0625 0.15625l-0.03125 0.15625v0.0625 0.125 0.0625 0.03125l-0.03125 0.125v0.0625 0.15625 0.0625h0.0625 0.125 0.03125l0.03125-0.0625 0.033-0.154v-0.0625-0.125-0.0625-0.03125l0.03125-0.125v-0.0625-0.15625h0.03125 0.125 0.0625 0.15625 0.0625v-0.0625-0.15625-0.0625h-0.0625-0.125-0.03125-0.0625-0.125-0.0625-0.15625-0.0625-0.125-0.03125-0.0625-0.125-0.03125zm2.9062 0v0.0625 0.15625h-0.15625-0.0625v0.0625 0.15625 0.0625l-0.03125 0.125v0.03125 0.03125 0.03125 0.125h-0.03125v0.0625 0.15625 0.0625h0.0625 0.125v0.125 0.03125h-0.15625-0.0625v0.0625 0.125 0.0625l-0.03125 0.15625v0.0625 0.15625h-0.03125v0.0625 0.125 0.0625h0.0625 0.15625 0.0625v-0.0625-0.125-0.0625l0.032-0.152v-0.0625-0.15625-0.0625l0.03125-0.125v-0.03125h0.15625 0.0625 0.125 0.03125 0.0625 0.125v0.03125 0.125 0.0625h0.0625l-0.03125 0.15625v0.0625h0.0625v0.15625 0.0625h0.0625v0.125 0.0625h0.0625 0.125 0.03125l0.03125-0.0625 0.03125-0.125v-0.0625h-0.0625v-0.15625-0.0625h-0.0625v-0.15625-0.0625h-0.0625l0.03125-0.125v-0.03125h0.15625 0.0625v-0.0625-0.125h0.15625 0.0625v-0.0625-0.15625h0.03125v-0.0625-0.125-0.03125-0.03125-0.03125-0.125h0.03125v-0.0625-0.15625-0.0625h-0.0625-0.15625l0.03125-0.15625v-0.0625h-0.0625-0.15625-0.0625-0.125-0.03125-0.0625-0.125-0.0625-0.15625-0.0625-0.15625-0.0625zm2.0312 0-0.03125 0.0625-0.03125 0.15625h-0.15625-0.0625v0.0625 0.15625 0.0625 0.125 0.03125h-0.03125v0.0625 0.125 0.0625l-0.031 0.158v0.0625h0.0625 0.15625l-0.03125 0.125v0.03125h-0.125-0.03125l-0.03125 0.0625-0.03125 0.125v0.0625 0.15625h-0.03125v0.0625 0.15625 0.0625l-0.03125 0.125v0.0625h0.0625 0.15625 0.0625v-0.0625-0.125-0.0625l0.03125-0.15625v-0.0625-0.15625h0.03125v-0.0625-0.125-0.03125h0.15625 0.0625 0.15625 0.0625 0.125 0.03125 0.0625 0.125 0.0625 0.15625v0.03125 0.125h-0.03125v0.0625 0.15625 0.0625l-0.03125 0.15625v0.0625 0.125 0.0625h0.0625 0.125 0.03125l0.03125-0.0625 0.03125-0.125v-0.0625-0.15625h0.03125v-0.0625-0.15625-0.0625-0.125-0.0625h-0.0625-0.125v-0.03125-0.125h0.03125 0.125 0.03125l0.03125-0.0625 0.03125-0.15625v-0.0625-0.125-0.0625-0.03125l0.03125-0.125v-0.0625-0.15625-0.0625h-0.0625-0.125v-0.15625-0.0625h-0.0625-0.125-0.03125-0.0625-0.125-0.0625-0.15625-0.0625-0.15625-0.0625-0.125-0.03125zm-14.781 0.03125-0.03125 0.0625-0.03125 0.125h-0.15625-0.0625v0.0625 0.15625 0.0625l-0.03125 0.15625v0.0625 0.125 0.0625 0.03125l-0.03125 0.125v0.0625h0.0625 0.15625l-0.03125 0.15625v0.0625h0.0625 0.15625 0.0625 0.15625 0.0625 0.125 0.03125 0.0625 0.125 0.0625 0.15625l-0.03125 0.125v0.03125 0.03125 0.03125 0.125 0.0625 0.03125l-0.03125 0.125v0.0625 0.15625h-0.03125-0.125-0.03125-0.0625-0.125-0.0625-0.15625-0.0625-0.15625-0.0625-0.125-0.03125l-0.03125 0.0625-0.03125 0.125v0.0625h0.0625 0.15625 0.0625 0.15625 0.0625 0.125 0.03125 0.0625 0.125 0.0625 0.15625 0.0625v-0.0625-0.125h0.03125 0.125 0.03125l0.03125-0.0625 0.03125-0.15625v-0.0625-0.125-0.0625-0.03125l0.03125-0.125v-0.03125-0.03125-0.03125-0.125-0.0625h-0.0625-0.125v-0.15625-0.0625h-0.0625-0.125-0.03125-0.0625-0.125-0.0625-0.15625-0.0625-0.15625-0.0625-0.125v-0.125-0.0625-0.03125l0.03125-0.125v-0.0625-0.15625h0.03125v-0.0625-0.15625h0.15625 0.0625 0.15625 0.0625 0.125 0.03125 0.03125 0.15625 0.0625 0.15625 0.0625v-0.0625-0.125-0.0625h-0.0625-0.125-0.03125-0.0625-0.125-0.03125-0.03125-0.15625-0.0625-0.15625-0.0625-0.125-0.03125zm1.9688 0-0.03125 0.0625-0.03125 0.125h-0.15625-0.0625v0.0625 0.15625 0.0625l-0.03125 0.15625v0.0625 0.125 0.0625 0.03125l-0.03125 0.125v0.0625h0.0625 0.15625l-0.03125 0.15625h-0.125-0.03125l-0.03125 0.0625-0.03125 0.125v0.03125 0.03125 0.03125 0.125 0.03125h-0.03125v0.0625 0.125 0.0625l-0.03125 0.15625v0.0625h0.0625 0.15625l-0.03125 0.125v0.0625h0.0625 0.15625 0.0625 0.15625 0.0625 0.125 0.03125 0.0625 0.125 0.0625 0.15625 0.0625v-0.0625-0.125-0.0625h-0.0625-0.125-0.03125-0.0625-0.125-0.0625-0.15625-0.0625-0.125-0.03125-0.0625-0.125v-0.15625-0.0625l0.03125-0.125v-0.03125-0.03125-0.03125-0.125-0.03125h0.03125v-0.0625-0.125h0.15625 0.0625 0.15625 0.0625 0.125 0.03125 0.0625 0.125 0.0625 0.15625 0.0625v-0.0625-0.15625-0.0625h-0.0625-0.125-0.03125-0.0625-0.125-0.0625-0.15625-0.0625-0.15625-0.0625-0.125v-0.125-0.0625-0.03125l0.03125-0.125v-0.0625-0.15625-0.0625l0.03125-0.15625h0.15625 0.0625 0.15625 0.0625 0.125 0.03125 0.0625 0.125 0.0625 0.15625 0.0625v-0.0625-0.125-0.0625h-0.0625-0.125-0.03125-0.0625-0.125-0.0625-0.15625-0.0625-0.15625-0.0625-0.125-0.03125zm3.875 0v0.0625 0.125h-0.03125-0.125-0.0625v0.0625 0.15625h-0.03125v0.0625 0.15625 0.0625 0.125 0.03125h-0.03125v0.0625 0.125 0.0625h0.0625 0.125v0.15625h-0.15625-0.0625v0.0625 0.125 0.0625 0.03125l-0.03125 0.125v0.03125 0.03125 0.03125 0.125h-0.03125v0.0625 0.15625 0.0625h0.0625 0.125v0.125 0.0625h0.0625 0.15625 0.0625 0.125 0.03125 0.0625 0.125 0.0625 0.15625 0.0625 0.125 0.03125l0.03125-0.0625 0.03125-0.125v-0.0625h-0.0625-0.15625-0.0625-0.125-0.03125-0.0625-0.125-0.0625-0.15625-0.0625-0.15625l0.03125-0.15625v-0.0625-0.125-0.03125h0.03125v-0.0625-0.125-0.0625-0.03125l0.03125-0.125h0.15625 0.0625 0.125 0.03125 0.0625 0.125 0.0625 0.15625 0.0625 0.125 0.03125l0.03125-0.0625 0.03125-0.15625v-0.0625h-0.0625-0.15625-0.0625-0.125-0.03125-0.0625-0.125-0.0625-0.15625-0.0625-0.15625l0.03125-0.125v-0.03125-0.03125-0.03125-0.125h0.03125v-0.0625-0.15625-0.0625-0.15625h0.03125 0.15625 0.0625 0.125 0.03125 0.03125 0.15625 0.0625 0.15625 0.0625 0.125 0.03125l0.03125-0.0625 0.03125-0.125v-0.0625h-0.0625-0.15625-0.0625-0.125-0.03125-0.0625-0.125-0.03125-0.03125-0.15625-0.0625-0.15625-0.0625zm1.9688 0v0.0625 0.125h-0.03125-0.125-0.0625v0.0625 0.15625h-0.03125v0.0625 0.15625 0.0625l-0.03125 0.125v0.03125 0.03125 0.03125 0.125 0.0625h0.0625 0.125 0.03125l0.03125-0.0625 0.03125-0.125v-0.03125-0.03125-0.03125-0.125-0.0625l0.03125-0.15625v-0.0625-0.15625h0.03125 0.125 0.03125 0.0625 0.125 0.0625 0.15625 0.0625 0.125 0.03125 0.0625 0.125 0.03125l0.03125-0.0625 0.03125-0.125v-0.0625h-0.0625-0.15625-0.0625-0.125-0.03125-0.0625-0.125-0.03125-0.0625-0.125-0.0625-0.15625-0.0625zm8.9062 0v0.0625 0.125 0.0625h0.0625 0.15625 0.0625 0.125v0.15625 0.0625l-0.03125 0.15625v0.0625 0.125 0.0625 0.03125l-0.03125 0.125v0.0625h0.0625 0.15625 0.0625v-0.0625-0.125-0.0625-0.03125l0.03125-0.125v-0.0625-0.15625-0.0625l0.03125-0.15625h0.15625 0.0625 0.125 0.03125l-0.03125 0.15625v0.0625 0.15625h-0.03125v0.0625 0.125 0.0625 0.03125l-0.03125 0.125v0.0625h0.0625 0.15625 0.0625v-0.0625-0.125-0.0625-0.03125l0.03125-0.125v-0.0625-0.15625h0.03125v-0.0625-0.15625-0.0625h-0.0625-0.125-0.03125l0.03125-0.125v-0.0625h-0.0625-0.15625-0.0625-0.125-0.03125-0.0625-0.125-0.0625-0.15625-0.0625-0.15625-0.0625zm2.0312 0-0.03125 0.0625-0.03125 0.125v0.0625h0.0625 0.15625 0.0625 0.15625l-0.03125 0.15625v0.0625 0.15625h-0.03125v0.0625 0.125 0.0625 0.03125l-0.03125 0.125v0.0625 0.15625 0.0625l-0.03125 0.125v0.03125 0.03125 0.03125 0.125 0.0625 0.03125l-0.03125 0.125v0.0625l-0.031 0.159h-0.15625-0.0625-0.125-0.03125l-0.03125 0.0625-0.03125 0.125v0.0625h0.0625 0.15625 0.0625 0.15625 0.0625 0.125 0.03125 0.0625 0.125 0.0625 0.15625 0.0625v-0.0625-0.125-0.0625h-0.0625-0.125-0.03125-0.0625-0.125v-0.15625h0.03125v-0.0625-0.125-0.0625-0.03125l0.03125-0.125v-0.03125-0.03125-0.03125-0.125-0.0625l0.03125-0.15625v-0.0625-0.125-0.0625-0.03125l0.03125-0.125v-0.0625-0.15625h0.03125v-0.0625-0.15625h0.15625 0.0625 0.15625 0.0625v-0.0625-0.125-0.0625h-0.0625-0.125-0.03125-0.0625-0.125-0.03125-0.03125-0.15625-0.0625-0.15625-0.0625-0.125-0.03125zm1.9375 0v0.0625 0.125h-0.03125-0.125-0.03125l-0.03125 0.0625-0.032 0.156v0.0625 0.15625 0.0625l-0.03125 0.125v0.03125 0.03125 0.03125 0.125 0.0625h0.0625 0.125 0.0625v-0.0625-0.125-0.03125h0.03125v-0.0625-0.125-0.0625l0.03125-0.15625v-0.0625-0.15625h0.03125 0.125 0.03125 0.03125 0.15625 0.0625 0.15625 0.0625 0.125 0.03125 0.0625 0.125v0.15625h-0.03125v0.0625 0.15625 0.0625 0.125 0.03125h-0.03125v0.0625 0.125 0.0625h0.0625 0.125 0.03125l0.03125-0.0625 0.03125-0.125v-0.03125-0.03125-0.03125-0.125h0.03125v-0.0625-0.15625-0.0625l0.03125-0.15625v-0.0625h-0.0625-0.15625v-0.125-0.0625h-0.0625-0.125-0.0625-0.15625-0.0625-0.15625-0.0625-0.125-0.03125-0.03125-0.15625-0.0625zm-7.8125 0.09375h0.03125v0.03125h-0.03125v-0.03125zm2.1875 0h0.03125v0.03125h-0.03125v-0.03125zm-11.407 0.125v0.0625 0.125 0.03125h-0.03125v0.0625 0.125 0.0625l-0.03125 0.15625v0.0625 0.125 0.0625h0.0625 0.125 0.03125l0.03125-0.0625 0.03125-0.125v-0.0625-0.15625h0.03125v-0.0625-0.125-0.03125-0.03125-0.03125-0.125-0.0625h-0.0625-0.125-0.0625zm9.1562 0.03125h0.15625 0.0625 0.125 0.03125 0.0625 0.125 0.0625 0.15625 0.0625 0.125v0.15625 0.0625 0.125 0.03125h-0.03125v0.0625 0.125 0.0625l-0.03125 0.15625h-0.15625-0.0625-0.125-0.03125-0.0625-0.125-0.0625-0.15625-0.0625-0.15625l0.03125-0.15625v-0.0625l0.03125-0.125v-0.03125-0.03125-0.03125-0.125-0.0625l0.03125-0.15625zm1.9688 0h0.15625 0.0625 0.15625 0.0625 0.125 0.03125 0.0625 0.125 0.0625 0.15625l-0.03125 0.15625v0.0625 0.125 0.0625 0.03125l-0.03125 0.125v0.0625 0.15625h-0.03125-0.125-0.03125-0.0625-0.125-0.0625-0.15625-0.0625-0.125-0.03125-0.0625-0.125v-0.15625-0.0625l0.03125-0.125v-0.03125-0.03125-0.03125-0.125h0.03125v-0.0625-0.15625zm-14.938 0.0625h0.03125v0.03125h-0.03125v-0.03125zm14.062 0h0.03125v0.03125h-0.03125v-0.03125zm0.71875 0h0.03125v0.03125h-0.03125v-0.03125zm-8.9062 0.21875h0.03125v0.03125h-0.03125v-0.03125zm16.094 0h0.03125v0.03125h-0.03125v-0.03125zm-21.625 0.625h0.03125v0.03125h-0.03125v-0.03125zm1.9688 0h0.03125v0.03125h-0.03125v-0.03125zm3.7188 0h0.03125v0.03125h-0.03125v-0.03125zm-2.3125 0.09375v0.0625 0.15625h-0.03125v0.0625 0.15625 0.0625l-0.03125 0.125v0.03125 0.03125 0.03125 0.125 0.0625h0.0625 0.125v0.15625 0.0625h0.0625 0.15625 0.0625 0.125 0.03125 0.0625 0.125 0.0625 0.15625 0.0625 0.125 0.03125l0.03125-0.0625 0.03125-0.15625v-0.0625h-0.0625-0.15625-0.0625-0.125-0.03125-0.0625-0.125-0.0625-0.15625-0.0625-0.15625l0.03125-0.125v-0.03125-0.03125-0.03125-0.125h0.03125v-0.0625-0.15625-0.0625l0.03125-0.15625v-0.0625h-0.0625-0.15625-0.0625zm3.9375 0v0.0625 0.125 0.03125h-0.03125v0.0625 0.125 0.03125 0.03125 0.03125 0.125h-0.03125v0.0625 0.15625 0.0625h0.0625 0.125v0.125 0.0625h0.0625 0.15625 0.0625 0.125 0.03125 0.03125 0.15625 0.0625 0.15625 0.0625 0.125 0.03125l0.03125-0.0625 0.03125-0.125v-0.0625h-0.0625-0.15625-0.0625-0.125-0.03125-0.0625-0.125-0.03125-0.03125-0.15625-0.0625-0.15625l0.03125-0.15625v-0.0625-0.125-0.03125h0.03125v-0.0625-0.125-0.03125-0.03125-0.03125-0.125-0.0625h-0.0625-0.125-0.0625zm2.6562 0-0.03125 0.0625-0.03125 0.125v0.0625 0.15625 0.0625l-0.03125 0.15625v0.0625 0.125 0.0625h0.0625 0.125 0.03125l0.03125-0.0625 0.03125-0.125v-0.0625-0.15625-0.0625l0.03125-0.15625v-0.0625-0.125-0.0625h-0.0625-0.125-0.03125zm6.875 0v0.0625 0.125 0.03125 0.03125 0.03125 0.125 0.03125h-0.03125v0.0625 0.125 0.0625l-0.03125 0.15625h-0.15625-0.0625-0.125-0.03125l-0.03125 0.0625-0.03125 0.125v0.0625h0.0625 0.15625 0.0625 0.125 0.03125 0.0625 0.125 0.03125 0.03125 0.15625 0.0625 0.15625 0.0625v-0.0625-0.125h0.15625 0.0625v-0.0625-0.15625h0.03125v-0.0625-0.125-0.03125-0.03125-0.03125-0.125-0.03125h0.03125v-0.0625-0.125-0.0625h-0.0625-0.125-0.03125l-0.03125 0.0625-0.03125 0.125v0.03125 0.03125 0.03125 0.125 0.03125h-0.03125v0.0625 0.125 0.0625l-0.03125 0.15625h-0.15625-0.0625-0.125v-0.15625-0.0625l0.03125-0.125v-0.03125-0.03125-0.03125-0.125-0.03125h0.03125v-0.0625-0.125-0.0625h-0.0625-0.15625-0.0625zm3.375 0-0.03125 0.0625-0.03125 0.125v0.03125 0.03125 0.03125 0.125 0.0625 0.03125l-0.03125 0.125v0.0625 0.15625 0.0625h0.0625 0.125v0.125 0.0625h0.0625 0.125 0.03125 0.03125 0.15625 0.0625 0.15625 0.0625 0.125 0.03125 0.0625 0.125 0.0625v-0.0625-0.125h0.03125 0.125 0.03125l0.03125-0.0625 0.03125-0.15625v-0.0625l0.03125-0.125v-0.03125-0.03125-0.03125-0.125-0.0625-0.03125l0.03125-0.125v-0.0625h-0.0625-0.15625-0.0625v0.0625 0.125 0.0625 0.03125l-0.03125 0.125v0.0625 0.03125l-0.03125 0.125v0.0625 0.15625h-0.03125-0.125-0.0625-0.15625-0.0625-0.125-0.03125-0.0625-0.125-0.03125-0.03125-0.15625v-0.15625h0.03125v-0.0625-0.125-0.0625-0.03125l0.03125-0.125v-0.03125-0.03125-0.03125-0.125-0.0625h-0.0625-0.125-0.03125zm-4.625 0.3125h0.03125v0.03125h-0.03125v-0.03125zm-12.125 0.03125h0.03125v0.03125h-0.03125v-0.03125zm9.8438 0.1875h0.03125v0.03125h-0.03125v-0.03125zm-9.689 0.438h0.03125v0.03125h-0.03125v-0.03125zm0.0625 1.6875v0.0625 0.15625h-0.03125-0.125-0.03125l-0.03125 0.0625-0.03125 0.15625v0.0625 0.125 0.0625l-0.03125 0.15625v0.0625 0.15625 0.0625h0.0625 0.125v0.125 0.03125h-0.03125-0.125-0.0625v0.0625 0.125h-0.03125v0.0625 0.15625 0.0625l-0.03125 0.15625v0.0625 0.125 0.0625h0.0625 0.125 0.03125l0.03125-0.0625 0.03125-0.125v-0.0625-0.15625-0.0625l0.03125-0.15625v-0.0625-0.125-0.03125h0.03125 0.125 0.03125 0.0625 0.125 0.0625 0.15625v0.03125l-0.03125 0.125v0.0625h0.0625v0.15625 0.0625h0.0625v0.15625 0.0625h0.0625l-0.03125 0.125v0.0625h0.0625 0.15625 0.0625v-0.0625-0.125-0.0625h-0.0625l0.03125-0.15625v-0.0625h-0.0625v-0.15625-0.0625h-0.0625v-0.125-0.03125h0.03125 0.125 0.03125l0.03125-0.0625 0.03125-0.125h0.15625 0.0625v-0.0625-0.15625-0.0625l0.03125-0.15625v-0.0625-0.125-0.0625l0.03125-0.15625v-0.0625h-0.0625-0.15625v-0.15625-0.0625h-0.0625-0.125-0.0625-0.15625-0.0625-0.125-0.03125-0.0625-0.125-0.0625-0.15625-0.0625zm1.9688 0.03125v0.0625 0.125h-0.15625-0.0625v0.0625 0.15625 0.0625l-0.03125 0.15625v0.0625 0.125 0.0625 0.03125l-0.03125 0.125v0.0625h0.0625 0.15625 0.0625v-0.0625-0.125-0.0625-0.03125l0.03125-0.125v-0.0625-0.15625-0.0625l0.03125-0.15625h0.15625 0.0625 0.125 0.03125 0.0625 0.125 0.0625 0.15625 0.0625 0.125v0.15625 0.0625 0.15625h-0.03125v0.0625 0.125 0.0625 0.03125l-0.03125 0.125v0.0625h0.0625 0.15625 0.0625v-0.0625-0.125-0.03125h0.03125v-0.0625-0.125-0.0625-0.15625h0.03125v-0.0625-0.15625-0.0625h-0.0625-0.15625l0.03125-0.125v-0.0625h-0.0625-0.15625-0.0625-0.125-0.03125-0.0625-0.125-0.0625-0.15625-0.0625-0.15625-0.0625zm1.9688 0v0.0625 0.125h-0.15625-0.0625v0.0625 0.15625 0.0625l-0.03125 0.15625v0.0625 0.125 0.0625 0.03125l-0.03125 0.125v0.0625h0.0625 0.125 0.03125l0.03125-0.0625 0.03125-0.125v-0.03125-0.03125-0.03125-0.125h0.03125v-0.0625-0.15625-0.0625l0.03125-0.15625h0.15625 0.0625 0.125 0.03125 0.0625 0.125 0.0625 0.15625 0.0625 0.125 0.03125l0.03125-0.0625 0.03125-0.125v-0.0625h-0.0625-0.15625-0.0625-0.125-0.03125-0.0625-0.125-0.0625-0.15625-0.0625-0.15625-0.0625zm1.75 0.1875v0.0625 0.15625 0.0625l-0.03125 0.15625v0.0625 0.125 0.0625 0.03125l-0.03125 0.125v0.0625h0.0625 0.15625l-0.03125 0.15625h-0.15625-0.0625v0.0625 0.15625 0.0625l-0.032 0.129v0.0625 0.15625 0.0625l-0.03125 0.15625v0.0625h0.0625 0.15625 0.0625v-0.0625-0.15625-0.0625l0.03125-0.15625v-0.0625-0.125-0.0625l0.03125-0.15625h0.15625 0.0625 0.125 0.03125 0.0625 0.125 0.03125 0.03125 0.15625 0.0625 0.15625l-0.03125 0.15625v0.0625 0.125 0.0625l-0.03125 0.15625v0.0625 0.15625 0.0625h0.0625 0.125 0.0625v-0.0625-0.15625h0.03125v-0.0625-0.15625-0.0625l0.03125-0.125v-0.0625-0.15625-0.0625h-0.0625-0.125v-0.15625-0.0625h-0.0625-0.125v-0.125-0.03125h0.03125l0.03125-0.0625 0.03125-0.125h0.03125l0.03125-0.0625 0.03125-0.15625h0.0625v-0.0625-0.15625-0.0625h-0.0625-0.125-0.0625v0.0625 0.15625h-0.03125-0.0625v0.0625 0.15625h-0.03125-0.0625v0.0625 0.125 0.03125h-0.03125l-0.03125 0.0625-0.03125 0.125h-0.15625-0.0625-0.15625-0.0625-0.125v-0.125-0.0625-0.03125l0.03125-0.125v-0.0625-0.15625-0.0625l0.03125-0.15625v-0.0625h-0.0625-0.15625-0.0625zm-5.6562 0.0625h0.03125 0.125 0.03125 0.0625 0.125 0.0625 0.15625 0.0625 0.125 0.03125 0.0625 0.125v0.15625 0.0625l-0.03125 0.125v0.0625 0.15625h-0.03125v0.0625 0.15625h-0.15625-0.0625-0.15625-0.0625-0.125-0.03125-0.0625-0.125-0.0625-0.15625l0.03125-0.15625v-0.0625-0.15625-0.0625l0.03125-0.125v-0.0625-0.15625zm3.0938 0.0625h0.03125v0.03125h-0.03125v-0.03125zm-2.0312 0.625h0.03125v0.03125h-0.03125v-0.03125zm0.5625 0.3125v0.0625 0.125 0.0625 0.03125l-0.03125 0.125v0.0625 0.15625h-0.03125v0.0625 0.15625 0.0625h0.0625 0.15625l-0.03125 0.125v0.0625h0.0625 0.15625 0.0625 0.125 0.03125 0.0625 0.125 0.03125 0.03125 0.15625 0.0625 0.15625 0.0625v-0.0625-0.125h0.15625 0.0625v-0.0625-0.15625-0.0625l0.03125-0.15625v-0.0625l0.03125-0.125v-0.03125-0.03125-0.03125-0.125-0.0625h-0.0625-0.125-0.03125l-0.03125 0.0625-0.03125 0.125v0.03125 0.03125 0.03125 0.125 0.0625l-0.03125 0.15625v0.0625l-0.03125 0.15625h-0.125-0.03125-0.0625-0.125-0.03125-0.03125-0.15625-0.0625-0.15625-0.0625-0.125v-0.15625-0.0625l0.03125-0.15625v-0.0625-0.125-0.0625-0.03125l0.03125-0.125v-0.0625h-0.0625-0.15625-0.0625zm1.9688 0v0.0625 0.125 0.0625 0.03125l-0.03125 0.125v0.0625 0.15625h-0.03125v0.0625 0.15625 0.0625h0.0625 0.125 0.03125l-0.03125 0.125v0.0625h0.0625 0.15625 0.0625 0.125 0.03125 0.0625 0.125 0.03125 0.03125 0.15625 0.0625 0.15625 0.0625v-0.0625-0.125-0.0625h-0.0625-0.125-0.03125-0.0625-0.125-0.03125-0.03125-0.15625-0.0625-0.15625-0.0625-0.125-0.03125l0.03125-0.15625v-0.0625l0.03125-0.15625v-0.0625-0.125-0.0625-0.03125l0.03125-0.125v-0.0625h-0.0625-0.15625-0.0625zm-2.9375 0.3125h0.03125v0.03125h-0.03125v-0.03125zm1.0312 0.4375h0.03125v0.03125h-0.03125v-0.03125zm0.25 1.9062v0.0625 0.15625h-0.15625-0.0625v0.0625 0.125 0.0625 0.03125l-0.03125 0.125v0.0625 0.15625 0.0625l-0.03125 0.15625v0.0625h0.0625 0.125v0.125 0.03125h-0.15625-0.0625v0.0625 0.125 0.0625l-0.03125 0.15625v0.0625 0.15625h-0.03125v0.0625 0.125 0.0625h0.0625 0.15625 0.0625v-0.0625-0.125-0.0625l0.03125-0.15625v-0.0625-0.15625-0.0625l0.03125-0.125v-0.03125h0.15625 0.0625 0.125 0.03125 0.0625 0.125 0.0625 0.15625 0.0625 0.15625v0.03125l-0.03125 0.125v0.0625 0.15625 0.0625l-0.03125 0.15625v0.0625l-0.03125 0.125v0.0625h0.0625 0.15625 0.0625v-0.0625-0.125-0.0625l0.03125-0.15625v-0.0625l0.03125-0.15625v-0.0625-0.125-0.0625h-0.0625-0.125v-0.03125-0.125h0.15625 0.0625v-0.0625-0.15625h0.03125v-0.0625-0.15625-0.0625-0.125-0.03125h0.03125v-0.0625-0.125-0.0625h-0.0625-0.15625l0.03125-0.15625v-0.0625h-0.0625-0.15625-0.0625-0.125-0.03125-0.0625-0.125-0.0625-0.15625-0.0625-0.15625-0.0625zm2.0312 0.03125-0.03125 0.0625-0.03125 0.125v0.0625h0.0625 0.15625 0.0625 0.15625 0.0625 0.125 0.03125 0.0625 0.125v0.15625h-0.03125-0.0625v0.0625 0.125 0.03125h-0.03125-0.0625v0.0625 0.125h-0.03125l-0.03125 0.0625-0.03125 0.15625v0.0625h0.0625 0.15625 0.0625v-0.0625-0.15625h0.03125 0.0625v-0.0625-0.125-0.03125h0.03125l0.03125-0.0625 0.03125-0.125h0.03125l0.03125-0.0625 0.03125-0.15625v-0.0625-0.125-0.0625h-0.0625-0.125-0.03125-0.0625-0.125-0.0625-0.15625-0.0625-0.15625-0.0625-0.125-0.03125zm1.9375 0v0.0625 0.125 0.0625h0.0625 0.125 0.03125 0.0625 0.125 0.0625 0.15625 0.0625 0.125v0.15625h-0.03125l-0.03125 0.0625-0.03125 0.125v0.03125h-0.03125l-0.03125 0.0625-0.03125 0.125h-0.0625v0.0625 0.15625 0.0625h0.0625 0.125 0.03125l0.03125-0.0625 0.03125-0.15625h0.0625v-0.0625-0.125-0.03125h0.03125 0.0625v-0.0625-0.125h0.03125 0.0625v-0.0625-0.15625-0.0625-0.125-0.0625h-0.0625-0.125-0.0625-0.15625-0.0625-0.125-0.03125-0.0625-0.125-0.0625-0.15625-0.0625zm-3.8438 0.09375h0.03125v0.03125h-0.03125v-0.03125zm-1.0625 0.125v0.0625 0.125 0.0625l-0.03125 0.15625v0.0625 0.15625h-0.03125v0.0625 0.125 0.0625h0.0625 0.15625 0.0625v-0.0625-0.125-0.0625l0.03125-0.15625v-0.0625-0.15625-0.0625l0.03125-0.125v-0.0625h-0.0625-0.15625-0.0625zm1 0.03125h0.15625 0.0625 0.125 0.03125 0.0625 0.125 0.0625 0.15625 0.0625 0.125v0.125 0.03125 0.03125 0.03125 0.125h-0.03125v0.0625 0.15625 0.0625l-0.03125 0.15625h-0.15625-0.0625-0.125-0.03125-0.0625-0.125-0.0625-0.15625-0.0625-0.125v-0.15625-0.0625l0.03125-0.15625v-0.0625-0.125-0.0625-0.03125l0.03125-0.125zm4.8438 0.0625h0.03125v0.03125h-0.03125v-0.03125zm-3.7812 0.40625h0.03125v0.03125h-0.03125v-0.03125zm-3.4062 0.53125v0.0625 0.15625h-0.03125v0.0625 0.15625 0.0625l-0.03125 0.125v0.0625 0.15625 0.0625h0.0625 0.125v0.15625 0.0625h0.0625 0.125 0.03125 0.0625 0.125 0.03125 0.03125 0.15625 0.0625 0.15625 0.0625 0.125 0.03125l0.03125-0.0625 0.03125-0.15625h0.15625 0.0625v-0.0625-0.15625-0.0625l0.03125-0.125v-0.0625-0.15625-0.0625l0.03125-0.15625v-0.0625h-0.0625-0.15625-0.0625v0.0625 0.15625 0.0625l-0.03125 0.15625v0.0625 0.125h-0.03125v0.0625 0.15625h-0.15625-0.0625-0.15625-0.0625-0.125-0.03125-0.03125-0.15625-0.0625-0.15625l0.03125-0.15625v-0.0625-0.125-0.0625l0.03125-0.15625v-0.0625-0.15625-0.0625h-0.0625-0.125-0.0625zm4.375 0v0.0625 0.125 0.03125h-0.03125-0.0625v0.0625 0.125h-0.03125-0.0625v0.0625 0.15625h-0.03125l-0.03125 0.0625-0.03125 0.15625v0.0625 0.125 0.0625h0.0625 0.125 0.03125 0.03125 0.15625 0.0625 0.15625 0.0625 0.125 0.03125 0.03125 0.15625 0.0625v-0.0625-0.125-0.0625h-0.0625-0.125-0.03125-0.03125-0.15625-0.0625-0.15625-0.0625-0.125v-0.15625h0.03125l0.03125-0.0625 0.03125-0.15625h0.03125l0.03125-0.0625 0.03125-0.125v-0.03125h0.03125l0.03125-0.0625 0.03125-0.125v-0.0625h-0.0625-0.15625-0.0625zm1.9688 0v0.0625 0.125 0.03125h-0.03125l-0.03125 0.0625-0.03125 0.125h-0.03125l-0.03125 0.0625-0.03125 0.15625h-0.03125l-0.03125 0.0625-0.03125 0.15625v0.0625 0.125 0.0625h0.0625 0.125 0.03125 0.0625 0.125 0.03125 0.03125 0.15625 0.0625 0.15625 0.0625 0.125 0.03125l0.03125-0.0625 0.03125-0.125v-0.0625h-0.0625-0.15625-0.0625-0.15625-0.0625-0.125-0.03125-0.03125-0.15625v-0.15625h0.03125 0.0625v-0.0625-0.15625h0.03125 0.0625v-0.0625-0.125-0.03125h0.03125 0.0625v-0.0625-0.125-0.0625h-0.0625-0.15625-0.0625zm-5.0312 0.75h0.03125v0.03125h-0.03125v-0.03125zm-0.442 0.22h0.03125v0.03125h-0.03125v-0.03125zm-0.53125 1.6875-0.03125 0.0625-0.03125 0.15625h-0.125-0.03125l-0.03125 0.0625-0.032 0.158v0.0625 0.125 0.03125h-0.03125v0.0625 0.125 0.0625l-0.03125 0.15625v0.0625h0.0625 0.15625 0.0625v-0.0625-0.15625-0.0625l0.03125-0.125v-0.03125-0.03125-0.03125-0.125h0.03125v-0.0625-0.15625h0.15625 0.0625 0.15625 0.0625 0.125 0.03125 0.0625 0.125 0.0625 0.15625 0.0625v-0.0625-0.15625-0.0625h-0.0625-0.125-0.03125-0.0625-0.125-0.0625-0.15625-0.0625-0.15625-0.0625-0.125-0.03125zm3.9375 0-0.03125 0.0625-0.03125 0.15625h-0.125-0.03125l-0.03125 0.0625-0.03125 0.125v0.03125 0.03125 0.03125 0.125h-0.03125v0.0625 0.15625 0.0625l-0.03125 0.15625v0.0625h0.0625 0.15625l-0.03125 0.125v0.03125h-0.125-0.03125l-0.03125 0.0625-0.03125 0.125v0.0625 0.15625h-0.03125v0.0625 0.125 0.0625 0.03125l-0.03125 0.125v0.0625h0.0625 0.15625 0.0625v-0.0625-0.125-0.0625-0.03125l0.03125-0.125v-0.0625-0.15625h0.03125v-0.0625-0.125-0.03125h0.15625 0.0625 0.15625 0.0625 0.125 0.03125 0.0625 0.125 0.0625 0.15625v0.03125 0.125h-0.03125v0.0625 0.15625 0.0625l-0.03125 0.125v0.03125 0.03125 0.03125 0.125 0.0625h0.0625 0.125 0.03125l0.03125-0.0625 0.03125-0.125v-0.03125-0.03125-0.03125-0.125h0.03125v-0.0625-0.15625-0.0625-0.125-0.0625h-0.0625-0.125v-0.03125-0.125h0.03125 0.125 0.03125l0.03125-0.0625 0.03125-0.15625v-0.0625-0.15625-0.0625l0.03125-0.125v-0.03125-0.03125-0.03125-0.125-0.0625h-0.0625-0.125v-0.15625-0.0625h-0.0625-0.125-0.03125-0.0625-0.125-0.0625-0.15625-0.0625-0.15625-0.0625-0.125-0.03125zm1.9375 0v0.0625 0.15625h-0.03125-0.125-0.03125l-0.032 0.064-0.031 0.156v0.0625 0.125 0.0625 0.03125l-0.03125 0.125v0.0625 0.15625 0.0625h0.0625 0.125v0.15625 0.0625h0.0625 0.125 0.03125 0.0625 0.125 0.0625 0.15625 0.0625 0.125 0.03125 0.0625 0.125v0.125 0.0625 0.03125l-0.03125 0.125v0.0625 0.15625h-0.03125v0.0625 0.15625h-0.15625-0.0625-0.15625-0.0625-0.125-0.03125-0.03125-0.15625-0.0625-0.15625-0.0625v0.0625 0.125 0.0625h0.0625 0.125 0.03125 0.0625 0.125 0.03125 0.03125 0.15625 0.0625 0.15625 0.0625 0.125 0.03125l0.03125-0.0625 0.03125-0.125h0.15625 0.0625v-0.0625-0.15625-0.0625l0.03125-0.15625v-0.0625-0.125-0.0625-0.03125l0.03125-0.125v-0.0625h-0.0625-0.15625l0.03125-0.15625v-0.0625h-0.0625-0.15625-0.0625-0.15625-0.0625-0.125-0.03125-0.0625-0.125-0.0625-0.15625l0.03125-0.15625v-0.0625-0.125-0.0625-0.03125l0.03125-0.125v-0.0625-0.15625h0.03125 0.125 0.03125 0.03125 0.15625 0.0625 0.15625 0.0625 0.125 0.03125 0.0625 0.125 0.0625v-0.0625-0.15625-0.0625h-0.0625-0.125-0.0625-0.15625-0.0625-0.125-0.03125-0.0625-0.125-0.03125-0.03125-0.15625-0.0625zm1.9688 0v0.0625 0.15625h-0.15625-0.0625v0.0625 0.15625 0.0625l-0.03125 0.125v0.03125 0.03125 0.03125 0.125 0.0625l-0.03125 0.15625v0.0625h0.0625 0.125v0.15625 0.0625h0.0625 0.15625 0.0625 0.125 0.03125 0.0625 0.125 0.0625 0.15625 0.0625 0.15625l-0.03125 0.125v0.03125 0.03125 0.03125 0.125h-0.03125v0.0625 0.15625 0.0625l-0.03125 0.15625h-0.125-0.03125-0.0625-0.125-0.03125-0.03125-0.15625-0.0625-0.15625-0.0625-0.125-0.03125l-0.03125 0.0625-0.03125 0.125v0.0625h0.0625 0.15625 0.0625 0.125 0.03125 0.0625 0.125 0.03125 0.03125 0.15625 0.0625 0.15625 0.0625v-0.0625-0.125h0.15625 0.0625v-0.0625-0.15625-0.0625l0.03125-0.15625v-0.0625l0.03125-0.125v-0.03125-0.03125-0.03125-0.125-0.0625h-0.0625-0.125v-0.15625-0.0625h-0.0625-0.15625-0.0625-0.125-0.03125-0.0625-0.125-0.0625-0.15625-0.0625-0.15625l0.03125-0.15625v-0.0625l0.03125-0.125v-0.03125-0.03125-0.03125-0.125-0.0625l0.03125-0.15625h0.15625 0.0625 0.125 0.03125 0.0625 0.125 0.0625 0.15625 0.0625 0.125 0.03125l0.03125-0.0625 0.03125-0.15625v-0.0625h-0.0625-0.15625-0.0625-0.125-0.03125-0.0625-0.125-0.0625-0.15625-0.0625-0.15625-0.0625zm2.0312 0-0.03125 0.0625-0.03125 0.15625v0.0625h0.0625 0.15625 0.0625 0.15625l-0.03 0.158v0.0625 0.125 0.0625 0.03125l-0.03125 0.125v0.0625 0.15625h-0.03125v0.0625 0.15625 0.0625l-0.03125 0.125v0.03125 0.03125 0.03125 0.125 0.0625l-0.03125 0.15625v0.0625 0.15625h-0.03125-0.125-0.03125-0.0625-0.125-0.0625v0.0625 0.125 0.0625h0.0625 0.125 0.0625 0.15625 0.0625 0.15625 0.0625 0.125 0.03125 0.03125 0.15625 0.0625v-0.0625-0.125-0.0625h-0.0625-0.125-0.03125-0.03125-0.15625v-0.15625h0.03125v-0.0625-0.15625-0.0625l0.03125-0.125v-0.03125-0.03125-0.03125-0.125-0.0625l0.03125-0.15625v-0.0625-0.15625h0.03125v-0.0625-0.125-0.0625-0.03125l0.03125-0.125v-0.0625-0.15625h0.03125 0.125 0.0625 0.15625 0.0625v-0.0625-0.15625-0.0625h-0.0625-0.125-0.03125-0.0625-0.125-0.0625-0.15625-0.0625-0.15625-0.0625-0.125-0.03125zm1.9688 0-0.03125 0.0625-0.03125 0.15625h-0.125-0.03125l-0.03125 0.0625-0.033 0.158v0.0625 0.125 0.03125h-0.03125v0.0625 0.125 0.0625l-0.03125 0.15625v0.0625h0.0625 0.15625 0.0625v-0.0625-0.15625-0.0625l0.03125-0.125v-0.03125-0.03125-0.03125-0.125h0.03125v-0.0625-0.15625h0.15625 0.0625 0.15625 0.0625 0.125 0.03125 0.0625 0.125 0.0625 0.15625 0.0625v-0.0625-0.15625-0.0625h-0.0625-0.125-0.03125-0.0625-0.125-0.0625-0.15625-0.0625-0.15625-0.0625-0.125-0.03125zm1.9375 0v0.0625 0.15625h-0.03125-0.125-0.03125l-0.03125 0.0625-0.032 0.127v0.031 0.03125 0.03125 0.125 0.0625l-0.03125 0.15625v0.0625 0.15625 0.0625h0.0625 0.125v0.125 0.03125h-0.03125-0.125-0.0625v0.0625 0.125h-0.03125v0.0625 0.15625 0.0625l-0.03125 0.125v0.03125 0.03125 0.03125 0.125 0.0625h0.0625 0.125 0.0625v-0.0625-0.125-0.03125h0.03125v-0.0625-0.125-0.0625l0.03125-0.15625v-0.0625-0.125-0.03125h0.03125 0.125 0.03125 0.03125 0.15625 0.0625 0.15625 0.0625 0.125 0.03125 0.0625 0.125v0.03125 0.125 0.0625l-0.03125 0.15625v0.0625 0.125 0.03125h-0.03125v0.0625 0.125 0.0625h0.0625 0.15625 0.0625v-0.0625-0.125-0.0625-0.03125l0.03125-0.125v-0.0625-0.15625-0.0625l0.03125-0.125v-0.0625h-0.0625-0.15625v-0.03125-0.125h0.03125 0.125 0.03125l0.03125-0.0625 0.03125-0.15625v-0.0625l0.03125-0.15625v-0.0625-0.125-0.0625-0.03125l0.03125-0.125v-0.0625h-0.0625-0.15625v-0.15625-0.0625h-0.0625-0.125-0.0625-0.15625-0.0625-0.125-0.03125-0.0625-0.125-0.03125-0.03125-0.15625-0.0625zm-13.5 0.125h0.03125v0.03125h-0.03125v-0.03125zm3.9375 0h0.03125v0.03125h-0.03125v-0.03125zm3.75 0h0.03125v0.03125h-0.03125v-0.03125zm2.1875 0h0.03125v0.03125h-0.03125v-0.03125zm1.9688 0h0.03125v0.03125h-0.03125v-0.03125zm-10.438 0.125v0.0625 0.125 0.0625l-0.03125 0.15625v0.0625 0.15625h-0.03125v0.0625 0.125 0.0625h0.0625 0.125 0.03125l0.03125-0.0625 0.03125-0.125v-0.0625-0.15625h0.03125v-0.0625-0.15625-0.0625l0.03125-0.125v-0.0625h-0.0625-0.15625-0.0625zm13.812 0v0.0625 0.125 0.0625 0.15625h-0.03125v0.0625 0.15625 0.0625l-0.03125 0.125v0.0625h0.0625 0.15625 0.0625v-0.0625-0.125-0.0625l0.03125-0.15625v-0.0625-0.15625-0.0625l0.03125-0.125v-0.0625h-0.0625-0.15625-0.0625zm-11.562 0.03125h0.15625 0.0625 0.15625 0.0625 0.125 0.03125 0.0625 0.125 0.0625 0.15625l-0.03125 0.125v0.03125 0.03125 0.03125 0.125 0.0625l-0.03125 0.15625v0.0625 0.15625h-0.03125-0.125-0.03125-0.0625-0.125-0.0625-0.15625-0.0625-0.125-0.03125-0.0625-0.125v-0.15625-0.0625l0.03125-0.15625v-0.0625-0.125-0.03125h0.03125v-0.0625-0.125zm9.875 0h0.03125 0.125 0.03125 0.03125 0.15625 0.0625 0.15625 0.0625 0.125 0.03125 0.0625 0.125v0.125 0.0625 0.03125l-0.03125 0.125v0.0625 0.15625h-0.03125v0.0625 0.15625h-0.03125-0.125-0.0625-0.15625-0.0625-0.125-0.03125-0.0625-0.125-0.03125-0.03125-0.15625l0.03125-0.15625v-0.0625-0.15625-0.0625l0.03125-0.125v-0.03125-0.03125-0.03125-0.125zm-5.9375 0.90625h0.03125v0.03125h-0.03125v-0.03125zm0.84375 0h0.03125v0.03125h-0.03125v-0.03125zm-9.0312 0.09375-0.03125 0.0625-0.03125 0.125v0.03125 0.03125 0.03125 0.125h-0.03125v0.0625 0.15625 0.0625l-0.03125 0.15625v0.0625h0.0625 0.15625v0.125 0.0625h0.0625 0.125 0.0625 0.15625 0.0625 0.15625 0.0625 0.125 0.03125 0.03125 0.15625 0.0625v-0.0625-0.125-0.0625h-0.0625-0.125-0.03125-0.03125-0.15625-0.0625-0.15625-0.0625-0.125-0.03125-0.0625-0.125v-0.15625-0.0625l0.03125-0.15625v-0.0625-0.125-0.03125h0.03125v-0.0625-0.125-0.0625h-0.0625-0.125-0.03125zm1.9062 0v0.0625 0.15625 0.0625l-0.03125 0.15625v0.0625 0.125h-0.03125v0.0625 0.15625 0.0625h0.0625 0.125 0.03125l-0.03125 0.15625v0.0625h0.0625 0.15625 0.0625 0.125 0.03125 0.0625 0.125 0.0625 0.15625 0.0625 0.125 0.03125l0.03125-0.0625 0.03125-0.15625v-0.0625h-0.0625-0.15625-0.0625-0.125-0.03125-0.0625-0.125-0.0625-0.15625-0.0625-0.125-0.03125l0.03125-0.15625v-0.0625-0.125h0.03125v-0.0625-0.15625-0.0625l0.03125-0.15625v-0.0625h-0.0625-0.15625-0.0625zm9.9375 0-0.03125 0.0625-0.03125 0.125v0.03125 0.03125 0.03125 0.125h-0.03125v0.0625 0.15625 0.0625l-0.03125 0.15625v0.0625h0.0625 0.15625v0.125 0.0625h0.0625 0.125 0.0625 0.15625 0.0625 0.15625 0.0625 0.125 0.03125 0.03125 0.15625 0.0625v-0.0625-0.125-0.0625h-0.0625-0.125-0.03125-0.03125-0.15625-0.0625-0.15625-0.0625-0.125-0.03125-0.0625-0.125v-0.15625-0.0625l0.03125-0.15625v-0.0625-0.125-0.03125h0.03125v-0.0625-0.125-0.0625h-0.0625-0.125-0.03125zm3.9375 0-0.03125 0.0625-0.03125 0.15625v0.0625 0.15625h-0.03125v0.0625 0.125 0.0625l-0.03125 0.15625v0.0625h0.0625 0.15625v0.15625 0.0625h0.0625 0.125 0.0625 0.15625 0.0625 0.125 0.03125 0.0625 0.125 0.03125 0.03125 0.15625 0.0625v-0.0625-0.15625-0.0625h-0.0625-0.125-0.03125-0.03125-0.15625-0.0625-0.15625-0.0625-0.125-0.03125-0.0625-0.125v-0.15625-0.0625l0.03125-0.125v-0.0625-0.15625h0.03125v-0.0625-0.15625-0.0625h-0.0625-0.125-0.03125zm-10.531 0.3125h0.03125v0.03125h-0.03125v-0.03125zm1.9375 0.4375h0.03125v0.03125h-0.03125v-0.03125z" fill="#fff"/>
   <path id="path4497" opacity=".5" style="color:#000000" d="m33 72-4.95-2.05-2.05-4.95 2.05-4.95 4.95-2.05 4.95 2.05 2.05 4.95-2.05 4.95z" transform="matrix(0,-1,1,0,-32,98)" fill="url(#linearGradient4505)"/>
   <path id="path4513" opacity=".6" style="color:#000000" d="m26 65 2.062 4.938 4.938 2.062 4.938-2.062 2.062-4.938-2.062-4.938-4.938-2.062-4.938 2.062-2.062 4.938zm1 0 1.75-4.25l4.25-1.75 4.25 1.75 1.75 4.25-1.75 4.25-4.25 1.75-4.25-1.75-1.75-4.25z" fill="url(#linearGradient4541)"/>
   <path id="path4530" style="color:#000000" d="m33 59-4.25 1.781-1.75 4.219 0.219 0.5 1.531-3.75 4.25-1.75 4.25 1.75 1.531 3.75 0.219-0.5-1.75-4.219-4.25-1.781z" fill="#fff"/>
   <path id="path4543" opacity=".3" style="color:#000000" d="m44 57a1 1 0 1 1 -2 0 1 1 0 1 1 2 0z" fill="#fff"/>
   <path id="path4545" opacity=".3" style="color:#000000" d="m44 57a1 1 0 1 1 -2 0 1 1 0 1 1 2 0z" transform="matrix(.86603 .5 -.5 .86603 36.921 -7.7917)" fill="#fff"/>
   <path id="path4547" opacity=".3" style="color:#000000" d="m44 57a1 1 0 1 1 -2 0 1 1 0 1 1 2 0z" transform="matrix(.5 .86603 -.86603 .5 72.792 3.9212)" fill="#fff"/>
   <path id="path4549" opacity=".3" style="color:#000000" d="m44 57a1 1 0 1 1 -2 0 1 1 0 1 1 2 0z" transform="matrix(0 1 -1 0 98 32)" fill="#fff"/>
   <path id="path4551" opacity=".3" style="color:#000000" d="m44 57a1 1 0 1 1 -2 0 1 1 0 1 1 2 0z" transform="matrix(-.5 .86603 -.86603 -.5 105.79 68.921)" fill="#fff"/>
   <path id="path4553" opacity=".3" style="color:#000000" d="m44 57a1 1 0 1 1 -2 0 1 1 0 1 1 2 0z" transform="matrix(-.86603 .5 -.5 -.86603 94.079 104.79)" fill="#fff"/>
   <path id="path4555" opacity=".3" style="color:#000000" d="m44 57a1 1 0 1 1 -2 0 1 1 0 1 1 2 0z" transform="matrix(-1,0,0,-1,66,130)" fill="#fff"/>
   <path id="path4559" opacity=".3" style="color:#000000" d="m69 27a2 2 0 1 1 -4 0 2 2 0 1 1 4 0z" transform="matrix(0,1,-1,0,94,-40)" fill="url(#linearGradient4567)"/>
   <g id="text4569" fill="#fff">
    <path id="path4576" d="m24.564 17.815v0.42578h0.7041v0.22266h-0.7041v0.50488h-0.28809v-1.376h1.0146v0.22266h-0.72656"/>
    <path id="path4578" d="m25.749 18.988c-0.05078 0-0.09635-0.0068-0.13672-0.02051-0.03971-0.01432-0.07357-0.03483-0.10156-0.06152-0.028-0.02734-0.04948-0.06087-0.06445-0.10059-0.01497-0.03971-0.02246-0.08496-0.02246-0.13574 0-0.0625 0.01074-0.11491 0.03223-0.15723 0.02214-0.04297 0.05208-0.07747 0.08984-0.10352 0.03776-0.02669 0.08203-0.0459 0.13281-0.05762 0.05078-0.01237 0.10482-0.01888 0.16211-0.01953l0.22754-0.0039v-0.05371c-0.000001-0.03841-0.0036-0.07031-0.01074-0.0957-0.0065-0.02604-0.01628-0.0472-0.0293-0.06348s-0.0293-0.02767-0.04883-0.03418c-0.01888-0.0072-0.04069-0.01074-0.06543-0.01074-0.02279 0.000001-0.0433 0.0023-0.06152 0.0068-0.01758 0.0046-0.03288 0.0127-0.0459 0.02441-0.01302 0.01107-0.02376 0.02637-0.03223 0.0459-0.0078 0.01888-0.01335 0.04297-0.0166 0.07227l-0.28613-0.01367c0.0078-0.04622 0.02214-0.08822 0.04297-0.12598 0.02083-0.03841 0.04948-0.07161 0.08594-0.09961 0.03711-0.02799 0.08236-0.04948 0.13574-0.06445 0.05404-0.01562 0.11719-0.02344 0.18945-0.02344 0.06575 0.000001 0.12435 0.0081 0.17578 0.02441 0.05143 0.01628 0.09505 0.04069 0.13086 0.07324 0.03581 0.0319 0.06315 0.07129 0.08203 0.11816 0.01888 0.04688 0.02832 0.10124 0.02832 0.16309v0.38476c-0.000001 0.02474 0.000976 0.04688 0.0029 0.06641 0.0026 0.01953 0.0068 0.03613 0.0127 0.0498 0.0065 0.01302 0.0153 0.02311 0.02637 0.03027 0.01172 0.0065 0.02669 0.0098 0.04492 0.0098 0.02083 0.000001 0.04101-0.002 0.06055-0.0059v0.14844c-0.01628 0.0039-0.03093 0.0075-0.04395 0.01074-0.01302 0.0033-0.02604 0.0059-0.03906 0.0078-0.01302 0.002-0.02702 0.0036-0.04199 0.0049-0.01432 0.0013-0.03125 0.002-0.05078 0.002-0.06901 0-0.12012-0.01693-0.15332-0.05078-0.03255-0.03385-0.05208-0.08366-0.05859-0.14941h-0.0059c-0.03646 0.06575-0.08333 0.11686-0.14062 0.15332-0.05664 0.03646-0.12565 0.05469-0.20703 0.05469m0.31934-0.50879-0.14062 0.002c-0.0293 0.0013-0.05729 0.0039-0.08398 0.0078-0.02604 0.0033-0.04915 0.01074-0.06934 0.02246-0.01953 0.01107-0.03516 0.02734-0.04687 0.04883-0.01172 0.02148-0.01758 0.05078-0.01758 0.08789-0.000001 0.05013 0.01139 0.08757 0.03418 0.1123 0.02344 0.02409 0.05436 0.03613 0.09277 0.03613 0.03515 0.000001 0.06706-0.0075 0.0957-0.02246 0.02865-0.01497 0.05273-0.03451 0.07227-0.05859 0.02018-0.02474 0.03581-0.05306 0.04687-0.08496 0.01107-0.0319 0.0166-0.06445 0.0166-0.09766v-0.05371"/>
    <path id="path4580" d="m27.051 18.988c-0.07617 0-0.14486-0.01107-0.20606-0.0332-0.06055-0.02279-0.1123-0.05697-0.15527-0.10254-0.04297-0.04622-0.07585-0.10384-0.09863-0.17285-0.02279-0.06966-0.03418-0.15104-0.03418-0.24414 0-0.10091 0.01335-0.18587 0.04004-0.25488 0.02734-0.06901 0.0638-0.12467 0.10938-0.16699 0.04622-0.04297 0.09928-0.07389 0.15918-0.09277s0.12305-0.02832 0.18945-0.02832c0.08333 0.000001 0.1543 0.01465 0.21289 0.04395 0.05924 0.02865 0.10775 0.06901 0.14551 0.12109s0.06543 0.11458 0.08301 0.1875c0.01758 0.07227 0.02637 0.15234 0.02637 0.24023v0.0078h-0.67774c0 0.04427 0.0039 0.08561 0.01172 0.12402 0.0078 0.03776 0.02051 0.07064 0.03809 0.09863 0.01758 0.02734 0.04036 0.04915 0.06836 0.06543 0.02799 0.01563 0.06185 0.02344 0.10156 0.02344 0.04818 0 0.08756-0.01009 0.11816-0.03027 0.0306-0.02083 0.05241-0.05273 0.06543-0.0957l0.25879 0.02246c-0.01172 0.02995-0.02832 0.06185-0.0498 0.0957-0.02083 0.03385-0.04883 0.0651-0.08398 0.09375-0.03516 0.028-0.0791 0.05143-0.13184 0.07031-0.05208 0.01823-0.11556 0.02734-0.19043 0.02734m0-0.92285c-0.028 0.000001-0.05436 0.0049-0.0791 0.01465-0.02409 0.0091-0.04525 0.02409-0.06348 0.04492-0.01758 0.02018-0.0319 0.04655-0.04297 0.0791s-0.01725 0.07162-0.01855 0.11719h0.41016c-0.0052-0.08529-0.02572-0.14909-0.06152-0.19141-0.03581-0.04297-0.08399-0.06445-0.14453-0.06445"/>
    <path id="path4582" d="m28.416 18.968v-0.59277c-0.000001-0.04102-0.0033-0.07845-0.0098-0.1123-0.0065-0.0345-0.01725-0.0638-0.03223-0.08789-0.01497-0.02474-0.03451-0.04395-0.05859-0.05762-0.02409-0.01367-0.05339-0.02051-0.08789-0.02051-0.0332 0.000001-0.06348 0.0075-0.09082 0.02246-0.02669 0.01432-0.0498 0.03516-0.06934 0.0625-0.01953 0.02669-0.03483 0.05892-0.0459 0.09668-0.01042 0.03711-0.01563 0.07813-0.01563 0.12305v0.56641h-0.27441v-0.82031c0-0.02279-0.000326-0.04622-0.000977-0.07031 0-0.02409-0.000651-0.04687-0.002-0.06836-0.000651-0.02213-0.0013-0.04167-0.002-0.05859-0.000651-0.01758-0.0016-0.0306-0.0029-0.03906h0.26172c0.0013 0.0078 0.0026 0.02051 0.0039 0.03809 0.0013 0.01693 0.0026 0.03581 0.0039 0.05664s0.0023 0.04167 0.0029 0.0625c0.0013 0.02083 0.002 0.03841 0.002 0.05273h0.0039c0.03711-0.08073 0.08366-0.13932 0.13965-0.17578s0.12272-0.05469 0.2002-0.05469c0.0638 0.000001 0.11751 0.01042 0.16113 0.03125 0.04427 0.02083 0.08008 0.04948 0.10742 0.08594 0.02799 0.03646 0.04818 0.07943 0.06055 0.12891s0.01855 0.10286 0.01855 0.16016v0.6709h-0.27344"/>
    <path id="path4584" d="m28.881 18.968v-0.19434l0.52734-0.66406h-0.4873v-0.19824h0.79004v0.19629l-0.52441 0.66016h0.57227v0.2002h-0.87793"/>
    <path id="path4586" d="m30.198 18.988c-0.05078 0-0.09635-0.0068-0.13672-0.02051-0.03971-0.01432-0.07357-0.03483-0.10156-0.06152-0.028-0.02734-0.04948-0.06087-0.06445-0.10059-0.01497-0.03971-0.02246-0.08496-0.02246-0.13574 0-0.0625 0.01074-0.11491 0.03223-0.15723 0.02213-0.04297 0.05208-0.07747 0.08984-0.10352 0.03776-0.02669 0.08203-0.0459 0.13281-0.05762 0.05078-0.01237 0.10482-0.01888 0.16211-0.01953l0.22754-0.0039v-0.05371c-0.000001-0.03841-0.0036-0.07031-0.01074-0.0957-0.0065-0.02604-0.01628-0.0472-0.0293-0.06348s-0.0293-0.02767-0.04883-0.03418c-0.01888-0.0072-0.04069-0.01074-0.06543-0.01074-0.02279 0.000001-0.0433 0.0023-0.06152 0.0068-0.01758 0.0046-0.03288 0.0127-0.0459 0.02441-0.01302 0.01107-0.02376 0.02637-0.03223 0.0459-0.0078 0.01888-0.01335 0.04297-0.0166 0.07227l-0.28613-0.01367c0.0078-0.04622 0.02213-0.08822 0.04297-0.12598 0.02083-0.03841 0.04948-0.07161 0.08594-0.09961 0.03711-0.02799 0.08236-0.04948 0.13574-0.06445 0.05404-0.01562 0.11719-0.02344 0.18945-0.02344 0.06575 0.000001 0.12435 0.0081 0.17578 0.02441 0.05143 0.01628 0.09505 0.04069 0.13086 0.07324 0.03581 0.0319 0.06315 0.07129 0.08203 0.11816 0.01888 0.04688 0.02832 0.10124 0.02832 0.16309v0.38476c-0.000001 0.02474 0.000975 0.04688 0.0029 0.06641 0.0026 0.01953 0.0068 0.03613 0.0127 0.0498 0.0065 0.01302 0.0153 0.02311 0.02637 0.03027 0.01172 0.0065 0.02669 0.0098 0.04492 0.0098 0.02083 0.000001 0.04101-0.002 0.06055-0.0059v0.14844c-0.01628 0.0039-0.03093 0.0075-0.04395 0.01074-0.01302 0.0033-0.02604 0.0059-0.03906 0.0078-0.01302 0.002-0.02702 0.0036-0.04199 0.0049-0.01432 0.0013-0.03125 0.002-0.05078 0.002-0.06901 0-0.12012-0.01693-0.15332-0.05078-0.03255-0.03385-0.05208-0.08366-0.05859-0.14941h-0.0059c-0.03646 0.06575-0.08333 0.11686-0.14062 0.15332-0.05664 0.03646-0.12565 0.05469-0.20703 0.05469m0.31934-0.50879-0.14062 0.002c-0.0293 0.0013-0.05729 0.0039-0.08398 0.0078-0.02604 0.0033-0.04915 0.01074-0.06934 0.02246-0.01953 0.01107-0.03516 0.02734-0.04687 0.04883-0.01172 0.02148-0.01758 0.05078-0.01758 0.08789 0 0.05013 0.01139 0.08757 0.03418 0.1123 0.02344 0.02409 0.05436 0.03613 0.09277 0.03613 0.03516 0.000001 0.06706-0.0075 0.0957-0.02246 0.02865-0.01497 0.05273-0.03451 0.07227-0.05859 0.02018-0.02474 0.03581-0.05306 0.04687-0.08496 0.01107-0.0319 0.0166-0.06445 0.0166-0.09766v-0.05371"/>
    <path id="path4588" d="m31.833 17.745v0.51172h0.76758v0.1543h-0.76758v0.55762h-0.18652v-1.376h0.97754v0.15234h-0.79102"/>
    <path id="path4590" d="m34.039 18.968v-0.91797c-0.000001-0.0332 0.000324-0.06706 0.000977-0.10156 0.000649-0.0345 0.0016-0.06608 0.0029-0.09473 0.0013-0.0332 0.0029-0.06543 0.0049-0.09668-0.0091 0.0332-0.01856 0.06608-0.02832 0.09863-0.0085 0.028-0.01791 0.05794-0.02832 0.08984-0.0098 0.03125-0.01953 0.05957-0.0293 0.08496l-0.35547 0.9375h-0.13086l-0.36035-0.9375c-0.0039-0.0098-0.0081-0.02116-0.01269-0.03418-0.0039-0.01302-0.0085-0.02669-0.01367-0.04102-0.0046-0.01497-0.0094-0.02995-0.01465-0.04492-0.0046-0.01562-0.0091-0.03092-0.01367-0.0459-0.01107-0.0345-0.02181-0.07031-0.03223-0.10742 0.000651 0.03646 0.0016 0.07259 0.0029 0.1084 0.0013 0.0306 0.0023 0.06283 0.0029 0.09668 0.000651 0.0332 0.000976 0.0625 0.000977 0.08789v0.91797h-0.16602v-1.376h0.24512l0.36621 0.9541c0.0046 0.01302 0.01009 0.02995 0.0166 0.05078 0.0065 0.02018 0.01269 0.04102 0.01855 0.0625 0.0059 0.02148 0.01107 0.04199 0.01563 0.06152 0.0052 0.01888 0.0088 0.03353 0.01074 0.04395 0.002-0.01042 0.0055-0.02539 0.01074-0.04492 0.0052-0.01953 0.01107-0.04004 0.01758-0.06152 0.0072-0.02148 0.014-0.04232 0.02051-0.0625 0.0065-0.02018 0.01237-0.03678 0.01758-0.0498l0.35938-0.9541h0.23926v1.376h-0.16797"/>
    <path id="path4592" d="m36.064 18.968-0.35742-0.57129h-0.42871v0.57129h-0.18652v-1.376h0.64746c0.07812 0.000001 0.14714 0.0091 0.20703 0.02734 0.06054 0.01758 0.11133 0.0433 0.15234 0.07715 0.04102 0.03385 0.07227 0.0752 0.09375 0.12402 0.02148 0.04883 0.03223 0.10384 0.03223 0.16504-0.000001 0.04362-0.0065 0.08659-0.01953 0.12891-0.01237 0.04232-0.03223 0.08105-0.05957 0.11621s-0.06217 0.06543-0.10449 0.09082-0.0931 0.0433-0.15234 0.05371l0.39062 0.59277h-0.21484m-0.02734-0.98047c-0.000001-0.04167-0.0072-0.0778-0.02148-0.1084-0.01432-0.0306-0.03516-0.05599-0.0625-0.07617-0.02735-0.02083-0.06055-0.03613-0.09961-0.0459-0.03906-0.01042-0.08333-0.01562-0.13281-0.01563h-0.44238v0.50781h0.4502c0.05339 0.000001 0.09961-0.0065 0.13867-0.01953 0.03906-0.01367 0.07096-0.03223 0.0957-0.05566 0.02539-0.02344 0.04394-0.05111 0.05566-0.08301 0.01237-0.0319 0.01855-0.0664 0.01855-0.10352"/>
    <path id="path4594" d="m36.777 18.988c-0.10612 0-0.18587-0.028-0.23926-0.08398-0.05339-0.05599-0.08008-0.13281-0.08008-0.23047 0-0.06966 0.01302-0.12663 0.03906-0.1709 0.02669-0.04492 0.0612-0.08008 0.10352-0.10547 0.04297-0.02539 0.0918-0.04297 0.14648-0.05273 0.05469-0.0098 0.11035-0.0153 0.16699-0.0166l0.2373-0.0039v-0.05762c-0.000001-0.04362-0.0046-0.08073-0.01367-0.11133-0.0091-0.0306-0.02311-0.05534-0.04199-0.07422s-0.04264-0.03255-0.07129-0.04102c-0.028-0.0091-0.0612-0.01367-0.09961-0.01367-0.03385 0.000001-0.06445 0.0026-0.0918 0.0078-0.02734 0.0046-0.05111 0.01335-0.07129 0.02637-0.02018 0.01237-0.03646 0.02962-0.04883 0.05176-0.01237 0.02148-0.02051 0.04883-0.02441 0.08203l-0.18359-0.0166c0.0065-0.04167 0.01888-0.07975 0.03711-0.11426 0.01823-0.03515 0.04394-0.06543 0.07715-0.09082 0.03385-0.02539 0.07585-0.04492 0.12598-0.05859 0.05078-0.01432 0.11198-0.02148 0.18359-0.02148 0.13281 0.000001 0.23275 0.0306 0.2998 0.0918 0.06706 0.06055 0.10058 0.14844 0.10059 0.26367v0.45508c-0.000001 0.05208 0.0068 0.09147 0.02051 0.11816 0.01367 0.02604 0.03971 0.03906 0.07813 0.03906 0.0098 0 0.01953-0.000651 0.0293-0.002 0.0098-0.0013 0.0192-0.0029 0.02832-0.0049v0.10938c-0.02214 0.0052-0.04427 0.0091-0.06641 0.01172-0.02149 0.0026-0.0446 0.0039-0.06934 0.0039-0.0332 0-0.06185-0.0042-0.08594-0.0127-0.02344-0.0091-0.04264-0.02246-0.05762-0.04004-0.01497-0.01823-0.02637-0.04036-0.03418-0.06641-0.0078-0.02669-0.0127-0.05762-0.01465-0.09277h-0.0059c-0.01888 0.03385-0.03972 0.06445-0.0625 0.0918-0.02214 0.02734-0.04818 0.05078-0.07813 0.07031-0.02995 0.01888-0.06413 0.03353-0.10254 0.04395-0.03776 0.01042-0.08138 0.01563-0.13086 0.01563m0.04004-0.13184c0.05599 0 0.10482-0.01009 0.14648-0.03027 0.04232-0.02083 0.07715-0.0472 0.10449-0.0791 0.02799-0.0319 0.04883-0.06673 0.0625-0.10449s0.02051-0.07389 0.02051-0.1084v-0.08691l-0.19238 0.0039c-0.04297 0.000652-0.08398 0.0039-0.12305 0.0098-0.03841 0.0052-0.07227 0.01595-0.10156 0.03223-0.0293 0.01628-0.05274 0.03906-0.07031 0.06836-0.01693 0.0293-0.02539 0.06771-0.02539 0.11523 0 0.05729 0.0153 0.10156 0.0459 0.13281 0.03125 0.03125 0.07552 0.04687 0.13281 0.04687"/>
    <path id="path4596" d="m38.288 18.799c-0.03255 0.06771-0.07585 0.11621-0.12988 0.14551-0.05339 0.0293-0.11979 0.04395-0.19922 0.04395-0.13346 0-0.23177-0.04492-0.29492-0.13477-0.0625-0.08984-0.09375-0.22591-0.09375-0.4082 0-0.36849 0.12956-0.55273 0.38867-0.55273 0.08008 0.000001 0.14681 0.01465 0.2002 0.04395s0.09635 0.07585 0.12891 0.13965h0.002c-0.000001-0.0065-0.000327-0.0166-0.000977-0.03027-0.000001-0.01432-0.000326-0.02897-0.000976-0.04395-0.000001-0.01563-0.000001-0.03027 0-0.04395-0.000001-0.01367-0.000001-0.02344 0-0.0293v-0.40918h0.17578v1.2314c-0.000001 0.02539-0.000001 0.0498 0 0.07324 0.00065 0.02344 0.0013 0.04492 0.002 0.06445 0.00065 0.01953 0.0013 0.03646 0.002 0.05078 0.00065 0.01367 0.0013 0.02344 0.002 0.0293h-0.16797c-0.0013-0.0065-0.0026-0.01563-0.0039-0.02734-0.000652-0.01237-0.0016-0.02637-0.0029-0.04199-0.000651-0.01562-0.0013-0.0319-0.002-0.04883-0.000652-0.01758-0.000977-0.03483-0.000976-0.05176h-0.0039m-0.533-0.36c0 0.07292 0.0046 0.13542 0.01367 0.1875 0.0091 0.05208 0.02376 0.09505 0.04395 0.12891 0.02018 0.0332 0.0459 0.05762 0.07715 0.07324 0.03125 0.01563 0.06934 0.02344 0.11426 0.02344 0.04622 0.000001 0.08691-0.0075 0.12207-0.02246 0.03581-0.01497 0.06543-0.03906 0.08887-0.07227 0.02409-0.03385 0.04232-0.0778 0.05469-0.13184s0.01855-0.12012 0.01855-0.19824c-0.000001-0.07487-0.0062-0.13802-0.01855-0.18945-0.01237-0.05208-0.0306-0.09408-0.05469-0.12598s-0.05371-0.05469-0.08887-0.06836c-0.03451-0.01432-0.07454-0.02148-0.12012-0.02148-0.04297 0.000001-0.08008 0.0075-0.11133 0.02246-0.03125 0.01497-0.05729 0.03906-0.07813 0.07227-0.02083 0.0332-0.03646 0.0765-0.04687 0.12988-0.0098 0.05274-0.01465 0.11686-0.01465 0.19238"/>
    <path id="path4598" d="m38.733 17.687v-0.16797h0.17578v0.16797h-0.17578m0 1.2812v-1.0566h0.17578v1.0566h-0.17578"/>
    <path id="path4600" d="m40.073 18.439c-0.000001 0.1849-0.04069 0.32259-0.12207 0.41308s-0.19954 0.13574-0.35449 0.13574c-0.07357 0-0.13932-0.01107-0.19726-0.0332-0.05794-0.02214-0.1071-0.05599-0.14746-0.10156-0.03971-0.04557-0.07031-0.10254-0.0918-0.1709-0.02083-0.06901-0.03125-0.15006-0.03125-0.24316 0-0.36458 0.15788-0.54687 0.47363-0.54688 0.08203 0.000001 0.15267 0.01139 0.21191 0.03418 0.05989 0.02279 0.10872 0.05697 0.14648 0.10254 0.03841 0.04557 0.06673 0.10254 0.08496 0.1709s0.02734 0.14811 0.02734 0.23926m-0.18457 0c0-0.08203-0.0065-0.14974-0.01953-0.20312-0.01237-0.05338-0.03092-0.09603-0.05566-0.12793-0.02409-0.0319-0.05371-0.05404-0.08887-0.06641-0.03516-0.01302-0.07487-0.01953-0.11914-0.01953-0.04492 0.000001-0.08561 0.0068-0.12207 0.02051-0.03581 0.01302-0.06641 0.03581-0.0918 0.06836-0.02539 0.0319-0.04492 0.07455-0.05859 0.12793-0.01302 0.05339-0.01953 0.12012-0.01953 0.2002 0 0.08203 0.0072 0.15006 0.02149 0.2041 0.01432 0.05339 0.03385 0.09603 0.05859 0.12793 0.02539 0.0319 0.05501 0.05436 0.08887 0.06738 0.03451 0.01302 0.07194 0.01953 0.1123 0.01953 0.04492 0 0.08561-0.0062 0.12207-0.01855 0.03646-0.01302 0.06738-0.03548 0.09277-0.06738s0.04492-0.07487 0.05859-0.12891 0.02051-0.12207 0.02051-0.2041"/>
   </g>
   <path id="path4616" style="color:#000000" d="m38 65a7 7 0 1 1 -14 0 7 7 0 1 1 14 0z" transform="matrix(0 .71429 .71429 0 18.571 42.857)" fill="url(#linearGradient4618)"/>
   <path id="path4620" opacity=".6" style="color:#000000" d="m65 70c-2.7614 0-5-2.2386-5-5s2.2386-5 5-5 5 2.2386 5 5-2.2386 5-5 5zm0-1c2.2091 0 4-1.7909 4-4s-1.7909-4-4-4-4 1.7909-4 4 1.7909 4 4 4z" fill="url(#linearGradient4629)"/>
  </g>
 </g>
</svg>
