<?xml version="1.0" encoding="UTF-8" standalone="no"?>
<!-- Created with Inkscape (http://www.inkscape.org/) -->
<svg id="svg2" xmlns:rdf="http://www.w3.org/1999/02/22-rdf-syntax-ns#" xmlns="http://www.w3.org/2000/svg" height="96" width="96" version="1.1" xmlns:cc="http://creativecommons.org/ns#" xmlns:xlink="http://www.w3.org/1999/xlink" xmlns:dc="http://purl.org/dc/elements/1.1/">
 <defs id="defs4">
  <linearGradient id="linearGradient3700-09">
   <stop id="stop3702-67" stop-color="#70a83e" offset="0"/>
   <stop id="stop3704-18" stop-color="#9fd058" offset="1"/>
  </linearGradient>
  <linearGradient id="linearGradient9745" y2="5.9877" xlink:href="#linearGradient3700-09" gradientUnits="userSpaceOnUse" x2="48" gradientTransform="translate(-169.06 968.2)" y1="90" x1="48"/>
  <filter id="filter3174" color-interpolation-filters="sRGB">
   <feGaussianBlur id="feGaussianBlur3176" stdDeviation="1.71"/>
  </filter>
  <linearGradient id="ButtonShadow-5" x1="45.448" gradientUnits="userSpaceOnUse" y1="92.54" gradientTransform="scale(1.0059 .99417)" x2="45.448" y2="7.0165">
   <stop id="stop3750-1" offset="0"/>
   <stop id="stop3752-6" stop-opacity=".58824" offset="1"/>
  </linearGradient>
  <clipPath id="clipPath5556">
   <path id="path5558" d="m139.68 2.9904c-4.5114 0-8.1709 3.4413-8.5275 7.8578 3.528 0.02442 6.3844 2.8954 6.3844 6.4291 0 3.5489-2.8802 6.4291-6.4291 6.4291v10.001c3.5488 0 6.4291 2.8802 6.4291 6.4291s-2.8802 6.4291-6.4291 6.4291v10.001c3.5488 0 6.4291 2.8802 6.4291 6.4291s-2.8802 6.4291-6.4291 6.4291v10.001c3.5488 0 6.4291 2.8802 6.4291 6.4291s-2.8802 6.4291-6.4291 6.4291v10.001c3.5488-0.00001 6.4291 2.8802 6.4291 6.4291 0 3.5337-2.8564 6.4047-6.3844 6.4291 0.35653 4.4165 4.0161 7.8578 8.5275 7.8578 0-3.5489 2.8802-6.4291 6.4291-6.4291 3.5488 0 6.4291 2.8802 6.4291 6.4291h10.001c0-3.5489 2.8802-6.4291 6.4291-6.4291s6.4291 2.8802 6.4291 6.4291h10.001c0-3.5489 2.8802-6.4291 6.4291-6.4291s6.4291 2.8802 6.4291 6.4291h10.001c0-3.5489 2.8802-6.4291 6.4291-6.4291 3.5488 0 6.4291 2.8802 6.4291 6.4291h10.001c-0.00001-3.5489 2.8802-6.4291 6.4291-6.4291 3.5034 0 6.3567 2.809 6.4291 6.2952 3.8411-0.63593 6.7806-3.7817 7.0988-7.7238-3.528-0.0244-6.3844-2.8954-6.3844-6.4291 0-3.5489 2.8802-6.4291 6.4291-6.4291v-10.001c-3.5489 0.000002-6.4291-2.8802-6.4291-6.4291s2.8802-6.4291 6.4291-6.4291v-10.001c-3.5489 0.000001-6.4291-2.8802-6.4291-6.4291s2.8802-6.4291 6.4291-6.4291v-10.001c-3.5489 0.000002-6.4291-2.8802-6.4291-6.4291s2.8802-6.4291 6.4291-6.4291v-10.001c-3.5489 0.000001-6.4291-2.8802-6.4291-6.4291 0-3.5337 2.8564-6.4047 6.3844-6.4291-0.31823-3.9421-3.2577-7.0879-7.0988-7.7238-0.0724 3.4862-2.9256 6.2951-6.4291 6.2951-3.5489 0-6.4291-2.8802-6.4291-6.4291h-10.001c0.00001 3.5489-2.8802 6.4291-6.4291 6.4291s-6.4291-2.8802-6.4291-6.4291h-10.001c0 3.5489-2.8802 6.4291-6.4291 6.4291-3.5488 0-6.4291-2.8802-6.4291-6.4291h-10.001c0 3.5489-2.8802 6.4291-6.4291 6.4291s-6.4291-2.8802-6.4291-6.4291h-10.001c0 3.5489-2.8802 6.4291-6.4291 6.4291s-6.4291-2.8802-6.4291-6.4291z" fill="#f0f"/>
  </clipPath>
  <filter id="filter3174-2" color-interpolation-filters="sRGB">
   <feGaussianBlur id="feGaussianBlur3176-2" stdDeviation="1.71"/>
  </filter>
  <filter id="filter8019" height="1.2886" width="1.0757" color-interpolation-filters="sRGB" y="-.14432" x="-.037872">
   <feGaussianBlur id="feGaussianBlur8021" stdDeviation="0.37938072"/>
  </filter>
  <filter id="filter8047" color-interpolation-filters="sRGB">
   <feGaussianBlur id="feGaussianBlur8049" stdDeviation="0.22026213"/>
  </filter>
  <filter id="filter8041" color-interpolation-filters="sRGB">
   <feGaussianBlur id="feGaussianBlur8043" stdDeviation="0.78995058"/>
  </filter>
  <linearGradient id="linearGradient3770">
   <stop id="stop3772-8" offset="0"/>
   <stop id="stop3774-3" stop-opacity="0" offset="1"/>
  </linearGradient>
  <clipPath id="clipPath3672">
   <rect id="rect3674" rx="7.9457" ry="7.9432" height="111.21" width="111.24" y="11.194" x="11.498" fill="#fff"/>
  </clipPath>
  <filter id="filter3666" color-interpolation-filters="sRGB">
   <feGaussianBlur id="feGaussianBlur3668" stdDeviation="1.83514"/>
  </filter>
  <linearGradient id="linearGradient22014" y2="5.9877" gradientUnits="userSpaceOnUse" x2="48" gradientTransform="matrix(1.0855 0 0 1.0526 -3.7664 -2.9817)" y1="90" x1="48">
   <stop id="stop3189-0" stop-color="#e0880b" offset="0"/>
   <stop id="stop3191-1" stop-color="#f7ce50" offset="1"/>
  </linearGradient>
  <linearGradient id="linearGradient22058" y2="-17" xlink:href="#linearGradient3770" gradientUnits="userSpaceOnUse" x2="48" gradientTransform="translate(-.07185 955.25)" y1="87" x1="48"/>
  <linearGradient id="linearGradient22060" y2="-16" xlink:href="#linearGradient3770" gradientUnits="userSpaceOnUse" x2="48" gradientTransform="translate(-.07185 954.25)" y1="88" x1="48"/>
  <radialGradient id="radialGradient22066" gradientUnits="userSpaceOnUse" cy="57.679" cx="63.75" gradientTransform="matrix(-1.1962 1.0838e-7 -9.5257e-8 -1.0514 128.12 1061.9)" r="34">
   <stop id="stop7987" stop-color="#fff" offset="0"/>
   <stop id="stop7997" stop-color="#fff" offset=".1"/>
   <stop id="stop7993" stop-color="#e6e6e6" offset="0.3"/>
   <stop id="stop7995" stop-color="#bebebe" offset="0.8"/>
   <stop id="stop7989" stop-color="#e6e6e6" offset="1"/>
  </radialGradient>
  <linearGradient id="linearGradient22068" y2="87.928" gradientUnits="userSpaceOnUse" x2="65.769" gradientTransform="matrix(.76489 0 0 .76489 1.6631 955.81)" y1="16.687" x1="46.808">
   <stop id="stop8007" stop-color="#2f70b4" offset="0"/>
   <stop id="stop8009" stop-color="#4588ce" offset="1"/>
  </linearGradient>
  <radialGradient id="radialGradient22070" gradientUnits="userSpaceOnUse" cy="77.798" cx="48.172" gradientTransform="matrix(1.6339 1.7473e-7 -3.0352e-7 2.8381 -30.535 -134.76)" r="15.496">
   <stop id="stop8035" stop-color="#fff" offset="0"/>
   <stop id="stop8037" stop-color="#fff" stop-opacity="0" offset="1"/>
  </radialGradient>
 </defs>
 <metadata id="metadata7">
  <rdf:RDF>
   <cc:Work rdf:about="">
    <dc:format>image/svg+xml</dc:format>
    <dc:type rdf:resource="http://purl.org/dc/dcmitype/StillImage"/>
    <dc:title/>
   </cc:Work>
  </rdf:RDF>
 </metadata>
 <g id="layer1" transform="translate(0 -956.36)">
  <g id="g5523">
   <rect id="rect5263-0" fill-opacity=".019608" ry="12.724" height="89.978" width="89.624" y="959.35" x="3.3534"/>
   <rect id="rect5261-6" fill-opacity=".039216" ry="12.552" height="88.762" width="88.413" y="959.96" x="3.9589"/>
   <rect id="rect5259-9" fill-opacity=".078431" ry="12.38" height="87.546" width="87.202" y="960.57" x="4.5645"/>
   <rect id="rect5257-5" fill-opacity=".15686" ry="12.208" height="86.33" width="85.991" y="961.18" x="5.1701"/>
  </g>
  <path id="rect2419-8" d="m17.75 5.4062c-6.642 0-11.969 5.3948-11.969 12.063l0.0002 61.031c0 6.668 5.3268 12.031 11.969 12.031h60.812c6.642 0 11.969-5.363 11.969-12.031v-61.031c0-6.668-5.327-12.063-11.969-12.063l-60.812 0.0002z" transform="translate(0 956.36)" fill="url(#linearGradient22014)"/>
  <path id="rect5265-0" d="m5.7756 1029.8v5.0663c0 6.668 5.3434 12.032 11.985 12.032h60.809c6.6418 0 11.985-5.3645 11.985-12.032v-5.0663c0 6.6681-5.3434 12.032-11.985 12.032h-60.809c-6.6418 0-11.985-5.3643-11.985-12.032z" fill-opacity=".23529"/>
  <path id="path5252-0" d="m5.7756 1033.9v1.0133c0 6.668 5.3434 12.032 11.985 12.032h60.809c6.6418 0 11.985-5.3645 11.985-12.032v-1.0133c0 6.6681-5.3434 12.032-11.985 12.032h-60.809c-6.6418 0-11.985-5.3644-11.985-12.032z" fill-opacity=".098039"/>
  <rect id="rect4772" display="none" height="107.79" width="107.79" y="971.68" x="-369.64" fill="none"/>
  <g id="g4788" display="none" transform="matrix(.21052 0 0 .21052 -369.68 971.63)"></g>
  <g id="g4806" display="none" transform="matrix(.21052 0 0 .21052 -369.68 971.63)">
   <g id="g4808" display="inline">
    <path id="path4810" d="m349.1 256.65c-0.265-0.254 37.637 27.605 39.421 25.012 6.362-9.252 82.046-93.137 84.784-116.24 0.242-2.003-0.516-4.096-0.516-4.096s-1.19-0.144-6.325-4.314c-2.692-2.192-5.483-4.581-5.483-4.581-16.054 0.998-57.885 41.559-111.06 103.57" fill="#050505" display="none"/>
   </g>
  </g>
  <g id="g4796" transform="matrix(.21052 0 0 .21052 -369.68 971.63)"></g>
  <rect id="rect3873" rx="6" ry="6" height="84" width="84" display="none" y="974.2" x="-163.06" fill="url(#linearGradient9745)"/>
  <rect id="rect3880" rx="6" ry="6" height="84" width="84" display="none" y="974.2" x="-163.06" fill="url(#linearGradient9745)"/>
  <g id="layer2" display="none" transform="translate(275.39 1104.2)">
   <rect id="rect3745" opacity=".9" rx="6" ry="6" height="85" filter="url(#filter3174)" width="86" y="7" x="5" fill="url(#ButtonShadow-5)"/>
  </g>
  <g id="layer2-9" display="none" transform="translate(143.17 916.04)">
   <path id="rect3745-2" opacity=".9" d="m11 7c-2.8841 0-5.26 2.0143-5.8438 4.7187 2.5086 0.0336 4.5313 2.0773 4.5312 4.5938 0 2.5374-2.0563 4.5938-4.5938 4.5938-0.031404 0-0.062496 0.000628-0.09375 0v7.1562c0.031254-0.000628 0.062346 0 0.09375 0 2.5374 0 4.5938 2.0563 4.5938 4.5938 0 2.5374-2.0563 4.5937-4.5938 4.5938-0.031404 0-0.062496 0.000628-0.09375 0v7.1562c0.031254-0.000628 0.062346 0 0.09375 0 2.5374 0 4.5938 2.0563 4.5938 4.5938 0 2.5374-2.0563 4.5937-4.5938 4.5938-0.031404 0-0.062496 0.000628-0.09375 0l0.0002 7.156c0.031254-0.000628 0.062346 0 0.09375 0 2.5374 0 4.5938 2.0563 4.5938 4.5938 0 2.5374-2.0563 4.5938-4.5938 4.5938-0.031404 0-0.062496 0.000628-0.09375 0v7.1562c0.031254-0.000628 0.062346 0 0.09375 0 2.5374-0.000004 4.5938 2.0563 4.5938 4.5938 0 2.5374-2.0563 4.5938-4.5938 4.5938-0.031404 0-0.062496 0.000628-0.09375 0 0.1444 3.193 2.7693 5.718 6 5.718h0.21875c-0.000628-0.03125 0-0.06235 0-0.09375 0-2.5374 2.0563-4.5937 4.5938-4.5938 2.5374 0 4.5938 2.0563 4.5938 4.5938 0 0.0314 0.000628 0.0625 0 0.09375h7.1562c-0.000628-0.03125 0-0.06235 0-0.09375 0-2.5374 2.0563-4.5937 4.5938-4.5938 2.5374 0 4.5938 2.0563 4.5938 4.5938 0 0.0314 0.000628 0.0625 0 0.09375h7.1562c-0.000628-0.03125 0-0.06235 0-0.09375 0-2.5374 2.0563-4.5937 4.5938-4.5938 2.5374 0 4.5937 2.0563 4.5938 4.5938 0 0.0314 0.000628 0.0625 0 0.09375h7.155c-0.000628-0.03125 0-0.06235 0-0.09375 0-2.5374 2.0563-4.5937 4.5938-4.5938 2.5374 0 4.5937 2.0563 4.5938 4.5938 0 0.0314 0.000628 0.0625 0 0.09375h7.1562c-0.000628-0.03125 0-0.06235 0-0.09375-0.000005-2.5374 2.0563-4.5937 4.5938-4.5938 2.5374 0 4.5937 2.0563 4.5938 4.5938 0 0.01047 0.00007 0.0208 0 0.03125 2.8652-0.36646 5.0861-2.7222 5.2188-5.6562-0.03125 0.000628-0.06235 0-0.09375 0-2.5374-0.000003-4.5937-2.0563-4.5938-4.5938 0-2.5374 2.0563-4.5938 4.5938-4.5938 0.0314 0 0.0625-0.000628 0.09375 0v-7.1562c-0.03125 0.000628-0.06235 0-0.09375 0-2.5374 0.000001-4.5937-2.0563-4.5938-4.5938 0-2.5374 2.0563-4.5937 4.5938-4.5938 0.0314 0 0.0625-0.000628 0.09375 0v-7.1562c-0.03125 0.000628-0.06235 0-0.09375 0-2.5374 0.000001-4.5937-2.0563-4.5938-4.5938 0-2.5374 2.0563-4.5937 4.5938-4.5938 0.0314 0 0.0625-0.000628 0.09375 0v-7.155c-0.03125 0.000628-0.06235 0-0.09375 0-2.5374 0.000001-4.5937-2.0563-4.5938-4.5938 0-2.5374 2.0563-4.5937 4.5938-4.5938 0.0314 0 0.0625-0.000628 0.09375 0v-7.1562c-0.03125 0.000628-0.06235 0-0.09375 0-2.5374 0.000001-4.5937-2.0563-4.5938-4.5938 0-2.5165 2.0227-4.5602 4.5312-4.5938-0.53737-2.4896-2.5803-4.4006-5.1562-4.6875-0.42886 2.094-2.2798 3.6562-4.5 3.6562-2.2307 0-4.0826-1.5787-4.5-3.6875h-7.3438c-0.41736 2.1088-2.2693 3.6875-4.5 3.6875s-4.0826-1.5787-4.5-3.6875h-7.3438c-0.416 2.1088-2.268 3.688-4.499 3.688-2.2307 0-4.0826-1.5787-4.5-3.6875h-7.3438c-0.41736 2.1088-2.2693 3.6875-4.5 3.6875s-4.0826-1.5787-4.5-3.6875h-7.3438c-0.41736 2.1088-2.2693 3.6875-4.5 3.6875s-4.0826-1.5787-4.5-3.6875h-0.3125z" display="inline" filter="url(#filter3174-2)" fill="url(#ButtonShadow-5)"/>
  </g>
  <g id="layer4" display="none" transform="translate(143.17 916.04)">
   <g id="g4297" opacity=".4" clip-path="url(#clipPath5556)" transform="matrix(.69994 0 0 .69994 -85.768 3.9069)" display="inline">
    <g id="g5547" transform="translate(85.721 -20.002)">
     <path id="path4086" d="m78.328 146.13c24.652-4.62 40.942-28.38 36.322-53.035-4.61-24.652-28.403-40.907-53.054-36.289s-40.912 28.375-36.294 53.024c4.6178 24.651 28.376 40.912 53.027 36.295zm-0.27619-1.4744c-23.853 4.46-46.808-11.25-51.276-35.1-4.468-23.857 11.243-46.812 35.096-51.28 23.853-4.4684 46.839 11.237 51.307 35.091 4.4684 23.853-11.274 46.814-35.127 51.282z" display="inline"/>
     <path id="path4088" d="m76.058 133.99c17.941-3.36 29.792-20.68 26.432-38.616-3.36-17.941-20.673-29.772-38.614-26.411s-29.776 20.651-26.415 38.597c3.3608 17.941 20.656 29.798 38.597 26.437zm-0.27884-1.4886c-17.143 3.2114-33.64-8.0801-36.852-25.223-3.2114-17.143 8.0801-33.64 25.223-36.852 17.143-3.2114 33.663 8.0759 36.874 25.219 3.2114 17.143-8.1023 33.644-25.246 36.856z" display="inline"/>
     <path id="path4090" d="m80.565 102.03a44.7 44.7 0 1 1 -89.399 0 44.7 44.7 0 1 1 89.399 0z" transform="matrix(-.77311 .14482 -.14482 -.77311 112.48 175.15)" display="inline" fill="none"/>
     <g id="g4118" transform="matrix(1.1 -.86862 .86862 1.1 -60.967 18.73)">
      <path id="path4102" d="m29.682 99.378-2.3266 1.8416 0.98506 2.8318-2.4704-1.6437-2.3888 1.8119 0.79983-2.8574-2.4614-1.712 2.9647-0.12231 0.86754-2.87 1.0325 2.7818z" transform="matrix(1.5606 .41815 -.41815 1.5606 33.235 -70.873)" display="inline"/>
      <path id="path4104" d="m29.682 99.378-2.3266 1.8416 0.98506 2.8318-2.4704-1.6437-2.3888 1.8119 0.79983-2.8574-2.4614-1.712 2.9647-0.12231 0.86754-2.87 1.0325 2.7818z" transform="matrix(1.5606 .41815 -.41815 1.5606 47.387 -67.081)" display="inline"/>
      <path id="path4106" d="m29.682 99.378-2.3266 1.8416 0.98506 2.8318-2.4704-1.6437-2.3888 1.8119 0.79983-2.8574-2.4614-1.712 2.9647-0.12231 0.86754-2.87 1.0325 2.7818z" transform="matrix(1.5606 .41815 -.41815 1.5606 36.915 -57.344)" display="inline"/>
     </g>
    </g>
   </g>
  </g>
  <path id="path6999" opacity=".2" d="m3.2716 125c36.599-2.9745 74.207 0.75124 109.81-10.08 17.05-3.94 33.98-17.92 41.79-38.31m-153.85 41.79c36.042-4.2475 73.274-2.0836 108.26-13.796 16.872-4.5481 33.519-18.496 41.53-38.584m-152.05 45.77c35.485-5.5206 72.342-4.9185 106.7-17.512 16.691-5.1597 33.052-19.072 41.268-38.856m-150.22 49.758c34.928-6.791 71.408-7.751 105.15-21.226 16.51-5.771 32.59-19.647 41.01-39.128m-148.42 53.75c34.372-8.066 70.476-10.588 103.6-24.944 16.326-6.383 32.116-20.223 40.746-39.401m-146.6 57.739c33.815-9.34 69.543-13.423 102.05-28.661 16.14-6.994 31.65-20.797 40.48-39.672m-144.78 61.727c33.258-10.613 68.61-16.258 100.5-32.377 15.964-7.606 31.184-21.373 40.214-39.945m-142.97 65.716c32.702-11.886 67.677-19.093 98.944-36.093 15.785-8.218 30.725-21.949 39.955-40.217m-141.15 69.703c32.145-13.159 66.744-21.927 97.392-39.808 15.603-8.83 30.251-22.524 39.701-40.49m-139.35 73.692c31.588-14.432 65.811-24.762 95.84-43.525 15.422-9.441 29.787-23.099 39.437-40.762m-137.53 77.681c31.032-15.705 64.879-27.598 94.288-47.241 15.241-10.053 29.324-23.675 39.174-41.034m-135.72 81.669c30.474-16.978 63.945-30.433 92.736-50.957 15.059-10.665 28.86-24.25 38.91-41.307m-133.9 85.657c29.917-18.251 63.012-33.267 91.184-54.673 14.878-11.276 28.39-24.825 38.646-41.578m-132.09 89.646c29.366-19.525 62.085-36.103 89.638-58.39 14.696-11.888 27.923-25.401 38.382-41.851" clip-path="url(#clipPath3672)" transform="matrix(.75512 0 0 .75536 -2.7543 953.79)" filter="url(#filter3666)" stroke="#fff" stroke-width="5.3885" fill="none"/>
  <g id="g22046" transform="translate(0 -1.2188)">
   <path id="path3768" opacity=".05" style="block-progression:tb;text-indent:0;color:#000000;text-transform:none" d="m45.334 966.53c-7.3987 0.0925-15.774 1.4711-21.062 7.625a1.0093 1.0093 0 0 0 -0.0313 0c-2.7686 3.3436-6.0412 6.2212-9.7812 8.375l0.0313 0.0313c-1.2088 0.51127-1.8897 1.7033-1.875 2.8438 0.0155 1.2019 0.80962 2.5295 2.2188 2.8438a1.0093 1.0093 0 0 0 0.125 0c5.4983 0.59523 11.471 0.0988 16.344-3.2188a1.0093 1.0093 0 0 0 0.0313 -0.0313c0.75674-0.54149 1.4257-0.76658 1.6875-0.84375 0.007 0.14419 0.0409 0.25114-0.0625 0.6875a1.0093 1.0093 0 0 0 -0.0313 0.21875v9.125c-8.2477 6.4434-12.299 17.89-9.0312 28 0.003 0.01-0.003 0.022 0 0.031 3.7735 12.714 17.254 20.807 30.188 19.656 0.0103-0.0006 0.0209 0.0005 0.0313 0 12.608-0.6799 24.525-10.224 26.5-23 0.002-0.01-0.002-0.021 0-0.031 2.0233-11.214-4.3761-22.726-14.344-27.813-5.4115-2.8566-11.742-4.1263-17.875-3.1875-0.0234-6.2363 0.0772-12.513-0.0625-18.781a1.0093 1.0093 0 0 0 0 -0.15625c-0.27175-1.422-1.5577-2.3874-2.9688-2.375-0.0104 0.00009-0.0208-0.0002-0.0313 0z" fill-rule="evenodd" fill="url(#linearGradient22058)"/>
   <path id="path3762" opacity=".1" style="block-progression:tb;text-indent:0;color:#000000;text-transform:none" d="m45.366 967.53c-7.2879 0.0877-15.339 1.4808-20.337 7.2963-2.8377 3.4271-6.2037 6.3529-10.058 8.5725-1.7737 0.60102-1.793 3.4317 0.0825 3.8499 5.358 0.58004 11.096 0.064 15.688-3.0625 1.8773-1.3433 3.8813-2.054 3.1875 0.87416v9.5946c-8.1924 6.1231-12.247 17.403-9.0539 27.237 3.6107 12.218 16.67 20.092 29.139 18.968 12.152-0.6411 23.71-9.8992 25.589-22.164 1.9516-10.734-4.2282-21.882-13.809-26.771-5.5768-2.9439-12.17-4.2217-18.396-2.9582-0.0428-6.6233 0.085-13.26-0.0625-19.875-0.17345-0.90759-1.0491-1.58-1.9688-1.5625z" fill-rule="evenodd" fill="url(#linearGradient22060)"/>
   <path id="path3757" opacity=".15" style="block-progression:tb;text-indent:0;color:#000000;text-transform:none" d="m45.397 968.53-1.0312 0.0313c-9.1946 0.33806-13.765 2.4558-16.969 5.3438-3.1816 2.8682-4.8709 5.8915-9.5625 8.8438l-2.7812 1.7812a0.98423 0.98423 0 0 0 0.5 1.8125l3.2812 0.0937c5.437 0.15598 8.8549-1.5551 11.375-3.0938 1.8052-1.1022 3.1526-1.8596 4.7188-2.2188v13.938c-6.1446 4.6183-10.125 11.67-10.125 19.625 0 13.978 12.152 25.25 27.062 25.25 14.911 0 27.062-11.272 27.062-25.25s-12.153-25.219-27.062-25.219c-1.8793 0-3.6845 0.25641-5.4688 0.59375v-19.531-1.0312a0.98423 0.98423 0 0 0 -1 -0.96875z" fill-rule="evenodd" fill="url(#linearGradient22058)"/>
   <path id="path3813" opacity=".3" style="block-progression:tb;text-indent:0;color:#000000;text-transform:none" d="m45.428 969.5-1.0312 0.0313c-9.0601 0.33312-13.3 2.3496-16.344 5.0938s-4.8286 5.9112-9.6875 8.9688l-2.7812 1.7812 3.2812 0.0937c5.2235 0.14985 8.3753-1.4617 10.844-2.9688 2.1794-1.3306 3.8059-2.4519 6.1875-2.625v15.625c-6.1685 4.4397-10.125 11.372-10.125 19.188 0 13.406 11.678 24.281 26.094 24.281s26.094-10.875 26.094-24.281-11.678-24.25-26.094-24.25c-2.2179 0-4.3815 0.2346-6.4375 0.71875v-20.625-1.0312z" fill-rule="evenodd" fill="url(#linearGradient22060)"/>
   <path id="path7975" d="m77.961 1012.7a26.102 24.274 0 0 1 -52.204 0 26.102 24.274 0 1 1 52.204 0z" fill="url(#radialGradient22066)"/>
   <path id="path8000" d="m44.429 968.52c-17.858 0.6566-15.477 7.6001-25.534 13.929 10.033 0.28784 11.424-5.9038 17.99-5.6411v46.081c9.935 0.9286 34.302 1.231 31.546-14.834-2.1114-12.308-24.002-3.5518-24.002-3.5518v-35.982zm10.144 38.118c2.7416 0.015 5.0779 0.6067 5.5014 3.3429 1.2864 8.3114-15.785 8.3572-15.785 8.3572v-9.6572s5.714-2.0675 10.283-2.0429z" fill-rule="evenodd" stroke="#28609b" stroke-width="2" fill="url(#linearGradient22068)"/>
   <path id="path8013" opacity=".4" d="m55.154 65.598c22.186-7.778 26.163-2.598 26.163-2.598s-9.6934-2.6171-26.075 5.0727l-0.08839-2.4749z" fill-rule="evenodd" transform="matrix(.76489 0 0 .76489 1.6631 955.81)" filter="url(#filter8019)" fill="#fff"/>
   <path id="path8023" opacity=".5" d="m48.702 39.788v45.697s13.789 1.7678 28.991-3.182" transform="matrix(.76489 0 0 .76489 1.6631 955.81)" filter="url(#filter8041)" stroke="url(#radialGradient22070)" stroke-width="2.6148" fill="none"/>
   <path id="path8045" opacity=".4" d="m77.264 78.958c-5.5886 4.299-11.178 3.146-11.178 3.146s6.4878-0.58646 10.311-5.4656c0 0 3.1655 0.55181 0.86739 2.3196z" fill-rule="evenodd" transform="matrix(.76489 0 0 .76489 1.6631 955.81)" filter="url(#filter8047)" fill="#fff"/>
   <path id="path8061" opacity=".4" d="m27.904 29.973c17.868-8.339 16.993-2.375 29.919-0.808-8.138 0.631-15.373-7.038-29.83 3.283l-0.08839-2.4749z" fill-rule="evenodd" transform="matrix(-.65021 .40285 .40285 .65021 48.335 939)" filter="url(#filter8019)" fill="#fff"/>
  </g>
 </g>
</svg>
