<?xml version="1.0" encoding="UTF-8" standalone="no"?>
<!-- Created with Inkscape (http://www.inkscape.org/) -->
<svg id="svg2" xmlns:rdf="http://www.w3.org/1999/02/22-rdf-syntax-ns#" xmlns="http://www.w3.org/2000/svg" height="96" width="96" version="1.1" xmlns:cc="http://creativecommons.org/ns#" xmlns:xlink="http://www.w3.org/1999/xlink" xmlns:dc="http://purl.org/dc/elements/1.1/">
 <defs id="defs4">
  <linearGradient id="linearGradient3700-09">
   <stop id="stop3702-67" stop-color="#70a83e" offset="0"/>
   <stop id="stop3704-18" stop-color="#9fd058" offset="1"/>
  </linearGradient>
  <linearGradient id="linearGradient9745" y2="5.9877" xlink:href="#linearGradient3700-09" gradientUnits="userSpaceOnUse" x2="48" gradientTransform="translate(-169.06 968.2)" y1="90" x1="48"/>
  <filter id="filter3174" color-interpolation-filters="sRGB">
   <feGaussianBlur id="feGaussianBlur3176" stdDeviation="1.71"/>
  </filter>
  <linearGradient id="ButtonShadow-5" x1="45.448" gradientUnits="userSpaceOnUse" y1="92.54" gradientTransform="scale(1.0059 .99417)" x2="45.448" y2="7.0165">
   <stop id="stop3750-1" offset="0"/>
   <stop id="stop3752-6" stop-opacity=".58824" offset="1"/>
  </linearGradient>
  <clipPath id="clipPath5556">
   <path id="path5558" d="m139.68 2.9904c-4.5114 0-8.1709 3.4413-8.5275 7.8578 3.528 0.02442 6.3844 2.8954 6.3844 6.4291 0 3.5489-2.8802 6.4291-6.4291 6.4291v10.001c3.5488 0 6.4291 2.8802 6.4291 6.4291s-2.8802 6.4291-6.4291 6.4291v10.001c3.5488 0 6.4291 2.8802 6.4291 6.4291s-2.8802 6.4291-6.4291 6.4291v10.001c3.5488 0 6.4291 2.8802 6.4291 6.4291s-2.8802 6.4291-6.4291 6.4291v10.001c3.5488-0.00001 6.4291 2.8802 6.4291 6.4291 0 3.5337-2.8564 6.4047-6.3844 6.4291 0.35653 4.4165 4.0161 7.8578 8.5275 7.8578 0-3.5489 2.8802-6.4291 6.4291-6.4291 3.5488 0 6.4291 2.8802 6.4291 6.4291h10.001c0-3.5489 2.8802-6.4291 6.4291-6.4291s6.4291 2.8802 6.4291 6.4291h10.001c0-3.5489 2.8802-6.4291 6.4291-6.4291s6.4291 2.8802 6.4291 6.4291h10.001c0-3.5489 2.8802-6.4291 6.4291-6.4291 3.5488 0 6.4291 2.8802 6.4291 6.4291h10.001c-0.00001-3.5489 2.8802-6.4291 6.4291-6.4291 3.5034 0 6.3567 2.809 6.4291 6.2952 3.8411-0.63593 6.7806-3.7817 7.0988-7.7238-3.528-0.0244-6.3844-2.8954-6.3844-6.4291 0-3.5489 2.8802-6.4291 6.4291-6.4291v-10.001c-3.5489 0.000002-6.4291-2.8802-6.4291-6.4291s2.8802-6.4291 6.4291-6.4291v-10.001c-3.5489 0.000001-6.4291-2.8802-6.4291-6.4291s2.8802-6.4291 6.4291-6.4291v-10.001c-3.5489 0.000002-6.4291-2.8802-6.4291-6.4291s2.8802-6.4291 6.4291-6.4291v-10.001c-3.5489 0.000001-6.4291-2.8802-6.4291-6.4291 0-3.5337 2.8564-6.4047 6.3844-6.4291-0.31823-3.9421-3.2577-7.0879-7.0988-7.7238-0.0724 3.4862-2.9256 6.2951-6.4291 6.2951-3.5489 0-6.4291-2.8802-6.4291-6.4291h-10.001c0.00001 3.5489-2.8802 6.4291-6.4291 6.4291s-6.4291-2.8802-6.4291-6.4291h-10.001c0 3.5489-2.8802 6.4291-6.4291 6.4291-3.5488 0-6.4291-2.8802-6.4291-6.4291h-10.001c0 3.5489-2.8802 6.4291-6.4291 6.4291s-6.4291-2.8802-6.4291-6.4291h-10.001c0 3.5489-2.8802 6.4291-6.4291 6.4291s-6.4291-2.8802-6.4291-6.4291z" fill="#f0f"/>
  </clipPath>
  <filter id="filter3174-2" color-interpolation-filters="sRGB">
   <feGaussianBlur id="feGaussianBlur3176-2" stdDeviation="1.71"/>
  </filter>
  <filter id="filter3174-20" color-interpolation-filters="sRGB">
   <feGaussianBlur id="feGaussianBlur3176-9" stdDeviation="1.71"/>
  </filter>
  <filter id="filter3892" color-interpolation-filters="sRGB">
   <feGaussianBlur id="feGaussianBlur3894" stdDeviation="0.76960612"/>
  </filter>
  <clipPath id="clipPath3888">
   <path id="path3890" style="color:#000000" d="m34.405 29.694c-1.4452 0.02254-2.9192 0.38791-4.3512 1.0956-4.2691 2.1099-6.0198 6.6461-4.6955 12.052 0.63313 2.5843 0.85206 6.0766 0.46955 7.4815-0.54212 1.9911-2.2055 3.0337-4.8833 3.0364-2.6453 0.0027-5.2463 2.0341-5.7598 4.5077-0.52531 2.5305 0.07523 4.8231 1.7217 6.4798 1.936 1.948 4.6221 2.4971 6.9493 1.4086 3.3694-1.576 4.4734-4.8685 3.0364-8.984-0.69269-1.9839-0.72433-2.2502-0.37564-3.506 1.4761-5.3157 13.602-5.7047 15.589-0.50085 0.4698 1.2302 0.39225 2.0718-0.46955 4.2259-0.52754 1.3186-0.59166 1.778-0.50085 3.1929 0.16588 2.5847 1.4048 4.3959 3.8503 5.5094 1.4881 0.67754 4.5817 0.67454 6.0415 0 3.5879-1.6579 4.9348-5.253 3.3494-8.8901-1.3617-3.124-0.67358-5.1997 2.1912-6.6363 3.6037-1.8071 8.8099-1.3948 11.426 0.90779 1.8716 1.6475 2.1514 3.0736 1.1582 5.9163-1.3182 3.7729-0.26196 7.0365 2.786 8.671 1.3158 0.70563 4.226 0.70597 5.5407 0 1.1906-0.63932 2.5347-2.0448 2.9738-3.099 1.2809-3.0751 0.23352-6.9445-2.2851-8.4206-0.87-0.50985-1.5266-0.66536-3.2868-0.81388-1.4314-0.12077-2.4332-0.34688-2.9112-0.62606-0.95548-0.55803-1.7178-1.9404-1.9095-3.4747-0.17449-1.3965 0.21472-4.878 0.75128-6.7302 0.55467-1.9148 0.33316-5.5059-0.43824-7.1997-2.3636-5.1901-9.0405-7.2224-13.773-4.1633-0.74233 0.47979-1.6946 1.3319-2.1286 1.8782-1.5217 1.9151-3.9727 4.369-4.7268 4.7268-1.8975 0.90041-3.8452 0.16255-5.9789-2.2538-3.2253-3.6526-3.6974-4.1136-5.1337-4.8207-1.3494-0.66433-2.7807-0.99294-4.2259-0.9704zm13.648 10.643c4.3688-0.0072 7.3385 3.9868 6.1041 8.2328-0.53832 1.8517-2.3044 3.6453-4.0694 4.1633-1.5101 0.44322-2.756 0.46514-4.1633 0.0313-2.4468-0.75425-4.2741-3.3615-4.2572-6.1041 0.01132-1.8357 0.42159-2.8808 1.6904-4.2572 1.325-1.4375 2.7593-2.0628 4.6955-2.066z" fill="#f0f"/>
  </clipPath>
  <clipPath id="clipPath3613-27">
   <rect id="rect3615-58" rx="6" ry="6" height="84" width="84" y="6" x="6" fill="#fff"/>
  </clipPath>
  <linearGradient id="linearGradient3613-94" x1="48" gradientUnits="userSpaceOnUse" y1="20.221" x2="48" y2="138.66">
   <stop id="stop3739-84" stop-color="#fff" offset="0"/>
   <stop id="stop3741-164" stop-color="#fff" stop-opacity="0" offset="1"/>
  </linearGradient>
  <filter id="filter3794-787" height="1.384" width="1.384" color-interpolation-filters="sRGB" y="-.192" x="-.192">
   <feGaussianBlur id="feGaussianBlur3796-94" stdDeviation="5.28"/>
  </filter>
  <filter id="filter3174-6" color-interpolation-filters="sRGB">
   <feGaussianBlur id="feGaussianBlur3176-5" stdDeviation="1.71"/>
  </filter>
  <radialGradient id="radialGradient29260" gradientUnits="userSpaceOnUse" cy="88" cx="88" gradientTransform="matrix(2.7128 -.0073140 .0069373 2.043 -142.7 -88.525)" r="42">
   <stop id="stop3702-80" stop-color="#730a13" offset="0"/>
   <stop id="stop3704-52" stop-color="#be212e" offset="1"/>
  </radialGradient>
 </defs>
 <metadata id="metadata7">
  <rdf:RDF>
   <cc:Work rdf:about="">
    <dc:format>image/svg+xml</dc:format>
    <dc:type rdf:resource="http://purl.org/dc/dcmitype/StillImage"/>
    <dc:title/>
   </cc:Work>
  </rdf:RDF>
 </metadata>
 <g id="layer1" transform="translate(0 -956.36)">
  <g id="g5523">
   <rect id="rect5263-0" fill-opacity=".019608" ry="12.724" height="89.978" width="89.624" y="959.35" x="3.3534"/>
   <rect id="rect5261-6" fill-opacity=".039216" ry="12.552" height="88.762" width="88.413" y="959.96" x="3.9589"/>
   <rect id="rect5259-9" fill-opacity=".078431" ry="12.38" height="87.546" width="87.202" y="960.57" x="4.5645"/>
   <rect id="rect5257-5" fill-opacity=".15686" ry="12.208" height="86.33" width="85.991" y="961.18" x="5.1701"/>
  </g>
  <path id="rect2419" d="m17.75 5.4062c-6.642 0-11.969 5.3948-11.969 12.063l0.0002 61.031c0 6.668 5.3268 12.031 11.969 12.031h60.812c6.642 0 11.969-5.363 11.969-12.031v-61.031c0-6.668-5.327-12.063-11.969-12.063l-60.812 0.0002z" transform="translate(0 956.36)" fill="url(#radialGradient29260)"/>
  <path id="rect5265-0" d="m5.7756 1029.8v5.0663c0 6.668 5.3434 12.032 11.985 12.032h60.809c6.6418 0 11.985-5.3645 11.985-12.032v-5.0663c0 6.6681-5.3434 12.032-11.985 12.032h-60.809c-6.6418 0-11.985-5.3643-11.985-12.032z" fill-opacity=".23529"/>
  <path id="path5252-0" d="m5.7756 1033.9v1.0133c0 6.668 5.3434 12.032 11.985 12.032h60.809c6.6418 0 11.985-5.3645 11.985-12.032v-1.0133c0 6.6681-5.3434 12.032-11.985 12.032h-60.809c-6.6418 0-11.985-5.3644-11.985-12.032z" fill-opacity=".098039"/>
  <rect id="rect4772" display="none" height="107.79" width="107.79" y="971.68" x="-369.64" fill="none"/>
  <g id="g4788" display="none" transform="matrix(.21052 0 0 .21052 -369.68 971.63)"></g>
  <g id="g4806" display="none" transform="matrix(.21052 0 0 .21052 -369.68 971.63)">
   <g id="g4808" display="inline">
    <path id="path4810" d="m349.1 256.65c-0.265-0.254 37.637 27.605 39.421 25.012 6.362-9.252 82.046-93.137 84.784-116.24 0.242-2.003-0.516-4.096-0.516-4.096s-1.19-0.144-6.325-4.314c-2.692-2.192-5.483-4.581-5.483-4.581-16.054 0.998-57.885 41.559-111.06 103.57" fill="#050505" display="none"/>
   </g>
  </g>
  <g id="g4796" transform="matrix(.21052 0 0 .21052 -369.68 971.63)"></g>
  <rect id="rect3873" rx="6" ry="6" height="84" width="84" display="none" y="974.2" x="-163.06" fill="url(#linearGradient9745)"/>
  <rect id="rect3880" rx="6" ry="6" height="84" width="84" display="none" y="974.2" x="-163.06" fill="url(#linearGradient9745)"/>
  <g id="layer2" display="none" transform="translate(275.39 1104.2)">
   <rect id="rect3745" opacity=".9" rx="6" ry="6" height="85" filter="url(#filter3174)" width="86" y="7" x="5" fill="url(#ButtonShadow-5)"/>
  </g>
  <g id="layer2-9" display="none" transform="translate(143.17 916.04)">
   <path id="rect3745-2" opacity=".9" d="m11 7c-2.8841 0-5.26 2.0143-5.8438 4.7187 2.5086 0.0336 4.5313 2.0773 4.5312 4.5938 0 2.5374-2.0563 4.5938-4.5938 4.5938-0.031404 0-0.062496 0.000628-0.09375 0v7.1562c0.031254-0.000628 0.062346 0 0.09375 0 2.5374 0 4.5938 2.0563 4.5938 4.5938 0 2.5374-2.0563 4.5937-4.5938 4.5938-0.031404 0-0.062496 0.000628-0.09375 0v7.1562c0.031254-0.000628 0.062346 0 0.09375 0 2.5374 0 4.5938 2.0563 4.5938 4.5938 0 2.5374-2.0563 4.5937-4.5938 4.5938-0.031404 0-0.062496 0.000628-0.09375 0l0.0002 7.156c0.031254-0.000628 0.062346 0 0.09375 0 2.5374 0 4.5938 2.0563 4.5938 4.5938 0 2.5374-2.0563 4.5938-4.5938 4.5938-0.031404 0-0.062496 0.000628-0.09375 0v7.1562c0.031254-0.000628 0.062346 0 0.09375 0 2.5374-0.000004 4.5938 2.0563 4.5938 4.5938 0 2.5374-2.0563 4.5938-4.5938 4.5938-0.031404 0-0.062496 0.000628-0.09375 0 0.1444 3.193 2.7693 5.718 6 5.718h0.21875c-0.000628-0.03125 0-0.06235 0-0.09375 0-2.5374 2.0563-4.5937 4.5938-4.5938 2.5374 0 4.5938 2.0563 4.5938 4.5938 0 0.0314 0.000628 0.0625 0 0.09375h7.1562c-0.000628-0.03125 0-0.06235 0-0.09375 0-2.5374 2.0563-4.5937 4.5938-4.5938 2.5374 0 4.5938 2.0563 4.5938 4.5938 0 0.0314 0.000628 0.0625 0 0.09375h7.1562c-0.000628-0.03125 0-0.06235 0-0.09375 0-2.5374 2.0563-4.5937 4.5938-4.5938 2.5374 0 4.5937 2.0563 4.5938 4.5938 0 0.0314 0.000628 0.0625 0 0.09375h7.155c-0.000628-0.03125 0-0.06235 0-0.09375 0-2.5374 2.0563-4.5937 4.5938-4.5938 2.5374 0 4.5937 2.0563 4.5938 4.5938 0 0.0314 0.000628 0.0625 0 0.09375h7.1562c-0.000628-0.03125 0-0.06235 0-0.09375-0.000005-2.5374 2.0563-4.5937 4.5938-4.5938 2.5374 0 4.5937 2.0563 4.5938 4.5938 0 0.01047 0.00007 0.0208 0 0.03125 2.8652-0.36646 5.0861-2.7222 5.2188-5.6562-0.03125 0.000628-0.06235 0-0.09375 0-2.5374-0.000003-4.5937-2.0563-4.5938-4.5938 0-2.5374 2.0563-4.5938 4.5938-4.5938 0.0314 0 0.0625-0.000628 0.09375 0v-7.1562c-0.03125 0.000628-0.06235 0-0.09375 0-2.5374 0.000001-4.5937-2.0563-4.5938-4.5938 0-2.5374 2.0563-4.5937 4.5938-4.5938 0.0314 0 0.0625-0.000628 0.09375 0v-7.1562c-0.03125 0.000628-0.06235 0-0.09375 0-2.5374 0.000001-4.5937-2.0563-4.5938-4.5938 0-2.5374 2.0563-4.5937 4.5938-4.5938 0.0314 0 0.0625-0.000628 0.09375 0v-7.155c-0.03125 0.000628-0.06235 0-0.09375 0-2.5374 0.000001-4.5937-2.0563-4.5938-4.5938 0-2.5374 2.0563-4.5937 4.5938-4.5938 0.0314 0 0.0625-0.000628 0.09375 0v-7.1562c-0.03125 0.000628-0.06235 0-0.09375 0-2.5374 0.000001-4.5937-2.0563-4.5938-4.5938 0-2.5165 2.0227-4.5602 4.5312-4.5938-0.53737-2.4896-2.5803-4.4006-5.1562-4.6875-0.42886 2.094-2.2798 3.6562-4.5 3.6562-2.2307 0-4.0826-1.5787-4.5-3.6875h-7.3438c-0.41736 2.1088-2.2693 3.6875-4.5 3.6875s-4.0826-1.5787-4.5-3.6875h-7.3438c-0.416 2.1088-2.268 3.688-4.499 3.688-2.2307 0-4.0826-1.5787-4.5-3.6875h-7.3438c-0.41736 2.1088-2.2693 3.6875-4.5 3.6875s-4.0826-1.5787-4.5-3.6875h-7.3438c-0.41736 2.1088-2.2693 3.6875-4.5 3.6875s-4.0826-1.5787-4.5-3.6875h-0.3125z" display="inline" filter="url(#filter3174-2)" fill="url(#ButtonShadow-5)"/>
  </g>
  <g id="layer4" display="none" transform="translate(143.17 916.04)">
   <g id="g4297" opacity=".4" clip-path="url(#clipPath5556)" transform="matrix(.69994 0 0 .69994 -85.768 3.9069)" display="inline">
    <g id="g5547" transform="translate(85.721 -20.002)">
     <path id="path4086" d="m78.328 146.13c24.652-4.62 40.942-28.38 36.322-53.035-4.61-24.652-28.403-40.907-53.054-36.289s-40.912 28.375-36.294 53.024c4.6178 24.651 28.376 40.912 53.027 36.295zm-0.27619-1.4744c-23.853 4.46-46.808-11.25-51.276-35.1-4.468-23.857 11.243-46.812 35.096-51.28 23.853-4.4684 46.839 11.237 51.307 35.091 4.4684 23.853-11.274 46.814-35.127 51.282z" display="inline"/>
     <path id="path4088" d="m76.058 133.99c17.941-3.36 29.792-20.68 26.432-38.616-3.36-17.941-20.673-29.772-38.614-26.411s-29.776 20.651-26.415 38.597c3.3608 17.941 20.656 29.798 38.597 26.437zm-0.27884-1.4886c-17.143 3.2114-33.64-8.0801-36.852-25.223-3.2114-17.143 8.0801-33.64 25.223-36.852 17.143-3.2114 33.663 8.0759 36.874 25.219 3.2114 17.143-8.1023 33.644-25.246 36.856z" display="inline"/>
     <path id="path4090" d="m80.565 102.03a44.7 44.7 0 1 1 -89.399 0 44.7 44.7 0 1 1 89.399 0z" transform="matrix(-.77311 .14482 -.14482 -.77311 112.48 175.15)" display="inline" fill="none"/>
     <g id="g4118" transform="matrix(1.1 -.86862 .86862 1.1 -60.967 18.73)">
      <path id="path4102" d="m29.682 99.378-2.3266 1.8416 0.98506 2.8318-2.4704-1.6437-2.3888 1.8119 0.79983-2.8574-2.4614-1.712 2.9647-0.12231 0.86754-2.87 1.0325 2.7818z" transform="matrix(1.5606 .41815 -.41815 1.5606 33.235 -70.873)" display="inline"/>
      <path id="path4104" d="m29.682 99.378-2.3266 1.8416 0.98506 2.8318-2.4704-1.6437-2.3888 1.8119 0.79983-2.8574-2.4614-1.712 2.9647-0.12231 0.86754-2.87 1.0325 2.7818z" transform="matrix(1.5606 .41815 -.41815 1.5606 47.387 -67.081)" display="inline"/>
      <path id="path4106" d="m29.682 99.378-2.3266 1.8416 0.98506 2.8318-2.4704-1.6437-2.3888 1.8119 0.79983-2.8574-2.4614-1.712 2.9647-0.12231 0.86754-2.87 1.0325 2.7818z" transform="matrix(1.5606 .41815 -.41815 1.5606 36.915 -57.344)" display="inline"/>
     </g>
    </g>
   </g>
  </g>
  <g id="layer2-1" display="none" transform="translate(-172.7 965.43)">
   <rect id="rect3745-1" opacity=".9" rx="6" ry="6" height="85" filter="url(#filter3174-20)" width="86" y="7" x="5" fill="url(#ButtonShadow-5)"/>
  </g>
  <g id="layer2-95" display="none" transform="translate(-144.88 945.05)">
   <rect id="rect3745-15" opacity=".9" rx="6" ry="6" height="85" filter="url(#filter3174-6)" width="86" y="7" x="5" fill="url(#ButtonShadow-5)"/>
  </g>
  <g id="layer5" display="none" transform="translate(-144.88 945.05)">
   <rect id="rect3171" height="66" stroke="#fff" stroke-linecap="round" stroke-width=".5" fill="url(#linearGradient3613-94)" rx="12" ry="12" width="66" opacity=".1" clip-path="url(#clipPath3613-27)" filter="url(#filter3794-787)" y="15" x="15"/>
  </g>
  <g id="layer4-1" transform="translate(-.34376 952.86)">
   <path id="rect3837" style="color:#000000" d="m34.405 29.694c-1.4452 0.02254-2.9192 0.38791-4.3512 1.0956-4.2691 2.1099-6.0198 6.6461-4.6955 12.052 0.63313 2.5843 0.85206 6.0766 0.46955 7.4815-0.54212 1.9911-2.2055 3.0337-4.8833 3.0364-2.6453 0.0027-5.2463 2.0341-5.7598 4.5077-0.52531 2.5305 0.07523 4.8231 1.7217 6.4798 1.936 1.948 4.6221 2.4971 6.9493 1.4086 3.3694-1.576 4.4734-4.8685 3.0364-8.984-0.69269-1.9839-0.72433-2.2502-0.37564-3.506 1.4761-5.3157 13.602-5.7047 15.589-0.50085 0.4698 1.2302 0.39225 2.0718-0.46955 4.2259-0.52754 1.3186-0.59166 1.778-0.50085 3.1929 0.16588 2.5847 1.4048 4.3959 3.8503 5.5094 1.4881 0.67754 4.5817 0.67454 6.0415 0 3.5879-1.6579 4.9348-5.253 3.3494-8.8901-1.3617-3.124-0.67358-5.1997 2.1912-6.6363 3.6037-1.8071 8.8099-1.3948 11.426 0.90779 1.8716 1.6475 2.1514 3.0736 1.1582 5.9163-1.3182 3.7729-0.26196 7.0365 2.786 8.671 1.3158 0.70563 4.226 0.70597 5.5407 0 1.1906-0.63932 2.5347-2.0448 2.9738-3.099 1.2809-3.0751 0.23352-6.9445-2.2851-8.4206-0.87-0.50985-1.5266-0.66536-3.2868-0.81388-1.4314-0.12077-2.4332-0.34688-2.9112-0.62606-0.95548-0.55803-1.7178-1.9404-1.9095-3.4747-0.17449-1.3965 0.21472-4.878 0.75128-6.7302 0.55467-1.9148 0.33316-5.5059-0.43824-7.1997-2.3636-5.1901-9.0405-7.2224-13.773-4.1633-0.74233 0.47979-1.6946 1.3319-2.1286 1.8782-1.5217 1.9151-3.9727 4.369-4.7268 4.7268-1.8975 0.90041-3.8452 0.16255-5.9789-2.2538-3.2253-3.6526-3.6974-4.1136-5.1337-4.8207-1.3494-0.66433-2.7807-0.99294-4.2259-0.9704zm13.648 10.643c4.3688-0.0072 7.3385 3.9868 6.1041 8.2328-0.53832 1.8517-2.3044 3.6453-4.0694 4.1633-1.5101 0.44322-2.756 0.46514-4.1633 0.0313-2.4468-0.75425-4.2741-3.3615-4.2572-6.1041 0.01132-1.8357 0.42159-2.8808 1.6904-4.2572 1.325-1.4375 2.7593-2.0628 4.6955-2.066z" fill="#fff"/>
   <path id="path3874" style="color:#000000" d="m34.406 28.688c-1.4452 0.02254-2.9118 0.38605-4.3438 1.0938-3.4686 1.7143-5.28 5.0423-5.125 9.125 0.15182-3.6262 1.9415-6.5516 5.125-8.125 1.4319-0.7077 2.8985-1.0712 4.3438-1.0938 1.4452-0.02254 2.8693 0.30442 4.2188 0.96875 1.4364 0.70712 1.8997 1.1912 5.125 4.8438 2.1337 2.4164 4.1025 3.1504 6 2.25 0.75408-0.35783 3.197-2.8349 4.7188-4.75 0.43407-0.54625 1.3827-1.3952 2.125-1.875 4.7329-3.059 11.418-1.0026 13.781 4.1875 0.43396 0.9529 0.70438 2.4825 0.75 4 0.06295-1.7967-0.21971-3.8356-0.75-5-2.3636-5.1901-9.0483-7.2465-13.781-4.1875-0.74233 0.47979-1.6909 1.3287-2.125 1.875-1.5217 1.9151-3.9647 4.3922-4.7188 4.75-1.8975 0.90041-3.8663 0.16638-6-2.25-3.2253-3.6526-3.6886-4.1366-5.125-4.8438-1.3494-0.66433-2.7735-0.99129-4.2188-0.96875zm7.2812 17.406c-0.01199 0.18785-0.02998 0.35628-0.03125 0.5625-0.0169 2.7427 1.8345 5.3395 4.2812 6.0938 1.4073 0.43384 2.6462 0.41197 4.1562-0.03125 1.765-0.51804 3.5242-2.3045 4.0625-4.1562 0.24133-0.83016 0.34036-1.6546 0.28125-2.4375-0.03493 0.47649-0.13913 0.94861-0.28125 1.4375-0.53832 1.8517-2.2975 3.6382-4.0625 4.1562-1.5101 0.44322-2.7489 0.4651-4.1562 0.03125-2.3172-0.71432-4.0843-3.0769-4.25-5.6562zm28.344 1.75c-0.02034 0.55171-0.01237 1.0259 0.03125 1.375 0.19169 1.5342 0.95078 2.9107 1.9062 3.4688 0.47802 0.27918 1.4749 0.50423 2.9062 0.625 1.7603 0.14852 2.4112 0.3339 3.2812 0.84375 1.6871 0.98871 2.7033 3.0403 2.8125 5.2188 0.2035-2.5256-0.86818-5.0793-2.8125-6.2188-0.87-0.50985-1.521-0.69523-3.2812-0.84375-1.4314-0.12077-2.4282-0.34582-2.9062-0.625-0.95548-0.55803-1.7146-1.9345-1.9062-3.4688-0.0138-0.11043-0.0243-0.24034-0.03125-0.375zm-44.031 0.25c-0.02728 0.49378-0.10137 0.90242-0.1875 1.2188-0.54212 1.9911-2.1972 3.0286-4.875 3.0312-2.6453 0.0027-5.2365 2.0576-5.75 4.5312-0.15483 0.74581-0.19498 1.4619-0.15625 2.1562 0.0276-0.37963 0.07475-0.76368 0.15625-1.1562 0.51352-2.4736 3.1047-4.5286 5.75-4.5312 2.6778-0.0027 4.3329-1.0402 4.875-3.0312 0.13794-0.50665 0.19721-1.3097 0.1875-2.2188zm27.75 5.4375c-0.12311 0.9434 0.07776 2.0258 0.625 3.2812 0.36783 0.8439 0.56424 1.6843 0.625 2.5 0.08711-1.1179-0.10457-2.306-0.625-3.5-0.3631-0.83302-0.5558-1.5896-0.625-2.2812zm-11.406 0.156c-0.087 0.601-0.322 1.319-0.719 2.312-0.50028 1.2505-0.57015 1.7472-0.5 3 0.03547-0.63217 0.15606-1.1403 0.5-2 0.63825-1.5954 0.84458-2.466 0.71875-3.3125zm27.344 0.156c-0.067 0.626-0.244 1.331-0.532 2.156-0.437 1.25-0.602 2.434-0.531 3.531 0.055-0.806 0.225-1.656 0.531-2.531 0.45327-1.2973 0.63856-2.2933 0.53125-3.1562zm-43.312 0.125c-0.13042 0.74131-0.0087 1.2661 0.53125 2.8125 0.33899 0.9709 0.53397 1.8824 0.59375 2.75 0.06563-1.1412-0.12248-2.4002-0.59375-3.75-0.29916-0.85682-0.45608-1.3784-0.53125-1.8125z" fill="#a31924"/>
   <path id="path3879" opacity=".15" style="color:#000000" d="m24.938 39.969c-0.0446 1.2184 0.07517 2.5236 0.40625 3.875 0.4048 1.6524 0.63903 3.6382 0.65625 5.25 0.09388-1.6992-0.16568-4.2475-0.65625-6.25-0.24282-0.99113-0.36676-1.9519-0.40625-2.875zm46.187 0.343c-0.02862 0.8169-0.13913 1.589-0.3125 2.1875-0.46948 1.6207-0.81631 4.4978-0.78125 6.125 0.07817-1.6365 0.39495-3.7914 0.78125-5.125 0.24264-0.83759 0.34797-2.0075 0.3125-3.1875zm-23.062 0.03125c-1.9362 0.0032-3.3937 0.62502-4.7188 2.0625-1.2688 1.3765-1.6762 2.4143-1.6875 4.25-0.000895 0.14519 0.02199 0.29332 0.03125 0.4375 0.09476-1.4844 0.52999-2.4657 1.6562-3.6875 1.325-1.4375 2.7825-2.0593 4.7188-2.0625 3.5146-0.0058 6.1318 2.56 6.375 5.7812 0.26847-3.6618-2.5092-6.7876-6.375-6.7812zm-13.938 8.719c-3.4643 0.11124-6.8557 1.5297-7.5938 4.1875-0.1981 0.7134-0.25514 1.1477-0.15625 1.7188 0.03689-0.2097 0.07936-0.44186 0.15625-0.71875 1.4761-5.3157 13.575-5.7039 15.562-0.5 0.11745 0.30754 0.20467 0.6207 0.25 0.90625 0.09521-0.68991-0.000253-1.2523-0.25-1.9062-0.99369-2.6019-4.5044-3.7987-7.9688-3.6875zm26.938 0c-1.581 0.07081-3.1486 0.41608-4.5 1.0938-2.1009 1.0535-3.0028 2.4727-2.8125 4.375 0.18323-1.4041 1.099-2.5157 2.8125-3.375 3.6037-1.8071 8.8217-1.3963 11.438 0.90625 1.0175 0.8956 1.5597 1.7533 1.6875 2.7812 0.161-1.532-0.359-2.611-1.688-3.781-1.6349-1.4391-4.3025-2.118-6.9375-2zm-19.938 10.938c-0.01893 0.33746-0.0316 0.69505 0 1.1875 0.16588 2.5847 1.4295 4.3865 3.875 5.5 1.4881 0.67754 4.5714 0.67454 6.0312 0 2.7554-1.2733 4.1699-3.6751 3.9688-6.375-0.17824 2.2874-1.5587 4.2613-3.9688 5.375-1.4598 0.67454-4.5432 0.67754-6.0312 0-2.4455-1.1135-3.7091-2.9153-3.875-5.5-0.0047-0.0731 0.0038-0.11925 0-0.1875zm-26.094 0.03125c-0.15031 2.0675 0.48398 3.9128 1.875 5.3125 1.936 1.948 4.6103 2.4948 6.9375 1.4062 2.5745-1.2042 3.8499-3.4088 3.6562-6.2188-0.13448 2.3384-1.3919 4.1597-3.6562 5.2188-2.3272 1.0885-5.0015 0.54172-6.9375-1.4062-1.1612-1.1684-1.7823-2.6511-1.875-4.3125zm65.938 0.34375c-0.06011 0.74603-0.23916 1.4863-0.53125 2.1875-0.43912 1.0542-1.7782 2.4544-2.9688 3.0938-1.3146 0.70597-4.2154 0.70563-5.5312 0-2.0379-1.0929-3.1698-2.9102-3.3125-5.125-0.18197 2.6697 0.97175 4.8697 3.3125 6.125 1.3158 0.70563 4.2166 0.70597 5.5312 0 1.1906-0.63932 2.5296-2.0395 2.9688-3.0938 0.4229-1.0153 0.58509-2.1138 0.53125-3.1875z" fill="#fff"/>
   <path id="path3884" opacity=".15" style="color:#000000" d="m34.405 29.694c-1.4452 0.02254-2.9192 0.38791-4.3512 1.0956-4.2691 2.1099-6.0198 6.6461-4.6955 12.052 0.63313 2.5843 0.85206 6.0766 0.46955 7.4815-0.54212 1.9911-2.2055 3.0337-4.8833 3.0364-2.6453 0.0027-5.2463 2.0341-5.7598 4.5077-0.52531 2.5305 0.07523 4.8231 1.7217 6.4798 1.936 1.948 4.6221 2.4971 6.9493 1.4086 3.3694-1.576 4.4734-4.8685 3.0364-8.984-0.69269-1.9839-0.72433-2.2502-0.37564-3.506 1.4761-5.3157 13.602-5.7047 15.589-0.50085 0.4698 1.2302 0.39225 2.0718-0.46955 4.2259-0.52754 1.3186-0.59166 1.778-0.50085 3.1929 0.16588 2.5847 1.4048 4.3959 3.8503 5.5094 1.4881 0.67754 4.5817 0.67454 6.0415 0 3.5879-1.6579 4.9348-5.253 3.3494-8.8901-1.3617-3.124-0.67358-5.1997 2.1912-6.6363 3.6037-1.8071 8.8099-1.3948 11.426 0.90779 1.8716 1.6475 2.1514 3.0736 1.1582 5.9163-1.3182 3.7729-0.26196 7.0365 2.786 8.671 1.3158 0.70563 4.226 0.70597 5.5407 0 1.1906-0.63932 2.5347-2.0448 2.9738-3.099 1.2809-3.0751 0.23352-6.9445-2.2851-8.4206-0.87-0.50985-1.5266-0.66536-3.2868-0.81388-1.4314-0.12077-2.4332-0.34688-2.9112-0.62606-0.95548-0.55803-1.7178-1.9404-1.9095-3.4747-0.17449-1.3965 0.21472-4.878 0.75128-6.7302 0.55467-1.9148 0.33316-5.5059-0.43824-7.1997-2.3636-5.1901-9.0405-7.2224-13.773-4.1633-0.74233 0.47979-1.6946 1.3319-2.1286 1.8782-1.5217 1.9151-3.9727 4.369-4.7268 4.7268-1.8975 0.90041-3.8452 0.16255-5.9789-2.2538-3.2253-3.6526-3.6974-4.1136-5.1337-4.8207-1.3494-0.66433-2.7807-0.99294-4.2259-0.9704zm13.648 10.643c4.3688-0.0072 7.3385 3.9868 6.1041 8.2328-0.53832 1.8517-2.3044 3.6453-4.0694 4.1633-1.5101 0.44322-2.756 0.46514-4.1633 0.0313-2.4468-0.75425-4.2741-3.3615-4.2572-6.1041 0.01132-1.8357 0.42159-2.8808 1.6904-4.2572 1.325-1.4375 2.7593-2.0628 4.6955-2.066z" clip-path="url(#clipPath3888)" filter="url(#filter3892)" stroke="#000" fill="none"/>
  </g>
 </g>
</svg>
