<?xml version="1.0" encoding="UTF-8" standalone="no"?>
<!-- Created with Inkscape (http://www.inkscape.org/) -->
<svg id="svg2408" xmlns:rdf="http://www.w3.org/1999/02/22-rdf-syntax-ns#" xmlns="http://www.w3.org/2000/svg" height="96" width="96" version="1.0" xmlns:cc="http://creativecommons.org/ns#" xmlns:xlink="http://www.w3.org/1999/xlink" xmlns:dc="http://purl.org/dc/elements/1.1/">
 <defs id="defs2410">
  <linearGradient id="linearGradient3767">
   <stop id="stop3769" stop-color="#3e3e3e" offset="0"/>
   <stop id="stop3771" stop-color="#bbb" stop-opacity="0" offset="1"/>
  </linearGradient>
  <linearGradient id="linearGradient3948">
   <stop id="stop3950" stop-color="#5a5a5a" offset="0"/>
   <stop id="stop3952" stop-color="#737373" offset="1"/>
  </linearGradient>
  <linearGradient id="linearGradient3224">
   <stop id="stop3226" stop-color="#e0d8b8" offset="0"/>
   <stop id="stop3228" stop-color="#b6a357" offset="1"/>
  </linearGradient>
  <linearGradient id="ButtonShadow" y2="7.0165" gradientUnits="userSpaceOnUse" x2="45.448" gradientTransform="scale(1.0059 .99417)" y1="92.54" x1="45.448">
   <stop id="stop3750" offset="0"/>
   <stop id="stop3752" stop-opacity=".58824" offset="1"/>
  </linearGradient>
  <filter id="filter3174" color-interpolation-filters="sRGB">
   <feGaussianBlur id="feGaussianBlur3176" stdDeviation="1.71"/>
  </filter>
  <linearGradient id="linearGradient3188" y2="63.893" gradientUnits="userSpaceOnUse" x2="36.357" y1="6" x1="36.357">
   <stop id="stop3739" stop-color="#fff" offset="0"/>
   <stop id="stop3741" stop-color="#fff" stop-opacity="0" offset="1"/>
  </linearGradient>
  <radialGradient id="radialGradient3205" xlink:href="#linearGradient3948" gradientUnits="userSpaceOnUse" cy="78.287" cx="47.098" gradientTransform="matrix(2.2063 0 -1.5668e-8 1.3124 -56.813 -119.24)" r="38.957"/>
  <linearGradient id="linearGradient3737-7">
   <stop id="stop3739-2" stop-color="#fff" offset="0"/>
   <stop id="stop3741-7" stop-color="#fff" stop-opacity="0" offset="1"/>
  </linearGradient>
  <radialGradient id="radialGradient2874" xlink:href="#linearGradient3737-7" gradientUnits="userSpaceOnUse" cy="90.172" cx="48" gradientTransform="matrix(1.1573 0 0 .99591 -7.551 .19713)" r="42"/>
  <linearGradient id="linearGradient3668" y2="5.9877" gradientUnits="userSpaceOnUse" x2="48" y1="90" x1="48">
   <stop id="stop3189" stop-color="#b4b4b4" offset="0"/>
   <stop id="stop3191" stop-color="#e6e6e6" offset="1"/>
  </linearGradient>
  <clipPath id="clipPath3613-2">
   <rect id="rect3615-7" rx="6" ry="6" height="84" width="84" y="6" x="6" fill="#fff"/>
  </clipPath>
  <filter id="filter3794-6" height="1.384" width="1.384" color-interpolation-filters="sRGB" y="-.192" x="-.192">
   <feGaussianBlur id="feGaussianBlur3796-2" stdDeviation="5.28"/>
  </filter>
  <linearGradient id="linearGradient2881" y2="138.66" gradientUnits="userSpaceOnUse" x2="48" y1="20.221" x1="48">
   <stop id="stop3739-7" stop-color="#fff" offset="0"/>
   <stop id="stop3741-9" stop-color="#fff" stop-opacity="0" offset="1"/>
  </linearGradient>
  <radialGradient id="radialGradient3832" xlink:href="#linearGradient3224" gradientUnits="userSpaceOnUse" cy="78.287" cx="47.098" gradientTransform="matrix(2.2063 0 -1.5668e-8 1.3124 -146.81 75.781)" r="38.957"/>
  <clipPath id="clipPath3837">
   <path id="path3839" fill="url(#radialGradient3841)" d="m14 108.25c-3.2424 0-5.8438 2.7675-5.8438 6.1875v66.156c0 3.42 2.6013 6.1875 5.8438 6.1875h66.188c3.2424 0 5.875-2.7675 5.875-6.1875v-66.156c0-3.42-2.6326-6.1875-5.875-6.1875h-66.188zm34 9.75c0.60457 0 1.1929 0.015 1.7812 0.0312 0.01409 0.00015 0.04842-0.00015 0.0625 0 8.3453 0.0889 12.216 0.77855 16.875 2.0312 11.301 2.57 11.281 7.6 11.281 23.94 0 16.16 0.02953 20.465-11.281 23.938-4.6588 1.2527-8.5297 1.9424-16.875 2.0312-0.01408 0.00015-0.0484-0.00015-0.0625 0-0.589 0.01-1.177 0.03-1.782 0.03-0.60457 0-1.1929-0.015-1.7812-0.0312-0.0141-0.00015-0.04842 0.00015-0.0625 0-8.3453-0.089-12.216-0.77855-16.875-2.0312-11.311-3.47-11.281-7.78-11.281-23.94 0-16.338-0.02046-21.366 11.281-23.938 4.6588-1.2527 8.5297-1.9424 16.875-2.0312 0.01408-0.00015 0.04841 0.00015 0.0625 0 0.589-0.01 1.177-0.03 1.782-0.03z"/>
  </clipPath>
  <radialGradient id="radialGradient3841" xlink:href="#linearGradient3224" gradientUnits="userSpaceOnUse" cy="78.287" cx="47.098" gradientTransform="matrix(2.2063 0 -1.5668e-8 1.3124 -56.813 75.781)" r="38.957"/>
  <filter id="filter3847" height="1.3877" width="1.336" color-interpolation-filters="sRGB" y="-.19385" x="-.168">
   <feGaussianBlur id="feGaussianBlur3849" stdDeviation="4.2000001"/>
  </filter>
  <linearGradient id="linearGradient3994" y2="74.654" gradientUnits="userSpaceOnUse" x2="50.629" y1="81.089" x1="50.629">
   <stop id="stop3962" stop-color="#fff" offset="0"/>
   <stop id="stop3964" stop-color="#fff" stop-opacity="0" offset="1"/>
  </linearGradient>
  <linearGradient id="linearGradient3996" y2="79.84" xlink:href="#linearGradient3948" gradientUnits="userSpaceOnUse" x2="48.179" gradientTransform="translate(0,30)" y1="72.25" x1="48.179"/>
  <linearGradient id="linearGradient4099" y2="73.448" xlink:href="#linearGradient3737-7" gradientUnits="userSpaceOnUse" x2="49.385" y1="81.177" x1="49.385"/>
  <linearGradient id="linearGradient4101" y2="79.84" xlink:href="#linearGradient3948" gradientUnits="userSpaceOnUse" x2="48.179" y1="72.25" x1="48.179"/>
  <linearGradient id="linearGradient4103" y2="79.84" xlink:href="#linearGradient3948" gradientUnits="userSpaceOnUse" x2="48.179" gradientTransform="translate(1)" y1="72.25" x1="48.179"/>
  <linearGradient id="linearGradient4105" y2="79.84" xlink:href="#linearGradient3948" gradientUnits="userSpaceOnUse" x2="48.179" gradientTransform="translate(2)" y1="72.25" x1="48.179"/>
  <linearGradient id="linearGradient4107" y2="79.84" xlink:href="#linearGradient3948" gradientUnits="userSpaceOnUse" x2="48.179" gradientTransform="translate(-1)" y1="72.25" x1="48.179"/>
  <linearGradient id="linearGradient4109" y2="79.84" xlink:href="#linearGradient3948" gradientUnits="userSpaceOnUse" x2="48.179" gradientTransform="translate(3)" y1="72.25" x1="48.179"/>
  <linearGradient id="linearGradient4111" y2="79.84" xlink:href="#linearGradient3948" gradientUnits="userSpaceOnUse" x2="48.179" gradientTransform="translate(-2)" y1="72.25" x1="48.179"/>
  <linearGradient id="linearGradient4113" y2="79.84" xlink:href="#linearGradient3948" gradientUnits="userSpaceOnUse" x2="48.179" gradientTransform="translate(4)" y1="72.25" x1="48.179"/>
  <linearGradient id="linearGradient3237">
   <stop id="stop3239" stop-color="#737373" offset="0"/>
   <stop id="stop3241" stop-color="#fff" offset="1"/>
  </linearGradient>
  <linearGradient id="linearGradient3785" y2="108.68" xlink:href="#linearGradient3237" gradientUnits="userSpaceOnUse" x2="26.36" y1="103.13" x1="26.36"/>
  <linearGradient id="linearGradient3787" y2="99.666" xlink:href="#linearGradient3237" gradientUnits="userSpaceOnUse" x2="26.36" y1="112.61" x1="26.36"/>
  <linearGradient id="linearGradient3789" y2="106.14" xlink:href="#linearGradient3767" gradientUnits="userSpaceOnUse" x2="35.109" y1="106.14" x1="21.026"/>
  <clipPath id="clipPath5265">
   <path id="path5267" d="m138 78c-0.60457 0-1.1929 0.01496-1.7812 0.03125-0.0141 0.000146-0.0484-0.00015-0.0625 0-8.3454 0.08895-12.216 0.77855-16.875 2.0312-11.3 2.572-11.28 7.6-11.28 23.938 0 16.16-0.0295 20.465 11.281 23.938 4.6588 1.2527 8.5296 1.9423 16.875 2.0312 0.0141 0.00015 0.0484-0.00015 0.0625 0 0.58839 0.0163 1.1767 0.0312 1.7812 0.0312 0.60457 0 1.1929-0.015 1.7812-0.0312 0.0141-0.00015 0.0484 0.00015 0.0625 0 8.3454-0.0889 12.216-0.77855 16.875-2.0312 11.31-3.47 11.28-7.78 11.28-23.94 0-16.338 0.0205-21.366-11.281-23.938-4.6588-1.2527-8.5296-1.9423-16.875-2.0312-0.0141-0.00015-0.0484 0.000146-0.0625 0-0.59-0.016-1.18-0.031-1.78-0.031z" fill="#f00"/>
  </clipPath>
  <linearGradient id="linearGradient3888" y2="69.871" gradientUnits="userSpaceOnUse" x2="123.97" gradientTransform="translate(-80)" y1="17.684" x1="123.97">
   <stop id="stop3779" stop-color="#272727" offset="0"/>
   <stop id="stop3781" stop-color="#737373" offset="1"/>
  </linearGradient>
  <filter id="filter3925" height="1.3102" width="1.2688" color-interpolation-filters="sRGB" y="-.15508" x="-.13440">
   <feGaussianBlur id="feGaussianBlur3927" stdDeviation="3.3599985"/>
  </filter>
  <linearGradient id="linearGradient3931" y2="77.29" xlink:href="#linearGradient3737-7" gradientUnits="userSpaceOnUse" x2="48.714" gradientTransform="matrix(.87559 0 0 .51055 5.9718 11.286)" y1="16.321" x1="48.714"/>
  <mask id="SVGID_2_">
   <g id="g3157" filter="url(#Adobe_OpacityMaskFilter)">
    <linearGradient id="SVGID_3_" y2="169.01" gradientUnits="userSpaceOnUse" x2="352.87" y1="-18.516" x1="461.13">
     <stop id="stop3160" stop-color="#fff" offset=".005618"/>
     <stop id="stop3162" stop-color="#f6f6f6" offset=".012915"/>
     <stop id="stop3164" stop-color="#c8c8c8" offset=".052759"/>
     <stop id="stop3166" stop-color="#9d9d9d" offset=".097662"/>
     <stop id="stop3168" stop-color="#777" offset=".14592"/>
     <stop id="stop3170" stop-color="#575757" offset=".19845"/>
     <stop id="stop3172" stop-color="#3b3b3b" offset=".25651"/>
     <stop id="stop3174" stop-color="#252525" offset=".32203"/>
     <stop id="stop3176" stop-color="#141414" offset=".39858"/>
     <stop id="stop3178" stop-color="#090909" offset=".49318"/>
     <stop id="stop3180" stop-color="#020202" offset=".62593"/>
     <stop id="stop3182" offset=".99438"/>
    </linearGradient>
    <path id="path3184" d="m537.27 48.947-0.0195-0.23291v-0.23438c0-22.167-18.275-40.204-40.74-40.204h-0.12695l-0.12696-0.00586c-35.87-1.4976-73.87-2.2203-112.97-2.149-39.08-0.0713-77.08 0.6514-112.96 2.1489l-0.12744 0.00586h-0.12793c-6.1802 0-12.039 1.3716-17.292 3.8125l281.46 173.06c1.9375-4.6777 3.0137-9.791 3.0137-15.15v-0.23438l0.0195-0.23242c1.4863-19.398 2.209-39.679 2.1484-60.312 0.0605-20.597-0.66211-40.877-2.1484-60.274zm-41.014 161.26 0.12696-0.004h0.12695c6.5137 0 12.67-1.5254 18.137-4.2188l-87.156 6.1074c23.566-0.33008 46.574-0.95703 68.766-1.8848z" fill="url(#SVGID_3_)"/>
   </g>
  </mask>
  <linearGradient id="linearGradient4216" y2="180.67" gradientUnits="userSpaceOnUse" x2="175.31" gradientTransform="matrix(0.0877 0 0 .090597 23.55 33.645)" y1="73.254" x1="175.31">
   <stop id="stop4194" stop-color="#fff" offset="0"/>
   <stop id="stop4196" stop-color="#dfdfdf" offset=".99438"/>
  </linearGradient>
  <linearGradient id="linearGradient4220" y2="218.48" gradientUnits="userSpaceOnUse" x2="383.29" gradientTransform="matrix(.095319 0 0 .095319 22 32.786)" x1="383.29">
   <stop id="stop3143" stop-color="#ed2828" offset=".005618"/>
   <stop id="stop3145" stop-color="#ef3b39" offset=".5"/>
   <stop id="stop3147" stop-color="#c02126" offset=".99438"/>
  </linearGradient>
  <linearGradient id="ButtonShadow-0" y2="7.0165" gradientUnits="userSpaceOnUse" x2="45.448" gradientTransform="matrix(1.0059 0 0 .99417 100 0)" y1="92.54" x1="45.448">
   <stop id="stop3750-8" offset="0"/>
   <stop id="stop3752-5" stop-opacity=".58824" offset="1"/>
  </linearGradient>
  <linearGradient id="linearGradient3780" y2="90.239" xlink:href="#ButtonShadow-0" gradientUnits="userSpaceOnUse" x2="32.251" gradientTransform="matrix(1.0238 0 0 1.0119 -1.1429 -98.071)" y1="6.1317" x1="32.251"/>
  <linearGradient id="linearGradient3721" y2="90.239" xlink:href="#ButtonShadow-0" gradientUnits="userSpaceOnUse" x2="32.251" gradientTransform="translate(0,-97)" y1="6.1317" x1="32.251"/>
 </defs>
 <metadata id="metadata2413">
  <rdf:RDF>
   <cc:Work rdf:about="">
    <dc:format>image/svg+xml</dc:format>
    <dc:type rdf:resource="http://purl.org/dc/dcmitype/StillImage"/>
    <dc:title/>
   </cc:Work>
  </rdf:RDF>
 </metadata>
 <g id="layer2" display="none">
  <rect id="rect3745" opacity=".9" rx="6" ry="6" height="85" filter="url(#filter3174)" width="86" y="7" x="5" fill="url(#ButtonShadow)"/>
 </g>
 <g id="layer7">
  <path id="path3786" opacity="0.08" d="m12-95.031c-5.5111 0-10.031 4.5202-10.031 10.031v71c0 5.5111 4.5202 10.031 10.031 10.031h72c5.5111 0 10.031-4.5202 10.031-10.031v-71c0-5.5111-4.5202-10.031-10.031-10.031h-72z" transform="scale(1,-1)" fill="url(#linearGradient3780)"/>
  <path id="path3778" opacity=".1" d="m12-94.031c-4.9716 0-9.0312 4.0596-9.0312 9.0312v71c0 4.9716 4.0596 9.0312 9.0312 9.0312h72c4.9716 0 9.0312-4.0596 9.0312-9.0312v-71c0-4.9716-4.0596-9.0312-9.0312-9.0312h-72z" transform="scale(1,-1)" fill="url(#linearGradient3780)"/>
  <path id="path3770" opacity=".2" d="m12-93c-4.4091 0-8 3.5909-8 8v71c0 4.4091 3.5909 8 8 8h72c4.4091 0 8-3.5909 8-8v-71c0-4.4091-3.5909-8-8-8h-72z" transform="scale(1,-1)" fill="url(#linearGradient3780)"/>
  <rect id="rect3723" opacity=".3" transform="scale(1,-1)" rx="7" ry="7" height="85" width="86" y="-92" x="5" fill="url(#linearGradient3780)"/>
  <rect id="rect3716" opacity=".45" transform="scale(1,-1)" rx="6" ry="6" height="84" width="84" y="-91" x="6" fill="url(#linearGradient3721)"/>
 </g>
 <g id="layer3">
  <rect id="rect3461" transform="scale(1,-1)" rx="5.8528" ry="6.1733" height="78.516" width="77.915" y="-86.771" x="8.1409" fill="url(#radialGradient3205)"/>
 </g>
 <g id="layer4" display="none">
  <rect id="rect3171" height="66" stroke="#fff" stroke-linecap="round" stroke-width=".5" fill="url(#linearGradient2881)" rx="12" ry="12" width="66" opacity=".1" clip-path="url(#clipPath3613-2)" filter="url(#filter3794-6)" y="15" x="15"/>
 </g>
 <g id="layer5">
  <path id="path5249" d="m48 18c-0.60457 0-1.1929 0.01496-1.7812 0.03125-0.0141 0.000146-0.0484-0.00015-0.0625 0-8.345 0.089-12.216 0.779-16.875 2.031-11.301 2.572-11.281 7.6-11.281 23.938 0 16.16-0.0295 20.465 11.281 23.938 4.6588 1.2527 8.5296 1.9423 16.875 2.0312 0.0141 0.00015 0.0484-0.00015 0.0625 0 0.58839 0.0163 1.1767 0.0312 1.7812 0.0312 0.60457 0 1.1929-0.015 1.7812-0.0312 0.0141-0.00015 0.0484 0.00015 0.0625 0 8.3454-0.0889 12.216-0.77855 16.875-2.0312 11.313-3.473 11.283-7.778 11.283-23.938 0-16.338 0.02-21.366-11.281-23.938-4.6588-1.2527-8.5296-1.9423-16.875-2.0312-0.0141-0.00015-0.0484 0.000146-0.0625 0-0.588-0.016-1.176-0.031-1.781-0.031z" fill="url(#linearGradient3888)"/>
  <path id="path3826" opacity=".5" d="m48 118c-0.60457 0-1.1929 0.015-1.7812 0.0312-0.01409 0.00015-0.04842-0.00015-0.0625 0-8.3453 0.0889-12.216 0.77855-16.875 2.0312-11.301 2.57-11.281 7.6-11.281 23.94 0 16.16-0.02953 20.465 11.281 23.938 4.6588 1.2527 8.5297 1.9423 16.875 2.0312 0.01408 0.00015 0.0484-0.00015 0.0625 0 0.589 0.02 1.177 0.03 1.782 0.03 0.60457 0 1.1929-0.015 1.7812-0.0312 0.0141-0.00015 0.04842 0.00015 0.0625 0 8.3453-0.0889 12.216-0.77855 16.875-2.0312 11.311-3.47 11.281-7.78 11.281-23.94 0-16.338 0.02046-21.366-11.281-23.938-4.6588-1.2527-8.5297-1.9423-16.875-2.0312-0.01408-0.00015-0.04841 0.00015-0.0625 0-0.589-0.02-1.177-0.03-1.782-0.03z" clip-path="url(#clipPath3837)" transform="translate(0,-100)" filter="url(#filter3847)" fill="#fff"/>
  <path id="path5259" opacity=".7" d="m138 78c-0.60457 0-1.1929 0.01496-1.7812 0.03125-0.0141 0.000146-0.0484-0.00015-0.0625 0-8.3454 0.08895-12.216 0.77855-16.875 2.0312-11.3 2.572-11.28 7.6-11.28 23.938 0 16.16-0.0295 20.465 11.281 23.938 4.6588 1.2527 8.5296 1.9423 16.875 2.0312 0.0141 0.00015 0.0484-0.00015 0.0625 0 0.58839 0.0163 1.1767 0.0312 1.7812 0.0312 0.60457 0 1.1929-0.015 1.7812-0.0312 0.0141-0.00015 0.0484 0.00015 0.0625 0 8.3454-0.0889 12.216-0.77855 16.875-2.0312 11.31-3.47 11.28-7.78 11.28-23.94 0-16.338 0.0205-21.366-11.281-23.938-4.6588-1.2527-8.5296-1.9423-16.875-2.0312-0.0141-0.00015-0.0484 0.000146-0.0625 0-0.59-0.016-1.18-0.031-1.78-0.031z" clip-path="url(#clipPath5265)" transform="translate(-90,-60)" filter="url(#filter3925)" stroke="#000" stroke-width="5" fill="none"/>
  <rect id="rect3783" opacity=".70161" rx="30" ry="8.4286" height="52" width="60" y="18" x="-62" fill="#0fc"/>
  <rect id="rect3830" rx="5.8528" ry="6.1733" height="78.516" width="77.915" y="108.25" x="-81.859" fill="url(#radialGradient3832)"/>
  <path id="path4097" opacity=".6" d="m45 70.969c-1.1004 0-2.0312 0.93088-2.0312 2.0312v0.875c-0.078-1.033-0.919-1.906-1.969-1.906-1.1004 0-2.0312 0.93088-2.0312 2.0312v0.875c-0.078-1.033-0.919-1.906-1.969-1.906-1.1004 0-2.0312 0.93088-2.0312 2.0312v2c0 1.1004 0.93088 2.0312 2.0312 2.0312 1.0505 0 1.8907-0.87306 1.9688-1.9062v0.875c0 1.1004 0.93088 2.0312 2.0312 2.0312 1.0505 0 1.8907-0.87306 1.9688-1.9062v0.875c0 1.1004 0.93088 2.0312 2.0312 2.0312 1.0754 0 1.9597-0.90181 2-1.9688 0.04031 1.0669 0.92459 1.9688 2 1.9688s1.9597-0.90181 2-1.9688c0.04031 1.0669 0.92459 1.9688 2 1.9688 1.1004 0 2.0312-0.93088 2.0312-2.0312v-0.875c0.07803 1.0332 0.91829 1.9062 1.9688 1.9062 1.1004 0 2.0312-0.93088 2.0312-2.0312v-0.875c0.07803 1.0332 0.91829 1.9062 1.9688 1.9062 1.1004 0 2.0312-0.93088 2.0312-2.0312v-2c0-1.1004-0.93088-2.0312-2.0312-2.0312-1.0505 0-1.8907 0.87306-1.9688 1.9062v-0.875c0-1.1004-0.93088-2.0312-2.0312-2.0312-1.0505 0-1.8907 0.87306-1.9688 1.9062v-0.875c0-1.1004-0.93088-2.0312-2.0312-2.0312-1.0754 0-1.9597 0.90181-2 1.9688-0.04031-1.0669-0.92459-1.9688-2-1.9688s-1.9597 0.90181-2 1.9688c-0.04031-1.0669-0.92459-1.9688-2-1.9688z" fill="url(#linearGradient4099)"/>
  <g id="g4026">
   <path id="path4010" fill="url(#linearGradient4101)" d="m45 72c-0.554 0-1 0.446-1 1v6c0 0.554 0.446 1 1 1s1-0.446 1-1v-6c0-0.554-0.446-1-1-1z"/>
   <path id="path4008" fill="url(#linearGradient4103)" d="m49 72c-0.554 0-1 0.446-1 1v6c0 0.554 0.446 1 1 1s1-0.446 1-1v-6c0-0.554-0.446-1-1-1z"/>
   <path id="path4006" fill="url(#linearGradient4105)" d="m53 72c-0.554 0-1 0.446-1 1v6c0 0.554 0.446 1 1 1s1-0.446 1-1v-6c0-0.554-0.446-1-1-1z"/>
   <path id="path4004" fill="url(#linearGradient4107)" d="m41 73c-0.554 0-1 0.446-1 1v4c0 0.554 0.446 1 1 1s1-0.446 1-1v-4c0-0.554-0.446-1-1-1z"/>
   <path id="path4002" fill="url(#linearGradient4109)" d="m57 73c-0.554 0-1 0.446-1 1v4c0 0.554 0.446 1 1 1s1-0.446 1-1v-4c0-0.554-0.446-1-1-1z"/>
   <path id="path4000" fill="url(#linearGradient4111)" d="m37 74c-0.554 0-1 0.446-1 1v2c0 0.554 0.446 1 1 1s1-0.446 1-1v-2c0-0.554-0.446-1-1-1z"/>
   <path id="rect3933" fill="url(#linearGradient4113)" d="m61 74c-0.554 0-1 0.446-1 1v2c0 0.554 0.446 1 1 1s1-0.446 1-1v-2c0-0.554-0.446-1-1-1z"/>
  </g>
  <path id="path3990" opacity=".8" d="m45 70.969c-0.90525 0-1.5638 0.69832-1.8125 1.5312-0.345-0.272-0.723-0.531-1.188-0.531-0.90525 0-1.5638 0.69832-1.8125 1.5312-0.345-0.272-0.723-0.531-1.188-0.531-1.1004 0-2.0312 0.93088-2.0312 2.0312v2c0 1.1004 0.93088 2.0312 2.0312 2.0312 0.4651 0 0.84318-0.25886 1.1875-0.53125 0.24872 0.83293 0.90725 1.5312 1.8125 1.5312 0.4651 0 0.84318-0.25886 1.1875-0.53125 0.24872 0.83293 0.90725 1.5312 1.8125 1.5312 0.63527 0 1.128-0.37346 1.5-0.84375 0.37205 0.47028 0.86473 0.84375 1.5 0.84375s1.128-0.37346 1.5-0.84375c0.37205 0.47028 0.86473 0.84375 1.5 0.84375 0.90525 0 1.5638-0.69832 1.8125-1.5312 0.34432 0.27239 0.7224 0.53125 1.1875 0.53125 0.90525 0 1.5638-0.69832 1.8125-1.5312 0.34432 0.27239 0.7224 0.53125 1.1875 0.53125 1.1004 0 2.0312-0.93088 2.0312-2.0312v-2c0-1.1004-0.93088-2.0312-2.0312-2.0312-0.4651 0-0.84318 0.25886-1.1875 0.53125-0.249-0.833-0.908-1.531-1.813-1.531-0.4651 0-0.84318 0.25886-1.1875 0.53125-0.248-0.833-0.907-1.531-1.812-1.531-0.63527 0-1.128 0.37346-1.5 0.84375-0.37205-0.47028-0.86473-0.84375-1.5-0.84375s-1.128 0.37346-1.5 0.84375c-0.37205-0.47028-0.86473-0.84375-1.5-0.84375z" transform="translate(0,30)" fill="url(#linearGradient3994)"/>
  <path id="path3992" fill="url(#linearGradient3996)" d="m45 102c-0.554 0-1 0.446-1 1v6c0 0.554 0.446 1 1 1s1-0.446 1-1v-6c0-0.554-0.446-1-1-1zm3 0c-0.554 0-1 0.446-1 1v6c0 0.554 0.446 1 1 1s1-0.446 1-1v-6c0-0.554-0.446-1-1-1zm3 0c-0.554 0-1 0.446-1 1v6c0 0.554 0.446 1 1 1s1-0.446 1-1v-6c0-0.554-0.446-1-1-1zm-9 1c-0.554 0-1 0.446-1 1v4c0 0.554 0.446 1 1 1s1-0.446 1-1v-4c0-0.554-0.446-1-1-1zm12 0c-0.554 0-1 0.446-1 1v4c0 0.554 0.446 1 1 1s1-0.446 1-1v-4c0-0.554-0.446-1-1-1zm-15 1c-0.554 0-1 0.446-1 1v2c0 0.554 0.446 1 1 1s1-0.446 1-1v-2c0-0.554-0.446-1-1-1zm18 0c-0.554 0-1 0.446-1 1v2c0 0.554 0.446 1 1 1s1-0.446 1-1v-2c0-0.554-0.446-1-1-1z"/>
  <g id="g3779" transform="translate(0,-1)">
   <path id="path3777" opacity=".2" d="m23.865 79.206a5.0508 5.0508 0 1 1 -10.102 0 5.0508 5.0508 0 1 1 10.102 0z" transform="matrix(1.1879 0 0 1.1879 0.65 -18.092)"/>
   <path id="path3775" opacity=".6" d="m23.865 79.206a5.0508 5.0508 0 1 1 -10.102 0 5.0508 5.0508 0 1 1 10.102 0z" transform="matrix(.98995 0 0 .98995 4.375 -2.4102)"/>
   <path id="path3235" d="m30.983 106.14a4.6224 4.6224 0 1 1 -9.2449 0 4.6224 4.6224 0 1 1 9.2449 0z" transform="matrix(.75718 0 0 .75718 3.0405 -5.3647)" stroke="url(#linearGradient3787)" stroke-linecap="square" stroke-width="3.9621" fill="url(#linearGradient3785)"/>
   <path id="path2993" d="m30.983 106.14a4.6224 4.6224 0 1 1 -9.2449 0 4.6224 4.6224 0 1 1 9.2449 0z" transform="matrix(0 -.75910 .75910 0 -57.569 95.01)" stroke="url(#linearGradient3789)" stroke-linecap="square" stroke-width="1.3174" fill="none"/>
  </g>
  <g id="g3791" transform="translate(50,-1)">
   <path id="path3793" opacity=".2" d="m23.865 79.206a5.0508 5.0508 0 1 1 -10.102 0 5.0508 5.0508 0 1 1 10.102 0z" transform="matrix(1.1879 0 0 1.1879 0.65 -18.092)"/>
   <path id="path3795" opacity=".6" d="m23.865 79.206a5.0508 5.0508 0 1 1 -10.102 0 5.0508 5.0508 0 1 1 10.102 0z" transform="matrix(.98995 0 0 .98995 4.375 -2.4102)"/>
   <path id="path3797" d="m30.983 106.14a4.6224 4.6224 0 1 1 -9.2449 0 4.6224 4.6224 0 1 1 9.2449 0z" transform="matrix(.75718 0 0 .75718 3.0405 -5.3647)" stroke="url(#linearGradient3787)" stroke-linecap="square" stroke-width="3.9621" fill="url(#linearGradient3785)"/>
   <path id="path3800" d="m30.983 106.14a4.6224 4.6224 0 1 1 -9.2449 0 4.6224 4.6224 0 1 1 9.2449 0z" transform="matrix(0 -.75910 .75910 0 -57.569 95.01)" stroke="url(#linearGradient3789)" stroke-linecap="square" stroke-width="1.3174" fill="none"/>
  </g>
  <path id="path3914" opacity=".3" d="m21.062 47.469c0.05668 5.9742 0.2876 9.9446 1.1562 12.125 1.0239 2.5702 2.6285 3.7937 7.8438 5.4062 0.01012 0.0027 0.02114-0.0027 0.03125 0 0.03047 0.0094 0.03178 0.02182 0.0625 0.03125 4.4735 1.1986 7.9017 1.8196 16.031 1.9062-0.08089-0.000862-0.04497-0.0011 0.0625 0a3.0324 3.0324 0 0 1 0.0625 0c0.5839 0.01616 1.133 0.03125 1.6875 0.03125 0.55452 0 1.1036-0.01509 1.6875-0.03125a3.0324 3.0324 0 0 1 0.0625 0c0.10747-0.0011 0.14339-0.000862 0.0625 0 8.1295-0.08665 11.558-0.70762 16.031-1.9062 0.03237-0.0087 0.06127-0.02252 0.09375-0.03125 5.2152-1.6126 6.8198-2.8361 7.8438-5.4062 0.86865-2.1804 1.0996-6.1508 1.1562-12.125-0.09203 4.9149-0.38199 8.1815-1.1562 10.125-1.0239 2.5702-2.6285 3.7937-7.8438 5.4062-0.03248 0.0087-0.06138 0.02258-0.09375 0.03125-4.4735 1.1986-7.9017 1.8196-16.031 1.9062 0.08089-0.000862 0.04497-0.0011-0.0625 0a3.0324 3.0324 0 0 0 -0.0625 0c-0.5839 0.01616-1.133 0.03125-1.6875 0.03125-0.55452 0-1.1036-0.01509-1.6875-0.03125a3.0324 3.0324 0 0 0 -0.0625 0c-0.10747-0.0011-0.14339-0.000862-0.0625 0-8.13-0.086-11.558-0.707-16.032-1.906-0.03-0.009-0.032-0.022-0.062-0.031-0.01-0.003-0.021 0.003-0.032 0-5.215-1.613-6.819-2.836-7.843-5.406-0.775-1.944-1.064-5.21-1.157-10.125z" fill="#fff"/>
  <path id="path3391" opacity=".6" d="m48 18c-0.60457 0-1.1929 0.01496-1.7812 0.03125-0.0141 0.000146-0.0484-0.00015-0.0625 0-8.345 0.089-12.216 0.779-16.875 2.031-11.301 2.572-11.281 7.6-11.281 23.938 0 16.16-0.0295 20.465 11.281 23.938 4.6588 1.2527 8.5296 1.9423 16.875 2.0312 0.0141 0.00015 0.0484-0.000146 0.0625 0 0.589 0.016 1.177 0.031 1.782 0.031 0.60457 0 1.1929-0.01497 1.7812-0.03125 0.0141-0.000146 0.0484 0.00015 0.0625 0 8.345-0.089 12.216-0.779 16.875-2.031 11.311-3.473 11.281-7.778 11.281-23.938 0-16.338 0.02-21.366-11.281-23.938-4.6588-1.2527-8.5296-1.9423-16.875-2.0312-0.0141-0.00015-0.0484 0.000146-0.0625 0-0.588-0.016-1.176-0.031-1.781-0.031z"/>
 </g>
 <g id="layer6">
  <path id="path3209" fill="url(#linearGradient4216)" d="m41.388 40.282v9.5933h-1.7266v-1.059c-0.31825 0.39017-0.64931 0.68761-0.99348 0.89163-0.34416 0.20367-0.67839 0.30594-1.0021 0.30594-0.39915 0-0.7001-0.14262-0.90257-0.42839-0.202-0.286-0.303-0.714-0.303-1.285v-8.0183h1.7266v7.3539c0 0.22755 0.03614 0.39194 0.10843 0.49368 0.07228 0.10174 0.18936 0.15271 0.35148 0.15271 0.12731 0 0.2876-0.06724 0.48141-0.2019 0.19381-0.13483 0.37166-0.30682 0.53382-0.51651v-7.2819h1.7266zm-11.406 2.1932c0-0.74295 0.23231-1.3344 0.69723-1.7749 0.46492-0.44051 1.0896-0.66076 1.8743-0.66076 0.71453 0 1.2999 0.23242 1.7562 0.69673 0.45627 0.46431 0.68438 1.062 0.68438 1.7931v4.9549c0 0.82103-0.22396 1.4651-0.67128 1.9324-0.44736 0.46732-1.0634 0.70106-1.8479 0.70106-0.75539 0-1.3599-0.24136-1.813-0.72353-0.45336-0.48218-0.67993-1.1309-0.67993-1.9459v-4.9731zm1.7769 5.1527c0 0.26418 0.06128 0.46785 0.18439 0.61188 0.12282 0.14386 0.2983 0.21552 0.52671 0.21552 0.23415 0 0.41987-0.07325 0.55763-0.22012 0.1375-0.14704 0.2064-0.34929 0.2064-0.60728v-5.2247c0-0.20968-0.07049-0.37906-0.21086-0.50784-0.14037-0.12882-0.32476-0.19345-0.55318-0.19345-0.2106 0-0.38189 0.06463-0.51361 0.19345-0.13176 0.12877-0.1975 0.29816-0.1975 0.50784v5.2247zm-8.2096-10.757h1.9584l1.2616 5.1982h0.12209l1.203-5.1982h1.9757l-2.263 7.6084v5.3962h-1.9445v-5.1533l-2.3133-7.8514z"/>
  <g id="g4222" transform="matrix(.96508 0 0 .96508 1.876 1.9343)">
   <path id="path3149" d="m73.793 37.408c0-2.4375-2.0008-4.4153-4.4664-4.4153-3.519-0.14689-7.1197-0.21209-10.792-0.20539-3.6726-0.0067-7.2731 0.0585-10.792 0.20539-2.4654 0-4.4663 1.9778-4.4663 4.4153-0.148 1.9305-0.21223 3.861-0.20646 5.7915-0.0057 1.9305 0.05846 3.861 0.20651 5.7915 0 2.4375 2.0009 4.4154 4.4664 4.4154 3.5191 0.14689 7.1196 0.21205 10.792 0.20516 3.6726 0.0069 7.2733-0.05828 10.792-0.20516 2.4656 0 4.4664-1.9779 4.4664-4.4154 0.14801-1.9306 0.21223-3.8611 0.20646-5.7915 0.0057-1.9305-0.05845-3.8611-0.20646-5.7915z" fill="url(#linearGradient4220)"/>
   <path id="path3186" d="m496.26 8.27 0.12696 0.00586h0.12695c22.465 0 40.74 18.036 40.74 40.204v0.23438l0.0195 0.23291c1.4863 19.397 2.209 39.678 2.1484 60.274 0.0605 20.634-0.66211 40.914-2.1484 60.312l-0.0195 0.23242v0.23438c0 22.17-18.275 40.205-40.74 40.205h-0.12695l-0.12696 0.004c-35.881 1.498-73.887 2.2207-112.96 2.1484-39.094 0.0723-77.098-0.65039-112.98-2.1484l-0.12744-0.004h-0.12744c-22.465 0-40.741-18.035-40.741-40.205v-0.23438l-0.0181-0.23242c-1.4868-19.389-2.21-39.668-2.1489-60.277-0.0615-20.635 0.66113-40.915 2.1484-60.31l0.0181-0.23291v-0.23438c0-22.167 18.276-40.204 40.74-40.204h0.12793l0.12744-0.00586c35.876-1.4976 73.882-2.2202 112.96-2.1489 39.1-0.071289 77.105 0.65137 112.98 2.1489z" mask="url(#SVGID_2_)" transform="matrix(.095319 0 0 .095319 22 32.786)" fill="#fff"/>
   <g id="g3211" transform="matrix(.095319 0 0 .095319 22 32.786)">
    <path id="path3213" d="m314.23 33.879h-68.045v20.834h22.937v122.71h22.171v-122.71h22.938v-20.831zm36.238 118.03c-1.8476 2.3145-3.877 4.2148-6.0859 5.7012-2.2109 1.4883-4.0391 2.2285-5.4902 2.2285-1.8476 0-3.1836-0.5625-4.0078-1.6855-0.82422-1.1211-1.2363-2.9375-1.2363-5.4492v-81.166h-19.688v88.506c0 6.3047 1.1543 11.033 3.4629 14.188 2.3086 3.1523 5.7402 4.7266 10.291 4.7266 3.6914 0 7.502-1.1289 11.426-3.377 3.9258-2.252 7.6992-5.5352 11.328-9.8418v11.689h19.688v-105.9h-19.688v80.377zm76.277-81.715c-3.0527 0-6.0684 0.84228-9.0527 2.5239-2.9824 1.6841-5.7988 4.1392-8.4512 7.3706v-46.211h-19.879v143.54h19.879v-8.1406c2.5859 3.2246 5.3887 5.6113 8.4043 7.1582s6.4473 2.3203 10.295 2.3203c5.832 0 10.291-1.9941 13.373-5.9902s4.627-9.7578 4.627-17.287v-58.74c0-8.6489-1.6426-15.237-4.9258-19.759-3.2812-4.5215-8.0391-6.7856-14.27-6.7856zm-1.0664 82.41c0 3.375-0.57031 5.8105-1.7051 7.2969-1.1348 1.4883-2.9062 2.2305-5.3105 2.2305-1.6719 0-3.2578-0.37891-4.7617-1.1406-1.5059-0.75782-3.0586-2-4.6602-3.7207v-65.986c1.3359-1.4541 2.6875-2.5293 4.0586-3.2251 1.3691-0.69287 2.7578-1.0425 4.1602-1.0425 2.6699 0 4.7109 0.92871 6.1133 2.7803 1.4043 1.852 2.1055 4.5635 2.1055 8.1357v54.674zm93.027-25.643v-26.959c0-10.049-2.4199-17.752-7.252-23.109-4.8359-5.3579-11.756-8.0371-20.762-8.0371-8.8105 0-15.996 2.894-21.557 8.6787-5.5644 5.7881-8.3457 13.275-8.3457 22.468v47.527c0 10.193 2.5332 18.201 7.5977 24.025 5.0664 5.8223 12.004 8.7344 20.814 8.7344 9.8008 0 17.17-2.748 22.104-8.2402 4.9336-5.4922 7.4004-13.666 7.4004-24.52v-7.9531h-20.262v7.3594c0 6.2305-0.65039 10.26-1.9492 12.08-1.2988 1.8223-3.582 2.7344-6.8457 2.7344-3.1367 0-5.3516-1.0762-6.6504-3.2324-1.2988-2.1523-1.9473-6.0156-1.9473-11.582v-19.975h37.654zm-37.66-27.152c0-4.4321 0.67969-7.6099 2.0488-9.5303 1.3652-1.9175 3.6133-2.8789 6.7461-2.8789 2.998 0 5.1816 0.96142 6.5488 2.8789 1.3652 1.9204 2.0488 5.0981 2.0488 9.5303v10.722h-17.39v-10.722z"/>
    <path id="path3215" d="m314.23 35.409h-68.045v20.834h22.937v122.71h22.171v-122.71h22.938v-20.831zm36.238 118.03c-1.8476 2.3144-3.877 4.2148-6.0859 5.7012-2.2109 1.4883-4.0391 2.2285-5.4902 2.2285-1.8476 0-3.1836-0.5625-4.0078-1.6856-0.82422-1.123-1.2363-2.9375-1.2363-5.4492v-81.167h-19.688v88.506c0 6.3047 1.1543 11.033 3.4629 14.188 2.3086 3.1523 5.7402 4.7266 10.291 4.7266 3.6914 0 7.502-1.1289 11.426-3.377 3.9258-2.252 7.6992-5.5352 11.328-9.8418v11.689h19.688v-105.9h-19.688v80.377zm76.277-81.715c-3.0527 0-6.0684 0.84228-9.0527 2.5234-2.9824 1.6846-5.7988 4.1396-8.4512 7.3711v-46.211h-19.879v143.54h19.879v-8.1406c2.5859 3.2246 5.3887 5.6113 8.4043 7.1582s6.4473 2.3203 10.295 2.3203c5.832 0 10.291-1.9941 13.373-5.9902s4.627-9.7578 4.627-17.287v-58.74c0-8.6489-1.6426-15.237-4.9258-19.759-3.2812-4.5215-8.0391-6.7852-14.27-6.7852zm-1.0664 82.41c0 3.375-0.57031 5.8086-1.7051 7.2969-1.1348 1.4863-2.9062 2.2305-5.3105 2.2305-1.6719 0-3.2578-0.37891-4.7617-1.1406-1.5059-0.75781-3.0586-2-4.6602-3.7207v-65.997c1.3359-1.4546 2.6875-2.5298 4.0586-3.2256 1.3691-0.69287 2.7578-1.042 4.1602-1.042 2.6699 0 4.7109 0.92871 6.1133 2.7803 1.4043 1.8516 2.1055 4.5635 2.1055 8.1353v54.674zm93.027-25.643v-26.959c0-10.05-2.4199-17.752-7.252-23.11-4.8359-5.3579-11.756-8.0366-20.762-8.0366-8.8105 0-15.996 2.894-21.557 8.6787-5.5644 5.7881-8.3457 13.275-8.3457 22.468v47.527c0 10.193 2.5332 18.201 7.5977 24.025 5.0664 5.8223 12.004 8.7344 20.814 8.7344 9.8008 0 17.17-2.748 22.104-8.2402 4.9336-5.4922 7.4004-13.666 7.4004-24.52v-7.9531h-20.262v7.3594c0 6.2305-0.65039 10.26-1.9492 12.08-1.2988 1.8223-3.582 2.7324-6.8457 2.7324-3.1367 0-5.3516-1.0742-6.6504-3.2305-1.2988-2.1543-1.9473-6.0156-1.9473-11.582v-19.975h37.654zm-37.654-27.156c0-4.4316 0.67969-7.6094 2.0488-9.5298 1.3652-1.9175 3.6133-2.8789 6.7461-2.8789 2.998 0 5.1816 0.96143 6.5488 2.8789 1.3652 1.9204 2.0488 5.0981 2.0488 9.5298v10.719h-17.4v-10.719z" fill="#fff"/>
   </g>
  </g>
 </g>
 <g id="layer1">
  <rect id="rect3690" opacity=".05" rx="3.946" ry="3.9459" height="73" width="73" stroke="#000" y="11.5" x="11.5" stroke-width="9" fill="none"/>
  <rect id="rect3688" opacity=".1" rx="3.946" ry="3.9459" height="73" width="73" stroke="#000" y="11.5" x="11.5" stroke-width="7" fill="none"/>
  <rect id="rect3686" opacity=".2" rx="3.946" ry="3.9459" height="73" width="73" stroke="#000" y="11.5" x="11.5" stroke-width="5" fill="none"/>
  <rect id="rect3682" rx="3.946" ry="3.9459" height="73" width="73" stroke="#333" y="11.5" x="11.5" stroke-width="3" fill="none"/>
  <path id="rect2419-2" d="m12 6c-3.324 0-6 2.676-6 6v72c0 3.324 2.676 6 6 6h72c3.324 0 6-2.676 6-6v-72c0-3.324-2.676-6-6-6h-72zm4 6h64c2.216 0 4 1.784 4 4v64c0 2.216-1.784 4-4 4h-64c-2.216 0-4-1.784-4-4v-64c0-2.216 1.784-4 4-4z" fill="url(#linearGradient3668)"/>
  <path id="rect3728" opacity=".4" d="m12 6c-3.324 0-6 2.676-6 6v2 68 2c0 0.33472 0.04135 0.6507 0.09375 0.96875 0.0487 0.2956 0.09704 0.59692 0.1875 0.875 0.0099 0.03038 0.02089 0.0636 0.03125 0.09375 0.09886 0.28777 0.23488 0.54745 0.375 0.8125 0.14459 0.27351 0.31562 0.53562 0.5 0.78125 0.18438 0.24564 0.37378 0.47347 0.59375 0.6875 0.43995 0.42806 0.94291 0.81453 1.5 1.0938 0.27854 0.13961 0.57347 0.24695 0.875 0.34375-0.2562-0.10022-0.48671-0.23627-0.71875-0.375-0.0074-0.0044-0.02387 0.0045-0.03125 0-0.03193-0.0193-0.06229-0.04251-0.09375-0.0625-0.1204-0.0767-0.23102-0.16351-0.34375-0.25-0.10617-0.0808-0.21328-0.16111-0.3125-0.25-0.1778-0.162-0.3473-0.346-0.4999-0.531-0.1075-0.131-0.2183-0.266-0.3124-0.407-0.0251-0.038-0.0385-0.086-0.0626-0.125-0.0647-0.103-0.1302-0.204-0.1874-0.312-0.1011-0.195-0.2057-0.416-0.2813-0.625-0.008-0.022-0.0236-0.041-0.0313-0.063-0.0318-0.092-0.0358-0.187-0.0624-0.281-0.0304-0.107-0.0704-0.203-0.0938-0.313-0.0729-0.341-0.125-0.698-0.125-1.062v-2-68-2c0-2.782 2.2182-5 5-5h2 68 2c2.7818 0 5 2.2182 5 5v2 68 2c0 0.3643-0.05212 0.72099-0.125 1.0625-0.04415 0.20689-0.08838 0.39766-0.15625 0.59375-0.0077 0.02195-0.0233 0.04069-0.03125 0.0625-0.06274 0.17374-0.13838 0.36745-0.21875 0.53125-0.04158 0.0828-0.07904 0.16995-0.125 0.25-0.0546 0.09721-0.12677 0.18835-0.1875 0.28125-0.09411 0.14096-0.20492 0.276-0.3125 0.40625-0.14317 0.17445-0.30314 0.347-0.46875 0.5-0.01117 0.0102-0.01998 0.02115-0.03125 0.03125-0.13839 0.12556-0.28509 0.23444-0.4375 0.34375-0.10257 0.07315-0.20432 0.15336-0.3125 0.21875-0.0074 0.0045-0.02384-0.0044-0.03125 0-0.23204 0.13873-0.46255 0.27478-0.71875 0.375 0.30153-0.0968 0.59646-0.20414 0.875-0.34375 0.55709-0.27922 1.0601-0.66569 1.5-1.0938 0.21997-0.21403 0.40937-0.44186 0.59375-0.6875s0.35541-0.50774 0.5-0.78125c0.14012-0.26505 0.27614-0.52473 0.375-0.8125 0.01041-0.03078 0.02133-0.06274 0.03125-0.09375 0.09046-0.27808 0.1388-0.5794 0.1875-0.875 0.053-0.318 0.094-0.634 0.094-0.969v-2-68-2c0-3.324-2.676-6-6-6h-72z" fill="url(#linearGradient3188)"/>
  <path id="path3615" opacity=".2" d="m12 90c-3.324 0-6-2.676-6-6v-2-68-2c0-0.33472 0.04135-0.6507 0.09375-0.96875 0.0487-0.2956 0.09704-0.59692 0.1875-0.875 0.0099-0.03 0.0209-0.063 0.0313-0.094 0.0989-0.2873 0.2349-0.547 0.375-0.812 0.1446-0.2735 0.3156-0.5356 0.5-0.7812 0.1844-0.2457 0.3738-0.4735 0.5937-0.6876 0.44-0.428 0.943-0.8145 1.5-1.0937 0.2786-0.1396 0.5735-0.2469 0.8748-0.3437-0.256 0.1002-0.4865 0.2362-0.7185 0.375-0.00741 0.0044-0.023866-0.0045-0.03125 0-0.031933 0.0193-0.062293 0.04251-0.09375 0.0625-0.1204 0.0767-0.23102 0.16351-0.34375 0.25-0.10617 0.0808-0.21328 0.16111-0.3125 0.25-0.1779 0.1614-0.3474 0.3453-0.5 0.5312-0.1075 0.1303-0.2183 0.2653-0.3124 0.4063-0.0251 0.0383-0.0385 0.0858-0.0626 0.125-0.0647 0.103-0.1302 0.2045-0.1874 0.3124-0.1011 0.1948-0.2057 0.4158-0.2813 0.625-0.008 0.0219-0.0236 0.0406-0.0313 0.0626-0.0318 0.0919-0.0358 0.1868-0.0624 0.2812-0.0304 0.1066-0.0704 0.203-0.0938 0.3125-0.0729 0.3415-0.125 0.6985-0.125 1.0625v2 68 2c0 2.7818 2.2182 5 5 5h2 68 2c2.7818 0 5-2.2182 5-5v-2-68-2c0-0.364-0.052-0.721-0.125-1.0625-0.044-0.2069-0.088-0.3977-0.156-0.5937-0.008-0.022-0.024-0.0407-0.031-0.0626-0.063-0.1737-0.139-0.3674-0.219-0.5312-0.042-0.0828-0.079-0.17-0.125-0.25-0.055-0.0972-0.127-0.1884-0.188-0.2812-0.094-0.141-0.205-0.276-0.312-0.4063-0.143-0.1745-0.303-0.347-0.469-0.5-0.011-0.0102-0.02-0.0211-0.031-0.0313-0.139-0.1255-0.285-0.2344-0.438-0.3437-0.102-0.0731-0.204-0.1534-0.312-0.2187-0.0074-0.0045-0.02384 0.0044-0.03125 0-0.23204-0.13873-0.46255-0.27478-0.71875-0.375 0.30153 0.0968 0.59646 0.20414 0.875 0.34375 0.55709 0.27922 1.0601 0.66569 1.5 1.0938 0.21997 0.21403 0.40937 0.44186 0.59375 0.6875s0.35541 0.50774 0.5 0.78125c0.14012 0.26505 0.27614 0.52473 0.375 0.8125 0.01041 0.03078 0.02133 0.06274 0.03125 0.09375 0.09046 0.27808 0.1388 0.5794 0.1875 0.875 0.053 0.318 0.094 0.634 0.094 0.969v2 68 2c0 3.324-2.676 6-6 6h-72z" fill="url(#radialGradient2874)"/>
  <path id="path3692" opacity=".2" d="m12 80v1c0 2.216 1.784 4 4 4h64c2.216 0 4-1.784 4-4v-1c0 2.216-1.784 4-4 4h-64c-2.216 0-4-1.784-4-4z" fill="#d59266"/>
  <path id="path3902" opacity=".7" d="m48 20.476c-0.52935 0-1.0445 0.0077-1.5596 0.01595-0.01233 0.000074-0.04239-0.000077-0.05472 0-7.3071 0.04542-10.696 0.39749-14.776 1.0371-9.8956 1.3128-9.8777 3.8799-9.8777 12.221 0 8.2503-0.02586 10.449 9.8777 12.221 4.0792 0.63957 7.4685 0.99165 14.776 1.0371 0.01233 0.000077 0.04238-0.000074 0.05472 0 0.51518 0.0083 1.0303 0.01595 1.5596 0.01595 0.52935 0 1.0445-0.0077 1.5596-0.01595 0.01235-0.000074 0.04239 0.000077 0.05472 0 7.3071-0.04542 10.696-0.39749 14.776-1.0371 9.9036-1.7727 9.8777-3.971 9.8777-12.221 0-8.3415 0.01791-10.909-9.8777-12.221-4.0792-0.63957-7.4685-0.99165-14.776-1.0371-0.01233-0.000077-0.04239 0.000074-0.05472 0-0.516-0.009-1.031-0.016-1.56-0.016z" fill="url(#linearGradient3931)"/>
 </g>
</svg>
