<?xml version="1.0" encoding="UTF-8" standalone="no"?>
<!-- Created with Inkscape (http://www.inkscape.org/) -->
<svg id="svg2" xmlns:rdf="http://www.w3.org/1999/02/22-rdf-syntax-ns#" xmlns="http://www.w3.org/2000/svg" height="96" width="96" version="1.1" xmlns:cc="http://creativecommons.org/ns#" xmlns:xlink="http://www.w3.org/1999/xlink" xmlns:dc="http://purl.org/dc/elements/1.1/">
 <defs id="defs4">
  <linearGradient id="linearGradient6054">
   <stop id="stop6056" stop-color="#bababa" offset="0"/>
   <stop id="stop6058" stop-color="#dedede" offset="1"/>
  </linearGradient>
  <linearGradient id="linearGradient3700-09">
   <stop id="stop3702-67" stop-color="#70a83e" offset="0"/>
   <stop id="stop3704-18" stop-color="#9fd058" offset="1"/>
  </linearGradient>
  <linearGradient id="linearGradient9745" y2="5.9877" xlink:href="#linearGradient3700-09" gradientUnits="userSpaceOnUse" x2="48" gradientTransform="translate(-169.06 968.2)" y1="90" x1="48"/>
  <linearGradient id="linearGradient3875-2" y2="40" xlink:href="#linearGradient3865" gradientUnits="userSpaceOnUse" x2="48" gradientTransform="translate(0,36)" y1="32" x1="48"/>
  <linearGradient id="linearGradient3865">
   <stop id="stop3867" offset="0"/>
   <stop id="stop3869-6" stop-opacity="0" offset="1"/>
  </linearGradient>
  <filter id="filter4020" height="1.7971" width="1.2325" color-interpolation-filters="sRGB" y="-.39857" x="-.11625">
   <feGaussianBlur id="feGaussianBlur4022" stdDeviation="1.1625"/>
  </filter>
  <filter id="filter4078" height="1.3721" width="1.1294" color-interpolation-filters="sRGB" y="-.18604" x="-.064691">
   <feGaussianBlur id="feGaussianBlur4080" stdDeviation="0.7025"/>
  </filter>
  <linearGradient id="linearGradient4060" y2="32" xlink:href="#linearGradient4040" gradientUnits="userSpaceOnUse" x2="46" y1="26" x1="46"/>
  <linearGradient id="linearGradient4040">
   <stop id="stop4042" stop-color="#656565" offset="0"/>
   <stop id="stop4044" stop-color="#b9b9b9" offset="1"/>
  </linearGradient>
  <linearGradient id="linearGradient4058" y2="18" xlink:href="#linearGradient3967-8" gradientUnits="userSpaceOnUse" x2="45" gradientTransform="matrix(1,0,0,-1,0,45)" y1="30" x1="45"/>
  <linearGradient id="linearGradient3967-8">
   <stop id="stop3969" stop-color="#fff" offset="0"/>
   <stop id="stop3971-6" stop-color="#8e8e8e" offset=".75"/>
   <stop id="stop3973-0" stop-color="#cacaca" offset="1"/>
  </linearGradient>
  <linearGradient id="linearGradient3871" y2="40" xlink:href="#linearGradient3865" gradientUnits="userSpaceOnUse" x2="48" y1="32" x1="48"/>
  <linearGradient id="linearGradient6080" y2="1034.5" xlink:href="#linearGradient6054" gradientUnits="userSpaceOnUse" x2="47.995" gradientTransform="matrix(.95557 0 0 .88471 1.7612 -1919.8)" y1="987.86" x1="47.995"/>
  <linearGradient id="linearGradient6086" y2="1034.5" xlink:href="#linearGradient6054" gradientUnits="userSpaceOnUse" x2="47.995" gradientTransform="matrix(.95557 0 0 .88471 1.7612 -1884.4)" y1="987.86" x1="47.995"/>
  <linearGradient id="linearGradient6089" y2="30" xlink:href="#linearGradient3967-8" gradientUnits="userSpaceOnUse" x2="48" gradientTransform="matrix(.90524 0 0 .94683 3.8277 994.82)" y1="26" x1="48"/>
  <linearGradient id="linearGradient6098" y2="30" xlink:href="#linearGradient3967-8" gradientUnits="userSpaceOnUse" x2="48" gradientTransform="matrix(.90524 0 0 .94683 3.8277 958.98)" y1="26" x1="48"/>
 </defs>
 <metadata id="metadata7">
  <rdf:RDF>
   <cc:Work rdf:about="">
    <dc:format>image/svg+xml</dc:format>
    <dc:type rdf:resource="http://purl.org/dc/dcmitype/StillImage"/>
    <dc:title/>
   </cc:Work>
  </rdf:RDF>
 </metadata>
 <g id="layer1" transform="translate(0 -956.36)">
  <rect id="rect5263-0" fill-opacity=".019608" ry="12.724" height="89.978" width="89.624" y="959.35" x="3.3534"/>
  <rect id="rect5261-6" fill-opacity=".039216" ry="12.552" height="88.762" width="88.413" y="959.96" x="3.9589"/>
  <rect id="rect5259-9" fill-opacity=".078431" ry="12.38" height="87.546" width="87.202" y="960.57" x="4.5645"/>
  <rect id="rect5257-5" fill-opacity=".15686" ry="12.208" height="86.33" width="85.991" y="961.18" x="5.1701"/>
  <path id="rect3145" d="m17.75 5.4062c-6.642 0-11.969 5.3948-11.969 12.063l0.0002 61.031c0 6.668 5.3268 12.031 11.969 12.031h60.812c6.642 0 11.969-5.363 11.969-12.031v-61.031c0-6.668-5.327-12.063-11.969-12.063l-60.812 0.0002z" transform="translate(0 956.36)" fill="#e6e6e6"/>
  <rect id="rect6082" rx="3.982" ry="3.9628" height="30.111" width="67.125" y="969.69" x="14.484" fill="#999"/>
  <path id="rect5265-0" d="m5.7756 1029.8v5.0663c0 6.668 5.3434 12.032 11.985 12.032h60.809c6.6418 0 11.985-5.3645 11.985-12.032v-5.0663c0 6.6681-5.3434 12.032-11.985 12.032h-60.809c-6.6418 0-11.985-5.3643-11.985-12.032z" fill-opacity=".18957"/>
  <path id="path5252-0" d="m5.7756 1033.9v1.0133c0 6.668 5.3434 12.032 11.985 12.032h60.809c6.6418 0 11.985-5.3645 11.985-12.032v-1.0133c0 6.6681-5.3434 12.032-11.985 12.032h-60.809c-6.6418 0-11.985-5.3644-11.985-12.032z" fill-opacity=".098039"/>
  <rect id="rect4772" display="none" height="107.79" width="107.79" y="971.68" x="-369.64" fill="none"/>
  <g id="g4788" display="none" transform="matrix(.21052 0 0 .21052 -369.68 971.63)"></g>
  <g id="g4806" display="none" transform="matrix(.21052 0 0 .21052 -369.68 971.63)">
   <g id="g4808" display="inline">
    <path id="path4810" d="m349.1 256.65c-0.265-0.254 37.637 27.605 39.421 25.012 6.362-9.252 82.046-93.137 84.784-116.24 0.242-2.003-0.516-4.096-0.516-4.096s-1.19-0.144-6.325-4.314c-2.692-2.192-5.483-4.581-5.483-4.581-16.054 0.998-57.885 41.559-111.06 103.57" fill="#050505" display="none"/>
   </g>
  </g>
  <g id="g4796" transform="matrix(.21052 0 0 .21052 -369.68 971.63)"></g>
  <rect id="rect3873" rx="6" ry="6" height="84" width="84" display="none" y="974.2" x="-163.06" fill="url(#linearGradient9745)"/>
  <rect id="rect3880" rx="6" ry="6" height="84" width="84" display="none" y="974.2" x="-163.06" fill="url(#linearGradient9745)"/>
  <rect id="rect6066" rx="3.982" ry="3.9537" height="30.042" width="67.125" y="1005.1" x="14.484" fill="#999"/>
  <rect id="rect6068" transform="scale(1,-1)" rx="3.9193" ry="3.5091" height="26.664" width="66.069" y="-1032.1" x="15.012" fill="url(#linearGradient6080)"/>
  <rect id="rect6084" ry="3.5091" rx="3.9193" transform="scale(1,-1)" height="26.664" width="66.069" y="-996.7" x="15.012" fill="url(#linearGradient6086)"/>
  <path id="path3873" opacity=".25" stroke-linejoin="round" d="m38 65 2 7h20l-2-6.9282" transform="matrix(.90524 0 0 .94683 3.8277 958.84)" filter="url(#filter4020)" stroke="url(#linearGradient3875-2)" stroke-width="3" fill="none"/>
  <g id="g4054" opacity=".2" transform="matrix(.90524 0 0 .94683 3.8277 961.82)" filter="url(#filter4078)">
   <path id="path4046" style="color:#000000" d="m37 21.969c-1.1143 0-2.0312 0.91693-2.0312 2.0312v1 1 2 1c0 1.1143 0.91693 2.0312 2.0312 2.0312h22c1.1143 0 2.0312-0.91693 2.0312-2.0312v-1-2-1-1c0-1.1143-0.91693-2.0312-2.0312-2.0312h-2c-1.1143 0-2.0312 0.91693-2.0312 2.0312v0.96875h-0.96875-12.969v-0.96875c0-1.1143-0.91693-2.0312-2.0312-2.0312h-2z" transform="matrix(1,0,0,-1,0,45)" fill="url(#linearGradient4060)"/>
   <path id="path4048" style="color:#000000" d="m37 22c-0.554 0-1-0.446-1-1v-1-1-2-1c0-0.554 0.446-1 1-1h22c0.554 0 1 0.446 1 1v1 2 1 1c0 0.554-0.446 1-1 1h-2c-0.554 0-1-0.446-1-1v-1c0-0.554-0.446-1-1-1h-1-13c-0.554 0-1 0.446-1 1v1c0 0.554-0.446 1-1 1h-2z" fill="url(#linearGradient4058)"/>
  </g>
  <path id="path4006" opacity=".25" stroke-linejoin="round" d="m38 29 2 7h20l-2-6.9282" transform="matrix(.90524 0 0 .94683 3.8277 957.08)" filter="url(#filter4020)" stroke="url(#linearGradient3871)" stroke-width="3" fill="none"/>
  <path id="path3994" style="color:#000000" d="m37.321 979.78c-1.0087 0-1.8388 0.86818-1.8388 1.9232v0.94682 0.94683 1.8936 0.94683c0 1.0551 0.83004 1.9232 1.8388 1.9232h19.915c1.0087 0 1.8388-0.86817 1.8388-1.9232v-0.94683-1.8936-0.94683-0.94682c0-1.0551-0.83004-1.9232-1.8388-1.9232h-1.8105c-1.0087 0-1.8388 0.86818-1.8388 1.9232v0.91724h-0.87695-11.74v-0.91724c0-1.0551-0.83004-1.9232-1.8388-1.9232h-1.8105z" fill="#b3b3b3"/>
  <path id="rect3934" style="color:#000000" d="m37.321 980.75c-0.5015 0-0.90524 0.42228-0.90524 0.94683v0.94682 0.94683 1.8936 0.94683c0 0.52453 0.40373 0.94683 0.90524 0.94683h19.915c0.5015 0 0.90524-0.4223 0.90524-0.94683v-0.94683-1.8936-0.94683-0.94682c0-0.52455-0.40374-0.94683-0.90524-0.94683h-1.8105c-0.5015 0-0.90524 0.42228-0.90524 0.94683v0.94682c0 0.52454-0.40374 0.94683-0.90523 0.94683h-0.90524-11.768c-0.5015 0-0.90524-0.42229-0.90524-0.94683v-0.94682c0-0.52455-0.40374-0.94683-0.90524-0.94683h-1.8105z" fill="url(#linearGradient6098)"/>
  <g id="g4082" opacity=".2" transform="matrix(.90524 0 0 .94683 3.8277 997.66)" filter="url(#filter4078)">
   <path id="path4084" style="color:#000000" d="m37 21.969c-1.1143 0-2.0312 0.91693-2.0312 2.0312v1 1 2 1c0 1.1143 0.91693 2.0312 2.0312 2.0312h22c1.1143 0 2.0312-0.91693 2.0312-2.0312v-1-2-1-1c0-1.1143-0.91693-2.0312-2.0312-2.0312h-2c-1.1143 0-2.0312 0.91693-2.0312 2.0312v0.96875h-0.96875-12.969v-0.96875c0-1.1143-0.91693-2.0312-2.0312-2.0312h-2z" transform="matrix(1,0,0,-1,0,45)" fill="url(#linearGradient4060)"/>
   <path id="path4086" style="color:#000000" d="m37 22c-0.554 0-1-0.446-1-1v-1-1-2-1c0-0.554 0.446-1 1-1h22c0.554 0 1 0.446 1 1v1 2 1 1c0 0.554-0.446 1-1 1h-2c-0.554 0-1-0.446-1-1v-1c0-0.554-0.446-1-1-1h-1-13c-0.554 0-1 0.446-1 1v1c0 0.554-0.446 1-1 1h-2z" fill="url(#linearGradient4058)"/>
  </g>
  <path id="path4090" style="color:#000000" d="m37.321 1015.6c-1.0087 0-1.8388 0.8682-1.8388 1.9232v0.9469 0.9468 1.8936 0.9469c0 1.055 0.83004 1.9233 1.8388 1.9233h19.915c1.0087 0 1.8388-0.8683 1.8388-1.9233v-0.9469-1.8936-0.9468-0.9469c0-1.055-0.83004-1.9232-1.8388-1.9232h-1.8105c-1.0087 0-1.8388 0.8682-1.8388 1.9232v0.9173h-0.87695-11.74v-0.9173c0-1.055-0.83004-1.9232-1.8388-1.9232h-1.8105z" fill="#b3b3b3"/>
  <path id="path4092" style="color:#000000" d="m37.321 1016.6c-0.5015 0-0.90524 0.4222-0.90524 0.9468v0.9469 0.9468 1.8936 0.9469c0 0.5245 0.40373 0.9468 0.90524 0.9468h19.915c0.5015 0 0.90524-0.4223 0.90524-0.9468v-0.9469-1.8936-0.9468-0.9469c0-0.5246-0.40374-0.9468-0.90524-0.9468h-1.8105c-0.5015 0-0.90524 0.4222-0.90524 0.9468v0.9469c0 0.5246-0.40374 0.9468-0.90523 0.9468h-0.90524-11.768c-0.5015 0-0.90524-0.4222-0.90524-0.9468v-0.9469c0-0.5246-0.40374-0.9468-0.90524-0.9468h-1.8105z" fill="url(#linearGradient6089)"/>
 </g>
</svg>
