<?xml version="1.0" encoding="UTF-8" standalone="no"?>
<!-- Created with Inkscape (http://www.inkscape.org/) -->
<svg id="svg2408" xmlns:rdf="http://www.w3.org/1999/02/22-rdf-syntax-ns#" xmlns="http://www.w3.org/2000/svg" height="96" width="96" version="1.0" xmlns:cc="http://creativecommons.org/ns#" xmlns:xlink="http://www.w3.org/1999/xlink" xmlns:dc="http://purl.org/dc/elements/1.1/">
 <defs id="defs2410">
  <linearGradient id="ButtonShadow" y2="7.0165" gradientUnits="userSpaceOnUse" x2="45.448" gradientTransform="scale(1.0059 .99417)" y1="92.54" x1="45.448">
   <stop id="stop3750" offset="0"/>
   <stop id="stop3752" stop-opacity=".58824" offset="1"/>
  </linearGradient>
  <linearGradient id="linearGradient3737">
   <stop id="stop3739" stop-color="#fff" offset="0"/>
   <stop id="stop3741" stop-color="#fff" stop-opacity="0" offset="1"/>
  </linearGradient>
  <filter id="filter3174" color-interpolation-filters="sRGB">
   <feGaussianBlur id="feGaussianBlur3176" stdDeviation="1.71"/>
  </filter>
  <linearGradient id="linearGradient3188" y2="63.893" xlink:href="#linearGradient3737" gradientUnits="userSpaceOnUse" x2="36.357" y1="6" x1="36.357"/>
  <filter id="filter3794" height="1.384" width="1.384" color-interpolation-filters="sRGB" y="-.192" x="-.192">
   <feGaussianBlur id="feGaussianBlur3796" stdDeviation="5.28"/>
  </filter>
  <linearGradient id="linearGradient3613" y2="138.66" xlink:href="#linearGradient3737" gradientUnits="userSpaceOnUse" x2="48" y1="20.221" x1="48"/>
  <radialGradient id="radialGradient3619" xlink:href="#linearGradient3737" gradientUnits="userSpaceOnUse" cy="90.172" cx="48" gradientTransform="matrix(1.1573 0 0 .99591 -7.551 .19713)" r="42"/>
  <clipPath id="clipPath3613">
   <rect id="rect3615" rx="6" ry="6" height="84" width="84" y="6" x="6" fill="#fff"/>
  </clipPath>
  <linearGradient id="linearGradient3617" y2="5.9877" gradientUnits="userSpaceOnUse" x2="48" y1="90" x1="48">
   <stop id="stop3702-5" stop-color="#da4714" offset="0"/>
   <stop id="stop3704-3" stop-color="#ee743e" offset="1"/>
  </linearGradient>
  <linearGradient id="ButtonShadow-0" y2="7.0165" gradientUnits="userSpaceOnUse" x2="45.448" gradientTransform="matrix(1.0059 0 0 .99417 100 0)" y1="92.54" x1="45.448">
   <stop id="stop3750-8" offset="0"/>
   <stop id="stop3752-5" stop-opacity=".58824" offset="1"/>
  </linearGradient>
  <linearGradient id="linearGradient3780" y2="90.239" xlink:href="#ButtonShadow-0" gradientUnits="userSpaceOnUse" x2="32.251" gradientTransform="matrix(1.0238 0 0 1.0119 -1.1429 -98.071)" y1="6.1317" x1="32.251"/>
  <linearGradient id="linearGradient3721" y2="90.239" xlink:href="#ButtonShadow-0" gradientUnits="userSpaceOnUse" x2="32.251" gradientTransform="translate(0,-97)" y1="6.1317" x1="32.251"/>
  <linearGradient id="linearGradient4218" y2="24.628" gradientUnits="userSpaceOnUse" x2="20.055" gradientTransform="matrix(1.8236 0 0 2.8764 4.1473 -10.571)" y1="15.298" x1="16.626">
   <stop id="stop2687-1-9-3-0-3" stop-color="#fff" offset="0"/>
   <stop id="stop2689-5-4-9-8-5" stop-color="#fff" stop-opacity="0" offset="1"/>
  </linearGradient>
  <radialGradient id="radialGradient4935-9" xlink:href="#linearGradient4589-1" gradientUnits="userSpaceOnUse" cy="973.21" cx="123.25" gradientTransform="matrix(-.76488 0 0 2.6006 164.26 -2489.9)" r="5"/>
  <linearGradient id="linearGradient4589-1">
   <stop id="stop4591-7" stop-color="#6e6e6e" offset="0"/>
   <stop id="stop4593-8" stop-color="#333" offset="1"/>
  </linearGradient>
  <radialGradient id="radialGradient5342-3" xlink:href="#linearGradient4589-1" gradientUnits="userSpaceOnUse" cy="973.69" cx="120.46" gradientTransform="matrix(.76488 0 0 2.6006 -68.262 -2489.9)" r="5"/>
  <linearGradient id="linearGradient5404-9" y2="1010.4" gradientUnits="userSpaceOnUse" x2="152" gradientTransform="matrix(.78217 0 0 .78217 -70.9 -713.64)" y1="953.36" x1="152">
   <stop id="stop5107-4" stop-color="#f5f5f5" offset="0"/>
   <stop id="stop5109-4" stop-color="#ebebeb" offset="1"/>
  </linearGradient>
  <linearGradient id="linearGradient5365-4" y2="938.9" spreadMethod="reflect" gradientUnits="userSpaceOnUse" x2="180.72" gradientTransform="matrix(.76488 0 0 .76488 -68.262 -699.39)" y1="938.9" x1="145.69">
   <stop id="stop4269-4" stop-color="#6e6e6e" offset="0"/>
   <stop id="stop4271-7" stop-color="#333" offset="1"/>
  </linearGradient>
 </defs>
 <metadata id="metadata2413">
  <rdf:RDF>
   <cc:Work rdf:about="">
    <dc:format>image/svg+xml</dc:format>
    <dc:type rdf:resource="http://purl.org/dc/dcmitype/StillImage"/>
    <dc:title/>
   </cc:Work>
  </rdf:RDF>
 </metadata>
 <g id="layer2" display="none">
  <rect id="rect3745" opacity=".9" rx="6" ry="6" height="85" filter="url(#filter3174)" width="86" y="7" x="5" fill="url(#ButtonShadow)"/>
 </g>
 <g id="layer3">
  <path id="path3786" opacity="0.08" d="m12-95.031c-5.5111 0-10.031 4.5202-10.031 10.031v71c0 5.5111 4.5202 10.031 10.031 10.031h72c5.5111 0 10.031-4.5202 10.031-10.031v-71c0-5.5111-4.5202-10.031-10.031-10.031h-72z" transform="scale(1,-1)" fill="url(#linearGradient3780)"/>
  <path id="path3778" opacity=".1" d="m12-94.031c-4.9716 0-9.0312 4.0596-9.0312 9.0312v71c0 4.9716 4.0596 9.0312 9.0312 9.0312h72c4.9716 0 9.0312-4.0596 9.0312-9.0312v-71c0-4.9716-4.0596-9.0312-9.0312-9.0312h-72z" transform="scale(1,-1)" fill="url(#linearGradient3780)"/>
  <path id="path3770" opacity=".2" d="m12-93c-4.4091 0-8 3.5909-8 8v71c0 4.4091 3.5909 8 8 8h72c4.4091 0 8-3.5909 8-8v-71c0-4.4091-3.5909-8-8-8h-72z" transform="scale(1,-1)" fill="url(#linearGradient3780)"/>
  <rect id="rect3723" opacity=".3" transform="scale(1,-1)" rx="7" ry="7" height="85" width="86" y="-92" x="5" fill="url(#linearGradient3780)"/>
  <rect id="rect3716" opacity=".45" transform="scale(1,-1)" rx="6" ry="6" height="84" width="84" y="-91" x="6" fill="url(#linearGradient3721)"/>
 </g>
 <g id="layer1">
  <rect id="rect2419" rx="6" ry="6" height="84" width="84" y="6" x="6" fill="url(#linearGradient3617)"/>
  <path id="rect3728" opacity=".3" d="m12 6c-3.324 0-6 2.676-6 6v2 68 2c0 0.33472 0.04135 0.6507 0.09375 0.96875 0.0487 0.2956 0.09704 0.59692 0.1875 0.875 0.00988 0.03038 0.020892 0.0636 0.03125 0.09375 0.098865 0.28777 0.23488 0.54745 0.375 0.8125 0.14459 0.27351 0.31562 0.53562 0.5 0.78125 0.18438 0.24564 0.37378 0.47347 0.59375 0.6875 0.43995 0.42806 0.94291 0.81453 1.5 1.0938 0.27854 0.13961 0.57347 0.24695 0.875 0.34375-0.2562-0.10022-0.48671-0.23627-0.71875-0.375-0.00741-0.0044-0.023866 0.0045-0.03125 0-0.031933-0.0193-0.062293-0.04251-0.09375-0.0625-0.1204-0.0767-0.23102-0.16351-0.34375-0.25-0.10617-0.0808-0.21328-0.16111-0.3125-0.25-0.1778-0.162-0.3473-0.346-0.4999-0.531-0.1075-0.131-0.2183-0.266-0.3124-0.407-0.0251-0.038-0.0385-0.086-0.0626-0.125-0.0647-0.103-0.1302-0.204-0.1874-0.312-0.1011-0.195-0.2057-0.416-0.2813-0.625-0.008-0.022-0.0236-0.041-0.0313-0.063-0.0318-0.092-0.0358-0.187-0.0624-0.281-0.0304-0.107-0.0704-0.203-0.0938-0.313-0.0729-0.341-0.125-0.698-0.125-1.062v-2-68-2c0-2.782 2.2182-5 5-5h2 68 2c2.7818 0 5 2.2182 5 5v2 68 2c0 0.3643-0.05212 0.72099-0.125 1.0625-0.04415 0.20689-0.08838 0.39766-0.15625 0.59375-0.0077 0.02195-0.0233 0.04069-0.03125 0.0625-0.06274 0.17374-0.13838 0.36745-0.21875 0.53125-0.04158 0.0828-0.07904 0.16995-0.125 0.25-0.0546 0.09721-0.12677 0.18835-0.1875 0.28125-0.09411 0.14096-0.20492 0.276-0.3125 0.40625-0.14317 0.17445-0.30314 0.347-0.46875 0.5-0.01117 0.0102-0.01998 0.02115-0.03125 0.03125-0.13839 0.12556-0.28509 0.23444-0.4375 0.34375-0.10257 0.07315-0.20432 0.15336-0.3125 0.21875-0.0074 0.0045-0.02384-0.0044-0.03125 0-0.23204 0.13873-0.46255 0.27478-0.71875 0.375 0.30153-0.0968 0.59646-0.20414 0.875-0.34375 0.55709-0.27922 1.0601-0.66569 1.5-1.0938 0.21997-0.21403 0.40937-0.44186 0.59375-0.6875s0.35541-0.50774 0.5-0.78125c0.14012-0.26505 0.27614-0.52473 0.375-0.8125 0.01041-0.03078 0.02133-0.06274 0.03125-0.09375 0.09046-0.27808 0.1388-0.5794 0.1875-0.875 0.053-0.318 0.094-0.634 0.094-0.969v-2-68-2c0-3.324-2.676-6-6-6h-72z" fill="url(#linearGradient3188)"/>
  <path id="path3615" opacity=".2" d="m12 90c-3.324 0-6-2.676-6-6v-2-68-2c0-0.33472 0.04135-0.6507 0.09375-0.96875 0.0487-0.2956 0.09704-0.59692 0.1875-0.875 0.0099-0.03 0.0209-0.063 0.0313-0.094 0.0989-0.2873 0.2349-0.547 0.375-0.812 0.1446-0.2735 0.3156-0.5356 0.5-0.7812 0.1844-0.2457 0.3738-0.4735 0.5937-0.6876 0.44-0.428 0.943-0.8145 1.5-1.0937 0.2786-0.1396 0.5735-0.2469 0.8748-0.3437-0.256 0.1002-0.4865 0.2362-0.7185 0.375-0.00741 0.0044-0.023866-0.0045-0.03125 0-0.031933 0.0193-0.062293 0.04251-0.09375 0.0625-0.1204 0.0767-0.23102 0.16351-0.34375 0.25-0.10617 0.0808-0.21328 0.16111-0.3125 0.25-0.1779 0.1614-0.3474 0.3453-0.5 0.5312-0.1075 0.1303-0.2183 0.2653-0.3124 0.4063-0.0251 0.0383-0.0385 0.0858-0.0626 0.125-0.0647 0.103-0.1302 0.2045-0.1874 0.3124-0.1011 0.1948-0.2057 0.4158-0.2813 0.625-0.008 0.0219-0.0236 0.0406-0.0313 0.0626-0.0318 0.0919-0.0358 0.1868-0.0624 0.2812-0.0304 0.1066-0.0704 0.203-0.0938 0.3125-0.0729 0.3415-0.125 0.6985-0.125 1.0625v2 68 2c0 2.7818 2.2182 5 5 5h2 68 2c2.7818 0 5-2.2182 5-5v-2-68-2c0-0.364-0.052-0.721-0.125-1.0625-0.044-0.2069-0.088-0.3977-0.156-0.5937-0.008-0.022-0.024-0.0407-0.031-0.0626-0.063-0.1737-0.139-0.3674-0.219-0.5312-0.042-0.0828-0.079-0.17-0.125-0.25-0.055-0.0972-0.127-0.1884-0.188-0.2812-0.094-0.141-0.205-0.276-0.312-0.4063-0.143-0.1745-0.303-0.347-0.469-0.5-0.011-0.0102-0.02-0.0211-0.031-0.0313-0.139-0.1255-0.285-0.2344-0.438-0.3437-0.102-0.0731-0.204-0.1534-0.312-0.2187-0.0074-0.0045-0.02384 0.0044-0.03125 0-0.23204-0.13873-0.46255-0.27478-0.71875-0.375 0.30153 0.0968 0.59646 0.20414 0.875 0.34375 0.55709 0.27922 1.0601 0.66569 1.5 1.0938 0.21997 0.21403 0.40937 0.44186 0.59375 0.6875s0.35541 0.50774 0.5 0.78125c0.14012 0.26505 0.27614 0.52473 0.375 0.8125 0.01041 0.03078 0.02133 0.06274 0.03125 0.09375 0.09046 0.27808 0.1388 0.5794 0.1875 0.875 0.053 0.318 0.094 0.634 0.094 0.969v2 68 2c0 3.324-2.676 6-6 6h-72z" fill="url(#radialGradient3619)"/>
  <path id="path5237-7" opacity=".2" style="enable-background:new" d="m12 6c-3.3136 0-5.9834 2.6592-6 5.969-0.0001 0.01 0 0.021 0 0.031l0.0312 46.906c2.4166-0.053 82.135-19.53 83.969-20.468v-26.438c0-3.324-2.676-6-6-6h-72z" fill-rule="evenodd" fill="url(#linearGradient4218)"/>
 </g>
 <g id="layer5">
  <rect id="rect3171" height="66" stroke="#fff" stroke-linecap="round" stroke-width=".5" fill="url(#linearGradient3613)" rx="12" ry="12" width="66" opacity=".1" clip-path="url(#clipPath3613)" filter="url(#filter3794)" y="15" x="15"/>
 </g>
 <g id="layer4">
  <path id="path4542" opacity=".05" d="m53.844 31.031c-0.0025 0.000191-0.18507 0.03083-0.1875 0.03125-0.0024 0.000422-0.18512 0.0306-0.1875 0.03125-0.0024 0.000649-0.18519 0.06163-0.1875 0.0625-0.0023 0.000871-0.15404 0.06142-0.15625 0.0625-0.0022 0.0011-0.15415 0.09246-0.15625 0.09375-0.0021 0.0013-0.15428 0.09227-0.15625 0.09375-0.002 0.0015-0.15443 0.12334-0.15625 0.125-0.0018 0.0017-0.12334 0.12318-0.125 0.125-0.0017 0.0018-0.12352 0.15428-0.125 0.15625-0.0015 0.002-0.09246 0.15415-0.09375 0.15625-0.0013 0.0021-0.09267 0.15403-0.09375 0.15625-0.0011 0.0022-0.06163 0.15394-0.0625 0.15625-0.000869 0.0023-0.06185 0.18512-0.0625 0.1875-0.000648 0.0024-0.03083 0.18507-0.03125 0.1875-0.00042 0.0024-0.03106 0.18504-0.03125 0.1875-0.000158 0.002 0.0012 0.11322 0 0.15625-0.000242 0.0086-0.000007 0.03084 0 0.03125v30h-8.0625v-18.031c0.000019-0.0013 0.000046-0.09244 0-0.09375-0.000046-0.0013 0.000111-0.09245 0-0.09375s-0.03107-0.09246-0.03125-0.09375c-0.000176-0.0013 0.000241-0.09247 0-0.09375-0.000241-0.0013-0.03095-0.09248-0.03125-0.09375-0.000305-0.0013-0.03088-0.0925-0.03125-0.09375-0.000368-0.0013 0.00043-0.09252 0-0.09375-0.00043-0.0012-0.06201-0.09254-0.0625-0.09375-0.000491-0.0012-0.0307-0.09257-0.03125-0.09375-0.000551-0.0012-0.03064-0.0926-0.03125-0.09375-0.000609-0.0012-0.06183-0.06138-0.0625-0.0625-0.000666-0.0011-0.03053-0.09266-0.03125-0.09375-0.000722-0.0011-0.06173-0.0927-0.0625-0.09375-0.000775-0.0011-0.06167-0.06149-0.0625-0.0625-0.000827-0.001-0.06162-0.06153-0.0625-0.0625-0.000876-0.000969-0.06158-0.09283-0.0625-0.09375-0.000924-0.000924-0.09278-0.06162-0.09375-0.0625-0.000969-0.000876-0.06149-0.06167-0.0625-0.0625-0.001-0.000827-0.06145-0.06173-0.0625-0.0625-0.0011-0.000775-0.09266-0.06178-0.09375-0.0625-0.0011-0.000722-0.09263-0.03058-0.09375-0.03125-0.0011-0.000666-0.06135-0.06189-0.0625-0.0625-0.0012-0.000609-0.09257-0.0307-0.09375-0.03125-0.0012-0.000551-0.09254-0.03076-0.09375-0.03125-0.0012-0.000491-0.09252-0.06207-0.09375-0.0625-0.0012-0.00043-0.0925 0.000368-0.09375 0-0.0013-0.000368-0.09248-0.03095-0.09375-0.03125-0.0013-0.000305-0.09247-0.03101-0.09375-0.03125-0.0013-0.000241-0.09246 0.000176-0.09375 0-0.0013-0.000176-0.09245-0.03114-0.09375-0.03125-0.0013-0.000111-0.09244 0.000046-0.09375 0-0.0013-0.000046-0.09244-0.000019-0.09375 0h-0.9375l4.375-9.1562c0.000737-0.0015 0.06186-0.09222 0.0625-0.09375 0.000641-0.0015 0.03071-0.12344 0.03125-0.125 0.000543-0.0016 0.03081-0.1234 0.03125-0.125 0.000443-0.0016 0.03091-0.12338 0.03125-0.125 0.000341-0.0016 0.03101-0.09211 0.03125-0.09375 0.000238-0.0016-0.000134-0.12335 0-0.125 0.000134-0.0016-0.000029-0.12334 0-0.125 0.000029-0.0017 0.000076-0.12335 0-0.125-0.000076-0.0017 0.00018-0.12335 0-0.125-0.00018-0.0016-0.03097-0.12337-0.03125-0.125-0.000284-0.0016 0.000387-0.12339 0-0.125-0.000387-0.0016-0.03076-0.12342-0.03125-0.125-0.000488-0.0016-0.06191-0.12345-0.0625-0.125-0.000587-0.0015-0.03057-0.09224-0.03125-0.09375-0.000684-0.0015-0.06172-0.12354-0.0625-0.125-0.000778-0.0015-0.06163-0.09234-0.0625-0.09375-0.000869-0.0014-0.06154-0.12365-0.0625-0.125-0.000957-0.0014-0.06146-0.09246-0.0625-0.09375-0.001-0.0013-0.09263-0.09253-0.09375-0.09375-0.0011-0.0012-0.09255-0.0926-0.09375-0.09375-0.0012-0.0011-0.09249-0.06143-0.09375-0.0625-0.0013-0.0011-0.09242-0.09276-0.09375-0.09375-0.0013-0.000986-0.09236-0.0616-0.09375-0.0625-0.0014-0.000899-0.12356-0.06169-0.125-0.0625-0.0014-0.00081-0.09226-0.06178-0.09375-0.0625-0.0015-0.000717-0.12346-0.03063-0.125-0.03125-0.0015-0.000621-0.09218-0.06198-0.09375-0.0625-0.0016-0.000522-0.1234-0.03083-0.125-0.03125-0.0016-0.000422-0.12338-0.03093-0.125-0.03125-0.0016-0.000319-0.12336 0.000216-0.125 0-0.0016-0.000216-0.12335-0.03114-0.125-0.03125-0.0017-0.000111-0.12334 0.000007-0.125 0h-13.688c-0.0013-0.000019-0.09244-0.000046-0.09375 0-0.0013 0.000046-0.09245-0.000111-0.09375 0s-0.09246 0.03107-0.09375 0.03125c-0.0013 0.000176-0.09247-0.000241-0.09375 0-0.0013 0.000241-0.09248 0.03094-0.09375 0.03125-0.0013 0.000305-0.0925 0.03088-0.09375 0.03125-0.0013 0.000368-0.09252-0.00043-0.09375 0-0.0012 0.00043-0.09254 0.06201-0.09375 0.0625-0.0012 0.000491-0.09257 0.0307-0.09375 0.03125-0.0012 0.000551-0.09259 0.03064-0.09375 0.03125-0.0012 0.000609-0.06138 0.06183-0.0625 0.0625-0.0011 0.000666-0.09266 0.03053-0.09375 0.03125-0.0011 0.000722-0.0927 0.06172-0.09375 0.0625-0.0011 0.000775-0.06149 0.06167-0.0625 0.0625-0.001 0.000827-0.06153 0.06162-0.0625 0.0625-0.000969 0.000876-0.09283 0.06158-0.09375 0.0625-0.000924 0.000924-0.06162 0.09278-0.0625 0.09375-0.000876 0.000969-0.06167 0.06149-0.0625 0.0625-0.000827 0.001-0.06172 0.06145-0.0625 0.0625-0.000775 0.0011-0.06178 0.09266-0.0625 0.09375-0.000722 0.0011-0.03058 0.09263-0.03125 0.09375-0.000666 0.0011-0.06189 0.06135-0.0625 0.0625-0.000609 0.0012-0.0307 0.09257-0.03125 0.09375-0.000551 0.0012-0.03076 0.09254-0.03125 0.09375-0.000491 0.0012-0.06207 0.09252-0.0625 0.09375-0.00043 0.0012 0.000368 0.0925 0 0.09375-0.000368 0.0013-0.03094 0.09248-0.03125 0.09375-0.000305 0.0013-0.03101 0.09247-0.03125 0.09375-0.000241 0.0013 0.000176 0.09246 0 0.09375-0.000176 0.0013-0.03114 0.09245-0.03125 0.09375-0.000111 0.0013 0.000046 0.09244 0 0.09375-0.000046 0.0013-0.000019 0.09244 0 0.09375l0.125 29.25s-0.03623 3.5018 1.8125 7.3438c1.8545 3.8539 5.7824 8.118 13.094 9.5312 4.3677 0.84424 10.086 0.31683 14.844-0.375 4.7444-0.68993 8.4735-1.5875 8.5-1.5938 0.000422-0.000086 0.0215 0.0024 0.03125 0 0.04094-0.01018 0.12326-0.03074 0.125-0.03125 0.0021-0.000636 0.15416-0.06168 0.15625-0.0625 0.0021-0.000818 0.15424-0.06151 0.15625-0.0625 0.002-0.000994 0.15433-0.06134 0.15625-0.0625 0.0019-0.0012 0.12319-0.09243 0.125-0.09375 0.0018-0.0013 0.15456-0.12353 0.15625-0.125 0.0017-0.0015 0.09219-0.09214 0.09375-0.09375 0.0016-0.0016 0.12359-0.12326 0.125-0.125 0.0014-0.0017 0.09249-0.1544 0.09375-0.15625 0.0013-0.0019 0.09265-0.12304 0.09375-0.125 0.0011-0.002 0.06158-0.15421 0.0625-0.15625 0.000924-0.002 0.06175-0.15414 0.0625-0.15625 0.000746-0.0021 0.06194-0.15408 0.0625-0.15625 0.000562-0.0022 0.03088-0.15404 0.03125-0.15625 0.000374-0.0022 0.03107-0.18527 0.03125-0.1875 0.000183-0.0022 0.000009-0.15401 0-0.15625l-0.03125-42.25c0.000019-0.0013 0.000046-0.09244 0-0.09375-0.000046-0.0013 0.000111-0.09245 0-0.09375s-0.03107-0.09246-0.03125-0.09375c-0.000176-0.0013 0.000241-0.09247 0-0.09375-0.000241-0.0013-0.03095-0.09248-0.03125-0.09375-0.000305-0.0013-0.03088-0.0925-0.03125-0.09375-0.000368-0.0013 0.00043-0.09252 0-0.09375-0.00043-0.0012-0.06201-0.09254-0.0625-0.09375-0.000491-0.0012-0.0307-0.09257-0.03125-0.09375-0.000551-0.0012-0.03064-0.0926-0.03125-0.09375-0.000609-0.0012-0.06183-0.06138-0.0625-0.0625-0.000666-0.0011-0.03053-0.09266-0.03125-0.09375-0.000722-0.0011-0.06172-0.0927-0.0625-0.09375-0.000775-0.0011-0.06167-0.06149-0.0625-0.0625-0.000827-0.001-0.06162-0.06153-0.0625-0.0625-0.000876-0.000969-0.06158-0.09283-0.0625-0.09375-0.000924-0.000924-0.09278-0.06162-0.09375-0.0625-0.000969-0.000876-0.06149-0.06167-0.0625-0.0625-0.001-0.000827-0.06145-0.06172-0.0625-0.0625-0.0011-0.000775-0.09266-0.06178-0.09375-0.0625-0.0011-0.000722-0.09263-0.03058-0.09375-0.03125-0.0011-0.000666-0.06135-0.06189-0.0625-0.0625-0.0012-0.000609-0.09257-0.0307-0.09375-0.03125-0.0012-0.000551-0.09254-0.03076-0.09375-0.03125-0.0012-0.000491-0.09252-0.06207-0.09375-0.0625-0.0012-0.00043-0.0925 0.000368-0.09375 0-0.0013-0.000368-0.09248-0.03094-0.09375-0.03125-0.0013-0.000305-0.09247-0.03101-0.09375-0.03125-0.0013-0.000241-0.09246 0.000176-0.09375 0-0.0013-0.000176-0.09245-0.03114-0.09375-0.03125-0.0013-0.000111-0.09244 0.000046-0.09375 0-0.0013-0.000046-0.09244-0.000019-0.09375 0l-11.938-0.03125c-0.000482-0.000022-0.01969 0.000013-0.03125 0-0.04623-0.000053-0.12307-0.000089-0.125 0a0.93817 0.93817 0 0 0 -0.03125 0z"/>
  <path id="path4538" opacity=".1" d="m54 31.969a1.0165 1.0165 0 0 0 -1.031 1.031v30.969h-9.9375v-18.969a1.0165 1.0165 0 0 0 -1.032 -1.031h-2.4062l5-10.5a1.0165 1.0165 0 0 0 -0.906 -1.469h-13.688a1.0165 1.0165 0 0 0 -1.0312 1.0312l0.125 29.25s-0.03196 3.2992 1.7188 6.9375c1.7507 3.6383 5.4062 7.6721 12.438 9.0312 4.1363 0.79952 9.8131 0.27986 14.531-0.40625 4.7181-0.68611 8.4375-1.5625 8.4375-1.5625a1.0165 1.0165 0 0 0 0.8125 -1l-0.032-42.25a1.0165 1.0165 0 0 0 -1.031 -1.031l-11.969-0.031z"/>
  <path id="path4532" opacity=".3" d="m30 33.046 0.12905 29.248s-0.15553 12.356 13.317 14.961c7.749 1.498 22.554-1.975 22.554-1.975l-0.02-42.234-11.98-0.046v32h-12v-20h-4l5.6794-11.954z"/>
  <path id="path5380" opacity=".05" style="block-progression:tb;text-indent:0;color:#000000;text-transform:none" d="m151.91 932.38c-15.467 0-23.534 7.9219-27.094 15.688-2.0802 4.5374-2.7442 8.9384-2.9688 11.875-4.1017 2.7679-6.75 9.0657-6.75 16.438 0 4.8229 1.1526 9.1916 3.0625 12.438 1.9099 3.2459 4.6695 5.4416 7.8438 5.4688a0.89917 0.89917 0 0 0 0.90625 -0.90625v-33.562-0.0937c0.23867-2.5117 0.8611-6.0558 2.4688-9.5625 2.9629-6.4628 8.6971-12.719 22.531-12.719 13.831 0 19.573 6.286 22.562 12.781 2.0422 4.4373 2.5181 8.8973 2.625 11.281 0.00034 0.008-0.00033 0.0237 0 0.0312v31.844a0.89917 0.89917 0 0 0 0.9 0.91c3.1742-0.0271 5.9339-2.2228 7.8438-5.4688 1.9099-3.2459 3.0625-7.6146 3.0625-12.438 0-7.4337-2.7104-13.772-6.875-16.5-0.2498-2.9566-0.94057-7.3064-3-11.781-3.5844-7.7884-11.656-15.719-27.125-15.719z" transform="matrix(.76488 0 0 .76488 -68.262 -699.39)"/>
  <path id="path5367" opacity=".15" style="block-progression:tb;text-indent:0;color:#000000;text-transform:none" d="m47.928 14.451c-11.599 0-17.467 5.844-20.102 11.593-1.5986 3.4868-2.0981 6.9476-2.2468 9.1308-2.9789 1.792-5.1152 6.5858-5.1152 12.238 0 7.159 3.4193 12.967 7.6488 13.003v-25.743c0.18304-1.9768 0.6725-4.7927 1.96-7.601 2.3409-5.1061 7.0602-10.135 17.855-10.135 10.794 0 15.519 5.0537 17.879 10.183 1.6228 3.5261 1.997 7.0431 2.0795 8.9157v24.381c4.2295-0.0361 7.6488-5.844 7.6488-13.003 0-5.7152-2.1798-10.566-5.2108-12.31-0.16979-2.2059-0.6919-5.6046-2.2708-9.0352-2.654-5.769-8.525-11.618-20.126-11.618z"/>
  <path id="path4798-5" style="block-progression:tb;text-indent:0;color:#000000;text-transform:none" d="m47.928 13.696c-11.599 0-17.467 5.844-20.102 11.593-2.6356 5.7488-2.2947 11.425-2.2947 11.425l2.4859-0.11951s-0.28531-5.172 2.0556-10.278c2.3409-5.1061 7.0602-10.135 17.855-10.135 10.794 0 15.519 5.0537 17.879 10.183 2.3604 5.1289 2.1034 10.302 2.1034 10.302l2.4859 0.14342s0.312-5.7294-2.3425-11.497c-2.654-5.768-8.525-11.616-20.126-11.616z" fill="url(#linearGradient5365-4)"/>
  <path id="path4784-1" fill="url(#linearGradient5404-9)" d="m30 32.046 0.12905 29.248s-0.15553 12.356 13.317 14.961c7.749 1.498 22.554-1.975 22.554-1.975l-0.02-42.234-11.98-0.046v32h-12v-20h-4l5.6794-11.954z"/>
  <path id="path4786-4" fill="url(#radialGradient5342-3)" d="m28.113 33.644c-4.2295 0.0361-7.6488 5.844-7.6488 13.003s3.4193 12.967 7.6488 13.003v-26.006z"/>
  <path id="path4790-9" opacity=".6" stroke-linejoin="round" d="m843.73 110.47a17.355 26.118 0 0 1 0 -36.936" transform="matrix(.61593 0 0 .61593 -500.33 -10.062)" stroke="#333" stroke-linecap="round" stroke-width="4" fill="none"/>
  <path id="path4792-0" opacity=".4" stroke-linejoin="round" d="m839.24 98.76a17.355 26.118 0 0 1 0 -13.52" transform="matrix(.90437 0 0 .80980 -747.45 -27.898)" stroke="#333" stroke-linecap="round" stroke-width="2.9076" fill="none"/>
  <path id="path4794-1" opacity=".6" stroke-linejoin="round" d="m843.73 110.47a17.355 26.118 0 0 1 0 -36.936" transform="matrix(-.61593 0 0 .61593 596.33 -10.062)" stroke="#333" stroke-linecap="round" stroke-width="4" fill="none"/>
  <path id="path4796-4" opacity=".4" stroke-linejoin="round" d="m839.24 98.76a17.355 26.118 0 0 1 0 -13.52" transform="matrix(-.90437 0 0 .80980 843.45 -27.898)" stroke="#333" stroke-linecap="round" stroke-width="2.9076" fill="none"/>
  <path id="path5344" fill="url(#radialGradient4935-9)" d="m67.887 33.644c4.2295 0.0361 7.6488 5.844 7.6488 13.003s-3.4193 12.967-7.6488 13.003v-26.006z"/>
  <path id="path4523" fill="#fff" d="m54 32v1l11.969 0.03125v-1l-11.969-0.031zm-24 0.03125v1h13.219l0.46875-1h-13.688zm8.469 11.969-0.469 1h4v-1h-3.5312zm3.531 20v1h12v-1h-12z"/>
 </g>
</svg>
