<?xml version="1.0" encoding="UTF-8" standalone="no"?>
<!-- Created with Inkscape (http://www.inkscape.org/) -->
<svg id="svg2408" xmlns:rdf="http://www.w3.org/1999/02/22-rdf-syntax-ns#" xmlns="http://www.w3.org/2000/svg" height="96" width="96" version="1.0" xmlns:cc="http://creativecommons.org/ns#" xmlns:xlink="http://www.w3.org/1999/xlink" xmlns:dc="http://purl.org/dc/elements/1.1/">
 <defs id="defs2410">
  <linearGradient id="ButtonShadow" y2="7.0165" gradientUnits="userSpaceOnUse" x2="45.448" gradientTransform="scale(1.0059 .99417)" y1="92.54" x1="45.448">
   <stop id="stop3750" offset="0"/>
   <stop id="stop3752" stop-opacity=".58824" offset="1"/>
  </linearGradient>
  <linearGradient id="linearGradient3737">
   <stop id="stop3739" stop-color="#fff" offset="0"/>
   <stop id="stop3741" stop-color="#fff" stop-opacity="0" offset="1"/>
  </linearGradient>
  <filter id="filter3174" color-interpolation-filters="sRGB">
   <feGaussianBlur id="feGaussianBlur3176" stdDeviation="1.71"/>
  </filter>
  <linearGradient id="linearGradient3188" y2="63.893" xlink:href="#linearGradient3737" gradientUnits="userSpaceOnUse" x2="36.357" y1="6" x1="36.357"/>
  <filter id="filter3794" height="1.384" width="1.384" color-interpolation-filters="sRGB" y="-.192" x="-.192">
   <feGaussianBlur id="feGaussianBlur3796" stdDeviation="5.28"/>
  </filter>
  <linearGradient id="linearGradient3613" y2="138.66" xlink:href="#linearGradient3737" gradientUnits="userSpaceOnUse" x2="48" y1="20.221" x1="48"/>
  <radialGradient id="radialGradient3619" xlink:href="#linearGradient3737" gradientUnits="userSpaceOnUse" cy="90.172" cx="48" gradientTransform="matrix(1.1573 0 0 .99591 -7.551 .19713)" r="42"/>
  <clipPath id="clipPath3613">
   <rect id="rect3615" rx="6" ry="6" height="84" width="84" y="6" x="6" fill="#fff"/>
  </clipPath>
  <linearGradient id="linearGradient3617" y2="5.9877" gradientUnits="userSpaceOnUse" x2="48" y1="90" x1="48">
   <stop id="stop3702" stop-color="#2295c5" offset="0"/>
   <stop id="stop3704" stop-color="#68d8f4" offset="1"/>
  </linearGradient>
  <linearGradient id="ButtonShadow-0" y2="7.0165" gradientUnits="userSpaceOnUse" x2="45.448" gradientTransform="matrix(1.0059 0 0 .99417 100 0)" y1="92.54" x1="45.448">
   <stop id="stop3750-8" offset="0"/>
   <stop id="stop3752-5" stop-opacity=".58824" offset="1"/>
  </linearGradient>
  <linearGradient id="linearGradient3780" y2="90.239" xlink:href="#ButtonShadow-0" gradientUnits="userSpaceOnUse" x2="32.251" gradientTransform="matrix(1.0238 0 0 1.0119 -1.1429 -98.071)" y1="6.1317" x1="32.251"/>
  <linearGradient id="linearGradient3721" y2="90.239" xlink:href="#ButtonShadow-0" gradientUnits="userSpaceOnUse" x2="32.251" gradientTransform="translate(0,-97)" y1="6.1317" x1="32.251"/>
 </defs>
 <metadata id="metadata2413">
  <rdf:RDF>
   <cc:Work rdf:about="">
    <dc:format>image/svg+xml</dc:format>
    <dc:type rdf:resource="http://purl.org/dc/dcmitype/StillImage"/>
   </cc:Work>
  </rdf:RDF>
 </metadata>
 <g id="layer2" display="none">
  <rect id="rect3745" opacity=".9" rx="6" ry="6" height="85" filter="url(#filter3174)" width="86" y="7" x="5" fill="url(#ButtonShadow)"/>
 </g>
 <g id="layer3">
  <path id="path3786" opacity="0.08" d="m12-95.031c-5.5111 0-10.031 4.5202-10.031 10.031v71c0 5.5111 4.5202 10.031 10.031 10.031h72c5.5111 0 10.031-4.5202 10.031-10.031v-71c0-5.5111-4.5202-10.031-10.031-10.031h-72z" transform="scale(1,-1)" fill="url(#linearGradient3780)"/>
  <path id="path3778" opacity=".1" d="m12-94.031c-4.9716 0-9.0312 4.0596-9.0312 9.0312v71c0 4.9716 4.0596 9.0312 9.0312 9.0312h72c4.9716 0 9.0312-4.0596 9.0312-9.0312v-71c0-4.9716-4.0596-9.0312-9.0312-9.0312h-72z" transform="scale(1,-1)" fill="url(#linearGradient3780)"/>
  <path id="path3770" opacity=".2" d="m12-93c-4.4091 0-8 3.5909-8 8v71c0 4.4091 3.5909 8 8 8h72c4.4091 0 8-3.5909 8-8v-71c0-4.4091-3.5909-8-8-8h-72z" transform="scale(1,-1)" fill="url(#linearGradient3780)"/>
  <rect id="rect3723" opacity=".3" transform="scale(1,-1)" rx="7" ry="7" height="85" width="86" y="-92" x="5" fill="url(#linearGradient3780)"/>
  <rect id="rect3716" opacity=".45" transform="scale(1,-1)" rx="6" ry="6" height="84" width="84" y="-91" x="6" fill="url(#linearGradient3721)"/>
 </g>
 <g id="layer1">
  <rect id="rect2419" rx="6" ry="6" height="84" width="84" y="6" x="6" fill="url(#linearGradient3617)"/>
  <path id="rect3728" opacity=".5" d="m12 6c-3.324 0-6 2.676-6 6v2 68 2c0 0.33472 0.04135 0.6507 0.09375 0.96875 0.0487 0.2956 0.09704 0.59692 0.1875 0.875 0.00988 0.03038 0.020892 0.0636 0.03125 0.09375 0.098865 0.28777 0.23488 0.54745 0.375 0.8125 0.14459 0.27351 0.31562 0.53562 0.5 0.78125 0.18438 0.24564 0.37378 0.47347 0.59375 0.6875 0.43995 0.42806 0.94291 0.81453 1.5 1.0938 0.27854 0.13961 0.57347 0.24695 0.875 0.34375-0.2562-0.10022-0.48671-0.23627-0.71875-0.375-0.00741-0.0044-0.023866 0.0045-0.03125 0-0.031933-0.0193-0.062293-0.04251-0.09375-0.0625-0.1204-0.0767-0.23102-0.16351-0.34375-0.25-0.10617-0.0808-0.21328-0.16111-0.3125-0.25-0.1778-0.162-0.3473-0.346-0.4999-0.531-0.1075-0.131-0.2183-0.266-0.3124-0.407-0.0251-0.038-0.0385-0.086-0.0626-0.125-0.0647-0.103-0.1302-0.204-0.1874-0.312-0.1011-0.195-0.2057-0.416-0.2813-0.625-0.008-0.022-0.0236-0.041-0.0313-0.063-0.0318-0.092-0.0358-0.187-0.0624-0.281-0.0304-0.107-0.0704-0.203-0.0938-0.313-0.0729-0.341-0.125-0.698-0.125-1.062v-2-68-2c0-2.782 2.2182-5 5-5h2 68 2c2.7818 0 5 2.2182 5 5v2 68 2c0 0.3643-0.05212 0.72099-0.125 1.0625-0.04415 0.20689-0.08838 0.39766-0.15625 0.59375-0.0077 0.02195-0.0233 0.04069-0.03125 0.0625-0.06274 0.17374-0.13838 0.36745-0.21875 0.53125-0.04158 0.0828-0.07904 0.16995-0.125 0.25-0.0546 0.09721-0.12677 0.18835-0.1875 0.28125-0.09411 0.14096-0.20492 0.276-0.3125 0.40625-0.14317 0.17445-0.30314 0.347-0.46875 0.5-0.01117 0.0102-0.01998 0.02115-0.03125 0.03125-0.13839 0.12556-0.28509 0.23444-0.4375 0.34375-0.10257 0.07315-0.20432 0.15336-0.3125 0.21875-0.0074 0.0045-0.02384-0.0044-0.03125 0-0.23204 0.13873-0.46255 0.27478-0.71875 0.375 0.30153-0.0968 0.59646-0.20414 0.875-0.34375 0.55709-0.27922 1.0601-0.66569 1.5-1.0938 0.21997-0.21403 0.40937-0.44186 0.59375-0.6875s0.35541-0.50774 0.5-0.78125c0.14012-0.26505 0.27614-0.52473 0.375-0.8125 0.01041-0.03078 0.02133-0.06274 0.03125-0.09375 0.09046-0.27808 0.1388-0.5794 0.1875-0.875 0.053-0.318 0.094-0.634 0.094-0.969v-2-68-2c0-3.324-2.676-6-6-6h-72z" fill="url(#linearGradient3188)"/>
  <path id="path3615" opacity=".2" d="m12 90c-3.324 0-6-2.676-6-6v-2-68-2c0-0.33472 0.04135-0.6507 0.09375-0.96875 0.0487-0.2956 0.09704-0.59692 0.1875-0.875 0.0099-0.03 0.0209-0.063 0.0313-0.094 0.0989-0.2873 0.2349-0.547 0.375-0.812 0.1446-0.2735 0.3156-0.5356 0.5-0.7812 0.1844-0.2457 0.3738-0.4735 0.5937-0.6876 0.44-0.428 0.943-0.8145 1.5-1.0937 0.2786-0.1396 0.5735-0.2469 0.8748-0.3437-0.256 0.1002-0.4865 0.2362-0.7185 0.375-0.00741 0.0044-0.023866-0.0045-0.03125 0-0.031933 0.0193-0.062293 0.04251-0.09375 0.0625-0.1204 0.0767-0.23102 0.16351-0.34375 0.25-0.10617 0.0808-0.21328 0.16111-0.3125 0.25-0.1779 0.1614-0.3474 0.3453-0.5 0.5312-0.1075 0.1303-0.2183 0.2653-0.3124 0.4063-0.0251 0.0383-0.0385 0.0858-0.0626 0.125-0.0647 0.103-0.1302 0.2045-0.1874 0.3124-0.1011 0.1948-0.2057 0.4158-0.2813 0.625-0.008 0.0219-0.0236 0.0406-0.0313 0.0626-0.0318 0.0919-0.0358 0.1868-0.0624 0.2812-0.0304 0.1066-0.0704 0.203-0.0938 0.3125-0.0729 0.3415-0.125 0.6985-0.125 1.0625v2 68 2c0 2.7818 2.2182 5 5 5h2 68 2c2.7818 0 5-2.2182 5-5v-2-68-2c0-0.364-0.052-0.721-0.125-1.0625-0.044-0.2069-0.088-0.3977-0.156-0.5937-0.008-0.022-0.024-0.0407-0.031-0.0626-0.063-0.1737-0.139-0.3674-0.219-0.5312-0.042-0.0828-0.079-0.17-0.125-0.25-0.055-0.0972-0.127-0.1884-0.188-0.2812-0.094-0.141-0.205-0.276-0.312-0.4063-0.143-0.1745-0.303-0.347-0.469-0.5-0.011-0.0102-0.02-0.0211-0.031-0.0313-0.139-0.1255-0.285-0.2344-0.438-0.3437-0.102-0.0731-0.204-0.1534-0.312-0.2187-0.0074-0.0045-0.02384 0.0044-0.03125 0-0.23204-0.13873-0.46255-0.27478-0.71875-0.375 0.30153 0.0968 0.59646 0.20414 0.875 0.34375 0.55709 0.27922 1.0601 0.66569 1.5 1.0938 0.21997 0.21403 0.40937 0.44186 0.59375 0.6875s0.35541 0.50774 0.5 0.78125c0.14012 0.26505 0.27614 0.52473 0.375 0.8125 0.01041 0.03078 0.02133 0.06274 0.03125 0.09375 0.09046 0.27808 0.1388 0.5794 0.1875 0.875 0.053 0.318 0.094 0.634 0.094 0.969v2 68 2c0 3.324-2.676 6-6 6h-72z" fill="url(#radialGradient3619)"/>
  <path id="path3695" opacity=".05" d="m11.625 9c-0.682 0.0766-1.263 0.3547-1.6875 0.7812-0.4242 0.4268-0.6772 0.9618-0.8125 1.4688-0.2645 0.991-0.1759 1.969-0.125 2.719 0.0000185 0.02083-0.0000184 0.04167 0 0.0625 0.020683 23.456-0.041638 46.917 0.03125 70.375a0.9813 0.9813 0 0 0 0.03125 0.25c0.19312 0.76005 0.60538 1.37 1.1562 1.75 0.55087 0.38003 1.1737 0.53116 1.75 0.59375 1.1525 0.12518 2.2946-0.05058 2.9688 0a0.9813 0.9813 0 0 0 0.063 -0.001c23.128-0.02085 46.275 0.0417 69.406-0.03125a0.9813 0.9813 0 0 0 0.25 -0.03125c0.76005-0.19312 1.37-0.60538 1.75-1.1562 0.38003-0.55087 0.53116-1.1737 0.59375-1.75 0.12518-1.1525-0.05058-2.2946 0-2.9688a0.9813 0.9813 0 0 0 0 -0.063c-0.02084-23.128 0.0417-46.275-0.03125-69.406a0.9813 0.9813 0 0 0 -0.03125 -0.25c-0.194-0.76-0.606-1.3702-1.157-1.7502-0.551-0.3801-1.173-0.5312-1.75-0.5938-1.152-0.1252-2.294 0.0506-2.969 0a0.9813 0.9813 0 0 0 -0.062 0h-69.25a0.9813 0.9813 0 0 0 -0.125 0zm9.375 12h20.906c-0.15157 0.37176-0.29286 0.73575-0.375 1.0938-0.22611 0.98544-0.33731 1.9157-0.59375 2.5312a0.9813 0.9813 0 0 0 -0.031 0.125c-1.812 6.959-3.642 13.917-5.468 20.875-0.936-3.166-1.82-6.373-2.938-9.5a0.9813 0.9813 0 0 0 -0.125 -0.21875c-0.8078-1.1919-2.1679-1.4679-3.25-1.4688-1.0821-0.000852-2.0655 0.15668-2.6875 0.0625a0.9813 0.9813 0 0 0 -0.15625 0h-5.282v-13.5zm26.562 0h9.3438c-0.15192 0.27709-0.3194 0.54201-0.375 0.875l-0.0625-0.03125c-1.4566 4.1646-2.9201 8.3333-4.375 12.5-1.482-4.435-2.915-8.923-4.531-13.344zm14.657 0h12.781v29.5h-3.0312c-3.252-9.824-6.406-19.688-9.75-29.5zm-41.219 24.5h2.9062c2.9675 9.824 5.9582 19.737 8.9062 29.5h-11.812v-29.5zm38.312 1.6562c1.3879 4.2312 2.7349 8.4796 4.2188 12.688a0.9813 0.9813 0 0 0 0.125 0.25c0.80248 1.189 2.1416 1.4666 3.2188 1.4688 1.0771 0.0021 2.069-0.15544 2.6875-0.0625a0.9813 0.9813 0 0 0 0.15625 0h5.282v13.5h-35.875c2.2347-8.3678 4.4296-16.748 6.625-25.125 1.1753 3.5811 2.299 7.197 3.6562 10.75a0.9813 0.9813 0 0 0 0.094 0.219c1.5325 2.2028 5.004 1.1308 5.4375-1.375l0.062 0.031c1.4573-4.1081 2.8799-8.2278 4.3125-12.344z" fill="#005a80"/>
  <path id="path3685" opacity=".1" d="m11.75 9.9688c-1.9832 0.2232-1.8817 2.5122-1.7812 3.9982 0.0208 23.479-0.0417 46.964 0.0312 70.439 0.58054 2.2848 3.2901 1.4958 5.0119 1.625 23.131-0.021 46.267 0.042 69.394-0.031 2.2848-0.58054 1.4958-3.2901 1.625-5.0119-0.021-23.131 0.042-46.267-0.031-69.394-0.58054-2.2848-3.2901-1.4958-5.0119-1.625h-69.238zm8.2812 10.062h23.75c-1.5441 1.0992-1.2708 3.3476-1.9451 4.9661-2.1 8.067-4.225 16.127-6.336 24.191-1.328-4.234-2.453-8.57-3.938-12.719-1.1732-1.731-3.547-0.73706-5.2836-1h-6.2477v-15.438zm25.719 0h30.219v31.438h-4.7188c-3.345-10.089-6.571-20.224-10-30.281-1-1.676-3.669-0.889-3.838 0.984-1.773 5.068-3.545 10.135-5.318 15.203-1.936-5.577-3.636-11.261-5.688-16.781-0.16-0.244-0.417-0.407-0.656-0.563zm13.594 24.062c1.7238 5.1366 3.3286 10.343 5.125 15.438 1.1645 1.7254 3.5249 0.74043 5.2523 1h6.2477v15.438h-38.094c2.6293-9.813 5.1622-19.669 7.75-29.5 1.5834 4.5936 2.9581 9.2852 4.6875 13.812 1.0722 1.5411 3.5744 0.68414 3.7461-1.1086 1.7806-5.0197 3.5331-10.049 5.2852-15.079zm-39.312 0.4375h4.5938c3.1607 10.465 6.3629 21.047 9.5 31.438h-14.094v-31.438z" fill="#005a80"/>
  <path id="path3681" opacity=".3" d="m11.906 11.062a0.93233 0.93233 0 0 0 -0.844 0.938v72a0.93233 0.93233 0 0 0 0.938 0.938h72a0.93233 0.93233 0 0 0 0.938 -0.938v-72a0.93233 0.93233 0 0 0 -0.938 -0.938h-72a0.93233 0.93233 0 0 0 -0.09375 0zm7.0312 7.875h58.125v33.625h-6.5938l-7.75-23.594-2.3125-7a0.93233 0.93233 0 0 0 -1.75 -0.03125l-2.437 6.969-4.157 11.844-3.75-11.25-2.656-8a0.93233 0.93233 0 0 0 -1.781 0.031l-2.125 8.157-6.156 23.531-4.282-14.219a0.93233 0.93233 0 0 0 -0.03125 0l-0.5625-1.7812a0.93233 0.93233 0 0 0 -0.875 -0.65625h-1.8438-9.0625v-17.625zm40.438 21.75 5.375 16.375 0.5625 1.7188a0.93233 0.93233 0 0 0 0.875 0.65625h1.8125 9.0625v17.625h-58.125v-33.625h6.4688l7.125 23.531 2.5625 8.5a0.93233 0.93233 0 0 0 1.8125 -0.03125l2.25-8.5938 6.344-24.218 3.25 9.8125 2.3125 6.9375a0.93233 0.93233 0 0 0 1.75 0.03125l2.438-6.906 4.125-11.812z" fill="#005a80"/>
  <path id="path3618" d="m12 12v72h72v-72h-72zm6 6h60v35.5h-8.1875l-7.9688-24.25-2.3125-7-2.4375 6.9688-5.0312 14.375-4.625-13.812-2.6562-8-2.125 8.1562-7 26.781-5.25-17.438-0.561-1.781h-1.844-10v-19.5zm41.406 19.812 6.219 18.969 0.563 1.719h1.812 10v19.5h-60v-35.5h8.125l7.3125 24.188 2.5625 8.5 2.25-8.5938 7.125-27.219 4.25 12.781 2.3125 6.9375 2.4375-6.9062 5.0312-14.375z" fill="#fff"/>
 </g>
 <g id="layer5">
  <rect id="rect3171" height="66" stroke="#fff" stroke-linecap="round" stroke-width=".5" fill="url(#linearGradient3613)" rx="12" ry="12" width="66" opacity=".1" clip-path="url(#clipPath3613)" filter="url(#filter3794)" y="15" x="15"/>
 </g>
</svg>
