<?xml version="1.0" encoding="UTF-8" standalone="no"?>
<!-- Created with Inkscape (http://www.inkscape.org/) -->

<svg
   xmlns:dc="http://purl.org/dc/elements/1.1/"
   xmlns:cc="http://creativecommons.org/ns#"
   xmlns:rdf="http://www.w3.org/1999/02/22-rdf-syntax-ns#"
   xmlns:svg="http://www.w3.org/2000/svg"
   xmlns="http://www.w3.org/2000/svg"
   xmlns:xlink="http://www.w3.org/1999/xlink"
   xmlns:sodipodi="http://sodipodi.sourceforge.net/DTD/sodipodi-0.dtd"
   xmlns:inkscape="http://www.inkscape.org/namespaces/inkscape"
   id="svg2"
   height="96"
   width="96"
   version="1.1"
   inkscape:version="0.91 r"
   sodipodi:docname="battery.svg">
  <sodipodi:namedview
     pagecolor="#ffffff"
     bordercolor="#666666"
     borderopacity="1"
     objecttolerance="10"
     gridtolerance="10"
     guidetolerance="10"
     inkscape:pageopacity="0"
     inkscape:pageshadow="2"
     inkscape:window-width="1366"
     inkscape:window-height="717"
     id="namedview51"
     showgrid="false"
     inkscape:zoom="1.7383042"
     inkscape:cx="128.35762"
     inkscape:cy="31.134441"
     inkscape:window-x="0"
     inkscape:window-y="0"
     inkscape:window-maximized="1"
     inkscape:current-layer="layer6" />
  <defs
     id="defs4">
    <linearGradient
       id="linearGradient6400"
       y2="2.9934"
       gradientUnits="userSpaceOnUse"
       x2="47.995"
       y1="84.031"
       x1="47.995">
      <stop
         id="stop6396"
         stop-color="#ccc"
         offset="0" />
      <stop
         id="stop6398"
         stop-color="#dae0de"
         offset="1" />
    </linearGradient>
    <linearGradient
       id="linearGradient3733"
       y2="52.101"
       xlink:href="#linearGradient3715-05"
       gradientUnits="userSpaceOnUse"
       x2="19.942"
       y1="52.101"
       x1="80.711" />
    <linearGradient
       id="linearGradient3715-05">
      <stop
         id="stop3717"
         stop-color="#fff"
         offset="0" />
      <stop
         id="stop3719-3"
         stop-color="#fff"
         stop-opacity="0"
         offset="1" />
    </linearGradient>
    <filter
       id="filter3780"
       height="1.3025"
       width="1.0888"
       color-interpolation-filters="sRGB"
       y="-.15126"
       x="-.044412">
      <feGaussianBlur
         id="feGaussianBlur3782"
         stdDeviation="1.1526305" />
    </filter>
    <filter
       id="filter3776"
       height="1.0908"
       width="1.3035"
       color-interpolation-filters="sRGB"
       y="-.045378"
       x="-.15174">
      <feGaussianBlur
         id="feGaussianBlur3778"
         stdDeviation="1.1526305" />
    </filter>
    <radialGradient
       id="radialGradient4635"
       gradientUnits="userSpaceOnUse"
       cy="-15.871"
       cx="56.066"
       gradientTransform="matrix(-0.0022616,-1.0568,1.3856,0,10.224,1077.8)"
       r="35.938">
      <stop
         id="stop3177-6"
         stop-color="#4490e6"
         offset="0" />
      <stop
         id="stop3179-3"
         stop-color="#103d8f"
         offset="1" />
    </radialGradient>
    <clipPath
       id="clipPath4637"
       clipPathUnits="userSpaceOnUse">
      <rect
         id="rect4639"
         opacity=".75104"
         ry="7.1631"
         height="56"
         width="69.679"
         y="971.67"
         x="-46.872"
         fill="url(#linearGradient4641)" />
    </clipPath>
    <linearGradient
       id="linearGradient4641"
       y2="975.65"
       gradientUnits="userSpaceOnUse"
       x2="3468.4"
       gradientTransform="matrix(.31367 0 0 .31367 -1073 514.25)"
       y1="1636.7"
       x1="3382.6">
      <stop
         id="stop4911"
         stop-color="#1a1a1a"
         offset="0" />
      <stop
         id="stop4913"
         stop-color="#7a7a7a"
         offset="1" />
    </linearGradient>
    <linearGradient
       x1="64"
       y1="47"
       x2="82.835136"
       y2="47"
       id="linearGradient3976"
       xlink:href="#linearGradient3715-05"
       gradientUnits="userSpaceOnUse"
       gradientTransform="translate(4,0)" />
    <linearGradient
       x1="26"
       y1="6"
       x2="26"
       y2="72.022263"
       id="linearGradient3873"
       xlink:href="#linearGradient3715-05"
       gradientUnits="userSpaceOnUse"
       gradientTransform="matrix(0.23809524,0,0,1,-61.500858,-107.74433)" />
    <linearGradient
       x1="-90"
       y1="48"
       x2="-6"
       y2="48"
       id="linearGradient3925"
       xlink:href="#linearGradient3715-05"
       gradientUnits="userSpaceOnUse"
       gradientTransform="matrix(-1,0,0,-1,12.69133,107.74432)" />
    <linearGradient
       gradientTransform="translate(-108.69134,11.744321)"
       x1="32"
       y1="6.0500002"
       x2="64"
       y2="6.0500002"
       id="linearGradient3777"
       xlink:href="#linearGradient3788"
       gradientUnits="userSpaceOnUse" />
    <linearGradient
       id="linearGradient3788">
      <stop
         id="stop3790"
         style="stop-color:#d9d9d9;stop-opacity:1"
         offset="0" />
      <stop
         id="stop3792"
         style="stop-color:#c6c6c6;stop-opacity:1"
         offset="0.25015625" />
      <stop
         id="stop3796"
         style="stop-color:#696969;stop-opacity:1"
         offset="1" />
    </linearGradient>
    <radialGradient
       cx="48"
       cy="90.199997"
       r="42"
       fx="48"
       fy="90.199997"
       id="radialGradient3901"
       xlink:href="#linearGradient3702"
       gradientUnits="userSpaceOnUse"
       gradientTransform="matrix(1.3333333,5.3333334e-8,-3.8095238e-8,0.95238092,-15.999997,-5.9047602)" />
    <linearGradient
       id="linearGradient3702">
      <stop
         id="stop3705"
         style="stop-color:#88ff02;stop-opacity:1"
         offset="0" />
      <stop
         id="stop3707"
         style="stop-color:#1f8000;stop-opacity:1"
         offset="1" />
    </linearGradient>
    <linearGradient
       x1="6"
       y1="63"
       x2="32.019222"
       y2="63"
       id="linearGradient3897"
       xlink:href="#linearGradient3858"
       gradientUnits="userSpaceOnUse"
       gradientTransform="matrix(-1,0,0,1,96,0)" />
    <linearGradient
       id="linearGradient3858">
      <stop
         id="stop3860"
         style="stop-color:#225500;stop-opacity:1"
         offset="0" />
      <stop
         id="stop3862"
         style="stop-color:#225500;stop-opacity:0"
         offset="1" />
    </linearGradient>
    <clipPath
       clipPathUnits="userSpaceOnUse"
       id="clipPath4311">
      <path
         id="path4313"
         d="m 17.75,5.4062 c -6.642,0 -11.969,5.3948 -11.969,12.063 l 2e-4,61.031 c 0,6.668 5.3268,12.031 11.969,12.031 l 60.812,0 c 6.642,0 11.969,-5.363 11.969,-12.031 l 0,-61.031 c 0,-6.668 -5.327,-12.063 -11.969,-12.063 l -60.812,2e-4 z"
         style="fill:url(#linearGradient4315)"
         inkscape:connector-curvature="0" />
    </clipPath>
    <linearGradient
       inkscape:collect="always"
       xlink:href="#linearGradient6400"
       id="linearGradient4315"
       gradientUnits="userSpaceOnUse"
       x1="47.995"
       y1="84.031"
       x2="47.995"
       y2="2.9934" />
  </defs>
  <metadata
     id="metadata7">
    <rdf:RDF>
      <cc:Work
         rdf:about="">
        <dc:format>image/svg+xml</dc:format>
        <dc:type
           rdf:resource="http://purl.org/dc/dcmitype/StillImage" />
        <dc:title></dc:title>
      </cc:Work>
    </rdf:RDF>
  </metadata>
  <rect
     style="fill-opacity:0.01960802"
     x="3.3534"
     y="2.9899757"
     width="89.624001"
     height="89.977997"
     ry="12.724"
     id="rect5263-0" />
  <rect
     style="fill-opacity:0.03921599"
     x="3.9589"
     y="3.6000221"
     width="88.413002"
     height="88.762001"
     ry="12.552"
     id="rect5261-6" />
  <rect
     style="fill-opacity:0.07843101"
     x="4.5644999"
     y="4.2100072"
     width="87.202003"
     height="87.545998"
     ry="12.38"
     id="rect5259-9" />
  <rect
     style="fill-opacity:0.15685999"
     x="5.1701002"
     y="4.8199925"
     width="85.990997"
     height="86.330002"
     ry="12.208"
     id="rect5257-5" />
  <path
     inkscape:connector-curvature="0"
     style="fill:#bec8b7"
     d="m 17.75,5.4062 c -6.642,0 -11.969,5.3948 -11.969,12.063 l 2e-4,61.031 c 0,6.668 5.3268,12.031 11.969,12.031 l 60.812,0 c 6.642,0 11.969,-5.363 11.969,-12.031 l 0,-61.031 c 0,-6.668 -5.327,-12.063 -11.969,-12.063 l -60.812,2e-4 z"
     id="rect2419" />
  <g
     id="g4287"
     clip-path="url(#clipPath4311)">
    <g
       id="layer4"
       style="display:inline"
       transform="matrix(-1,0,0,1,108.69134,11.744321)">
      <path
         style="display:inline;fill:url(#radialGradient3901);fill-opacity:1;fill-rule:nonzero;stroke:none"
         id="rect3814"
         inkscape:connector-curvature="0"
         d="M 8,36 8,80 88,80 88,36 8,36 Z" />
      <path
         style="opacity:0.6;fill:#338000;fill-opacity:1;stroke:none"
         id="rect3845"
         inkscape:connector-curvature="0"
         d="m 8,78 0,2 80,0 0,-2 -80,0 z" />
      <path
         style="display:inline;fill:url(#linearGradient3897);fill-opacity:1;fill-rule:nonzero;stroke:none"
         id="path3856"
         inkscape:connector-curvature="0"
         d="m 48,36 0,44 40,0 0,-44 -40,0 z" />
      <path
         style="opacity:0.4;fill:#aad400;fill-opacity:1;stroke:none"
         id="rect3829"
         inkscape:connector-curvature="0"
         d="m 8,36 0,2 80,0 0,-2 -80,0 z" />
      <path
         style="display:inline;opacity:0.3;fill:#aad400;fill-opacity:1;stroke:none"
         id="rect3991"
         inkscape:connector-curvature="0"
         d="m 8,36 0,44 2,0 0,-44 -2,0 z m 78,0 0,44 2,0 0,-44 -2,0 z" />
    </g>
    <rect
       transform="scale(-1,1)"
       width="32"
       height="8.1000004"
       rx="2"
       ry="2"
       x="-76.691338"
       y="13.74432"
       id="rect3769"
       style="display:inline;fill:url(#linearGradient3777);fill-opacity:1;stroke:none" />
    <path
       d="m 100.69134,27.744321 0,63.999996 -80.00001,0 0,-63.999996 80.00001,0 z"
       inkscape:connector-curvature="0"
       id="rect2419-8"
       style="display:inline;fill:url(#linearGradient3925);fill-opacity:1;fill-rule:nonzero;stroke:none" />
    <path
       d="m 96.691337,17.744321 c 3.324003,0 6.000003,2.676 6.000003,6 l 0,4 -84.00001,0 0,-4 c 0,-3.324 2.676,-6 6,-6 l 72.000007,0 z"
       inkscape:connector-curvature="0"
       id="rect3754"
       style="display:inline;fill:#999999;fill-opacity:1;fill-rule:nonzero;stroke:none" />
    <path
       d="m 96.691337,101.74431 c 3.324003,0 6.000003,-2.675997 6.000003,-5.999993 l 0,-4 -84.00001,0 0,4 c 0,3.323996 2.676,5.999993 6,5.999993 l 72.000007,0 z"
       inkscape:connector-curvature="0"
       id="path3765"
       style="display:inline;fill:#b3b3b3;fill-opacity:1;fill-rule:nonzero;stroke:none" />
    <path
       d="m 74.691334,13.744321 c 1.108,0 2,0.892 2,2 l 0,1 c 0,-1.108 -0.892,-2 -2,-2 l -28.000005,0 c -1.108,0 -2,0.892 -2,2 l 0,-1 c 0,-1.108 0.892,-2 2,-2 l 28.000005,0 z"
       inkscape:connector-curvature="0"
       id="rect3779"
       style="display:inline;opacity:0.5;fill:#ffffff;fill-opacity:1;stroke:none" />
    <rect
       transform="scale(-1,1)"
       width="32"
       height="1"
       x="-76.691338"
       y="16.74432"
       id="rect3798"
       style="display:inline;opacity:0.2;fill:#000000;fill-opacity:1;stroke:none" />
    <rect
       transform="scale(-1,1)"
       width="84"
       height="2"
       x="-102.69134"
       y="91.744331"
       id="rect3847"
       style="display:inline;opacity:0.28999999;fill:#ffffff;fill-opacity:1;stroke:none" />
    <path
       d="m 100.69134,27.744321 0,2 -80.00001,0 0,-2 80.00001,0 z"
       inkscape:connector-curvature="0"
       id="rect3869"
       style="display:inline;opacity:0.1;fill:#000000;fill-opacity:1;stroke:none" />
    <rect
       width="5"
       height="84.000008"
       x="-57.69133"
       y="-101.74432"
       transform="scale(-1,-1)"
       id="rect3871"
       style="display:inline;opacity:0.1;fill:url(#linearGradient3873);fill-opacity:1;stroke:none" />
    <rect
       transform="scale(-1,1)"
       width="2"
       height="20"
       x="-100.69134"
       y="27.74432"
       id="rect3987"
       style="display:inline;opacity:0.4;fill:#ffffff;fill-opacity:1;stroke:none" />
    <rect
       transform="scale(-1,1)"
       width="2"
       height="20"
       x="-22.691332"
       y="27.74432"
       id="rect3989"
       style="display:inline;opacity:0.3;fill:#ffffff;fill-opacity:1;stroke:none" />
    <g
       id="layer6"
       style="display:inline"
       transform="matrix(-1,0,0,1,108.69134,11.744321)">
      <path
         style="opacity:0.8;fill:url(#linearGradient3976);fill-opacity:1;stroke:none"
         id="rect3955"
         inkscape:connector-curvature="0"
         d="m 68,22 0,2 16,0 0,-2 -16,0 z m 0,8 0,2 16,0 0,-2 -16,0 z m 0,8 0,2 16,0 0,-2 -16,0 z m 0,8 0,2 16,0 0,-2 -16,0 z m 0,8 0,2 16,0 0,-2 -16,0 z m 0,8 0,2 16,0 0,-2 -16,0 z m 0,8 0,2 16,0 0,-2 -16,0 z" />
      <path
         style="display:inline;opacity:0.8;fill:#ffffff;stroke:none"
         id="path3887"
         inkscape:connector-curvature="0"
         d="m 55.392035,42.27418 0,12 -6.019236,0 6.019236,16 0,-12 6.019235,0 -6.019235,-16 z" />
    </g>
  </g>
  <path
     style="fill-opacity:0.11764999"
     inkscape:connector-curvature="0"
     d="m 5.7756,73.44 0,5.0663 c 0,6.668 5.3434,12.032 11.985,12.032 l 60.809,0 c 6.6418,0 11.985,-5.3645 11.985,-12.032 l 0,-5.0663 c 0,6.6681 -5.3434,12.032 -11.985,12.032 l -60.809,0 c -6.6418,0 -11.985,-5.3643 -11.985,-12.032 z"
     id="rect5265-0" />
  <path
     style="fill-opacity:0.09803898"
     inkscape:connector-curvature="0"
     d="m 5.7756,77.54 0,1.0133 c 0,6.668 5.3434,12.032 11.985,12.032 l 60.809,0 c 6.6418,0 11.985,-5.3645 11.985,-12.032 l 0,-1.0133 c 0,6.6681 -5.3434,12.032 -11.985,12.032 l -60.809,0 c -6.6418,0 -11.985,-5.3644 -11.985,-12.032 z"
     id="path5252-0" />
</svg>
