<?xml version="1.0" encoding="UTF-8" standalone="no"?>
<!-- Created with Inkscape (http://www.inkscape.org/) -->

<svg
   xmlns:dc="http://purl.org/dc/elements/1.1/"
   xmlns:cc="http://creativecommons.org/ns#"
   xmlns:rdf="http://www.w3.org/1999/02/22-rdf-syntax-ns#"
   xmlns:svg="http://www.w3.org/2000/svg"
   xmlns="http://www.w3.org/2000/svg"
   xmlns:xlink="http://www.w3.org/1999/xlink"
   xmlns:sodipodi="http://sodipodi.sourceforge.net/DTD/sodipodi-0.dtd"
   xmlns:inkscape="http://www.inkscape.org/namespaces/inkscape"
   id="svg2"
   height="96"
   width="96"
   version="1.1"
   inkscape:version="0.91 r"
   sodipodi:docname="template.svg">
  <sodipodi:namedview
     pagecolor="#ffffff"
     bordercolor="#666666"
     borderopacity="1"
     objecttolerance="10"
     gridtolerance="10"
     guidetolerance="10"
     inkscape:pageopacity="0"
     inkscape:pageshadow="2"
     inkscape:window-width="1366"
     inkscape:window-height="717"
     id="namedview25"
     showgrid="false"
     inkscape:zoom="1.2291667"
     inkscape:cx="-61.771659"
     inkscape:cy="63.564074"
     inkscape:window-x="0"
     inkscape:window-y="0"
     inkscape:window-maximized="1"
     inkscape:current-layer="svg2" />
  <defs
     id="defs4">
    <linearGradient
       id="linearGradient4524">
      <stop
         offset="0"
         style="stop-color:#c5c5c5;stop-opacity:1"
         id="stop4526" />
      <stop
         offset="1"
         style="stop-color:#ffffff;stop-opacity:0"
         id="stop4528" />
    </linearGradient>
    <linearGradient
       id="linearGradient3935"
       y2="68"
       gradientUnits="userSpaceOnUse"
       x2="38"
       gradientTransform="translate(4,-4)"
       y1="36"
       x1="38">
      <stop
         id="stop4283-9"
         stop-color="#1e1e1e"
         offset="0" />
      <stop
         id="stop4285-8"
         stop-color="#505050"
         offset="1" />
    </linearGradient>
    <linearGradient
       id="linearGradient6931"
       y2="5.9877"
       gradientUnits="userSpaceOnUse"
       x2="48"
       gradientTransform="matrix(1.0417,0,0,1.0298,-1,-1.6786)"
       y1="90"
       x1="48">
      <stop
         id="stop4083"
         stop-color="#8c8c8c"
         offset="0" />
      <stop
         id="stop4085"
         stop-color="#dcdcdc"
         offset="1" />
    </linearGradient>
    <radialGradient
       cx="93.666664"
       cy="64.190475"
       r="17"
       fx="93.666664"
       fy="64.190475"
       id="radialGradient3023"
       xlink:href="#linearGradient3837"
       gradientUnits="userSpaceOnUse"
       gradientTransform="matrix(1.4117647,0,-2.3529408e-8,4.7058821,-36.235292,-214.07282)" />
    <linearGradient
       id="linearGradient3837">
      <stop
         id="stop3839"
         style="stop-color:#000000;stop-opacity:1"
         offset="0" />
      <stop
         id="stop3841"
         style="stop-color:#000000;stop-opacity:0"
         offset="1" />
    </linearGradient>
    <radialGradient
       cx="7.2183251"
       cy="76.395973"
       r="17"
       fx="7.2183251"
       fy="76.395973"
       id="radialGradient3988-6"
       xlink:href="#linearGradient3837"
       gradientUnits="userSpaceOnUse"
       gradientTransform="matrix(-0.94117647,-1.4641499e-7,-4.3924491e-7,2.823529,94.793751,-127.70625)" />
    <radialGradient
       cx="93.666664"
       cy="64.190475"
       r="17"
       fx="93.666664"
       fy="64.190475"
       id="radialGradient3994-8"
       xlink:href="#linearGradient3837"
       gradientUnits="userSpaceOnUse"
       gradientTransform="matrix(-1.4117647,0,2.3529408e-8,4.7058821,132.23529,-214.07282)" />
    <radialGradient
       cx="7.2183251"
       cy="76.395973"
       r="17"
       fx="7.2183251"
       fy="76.395973"
       id="radialGradient3996-1"
       xlink:href="#linearGradient3837"
       gradientUnits="userSpaceOnUse"
       gradientTransform="matrix(0.94117647,-1.4641499e-7,4.3924491e-7,2.823529,1.206249,-127.70625)" />
    <linearGradient
       x1="40"
       y1="8"
       x2="40"
       y2="64"
       id="linearGradient3802"
       xlink:href="#linearGradient3737-4"
       gradientUnits="userSpaceOnUse"
       gradientTransform="translate(55.72881,-104.94913)" />
    <linearGradient
       id="linearGradient3737-4">
      <stop
         id="stop3739-11"
         style="stop-color:#ffffff;stop-opacity:1"
         offset="0" />
      <stop
         id="stop3741-3"
         style="stop-color:#ffffff;stop-opacity:0"
         offset="1" />
    </linearGradient>
    <linearGradient
       x1="16"
       y1="88"
       x2="16"
       y2="8"
       id="linearGradient3961"
       xlink:href="#linearGradient3688"
       gradientUnits="userSpaceOnUse"
       gradientTransform="matrix(-1,0,0,1,17.491524,63.050872)" />
    <linearGradient
       id="linearGradient3688">
      <stop
         id="stop3690"
         style="stop-color:#333333;stop-opacity:1"
         offset="0" />
      <stop
         id="stop3692"
         style="stop-color:#595959;stop-opacity:1"
         offset="1" />
    </linearGradient>
    <linearGradient
       x1="16"
       y1="88"
       x2="16"
       y2="8"
       id="linearGradient3982"
       xlink:href="#linearGradient3688"
       gradientUnits="userSpaceOnUse"
       gradientTransform="translate(-18.711867,61.830533)" />
    <radialGradient
       cx="48"
       cy="37.5"
       r="5"
       fx="48"
       fy="37.5"
       id="radialGradient3871"
       xlink:href="#linearGradient3837"
       gradientUnits="userSpaceOnUse"
       gradientTransform="matrix(0.7514263,0,0,0.07514263,12.485948,14.367059)" />
    <radialGradient
       cx="48"
       cy="37.5"
       r="5"
       fx="48"
       fy="37.5"
       id="radialGradient3867"
       xlink:href="#linearGradient3837"
       gradientUnits="userSpaceOnUse"
       gradientTransform="matrix(0.7514263,0,0,0.07514263,12.485948,16.621338)" />
    <radialGradient
       cx="48"
       cy="37.5"
       r="5"
       fx="48"
       fy="37.5"
       id="radialGradient3863"
       xlink:href="#linearGradient3837"
       gradientUnits="userSpaceOnUse"
       gradientTransform="matrix(0.7514263,0,0,0.07514263,12.485948,18.875617)" />
    <radialGradient
       cx="48"
       cy="37.5"
       r="5"
       fx="48"
       fy="37.5"
       id="radialGradient3859"
       xlink:href="#linearGradient3837"
       gradientUnits="userSpaceOnUse"
       gradientTransform="matrix(0.7514263,0,0,0.07514263,12.485948,21.129896)" />
    <radialGradient
       cx="48"
       cy="37.5"
       r="5"
       fx="48"
       fy="37.5"
       id="radialGradient3855"
       xlink:href="#linearGradient3837"
       gradientUnits="userSpaceOnUse"
       gradientTransform="matrix(0.7514263,0,0,0.07514263,12.485948,23.384175)" />
    <radialGradient
       cx="48"
       cy="37.5"
       r="5"
       fx="48"
       fy="37.5"
       id="radialGradient3851"
       xlink:href="#linearGradient3837"
       gradientUnits="userSpaceOnUse"
       gradientTransform="matrix(0.7514263,0,0,0.07514263,12.485948,25.638454)" />
    <radialGradient
       cx="48"
       cy="37.5"
       r="5"
       fx="48"
       fy="37.5"
       id="radialGradient3847"
       xlink:href="#linearGradient3837"
       gradientUnits="userSpaceOnUse"
       gradientTransform="matrix(0.7514263,0,0,0.07514263,12.485948,27.892733)" />
    <radialGradient
       cx="48"
       cy="37.5"
       r="5"
       fx="48"
       fy="37.5"
       id="radialGradient3843"
       xlink:href="#linearGradient3837"
       gradientUnits="userSpaceOnUse"
       gradientTransform="matrix(0.7514263,0,0,0.07514263,12.485948,30.147012)" />
    <radialGradient
       cx="48"
       cy="19.5"
       r="5"
       fx="48"
       fy="19.5"
       id="radialGradient3831"
       xlink:href="#linearGradient3737-4"
       gradientUnits="userSpaceOnUse"
       gradientTransform="matrix(0.7514263,0,0,0.07514263,12.485948,16.471052)" />
    <radialGradient
       cx="48"
       cy="19.5"
       r="5"
       fx="48"
       fy="19.5"
       id="radialGradient3827"
       xlink:href="#linearGradient3737-4"
       gradientUnits="userSpaceOnUse"
       gradientTransform="matrix(0.7514263,0,0,0.07514263,12.485948,18.725331)" />
    <radialGradient
       cx="48"
       cy="19.5"
       r="5"
       fx="48"
       fy="19.5"
       id="radialGradient3823"
       xlink:href="#linearGradient3737-4"
       gradientUnits="userSpaceOnUse"
       gradientTransform="matrix(0.7514263,0,0,0.07514263,12.485948,20.979611)" />
    <radialGradient
       cx="48"
       cy="19.5"
       r="5"
       fx="48"
       fy="19.5"
       id="radialGradient3819"
       xlink:href="#linearGradient3737-4"
       gradientUnits="userSpaceOnUse"
       gradientTransform="matrix(0.7514263,0,0,0.07514263,12.485948,23.23389)" />
    <radialGradient
       cx="48"
       cy="19.5"
       r="5"
       fx="48"
       fy="19.5"
       id="radialGradient3815"
       xlink:href="#linearGradient3737-4"
       gradientUnits="userSpaceOnUse"
       gradientTransform="matrix(0.7514263,0,0,0.07514263,12.485948,25.488169)" />
    <radialGradient
       cx="48"
       cy="19.5"
       r="5"
       fx="48"
       fy="19.5"
       id="radialGradient3811"
       xlink:href="#linearGradient3737-4"
       gradientUnits="userSpaceOnUse"
       gradientTransform="matrix(0.7514263,0,0,0.07514263,12.485948,27.742448)" />
    <radialGradient
       cx="48"
       cy="19.5"
       r="5"
       fx="48"
       fy="19.5"
       id="radialGradient3807"
       xlink:href="#linearGradient3737-4"
       gradientUnits="userSpaceOnUse"
       gradientTransform="matrix(0.7514263,0,0,0.07514263,12.485948,29.996727)" />
    <radialGradient
       cx="48"
       cy="19.5"
       r="5"
       fx="48"
       fy="19.5"
       id="radialGradient3791"
       xlink:href="#linearGradient3737-4"
       gradientUnits="userSpaceOnUse"
       gradientTransform="matrix(0.7514263,0,0,0.07514263,12.485948,32.251005)" />
    <linearGradient
       x1="41.84375"
       y1="28"
       x2="48"
       y2="28"
       id="linearGradient3742"
       xlink:href="#linearGradient3735"
       gradientUnits="userSpaceOnUse"
       spreadMethod="reflect"
       gradientTransform="matrix(0.7514263,0,0,0.7514263,12.485948,4.786374)" />
    <linearGradient
       id="linearGradient3735">
      <stop
         id="stop3737"
         style="stop-color:#000000;stop-opacity:1"
         offset="0" />
      <stop
         id="stop3744"
         style="stop-color:#000000;stop-opacity:0.1627907"
         offset="0.5" />
      <stop
         id="stop3740"
         style="stop-color:#000000;stop-opacity:0"
         offset="1" />
    </linearGradient>
    <linearGradient
       x1="48"
       y1="14"
       x2="48"
       y2="42"
       id="linearGradient3727"
       xlink:href="#linearGradient3721"
       gradientUnits="userSpaceOnUse"
       gradientTransform="matrix(0.7514263,0,0,0.7514263,12.485948,4.786374)" />
    <linearGradient
       id="linearGradient3721">
      <stop
         id="stop3723"
         style="stop-color:#949494;stop-opacity:1"
         offset="0" />
      <stop
         id="stop3731"
         style="stop-color:#aeaeae;stop-opacity:1"
         offset="0.19546634" />
      <stop
         id="stop3729"
         style="stop-color:#828282;stop-opacity:1"
         offset="0.66360098" />
      <stop
         id="stop3725"
         style="stop-color:#4d4d4d;stop-opacity:1"
         offset="1" />
    </linearGradient>
    <linearGradient
       x1="48"
       y1="8"
       x2="48"
       y2="48"
       id="linearGradient3895"
       xlink:href="#linearGradient3889"
       gradientUnits="userSpaceOnUse"
       gradientTransform="matrix(0.7514263,0,0,0.7514263,12.485948,4.786374)" />
    <linearGradient
       id="linearGradient3889">
      <stop
         id="stop3891"
         style="stop-color:#a49e89;stop-opacity:1"
         offset="0" />
      <stop
         id="stop3893"
         style="stop-color:#ffffff;stop-opacity:1"
         offset="1" />
    </linearGradient>
    <filter
       style="color-interpolation-filters:sRGB"
       x="-0.046066221"
       y="-0.68178004"
       width="1.0921324"
       height="2.3635602"
       id="filter3903">
      <feGaussianBlur
         id="feGaussianBlur3905"
         stdDeviation="1.4203751" />
    </filter>
    <linearGradient
       x1="48"
       y1="90"
       x2="48"
       y2="5.9877172"
       id="linearGradient3998"
       xlink:href="#linearGradient3614"
       gradientUnits="userSpaceOnUse"
       gradientTransform="matrix(1,0,0,1.2421306,83.796608,-1.045968)" />
    <linearGradient
       id="linearGradient3614">
      <stop
         id="stop3616"
         style="stop-color:#c8c4b7;stop-opacity:1"
         offset="0" />
      <stop
         id="stop3618"
         style="stop-color:#e3e2db;stop-opacity:1"
         offset="1" />
    </linearGradient>
    <linearGradient
       inkscape:collect="always"
       xlink:href="#linearGradient3737-4"
       id="linearGradient4413"
       gradientUnits="userSpaceOnUse"
       gradientTransform="translate(54.101691,-96.813535)"
       x1="40"
       y1="8"
       x2="40"
       y2="64" />
    <radialGradient
       cx="93.666664"
       cy="64.190475"
       r="17"
       fx="93.666664"
       fy="64.190475"
       id="radialGradient3023-4"
       xlink:href="#linearGradient3837"
       gradientUnits="userSpaceOnUse"
       gradientTransform="matrix(1.4117647,0,-2.3529408e-8,4.7058821,-36.235292,-214.07282)" />
    <radialGradient
       cx="7.2183251"
       cy="76.395973"
       r="17"
       fx="7.2183251"
       fy="76.395973"
       id="radialGradient3988-6-6"
       xlink:href="#linearGradient3837"
       gradientUnits="userSpaceOnUse"
       gradientTransform="matrix(-0.94117647,-1.4641499e-7,-4.3924491e-7,2.823529,94.793751,-127.70625)" />
    <radialGradient
       cx="93.666664"
       cy="64.190475"
       r="17"
       fx="93.666664"
       fy="64.190475"
       id="radialGradient3994-8-1"
       xlink:href="#linearGradient3837"
       gradientUnits="userSpaceOnUse"
       gradientTransform="matrix(-1.4117647,0,2.3529408e-8,4.7058821,132.23529,-214.07282)" />
    <radialGradient
       cx="7.2183251"
       cy="76.395973"
       r="17"
       fx="7.2183251"
       fy="76.395973"
       id="radialGradient3996-1-1"
       xlink:href="#linearGradient3837"
       gradientUnits="userSpaceOnUse"
       gradientTransform="matrix(0.94117647,-1.4641499e-7,4.3924491e-7,2.823529,1.206249,-127.70625)" />
    <linearGradient
       x1="40"
       y1="8"
       x2="40"
       y2="64"
       id="linearGradient3802-0"
       xlink:href="#linearGradient3737-4"
       gradientUnits="userSpaceOnUse"
       gradientTransform="translate(-160.67797,-71.999975)" />
    <linearGradient
       x1="40"
       y1="8"
       x2="40"
       y2="64"
       id="linearGradient3790"
       xlink:href="#linearGradient3737-4"
       gradientUnits="userSpaceOnUse"
       gradientTransform="translate(-124.47458,-81.355907)" />
    <linearGradient
       x1="16"
       y1="88"
       x2="16"
       y2="8"
       id="linearGradient3961-4"
       xlink:href="#linearGradient3688"
       gradientUnits="userSpaceOnUse"
       gradientTransform="matrix(-1,0,0,1,-115.9322,-42.30506)" />
    <linearGradient
       x1="16"
       y1="88"
       x2="16"
       y2="8"
       id="linearGradient3982-4"
       xlink:href="#linearGradient3688"
       gradientUnits="userSpaceOnUse"
       gradientTransform="translate(-150.1017,-66.30506)" />
    <radialGradient
       cx="48"
       cy="37.5"
       r="5"
       fx="48"
       fy="37.5"
       id="radialGradient3871-6"
       xlink:href="#linearGradient3837"
       gradientUnits="userSpaceOnUse"
       gradientTransform="matrix(1,0,0,0.1,-124.47458,-64.605907)" />
    <radialGradient
       cx="48"
       cy="37.5"
       r="5"
       fx="48"
       fy="37.5"
       id="radialGradient3867-0"
       xlink:href="#linearGradient3837"
       gradientUnits="userSpaceOnUse"
       gradientTransform="matrix(1,0,0,0.1,-124.47458,-61.605907)" />
    <radialGradient
       cx="48"
       cy="37.5"
       r="5"
       fx="48"
       fy="37.5"
       id="radialGradient3863-7"
       xlink:href="#linearGradient3837"
       gradientUnits="userSpaceOnUse"
       gradientTransform="matrix(1,0,0,0.1,-124.47458,-58.605907)" />
    <radialGradient
       cx="48"
       cy="37.5"
       r="5"
       fx="48"
       fy="37.5"
       id="radialGradient3859-3"
       xlink:href="#linearGradient3837"
       gradientUnits="userSpaceOnUse"
       gradientTransform="matrix(1,0,0,0.1,-124.47458,-55.605907)" />
    <radialGradient
       cx="48"
       cy="37.5"
       r="5"
       fx="48"
       fy="37.5"
       id="radialGradient3855-7"
       xlink:href="#linearGradient3837"
       gradientUnits="userSpaceOnUse"
       gradientTransform="matrix(1,0,0,0.1,-124.47458,-52.605907)" />
    <radialGradient
       cx="48"
       cy="37.5"
       r="5"
       fx="48"
       fy="37.5"
       id="radialGradient3851-1"
       xlink:href="#linearGradient3837"
       gradientUnits="userSpaceOnUse"
       gradientTransform="matrix(1,0,0,0.1,-124.47458,-49.605907)" />
    <radialGradient
       cx="48"
       cy="37.5"
       r="5"
       fx="48"
       fy="37.5"
       id="radialGradient3847-0"
       xlink:href="#linearGradient3837"
       gradientUnits="userSpaceOnUse"
       gradientTransform="matrix(1,0,0,0.1,-124.47458,-46.605907)" />
    <radialGradient
       cx="48"
       cy="37.5"
       r="5"
       fx="48"
       fy="37.5"
       id="radialGradient3843-5"
       xlink:href="#linearGradient3837"
       gradientUnits="userSpaceOnUse"
       gradientTransform="matrix(1,0,0,0.1,-124.47458,-43.605907)" />
    <radialGradient
       cx="48"
       cy="19.5"
       r="5"
       fx="48"
       fy="19.5"
       id="radialGradient3831-2"
       xlink:href="#linearGradient3737-4"
       gradientUnits="userSpaceOnUse"
       gradientTransform="matrix(1,0,0,0.1,-124.47458,-61.805907)" />
    <radialGradient
       cx="48"
       cy="19.5"
       r="5"
       fx="48"
       fy="19.5"
       id="radialGradient3827-4"
       xlink:href="#linearGradient3737-4"
       gradientUnits="userSpaceOnUse"
       gradientTransform="matrix(1,0,0,0.1,-124.47458,-58.805907)" />
    <radialGradient
       cx="48"
       cy="19.5"
       r="5"
       fx="48"
       fy="19.5"
       id="radialGradient3823-3"
       xlink:href="#linearGradient3737-4"
       gradientUnits="userSpaceOnUse"
       gradientTransform="matrix(1,0,0,0.1,-124.47458,-55.805907)" />
    <radialGradient
       cx="48"
       cy="19.5"
       r="5"
       fx="48"
       fy="19.5"
       id="radialGradient3819-6"
       xlink:href="#linearGradient3737-4"
       gradientUnits="userSpaceOnUse"
       gradientTransform="matrix(1,0,0,0.1,-124.47458,-52.805907)" />
    <radialGradient
       cx="48"
       cy="19.5"
       r="5"
       fx="48"
       fy="19.5"
       id="radialGradient3815-1"
       xlink:href="#linearGradient3737-4"
       gradientUnits="userSpaceOnUse"
       gradientTransform="matrix(1,0,0,0.1,-124.47458,-49.805907)" />
    <radialGradient
       cx="48"
       cy="19.5"
       r="5"
       fx="48"
       fy="19.5"
       id="radialGradient3811-7"
       xlink:href="#linearGradient3737-4"
       gradientUnits="userSpaceOnUse"
       gradientTransform="matrix(1,0,0,0.1,-124.47458,-46.805907)" />
    <radialGradient
       cx="48"
       cy="19.5"
       r="5"
       fx="48"
       fy="19.5"
       id="radialGradient3807-4"
       xlink:href="#linearGradient3737-4"
       gradientUnits="userSpaceOnUse"
       gradientTransform="matrix(1,0,0,0.1,-124.47458,-43.805907)" />
    <radialGradient
       cx="48"
       cy="19.5"
       r="5"
       fx="48"
       fy="19.5"
       id="radialGradient3791-2"
       xlink:href="#linearGradient3737-4"
       gradientUnits="userSpaceOnUse"
       gradientTransform="matrix(1,0,0,0.1,-124.47458,-40.805907)" />
    <linearGradient
       x1="41.84375"
       y1="28"
       x2="48"
       y2="28"
       id="linearGradient3742-6"
       xlink:href="#linearGradient3735"
       gradientUnits="userSpaceOnUse"
       spreadMethod="reflect"
       gradientTransform="translate(-124.47458,-77.355907)" />
    <linearGradient
       x1="48"
       y1="14"
       x2="48"
       y2="42"
       id="linearGradient3727-1"
       xlink:href="#linearGradient3721"
       gradientUnits="userSpaceOnUse"
       gradientTransform="translate(-124.47458,-77.355907)" />
    <linearGradient
       x1="48"
       y1="8"
       x2="48"
       y2="48"
       id="linearGradient3895-2"
       xlink:href="#linearGradient3889"
       gradientUnits="userSpaceOnUse"
       gradientTransform="translate(-124.47458,-77.355907)" />
    <filter
       style="color-interpolation-filters:sRGB"
       x="-0.046066221"
       y="-0.68178004"
       width="1.0921324"
       height="2.3635602"
       id="filter3903-7">
      <feGaussianBlur
         id="feGaussianBlur3905-5"
         stdDeviation="1.4203751" />
    </filter>
    <linearGradient
       x1="48"
       y1="90"
       x2="48"
       y2="5.9877172"
       id="linearGradient3998-5"
       xlink:href="#linearGradient3614"
       gradientUnits="userSpaceOnUse"
       gradientTransform="translate(-124.47458,-81.355907)" />
  </defs>
  <metadata
     id="metadata7">
    <rdf:RDF>
      <cc:Work
         rdf:about="">
        <dc:format>image/svg+xml</dc:format>
        <dc:type
           rdf:resource="http://purl.org/dc/dcmitype/StillImage" />
        <dc:title />
      </cc:Work>
    </rdf:RDF>
  </metadata>
  <rect
     style="fill-opacity:0.01960802"
     x="3.3534"
     y="2.9899757"
     width="89.624001"
     height="89.977997"
     ry="12.724"
     id="rect5263-0" />
  <rect
     style="fill-opacity:0.03921599"
     x="3.9589"
     y="3.6000221"
     width="88.413002"
     height="88.762001"
     ry="12.552"
     id="rect5261-6" />
  <rect
     style="fill-opacity:0.07843101"
     x="4.5644999"
     y="4.2100072"
     width="87.202003"
     height="87.545998"
     ry="12.38"
     id="rect5259-9" />
  <rect
     style="fill-opacity:0.15685999"
     x="5.1701002"
     y="4.8199925"
     width="85.990997"
     height="86.330002"
     ry="12.208"
     id="rect5257-5" />
  <path
     inkscape:connector-curvature="0"
     style="opacity:0.9;fill:#666666"
     d="m 17.75,5.4062 c -6.642,0 -11.969,5.3948 -11.969,12.063 l 2e-4,61.031 c 0,6.668 5.3268,12.031 11.969,12.031 l 60.812,0 c 6.642,0 11.969,-5.363 11.969,-12.031 l 0,-61.031 c 0,-6.668 -5.327,-12.063 -11.969,-12.063 l -60.812,2e-4 z"
     id="rect2419-5" />
  <path
     style="display:inline;opacity:0.5;fill:url(#linearGradient4413);fill-opacity:1;fill-rule:nonzero;stroke:none"
     id="path3785"
     inkscape:connector-curvature="0"
     d="m 76.101694,-90.813535 c -1.797649,0 -3.402172,0.7867 -4.5,2.03125 l 60.999996,0 c -1.09782,-1.24455 -2.70235,-2.03125 -4.5,-2.03125 l -51.999996,0 z m -0.625,83.9687503 c 0.202192,0.0204 0.41725,0.0312 0.625,0.0312 l 51.999996,0 c 0.20775,0 0.42281,-0.0108 0.625,-0.0312 l -53.249996,0 z" />
  <path
     style="display:inline;opacity:0.25;fill:url(#linearGradient3802);fill-opacity:1;fill-rule:nonzero;stroke:none"
     id="path3670"
     inkscape:connector-curvature="0"
     d="m 67.72881,-98.949128 c -3.324,0 -6,2.676 -6,6 l 0,4 0,16 c 0,15.17962 5,20.14884 5,40 l 0,12 c 0,3.31371 2.686294,6 6.000003,6 l 9,0 0,-0.0312 -9,0 c -2.762871,0 -4.968753,-2.20588 -4.968753,-4.96875 l 0,-12 c 0,-10.01115 -1.278,-16.333 -2.53125,-21.96875 -1.25324,-5.63575 -2.46875,-10.55335 -2.46875,-18.03125 l 0,-16 0,-4 c 0,-2.77697 2.19178,-4.96875 4.96875,-4.96875 l 5.000003,0 c 0.911811,-1.21924 2.360404,-2.03125 4,-2.03125 l -5,0 -4.000003,0 z m 63,0 c 1.6396,0 3.08819,0.81201 4,2.03125 l 5,0 c 2.77698,0 4.96875,2.19178 4.96875,4.96875 l 0,4 0,16 c 0,7.4779 -1.2155,12.3955 -2.46875,18.03125 -1.25324,5.63575 -2.53125,11.9576 -2.53125,21.96875 l 0,12 c 0,2.76287 -2.20588,4.96875 -4.96875,4.96875 l -9,0 0,0.0312 9,0 c 0.62132,0 1.21762,-0.10594 1.78125,-0.28125 2.44241,-0.75967 4.21875,-3.02636 4.21875,-5.71875 l 0,-12 c 0,-19.85116 5,-24.82038 5,-40 l 0,-16 0,-4 c 0,-0.21614 -0.009,-0.4149 -0.0312,-0.625 -0.0171,-0.1694 -0.0317,-0.33514 -0.0625,-0.5 -0.006,-0.0311 -0.0249,-0.0628 -0.0312,-0.0937 -0.0331,-0.16257 -0.0791,-0.31133 -0.125,-0.46875 -0.009,-0.0317 -0.0216,-0.0623 -0.0312,-0.0937 -0.0447,-0.14422 -0.07,-0.29823 -0.125,-0.4375 -0.0171,-0.0436 -0.0444,-0.0819 -0.0625,-0.125 -0.0523,-0.12413 -0.096,-0.25535 -0.15625,-0.375 -0.0271,-0.0541 -0.065,-0.10311 -0.0937,-0.15625 -0.0595,-0.10989 -0.12143,-0.20693 -0.1875,-0.3125 -0.0357,-0.0574 -0.0875,-0.10017 -0.125,-0.15625 -0.0208,-0.0309 -0.0411,-0.0633 -0.0625,-0.0937 -0.0903,-0.12958 -0.18121,-0.25325 -0.28125,-0.375 -0.061,-0.074 -0.12302,-0.14779 -0.1875,-0.21875 -0.17228,-0.1901 -0.3672,-0.36475 -0.5625,-0.53125 -0.0224,-0.019 -0.0399,-0.0438 -0.0625,-0.0625 -0.14805,-0.12208 -0.3092,-0.23614 -0.46875,-0.34375 -0.0515,-0.0348 -0.10357,-0.0606 -0.15625,-0.0937 -0.10907,-0.0686 -0.19877,-0.15712 -0.3125,-0.21875 -0.0405,-0.0219 -0.084,-0.0415 -0.125,-0.0625 -0.13239,-0.0677 -0.26828,-0.12957 -0.40625,-0.1875 -0.0299,-0.0126 -0.0636,-0.0191 -0.0937,-0.0312 -0.14884,-0.0596 -0.31416,-0.1085 -0.46875,-0.15625 -0.0221,-0.007 -0.0403,-0.0246 -0.0625,-0.0312 -0.16727,-0.0496 -0.32681,-0.0899 -0.5,-0.125 -0.01,-0.002 -0.0212,0.002 -0.0312,0 -0.18375,-0.0362 -0.37294,-0.0746 -0.5625,-0.0937 -0.20219,-0.0204 -0.41725,-0.0312 -0.625,-0.0312 l -9,0 z" />
  <g
     id="g4767"
     transform="matrix(1,0,0,1.0145278,124.41401,81.54938)">
    <path
       d="m -103.47458,-75.355907 c -2.76142,0 -5,2.23858 -5,5 l 0,7 0,14 c 0,14.10714 10.000003,23.999999 10.000003,43.9999989 l 0,14 44,0 0,-14 c 0,-19.9999999 10,-29.8928589 10,-43.9999989 l 0,-14 0,-7 c 0,-2.76142 -2.23858,-5 -5,-5 l -1,0 -5,0 -40,0 -7.000003,0 -1,0 z m 63.000003,0 c 0.20775,0 0.42281,0.0108 0.625,0.0312 0.47885,0.0483 0.93709,0.15905 1.375,0.3125 l 0,-0.34375 -2,0 z"
       inkscape:connector-curvature="0"
       id="rect2419-58"
       style="display:inline;fill:url(#linearGradient3998-5);fill-opacity:1;fill-rule:nonzero;stroke:none" />
    <path
       d="m -78.868327,-75.355907 0,53.062899 0,0.03527 c 8e-5,0.01255 0,0.04205 0,0.03527 0,1.285165 0.95694,2.366987 2.09375,2.366987 1.13681,0 2.09375,-1.081822 2.09375,-2.366987 0,0.0068 -8e-5,-0.02272 0,-0.03527 8e-5,-0.01255 8.6e-4,-0.0045 0,-0.03527 l 0,-53.062899 -4.1875,0 z"
       inkscape:connector-curvature="0"
       id="path4051-5"
       style="color:#000000;font-style:normal;font-variant:normal;font-weight:normal;font-stretch:normal;font-size:medium;line-height:normal;font-family:'Abandoned Bitplane';-inkscape-font-specification:'Abandoned Bitplane';text-indent:0;text-align:start;text-decoration:none;text-decoration-line:none;letter-spacing:normal;word-spacing:normal;text-transform:none;direction:ltr;block-progression:tb;writing-mode:lr-tb;text-anchor:start;display:inline;overflow:visible;visibility:visible;opacity:0.6;fill:#ffffff;fill-opacity:1;stroke:none;stroke-width:2;marker:none;enable-background:accumulate" />
    <rect
       width="74"
       height="5"
       rx="8"
       ry="2.5"
       x="11"
       y="11"
       transform="matrix(1,0,0,2.2519731,-124.47458,-89.193257)"
       id="rect3897-6"
       style="display:inline;opacity:0.2;fill:#ffffff;fill-opacity:1;stroke:none;filter:url(#filter3903-7)" />
    <path
       d="m -76.474577,-67.387157 c -5.52986,0 -10.03125,4.50139 -10.03125,10.03125 l 0,16 c 0,5.52986 4.50139,10.03125 10.03125,10.03125 5.52986,0 10.03125,-4.50139 10.03125,-10.03125 l 0,-16 c 0,-5.52986 -4.50139,-10.03125 -10.03125,-10.03125 z"
       id="path3879-1"
       style="display:inline;opacity:0.9;fill:url(#linearGradient3895-2);fill-opacity:1;stroke:none"
       inkscape:connector-curvature="0" />
    <path
       d="m -77.774577,-75.355907 0,53.098227 c -3.4e-4,0.01221 0,0.02306 0,0.03527 0,0.624354 0.44772,1.130502 1,1.130502 0.55229,0 1,-0.506148 1,-1.130502 0,-0.01221 3.4e-4,-0.02318 0,-0.03527 l 0,-53.098227 -2,0 z"
       inkscape:connector-curvature="0"
       id="path3711-0"
       style="color:#000000;font-style:normal;font-variant:normal;font-weight:normal;font-stretch:normal;font-size:medium;line-height:normal;font-family:'Abandoned Bitplane';-inkscape-font-specification:'Abandoned Bitplane';text-indent:0;text-align:start;text-decoration:none;text-decoration-line:none;letter-spacing:normal;word-spacing:normal;text-transform:none;direction:ltr;block-progression:tb;writing-mode:lr-tb;text-anchor:start;display:inline;overflow:visible;visibility:visible;opacity:0.9;fill:#000000;fill-opacity:1;stroke:none;stroke-width:2;marker:none;enable-background:accumulate" />
    <rect
       width="16"
       height="32"
       rx="8"
       ry="8"
       x="-84.474564"
       y="-65.355911"
       id="rect3713-0"
       style="display:inline;opacity:0.9;fill:#000000;fill-opacity:1;stroke:none" />
    <path
       d="m -76.474577,-63.512157 c -3.43932,0 -6.15625,2.71693 -6.15625,6.15625 l 0,16 c 0,3.43932 2.71693,6.15625 6.15625,6.15625 3.43932,0 6.15625,-2.71693 6.15625,-6.15625 l 0,-16 c 0,-3.43932 -2.71693,-6.15625 -6.15625,-6.15625 z"
       id="path3719-5"
       style="display:inline;opacity:0.98999999;fill:url(#linearGradient3727-1);fill-opacity:1;stroke:none"
       inkscape:connector-curvature="0" />
    <path
       d="m -76.474577,-63.512157 c -3.43932,0 -6.15625,2.71693 -6.15625,6.15625 l 0,16 c 0,3.43932 2.71693,6.15625 6.15625,6.15625 3.43932,0 6.15625,-2.71693 6.15625,-6.15625 l 0,-16 c 0,-3.43932 -2.71693,-6.15625 -6.15625,-6.15625 z"
       id="path3733-3"
       style="display:inline;opacity:0.5;fill:url(#linearGradient3742-6);fill-opacity:1;stroke:none"
       inkscape:connector-curvature="0" />
    <rect
       width="10"
       height="1"
       x="-81.474564"
       y="-39.355911"
       id="rect3789-8"
       style="display:inline;opacity:0.4;fill:url(#radialGradient3791-2);fill-opacity:1;stroke:none" />
    <rect
       width="10"
       height="1"
       x="-81.474564"
       y="-42.355911"
       id="rect3805-8"
       style="display:inline;opacity:0.4;fill:url(#radialGradient3807-4);fill-opacity:1;stroke:none" />
    <rect
       width="10"
       height="1"
       x="-81.474564"
       y="-45.355911"
       id="rect3809-3"
       style="display:inline;opacity:0.4;fill:url(#radialGradient3811-7);fill-opacity:1;stroke:none" />
    <rect
       width="10"
       height="1"
       x="-81.474564"
       y="-48.355911"
       id="rect3813-2"
       style="display:inline;opacity:0.4;fill:url(#radialGradient3815-1);fill-opacity:1;stroke:none" />
    <rect
       width="10"
       height="1"
       x="-81.474564"
       y="-51.355911"
       id="rect3817-0"
       style="display:inline;opacity:0.4;fill:url(#radialGradient3819-6);fill-opacity:1;stroke:none" />
    <rect
       width="10"
       height="1"
       x="-81.474564"
       y="-54.355911"
       id="rect3821-1"
       style="display:inline;opacity:0.4;fill:url(#radialGradient3823-3);fill-opacity:1;stroke:none" />
    <rect
       width="10"
       height="1"
       x="-81.474564"
       y="-57.355911"
       id="rect3825-4"
       style="display:inline;opacity:0.4;fill:url(#radialGradient3827-4);fill-opacity:1;stroke:none" />
    <rect
       width="10"
       height="1"
       x="-81.474564"
       y="-60.355911"
       id="rect3829-7"
       style="display:inline;opacity:0.4;fill:url(#radialGradient3831-2);fill-opacity:1;stroke:none" />
    <rect
       width="10"
       height="1"
       x="-81.474564"
       y="-40.355911"
       id="rect3833-3"
       style="display:inline;opacity:0.6;fill:url(#radialGradient3843-5);fill-opacity:1;stroke:none" />
    <rect
       width="10"
       height="1"
       x="-81.474564"
       y="-43.355911"
       id="rect3845-7"
       style="display:inline;opacity:0.6;fill:url(#radialGradient3847-0);fill-opacity:1;stroke:none" />
    <rect
       width="10"
       height="1"
       x="-81.474564"
       y="-46.355911"
       id="rect3849-2"
       style="display:inline;opacity:0.6;fill:url(#radialGradient3851-1);fill-opacity:1;stroke:none" />
    <rect
       width="10"
       height="1"
       x="-81.474564"
       y="-49.355911"
       id="rect3853-6"
       style="display:inline;opacity:0.4;fill:url(#radialGradient3855-7);fill-opacity:1;stroke:none" />
    <rect
       width="10"
       height="1"
       x="-81.474564"
       y="-52.355911"
       id="rect3857-9"
       style="display:inline;opacity:0.6;fill:url(#radialGradient3859-3);fill-opacity:1;stroke:none" />
    <rect
       width="10"
       height="1"
       x="-81.474564"
       y="-55.355911"
       id="rect3861-7"
       style="display:inline;opacity:0.6;fill:url(#radialGradient3863-7);fill-opacity:1;stroke:none" />
    <rect
       width="10"
       height="1"
       x="-81.474564"
       y="-58.355911"
       id="rect3865-0"
       style="display:inline;opacity:0.6;fill:url(#radialGradient3867-0);fill-opacity:1;stroke:none" />
    <rect
       width="10"
       height="1"
       x="-81.474564"
       y="-61.355911"
       id="rect3869-3"
       style="display:inline;opacity:0.6;fill:url(#radialGradient3871-6);fill-opacity:1;stroke:none" />
    <path
       d="m -103.47458,-75.355907 c -2.76142,0 -5,2.23858 -5,5 l 0,21 c 0,14.10714 10.000003,23.999999 10.000003,43.9999989 l 0,14 1,0 0,-14 c 0,-19.9999999 -10.000003,-29.8928589 -10.000003,-43.9999989 l 0,-21 c 0,-2.76142 2.23858,-5 5,-5 l -1,0 z"
       inkscape:connector-curvature="0"
       id="path3988"
       style="display:inline;opacity:0.6;fill:#ffffff;fill-opacity:1;stroke:none" />
    <path
       d="m -49.474577,-75.355907 c 2.76142,0 5,2.23858 5,5 l 0,21 c 0,14.10714 -10,23.999999 -10,43.9999989 l 0,14 -1,0 0,-14 c 0,-19.9999999 10,-29.8928589 10,-43.9999989 l 0,-21 c 0,-2.76142 -2.23858,-5 -5,-5 l 1,0 z"
       inkscape:connector-curvature="0"
       id="path3998"
       style="display:inline;opacity:0.6;fill:#ffffff;fill-opacity:1;stroke:none" />
    <path
       d="m -102.47458,-75.355907 c -1.79765,0 -3.40217,0.7867 -4.5,2.03125 l 61.000003,0 c -1.09783,-1.24455 -2.70235,-2.03125 -4.5,-2.03125 l -52.000003,0 z m -0.625,83.9687489 c 0.20219,0.0204 0.41725,0.0312 0.625,0.0312 l 52.000003,0 c 0.20775,0 0.42281,-0.0108 0.625,-0.0312 l -53.250003,0 z"
       inkscape:connector-curvature="0"
       id="path3785-8"
       style="display:inline;opacity:0.5;fill:url(#linearGradient3790);fill-opacity:1;fill-rule:nonzero;stroke:none" />
  </g>
  <path
     style="fill-opacity:0.18956999"
     inkscape:connector-curvature="0"
     d="m 5.7756,73.44 0,5.0663 c 0,6.668 5.3434,12.032 11.985,12.032 l 60.809,0 c 6.6418,0 11.985,-5.3645 11.985,-12.032 l 0,-5.0663 c 0,6.6681 -5.3434,12.032 -11.985,12.032 l -60.809,0 c -6.6418,0 -11.985,-5.3643 -11.985,-12.032 z"
     id="rect5265-0" />
  <path
     style="fill-opacity:0.09803898"
     inkscape:connector-curvature="0"
     d="m 5.7756,77.54 0,1.0133 c 0,6.668 5.3434,12.032 11.985,12.032 l 60.809,0 c 6.6418,0 11.985,-5.3645 11.985,-12.032 l 0,-1.0133 c 0,6.6681 -5.3434,12.032 -11.985,12.032 l -60.809,0 c -6.6418,0 -11.985,-5.3644 -11.985,-12.032 z"
     id="path5252-0" />
</svg>
