<?xml version="1.0" encoding="UTF-8" standalone="no"?>
<!-- Created with Inkscape (http://www.inkscape.org/) -->

<svg
   xmlns:dc="http://purl.org/dc/elements/1.1/"
   xmlns:cc="http://creativecommons.org/ns#"
   xmlns:rdf="http://www.w3.org/1999/02/22-rdf-syntax-ns#"
   xmlns:svg="http://www.w3.org/2000/svg"
   xmlns="http://www.w3.org/2000/svg"
   xmlns:xlink="http://www.w3.org/1999/xlink"
   xmlns:sodipodi="http://sodipodi.sourceforge.net/DTD/sodipodi-0.dtd"
   xmlns:inkscape="http://www.inkscape.org/namespaces/inkscape"
   id="svg2"
   height="96"
   width="96"
   version="1.1"
   inkscape:version="0.91 r"
   sodipodi:docname="input-tablet.svg">
  <sodipodi:namedview
     pagecolor="#ffffff"
     bordercolor="#666666"
     borderopacity="1"
     objecttolerance="10"
     gridtolerance="10"
     guidetolerance="10"
     inkscape:pageopacity="0"
     inkscape:pageshadow="2"
     inkscape:window-width="1366"
     inkscape:window-height="717"
     id="namedview51"
     showgrid="false"
     inkscape:zoom="1.7383042"
     inkscape:cx="174.62895"
     inkscape:cy="-22.833917"
     inkscape:window-x="0"
     inkscape:window-y="0"
     inkscape:window-maximized="1"
     inkscape:current-layer="g4265" />
  <defs
     id="defs4">
    <linearGradient
       id="linearGradient6400"
       y2="2.9934"
       gradientUnits="userSpaceOnUse"
       x2="47.995"
       y1="84.031"
       x1="47.995">
      <stop
         id="stop6396"
         stop-color="#ccc"
         offset="0" />
      <stop
         id="stop6398"
         stop-color="#dae0de"
         offset="1" />
    </linearGradient>
    <linearGradient
       id="linearGradient3733"
       y2="52.101"
       xlink:href="#linearGradient3715-05"
       gradientUnits="userSpaceOnUse"
       x2="19.942"
       y1="52.101"
       x1="80.711" />
    <linearGradient
       id="linearGradient3715-05">
      <stop
         id="stop3717"
         stop-color="#fff"
         offset="0" />
      <stop
         id="stop3719-3"
         stop-color="#fff"
         stop-opacity="0"
         offset="1" />
    </linearGradient>
    <filter
       id="filter3780"
       height="1.3025"
       width="1.0888"
       color-interpolation-filters="sRGB"
       y="-.15126"
       x="-.044412">
      <feGaussianBlur
         id="feGaussianBlur3782"
         stdDeviation="1.1526305" />
    </filter>
    <filter
       id="filter3776"
       height="1.0908"
       width="1.3035"
       color-interpolation-filters="sRGB"
       y="-.045378"
       x="-.15174">
      <feGaussianBlur
         id="feGaussianBlur3778"
         stdDeviation="1.1526305" />
    </filter>
    <radialGradient
       id="radialGradient4635"
       gradientUnits="userSpaceOnUse"
       cy="-15.871"
       cx="56.066"
       gradientTransform="matrix(-0.0022616,-1.0568,1.3856,0,10.224,1077.8)"
       r="35.938">
      <stop
         id="stop3177-6"
         stop-color="#4490e6"
         offset="0" />
      <stop
         id="stop3179-3"
         stop-color="#103d8f"
         offset="1" />
    </radialGradient>
    <clipPath
       id="clipPath4637"
       clipPathUnits="userSpaceOnUse">
      <rect
         id="rect4639"
         opacity=".75104"
         ry="7.1631"
         height="56"
         width="69.679"
         y="971.67"
         x="-46.872"
         fill="url(#linearGradient4641)" />
    </clipPath>
    <linearGradient
       id="linearGradient4641"
       y2="975.65"
       gradientUnits="userSpaceOnUse"
       x2="3468.4"
       gradientTransform="matrix(.31367 0 0 .31367 -1073 514.25)"
       y1="1636.7"
       x1="3382.6">
      <stop
         id="stop4911"
         stop-color="#1a1a1a"
         offset="0" />
      <stop
         id="stop4913"
         stop-color="#7a7a7a"
         offset="1" />
    </linearGradient>
    <linearGradient
       x1="48"
       y1="88"
       x2="48"
       y2="-96"
       id="linearGradient3945"
       xlink:href="#linearGradient3939"
       gradientUnits="userSpaceOnUse"
       gradientTransform="matrix(1,0,0,1.2020305,0.45107715,-14.382284)" />
    <linearGradient
       id="linearGradient3939">
      <stop
         id="stop3941"
         style="stop-color:#6f6f91;stop-opacity:1"
         offset="0" />
      <stop
         id="stop3943"
         style="stop-color:#6f6f91;stop-opacity:0"
         offset="1" />
    </linearGradient>
    <linearGradient
       x1="48"
       y1="89"
       x2="96"
       y2="89"
       id="linearGradient3964"
       xlink:href="#linearGradient3715-05"
       gradientUnits="userSpaceOnUse"
       spreadMethod="reflect"
       gradientTransform="translate(0.45107715,3.800459)" />
    <linearGradient
       x1="12"
       y1="48"
       x2="12"
       y2="90"
       id="linearGradient3993"
       xlink:href="#linearGradient4101"
       gradientUnits="userSpaceOnUse"
       spreadMethod="reflect"
       gradientTransform="translate(0.45107715,3.800459)" />
    <linearGradient
       id="linearGradient4101">
      <stop
         id="stop4103"
         style="stop-color:#000000;stop-opacity:1"
         offset="0" />
      <stop
         id="stop4105"
         style="stop-color:#000000;stop-opacity:0"
         offset="1" />
    </linearGradient>
    <linearGradient
       x1="12"
       y1="48"
       x2="12"
       y2="90"
       id="linearGradient3997"
       xlink:href="#linearGradient4101"
       gradientUnits="userSpaceOnUse"
       gradientTransform="translate(71.451077,3.800459)"
       spreadMethod="reflect" />
    <linearGradient
       x1="40"
       y1="64"
       x2="72.331612"
       y2="8"
       id="linearGradient4107"
       xlink:href="#linearGradient4101"
       gradientUnits="userSpaceOnUse"
       gradientTransform="matrix(0.99144486,0.13052619,-0.13052619,0.99144486,9.1292071,-0.89319097)" />
    <filter
       style="color-interpolation-filters:sRGB"
       id="filter4117">
      <feGaussianBlur
         id="feGaussianBlur4119"
         stdDeviation="0.24925597" />
    </filter>
    <linearGradient
       x1="33"
       y1="15.5"
       x2="35"
       y2="15.5"
       id="linearGradient4063"
       xlink:href="#linearGradient4038"
       gradientUnits="userSpaceOnUse" />
    <linearGradient
       id="linearGradient4038">
      <stop
         id="stop4040"
         style="stop-color:#60607c;stop-opacity:1"
         offset="0" />
      <stop
         id="stop4048"
         style="stop-color:#9d9db2;stop-opacity:1"
         offset="0.40000001" />
      <stop
         id="stop4046"
         style="stop-color:#60607c;stop-opacity:1"
         offset="0.60000002" />
      <stop
         id="stop4042"
         style="stop-color:#3d3d4f;stop-opacity:1"
         offset="1" />
    </linearGradient>
    <linearGradient
       x1="31.999853"
       y1="41.5"
       x2="36.000145"
       y2="41.5"
       id="linearGradient4065"
       xlink:href="#linearGradient4025"
       gradientUnits="userSpaceOnUse" />
    <linearGradient
       id="linearGradient4025">
      <stop
         id="stop4027"
         style="stop-color:#d4d4d4;stop-opacity:1"
         offset="0" />
      <stop
         id="stop4035"
         style="stop-color:#ffffff;stop-opacity:1"
         offset="0.40000001" />
      <stop
         id="stop4033"
         style="stop-color:#e0e0e0;stop-opacity:1"
         offset="0.60000002" />
      <stop
         id="stop4029"
         style="stop-color:#868686;stop-opacity:1"
         offset="1" />
    </linearGradient>
    <linearGradient
       x1="31.5"
       y1="52.5"
       x2="36.5"
       y2="52.5"
       id="linearGradient4067"
       xlink:href="#linearGradient4038"
       gradientUnits="userSpaceOnUse" />
    <clipPath
       clipPathUnits="userSpaceOnUse"
       id="clipPath4283">
      <path
         id="path4285"
         d="m 17.75,5.4062 c -6.642,0 -11.969,5.3948 -11.969,12.063 l 2e-4,61.031 c 0,6.668 5.3268,12.031 11.969,12.031 l 60.812,0 c 6.642,0 11.969,-5.363 11.969,-12.031 l 0,-61.031 c 0,-6.668 -5.327,-12.063 -11.969,-12.063 l -60.812,2e-4 z"
         style="fill:url(#linearGradient4287)"
         inkscape:connector-curvature="0" />
    </clipPath>
    <linearGradient
       inkscape:collect="always"
       xlink:href="#linearGradient6400"
       id="linearGradient4287"
       gradientUnits="userSpaceOnUse"
       x1="47.995"
       y1="84.031"
       x2="47.995"
       y2="2.9934" />
  </defs>
  <metadata
     id="metadata7">
    <rdf:RDF>
      <cc:Work
         rdf:about="">
        <dc:format>image/svg+xml</dc:format>
        <dc:type
           rdf:resource="http://purl.org/dc/dcmitype/StillImage" />
        <dc:title></dc:title>
      </cc:Work>
    </rdf:RDF>
  </metadata>
  <rect
     style="fill-opacity:0.01960802"
     x="3.3534"
     y="2.9899757"
     width="89.624001"
     height="89.977997"
     ry="12.724"
     id="rect5263-0" />
  <rect
     style="fill-opacity:0.03921599"
     x="3.9589"
     y="3.6000221"
     width="88.413002"
     height="88.762001"
     ry="12.552"
     id="rect5261-6" />
  <rect
     style="fill-opacity:0.07843101"
     x="4.5644999"
     y="4.2100072"
     width="87.202003"
     height="87.545998"
     ry="12.38"
     id="rect5259-9" />
  <rect
     style="fill-opacity:0.15685999"
     x="5.1701002"
     y="4.8199925"
     width="85.990997"
     height="86.330002"
     ry="12.208"
     id="rect5257-5" />
  <path
     inkscape:connector-curvature="0"
     style="fill:url(#linearGradient6400)"
     d="m 17.75,5.4062 c -6.642,0 -11.969,5.3948 -11.969,12.063 l 2e-4,61.031 c 0,6.668 5.3268,12.031 11.969,12.031 l 60.812,0 c 6.642,0 11.969,-5.363 11.969,-12.031 l 0,-61.031 c 0,-6.668 -5.327,-12.063 -11.969,-12.063 l -60.812,2e-4 z"
     id="rect2419" />
  <g
     id="g4265"
     clip-path="url(#clipPath4283)">
    <rect
       width="72"
       height="100.97057"
       x="12.451084"
       y="-7.1701183"
       id="rect3937"
       style="color:#000000;display:inline;overflow:visible;visibility:visible;fill:url(#linearGradient3945);fill-opacity:1;fill-rule:nonzero;stroke:none;stroke-width:1.5;marker:none;enable-background:accumulate" />
    <path
       d="m 12.451077,9.800459 0,2 72,0 0,-2 z"
       inkscape:connector-curvature="0"
       id="rect3947"
       style="color:#000000;display:inline;overflow:visible;visibility:visible;opacity:0.2;fill:#ffffff;fill-opacity:1;fill-rule:nonzero;stroke:none;stroke-width:1.5;marker:none;enable-background:accumulate" />
    <path
       d="m 12.451077,91.800459 0,2 72,0 0,-2 z"
       inkscape:connector-curvature="0"
       id="path3956"
       style="color:#000000;display:inline;overflow:visible;visibility:visible;opacity:0.1;fill:url(#linearGradient3964);fill-opacity:1;fill-rule:nonzero;stroke:none;stroke-width:1.5;marker:none;enable-background:accumulate" />
    <rect
       width="1"
       height="84"
       x="12.451084"
       y="9.8004475"
       id="rect3983"
       style="color:#000000;display:inline;overflow:visible;visibility:visible;opacity:0.2;fill:url(#linearGradient3993);fill-opacity:1;fill-rule:nonzero;stroke:none;stroke-width:1.5;marker:none;enable-background:accumulate" />
    <rect
       width="1"
       height="84"
       x="83.451096"
       y="9.8004475"
       id="rect3995"
       style="color:#000000;display:inline;overflow:visible;visibility:visible;opacity:0.2;fill:url(#linearGradient3997);fill-opacity:1;fill-rule:nonzero;stroke:none;stroke-width:1.5;marker:none;enable-background:accumulate" />
    <path
       d="m 20.451077,27.800449 0,48.00001 56,0 0,-48.00001 -56,0 z m 1,1 54,0 0,46.00001 -54,0 0,-46.00001 z"
       inkscape:connector-curvature="0"
       id="rect3999"
       style="color:#000000;display:inline;overflow:visible;visibility:visible;opacity:0.3;fill:#ffffff;fill-opacity:1;fill-rule:nonzero;stroke:none;stroke-width:1.5;marker:none;enable-background:accumulate" />
    <rect
       width="54"
       height="46"
       x="21.451084"
       y="28.800467"
       id="rect4004"
       style="color:#000000;display:inline;overflow:visible;visibility:visible;opacity:0.1;fill:#54547e;fill-opacity:1;fill-rule:nonzero;stroke:none;stroke-width:1.5;marker:none;enable-background:accumulate" />
    <path
       d="m 40.451077,78.506094 0,4 16,0 0,-4 -16,0 z m 5.40625,0.90625 0.21875,0 1.15625,2.09375 -0.5625,0 -0.21875,-0.40625 -0.96875,0 -0.1875,0.40625 -0.5625,0 1.125,-2.09375 z m 2.84375,0 c 0.32664,0 0.58552,0.0276 0.78125,0.125 l -0.21875,0.3125 c -0.11277,-0.0823 -0.28108,-0.125 -0.53125,-0.125 -0.2372,0 -0.44209,0.0731 -0.59375,0.21875 -0.15165,0.14475 -0.21875,0.34017 -0.21875,0.5625 0,0.22233 0.0788,0.40069 0.21875,0.53125 0.14129,0.13056 0.32789,0.1875 0.5625,0.1875 0.26831,0 0.47334,-0.0787 0.625,-0.21875 l 0.21875,0.3125 c -0.2061,0.15989 -0.50832,0.21875 -0.90625,0.21875 -0.39793,0 -0.6859,-0.0901 -0.90625,-0.28125 -0.22035,-0.19111 -0.34375,-0.45106 -0.34375,-0.78125 0,-0.30748 0.13132,-0.54375 0.375,-0.75 0.24498,-0.20719 0.55642,-0.3125 0.9375,-0.3125 z m 2.34375,0 c 0.4096,0 0.72103,0.0958 0.9375,0.28125 0.21646,0.18543 0.34375,0.44633 0.34375,0.78125 0,0.33492 -0.11692,0.58446 -0.34375,0.78125 -0.22554,0.19679 -0.55267,0.28125 -0.96875,0.28125 -0.38238,0 -0.6702,-0.0863 -0.875,-0.28125 -0.2035,-0.1949 -0.3125,-0.44255 -0.3125,-0.78125 0,-0.29613 0.1221,-0.54564 0.34375,-0.75 0.22295,-0.2053 0.50299,-0.3125 0.875,-0.3125 z m -9.625,0.0312 0.53125,0 0.53125,1.25 0.5625,-1.25 0.21875,0 0.59375,1.25 0.53125,-1.25 0.53125,0 -0.9375,2.09375 -0.1875,0 -0.625,-1.3125 -0.59375,1.3125 -0.21875,0 -0.9375,-2.09375 z m 11.65625,0 0.28125,0 0.59375,1.40625 0.625,-1.40625 0.25,0 0.59375,2.0625 -0.5,0 -0.28125,-1.09375 -0.59375,1.125 -0.15625,0 -0.59375,-1.125 -0.3125,1.09375 -0.46875,0 0.5625,-2.0625 z m -2.03125,0.28125 c -0.22554,0 -0.37945,0.0551 -0.5,0.1875 -0.12055,0.13151 -0.1875,0.33922 -0.1875,0.5625 0,0.24315 0.0435,0.4291 0.15625,0.5625 0.11277,0.1334 0.28483,0.1875 0.5,0.1875 0.25276,0 0.43029,-0.0569 0.5625,-0.1875 0.13351,-0.13056 0.21875,-0.31368 0.21875,-0.5625 0,-0.48724 -0.25744,-0.75 -0.75,-0.75 z m -5.0625,0.3125 -0.34375,0.78125 0.6875,0 -0.34375,-0.78125 z"
       inkscape:connector-curvature="0"
       id="rect4006"
       style="color:#000000;display:inline;overflow:visible;visibility:visible;opacity:0.4;fill:#ffffff;fill-opacity:1;fill-rule:nonzero;stroke:none;stroke-width:1.5;marker:none;enable-background:accumulate" />
    <path
       d="m 82.442927,11.563999 c -0.16736,0.022 -0.33221,0.11167 -0.44357,0.2568 l -1.32913,1.71619 c -0.44121,-0.0473 -0.90206,0.12771 -1.20103,0.5038 l -23.00856,28.96331 -0.0269,-0.0351 c -0.29025,-0.22272 -0.70841,-0.16067 -0.93113,0.12957 0,0 -4.68703,7.20595 -7.0991,10.34942 -1.34004,1.74638 -4.16426,4.33732 -4.16426,4.33732 -0.22272,0.29025 -0.15659,0.67743 0.13365,0.90014 0,0 -4.59113,8.15387 -3.5433,8.9579 1.04782,0.80402 7.72006,-5.72884 7.72006,-5.72884 0.29024,0.22271 0.70841,0.16067 0.93112,-0.12958 0,0 1.75944,-3.36151 3.09948,-5.10788 2.41208,-3.14348 8.15981,-9.54787 8.15981,-9.54787 0.22271,-0.29025 0.16067,-0.70841 -0.12957,-0.93113 l -0.031,-0.004 22.04081,-29.75263 c 0.28923,-0.39063 0.30306,-0.8573 0.13625,-1.27437 l 1.3332,-1.74716 c 0.22272,-0.29025 0.15659,-0.67743 -0.13365,-0.90014 l -1.02564,-0.82846 c -0.14512,-0.11136 -0.3202,-0.14927 -0.48756,-0.12723 z"
       inkscape:connector-curvature="0"
       id="rect4071"
       style="color:#000000;display:inline;overflow:visible;visibility:visible;opacity:0.15;fill:url(#linearGradient4107);fill-opacity:1;fill-rule:nonzero;stroke:none;stroke-width:1.5;marker:none;filter:url(#filter4117);enable-background:accumulate" />
    <g
       transform="translate(-102.50847,75.254236)"
       id="g4259">
      <g
         id="g4058"
         transform="matrix(1.1438071,0.66037735,-0.66037735,1.1438071,148.69623,-106.73369)">
        <rect
           style="color:#000000;display:inline;overflow:visible;visibility:visible;fill:url(#linearGradient4063);fill-opacity:1;fill-rule:nonzero;stroke:none;stroke-width:1.5;marker:none;enable-background:accumulate"
           id="rect4016"
           y="14"
           x="33"
           ry="0.5"
           height="3"
           width="2" />
        <path
           style="color:#000000;display:inline;overflow:visible;visibility:visible;fill:url(#linearGradient4065);fill-opacity:1;fill-rule:nonzero;stroke:#8f8f8f;stroke-width:0.22714287;stroke-miterlimit:4;stroke-dasharray:none;stroke-opacity:1;marker:none;enable-background:accumulate"
           id="rect4014"
           inkscape:connector-curvature="0"
           d="m 33.5,16 c -0.554,0 -0.9905,0.446082 -1,1 L 32,46 c -0.0096,0.553918 0.446,1 1,1 l 2,0 c 0.554,0 1.0095,-0.446082 1,-1 L 35.5,17 c -0.0095,-0.553918 -0.446,-1 -1,-1 l -1,0 z M 32,60 c 0,0 1,7 2,7 1,0 2,-7 2,-7 l -4,0 z" />
        <path
           style="color:#000000;display:inline;overflow:visible;visibility:visible;fill:url(#linearGradient4067);fill-opacity:1;fill-rule:nonzero;stroke:#424255;stroke-width:0.22714287;stroke-miterlimit:4;stroke-dasharray:none;stroke-opacity:1;marker:none;enable-background:accumulate"
           id="rect4018"
           inkscape:connector-curvature="0"
           d="m 32,45 4,0 c 0.277,0 0.5,0.223 0.5,0.5 0,0 -0.5,6.5 -0.5,9.5 0,1.666667 0.5,4.5 0.5,4.5 0,0.277 -0.223,0.5 -0.5,0.5 l -4,0 c -0.277,0 -0.5,-0.223 -0.5,-0.5 0,0 0.5,-2.833333 0.5,-4.5 0,-3 -0.5,-9.5 -0.5,-9.5 0,-0.277 0.223,-0.5 0.5,-0.5 z" />
      </g>
    </g>
  </g>
  <path
     style="fill-opacity:0.11764999"
     inkscape:connector-curvature="0"
     d="m 5.7756,73.44 0,5.0663 c 0,6.668 5.3434,12.032 11.985,12.032 l 60.809,0 c 6.6418,0 11.985,-5.3645 11.985,-12.032 l 0,-5.0663 c 0,6.6681 -5.3434,12.032 -11.985,12.032 l -60.809,0 c -6.6418,0 -11.985,-5.3643 -11.985,-12.032 z"
     id="rect5265-0" />
  <path
     style="fill-opacity:0.09803898"
     inkscape:connector-curvature="0"
     d="m 5.7756,77.54 0,1.0133 c 0,6.668 5.3434,12.032 11.985,12.032 l 60.809,0 c 6.6418,0 11.985,-5.3645 11.985,-12.032 l 0,-1.0133 c 0,6.6681 -5.3434,12.032 -11.985,12.032 l -60.809,0 c -6.6418,0 -11.985,-5.3644 -11.985,-12.032 z"
     id="path5252-0" />
</svg>
