<?xml version="1.0" encoding="UTF-8" standalone="no"?>
<!-- Created with Inkscape (http://www.inkscape.org/) -->

<svg
   xmlns:dc="http://purl.org/dc/elements/1.1/"
   xmlns:cc="http://creativecommons.org/ns#"
   xmlns:rdf="http://www.w3.org/1999/02/22-rdf-syntax-ns#"
   xmlns:svg="http://www.w3.org/2000/svg"
   xmlns="http://www.w3.org/2000/svg"
   xmlns:xlink="http://www.w3.org/1999/xlink"
   xmlns:sodipodi="http://sodipodi.sourceforge.net/DTD/sodipodi-0.dtd"
   xmlns:inkscape="http://www.inkscape.org/namespaces/inkscape"
   id="svg2"
   height="96"
   width="96"
   version="1.1"
   inkscape:version="0.91 r"
   sodipodi:docname="input-keyboard.svg">
  <sodipodi:namedview
     pagecolor="#ffffff"
     bordercolor="#666666"
     borderopacity="1"
     objecttolerance="10"
     gridtolerance="10"
     guidetolerance="10"
     inkscape:pageopacity="0"
     inkscape:pageshadow="2"
     inkscape:window-width="1366"
     inkscape:window-height="717"
     id="namedview171"
     showgrid="false"
     inkscape:zoom="2.4583333"
     inkscape:cx="107.43627"
     inkscape:cy="81.751364"
     inkscape:window-x="0"
     inkscape:window-y="0"
     inkscape:window-maximized="1"
     inkscape:current-layer="svg2" />
  <defs
     id="defs4">
    <linearGradient
       id="linearGradient3700-09">
      <stop
         id="stop3702-67"
         stop-color="#70a83e"
         offset="0" />
      <stop
         id="stop3704-18"
         stop-color="#9fd058"
         offset="1" />
    </linearGradient>
    <linearGradient
       id="linearGradient9745"
       y2="5.9877"
       xlink:href="#linearGradient3700-09"
       gradientUnits="userSpaceOnUse"
       x2="48"
       gradientTransform="translate(-169.06,11.84)"
       y1="90"
       x1="48" />
    <linearGradient
       id="linearGradient3825-1">
      <stop
         id="stop3827"
         stop-color="#b3b3b3"
         offset="0" />
      <stop
         id="stop3829"
         stop-color="#d2d2d2"
         offset="1" />
    </linearGradient>
    <linearGradient
       id="linearGradient3672-0">
      <stop
         id="stop3674-7"
         stop-color="#fff"
         stop-opacity="0"
         offset="0" />
      <stop
         id="stop3676-88"
         stop-color="#fff"
         stop-opacity="0"
         offset="0.3" />
      <stop
         id="stop3678-6"
         stop-color="#fff"
         stop-opacity=".61240"
         offset=".5" />
      <stop
         id="stop3680-9"
         stop-color="#fff"
         stop-opacity="0"
         offset=".75265" />
      <stop
         id="stop3682-0"
         stop-color="#fff"
         stop-opacity="0"
         offset="1" />
    </linearGradient>
    <linearGradient
       id="linearGradient3650-2">
      <stop
         id="stop3652-7"
         stop-opacity="0"
         offset="0" />
      <stop
         id="stop3660-8"
         stop-opacity="0"
         offset="0.3" />
      <stop
         id="stop3658-4"
         stop-opacity=".11765"
         offset=".5" />
      <stop
         id="stop3662-1"
         stop-opacity="0"
         offset="0.7" />
      <stop
         id="stop3654-5"
         stop-opacity="0"
         offset="1" />
    </linearGradient>
    <linearGradient
       id="linearGradient3622-4">
      <stop
         id="stop3624-7"
         stop-color="#d6d6d6"
         offset="0" />
      <stop
         id="stop3626-1"
         stop-color="#eaeaea"
         offset="1" />
    </linearGradient>
    <linearGradient
       id="linearGradient3737-4-5">
      <stop
         id="stop3739-4-5"
         stop-color="#ececea"
         offset="0" />
      <stop
         id="stop3741-9-7"
         stop-color="#fff"
         stop-opacity="0"
         offset="1" />
    </linearGradient>
    <linearGradient
       id="linearGradient3947-55"
       y2="14"
       gradientUnits="userSpaceOnUse"
       x2="72"
       gradientTransform="translate(-20,-4)"
       y1="50"
       x1="72">
      <stop
         id="stop3943"
         stop-color="#51c200"
         offset="0" />
      <stop
         id="stop3945"
         stop-color="#94df22"
         offset="1" />
    </linearGradient>
    <linearGradient
       id="linearGradient35455"
       y2="5.9877"
       gradientUnits="userSpaceOnUse"
       x2="48"
       gradientTransform="matrix(1.0658,0,0,1.1052,-3.3694,-6.6119)"
       y1="90"
       x1="48">
      <stop
         id="stop3643-6"
         stop-color="#b4b4b4"
         offset="0" />
      <stop
         id="stop3645-0"
         stop-color="#dcdcdc"
         offset="1" />
    </linearGradient>
    <linearGradient
       id="linearGradient35479"
       y2="21.964"
       xlink:href="#linearGradient3737-4-5"
       gradientUnits="userSpaceOnUse"
       x2="25"
       gradientTransform="translate(2.8921,37.89)"
       y1="36"
       x1="25" />
    <linearGradient
       id="linearGradient35482"
       y2="46"
       xlink:href="#linearGradient3622-4"
       gradientUnits="userSpaceOnUse"
       x2="80"
       gradientTransform="matrix(0,0.21875,-0.21875,0,37.955,56.34)"
       y1="46"
       x1="16" />
    <linearGradient
       id="linearGradient35485"
       y2="81.071"
       xlink:href="#linearGradient3650-2"
       gradientUnits="userSpaceOnUse"
       x2="48"
       gradientTransform="matrix(-0.21429,0,0,0.21429,58.178,56.64)"
       y1="48"
       x1="6" />
    <linearGradient
       id="linearGradient35488"
       y2="81.071"
       xlink:href="#linearGradient3650-2"
       gradientUnits="userSpaceOnUse"
       x2="48"
       gradientTransform="matrix(0.21429,0,0,0.21429,17.606,56.64)"
       y1="48"
       x1="6" />
    <linearGradient
       id="linearGradient35491"
       y2="84.286"
       xlink:href="#linearGradient3672-0"
       gradientUnits="userSpaceOnUse"
       x2="48"
       gradientTransform="matrix(0.21429,0,0,-0.21429,17.606,77.14)"
       y1="48"
       x1="13.321" />
    <linearGradient
       id="linearGradient35494"
       y2="84.286"
       xlink:href="#linearGradient3672-0"
       gradientUnits="userSpaceOnUse"
       x2="48"
       gradientTransform="matrix(-0.21429,0,0,-0.21429,58.178,77.14)"
       y1="48"
       x1="13.321" />
    <linearGradient
       id="linearGradient35497"
       y2="6"
       xlink:href="#linearGradient3825-1"
       gradientUnits="userSpaceOnUse"
       x2="32.071"
       gradientTransform="matrix(0.21429,0,0,0.21429,17.606,56.64)"
       y1="90"
       x1="63.536" />
    <linearGradient
       id="linearGradient35564"
       y2="6"
       xlink:href="#linearGradient3825-1"
       gradientUnits="userSpaceOnUse"
       x2="32.071"
       gradientTransform="matrix(0.21429,0,0,0.21429,14.714,18.714)"
       y1="90"
       x1="63.536" />
    <linearGradient
       id="linearGradient35566"
       y2="84.286"
       xlink:href="#linearGradient3672-0"
       gradientUnits="userSpaceOnUse"
       x2="48"
       gradientTransform="matrix(-0.21429,0,0,-0.21429,35.286,39.286)"
       y1="48"
       x1="13.321" />
    <linearGradient
       id="linearGradient35568"
       y2="84.286"
       xlink:href="#linearGradient3672-0"
       gradientUnits="userSpaceOnUse"
       x2="48"
       gradientTransform="matrix(0.21429,0,0,-0.21429,14.714,39.286)"
       y1="48"
       x1="13.321" />
    <linearGradient
       id="linearGradient35570"
       y2="81.071"
       xlink:href="#linearGradient3650-2"
       gradientUnits="userSpaceOnUse"
       x2="48"
       gradientTransform="matrix(0.21429,0,0,0.21429,14.714,18.714)"
       y1="48"
       x1="6" />
    <linearGradient
       id="linearGradient35572"
       y2="81.071"
       xlink:href="#linearGradient3650-2"
       gradientUnits="userSpaceOnUse"
       x2="48"
       gradientTransform="matrix(-0.21429,0,0,0.21429,35.286,18.714)"
       y1="48"
       x1="6" />
    <linearGradient
       id="linearGradient35574"
       y2="46"
       xlink:href="#linearGradient3622-4"
       gradientUnits="userSpaceOnUse"
       x2="80"
       gradientTransform="matrix(0.21875,0,0,0.21875,18.5,-35.062)"
       y1="46"
       x1="16" />
    <linearGradient
       id="linearGradient35576"
       y2="21.964"
       xlink:href="#linearGradient3737-4-5"
       gradientUnits="userSpaceOnUse"
       x2="25"
       y1="36"
       x1="25" />
    <linearGradient
       id="linearGradient35664"
       y2="21.964"
       xlink:href="#linearGradient3737-4-5"
       gradientUnits="userSpaceOnUse"
       x2="25"
       gradientTransform="translate(26.892,17.89)"
       y1="36"
       x1="25" />
    <linearGradient
       id="linearGradient35667"
       y2="46"
       xlink:href="#linearGradient3622-4"
       gradientUnits="userSpaceOnUse"
       x2="80"
       gradientTransform="matrix(0.21875,0,0,0.21875,36.39,-61.955)"
       y1="46"
       x1="16" />
    <linearGradient
       id="linearGradient35670"
       y2="81.071"
       xlink:href="#linearGradient3650-2"
       gradientUnits="userSpaceOnUse"
       x2="48"
       gradientTransform="matrix(-0.21429,0,0,0.21429,62.178,36.6)"
       y1="48"
       x1="6" />
    <linearGradient
       id="linearGradient35673"
       y2="81.071"
       xlink:href="#linearGradient3650-2"
       gradientUnits="userSpaceOnUse"
       x2="48"
       gradientTransform="matrix(0.21429,0,0,0.21429,41.606,36.6)"
       y1="48"
       x1="6" />
    <linearGradient
       id="linearGradient35676"
       y2="84.286"
       xlink:href="#linearGradient3672-0"
       gradientUnits="userSpaceOnUse"
       x2="48"
       gradientTransform="matrix(0.21429,0,0,-0.21429,41.606,57.14)"
       y1="48"
       x1="13.321" />
    <linearGradient
       id="linearGradient35679"
       y2="84.286"
       xlink:href="#linearGradient3672-0"
       gradientUnits="userSpaceOnUse"
       x2="48"
       gradientTransform="matrix(-0.21429,0,0,-0.21429,62.178,57.14)"
       y1="48"
       x1="13.321" />
    <linearGradient
       id="linearGradient35682"
       y2="6"
       xlink:href="#linearGradient3825-1"
       gradientUnits="userSpaceOnUse"
       x2="32.071"
       gradientTransform="matrix(0.21429,0,0,0.21429,41.606,36.6)"
       y1="90"
       x1="63.536" />
    <linearGradient
       inkscape:collect="always"
       xlink:href="#linearGradient3700-09"
       id="linearGradient4299"
       gradientUnits="userSpaceOnUse"
       gradientTransform="translate(-169.06,11.84)"
       x1="48"
       y1="90"
       x2="48"
       y2="5.9877" />
    <linearGradient
       inkscape:collect="always"
       xlink:href="#linearGradient3825-1"
       id="linearGradient4301"
       gradientUnits="userSpaceOnUse"
       gradientTransform="matrix(0.21429,0,0,0.21429,14.714,18.714)"
       x1="63.536"
       y1="90"
       x2="32.071"
       y2="6" />
    <linearGradient
       inkscape:collect="always"
       xlink:href="#linearGradient3672-0"
       id="linearGradient4303"
       gradientUnits="userSpaceOnUse"
       gradientTransform="matrix(-0.21429,0,0,-0.21429,35.286,39.286)"
       x1="13.321"
       y1="48"
       x2="48"
       y2="84.286" />
    <linearGradient
       inkscape:collect="always"
       xlink:href="#linearGradient3672-0"
       id="linearGradient4305"
       gradientUnits="userSpaceOnUse"
       gradientTransform="matrix(0.21429,0,0,-0.21429,14.714,39.286)"
       x1="13.321"
       y1="48"
       x2="48"
       y2="84.286" />
    <linearGradient
       inkscape:collect="always"
       xlink:href="#linearGradient3650-2"
       id="linearGradient4307"
       gradientUnits="userSpaceOnUse"
       gradientTransform="matrix(0.21429,0,0,0.21429,14.714,18.714)"
       x1="6"
       y1="48"
       x2="48"
       y2="81.071" />
    <linearGradient
       inkscape:collect="always"
       xlink:href="#linearGradient3650-2"
       id="linearGradient4309"
       gradientUnits="userSpaceOnUse"
       gradientTransform="matrix(-0.21429,0,0,0.21429,35.286,18.714)"
       x1="6"
       y1="48"
       x2="48"
       y2="81.071" />
    <linearGradient
       inkscape:collect="always"
       xlink:href="#linearGradient3622-4"
       id="linearGradient4311"
       gradientUnits="userSpaceOnUse"
       gradientTransform="matrix(0.21875,0,0,0.21875,18.5,-35.062)"
       x1="16"
       y1="46"
       x2="80"
       y2="46" />
    <linearGradient
       inkscape:collect="always"
       xlink:href="#linearGradient3737-4-5"
       id="linearGradient4313"
       gradientUnits="userSpaceOnUse"
       x1="25"
       y1="36"
       x2="25"
       y2="21.964" />
    <linearGradient
       inkscape:collect="always"
       xlink:href="#linearGradient3825-1"
       id="linearGradient4315"
       gradientUnits="userSpaceOnUse"
       gradientTransform="matrix(0.21429,0,0,0.21429,14.714,18.714)"
       x1="63.536"
       y1="90"
       x2="32.071"
       y2="6" />
    <linearGradient
       inkscape:collect="always"
       xlink:href="#linearGradient3672-0"
       id="linearGradient4317"
       gradientUnits="userSpaceOnUse"
       gradientTransform="matrix(-0.21429,0,0,-0.21429,35.286,39.286)"
       x1="13.321"
       y1="48"
       x2="48"
       y2="84.286" />
    <linearGradient
       inkscape:collect="always"
       xlink:href="#linearGradient3672-0"
       id="linearGradient4319"
       gradientUnits="userSpaceOnUse"
       gradientTransform="matrix(0.21429,0,0,-0.21429,14.714,39.286)"
       x1="13.321"
       y1="48"
       x2="48"
       y2="84.286" />
    <linearGradient
       inkscape:collect="always"
       xlink:href="#linearGradient3650-2"
       id="linearGradient4321"
       gradientUnits="userSpaceOnUse"
       gradientTransform="matrix(0.21429,0,0,0.21429,14.714,18.714)"
       x1="6"
       y1="48"
       x2="48"
       y2="81.071" />
    <linearGradient
       inkscape:collect="always"
       xlink:href="#linearGradient3650-2"
       id="linearGradient4323"
       gradientUnits="userSpaceOnUse"
       gradientTransform="matrix(-0.21429,0,0,0.21429,35.286,18.714)"
       x1="6"
       y1="48"
       x2="48"
       y2="81.071" />
    <linearGradient
       inkscape:collect="always"
       xlink:href="#linearGradient3622-4"
       id="linearGradient4325"
       gradientUnits="userSpaceOnUse"
       gradientTransform="matrix(0.21875,0,0,0.21875,18.5,-35.062)"
       x1="16"
       y1="46"
       x2="80"
       y2="46" />
    <linearGradient
       inkscape:collect="always"
       xlink:href="#linearGradient3737-4-5"
       id="linearGradient4327"
       gradientUnits="userSpaceOnUse"
       x1="25"
       y1="36"
       x2="25"
       y2="21.964" />
    <linearGradient
       inkscape:collect="always"
       xlink:href="#linearGradient3825-1"
       id="linearGradient4329"
       gradientUnits="userSpaceOnUse"
       gradientTransform="matrix(0.21429,0,0,0.21429,14.714,18.714)"
       x1="63.536"
       y1="90"
       x2="32.071"
       y2="6" />
    <linearGradient
       inkscape:collect="always"
       xlink:href="#linearGradient3672-0"
       id="linearGradient4331"
       gradientUnits="userSpaceOnUse"
       gradientTransform="matrix(-0.21429,0,0,-0.21429,35.286,39.286)"
       x1="13.321"
       y1="48"
       x2="48"
       y2="84.286" />
    <linearGradient
       inkscape:collect="always"
       xlink:href="#linearGradient3672-0"
       id="linearGradient4333"
       gradientUnits="userSpaceOnUse"
       gradientTransform="matrix(0.21429,0,0,-0.21429,14.714,39.286)"
       x1="13.321"
       y1="48"
       x2="48"
       y2="84.286" />
    <linearGradient
       inkscape:collect="always"
       xlink:href="#linearGradient3650-2"
       id="linearGradient4335"
       gradientUnits="userSpaceOnUse"
       gradientTransform="matrix(0.21429,0,0,0.21429,14.714,18.714)"
       x1="6"
       y1="48"
       x2="48"
       y2="81.071" />
    <linearGradient
       inkscape:collect="always"
       xlink:href="#linearGradient3650-2"
       id="linearGradient4337"
       gradientUnits="userSpaceOnUse"
       gradientTransform="matrix(-0.21429,0,0,0.21429,35.286,18.714)"
       x1="6"
       y1="48"
       x2="48"
       y2="81.071" />
    <linearGradient
       inkscape:collect="always"
       xlink:href="#linearGradient3622-4"
       id="linearGradient4339"
       gradientUnits="userSpaceOnUse"
       gradientTransform="matrix(0.21875,0,0,0.21875,18.5,-35.062)"
       x1="16"
       y1="46"
       x2="80"
       y2="46" />
    <linearGradient
       inkscape:collect="always"
       xlink:href="#linearGradient3737-4-5"
       id="linearGradient4341"
       gradientUnits="userSpaceOnUse"
       x1="25"
       y1="36"
       x2="25"
       y2="21.964" />
    <linearGradient
       inkscape:collect="always"
       xlink:href="#linearGradient3825-1"
       id="linearGradient4343"
       gradientUnits="userSpaceOnUse"
       gradientTransform="matrix(0.21429,0,0,0.21429,14.714,18.714)"
       x1="63.536"
       y1="90"
       x2="32.071"
       y2="6" />
    <linearGradient
       inkscape:collect="always"
       xlink:href="#linearGradient3672-0"
       id="linearGradient4345"
       gradientUnits="userSpaceOnUse"
       gradientTransform="matrix(-0.21429,0,0,-0.21429,35.286,39.286)"
       x1="13.321"
       y1="48"
       x2="48"
       y2="84.286" />
    <linearGradient
       inkscape:collect="always"
       xlink:href="#linearGradient3672-0"
       id="linearGradient4347"
       gradientUnits="userSpaceOnUse"
       gradientTransform="matrix(0.21429,0,0,-0.21429,14.714,39.286)"
       x1="13.321"
       y1="48"
       x2="48"
       y2="84.286" />
    <linearGradient
       inkscape:collect="always"
       xlink:href="#linearGradient3650-2"
       id="linearGradient4349"
       gradientUnits="userSpaceOnUse"
       gradientTransform="matrix(0.21429,0,0,0.21429,14.714,18.714)"
       x1="6"
       y1="48"
       x2="48"
       y2="81.071" />
    <linearGradient
       inkscape:collect="always"
       xlink:href="#linearGradient3650-2"
       id="linearGradient4351"
       gradientUnits="userSpaceOnUse"
       gradientTransform="matrix(-0.21429,0,0,0.21429,35.286,18.714)"
       x1="6"
       y1="48"
       x2="48"
       y2="81.071" />
    <linearGradient
       inkscape:collect="always"
       xlink:href="#linearGradient3622-4"
       id="linearGradient4353"
       gradientUnits="userSpaceOnUse"
       gradientTransform="matrix(0.21875,0,0,0.21875,18.5,-35.062)"
       x1="16"
       y1="46"
       x2="80"
       y2="46" />
    <linearGradient
       inkscape:collect="always"
       xlink:href="#linearGradient3737-4-5"
       id="linearGradient4355"
       gradientUnits="userSpaceOnUse"
       x1="25"
       y1="36"
       x2="25"
       y2="21.964" />
    <linearGradient
       inkscape:collect="always"
       xlink:href="#linearGradient3825-1"
       id="linearGradient4357"
       gradientUnits="userSpaceOnUse"
       gradientTransform="matrix(0.21429,0,0,0.21429,14.714,18.714)"
       x1="63.536"
       y1="90"
       x2="32.071"
       y2="6" />
    <linearGradient
       inkscape:collect="always"
       xlink:href="#linearGradient3672-0"
       id="linearGradient4359"
       gradientUnits="userSpaceOnUse"
       gradientTransform="matrix(-0.21429,0,0,-0.21429,35.286,39.286)"
       x1="13.321"
       y1="48"
       x2="48"
       y2="84.286" />
    <linearGradient
       inkscape:collect="always"
       xlink:href="#linearGradient3672-0"
       id="linearGradient4361"
       gradientUnits="userSpaceOnUse"
       gradientTransform="matrix(0.21429,0,0,-0.21429,14.714,39.286)"
       x1="13.321"
       y1="48"
       x2="48"
       y2="84.286" />
    <linearGradient
       inkscape:collect="always"
       xlink:href="#linearGradient3650-2"
       id="linearGradient4363"
       gradientUnits="userSpaceOnUse"
       gradientTransform="matrix(0.21429,0,0,0.21429,14.714,18.714)"
       x1="6"
       y1="48"
       x2="48"
       y2="81.071" />
    <linearGradient
       inkscape:collect="always"
       xlink:href="#linearGradient3650-2"
       id="linearGradient4365"
       gradientUnits="userSpaceOnUse"
       gradientTransform="matrix(-0.21429,0,0,0.21429,35.286,18.714)"
       x1="6"
       y1="48"
       x2="48"
       y2="81.071" />
    <linearGradient
       inkscape:collect="always"
       xlink:href="#linearGradient3622-4"
       id="linearGradient4367"
       gradientUnits="userSpaceOnUse"
       gradientTransform="matrix(0.21875,0,0,0.21875,18.5,-35.062)"
       x1="16"
       y1="46"
       x2="80"
       y2="46" />
    <linearGradient
       inkscape:collect="always"
       xlink:href="#linearGradient3737-4-5"
       id="linearGradient4369"
       gradientUnits="userSpaceOnUse"
       x1="25"
       y1="36"
       x2="25"
       y2="21.964" />
  </defs>
  <metadata
     id="metadata7">
    <rdf:RDF>
      <cc:Work
         rdf:about="">
        <dc:format>image/svg+xml</dc:format>
        <dc:type
           rdf:resource="http://purl.org/dc/dcmitype/StillImage" />
        <dc:title />
      </cc:Work>
    </rdf:RDF>
  </metadata>
  <rect
     style="fill-opacity:0.01960802"
     x="3.3534"
     y="2.9899757"
     width="89.624001"
     height="89.977997"
     ry="12.724"
     id="rect5263-0" />
  <rect
     style="fill-opacity:0.03921599"
     x="3.9589"
     y="3.6000221"
     width="88.413002"
     height="88.762001"
     ry="12.552"
     id="rect5261-6" />
  <rect
     style="fill-opacity:0.07843101"
     x="4.5644999"
     y="4.2100072"
     width="87.202003"
     height="87.545998"
     ry="12.38"
     id="rect5259-9" />
  <rect
     style="fill-opacity:0.15685999"
     x="5.1701002"
     y="4.8199925"
     width="85.990997"
     height="86.330002"
     ry="12.208"
     id="rect5257-5" />
  <path
     inkscape:connector-curvature="0"
     style="fill:url(#linearGradient35455)"
     d="m 17.656,5.5938 c -6.668,0 -12.062,5.3272 -12.062,11.968 l -2e-4,60.813 c 0,6.642 5.3942,11.969 12.062,11.969 l 61.032,0 c 6.668,0 12.031,-5.327 12.031,-11.969 l 0,-60.813 c 0,-6.641 -5.363,-11.968 -12.031,-11.968 l -61.032,-2e-4 z"
     id="rect2419-1" />
  <path
     style="fill-opacity:0.17000002"
     inkscape:connector-curvature="0"
     d="m 5.7756,73.44 0,5.0663 c 0,6.668 5.3434,12.032 11.985,12.032 l 60.809,0 c 6.6418,0 11.985,-5.3645 11.985,-12.032 l 0,-5.0663 c 0,6.6681 -5.3434,12.032 -11.985,12.032 l -60.809,0 c -6.6418,0 -11.985,-5.3643 -11.985,-12.032 z"
     id="rect5265-0" />
  <path
     style="fill-opacity:0.09803898"
     inkscape:connector-curvature="0"
     d="m 5.7756,77.54 0,1.0133 c 0,6.668 5.3434,12.032 11.985,12.032 l 60.809,0 c 6.6418,0 11.985,-5.3645 11.985,-12.032 l 0,-1.0133 c 0,6.6681 -5.3434,12.032 -11.985,12.032 l -60.809,0 c -6.6418,0 -11.985,-5.3644 -11.985,-12.032 z"
     id="path5252-0" />
  <rect
     style="display:none;fill:none"
     x="-369.64001"
     y="15.319993"
     width="107.79"
     height="107.79"
     display="none"
     id="rect4772" />
  <g
     style="display:none"
     transform="matrix(0.21052,0,0,0.21052,-369.68,15.27)"
     display="none"
     id="g4788" />
  <g
     style="display:none"
     transform="matrix(0.21052,0,0,0.21052,-369.68,15.27)"
     display="none"
     id="g4806">
    <g
       style="display:inline"
       display="inline"
       id="g4808">
      <path
         style="display:none;fill:#050505"
         inkscape:connector-curvature="0"
         display="none"
         d="m 349.1,256.65 c -0.265,-0.254 37.637,27.605 39.421,25.012 6.362,-9.252 82.046,-93.137 84.784,-116.24 0.242,-2.003 -0.516,-4.096 -0.516,-4.096 0,0 -1.19,-0.144 -6.325,-4.314 -2.692,-2.192 -5.483,-4.581 -5.483,-4.581 -16.054,0.998 -57.885,41.559 -111.06,103.57"
         id="path4810" />
    </g>
  </g>
  <g
     transform="matrix(0.21052,0,0,0.21052,-369.68,15.27)"
     id="g4796" />
  <rect
     style="display:none;fill:url(#linearGradient4299)"
     x="-163.06"
     y="17.840012"
     display="none"
     width="84"
     height="84"
     ry="6"
     rx="6"
     id="rect3873" />
  <rect
     style="display:none;fill:url(#linearGradient9745)"
     x="-163.06"
     y="17.840012"
     display="none"
     width="84"
     height="84"
     ry="6"
     rx="6"
     id="rect3880" />
  <path
     inkscape:connector-curvature="0"
     d="m 17.892,15.89 c -1.662,0 -3,1.338 -3,3 l 0,16 c 0,1.662 1.338,3 3,3 l 3,0 0,1 0,1 0,15 0,1 -1,0 c -1.662,0 -3,1.338 -3,3 l 0,16 c 0,1.662 1.338,3 3,3 l 56,0 c 1.662,0 3,-1.338 3,-3 l 0,-16 0,-1 1,0 c 1.662,0 3,-1.338 3,-3 l 0,-16 c 0,-1.662 -1.338,-3 -3,-3 l -3,0 0,-1 0,-1 0,-15 c 0,-1.662 -1.338,-3 -3,-3 l -56,0 z"
     style="color:#000000;opacity:0.7;fill:#666666"
     id="rect3914" />
  <g
     transform="translate(0.89214,-2.11)"
     id="g3959">
    <rect
       style="fill:url(#linearGradient4301)"
       x="16"
       y="20"
       width="18"
       height="18"
       ry="1.2857"
       rx="1.2857"
       id="rect2419-0" />
    <path
       inkscape:connector-curvature="0"
       style="fill:url(#linearGradient4303)"
       d="m 34,29 0,-7.7143 c 0,-0.713 -0.573,-1.286 -1.286,-1.286 l -7.714,0 0,9 9,0 z"
       id="path3684" />
    <path
       inkscape:connector-curvature="0"
       style="fill:url(#linearGradient4305)"
       d="m 16,29 0,-7.7143 c 0,-0.713 0.573,-1.286 1.286,-1.286 l 7.714,0 0,9 -9,0 z"
       id="path3668" />
    <path
       inkscape:connector-curvature="0"
       style="fill:url(#linearGradient4307)"
       d="m 16,29 0,7.7143 c 0,0.713 0.573,1.286 1.286,1.286 l 7.714,0 0,-9 -9,0 z"
       id="rect3643" />
    <path
       inkscape:connector-curvature="0"
       style="fill:url(#linearGradient4309)"
       d="m 34,29 0,7.7143 c 0,0.713 -0.573,1.286 -1.286,1.286 l -7.714,0 0,-9 9,0 z"
       id="path3664" />
    <rect
       style="fill:url(#linearGradient4311)"
       height="14"
       x="22"
       y="-32"
       width="14"
       transform="matrix(0,1,-1,0,0,0)"
       ry="1.2727"
       rx="1.2727"
       id="rect3877" />
    <path
       inkscape:connector-curvature="0"
       style="fill:url(#linearGradient4313)"
       d="M 19.281,22 C 18.576,22 18,22.576 18,23.281 l 0,11.438 C 18,35.424 18.576,36 19.281,36 l 11.438,0 C 31.424,36 32,35.424 32,34.719 L 32,23.281 C 32,22.576 31.424,22 30.719,22 l -11.438,0 z m 0,1.0938 11.438,0 c 0.11617,0 0.1875,0.07133 0.1875,0.1875 l 0,11.438 c 0,0.11617 -0.07133,0.1875 -0.1875,0.1875 l -11.438,0 c -0.11617,0 -0.1875,-0.07133 -0.1875,-0.1875 l 0,-11.438 c 0,-0.11617 0.07133,-0.1875 0.1875,-0.1875 z"
       id="rect3886" />
    <path
       style="opacity:0.2;fill:#ffffff"
       inkscape:connector-curvature="0"
       d="M 17.281,19 C 16.036,19 15,20.036 15,21.281 l 0,15.438 C 15,37.964 16.036,39 17.281,39 l 15.438,0 C 33.964,39 35,37.964 35,36.719 L 35,21.281 C 35,20.036 33.964,19 32.719,19 l -15.438,0 z m 0,1 15.438,0 C 33.431,20 34,20.569 34,21.281 l 0,15.438 C 34,37.431 33.431,38 32.719,38 L 17.281,38 C 16.569,38 16,37.431 16,36.719 L 16,21.281 C 16,20.569 16.569,20 17.281,20 Z"
       id="path3915" />
  </g>
  <g
     transform="translate(20.892,-2.11)"
     id="g3969">
    <rect
       style="fill:url(#linearGradient4315)"
       x="16"
       y="20"
       width="18"
       height="18"
       ry="1.2857"
       rx="1.2857"
       id="rect3971" />
    <path
       inkscape:connector-curvature="0"
       style="fill:url(#linearGradient4317)"
       d="m 34,29 0,-7.7143 c 0,-0.713 -0.573,-1.286 -1.286,-1.286 l -7.714,0 0,9 9,0 z"
       id="path3973" />
    <path
       inkscape:connector-curvature="0"
       style="fill:url(#linearGradient4319)"
       d="m 16,29 0,-7.7143 c 0,-0.713 0.573,-1.286 1.286,-1.286 l 7.714,0 0,9 -9,0 z"
       id="path3975" />
    <path
       inkscape:connector-curvature="0"
       style="fill:url(#linearGradient4321)"
       d="m 16,29 0,7.7143 c 0,0.713 0.573,1.286 1.286,1.286 l 7.714,0 0,-9 -9,0 z"
       id="path3977" />
    <path
       inkscape:connector-curvature="0"
       style="fill:url(#linearGradient4323)"
       d="m 34,29 0,7.7143 c 0,0.713 -0.573,1.286 -1.286,1.286 l -7.714,0 0,-9 9,0 z"
       id="path3979" />
    <rect
       style="fill:url(#linearGradient4325)"
       height="14"
       x="22"
       y="-32"
       width="14"
       transform="matrix(0,1,-1,0,0,0)"
       ry="1.2727"
       rx="1.2727"
       id="rect3981" />
    <path
       inkscape:connector-curvature="0"
       style="fill:url(#linearGradient4327)"
       d="M 19.281,22 C 18.576,22 18,22.576 18,23.281 l 0,11.438 C 18,35.424 18.576,36 19.281,36 l 11.438,0 C 31.424,36 32,35.424 32,34.719 L 32,23.281 C 32,22.576 31.424,22 30.719,22 l -11.438,0 z m 0,1.0938 11.438,0 c 0.11617,0 0.1875,0.07133 0.1875,0.1875 l 0,11.438 c 0,0.11617 -0.07133,0.1875 -0.1875,0.1875 l -11.438,0 c -0.11617,0 -0.1875,-0.07133 -0.1875,-0.1875 l 0,-11.438 c 0,-0.11617 0.07133,-0.1875 0.1875,-0.1875 z"
       id="path3983" />
    <path
       style="opacity:0.2;fill:#ffffff"
       inkscape:connector-curvature="0"
       d="M 17.281,19 C 16.036,19 15,20.036 15,21.281 l 0,15.438 C 15,37.964 16.036,39 17.281,39 l 15.438,0 C 33.964,39 35,37.964 35,36.719 L 35,21.281 C 35,20.036 33.964,19 32.719,19 l -15.438,0 z m 0,1 15.438,0 C 33.431,20 34,20.569 34,21.281 l 0,15.438 C 34,37.431 33.431,38 32.719,38 L 17.281,38 C 16.569,38 16,37.431 16,36.719 L 16,21.281 C 16,20.569 16.569,20 17.281,20 Z"
       id="path3985" />
  </g>
  <g
     transform="translate(40.892,-2.11)"
     id="g4001">
    <rect
       style="fill:url(#linearGradient4329)"
       x="16"
       y="20"
       width="18"
       height="18"
       ry="1.2857"
       rx="1.2857"
       id="rect4003" />
    <path
       inkscape:connector-curvature="0"
       style="fill:url(#linearGradient4331)"
       d="m 34,29 0,-7.7143 c 0,-0.713 -0.573,-1.286 -1.286,-1.286 l -7.714,0 0,9 9,0 z"
       id="path4005" />
    <path
       inkscape:connector-curvature="0"
       style="fill:url(#linearGradient4333)"
       d="m 16,29 0,-7.7143 c 0,-0.713 0.573,-1.286 1.286,-1.286 l 7.714,0 0,9 -9,0 z"
       id="path4007" />
    <path
       inkscape:connector-curvature="0"
       style="fill:url(#linearGradient4335)"
       d="m 16,29 0,7.7143 c 0,0.713 0.573,1.286 1.286,1.286 l 7.714,0 0,-9 -9,0 z"
       id="path4009" />
    <path
       inkscape:connector-curvature="0"
       style="fill:url(#linearGradient4337)"
       d="m 34,29 0,7.7143 c 0,0.713 -0.573,1.286 -1.286,1.286 l -7.714,0 0,-9 9,0 z"
       id="path4011" />
    <rect
       style="fill:url(#linearGradient4339)"
       height="14"
       x="22"
       y="-32"
       width="14"
       transform="matrix(0,1,-1,0,0,0)"
       ry="1.2727"
       rx="1.2727"
       id="rect4013" />
    <path
       inkscape:connector-curvature="0"
       style="fill:url(#linearGradient4341)"
       d="M 19.281,22 C 18.576,22 18,22.576 18,23.281 l 0,11.438 C 18,35.424 18.576,36 19.281,36 l 11.438,0 C 31.424,36 32,35.424 32,34.719 L 32,23.281 C 32,22.576 31.424,22 30.719,22 l -11.438,0 z m 0,1.0938 11.438,0 c 0.11617,0 0.1875,0.07133 0.1875,0.1875 l 0,11.438 c 0,0.11617 -0.07133,0.1875 -0.1875,0.1875 l -11.438,0 c -0.11617,0 -0.1875,-0.07133 -0.1875,-0.1875 l 0,-11.438 c 0,-0.11617 0.07133,-0.1875 0.1875,-0.1875 z"
       id="path4015" />
    <path
       style="opacity:0.2;fill:#ffffff"
       inkscape:connector-curvature="0"
       d="M 17.281,19 C 16.036,19 15,20.036 15,21.281 l 0,15.438 C 15,37.964 16.036,39 17.281,39 l 15.438,0 C 33.964,39 35,37.964 35,36.719 L 35,21.281 C 35,20.036 33.964,19 32.719,19 l -15.438,0 z m 0,1 15.438,0 C 33.431,20 34,20.569 34,21.281 l 0,15.438 C 34,37.431 33.431,38 32.719,38 L 17.281,38 C 16.569,38 16,37.431 16,36.719 L 16,21.281 C 16,20.569 16.569,20 17.281,20 Z"
       id="path4017" />
  </g>
  <g
     transform="translate(6.8921,17.89)"
     id="g4033">
    <rect
       style="fill:url(#linearGradient4343)"
       x="16"
       y="20"
       width="18"
       height="18"
       ry="1.2857"
       rx="1.2857"
       id="rect4035" />
    <path
       inkscape:connector-curvature="0"
       style="fill:url(#linearGradient4345)"
       d="m 34,29 0,-7.7143 c 0,-0.713 -0.573,-1.286 -1.286,-1.286 l -7.714,0 0,9 9,0 z"
       id="path4037" />
    <path
       inkscape:connector-curvature="0"
       style="fill:url(#linearGradient4347)"
       d="m 16,29 0,-7.7143 c 0,-0.713 0.573,-1.286 1.286,-1.286 l 7.714,0 0,9 -9,0 z"
       id="path4039" />
    <path
       inkscape:connector-curvature="0"
       style="fill:url(#linearGradient4349)"
       d="m 16,29 0,7.7143 c 0,0.713 0.573,1.286 1.286,1.286 l 7.714,0 0,-9 -9,0 z"
       id="path4041" />
    <path
       inkscape:connector-curvature="0"
       style="fill:url(#linearGradient4351)"
       d="m 34,29 0,7.7143 c 0,0.713 -0.573,1.286 -1.286,1.286 l -7.714,0 0,-9 9,0 z"
       id="path4043" />
    <rect
       style="fill:url(#linearGradient4353)"
       height="14"
       x="22"
       y="-32"
       width="14"
       transform="matrix(0,1,-1,0,0,0)"
       ry="1.2727"
       rx="1.2727"
       id="rect4045" />
    <path
       inkscape:connector-curvature="0"
       style="fill:url(#linearGradient4355)"
       d="M 19.281,22 C 18.576,22 18,22.576 18,23.281 l 0,11.438 C 18,35.424 18.576,36 19.281,36 l 11.438,0 C 31.424,36 32,35.424 32,34.719 L 32,23.281 C 32,22.576 31.424,22 30.719,22 l -11.438,0 z m 0,1.0938 11.438,0 c 0.11617,0 0.1875,0.07133 0.1875,0.1875 l 0,11.438 c 0,0.11617 -0.07133,0.1875 -0.1875,0.1875 l -11.438,0 c -0.11617,0 -0.1875,-0.07133 -0.1875,-0.1875 l 0,-11.438 c 0,-0.11617 0.07133,-0.1875 0.1875,-0.1875 z"
       id="path4047" />
    <path
       style="opacity:0.2;fill:#ffffff"
       inkscape:connector-curvature="0"
       d="M 17.281,19 C 16.036,19 15,20.036 15,21.281 l 0,15.438 C 15,37.964 16.036,39 17.281,39 l 15.438,0 C 33.964,39 35,37.964 35,36.719 L 35,21.281 C 35,20.036 33.964,19 32.719,19 l -15.438,0 z m 0,1 15.438,0 C 33.431,20 34,20.569 34,21.281 l 0,15.438 C 34,37.431 33.431,38 32.719,38 L 17.281,38 C 16.569,38 16,37.431 16,36.719 L 16,21.281 C 16,20.569 16.569,20 17.281,20 Z"
       id="path4049" />
  </g>
  <rect
     style="fill:url(#linearGradient35682)"
     x="42.891998"
     y="37.889999"
     width="18"
     height="18"
     ry="1.2857"
     rx="1.2857"
     id="rect4053" />
  <path
     inkscape:connector-curvature="0"
     style="fill:url(#linearGradient35679)"
     d="m 60.892,46.84 0,-7.7142 c 0,-0.71228 -0.57343,-1.2857 -1.2857,-1.2857 l -7.7143,0 0,9 9,0 z"
     id="path4055" />
  <path
     inkscape:connector-curvature="0"
     style="fill:url(#linearGradient35676)"
     d="m 42.892,46.84 0,-7.7142 c 0,-0.71228 0.57343,-1.2857 1.2857,-1.2857 l 7.7143,0 0,9 -9,0 z"
     id="path4057" />
  <path
     inkscape:connector-curvature="0"
     style="fill:url(#linearGradient35673)"
     d="m 42.892,46.84 0,7.7143 c 0,0.7123 0.57343,1.2857 1.2857,1.2857 l 7.7143,0 0,-9 -9,0 z"
     id="path4059" />
  <path
     inkscape:connector-curvature="0"
     style="fill:url(#linearGradient35670)"
     d="m 60.892,46.84 0,7.7143 c 0,0.7123 -0.57343,1.2857 -1.2857,1.2857 l -7.7143,0 0,-9 9,0 z"
     id="path4061" />
  <rect
     style="fill:url(#linearGradient35667)"
     x="39.889999"
     y="-58.891998"
     width="14"
     height="14"
     ry="1.2727"
     rx="1.2727"
     transform="matrix(0,1,-1,0,0,0)"
     id="rect4063" />
  <path
     inkscape:connector-curvature="0"
     style="fill:url(#linearGradient35664)"
     d="m 46.173,39.89 c -0.70509,0 -1.2812,0.57616 -1.2812,1.2812 l 0,11.438 c 0,0.7051 0.57616,1.2812 1.2812,1.2812 l 11.438,0 c 0.70509,0 1.2812,-0.5761 1.2812,-1.2812 l 0,-11.438 c 0,-0.70509 -0.57616,-1.2812 -1.2812,-1.2812 l -11.438,0 z m 0,1.0938 11.438,0 c 0.11617,0 0.1875,0.0713 0.1875,0.1875 l 0,11.438 c 0,0.1162 -0.07133,0.1875 -0.1875,0.1875 l -11.438,0 c -0.11617,0 -0.1875,-0.071 -0.1875,-0.1875 l 0,-11.438 c 0,-0.11617 0.07133,-0.1875 0.1875,-0.1875 z"
     id="path4065" />
  <path
     style="opacity:0.2;fill:#ffffff"
     inkscape:connector-curvature="0"
     d="m 44.173,36.89 c -1.2449,0 -2.2812,1.0364 -2.2812,2.2812 l 0,15.438 c 0,1.2449 1.0364,2.2812 2.2812,2.2812 l 15.438,0 c 1.2449,0 2.2812,-1.0363 2.2812,-2.2812 l 0,-15.438 c 0,-1.2449 -1.0364,-2.2812 -2.2812,-2.2812 l -15.438,0 z m 0,1 15.438,0 c 0.71229,0 1.2812,0.56896 1.2812,1.2812 l 0,15.438 c 0,0.7123 -0.56896,1.2812 -1.2812,1.2812 l -15.438,0 c -0.71229,0 -1.2812,-0.5689 -1.2812,-1.2812 l 0,-15.438 c 0,-0.71229 0.56896,-1.2812 1.2812,-1.2812 z"
     id="path4067" />
  <g
     transform="translate(46.892,17.89)"
     id="g4069">
    <rect
       style="fill:url(#linearGradient4357)"
       x="16"
       y="20"
       width="18"
       height="18"
       ry="1.2857"
       rx="1.2857"
       id="rect4071" />
    <path
       inkscape:connector-curvature="0"
       style="fill:url(#linearGradient4359)"
       d="m 34,29 0,-7.7143 c 0,-0.713 -0.573,-1.286 -1.286,-1.286 l -7.714,0 0,9 9,0 z"
       id="path4073" />
    <path
       inkscape:connector-curvature="0"
       style="fill:url(#linearGradient4361)"
       d="m 16,29 0,-7.7143 c 0,-0.713 0.573,-1.286 1.286,-1.286 l 7.714,0 0,9 -9,0 z"
       id="path4075" />
    <path
       inkscape:connector-curvature="0"
       style="fill:url(#linearGradient4363)"
       d="m 16,29 0,7.7143 c 0,0.713 0.573,1.286 1.286,1.286 l 7.714,0 0,-9 -9,0 z"
       id="path4077" />
    <path
       inkscape:connector-curvature="0"
       style="fill:url(#linearGradient4365)"
       d="m 34,29 0,7.7143 c 0,0.713 -0.573,1.286 -1.286,1.286 l -7.714,0 0,-9 9,0 z"
       id="path4079" />
    <rect
       style="fill:url(#linearGradient4367)"
       height="14"
       x="22"
       y="-32"
       width="14"
       transform="matrix(0,1,-1,0,0,0)"
       ry="1.2727"
       rx="1.2727"
       id="rect4081" />
    <path
       inkscape:connector-curvature="0"
       style="fill:url(#linearGradient4369)"
       d="M 19.281,22 C 18.576,22 18,22.576 18,23.281 l 0,11.438 C 18,35.424 18.576,36 19.281,36 l 11.438,0 C 31.424,36 32,35.424 32,34.719 L 32,23.281 C 32,22.576 31.424,22 30.719,22 l -11.438,0 z m 0,1.0938 11.438,0 c 0.11617,0 0.1875,0.07133 0.1875,0.1875 l 0,11.438 c 0,0.11617 -0.07133,0.1875 -0.1875,0.1875 l -11.438,0 c -0.11617,0 -0.1875,-0.07133 -0.1875,-0.1875 l 0,-11.438 c 0,-0.11617 0.07133,-0.1875 0.1875,-0.1875 z"
       id="path4083" />
    <path
       style="opacity:0.2;fill:#ffffff"
       inkscape:connector-curvature="0"
       d="M 17.281,19 C 16.036,19 15,20.036 15,21.281 l 0,15.438 C 15,37.964 16.036,39 17.281,39 l 15.438,0 C 33.964,39 35,37.964 35,36.719 L 35,21.281 C 35,20.036 33.964,19 32.719,19 l -15.438,0 z m 0,1 15.438,0 C 33.431,20 34,20.569 34,21.281 l 0,15.438 C 34,37.431 33.431,38 32.719,38 L 17.281,38 C 16.569,38 16,37.431 16,36.719 L 16,21.281 C 16,20.569 16.569,20 17.281,20 Z"
       id="path4085" />
  </g>
  <g
     transform="translate(42.892,37.89)"
     id="g4129">
    <rect
       style="fill:url(#linearGradient35564)"
       x="16"
       y="20"
       width="18"
       height="18"
       ry="1.2857"
       rx="1.2857"
       id="rect4131" />
    <path
       inkscape:connector-curvature="0"
       style="fill:url(#linearGradient35566)"
       d="m 34,29 0,-7.7143 c 0,-0.713 -0.573,-1.286 -1.286,-1.286 l -7.714,0 0,9 9,0 z"
       id="path4133" />
    <path
       inkscape:connector-curvature="0"
       style="fill:url(#linearGradient35568)"
       d="m 16,29 0,-7.7143 c 0,-0.713 0.573,-1.286 1.286,-1.286 l 7.714,0 0,9 -9,0 z"
       id="path4135" />
    <path
       inkscape:connector-curvature="0"
       style="fill:url(#linearGradient35570)"
       d="m 16,29 0,7.7143 c 0,0.713 0.573,1.286 1.286,1.286 l 7.714,0 0,-9 -9,0 z"
       id="path4137" />
    <path
       inkscape:connector-curvature="0"
       style="fill:url(#linearGradient35572)"
       d="m 34,29 0,7.7143 c 0,0.713 -0.573,1.286 -1.286,1.286 l -7.714,0 0,-9 9,0 z"
       id="path4139" />
    <rect
       style="fill:url(#linearGradient35574)"
       height="14"
       x="22"
       y="-32"
       width="14"
       transform="matrix(0,1,-1,0,0,0)"
       ry="1.2727"
       rx="1.2727"
       id="rect4141" />
    <path
       inkscape:connector-curvature="0"
       style="fill:url(#linearGradient35576)"
       d="M 19.281,22 C 18.576,22 18,22.576 18,23.281 l 0,11.438 C 18,35.424 18.576,36 19.281,36 l 11.438,0 C 31.424,36 32,35.424 32,34.719 L 32,23.281 C 32,22.576 31.424,22 30.719,22 l -11.438,0 z m 0,1.0938 11.438,0 c 0.11617,0 0.1875,0.07133 0.1875,0.1875 l 0,11.438 c 0,0.11617 -0.07133,0.1875 -0.1875,0.1875 l -11.438,0 c -0.11617,0 -0.1875,-0.07133 -0.1875,-0.1875 l 0,-11.438 c 0,-0.11617 0.07133,-0.1875 0.1875,-0.1875 z"
       id="path4143" />
    <path
       style="opacity:0.2;fill:#ffffff"
       inkscape:connector-curvature="0"
       d="M 17.281,19 C 16.036,19 15,20.036 15,21.281 l 0,15.438 C 15,37.964 16.036,39 17.281,39 l 15.438,0 C 33.964,39 35,37.964 35,36.719 L 35,21.281 C 35,20.036 33.964,19 32.719,19 l -15.438,0 z m 0,1 15.438,0 C 33.431,20 34,20.569 34,21.281 l 0,15.438 C 34,37.431 33.431,38 32.719,38 L 17.281,38 C 16.569,38 16,37.431 16,36.719 L 16,21.281 C 16,20.569 16.569,20 17.281,20 Z"
       id="path4145" />
  </g>
  <path
     inkscape:connector-curvature="0"
     style="fill:url(#linearGradient35497)"
     d="m 20.178,57.84 35.429,0 c 0.71228,0 1.2857,0.5734 1.2857,1.2857 l 0,15.429 c 0,0.7123 -0.57343,1.2857 -1.2857,1.2857 l -35.429,0 c -0.71228,0 -1.2857,-0.5734 -1.2857,-1.2857 l 0,-15.429 c 0,-0.7123 0.57343,-1.2857 1.2857,-1.2857 z"
     id="rect4163" />
  <path
     inkscape:connector-curvature="0"
     style="fill:url(#linearGradient35494)"
     d="m 56.892,66.84 0,-7.7143 c 0,-0.7123 -0.57343,-1.2857 -1.2857,-1.2857 l -7.7143,0 0,9 9,0 z"
     id="path4165" />
  <path
     inkscape:connector-curvature="0"
     style="fill:url(#linearGradient35491)"
     d="m 18.892,66.84 0,-7.7143 c 0,-0.7123 0.57343,-1.2857 1.2857,-1.2857 l 7.7143,0 0,9 -9,0 z"
     id="path4167" />
  <path
     inkscape:connector-curvature="0"
     style="fill:url(#linearGradient35488)"
     d="m 18.892,66.84 0,7.7143 c 0,0.7123 0.57343,1.2857 1.2857,1.2857 l 7.7143,0 0,-9 -9,0 z"
     id="path4169" />
  <path
     inkscape:connector-curvature="0"
     style="fill:url(#linearGradient35485)"
     d="m 56.892,66.84 0,7.7143 c 0,0.7123 -0.57343,1.2857 -1.2857,1.2857 l -7.7143,0 0,-9 9,0 z"
     id="path4171" />
  <path
     inkscape:connector-curvature="0"
     style="fill:url(#linearGradient35482)"
     d="m 54.892,61.14 0,11.455 c 0,0.705 -0.56764,1.2727 -1.2727,1.2727 l -31.455,0 c -0.70509,0 -1.2727,-0.5677 -1.2727,-1.2727 l 0,-11.455 c 0,-0.7051 0.56764,-1.2727 1.2727,-1.2727 l 31.455,0 c 0.70509,0 1.2727,0.5676 1.2727,1.2727 z"
     id="rect4173" />
  <path
     inkscape:connector-curvature="0"
     style="fill:url(#linearGradient35479)"
     d="m 22.173,59.84 c -0.70509,0 -1.2812,0.5761 -1.2812,1.2812 l 0,11.438 c 0,0.7051 0.57616,1.2813 1.2812,1.2813 l 31.438,0 c 0.70509,0 1.2812,-0.5762 1.2812,-1.2813 l 0,-11.438 c 0,-0.7051 -0.57616,-1.2812 -1.2812,-1.2812 l -31.438,0 z m 0,1.0937 31.438,0 c 0.11617,0 0.1875,0.071 0.1875,0.1875 l 0,11.438 c 0,0.1162 -0.0713,0.1875 -0.1875,0.1875 l -31.438,0 c -0.11617,0 -0.1875,-0.071 -0.1875,-0.1875 l 0,-11.438 c 0,-0.1161 0.0713,-0.1875 0.1875,-0.1875 z"
     id="path4175" />
  <path
     style="opacity:0.2;fill:#ffffff"
     inkscape:connector-curvature="0"
     d="m 20.173,56.84 c -1.2449,0 -2.2812,1.0363 -2.2812,2.2812 l 0,15.438 c 0,1.2449 1.0364,2.2813 2.2812,2.2813 l 35.438,0 c 1.2449,0 2.2812,-1.0364 2.2812,-2.2813 l 0,-15.438 c 0,-1.2449 -1.0364,-2.2812 -2.2812,-2.2812 l -35.438,0 z m 0,1 35.438,0 c 0.71229,0 1.2812,0.5689 1.2812,1.2812 l 0,15.438 c 0,0.7123 -0.56896,1.2813 -1.2812,1.2813 l -35.438,0 c -0.71229,0 -1.2812,-0.569 -1.2812,-1.2813 l 0,-15.438 c 0,-0.7123 0.56896,-1.2812 1.2812,-1.2812 z"
     id="path4177" />
  <path
     inkscape:connector-curvature="0"
     d="m 14.892,34.89 0,1 c 0,1.662 1.338,3 3,3 l 3,0 0,-1 -3,0 c -1.662,0 -3,-1.338 -3,-3 z m 68,20 c 0,1.662 -1.338,3 -3,3 l -1,0 0,1 1,0 c 1.662,0 3,-1.338 3,-3 l 0,-1 z m -66,20 0,1 c 0,1.662 1.338,3 3,3 l 56,0 c 1.662,0 3,-1.338 3,-3 l 0,-1 c 0,1.662 -1.338,3 -3,3 l -56,0 c -1.662,0 -3,-1.338 -3,-3 z"
     style="color:#000000;opacity:0.6;fill:#ffffff"
     id="path4227" />
  <g
     style="fill:#333333"
     transform="translate(0.89214,-2.11)"
     id="text4232">
    <path
       inkscape:connector-curvature="0"
       d="m 27.363,32.44 -0.78613,-2.0117 -3.1348,0 -0.79102,2.0117 -0.9668,0 2.8076,-6.8799 1.0596,0 2.7637,6.8799 -0.95215,0 M 25.4148,27.4302 C 25.36271,27.3 25.31226,27.16816 25.26343,27.03469 25.21785,26.90123 25.17716,26.78079 25.14136,26.67336 25.10555,26.56269 25.07462,26.47154 25.04859,26.39992 25.0258,26.32506 25.01278,26.27948 25.00953,26.2632 c -0.0065,0.01628 -0.02116,0.06186 -0.04395,0.13672 -0.02279,0.07488 -0.05371,0.16765 -0.09277,0.27832 -0.03581,0.11068 -0.07813,0.23275 -0.12695,0.36621 -0.04558,0.13347 -0.09278,0.2653 -0.1416,0.39551 l -0.87891,2.2607 2.5732,0 -0.88379,-2.2705"
       id="path4316" />
  </g>
  <g
     style="fill:#333333"
     transform="translate(0.89214,-2.11)"
     id="text4236">
    <path
       inkscape:connector-curvature="0"
       d="m 27.167,66.354 c -0.39063,6e-6 -0.73731,0.06511 -1.04,0.19531 -0.29948,0.13021 -0.55176,0.31576 -0.75684,0.55664 -0.20182,0.24089 -0.35482,0.5306 -0.45898,0.86914 -0.10417,0.33855 -0.15625,0.71452 -0.15625,1.1279 -2e-6,0.41342 0.05534,0.79265 0.16602,1.1377 0.11393,0.3418 0.27506,0.6364 0.4834,0.88379 0.21159,0.2474 0.46875,0.43946 0.77148,0.57617 0.30599,0.13672 0.64941,0.20508 1.0303,0.20508 0.26692,10e-7 0.50944,-0.03418 0.72754,-0.10254 0.22135,-0.07161 0.41992,-0.1709 0.5957,-0.29785 0.17903,-0.12695 0.33854,-0.27669 0.47852,-0.44922 0.13997,-0.17578 0.26367,-0.36946 0.37109,-0.58106 l 0.76172,0.38086 c -0.1237,0.25716 -0.2767,0.49642 -0.45898,0.71777 -0.1823,0.22136 -0.39714,0.41341 -0.64453,0.57617 -0.24415,0.16276 -0.52247,0.29134 -0.83496,0.38574 -0.30925,0.09115 -0.65593,0.13672 -1.04,0.13672 -0.55664,0 -1.0449,-0.08789 -1.4648,-0.26367 -0.41667,-0.17904 -0.7666,-0.42643 -1.0498,-0.74219 -0.27995,-0.31901 -0.48991,-0.69661 -0.62988,-1.1328 -0.13997,-0.4362 -0.20996,-0.91308 -0.20996,-1.4307 0,-0.5371 0.07324,-1.0221 0.21973,-1.4551 0.14974,-0.43294 0.36621,-0.80078 0.64941,-1.1035 0.28646,-0.30598 0.63802,-0.54036 1.0547,-0.70312 0.41666,-0.16601 0.89192,-0.24902 1.4258,-0.24902 0.73242,7e-6 1.3444,0.14324 1.8359,0.42969 0.49153,0.28646 0.85286,0.71127 1.084,1.2744 l -0.88379,0.29297 C 29.12843,67.42652 29.04054,67.2719 28.92987,67.12541 28.81919,66.97568 28.68084,66.84384 28.51483,66.7299 28.34881,66.61597 28.1535,66.52483 27.92889,66.45646 27.70753,66.38811 27.45363,66.35393 27.16717,66.35392"
       id="path4292" />
    <path
       inkscape:connector-curvature="0"
       d="m 33.231,72.535 c -0.13347,0.03581 -0.27018,0.06348 -0.41016,0.08301 -0.13672,0.02279 -0.29623,0.03418 -0.47852,0.03418 -0.70313,0 -1.0547,-0.39876 -1.0547,-1.1963 l 0,-3.5254 -0.61035,0 0,-0.63965 0.64453,0 0.25879,-1.1816 0.58594,0 0,1.1816 0.97656,0 0,0.63965 -0.97656,0 0,3.335 c -1e-6,0.25391 0.04069,0.43294 0.12207,0.53711 0.08463,0.10091 0.22949,0.15137 0.43457,0.15137 0.08463,0 0.16601,-0.0065 0.24414,-0.01953 0.08138,-0.01302 0.16927,-0.0293 0.26367,-0.04883 l 0,0.64941"
       id="path4294" />
    <path
       inkscape:connector-curvature="0"
       d="m 33.993,72.574 0,-4.0527 c -1e-6,-0.11067 -0.0016,-0.22298 -0.0049,-0.33691 0,-0.11718 -0.0016,-0.22949 -0.0049,-0.33691 -0.0033,-0.10742 -0.0065,-0.20833 -0.0098,-0.30273 -0.0033,-0.0944 -0.0065,-0.17903 -0.0098,-0.25391 l 0.83008,0 c 0.0033,0.07488 0.0065,0.16114 0.0098,0.25879 0.0065,0.09441 0.01139,0.19206 0.01465,0.29297 0.0065,0.10092 0.0098,0.19857 0.0098,0.29297 0.0033,0.09115 0.0049,0.16928 0.0049,0.23438 l 0.01953,0 c 0.06185,-0.20182 0.12695,-0.37597 0.19531,-0.52246 0.07161,-0.14973 0.15462,-0.2718 0.24902,-0.36621 0.0944,-0.09765 0.2067,-0.16926 0.33691,-0.21484 0.13021,-0.04882 0.28808,-0.07324 0.47363,-0.07324 0.07161,6e-6 0.13997,0.0065 0.20508,0.01953 0.0651,0.0098 0.11556,0.01954 0.15137,0.0293 l 0,0.80566 c -0.0586,-0.01627 -0.12696,-0.02766 -0.20508,-0.03418 -0.07813,-0.0098 -0.16602,-0.01464 -0.26367,-0.01465 -0.20182,5e-6 -0.37435,0.04558 -0.51758,0.13672 -0.13998,0.09115 -0.25554,0.2181 -0.34668,0.38086 -0.08789,0.15951 -0.153,0.35157 -0.19531,0.57617 -0.04232,0.22136 -0.06348,0.46387 -0.06348,0.72754 l 0,2.7539 -0.87891,0"
       id="path4296" />
    <path
       inkscape:connector-curvature="0"
       d="m 37.313,72.574 0,-7.2461 0.87891,0 0,7.2461 -0.87891,0"
       id="path4298" />
  </g>
  <g
     style="fill:#333333"
     transform="translate(0.89214,-2.11)"
     id="text4254">
    <path
       inkscape:connector-curvature="0"
       d="m 47.744,32.44 -5.4785,0 0,-0.69824 4.1895,-5.4199 -3.833,0 0,-0.76172 4.8926,0 0,0.67871 -4.1895,5.4395 4.4189,0 0,0.76172"
       id="path4313" />
  </g>
  <g
     style="fill:#333333"
     transform="translate(0.89214,-2.11)"
     id="text4258">
    <path
       inkscape:connector-curvature="0"
       d="m 62.485,32.44 0,-6.8799 5.2197,0 0,0.76172 -4.2871,0 0,2.207 3.9941,0 0,0.75195 -3.9941,0 0,2.3975 4.4873,0 0,0.76172 -5.4199,0"
       id="path4310" />
  </g>
  <g
     style="fill:#333333"
     transform="translate(0.89214,-2.11)"
     id="text4262">
    <path
       inkscape:connector-curvature="0"
       d="m 34.418,48.968 c -8e-6,0.48503 -0.06348,0.92936 -0.19043,1.333 -0.1237,0.40039 -0.30437,0.75195 -0.54199,1.0547 -0.23438,0.30274 -0.5241,0.55013 -0.86914,0.74219 -0.3418,0.1888 -0.7308,0.3125 -1.167,0.37109 0.06836,0.20833 0.14485,0.38574 0.22949,0.53223 0.08789,0.14648 0.18717,0.2653 0.29785,0.35644 0.11067,0.0944 0.23274,0.16276 0.36621,0.20508 0.13671,0.04557 0.28808,0.06836 0.4541,0.06836 0.09114,-2e-6 0.1888,-0.0065 0.29297,-0.01953 0.10416,-0.01302 0.19368,-0.02767 0.26856,-0.04395 l 0,0.6543 c -0.1237,0.02929 -0.26042,0.05371 -0.41016,0.07324 -0.14649,0.02279 -0.29948,0.03418 -0.45898,0.03418 -0.27995,-2e-6 -0.52409,-0.04232 -0.73242,-0.12695 -0.208,-0.081 -0.392,-0.2 -0.552,-0.356 -0.156,-0.153 -0.291,-0.342 -0.405,-0.566 -0.11394,-0.22461 -0.21485,-0.47852 -0.30273,-0.76172 -0.51433,-0.02604 -0.9668,-0.13184 -1.3574,-0.31738 -0.38737,-0.1888 -0.71126,-0.43945 -0.97168,-0.75195 -0.25716,-0.31575 -0.45085,-0.68359 -0.58106,-1.1035 -0.13021,-0.42318 -0.19531,-0.88216 -0.19531,-1.377 -1e-6,-0.53711 0.07487,-1.0221 0.22461,-1.4551 0.14974,-0.43294 0.36946,-0.80078 0.65918,-1.1035 0.28971,-0.30598 0.64616,-0.54036 1.0693,-0.70312 0.42643,-0.16601 0.91471,-0.24902 1.4648,-0.24902 0.54687,7e-6 1.0319,0.08301 1.4551,0.24902 0.42643,0.16602 0.78287,0.40202 1.0693,0.70801 0.28971,0.306 0.50943,0.67546 0.65918,1.1084 0.14973,0.43295 0.2246,0.91472 0.22461,1.4453 m -0.95215,0 c -6e-6,-0.41341 -0.05372,-0.78938 -0.16113,-1.1279 -0.10417,-0.33854 -0.26042,-0.62825 -0.46875,-0.86914 -0.20508,-0.24088 -0.46062,-0.42643 -0.7666,-0.55664 -0.30599,-0.1302 -0.65918,-0.19531 -1.0596,-0.19531 -0.41016,7e-6 -0.76986,0.06511 -1.0791,0.19531 -0.30925,0.13021 -0.56804,0.31576 -0.77637,0.55664 -0.20508,0.24089 -0.3597,0.5306 -0.46387,0.86914 -0.10091,0.33855 -0.15137,0.71452 -0.15137,1.1279 -1e-6,0.41341 0.05208,0.79265 0.15625,1.1377 0.10742,0.3418 0.26367,0.63802 0.46875,0.88867 0.20833,0.2474 0.46549,0.44108 0.77148,0.58106 0.30924,0.13672 0.66406,0.20508 1.0645,0.20508 0.42968,0 0.79915,-0.06999 1.1084,-0.20996 0.3125,-0.13997 0.56803,-0.33366 0.7666,-0.58106 0.20182,-0.25065 0.34993,-0.5485 0.44434,-0.89356 0.09765,-0.34505 0.14648,-0.72102 0.14648,-1.1279"
       id="path4307" />
  </g>
  <g
     style="fill:#333333"
     transform="translate(0.89214,-2.11)"
     id="text4266">
    <path
       inkscape:connector-curvature="0"
       d="m 53.876,50.541 c -7e-6,0.28972 -0.05697,0.55664 -0.1709,0.80078 -0.11068,0.24414 -0.28321,0.45573 -0.51758,0.63476 -0.23438,0.17578 -0.5306,0.31413 -0.88867,0.41504 -0.35482,0.09766 -0.77637,0.14648 -1.2646,0.14648 -0.85612,0 -1.5234,-0.14974 -2.002,-0.44922 -0.478,-0.3 -0.783,-0.733 -0.913,-1.299 l 0.90332,-0.18066 c 0.04557,0.17904 0.11556,0.3418 0.20996,0.48828 0.0944,0.14649 0.22135,0.27344 0.38086,0.38086 0.16276,0.10417 0.36295,0.18555 0.60059,0.24414 0.23763,0.05859 0.52246,0.08789 0.85449,0.08789 0.27669,0 0.5306,-0.02279 0.76172,-0.06836 0.23112,-0.04883 0.42968,-0.12207 0.5957,-0.21973 0.16601,-0.09766 0.29459,-0.22298 0.38574,-0.37598 0.0944,-0.15625 0.1416,-0.3418 0.1416,-0.55664 -5e-6,-0.22461 -0.05209,-0.4069 -0.15625,-0.54688 -0.10092,-0.13997 -0.24415,-0.25553 -0.42969,-0.34668 -0.18555,-0.09114 -0.4069,-0.16764 -0.66406,-0.22949 -0.25716,-0.06185 -0.542,-0.12858 -0.85449,-0.2002 -0.19206,-0.04231 -0.38574,-0.08789 -0.58106,-0.13672 -0.19206,-0.05208 -0.37761,-0.1123 -0.55664,-0.18066 -0.17578,-0.07161 -0.3418,-0.15462 -0.49805,-0.24902 -0.15625,-0.0944 -0.29134,-0.2067 -0.40527,-0.33691 -0.11393,-0.13346 -0.20345,-0.28645 -0.26856,-0.45898 -0.0651,-0.17578 -0.09766,-0.3776 -0.09766,-0.60547 -10e-7,-0.32552 0.0651,-0.60384 0.19531,-0.83496 0.13346,-0.23437 0.31738,-0.42643 0.55176,-0.57617 0.23437,-0.14973 0.51106,-0.25878 0.83008,-0.32715 0.31901,-0.06835 0.66406,-0.10253 1.0352,-0.10254 0.42643,7e-6 0.79101,0.03419 1.0938,0.10254 0.30273,0.06511 0.55826,0.16439 0.7666,0.29785 0.20833,0.13347 0.37434,0.29949 0.49805,0.49805 0.12695,0.19532 0.22786,0.42318 0.30274,0.68359 l -0.91797,0.16113 c -0.04558,-0.16601 -0.11231,-0.31412 -0.2002,-0.44434 -0.08464,-0.1302 -0.19694,-0.23925 -0.33691,-0.32715 -0.13998,-0.08788 -0.31088,-0.15462 -0.5127,-0.2002 -0.19857,-0.04557 -0.43295,-0.06835 -0.70312,-0.06836 -0.31901,6e-6 -0.58757,0.0293 -0.80566,0.08789 -0.21485,0.05535 -0.389,0.13184 -0.52246,0.22949 -0.13021,0.09766 -0.22461,0.21322 -0.2832,0.34668 -0.05534,0.13021 -0.08301,0.27182 -0.08301,0.4248 -10e-7,0.20508 0.05045,0.37435 0.15137,0.50781 0.10416,0.13021 0.24414,0.23926 0.41992,0.32715 0.17578,0.08789 0.37923,0.16114 0.61035,0.21973 0.23112,0.0586 0.47688,0.11719 0.7373,0.17578 0.21158,0.04883 0.42154,0.09929 0.62988,0.15137 0.21158,0.04883 0.41341,0.10905 0.60547,0.18066 0.19205,0.06836 0.37109,0.14974 0.53711,0.24414 0.16926,0.09441 0.31575,0.20996 0.43945,0.34668 0.12369,0.13672 0.21972,0.29785 0.28809,0.4834 0.07161,0.18555 0.10742,0.40365 0.10742,0.6543"
       id="path4304" />
  </g>
  <g
     style="fill:#333333"
     transform="translate(0.89214,-2.11)"
     id="text4270">
    <path
       inkscape:connector-curvature="0"
       d="m 74.135,48.929 c -7e-6,0.57292 -0.08627,1.0791 -0.25879,1.5186 -0.17253,0.4362 -0.40854,0.80241 -0.70801,1.0986 -0.29948,0.29297 -0.6543,0.51595 -1.0645,0.66894 -0.40691,0.14974 -0.84636,0.22461 -1.3184,0.22461 l -2.5732,0 0,-6.8799 2.2754,0 c 0.5306,6e-6 1.0189,0.06674 1.4648,0.2002 0.44921,0.13022 0.83496,0.33366 1.1572,0.61035 0.32226,0.27344 0.57291,0.62175 0.75195,1.0449 0.18228,0.42318 0.27343,0.92774 0.27344,1.5137 m -0.9375,0 c -6e-6,-0.46549 -0.06674,-0.86263 -0.2002,-1.1914 -0.13347,-0.33203 -0.32064,-0.60384 -0.56152,-0.81543 -0.24089,-0.21158 -0.52898,-0.3662 -0.86426,-0.46387 -0.33529,-0.1009 -0.70313,-0.15136 -1.1035,-0.15137 l -1.3232,0 0,5.3857 1.5332,0 c 0.36132,10e-7 0.69498,-0.05859 1.001,-0.17578 0.30924,-0.11719 0.57617,-0.29134 0.80078,-0.52246 0.2246,-0.23112 0.40038,-0.5192 0.52734,-0.86426 0.12695,-0.34505 0.19042,-0.74544 0.19043,-1.2012"
       id="path4301" />
  </g>
  <path
     inkscape:connector-curvature="0"
     d="m 67.892,61.84 -4,4 2,0 0,4 0,1 4,0 0,-1 0,-4 2,0 -4,-4 z m 0,1 2,2 -1,0 0,1 0,4 -2,0 0,-4 0,-1 -1,0 2,-2 z"
     style="color:#000000;fill:#333333"
     id="rect4274" />
</svg>
