<?xml version="1.0" encoding="UTF-8" standalone="no"?>
<!-- Created with Inkscape (http://www.inkscape.org/) -->

<svg
   xmlns:dc="http://purl.org/dc/elements/1.1/"
   xmlns:cc="http://creativecommons.org/ns#"
   xmlns:rdf="http://www.w3.org/1999/02/22-rdf-syntax-ns#"
   xmlns:svg="http://www.w3.org/2000/svg"
   xmlns="http://www.w3.org/2000/svg"
   xmlns:xlink="http://www.w3.org/1999/xlink"
   xmlns:sodipodi="http://sodipodi.sourceforge.net/DTD/sodipodi-0.dtd"
   xmlns:inkscape="http://www.inkscape.org/namespaces/inkscape"
   id="svg2"
   height="96"
   width="96"
   version="1.1"
   inkscape:version="0.91 r"
   sodipodi:docname="printer.svg">
  <sodipodi:namedview
     pagecolor="#ffffff"
     bordercolor="#666666"
     borderopacity="1"
     objecttolerance="10"
     gridtolerance="10"
     guidetolerance="10"
     inkscape:pageopacity="0"
     inkscape:pageshadow="2"
     inkscape:window-width="1366"
     inkscape:window-height="717"
     id="namedview51"
     showgrid="false"
     inkscape:zoom="2.4583334"
     inkscape:cx="113.67195"
     inkscape:cy="12.8704"
     inkscape:window-x="0"
     inkscape:window-y="0"
     inkscape:window-maximized="1"
     inkscape:current-layer="svg2" />
  <defs
     id="defs4">
    <linearGradient
       id="linearGradient6400"
       y2="2.9934"
       gradientUnits="userSpaceOnUse"
       x2="47.995"
       y1="84.031"
       x1="47.995">
      <stop
         id="stop6396"
         stop-color="#ccc"
         offset="0" />
      <stop
         id="stop6398"
         stop-color="#dae0de"
         offset="1" />
    </linearGradient>
    <linearGradient
       id="linearGradient3733"
       y2="52.101"
       xlink:href="#linearGradient3715-05"
       gradientUnits="userSpaceOnUse"
       x2="19.942"
       y1="52.101"
       x1="80.711" />
    <linearGradient
       id="linearGradient3715-05">
      <stop
         id="stop3717"
         stop-color="#fff"
         offset="0" />
      <stop
         id="stop3719-3"
         stop-color="#fff"
         stop-opacity="0"
         offset="1" />
    </linearGradient>
    <filter
       id="filter3780"
       height="1.3025"
       width="1.0888"
       color-interpolation-filters="sRGB"
       y="-.15126"
       x="-.044412">
      <feGaussianBlur
         id="feGaussianBlur3782"
         stdDeviation="1.1526305" />
    </filter>
    <filter
       id="filter3776"
       height="1.0908"
       width="1.3035"
       color-interpolation-filters="sRGB"
       y="-.045378"
       x="-.15174">
      <feGaussianBlur
         id="feGaussianBlur3778"
         stdDeviation="1.1526305" />
    </filter>
    <radialGradient
       id="radialGradient4635"
       gradientUnits="userSpaceOnUse"
       cy="-15.871"
       cx="56.066"
       gradientTransform="matrix(-0.0022616,-1.0568,1.3856,0,10.224,1077.8)"
       r="35.938">
      <stop
         id="stop3177-6"
         stop-color="#4490e6"
         offset="0" />
      <stop
         id="stop3179-3"
         stop-color="#103d8f"
         offset="1" />
    </radialGradient>
    <clipPath
       id="clipPath4637"
       clipPathUnits="userSpaceOnUse">
      <rect
         id="rect4639"
         opacity=".75104"
         ry="7.1631"
         height="56"
         width="69.679"
         y="971.67"
         x="-46.872"
         fill="url(#linearGradient4641)" />
    </clipPath>
    <linearGradient
       id="linearGradient4641"
       y2="975.65"
       gradientUnits="userSpaceOnUse"
       x2="3468.4"
       gradientTransform="matrix(.31367 0 0 .31367 -1073 514.25)"
       y1="1636.7"
       x1="3382.6">
      <stop
         id="stop4911"
         stop-color="#1a1a1a"
         offset="0" />
      <stop
         id="stop4913"
         stop-color="#7a7a7a"
         offset="1" />
    </linearGradient>
    <linearGradient
       x1="47"
       y1="68"
       x2="47"
       y2="64"
       id="linearGradient4133"
       xlink:href="#linearGradient4135"
       gradientUnits="userSpaceOnUse"
       gradientTransform="matrix(1,0,0,0.95399516,0.28806,1.2857888)" />
    <linearGradient
       id="linearGradient4135">
      <stop
         id="stop4137"
         style="stop-color:#cacaca;stop-opacity:1"
         offset="0" />
      <stop
         id="stop4139"
         style="stop-color:#f5f5f5;stop-opacity:1"
         offset="1" />
    </linearGradient>
    <radialGradient
       cx="77.5"
       cy="85"
       r="2.5"
       fx="77.5"
       fy="85"
       id="radialGradient4112"
       xlink:href="#linearGradient4106"
       gradientUnits="userSpaceOnUse"
       gradientTransform="matrix(1,0,0,0.38159806,-0.71194,48.031552)" />
    <linearGradient
       id="linearGradient4106">
      <stop
         id="stop4108"
         style="stop-color:#a0ff0e;stop-opacity:1"
         offset="0" />
      <stop
         id="stop4110"
         style="stop-color:#5ce500;stop-opacity:1"
         offset="1" />
    </linearGradient>
    <linearGradient
       x1="77.725983"
       y1="83.088936"
       x2="77.725983"
       y2="87.040337"
       id="linearGradient4115"
       xlink:href="#linearGradient4098"
       gradientUnits="userSpaceOnUse"
       gradientTransform="matrix(1,0,0,0.95399516,-0.71194,-0.62220153)" />
    <linearGradient
       id="linearGradient4098">
      <stop
         id="stop4100"
         style="stop-color:#7c8181;stop-opacity:1"
         offset="0" />
      <stop
         id="stop4102"
         style="stop-color:#dfe0e0;stop-opacity:1"
         offset="1" />
    </linearGradient>
    <radialGradient
       cx="48"
       cy="39"
       r="10"
       fx="48"
       fy="39"
       id="radialGradient4020"
       xlink:href="#linearGradient3715-05"
       gradientUnits="userSpaceOnUse"
       gradientTransform="matrix(1,0,0,0.52561489,0.28806,15.598457)" />
    <linearGradient
       x1="48"
       y1="80"
       x2="48"
       y2="-16"
       id="linearGradient3850"
       xlink:href="#linearGradient3711"
       gradientUnits="userSpaceOnUse"
       gradientTransform="translate(90,0)" />
    <linearGradient
       id="linearGradient3711">
      <stop
         id="stop3713"
         style="stop-color:#000000;stop-opacity:1"
         offset="0" />
      <stop
         id="stop3715"
         style="stop-color:#000000;stop-opacity:0"
         offset="1" />
    </linearGradient>
    <linearGradient
       gradientTransform="matrix(1,0,0,0.95399516,0.28806,-0.62220153)"
       x1="48"
       y1="80"
       x2="48"
       y2="8"
       id="linearGradient3675"
       xlink:href="#linearGradient3653"
       gradientUnits="userSpaceOnUse" />
    <linearGradient
       id="linearGradient3653">
      <stop
         id="stop3655"
         style="stop-color:#d4d4d4;stop-opacity:1"
         offset="0" />
      <stop
         id="stop3657"
         style="stop-color:#ededed;stop-opacity:1"
         offset="1" />
    </linearGradient>
    <linearGradient
       x1="48"
       y1="20.220806"
       x2="48"
       y2="138.66119"
       id="linearGradient3613"
       xlink:href="#linearGradient3642"
       gradientUnits="userSpaceOnUse" />
    <linearGradient
       id="linearGradient3642">
      <stop
         id="stop3644"
         style="stop-color:#06f9ff;stop-opacity:1"
         offset="0" />
      <stop
         id="stop3646"
         style="stop-color:#06f9ff;stop-opacity:0"
         offset="1" />
    </linearGradient>
    <clipPath
       id="clipPath3613">
      <rect
         width="84"
         height="84"
         rx="6"
         ry="6"
         x="6"
         y="6"
         id="rect3615"
         style="fill:#ffffff;fill-opacity:1;fill-rule:nonzero;stroke:none" />
    </clipPath>
    <filter
       style="color-interpolation-filters:sRGB"
       x="-0.192"
       y="-0.192"
       width="1.3839999"
       height="1.3839999"
       id="filter3794">
      <feGaussianBlur
         id="feGaussianBlur3796"
         stdDeviation="5.28" />
    </filter>
    <radialGradient
       cx="53.142967"
       cy="120.42535"
       r="16"
       fx="53.142967"
       fy="120.42535"
       id="radialGradient3906"
       xlink:href="#linearGradient3919"
       gradientUnits="userSpaceOnUse"
       gradientTransform="matrix(1.5000002,0,0,1.058338,-27.42641,-35.535394)" />
    <linearGradient
       id="linearGradient3919">
      <stop
         id="stop3921"
         style="stop-color:#000000;stop-opacity:0.38095239"
         offset="0" />
      <stop
         id="stop3923"
         style="stop-color:#000000;stop-opacity:0.23255815"
         offset="0.78125" />
      <stop
         id="stop3925"
         style="stop-color:#000000;stop-opacity:1"
         offset="1" />
    </linearGradient>
    <linearGradient
       x1="15.999999"
       y1="85.0625"
       x2="20.178572"
       y2="85.0625"
       id="linearGradient3556"
       xlink:href="#linearGradient3376-2"
       gradientUnits="userSpaceOnUse" />
    <linearGradient
       id="linearGradient3376-2">
      <stop
         id="stop3378-8"
         style="stop-color:#767676;stop-opacity:1"
         offset="0" />
      <stop
         id="stop3380-0"
         style="stop-color:#fdfdfd;stop-opacity:1"
         offset="1" />
    </linearGradient>
    <radialGradient
       cx="18.089285"
       cy="85.0625"
       r="2.0892856"
       fx="18.089285"
       fy="85.0625"
       id="radialGradient2984"
       xlink:href="#linearGradient3366-5"
       gradientUnits="userSpaceOnUse"
       gradientTransform="matrix(1,0,0,1.0042736,0,-0.3635233)" />
    <linearGradient
       id="linearGradient3366-5">
      <stop
         id="stop3368-6"
         style="stop-color:#c1ff97;stop-opacity:1"
         offset="0" />
      <stop
         id="stop3370-5"
         style="stop-color:#30c700;stop-opacity:1"
         offset="1" />
    </linearGradient>
    <radialGradient
       cx="12"
       cy="64.020409"
       r="4"
       fx="12"
       fy="64.020409"
       id="radialGradient3886"
       xlink:href="#linearGradient3880"
       gradientUnits="userSpaceOnUse"
       gradientTransform="matrix(1.0714286,0,0,0.4375,-95.741917,-6.7054734)" />
    <linearGradient
       id="linearGradient3880">
      <stop
         id="stop3882"
         style="stop-color:#59d338;stop-opacity:1"
         offset="0" />
      <stop
         id="stop3884"
         style="stop-color:#289140;stop-opacity:1"
         offset="1" />
    </linearGradient>
    <radialGradient
       cx="48"
       cy="62.5"
       r="28"
       fx="48"
       fy="62.5"
       id="radialGradient4115"
       xlink:href="#linearGradient3715-05"
       gradientUnits="userSpaceOnUse"
       gradientTransform="matrix(1,0,0,0.03061224,-94.706203,49.686618)" />
    <linearGradient
       gradientTransform="translate(-94.884775,-11.142973)"
       x1="27.828682"
       y1="65.136421"
       x2="27.828682"
       y2="56.170937"
       id="linearGradient4078"
       xlink:href="#linearGradient3711"
       gradientUnits="userSpaceOnUse" />
    <linearGradient
       x1="27.321428"
       y1="61.39732"
       x2="27.321428"
       y2="69.628479"
       id="linearGradient3977"
       xlink:href="#linearGradient3715-05"
       gradientUnits="userSpaceOnUse"
       gradientTransform="translate(-93.884775,-10.607259)" />
    <linearGradient
       gradientTransform="translate(-94.884775,-11.142973)"
       x1="58.92857"
       y1="72.178574"
       x2="58.92857"
       y2="61.399658"
       id="linearGradient4088"
       xlink:href="#linearGradient4082"
       gradientUnits="userSpaceOnUse" />
    <linearGradient
       id="linearGradient4082">
      <stop
         id="stop4084"
         style="stop-color:#000000;stop-opacity:1"
         offset="0" />
      <stop
         id="stop4086"
         style="stop-color:#1f1f1f;stop-opacity:1"
         offset="1" />
    </linearGradient>
    <linearGradient
       gradientTransform="translate(-94.884775,-11.142973)"
       x1="48"
       y1="66.468658"
       x2="48"
       y2="51.892151"
       id="linearGradient3254"
       xlink:href="#linearGradient3819"
       gradientUnits="userSpaceOnUse" />
    <linearGradient
       id="linearGradient3819">
      <stop
         id="stop3821"
         style="stop-color:#969696;stop-opacity:1"
         offset="0" />
      <stop
         id="stop3823"
         style="stop-color:#808080;stop-opacity:0"
         offset="1" />
    </linearGradient>
    <linearGradient
       gradientTransform="translate(-94.884775,-11.142973)"
       x1="48"
       y1="90"
       x2="48"
       y2="5.9877172"
       id="linearGradient3251"
       xlink:href="#linearGradient3622"
       gradientUnits="userSpaceOnUse" />
    <linearGradient
       id="linearGradient3622">
      <stop
         id="stop3624"
         style="stop-color:#bebebe;stop-opacity:1"
         offset="0" />
      <stop
         id="stop3626"
         style="stop-color:#e6e6e6;stop-opacity:1"
         offset="1" />
    </linearGradient>
    <clipPath
       id="clipPath3782">
      <path
         d="M 20.15625,18 C 18.969107,18 18,18.892 18,20 l 0,70 60,0 0,-70 c 0,-1.108 -0.969107,-2 -2.15625,-2 l -55.6875,0 z"
         inkscape:connector-curvature="0"
         id="path3784"
         style="fill:#ff00ff;fill-opacity:1;stroke:none" />
    </clipPath>
    <filter
       style="color-interpolation-filters:sRGB"
       x="-0.112"
       y="-0.083999999"
       width="1.224"
       height="1.168"
       id="filter4143">
      <feGaussianBlur
         id="feGaussianBlur4145"
         stdDeviation="2.8" />
    </filter>
    <linearGradient
       x1="48"
       y1="61.848045"
       x2="48"
       y2="11.465083"
       id="linearGradient3642-8"
       xlink:href="#linearGradient4129"
       gradientUnits="userSpaceOnUse"
       gradientTransform="matrix(0.903795,0,0,0.75997667,-112.99023,28.168725)" />
    <linearGradient
       id="linearGradient4129">
      <stop
         id="stop4131"
         style="stop-color:#0c0c0c;stop-opacity:1"
         offset="0" />
      <stop
         id="stop4133"
         style="stop-color:#2c2c2c;stop-opacity:1"
         offset="0.08692967" />
      <stop
         id="stop4135"
         style="stop-color:#353535;stop-opacity:1"
         offset="0.09783975" />
      <stop
         id="stop4137-9"
         style="stop-color:#383838;stop-opacity:1"
         offset="0.5971998" />
      <stop
         id="stop4139-6"
         style="stop-color:#484848;stop-opacity:1"
         offset="0.60162377" />
      <stop
         id="stop4141"
         style="stop-color:#151515;stop-opacity:1"
         offset="1" />
    </linearGradient>
    <linearGradient
       x1="48"
       y1="90"
       x2="48"
       y2="5.9877172"
       id="linearGradient3251-3"
       xlink:href="#linearGradient3622"
       gradientUnits="userSpaceOnUse"
       gradientTransform="translate(-117.60807,22.687975)" />
    <linearGradient
       x1="48"
       y1="66.468658"
       x2="48"
       y2="51.892151"
       id="linearGradient3254-0"
       xlink:href="#linearGradient3819"
       gradientUnits="userSpaceOnUse"
       gradientTransform="matrix(1,0,0,1.345164,-117.60807,3.429773)" />
    <linearGradient
       x1="58.92857"
       y1="72.178574"
       x2="58.92857"
       y2="61.399658"
       id="linearGradient4088-6"
       xlink:href="#linearGradient4082"
       gradientUnits="userSpaceOnUse"
       gradientTransform="translate(-117.60807,22.687975)" />
    <linearGradient
       x1="27.321428"
       y1="61.39732"
       x2="27.321428"
       y2="69.628479"
       id="linearGradient3977-2"
       xlink:href="#linearGradient3715-05"
       gradientUnits="userSpaceOnUse"
       gradientTransform="translate(-102.80151,36.02352)" />
    <linearGradient
       x1="27.828682"
       y1="65.136421"
       x2="27.828682"
       y2="56.170937"
       id="linearGradient4078-8"
       xlink:href="#linearGradient3711"
       gradientUnits="userSpaceOnUse"
       gradientTransform="translate(-117.60807,22.687975)" />
    <radialGradient
       cx="48"
       cy="62.5"
       r="28"
       fx="48"
       fy="62.5"
       id="radialGradient4115-8"
       xlink:href="#linearGradient3715-05"
       gradientUnits="userSpaceOnUse"
       gradientTransform="matrix(1,0,0,0.03061224,-117.4295,83.517567)" />
    <radialGradient
       cx="12"
       cy="64.020409"
       r="4"
       fx="12"
       fy="64.020409"
       id="radialGradient3886-9"
       xlink:href="#linearGradient3880"
       gradientUnits="userSpaceOnUse"
       gradientTransform="matrix(1.0714286,0,0,0.4375,-118.46521,27.125475)" />
    <linearGradient
       x1="15.999999"
       y1="85.0625"
       x2="20.178572"
       y2="85.0625"
       id="linearGradient3556-9"
       xlink:href="#linearGradient3376-2"
       gradientUnits="userSpaceOnUse" />
    <radialGradient
       cx="18.089285"
       cy="85.0625"
       r="2.0892856"
       fx="18.089285"
       fy="85.0625"
       id="radialGradient2984-0"
       xlink:href="#linearGradient3366-5"
       gradientUnits="userSpaceOnUse"
       gradientTransform="matrix(1,0,0,1.0042736,0,-0.3635233)" />
    <clipPath
       clipPathUnits="userSpaceOnUse"
       id="clipPath5830">
      <path
         id="path5832"
         d="m -99.283677,29.248706 c -6.508283,0 -11.728043,5.109281 -11.728043,11.424568 l 2e-4,57.800944 c 0,6.315102 5.21956,11.394262 11.728039,11.394262 l 59.58774,0 c 6.508284,0 11.728041,-5.07916 11.728041,-11.394262 l 0,-57.800944 c 0,-6.315097 -5.219757,-11.424568 -11.728041,-11.424568 l -59.58774,1.9e-4 z"
         style="fill:#b3b3b3"
         inkscape:connector-curvature="0" />
    </clipPath>
  </defs>
  <metadata
     id="metadata7">
    <rdf:RDF>
      <cc:Work
         rdf:about="">
        <dc:format>image/svg+xml</dc:format>
        <dc:type
           rdf:resource="http://purl.org/dc/dcmitype/StillImage" />
        <dc:title></dc:title>
      </cc:Work>
    </rdf:RDF>
  </metadata>
  <rect
     style="fill-opacity:0.01960802"
     x="3.3534"
     y="2.9899757"
     width="89.624001"
     height="89.977997"
     ry="12.724"
     id="rect5263-0" />
  <rect
     style="fill-opacity:0.03921599"
     x="3.9589"
     y="3.6000221"
     width="88.413002"
     height="88.762001"
     ry="12.552"
     id="rect5261-6" />
  <rect
     style="fill-opacity:0.07843101"
     x="4.5644999"
     y="4.2100072"
     width="87.202003"
     height="87.545998"
     ry="12.38"
     id="rect5259-9" />
  <rect
     style="fill-opacity:0.15685999"
     x="5.1701002"
     y="4.8199925"
     width="85.990997"
     height="86.330002"
     ry="12.208"
     id="rect5257-5" />
  <path
     inkscape:connector-curvature="0"
     style="fill:#b3b3b3"
     d="m 17.75,5.4062 c -6.642,0 -11.969,5.3948 -11.969,12.063 l 2e-4,61.031 c 0,6.668 5.3268,12.031 11.969,12.031 l 60.812,0 c 6.642,0 11.969,-5.363 11.969,-12.031 l 0,-61.031 c 0,-6.668 -5.327,-12.063 -11.969,-12.063 l -60.812,2e-4 z"
     id="rect2419" />
  <g
     id="g5780"
     transform="matrix(1.0205455,0,0,1.0558824,119.07351,-25.476994)"
     clip-path="url(#clipPath5830)">
    <rect
       width="75.918777"
       height="63.838039"
       rx="5.42277"
       ry="4.5598602"
       x="-107.56746"
       y="32.728584"
       id="rect3631"
       style="fill:url(#linearGradient3642-8);fill-opacity:1;fill-rule:nonzero;stroke:none" />
    <rect
       width="66"
       height="1"
       x="-102.60807"
       y="70.687973"
       id="rect3650"
       style="fill:#111111;fill-opacity:1;stroke:none" />
    <rect
       width="8"
       height="4"
       x="-73.60807"
       y="71.687973"
       id="rect3804"
       style="fill:#111111;fill-opacity:1;stroke:none" />
    <rect
       width="54"
       height="1"
       rx="0.5"
       ry="0.5"
       x="-96.60807"
       y="38.687977"
       id="rect4199"
       style="fill:#000000;fill-opacity:1;stroke:none" />
    <path
       d="m -105.60807,28.687975 c -3.324,0 -6,2.676 -6,6 l 0,38 0,24 c 0,3.324005 2.676,5.999995 6,5.999995 l 72,0 c 3.324,0 6,-2.67599 6,-5.999995 l 0,-24 0,-38 c 0,-3.324 -2.676,-6 -6,-6 l -72,0 z m 8.15625,8 55.6875,0 c 1.187143,0 2.15625,0.892 2.15625,2 l 0,32 -2,2 0,6 0,6 -56,0 0,-6 0,-6 -2,-2 0,-32 c 0,-1.108 0.969107,-2 2.15625,-2 z"
       inkscape:connector-curvature="0"
       id="rect2419-6"
       style="fill:url(#linearGradient3251-3);fill-opacity:1;fill-rule:nonzero;stroke:none" />
    <path
       d="m -111.60807,70.687975 0,32.283935 c 0,4.47133 2.676,8.07098 6,8.07098 l 72,0 c 3.324,0 6,-3.59965 6,-8.07098 l 0,-32.283935 c 0,4.471325 -2.676,8.070984 -6,8.070984 l -4,0 -4,0 0,8.070984 -56,0 0,-8.070984 -4,0 -4,0 c -3.324,0 -6,-3.599659 -6,-8.070984 z"
       inkscape:connector-curvature="0"
       id="path3237"
       style="display:inline;opacity:0.98000004;fill:url(#linearGradient3254-0);fill-opacity:1;fill-rule:nonzero;stroke:none" />
    <path
       d="m -98.45182,35.687975 c -1.187143,0 -2.15625,0.892 -2.15625,2 l 0,32 1,1 0,-32 c 0,-1.108 0.969107,-2 2.15625,-2 l 55.6875,0 c 1.187143,0 2.15625,0.892 2.15625,2 l 0,32 1,-1 0,-32 c 0,-1.108 -0.969107,-2 -2.15625,-2 l -57.6875,0 z m -0.15625,36 0,6 -1,1 2,0 0,-6 -1,-1 z m 58,0 -1,1 0,6 2,0 -1,-1 0,-6 z"
       inkscape:connector-curvature="0"
       id="path3837"
       style="opacity:0.6;fill:#ffffff;fill-opacity:1;fill-rule:nonzero;stroke:none" />
    <path
       d="m -97.60807,84.687975 c 0,5.54 12.488,10 28,10 15.512,0 28,-4.46 28,-10 l -56,0 z"
       inkscape:connector-curvature="0"
       id="path4080"
       style="display:inline;fill:url(#linearGradient4088-6);fill-opacity:1;stroke:none" />
    <path
       d="m -97.60807,78.687975 0,6 c 0,5.54 12.488,10 28,10 15.512,0 28,-4.46 28,-10 l 0,-6 -1,0 0,1 0,0.4375 0,4.5625 c 0,1.005494 -0.569544,2.045504 -1.84375,3.125 -1.274206,1.079496 -3.233962,2.123736 -5.6875,3 -4.907077,1.752527 -11.809563,2.875 -19.46875,2.875 -7.659187,0 -14.561673,-1.122473 -19.46875,-2.875 -2.453538,-0.876264 -4.413294,-1.920504 -5.6875,-3 -1.274206,-1.079496 -1.84375,-2.119506 -1.84375,-3.125 l 0,-4.5625 0,-0.4375 0,-1 -1,0 z"
       inkscape:connector-curvature="0"
       id="path4060"
       style="display:inline;fill:url(#linearGradient4078-8);fill-opacity:1;stroke:none" />
    <rect
       width="54"
       height="1"
       x="-96.60807"
       y="83.687973"
       id="rect4070"
       style="fill:#000000;fill-opacity:1;stroke:none" />
    <path
       d="m -98.60807,78.687975 0,7 c 0,5.54 12.934,10 29,10 16.066,0 29,-4.46 29,-10 l 0,-7 -1,0 0,6 c 0,5.54 -12.488,10 -28,10 -15.512,0 -28,-4.46 -28,-10 l 0,-6 -1,0 z"
       inkscape:connector-curvature="0"
       id="path4117"
       style="display:inline;opacity:0.4;fill:#ffffff;fill-opacity:1;stroke:none" />
    <path
       d="m -111.60807,71.687975 0,1 c 0,3.324 2.676,6 6,6 l 8,0 0,-1 -8,0 c -3.324,0 -6,-2.676 -6,-6 z m 84,0 c 0,3.324 -2.676,6 -6,6 l -8,0 0,1 8,0 c 3.324,0 6,-2.676 6,-6 l 0,-1 z"
       inkscape:connector-curvature="0"
       id="path3974"
       style="opacity:0.5;fill:#ffffff;fill-opacity:1;fill-rule:nonzero;stroke:none" />
    <path
       d="m -97.429499,84.573689 c 0,0.576113 0.06646,1.153092 0.15625,1.714286 l 55.6875,0 c 0.08979,-0.561194 0.15625,-1.138173 0.15625,-1.714286 l -56,0 z"
       inkscape:connector-curvature="0"
       id="path4104"
       style="display:inline;fill:url(#radialGradient4115-8);fill-opacity:1;stroke:none" />
    <rect
       width="8"
       height="4"
       rx="1"
       ry="1"
       x="-109.60807"
       y="53.687977"
       id="rect3888"
       style="display:inline;opacity:0.4;fill:#ffffff;fill-opacity:1;stroke:none" />
    <rect
       width="7.5"
       height="3.5"
       rx="0.53571433"
       ry="0.4375"
       x="-109.35807"
       y="52.937977"
       id="rect3878"
       style="display:inline;fill:url(#radialGradient3886-9);fill-opacity:1;stroke:#008033;stroke-width:0.5;stroke-miterlimit:4;stroke-dasharray:none;stroke-dashoffset:0" />
    <path
       d="m -108.85807,58.687975 c -0.4155,0 -0.75,0.3345 -0.75,0.75 l 0,2.5 c 0,0.4155 0.3345,0.75 0.75,0.75 -0.4155,0 -0.75,0.3345 -0.75,0.75 l 0,2.5 c 0,0.4155 0.3345,0.75 0.75,0.75 l 2.5,0 c 0.4155,0 0.75,-0.3345 0.75,-0.75 0,0.4155 0.3345,0.75 0.75,0.75 l 2.5,0 c 0.4155,0 0.75,-0.3345 0.75,-0.75 l 0,-2.5 c 0,-0.4155 -0.3345,-0.75 -0.75,-0.75 0.4155,0 0.75,-0.3345 0.75,-0.75 l 0,-2.5 c 0,-0.4155 -0.3345,-0.75 -0.75,-0.75 l -2.5,0 c -0.4155,0 -0.75,0.3345 -0.75,0.75 0,-0.4155 -0.3345,-0.75 -0.75,-0.75 l -2.5,0 z m 3.25,3.25 c 0,0.4155 0.3345,0.75 0.75,0.75 -0.4155,0 -0.75,0.3345 -0.75,0.75 0,-0.4155 -0.3345,-0.75 -0.75,-0.75 0.4155,0 0.75,-0.3345 0.75,-0.75 z"
       inkscape:connector-curvature="0"
       id="rect3987"
       style="display:inline;opacity:0.1837607;fill:#000000;fill-opacity:1;stroke:none" />
    <rect
       width="3"
       height="3"
       rx="0.5"
       ry="0.5"
       x="-65.687973"
       y="-109.60807"
       transform="matrix(0,-1,1,0,0,0)"
       id="rect4019"
       style="display:inline;fill:#ffffff;fill-opacity:1;stroke:none" />
    <g
       transform="matrix(0.99997954,0,0,1,-125.10775,-11.812025)"
       id="g3318"
       style="display:inline">
      <path
         d="m 20.178571,85.0625 a 2.089286,2.0982148 0 1 1 -4.178572,0 2.089286,2.0982148 0 1 1 4.178572,0 z"
         transform="matrix(0,1.6709402,1.6638297,0,-122.03844,53.282815)"
         id="path3374"
         style="fill:url(#linearGradient3556-9);fill-opacity:1;fill-rule:nonzero;stroke:none"
         inkscape:connector-curvature="0" />
      <path
         d="m 20.178571,85.0625 a 2.089286,2.0982148 0 1 1 -4.178572,0 2.089286,2.0982148 0 1 1 4.178572,0 z"
         transform="matrix(1.1923077,0,0,1.1872339,-2.0769275,-17.480158)"
         id="path3364"
         style="fill:url(#radialGradient2984-0);fill-opacity:1;fill-rule:nonzero;stroke:#000000;stroke-width:0.84050846;stroke-linecap:square;stroke-linejoin:miter;stroke-miterlimit:4;stroke-dasharray:none;stroke-dashoffset:0;stroke-opacity:0.53181823"
         inkscape:connector-curvature="0" />
    </g>
    <rect
       width="1"
       height="1"
       x="-109.60807"
       y="47.687977"
       id="rect4080"
       style="display:inline;fill:#ff7600;fill-opacity:1;stroke:none" />
    <g
       transform="translate(-117.60807,-3.312025)"
       id="text4082"
       style="font-style:normal;font-variant:normal;font-weight:bold;font-stretch:normal;font-size:1.31367779px;line-height:125%;font-family:'Liberation Sans';-inkscape-font-specification:'Abandoned Bitplane Bold';text-align:start;writing-mode:lr-tb;text-anchor:start;display:inline;fill:#4d4d4d;fill-opacity:1;stroke:none">
      <path
         d="M 10.638237,52 10.24439,51.304033 c 0.0021,0.01882 0.0041,0.03763 0.0058,0.05645 0.0017,0.01625 0.003,0.03378 0.0038,0.0526 0.0013,0.01882 0.0019,0.03678 0.0019,0.05388 l 0,0.53304 -0.168058,0 0,-0.903795 0.216167,0 0.399619,0.70174 c -0.0021,-0.01796 -0.0041,-0.03678 -0.0058,-0.05645 -0.0017,-0.01668 -0.0032,-0.03549 -0.0045,-0.05645 -8.56e-4,-0.02095 -0.0013,-0.04212 -0.0013,-0.0635 l 0,-0.525343 0.168059,0 0,0.903795 -0.22194,0"
         inkscape:connector-curvature="0"
         id="path4110" />
      <path
         d="m 11.325224,52.012829 c -0.05003,0 -0.09515,-0.0073 -0.135345,-0.02181 -0.03977,-0.01497 -0.07377,-0.03742 -0.10199,-0.06735 -0.02822,-0.03036 -0.04982,-0.06821 -0.06479,-0.113535 -0.01497,-0.04576 -0.02245,-0.09921 -0.02245,-0.160362 0,-0.06628 0.0088,-0.122087 0.0263,-0.167416 0.01796,-0.04533 0.04191,-0.08189 0.07184,-0.109687 0.03036,-0.02822 0.06521,-0.04854 0.104555,-0.06094 0.03934,-0.0124 0.08082,-0.0186 0.124441,-0.0186 0.05474,10e-7 0.101347,0.0096 0.139834,0.02886 0.03891,0.01882 0.07077,0.04533 0.09558,0.07954 0.0248,0.03421 0.04298,0.07526 0.05452,0.123157 0.01155,0.04747 0.01732,0.100065 0.01732,0.157795 l 0,0.0051 -0.445162,0 c 0,0.02908 0.0026,0.05623 0.0077,0.08146 0.0051,0.0248 0.01347,0.0464 0.02502,0.06479 0.01154,0.01796 0.02651,0.03229 0.0449,0.04298 0.01839,0.01026 0.04062,0.01539 0.06671,0.01539 0.03164,0 0.05752,-0.0066 0.07761,-0.01988 0.0201,-0.01368 0.03442,-0.03464 0.04298,-0.06286 l 0.169982,0.01475 c -0.0077,0.01967 -0.0186,0.04062 -0.03271,0.06286 -0.01369,0.02224 -0.03207,0.04276 -0.05517,0.06158 -0.02309,0.01839 -0.05196,0.03378 -0.08659,0.04618 -0.03421,0.01197 -0.0759,0.01796 -0.125081,0.01796 m 0,-0.606165 c -0.01839,10e-7 -0.03571,0.0032 -0.05196,0.0096 -0.01582,0.006 -0.02972,0.01582 -0.04169,0.02951 -0.01155,0.01326 -0.02095,0.03058 -0.02822,0.05196 -0.0073,0.02138 -0.01133,0.04704 -0.01219,0.07697 l 0.269407,0 c -0.0034,-0.05602 -0.01689,-0.09793 -0.04041,-0.125723 -0.02352,-0.02822 -0.05517,-0.04233 -0.09493,-0.04234"
         inkscape:connector-curvature="0"
         id="path4112" />
      <path
         d="m 11.949991,52.011546 c -0.05303,0 -0.09387,-0.01433 -0.122516,-0.04298 -0.02865,-0.02908 -0.04298,-0.07291 -0.04298,-0.131496 l 0,-0.409241 -0.08788,0 0,-0.121875 0.09686,0 0.05645,-0.162926 0.112894,0 0,0.162926 0.131496,0 0,0.121875 -0.131496,0 0,0.360491 c 0,0.03378 0.0064,0.0588 0.01924,0.07505 0.01283,0.01582 0.03271,0.02373 0.05965,0.02373 0.01112,0 0.02117,-8.55e-4 0.03015,-0.0026 0.009,-0.0017 0.01903,-0.0038 0.03015,-0.0064 l 0,0.111611 c -0.02224,0.0073 -0.04576,0.01262 -0.07056,0.01604 -0.0248,0.0038 -0.05196,0.0058 -0.08146,0.0058"
         inkscape:connector-curvature="0"
         id="path4114" />
      <path
         d="m 12.961548,52 -0.190509,0 -0.110328,-0.423353 c -0.0034,-0.01326 -0.0068,-0.02801 -0.01026,-0.04426 -0.0034,-0.01668 -0.0066,-0.03229 -0.0096,-0.04682 l -0.01026,-0.05132 c -0.0038,0.01711 -0.0077,0.03421 -0.01155,0.05132 -0.0034,0.01454 -0.0071,0.03015 -0.0109,0.04682 -0.0038,0.01668 -0.0075,0.03186 -0.0109,0.04554 L 12.485596,52 l -0.190508,0 -0.179605,-0.694043 0.169341,0 0.08788,0.407959 c 0.0026,0.01155 0.0053,0.02459 0.0083,0.03913 0.003,0.01411 0.0058,0.02737 0.0083,0.03977 0.003,0.01454 0.0062,0.02908 0.0096,0.04362 0.003,-0.01625 0.006,-0.03207 0.009,-0.04747 0.0026,-0.01326 0.0053,-0.02673 0.0083,-0.04041 0.003,-0.01368 0.0056,-0.02523 0.0077,-0.03464 l 0.109045,-0.407959 0.193075,0 0.10648,0.407959 c 0.003,0.01112 0.006,0.02373 0.009,0.03785 0.003,0.01411 0.0058,0.02737 0.0083,0.03977 0.003,0.01454 0.006,0.02951 0.009,0.0449 0.0034,-0.0154 0.0066,-0.03036 0.0096,-0.0449 0.0026,-0.0124 0.0053,-0.02566 0.0083,-0.03977 0.003,-0.01411 0.0058,-0.02673 0.0083,-0.03785 l 0.09173,-0.407959 0.166775,0 L 12.961548,52"
         inkscape:connector-curvature="0"
         id="path4116" />
      <path
         d="m 13.891642,51.652337 c -10e-7,0.05303 -0.0075,0.101562 -0.02245,0.145608 -0.01454,0.04405 -0.03656,0.0821 -0.06607,0.114177 -0.02951,0.03165 -0.06628,0.05645 -0.110328,0.07441 -0.04405,0.01753 -0.09536,0.0263 -0.153947,0.0263 -0.05645,0 -0.106266,-0.0088 -0.149457,-0.0263 -0.04319,-0.01753 -0.07954,-0.04212 -0.109045,-0.07377 -0.02908,-0.03165 -0.0511,-0.06949 -0.06607,-0.113536 -0.01497,-0.04447 -0.02245,-0.09344 -0.02245,-0.146891 0,-0.05174 0.0071,-0.09942 0.02117,-0.143042 0.01454,-0.04405 0.03635,-0.0821 0.06543,-0.114177 0.02908,-0.03207 0.06564,-0.05709 0.109687,-0.07505 0.04405,-0.01796 0.09557,-0.02694 0.154588,-0.02694 0.06243,10e-7 0.115673,0.009 0.159719,0.02694 0.04405,0.01796 0.07997,0.04298 0.107763,0.07505 0.02822,0.03165 0.04875,0.06949 0.06158,0.113536 0.01326,0.04362 0.01988,0.09151 0.01988,0.143683 m -0.188584,0 c -1e-6,-0.08253 -0.01347,-0.1424 -0.04041,-0.179604 -0.02694,-0.0372 -0.06607,-0.0558 -0.117385,-0.05581 -0.05303,10e-7 -0.09365,0.01882 -0.121874,0.05645 -0.02822,0.03763 -0.04234,0.09729 -0.04233,0.178963 -1e-6,0.04148 0.0036,0.07719 0.0109,0.107121 0.0077,0.02993 0.01839,0.05452 0.03207,0.07377 0.01368,0.01924 0.03015,0.03357 0.04939,0.04298 0.01924,0.009 0.04041,0.01347 0.0635,0.01347 0.02651,0 0.05003,-0.0045 0.07056,-0.01347 0.02095,-0.0094 0.03849,-0.02373 0.0526,-0.04298 0.01411,-0.01924 0.0248,-0.04383 0.03207,-0.07377 0.0073,-0.02993 0.0109,-0.06564 0.01091,-0.107121"
         inkscape:connector-curvature="0"
         id="path4118" />
      <path
         d="m 14.035326,52 0,-0.531116 c 0,-0.01497 -2.14e-4,-0.03079 -6.42e-4,-0.04747 0,-0.01668 -4.27e-4,-0.0325 -0.0013,-0.04747 -4.27e-4,-0.01539 -8.55e-4,-0.02908 -0.0013,-0.04105 -4.28e-4,-0.0124 -0.0011,-0.02138 -0.0019,-0.02694 l 0.171907,0 c 8.55e-4,0.0051 0.0017,0.01411 0.0026,0.02694 8.55e-4,0.0124 0.0017,0.02609 0.0026,0.04105 8.55e-4,0.01497 0.0015,0.02994 0.0019,0.0449 8.55e-4,0.01454 0.0013,0.0263 0.0013,0.03528 l 0.0026,0 c 0.009,-0.02523 0.01796,-0.04768 0.02694,-0.06735 0.009,-0.0201 0.01946,-0.03699 0.03143,-0.05067 0.0124,-0.01411 0.02715,-0.0248 0.04426,-0.03207 0.0171,-0.0077 0.03827,-0.01154 0.0635,-0.01155 0.01069,10e-7 0.02117,0.0011 0.03143,0.0032 0.01069,0.0017 0.01882,0.0038 0.02438,0.0064 l 0,0.150739 c -0.01155,-0.0026 -0.02331,-0.0047 -0.03528,-0.0064 -0.01155,-0.0021 -0.02544,-0.0032 -0.04169,-0.0032 -0.0449,10e-7 -0.07997,0.01817 -0.105197,0.05452 -0.0248,0.03635 -0.0372,0.09023 -0.0372,0.161644 l 0,0.340607 -0.180246,0"
         inkscape:connector-curvature="0"
         id="path4120" />
      <path
         d="m 14.989153,52 -0.185377,-0.314308 -0.07761,0.05388 0,0.260426 -0.180246,0 0,-0.951903 0.180246,0 0,0.545227 0.247598,-0.287367 0.193716,0 -0.243749,0.27069 L 15.186077,52 14.989153,52"
         inkscape:connector-curvature="0"
         id="path4122" />
    </g>
    <rect
       width="1"
       height="1"
       x="-109.60807"
       y="49.687977"
       id="rect4086"
       style="display:inline;fill:#ff0000;fill-opacity:1;stroke:none" />
    <g
       transform="translate(-117.60807,-3.312025)"
       id="text4088"
       style="font-style:normal;font-variant:normal;font-weight:bold;font-stretch:normal;font-size:1.31367779px;line-height:125%;font-family:'Liberation Sans';-inkscape-font-specification:'Abandoned Bitplane Bold';text-align:start;writing-mode:lr-tb;text-anchor:start;display:inline;fill:#4d4d4d;fill-opacity:1;stroke:none">
      <path
         d="m 10.087878,54 0,-0.903795 0.71072,0 0,0.146249 -0.521494,0 0,0.227072 0.482366,0 0,0.146249 -0.482366,0 0,0.237976 0.547793,0 0,0.146249 -0.737019,0"
         inkscape:connector-curvature="0"
         id="path4099" />
      <path
         d="m 10.969222,54 0,-0.531116 c 0,-0.01497 -2.14e-4,-0.03079 -6.41e-4,-0.04747 0,-0.01668 -4.28e-4,-0.0325 -0.0013,-0.04747 -4.28e-4,-0.01539 -8.55e-4,-0.02908 -0.0013,-0.04105 -4.28e-4,-0.0124 -0.0011,-0.02138 -0.0019,-0.02694 l 0.171907,0 c 8.55e-4,0.0051 0.0017,0.01411 0.0026,0.02694 8.55e-4,0.0124 0.0017,0.02609 0.0026,0.04105 8.55e-4,0.01497 0.0015,0.02994 0.0019,0.0449 8.55e-4,0.01454 0.0013,0.0263 0.0013,0.03528 l 0.0026,0 c 0.009,-0.02523 0.01796,-0.04768 0.02694,-0.06735 0.009,-0.0201 0.01946,-0.03699 0.03143,-0.05067 0.0124,-0.01411 0.02715,-0.0248 0.04426,-0.03207 0.01711,-0.0077 0.03827,-0.01154 0.0635,-0.01155 0.01069,10e-7 0.02117,0.0011 0.03143,0.0032 0.01069,0.0017 0.01882,0.0038 0.02438,0.0064 l 0,0.150739 c -0.01155,-0.0026 -0.02331,-0.0047 -0.03528,-0.0064 -0.01155,-0.0021 -0.02544,-0.0032 -0.04169,-0.0032 -0.0449,10e-7 -0.07997,0.01817 -0.105197,0.05452 -0.0248,0.03635 -0.0372,0.09023 -0.0372,0.161644 l 0,0.340607 -0.180246,0"
         inkscape:connector-curvature="0"
         id="path4101" />
      <path
         d="m 11.479812,54 0,-0.531116 c 0,-0.01497 -2.14e-4,-0.03079 -6.42e-4,-0.04747 0,-0.01668 -4.27e-4,-0.0325 -0.0013,-0.04747 -4.28e-4,-0.01539 -8.56e-4,-0.02908 -0.0013,-0.04105 -4.28e-4,-0.0124 -0.0011,-0.02138 -0.0019,-0.02694 l 0.171907,0 c 8.55e-4,0.0051 0.0017,0.01411 0.0026,0.02694 8.55e-4,0.0124 0.0017,0.02609 0.0026,0.04105 8.55e-4,0.01497 0.0015,0.02994 0.0019,0.0449 8.55e-4,0.01454 0.0013,0.0263 0.0013,0.03528 l 0.0026,0 c 0.009,-0.02523 0.01796,-0.04768 0.02694,-0.06735 0.009,-0.0201 0.01946,-0.03699 0.03143,-0.05067 0.0124,-0.01411 0.02715,-0.0248 0.04426,-0.03207 0.0171,-0.0077 0.03827,-0.01154 0.0635,-0.01155 0.01069,10e-7 0.02117,0.0011 0.03143,0.0032 0.01069,0.0017 0.01882,0.0038 0.02437,0.0064 l 0,0.150739 c -0.01155,-0.0026 -0.02331,-0.0047 -0.03528,-0.0064 -0.01155,-0.0021 -0.02544,-0.0032 -0.04169,-0.0032 -0.0449,10e-7 -0.07997,0.01817 -0.105197,0.05452 -0.0248,0.03635 -0.0372,0.09023 -0.0372,0.161644 l 0,0.340607 -0.180246,0"
         inkscape:connector-curvature="0"
         id="path4103" />
      <path
         d="m 12.649806,53.652337 c -10e-7,0.05303 -0.0075,0.101562 -0.02245,0.145608 -0.01454,0.04405 -0.03656,0.0821 -0.06607,0.114177 -0.02951,0.03165 -0.06628,0.05645 -0.110329,0.07441 -0.04405,0.01753 -0.09536,0.0263 -0.153946,0.0263 -0.05645,0 -0.106266,-0.0088 -0.149457,-0.0263 -0.04319,-0.01753 -0.07954,-0.04212 -0.109045,-0.07377 -0.02908,-0.03165 -0.0511,-0.06949 -0.06607,-0.113536 -0.01497,-0.04447 -0.02245,-0.09344 -0.02245,-0.146891 -1e-6,-0.05174 0.0071,-0.09942 0.02117,-0.143042 0.01454,-0.04405 0.03635,-0.0821 0.06543,-0.114177 0.02908,-0.03207 0.06564,-0.05709 0.109687,-0.07505 0.04405,-0.01796 0.09558,-0.02694 0.154588,-0.02694 0.06243,10e-7 0.115674,0.009 0.15972,0.02694 0.04405,0.01796 0.07997,0.04298 0.107763,0.07505 0.02822,0.03165 0.04875,0.06949 0.06158,0.113536 0.01326,0.04362 0.01988,0.09151 0.01989,0.143683 m -0.188584,0 c -10e-7,-0.08253 -0.01347,-0.1424 -0.04041,-0.179604 -0.02694,-0.0372 -0.06607,-0.0558 -0.117385,-0.05581 -0.05303,10e-7 -0.09365,0.01882 -0.121874,0.05645 -0.02822,0.03763 -0.04234,0.09729 -0.04233,0.178963 -10e-7,0.04148 0.0036,0.07719 0.0109,0.107121 0.0077,0.02993 0.01839,0.05452 0.03207,0.07377 0.01368,0.01924 0.03015,0.03357 0.04939,0.04298 0.01924,0.009 0.04041,0.01347 0.0635,0.01347 0.02651,0 0.05003,-0.0045 0.07056,-0.01347 0.02095,-0.0094 0.03849,-0.02373 0.0526,-0.04298 0.01411,-0.01924 0.0248,-0.04383 0.03207,-0.07377 0.0073,-0.02993 0.0109,-0.06564 0.0109,-0.107121"
         inkscape:connector-curvature="0"
         id="path4105" />
      <path
         d="m 12.79349,54 0,-0.531116 c 0,-0.01497 -2.14e-4,-0.03079 -6.42e-4,-0.04747 0,-0.01668 -4.27e-4,-0.0325 -0.0013,-0.04747 -4.27e-4,-0.01539 -8.55e-4,-0.02908 -0.0013,-0.04105 -4.27e-4,-0.0124 -0.0011,-0.02138 -0.0019,-0.02694 l 0.171907,0 c 8.55e-4,0.0051 0.0017,0.01411 0.0026,0.02694 8.55e-4,0.0124 0.0017,0.02609 0.0026,0.04105 8.55e-4,0.01497 0.0015,0.02994 0.0019,0.0449 8.55e-4,0.01454 0.0013,0.0263 0.0013,0.03528 l 0.0026,0 c 0.009,-0.02523 0.01796,-0.04768 0.02694,-0.06735 0.009,-0.0201 0.01946,-0.03699 0.03143,-0.05067 0.0124,-0.01411 0.02715,-0.0248 0.04426,-0.03207 0.01711,-0.0077 0.03827,-0.01154 0.0635,-0.01155 0.01069,10e-7 0.02117,0.0011 0.03143,0.0032 0.01069,0.0017 0.01882,0.0038 0.02437,0.0064 l 0,0.150739 c -0.01155,-0.0026 -0.02331,-0.0047 -0.03528,-0.0064 -0.01155,-0.0021 -0.02544,-0.0032 -0.04169,-0.0032 -0.0449,10e-7 -0.07997,0.01817 -0.105197,0.05452 -0.0248,0.03635 -0.0372,0.09023 -0.0372,0.161644 l 0,0.340607 -0.180246,0"
         inkscape:connector-curvature="0"
         id="path4107" />
    </g>
    <rect
       width="1"
       height="1"
       x="-109.60807"
       y="45.687977"
       id="rect4092"
       style="display:inline;fill:#ff7600;fill-opacity:1;stroke:none" />
    <g
       transform="translate(-117.60807,-3.312025)"
       id="text4094"
       style="font-style:normal;font-variant:normal;font-weight:bold;font-stretch:normal;font-size:1.31367779px;line-height:125%;font-family:'Liberation Sans';-inkscape-font-specification:'Abandoned Bitplane Bold';text-align:start;writing-mode:lr-tb;text-anchor:start;display:inline;fill:#4d4d4d;fill-opacity:1;stroke:none">
      <path
         d="m 10.831312,49.382289 c -1e-6,0.03892 -0.0066,0.07655 -0.01989,0.112894 -0.01283,0.03592 -0.03271,0.06778 -0.05965,0.09558 -0.02694,0.0278 -0.06115,0.05003 -0.102631,0.06671 -0.04148,0.01625 -0.09066,0.02437 -0.147533,0.02437 l -0.224505,0 0,0.318156 -0.189226,0 0,-0.903795 0.406034,0 c 0.05773,10e-7 0.107762,0.0071 0.150098,0.02117 0.04233,0.01369 0.0774,0.03314 0.105197,0.05837 0.02779,0.02523 0.04832,0.05538 0.06158,0.09044 0.01368,0.03507 0.02052,0.07377 0.02053,0.116101 m -0.190509,0.0032 c -1e-6,-0.04661 -0.01411,-0.08189 -0.04234,-0.105838 -0.0278,-0.02437 -0.0697,-0.03656 -0.125723,-0.03656 l -0.19564,0 0,0.29314 0.200772,0 c 0.02822,0 0.05238,-0.0036 0.07248,-0.01091 0.02053,-0.0073 0.03742,-0.01753 0.05067,-0.03079 0.01368,-0.01326 0.02373,-0.02908 0.03015,-0.04747 0.0064,-0.01881 0.0096,-0.03934 0.0096,-0.06158"
         inkscape:connector-curvature="0"
         id="path4125" />
      <path
         d="m 11.628627,49.652337 c -10e-7,0.05303 -0.0075,0.101562 -0.02245,0.145608 -0.01454,0.04405 -0.03656,0.0821 -0.06607,0.114177 -0.02951,0.03165 -0.06628,0.05645 -0.110329,0.07441 -0.04405,0.01753 -0.09536,0.0263 -0.153946,0.0263 -0.05645,0 -0.106267,-0.0088 -0.149457,-0.0263 -0.04319,-0.01753 -0.07954,-0.04212 -0.109045,-0.07377 -0.02908,-0.03165 -0.0511,-0.06949 -0.06607,-0.113536 -0.01497,-0.04447 -0.02245,-0.09344 -0.02245,-0.146891 0,-0.05174 0.0071,-0.09942 0.02117,-0.143042 0.01454,-0.04405 0.03635,-0.0821 0.06543,-0.114177 0.02908,-0.03207 0.06564,-0.05709 0.109687,-0.07505 0.04405,-0.01796 0.09558,-0.02694 0.154588,-0.02694 0.06243,10e-7 0.115673,0.009 0.15972,0.02694 0.04405,0.01796 0.07997,0.04298 0.107762,0.07505 0.02822,0.03165 0.04875,0.06949 0.06158,0.113536 0.01326,0.04362 0.01988,0.09151 0.01989,0.143683 m -0.188585,0 c 0,-0.08253 -0.01347,-0.1424 -0.04041,-0.179604 -0.02694,-0.0372 -0.06607,-0.0558 -0.117384,-0.05581 -0.05303,10e-7 -0.09365,0.01882 -0.121874,0.05645 -0.02822,0.03763 -0.04234,0.09729 -0.04234,0.178963 0,0.04148 0.0036,0.07719 0.01091,0.107121 0.0077,0.02993 0.01839,0.05452 0.03207,0.07377 0.01368,0.01924 0.03015,0.03357 0.04939,0.04298 0.01924,0.009 0.04041,0.01347 0.0635,0.01347 0.02651,0 0.05003,-0.0045 0.07056,-0.01347 0.02095,-0.0094 0.03849,-0.02373 0.0526,-0.04298 0.01411,-0.01924 0.0248,-0.04383 0.03207,-0.07377 0.0073,-0.02993 0.0109,-0.06564 0.0109,-0.107121"
         inkscape:connector-curvature="0"
         id="path4127" />
      <path
         d="m 12.5228,50 -0.190509,0 -0.110328,-0.423353 c -0.0034,-0.01326 -0.0068,-0.02801 -0.01026,-0.04426 -0.0034,-0.01668 -0.0066,-0.03229 -0.0096,-0.04682 l -0.01026,-0.05132 c -0.0038,0.01711 -0.0077,0.03421 -0.01155,0.05132 -0.0034,0.01454 -0.0071,0.03015 -0.0109,0.04682 -0.0038,0.01668 -0.0075,0.03186 -0.0109,0.04554 L 12.046849,50 l -0.190509,0 -0.179605,-0.694043 0.169342,0 0.08788,0.407959 c 0.0026,0.01155 0.0053,0.02459 0.0083,0.03913 0.003,0.01411 0.0058,0.02737 0.0083,0.03977 0.003,0.01454 0.0062,0.02908 0.0096,0.04362 0.003,-0.01625 0.006,-0.03207 0.009,-0.04747 0.0026,-0.01326 0.0053,-0.02673 0.0083,-0.04041 0.003,-0.01368 0.0056,-0.02523 0.0077,-0.03464 l 0.109045,-0.407959 0.193075,0 0.10648,0.407959 c 0.003,0.01112 0.006,0.02373 0.009,0.03785 0.003,0.01411 0.0058,0.02737 0.0083,0.03977 0.003,0.01454 0.006,0.02951 0.009,0.0449 0.0034,-0.0154 0.0066,-0.03036 0.0096,-0.0449 0.0026,-0.0124 0.0053,-0.02566 0.0083,-0.03977 0.003,-0.01411 0.0058,-0.02673 0.0083,-0.03785 l 0.09173,-0.407959 0.166775,0 L 12.5228,50"
         inkscape:connector-curvature="0"
         id="path4129" />
      <path
         d="m 13.077649,50.012829 c -0.05003,0 -0.09515,-0.0073 -0.135344,-0.02181 -0.03977,-0.01497 -0.07377,-0.03742 -0.10199,-0.06735 -0.02822,-0.03036 -0.04982,-0.06821 -0.06479,-0.113535 -0.01497,-0.04576 -0.02245,-0.09921 -0.02245,-0.160362 0,-0.06628 0.0088,-0.122087 0.0263,-0.167416 0.01796,-0.04533 0.04191,-0.08189 0.07184,-0.109687 0.03036,-0.02822 0.06521,-0.04854 0.104555,-0.06094 0.03934,-0.0124 0.08082,-0.0186 0.12444,-0.0186 0.05474,10e-7 0.101348,0.0096 0.139835,0.02886 0.03891,0.01882 0.07077,0.04533 0.09558,0.07954 0.0248,0.03421 0.04298,0.07526 0.05452,0.123157 0.01154,0.04747 0.01732,0.100065 0.01732,0.157795 l 0,0.0051 -0.445162,0 c -1e-6,0.02908 0.0026,0.05623 0.0077,0.08146 0.0051,0.0248 0.01347,0.0464 0.02502,0.06479 0.01155,0.01796 0.02651,0.03229 0.0449,0.04298 0.01839,0.01026 0.04063,0.01539 0.06671,0.01539 0.03164,0 0.05752,-0.0066 0.07761,-0.01988 0.0201,-0.01368 0.03442,-0.03464 0.04298,-0.06286 l 0.169983,0.01475 c -0.0077,0.01967 -0.0186,0.04062 -0.03271,0.06286 -0.01368,0.02224 -0.03207,0.04276 -0.05516,0.06158 -0.02309,0.01839 -0.05196,0.03378 -0.0866,0.04618 -0.03421,0.01197 -0.07591,0.01796 -0.125082,0.01796 m 0,-0.606165 c -0.01839,10e-7 -0.03571,0.0032 -0.05196,0.0096 -0.01582,0.006 -0.02972,0.01582 -0.04169,0.02951 -0.01155,0.01326 -0.02095,0.03058 -0.02822,0.05196 -0.0073,0.02138 -0.01133,0.04704 -0.01219,0.07697 l 0.269406,0 c -0.0034,-0.05602 -0.01689,-0.09793 -0.04041,-0.125723 -0.02352,-0.02822 -0.05516,-0.04233 -0.09493,-0.04234"
         inkscape:connector-curvature="0"
         id="path4131" />
      <path
         d="m 13.524736,50 0,-0.531116 c 0,-0.01497 -2.14e-4,-0.03079 -6.41e-4,-0.04747 0,-0.01668 -4.28e-4,-0.0325 -0.0013,-0.04747 -4.28e-4,-0.01539 -8.56e-4,-0.02908 -0.0013,-0.04105 -4.28e-4,-0.0124 -0.0011,-0.02138 -0.0019,-0.02694 l 0.171907,0 c 8.55e-4,0.0051 0.0017,0.01411 0.0026,0.02694 8.55e-4,0.0124 0.0017,0.02609 0.0026,0.04105 8.55e-4,0.01497 0.0015,0.02994 0.0019,0.0449 8.55e-4,0.01454 0.0013,0.0263 0.0013,0.03528 l 0.0026,0 c 0.009,-0.02523 0.01796,-0.04768 0.02694,-0.06735 0.009,-0.0201 0.01946,-0.03699 0.03143,-0.05067 0.0124,-0.01411 0.02715,-0.0248 0.04426,-0.03207 0.01711,-0.0077 0.03827,-0.01154 0.0635,-0.01155 0.01069,10e-7 0.02117,0.0011 0.03143,0.0032 0.01069,0.0017 0.01882,0.0038 0.02437,0.0064 l 0,0.150739 c -0.01155,-0.0026 -0.02331,-0.0047 -0.03528,-0.0064 -0.01155,-0.0021 -0.02544,-0.0032 -0.04169,-0.0032 -0.0449,10e-7 -0.07997,0.01817 -0.105197,0.05452 -0.0248,0.03635 -0.0372,0.09023 -0.0372,0.161644 l 0,0.340607 -0.180246,0"
         inkscape:connector-curvature="0"
         id="path4133" />
    </g>
    <rect
       width="3"
       height="3"
       rx="0.5"
       ry="0.5"
       x="-65.687973"
       y="-105.60807"
       transform="matrix(0,-1,1,0,0,0)"
       id="rect3995"
       style="display:inline;fill:#ffffff;fill-opacity:1;stroke:none" />
    <rect
       width="3"
       height="3"
       rx="0.5"
       ry="0.5"
       x="-61.687977"
       y="-109.60807"
       transform="matrix(0,-1,1,0,0,0)"
       id="rect3999"
       style="display:inline;fill:#ffffff;fill-opacity:1;stroke:none" />
    <rect
       width="3"
       height="3"
       rx="0.5"
       ry="0.5"
       x="-61.687977"
       y="-105.60807"
       transform="matrix(0,-1,1,0,0,0)"
       id="rect4004"
       style="display:inline;fill:#ffffff;fill-opacity:1;stroke:none" />
  </g>
  <path
     style="fill-opacity:0.11764999"
     inkscape:connector-curvature="0"
     d="m 5.7756,73.44 0,5.0663 c 0,6.668 5.3434,12.032 11.985,12.032 l 60.809,0 c 6.6418,0 11.985,-5.3645 11.985,-12.032 l 0,-5.0663 c 0,6.6681 -5.3434,12.032 -11.985,12.032 l -60.809,0 c -6.6418,0 -11.985,-5.3643 -11.985,-12.032 z"
     id="rect5265-0" />
  <path
     style="fill-opacity:0.09803898"
     inkscape:connector-curvature="0"
     d="m 5.7756,77.54 0,1.0133 c 0,6.668 5.3434,12.032 11.985,12.032 l 60.809,0 c 6.6418,0 11.985,-5.3645 11.985,-12.032 l 0,-1.0133 c 0,6.6681 -5.3434,12.032 -11.985,12.032 l -60.809,0 c -6.6418,0 -11.985,-5.3644 -11.985,-12.032 z"
     id="path5252-0" />
</svg>
