<?xml version="1.0" encoding="UTF-8" standalone="no"?>
<!-- Created with Inkscape (http://www.inkscape.org/) -->
<svg id="svg2" xmlns:rdf="http://www.w3.org/1999/02/22-rdf-syntax-ns#" xmlns="http://www.w3.org/2000/svg" height="96" width="96" version="1.1" xmlns:cc="http://creativecommons.org/ns#" xmlns:xlink="http://www.w3.org/1999/xlink" xmlns:dc="http://purl.org/dc/elements/1.1/">
 <defs id="defs4">
  <linearGradient id="linearGradient556">
   <stop id="stop557" stop-color="#fff" offset="0"/>
   <stop id="stop558" stop-color="#8f8f8f" offset="1"/>
  </linearGradient>
  <linearGradient id="linearGradient561">
   <stop id="stop562" stop-color="#72a6db" offset="0"/>
   <stop id="stop563" stop-color="#4974aa" offset="1"/>
  </linearGradient>
  <linearGradient id="linearGradient635">
   <stop id="stop636" stop-color="#fff" offset="0"/>
   <stop id="stop637" stop-color="#fff" stop-opacity=".17647" offset="1"/>
  </linearGradient>
  <linearGradient id="linearGradient3737-53">
   <stop id="stop3739-77" stop-color="#fff" offset="0"/>
   <stop id="stop3741-02" stop-color="#fff" stop-opacity="0" offset="1"/>
  </linearGradient>
  <clipPath id="clipPath3613-3">
   <rect id="rect3615-68" rx="6" ry="6" height="84" width="84" y="6" x="6" fill="#fff"/>
  </clipPath>
  <filter id="filter3794-44" height="1.384" width="1.384" color-interpolation-filters="sRGB" y="-.192" x="-.192">
   <feGaussianBlur id="feGaussianBlur3796-93" stdDeviation="5.28"/>
  </filter>
  <linearGradient id="linearGradient9863" y2="5.9877" gradientUnits="userSpaceOnUse" x2="48" gradientTransform="translate(66.551 977.14)" y1="90" x1="48">
   <stop id="stop4086" stop-color="#537d6b" offset="0"/>
   <stop id="stop4088" stop-color="#92bbaa" offset="1"/>
  </linearGradient>
  <linearGradient id="linearGradient9865" y2="109.11" xlink:href="#linearGradient3737-53" gradientUnits="userSpaceOnUse" x2="48" gradientTransform="translate(66.551 977.14)" y1="6" x1="48"/>
  <linearGradient id="linearGradient9867" y2="138.66" xlink:href="#linearGradient3737-53" gradientUnits="userSpaceOnUse" x2="48" y1="20.221" x1="48"/>
  <clipPath id="clipPath9869" clipPathUnits="userSpaceOnUse">
   <path id="path9871" d="m86.2 985.5c-5.8568 0-10.639 4.3875-11.214 10.002v58.541c0.57493 5.6111 5.3568 9.973 11.214 9.973h57.181c6.0471 0 10.935-4.6456 11.243-10.521v-57.445c-0.30091-5.8819-5.1908-10.549-11.243-10.549h-57.181z" fill="url(#linearGradient9873)"/>
  </clipPath>
  <linearGradient id="linearGradient9873" y2="5.9877" gradientUnits="userSpaceOnUse" x2="48" gradientTransform="matrix(.95268 0 0 .94177 69.261 979.73)" y1="90" x1="48">
   <stop id="stop3927-9" stop-color="#3c6eb4" offset="0"/>
   <stop id="stop3929-8" stop-color="#81a4d5" offset="1"/>
  </linearGradient>
  <radialGradient id="radialGradient9875" xlink:href="#linearGradient556" gradientUnits="userSpaceOnUse" cy="13.492" cx="24.218" gradientTransform="scale(.88763 1.1266)" r="10.214"/>
  <radialGradient id="radialGradient9877" xlink:href="#linearGradient561" gradientUnits="userSpaceOnUse" cy="4.2912" cx="31.638" gradientTransform="scale(1.0613 .94223)" r="6.1138"/>
  <linearGradient id="linearGradient9879" y2="18.199" xlink:href="#linearGradient561" gradientUnits="userSpaceOnUse" x2="68.417" gradientTransform="scale(.57791 1.7304)" y1="9.7093" x1="66.897"/>
  <linearGradient id="linearGradient9881" y2="14.642" xlink:href="#linearGradient635" gradientUnits="userSpaceOnUse" x2="56.889" gradientTransform="scale(.65313 1.5311)" y1="5.456" x1="42.008"/>
  <radialGradient id="radialGradient9883" gradientUnits="userSpaceOnUse" cy="16.135" cx="15.486" gradientTransform="scale(.99284 1.0072)" r="27.532">
   <stop id="stop565" stop-color="#3278c6" offset="0"/>
   <stop id="stop566" stop-color="#264980" offset="1"/>
  </radialGradient>
  <linearGradient id="linearGradient9885" y2="21.709" gradientUnits="userSpaceOnUse" x2="23.981" gradientTransform="scale(.99284 1.0072)" y1="41.885" x1="40.971">
   <stop id="stop605" stop-opacity=".23922" offset="0"/>
   <stop id="stop606" stop-opacity="0" offset="1"/>
  </linearGradient>
  <radialGradient id="radialGradient9887" xlink:href="#linearGradient561" gradientUnits="userSpaceOnUse" cy="25.591" cx="56.925" gradientTransform="scale(1.122 .89128)" r="5.3431"/>
  <linearGradient id="linearGradient9889" y2="24.687" xlink:href="#linearGradient635" gradientUnits="userSpaceOnUse" x2="25.338" gradientTransform="scale(.95998 1.0417)" y1="15.336" x1="25.033"/>
  <linearGradient id="linearGradient9891" y2="24.093" xlink:href="#linearGradient556" gradientUnits="userSpaceOnUse" x2="28.115" gradientTransform="scale(.88763 1.1266)" y1="16.387" x1="27.607"/>
  <radialGradient id="radialGradient9893" xlink:href="#linearGradient561" gradientUnits="userSpaceOnUse" cy="3.3555" cx="32.369" gradientTransform="scale(1.0404 .96117)" r="6.057"/>
  <linearGradient id="linearGradient9895" y2="54.864" xlink:href="#linearGradient561" gradientUnits="userSpaceOnUse" x2="37.26" gradientTransform="scale(1.5175 .65899)" y1="47.909" x1="36.83"/>
  <linearGradient id="linearGradient9897" y2="63.224" gradientUnits="userSpaceOnUse" x2="30.472" gradientTransform="scale(1.8472 .54137)" y1="68.697" x1="29.954">
   <stop id="stop642" stop-opacity=".41569" offset="0"/>
   <stop id="stop643" stop-opacity="0" offset="1"/>
  </linearGradient>
  <linearGradient id="linearGradient9899" y2="68.898" xlink:href="#linearGradient561" gradientUnits="userSpaceOnUse" x2="29.396" gradientTransform="scale(1.9257 .51930)" y1="63.282" x1="29.049"/>
 </defs>
 <metadata id="metadata7">
  <rdf:RDF>
   <cc:Work rdf:about="">
    <dc:format>image/svg+xml</dc:format>
    <dc:type rdf:resource="http://purl.org/dc/dcmitype/StillImage"/>
    <dc:title/>
   </cc:Work>
  </rdf:RDF>
 </metadata>
 <g id="layer1" transform="translate(0 -956.36)">
  <rect id="rect5263-0" fill-opacity=".019608" ry="12.724" height="89.978" width="89.978" y="959.35" x="2.9998"/>
  <rect id="rect5261-6" fill-opacity=".039216" ry="12.552" height="88.762" width="88.762" y="959.96" x="3.6078"/>
  <rect id="rect5259-9" fill-opacity=".078431" ry="12.38" height="87.546" width="87.546" y="960.57" x="4.2157"/>
  <rect id="rect5257-5" fill-opacity=".15686" ry="12.208" height="86.33" width="86.33" y="961.18" x="4.8237"/>
  <g id="g9829" clip-path="url(#clipPath9869)" transform="matrix(1.0673 0 0 1.0842 -74.536 -106.69)">
   <rect id="rect4204" rx="6" ry="6" height="84" width="84" y="983.14" x="72.551" fill="url(#linearGradient9863)"/>
   <path id="path4141" opacity=".45" d="m87.426 983.14 25.781 40.656-40.656-26.156v18.5l40.219 9-40.219 8.75v18.375l40.656-25.781-26.156 40.656h18.5l9-40.219 8.75 40.219h18.375l-25.781-40.656 40.656 26.156v-18.5l-40.219-9 40.219-8.75v-18.375l-40.656 25.781 26.156-40.656h-18.5l-9 40.219-8.75-40.219h-18.375z" fill="url(#linearGradient9865)"/>
   <g id="layer5-9" transform="translate(66.551 977.14)">
    <rect id="rect3171" height="66" stroke="#fff" stroke-linecap="round" stroke-width=".5" fill="url(#linearGradient9867)" rx="12" ry="12" width="66" opacity=".1" clip-path="url(#clipPath3613-3)" filter="url(#filter3794-44)" y="15" x="15"/>
   </g>
  </g>
  <path id="rect5265-0" d="m5.4316 1029.8v5.0663c0 6.668 5.3645 12.032 12.032 12.032h61.049c6.668 0 12.032-5.3645 12.032-12.032v-5.0663c0 6.6681-5.3645 12.032-12.032 12.032h-61.049c-6.668 0-12.032-5.3643-12.032-12.032z" fill-opacity=".11765"/>
  <path id="path5252-0" d="m5.4316 1033.9v1.0133c0 6.668 5.3645 12.032 12.032 12.032h61.049c6.668 0 12.032-5.3645 12.032-12.032v-1.0133c0 6.6681-5.3645 12.032-12.032 12.032h-61.049c-6.668 0-12.032-5.3644-12.032-12.032z" fill-opacity=".098039"/>
  <g id="g9835" transform="translate(-33.234 -63.64)">
   <g id="layer3" fill-rule="evenodd" transform="translate(34.731 1017.8)">
    <path id="path3779" opacity=".05" d="m75.312 18.344c-5.8475 1.2881-10.769 5.8404-12.5 11.625-0.0051 0.0091 0.005 0.02209 0 0.03125-0.02008 0.06753-0.07456 0.11963-0.09375 0.1875-0.24931 0.525-0.40681 1.06-0.53125 1.5938-0.076 0.327-0.119 0.559-0.187 0.843-2.526-2.661-5.421-5.017-8.594-6.906-0.069-0.042-0.118-0.116-0.187-0.157l-0.03125 0.03125c-1.4011-1.2139-3.526-2.041-5.5-2.3438-0.0026-0.0004 0.0026-0.03085 0-0.03125-0.06135-0.02008-0.12603-0.01193-0.1875-0.03125-4.9114-1.5435-10.159-0.65646-14.656 1.375-3.2597-1.0094-6.6543-0.319-9.4375 1.375-2.8503 1.7349-5.1011 4.4772-6.0625 7.6562-0.02043 0.04157-0.0122 0.08343-0.03125 0.125-0.0065 0.02244-0.02486 0.04002-0.03125 0.0625-0.47314 1.0729-0.53 2.1453-0.5 3.0625 0.03139 0.95941 0.10809 1.7922 0 2.4375-0.0014 0.0083 0.0014 0.02304 0 0.03125-0.58704 2.9488 0.02231 5.9457 1.25 8.5625-0.20298 3.2044 0.26661 6.3953 1.125 9.4375-1.0469 1.1061-1.559 2.4834-1.4688 3.7812 0.10674 1.5349 0.67112 2.9798 1.0938 4.0938 0.0075 0.02263 0.02358 0.03995 0.03125 0.0625 1.5627 4.5962 6.2368 7.5056 10.938 7.6875 6.0702 4.4698 14.425 5.7887 21.406 2.5312v0.03125c0.013-0.0057 0.01826-0.02552 0.03125-0.03125 6.2736-2.7651 11.338-7.5487 15.312-12.938 3.1157 2.4112 7.344 4.1786 11.406 2.5a1.1168 1.1168 0 0 0 0.094 -0.063c1.1082-0.62182 1.5618-1.8889 1.4062-2.9375-0.14491-0.97713-0.74428-1.8419-1.6562-2.375l0.031-0.031c-2.497-1.989-4.273-4.752-4.437-7.875a1.1168 1.1168 0 0 0 -0.032 -0.125c-0.64786-3.5471 0.91763-7.2035 2.375-10.812a1.1168 1.1168 0 0 0 0.09375 -0.28125c0.67136-6.3715-0.54121-12.809 2.6562-17.875a1.1168 1.1168 0 0 0 0.063 -0.095c1.0207-2.0837-0.82022-4.5793-3.125-4.2188a1.1168 1.1168 0 0 0 -0.0625 0z" fill="#111d31"/>
    <path id="path3773" opacity="0.12" d="m75.562 19.438c-5.5047 1.2125-10.222 5.5926-11.769 11.064-0.84126 1.5186-0.75446 6.0347-2.6191 2.916-2.519-2.655-5.368-5.041-8.518-6.887-1.108-1.036-3.468-2-5.326-2.254-4.754-1.556-9.982-0.651-14.424 1.442-6.052-2.172-12.872 2.479-14.55 8.379-0.8724 1.775-0.17948 3.6595-0.48372 5.3868-0.56218 2.784 0.03504 5.7147 1.284 8.2339-0.2445 3.3097 0.23818 6.6422 1.1875 9.8125-2.585 1.808-1.3505 5.0621-0.50082 7.3046 1.3992 4.2121 5.8765 6.9973 10.251 7.0392 5.7819 4.4211 13.932 5.7404 20.615 2.6088 6.393-2.809 11.583-7.838 15.572-13.485 2.9643 2.6029 7.2949 4.6085 11.188 3 1.3895-0.77965 0.94814-2.8508-0.36477-3.4974-2.688-2.142-4.71-5.193-4.895-8.705-0.727-3.978 1.001-7.81 2.447-11.392 0.647-6.134-0.637-12.828 2.844-18.344 0.62577-1.2774-0.51552-2.8475-1.9375-2.625zm-23.5 6.9375c0.33868-0.06576 0.5266 0.30168 0 0z" fill="#111d31"/>
    <path id="path3769" opacity=".2" d="m75.719 20.5a0.77786 0.77786 0 0 0 -0.094 0.031c-5.231 1.2773-7.8938 4.3011-9.8125 7.7188a0.77786 0.77786 0 0 0 -0.03125 0.0625c-1.255 2.8647-2.1523 5.71-2.8125 8.5312-3.0105-3.5366-6.646-7.0247-10.812-9.375-0.0076-0.0043-0.02368 0.0043-0.03125 0-0.0023-0.0033 0.000046-0.0312 0-0.03125-0.000059-0.000059-0.02826 0.0025-0.03125 0-0.02292-0.01915-0.10756-0.09819-0.15625-0.125-1.1385-0.9929-2.5951-1.6751-4.3125-1.875 0.20364 0.06581 0.18612 0.04861-0.0625-0.03125-1.7121-0.54989-3.499-0.85229-5.25-0.875a0.77786 0.77786 0 0 0 -0.03125 0c-3.401 0.095-6.504 0.901-9.284 2.281-0.825-0.33-1.704-0.56-2.781-0.593a0.77786 0.77786 0 0 0 -0.03125 0c-6.6672 0-11.281 5.9339-11.281 11.188a0.77786 0.77786 0 0 0 0.34375 0.625c-0.29503 1.0863-0.53125 2.229-0.53125 3.4375 0 2.2606 0.55605 4.3316 1.5 6.0938-0.0379 0.6308-0.0625 1.2668-0.0625 1.9062 0 2.903 0.51967 5.6993 1.3438 8.3125-0.57849 0.45684-1.083 0.96049-1.375 1.5938-0.36791 0.79786-0.40284 1.7449-0.125 2.75 0.14127 0.44948 0.42428 0.74044 0.6875 1.0312-0.06011 0.73325 0.10655 1.5711 0.6875 2.6562a0.77786 0.77786 0 0 0 0.03125 0.03125c1.6306 2.7599 4.3927 4.5859 7.875 4.9062 0.01044 0.000961 0.02079-0.000934 0.03125 0 0.38409 0.03918 0.75423 0.07538 1.125 0.09375 3.4992 2.6499 7.6764 4.2462 12.062 4.3125 9.1803 0.1273 18.422-7.8078 23.562-15.594 1.1907 0.87156 2.4698 1.9704 4.0938 2.8125 1.8224 0.94499 4.0469 1.5131 6.5625 0.8125a0.77786 0.77786 0 0 0 0.3125 -1.3125c-1.7651-1.6179-3.2109-2.8797-4.25-4.6562-1.026-1.7542-1.713-4.1132-1.8125-8 0.0014-0.01293-0.0014-0.01837 0-0.03125 0.45879-4.2011 1.3858-5.9223 2.5625-8.6875a0.77786 0.77786 0 0 0 0.0625 -0.21875c0.719-6.712-0.81-12.151 2.906-18.627a0.77786 0.77786 0 0 0 -0.781 -1.156z" fill="#111d31"/>
    <path id="path4188" opacity=".4" d="m75.797 21.281c-5.0231 1.2265-7.4121 4.0144-9.2812 7.3438-1.437 3.2801-2.4846 6.5498-3.125 9.75-3.1457-3.902-7.2633-7.8284-11.812-10.344-0.01254-0.0069-0.0187-0.02434-0.03125-0.03125-1.087-0.99764-2.4616-1.6499-4.1875-1.8125-0.02197-0.0071-0.04052-0.02419-0.0625-0.03125-1.6445-0.52816-3.3023-0.82214-4.9688-0.84375-3.3993 0.09432-6.5084 0.90093-9.25 2.3125-0.79484-0.36879-1.7383-0.58948-2.875-0.625-6.1971 0-10.531 5.6186-10.531 10.406 0.20847-0.12242 0.41348-0.24728 0.625-0.34375-0.49325 1.3298-0.78125 2.8391-0.78125 4.4062 0 2.2317 0.54812 4.2856 1.5 5.9688-0.04532 0.6723-0.0625 1.3419-0.0625 2.0312 0 3.0017 0.5053 5.9088 1.4062 8.5938-1.4601 0.99304-2.0799 2.0852-1.5938 3.8438 0.11404 0.36283 0.35499 0.69236 0.65625 1 0.0059 0.006-0.0059 0.02529 0 0.03125-0.13271 0.57538-0.01315 1.308 0.625 2.5 1.5186 2.5703 4.0416 4.2392 7.3125 4.5312 0.45521 0.04708 0.89663 0.0756 1.3438 0.09375 3.4239 2.6563 7.521 4.2476 11.812 4.3125 8.9729 0.12443 18.517-8.0795 23.438-15.906 0.01423 0.04934 0.01684 0.07515 0.03125 0.125 2.6868 1.869 5.8857 5.1288 10.5 3.8438-3.5045-3.2124-6.1372-5.1937-6.3125-13.312 0.46735-4.3221 1.488-6.1923 2.6562-8.9375 0.70088-6.5416-0.8863-12.189 2.9688-18.906z" fill="#111d31"/>
    <g id="g2335" transform="matrix(1.4336 0 0 1.4336 -44.455 -81.448)">
     <path id="path617" d="m30.267 20.252a5.6614 7.1856 0 1 1 -11.323 0 5.6614 7.1856 0 1 1 11.323 0z" transform="translate(25.684 64.782)" fill="url(#radialGradient9875)"/>
     <path id="path618" d="m40.968 10.542c0 3.3396-6.81-5.8722-12.1-2.7657 0-3.3396 3.0212-7.2688 7.344-7.2688 5.5328 0.17288 4.7562 6.6949 4.7562 10.034z" transform="translate(15.858 74.436)" stroke-width="1pt" fill="url(#radialGradient9877)"/>
     <path id="path619" d="m34.713 23.554c-0.0815-3.9113 0.8148-8.1894 2.689-12.467 1.3038-2.3224 2.9743-4.278 6.4782-5.1336-2.6891 4.6855-1.589 8.6376-2.0779 13.201-0.8149 1.9149-1.5075 3.2189-1.8335 6.2338 0.1223 5.6633 1.9557 7.0487 4.4003 9.2895-3.2187 0.8964-5.4595-1.3853-7.3337-2.689-0.9779-3.3817-1.3446-5.0522-2.3224-8.434z" transform="translate(40,65)" fill="url(#linearGradient9879)"/>
     <g id="g595" transform="matrix(.71859 0 0 .71858 2.1673 69.947)">
      <path id="path596" d="m64.476 21.173a2.0743 2.1607 0 1 1 -4.1486 0 2.0743 2.1607 0 1 1 4.1486 0z" transform="translate(0 -.12225)"/>
      <path id="path597" d="m63.958 20.395a0.77786 1.0372 0 1 1 -1.5557 0 0.77786 1.0372 0 1 1 1.5557 0z" fill="#808080"/>
     </g>
     <path id="path630" d="m35.691 19.887c1.263-5.9486 1.5483-6.7634 2.3224-8.6783 0.8555-1.589 1.3445-2.9335 5.1336-4.7669-2.0372 1.7112-3.0965 3.6668-3.9113 6.2337-0.4075 2.1186-1.1816 4.2373-0.7334 11.245-0.6519-1.0593-2.1594-2.9743-2.8113-4.0336z" fill-opacity=".47183" transform="translate(40,65)" fill="url(#linearGradient9881)"/>
     <path id="path615" d="m39.358 25.754c-0.244 5.956-9.889 17.357-18.701 17.235-8.079-0.123-15.034-7.979-15.034-17.357-0.0004-9.378 6.099-16.623 14.912-16.868 9.423 0.1225 18.945 13.234 18.823 16.99z" transform="translate(40,65)" stroke-width="1pt" fill="url(#radialGradient9883)"/>
     <path id="path599" d="m39.358 25.754c-0.244 5.956-9.889 17.357-18.701 17.235-8.079-0.123-15.034-7.979-15.034-17.357-0.0004-9.378 6.099-16.623 14.912-16.868 9.423 0.1225 18.945 13.234 18.823 16.99z" transform="translate(40,65)" stroke-width="1pt" fill="url(#linearGradient9885)"/>
     <path id="path632" d="m30.557 20.498c2.0779 3.1331 1.3797 5.7609 0.2514 7.5749-1.1283 1.8142-4.2791 2.7994-5.9962 2.6924-6.0078-0.3667-5.1336-3.0235-5.1336-8.5562 0-5.5326 3.6483-10.878 7.0893-10.878 2.5854 0.6112 3.7891 3.6347 3.7891 9.1673z" fill-opacity=".19718" transform="translate(40,65)" stroke-width="1pt"/>
     <path id="path624" d="m72.36 25.082a6.5393 5.1947 0 1 1 -13.079 0 6.5393 5.1947 0 1 1 13.079 0z" transform="matrix(.95249 0 0 1.1466 1.8795 60.007)" fill="url(#radialGradient9887)"/>
     <path id="path633" d="m30.069 22.209a5.7448 6.2337 0 1 1 -11.49 0 5.7448 6.2337 0 1 1 11.49 0z" transform="matrix(1 0 0 .93264 39.878 66.198)" fill="url(#linearGradient9889)"/>
     <path id="path552" d="m30.267 20.252a5.6614 7.1856 0 1 1 -11.323 0 5.6614 7.1856 0 1 1 11.323 0z" transform="matrix(1.0324 0 0 1.0595 38.516 63.149)" fill="url(#linearGradient9891)"/>
     <path id="path600" d="m40.89 10.542c-0.977-0.8791-3.954-5.755-11.788-2.7966 0-3.3396 1.32-8.0934 5.6428-8.0934 5.5328 0.17288 6.1449 7.5504 6.1449 10.89z" transform="translate(28.937 74.68)" stroke-width="1pt" fill="url(#radialGradient9893)"/>
     <g id="g611" transform="matrix(.71859 0 0 .71858 21.479 70.386)">
      <path id="path604" d="m64.476 21.173a2.0743 2.1607 0 1 1 -4.1486 0 2.0743 2.1607 0 1 1 4.1486 0z" transform="translate(0 -.12225)"/>
      <path id="path605" d="m63.958 20.395a0.77786 1.0372 0 1 1 -1.5557 0 0.77786 1.0372 0 1 1 1.5557 0z" fill="#808080"/>
     </g>
     <path id="path623" d="m47.792 31.621c0.2038 0.8556 6.2745 3.4224 15.89-0.2445 0.387-0.0408 2.2985-2.1103 2.2908-1.7026-0.0187 1.1104-0.8848 2.5877-2.0123 3.8196-2.404 2.9334-6.5529 4.7278-11.279 4.239-2.2816-0.2037-4.0423-1.3851-5.1016-3.178-0.9051-1.6907-0.3172-1.9963 0.2124-2.9335z" transform="translate(-1.1915 67.2)" fill="url(#linearGradient9895)"/>
     <path id="path631" d="m48.158 31.621c0.2038 0.8556 5.9078 3.7891 15.523 0.1222 1.2892-0.662 2.1738-0.0872 0.8556 1.9556-2.4039 2.4446-9.6969 3.4225-11.978 3.0558-2.2816-0.2037-5.0521-1.0186-5.5003-2.4446-0.3391-1.2267 0.0815-1.9963 1.1-2.689z" transform="translate(-1.6541 65.384)" fill="url(#linearGradient9897)"/>
     <path id="path621" d="m48.158 31.621c0.2038 0.8556 5.5953 4.9609 15.836 0.9816 0.6836-0.2919 1.9301-0.8606 2.1868-0.8178 0.3767 0.0741-0.4768 0.9707-1.4874 1.9922-2.4039 2.4445-9.8532 3.3443-12.135 2.9776-2.2816-0.2037-5.0521-1.0186-5.5003-2.4446-0.3391-1.2267 0.0815-1.9963 1.1-2.689z" transform="translate(-1.5582 65)" fill="url(#linearGradient9899)"/>
    </g>
   </g>
  </g>
 </g>
</svg>
