<?xml version="1.0" encoding="UTF-8" standalone="no"?>
<!-- Created with Inkscape (http://www.inkscape.org/) -->
<svg id="svg2" xmlns:rdf="http://www.w3.org/1999/02/22-rdf-syntax-ns#" xmlns="http://www.w3.org/2000/svg" height="96" width="96" version="1.1" xmlns:cc="http://creativecommons.org/ns#" xmlns:xlink="http://www.w3.org/1999/xlink" xmlns:dc="http://purl.org/dc/elements/1.1/">
 <defs id="defs4">
  <linearGradient id="linearGradient3878" y2="5.9877" gradientUnits="userSpaceOnUse" y1="90" gradientTransform="matrix(1.0631 0 0 1.0631 -2.975 -3.4394)" x2="48" x1="48">
   <stop id="stop3702-4" stop-color="#da8714" offset="0"/>
   <stop id="stop3704-4" stop-color="#f4d468" offset="1"/>
  </linearGradient>
 </defs>
 <metadata id="metadata7">
  <rdf:RDF>
   <cc:Work rdf:about="">
    <dc:format>image/svg+xml</dc:format>
    <dc:type rdf:resource="http://purl.org/dc/dcmitype/StillImage"/>
    <dc:title/>
   </cc:Work>
  </rdf:RDF>
 </metadata>
 <g id="layer1" transform="translate(0 -956.36)">
  <rect id="rect5263-0" fill-opacity=".019608" ry="12.724" height="89.978" width="89.978" y="959.35" x="2.9998"/>
  <rect id="rect5261-6" fill-opacity=".039216" ry="12.552" height="88.762" width="88.762" y="959.96" x="3.6078"/>
  <rect id="rect5259-9" fill-opacity=".078431" ry="12.38" height="87.546" width="87.546" y="960.57" x="4.2157"/>
  <rect id="rect5257-5" fill-opacity=".15686" ry="12.208" height="86.33" width="86.33" y="961.18" x="4.8237"/>
  <path id="rect2419-7" d="m17.469 5.4062c-6.668 0-12.032 5.3948-12.032 12.063l0.0005 61.031c0 6.668 5.3635 12.031 12.032 12.031h61.03c6.668 0 12.031-5.363 12.031-12.031v-61.031c0-6.668-5.363-12.063-12.031-12.063l-61.031 0.0002z" transform="translate(0 956.36)" fill="url(#linearGradient3878)"/>
  <path id="rect5265-0" d="m5.4316 1029.8v5.0663c0 6.668 5.3645 12.032 12.032 12.032h61.049c6.668 0 12.032-5.3645 12.032-12.032v-5.0663c0 6.6681-5.3645 12.032-12.032 12.032h-61.049c-6.668 0-12.032-5.3643-12.032-12.032z" fill-opacity=".11765"/>
  <path id="path5252-0" d="m5.4316 1033.9v1.0133c0 6.668 5.3645 12.032 12.032 12.032h61.049c6.668 0 12.032-5.3645 12.032-12.032v-1.0133c0 6.6681-5.3645 12.032-12.032 12.032h-61.049c-6.668 0-12.032-5.3644-12.032-12.032z" fill-opacity=".098039"/>
  <path id="path22169" style="enable-background:new" d="m47.875 970.79c-9.0099 0-16.312 7.0452-16.312 15.719 0.02191 0.994 0.02479 2.1074 0.125 3.3438-1.4259 0.784-1.6156 3.8465-0.34375 6.9375 0.49044 1.1918 1.1678 2.1531 1.8438 2.9375 0.02253 0.026 0.07106 0.068 0.09375 0.094 0.16135 0.8166 0.27362 1.4225 0.46875 2.3437 0.60448 1.8705 3.1129 5.413 5.3125 8.4376 0.21936 2.3332 0.22259 4.6585-0.21875 7.3125-5.9088 5.0564-20.422 7.48-22.312 12.344-0.008 0.022-0.0232 0.04-0.0313 0.063-0.47945 0.8517-0.75 1.83-0.75 2.875 0 0.6433 0.12213 1.2651 0.3125 1.8438 6.2602-1.5554 18.166-2.5938 31.844-2.5938 13.719 0 25.661 1.0307 31.906 2.5938 0.19229-0.5787 0.3125-1.2005 0.3125-1.8438 0-2.6195-1.7321-4.8268-4.125-5.625-5.1187-2.964-14.657-5.6489-19.125-9.6562-0.2532-2.1486-0.31639-4.2589-0.1875-6.375 1.9999-3.1819 4.6433-7.3044 5.3125-9.3751 0.24595-1.0724 0.37148-1.7979 0.5625-2.7187 0.59056-0.74451 1.1266-1.5968 1.5625-2.6563 1.2078-2.9353 1.0748-5.7657-0.15625-6.7187 0.08602-1.2754 0.18279-2.4725 0.21875-3.5625 0.000022-8.6736-7.3026-15.719-16.312-15.719z" fill="#aca793"/>
  <path id="path3798-8" style="enable-background:new" d="m47.875 969.54c-9.0099 0-16.312 7.0452-16.312 15.719 0.02191 0.994 0.02479 2.1074 0.125 3.3438-1.4259 0.784-1.6156 3.8465-0.34375 6.9375 0.49044 1.1918 1.1678 2.1531 1.8438 2.9375 0.02253 0.026 0.07106 0.068 0.09375 0.094 0.16135 0.8166 0.27362 1.4225 0.46875 2.3437 0.60448 1.8705 3.1129 5.413 5.3125 8.4376 0.21936 2.3332 0.22259 4.6585-0.21875 7.3125-5.9088 5.0564-20.422 7.48-22.312 12.344-0.008 0.022-0.0232 0.04-0.0313 0.063-0.47945 0.8517-0.75 1.83-0.75 2.875 0 0.6433 0.12213 1.2651 0.3125 1.8438 6.2602-1.5554 18.166-2.5938 31.844-2.5938 13.719 0 25.661 1.0307 31.906 2.5938 0.19229-0.5787 0.3125-1.2005 0.3125-1.8438 0-2.6195-1.7321-4.8268-4.125-5.625-5.1187-2.964-14.657-5.6489-19.125-9.6562-0.2532-2.1486-0.31639-4.2589-0.1875-6.375 1.9999-3.1819 4.6433-7.3044 5.3125-9.3751 0.24595-1.0724 0.37148-1.7979 0.5625-2.7187 0.59056-0.7445 2.1569 0.52452 2.858-2.6563 1.3846-4.7031 0.3096-6.3844-1.4517-6.7187 0.08602-1.2754 0.18279-2.4725 0.21875-3.5625 0.000022-8.6736-7.3026-15.719-16.312-15.719z" fill="#f4eed7"/>
  <path id="path22173" style="enable-background:new" d="m48 969.54c9.0099 0 16.312 7.0452 16.312 15.719-0.02191 0.994-0.02479 2.1074-0.125 3.3438 1.4259 0.784 1.6156 3.8465 0.34375 6.9375-0.49044 1.1918-1.1678 2.1531-1.8438 2.9375-0.02253 0.026-0.07106 0.068-0.09375 0.094-0.16135 0.8166-0.27362 1.4225-0.46875 2.3437-0.60448 1.8705-3.1129 5.413-5.3125 8.4376-0.21936 2.3332-0.22259 4.6585 0.21875 7.3125 5.9088 5.0564 20.422 7.48 22.312 12.344 0.008 0.022 0.0232 0.04 0.0313 0.063 0.47945 0.8517 0.75 1.83 0.75 2.875 0 0.6433-0.12213 1.2651-0.3125 1.8438-6.2602-1.5554-18.166-2.5938-31.844-2.5938-13.719 0-25.661 1.0307-31.906 2.5938-0.19229-0.5787-0.3125-1.2005-0.3125-1.8438 0-2.6195 1.7321-4.8268 4.125-5.625 5.1187-2.964 14.657-5.6489 19.125-9.6562 0.2532-2.1486 0.31639-4.2589 0.1875-6.375-1.9999-3.1819-4.6433-7.3044-5.3125-9.3751-0.24595-1.0724-0.37148-1.7979-0.5625-2.7187-0.59056-0.7445-2.1569 0.52452-2.858-2.6563-1.3846-4.7031-0.3096-6.3844 1.4517-6.7187-0.08602-1.2754-0.18279-2.4725-0.21875-3.5625-0.000022-8.6736 7.3026-15.719 16.312-15.719z" fill="#f4eed7"/>
 </g>
</svg>
