<?xml version="1.0" encoding="UTF-8" standalone="no"?>
<!-- Created with Inkscape (http://www.inkscape.org/) -->
<svg id="svg2" xmlns:rdf="http://www.w3.org/1999/02/22-rdf-syntax-ns#" xmlns="http://www.w3.org/2000/svg" height="96" width="96" version="1.1" xmlns:cc="http://creativecommons.org/ns#" xmlns:xlink="http://www.w3.org/1999/xlink" xmlns:dc="http://purl.org/dc/elements/1.1/">
 <defs id="defs4">
  <linearGradient id="linearGradient3613-196" y2="138.66" gradientUnits="userSpaceOnUse" x2="48" y1="20.221" x1="48">
   <stop id="stop3739-54" stop-color="#fff" offset="0"/>
   <stop id="stop3741-01" stop-color="#fff" stop-opacity="0" offset="1"/>
  </linearGradient>
  <clipPath id="clipPath3613-95">
   <rect id="rect3615-23" rx="6" ry="6" height="84" width="84" y="6" x="6" fill="#fff"/>
  </clipPath>
  <filter id="filter3794-9" height="1.384" width="1.384" color-interpolation-filters="sRGB" y="-.192" x="-.192">
   <feGaussianBlur id="feGaussianBlur3796-61" stdDeviation="5.28"/>
  </filter>
  <linearGradient id="linearGradient3679">
   <stop id="stop3681" stop-color="#d8d5cc" offset="0"/>
   <stop id="stop3683" stop-color="#40474b" offset="1"/>
  </linearGradient>
  <linearGradient id="linearGradient23998" y2="16" xlink:href="#linearGradient3679" gradientUnits="userSpaceOnUse" x2="48" gradientTransform="translate(-1.665 954)" y1="80" x1="48"/>
  <linearGradient id="linearGradient24006" y2="107.72" xlink:href="#linearGradient3679" gradientUnits="userSpaceOnUse" x2="27.952" y1="-43.565" x1="47.995"/>
 </defs>
 <metadata id="metadata7">
  <rdf:RDF>
   <cc:Work rdf:about="">
    <dc:format>image/svg+xml</dc:format>
    <dc:type rdf:resource="http://purl.org/dc/dcmitype/StillImage"/>
    <dc:title/>
   </cc:Work>
  </rdf:RDF>
 </metadata>
 <g id="layer1" transform="translate(0 -956.36)">
  <rect id="rect5263-0" fill-opacity=".019608" ry="12.724" height="89.978" width="89.978" y="959.35" x="2.9998"/>
  <rect id="rect5261-6" fill-opacity=".039216" ry="12.552" height="88.762" width="88.762" y="959.96" x="3.6078"/>
  <rect id="rect5259-9" fill-opacity=".078431" ry="12.38" height="87.546" width="87.546" y="960.57" x="4.2157"/>
  <rect id="rect5257-5" fill-opacity=".15686" ry="12.208" height="86.33" width="86.33" y="961.18" x="4.8237"/>
  <path id="rect2419" d="m17.469 5.4062c-6.668 0-12.031 5.3946-12.031 12.062v61.031c0 6.668 5.3633 12.031 12.031 12.031h61.031c6.668 0 12.031-5.3632 12.031-12.031v-61.031c0-6.6679-5.3633-12.062-12.031-12.062z" transform="translate(0 956.36)" fill="url(#linearGradient24006)"/>
  <path id="rect5265-0" d="m5.4316 1029.8v5.0663c0 6.668 5.3645 12.032 12.032 12.032h61.049c6.668 0 12.032-5.3645 12.032-12.032v-5.0663c0 6.6681-5.3645 12.032-12.032 12.032h-61.049c-6.668 0-12.032-5.3643-12.032-12.032z" fill-opacity=".11765"/>
  <path id="path5252-0" d="m5.4316 1033.9v1.0133c0 6.668 5.3645 12.032 12.032 12.032h61.049c6.668 0 12.032-5.3645 12.032-12.032v-1.0133c0 6.6681-5.3645 12.032-12.032 12.032h-61.049c-6.668 0-12.032-5.3644-12.032-12.032z" fill-opacity=".098039"/>
  <g id="layer5" transform="translate(-116.24 952.39)">
   <rect id="rect3171" height="66" stroke="#fff" stroke-linecap="round" stroke-width=".5" fill="url(#linearGradient3613-196)" rx="12" ry="12" width="66" opacity=".1" clip-path="url(#clipPath3613-95)" filter="url(#filter3794-9)" y="15" x="15"/>
  </g>
  <path id="path3712" opacity=".05" d="m24.835 964.94c-1.2185 0.18677-2.0363 1.1439-2.3438 2.0625-0.29639 0.88565-0.29206 1.7506-0.21875 2.5 0.000055 0.0312-0.000053 0.0625 0 0.0937 0.02037 11.901-0.04158 23.81 0.03125 35.719a1.0336 1.0336 0 0 0 0 0.125c0.13557 1.2166 1.042 1.9956 2.0312 2.3438-0.50246 0.5199-1.036 1.0065-1.5312 1.5312a1.0336 1.0336 0 0 0 -0.25 0.4375c-0.64128 2.1682-0.15989 4.2734-0.28125 5.9688a1.0336 1.0336 0 0 0 0 0.063c0.02112 7.496-0.04219 14.99 0.03125 22.5a1.0336 1.0336 0 0 0 0 0.094c0.26574 2.5144 3.4388 3.4049 5.1875 1.7813l0.03125 0.031c16.581-11.63 33.225-23.206 49.781-34.876a1.0336 1.0336 0 0 0 0.09375 -0.094c0.92056-0.841 1.1278-2.0892 0.8125-3.0938-0.28871-0.9199-0.97749-1.6841-1.875-2.125-0.0055 0 0.0055-0.029 0-0.031-16.513-11.535-32.993-23.124-49.531-34.625a1.0336 1.0336 0 0 0 -0.09375 -0.0625c-0.612-0.32989-1.2631-0.37181-1.7812-0.34375a1.0336 1.0336 0 0 0 -0.09375 0zm7.5312 16.531 7 4.9062c-2.4877-0.76386-5.1065 0.0199-7 1.75v-6.6562zm23.781 16.656 6.9375 4.875-6.5625 4.5937c1.3457-1.4411 1.9569-3.3866 1.7812-5.25-0.15338-1.6273-0.96526-3.0898-2.1562-4.2187zm-15.844 0.7812 5.7812 4.125-5.7188 4.0625c0.0064-2.7045 0.07834-5.4221-0.0625-8.1875zm-7.9375 18.844c1.7199 1.7751 4.224 2.7412 6.75 2.0313l-6.75 4.75v-6.7813z"/>
  <path id="path3706" opacity=".1" d="m24.991 965.97c-1.6994 0.26049-1.8308 2.162-1.6875 3.5289 0.02087 11.937-0.04172 23.883 0.03125 35.815 0.20932 1.8784 2.8694 2.2707 3.8263 0.7361l10.392-10.392c3.4375 2.4583 6.875 4.9167 10.312 7.375-2.8333 2.0208-5.6667 4.0417-8.5 6.0626-0.06462-3.559 0.12796-7.1455-0.09375-10.688-0.44348-1.695-2.8634-1.8658-3.7633-0.4544-3.9646 4.039-8.0884 7.9829-11.955 12.08-0.54055 1.8275-0.11393 3.8337-0.25 5.7346 0.02114 7.5038-0.04207 15.018 0.03125 22.515 0.18125 1.715 2.4885 2.2774 3.6068 1.0596 16.583-11.631 33.216-23.205 49.768-34.872 1.2432-1.1357 0.44949-3.0867-0.96966-3.6505-16.514-11.536-32.995-23.132-49.53-34.631-0.38122-0.20549-0.79564-0.24166-1.2188-0.21875zm6.3438 13.531c11.188 7.8333 22.375 15.667 33.562 23.5-11.188 7.8333-22.375 15.667-33.562 23.5v-13c0.25566 3.6323 4.1361 6.3847 7.6562 5.2813 2.6055-1.0968 4.6904-3.1423 7.0605-4.6721 3.1524-2.3057 6.5516-4.5952 9.5333-6.8905 2.6501-2.4022 2.116-7.2944-0.78125-9.0625-4.8037-3.4312-9.5939-6.9147-14.406-10.312-2.7474-1.7434-6.3229-0.633-8.2198 1.8136-1.1781 1.7137-0.79466-0.34246-0.84269-1.357v-8.8003z"/>
  <path id="path3702" opacity=".15" d="m25.241 967.06a0.93395 0.93395 0 0 0 -0.84375 0.9375v37a0.93395 0.93395 0 0 0 1.5938 0.6562l11.438-11.438 12.312 8.7813-11.469 8.1875v-12.188a0.93395 0.93395 0 0 0 -1.5938 -0.6563l-12 12a0.93395 0.93395 0 0 0 -0.28125 0.6562v27a0.93395 0.93395 0 0 0 1.4688 0.75l50-35a0.93395 0.93395 0 0 0 0 -1.5l-50-35a0.93395 0.93395 0 0 0 -0.625 -0.1875zm5 10.344 36.562 25.594-36.562 25.594v-15.562l2.1875-2.1875v2.1562c-0.000185 0.069-0.0046 0.2746 0 0.3438 0.0046 0.069 0.05318 0.2437 0.0625 0.3125 0.0093 0.069 0.01723 0.2758 0.03125 0.3437 0.01402 0.068 0.0751 0.2457 0.09375 0.3125 0.01865 0.067 0.07056 0.2784 0.09375 0.3438 0.02319 0.065 0.09737 0.2489 0.125 0.3125 0.02763 0.064 0.12432 0.2196 0.15625 0.2812 0.03193 0.062 0.12017 0.2533 0.15625 0.3125 0.03608 0.059 0.14743 0.2247 0.1875 0.2813 0.04007 0.057 0.14364 0.1962 0.1875 0.25 0.04386 0.054 0.20256 0.1994 0.25 0.25 0.04745 0.05 0.16794 0.2028 0.21875 0.25 0.05081 0.047 0.19607 0.1751 0.25 0.2187 0.05393 0.044 0.22446 0.179 0.28125 0.2188 0.0568 0.04 0.22186 0.1204 0.28125 0.1562 0.05939 0.036 0.21954 0.1559 0.28125 0.1875 0.06171 0.032 0.24876 0.098 0.3125 0.125s0.24704 0.1021 0.3125 0.125c0.06546 0.023 0.24562 0.075 0.3125 0.094 0.06688 0.018 0.27577 0.08 0.34375 0.094s0.24374 0.053 0.3125 0.063 0.27454 0.027 0.34375 0.031c0.06921 0 0.27441 0.0005 0.34375 0 0.06934-0.0006 0.27461-0.026 0.34375-0.031 0.06914-0.01 0.24389-0.021 0.3125-0.031s0.27599-0.048 0.34375-0.063 0.24591-0.043 0.3125-0.063c0.06659-0.019 0.27864-0.1012 0.34375-0.125 0.06511-0.024 0.24919-0.097 0.3125-0.125s0.22003-0.092 0.28125-0.125 0.25366-0.1509 0.3125-0.1875c0.05431-0.034 0.18398-0.1409 0.25-0.1875h0.03125l13.969-10c0.04863-0.035 0.20352-0.1186 0.25-0.1562 0.04648-0.038 0.17459-0.1472 0.21875-0.1875 0.04416-0.04 0.14581-0.1759 0.1875-0.2188 0.04169-0.043 0.17967-0.1734 0.21875-0.2187 0.03908-0.045 0.15118-0.1713 0.1875-0.2188 0.03632-0.048 0.12281-0.1691 0.15625-0.2187 0.03344-0.05 0.12581-0.1985 0.15625-0.25 0.03044-0.052 0.09766-0.1968 0.125-0.25 0.02734-0.053 0.10087-0.2265 0.125-0.2813 0.02413-0.055 0.10416-0.1939 0.125-0.25 0.02085-0.056 0.07627-0.224 0.09375-0.2812 0.01748-0.057 0.04844-0.2231 0.0625-0.2813 0.01406-0.058 0.05191-0.2224 0.0625-0.2812 0.01059-0.059 0.05542-0.2219 0.0625-0.2813 0.0071-0.059 0.0277-0.2528 0.03125-0.3125 0.0035-0.06 0-0.2214 0-0.2812 0-0.06 0.0035-0.2216 0-0.2813-0.0035-0.06-0.02417-0.2531-0.03125-0.3125-0.0071-0.059-0.05191-0.2224-0.0625-0.2812-0.01059-0.059-0.04844-0.2231-0.0625-0.2813-0.01406-0.058-0.04502-0.224-0.0625-0.2812-0.01748-0.057-0.0729-0.2252-0.09375-0.2813-0.02085-0.056-0.10087-0.1952-0.125-0.25-0.02413-0.055-0.09766-0.228-0.125-0.2812-0.02734-0.053-0.09456-0.1985-0.125-0.25-0.03044-0.052-0.12281-0.2004-0.15625-0.25-0.03344-0.05-0.11993-0.1713-0.15625-0.2188-0.03632-0.048-0.14842-0.1734-0.1875-0.2187-0.03908-0.045-0.17706-0.1759-0.21875-0.2188-0.04169-0.043-0.14334-0.1784-0.1875-0.2187-0.04416-0.04-0.17227-0.1499-0.21875-0.1875-0.04648-0.038-0.20137-0.1214-0.25-0.1563l-13.969-10c-0.0042-0.003-0.02621 0.004-0.03125 0-0.0823-0.0582-0.27172-0.20691-0.34375-0.25-0.07644-0.0457-0.29482-0.14869-0.375-0.1875-0.08018-0.0388-0.32296-0.15592-0.40625-0.1875-0.08329-0.0316-0.3205-0.10089-0.40625-0.125-0.08575-0.0241-0.31871-0.0773-0.40625-0.0937-0.08754-0.0165-0.34885-0.0538-0.4375-0.0625-0.08865-0.009-0.34843-0.0304-0.4375-0.0313-0.08907-0.00082-0.3487-0.007-0.4375 0-0.08879 0.007-0.31842 0.0477-0.40625 0.0625s-0.35132 0.0712-0.4375 0.0937-0.3224 0.095-0.40625 0.125-0.32537 0.11893-0.40625 0.15625c-0.08088 0.0373-0.29773 0.17444-0.375 0.21875-0.07727 0.0443-0.30194 0.1678-0.375 0.21875-0.07306 0.0509-0.27546 0.22406-0.34375 0.28125-0.06829 0.0572-0.24952 0.21826-0.3125 0.28125l-3.625 3.625v-15.75z"/>
  <path id="path3696" opacity=".3" d="m25.335 968v37l12-12 14 10-14 10v-14l-12 12v27l50-35-50-35zm3.9688 7.625 39.094 27.375-39.094 27.375v-17.719l4.0625-4.0625v4.4062a3.9599 3.9599 0 0 0 6.2812 3.2188l14-10a3.9599 3.9599 0 0 0 0 -6.4375l-14-10a3.9599 3.9599 0 0 0 -5.125 0.40625l-5.2188 5.2188v-19.781z"/>
  <path id="path3661" d="m25.335 967v37l12-12 14 10-14 10v-14l-12 12v27l50-35-50-35zm3.9688 7.625 39.094 27.375-39.094 27.375v-17.719l4.0625-4.0626v4.4063a3.9599 3.9599 0 0 0 6.2812 3.2188l14-10a3.9599 3.9599 0 0 0 0 -6.4375l-14-10a3.9599 3.9599 0 0 0 -5.125 0.40625l-5.2188 5.2188v-19.781z" fill="url(#linearGradient23998)"/>
  <path id="path3687" opacity=".3" d="m25.335 967v1l49.281 34.5 0.71875-0.5-50-35zm11.688 21.031a3.9599 3.9599 0 0 0 -2.5 1.1562l-5.2188 5.2188v1l5.2188-5.2188a3.9599 3.9599 0 0 1 5.125 -0.40625l14 10a3.9599 3.9599 0 0 1 1.625 2.8125 3.9599 3.9599 0 0 0 -1.625 -3.8125l-14-10a3.9599 3.9599 0 0 0 -2.625 -0.75zm0.3125 9.9688-12 12v1l12-12v-1zm13.312 4.5-13.312 9.5v1l14-10-0.6875-0.5zm17.031 0-38.375 26.875v1l39.094-27.375-0.71875-0.5z" fill="#fff"/>
 </g>
</svg>
