<?xml version="1.0" encoding="UTF-8" standalone="no"?>
<!-- Created with Inkscape (http://www.inkscape.org/) -->
<svg id="svg2" xmlns:rdf="http://www.w3.org/1999/02/22-rdf-syntax-ns#" xmlns="http://www.w3.org/2000/svg" height="96" width="96" version="1.1" xmlns:cc="http://creativecommons.org/ns#" xmlns:xlink="http://www.w3.org/1999/xlink" xmlns:dc="http://purl.org/dc/elements/1.1/">
 <defs id="defs4">
  <filter id="filter7028" height="1.36" width="1.36" color-interpolation-filters="sRGB" y="-0.18" x="-0.18">
   <feGaussianBlur id="feGaussianBlur7030" stdDeviation="1.1130742"/>
  </filter>
  <linearGradient id="linearGradient7984" y2="5.9877" gradientUnits="userSpaceOnUse" x2="48" gradientTransform="matrix(1.1389 0 0 1.0673 -7.0238 -4.4356)" y1="90" x1="48">
   <stop id="stop3189-33" stop-color="#e26f00" offset="0"/>
   <stop id="stop3191-3" stop-color="#f9a314" offset="1"/>
  </linearGradient>
  <radialGradient id="radialGradient8011" gradientUnits="userSpaceOnUse" cy="8.7609" cx="-24.45" gradientTransform="matrix(.92304 .34079 -.30189 .81768 99.705 1017)" r="14.746">
   <stop id="stop7020" stop-color="#fff" offset="0"/>
   <stop id="stop7022" stop-color="#fff" offset=".2"/>
   <stop id="stop7024" stop-color="#ffde34" offset=".25276"/>
   <stop id="stop7026" stop-color="#ffd602" stop-opacity="0" offset="1"/>
  </radialGradient>
  <linearGradient id="linearGradient8021" y2="110.35" gradientUnits="userSpaceOnUse" x2="61.625" gradientTransform="matrix(.74431 .27480 -.27480 .74431 16.919 935.64)" y1="19.577" x1="61.625">
   <stop id="stop6979" stop-color="#dc4300" offset="0"/>
   <stop id="stop6981" stop-color="#ae3500" offset="1"/>
  </linearGradient>
 </defs>
 <metadata id="metadata7">
  <rdf:RDF>
   <cc:Work rdf:about="">
    <dc:format>image/svg+xml</dc:format>
    <dc:type rdf:resource="http://purl.org/dc/dcmitype/StillImage"/>
    <dc:title/>
   </cc:Work>
  </rdf:RDF>
 </metadata>
 <g id="layer1" transform="translate(0 -956.36)">
  <rect id="rect5263-0" fill-opacity=".019608" ry="12.724" height="89.978" width="89.624" y="959.35" x="3.3534"/>
  <rect id="rect5261-6" fill-opacity=".039216" ry="12.552" height="88.762" width="88.413" y="959.96" x="3.9589"/>
  <rect id="rect5259-9" fill-opacity=".078431" ry="12.38" height="87.546" width="87.202" y="960.57" x="4.5645"/>
  <rect id="rect5257-5" fill-opacity=".15686" ry="12.208" height="86.33" width="85.991" y="961.18" x="5.1701"/>
  <path id="rect2419" d="m17.75 5.4062c-6.642 0-11.969 5.3948-11.969 12.063l0.0002 61.031c0 6.668 5.3268 12.031 11.969 12.031h60.812c6.642 0 11.969-5.363 11.969-12.031v-61.031c0-6.668-5.327-12.063-11.969-12.063l-60.812 0.0002z" transform="translate(0 956.36)" fill="url(#linearGradient7984)"/>
  <path id="rect5265-0" d="m5.7756 1029.8v5.0663c0 6.668 5.3434 12.032 11.985 12.032h60.809c6.6418 0 11.985-5.3645 11.985-12.032v-5.0663c0 6.6681-5.3434 12.032-11.985 12.032h-60.809c-6.6418 0-11.985-5.3643-11.985-12.032z" fill-opacity=".18957"/>
  <path id="path5252-0" d="m5.7756 1033.9v1.0133c0 6.668 5.3434 12.032 11.985 12.032h60.809c6.6418 0 11.985-5.3645 11.985-12.032v-1.0133c0 6.6681-5.3434 12.032-11.985 12.032h-60.809c-6.6418 0-11.985-5.3644-11.985-12.032z" fill-opacity=".098039"/>
  <path id="path6963" opacity=".8" d="m110.78 70.756a7.4205 7.4205 0 1 1 -14.841 0 7.4205 7.4205 0 1 1 14.841 0z" transform="matrix(.79555 .29372 -.24733 .66991 9.5834 938.1)" filter="url(#filter7028)" fill="#ffd812"/>
  <path id="path8023" d="m63.944 972.82s-9.9806 4.8348-13.42 13.623c-2.9706-3.5476-3.974-9.3677 0.73053-13.607 4.717-4.2509 8.5548-2.8833 12.69-0.0157zm-33.49 41.77s-7.4025 7.5832-7.3896 17.771c-4.0086-2.3097-7.0048-7.2819-4.3919-12.842 2.608-5.5493 5.4002-7.0939 11.781-4.9293zm4.1795 1.7164s-5.8261 4.0514-7.7089 18.611c8.2722 2.5511 11.502 2.6202 20.037-2.9957 8.5352-5.6161 24.655-31.215 26.016-40.517 1.3611-9.3024-4.7065-14.478-4.7065-14.478-9.2845 1.0983-13.68 12.551-13.68 12.551s6.6189 4.6303-4.7602 19.699c-11.443 15.154-15.197 7.1295-15.197 7.1295z" fill-rule="evenodd" fill="#803300"/>
  <path id="path6908" d="m64.773 970.57s-9.9806 4.8348-13.42 13.623c-2.9706-3.5476-3.974-9.3677 0.73053-13.607 4.717-4.2509 8.5548-2.8833 12.69-0.0157zm-33.49 41.73s-7.4025 7.5833-7.3896 17.771c-4.0087-2.3096-7.0049-7.2818-4.3919-12.842 2.6081-5.5493 5.4002-7.0941 11.782-4.9294zm4.1795 1.7165s-5.8261 4.0515-7.7089 18.611c8.2722 2.551 11.502 2.6201 20.037-2.9959 8.5352-5.6159 24.655-31.215 26.016-40.517 1.3611-9.3024-4.7065-14.478-4.7065-14.478-9.2845 1.0983-13.68 12.551-13.68 12.551s6.6189 4.6303-4.7601 19.699c-11.443 15.154-15.197 7.1295-15.197 7.1295z" fill-rule="evenodd" fill="url(#linearGradient8021)"/>
  <path id="path6915" d="m20.496 996.88c2.6166-3.86 4.6289-10.699 6.6066-9.9684 3.543 1.3083-0.60181 15.621 1.6288 16.455 2.2188 0.8301 3.982-10.416 6.8161-9.2353 4.5544 1.9058 6.2025-6.9766 8.3983-6.1782 4.052 1.4735-4.4442 19.118-1.0674 20.221 2.7134 0.8863 3.7875-3.8959 5.8517-2.8026 2.3799 1.2602 0.44149 4.2889 2.1232 4.847 2.6314 0.8725 6.14-14.748 8.697-13.761 1.9834 0.76568-1.1431 16.656 1.2717 17.547 4.2866 1.5826 2.6789-10.42 9.7714-1.4246 1.7734 2.2491 1.1025 1.5269 3.7484 3.2047" stroke="#fff4ad" stroke-linecap="round" stroke-width="2.773" fill="none"/>
  <path id="path6922" d="m81.909 1011.5-4.5167 3.3276 12.67-3.3437-12.165 4.8056 8.6124 2.9067-8.5515-1.7441 6.8412 4.8904-8.1675-4.5111 2.4347 6.1639-3.8995-5.3454-0.41766 9.0941-1.4038-9.2774-5.0488 7.4985 4.0677-8.1186-4.77 3.9649 4.1823-4.2609-9.7261 3.3037 9.1114-4.6515-8.1211-0.219 7.1824-0.8703-3.6674-2.792 4.9242 1.9551-4.4685-4.5787 4.9573 3.047-3.7914-8.443 5.4732 8.2194 0.17467-6.5013 0.47771 7.1106 3.2525-11.149-2.0922 11.284 5.4734-4.9982-4.3551 5.6335 5.3264-2.4006z" fill="url(#radialGradient8011)"/>
  <path id="path3659" opacity=".15" d="m20.496 996.88c2.6166-3.86 4.6289-10.699 6.6066-9.9684 3.543 1.3083-0.60181 15.621 1.6288 16.455 2.2188 0.8301 3.982-10.416 6.8161-9.2353 4.5544 1.9058 6.2025-6.9766 8.3983-6.1782 4.052 1.4735-4.4442 19.118-1.0674 20.221 2.7134 0.8863 3.7875-3.8959 5.8517-2.8026 2.3799 1.2602 0.44149 4.2889 2.1232 4.847 2.6314 0.8725 6.14-14.748 8.697-13.761 1.9834 0.76568-1.1431 16.656 1.2717 17.547 4.2866 1.5826 2.6789-10.42 9.7714-1.4246 1.7734 2.2491 1.1025 1.5269 3.7484 3.2047" stroke="#fff4ad" stroke-linecap="round" stroke-width="6.4702" fill="none"/>
  <path id="path2885" opacity=".3" d="m20.496 996.88c2.6166-3.86 4.6289-10.699 6.6066-9.9684 3.543 1.3083-0.60181 15.621 1.6288 16.455 2.2188 0.8301 3.982-10.416 6.8161-9.2353 4.5544 1.9058 6.2025-6.9766 8.3983-6.1782 4.052 1.4735-4.4442 19.118-1.0674 20.221 2.7134 0.8863 3.7875-3.8959 5.8517-2.8026 2.3799 1.2602 0.44149 4.2889 2.1232 4.847 2.6314 0.8725 6.14-14.748 8.697-13.761 1.9834 0.76568-1.1431 16.656 1.2717 17.547 4.2866 1.5826 2.6789-10.42 9.7714-1.4246 1.7734 2.2491 1.1025 1.5269 3.7484 3.2047" stroke="#fff4ad" stroke-linecap="round" stroke-width="4.6216" fill="none"/>
 </g>
</svg>
