<?xml version="1.0" encoding="UTF-8" standalone="no"?>
<!-- Created with Inkscape (http://www.inkscape.org/) -->
<svg id="svg2" xmlns:rdf="http://www.w3.org/1999/02/22-rdf-syntax-ns#" xmlns="http://www.w3.org/2000/svg" height="96" width="96" version="1.1" xmlns:cc="http://creativecommons.org/ns#" xmlns:xlink="http://www.w3.org/1999/xlink" xmlns:dc="http://purl.org/dc/elements/1.1/">
 <defs id="defs4">
  <linearGradient id="linearGradient4966">
   <stop id="stop4968" stop-color="#b6b3d8" offset="0"/>
   <stop id="stop4970" stop-color="#b6b3d8" stop-opacity="0" offset="1"/>
  </linearGradient>
  <linearGradient id="linearGradient3936">
   <stop id="stop3938" offset="0"/>
   <stop id="stop3940" stop-opacity="0" offset="1"/>
  </linearGradient>
  <linearGradient id="linearGradient3202-1">
   <stop id="stop3204-70" stop-color="#2b2b2b" offset="0"/>
   <stop id="stop3250" stop-color="#828383" offset=".5"/>
   <stop id="stop3206-6" stop-color="#dadbdb" offset="1"/>
  </linearGradient>
  <radialGradient id="radialGradient8816" xlink:href="#linearGradient4966" gradientUnits="userSpaceOnUse" cy="371.76" cx="299.7" gradientTransform="matrix(.27452 0 0 .17157 -38.178 960.8)" r="76.696"/>
  <radialGradient id="radialGradient8819" xlink:href="#linearGradient4966" gradientUnits="userSpaceOnUse" cy="371.76" cx="299.7" gradientTransform="matrix(.35133 0 0 .21958 -61.198 912.95)" r="76.696"/>
  <linearGradient id="linearGradient8837" y2="5.9877" gradientUnits="userSpaceOnUse" x2="48" gradientTransform="matrix(1.0774 0 0 -1.0774 -1.2948 97.534)" y1="90" x1="48">
   <stop id="stop3803" stop-color="#9491c7" offset="0"/>
   <stop id="stop3805" stop-color="#4b46a7" stop-opacity=".99216" offset="1"/>
  </linearGradient>
  <linearGradient id="linearGradient8843" y2="41.356" xlink:href="#linearGradient3936" gradientUnits="userSpaceOnUse" x2="134.49" gradientTransform="matrix(.82380 .52974 -.51453 .84816 -6.2381 -43.501)" y1="79.295" x1="103.95"/>
  <linearGradient id="linearGradient8853" y2="30.336" xlink:href="#linearGradient3936" gradientUnits="userSpaceOnUse" x2="142.17" gradientTransform="matrix(.98565 .16878 -.16878 .98565 -50.339 -18.076)" y1="78.68" x1="102.76"/>
  <radialGradient id="radialGradient8878" gradientUnits="userSpaceOnUse" cy="181.19" cx="418.46" gradientTransform="matrix(-.012345 -.011245 .31766 -.34874 33.227 1044.6)" r="63.069">
   <stop id="stop3244" stop-color="#949494" offset="0"/>
   <stop id="stop3252-2" stop-color="#969696" offset=".39253"/>
   <stop id="stop3246-5" stop-color="#e3e3e3" offset="1"/>
  </radialGradient>
  <radialGradient id="radialGradient8881" xlink:href="#linearGradient3202-1" gradientUnits="userSpaceOnUse" cy="382.15" cx="283.51" gradientTransform="matrix(.078083 .062145 -.095254 .11968 85.289 930.56)" r="17.677"/>
  <radialGradient id="radialGradient8884" xlink:href="#linearGradient3202-1" gradientUnits="userSpaceOnUse" cy="390.45" cx="289.44" gradientTransform="matrix(.078083 .062145 -.095254 .11968 66.186 952.19)" r="17.677"/>
  <radialGradient id="radialGradient8887" gradientUnits="userSpaceOnUse" cy="356.62" cx="425.51" gradientTransform="matrix(-.018982 -.015227 .20232 -.25221 3.4657 1090.6)" r="143.34">
   <stop id="stop3296-9" stop-color="#323c74" offset="0"/>
   <stop id="stop3302-6" stop-color="#1f257b" offset=".50094"/>
   <stop id="stop3298-6" stop-color="#00003d" offset="1"/>
  </radialGradient>
 </defs>
 <metadata id="metadata7">
  <rdf:RDF>
   <cc:Work rdf:about="">
    <dc:format>image/svg+xml</dc:format>
    <dc:type rdf:resource="http://purl.org/dc/dcmitype/StillImage"/>
    <dc:title/>
   </cc:Work>
  </rdf:RDF>
 </metadata>
 <g id="layer1" transform="translate(0 -956.36)">
  <rect id="rect5263-0" fill-opacity=".019608" ry="12.724" height="89.978" width="89.624" y="959.35" x="3.3534"/>
  <rect id="rect5261-6" fill-opacity=".039216" ry="12.552" height="88.762" width="88.413" y="959.96" x="3.9589"/>
  <rect id="rect5259-9" fill-opacity=".078431" ry="12.38" height="87.546" width="87.202" y="960.57" x="4.5645"/>
  <rect id="rect5257-5" fill-opacity=".15686" ry="12.208" height="86.33" width="85.991" y="961.18" x="5.1701"/>
  <path id="rect2419-0" d="m17.75 5.4062c-6.642 0-11.969 5.3948-11.969 12.063l0.0002 61.031c0 6.668 5.3268 12.031 11.969 12.031h60.812c6.642 0 11.969-5.363 11.969-12.031v-61.031c0-6.668-5.327-12.063-11.969-12.063l-60.812 0.0002z" transform="translate(0 956.36)" fill="url(#linearGradient8837)"/>
  <path id="rect5265-0" d="m5.7756 1029.8v5.0663c0 6.668 5.3434 12.032 11.985 12.032h60.809c6.6418 0 11.985-5.3645 11.985-12.032v-5.0663c0 6.6681-5.3434 12.032-11.985 12.032h-60.809c-6.6418 0-11.985-5.3643-11.985-12.032z" fill-opacity=".18957"/>
  <path id="path5252-0" d="m5.7756 1033.9v1.0133c0 6.668 5.3434 12.032 11.985 12.032h60.809c6.6418 0 11.985-5.3645 11.985-12.032v-1.0133c0 6.6681-5.3434 12.032-11.985 12.032h-60.809c-6.6418 0-11.985-5.3644-11.985-12.032z" fill-opacity=".098039"/>
  <rect id="rect4772" display="none" height="107.79" width="107.79" y="971.68" x="-369.64" fill="none"/>
  <g id="g4788" display="none" transform="matrix(.21052 0 0 .21052 -369.68 971.63)"></g>
  <g id="g4806" display="none" transform="matrix(.21052 0 0 .21052 -369.68 971.63)">
   <g id="g4808" display="inline">
    <path id="path4810" d="m349.1 256.65c-0.265-0.254 37.637 27.605 39.421 25.012 6.362-9.252 82.046-93.137 84.784-116.24 0.242-2.003-0.516-4.096-0.516-4.096s-1.19-0.144-6.325-4.314c-2.692-2.192-5.483-4.581-5.483-4.581-16.054 0.998-57.885 41.559-111.06 103.57" fill="#050505" display="none"/>
   </g>
  </g>
  <g id="g4796" transform="matrix(.21052 0 0 .21052 -369.68 971.63)"></g>
  <path id="path3856" d="m71.041 994.58a26.945 16.841 0 1 1 -53.891 0 26.945 16.841 0 1 1 53.891 0z" stroke-width="0" fill="url(#radialGradient8819)"/>
  <path id="path3846" opacity=".6" d="m65.15 1024.6a21.055 13.159 0 1 1 -42.109 0 21.055 13.159 0 1 1 42.109 0z" stroke-width="0" fill="url(#radialGradient8816)"/>
  <path id="path3848" d="m23.593 1030.9s3.5556 1.0324 8.2886 1.6226c1.9167 0.239 9.2096 1.0745 14.801 1.0525 0 0 6.81 0.01 10.569-0.5262 3.9333-0.5588 6.1616-1.2718 7.4018-2.6948 0.0323-0.3393 0.59859-1.4453-0.93031-2.5119-3.9088-2.7268-8.962-3.4731-18.777-5.8041-10.854-2.7288-14.097-5.3419-15.718-7.233-1.5363-1.8953 0.28837-5.8314 9.0342-7.7624 4.4281-1.0775 20.92-1.2755 20.92-1.2755-4.7315-3.7566-13.614-10.482-15.43-11.912-1.5924-1.2544-4.1586-3.1794-4.4345-4.8996-0.37212-1.6746 2.2638-2.4808 3.6592-2.5739 4.4965-0.3101 10.637 0.2171 16.094 1.3025 2.7434 0.5455 3.2251 0.4651 3.2251 0.4651 3.9073 0.1861 6.9463-1.8606 6.7913-6.171-0.031-4.3724-4.4027-7.8785-9.2411-8.0317-4.5563-0.14422-15.784 0.65122-15.784 0.65122 13.086 2.6979 15.226 3.3864 15.908 4.9616 0.40313 0.93031-0.67341 1.8553-4.2794 1.6746-3.9258-0.19675-11.97-1.1474-11.97-1.1474-7.6596-1.1784-12.993-2.2948-15.319 0.74425-1.5195 1.9854 0.21707 4.4034 0.89929 5.8299 3.039 5.3028 8.2941 8.9409 11.629 11.505 1.2548 0.9648 5.0857 3.1011 5.0857 3.1011-11.908-3.2561-21.397-1.4265-27.413 1.7366-6.9153 4.0933-5.7324 11.001 5.2407 17.459 6.4812 3.8142 9.7082 5.6466 20.32 6.9494 6.2027 0.989 7.1269 1.3937 7.0798 1.91-0.0664 0.7268-7.3415 1.0023-9.3412 1.1402-5.0872 0.3508-18.244 0.4386-18.31 0.4386z" fill-rule="evenodd" stroke-width="0" fill="#fff"/>
  <path id="path3902" opacity=".25" d="m90 28.156c-3.597 2.233-8.646 5.941-15.75 12.063l-0.125-0.125-0.594 0.562c0.085 0.077 0.167 0.142 0.25 0.219-10.186 8.36-21.068 18.125-21.937 18.906-0.001 0-0.032-0.031-0.032-0.031l-0.031-0.062-0.031 0.062c-0.001 0-0.031-0.062-0.031-0.062l-0.781 0.75c0.008 0.012-0.009 0.019 0 0.031h-0.032l0.032 0.062s0.059 0.058 0.062 0.063c-9.318 9.495-15.113 16.662-14.875 17.5 0.32 1.126 18.738-11.761 19.5-12.406 0.032 0.026 0.219 0.156 0.219 0.156l0.031 0.031 0.844-0.813-0.031-0.031c-0.001 0-0.056-0.089-0.063-0.093 1.843-1.413 11.918-9.173 22.469-18.219 0.171 0.226 0.312 0.469 0.312 0.469l0.594-0.532c-0.023-0.034-0.039-0.059-0.062-0.094 0.419-0.327 5.287-4.152 10.062-8.468v-9.938z" transform="translate(0 956.36)" fill="url(#linearGradient8853)"/>
  <g id="g4820" transform="matrix(.18829 0 0 .18829 .85919 942.87)">
   <path id="path4824" d="m279.48 404.24c-0.007-0.004-7.446-4.112-16.804-11.401-8.082-6.285-13.538-12.214-13.544-12.22l-0.122-0.133 3.646-4.669 0.157-0.205 0.169 0.197c0.017 0.01 5.4 6.295 13.725 12.78 7.913 6.157 16.594 10.586 16.612 10.595l0.229 0.117-3.911 5.026-0.157-0.087zm-16.542-11.737c8.545 6.656 15.469 10.644 16.589 11.275l3.372-4.334c-1.423-0.743-9.253-4.919-16.453-10.521-7.504-5.845-12.637-11.533-13.614-12.645l-3.264 4.184c0.849 0.905 6.01 6.32 13.37 12.041z" fill="#4d4d4d"/>
  </g>
  <path id="path3254" d="m53.47 1018.6s10.022-10.752 19.832-22.591l0.42849 0.13231s20.344-22.296 15.368-24.101c0 0-2.4881-4.9275-22.003 18.783l-0.03753 0.35581c-9.0038 10.384-19.008 23.044-19.008 23.044-7.7274 11.108-12.316 19.318-11.936 20.112 0.51582 1.0785 17.387-15.627 17.357-15.735z" fill-rule="evenodd" stroke="#000030" stroke-width=".5" fill="url(#radialGradient8887)"/>
  <path id="path2430" d="m47.722 1014.5c2.1906 2.2424 5.7611 4.5192 5.7611 4.5192l0.7072-0.8969c-2.4229-1.2663-5.7956-4.4847-5.7956-4.4847l-0.6727 0.8624z" fill-rule="evenodd" fill="url(#radialGradient8884)"/>
  <path id="path3236" d="m66.669 991.16c3.8637 2.4666 6.8995 5.4506 6.8995 5.4506l0.51746-0.60371c-2.0607-2.1804-6.9075-5.4792-6.9075-5.4792l-0.50945 0.63228z" fill-rule="evenodd" fill="url(#radialGradient8881)"/>
  <path id="path3240" d="m87.894 971.46c2.0354 0.17248 2.3803 1.9664 2.3803 1.9664-9.2798 9.6593-22.872 23.7-22.872 23.7l-0.68995-0.58646c11.971-14.351 21.181-25.08 21.181-25.08" fill-rule="evenodd" fill="url(#radialGradient8878)"/>
  <path id="path3944" opacity=".4" d="m90 55.812c-1.761 0.554-3.66 1.167-5.719 1.876-0.009-0.022-0.062-0.188-0.062-0.188l-0.75 0.281c0.048 0.104 0.109 0.209 0.156 0.313-12.233 3.876-25.619 8.794-26.687 9.187-0.001 0 0-0.062 0-0.062v-0.063l-0.063 0.032v-0.032l-1 0.375c0.003 0.014 0.028 0.017 0.031 0.031h-0.062l0.031 0.063s-0.001 0.057 0 0.063c-11.871 5.255-19.718 9.697-19.813 10.562-0.127 1.164 21.203-3.754 22.126-4.062 0.018 0.036 0.093 0.218 0.093 0.218l0.031 0.032 1.094-0.438-0.031-0.031s-0.027-0.086-0.031-0.094c2.176-0.608 14.062-3.971 26.875-8.344 0.07 0.274 0.125 0.531 0.125 0.531l0.75-0.25c-0.008-0.04-0.023-0.083-0.032-0.124 0.187-0.055 1.53-0.472 2.938-0.907v-8.969z" transform="translate(0 956.36)" fill="url(#linearGradient8843)"/>
 </g>
</svg>
