<?xml version="1.0" encoding="UTF-8" standalone="no"?>
<!-- Created with Inkscape (http://www.inkscape.org/) -->
<svg id="svg2" xmlns:rdf="http://www.w3.org/1999/02/22-rdf-syntax-ns#" xmlns="http://www.w3.org/2000/svg" height="96" width="96" version="1.1" xmlns:cc="http://creativecommons.org/ns#" xmlns:xlink="http://www.w3.org/1999/xlink" xmlns:dc="http://purl.org/dc/elements/1.1/">
 <defs id="defs4">
  <linearGradient id="linearGradient3700-09">
   <stop id="stop3702-67" stop-color="#70a83e" offset="0"/>
   <stop id="stop3704-18" stop-color="#9fd058" offset="1"/>
  </linearGradient>
  <linearGradient id="linearGradient9745" y2="5.9877" xlink:href="#linearGradient3700-09" gradientUnits="userSpaceOnUse" x2="48" gradientTransform="translate(-169.06 968.2)" y1="90" x1="48"/>
  <filter id="filter4314" color-interpolation-filters="sRGB">
   <feGaussianBlur id="feGaussianBlur4316" stdDeviation="0.82668854"/>
  </filter>
  <filter id="filter4271" color-interpolation-filters="sRGB">
   <feGaussianBlur id="feGaussianBlur4273" stdDeviation="0.33067541"/>
  </filter>
  <linearGradient id="linearGradient4171">
   <stop id="stop4173" stop-color="#8c8c8c" offset="0"/>
   <stop id="stop4175" stop-color="#303032" offset="1"/>
  </linearGradient>
  <radialGradient id="radialGradient6010" xlink:href="#linearGradient4171" gradientUnits="userSpaceOnUse" cy="50.518" cx="56" gradientTransform="matrix(1.5525 0 0 1.2296 -33.292 943.01)" r="30.119"/>
  <linearGradient id="linearGradient6013" y2="20" xlink:href="#linearGradient4171" gradientUnits="userSpaceOnUse" x2="25" gradientTransform="matrix(.97420 0 0 .94964 -.90508 956.7)" y1="26" x1="32"/>
  <linearGradient id="linearGradient6016" y2="112" spreadMethod="reflect" gradientUnits="userSpaceOnUse" x2="48" gradientTransform="translate(-1.3151 956.52)" y1="64" x1="48">
   <stop id="stop4277" stop-color="#e8f8c8" offset="0"/>
   <stop id="stop4279" stop-color="#e8f8c8" stop-opacity="0" offset="1"/>
  </linearGradient>
  <linearGradient id="linearGradient6032" y2="5.9877" gradientUnits="userSpaceOnUse" x2="48" gradientTransform="matrix(1.0921 0 0 1.125 -5.1821 -7.7737)" y1="90" x1="48">
   <stop id="stop3702-47" stop-color="#5eb71f" offset="0"/>
   <stop id="stop3704-67" stop-color="#4e9425" offset="1"/>
  </linearGradient>
  <radialGradient id="radialGradient6042" gradientUnits="userSpaceOnUse" cy="48" cx="48" gradientTransform="matrix(1.1429 -3.8095e-8 3.8095e-8 1.1429 -6.515 948.56)" r="42">
   <stop id="stop4179" stop-color="#effac2" stop-opacity=".79389" offset="0"/>
   <stop id="stop4133" stop-color="#effac2" stop-opacity="0" offset="1"/>
  </radialGradient>
 </defs>
 <metadata id="metadata7">
  <rdf:RDF>
   <cc:Work rdf:about="">
    <dc:format>image/svg+xml</dc:format>
    <dc:type rdf:resource="http://purl.org/dc/dcmitype/StillImage"/>
    <dc:title/>
   </cc:Work>
  </rdf:RDF>
 </metadata>
 <g id="layer1" transform="translate(0 -956.36)">
  <rect id="rect5263-0" fill-opacity=".019608" ry="12.724" height="89.978" width="89.624" y="959.35" x="3.3534"/>
  <rect id="rect5261-6" fill-opacity=".039216" ry="12.552" height="88.762" width="88.413" y="959.96" x="3.9589"/>
  <rect id="rect5259-9" fill-opacity=".078431" ry="12.38" height="87.546" width="87.202" y="960.57" x="4.5645"/>
  <rect id="rect5257-5" fill-opacity=".15686" ry="12.208" height="86.33" width="85.991" y="961.18" x="5.1701"/>
  <path id="rect2419" d="m17.75 5.4062c-6.642 0-11.969 5.3948-11.969 12.063l0.0002 61.031c0 6.668 5.3268 12.031 11.969 12.031h60.812c6.642 0 11.969-5.363 11.969-12.031v-61.031c0-6.668-5.327-12.063-11.969-12.063l-60.812 0.0002z" transform="translate(0 956.36)" fill="url(#linearGradient6032)"/>
  <path id="rect5265-0" d="m5.7756 1029.8v5.0663c0 6.668 5.3434 12.032 11.985 12.032h60.809c6.6418 0 11.985-5.3645 11.985-12.032v-5.0663c0 6.6681-5.3434 12.032-11.985 12.032h-60.809c-6.6418 0-11.985-5.3643-11.985-12.032z" fill-opacity=".17"/>
  <path id="path5252-0" d="m5.7756 1033.9v1.0133c0 6.668 5.3434 12.032 11.985 12.032h60.809c6.6418 0 11.985-5.3645 11.985-12.032v-1.0133c0 6.6681-5.3434 12.032-11.985 12.032h-60.809c-6.6418 0-11.985-5.3644-11.985-12.032z" fill-opacity=".098039"/>
  <rect id="rect4772" display="none" height="107.79" width="107.79" y="971.68" x="-369.64" fill="none"/>
  <g id="g4788" display="none" transform="matrix(.21052 0 0 .21052 -369.68 971.63)"></g>
  <g id="g4806" display="none" transform="matrix(.21052 0 0 .21052 -369.68 971.63)">
   <g id="g4808" display="inline">
    <path id="path4810" d="m349.1 256.65c-0.265-0.254 37.637 27.605 39.421 25.012 6.362-9.252 82.046-93.137 84.784-116.24 0.242-2.003-0.516-4.096-0.516-4.096s-1.19-0.144-6.325-4.314c-2.692-2.192-5.483-4.581-5.483-4.581-16.054 0.998-57.885 41.559-111.06 103.57" fill="#050505" display="none"/>
   </g>
  </g>
  <g id="g4796" transform="matrix(.21052 0 0 .21052 -369.68 971.63)"></g>
  <rect id="rect3873" rx="6" ry="6" height="84" width="84" display="none" y="974.2" x="-163.06" fill="url(#linearGradient9745)"/>
  <rect id="rect3880" rx="6" ry="6" height="84" width="84" display="none" y="974.2" x="-163.06" fill="url(#linearGradient9745)"/>
  <rect id="rect3359" rx="6" ry="6" height="84" width="84" y="961.42" x="6.3421" fill="url(#radialGradient6042)"/>
  <path id="path4318" opacity=".1" d="m39.554 967.62c-1.553 0.0484-2.8056 0.22079-3.4097 0.38584-1.28 0.3487-2.7125 1.0649-3.501 2.1663-0.52883 0.73569-0.84976 1.6806-0.85242 2.9974 0 0.74519 0.01101 2.4762 0.03049 4.036 0.01939 1.5644 0.03049 2.9878 0.03049 2.9973-0.000906 1.3929-1.1525 2.5207-2.5877 2.5225h-6.5758c-1.4044 0-2.4682 0.23048-3.2879 0.59353-0.82093 0.36333-1.4153 0.8449-1.8571 1.4245-0.87933 1.1507-1.0387 2.5571-1.0351 4.0063 0 0 0.01169 1.2098 0.30444 3.5018 0.24337 1.7735 2.2359 14.156 4.1099 17.924 0.72663 1.466 1.1907 2.084 2.6181 2.7302 3.1806 1.3275 10.447 2.7822 13.852 3.2051 3.3988 0.4239 5.5481 1.3223 6.8194-1.276 0.0049-0.01 0.23398-0.6341 0.57843-1.5729 1.1037-3.2603 1.2786-6.1567 1.2786-8.2501 0-0.2128 0.30444-0.2226 0.30444 0 0 1.478-0.27776 6.6986 3.775 8.1017 1.5999 0.5531 4.9083 1.0391 8.2807 1.4245 3.0493 0.3415 5.2667 1.5143 5.2667 9.1403 0 4.6396-1.0148 5.2824-6.2409 5.2824-4.2364 0-5.8452 0.1054-5.8452-3.1754 0-2.6516 2.6944-2.3741 4.6883-2.3741 0.89058 0 0.24355-0.6491 0.24355-2.2851 0-1.6274 1.0484-2.558 0.06089-2.5818-6.8948-0.1849-10.96-0.01-10.96 8.3984 0 7.6308 3.0007 9.0513 12.786 9.0513 7.6725 0 10.379-0.2409 13.547-9.8229 0.62712-1.8916 2.1573-7.6683 3.0748-17.361 0.58021-6.1283-0.56735-24.622-1.4613-29.291-0.52291-2.7286-2.179-4.1008-3.6837-4.6295-1.6234-0.57197-4.9059-1.157-9.0417-1.6322-3.3274-0.38194-7.2578-0.33826-9.6202-0.26703-0.28351-1.893-1.642-3.6154-3.1661-4.214-2.538-0.99589-5.9359-1.2376-8.5242-1.1574zm-9.0113 1.8399c-0.02523 0-0.06625 0.01-0.09128 0.0294l-12.786 12.375c-0.02504 0.0199-0.05368 0.0323-0.06089 0.0598 0.26453-0.12763 0.64906-0.30455 0.7002-0.32639 1.1139-0.49001 2.4626-0.74196 4.0794-0.74196h6.5758c0.37722 0 0.66903-0.28802 0.66976-0.65288 0 0-0.06089-5.5038-0.06089-7.0332v-0.0294c0-1.2561 0.2596-2.3467 0.73065-3.2644l0.24355-0.41547zm30.322 26.56c0.16111-0.0123 0.34095-0.01 0.51754 0 3.1278 0.10484 3.5508 2.9743 3.5619 4.9262-1.3188-0.5733-2.9405-0.94811-4.7188-1.009-0.94788-0.032-1.8593 0.045-2.7095 0.17811 0.22432-1.766 0.93216-3.9143 3.3488-4.0954z"/>
  <path id="path4301" opacity=".8" d="m40.216 967.58c-1.5941 0.051-2.8799 0.2325-3.5 0.4063-1.3139 0.3672-2.7843 1.1214-3.5938 2.2812-0.54284 0.7747-0.87227 1.7697-0.875 3.1563 0 0.7847 0.0113 2.6075 0.0313 4.25 0.0199 1.6474 0.0313 3.1462 0.0313 3.1562-0.00093 1.4668-1.183 2.6544-2.6562 2.6563h-6.75c-1.4416 0-2.5336 0.2427-3.375 0.625-0.84268 0.3826-1.4528 0.8897-1.9062 1.5-0.90262 1.2117-1.0662 2.6927-1.0625 4.2187 0 0 0.012 1.2739 0.3125 3.6875 0.24982 1.8675 2.2951 14.907 4.2188 18.875 0.74588 1.5437 1.2222 2.1945 2.6875 2.875 3.2648 1.3978 10.724 2.9297 14.219 3.375 3.4888 0.4464 5.695 1.3924 7-1.3437 0.005-0.01 0.24018-0.6677 0.59375-1.6563 1.133-3.4331 1.3125-6.4831 1.3125-8.6875 0-0.2241 0.3125-0.2344 0.3125 0 0 1.5563-0.28512 7.0538 3.875 8.5313 1.6423 0.5824 5.0383 1.0942 8.5 1.5 3.1301 0.3596 5.4062 1.5946 5.4062 9.625 0 4.8856-1.0417 5.5625-6.4062 5.5625-4.3486 0-6 0.111-6-3.3438 0-2.7922 2.7658-2.5 4.8125-2.5 0.91417 0 0.25-0.6835 0.25-2.4062 0-1.7137 1.0762-2.6937 0.0625-2.7188-7.0775-0.1947-11.25-0.01-11.25 8.8438 0 8.0354 3.0802 9.5312 13.125 9.5312 7.8757 0 10.654-0.2536 13.906-10.344 0.64373-1.9919 2.2144-8.0749 3.1562-18.281 0.59558-6.4533-0.58238-25.928-1.5-30.844-0.53676-2.8733-2.2368-4.3183-3.7812-4.875-1.6664-0.6023-5.0359-1.2184-9.2812-1.7188-3.4155-0.4022-7.4501-0.3562-9.875-0.2812-0.29102-1.9934-1.6855-3.8071-3.25-4.4375-2.6052-1.0487-6.0932-1.3032-8.75-1.2188zm-9.25 1.9375c-0.0259 0-0.068 0.01-0.0937 0.031l-13.125 13.031c-0.0257 0.021-0.0551 0.034-0.0625 0.063 0.27154-0.1344 0.66625-0.3207 0.71875-0.3437 1.1434-0.516 2.5278-0.7813 4.1875-0.7813h6.75c0.38721 0 0.68675-0.3033 0.6875-0.6875 0 0-0.0625-5.7957-0.0625-7.4062v-0.031c0-1.3227 0.26648-2.4711 0.75-3.4375l0.25-0.4375zm31.125 27.969c0.16538-0.013 0.34998-0.01 0.53125 0 3.2106 0.1104 3.6448 3.132 3.6562 5.1875-1.3537-0.6037-3.0184-0.9984-4.8438-1.0625-0.97299-0.034-1.9085 0.047-2.7812 0.1875 0.23026-1.8596 0.95685-4.1218 3.4375-4.3125z" transform="matrix(.97420 0 0 .94964 .37613 48.347)" filter="url(#filter4314)" fill="#37820f"/>
  <path id="path4254" d="m40.216 969.58c-1.5941 0.051-2.8799 0.2325-3.5 0.4063-1.3139 0.3672-2.7843 1.1214-3.5938 2.2812-0.54284 0.7747-0.87227 1.7697-0.875 3.1563 0 0.7847 0.0113 2.6075 0.0313 4.25 0.0199 1.6474 0.0313 3.1462 0.0313 3.1562-0.00093 1.4668-1.183 2.6544-2.6562 2.6563h-6.75c-1.4416 0-2.5336 0.2427-3.375 0.625-0.84268 0.3826-1.4528 0.8897-1.9062 1.5-0.90262 1.2117-1.0662 2.6927-1.0625 4.2187 0 0 0.012 1.2739 0.3125 3.6875 0.24982 1.8675 2.2951 14.907 4.2188 18.875 0.74588 1.5437 1.2222 2.1945 2.6875 2.875 3.2648 1.3978 10.724 2.9297 14.219 3.375 3.4888 0.4464 5.695 1.3924 7-1.3437 0.005-0.01 0.24018-0.6677 0.59375-1.6563 1.133-3.4331 1.3125-6.4831 1.3125-8.6875 0-0.2241 0.3125-0.2344 0.3125 0 0 1.5563-0.28512 7.0538 3.875 8.5313 1.6423 0.5824 5.0383 1.0942 8.5 1.5 3.1301 0.3596 5.4062 1.5946 5.4062 9.625 0 4.8856-1.0417 5.5625-6.4062 5.5625-4.3486 0-6 0.111-6-3.3438 0-2.7922 2.7658-2.5 4.8125-2.5 0.91417 0 0.25-0.6835 0.25-2.4062 0-1.7137 1.0762-2.6937 0.0625-2.7188-7.0775-0.1947-11.25-0.01-11.25 8.8438 0 8.0354 3.0802 9.5312 13.125 9.5312 7.8757 0 10.654-0.2536 13.906-10.344 0.64373-1.9919 2.2144-8.0749 3.1562-18.281 0.59558-6.4533-0.58238-25.928-1.5-30.844-0.53676-2.8733-2.2368-4.3183-3.7812-4.875-1.6664-0.6023-5.0359-1.2184-9.2812-1.7188-3.4155-0.4022-7.4501-0.3562-9.875-0.2812-0.29102-1.9934-1.6855-3.8071-3.25-4.4375-2.6052-1.0487-6.0932-1.3032-8.75-1.2188zm-9.25 1.9375c-0.0259 0-0.068 0.01-0.0937 0.031l-13.125 13.031c-0.0257 0.021-0.0551 0.034-0.0625 0.063 0.27154-0.1344 0.66625-0.3207 0.71875-0.3437 1.1434-0.516 2.5278-0.7813 4.1875-0.7813h6.75c0.38721 0 0.68675-0.3033 0.6875-0.6875 0 0-0.0625-5.7957-0.0625-7.4062v-0.031c0-1.3227 0.26648-2.4711 0.75-3.4375l0.25-0.4375zm31.125 27.969c0.16538-0.013 0.34998-0.01 0.53125 0 3.2106 0.1104 3.6448 3.132 3.6562 5.1875-1.3537-0.6037-3.0184-0.9984-4.8438-1.0625-0.97299-0.034-1.9085 0.047-2.7812 0.1875 0.23026-1.8596 0.95685-4.1218 3.4375-4.3125z" transform="matrix(.97420 0 0 .94964 .37613 48.347)" filter="url(#filter4271)" fill="url(#linearGradient6016)"/>
  <path id="path4185" d="m22.376 981.39h0.0049 6.5828c0.37722 0 0.68056-0.29943 0.68128-0.66438 0 0-0.07988-5.502-0.07988-7.0314v-0.0181c0-1.2561 0.27046-2.3512 0.7415-3.269l0.22512-0.41215c-0.02523 0-0.05037 0.0161-0.0754 0.0408l-12.79 12.37c-0.02504 0.0199-0.04072 0.0465-0.04783 0.0731 0.26453-0.12763 0.62627-0.30208 0.67742-0.32392 1.1139-0.49002 2.4645-0.75848 4.0813-0.75848z" fill="url(#linearGradient6013)"/>
  <path id="path4183" d="m39.554 968.16c-1.553 0.0484-2.8056 0.22079-3.4097 0.38584-1.28 0.34871-2.7125 1.0649-3.501 2.1663-0.52883 0.73569-0.84976 1.6806-0.85242 2.9974 0 0.74518 0.01101 2.4762 0.03049 4.036 0.01939 1.5644 0.03049 2.9878 0.03049 2.9973-0.000906 1.3929-1.1525 2.5207-2.5877 2.5225h-6.5758c-1.4044 0-2.4682 0.23048-3.2879 0.59353-0.82093 0.36333-1.4153 0.84489-1.8571 1.4245-0.87933 1.1507-1.0387 2.5571-1.0351 4.0063 0 0 0.01169 1.2098 0.30444 3.5018 0.24337 1.7735 2.2359 14.157 4.1099 17.925 0.72663 1.466 1.1907 2.084 2.6181 2.7302 3.1806 1.3274 10.447 2.7822 13.852 3.2051 3.3988 0.4239 5.5481 1.3222 6.8194-1.2761 0.0049-0.01 0.23398-0.634 0.57843-1.5729 1.1037-3.2602 1.2786-6.1566 1.2786-8.25 0-0.2128 0.30444-0.2226 0.30444 0 0 1.4779-0.27776 6.6986 3.775 8.1017 1.5999 0.5531 4.9083 1.0391 8.2807 1.4245 3.0493 0.3415 5.2667 1.5143 5.2667 9.1403 0 4.6396-1.0148 5.2824-6.2409 5.2824-4.2364 0-5.8452 0.1054-5.8452-3.1754 0-2.6516 2.6944-2.3741 4.6883-2.3741 0.89058 0 0.24355-0.6491 0.24355-2.2851 0-1.6274 1.0484-2.558 0.06089-2.5819-6.8948-0.1849-10.96-0.01-10.96 8.3985 0 7.6308 3.0007 9.0512 12.786 9.0512 7.6725 0 10.379-0.2408 13.547-9.8228 0.62712-1.8916 2.1573-7.6683 3.0748-17.361 0.58021-6.1284-0.56735-24.622-1.4613-29.291-0.52291-2.7286-2.179-4.1008-3.6837-4.6295-1.6234-0.57197-4.9059-1.157-9.0417-1.6322-3.3274-0.38195-7.2578-0.33826-9.6202-0.26704-0.28351-1.893-1.642-3.6154-3.1661-4.214-2.538-0.9959-5.9359-1.2376-8.5242-1.1574zm21.311 28.4c0.16111-0.0123 0.34095-0.01 0.51754 0 3.1278 0.10484 3.5508 2.9743 3.5619 4.9263-1.3188-0.5733-2.9405-0.9481-4.7188-1.009-0.94788-0.032-1.8593 0.045-2.7095 0.178 0.22432-1.7659 0.93216-3.9142 3.3488-4.0953z" fill="url(#radialGradient6010)"/>
  <path id="path4329" opacity=".1" d="m39.554 968.16c-1.553 0.0484-2.8056 0.22079-3.4097 0.38584-1.28 0.34871-2.7125 1.0649-3.501 2.1663-0.52883 0.73569-0.84976 1.6806-0.85242 2.9974 0 0.74518 0.01101 2.4762 0.03049 4.036 0.01939 1.5644 0.03049 2.9878 0.03049 2.9973-0.000906 1.3929-1.1525 2.5207-2.5877 2.5225h-6.5758c-1.4044 0-2.4682 0.23048-3.2879 0.59353-0.82093 0.36333-1.4153 0.84489-1.8571 1.4245-0.87933 1.1507-1.0387 2.5571-1.0351 4.0063 0 0 0.01169 1.2098 0.30444 3.5018 0.24337 1.7735 2.2359 14.157 4.1099 17.925 0.72663 1.466 1.1907 2.084 2.6181 2.7302 3.1806 1.3274 10.447 2.7822 13.852 3.2051 3.3988 0.4239 5.5481 1.3222 6.8194-1.2761 0.0049-0.01 0.23398-0.634 0.57843-1.5729 1.1037-3.2602 1.2786-6.1566 1.2786-8.25 0-0.2128 0.30444-0.2226 0.30444 0 0 1.4779-0.27776 6.6986 3.775 8.1017 1.5999 0.5531 4.9083 1.0391 8.2807 1.4245 3.0493 0.3415 5.2667 1.5143 5.2667 9.1403 0 4.6396-1.0148 5.2824-6.2409 5.2824-4.2364 0-5.8452 0.1054-5.8452-3.1754 0-2.6516 2.6944-2.3741 4.6883-2.3741 0.89058 0 0.24355-0.6491 0.24355-2.2851 0-1.6274 1.0484-2.558 0.06089-2.5819-6.8948-0.1849-10.96-0.01-10.96 8.3985 0 7.6308 3.0007 9.0512 12.786 9.0512 7.6725 0 10.379-0.2408 13.547-9.8228 0.62712-1.8916 2.1573-7.6683 3.0748-17.361 0.58021-6.1284-0.56735-24.622-1.4613-29.291-0.52291-2.7286-2.179-4.1008-3.6837-4.6295-1.6234-0.57197-4.9059-1.157-9.0417-1.6322-3.3274-0.38195-7.2578-0.33826-9.6202-0.26704-0.28351-1.893-1.642-3.6154-3.1661-4.214-2.538-0.9959-5.9359-1.2376-8.5242-1.1574zm0.03049 0.92001c2.5011-0.0779 5.8139 0.18984 8.1284 1.098 1.119 0.43959 2.3551 1.9485 2.5877 3.5018a0.95188 0.92789 0 0 0 0.9742 0.77159c2.3418-0.0703 6.2354-0.10399 9.468 0.26713 4.1038 0.4715 7.3959 1.068 8.8286 1.5728 1.22 0.42867 2.6079 1.5108 3.0748 3.947 0.83771 4.3748 2.0148 23.177 1.4613 29.023-0.91181 9.632-2.4523 15.367-3.0444 17.153-1.5604 4.7198-2.9545 6.9392-4.6883 8.0127-1.7338 1.0733-4.1198 1.187-7.9458 1.187-4.8456 0-7.8845-0.4228-9.5288-1.5135-0.82217-0.5454-1.3554-1.2298-1.7353-2.2851-0.37988-1.0553-0.57843-2.4843-0.57843-4.3327 0-2.0285 0.24617-3.5043 0.66976-4.5405 0.42359-1.0363 1.0011-1.6409 1.7657-2.0774 1.4201-0.8106 3.8344-0.9216 6.9107-0.8606-0.14198 0.4242-0.33488 0.8881-0.33488 1.6619 0 0.6988 0.08563 1.0523 0.15222 1.3948-0.86526-0.016-1.8189-0.1008-2.8008 0.178-0.58696 0.1667-1.2079 0.476-1.644 1.009-0.43607 0.533-0.63932 1.2613-0.63932 2.0774 0 0.894 0.08729 1.6432 0.39577 2.2851 0.30852 0.6418 0.88479 1.1322 1.5222 1.3947 1.2748 0.5251 2.7609 0.4155 4.871 0.4155 2.6531 0 4.426-0.064 5.693-1.098 0.63346-0.5173 1.0097-1.2682 1.2177-2.107 0.20808-0.8389 0.27399-1.8045 0.27399-2.9973 0-3.9007-0.51601-6.2803-1.644-7.8346-1.1279-1.5544-2.8234-2.0442-4.4448-2.2258-3.3519-0.3828-6.7221-0.8894-8.098-1.3651-1.6691-0.5778-2.4076-1.8854-2.8008-3.3831-0.39317-1.4977-0.33488-3.0623-0.33488-3.8579 0-0.2618-0.11241-0.5903-0.33488-0.8012-0.22247-0.211-0.5208-0.3011-0.79153-0.2968-0.54148 0.01-1.0655 0.5604-1.0655 1.098 0 2.043-0.18766 4.8206-1.2482 7.9533-0.16524 0.4504-0.29808 0.8617-0.39577 1.1277-0.04433 0.1207-0.06488 0.1956-0.09128 0.2671-0.0039 0.01-0.02718 0.021-0.03049 0.029-0.0049 0.01-0.00001 0.029 0 0.029a0.95188 0.92789 0 0 0 0 0.029c-0.0039 0.01-0.02796 0.023-0.03049 0.029-0.0039 0.01 0.000117 0.029 0 0.029-0.50627 1.0024-0.89327 1.1207-1.7657 1.1574-0.89585 0.038-2.2907-0.2555-4.049-0.4748-3.3019-0.4101-10.679-1.923-13.608-3.1457-1.2419-0.568-1.4374-0.8856-2.1311-2.2851-0.81621-1.6412-1.8296-5.7014-2.5877-9.4667-0.75815-3.7654-1.3158-7.3228-1.4308-8.1611-0.28802-2.2554-0.30444-3.3831-0.30444-3.3831-0.0039-1.3814 0.16211-2.5391 0.85242-3.4425 0.34861-0.45725 0.80163-0.85192 1.4917-1.1573 0.67556-0.29923 1.5946-0.50454 2.8921-0.50454h6.5758c1.9461 0 3.5302-1.5513 3.5315-3.4425 0-0.0883 0.000341-0.0456 0-0.0893-0.000341-0.0427 0.000672-0.0984 0-0.17805-0.000974-0.15955 0.0029-0.37635 0-0.65288-0.0049-0.55327-0.02075-1.2939-0.03049-2.0774-0.01939-1.5556-0.03049-3.2997-0.03049-4.036 0.0019-1.1706 0.28734-1.8888 0.7002-2.4632 0.58976-0.82372 1.8211-1.5019 2.953-1.8102 0.441-0.12051 1.6996-0.30978 3.1966-0.35612zm-9.0417 0.91992c-0.02523 0-0.06624 0.01-0.09128 0.0294l-12.786 12.375c-0.02504 0.0199-0.05368 0.0323-0.06089 0.0598 0.26453-0.12763 0.64906-0.30455 0.7002-0.32639 1.1139-0.49002 2.4626-0.74196 4.0794-0.74196h6.5758c0.37722 0 0.66903-0.28803 0.66976-0.65288 0 0-0.06089-5.5038-0.06089-7.0332v-0.0294c0-1.2561 0.2596-2.3467 0.73065-3.2644l0.24355-0.41547zm-1.7657 2.938c-0.02299 0.26562-0.15222 0.46447-0.15222 0.74186v0.0294c0 1.4944 0.0566 6.3769 0.06089 6.7662h-6.3018c-0.54335 0-1.0247 0.0646-1.5222 0.11871l7.9153-7.6565zm32.027 22.702c-1.488 0.11148-2.5981 0.90159-3.227 1.8696-0.62897 0.96796-0.88326 2.0714-1.0046 3.0269a0.95188 0.92789 0 0 0 1.096 1.0387c0.80187-0.1257 1.6531-0.2079 2.5268-0.1781 1.6616 0.057 3.1587 0.4304 4.3534 0.9497a0.95188 0.92789 0 0 0 1.3395 -0.8606c-0.0058-1.0388-0.087-2.3616-0.7002-3.5612-0.61323-1.1997-1.9145-2.2227-3.775-2.2851-0.17732-0.01-0.3698-0.0181-0.60887 0zm0.06089 0.92001c0.16111-0.0123 0.34095-0.01 0.51754 0 3.1278 0.10484 3.5508 2.9743 3.5619 4.9263-1.3188-0.5733-2.9405-0.9481-4.7188-1.009-0.94788-0.032-1.8593 0.045-2.7095 0.178 0.22432-1.7659 0.93216-3.9142 3.3488-4.0953z"/>
  <path id="path4204" opacity=".6" d="m30.543 970c-0.02523 0-0.06625 0.01-0.09128 0.0294l-0.36532 0.35612c-0.32499 0.80558-0.51754 1.7258-0.51754 2.7598v0.0294c0 0.0968-0.000458 0.31889 0 0.4451 0.0078-1.2307 0.26717-2.302 0.73065-3.205l0.24355-0.41547zm-0.91331 10.238c-0.01559 0.35108-0.30253 0.62315-0.66976 0.62315h-6.5758c-1.4765 0-2.7204 0.21358-3.775 0.62326l-0.94375 0.91992c-0.02504 0.0199-0.05368 0.0323-0.06089 0.0598 0.26453-0.12763 0.64906-0.30455 0.7002-0.32639 1.1139-0.49002 2.4626-0.74196 4.0794-0.74196h6.5758c0.37722 0 0.66903-0.28802 0.66976-0.65288 0-0.00019 0.000584-0.45127 0-0.50445zm-13.121 8.7545c-0.0019 0.10009-0.000254 0.1962 0 0.29676 0 0 0.01169 1.2098 0.30444 3.5018 0.24337 1.7735 2.2359 14.157 4.1099 17.925 0.72663 1.466 1.1907 2.084 2.6181 2.7302 3.1806 1.3274 10.447 2.7822 13.852 3.2051 3.3988 0.4239 5.5481 1.3222 6.8194-1.2761 0.0049-0.01 0.23398-0.634 0.57843-1.5729 0.9134-2.698 1.1797-5.1122 1.2482-7.0629-0.10093 1.8505-0.4204 4.0836-1.2482 6.5288-0.34445 0.9388-0.57395 1.5664-0.57843 1.5729-1.2713 2.5983-3.4205 1.6999-6.8194 1.276-3.405-0.4229-10.671-1.8776-13.852-3.2051-1.4275-0.6462-1.8915-1.2642-2.6181-2.7302-1.874-3.768-3.8665-16.151-4.1099-17.924-0.25372-1.9868-0.29759-2.987-0.30444-3.2644zm44.356 7.0334c-2.4166 0.18109-3.1245 2.3294-3.3488 4.0954h0.09128c0.29821-1.6406 1.0769-3.3978 3.2575-3.5612 0.16111-0.0123 0.34095-0.01 0.51754 0 2.8569 0.0957 3.4404 2.4892 3.5315 4.3921h0.03049c-0.01111-1.952-0.43414-4.8214-3.5619-4.9262-0.17659-0.01-0.35643-0.0123-0.51754 0zm-14.643 8.8138c-0.07608 0-0.15222 0.071-0.15222 0.178 0 0.1624 0.0019 0.3624 0 0.5342 0-0.2128 0.30444-0.2226 0.30444 0 0.000974-0.1595 0-0.4176 0-0.5342 0-0.1113-0.07608-0.1793-0.15222-0.178zm28.982 1.1574c-0.02241 1.1013-0.07969 2.0531-0.15222 2.8192-0.91753 9.6924-2.4477 15.469-3.0748 17.361-3.168 9.582-5.8749 9.8229-13.547 9.8229-9.174 0-12.39-1.2426-12.756-7.6862 0.22496 6.8923 3.3426 8.2203 12.756 8.2203 7.6725 0 10.379-0.2408 13.547-9.8228 0.62712-1.8916 2.1573-7.6683 3.0748-17.361 0.083-0.8773 0.13416-2.0463 0.15222-3.3534zm-28.8 0.7122c0.03303 2.1031 0.38513 5.7812 3.7446 6.9443 1.5999 0.5531 4.9083 1.0391 8.2807 1.4245 2.8587 0.3201 4.9815 1.3614 5.2363 7.7752-0.16042-6.8712-2.3031-7.9809-5.2363-8.3094-3.3723-0.3854-6.6807-0.8714-8.2807-1.4245-3.0396-1.0524-3.6327-4.2526-3.7446-6.4101zm10.533 12.524c-0.13866 0.439-0.39577 1.0855-0.39577 1.8992 0 0.097-0.0039 0.1773 0 0.2671 0.08339-1.1395 0.60802-1.8834 0.39577-2.1663zm-0.2131 4.0656c-0.06459 0.086-0.20357 0.1187-0.42621 0.1187-1.9939 0-4.6883-0.2775-4.6883 2.3741 0 0.091 0.02796 0.1512 0.03049 0.2374 0.19773-2.3321 2.742-2.0773 4.6579-2.0773 0.4829 0 0.49919-0.2174 0.42621-0.6529z"/>
  <path id="path4348" opacity=".1" d="m39.585 969.08c-1.4968 0.0465-2.756 0.23571-3.1966 0.35612-1.1315 0.30826-2.3638 0.98725-2.953 1.8102-0.41255 0.57387-0.69784 1.2929-0.7002 2.4632 0 0.0817-0.000263 0.34102 0 0.4451 0.0078-1.1513 0.29145-1.8648 0.7002-2.4335 0.58923-0.82296 1.8215-1.502 2.953-1.8102 0.44056-0.12041 1.6998-0.30977 3.1966-0.35611 2.5009-0.0779 5.8145 0.19012 8.1284 1.098 1.1179 0.43912 2.3552 1.9493 2.5877 3.5018a0.9544 0.93034 0 0 0 0.9742 0.77158c2.3417-0.0703 6.2357-0.10398 9.468 0.26714 4.1037 0.47149 7.3964 1.0682 8.8286 1.5728 1.2192 0.42838 2.6081 1.5115 3.0748 3.947 0.52347 2.7337 1.1779 11.108 1.4613 18.429-0.27233-7.4335-0.92603-16.109-1.4613-18.904-0.46673-2.4355-1.8556-3.5186-3.0748-3.947-1.4322-0.50464-4.7249-1.1013-8.8286-1.5728-3.2323-0.37112-7.1262-0.33769-9.468-0.26713a0.9544 0.93034 0 0 1 -0.9742 -0.77159c-0.23251-1.5525-1.4698-3.0627-2.5877-3.5018-2.3139-0.90786-5.6275-1.1755-8.1284-1.098zm-10.807 3.8579-7.9153 7.6565c0.18628-0.0199 0.36219-0.0399 0.54798-0.0598l7.2456-7.0036c0.03322-0.2036 0.10325-0.37928 0.12177-0.59352zm4.0186 7.8048c-0.000974 1.8924-1.584 3.4401-3.5315 3.4425h-6.5758c-1.2973 0-2.217 0.23522-2.8921 0.53417-0.68976 0.30531-1.1434 0.67074-1.4917 1.1277-0.60089 0.7864-0.78179 1.7852-0.82198 2.938 0.07755-0.95088 0.30462-1.7862 0.82198-2.4632 0.34835-0.45697 0.80198-0.8224 1.4917-1.1277 0.67518-0.29894 1.5949-0.53417 2.8921-0.53417h6.5758c1.9474 0 3.5302-1.5501 3.5315-3.4425 0-0.0893 0.000341-0.0456 0-0.0893-0.000341-0.0427 0.000672-0.0984 0-0.17805-0.000428-0.0503-0.000263-0.14539 0-0.20779zm23.807 20.121c-0.0068 0.048-0.02435 0.1003-0.03049 0.1485a0.9544 0.93034 0 0 0 1.096 1.0386c0.80174-0.1256 1.6533-0.2078 2.5268-0.1781 1.6613 0.057 3.1591 0.4305 4.3534 0.9497a0.9544 0.93034 0 0 0 1.3395 -0.8606c-0.000633-0.1112 0.0029-0.239 0-0.3561a0.9544 0.93034 0 0 1 -1.3395 0.7419c-1.1944-0.5192-2.6922-0.8928-4.3534-0.9497-0.87348-0.029-1.7251 0.052-2.5268 0.1781a0.9544 0.93034 0 0 1 -1.0655 -0.7123zm-2.8617 19.141c-2.0436 0.044-3.6543 0.253-4.7188 0.8606-0.76421 0.4363-1.3119 1.0415-1.7353 2.0774-0.42341 1.0358-0.7002 2.5121-0.7002 4.5405 0 0.1049-0.000974 0.1945 0 0.2967 0.01656-1.9317 0.29-3.3589 0.7002-4.3624 0.42341-1.0359 0.97108-1.6411 1.7353-2.0774 1.3946-0.7961 3.7583-0.9145 6.7585-0.8605 0.04988-0.1613 0.10462-0.3327 0.15222-0.4749-0.76906-0.015-1.5107-0.014-2.1919 0zm1.8571 1.8696c-0.0058 0.087 0 0.1707 0 0.2671 0 0.4034 0.02396 0.6825 0.06089 0.92 0.02903 0.0006 0.06254-0.0006 0.09128 0-0.05835-0.2998-0.13499-0.6457-0.15222-1.1871zm9.0113 3.9766c-0.03488 0.4954-0.10902 0.9456-0.2131 1.3652-0.20817 0.8392-0.61425 1.5893-1.2482 2.107-1.2679 1.0353-3.0398 1.098-5.693 1.098-2.1101 0-3.5953 0.1099-4.871-0.4155-0.63784-0.2626-1.2134-0.7524-1.5222-1.3947-0.28074-0.5841-0.3804-1.2583-0.39577-2.0477-0.0039 0.08 0 0.1559 0 0.2374 0 0.8943 0.087 1.6427 0.39577 2.2851 0.30876 0.6423 0.88434 1.1321 1.5222 1.3948 1.2757 0.5253 2.7609 0.4154 4.871 0.4154 2.6532 0 4.4251-0.063 5.693-1.098 0.63394-0.5177 1.04-1.2678 1.2482-2.107 0.13435-0.5416 0.18576-1.166 0.2131-1.84z" fill="#fff"/>
 </g>
</svg>
