<?xml version="1.0" encoding="UTF-8" standalone="no"?>
<!-- Created with Inkscape (http://www.inkscape.org/) -->
<svg id="svg2" xmlns:rdf="http://www.w3.org/1999/02/22-rdf-syntax-ns#" xmlns="http://www.w3.org/2000/svg" height="96" width="96" version="1.1" xmlns:cc="http://creativecommons.org/ns#" xmlns:xlink="http://www.w3.org/1999/xlink" xmlns:dc="http://purl.org/dc/elements/1.1/">
 <defs id="defs4">
  <linearGradient id="linearGradient3804">
   <stop id="stop3806" stop-color="#fff" offset="0"/>
   <stop id="stop3808" stop-color="#fff" stop-opacity="0" offset="1"/>
  </linearGradient>
  <linearGradient id="linearGradient3700-09">
   <stop id="stop3702-67" stop-color="#70a83e" offset="0"/>
   <stop id="stop3704-18" stop-color="#9fd058" offset="1"/>
  </linearGradient>
  <linearGradient id="linearGradient9745" y2="5.9877" xlink:href="#linearGradient3700-09" gradientUnits="userSpaceOnUse" x2="48" gradientTransform="translate(-169.06 968.2)" y1="90" x1="48"/>
  <clipPath id="clipPath3800">
   <path id="path3802" d="m62 6c-3.324 0-6 2.676-6 6v0.53125c0-3.6103 2.921-6.531 6.531-6.531h-0.531zm71.469 0c3.61 0 6.53 2.9207 6.53 6.531v-0.531c0-3.324-2.676-6-6-6h-0.53125zm6.53 6.531c0 36.735-3.5426 60.105-7.8438 69.938-10.82 5.031-35.68 7.531-69.629 7.531h71.469c3.324 0 6-2.676 6-6v-71.469zm-77.469 77.469c-3.61-0.006-6.531-2.921-6.531-6.531v0.531c0 3.324 2.676 6 6 6h0.53125z" fill="url(#linearGradient3804)"/>
  </clipPath>
  <filter id="filter3810" color-interpolation-filters="sRGB">
   <feGaussianBlur id="feGaussianBlur3812" stdDeviation="1.2600071"/>
  </filter>
  <linearGradient id="linearGradient5300" y2="59.821" xlink:href="#linearGradient3804" gradientUnits="userSpaceOnUse" x2="59.612" gradientTransform="matrix(1.0059 0 0 1.0888 -.11945 940.93)" y1="82.29" x1="82.08"/>
  <linearGradient id="linearGradient5307" y2="68.029" xlink:href="#linearGradient3804" gradientUnits="userSpaceOnUse" x2="46.785" gradientTransform="matrix(1.0059 0 0 1.0888 -.11945 940.93)" y1="32.027" x1="46.785"/>
  <linearGradient id="linearGradient5311" y2="112.41" gradientUnits="userSpaceOnUse" x2="110.99" gradientTransform="matrix(.71606 0 0 .77505 2.3356 -12.773)" y1="39.834" x1="38.41">
   <stop id="stop3779" stop-color="#fff" stop-opacity="0" offset="0"/>
   <stop id="stop3785-1" stop-color="#d7d7d7" offset=".50290"/>
   <stop id="stop3781" stop-color="#ccc" offset=".76461"/>
   <stop id="stop3787-7" stop-color="#d7d7d7" offset=".91230"/>
   <stop id="stop3783-9" stop-color="#fff" offset="1"/>
  </linearGradient>
  <linearGradient id="linearGradient5318" y2="5.9877" gradientUnits="userSpaceOnUse" x2="48" gradientTransform="matrix(1.0059 0 0 1.0888 -.11945 -15.43)" y1="90" x1="48">
   <stop id="stop3189-4-5" stop-color="#f0f0f0" offset="0"/>
   <stop id="stop3191-8-2" stop-color="#fff" offset="1"/>
  </linearGradient>
 </defs>
 <metadata id="metadata7">
  <rdf:RDF>
   <cc:Work rdf:about="">
    <dc:format>image/svg+xml</dc:format>
    <dc:type rdf:resource="http://purl.org/dc/dcmitype/StillImage"/>
    <dc:title/>
   </cc:Work>
  </rdf:RDF>
 </metadata>
 <g id="layer1" transform="translate(0 -956.36)">
  <rect id="rect5263-0" fill-opacity=".019608" ry="12.724" height="89.978" width="89.624" y="959.35" x="3.3534"/>
  <rect id="rect5261-6" fill-opacity=".039216" ry="12.552" height="88.762" width="88.413" y="959.96" x="3.9589"/>
  <rect id="rect5259-9" fill-opacity=".078431" ry="12.38" height="87.546" width="87.202" y="960.57" x="4.5645"/>
  <rect id="rect5257-5" fill-opacity=".15686" ry="12.208" height="86.33" width="85.991" y="961.18" x="5.1701"/>
  <path id="rect3145" d="m17.75 5.4062c-6.642 0-11.969 5.3948-11.969 12.063l0.0002 61.031c0 6.668 5.3268 12.031 11.969 12.031h60.812c6.642 0 11.969-5.363 11.969-12.031v-61.031c0-6.668-5.327-12.063-11.969-12.063l-60.812 0.0002z" transform="translate(0 956.36)" fill="#e6e6e6"/>
  <path id="rect5265-0" d="m5.7756 1029.8v5.0663c0 6.668 5.3434 12.032 11.985 12.032h60.809c6.6418 0 11.985-5.3645 11.985-12.032v-5.0663c0 6.6681-5.3434 12.032-11.985 12.032h-60.809c-6.6418 0-11.985-5.3643-11.985-12.032z" fill-opacity="0.17"/>
  <path id="rect2419" d="m17.75 5.4062c-6.088 0-11.055 4.5461-11.844 10.438l0.0002 60.187c0 3.619 2.6877 6.531 6.0318 6.531h72.437c3.344 0 6.031-2.912 6.031-6.531v-60.187c-0.788-5.8917-5.755-10.438-11.844-10.438l-60.812 0.0002z" transform="translate(0 956.36)" fill="url(#linearGradient5318)"/>
  <path id="path5252-0" d="m5.7756 1033.9v1.0133c0 6.668 5.3434 12.032 11.985 12.032h60.809c6.6418 0 11.985-5.3645 11.985-12.032v-1.0133c0 6.6681-5.3434 12.032-11.985 12.032h-60.809c-6.6418 0-11.985-5.3644-11.985-12.032z" fill-opacity=".098039"/>
  <rect id="rect4772" display="none" height="107.79" width="107.79" y="971.68" x="-369.64" fill="none"/>
  <g id="g4788" display="none" transform="matrix(.21052 0 0 .21052 -369.68 971.63)"></g>
  <g id="g4806" display="none" transform="matrix(.21052 0 0 .21052 -369.68 971.63)">
   <g id="g4808" display="inline">
    <path id="path4810" d="m349.1 256.65c-0.265-0.254 37.637 27.605 39.421 25.012 6.362-9.252 82.046-93.137 84.784-116.24 0.242-2.003-0.516-4.096-0.516-4.096s-1.19-0.144-6.325-4.314c-2.692-2.192-5.483-4.581-5.483-4.581-16.054 0.998-57.885 41.559-111.06 103.57" fill="#050505" display="none"/>
   </g>
  </g>
  <g id="g4796" transform="matrix(.21052 0 0 .21052 -369.68 971.63)"></g>
  <rect id="rect3873" rx="6" ry="6" height="84" width="84" display="none" y="974.2" x="-163.06" fill="url(#linearGradient9745)"/>
  <rect id="rect3880" rx="6" ry="6" height="84" width="84" display="none" y="974.2" x="-163.06" fill="url(#linearGradient9745)"/>
  <path id="path3785" opacity=".5" d="m56 83.483c0 3.6105 2.9067 6.5117 6.5172 6.5172 33.948 0 61.157 0.16315 73.402-3.7963 25.12-103.09-79.92-119.17-79.92-2.721z" clip-path="url(#clipPath3800)" transform="matrix(1.0059 0 0 1.0888 -50.414 940.93)" filter="url(#filter3810)" fill="#4d4d4d"/>
  <path id="path3177" opacity=".8" d="m17.75 5.4062c-6.088 0-11.055 4.5461-11.844 10.438l0.0002 59.594c0 3.93 2.962 7.118 6.5938 7.124 34.148 0 59.151-2.71 70.031-8.187 3.7-9.154 6.823-29.131 7.657-59.719-1.251-5.3082-5.949-9.2498-11.626-9.2498h-60.812z" transform="translate(0 956.36)" fill="url(#linearGradient5311)"/>
  <path id="rect2918" opacity=".8" d="m5.9159 971.42h84.495s-0.50806 20.729-4.0644 43.688l-80.431-0.1375v-43.551z" fill="url(#linearGradient5307)"/>
  <path id="path3814" opacity=".5" d="m87.959 949.03c0.90031 1.2147 1.446 2.7717 1.446 4.4571 0 39.995-3.5635 65.44-7.89 76.146-10.88 5.4773-35.887 8.1996-70.035 8.1996-1.5571 0-2.9957-0.591-4.1179-1.5651 1.1995 1.6174 3.0491 2.6506 5.1238 2.6539 34.148 0 59.155-2.7223 70.035-8.1996 4.3265-10.706 7.89-36.15 7.89-76.146 0-2.2456-0.95668-4.2475-2.4519-5.5459z" fill="url(#linearGradient5300)"/>
  <path id="path3831" opacity=".1" d="m90.379 961.93c-0.40768 35.77-3.8038 58.763-7.8585 68.797-10.2 5.135-32.821 7.8448-63.748 8.1657 31.047-0.1088 55.003-1.0956 65.194-6.2265 4.0561-10.036 6.1646-34.732 6.4126-70.736z"/>
  <path id="path3947" opacity=".8" d="m46.304 1009.5c-0.00002 3.0335-0.2567 5.594-0.77002 7.6814-0.51338 2.0725-1.2279 3.7545-2.1436 5.0459-0.90186 1.2765-1.9771 2.2001-3.2258 2.7707-1.2348 0.5558-2.5876 0.8335-4.0583 0.8335s-2.8234-0.2777-4.0583-0.8335c-1.2348-0.5556-2.2962-1.4717-3.1842-2.7482-0.88796-1.2914-1.5817-2.9734-2.0812-5.0458-0.49948-2.0874-0.74922-4.6554-0.74922-7.704 0-3.1987 0.2428-5.8418 0.72841-7.9292 0.49947-2.1025 1.2001-3.7769 2.102-5.0235 0.90183-1.2464 1.9771-2.1174 3.2258-2.613 1.2626-0.51054 2.6569-0.76583 4.1831-0.76587 1.429 0.00004 2.7541 0.25533 3.975 0.76587 1.2348 0.4956 2.2962 1.3666 3.1842 2.613 0.90181 1.2466 1.6025 2.921 2.102 5.0235 0.51332 2.0874 0.77 4.7305 0.77002 7.9292m-5.8689 0c-0.00001-2.2375-0.07635-4.0847-0.22892-5.5414-0.15263-1.4718-0.39545-2.6355-0.72841-3.4916-0.333-0.87095-0.77005-1.4793-1.3111-1.8246-0.52724-0.34536-1.1724-0.51815-1.9355-0.51815-0.8186 0-1.5054 0.1803-2.0603 0.54069-0.55498 0.34536-1.0059 0.95356-1.3528 1.8246-0.333 0.871-0.57579 2.0423-0.72841 3.5141-0.13875 1.4567-0.20813 3.289-0.20812 5.4964-0.00001 2.1775 0.07625 3.9947 0.22893 5.4513 0.1526 1.4568 0.39542 2.6281 0.72841 3.5141 0.33297 0.8711 0.77002 1.4868 1.3111 1.8473 0.54108 0.3604 1.2071 0.5406 1.9979 0.5406 0.76307 0 1.4152-0.1802 1.9563-0.5406 0.54109-0.3605 0.98506-0.9762 1.3319-1.8473 0.34685-0.886 0.5966-2.0573 0.74923-3.5141 0.16648-1.4566 0.24972-3.2738 0.24973-5.4513"/>
  <path id="path3949" opacity=".8" d="m53.48 1025.9v-4.8449h5.7493v-21.344l-5.5137 4.8914v-6.0569l5.835-5.3086h5.697v27.818h5.1925v4.8449h-16.96"/>
  <path id="path5340" d="m17.75 5.4062c-6.6418 0-11.969 5.3946-11.969 12.062v11.031h84.75v-11.031c0-6.6679-5.327-12.062-11.969-12.062z" transform="translate(0 956.36)" fill="#d40000"/>
  <g id="g5353" fill="#999" transform="matrix(1.0051 0 0 .99418 12.75 42.495)">
   <path id="path5355" d="m21.594 929.37v9.2917c0 0.89987-0.12557 3.0345-3.1182 3.0345-0.43947 0-0.89988-0.0419-1.3394-0.1465l-0.43948-0.10463-0.41855 2.2602 0.37669 0.10464c0.6906 0.16742 1.4021 0.25113 2.1137 0.25113 4.8133 0 5.3993-3.1182 5.3993-5.3993v-9.2917h-2.5741"/>
   <path id="path5357" d="m31.421 929.37-5.4411 14.524h2.5113l1.444-3.8088h5.3365l1.4649 3.8088h2.6578l-5.4411-14.524h-2.5322m3.0345 8.3709h-3.7041l1.8625-5.3993 1.8416 5.3993"/>
   <path id="path5359" d="m41.441 929.37v14.524h2.5741v-10.799l6.9688 10.799h3.1391v-14.524h-2.5741v10.778l-7.0107-10.778h-3.0972"/>
  </g>
  <g id="text5342" fill="#f2f2f2" transform="matrix(1.0051 0 0 .99418 12.163 41.991)">
   <path id="path5347" d="m21.594 929.37v9.2917c0 0.89987-0.12557 3.0345-3.1182 3.0345-0.43947 0-0.89988-0.0419-1.3394-0.1465l-0.43948-0.10463-0.41855 2.2602 0.37669 0.10464c0.6906 0.16742 1.4021 0.25113 2.1137 0.25113 4.8133 0 5.3993-3.1182 5.3993-5.3993v-9.2917h-2.5741"/>
   <path id="path5349" d="m31.421 929.37-5.4411 14.524h2.5113l1.444-3.8088h5.3365l1.4649 3.8088h2.6578l-5.4411-14.524h-2.5322m3.0345 8.3709h-3.7041l1.8625-5.3993 1.8416 5.3993"/>
   <path id="path5351" d="m41.441 929.37v14.524h2.5741v-10.799l6.9688 10.799h3.1391v-14.524h-2.5741v10.778l-7.0107-10.778h-3.0972"/>
  </g>
 </g>
</svg>
