<?xml version="1.0" encoding="UTF-8" standalone="no"?>
<!-- Created with Inkscape (http://www.inkscape.org/) -->
<svg id="svg2" xmlns:rdf="http://www.w3.org/1999/02/22-rdf-syntax-ns#" xmlns="http://www.w3.org/2000/svg" height="96" width="96" version="1.1" xmlns:cc="http://creativecommons.org/ns#" xmlns:xlink="http://www.w3.org/1999/xlink" xmlns:dc="http://purl.org/dc/elements/1.1/">
 <defs id="defs4">
  <linearGradient id="linearGradient3700-09">
   <stop id="stop3702-67" stop-color="#70a83e" offset="0"/>
   <stop id="stop3704-18" stop-color="#9fd058" offset="1"/>
  </linearGradient>
  <linearGradient id="linearGradient9745" y2="5.9877" xlink:href="#linearGradient3700-09" gradientUnits="userSpaceOnUse" x2="48" gradientTransform="translate(-169.06 968.2)" y1="90" x1="48"/>
  <radialGradient id="radialGradient6044" gradientUnits="userSpaceOnUse" cy="6" cx="6" gradientTransform="matrix(1.0465 0 0 -1.0558 -1.5596 98.694)" r="42">
   <stop id="stop4982" stop-color="#74c332" offset="0"/>
   <stop id="stop4984" stop-color="#9ecd5e" offset="1"/>
  </radialGradient>
 </defs>
 <metadata id="metadata7">
  <rdf:RDF>
   <cc:Work rdf:about="">
    <dc:format>image/svg+xml</dc:format>
    <dc:type rdf:resource="http://purl.org/dc/dcmitype/StillImage"/>
    <dc:title/>
   </cc:Work>
  </rdf:RDF>
 </metadata>
 <g id="layer1" transform="translate(0 -956.36)">
  <rect id="rect5263-0" fill-opacity=".019608" ry="12.724" height="89.978" width="89.624" y="959.35" x="3.3534"/>
  <rect id="rect5261-6" fill-opacity=".039216" ry="12.552" height="88.762" width="88.413" y="959.96" x="3.9589"/>
  <rect id="rect5259-9" fill-opacity=".078431" ry="12.38" height="87.546" width="87.202" y="960.57" x="4.5645"/>
  <rect id="rect5257-5" fill-opacity=".15686" ry="12.208" height="86.33" width="85.991" y="961.18" x="5.1701"/>
  <path id="rect2419" d="m17.75 5.4062c-6.642 0-11.969 5.3948-11.969 12.063l0.0002 61.031c0 6.668 5.3268 12.031 11.969 12.031h60.812c6.642 0 11.969-5.363 11.969-12.031v-61.031c0-6.668-5.327-12.063-11.969-12.063l-60.812 0.0002z" transform="translate(0 956.36)" fill="url(#radialGradient6044)"/>
  <path id="rect5265-0" d="m5.7756 1029.8v5.0663c0 6.668 5.3434 12.032 11.985 12.032h60.809c6.6418 0 11.985-5.3645 11.985-12.032v-5.0663c0 6.6681-5.3434 12.032-11.985 12.032h-60.809c-6.6418 0-11.985-5.3643-11.985-12.032z" fill-opacity="0.17"/>
  <path id="path5252-0" d="m5.7756 1033.9v1.0133c0 6.668 5.3434 12.032 11.985 12.032h60.809c6.6418 0 11.985-5.3645 11.985-12.032v-1.0133c0 6.6681-5.3434 12.032-11.985 12.032h-60.809c-6.6418 0-11.985-5.3644-11.985-12.032z" fill-opacity=".098039"/>
  <rect id="rect4772" display="none" height="107.79" width="107.79" y="971.68" x="-369.64" fill="none"/>
  <g id="g4788" display="none" transform="matrix(.21052 0 0 .21052 -369.68 971.63)"></g>
  <g id="g4806" display="none" transform="matrix(.21052 0 0 .21052 -369.68 971.63)">
   <g id="g4808" display="inline">
    <path id="path4810" d="m349.1 256.65c-0.265-0.254 37.637 27.605 39.421 25.012 6.362-9.252 82.046-93.137 84.784-116.24 0.242-2.003-0.516-4.096-0.516-4.096s-1.19-0.144-6.325-4.314c-2.692-2.192-5.483-4.581-5.483-4.581-16.054 0.998-57.885 41.559-111.06 103.57" fill="#050505" display="none"/>
   </g>
  </g>
  <g id="g4796" transform="matrix(.21052 0 0 .21052 -369.68 971.63)"></g>
  <rect id="rect3873" rx="6" ry="6" height="84" width="84" display="none" y="974.2" x="-163.06" fill="url(#linearGradient9745)"/>
  <rect id="rect3880" rx="6" ry="6" height="84" width="84" display="none" y="974.2" x="-163.06" fill="url(#linearGradient9745)"/>
  <path id="path4061" opacity="0.08" d="m31.27 1031.7c-0.86515 0.047-2.1552 0.02-3.4136-0.6916-1.1533-0.653-1.9058-1.6267-2.3719-2.562-0.44658-0.8961-0.68935-1.7479-0.9135-2.5463-0.5077-1.8084-0.87464-3.9629-1.1699-6.4287-0.59069-4.9324-0.86542-11.107-0.86542-17.274 0-6.1664 0.27481-12.326 0.86542-17.258 0.29529-2.4658 0.66223-4.6203 1.1699-6.4287 0.22415-0.79841 0.46693-1.6502 0.9135-2.5463 0.46608-0.93521 1.2186-1.909 2.3719-2.562 1.1424-0.64688 2.3668-0.82454 3.4457-0.75447 1.038 0.0674 1.9249 0.31449 2.7245 0.5187 1.8552 0.4738 3.944 1.2358 6.2663 2.2162 4.6456 1.9612 10.223 4.8058 15.674 7.8904 5.4511 3.0851 10.738 6.4054 14.792 9.3679 2.0226 1.4779 3.7604 2.8528 5.1124 4.1967 0.5974 0.5938 1.2443 1.2303 1.811 2.059 0.60226 0.88072 1.0577 2.013 1.0577 3.3006 0 2.3891-1.5256 3.9911-2.6123 5.1084-1.2235 1.2579-2.7882 2.5446-4.6156 3.9137-3.6643 2.7453-8.4704 5.8009-13.526 8.7392-5.0584 2.9398-10.355 5.7472-15.001 7.8747-4.6032 2.108-8.3584 3.6861-11.715 3.8666z" fill-rule="evenodd" fill="#2d5016"/>
  <path id="path4057" opacity=".1" d="m31.19 1030.4c-0.76484 0.042-1.746 0.012-2.6764-0.5188-0.86934-0.4922-1.4642-1.2517-1.843-2.0118-0.37883-0.7602-0.59288-1.5268-0.81735-2.3263-0.4798-1.709-0.84732-3.8138-1.1379-6.24-0.58113-4.8526-0.8494-10.988-0.8494-17.117 0-6.1293 0.26831-12.249 0.8494-17.101 0.29056-2.4262 0.65808-4.531 1.1379-6.24 0.22447-0.79952 0.43852-1.5661 0.81735-2.3263 0.37883-0.76013 0.9737-1.5196 1.843-2.0119 0.86718-0.49103 1.8476-0.63748 2.7085-0.58156 0.86086 0.0559 1.6478 0.27776 2.4681 0.48725 1.7525 0.44757 3.7878 1.1882 6.074 2.1534 4.5739 1.931 10.131 4.7473 15.546 7.8118 5.4153 3.0648 10.672 6.372 14.664 9.2893 1.9953 1.4579 3.68 2.8064 4.9522 4.071 0.59517 0.59159 1.1695 1.1667 1.6507 1.8704 0.48125 0.70372 0.83337 1.5933 0.83337 2.5776 0 1.8526-1.1717 3.1103-2.2437 4.2124-1.1442 1.1765-2.6568 2.4249-4.4553 3.7724-3.5975 2.6952-8.3729 5.7402-13.398 8.6605-5.0271 2.9215-10.297 5.7094-14.889 7.8119-4.5753 2.0952-8.2714 3.5973-11.235 3.7566z" fill-rule="evenodd" fill="#2d5016"/>
  <path id="path4053" opacity=".15" d="m31.11 1029c-0.65279 0.035-1.2672 0-1.843-0.33-1.1733-0.6643-1.5244-1.8662-1.9712-3.4579-0.44687-1.5918-0.80457-3.6382-1.0898-6.02-0.57046-4.7634-0.8494-10.859-0.8494-16.944 0-6.0852 0.27894-12.165 0.8494-16.928 0.28523-2.3817 0.64292-4.4283 1.0898-6.02 0.44687-1.5917 0.7979-2.7936 1.9712-3.458 1.1733-0.66437 2.4095-0.36891 4.0387 0.0472 1.6291 0.41607 3.6196 1.1423 5.8657 2.0905 4.4922 1.8965 10.011 4.6915 15.385 7.7332 5.3745 3.0417 10.598 6.3295 14.52 9.195 1.9609 1.4328 3.5936 2.7543 4.7759 3.9295s2.0674 2.0819 2.0674 3.4106c0 1.2461-0.78677 2.1047-1.843 3.1909-1.0563 1.086-2.5184 2.3118-4.2791 3.6307-3.5214 2.6382-8.264 5.6664-13.254 8.5664-4.9898 2.8998-10.229 5.6582-14.76 7.7332-4.5312 2.075-8.2158 3.4988-10.674 3.6308z" fill-rule="evenodd" fill="#2d5016"/>
  <path id="path4047" opacity=".3" d="m29.806 976.72c-4.502 2.5492-4.502 48.435 0 50.984 4.502 2.5492 45.02-20.394 45.02-25.492 0-5.0982-40.518-28.041-45.02-25.492z" fill-rule="evenodd" fill="#2d5016"/>
  <path id="path3128" d="m29.806 975.57c-4.502 2.5492-4.502 48.435 0 50.984 4.502 2.5492 45.02-20.394 45.02-25.492 0-5.0983-40.518-28.041-45.02-25.492z" fill-rule="evenodd" fill="#f9f9f9"/>
 </g>
</svg>
