<?xml version="1.0" encoding="UTF-8" standalone="no"?>
<!-- Created with Inkscape (http://www.inkscape.org/) -->
<svg id="svg2" xmlns:rdf="http://www.w3.org/1999/02/22-rdf-syntax-ns#" xmlns="http://www.w3.org/2000/svg" height="96" width="96" version="1.1" xmlns:cc="http://creativecommons.org/ns#" xmlns:xlink="http://www.w3.org/1999/xlink" xmlns:dc="http://purl.org/dc/elements/1.1/">
 <defs id="defs4">
  <linearGradient id="linearGradient3700-0">
   <stop id="stop3702-2" stop-color="#70a83e" offset="0"/>
   <stop id="stop3704-9" stop-color="#9fd058" offset="1"/>
  </linearGradient>
  <linearGradient id="linearGradient4982" y2="5.9877" xlink:href="#linearGradient3700-0" gradientUnits="userSpaceOnUse" x2="48" gradientTransform="translate(101.91 941.34)" y1="90" x1="48"/>
  <clipPath id="clipPath3613-55">
   <rect id="rect3615-88" rx="6" ry="6" height="84" width="84" y="6" x="6" fill="#fff"/>
  </clipPath>
  <filter id="filter3794-41" height="1.384" width="1.384" color-interpolation-filters="sRGB" y="-.192" x="-.192">
   <feGaussianBlur id="feGaussianBlur3796-50" stdDeviation="5.28"/>
  </filter>
  <linearGradient id="linearGradient3182" y2="5.9877" gradientUnits="userSpaceOnUse" y1="90" gradientTransform="matrix(1.125 0 0 1.0417 -7.75 -3.25)" x2="48" x1="48">
   <stop id="stop4083" stop-color="#8c8c8c" offset="0"/>
   <stop id="stop4085" stop-color="#dcdcdc" offset="1"/>
  </linearGradient>
  <linearGradient id="linearGradient90466" y2="138.66" gradientUnits="userSpaceOnUse" x2="48" y1="20.221" x1="48">
   <stop id="stop3739-532" stop-color="#fff" offset="0"/>
   <stop id="stop3741-666" stop-color="#fff" stop-opacity="0" offset="1"/>
  </linearGradient>
  <linearGradient id="linearGradient3967" y2="15.996" gradientUnits="userSpaceOnUse" x2="45.996" gradientTransform="matrix(-1 0 0 -1 95.996 95.996)" y1="79.996" x1="45.996">
   <stop id="stop4283-9-5" stop-color="#1e1e1e" offset="0"/>
   <stop id="stop4285-8-7" stop-color="#505050" offset="1"/>
  </linearGradient>
 </defs>
 <metadata id="metadata7">
  <rdf:RDF>
   <cc:Work rdf:about="">
    <dc:format>image/svg+xml</dc:format>
    <dc:type rdf:resource="http://purl.org/dc/dcmitype/StillImage"/>
    <dc:title/>
   </cc:Work>
  </rdf:RDF>
 </metadata>
 <g id="layer1" transform="translate(0 -956.36)">
  <rect id="rect5261-6" fill-opacity=".039216" ry="12.552" height="88.762" width="88.762" y="959.96" x="3.6078"/>
  <rect id="rect5259-9" fill-opacity=".078431" ry="12.38" height="87.546" width="87.546" y="960.57" x="4.2157"/>
  <rect id="rect5257-5" fill-opacity=".15686" ry="12.208" height="86.33" width="86.33" y="961.18" x="4.8237"/>
  <path id="rect2419" opacity=".9" d="m17.469 5.4062c-6.668 0-12.032 5.3948-12.032 12.063l0.0005 61.031c0 5.418 3.5332 9.982 8.4375 11.5h68.187c4.715-1.457 8.172-5.734 8.438-10.875v-62.281c-0.321-6.377-5.54-11.438-12-11.438l-61.031 0.0002z" transform="translate(0 956.36)" fill="url(#linearGradient3182)"/>
  <path id="rect5265-0" d="m5.4316 1029.8v5.0663c0 6.668 5.3645 12.032 12.032 12.032h61.049c6.668 0 12.032-5.3645 12.032-12.032v-5.0663c0 6.6681-5.3645 12.032-12.032 12.032h-61.049c-6.668 0-12.032-5.3643-12.032-12.032z" fill-opacity=".23529"/>
  <path id="path5252-0" d="m5.4316 1033.9v1.0133c0 6.668 5.3645 12.032 12.032 12.032h61.049c6.668 0 12.032-5.3645 12.032-12.032v-1.0133c0 6.6681-5.3645 12.032-12.032 12.032h-61.049c-6.668 0-12.032-5.3644-12.032-12.032z" fill-opacity=".098039"/>
  <rect id="rect3873" rx="6" ry="6" height="84" width="84" display="none" y="947.34" x="107.91" fill="url(#linearGradient4982)"/>
  <rect id="rect3880" rx="6" ry="6" height="84" width="84" display="none" y="947.34" x="107.91" fill="url(#linearGradient4982)"/>
  <g id="layer5" transform="translate(-.5 953.86)">
   <rect id="rect3171" height="66" stroke="#fff" stroke-linecap="round" stroke-width=".5" fill="url(#linearGradient90466)" rx="12" ry="12" width="66" opacity=".3" clip-path="url(#clipPath3613-55)" filter="url(#filter3794-41)" y="15" x="15"/>
  </g>
  <g id="layer4" transform="translate(.5 954.36)">
   <path id="path3174" style="color:#000000" d="m48 16c-2.216 0-4 1.784-4 4v21.062l-18.25-10.531c-1.919-1.108-4.361-0.45-5.469 1.469-1.108 1.9191-0.45036 4.3607 1.4688 5.4688l18.25 10.531-18.25 10.531c-1.9191 1.108-2.5768 3.5496-1.4688 5.4688 1.108 1.9191 3.5496 2.5768 5.4688 1.4688l18.25-10.531v21.062c0 2.216 1.784 4 4 4s4-1.784 4-4v-21.062l18.25 10.531c1.9191 1.108 4.3608 0.45036 5.4688-1.4688 1.108-1.9191 0.45036-4.3607-1.4688-5.4688l-18.25-10.531 18.25-10.531c1.919-1.108 2.577-3.55 1.469-5.469s-3.55-2.577-5.469-1.469l-18.25 10.531v-21.062c0-2.216-1.784-4-4-4z" fill="url(#linearGradient3967)"/>
   <path id="path3987" opacity=".2" style="color:#000000" d="m48 16c-2.216 0-4 1.784-4 4v21.062l-18.25-10.531c-1.919-1.108-4.361-0.45-5.469 1.469-1.108 1.9191-0.45036 4.3607 1.4688 5.4688l18.25 10.531-18.25 10.531c-1.9191 1.108-2.5768 3.5496-1.4688 5.4688 1.108 1.9191 3.5496 2.5768 5.4688 1.4688l18.25-10.531v21.062c0 2.216 1.784 4 4 4s4-1.784 4-4v-21.062l18.25 10.531c1.9191 1.108 4.3608 0.45036 5.4688-1.4688 1.108-1.9191 0.45036-4.3607-1.4688-5.4688l-18.25-10.531 18.25-10.531c1.919-1.108 2.577-3.55 1.469-5.469s-3.55-2.577-5.469-1.469l-18.25 10.531v-21.062c0-2.216-1.784-4-4-4zm0 1c1.6792 0 3 1.3208 3 3v21.062a1.0003 1.0003 0 0 0 1.5 0.875l18.25-10.531c1.4526-0.83863 3.2544-0.36001 4.0938 1.0938 0.83863 1.4526 0.36001 3.2544-1.0938 4.0938l-18.25 10.531a1.0003 1.0003 0 0 0 0 1.75l18.25 10.531c1.4538 0.83933 1.9324 2.6412 1.0938 4.0938-0.83933 1.4538-2.6412 1.9324-4.0938 1.0938l-18.25-10.532a1.0003 1.0003 0 0 0 -1.5 0.876v21.062c0 1.6792-1.3208 3-3 3s-3-1.3208-3-3v-21.062a1.0003 1.0003 0 0 0 -1.5 -0.875l-18.25 10.531c-1.453 0.838-3.254 0.36-4.094-1.094-0.838-1.453-0.36-3.254 1.094-4.094l18.25-10.531a1.0003 1.0003 0 0 0 0 -1.75l-18.25-10.531c-1.454-0.84-1.932-2.641-1.094-4.094 0.84-1.454 2.641-1.932 4.094-1.094l18.25 10.532a1.0003 1.0003 0 0 0 1.5 -0.876v-21.062c0-1.6792 1.3208-3 3-3z"/>
   <path id="path3994" opacity=".05" style="color:#000000" d="m48 16c-2.216 0-4 1.784-4 4v21.062l-18.25-10.531c-1.919-1.108-4.361-0.45-5.469 1.469-1.108 1.9191-0.45036 4.3607 1.4688 5.4688l18.25 10.531-18.25 10.531c-1.9191 1.108-2.5768 3.5496-1.4688 5.4688 1.108 1.9191 3.5496 2.5768 5.4688 1.4688l18.25-10.531v21.062c0 2.216 1.784 4 4 4s4-1.784 4-4v-21.062l18.25 10.531c1.9191 1.108 4.3608 0.45036 5.4688-1.4688 1.108-1.9191 0.45036-4.3607-1.4688-5.4688l-18.25-10.531 18.25-10.531c1.919-1.108 2.577-3.55 1.469-5.469s-3.55-2.577-5.469-1.469l-18.25 10.531v-21.062c0-2.216-1.784-4-4-4zm0 2c1.1423 0 2 0.85765 2 2v21.062a2.0007 2.0007 0 0 0 3 1.7188l18.25-10.531c0.98599-0.56926 2.1793-0.23841 2.75 0.75 0.56926 0.98599 0.23841 2.1793-0.75 2.75l-18.25 10.531a2.0007 2.0007 0 0 0 0 3.4375l18.25 10.532c0.98842 0.57066 1.3193 1.764 0.75 2.75-0.57066 0.98841-1.764 1.3193-2.75 0.75l-18.25-10.531a2.0007 2.0007 0 0 0 -3 1.719v21.062c0 1.1423-0.85766 2-2 2s-2-0.85766-2-2v-21.062a2.0007 2.0007 0 0 0 -3 -1.719l-18.25 10.531c-0.986 0.569-2.179 0.238-2.75-0.75-0.569-0.986-0.238-2.179 0.75-2.75l18.25-10.531a2.0007 2.0007 0 0 0 0 -3.4375l-18.25-10.532c-0.988-0.571-1.319-1.764-0.75-2.75 0.57066-0.98842 1.764-1.3193 2.75-0.75l18.25 10.531a2.0007 2.0007 0 0 0 3 -1.719v-21.062c0-1.1423 0.85766-2 2-2z"/>
   <path id="path3969" opacity=".6" style="color:#000000" d="m48 16c-2.216 0-4 1.784-4 4v1c0-2.216 1.784-4 4-4s4 1.784 4 4v-1c0-2.216-1.784-4-4-4zm-24.531 14c-1.2812 0.09083-2.495 0.80055-3.1875 2-0.45574 0.78936-0.6066 1.663-0.5 2.5 0.06417-0.51609 0.223-1.0202 0.5-1.5 1.108-1.9191 3.5496-2.5768 5.4688-1.4688l18.25 10.531v-1l-18.25-10.531c-0.72-0.415-1.513-0.585-2.281-0.531zm49.062 0c-0.768-0.054-1.561 0.116-2.281 0.531l-18.25 10.531v1l18.25-10.531c1.9191-1.108 4.3608-0.45036 5.4688 1.4688 0.277 0.47978 0.43583 0.98391 0.5 1.5 0.1066-0.837-0.04426-1.7106-0.5-2.5-0.6925-1.1994-1.9063-1.9092-3.1875-2zm-33.406 18.5-17.375 10.031c-1.4393 0.831-2.1613 2.4205-1.9688 3.9688 0.15258-1.1979 0.839-2.3165 1.9688-2.9688l18.25-10.531-0.875-0.5zm17.75 0l-0.875 0.5 18.25 10.531c1.13 0.653 1.816 1.771 1.969 2.969 0.192-1.548-0.53-3.138-1.969-3.969l-17.375-10.031z"/>
   <path id="path3978" opacity=".6" style="color:#000000" d="m19.781 34.5c-0.19252 1.5483 0.52942 3.1377 1.9688 3.9688l17.375 10.031 0.875-0.5-18.25-10.531c-1.13-0.653-1.816-1.771-1.969-2.969zm56.438 0c-0.153 1.198-0.839 2.316-1.969 2.969l-18.25 10.531 0.875 0.5 17.375-10.031c1.4393-0.831 2.1613-2.4205 1.9688-3.9688zm-32.219 20.438-18.25 10.531c-1.919 1.108-4.361 0.45-5.469-1.469-0.277-0.47978-0.43583-0.98391-0.5-1.5-0.1066 0.837 0.04426 1.7106 0.5 2.5 1.108 1.9191 3.5496 2.5768 5.4688 1.4688l18.25-10.531v-1zm8 0v1l18.25 10.531c1.9191 1.108 4.3608 0.45036 5.4688-1.4688 0.45574-0.78936 0.6066-1.663 0.5-2.5-0.06417 0.51609-0.223 1.0202-0.5 1.5-1.108 1.9191-3.5496 2.5768-5.4688 1.4688l-18.25-10.531zm-8 21.062v1c0 2.216 1.784 4 4 4s4-1.784 4-4v-1c0 2.216-1.784 4-4 4s-4-1.784-4-4z" fill="#fff"/>
  </g>
 </g>
</svg>
