<?xml version="1.0" encoding="UTF-8" standalone="no"?>
<!-- Created with Inkscape (http://www.inkscape.org/) -->
<svg id="svg2" xmlns:rdf="http://www.w3.org/1999/02/22-rdf-syntax-ns#" xmlns="http://www.w3.org/2000/svg" height="96" width="96" version="1.1" xmlns:cc="http://creativecommons.org/ns#" xmlns:xlink="http://www.w3.org/1999/xlink" xmlns:dc="http://purl.org/dc/elements/1.1/">
 <defs id="defs4">
  <linearGradient id="linearGradient3700-0">
   <stop id="stop3702-2" stop-color="#70a83e" offset="0"/>
   <stop id="stop3704-9" stop-color="#9fd058" offset="1"/>
  </linearGradient>
  <linearGradient id="linearGradient4982" y2="5.9877" xlink:href="#linearGradient3700-0" gradientUnits="userSpaceOnUse" x2="48" gradientTransform="translate(101.91 941.34)" y1="90" x1="48"/>
  <clipPath id="clipPath2926">
   <rect id="rect2928" rx="6" ry="6" height="84" width="84" y="6" x="6" fill="url(#linearGradient2930)"/>
  </clipPath>
  <linearGradient id="linearGradient7729" y2="1056.6" gradientUnits="userSpaceOnUse" x2="145.61" gradientTransform="translate(-40)" y1="983.62" x1="143.61">
   <stop id="stop7700" stop-color="#999" offset="0"/>
   <stop id="stop7702" stop-color="#999" stop-opacity="0" offset="1"/>
  </linearGradient>
  <linearGradient id="linearGradient7731" y2="30.797" gradientUnits="userSpaceOnUse" x2="9.283" y1="54.566" x1="9.283">
   <stop id="stop3718" stop-color="#c83771" offset="0"/>
   <stop id="stop3720" stop-color="#c83771" stop-opacity="0" offset="1"/>
  </linearGradient>
  <linearGradient id="linearGradient7733" y2="40.422" gradientUnits="userSpaceOnUse" x2="16.536" y1="62.395" x1="16.536">
   <stop id="stop3726" stop-color="#d35fbc" offset="0"/>
   <stop id="stop3728-4" stop-color="#d35fbc" stop-opacity="0" offset="1"/>
  </linearGradient>
  <linearGradient id="linearGradient7735" y2="32.08" gradientUnits="userSpaceOnUse" x2="22.525" y1="66.206" x1="22.525">
   <stop id="stop3734-8" stop-color="#8d5fd3" offset="0"/>
   <stop id="stop3736-1" stop-color="#8d5fd3" stop-opacity="0" offset="1"/>
  </linearGradient>
  <linearGradient id="linearGradient7737" y2="23.204" gradientUnits="userSpaceOnUse" x2="29.778" y1="54.061" x1="29.778">
   <stop id="stop3742-9" stop-color="#59f" offset="0"/>
   <stop id="stop3744-3" stop-color="#59f" stop-opacity="0" offset="1"/>
  </linearGradient>
  <linearGradient id="linearGradient7739" y2="46.717" gradientUnits="userSpaceOnUse" x2="37.03" y1="68.961" x1="37.03">
   <stop id="stop3751-3" stop-color="#37abc8" offset="0"/>
   <stop id="stop3753-2" stop-color="#37abc8" stop-opacity="0" offset="1"/>
  </linearGradient>
  <linearGradient id="linearGradient7741" y2="37.392" gradientUnits="userSpaceOnUse" x2="44.283" y1="64.162" x1="44.283">
   <stop id="stop3759-4" stop-color="#70e4cd" offset="0"/>
   <stop id="stop3761" stop-color="#70e4cd" stop-opacity="0" offset="1"/>
  </linearGradient>
  <linearGradient id="linearGradient7743" y2="12.37" gradientUnits="userSpaceOnUse" x2="51.283" y1="60.879" x1="51.283">
   <stop id="stop3767" stop-color="#53df53" offset="0"/>
   <stop id="stop3769-7" stop-color="#53df53" stop-opacity="0" offset="1"/>
  </linearGradient>
  <linearGradient id="linearGradient7745" y2="27.465" gradientUnits="userSpaceOnUse" x2="57.525" y1="65.678" x1="57.525">
   <stop id="stop3775" stop-color="#aad400" offset="0"/>
   <stop id="stop3777" stop-color="#aad400" stop-opacity="0" offset="1"/>
  </linearGradient>
  <linearGradient id="linearGradient7747" y2="35.095" gradientUnits="userSpaceOnUse" x2="64.778" y1="63.91" x1="64.778">
   <stop id="stop3783-7" stop-color="#ffd42a" offset="0"/>
   <stop id="stop3785-8" stop-color="#ffd42a" stop-opacity="0" offset="1"/>
  </linearGradient>
  <linearGradient id="linearGradient7749" y2="18.954" gradientUnits="userSpaceOnUse" x2="72.788" y1="60.122" x1="72.788">
   <stop id="stop3791-4" stop-color="#ff992a" offset="0"/>
   <stop id="stop3793-3" stop-color="#ff992a" stop-opacity="0" offset="1"/>
  </linearGradient>
  <linearGradient id="linearGradient7751" y2="40.421" gradientUnits="userSpaceOnUse" x2="78.273" y1="58.354" x1="78.273">
   <stop id="stop3799-9" stop-color="#f60" offset="0"/>
   <stop id="stop3801" stop-color="#f60" stop-opacity="0" offset="1"/>
  </linearGradient>
  <linearGradient id="linearGradient7753" y2="34.361" gradientUnits="userSpaceOnUse" x2="85.525" y1="60.879" x1="85.525">
   <stop id="stop3807" stop-color="#d40000" offset="0"/>
   <stop id="stop3809-3" stop-color="#d40000" stop-opacity="0" offset="1"/>
  </linearGradient>
  <linearGradient id="linearGradient7755" y2="76.054" gradientUnits="userSpaceOnUse" x2="55.939" gradientTransform="matrix(1.0357 0 0 1.0298 57.643 953.67)" y1="22.033" x1="55.939">
   <stop id="stop3632" stop-color="#dedede" offset="0"/>
   <stop id="stop3634" stop-color="#fff" offset="1"/>
  </linearGradient>
  <clipPath id="clipPath7757" clipPathUnits="userSpaceOnUse">
   <path id="path7759" d="m76.762 961.77c-6.668 0-12.031 5.3945-12.031 12.062v61.031c0 5.4178 3.5332 9.9818 8.4375 11.5h68.187c4.7148-1.4568 8.1719-5.7337 8.4375-10.875v-62.281c-0.32117-6.3771-5.5404-11.438-12-11.438h-61.031z" fill="#f2f2f2"/>
  </clipPath>
 </defs>
 <metadata id="metadata7">
  <rdf:RDF>
   <cc:Work rdf:about="">
    <dc:format>image/svg+xml</dc:format>
    <dc:type rdf:resource="http://purl.org/dc/dcmitype/StillImage"/>
    <dc:title/>
   </cc:Work>
  </rdf:RDF>
 </metadata>
 <g id="layer1" transform="translate(0 -956.36)">
  <rect id="rect5261-6" fill-opacity=".039216" ry="12.552" height="88.762" width="88.762" y="959.96" x="3.6078"/>
  <rect id="rect5259-9" fill-opacity=".078431" ry="12.38" height="87.546" width="87.546" y="960.57" x="4.2157"/>
  <rect id="rect5257-5" fill-opacity=".15686" ry="12.208" height="86.33" width="86.33" y="961.18" x="4.8237"/>
  <path id="rect2419" d="m17.469 5.4062c-6.668 0-12.032 5.3948-12.032 12.063l0.0005 61.031c0 5.418 3.5332 9.982 8.4375 11.5h68.187c4.715-1.457 8.172-5.734 8.438-10.875v-62.281c-0.321-6.377-5.54-11.438-12-11.438l-61.031 0.0002z" transform="translate(0 956.36)" fill="#f2f2f2"/>
  <g id="g7706" clip-path="url(#clipPath7757)" transform="translate(-59.293)">
   <rect id="rect3677" rx="6.2143" ry="6.1786" height="86.5" width="87" y="959.85" x="63.858" fill="url(#linearGradient7729)"/>
   <g id="g2910" clip-path="url(#clipPath2926)" transform="matrix(1.0357 0 0 .98214 57.643 957.95)">
    <path id="rect3682" fill="url(#linearGradient7731)" d="m7 6c-0.554 0-1 0.446-1 1v2c0 0.554 0.446 1 1 1h4c0.554 0 1-0.446 1-1v-2c0-0.554-0.446-1-1-1h-4zm0 5c-0.554 0-1 0.446-1 1v2c0 0.554 0.446 1 1 1h4c0.554 0 1-0.446 1-1v-2c0-0.554-0.446-1-1-1h-4zm0 5c-0.554 0-1 0.446-1 1v2c0 0.554 0.446 1 1 1h4c0.554 0 1-0.446 1-1v-2c0-0.554-0.446-1-1-1h-4zm0 5c-0.554 0-1 0.446-1 1v2c0 0.554 0.446 1 1 1h4c0.554 0 1-0.446 1-1v-2c0-0.554-0.446-1-1-1h-4zm0 5c-0.554 0-1 0.446-1 1v2c0 0.554 0.446 1 1 1h4c0.554 0 1-0.446 1-1v-2c0-0.554-0.446-1-1-1h-4zm0 5c-0.554 0-1 0.446-1 1v2c0 0.554 0.446 1 1 1h4c0.554 0 1-0.446 1-1v-2c0-0.554-0.446-1-1-1h-4zm0 5c-0.554 0-1 0.446-1 1v2c0 0.554 0.446 1 1 1h4c0.554 0 1-0.446 1-1v-2c0-0.554-0.446-1-1-1h-4zm0 5c-0.554 0-1 0.446-1 1v2c0 0.554 0.446 1 1 1h4c0.554 0 1-0.446 1-1v-2c0-0.554-0.446-1-1-1h-4zm0 5c-0.554 0-1 0.446-1 1v2c0 0.554 0.446 1 1 1h4c0.554 0 1-0.446 1-1v-2c0-0.554-0.446-1-1-1h-4zm0 5c-0.554 0-1 0.446-1 1v2c0 0.554 0.446 1 1 1h4c0.554 0 1-0.446 1-1v-2c0-0.554-0.446-1-1-1h-4zm0 5c-0.554 0-1 0.446-1 1v2c0 0.554 0.446 1 1 1h4c0.554 0 1-0.446 1-1v-2c0-0.554-0.446-1-1-1h-4zm0 5c-0.554 0-1 0.446-1 1v2c0 0.554 0.446 1 1 1h4c0.554 0 1-0.446 1-1v-2c0-0.554-0.446-1-1-1h-4zm0 5c-0.554 0-1 0.446-1 1v2c0 0.554 0.446 1 1 1h4c0.554 0 1-0.446 1-1v-2c0-0.554-0.446-1-1-1h-4zm0 5c-0.554 0-1 0.446-1 1v2c0 0.554 0.446 1 1 1h4c0.554 0 1-0.446 1-1v-2c0-0.554-0.446-1-1-1h-4zm0 5c-0.554 0-1 0.446-1 1v2c0 0.554 0.446 1 1 1h4c0.554 0 1-0.446 1-1v-2c0-0.554-0.446-1-1-1h-4zm0 5c-0.554 0-1 0.446-1 1v2c0 0.554 0.446 1 1 1h4c0.554 0 1-0.446 1-1v-2c0-0.554-0.446-1-1-1h-4zm0 5c-0.554 0-1 0.446-1 1v2c0 0.554 0.446 1 1 1h4c0.554 0 1-0.446 1-1v-2c0-0.554-0.446-1-1-1h-4z"/>
    <path id="path3723" fill="url(#linearGradient7733)" d="m14 6c-0.554 0-1 0.446-1 1v2c0 0.554 0.446 1 1 1h4c0.554 0 1-0.446 1-1v-2c0-0.554-0.446-1-1-1h-4zm0 5c-0.554 0-1 0.446-1 1v2c0 0.554 0.446 1 1 1h4c0.554 0 1-0.446 1-1v-2c0-0.554-0.446-1-1-1h-4zm0 5c-0.554 0-1 0.446-1 1v2c0 0.554 0.446 1 1 1h4c0.554 0 1-0.446 1-1v-2c0-0.554-0.446-1-1-1h-4zm0 5c-0.554 0-1 0.446-1 1v2c0 0.554 0.446 1 1 1h4c0.554 0 1-0.446 1-1v-2c0-0.554-0.446-1-1-1h-4zm0 5c-0.554 0-1 0.446-1 1v2c0 0.554 0.446 1 1 1h4c0.554 0 1-0.446 1-1v-2c0-0.554-0.446-1-1-1h-4zm0 5c-0.554 0-1 0.446-1 1v2c0 0.554 0.446 1 1 1h4c0.554 0 1-0.446 1-1v-2c0-0.554-0.446-1-1-1h-4zm0 5c-0.554 0-1 0.446-1 1v2c0 0.554 0.446 1 1 1h4c0.554 0 1-0.446 1-1v-2c0-0.554-0.446-1-1-1h-4zm0 5c-0.554 0-1 0.446-1 1v2c0 0.554 0.446 1 1 1h4c0.554 0 1-0.446 1-1v-2c0-0.554-0.446-1-1-1h-4zm0 5c-0.554 0-1 0.446-1 1v2c0 0.554 0.446 1 1 1h4c0.554 0 1-0.446 1-1v-2c0-0.554-0.446-1-1-1h-4zm0 5c-0.554 0-1 0.446-1 1v2c0 0.554 0.446 1 1 1h4c0.554 0 1-0.446 1-1v-2c0-0.554-0.446-1-1-1h-4zm0 5c-0.554 0-1 0.446-1 1v2c0 0.554 0.446 1 1 1h4c0.554 0 1-0.446 1-1v-2c0-0.554-0.446-1-1-1h-4zm0 5c-0.554 0-1 0.446-1 1v2c0 0.554 0.446 1 1 1h4c0.554 0 1-0.446 1-1v-2c0-0.554-0.446-1-1-1h-4zm0 5c-0.554 0-1 0.446-1 1v2c0 0.554 0.446 1 1 1h4c0.554 0 1-0.446 1-1v-2c0-0.554-0.446-1-1-1h-4zm0 5c-0.554 0-1 0.446-1 1v2c0 0.554 0.446 1 1 1h4c0.554 0 1-0.446 1-1v-2c0-0.554-0.446-1-1-1h-4zm0 5c-0.554 0-1 0.446-1 1v2c0 0.554 0.446 1 1 1h4c0.554 0 1-0.446 1-1v-2c0-0.554-0.446-1-1-1h-4zm0 5c-0.554 0-1 0.446-1 1v2c0 0.554 0.446 1 1 1h4c0.554 0 1-0.446 1-1v-2c0-0.554-0.446-1-1-1h-4zm0 5c-0.554 0-1 0.446-1 1v2c0 0.554 0.446 1 1 1h4c0.554 0 1-0.446 1-1v-2c0-0.554-0.446-1-1-1h-4z"/>
    <path id="path3725" fill="url(#linearGradient7735)" d="m21 6c-0.554 0-1 0.446-1 1v2c0 0.554 0.446 1 1 1h4c0.554 0 1-0.446 1-1v-2c0-0.554-0.446-1-1-1h-4zm0 5c-0.554 0-1 0.446-1 1v2c0 0.554 0.446 1 1 1h4c0.554 0 1-0.446 1-1v-2c0-0.554-0.446-1-1-1h-4zm0 5c-0.554 0-1 0.446-1 1v2c0 0.554 0.446 1 1 1h4c0.554 0 1-0.446 1-1v-2c0-0.554-0.446-1-1-1h-4zm0 5c-0.554 0-1 0.446-1 1v2c0 0.554 0.446 1 1 1h4c0.554 0 1-0.446 1-1v-2c0-0.554-0.446-1-1-1h-4zm0 5c-0.554 0-1 0.446-1 1v2c0 0.554 0.446 1 1 1h4c0.554 0 1-0.446 1-1v-2c0-0.554-0.446-1-1-1h-4zm0 5c-0.554 0-1 0.446-1 1v2c0 0.554 0.446 1 1 1h4c0.554 0 1-0.446 1-1v-2c0-0.554-0.446-1-1-1h-4zm0 5c-0.554 0-1 0.446-1 1v2c0 0.554 0.446 1 1 1h4c0.554 0 1-0.446 1-1v-2c0-0.554-0.446-1-1-1h-4zm0 5c-0.554 0-1 0.446-1 1v2c0 0.554 0.446 1 1 1h4c0.554 0 1-0.446 1-1v-2c0-0.554-0.446-1-1-1h-4zm0 5c-0.554 0-1 0.446-1 1v2c0 0.554 0.446 1 1 1h4c0.554 0 1-0.446 1-1v-2c0-0.554-0.446-1-1-1h-4zm0 5c-0.554 0-1 0.446-1 1v2c0 0.554 0.446 1 1 1h4c0.554 0 1-0.446 1-1v-2c0-0.554-0.446-1-1-1h-4zm0 5c-0.554 0-1 0.446-1 1v2c0 0.554 0.446 1 1 1h4c0.554 0 1-0.446 1-1v-2c0-0.554-0.446-1-1-1h-4zm0 5c-0.554 0-1 0.446-1 1v2c0 0.554 0.446 1 1 1h4c0.554 0 1-0.446 1-1v-2c0-0.554-0.446-1-1-1h-4zm0 5c-0.554 0-1 0.446-1 1v2c0 0.554 0.446 1 1 1h4c0.554 0 1-0.446 1-1v-2c0-0.554-0.446-1-1-1h-4zm0 5c-0.554 0-1 0.446-1 1v2c0 0.554 0.446 1 1 1h4c0.554 0 1-0.446 1-1v-2c0-0.554-0.446-1-1-1h-4zm0 5c-0.554 0-1 0.446-1 1v2c0 0.554 0.446 1 1 1h4c0.554 0 1-0.446 1-1v-2c0-0.554-0.446-1-1-1h-4zm0 5c-0.554 0-1 0.446-1 1v2c0 0.554 0.446 1 1 1h4c0.554 0 1-0.446 1-1v-2c0-0.554-0.446-1-1-1h-4zm0 5c-0.554 0-1 0.446-1 1v2c0 0.554 0.446 1 1 1h4c0.554 0 1-0.446 1-1v-2c0-0.554-0.446-1-1-1h-4z"/>
    <path id="path3727" fill="url(#linearGradient7737)" d="m28 6c-0.554 0-1 0.446-1 1v2c0 0.554 0.446 1 1 1h4c0.554 0 1-0.446 1-1v-2c0-0.554-0.446-1-1-1h-4zm0 5c-0.554 0-1 0.446-1 1v2c0 0.554 0.446 1 1 1h4c0.554 0 1-0.446 1-1v-2c0-0.554-0.446-1-1-1h-4zm0 5c-0.554 0-1 0.446-1 1v2c0 0.554 0.446 1 1 1h4c0.554 0 1-0.446 1-1v-2c0-0.554-0.446-1-1-1h-4zm0 5c-0.554 0-1 0.446-1 1v2c0 0.554 0.446 1 1 1h4c0.554 0 1-0.446 1-1v-2c0-0.554-0.446-1-1-1h-4zm0 5c-0.554 0-1 0.446-1 1v2c0 0.554 0.446 1 1 1h4c0.554 0 1-0.446 1-1v-2c0-0.554-0.446-1-1-1h-4zm0 5c-0.554 0-1 0.446-1 1v2c0 0.554 0.446 1 1 1h4c0.554 0 1-0.446 1-1v-2c0-0.554-0.446-1-1-1h-4zm0 5c-0.554 0-1 0.446-1 1v2c0 0.554 0.446 1 1 1h4c0.554 0 1-0.446 1-1v-2c0-0.554-0.446-1-1-1h-4zm0 5c-0.554 0-1 0.446-1 1v2c0 0.554 0.446 1 1 1h4c0.554 0 1-0.446 1-1v-2c0-0.554-0.446-1-1-1h-4zm0 5c-0.554 0-1 0.446-1 1v2c0 0.554 0.446 1 1 1h4c0.554 0 1-0.446 1-1v-2c0-0.554-0.446-1-1-1h-4zm0 5c-0.554 0-1 0.446-1 1v2c0 0.554 0.446 1 1 1h4c0.554 0 1-0.446 1-1v-2c0-0.554-0.446-1-1-1h-4zm0 5c-0.554 0-1 0.446-1 1v2c0 0.554 0.446 1 1 1h4c0.554 0 1-0.446 1-1v-2c0-0.554-0.446-1-1-1h-4zm0 5c-0.554 0-1 0.446-1 1v2c0 0.554 0.446 1 1 1h4c0.554 0 1-0.446 1-1v-2c0-0.554-0.446-1-1-1h-4zm0 5c-0.554 0-1 0.446-1 1v2c0 0.554 0.446 1 1 1h4c0.554 0 1-0.446 1-1v-2c0-0.554-0.446-1-1-1h-4zm0 5c-0.554 0-1 0.446-1 1v2c0 0.554 0.446 1 1 1h4c0.554 0 1-0.446 1-1v-2c0-0.554-0.446-1-1-1h-4zm0 5c-0.554 0-1 0.446-1 1v2c0 0.554 0.446 1 1 1h4c0.554 0 1-0.446 1-1v-2c0-0.554-0.446-1-1-1h-4zm0 5c-0.554 0-1 0.446-1 1v2c0 0.554 0.446 1 1 1h4c0.554 0 1-0.446 1-1v-2c0-0.554-0.446-1-1-1h-4zm0 5c-0.554 0-1 0.446-1 1v2c0 0.554 0.446 1 1 1h4c0.554 0 1-0.446 1-1v-2c0-0.554-0.446-1-1-1h-4z"/>
    <path id="path3729" fill="url(#linearGradient7739)" d="m35 6c-0.554 0-1 0.446-1 1v2c0 0.554 0.446 1 1 1h4c0.554 0 1-0.446 1-1v-2c0-0.554-0.446-1-1-1h-4zm0 5c-0.554 0-1 0.446-1 1v2c0 0.554 0.446 1 1 1h4c0.554 0 1-0.446 1-1v-2c0-0.554-0.446-1-1-1h-4zm0 5c-0.554 0-1 0.446-1 1v2c0 0.554 0.446 1 1 1h4c0.554 0 1-0.446 1-1v-2c0-0.554-0.446-1-1-1h-4zm0 5c-0.554 0-1 0.446-1 1v2c0 0.554 0.446 1 1 1h4c0.554 0 1-0.446 1-1v-2c0-0.554-0.446-1-1-1h-4zm0 5c-0.554 0-1 0.446-1 1v2c0 0.554 0.446 1 1 1h4c0.554 0 1-0.446 1-1v-2c0-0.554-0.446-1-1-1h-4zm0 5c-0.554 0-1 0.446-1 1v2c0 0.554 0.446 1 1 1h4c0.554 0 1-0.446 1-1v-2c0-0.554-0.446-1-1-1h-4zm0 5c-0.554 0-1 0.446-1 1v2c0 0.554 0.446 1 1 1h4c0.554 0 1-0.446 1-1v-2c0-0.554-0.446-1-1-1h-4zm0 5c-0.554 0-1 0.446-1 1v2c0 0.554 0.446 1 1 1h4c0.554 0 1-0.446 1-1v-2c0-0.554-0.446-1-1-1h-4zm0 5c-0.554 0-1 0.446-1 1v2c0 0.554 0.446 1 1 1h4c0.554 0 1-0.446 1-1v-2c0-0.554-0.446-1-1-1h-4zm0 5c-0.554 0-1 0.446-1 1v2c0 0.554 0.446 1 1 1h4c0.554 0 1-0.446 1-1v-2c0-0.554-0.446-1-1-1h-4zm0 5c-0.554 0-1 0.446-1 1v2c0 0.554 0.446 1 1 1h4c0.554 0 1-0.446 1-1v-2c0-0.554-0.446-1-1-1h-4zm0 5c-0.554 0-1 0.446-1 1v2c0 0.554 0.446 1 1 1h4c0.554 0 1-0.446 1-1v-2c0-0.554-0.446-1-1-1h-4zm0 5c-0.554 0-1 0.446-1 1v2c0 0.554 0.446 1 1 1h4c0.554 0 1-0.446 1-1v-2c0-0.554-0.446-1-1-1h-4zm0 5c-0.554 0-1 0.446-1 1v2c0 0.554 0.446 1 1 1h4c0.554 0 1-0.446 1-1v-2c0-0.554-0.446-1-1-1h-4zm0 5c-0.554 0-1 0.446-1 1v2c0 0.554 0.446 1 1 1h4c0.554 0 1-0.446 1-1v-2c0-0.554-0.446-1-1-1h-4zm0 5c-0.554 0-1 0.446-1 1v2c0 0.554 0.446 1 1 1h4c0.554 0 1-0.446 1-1v-2c0-0.554-0.446-1-1-1h-4zm0 5c-0.554 0-1 0.446-1 1v2c0 0.554 0.446 1 1 1h4c0.554 0 1-0.446 1-1v-2c0-0.554-0.446-1-1-1h-4z"/>
    <path id="path3731" fill="url(#linearGradient7741)" d="m42 6c-0.554 0-1 0.446-1 1v2c0 0.554 0.446 1 1 1h4c0.554 0 1-0.446 1-1v-2c0-0.554-0.446-1-1-1h-4zm0 5c-0.554 0-1 0.446-1 1v2c0 0.554 0.446 1 1 1h4c0.554 0 1-0.446 1-1v-2c0-0.554-0.446-1-1-1h-4zm0 5c-0.554 0-1 0.446-1 1v2c0 0.554 0.446 1 1 1h4c0.554 0 1-0.446 1-1v-2c0-0.554-0.446-1-1-1h-4zm0 5c-0.554 0-1 0.446-1 1v2c0 0.554 0.446 1 1 1h4c0.554 0 1-0.446 1-1v-2c0-0.554-0.446-1-1-1h-4zm0 5c-0.554 0-1 0.446-1 1v2c0 0.554 0.446 1 1 1h4c0.554 0 1-0.446 1-1v-2c0-0.554-0.446-1-1-1h-4zm0 5c-0.554 0-1 0.446-1 1v2c0 0.554 0.446 1 1 1h4c0.554 0 1-0.446 1-1v-2c0-0.554-0.446-1-1-1h-4zm0 5c-0.554 0-1 0.446-1 1v2c0 0.554 0.446 1 1 1h4c0.554 0 1-0.446 1-1v-2c0-0.554-0.446-1-1-1h-4zm0 5c-0.554 0-1 0.446-1 1v2c0 0.554 0.446 1 1 1h4c0.554 0 1-0.446 1-1v-2c0-0.554-0.446-1-1-1h-4zm0 5c-0.554 0-1 0.446-1 1v2c0 0.554 0.446 1 1 1h4c0.554 0 1-0.446 1-1v-2c0-0.554-0.446-1-1-1h-4zm0 5c-0.554 0-1 0.446-1 1v2c0 0.554 0.446 1 1 1h4c0.554 0 1-0.446 1-1v-2c0-0.554-0.446-1-1-1h-4zm0 5c-0.554 0-1 0.446-1 1v2c0 0.554 0.446 1 1 1h4c0.554 0 1-0.446 1-1v-2c0-0.554-0.446-1-1-1h-4zm0 5c-0.554 0-1 0.446-1 1v2c0 0.554 0.446 1 1 1h4c0.554 0 1-0.446 1-1v-2c0-0.554-0.446-1-1-1h-4zm0 5c-0.554 0-1 0.446-1 1v2c0 0.554 0.446 1 1 1h4c0.554 0 1-0.446 1-1v-2c0-0.554-0.446-1-1-1h-4zm0 5c-0.554 0-1 0.446-1 1v2c0 0.554 0.446 1 1 1h4c0.554 0 1-0.446 1-1v-2c0-0.554-0.446-1-1-1h-4zm0 5c-0.554 0-1 0.446-1 1v2c0 0.554 0.446 1 1 1h4c0.554 0 1-0.446 1-1v-2c0-0.554-0.446-1-1-1h-4zm0 5c-0.554 0-1 0.446-1 1v2c0 0.554 0.446 1 1 1h4c0.554 0 1-0.446 1-1v-2c0-0.554-0.446-1-1-1h-4zm0 5c-0.554 0-1 0.446-1 1v2c0 0.554 0.446 1 1 1h4c0.554 0 1-0.446 1-1v-2c0-0.554-0.446-1-1-1h-4z"/>
    <path id="path3733" fill="url(#linearGradient7743)" d="m49 6c-0.554 0-1 0.446-1 1v2c0 0.554 0.446 1 1 1h4c0.554 0 1-0.446 1-1v-2c0-0.554-0.446-1-1-1h-4zm0 5c-0.554 0-1 0.446-1 1v2c0 0.554 0.446 1 1 1h4c0.554 0 1-0.446 1-1v-2c0-0.554-0.446-1-1-1h-4zm0 5c-0.554 0-1 0.446-1 1v2c0 0.554 0.446 1 1 1h4c0.554 0 1-0.446 1-1v-2c0-0.554-0.446-1-1-1h-4zm0 5c-0.554 0-1 0.446-1 1v2c0 0.554 0.446 1 1 1h4c0.554 0 1-0.446 1-1v-2c0-0.554-0.446-1-1-1h-4zm0 5c-0.554 0-1 0.446-1 1v2c0 0.554 0.446 1 1 1h4c0.554 0 1-0.446 1-1v-2c0-0.554-0.446-1-1-1h-4zm0 5c-0.554 0-1 0.446-1 1v2c0 0.554 0.446 1 1 1h4c0.554 0 1-0.446 1-1v-2c0-0.554-0.446-1-1-1h-4zm0 5c-0.554 0-1 0.446-1 1v2c0 0.554 0.446 1 1 1h4c0.554 0 1-0.446 1-1v-2c0-0.554-0.446-1-1-1h-4zm0 5c-0.554 0-1 0.446-1 1v2c0 0.554 0.446 1 1 1h4c0.554 0 1-0.446 1-1v-2c0-0.554-0.446-1-1-1h-4zm0 5c-0.554 0-1 0.446-1 1v2c0 0.554 0.446 1 1 1h4c0.554 0 1-0.446 1-1v-2c0-0.554-0.446-1-1-1h-4zm0 5c-0.554 0-1 0.446-1 1v2c0 0.554 0.446 1 1 1h4c0.554 0 1-0.446 1-1v-2c0-0.554-0.446-1-1-1h-4zm0 5c-0.554 0-1 0.446-1 1v2c0 0.554 0.446 1 1 1h4c0.554 0 1-0.446 1-1v-2c0-0.554-0.446-1-1-1h-4zm0 5c-0.554 0-1 0.446-1 1v2c0 0.554 0.446 1 1 1h4c0.554 0 1-0.446 1-1v-2c0-0.554-0.446-1-1-1h-4zm0 5c-0.554 0-1 0.446-1 1v2c0 0.554 0.446 1 1 1h4c0.554 0 1-0.446 1-1v-2c0-0.554-0.446-1-1-1h-4zm0 5c-0.554 0-1 0.446-1 1v2c0 0.554 0.446 1 1 1h4c0.554 0 1-0.446 1-1v-2c0-0.554-0.446-1-1-1h-4zm0 5c-0.554 0-1 0.446-1 1v2c0 0.554 0.446 1 1 1h4c0.554 0 1-0.446 1-1v-2c0-0.554-0.446-1-1-1h-4zm0 5c-0.554 0-1 0.446-1 1v2c0 0.554 0.446 1 1 1h4c0.554 0 1-0.446 1-1v-2c0-0.554-0.446-1-1-1h-4zm0 5c-0.554 0-1 0.446-1 1v2c0 0.554 0.446 1 1 1h4c0.554 0 1-0.446 1-1v-2c0-0.554-0.446-1-1-1h-4z"/>
    <path id="path3735" fill="url(#linearGradient7745)" d="m56 6c-0.554 0-1 0.446-1 1v2c0 0.554 0.446 1 1 1h4c0.554 0 1-0.446 1-1v-2c0-0.554-0.446-1-1-1h-4zm0 5c-0.554 0-1 0.446-1 1v2c0 0.554 0.446 1 1 1h4c0.554 0 1-0.446 1-1v-2c0-0.554-0.446-1-1-1h-4zm0 5c-0.554 0-1 0.446-1 1v2c0 0.554 0.446 1 1 1h4c0.554 0 1-0.446 1-1v-2c0-0.554-0.446-1-1-1h-4zm0 5c-0.554 0-1 0.446-1 1v2c0 0.554 0.446 1 1 1h4c0.554 0 1-0.446 1-1v-2c0-0.554-0.446-1-1-1h-4zm0 5c-0.554 0-1 0.446-1 1v2c0 0.554 0.446 1 1 1h4c0.554 0 1-0.446 1-1v-2c0-0.554-0.446-1-1-1h-4zm0 5c-0.554 0-1 0.446-1 1v2c0 0.554 0.446 1 1 1h4c0.554 0 1-0.446 1-1v-2c0-0.554-0.446-1-1-1h-4zm0 5c-0.554 0-1 0.446-1 1v2c0 0.554 0.446 1 1 1h4c0.554 0 1-0.446 1-1v-2c0-0.554-0.446-1-1-1h-4zm0 5c-0.554 0-1 0.446-1 1v2c0 0.554 0.446 1 1 1h4c0.554 0 1-0.446 1-1v-2c0-0.554-0.446-1-1-1h-4zm0 5c-0.554 0-1 0.446-1 1v2c0 0.554 0.446 1 1 1h4c0.554 0 1-0.446 1-1v-2c0-0.554-0.446-1-1-1h-4zm0 5c-0.554 0-1 0.446-1 1v2c0 0.554 0.446 1 1 1h4c0.554 0 1-0.446 1-1v-2c0-0.554-0.446-1-1-1h-4zm0 5c-0.554 0-1 0.446-1 1v2c0 0.554 0.446 1 1 1h4c0.554 0 1-0.446 1-1v-2c0-0.554-0.446-1-1-1h-4zm0 5c-0.554 0-1 0.446-1 1v2c0 0.554 0.446 1 1 1h4c0.554 0 1-0.446 1-1v-2c0-0.554-0.446-1-1-1h-4zm0 5c-0.554 0-1 0.446-1 1v2c0 0.554 0.446 1 1 1h4c0.554 0 1-0.446 1-1v-2c0-0.554-0.446-1-1-1h-4zm0 5c-0.554 0-1 0.446-1 1v2c0 0.554 0.446 1 1 1h4c0.554 0 1-0.446 1-1v-2c0-0.554-0.446-1-1-1h-4zm0 5c-0.554 0-1 0.446-1 1v2c0 0.554 0.446 1 1 1h4c0.554 0 1-0.446 1-1v-2c0-0.554-0.446-1-1-1h-4zm0 5c-0.554 0-1 0.446-1 1v2c0 0.554 0.446 1 1 1h4c0.554 0 1-0.446 1-1v-2c0-0.554-0.446-1-1-1h-4zm0 5c-0.554 0-1 0.446-1 1v2c0 0.554 0.446 1 1 1h4c0.554 0 1-0.446 1-1v-2c0-0.554-0.446-1-1-1h-4z"/>
    <path id="path3737" fill="url(#linearGradient7747)" d="m63 6c-0.554 0-1 0.446-1 1v2c0 0.554 0.446 1 1 1h4c0.554 0 1-0.446 1-1v-2c0-0.554-0.446-1-1-1h-4zm0 5c-0.554 0-1 0.446-1 1v2c0 0.554 0.446 1 1 1h4c0.554 0 1-0.446 1-1v-2c0-0.554-0.446-1-1-1h-4zm0 5c-0.554 0-1 0.446-1 1v2c0 0.554 0.446 1 1 1h4c0.554 0 1-0.446 1-1v-2c0-0.554-0.446-1-1-1h-4zm0 5c-0.554 0-1 0.446-1 1v2c0 0.554 0.446 1 1 1h4c0.554 0 1-0.446 1-1v-2c0-0.554-0.446-1-1-1h-4zm0 5c-0.554 0-1 0.446-1 1v2c0 0.554 0.446 1 1 1h4c0.554 0 1-0.446 1-1v-2c0-0.554-0.446-1-1-1h-4zm0 5c-0.554 0-1 0.446-1 1v2c0 0.554 0.446 1 1 1h4c0.554 0 1-0.446 1-1v-2c0-0.554-0.446-1-1-1h-4zm0 5c-0.554 0-1 0.446-1 1v2c0 0.554 0.446 1 1 1h4c0.554 0 1-0.446 1-1v-2c0-0.554-0.446-1-1-1h-4zm0 5c-0.554 0-1 0.446-1 1v2c0 0.554 0.446 1 1 1h4c0.554 0 1-0.446 1-1v-2c0-0.554-0.446-1-1-1h-4zm0 5c-0.554 0-1 0.446-1 1v2c0 0.554 0.446 1 1 1h4c0.554 0 1-0.446 1-1v-2c0-0.554-0.446-1-1-1h-4zm0 5c-0.554 0-1 0.446-1 1v2c0 0.554 0.446 1 1 1h4c0.554 0 1-0.446 1-1v-2c0-0.554-0.446-1-1-1h-4zm0 5c-0.554 0-1 0.446-1 1v2c0 0.554 0.446 1 1 1h4c0.554 0 1-0.446 1-1v-2c0-0.554-0.446-1-1-1h-4zm0 5c-0.554 0-1 0.446-1 1v2c0 0.554 0.446 1 1 1h4c0.554 0 1-0.446 1-1v-2c0-0.554-0.446-1-1-1h-4zm0 5c-0.554 0-1 0.446-1 1v2c0 0.554 0.446 1 1 1h4c0.554 0 1-0.446 1-1v-2c0-0.554-0.446-1-1-1h-4zm0 5c-0.554 0-1 0.446-1 1v2c0 0.554 0.446 1 1 1h4c0.554 0 1-0.446 1-1v-2c0-0.554-0.446-1-1-1h-4zm0 5c-0.554 0-1 0.446-1 1v2c0 0.554 0.446 1 1 1h4c0.554 0 1-0.446 1-1v-2c0-0.554-0.446-1-1-1h-4zm0 5c-0.554 0-1 0.446-1 1v2c0 0.554 0.446 1 1 1h4c0.554 0 1-0.446 1-1v-2c0-0.554-0.446-1-1-1h-4zm0 5c-0.554 0-1 0.446-1 1v2c0 0.554 0.446 1 1 1h4c0.554 0 1-0.446 1-1v-2c0-0.554-0.446-1-1-1h-4z"/>
    <path id="path3739" fill="url(#linearGradient7749)" d="m70 6c-0.554 0-1 0.446-1 1v2c0 0.554 0.446 1 1 1h4c0.554 0 1-0.446 1-1v-2c0-0.554-0.446-1-1-1h-4zm0 5c-0.554 0-1 0.446-1 1v2c0 0.554 0.446 1 1 1h4c0.554 0 1-0.446 1-1v-2c0-0.554-0.446-1-1-1h-4zm0 5c-0.554 0-1 0.446-1 1v2c0 0.554 0.446 1 1 1h4c0.554 0 1-0.446 1-1v-2c0-0.554-0.446-1-1-1h-4zm0 5c-0.554 0-1 0.446-1 1v2c0 0.554 0.446 1 1 1h4c0.554 0 1-0.446 1-1v-2c0-0.554-0.446-1-1-1h-4zm0 5c-0.554 0-1 0.446-1 1v2c0 0.554 0.446 1 1 1h4c0.554 0 1-0.446 1-1v-2c0-0.554-0.446-1-1-1h-4zm0 5c-0.554 0-1 0.446-1 1v2c0 0.554 0.446 1 1 1h4c0.554 0 1-0.446 1-1v-2c0-0.554-0.446-1-1-1h-4zm0 5c-0.554 0-1 0.446-1 1v2c0 0.554 0.446 1 1 1h4c0.554 0 1-0.446 1-1v-2c0-0.554-0.446-1-1-1h-4zm0 5c-0.554 0-1 0.446-1 1v2c0 0.554 0.446 1 1 1h4c0.554 0 1-0.446 1-1v-2c0-0.554-0.446-1-1-1h-4zm0 5c-0.554 0-1 0.446-1 1v2c0 0.554 0.446 1 1 1h4c0.554 0 1-0.446 1-1v-2c0-0.554-0.446-1-1-1h-4zm0 5c-0.554 0-1 0.446-1 1v2c0 0.554 0.446 1 1 1h4c0.554 0 1-0.446 1-1v-2c0-0.554-0.446-1-1-1h-4zm0 5c-0.554 0-1 0.446-1 1v2c0 0.554 0.446 1 1 1h4c0.554 0 1-0.446 1-1v-2c0-0.554-0.446-1-1-1h-4zm0 5c-0.554 0-1 0.446-1 1v2c0 0.554 0.446 1 1 1h4c0.554 0 1-0.446 1-1v-2c0-0.554-0.446-1-1-1h-4zm0 5c-0.554 0-1 0.446-1 1v2c0 0.554 0.446 1 1 1h4c0.554 0 1-0.446 1-1v-2c0-0.554-0.446-1-1-1h-4zm0 5c-0.554 0-1 0.446-1 1v2c0 0.554 0.446 1 1 1h4c0.554 0 1-0.446 1-1v-2c0-0.554-0.446-1-1-1h-4zm0 5c-0.554 0-1 0.446-1 1v2c0 0.554 0.446 1 1 1h4c0.554 0 1-0.446 1-1v-2c0-0.554-0.446-1-1-1h-4zm0 5c-0.554 0-1 0.446-1 1v2c0 0.554 0.446 1 1 1h4c0.554 0 1-0.446 1-1v-2c0-0.554-0.446-1-1-1h-4zm0 5c-0.554 0-1 0.446-1 1v2c0 0.554 0.446 1 1 1h4c0.554 0 1-0.446 1-1v-2c0-0.554-0.446-1-1-1h-4z"/>
    <path id="path3741" fill="url(#linearGradient7751)" d="m77 6c-0.554 0-1 0.446-1 1v2c0 0.554 0.446 1 1 1h4c0.554 0 1-0.446 1-1v-2c0-0.554-0.446-1-1-1h-4zm0 5c-0.554 0-1 0.446-1 1v2c0 0.554 0.446 1 1 1h4c0.554 0 1-0.446 1-1v-2c0-0.554-0.446-1-1-1h-4zm0 5c-0.554 0-1 0.446-1 1v2c0 0.554 0.446 1 1 1h4c0.554 0 1-0.446 1-1v-2c0-0.554-0.446-1-1-1h-4zm0 5c-0.554 0-1 0.446-1 1v2c0 0.554 0.446 1 1 1h4c0.554 0 1-0.446 1-1v-2c0-0.554-0.446-1-1-1h-4zm0 5c-0.554 0-1 0.446-1 1v2c0 0.554 0.446 1 1 1h4c0.554 0 1-0.446 1-1v-2c0-0.554-0.446-1-1-1h-4zm0 5c-0.554 0-1 0.446-1 1v2c0 0.554 0.446 1 1 1h4c0.554 0 1-0.446 1-1v-2c0-0.554-0.446-1-1-1h-4zm0 5c-0.554 0-1 0.446-1 1v2c0 0.554 0.446 1 1 1h4c0.554 0 1-0.446 1-1v-2c0-0.554-0.446-1-1-1h-4zm0 5c-0.554 0-1 0.446-1 1v2c0 0.554 0.446 1 1 1h4c0.554 0 1-0.446 1-1v-2c0-0.554-0.446-1-1-1h-4zm0 5c-0.554 0-1 0.446-1 1v2c0 0.554 0.446 1 1 1h4c0.554 0 1-0.446 1-1v-2c0-0.554-0.446-1-1-1h-4zm0 5c-0.554 0-1 0.446-1 1v2c0 0.554 0.446 1 1 1h4c0.554 0 1-0.446 1-1v-2c0-0.554-0.446-1-1-1h-4zm0 5c-0.554 0-1 0.446-1 1v2c0 0.554 0.446 1 1 1h4c0.554 0 1-0.446 1-1v-2c0-0.554-0.446-1-1-1h-4zm0 5c-0.554 0-1 0.446-1 1v2c0 0.554 0.446 1 1 1h4c0.554 0 1-0.446 1-1v-2c0-0.554-0.446-1-1-1h-4zm0 5c-0.554 0-1 0.446-1 1v2c0 0.554 0.446 1 1 1h4c0.554 0 1-0.446 1-1v-2c0-0.554-0.446-1-1-1h-4zm0 5c-0.554 0-1 0.446-1 1v2c0 0.554 0.446 1 1 1h4c0.554 0 1-0.446 1-1v-2c0-0.554-0.446-1-1-1h-4zm0 5c-0.554 0-1 0.446-1 1v2c0 0.554 0.446 1 1 1h4c0.554 0 1-0.446 1-1v-2c0-0.554-0.446-1-1-1h-4zm0 5c-0.554 0-1 0.446-1 1v2c0 0.554 0.446 1 1 1h4c0.554 0 1-0.446 1-1v-2c0-0.554-0.446-1-1-1h-4zm0 5c-0.554 0-1 0.446-1 1v2c0 0.554 0.446 1 1 1h4c0.554 0 1-0.446 1-1v-2c0-0.554-0.446-1-1-1h-4z"/>
    <path id="path3743" fill="url(#linearGradient7753)" d="m84 6c-0.554 0-1 0.446-1 1v2c0 0.554 0.446 1 1 1h4c0.554 0 1-0.446 1-1v-2c0-0.554-0.446-1-1-1h-4zm0 5c-0.554 0-1 0.446-1 1v2c0 0.554 0.446 1 1 1h4c0.554 0 1-0.446 1-1v-2c0-0.554-0.446-1-1-1h-4zm0 5c-0.554 0-1 0.446-1 1v2c0 0.554 0.446 1 1 1h4c0.554 0 1-0.446 1-1v-2c0-0.554-0.446-1-1-1h-4zm0 5c-0.554 0-1 0.446-1 1v2c0 0.554 0.446 1 1 1h4c0.554 0 1-0.446 1-1v-2c0-0.554-0.446-1-1-1h-4zm0 5c-0.554 0-1 0.446-1 1v2c0 0.554 0.446 1 1 1h4c0.554 0 1-0.446 1-1v-2c0-0.554-0.446-1-1-1h-4zm0 5c-0.554 0-1 0.446-1 1v2c0 0.554 0.446 1 1 1h4c0.554 0 1-0.446 1-1v-2c0-0.554-0.446-1-1-1h-4zm0 5c-0.554 0-1 0.446-1 1v2c0 0.554 0.446 1 1 1h4c0.554 0 1-0.446 1-1v-2c0-0.554-0.446-1-1-1h-4zm0 5c-0.554 0-1 0.446-1 1v2c0 0.554 0.446 1 1 1h4c0.554 0 1-0.446 1-1v-2c0-0.554-0.446-1-1-1h-4zm0 5c-0.554 0-1 0.446-1 1v2c0 0.554 0.446 1 1 1h4c0.554 0 1-0.446 1-1v-2c0-0.554-0.446-1-1-1h-4zm0 5c-0.554 0-1 0.446-1 1v2c0 0.554 0.446 1 1 1h4c0.554 0 1-0.446 1-1v-2c0-0.554-0.446-1-1-1h-4zm0 5c-0.554 0-1 0.446-1 1v2c0 0.554 0.446 1 1 1h4c0.554 0 1-0.446 1-1v-2c0-0.554-0.446-1-1-1h-4zm0 5c-0.554 0-1 0.446-1 1v2c0 0.554 0.446 1 1 1h4c0.554 0 1-0.446 1-1v-2c0-0.554-0.446-1-1-1h-4zm0 5c-0.554 0-1 0.446-1 1v2c0 0.554 0.446 1 1 1h4c0.554 0 1-0.446 1-1v-2c0-0.554-0.446-1-1-1h-4zm0 5c-0.554 0-1 0.446-1 1v2c0 0.554 0.446 1 1 1h4c0.554 0 1-0.446 1-1v-2c0-0.554-0.446-1-1-1h-4zm0 5c-0.554 0-1 0.446-1 1v2c0 0.554 0.446 1 1 1h4c0.554 0 1-0.446 1-1v-2c0-0.554-0.446-1-1-1h-4zm0 5c-0.554 0-1 0.446-1 1v2c0 0.554 0.446 1 1 1h4c0.554 0 1-0.446 1-1v-2c0-0.554-0.446-1-1-1h-4zm0 5c-0.554 0-1 0.446-1 1v2c0 0.554 0.446 1 1 1h4c0.554 0 1-0.446 1-1v-2c0-0.554-0.446-1-1-1h-4z"/>
   </g>
   <path id="path3798" opacity="0.08" d="m107.33 974.3c-6.3485-0.13412-11.724 5.6009-11.296 11.874h-0.0324v12.936c-0.20607-0.0224-0.43038-0.0963-0.61495-0.0965-0.83335-0.001-1.5123 0.0805-1.9096 0.0322a1.2473 1.2401 0 0 0 -0.22656 0c-1.2083 0.072-2.7357-0.24383-4.4342 0.12872a1.2473 1.2401 0 0 0 -0.22657 0.0965c-1.2664 0.54356-1.8282 1.8284-1.9096 2.7997-0.0757 0.9039 0.0494 1.6765 0.0324 2.1561-0.001 0.036 0.003 0.1289 0 0.1609-0.1457 0.9192 0.0839 1.8495 0.61496 2.5744 0.53297 0.7274 1.4538 1.2065 2.4922 1.1907-0.003 0.031 0.005-0.001 0 0.032a1.2473 1.2401 0 0 0 0 0.1287c-0.24443 4.2593 0.66893 8.7404 3.4632 12.261 0.009 0.012 0.0231 0.019 0.0324 0.032 2.0091 2.6237 4.8087 4.5775 7.8973 5.7602 0.0118 0.1847-0.008 0.4258 0 0.5792-0.3637 0.032-0.69198-0.038-1.0681 0.097-0.82008 0.2937-1.6805 1.0357-1.942 2.0917a1.2473 1.2401 0 0 0 -0.0324 0.2253c-0.0867 1.3412-0.1747 2.8058 0.0324 4.28a1.2473 1.2401 0 0 0 0.0324 0.1609c0.28638 1.0843 1.2041 1.7738 2.0391 2.0273 0.78812 0.2394 1.5363 0.2182 2.1685 0.161v0.032c3.8258-0.043 7.7442 0.09 11.652-0.065a1.2473 1.2401 0 0 0 0.22657 -0.065c1.0519-0.2575 1.8046-1.0887 2.1038-1.8984 0.28267-0.7651 0.27182-1.5092 0.1942-2.1884h0.0324c-0.0166-0.4619 0.0746-1.2487-0.0324-2.1239-0.10553-0.8633-0.62686-1.9873-1.7154-2.51-0.007 0 0.007-0.029 0-0.032-0.0115-0.01-0.0209 0.01-0.0324 0-0.51749-0.2484-0.97875-0.3069-1.3917-0.3218-0.008-0.065 0.004-0.201 0-0.2575-0.005-0.077-0.00077-0.076 0-0.1287 6.8765-2.537 11.808-9.4459 11.425-16.83h0.0324v-1.5124c0.31107-0.027 0.57668 0.035 0.90625-0.065 0.83563-0.2526 1.7524-0.9429 2.0391-2.0274a1.2473 1.2401 0 0 0 0.0324 -0.1609c0.20447-1.4707 0.12117-2.9674 0.0324-4.3121a1.2473 1.2401 0 0 0 -0.0324 -0.1931c-0.25913-1.0459-1.0952-1.7942-1.9096-2.0917-0.7695-0.28104-1.518-0.27026-2.2009-0.19308v-0.0322c-1.5394 0.0563-3.3007-0.0157-5.0815 0.12872-0.0222-4.8407 0.0495-9.7245-0.0647-14.61a1.2473 1.2401 0 0 0 -0.0324 -0.0644c-0.48744-5.6584-5.5167-10.235-11.231-10.169-0.0216 0.00025-0.0431-0.00038-0.0647 0z"/>
   <path id="path3746" opacity="0.08" d="m107.36 974.46c-6.1589 0-11.199 5.0108-11.199 11.134v13.58c-0.031-0.004-0.0647 0-0.0647 0-0.002-0.00013-0.15946 0.00003-0.16183 0h-2.0391-1.0357-3.01-0.0324c-0.00096-0.00005-0.0315 0.00025-0.0647 0-0.0499-0.00038-0.1174 0-0.097 0 0.027 0-0.0824-0.00037-0.12947 0-0.0241-0.00004-0.16063-0.00012-0.16183 0a1.0928 1.0866 0 0 0 -0.19419 0.0644 1.0928 1.0866 0 0 0 -0.0324 0c-0.009 0.002-0.0223-0.002-0.0324 0-0.0403 0.008-0.1922 0.0638-0.1942 0.0644-0.0194 0.009-0.0344 0.0333-0.0324 0.0322-0.0683 0.026-0.27918 0.0853-0.22657 0.0644-0.004 0.001-0.1889 0.0939-0.19419 0.0965 0.1096-0.0549-0.223 0.0943-0.22657 0.0965-0.003 0.002-0.3645 0.28646-0.19419 0.1609-0.0382 0.0282-0.0325 0.008-0.0647 0.0322-0.0322 0.024-0.12791 0.12734-0.12947 0.12872-0.003 0.003-0.15895 0.15791-0.16183 0.16091-0.00036 0.0004-0.0919 0.09-0.097 0.096 0.00033-0.0003 0.004 0.028 0 0.032-0.008 0.011-0.0557 0.02-0.0647 0.032-0.0241 0.032 0.001 0.031 0 0.032-0.006 0.01-0.0242-0.01-0.0324 0-0.004 0-0.023 0.022-0.0324 0.032-0.005 0.01 0.0117 0.019 0 0.032s-0.097 0.096-0.097 0.096c-0.002 0-0.15981 0.2537-0.16183 0.2574-0.002 0-0.0954 0.1893-0.097 0.1931-0.00085 0 0.0163 0.0001 0 0.032-0.008 0.016-0.0252 0.018-0.0324 0.032-0.004 0.01 0.004 0.024 0 0.032-0.004 0.01-0.0646 0.1284-0.0647 0.1287-0.00008 0.0002-0.0305 0.1201-0.0324 0.1287-0.002 0.01 0.002 0.024 0 0.032-0.003 0.017-0.0284 0.044-0.0324 0.064-0.008 0.04 0.0005 0.03 0 0.032-0.001 0-0.0317 0.2534-0.0324 0.2575-0.00033 0-0.0242-0.01-0.0324 0.032-0.004 0.02 0.003 0.047 0 0.064-0.002 0.01-0.0323 0.1603-0.0324 0.1609-0.00015 0-0.00003 0.096 0 0.1287 0.00003 0.032-0.001-0.051 0 0.064v3.0893c0.00002 0-0.00013 0.1586 0 0.1609 0 0 0.0276 0.029 0.0324 0.064-0.00004 0.01 0 0.022 0 0.032-0.00001 0.01 0.00005 0.02 0 0.032 0.001 0.01 0 0.032 0 0.032 0 0.01-0.00008 0.023 0 0.032 0.00004 0.01-0.00029 0.02 0 0.032 0.003 0.01-0.002 0.027 0 0.032 0.00035 0.01 0.0281 0.032 0.0324 0.064 0.006 0.045-0.00001 0.096 0 0.096 0.00006 0.0003 0.0303 0.1226 0.0324 0.1287 0.003 0.011-0.004 0.02 0 0.032 0.0105 0.032 0.0585 0.1139 0.0647 0.1287 0.007 0.018-0.003 0.025 0 0.032h0.0324c0.002 0-0.001 0.03 0 0.032 0.005 0.01-0.004 0.024 0 0.032 0.003 0.01-0.00016 0.032 0 0.032 0.0001 0.0003 0.0617 0.09 0.0647 0.096 0.002 0.01-0.002 0.026 0 0.032 0.001 0 0.0212 0.038 0.0324 0.064 0.001 0-0.005 0.02 0 0.032 0.005 0.013 0.0323 0.032 0.0324 0.032 0.005 0.011-0.006 0.02 0 0.032 0.002 0.01 0.026 0.016 0.0324 0.032 0.007 0.014-0.00033 0.032 0 0.032 0.003 0.01-0.00002 0.032 0 0.032 0.00003 0.0001 0.0647 0.096 0.0647 0.096 0.00001 0 0.0227 0.018 0.0324 0.032 0.004 0.01 0.0277 0.023 0.0324 0.032 0.0186 0.027 0.0323 0.064 0.0324 0.064 0.00005 0.0001 0.0257 0.025 0.0324 0.032 0.0207 0.031 0.0323 0.064 0.0324 0.064 0.0113 0.014 0.0294 0.029 0.0324 0.032 0.0126 0.015 0.019 0.016 0.0324 0.032s0.0302 0.03 0.0324 0.032c0.006 0.01-0.003 0.029 0 0.032 0.008 0.01 0.0242 0.024 0.0324 0.032 0.0262 0.028 0.0557 0.055 0.0647 0.064 0.001 0 0.12035 0.1197 0.097 0.096-0.0233-0.023 0.0954 0.095 0.097 0.097 0.009 0.01 0.0366 0.038 0.0647 0.064 0.008 0.01 0.0245 0.024 0.0324 0.032 0.003 0 0.0258-0.01 0.0324 0 0.002 0 0.0166 0.019 0.0324 0.032 0.0157 0.013 0.0173 0.02 0.0324 0.032 0.015 0.012 0.0323 0.032 0.0324 0.032 0.004 0 0.0217 0.023 0.0324 0.032 0.0111 0.01 0.0205-0.01 0.0324 0 0.007 0.01 0.0323 0.032 0.0324 0.032 0.0141 0.01 0.0268 0.029 0.0324 0.032 0.008 0 0.0227-0.01 0.0324 0 0.009 0 0.0242 0.028 0.0324 0.032 0.0139 0.01 0.0323 0.032 0.0324 0.032 0.00003 0 0.097 0.065 0.097 0.065h0.0647c0.0326 0.016 0.0633 0.032 0.0647 0.032 0.0168 0.01 0.0286 0.031 0.0324 0.032 0.0124 0 0.0285-0.001 0.0324 0 0.0269 0.011 0.0613 0.031 0.0647 0.032h0.0324c0.0109 0 0.0203 0.028 0.0324 0.032 0.0322 0.013 0.0645 0.032 0.0647 0.032h0.0324c0.0177 0.01 0.0374-0.01 0.0647 0 0.003 0-0.007 0.029 0 0.032 0.0265 0.01 0.0639-0.0003 0.0647 0 0.033 0.011 0.0717 0.057 0.097 0.065h0.0324c0.006 0 0.12917 0.032 0.12946 0.032 0.00005 0 0.0521-0.01 0.097 0 0.0329 0 0.0578 0.032 0.0647 0.032h0.0324c0.0118 0.0003 0.0278-0.0001 0.0324 0h0.0324c0.00005 0 0.0493-0.01 0.097 0 0.0351 0.01 0.0647 0.032 0.0647 0.032 0.002 0.0001 0.15946 0 0.16183 0h0.19419v2.2526c0 7.3345 4.8555 13.446 11.393 15.929v0.7402h-0.1942c-0.002 0-0.15947-0.0002-0.16183 0-0.00001 0-0.0296 0.028-0.0647 0.032-0.0479 0.01-0.0971 0-0.0971 0h-0.0324-0.0324c-0.006 0.0002-0.0159-0.0008-0.0324 0-0.007 0.0004-0.0318 0.028-0.0647 0.032-0.045 0.01-0.097 0-0.097 0-0.00029 0-0.12325 0.03-0.12946 0.032 0.001-0.0004-0.0564 0.01-0.0324 0-0.0321 0.01-0.11457 0.059-0.12946 0.065-0.018 0.01-0.0256 0-0.0324 0-0.0136 0.01-0.0274 0.03-0.0324 0.032-0.0265 0.01-0.0639-0.0004-0.0647 0-0.00018 0-0.0325 0.019-0.0647 0.032-0.0121 0-0.0214 0.029-0.0324 0.032h-0.0324c-0.003 0-0.0378 0.022-0.0647 0.032h-0.0324c-0.0124 0-0.12953 0.065-0.12946 0.065h-0.0324c-0.00008 0.0001-0.097 0.065-0.097 0.065-0.00002 0-0.0309 0.041-0.0647 0.065-0.0266 0.019-0.0647 0.032-0.0647 0.032-0.0141 0.01-0.0971 0.064-0.0971 0.065-0.0145 0.011-0.0291 0.029-0.0324 0.032-0.008 0.01-0.0286 0.029-0.0324 0.032-0.0157 0.013-0.0302 0.03-0.0324 0.032-0.006 0.01-0.0297 0-0.0324 0-0.008 0.01-0.0243 0.025-0.0324 0.032-0.0282 0.026-0.0557 0.056-0.0647 0.065-0.002 0-0.12035 0.1197-0.0971 0.097 0.0232-0.023-0.0955 0.095-0.097 0.097-0.009 0.01-0.0385 0.036-0.0647 0.065-0.008 0.01-0.0245 0.025-0.0324 0.032-0.004 0 0.00012 0.032 0 0.032-0.002 0-0.0191 0.016-0.0324 0.032-0.004 0-0.0242 0.025-0.0324 0.032-0.008 0.01-0.0234 0.024-0.0324 0.032-0.004 0-0.0224 0.022-0.0324 0.032-0.005 0.01 0.0134 0.017 0 0.032-0.0129 0.02-0.0293 0.027-0.0324 0.032-0.008 0.014-0.0294 0.027-0.0324 0.032-0.006 0.011 0.002 0.028 0 0.032-0.005 0.01-0.0284 0.024-0.0324 0.032-0.009 0.013-0.0323 0.032-0.0324 0.032-0.00002 0-0.0647 0.097-0.0647 0.097-0.00003 0.0002 0.003 0.057 0 0.065-0.009 0.019-0.023 0.013-0.0324 0.032-0.003 0.01 0.002 0.026 0 0.032-0.004 0.012-0.0284 0.021-0.0324 0.032-0.004 0.012 0.002 0.026 0 0.032-0.0112 0.027-0.0312 0.061-0.0324 0.065 0.008-0.017-0.00046 0.033 0 0.032-0.004 0.01-0.0284 0.021-0.0324 0.032-0.0138 0.032-0.0323 0.064-0.0324 0.065-0.002 0 0.002 0.028 0 0.032-0.004 0.01 0.005 0.022 0 0.032-0.005 0.015-0.027 0.016-0.0324 0.032-0.003 0.01 0.007 0.014 0 0.032-0.003 0.01 0.00014 0.032 0 0.032-0.0115 0.033-0.0564 0.071-0.0647 0.097 0.008-0.024-0.00029 0.033 0 0.032-0.002 0.01-0.0323 0.1285-0.0324 0.1288-0.00001 0 0.006 0.051 0 0.097-0.004 0.033-0.032 0.058-0.0324 0.065-0.00084 0.017 0.00014 0.027 0 0.032-0.00029 0.011 0.00004 0.028 0 0.032-0.00009 0.01 0 0.026 0 0.032 0.00001 0.012-0.00006 0.021 0 0.032-0.00014 0.01 0.00001 0.031 0 0.032 0 0.01-0.00005 0.024 0 0.032-0.005 0.035-0.0324 0.065-0.0324 0.065-0.00014 0 0.00002 0.1586 0 0.161v3.0893c0.00002 0-0.00014 0.1586 0 0.1608 0 0 0.0275 0.03 0.0324 0.065 0.002 0.03 0.00005 0.097 0 0.097 0 0.01-0.00009 0.023 0 0.032 0.00004 0-0.00029 0.021 0 0.032 0.003 0.01-0.002 0.027 0 0.032 0.00035 0.01 0.0281 0.032 0.0324 0.065 0.006 0.044-0.00001 0.097 0 0.097 0.00007 0.0004 0.0303 0.1226 0.0324 0.1288 0.003 0.01-0.004 0.021 0 0.032 0.0105 0.032 0.0585 0.1139 0.0647 0.1287 0.007 0.017-0.003 0.026 0 0.032h0.0324c0.002 0-0.001 0.03 0 0.032 0.005 0.01-0.004 0.025 0 0.032 0.003 0.01-0.00015 0.032 0 0.032 0.00006 0.0002 0.0186 0.032 0.0324 0.065 0.004 0.012 0.0287 0.022 0.0324 0.032 0.004 0.01-0.004 0.024 0 0.032 0.001 0 0.0212 0.038 0.0324 0.065 0.002 0.01-0.004 0.021 0 0.032 0.004 0.012 0.0283 0.02 0.0324 0.032 0.002 0.01-0.003 0.024 0 0.032 0.002 0.01 0.026 0.016 0.0324 0.032 0.007 0.014-0.00033 0.032 0 0.032 0.003 0.01-0.00002 0.032 0 0.032 0.00003 0.0001 0.0647 0.097 0.0647 0.097 0.00001 0 0.0227 0.019 0.0324 0.032 0.004 0.01 0.0277 0.023 0.0324 0.032 0.0186 0.027 0.0323 0.065 0.0324 0.065 0.00005 0 0.0257 0.025 0.0324 0.032 0.007 0.012-0.007 0.022 0 0.032 0.0104 0.01 0.0286 0.029 0.0324 0.032 0.009 0.01 0.0242 0.025 0.0324 0.032 0.0126 0.014 0.019 0.016 0.0324 0.032 0.0134 0.015 0.0302 0.03 0.0324 0.032 0.006 0.01-0.003 0.03 0 0.032 0.008 0.01 0.0242 0.025 0.0324 0.032 0.0262 0.028 0.0557 0.056 0.0647 0.065 0.001 0 0.12035 0.1197 0.097 0.097-0.0233-0.023 0.0954 0.095 0.0971 0.097 0.009 0.01 0.0366 0.038 0.0647 0.065 0.008 0.01 0.0245 0.025 0.0324 0.032 0.003 0 0.0258-0.01 0.0324 0 0.002 0 0.0166 0.018 0.0324 0.032 0.0157 0.013 0.0173 0.02 0.0324 0.032 0.015 0.012 0.0323 0.032 0.0324 0.032 0.004 0 0.0217 0.023 0.0324 0.032 0.0111 0.01 0.0205-0.01 0.0324 0 0.007 0.01 0.0323 0.032 0.0324 0.032 0.0141 0.01 0.0268 0.029 0.0324 0.032 0.008 0.01 0.0227-0.01 0.0324 0 0.009 0 0.0242 0.028 0.0324 0.032 0.0139 0.01 0.0323 0.032 0.0324 0.032 0.00003 0 0.097 0.065 0.097 0.065 0.00007 0.0002 0.0567 0 0.0647 0 0.0326 0.017 0.0633 0.032 0.0647 0.032 0.0168 0.01 0.0286 0.031 0.0324 0.032h0.0324c0.0269 0.011 0.0613 0.031 0.0647 0.032h0.0324c0.0109 0 0.0203 0.028 0.0324 0.032 0.0322 0.013 0.0645 0.032 0.0647 0.032h0.0324c0.0177 0.01 0.0374-0.01 0.0647 0 0.003 0-0.007 0.029 0 0.032 0.0265 0.01 0.0639-0.0002 0.0647 0 0.033 0.011 0.0717 0.057 0.097 0.065h0.0324c0.006 0 0.12917 0.032 0.12946 0.032 0.00004 0 0.0521-0.01 0.097 0 0.0329 0 0.0578 0.032 0.0647 0.032h0.0324 0.0324 0.0324c0.00006 0 0.0493-0.01 0.097 0 0.0351 0 0.0647 0.032 0.0647 0.032 0.002 0.0001 0.15947 0 0.16183 0h12.429c0.002 0 0.15946 0.0001 0.16183 0 0.00001 0 0.0296-0.028 0.0647-0.032 0.0479-0.01 0.097 0 0.097 0 0.0124-0.001 0.0167 0 0.0324 0h0.0647c0.007-0.0003 0.0318-0.028 0.0647-0.032 0.045-0.01 0.097 0 0.097 0 0.00029-0.0001 0.12325-0.03 0.12947-0.032 0.00006 0 0.0876-0.05 0.12946-0.065-0.00014 0.0001 0.1199-0.028 0.12947-0.032h0.0324c0.00028-0.0001 0.0909-0.062 0.097-0.065h0.0324c0.007 0 0.12933-0.065 0.12946-0.065 0.00064-0.0003 0.0184 0.01 0.0324 0 0.006 0 0.0162-0.026 0.0324-0.032 0.014-0.01 0.0318 0.0004 0.0324 0h0.0324c0.00008 0 0.097-0.064 0.097-0.065 0.00001 0 0.0185-0.023 0.0324-0.032 0.0295-0.017 0.0973-0.065 0.097-0.065 0.00007-0.0001 0.0248-0.026 0.0324-0.032 0.0333-0.026 0.0886-0.057 0.097-0.065 0.0118-0.01-0.004-0.029 0-0.032 0.0258-0.022 0.0614-0.029 0.0647-0.032 0.00091-0.0007 0.1134-0.08 0.12946-0.097 0.002 0 0.12035-0.1197 0.097-0.097-0.0232 0.024 0.0955-0.095 0.097-0.097 0.0162-0.015 0.0963-0.1278 0.097-0.1287 0.002 0 0.019-0.017 0.0324-0.032 0.001 0-0.007-0.025 0-0.032 0.007-0.01 0.026 0.01 0.0324 0 0.007-0.01 0.0389-0.063 0.0647-0.097 0.006-0.01 0.0323-0.032 0.0324-0.032-0.00013 0.0002 0.0474-0.067 0.0647-0.097 0.009-0.013 0.0323-0.032 0.0324-0.032 0.00002-0.0001 0.0647-0.097 0.0647-0.097 0.00003 0-0.003-0.057 0-0.065 0.006-0.016 0.0302-0.027 0.0324-0.032 0.007-0.014-0.00031-0.032 0-0.032 0.00006-0.0001 0.0623-0.1219 0.0647-0.1288-0.008 0.016 0.00046-0.033 0-0.032 0.003-0.01 0.0646-0.096 0.0647-0.097 0.002 0-0.002-0.028 0-0.032 0.004-0.01-0.005-0.022 0-0.032 0.0159-0.04 0.0324-0.097 0.0324-0.097 0.0146-0.041 0.0647-0.1287 0.0647-0.1287 0.002-0.01 0.0323-0.1285 0.0324-0.1288 0.00001-0.0001-0.006-0.052 0-0.097 0.004-0.033 0.032-0.058 0.0324-0.065 0.002-0.013-0.003-0.015 0-0.032 0.001 0-0.002-0.022 0-0.032 0.003-0.031-0.00016-0.059 0-0.065 0.001-0.021-0.001-0.044 0-0.065 0.005-0.035 0.0324-0.064 0.0324-0.065 0.00013 0-0.00002-0.1585 0-0.1609v-3.0892c-0.00002 0 0.00013-0.1586 0-0.161 0 0-0.0276-0.03-0.0324-0.065 0.00004-0.01 0-0.023 0-0.032-0.00004 0 0.00032-0.021 0-0.032-0.00016-0.01 0.003-0.033 0-0.065-0.002-0.011 0.003-0.015 0-0.032-0.003-0.01 0.002-0.027 0-0.032-0.00035-0.01-0.0281-0.032-0.0324-0.065-0.006-0.044 0.00001-0.097 0-0.097-0.00006-0.0003-0.0303-0.1225-0.0324-0.1287-0.00001-0.0001-0.0501-0.088-0.0647-0.1287 0.00003 0.0001-0.0165-0.056-0.0324-0.097-0.005-0.01 0.004-0.024 0-0.032-0.002 0 0.001-0.03 0-0.032-0.0001-0.0002-0.0617-0.091-0.0647-0.097 0.00046 0-0.008-0.048 0-0.032-0.002-0.01-0.0646-0.1285-0.0647-0.1287-0.00031-0.0006 0.007-0.019 0-0.032-0.002-0.01-0.026-0.016-0.0324-0.032-0.003-0.01 0.00003-0.064 0-0.065-0.00003 0-0.0647-0.097-0.0647-0.097h-0.0324c-0.001 0-0.0649-0.1291-0.0647-0.1288-0.00005-0.0001-0.0257-0.025-0.0324-0.032-0.0258-0.033-0.0571-0.089-0.0647-0.097-0.0254-0.03-0.0606-0.06-0.0647-0.065-0.00013-0.0002 0.004-0.028 0-0.032-0.008-0.01-0.0242-0.025-0.0324-0.032-0.0262-0.028-0.0557-0.056-0.0647-0.065-0.001 0-0.12035-0.1196-0.097-0.097 0.0232 0.024-0.0954-0.095-0.097-0.097-0.009-0.01-0.0366-0.038-0.0647-0.065 0.0161 0.016-0.0657-0.033-0.0647-0.032-0.003 0-0.0389-0.01-0.0647-0.032-0.004 0 0.0118-0.022 0-0.032-0.003 0-0.0179-0.021-0.0324-0.032-0.004 0-0.0217-0.023-0.0324-0.032-0.009-0.01-0.025 0.01-0.0324 0-0.007-0.01-0.0323-0.032-0.0324-0.032-0.00002 0-0.0185-0.023-0.0324-0.032-0.011-0.01-0.0282 0-0.0324 0-0.0276-0.016-0.0633-0.031-0.0647-0.032-0.003 0 0-0.032 0-0.032-0.00003 0-0.097-0.064-0.097-0.065h-0.0324c-0.00062-0.0003-0.0184 0.01-0.0324 0-0.0162-0.01-0.0265-0.03-0.0324-0.032-0.014-0.01-0.0317 0.0004-0.0324 0-0.00006-0.0001-0.0378-0.021-0.0647-0.032s-0.0613-0.031-0.0647-0.032c0.0161 0.01-0.0335-0.0005-0.0324 0 0.001 0.0004-0.0566-0.04-0.0324-0.032-0.0322-0.013-0.0645-0.032-0.0647-0.032-0.001-0.0006-0.0547-0.019-0.097-0.032-0.032-0.012-0.0648 0-0.0647 0-0.033-0.011-0.0717-0.056-0.0971-0.065 0.0241 0.01-0.0335-0.0004-0.0324 0-0.006 0-0.12918-0.032-0.12947-0.032-0.00004 0-0.0521 0.01-0.097 0-0.0329 0-0.0578-0.032-0.0647-0.032h-0.0324-0.0324c-0.0142 0-0.021 0.001-0.0324 0 0.00043 0.0001-0.0673 0-0.097 0-0.0351 0-0.0647-0.032-0.0647-0.032-0.002-0.0002-0.15947 0-0.16183 0h-0.1942v-0.7402c6.5374-2.4836 11.393-8.5946 11.393-15.929v-2.2526h0.1942c0.002 0 0.15947 0.0001 0.16183 0 0.00001 0 0.0296-0.028 0.0647-0.032 0.0199-0.001 0.0441 0 0.0647 0 0.005-0.0002 0.0333 0 0.0647 0h0.0647c0.007-0.0004 0.0318-0.028 0.0647-0.032 0.045-0.01 0.097 0 0.097 0 0.00029-0.0001 0.12325-0.03 0.12946-0.032 0.00006 0 0.0876-0.049 0.12946-0.065-0.00007 0 0.0285-0.019 0.0647-0.032 0.004 0 0.0299 0.001 0.0324 0h0.0324 0.0324c0.00028-0.0001 0.0909-0.062 0.097-0.065-0.001 0.0004 0.0486-0.01 0.0324 0 0.003 0 0.0378-0.021 0.0647-0.032s0.0646-0.032 0.0647-0.032c0.00064-0.0003 0.0184 0.01 0.0324 0 0.006 0 0.0162-0.026 0.0324-0.032h0.0647c0.00007-0.0001 0.097-0.065 0.097-0.065 0.00001 0 0.0185-0.023 0.0324-0.032 0.0111-0.01 0.0157-0.023 0.0324-0.032 0.0266-0.019 0.0647-0.032 0.0647-0.032 0.005 0 0.0126-0.02 0.0324-0.032 0.0152-0.013 0.027 0 0.0324 0 0.0161-0.012 0.0179-0.021 0.0324-0.032 0.009-0.01 0.0243-0.024 0.0324-0.032 0.0118-0.01-0.004-0.029 0-0.032 0.0258-0.022 0.0614-0.029 0.0647-0.032 0.006-0.01 0.0297 0 0.0324 0 0.0224-0.02 0.0836-0.083 0.097-0.096 0.002 0 0.12035-0.1197 0.097-0.096-0.0232 0.023 0.0955-0.095 0.097-0.096 0.009-0.01 0.0385-0.036 0.0647-0.064-0.009 0.01 0.0173-0.015 0.0324-0.032 0.003 0-0.006-0.026 0-0.032 0.002 0 0.0189-0.017 0.0324-0.032 0.001-0.001-0.007-0.025 0-0.032 0.004 0 0.0216 0.012 0.0324 0 0.007-0.01 0.0389-0.063 0.0647-0.096 0.006-0.01 0.0323-0.032 0.0324-0.032-0.00014 0.0002 0.0474-0.067 0.0647-0.096 0.009-0.014 0.0323-0.032 0.0324-0.032 0.00002-0.0001 0.0647-0.096 0.0647-0.096 0.00003-0.0001-0.003-0.056 0-0.064 0.006-0.016 0.0302-0.026 0.0324-0.032 0.007-0.014-0.0003-0.032 0-0.032 0.00006-0.0001 0.0624-0.1218 0.0647-0.1287-0.008 0.016 0.00045-0.033 0-0.032 0.003-0.01 0.0646-0.096 0.0647-0.096 0.002 0-0.002-0.028 0-0.032 0.004-0.01-0.005-0.022 0-0.032 0.0159-0.04 0.0324-0.097 0.0324-0.096 0.0146-0.042 0.0647-0.1287 0.0647-0.1288 0.002-0.01 0.0323-0.1284 0.0324-0.1287 0.00001 0-0.006-0.052 0-0.096 0.004-0.033 0.032-0.057 0.0324-0.064 0.002-0.014-0.003-0.016 0-0.032 0.00029-0.012-0.00004-0.028 0-0.032 0.003-0.031-0.00016-0.059 0-0.064 0.001-0.02-0.001-0.045 0-0.064 0.005-0.035 0.0324-0.064 0.0324-0.064 0.00014 0-0.00002-0.1585 0-0.1609v-3.0893c-0.00002 0 0.00014-0.1585 0-0.1609 0 0-0.0275-0.029-0.0324-0.064 0.00004-0.01 0-0.023 0-0.032-0.00076-0.014 0.00056-0.022 0-0.032 0.00005-0.012-0.00001-0.02 0-0.032 0-0.01 0.00008-0.023 0-0.032-0.002-0.012 0.003-0.016 0-0.032-0.00015-0.01 0.00084-0.016 0-0.032-0.00036-0.01-0.0281-0.032-0.0324-0.064-0.006-0.045 0.00001-0.096 0-0.096-0.00006-0.0003-0.0303-0.1225-0.0324-0.1287-0.00001 0-0.0501-0.087-0.0647-0.1287 0.00001 0 0.004-0.021 0-0.032-0.007-0.018 0.003-0.026 0-0.032-0.006-0.013-0.0299-0.027-0.0324-0.032-0.005-0.01 0.004-0.024 0-0.032-0.002-0.01 0.001-0.03 0-0.032-0.00006-0.0001-0.0186-0.032-0.0324-0.064 0.008 0.024-0.0328-0.033-0.0324-0.032-0.002-0.01 0.002-0.026 0-0.032-0.002-0.01-0.0195-0.066-0.0324-0.097-0.001 0-0.0248-0.015-0.0324-0.032-0.0003-0.0006 0.007-0.018 0-0.032-0.002-0.01-0.026-0.016-0.0324-0.032-0.003-0.01 0.00003-0.064 0-0.064-0.00003-0.0001-0.0647-0.096-0.0647-0.096h-0.0324c-0.0003-0.0006 0.004-0.025 0-0.032-0.004-0.01-0.0276-0.023-0.0324-0.032-0.002 0 0.006-0.021 0-0.032-0.003-0.01-0.0243-0.018-0.0324-0.032-0.00006-0.0001-0.0257-0.025-0.0324-0.032-0.005-0.01 0.007-0.023 0-0.032-0.0104-0.011-0.0286-0.028-0.0324-0.032-0.00004-0.0001-0.043-0.01-0.0647-0.032-0.007-0.01 0.001-0.031 0-0.032-0.0134-0.016-0.0302-0.03-0.0324-0.032-0.006-0.01 0.003-0.03 0-0.032-0.008-0.01-0.0242-0.024-0.0324-0.032-0.0262-0.028-0.0557-0.055-0.0647-0.064-0.001 0-0.12035-0.1196-0.0971-0.096 0.0232 0.023-0.0954-0.095-0.097-0.0965-0.009-0.009-0.0366-0.0383-0.0647-0.0644 0.0161 0.0161-0.0657-0.033-0.0647-0.0322-0.003-0.003-0.0389-0.0105-0.0647-0.0322-0.004-0.004 0.0118-0.0215 0-0.0322-0.008-0.008-0.0234-0.0233-0.0324-0.0322-0.00002-0.00002-0.0139-0.0201-0.0324-0.0322-0.009-0.007-0.025 0.005-0.0324 0-0.007-0.006-0.0323-0.0321-0.0324-0.0322-0.00002-0.00002-0.0381-0.0136-0.0647-0.0322-0.009-0.005-0.0242-0.0282-0.0324-0.0322-0.007-0.004-0.0318 0.0003-0.0324 0-0.003-0.002 0-0.0322 0-0.0322-0.00003-0.00002-0.097-0.0644-0.097-0.0644-0.00005-0.00002-0.024 0.003-0.0324 0-0.00062-0.00033-0.0184 0.007-0.0324 0-0.0162-0.006-0.0265-0.0301-0.0324-0.0322-0.014-0.007-0.0317 0.00031-0.0324 0-0.00006-0.00003-0.0378-0.0211-0.0647-0.0322s-0.0613-0.031-0.0647-0.0322c-0.008-0.004-0.024 0.004-0.0324 0-0.006-0.003-0.0968-0.0643-0.097-0.0644-0.001-0.0005-0.0547-0.0181-0.097-0.0322-0.032-0.0123-0.0648-0.00003-0.0647 0-0.033-0.0114-0.0717-0.0561-0.0971-0.0644 0.0241 0.008-0.0336-0.00028-0.0324 0-0.006-0.002-0.12917-0.0321-0.12946-0.0322-0.00004-0.00001-0.0521 0.006-0.097 0-0.0329-0.004-0.0578-0.0318-0.0647-0.0322-0.005-0.001-0.0223 0.003-0.0324 0-0.0163-0.003-0.0206 0.002-0.0324 0-0.0314-0.003-0.0592 0.00015-0.0647 0-0.0203-0.003-0.0328 0.004-0.0647 0-0.0351-0.005-0.0647-0.0322-0.0647-0.0322-0.002-0.00013-0.15947 0.00002-0.16183 0h-3.1072-1.0357-2.0391c-0.002 0.00002-0.15947-0.00013-0.16183 0-0.00001 0-0.0338-0.004-0.0647 0v-13.58c0-6.1235-5.0397-11.134-11.199-11.134z"/>
   <path id="path3742" opacity=".15" d="m107.36 975.55c-5.6124-0.15389-10.531 5.0538-10.098 10.606v14.72c-1.0057-1.0564-2.635-0.4531-3.9349-0.6114-1.4106 0.084-2.8824-0.1721-4.2538 0.1287-1.6378 0.703-1.0146 2.6904-1.1328 4.0769-0.25299 1.2188 0.62887 2.5876 1.9547 2.4878 1.2098-0.3496 1.298 0.4159 1.1524 1.4138-0.23212 4.0447 0.67144 8.2365 3.248 11.462 2.0428 2.6824 4.9275 4.716 8.1448 5.7565-0.0996 0.774 0.19644 1.9415-0.1422 2.4779-1.1261-0.1448-2.5836 0.073-2.9002 1.3515-0.0857 1.3257-0.15204 2.7419 0.0324 4.0547 0.34482 1.3056 1.87 1.4002 2.9952 1.2872 3.8636-0.044 7.7558 0.088 11.602-0.065 1.2782-0.3131 1.507-1.7525 1.3594-2.8689-0.044-1.2258 0.34565-2.9346-1.0357-3.5672-0.64151-0.3163-1.3774-0.1528-2.0714-0.193 0.17575-0.8072-0.3696-2.1291 0.30482-2.5801 6.6328-2.1851 11.48-8.8982 11.088-15.89v-2.6398c1.1284 0.1117 2.6632 0.025 3.01-1.2872 0.18253-1.3129 0.11991-2.729 0.0324-4.0547-0.31487-1.2708-1.7626-1.4983-2.8854-1.3515-1.8472 0.067-3.7453-0.1321-5.5622 0.096-0.8578 0.5574-0.89889 0.4315-0.80915-0.6162-0.0321-5.0592 0.066-10.123-0.0523-15.179-0.4304-4.9963-4.9977-9.105-10.046-9.0155z"/>
   <path id="path3738" opacity=".25" d="m107.36 976.39c-5.1159 0-9.2567 4.117-9.2567 9.2035v24.714c0 5.0865 4.1408 9.2035 9.2567 9.2035s9.2567-4.117 9.2567-9.2035v-24.714c0-5.0865-4.1408-9.2035-9.2567-9.2035zm-17.801 24.714a0.97943 0.9738 0 0 0 -0.77679 0.9654v3.0893a0.97943 0.9738 0 0 0 0.97098 0.9654h2.1362v4.1834c0 6.9927 4.8946 12.876 11.393 14.706v3.8939h-2.1362a0.97943 0.9738 0 0 0 -0.97098 0.9654v3.0892a0.97943 0.9738 0 0 0 0.97098 0.9654h12.429a0.97943 0.9738 0 0 0 0.97099 -0.9654v-3.0892a0.97943 0.9738 0 0 0 -0.97099 -0.9654h-2.1362v-3.8939c6.4983-1.8304 11.393-7.7135 11.393-14.706v-4.1834h2.1362a0.97943 0.9738 0 0 0 0.97098 -0.9654v-3.0893a0.97943 0.9738 0 0 0 -0.97098 -0.9654h-3.1071-1.0357-2.0391a0.97943 0.9738 0 0 0 -0.97098 0.9654v8.2381c0 5.7102-4.711 10.394-10.454 10.394-5.7433 0-10.454-4.6839-10.454-10.394v-8.2381a0.97943 0.9738 0 0 0 -0.97099 -0.9654h-2.0391-1.0357-3.1072a0.97943 0.9738 0 0 0 -0.19419 0z"/>
   <path id="path2960" opacity=".6" d="m107.36 977.35c-4.5903 0-8.2857 3.6742-8.2857 8.2381v24.714c0 4.5639 3.6954 8.2381 8.2857 8.2381s8.2857-3.6742 8.2857-8.2381v-24.714c0-4.5639-3.6954-8.2381-8.2857-8.2381zm-17.607 24.714v3.0893h3.1072v5.1488c0 6.8086 4.9408 12.615 11.393 14.063v5.5029h-3.1071v3.0892h12.429v-3.0892h-3.1071v-5.5029c6.4521-1.448 11.393-7.254 11.393-14.063v-5.1488h3.1071v-3.0893h-3.1071-1.0357-2.0391v8.2381c0 6.2424-5.1467 11.36-11.425 11.36-6.2785 0-11.425-5.1171-11.425-11.36v-8.2381h-2.0391-1.0357-3.1072z"/>
   <path id="rect3616" fill="url(#linearGradient7755)" d="m107.36 976.32c-4.5903 0-8.2857 3.6742-8.2857 8.2381v24.714c0 4.5639 3.6954 8.2381 8.2857 8.2381s8.2857-3.6742 8.2857-8.2381v-24.714c0-4.5639-3.6954-8.2381-8.2857-8.2381zm-17.607 24.714v3.0893h3.1072v5.1488c0 6.8086 4.9408 12.615 11.393 14.063v5.5028h-3.1071v3.0893h12.429v-3.0893h-3.1071v-5.5028c6.4521-1.4481 11.393-7.2541 11.393-14.063v-5.1488h3.1071v-3.0893h-3.1071-1.0357-2.0391v8.2381c0 6.2424-5.1467 11.36-11.425 11.36-6.2785 0-11.425-5.1171-11.425-11.36v-8.2381h-2.0391-1.0357-3.1072z"/>
   <path id="path3638" fill="#fff" d="m107.36 976.32c-4.5903 0-8.2857 3.6742-8.2857 8.2381v2.0595c0-4.5639 3.6954-8.2381 8.2857-8.2381s8.2857 3.6742 8.2857 8.2381v-2.0595c0-4.5639-3.6954-8.2381-8.2857-8.2381zm-17.607 24.714v2.0595h3.1072 1.0357 2.0391v-2.0595h-2.0391-1.0357-3.1072zm29.032 0v2.0595h2.0391 1.0357 3.1071v-2.0595h-3.1071-1.0357-2.0391zm-22.85 8.2381v2.0596c0 6.2424 5.1468 11.36 11.425 11.36 6.2785 0 11.425-5.1171 11.425-11.36v-2.0596c0 6.2424-5.1467 11.36-11.425 11.36-6.2785 0-11.425-5.1171-11.425-11.36zm5.2109 19.566v2.0595h3.1071v-2.0595h-3.1071zm9.3214 0v2.0595h3.1071v-2.0595h-3.1071z"/>
  </g>
  <rect id="rect3873" rx="6" ry="6" height="84" width="84" display="none" y="947.34" x="107.91" fill="url(#linearGradient4982)"/>
  <rect id="rect3880" rx="6" ry="6" height="84" width="84" display="none" y="947.34" x="107.91" fill="url(#linearGradient4982)"/>
  <path id="rect5265-0" d="m5.4316 1029.8v5.0663c0 6.668 5.3645 12.032 12.032 12.032h61.049c6.668 0 12.032-5.3645 12.032-12.032v-5.0663c0 6.6681-5.3645 12.032-12.032 12.032h-61.049c-6.668 0-12.032-5.3643-12.032-12.032z" fill-opacity=".23529"/>
  <path id="path5252-0" d="m5.4316 1033.9v1.0133c0 6.668 5.3645 12.032 12.032 12.032h61.049c6.668 0 12.032-5.3645 12.032-12.032v-1.0133c0 6.6681-5.3645 12.032-12.032 12.032h-61.049c-6.668 0-12.032-5.3644-12.032-12.032z" fill-opacity=".098039"/>
 </g>
</svg>
