<?xml version="1.0" encoding="UTF-8" standalone="no"?>
<!-- Created with Inkscape (http://www.inkscape.org/) -->
<svg id="svg2" xmlns:rdf="http://www.w3.org/1999/02/22-rdf-syntax-ns#" xmlns="http://www.w3.org/2000/svg" height="96" width="96" version="1.1" xmlns:cc="http://creativecommons.org/ns#" xmlns:xlink="http://www.w3.org/1999/xlink" xmlns:dc="http://purl.org/dc/elements/1.1/">
 <defs id="defs4">
  <linearGradient id="linearGradient3700-09">
   <stop id="stop3702-67" stop-color="#70a83e" offset="0"/>
   <stop id="stop3704-18" stop-color="#9fd058" offset="1"/>
  </linearGradient>
  <linearGradient id="linearGradient9745" y2="5.9877" xlink:href="#linearGradient3700-09" gradientUnits="userSpaceOnUse" x2="48" gradientTransform="translate(-169.06 968.2)" y1="90" x1="48"/>
  <linearGradient id="linearGradient36613" y2="5.9877" gradientUnits="userSpaceOnUse" x2="48" gradientTransform="matrix(1.1184 0 0 1.0921 -7.1192 -4.8215)" y1="90" x1="48">
   <stop id="stop3824-6" stop-color="#e6e6e6" offset="0"/>
   <stop id="stop3826-4" stop-color="#f5f5f5" offset="1"/>
  </linearGradient>
  <linearGradient id="linearGradient36623" y2="16.436" gradientUnits="userSpaceOnUse" x2="47.973" gradientTransform="translate(-2.542 951.54)" y1="79.776" x1="47.973">
   <stop id="stop3702-96" stop-color="#f05517" offset="0"/>
   <stop id="stop3704-90" stop-color="#f37340" offset="1"/>
  </linearGradient>
 </defs>
 <metadata id="metadata7">
  <rdf:RDF>
   <cc:Work rdf:about="">
    <dc:format>image/svg+xml</dc:format>
    <dc:type rdf:resource="http://purl.org/dc/dcmitype/StillImage"/>
    <dc:title/>
   </cc:Work>
  </rdf:RDF>
 </metadata>
 <g id="layer1" transform="translate(0 -956.36)">
  <rect id="rect5263-0" fill-opacity=".019608" ry="12.724" height="89.978" width="89.624" y="959.35" x="3.3534"/>
  <rect id="rect5261-6" fill-opacity=".039216" ry="12.552" height="88.762" width="88.413" y="959.96" x="3.9589"/>
  <rect id="rect5259-9" fill-opacity=".078431" ry="12.38" height="87.546" width="87.202" y="960.57" x="4.5645"/>
  <rect id="rect5257-5" fill-opacity=".15686" ry="12.208" height="86.33" width="85.991" y="961.18" x="5.1701"/>
  <path id="rect2419" d="m17.656 5.5938c-6.668 0-12.062 5.3272-12.062 11.968l-0.0002 60.813c0 6.642 5.3942 11.969 12.062 11.969h61.032c6.668 0 12.031-5.327 12.031-11.969v-60.813c0-6.641-5.363-11.968-12.031-11.968l-61.032-0.0002z" transform="translate(0 956.36)" fill="url(#linearGradient36613)"/>
  <path id="rect5265-0" d="m5.7756 1029.8v5.0663c0 6.668 5.3434 12.032 11.985 12.032h60.809c6.6418 0 11.985-5.3645 11.985-12.032v-5.0663c0 6.6681-5.3434 12.032-11.985 12.032h-60.809c-6.6418 0-11.985-5.3643-11.985-12.032z" fill-opacity="0.17"/>
  <path id="path5252-0" d="m5.7756 1033.9v1.0133c0 6.668 5.3434 12.032 11.985 12.032h60.809c6.6418 0 11.985-5.3645 11.985-12.032v-1.0133c0 6.6681-5.3434 12.032-11.985 12.032h-60.809c-6.6418 0-11.985-5.3644-11.985-12.032z" fill-opacity=".098039"/>
  <rect id="rect4772" display="none" height="107.79" width="107.79" y="971.68" x="-369.64" fill="none"/>
  <g id="g4788" display="none" transform="matrix(.21052 0 0 .21052 -369.68 971.63)"></g>
  <g id="g4806" display="none" transform="matrix(.21052 0 0 .21052 -369.68 971.63)">
   <g id="g4808" display="inline">
    <path id="path4810" d="m349.1 256.65c-0.265-0.254 37.637 27.605 39.421 25.012 6.362-9.252 82.046-93.137 84.784-116.24 0.242-2.003-0.516-4.096-0.516-4.096s-1.19-0.144-6.325-4.314c-2.692-2.192-5.483-4.581-5.483-4.581-16.054 0.998-57.885 41.559-111.06 103.57" fill="#050505" display="none"/>
   </g>
  </g>
  <g id="g4796" transform="matrix(.21052 0 0 .21052 -369.68 971.63)"></g>
  <rect id="rect3873" rx="6" ry="6" height="84" width="84" display="none" y="974.2" x="-163.06" fill="url(#linearGradient9745)"/>
  <rect id="rect3880" rx="6" ry="6" height="84" width="84" display="none" y="974.2" x="-163.06" fill="url(#linearGradient9745)"/>
  <g id="g36616" transform="translate(2.2097 3.1049)">
   <path id="path3050" style="color:#000000" d="m45.458 967.54c-17.673 0-32 14.103-32 31.5s14.327 31.5 32 31.5c5.4234 0 10.524-1.3437 15-3.6875l12 3.6875-2.9375-10.75c4.9357-5.5427 7.9375-12.8 7.9375-20.75 0-17.397-14.327-31.5-32-31.5zm-11.125 11.969 3.875 7.375 4.1875-4.0625 0.5 5.8125 4.4688-0.65625-1.2812 4.4375 7.4062 0.15625-4.5 3.2188c-0.75931 0.30384-1.4504 0.72869-2.0938 1.2188 0.01114-0.19044 0.03125-0.36927 0.03125-0.5625 0-3.2187-1.5896-6.079-4.0312-7.8125-1.561-1.1083-3.4734-1.75-5.5312-1.75-3.2187 0-6.079 1.5896-7.8125 4.0312-1.1083 1.561-1.75 3.4734-1.75 5.5312 0 3.2167 1.5947 6.0811 4.0312 7.8125 0.56683 0.4027 1.194 0.7289 1.8438 1-1.1028 1.2265-1.7812 2.8409-1.7812 4.625 0 0.1401 0.02325 0.268 0.03125 0.4062l-0.03125 0.031v-0.4375l-0.0625-5.625-6.8438 2.7812 3.6562-6.5625-5.5625-1.5312 4.7188-3.3438-6.5-5.5625 8.25 0.875-1.0312-4.625 4.8125 1.4375 1-8.2188zm3.0312 8.9688c4.3972 0 7.9688 3.5716 7.9688 7.9688 0 0.93395-0.17281 1.8231-0.46875 2.6562-0.04344 0.0623-0.08301 0.12409-0.125 0.1875-0.57483-0.23345-1.1999-0.375-1.875-0.375-2.4608 0-4.4341 1.7554-5.0312 4.0313-1.0155 0.1911-1.9529 0.6006-2.7812 1.1562-3.2754-0.9898-5.6562-4.0603-5.6562-7.6562 0-4.3972 3.5716-7.9688 7.9688-7.9688zm14.906 8.25c4.1584 0 7.5312 3.3729 7.5312 7.5313 3.1188 0 5.6562 2.5062 5.6562 5.625 0 3.1187-2.5375 5.6562-5.6562 5.6562h-20.688c-3.1188 0-5.6562-2.5375-5.6562-5.6562 0-3.1188 2.5375-5.625 5.6562-5.625 0-2.0792 1.6708-3.7813 3.75-3.7813 0.93205 0 1.7488 0.3765 2.4062 0.9375 1.1139-2.7658 3.8355-4.6875 7-4.6875z" fill="url(#linearGradient36623)"/>
   <path id="path3070" style="color:#000000" d="m34.333 979.51-1 8.2188-4.8125-1.4375 0.25 1.0625 3.4375 1.0312c0.39436-0.2514 0.81923-0.46373 1.25-0.65625l0.875-7.2188 3.3438 6.375c0.47853 0.0155 0.94752 0.0735 1.4062 0.15625l3.3125-3.2188 0.40625 4.75c0.03083 0.0213 0.06319 0.0408 0.09375 0.0625l-0.5-5.8125-4.1875 4.0625-3.875-7.375zm8.5625 9.125c0.36502 0.25916 0.70678 0.53679 1.0312 0.84375l3.125-0.46875 0.3125-1.0312-4.4688 0.65625zm-5.5312-0.15625c-4.3972 0-7.9688 3.5716-7.9688 7.9688 0 0.15 0.02307 0.28944 0.03125 0.4375 0.29097-4.1335 3.7307-7.4062 7.9375-7.4062 4.2173 0 7.6617 3.2893 7.9375 7.4375 0.0098-0.15669 0.03125-0.3094 0.03125-0.46875 0-4.3972-3.5716-7.9688-7.9688-7.9688zm-16.062 1.5625 1.3438 1.1562 6.3125 0.65625c0.13119-0.24063 0.2865-0.4601 0.4375-0.6875l-0.0625-0.28125-8.0312-0.84375zm25.062 2.375-0.125 0.46875c0.0697 0.17425 0.1279 0.35216 0.1875 0.53125l5.7188 0.125 1.3438-0.96875-7.125-0.15625zm-19.188 3.625-4.0938 2.9062 1.0312 0.28125 3.6875-2.625-0.625-0.5625zm25.094 0.6875c-3.1645 0-5.8861 1.9217-7 4.6875-0.65746-0.561-1.4742-0.9375-2.4062-0.9375-2.0792 0-3.75 1.7021-3.75 3.7813-3.1188 0-5.6562 2.5062-5.6562 5.625 0 0.1517 0.01946 0.2887 0.03125 0.4375 0.2902-2.8452 2.7011-5.0625 5.625-5.0625 0-2.0792 1.6708-3.7813 3.75-3.7813 0.93205 0 1.7488 0.3765 2.4062 0.9375 1.1139-2.7658 3.8355-4.6875 7-4.6875 4.1584 0 7.5312 3.3729 7.5312 7.5313 2.9239 0 5.3348 2.2173 5.625 5.0625 0.01179-0.1488 0.03125-0.2858 0.03125-0.4375 0-3.1188-2.5375-5.625-5.6562-5.625 0-4.1584-3.3729-7.5313-7.5312-7.5313zm-24.438 0.15625c-0.01115 0.19031-0.03125 0.36946-0.03125 0.5625 0 1.0225 0.17064 2.0112 0.46875 2.9375l0.375 0.094-0.21875 0.4062c0.55045 1.4354 1.4398 2.7129 2.5625 3.7188l0.84375-0.3437c-2.3242-1.6516-3.8613-4.3392-4-7.3751zm4 7.375v1c0.39461 0.2804 0.8409 0.5053 1.2812 0.7187 0.17201-0.2494 0.36043-0.494 0.5625-0.7187-0.64971-0.2711-1.2769-0.5973-1.8438-1zm45.625-4.75c-0.1169 7.7639-3.1002 14.849-7.9375 20.281l0.21875 0.75c4.8055-5.5103 7.7188-12.668 7.7188-20.5 0-0.17765 0.003-0.35426 0-0.53123zm-64 0.0313c-0.003 0.1666 0 0.33278 0 0.50003 0 17.397 14.327 31.5 32 31.5 5.4234 0 10.524-1.3437 15-3.6875l12 3.6875-0.3125-1.0937-11.688-3.5938c-4.4758 2.3438-9.5766 3.6875-15 3.6875-17.503 0-31.728-13.834-32-31zm14.719 1.8125-3.1875 5.6875 0.71875-0.2812 2.9375-5.2813-0.46875-0.125z" fill="#fff"/>
   <path id="path3856" opacity=".05" style="color:#000000" d="m45.458 967.54c-17.673 0-32 14.103-32 31.5s14.327 31.5 32 31.5c5.4234 0 10.524-1.3437 15-3.6875l12 3.6875-2.9375-10.75c4.9357-5.5427 7.9375-12.8 7.9375-20.75 0-17.397-14.327-31.5-32-31.5zm0 2.0312c16.585 0 29.969 13.194 29.969 29.469 0 7.4353-2.8174 14.187-7.4375 19.375a2.0447 2.0447 0 0 0 -0.4375 1.9063l1.9688 7.1562-8.4688-2.5937a2.0447 2.0447 0 0 0 -1.5312 0.1562c-4.1948 2.1966-8.9768 3.4688-14.062 3.4688-16.585 0-29.969-13.194-29.969-29.469 0-16.274 13.383-29.469 29.969-29.469zm-11.219 7.875a2.0447 2.0447 0 0 0 -0.21875 0.0313 2.0447 2.0447 0 0 0 -1.7188 1.7812l-0.71875 5.8125-2.4688-0.75a2.0447 2.0447 0 0 0 -2.5938 2.4062l0.40625 1.8438-5.4062-0.5625a2.0447 2.0447 0 0 0 -1.5625 3.5938l4.5 3.875-2.5625 1.8125a2.0447 2.0447 0 0 0 0.65625 3.625l3.0312 0.8437-2.375 4.2813a2.0447 2.0447 0 0 0 2.5625 2.9063l4.0625-1.6563 0.03125 2.5938v0.031 0.4063a2.0447 2.0447 0 0 0 2.0625 2.0312c1.0442 3.0189 3.8303 5.2188 7.1875 5.2188h20.688c4.2277 0 7.6875-3.4598 7.6875-7.6875 0-3.6266-2.6105-6.5189-6-7.3125-0.74275-3.9738-3.8267-6.9834-7.8438-7.5938l1.0312-0.75a2.0447 2.0447 0 0 0 -1.1562 -3.6875l-4.75-0.0937 0.5625-1.9062a2.0447 2.0447 0 0 0 -2.2812 -2.5938l-2.3125 0.34375-0.3125-3.6562a2.0447 2.0447 0 0 0 -3.4688 -1.2812l-2.2188 2.1562-2.5938-4.9375a2.0447 2.0447 0 0 0 -1.9062 -1.125zm0.09375 2.0625 3.875 7.375 4.1875-4.0625 0.5 5.8125 4.4688-0.65625-1.2812 4.4375 7.4062 0.15625-4.5 3.2188c-0.75931 0.30384-1.4504 0.72869-2.0938 1.2188 0.01114-0.19044 0.03125-0.36927 0.03125-0.5625 0-3.2187-1.5896-6.079-4.0312-7.8125-1.561-1.1083-3.4734-1.75-5.5312-1.75-3.2187 0-6.079 1.5896-7.8125 4.0312-1.1083 1.561-1.75 3.4734-1.75 5.5312 0 3.2167 1.5947 6.0811 4.0312 7.8125 0.56683 0.4027 1.194 0.7289 1.8438 1-1.1028 1.2265-1.7812 2.8409-1.7812 4.625 0 0.1401 0.02325 0.268 0.03125 0.4062l-0.03125 0.031v-0.4375l-0.0625-5.625-6.8438 2.7812 3.6562-6.5625-5.5625-1.5312 4.7188-3.3438-6.5-5.5625 8.25 0.875-1.0312-4.625 4.8125 1.4375 1-8.2188zm3.0312 8.9688c4.3972 0 7.9688 3.5716 7.9688 7.9688 0 0.93395-0.17281 1.8231-0.46875 2.6562-0.04344 0.0623-0.08301 0.12409-0.125 0.1875-0.57483-0.23345-1.1999-0.375-1.875-0.375-2.4608 0-4.4341 1.7554-5.0312 4.0313-1.0155 0.1911-1.9529 0.6006-2.7812 1.1562-3.2754-0.9898-5.6562-4.0603-5.6562-7.6562 0-4.3972 3.5716-7.9688 7.9688-7.9688zm14.906 8.25c4.1584 0 7.5312 3.3729 7.5312 7.5313 3.1188 0 5.6562 2.5062 5.6562 5.625 0 3.1187-2.5375 5.6562-5.6562 5.6562h-20.688c-3.1188 0-5.6562-2.5375-5.6562-5.6562 0-3.1188 2.5375-5.625 5.6562-5.625 0-2.0792 1.6708-3.7813 3.75-3.7813 0.93205 0 1.7488 0.3765 2.4062 0.9375 1.1139-2.7658 3.8355-4.6875 7-4.6875z" fill="#520"/>
   <path id="path3852" opacity=".1" style="color:#000000" d="m45.458 967.54c-17.673 0-32 14.103-32 31.5s14.327 31.5 32 31.5c5.4234 0 10.524-1.3437 15-3.6875l12 3.6875-2.9375-10.75c4.9357-5.5427 7.9375-12.8 7.9375-20.75 0-17.397-14.327-31.5-32-31.5zm0 1.0625c17.103 0 30.938 13.628 30.938 30.438 0 7.6804-2.9171 14.674-7.6875 20.031a1.0709 1.0709 0 0 0 -0.21875 1l2.4375 8.875-10.156-3.125a1.0709 1.0709 0 0 0 -0.8125 0.094c-4.3286 2.2667-9.2535 3.5625-14.5 3.5625-17.103 0-30.938-13.628-30.938-30.437s13.834-30.438 30.938-30.438zm-11.281 9.8438a1.0709 1.0709 0 0 0 -0.90625 0.9375l-0.84375 6.9375-3.5938-1.0625a1.0709 1.0709 0 0 0 -1.3438 1.25l0.71875 3.1875-6.7812-0.71875a1.0709 1.0709 0 0 0 -0.8125 1.875l5.4375 4.6562-3.5938 2.5625a1.0709 1.0709 0 0 0 0.34375 1.9062l4.25 1.1563-3 5.375a1.0709 1.0709 0 0 0 1.3438 1.5312l5.4062-2.1875 0.03125 4.0313v0.4375a1.0709 1.0709 0 0 0 1.8125 0.75c0.58138 3.1187 3.1882 5.5312 6.4688 5.5312h20.688c3.6996 0 6.7188-3.0191 6.7188-6.7187 0-3.3871-2.5806-6.0515-5.8438-6.5-0.46203-4.3074-3.9798-7.7188-8.4062-7.7188-0.54152 0-1.0473 0.12362-1.5625 0.21875l3.4062-2.4375a1.0709 1.0709 0 0 0 -0.59375 -1.9375l-6.0312-0.125 0.90625-3.0938a1.0709 1.0709 0 0 0 -1.1875 -1.375l-3.3438 0.5-0.40625-4.6875a1.0709 1.0709 0 0 0 -1.8125 -0.6875l-3.1562 3.0625-3.2188-6.0938a1.0709 1.0709 0 0 0 -1.0938 -0.5625zm0.15625 1.0625 3.875 7.375 4.1875-4.0625 0.5 5.8125 4.4688-0.65625-1.2812 4.4375 7.4062 0.15625-4.5 3.2188c-0.75931 0.30384-1.4504 0.72869-2.0938 1.2188 0.01114-0.19044 0.03125-0.36927 0.03125-0.5625 0-3.2187-1.5896-6.079-4.0312-7.8125-1.561-1.1083-3.4734-1.75-5.5312-1.75-3.2187 0-6.079 1.5896-7.8125 4.0312-1.1083 1.561-1.75 3.4734-1.75 5.5312 0 3.2167 1.5947 6.0811 4.0312 7.8125 0.56683 0.4027 1.194 0.7289 1.8438 1-1.1028 1.2265-1.7812 2.8409-1.7812 4.625 0 0.1401 0.02325 0.268 0.03125 0.4062l-0.03125 0.031v-0.4375l-0.0625-5.625-6.8438 2.7812 3.6562-6.5625-5.5625-1.5312 4.7188-3.3438-6.5-5.5625 8.25 0.875-1.0312-4.625 4.8125 1.4375 1-8.2188zm3.0312 8.9688c4.3972 0 7.9688 3.5716 7.9688 7.9688 0 0.93395-0.17281 1.8231-0.46875 2.6562-0.04344 0.0623-0.08301 0.12409-0.125 0.1875-0.57483-0.23345-1.1999-0.375-1.875-0.375-2.4608 0-4.4341 1.7554-5.0312 4.0313-1.0155 0.1911-1.9529 0.6006-2.7812 1.1562-3.2754-0.9898-5.6562-4.0603-5.6562-7.6562 0-4.3972 3.5716-7.9688 7.9688-7.9688zm14.906 8.25c4.1584 0 7.5312 3.3729 7.5312 7.5313 3.1188 0 5.6562 2.5062 5.6562 5.625 0 3.1187-2.5375 5.6562-5.6562 5.6562h-20.688c-3.1188 0-5.6562-2.5375-5.6562-5.6562 0-3.1188 2.5375-5.625 5.6562-5.625 0-2.0792 1.6708-3.7813 3.75-3.7813 0.93205 0 1.7488 0.3765 2.4062 0.9375 1.1139-2.7658 3.8355-4.6875 7-4.6875zm-6.125 1.0625a1.0709 1.0709 0 0 0 0.3125 0.1875c-0.14046 0.12896-0.27469 0.26823-0.40625 0.40625 0.04523-0.19477 0.06122-0.39381 0.09375-0.59375z" fill="#520"/>
   <path id="path3079" opacity=".3" style="color:#000000" d="m45.458 967.54c-17.673 0-32 14.103-32 31.5 0 0.16722-0.003 0.3334 0 0.5 0.27176-17.166 14.497-31 32-31 17.493 0 31.711 13.817 32 30.969 0.0024-0.15795 0-0.31025 0-0.46875 0-17.397-14.327-31.5-32-31.5zm-8.0938 19.344c-1.3907 0-2.7113 0.30971-3.9062 0.84375l-0.125 1-1.125-0.34375c-1.0435 0.66523-1.9418 1.5249-2.6562 2.5312-0.05672 0.0799-0.102 0.1683-0.15625 0.25l0.15625 0.75c1.7335-2.4416 4.5938-4.0312 7.8125-4.0312 2.0579 0 3.9702 0.6417 5.5312 1.75l-0.09375-1.0625c-1.093-0.75656-2.3599-1.2862-3.7188-1.5312l-0.875 0.84375-0.53125-1c-0.10618-0.003-0.2055 0-0.3125 0zm5.5312 2.75c2.313 1.6422 3.8433 4.301 4 7.3125 0.01136-0.16734 0.03125-0.32818 0.03125-0.5 0-1.0579-0.18277-2.0781-0.5-3.0312h-0.34375l0.15625-0.53125c-0.51934-1.2982-1.3139-2.4616-2.3125-3.4062l-1.0312 0.15625zm-13.344 2.2812-0.59375-0.0625c-0.74272 1.3623-1.1562 2.9343-1.1562 4.5938 0 0.0528-0.000855 0.10368 0 0.15625 0.0015 0.0952 0.02693 0.18674 0.03125 0.28125 0.1077-1.8384 0.71441-3.5542 1.7188-4.9688zm0-1-0.78125-3.5625-0.25-0.0625 0.8125 3.5938 0.21875 0.0313zm17.812-1.9375-0.3125 0.0313-0.96875 3.4062h0.28125l1-3.4375zm-26.062 2.0625 5.875 5 0.625-0.4375-5.1562-4.4062-1.3438-0.15625zm30.844 2.5-3.1562 2.25c-0.75931 0.30384-1.4504 0.72869-2.0938 1.2188 0.0067 0.14678 0.03125 0.28912 0.03125 0.4375 0 0.19323-0.02011 0.37206-0.03125 0.5625 0.64338-0.49006 1.3344-0.91491 2.0938-1.2188l4.5-3.2188-1.3438-0.0313zm-22.719 3.3438c-0.01317 0.18707-0.03125 0.37211-0.03125 0.5625 0 3.5959 2.3809 6.6664 5.6562 7.6562 0.82838-0.5556 1.7658-0.9651 2.7812-1.1562 0.59711-2.2759 2.5704-4.0313 5.0312-4.0313 0.67508 0 1.3002 0.14158 1.875 0.37498 0.04199-0.063 0.08156-0.1252 0.125-0.1875 0.29594-0.83313 0.46875-1.7223 0.46875-2.6562 0-0.17983-0.01949-0.35437-0.03125-0.53125-0.04771 0.76165-0.19206 1.4965-0.4375 2.1875-0.04344 0.0623-0.08301 0.12409-0.125 0.1875-0.57483-0.23345-1.1999-0.375-1.875-0.375-2.4608 0-4.4341 1.7554-5.0312 4.0313-1.0155 0.1911-1.9529 0.6006-2.7812 1.1562-3.1388-0.9485-5.4371-3.8174-5.625-7.2187zm-5.3125 2.3438-1.0312 0.71875 5.0938 1.4062 0.25-0.4687c-0.06226-0.1624-0.10269-0.3336-0.15625-0.5l-4.1562-1.1563zm6.875 5.375-5.2812 2.1563-0.71875 1.2812 6.8438-2.7812c-0.29256-0.2079-0.57677-0.4171-0.84375-0.6563zm2.125 1.375c-0.76676 1.1119-1.2188 2.4491-1.2188 3.9063 0 0.1187 0.02128 0.2288 0.03125 0.3437 0.14493-1.5209 0.78503-2.8955 1.75-3.9687-0.1974-0.082-0.37031-0.1882-0.5625-0.2813zm-1.1875 4.3125-0.03125 0.031v0.5625c0-0.2019 0.01425-0.3966 0.03125-0.5938zm-0.03125 0.5938v0.4375l0.03125-0.031c-0.008-0.1382-0.03125-0.2661-0.03125-0.4062zm1.5938-0.4375c-0.01179 0.1486-0.03125 0.2857-0.03125 0.4375 0 3.1187 2.5375 5.6562 5.6562 5.6562h20.688c3.1188 0 5.6562-2.5375 5.6562-5.6562 0-0.1518-0.01946-0.2889-0.03125-0.4375-0.2902 2.8485-2.7011 5.0937-5.625 5.0937h-20.688c-2.9239 0-5.3348-2.2452-5.625-5.0937zm36.25 10.094c-0.07252 0.083-0.14538 0.1676-0.21875 0.25l2.625 9.6563 0.3125 0.094-2.7188-10z" fill="#520"/>
  </g>
 </g>
</svg>
