<?xml version="1.0" encoding="UTF-8" standalone="no"?>
<!-- Created with Inkscape (http://www.inkscape.org/) -->
<svg id="svg2" xmlns:rdf="http://www.w3.org/1999/02/22-rdf-syntax-ns#" xmlns="http://www.w3.org/2000/svg" height="96" width="96" version="1.1" xmlns:cc="http://creativecommons.org/ns#" xmlns:xlink="http://www.w3.org/1999/xlink" xmlns:dc="http://purl.org/dc/elements/1.1/">
 <defs id="defs4">
  <linearGradient id="linearGradient3700-09">
   <stop id="stop3702-67" stop-color="#70a83e" offset="0"/>
   <stop id="stop3704-18" stop-color="#9fd058" offset="1"/>
  </linearGradient>
  <linearGradient id="linearGradient9745" y2="5.9877" xlink:href="#linearGradient3700-09" gradientUnits="userSpaceOnUse" x2="48" gradientTransform="translate(-169.06 968.2)" y1="90" x1="48"/>
  <linearGradient id="linearGradient3613-7" y2="138.66" gradientUnits="userSpaceOnUse" x2="48" y1="20.221" x1="48">
   <stop id="stop4103" stop-color="#ffac2d" offset="0"/>
   <stop id="stop4105" stop-color="#f57d00" stop-opacity="0" offset="1"/>
  </linearGradient>
  <clipPath id="clipPath3613-69">
   <rect id="rect3615-54" rx="6" ry="6" height="84" width="84" y="6" x="6" fill="#fff"/>
  </clipPath>
  <filter id="filter3794-43" height="1.384" width="1.384" color-interpolation-filters="sRGB" y="-.192" x="-.192">
   <feGaussianBlur id="feGaussianBlur3796-25" stdDeviation="5.28"/>
  </filter>
  <linearGradient id="linearGradient13446" y2="5.9877" gradientUnits="userSpaceOnUse" x2="48" gradientTransform="matrix(1.0691 0 0 1.0756 -3.7986 -3.8363)" y1="90" x1="48">
   <stop id="stop5343" stop-color="#6a2700" offset="0"/>
   <stop id="stop5345" stop-color="#c04700" offset="1"/>
  </linearGradient>
  <linearGradient id="linearGradient13467" y2="477.87" gradientUnits="userSpaceOnUse" x2="375.8" gradientTransform="matrix(.21272 0 0 .21526 -32.058 895.27)" y1="597.84" x1="373">
   <stop id="stop3800-64" stop-color="#ff9d60" offset="0"/>
   <stop id="stop3802-2" stop-color="#ffe1ba" offset="1"/>
  </linearGradient>
 </defs>
 <metadata id="metadata7">
  <rdf:RDF>
   <cc:Work rdf:about="">
    <dc:format>image/svg+xml</dc:format>
    <dc:type rdf:resource="http://purl.org/dc/dcmitype/StillImage"/>
    <dc:title/>
   </cc:Work>
  </rdf:RDF>
 </metadata>
 <g id="layer1" transform="translate(0 -956.36)">
  <g id="g5523">
   <rect id="rect5263-0" fill-opacity=".019608" ry="12.724" height="89.978" width="89.624" y="959.35" x="3.3534"/>
   <rect id="rect5261-6" fill-opacity=".039216" ry="12.552" height="88.762" width="88.413" y="959.96" x="3.9589"/>
   <rect id="rect5259-9" fill-opacity=".078431" ry="12.38" height="87.546" width="87.202" y="960.57" x="4.5645"/>
   <rect id="rect5257-5" fill-opacity=".15686" ry="12.208" height="86.33" width="85.991" y="961.18" x="5.1701"/>
  </g>
  <path id="rect2419-4" d="m17.75 5.4062c-6.642 0-11.969 5.3948-11.969 12.063l0.0002 61.031c0 6.668 5.3268 12.031 11.969 12.031h60.812c6.642 0 11.969-5.363 11.969-12.031v-61.031c0-6.668-5.327-12.063-11.969-12.063l-60.812 0.0002z" transform="translate(0 956.36)" fill="url(#linearGradient13446)"/>
  <path id="rect5265-0" d="m5.7756 1029.8v5.0663c0 6.668 5.3434 12.032 11.985 12.032h60.809c6.6418 0 11.985-5.3645 11.985-12.032v-5.0663c0 6.6681-5.3434 12.032-11.985 12.032h-60.809c-6.6418 0-11.985-5.3643-11.985-12.032z" fill-opacity=".23529"/>
  <path id="path5252-0" d="m5.7756 1033.9v1.0133c0 6.668 5.3434 12.032 11.985 12.032h60.809c6.6418 0 11.985-5.3645 11.985-12.032v-1.0133c0 6.6681-5.3434 12.032-11.985 12.032h-60.809c-6.6418 0-11.985-5.3644-11.985-12.032z" fill-opacity=".098039"/>
  <rect id="rect4772" display="none" height="107.79" width="107.79" y="971.68" x="-369.64" fill="none"/>
  <g id="g4788" display="none" transform="matrix(.21052 0 0 .21052 -369.68 971.63)"></g>
  <g id="g4806" display="none" transform="matrix(.21052 0 0 .21052 -369.68 971.63)">
   <g id="g4808" display="inline">
    <path id="path4810" d="m349.1 256.65c-0.265-0.254 37.637 27.605 39.421 25.012 6.362-9.252 82.046-93.137 84.784-116.24 0.242-2.003-0.516-4.096-0.516-4.096s-1.19-0.144-6.325-4.314c-2.692-2.192-5.483-4.581-5.483-4.581-16.054 0.998-57.885 41.559-111.06 103.57" fill="#050505" display="none"/>
   </g>
  </g>
  <g id="g4796" transform="matrix(.21052 0 0 .21052 -369.68 971.63)"></g>
  <rect id="rect3873" rx="6" ry="6" height="84" width="84" display="none" y="974.2" x="-163.06" fill="url(#linearGradient9745)"/>
  <rect id="rect3880" rx="6" ry="6" height="84" width="84" display="none" y="974.2" x="-163.06" fill="url(#linearGradient9745)"/>
  <g id="layer5" transform="translate(-.11789 954.43)">
   <rect id="rect3171-6" height="66" stroke="#fff" stroke-linecap="round" stroke-width=".5" fill="url(#linearGradient3613-7)" rx="12" ry="12" width="66" opacity=".2" clip-path="url(#clipPath3613-69)" filter="url(#filter3794-43)" y="15" x="15"/>
  </g>
  <path id="path4111" opacity=".3" style="block-progression:tb;text-indent:0;color:#000000;text-transform:none" d="m47.879 971.43c-5.7922 0-11.439 2.3756-15.535 6.5318-4.0965 4.1561-6.4614 9.9023-6.4614 15.781 0 5.8789 2.3649 11.618 6.4614 15.774 3.4707 3.5211 8.0543 5.7676 12.896 6.3703v1.0886h-7.9305v5.368h7.9305l1.6117 15.086h2.0614l1.6117-15.086h7.9305v-5.368h-7.9305v-1.0886c4.8497-0.6027 9.4588-2.8492 12.929-6.3703 4.0965-4.1561 6.4282-9.8956 6.4282-15.774 0-5.8788-2.3316-11.625-6.4282-15.781-4.0965-4.1561-9.783-6.5318-15.575-6.5318zm0 2.1165c4.3454 0 8.8741 1.74 11.826 4.9711 6.7415 7.3794 6.4619 19.882 0 27.233-2.8889 3.2864-7.4805 4.9644-11.826 4.9644-4.3361 0-8.7151-1.86-11.786-4.9644h-0.03325c-6.6216-7.4941-6.279-19.712 0-27.233 3.0718-3.1165 7.4739-4.9711 11.819-4.9711h0.000012z" fill="#f95"/>
  <path id="path4107" style="block-progression:tb;text-indent:0;color:#000000;text-transform:none" d="m47.879 969.43c-5.7922 0-11.439 2.3756-15.535 6.5318-4.0965 4.1561-6.4614 9.9023-6.4614 15.781 0 5.8788 2.3649 11.618 6.4614 15.774 3.4707 3.5211 8.0543 5.7676 12.896 6.3703v1.0886h-7.9305v5.368h7.9305l1.6117 15.086h2.0614l1.6117-15.086h7.9305v-5.368h-7.9305v-1.0886c4.8497-0.6027 9.4588-2.8492 12.929-6.3703 4.0965-4.1561 6.4282-9.8957 6.4282-15.774 0-5.8788-2.3316-11.625-6.4282-15.781-4.0965-4.1561-9.783-6.5318-15.575-6.5318zm0 2.1165c4.3454 0 8.8741 1.74 11.826 4.9711 6.7415 7.3794 6.4619 19.882 0 27.233-2.8889 3.2864-7.4805 4.9644-11.826 4.9644-4.3361 0-8.7151-1.86-11.786-4.9644h-0.03325c-6.6216-7.4941-6.279-19.712 0-27.233 3.0718-3.1165 7.4739-4.9711 11.819-4.9711h0.000012z" fill="#520"/>
  <path id="path3939" style="block-progression:tb;text-indent:0;color:#000000;text-transform:none" d="m47.879 970.43c-5.7922 0-11.439 2.3756-15.535 6.5318-4.0965 4.1561-6.4614 9.9023-6.4614 15.781 0 5.8788 2.3649 11.618 6.4614 15.774 3.4707 3.5211 8.0543 5.7676 12.896 6.3703v1.0886h-7.9305v5.368h7.9305l1.6117 15.086h2.0614l1.6117-15.086h7.9305v-5.368h-7.9305v-1.0886c4.8497-0.6027 9.4588-2.8492 12.929-6.3703 4.0965-4.1561 6.4282-9.8957 6.4282-15.774 0-5.8788-2.3316-11.625-6.4282-15.781-4.0965-4.1561-9.783-6.5318-15.575-6.5318zm0 2.1165c4.3454 0 8.8741 1.74 11.826 4.9711 6.7415 7.3794 6.4619 19.882 0 27.233-2.8889 3.2864-7.4805 4.9644-11.826 4.9644-4.3361 0-8.7151-1.86-11.786-4.9644h-0.03325c-6.6216-7.4941-6.279-19.712 0-27.233 3.0718-3.1165 7.4739-4.9711 11.819-4.9711h0.000012z" fill="url(#linearGradient13467)"/>
  <path id="path4115" opacity=".2" style="block-progression:tb;text-indent:0;color:#000000;text-transform:none" d="m47.882 970.43c-5.7922 0-11.435 2.3752-15.531 6.5312-4.0965 4.1561-6.4688 9.9024-6.4688 15.781 0 5.8788 2.3722 11.625 6.4688 15.781 3.4707 3.5211 8.0331 5.7723 12.875 6.375v1.0625h-7.9062v5.375h7.9062l1.625 15.094h2.0625l1.625-15.094h7.9062v-5.375h-7.9062v-1.0625c4.8497-0.6027 9.4356-2.8539 12.906-6.375 4.0965-4.1561 6.4375-9.9025 6.4375-15.781 0-5.8788-2.341-11.625-6.4375-15.781-4.0965-4.1561-9.7703-6.5312-15.562-6.5312zm0 1c5.5188 0 10.938 2.2558 14.844 6.2188 3.9067 3.9635 6.1562 9.4804 6.1562 15.094 0 5.6133-2.2495 11.13-6.1562 15.094-3.3111 3.3592-7.6886 5.4879-12.312 6.0625a1.0002 1.0002 0 0 0 -0.875 1v1.0625a1.0002 1.0002 0 0 0 1 1h6.9062v3.375h-6.9062a1.0002 1.0002 0 0 0 -1 0.9063l-1.5312 14.188h-0.25l-1.5312-14.188a1.0002 1.0002 0 0 0 -1 -0.9063h-6.9062v-3.375h6.9062a1.0002 1.0002 0 0 0 1 -1v-1.0625a1.0002 1.0002 0 0 0 -0.875 -1c-4.6154-0.5745-8.9686-2.7016-12.281-6.0625-3.9085-3.9653-6.1875-9.484-6.1875-15.094 0-5.6098 2.279-11.128 6.1875-15.094 3.908-3.9648 9.2937-6.2188 14.812-6.2188zm0 0.125c-4.6296 0-9.2637 1.9662-12.531 5.2812a1.0002 1.0002 0 0 0 -0.0625 0.0313c-6.6086 7.9159-6.9584 20.621 0.03125 28.531a1.0002 1.0002 0 0 0 0.0625 0.063 1.0002 1.0002 0 0 0 0.21875 0.1562c3.2513 3.1849 7.748 5.0938 12.281 5.0938 4.6035 0 9.4394-1.7597 12.562-5.3125 6.8233-7.7623 7.1298-20.758 0-28.563-3.1739-3.4743-7.9505-5.2812-12.562-5.2812zm0 1c4.3454 0 8.8607 1.7376 11.812 4.9688 6.7415 7.3794 6.4619 19.868 0 27.219-2.8889 3.2864-7.4671 4.9687-11.812 4.9687-4.3361 0-8.7103-1.8643-11.781-4.9687h-0.03125c-6.6216-7.4941-6.279-19.698 0-27.219 3.0718-3.1165 7.4671-4.9688 11.812-4.9688z" fill="#a14505"/>
 </g>
</svg>
