<?xml version="1.0" encoding="UTF-8" standalone="no"?>
<!-- Created with Inkscape (http://www.inkscape.org/) -->
<svg id="svg2" xmlns:rdf="http://www.w3.org/1999/02/22-rdf-syntax-ns#" xmlns="http://www.w3.org/2000/svg" height="96" width="96" version="1.1" xmlns:cc="http://creativecommons.org/ns#" xmlns:xlink="http://www.w3.org/1999/xlink" xmlns:dc="http://purl.org/dc/elements/1.1/">
 <defs id="defs4">
  <linearGradient id="linearGradient3700-09">
   <stop id="stop3702-67" stop-color="#70a83e" offset="0"/>
   <stop id="stop3704-18" stop-color="#9fd058" offset="1"/>
  </linearGradient>
  <linearGradient id="linearGradient9745" y2="5.9877" xlink:href="#linearGradient3700-09" gradientUnits="userSpaceOnUse" x2="48" gradientTransform="translate(-169.06 968.2)" y1="90" x1="48"/>
  <linearGradient id="ButtonShadow-0-59" y2="7.0165" gradientUnits="userSpaceOnUse" x2="45.448" gradientTransform="matrix(1.0059 0 0 .99417 100 0)" y1="92.54" x1="45.448">
   <stop id="stop3750-8-90" offset="0"/>
   <stop id="stop3752-5-60" stop-opacity=".58824" offset="1"/>
  </linearGradient>
  <linearGradient id="linearGradient3856-7">
   <stop id="stop3858" stop-color="#b3b3b3" offset="0"/>
   <stop id="stop3860" stop-color="#e6e6e6" offset="1"/>
  </linearGradient>
  <linearGradient id="linearGradient3914-8">
   <stop id="stop3916-9" offset="0"/>
   <stop id="stop3918-2" stop-opacity="0" offset="1"/>
  </linearGradient>
  <linearGradient id="linearGradient3873">
   <stop id="stop3875" stop-color="#dfdfdf" offset="0"/>
   <stop id="stop3877" stop-color="#fefefe" offset="1"/>
  </linearGradient>
  <linearGradient id="linearGradient5924" y2="16" xlink:href="#linearGradient3873" gradientUnits="userSpaceOnUse" x2="48" gradientTransform="matrix(1.0643 0 0 1.2929 -3.0006 949.06)" y1="80" x1="48"/>
  <radialGradient id="radialGradient5927" xlink:href="#linearGradient3914-8" gradientUnits="userSpaceOnUse" cy="47.999" cx="48" gradientTransform="matrix(1.4317 -5.021e-8 3.5175e-8 1.4802 -20.638 940.07)" r="34.938"/>
  <linearGradient id="linearGradient5940" y2="8" xlink:href="#linearGradient3856-7" gradientUnits="userSpaceOnUse" x2="32" gradientTransform="matrix(1.2012 0 0 1.4037 -9.5722 943.74)" y1="88" x1="32"/>
  <linearGradient id="linearGradient5956" y2="90" gradientUnits="userSpaceOnUse" x2="39" gradientTransform="matrix(1.0827 0 0 1.2114 -6.6075 953.1)" y1="6" x1="39">
   <stop id="stop10294" stop-color="#666" offset="0"/>
   <stop id="stop10296" stop-color="#333" offset="1"/>
  </linearGradient>
  <linearGradient id="linearGradient5959" y2="7" xlink:href="#ButtonShadow-0-59" gradientUnits="userSpaceOnUse" x2="49" gradientTransform="matrix(1.0827 0 0 1.2114 -6.6075 953.1)" y1="91" x1="49"/>
  <linearGradient id="linearGradient5962" y2="7" xlink:href="#ButtonShadow-0-59" gradientUnits="userSpaceOnUse" x2="50" gradientTransform="matrix(1.0827 0 0 1.2114 -6.6075 953.1)" y1="92" x1="50"/>
  <clipPath id="clipPath5988" clipPathUnits="userSpaceOnUse">
   <path id="path5990" d="m17.75 961.77c-6.6418 0-11.969 5.3946-11.969 12.062v61.031c0 6.668 5.327 12.031 11.969 12.031h60.812c6.6418 0 11.969-5.3633 11.969-12.031v-61.031c0-6.6679-5.327-12.062-11.969-12.062h-60.812z" fill="#ececec"/>
  </clipPath>
 </defs>
 <metadata id="metadata7">
  <rdf:RDF>
   <cc:Work rdf:about="">
    <dc:format>image/svg+xml</dc:format>
    <dc:type rdf:resource="http://purl.org/dc/dcmitype/StillImage"/>
    <dc:title/>
   </cc:Work>
  </rdf:RDF>
 </metadata>
 <g id="layer1" transform="translate(0 -956.36)">
  <g id="g5523">
   <rect id="rect5263-0" fill-opacity=".019608" ry="12.724" height="89.978" width="89.624" y="959.35" x="3.3534"/>
   <rect id="rect5261-6" fill-opacity=".039216" ry="12.552" height="88.762" width="88.413" y="959.96" x="3.9589"/>
   <rect id="rect5259-9" fill-opacity=".078431" ry="12.38" height="87.546" width="87.202" y="960.57" x="4.5645"/>
   <rect id="rect5257-5" fill-opacity=".15686" ry="12.208" height="86.33" width="85.991" y="961.18" x="5.1701"/>
  </g>
  <path id="rect3772" d="m17.75 961.77c-6.6418 0-11.969 5.3946-11.969 12.062v61.031c0 6.668 5.327 12.031 11.969 12.031h60.812c6.6418 0 11.969-5.3633 11.969-12.031v-61.031c0-6.6679-5.327-12.062-11.969-12.062h-60.812z" fill="#ececec"/>
  <rect id="rect4772" display="none" height="107.79" width="107.79" y="971.68" x="-369.64" fill="none"/>
  <g id="g4788" display="none" transform="matrix(.21052 0 0 .21052 -369.68 971.63)"></g>
  <g id="g4806" display="none" transform="matrix(.21052 0 0 .21052 -369.68 971.63)">
   <g id="g4808" display="inline">
    <path id="path4810" d="m349.1 256.65c-0.265-0.254 37.637 27.605 39.421 25.012 6.362-9.252 82.046-93.137 84.784-116.24 0.242-2.003-0.516-4.096-0.516-4.096s-1.19-0.144-6.325-4.314c-2.692-2.192-5.483-4.581-5.483-4.581-16.054 0.998-57.885 41.559-111.06 103.57" fill="#050505" display="none"/>
   </g>
  </g>
  <g id="g4796" transform="matrix(.21052 0 0 .21052 -369.68 971.63)"></g>
  <rect id="rect3873" rx="6" ry="6" height="84" width="84" display="none" y="974.2" x="-163.06" fill="url(#linearGradient9745)"/>
  <rect id="rect3880" rx="6" ry="6" height="84" width="84" display="none" y="974.2" x="-163.06" fill="url(#linearGradient9745)"/>
  <g id="g5964" clip-path="url(#clipPath5988)">
   <path id="path3883" opacity=".3" d="m66.778 961.58c-1.715 0.14764-1.7964 2.7991-0.38869 3.5708 7.7568 8.5094 15.401 17.172 23.228 25.586 1.5143 0.90521 2.7536-1.137 2.2991-2.6931-0.10263-6.5584 0.21227-13.154-0.16917-19.687-0.6849-4.5975-5.0023-7.4079-8.9806-6.7764h-15.989z" fill="url(#linearGradient5962)"/>
   <path id="path3873" opacity=".45" d="m66.27 961.58a1.5265 1.708 0 0 0 -0.91351 2.915l22.872 25.592a1.5265 1.708 0 0 0 2.6052 -1.0979 1.5265 1.708 0 0 0 0 -0.11349v-15.181-4.505-0.34072c0-4.0268-2.8972-7.2686-6.496-7.2686h-18.067z" fill="url(#linearGradient5959)"/>
   <path id="path3054" d="m66.27 960.37a1.5265 1.708 0 0 0 -0.91351 2.915l22.872 25.592a1.5265 1.708 0 0 0 2.6052 -1.0979 1.5265 1.708 0 0 0 0 -0.11349v-15.181-4.505-0.3407c0-4.0268-2.8972-7.2686-6.496-7.2686h-18.067z" fill="url(#linearGradient5956)"/>
   <path id="path3881" opacity=".2" d="m66.27 960.37a1.5265 1.708 0 0 0 -1.218 2.42h17.12 2.1654c3.0118 0 5.4134 2.6871 5.4134 6.0572v2.4229 18.02a1.5265 1.708 0 0 0 1.0827 -1.3629 1.5265 1.708 0 0 0 0 -0.15143 1.5265 1.708 0 0 0 0 -0.11349v-15.181-2.4229-2.0822-0.3407c0-4.0268-2.8972-7.2686-6.496-7.2686h-18.067z"/>
   <path id="path3846" d="m7.2441 960.63c-1.3885 0-2.3648 1.141-2.3648 2.7636v12.633 46.323 23.863 11.625 1.0089c0 1.5128 0.8619 2.5785 2.102 2.7196 0.09 0.012 0.16882 0.044 0.26275 0.044h6.0058 69.668 6.0058c0.0868 0 0.17933-0.012 0.26275-0.044 1.2401-0.1411 2.102-1.2068 2.102-2.7196v-1.0089-11.625-23.863-22.547c-11.191-13-22.348-26.07-33.521-39.13h-49.661-0.86334z" fill="url(#linearGradient5940)"/>
   <path id="path3910" opacity=".6" d="m16.056 971.12c-0.48951 0.0556-0.90382 0.61486-0.89797 1.2121v11.636 54.301 11.636c-0.004 0.636 0.47425 1.2169 0.99774 1.2121h5.3213 58.534c0.52349 0 1.0017-0.5761 0.99774-1.2121v-11.636-35.433c-0.003-0.3158-0.11308-0.6281-0.29932-0.8484l-25.11-30.52c-0.18136-0.22624-0.43848-0.3601-0.69842-0.36362h-38.746c-0.0332-0.002-0.0665-0.002-0.0998 0z" fill="url(#radialGradient5927)"/>
   <path id="path3868" d="m16.156 972.33v11.636 54.301 11.636h5.3213 58.534v-11.636-35.433l-25.11-30.504z" fill="url(#linearGradient5924)"/>
   <path id="path3882" opacity=".7" d="m16.156 972.33v11.636 54.301 11.636h5.3213 58.534v-11.636-35.433l-25.11-30.504zm1.0642 1.2929h37.282l24.445 29.696v34.948 10.343h-57.47-4.257v-10.343-54.301z" fill="#fff"/>
   <path id="path3952" opacity=".1" d="m7.2441 960.63c-1.3885 0-2.3648 1.141-2.3648 2.7636v12.633 46.323 23.863 11.625 1.0089c0 1.5128 0.8619 2.5785 2.102 2.7196 0.09 0.012 0.16882 0.044 0.26275 0.044h6.0058 69.668 6.0058c0.0868 0 0.17933-0.012 0.26275-0.044 1.2401-0.1411 2.102-1.2068 2.102-2.7196v-1.0089-11.625-23.863-22.547c-11.191-13-22.348-26.07-33.521-39.13h-49.661-0.86334zm0 1.3598h0.86334 49.173c10.947 12.794 21.879 25.605 32.844 38.383v21.977 23.863 11.625 1.0089c0 0.9101-0.32077 1.2768-1.051 1.3599a1.1619 1.3578 0 0 0 -0.15014 0.044h-6.0058-69.668-6.0058c0.1433 0 0.11877-0.013-0.15015-0.044-0.73025-0.083-1.051-0.4498-1.051-1.3599v-1.0089-11.625-23.863-46.323-12.633c0-0.98613 0.35734-1.4037 1.2012-1.4037z"/>
   <path id="path3851-1" opacity=".2" d="m7.2441 960.63c-1.3885 0-2.3648 1.141-2.3648 2.7636v1.4037c0-1.6226 0.97634-2.7636 2.3648-2.7636h0.86334 49.661c11.173 13.057 22.33 26.134 33.52 39.173v-1.4038c-11.19-13.04-22.347-26.11-33.52-39.17h-49.661-0.86334z"/>
   <path id="path3982" d="m7.2441 960.63c-1.3885 0-2.3648 1.141-2.3648 2.7636v12.633 46.323 23.863 11.625 1.0089c0 1.5128 0.8619 2.5785 2.102 2.7196 0.09 0.012 0.16882 0.044 0.26275 0.044h6.0058 69.668 6.0058c0.0868 0 0.17933-0.012 0.26275-0.044 1.2401-0.1411 2.102-1.2068 2.102-2.7196v-1.0089-11.625-23.863-22.547c-11.191-13-22.348-26.07-33.521-39.13h-49.661-0.86334z" fill="url(#linearGradient5940)"/>
   <path id="path3984" opacity=".6" d="m16.056 971.12c-0.48951 0.0556-0.90382 0.61486-0.89797 1.2121v11.636 54.301 11.636c-0.004 0.636 0.47425 1.2169 0.99774 1.2121h5.3213 58.534c0.52349 0 1.0017-0.5761 0.99774-1.2121v-11.636-35.433c-0.003-0.3158-0.11308-0.6281-0.29932-0.8484l-25.11-30.52c-0.18136-0.22624-0.43848-0.3601-0.69842-0.36362h-38.746c-0.0332-0.002-0.0665-0.002-0.0998 0z" fill="url(#radialGradient5927)"/>
   <path id="path3986" d="m16.156 972.33v11.636 54.301 11.636h5.3213 58.534v-11.636-35.433l-25.11-30.504z" fill="url(#linearGradient5924)"/>
   <path id="path3988" opacity=".7" d="m16.156 972.33v11.636 54.301 11.636h5.3213 58.534v-11.636-35.433l-25.11-30.504zm1.0642 1.2929h37.282l24.445 29.696v34.948 10.343h-57.47-4.257v-10.343-54.301z" fill="#fff"/>
   <path id="path3990" opacity=".1" d="m7.2441 960.63c-1.3885 0-2.3648 1.141-2.3648 2.7636v12.633 46.323 23.863 11.625 1.0089c0 1.5128 0.8619 2.5785 2.102 2.7196 0.09 0.012 0.16882 0.044 0.26275 0.044h6.0058 69.668 6.0058c0.0868 0 0.17933-0.012 0.26275-0.044 1.2401-0.1411 2.102-1.2068 2.102-2.7196v-1.0089-11.625-23.863-22.547c-11.191-13-22.348-26.07-33.521-39.13h-49.661-0.86334zm0 1.3598h0.86334 49.173c10.947 12.794 21.879 25.605 32.844 38.383v21.977 23.863 11.625 1.0089c0 0.9101-0.32077 1.2768-1.051 1.3599a1.1619 1.3578 0 0 0 -0.15014 0.044h-6.0058-69.668-6.0058c0.1433 0 0.11877-0.013-0.15015-0.044-0.73025-0.083-1.051-0.4498-1.051-1.3599v-1.0089-11.625-23.863-46.323-12.633c0-0.98613 0.35734-1.4037 1.2012-1.4037z"/>
   <path id="path3992" opacity=".2" d="m7.2441 960.63c-1.3885 0-2.3648 1.141-2.3648 2.7636v1.4037c0-1.6226 0.97634-2.7636 2.3648-2.7636h0.86334 49.661c11.173 13.057 22.33 26.134 33.52 39.173v-1.4038c-11.19-13.04-22.347-26.11-33.52-39.17h-49.661-0.86334z"/>
   <path id="path3994" d="m7.2441 960.63c-1.3885 0-2.3648 1.141-2.3648 2.7636v12.633 46.323 23.863 11.625 1.0089c0 1.5128 0.8619 2.5785 2.102 2.7196 0.09 0.012 0.16882 0.044 0.26275 0.044h6.0058 69.668 6.0058c0.0868 0 0.17933-0.012 0.26275-0.044 1.2401-0.1411 2.102-1.2068 2.102-2.7196v-1.0089-11.625-23.863-22.547c-11.191-13-22.348-26.07-33.521-39.13h-49.661-0.86334z" fill="#606060"/>
   <path id="path3996" opacity=".6" d="m16.056 971.12c-0.48951 0.0556-0.90382 0.61486-0.89797 1.2121v11.636 54.301 11.636c-0.004 0.636 0.47425 1.2169 0.99774 1.2121h5.3213 58.534c0.52349 0 1.0017-0.5761 0.99774-1.2121v-11.636-35.433c-0.003-0.3158-0.11308-0.6281-0.29932-0.8484l-25.11-30.52c-0.18136-0.22624-0.43848-0.3601-0.69842-0.36362h-38.746c-0.0332-0.002-0.0665-0.002-0.0998 0z" fill="url(#radialGradient5927)"/>
   <path id="path3998" d="m16.156 972.33v11.636 54.301 11.636h5.3213 58.534v-11.636-35.433l-25.11-30.504z" fill="url(#linearGradient5924)"/>
   <path id="path4000" opacity=".7" d="m16.156 972.33v11.636 54.301 11.636h5.3213 58.534v-11.636-35.433l-25.11-30.504zm1.0642 1.2929h37.282l24.445 29.696v34.948 10.343h-57.47-4.257v-10.343-54.301z" fill="#fff"/>
   <path id="path4002" opacity=".1" d="m7.2441 960.63c-1.3885 0-2.3648 1.141-2.3648 2.7636v12.633 46.323 23.863 11.625 1.0089c0 1.5128 0.8619 2.5785 2.102 2.7196 0.09 0.012 0.16882 0.044 0.26275 0.044h6.0058 69.668 6.0058c0.0868 0 0.17933-0.012 0.26275-0.044 1.2401-0.1411 2.102-1.2068 2.102-2.7196v-1.0089-11.625-23.863-22.547c-11.191-13-22.348-26.07-33.521-39.13h-49.661-0.86334zm0 1.3598h0.86334 49.173c10.947 12.794 21.879 25.605 32.844 38.383v21.977 23.863 11.625 1.0089c0 0.9101-0.32077 1.2768-1.051 1.3599a1.1619 1.3578 0 0 0 -0.15014 0.044h-6.0058-69.668-6.0058c0.1433 0 0.11877-0.013-0.15015-0.044-0.73025-0.083-1.051-0.4498-1.051-1.3599v-1.0089-11.625-23.863-46.323-12.633c0-0.98613 0.35734-1.4037 1.2012-1.4037z"/>
   <path id="path4004" opacity=".2" d="m7.2441 960.63c-1.3885 0-2.3648 1.141-2.3648 2.7636v1.4037c0-1.6226 0.97634-2.7636 2.3648-2.7636h0.86334 49.661c11.173 13.057 22.33 26.134 33.52 39.173v-1.4038c-11.19-13.04-22.347-26.11-33.52-39.17h-49.661-0.86334z"/>
  </g>
  <path id="rect5265-0" d="m5.7756 1029.8v5.0663c0 6.668 5.3434 12.032 11.985 12.032h60.809c6.6418 0 11.985-5.3645 11.985-12.032v-5.0663c0 6.6681-5.3434 12.032-11.985 12.032h-60.809c-6.6418 0-11.985-5.3643-11.985-12.032z" fill-opacity=".23529"/>
  <path id="path5252-0" d="m5.7756 1033.9v1.0133c0 6.668 5.3434 12.032 11.985 12.032h60.809c6.6418 0 11.985-5.3645 11.985-12.032v-1.0133c0 6.6681-5.3434 12.032-11.985 12.032h-60.809c-6.6418 0-11.985-5.3644-11.985-12.032z" fill-opacity=".098039"/>
 </g>
</svg>
