<?xml version="1.0" encoding="UTF-8" standalone="no"?>
<!-- Created with Inkscape (http://www.inkscape.org/) -->
<svg id="svg2" xmlns:rdf="http://www.w3.org/1999/02/22-rdf-syntax-ns#" xmlns="http://www.w3.org/2000/svg" height="96" width="96" version="1.1" xmlns:cc="http://creativecommons.org/ns#" xmlns:xlink="http://www.w3.org/1999/xlink" xmlns:dc="http://purl.org/dc/elements/1.1/">
 <defs id="defs4">
  <linearGradient id="linearGradient3700-09">
   <stop id="stop3702-67" stop-color="#70a83e" offset="0"/>
   <stop id="stop3704-18" stop-color="#9fd058" offset="1"/>
  </linearGradient>
  <linearGradient id="linearGradient9745" y2="5.9877" xlink:href="#linearGradient3700-09" gradientUnits="userSpaceOnUse" x2="48" gradientTransform="translate(-169.06 968.2)" y1="90" x1="48"/>
  <filter id="filter3174" color-interpolation-filters="sRGB">
   <feGaussianBlur id="feGaussianBlur3176" stdDeviation="1.71"/>
  </filter>
  <linearGradient id="linearGradient3700-28">
   <stop id="stop3702-0" stop-color="#ebebeb" offset="0"/>
   <stop id="stop3704-98" stop-color="#fafafa" offset="1"/>
  </linearGradient>
  <linearGradient id="ButtonShadow-5" x1="45.448" gradientUnits="userSpaceOnUse" y1="92.54" gradientTransform="scale(1.0059 .99417)" x2="45.448" y2="7.0165">
   <stop id="stop3750-1" offset="0"/>
   <stop id="stop3752-6" stop-opacity=".58824" offset="1"/>
  </linearGradient>
  <linearGradient id="linearGradient15820" y2="5.9877" xlink:href="#linearGradient3700-28" gradientUnits="userSpaceOnUse" x2="48" gradientTransform="matrix(1.7695 0 0 1.0789 -51.849 -4.0494)" y1="90" x1="48"/>
  <clipPath id="clipPath5556">
   <path id="path5558" d="m139.68 2.9904c-4.5114 0-8.1709 3.4413-8.5275 7.8578 3.528 0.02442 6.3844 2.8954 6.3844 6.4291 0 3.5489-2.8802 6.4291-6.4291 6.4291v10.001c3.5488 0 6.4291 2.8802 6.4291 6.4291s-2.8802 6.4291-6.4291 6.4291v10.001c3.5488 0 6.4291 2.8802 6.4291 6.4291s-2.8802 6.4291-6.4291 6.4291v10.001c3.5488 0 6.4291 2.8802 6.4291 6.4291s-2.8802 6.4291-6.4291 6.4291v10.001c3.5488-0.00001 6.4291 2.8802 6.4291 6.4291 0 3.5337-2.8564 6.4047-6.3844 6.4291 0.35653 4.4165 4.0161 7.8578 8.5275 7.8578 0-3.5489 2.8802-6.4291 6.4291-6.4291 3.5488 0 6.4291 2.8802 6.4291 6.4291h10.001c0-3.5489 2.8802-6.4291 6.4291-6.4291s6.4291 2.8802 6.4291 6.4291h10.001c0-3.5489 2.8802-6.4291 6.4291-6.4291s6.4291 2.8802 6.4291 6.4291h10.001c0-3.5489 2.8802-6.4291 6.4291-6.4291 3.5488 0 6.4291 2.8802 6.4291 6.4291h10.001c-0.00001-3.5489 2.8802-6.4291 6.4291-6.4291 3.5034 0 6.3567 2.809 6.4291 6.2952 3.8411-0.63593 6.7806-3.7817 7.0988-7.7238-3.528-0.0244-6.3844-2.8954-6.3844-6.4291 0-3.5489 2.8802-6.4291 6.4291-6.4291v-10.001c-3.5489 0.000002-6.4291-2.8802-6.4291-6.4291s2.8802-6.4291 6.4291-6.4291v-10.001c-3.5489 0.000001-6.4291-2.8802-6.4291-6.4291s2.8802-6.4291 6.4291-6.4291v-10.001c-3.5489 0.000002-6.4291-2.8802-6.4291-6.4291s2.8802-6.4291 6.4291-6.4291v-10.001c-3.5489 0.000001-6.4291-2.8802-6.4291-6.4291 0-3.5337 2.8564-6.4047 6.3844-6.4291-0.31823-3.9421-3.2577-7.0879-7.0988-7.7238-0.0724 3.4862-2.9256 6.2951-6.4291 6.2951-3.5489 0-6.4291-2.8802-6.4291-6.4291h-10.001c0.00001 3.5489-2.8802 6.4291-6.4291 6.4291s-6.4291-2.8802-6.4291-6.4291h-10.001c0 3.5489-2.8802 6.4291-6.4291 6.4291-3.5488 0-6.4291-2.8802-6.4291-6.4291h-10.001c0 3.5489-2.8802 6.4291-6.4291 6.4291s-6.4291-2.8802-6.4291-6.4291h-10.001c0 3.5489-2.8802 6.4291-6.4291 6.4291s-6.4291-2.8802-6.4291-6.4291z" fill="#f0f"/>
  </clipPath>
  <clipPath id="clipPath4728-2">
   <path id="path4730-8" style="color:#000000" d="m168 16a24 8 0 1 1 -48 0 24 8 0 1 1 48 0z" fill="#f0f"/>
  </clipPath>
  <linearGradient id="linearGradient4272-8">
   <stop id="stop4274-0" stop-color="#ffecad" offset="0"/>
   <stop id="stop4276-7" stop-color="#ffecad" stop-opacity="0" offset="1"/>
  </linearGradient>
  <linearGradient id="linearGradient4648-2">
   <stop id="stop4650-4" stop-color="#f7d997" offset="0"/>
   <stop id="stop4652-7" stop-color="#ffce5a" offset=".37649"/>
   <stop id="stop4654-0" stop-color="#bc8711" offset=".72869"/>
   <stop id="stop4656-8" stop-color="#6e3600" offset="1"/>
  </linearGradient>
  <clipPath id="clipPath4146">
   <rect id="rect4148" height="64" width="64" y="26" x="16" fill="#f0f"/>
  </clipPath>
  <linearGradient id="linearGradient3814-9">
   <stop id="stop3816-9" stop-color="#fff" offset="0"/>
   <stop id="stop3818-8" stop-color="#fff" stop-opacity="0" offset="1"/>
  </linearGradient>
  <filter id="filter3174-2" color-interpolation-filters="sRGB">
   <feGaussianBlur id="feGaussianBlur3176-2" stdDeviation="1.71"/>
  </filter>
  <clipPath id="clipPath3613-37">
   <rect id="rect3615-64" rx="6" ry="6" height="84" width="84" y="6" x="6" fill="#fff"/>
  </clipPath>
  <filter id="filter3794-75" height="1.384" width="1.384" color-interpolation-filters="sRGB" y="-.192" x="-.192">
   <feGaussianBlur id="feGaussianBlur3796-97" stdDeviation="5.28"/>
  </filter>
  <linearGradient id="linearGradient20114" y2="7.2913" xlink:href="#ButtonShadow-5" gradientUnits="userSpaceOnUse" x2="40.716" gradientTransform="matrix(1.0238 0 0 1.0119 -1.1429 -.083333)" y1="91.151" x1="40.716"/>
  <linearGradient id="linearGradient20118" y2="7.2913" xlink:href="#ButtonShadow-5" gradientUnits="userSpaceOnUse" x2="40.716" y1="91.151" x1="40.716"/>
  <linearGradient id="linearGradient20120" y2="7.2913" xlink:href="#ButtonShadow-5" gradientUnits="userSpaceOnUse" x2="40.716" gradientTransform="matrix(1.0238 0 0 1.0119 -1.1429 -.083333)" y1="91.151" x1="40.716"/>
  <linearGradient id="linearGradient20124" y2="5.9877" gradientUnits="userSpaceOnUse" x2="48" y1="90" x1="48">
   <stop id="stop3189-4-59" stop-color="#dcdcdc" offset="0"/>
   <stop id="stop3191-0-2" stop-color="#f5f5f5" offset="1"/>
  </linearGradient>
  <linearGradient id="linearGradient20126" y2="74.093" xlink:href="#linearGradient3814-9" gradientUnits="userSpaceOnUse" x2="31.714" y1="6" x1="31.714"/>
  <radialGradient id="radialGradient20128" xlink:href="#linearGradient3814-9" gradientUnits="userSpaceOnUse" cy="89.689" cx="47.967" gradientTransform="matrix(1.3341 0 0 .95759 -16.026 2.1113)" r="42"/>
  <linearGradient id="linearGradient20130" y2="16" xlink:href="#linearGradient3814-9" gradientUnits="userSpaceOnUse" x2="48" y1="80" x1="48"/>
  <linearGradient id="linearGradient20132" y2="16.641" gradientUnits="userSpaceOnUse" x2="47.727" y1="78.923" x1="47.727">
   <stop id="stop4165" stop-color="#4d81cf" offset="0"/>
   <stop id="stop4167" stop-color="#9cb8e4" offset="1"/>
  </linearGradient>
  <linearGradient id="linearGradient20134" y2="29.471" xlink:href="#linearGradient3814-9" gradientUnits="userSpaceOnUse" x2="44.586" gradientTransform="matrix(-.96032 .27889 .27889 .96032 111.44 15.295)" y1="13.056" x1="39.819"/>
  <linearGradient id="linearGradient20136" y2="80.751" xlink:href="#linearGradient3814-9" gradientUnits="userSpaceOnUse" x2="35.98" gradientTransform="translate(-10,-3)" y1="59.202" x1="35.838"/>
  <linearGradient id="linearGradient20138" y2="48.086" xlink:href="#linearGradient3814-9" gradientUnits="userSpaceOnUse" x2="45.967" gradientTransform="translate(44.277 16.233)" y1="28.946" x1="45.967"/>
  <linearGradient id="linearGradient20140" y2="56.865" xlink:href="#linearGradient3814-9" gradientUnits="userSpaceOnUse" x2="76.758" gradientTransform="matrix(-1 0 0 1 80.942 38.325)" y1="27.41" x1="76.758"/>
  <linearGradient id="linearGradient20142" y2="76.55" gradientUnits="userSpaceOnUse" x2="75.918" gradientTransform="matrix(-1 0 0 1 85.594 12)" y1="63.139" x1="75.918">
   <stop id="stop3864-9" stop-color="#fff" offset="0"/>
   <stop id="stop3866-2" stop-color="#fff" stop-opacity="0" offset="1"/>
  </linearGradient>
  <linearGradient id="linearGradient20144" y2="87.446" xlink:href="#linearGradient3814-9" gradientUnits="userSpaceOnUse" x2="35.838" gradientTransform="matrix(-1 0 0 1 113.91 7)" y1="59.202" x1="35.838"/>
  <linearGradient id="linearGradient20146" y2="48.086" xlink:href="#linearGradient3814-9" gradientUnits="userSpaceOnUse" x2="45.967" gradientTransform="translate(54.277 38.233)" y1="28.946" x1="45.967"/>
  <linearGradient id="linearGradient20148" y2="138.66" gradientUnits="userSpaceOnUse" x2="48" y1="20.221" x1="48">
   <stop id="stop3739-8" stop-color="#fff" offset="0"/>
   <stop id="stop3741-71" stop-color="#fff" stop-opacity="0" offset="1"/>
  </linearGradient>
  <radialGradient id="radialGradient20150" xlink:href="#linearGradient4648-2" gradientUnits="userSpaceOnUse" cy="-26" cx="143" gradientTransform="matrix(.79196 .43946 -.44712 .80578 81.501 901.11)" r="4"/>
  <linearGradient id="linearGradient20152" y2="-3.697" gradientUnits="userSpaceOnUse" x2="162.55" gradientTransform="matrix(.75777 .4375 -.4375 .75777 86.64 900.14)" y1="-4" x1="120">
   <stop id="stop4482-6" stop-color="#f0bc47" offset="0"/>
   <stop id="stop4484-0" stop-color="#ffce5a" offset=".55791"/>
   <stop id="stop4486-9" stop-color="#bc8711" offset=".72869"/>
   <stop id="stop4488-7" stop-color="#6e3600" offset="1"/>
  </linearGradient>
  <linearGradient id="linearGradient20154" y2="10.863" gradientUnits="userSpaceOnUse" x2="167.39" gradientTransform="matrix(.75777 .4375 -.4375 .75777 86.64 900.14)" y1="-23.074" x1="148.41">
   <stop id="stop4351-1" stop-color="#f0bd48" offset="0"/>
   <stop id="stop4353-0" stop-color="#f0bd48" stop-opacity="0" offset="1"/>
  </linearGradient>
  <linearGradient id="linearGradient20156" y2="-19.957" gradientUnits="userSpaceOnUse" x2="145.96" gradientTransform="matrix(.75777 .4375 -.4375 .75777 86.64 900.14)" y1="-23.998" x1="145.96">
   <stop id="stop4317-0" stop-color="#6a3200" offset="0"/>
   <stop id="stop4319-3" stop-color="#6a3200" stop-opacity="0" offset="1"/>
  </linearGradient>
  <linearGradient id="linearGradient20158" y2="5.2299" spreadMethod="reflect" gradientUnits="userSpaceOnUse" x2="163.23" gradientTransform="matrix(.75777 .4375 -.4375 .75777 87.081 898.88)" y1="5.4448" x1="125.41">
   <stop id="stop4516-8" stop-color="#a06a00" offset="0"/>
   <stop id="stop4522-7" stop-color="#cb971f" offset=".14430"/>
   <stop id="stop4524-2" stop-color="#733d00" offset=".15945"/>
   <stop id="stop4526-2" stop-color="#9a6000" offset=".46827"/>
   <stop id="stop4552-4" stop-color="#d7a32b" offset=".47961"/>
   <stop id="stop4528-3" stop-color="#d8a42c" offset=".47962"/>
   <stop id="stop4530-2" stop-color="#5a2900" offset=".83766"/>
   <stop id="stop4540-3" stop-color="#0f0000" offset=".84914"/>
   <stop id="stop4518-9" stop-color="#0d0000" offset="1"/>
  </linearGradient>
  <radialGradient id="radialGradient20160" xlink:href="#linearGradient4272-8" gradientUnits="userSpaceOnUse" cy="-21.111" cx="144.08" gradientTransform="matrix(.75706 .43873 -.11545 .19923 81.902 909.08)" r="4.7976"/>
  <linearGradient id="linearGradient20162" y2="5.3016" gradientUnits="userSpaceOnUse" x2="157.64" gradientTransform="matrix(.75777 .4375 -.4375 .75777 87.085 898.87)" y1="5.7314" x1="130.57">
   <stop id="stop4546-3" stop-color="#eecb7b" stop-opacity="0" offset="0"/>
   <stop id="stop4560-9" stop-color="#eec243" stop-opacity=".51181" offset=".22882"/>
   <stop id="stop4548-0" stop-color="#efd17e" offset=".45764"/>
   <stop id="stop4556-0" stop-color="#ffffc4" offset=".47079"/>
   <stop id="stop4550-7" stop-color="#ffffd4" stop-opacity="0" offset="1"/>
  </linearGradient>
  <linearGradient id="linearGradient20164" y2="30.353" gradientUnits="userSpaceOnUse" x2="116.76" gradientTransform="matrix(.75777 .4375 -.4375 .75777 86.64 900.14)" y1="-23.48" x1="139.7">
   <stop id="stop4334-3" stop-color="#7c4400" offset="0"/>
   <stop id="stop4336-0" stop-color="#7c4400" stop-opacity="0" offset="1"/>
  </linearGradient>
  <linearGradient id="linearGradient20166" y2="16" gradientUnits="userSpaceOnUse" x2="168" gradientTransform="matrix(.75777 .4375 -.4375 .75777 86.64 900.14)" y1="16" x1="120">
   <stop id="stop4584-8" stop-color="#421900" offset="0"/>
   <stop id="stop4586-7" stop-color="#c4901a" offset="1"/>
  </linearGradient>
  <linearGradient id="linearGradient20168" y2="11.391" gradientUnits="userSpaceOnUse" x2="167.88" gradientTransform="matrix(.75777 .4375 -.4375 .75777 86.64 900.14)" y1="11.391" x1="79.825">
   <stop id="stop4576-1" stop-color="#fea" offset="0"/>
   <stop id="stop4578-1" stop-color="#fea" stop-opacity="0" offset="1"/>
  </linearGradient>
  <linearGradient id="linearGradient20170" y2="16" gradientUnits="userSpaceOnUse" x2="168" gradientTransform="matrix(.62702 .36201 -.38889 .67358 107.41 907.64)" y1="16" x1="120">
   <stop id="stop4404-9" stop-color="#371100" offset="0"/>
   <stop id="stop4406-2" stop-color="#371100" stop-opacity=".37008" offset="1"/>
  </linearGradient>
  <linearGradient id="linearGradient20172" y2="7.1486" gradientUnits="userSpaceOnUse" x2="152.19" gradientTransform="matrix(.75777 .4375 -.4375 .75777 86.64 900.14)" y1="23.548" x1="152.19">
   <stop id="stop4609-5" stop-color="#ffce5a" offset="0"/>
   <stop id="stop4611-3" stop-color="#a8730d" offset="1"/>
  </linearGradient>
  <radialGradient id="radialGradient20174" gradientUnits="userSpaceOnUse" cy="37.21" cx="152.79" gradientTransform="matrix(.59628 .24699 -.11162 .26946 105.37 936.7)" r="24">
   <stop id="stop3864-9-2" stop-color="#fff" offset="0"/>
   <stop id="stop3866-2-6" stop-color="#fff" stop-opacity="0" offset="1"/>
  </radialGradient>
  <radialGradient id="radialGradient20176" xlink:href="#linearGradient4272-8" gradientUnits="userSpaceOnUse" cy="-7.8293" cx="150.95" gradientTransform="matrix(.15084 .43448 -.75812 .26321 177.58 878.48)" r="2.4745"/>
  <radialGradient id="radialGradient20178" xlink:href="#linearGradient4648-2" gradientUnits="userSpaceOnUse" cy="-26" cx="143" gradientTransform="matrix(1.035 -.017601 .017908 1.053 -4.5331 3.8953)" r="4"/>
  <radialGradient id="radialGradient20180" gradientUnits="userSpaceOnUse" cy="-26.692" cx="144" gradientTransform="matrix(4.593 0 0 .95479 -509.77 37.585)" r="4">
   <stop id="stop4696-3" stop-color="#2b0f00" stop-opacity="0" offset="0"/>
   <stop id="stop4714-0" stop-color="#2b0f00" stop-opacity=".22835" offset=".38756"/>
   <stop id="stop4698-9" stop-color="#2b0f00" offset="1"/>
  </radialGradient>
  <radialGradient id="radialGradient20182" xlink:href="#linearGradient4272-8" gradientUnits="userSpaceOnUse" cy="-7.8293" cx="150.95" gradientTransform="matrix(1 0 0 4.4898 0 27.323)" r="2.4745"/>
  <clipPath id="clipPath20184" clipPathUnits="userSpaceOnUse">
   <path id="path20186" d="m157.56 910.96c-6.6049-0.6994-12.47 4.1042-13.172 10.735l-6.4268 60.692c-0.70217 6.6309 4.0304 12.525 10.635 13.225l60.474 6.4038c6.6049 0.6994 12.467-4.0731 13.169-10.704l6.4268-60.692c0.70216-6.6308-4.0271-12.556-10.632-13.256l-60.474-6.4038z" fill="url(#linearGradient20188)"/>
  </clipPath>
  <linearGradient id="linearGradient20188" y2="5.9877" xlink:href="#linearGradient3700-28" gradientUnits="userSpaceOnUse" x2="48" gradientTransform="matrix(1.7596 .18633 -.11361 1.0729 89.341 894.23)" y1="90" x1="48"/>
 </defs>
 <metadata id="metadata7">
  <rdf:RDF>
   <cc:Work rdf:about="">
    <dc:format>image/svg+xml</dc:format>
    <dc:type rdf:resource="http://purl.org/dc/dcmitype/StillImage"/>
    <dc:title/>
   </cc:Work>
  </rdf:RDF>
 </metadata>
 <g id="layer1" transform="translate(0 -956.36)">
  <g id="g5523">
   <rect id="rect5263-0" fill-opacity=".019608" ry="12.724" height="89.978" width="89.624" y="959.35" x="3.3534"/>
   <rect id="rect5261-6" fill-opacity=".039216" ry="12.552" height="88.762" width="88.413" y="959.96" x="3.9589"/>
   <rect id="rect5259-9" fill-opacity=".078431" ry="12.38" height="87.546" width="87.202" y="960.57" x="4.5645"/>
   <rect id="rect5257-5" fill-opacity=".15686" ry="12.208" height="86.33" width="85.991" y="961.18" x="5.1701"/>
  </g>
  <path id="rect2419" d="m17.75 5.4062c-6.642 0-11.969 5.3948-11.969 12.063l0.0002 61.031c0 6.668 5.3268 12.031 11.969 12.031h60.812c6.642 0 11.969-5.363 11.969-12.031v-61.031c0-6.668-5.327-12.063-11.969-12.063l-60.812 0.0002z" transform="translate(0 956.36)" fill="url(#linearGradient15820)"/>
  <g id="g20057" clip-path="url(#clipPath20184)" transform="matrix(.99444 -.10530 .10530 .99444 -234.86 72.464)">
   <g id="layer6" transform="translate(143.17 916.04)">
    <path id="path3680" opacity="0.08" d="m43.094 3.9688c-1.141 0.0143-2.183 0.1986-2.782 0.0937a1.0282 1.0282 0 0 0 -0.343 -0.0313c-0.557 0.0806-1.636-0.0679-2.781-0.0312-0.573 0.0183-1.188 0.0761-1.782 0.375s-1.15 0.8705-1.437 1.5938a1.0282 1.0282 0 0 0 -0.0625 0.4375c0.05783 0.78087-0.42867 1.5622-1.0625 1.9375-0.626 0.3705-1.21 0.4267-1.875-0.2188-0.162-0.1718-0.317-0.8372-0.563-1.7188-0.123-0.4407-0.283-0.9461-0.656-1.4062s-0.993-0.8317-1.688-0.9375a1.0282 1.0282 0 0 0 -0.125 0c-2.671-0.0758-5.348-0.0096-7.968-0.0313a1.0282 1.0282 0 0 0 -0.188 0.0313c-0.833 0.1497-1.492 0.6734-1.843 1.25-0.352 0.5766-0.483 1.1395-0.594 1.625-0.112 0.4855-0.224 0.8713-0.344 1.0937-0.12036 0.22246-0.17077 0.29426-0.46875 0.375a1.0282 1.0282 0 0 0 -0.125 0.0625c-0.47 0.1984-0.75 0.1821-0.968 0.1251-0.219-0.0571-0.407-0.1813-0.626-0.4376-0.437-0.5124-0.825-1.5274-1.031-2.4062a1.0282 1.0282 0 0 0 -0.187 -0.375c-0.55-0.6975-1.333-1.1236-2.094-1.25s-1.5-0.0235-2.1875 0.1875c-1.3753 0.422-2.5798 1.2525-3.4063 1.8125a1.0282 1.0282 0 0 0 -0.125 0.09375c-0.8745 0.7994-1.9388 1.8655-2.6874 3.1562-0.7487 1.291-1.2127 2.884-0.625 4.469a1.0282 1.0282 0 0 0 0.0624 0.156c0.37719 0.67375 1.0135 1.0911 1.5625 1.3125 0.54901 0.22145 1.0353 0.29996 1.4375 0.40625 0.4022 0.1063 0.69191 0.24059 0.8125 0.34375s0.18774 0.15511 0.21875 0.59375a1.0282 1.0282 0 0 0 0.03125 0.15625c0.19955 0.89464 0.017971 1.0621-0.5 1.4062-0.5178 0.345-1.4679 0.592-2.3436 0.813a1.0282 1.0282 0 0 0 -0.3438 0.157c-1.2183 0.85237-1.4607 2.2644-1.4375 3.375 0.023217 1.1106 0.1985 2.1295 0.09375 2.7188a1.0282 1.0282 0 0 0 -0.03125 0.3125c0.0724 0.565-0.0889 1.688-0.0312 2.844 0.028841 0.5776 0.11137 1.1929 0.4375 1.7812 0.32613 0.58838 0.94203 1.095 1.6875 1.3438a1.0282 1.0282 0 0 0 0.4688 0.062c1.0626-0.151 1.6996 0.543 1.9062 1.406 0.1033 0.432 0.042 0.855-0.125 1.157-0.167 0.301-0.4353 0.561-1.0625 0.687v0.03125c-1.0546-0.02393-2.0396 0.41056-2.625 1.1562-0.61957 0.78921-0.84227 1.8254-0.625 2.875h-0.03125c0.15284 2.1057-0.36508 4.6155 0.25 7.1562a1.0282 1.0282 0 0 0 0.0938 0.219c0.3742 0.70785 1.021 1.1515 1.5938 1.375 0.57279 0.22353 1.1092 0.30769 1.5312 0.40625 0.42206 0.09856 0.68617 0.20954 0.8125 0.3125s0.21441 0.19159 0.25 0.65625a1.0282 1.0282 0 0 0 0.03125 0.125c0.20307 0.89644 0.017796 1.0626-0.5 1.4062-0.5178 0.344-1.4662 0.593-2.3438 0.813a1.0282 1.0282 0 0 0 -0.3438 0.156c-1.2183 0.85237-1.4607 2.2644-1.4375 3.375 0.023217 1.1106 0.1985 2.1295 0.09375 2.7188a1.0282 1.0282 0 0 0 -0.03125 0.3125c0.0724 0.566-0.0889 1.689-0.0312 2.844 0.028841 0.5776 0.11137 1.1929 0.4375 1.7812 0.32613 0.58838 0.94203 1.095 1.6875 1.3438a1.0282 1.0282 0 0 0 0.4688 0.063c1.0626-0.151 1.6996 0.543 1.9062 1.406 0.1033 0.432 0.042 0.855-0.125 1.156-0.167 0.302-0.4353 0.562-1.0625 0.688v0.03125c-1.0546-0.02393-2.0396 0.41056-2.625 1.1562-0.61957 0.78921-0.84227 1.8254-0.625 2.875h-0.03125c0.15284 2.1057-0.36508 4.6155 0.25 7.1562a1.0282 1.0282 0 0 0 0.0938 0.22c0.3742 0.70785 1.021 1.1515 1.5938 1.375 0.57279 0.22353 1.1092 0.30769 1.5312 0.40625 0.42206 0.09856 0.68617 0.20954 0.8125 0.3125s0.21441 0.19159 0.25 0.65625a1.0282 1.0282 0 0 0 0.03125 0.125c0.10799 0.46781 0.04831 0.70773-0.03125 0.875s-0.2118 0.32193-0.5 0.5c-0.5765 0.356-1.631 0.628-2.5938 1.062a1.0282 1.0282 0 0 0 -0.2813 0.188c-0.62925 0.6133-0.94979 1.4261-1 2.1875-0.050212 0.76137 0.13559 1.4682 0.40625 2.125 0.54132 1.3135 1.4312 2.4512 2.0312 3.2188a1.0282 1.0282 0 0 0 0.09375 0.125c0.88451 0.82949 2.1003 1.8002 3.5 2.4375 1.3997 0.63733 3.1206 0.95183 4.6562 0.09375a1.0282 1.0282 0 0 0 0.1875 -0.125c1.0396-0.93062 1.0836-2.2025 1.2812-2.9062 0.09884-0.3519 0.21373-0.55218 0.3125-0.65625s0.22233-0.18502 0.65625-0.21875a1.0282 1.0282 0 0 0 0.125 -0.03125c0.87351-0.20438 1.0535-0.01428 1.4062 0.5 0.35273 0.51428 0.6193 1.4406 0.84375 2.3125a1.0282 1.0282 0 0 0 0.15625 0.34375c0.85237 1.2183 2.2644 1.4607 3.375 1.4375 1.1106-0.02322 2.1295-0.1985 2.7188-0.09375a1.0282 1.0282 0 0 0 0.34375 0.03125c0.55882-0.08213 1.6617 0.06587 2.8125 0.03125 0.57541-0.01731 1.1843-0.07664 1.7812-0.375 0.59699-0.29836 1.1484-0.86811 1.4375-1.5938a1.0282 1.0282 0 0 0 0.063 -0.469c-0.07824-0.87736 0.48509-1.6337 1.1875-1.9688 0.67636-0.32264 1.2894-0.31387 1.875 0.46875 0.14177 0.47096 0.2528 1.2287 0.59375 2.0312 0.18639 0.43874 0.46589 0.88029 0.90625 1.25s1.0602 0.61566 1.7188 0.625a1.0282 1.0282 0 0 0 0.0625 0c2.5333-0.14176 5.355 0.29659 8.2188-0.21875a1.0282 1.0282 0 0 0 0.21875 -0.0625c0.69338-0.31119 1.1684-0.89434 1.4062-1.4375 0.23782-0.54316 0.32065-1.0522 0.40625-1.4688 0.0856-0.41652 0.18478-0.74608 0.28125-0.90625s0.1282-0.20292 0.4375-0.28125a1.0282 1.0282 0 0 0 0.15625 -0.0625c0.83396-0.35534 1.2067-0.17432 1.6562 0.28125 0.44951 0.45557 0.79703 1.3275 0.84375 2.0938a1.0282 1.0282 0 0 0 0.125 0.4375c0.36628 0.65994 0.93549 1.1296 1.5312 1.375 0.59576 0.24542 1.1916 0.31039 1.75 0.3125 1.1168 0.0042 2.1778-0.18648 2.75-0.09375a1.0282 1.0282 0 0 0 0.3125 0c0.57872-0.09628 1.6489 0.09405 2.7812 0.09375 0.56617-0.00015 1.1777-0.06885 1.7812-0.3125 0.60356-0.24365 1.1886-0.71007 1.5625-1.375a1.0282 1.0282 0 0 0 0.125 -0.4375c0.04672-0.76622 0.39424-1.6382 0.84375-2.0938 0.44951-0.45557 0.82229-0.6366 1.6562-0.28125a1.0282 1.0282 0 0 0 0.15625 0.0625c0.26654 0.06883 0.3119 0.10706 0.4375 0.34375 0.1256 0.2367 0.22053 0.6863 0.34375 1.1875s0.27262 1.0808 0.65625 1.6562c0.38364 0.57543 1.1116 1.0677 1.9688 1.1562a1.0282 1.0282 0 0 0 0.125 0c2.6168-0.05044 5.4672 0.27427 8.3125-0.125a1.0282 1.0282 0 0 0 0.219 -0.061c0.72991-0.27414 1.2377-0.85419 1.5-1.4062 0.26226-0.55206 0.3453-1.0688 0.4375-1.5 0.0922-0.43122 0.17926-0.76722 0.28125-0.9375 0.10198-0.17028 0.15586-0.2362 0.46875-0.3125a1.0282 1.0282 0 0 0 0.15625 -0.0625c0.51021-0.21876 0.75453-0.18009 0.9375-0.125s0.37504 0.18252 0.59375 0.46875c0.43742 0.57246 0.83712 1.6491 1.3438 2.625a1.0282 1.0282 0 0 0 0.1875 0.25c0.58526 0.58622 1.3435 0.89645 2.0625 0.9375 0.71901 0.04105 1.3914-0.14727 2-0.40625 1.2171-0.51795 2.2316-1.3465 2.9375-1.9062a1.0282 1.0282 0 0 0 0.125 -0.125c0.70479-0.77748 1.6609-1.8343 2.3125-3.0938 0.65162-1.2595 1.0266-2.8804 0.21875-4.3438a1.0282 1.0282 0 0 0 -0.094 -0.125c-0.864-1.149-2.141-1.233-2.875-1.438-0.367-0.103-0.61-0.214-0.719-0.312-0.108-0.099-0.187-0.172-0.218-0.594a1.0282 1.0282 0 0 0 -0.032 -0.156c-0.19955-0.89464-0.01797-1.0621 0.5-1.4062 0.51797-0.34418 1.4681-0.59106 2.3438-0.8125a1.0282 1.0282 0 0 0 0.34375 -0.15625c1.2183-0.85237 1.4607-2.2644 1.4375-3.375-0.02322-1.1106-0.1985-2.1295-0.09375-2.7188a1.0282 1.0282 0 0 0 0.03125 -0.3125c-0.073-0.565 0.089-1.688 0.031-2.844-0.029-0.577-0.111-1.192-0.438-1.781-0.326-0.588-0.942-1.095-1.687-1.343a1.0282 1.0282 0 0 0 -0.469 -0.063c-1.062 0.151-1.699-0.543-1.906-1.406-0.1033-0.43153-0.04196-0.85436 0.125-1.1562 0.16696-0.30189 0.43526-0.56104 1.0625-0.6875v-0.03125c1.0546 0.02393 2.0396-0.41056 2.625-1.1562 0.61958-0.78921 0.84227-1.8254 0.625-2.875h0.03125c-0.15284-2.1057 0.36508-4.6155-0.25-7.1562a1.0282 1.0282 0 0 0 -0.094 -0.219c-0.374-0.708-1.021-1.152-1.594-1.376-0.573-0.223-1.109-0.307-1.531-0.406-0.42206-0.09856-0.68617-0.20954-0.8125-0.3125s-0.21441-0.19159-0.25-0.65625a1.0282 1.0282 0 0 0 -0.03125 -0.125c-0.20306-0.89644-0.0178-1.0626 0.5-1.4062 0.5178-0.34363 1.4661-0.59178 2.3438-0.8125a1.0282 1.0282 0 0 0 0.34375 -0.15625c1.2183-0.85237 1.4607-2.2644 1.4375-3.375-0.02322-1.1106-0.1985-2.1295-0.09375-2.7188a1.0282 1.0282 0 0 0 0.03125 -0.3125c-0.074-0.564 0.088-1.687 0.03-2.842-0.029-0.578-0.111-1.193-0.438-1.782-0.326-0.588-0.942-1.095-1.687-1.344a1.0282 1.0282 0 0 0 -0.469 -0.062c-1.062 0.151-1.699-0.543-1.906-1.406-0.103-0.432-0.042-0.855 0.125-1.156 0.167-0.302 0.435-0.562 1.063-0.688v-0.03125c1.0546 0.02393 2.0396-0.41056 2.625-1.1562 0.61958-0.78921 0.84227-1.8254 0.625-2.875h0.03125c-0.15284-2.1057 0.36508-4.6155-0.25-7.1562a1.0282 1.0282 0 0 0 -0.094 -0.22c-0.374-0.707-1.021-1.151-1.594-1.374-0.573-0.224-1.109-0.308-1.531-0.407-0.42206-0.09856-0.68617-0.20954-0.8125-0.3125s-0.21441-0.19159-0.25-0.65625a1.0282 1.0282 0 0 0 -0.03125 -0.125c-0.10799-0.46781-0.04831-0.70773 0.03125-0.875s0.2118-0.32193 0.5-0.5c0.57639-0.35614 1.6309-0.62824 2.5938-1.0625a1.0282 1.0282 0 0 0 0.28125 -0.1875c0.60285-0.56559 0.92704-1.3163 1-2.0312 0.07296-0.71496-0.085-1.3808-0.3125-2-0.45501-1.2384-1.2389-2.3258-1.75-3.0625a1.0282 1.0282 0 0 0 -0.09375 -0.125c-0.744-0.7607-1.773-1.7578-3-2.4683s-2.81-1.1607-4.312-0.4375a1.0282 1.0282 0 0 0 -0.125 0.09375c-1.186 0.7999-1.366 2.0786-1.594 2.8126-0.114 0.3669-0.209 0.6053-0.313 0.7187-0.103 0.1134-0.203 0.1878-0.593 0.2187a1.0282 1.0282 0 0 0 -0.125 0.03125c-0.82158 0.18514-1.0752-0.020962-1.4375-0.5s-0.62815-1.3324-0.75-2.125a1.0282 1.0282 0 0 0 -0.156 -0.3749c-0.405-0.6477-1.014-1.1181-1.625-1.3437-0.611-0.2257-1.212-0.2572-1.781-0.25-1.139 0.0143-2.185 0.1983-2.782 0.0937a1.0282 1.0282 0 0 0 -0.343 -0.0313c-0.557 0.0806-1.636-0.0679-2.781-0.0312-0.573 0.0183-1.188 0.0761-1.782 0.375s-1.15 0.8705-1.437 1.5938a1.0282 1.0282 0 0 0 -0.063 0.4687c0.078 0.8774-0.485 1.6337-1.187 1.9687-0.677 0.3227-1.29 0.3139-1.875-0.4687-0.142-0.471-0.253-1.2287-0.594-2.0313-0.186-0.4387-0.466-0.8802-0.906-1.25-0.441-0.3697-1.06-0.6156-1.719-0.625a1.0282 1.0282 0 0 0 -0.0625 0c-2.533 0.1418-5.355-0.2965-8.218 0.2188a1.0282 1.0282 0 0 0 -0.25 0.0625c-0.69051 0.31449-1.136 0.89614-1.375 1.4375-0.23897 0.54136-0.31768 1.0536-0.40625 1.4688-0.08857 0.41516-0.18244 0.71433-0.28125 0.875s-0.15409 0.23383-0.46875 0.3125a1.0282 1.0282 0 0 0 -0.15625 0.0625c-0.876 0.3755-1.189 0.1928-1.626-0.2813s-0.778-1.4068-0.875-2.2187a1.0282 1.0282 0 0 0 -0.156 -0.4063c-0.406-0.6501-1.012-1.1188-1.625-1.3437-0.613-0.225-1.211-0.2572-1.781-0.25z" fill="url(#linearGradient20114)"/>
    <path id="path3658" opacity=".2" d="m20.156 6a1.0087 1.0087 0 0 0 -0.8125 1c0 1.965-1.5923 3.5625-3.5938 3.5625-1.9839 0-3.5666-1.5597-3.5938-3.5a1.0087 1.0087 0 0 0 -1.125 -1c-3.4229 0.4096-6.1818 2.9512-6.8748 6.2815a1.0087 1.0087 0 0 0 0.9688 1.218c1.9396 0.0644 3.4688 1.6383 3.4688 3.5625 0 1.965-1.5923 3.5625-3.5938 3.5625a1.0087 1.0087 0 0 0 -1 1v7.063a1.0087 1.0087 0 0 0 1 1c2.0014 0 3.5938 1.5975 3.5938 3.5625s-1.5923 3.5625-3.5938 3.5625a1.0087 1.0087 0 0 0 -1 1v7.0625a1.0087 1.0087 0 0 0 1 1c2.0014 0 3.5938 1.5975 3.5938 3.5625s-1.5923 3.5625-3.5938 3.5625a1.0087 1.0087 0 0 0 -1 1v7.0625a1.0087 1.0087 0 0 0 1 1c2.0014 0 3.5938 1.5975 3.5938 3.5625s-1.5924 3.562-3.5938 3.562a1.0087 1.0087 0 0 0 -1 1v7.0625a1.0087 1.0087 0 0 0 1 1c2.0014-0.000003 3.5938 1.5975 3.5938 3.5625 0 1.9242-1.5291 3.4981-3.4688 3.5625a1.0087 1.0087 0 0 0 -0.96875 1.2188c0.69297 3.3301 3.4519 5.8716 6.875 6.2812a1.0087 1.0087 0 0 0 1.125 -1c0.02717-1.9403 1.6099-3.5 3.5938-3.5 2.0014 0 3.5938 1.5975 3.5938 3.5625a1.0087 1.0087 0 0 0 1 1h7.1875a1.0087 1.0087 0 0 0 1 -1c0-1.965 1.5923-3.5625 3.5938-3.5625 2.0014 0 3.625 1.6058 3.625 3.5625a1.0087 1.0087 0 0 0 1 1h7.1562a1.0087 1.0087 0 0 0 1 -1c0-1.965 1.5923-3.5625 3.5938-3.5625 2.0014 0 3.625 1.6058 3.625 3.5625a1.0087 1.0087 0 0 0 1 1h7.1562a1.0087 1.0087 0 0 0 1 -1c0-1.9567 1.6236-3.5625 3.625-3.5625s3.5938 1.5975 3.5938 3.5625a1.0087 1.0087 0 0 0 1 1h7.1562a1.0087 1.0087 0 0 0 1 -1c-0.000008-1.9567 1.6236-3.5625 3.625-3.5625 1.9308 0 3.4569 1.5015 3.5625 3.375a1.0087 1.0087 0 0 0 1.25 0.90625c2.8884-0.78106 5.136-3.112 5.75-6.0625a1.0087 1.0087 0 0 0 -0.969 -1.218c-1.9396-0.06441-3.4688-1.6383-3.4688-3.5625 0-1.965 1.5923-3.5625 3.5938-3.5625a1.0087 1.0087 0 0 0 1 -1v-7.063a1.0087 1.0087 0 0 0 -1 -1c-2.0014 0.000001-3.5938-1.5975-3.5938-3.5625s1.5923-3.5625 3.5938-3.5625a1.0087 1.0087 0 0 0 1 -1v-7.0625a1.0087 1.0087 0 0 0 -1 -1c-2.0014 0.000001-3.5938-1.5975-3.5938-3.5625s1.5923-3.5625 3.5938-3.5625a1.0087 1.0087 0 0 0 1 -1v-7.0625a1.0087 1.0087 0 0 0 -1 -1c-2.0014 0.000001-3.5938-1.5975-3.5938-3.5625s1.5923-3.5625 3.5938-3.5625a1.0087 1.0087 0 0 0 1 -1v-7.0625a1.0087 1.0087 0 0 0 -1 -1c-2.0014 0.000001-3.5938-1.5975-3.5938-3.5625 0-1.9242 1.5291-3.4981 3.4688-3.5625a1.0087 1.0087 0 0 0 0.96875 -1.2188c-0.61397-2.9505-2.8616-5.2814-5.75-6.0625a1.0087 1.0087 0 0 0 -1.25 0.90625c-0.10557 1.8735-1.6317 3.375-3.5625 3.375-2.0014 0-3.625-1.6058-3.625-3.5625a1.0087 1.0087 0 0 0 -1 -1l-7.156 0.0017a1.0087 1.0087 0 0 0 -1 1c0 1.965-1.5923 3.5625-3.5938 3.5625-2.0014 0-3.625-1.6058-3.625-3.5625a1.0087 1.0087 0 0 0 -1 -1h-7.156a1.0087 1.0087 0 0 0 -1 1c0 1.9567-1.6236 3.5625-3.625 3.5625s-3.5938-1.5975-3.5938-3.5625a1.0087 1.0087 0 0 0 -1 -1h-7.156a1.0087 1.0087 0 0 0 -1 1c0.000008 1.9567-1.6236 3.5625-3.625 3.5625s-3.5938-1.5975-3.5938-3.5625a1.0087 1.0087 0 0 0 -1 -1h-7.1875a1.0087 1.0087 0 0 0 -0.1875 0z" fill="url(#linearGradient20114)"/>
    <path id="path2860" opacity=".45" d="m12 7c-3.1577 0-5.7192 2.4087-5.9688 5.5 2.4695 0.017 4.4688 2.027 4.4688 4.5 0 2.484-2.016 4.5-4.5 4.5v7c2.484 0 4.5 2.016 4.5 4.5s-2.016 4.5-4.5 4.5v7c2.484 0 4.5 2.016 4.5 4.5s-2.016 4.5-4.5 4.5v7c2.484 0 4.5 2.016 4.5 4.5s-2.016 4.5-4.5 4.5v7c2.484-0.000004 4.5 2.016 4.5 4.5 0 2.4734-1.9993 4.4829-4.4688 4.5 0.2496 3.091 2.8111 5.5 5.9688 5.5 0-2.484 2.016-4.5 4.5-4.5s4.5 2.016 4.5 4.5h7c0-2.484 2.016-4.5 4.5-4.5s4.5 2.016 4.5 4.5h7c0-2.484 2.016-4.5 4.5-4.5s4.5 2.016 4.5 4.5h7c0-2.484 2.016-4.5 4.5-4.5s4.5 2.016 4.5 4.5h7c-0.000004-2.484 2.016-4.5 4.5-4.5 2.4522 0 4.4493 1.9661 4.5 4.4062 2.689-0.445 4.746-2.647 4.969-5.406-2.47-0.017-4.469-2.027-4.469-4.5 0-2.484 2.016-4.5 4.5-4.5v-7c-2.484 0.000001-4.5-2.016-4.5-4.5s2.016-4.5 4.5-4.5v-7c-2.484 0.000001-4.5-2.016-4.5-4.5s2.016-4.5 4.5-4.5v-7c-2.484 0.000001-4.5-2.016-4.5-4.5s2.016-4.5 4.5-4.5v-7c-2.484 0.000001-4.5-2.016-4.5-4.5 0-2.4734 1.9993-4.4829 4.4688-4.5-0.223-2.7593-2.28-4.9611-4.969-5.4062-0.051 2.4401-2.048 4.4062-4.5 4.4062-2.484 0-4.5-2.016-4.5-4.5h-7c0.000001 2.484-2.016 4.5-4.5 4.5s-4.5-2.016-4.5-4.5h-7c0.000001 2.484-2.016 4.5-4.5 4.5s-4.5-2.016-4.5-4.5h-7c0.000001 2.484-2.016 4.5-4.5 4.5s-4.5-2.016-4.5-4.5h-7c0.000001 2.484-2.016 4.5-4.5 4.5s-4.5-2.016-4.5-4.5z" fill="url(#linearGradient20118)"/>
    <path id="path3645" opacity=".3" d="m20.344 7c0 2.5136-2.0506 4.5625-4.5938 4.5625-2.5214 0-4.559-2.016-4.5938-4.5-2.9961 0.35852-5.3943 2.5891-6 5.5 2.4704 0.08203 4.4375 2.1009 4.4375 4.5625 0 2.5136-2.0506 4.5625-4.5938 4.5625v7.062c2.5431 0 4.5938 2.0489 4.5938 4.5625s-2.0506 4.5625-4.5938 4.5625v7.0625c2.5431 0 4.5938 2.0489 4.5938 4.5625s-2.0506 4.5625-4.5938 4.5625v7.0625c2.5431 0 4.5938 2.0489 4.5938 4.5625 0 2.513-2.0507 4.562-4.5938 4.562v7.0625c2.5431-0.000004 4.5938 2.0489 4.5938 4.5625 0 2.4615-1.9671 4.4805-4.4375 4.5625 0.60574 2.9109 3.0039 5.1415 6 5.5 0.03479-2.484 2.0723-4.5 4.5938-4.5 2.5431 0 4.5938 2.0489 4.5938 4.5625h7.1875c0-2.5136 2.0506-4.5625 4.5938-4.5625s4.625 2.0489 4.625 4.5625h7.1562c0-2.5136 2.0506-4.5625 4.5938-4.5625s4.625 2.0489 4.625 4.5625h7.1562c0-2.5136 2.0818-4.5625 4.625-4.5625 2.5431 0 4.5938 2.0489 4.5938 4.5625h7.1562c-0.00001-2.5136 2.0819-4.5625 4.625-4.5625 2.456 0 4.4276 1.9182 4.5625 4.3125 2.5226-0.68216 4.4631-2.7322 5-5.3125-2.4704-0.08204-4.4375-2.1009-4.4375-4.5625 0-2.5136 2.0506-4.5625 4.5938-4.5625l-0.001-7.062c-2.5431 0.000001-4.5938-2.0489-4.5938-4.5625s2.0506-4.5625 4.5938-4.5625v-7.0625c-2.5431 0.000001-4.5938-2.0489-4.5938-4.5625s2.0506-4.5625 4.5938-4.5625v-7.0625c-2.5431 0.000001-4.5938-2.0489-4.5938-4.5625s2.0506-4.5625 4.5938-4.5625v-7.0625c-2.5431 0.000001-4.5938-2.0489-4.5938-4.5625 0-2.4616 1.9671-4.4805 4.4375-4.5625-0.53694-2.5803-2.4774-4.6303-5-5.3125-0.13492 2.3943-2.1065 4.3125-4.5625 4.3125-2.5432 0-4.625-2.0489-4.625-4.5625l-7.156 0.002c0 2.5136-2.0506 4.5625-4.5938 4.5625s-4.625-2.0489-4.625-4.5625h-7.156c0 2.5136-2.0818 4.5625-4.625 4.5625-2.5431 0-4.5938-2.0489-4.5938-4.5625h-7.156c0.00001 2.5136-2.0819 4.5625-4.625 4.5625s-4.5938-2.0489-4.5938-4.5625h-7.1875z" fill="url(#linearGradient20120)"/>
    <path id="path3666" opacity=".1" d="m19.969 5.0625c-2.331 0.4186-0.951 3.7558-3.171 4.3572-2.521 1.0623-3.569-1.5089-4.017-3.4197-1.607-2.0397-4.7153-0.1187-6.3248 0.9718-1.6614 1.5187-3.9137 4.1152-3.0187 6.5282 0.963 1.72 3.9861 0.532 4.168 3.105 0.5461 2.448-1.875 2.989-3.6055 3.426-1.7286 1.21-0.6257 3.695-0.9375 5.448 0.2132 1.667-0.7689 4.399 1.375 5.115 3.2092-0.458 4.5988 4.587 1.1075 5.29-1.6977-0.25-2.9026 1.414-2.4825 3.002 0.1671 2.303-0.3229 4.72 0.2187 6.958 0.9666 1.828 4.1171 0.444 4.3225 3.125 0.5553 2.451-1.8692 3.001-3.6037 3.437-1.7286 1.2095-0.62574 3.6943-0.9375 5.4482 0.21323 1.6664-0.76888 4.399 1.375 5.1143 3.2092-0.45753 4.5988 4.5868 1.1075 5.2907-1.6977-0.25008-2.9027 1.4136-2.4825 3.0017 0.16713 2.3025-0.32294 4.7199 0.21875 6.9576 0.96651 1.8283 4.1171 0.44392 4.3224 3.1252 0.58707 2.5432-2.0477 2.8495-3.6974 3.5935-1.8374 1.7909 0.35339 4.6396 1.5459 6.1651 1.6687 1.5649 4.5831 3.6735 6.9229 2.3661 1.3306-1.1911 0.3527-3.8497 2.8337-4.0425 2.4103-0.56396 3.0303 1.8314 3.4788 3.5738 1.2095 1.7286 3.6943 0.62574 5.4482 0.9375 1.6851-0.24764 4.3808 0.79517 5.2081-1.2812-0.23945-2.6851 3.2899-4.6155 5.0134-2.118 0.43748 1.222 0.47558 3.3734 2.2991 3.3992 2.6837-0.15018 5.4625 0.286 8.0938-0.1875 1.7982-0.80704 0.55575-3.6262 2.7018-4.1697 2.3284-0.99212 3.8016 1.2694 3.9232 3.2634 1.0438 1.8806 3.5773 0.81635 5.2892 1.0938 1.7341-0.28848 4.3004 0.80315 5.3671-1.0938 0.12159-1.994 1.5948-4.2556 3.9232-3.2634 2.1693 0.56016 0.85508 4.077 3.2643 4.326 2.707-0.05218 5.5157 0.24993 8.1875-0.125 1.9165-0.7198 0.63725-3.665 2.823-4.1981 2.6673-1.1436 3.2884 1.7364 4.177 3.4481 1.678 1.6808 4.2499-0.3415 5.6605-1.46 1.388-1.53 3.565-4.096 2.372-6.259-1.09-1.448-3.857-0.449-4.044-2.917-0.546-2.448 1.876-2.989 3.606-3.426 1.7286-1.2095 0.62574-3.6943 0.9375-5.4482-0.21323-1.6664 0.76888-4.399-1.375-5.1143-3.2092 0.45752-4.5988-4.5868-1.1075-5.2907 1.6977 0.25007 2.9027-1.4136 2.4825-3.0017-0.16713-2.3025 0.32294-4.7199-0.21875-6.9576-0.96651-1.8283-4.1171-0.44392-4.3224-3.1252-0.5553-2.4514 1.8692-3.0011 3.6037-3.4373 1.7286-1.2095 0.62574-3.6943 0.9375-5.4482-0.21323-1.6664 0.76888-4.399-1.375-5.1143-3.2092 0.45752-4.5988-4.5868-1.1075-5.2907 1.6977 0.25007 2.9027-1.4136 2.4825-3.0017-0.168-2.303 0.322-4.72-0.219-6.958-0.967-1.828-4.117-0.444-4.323-3.125-0.587-2.543 2.048-2.85 3.698-3.594 1.738-1.63-0.159-4.263-1.193-5.7536-1.453-1.4849-3.893-3.7556-6.12-2.6834-1.501 1.013-0.609 3.7622-2.976 3.9497-2.306 0.5193-3.157-1.703-3.43-3.4809-1.158-1.8528-3.734-0.7199-5.511-1.0313-1.676 0.2424-4.356-0.7866-5.176 1.2813 0.239 2.6851-3.29 4.6152-5.014 2.1179-0.437-1.222-0.476-3.3733-2.299-3.3992-2.684 0.1502-5.463-0.286-8.094 0.1875-1.794 0.8172-0.57 3.6269-2.729 4.1668-2.4 1.0292-3.692-1.3518-3.927-3.323-1.158-1.8528-3.734-0.7199-5.511-1.0313-1.676 0.2424-4.356-0.7866-5.176 1.2813 0.179 2.4256-2.738 4.4712-4.704 2.515-0.996-1.0581-0.413-3.4731-2.328-3.765-2.634-0.0748-5.294-0.0094-7.937-0.0313z" fill="url(#linearGradient20120)"/>
   </g>
   <g id="layer1-1" transform="translate(143.17 916.04)">
    <path id="rect2419-2" d="m12 6c-3.1577 0-5.7192 2.4087-5.9688 5.5 2.4695 0.017 4.4688 2.027 4.4688 4.5 0 2.484-2.016 4.5-4.5 4.5v7c2.484 0 4.5 2.016 4.5 4.5s-2.016 4.5-4.5 4.5v7c2.484 0 4.5 2.016 4.5 4.5s-2.016 4.5-4.5 4.5v7c2.484 0 4.5 2.016 4.5 4.5s-2.016 4.5-4.5 4.5v7c2.484-0.000004 4.5 2.016 4.5 4.5 0 2.4734-1.9993 4.4829-4.4688 4.5 0.2496 3.091 2.8111 5.5 5.9688 5.5 0-2.484 2.016-4.5 4.5-4.5s4.5 2.016 4.5 4.5h7c0-2.484 2.016-4.5 4.5-4.5s4.5 2.016 4.5 4.5h7c0-2.484 2.016-4.5 4.5-4.5s4.5 2.016 4.5 4.5h7c0-2.484 2.016-4.5 4.5-4.5s4.5 2.016 4.5 4.5h7c-0.000004-2.484 2.016-4.5 4.5-4.5 2.4522 0 4.4493 1.9661 4.5 4.4062 2.689-0.445 4.746-2.647 4.969-5.406-2.47-0.017-4.469-2.027-4.469-4.5 0-2.484 2.016-4.5 4.5-4.5v-7c-2.484 0.000001-4.5-2.016-4.5-4.5s2.016-4.5 4.5-4.5v-7c-2.484 0.000001-4.5-2.016-4.5-4.5s2.016-4.5 4.5-4.5v-7c-2.484 0.000001-4.5-2.016-4.5-4.5s2.016-4.5 4.5-4.5v-7c-2.484 0.000001-4.5-2.016-4.5-4.5 0-2.4734 1.9993-4.4829 4.4688-4.5-0.223-2.7593-2.28-4.9611-4.969-5.4062-0.051 2.4401-2.048 4.4062-4.5 4.4062-2.484 0-4.5-2.016-4.5-4.5h-7c0.000001 2.484-2.016 4.5-4.5 4.5s-4.5-2.016-4.5-4.5h-7c0.000001 2.484-2.016 4.5-4.5 4.5s-4.5-2.016-4.5-4.5h-7c0.000001 2.484-2.016 4.5-4.5 4.5s-4.5-2.016-4.5-4.5h-7c0.000001 2.484-2.016 4.5-4.5 4.5s-4.5-2.016-4.5-4.5z" fill="url(#linearGradient20124)"/>
    <path id="path3421" opacity=".8" d="m12 6c-3.1577 0-5.7192 2.4087-5.9688 5.5 0.38756 0.0027 0.76651 0.06132 1.125 0.15625 0.5061-1.9477 2.0913-3.3645 4.1248-3.656 0.51358 2.4581 2.6136 4.375 5.2188 4.375 2.6501 0 4.7867-1.9789 5.25-4.5h5.5c0.46326 2.5211 2.5999 4.5 5.25 4.5s4.7867-1.9789 5.25-4.5h5.5c0.46326 2.5211 2.5999 4.5 5.25 4.5s4.7867-1.9789 5.25-4.5h5.5c0.46326 2.5211 2.5999 4.5 5.25 4.5s4.7867-1.9789 5.25-4.5h5.5c0.46326 2.5211 2.5999 4.5 5.25 4.5 2.5338 0 4.5992-1.7976 5.1875-4.1562 1.5651 0.55239 2.7347 1.8127 3.1562 3.4375 0.35849-0.09493 0.73744-0.15357 1.125-0.15625-0.223-2.7593-2.28-4.9611-4.969-5.4062-0.051 2.4401-2.048 4.4062-4.5 4.4062-2.484 0-4.5-2.016-4.5-4.5h-7c0.000001 2.484-2.016 4.5-4.5 4.5s-4.5-2.016-4.5-4.5h-7c0.000001 2.484-2.016 4.5-4.5 4.5s-4.5-2.016-4.5-4.5h-7c0.000001 2.484-2.016 4.5-4.5 4.5s-4.5-2.016-4.5-4.5h-7c0.000001 2.484-2.016 4.5-4.5 4.5s-4.5-2.016-4.5-4.5zm-3.9688 6c1.4653 0.742 2.4688 2.246 2.4688 4 0 2.484-2.016 4.5-4.5 4.5v7c0.32107 0 0.63541 0.02973 0.9375 0.09375v-5.4062c2.5211-0.46326 4.5-2.5999 4.5-5.25 0-2.2513-1.4321-4.1336-3.4062-4.9375zm79.938 0c-1.9742 0.80387-3.4062 2.6862-3.4062 4.9375 0 2.6501 1.9789 4.7867 4.5 5.25v5.4062c0.302-0.064 0.616-0.094 0.937-0.094v-7c-2.484 0.000001-4.5-2.016-4.5-4.5 0-1.7538 1.0035-3.2576 2.4688-4zm-79.782 16.094c1.3692 0.772 2.3125 2.223 2.3125 3.906 0 2.484-2.016 4.5-4.5 4.5v7c0.32107 0 0.63541 0.02973 0.9375 0.09375v-5.4062c2.5211-0.46326 4.5-2.5999 4.5-5.25 0-2.1892-1.3591-4.0092-3.25-4.8438zm79.625 0c-1.8909 0.83456-3.25 2.6546-3.25 4.8438 0 2.6501 1.9789 4.7867 4.5 5.25v5.4062c0.303-0.064 0.617-0.094 0.938-0.094v-7c-2.484 0.000001-4.5-2.016-4.5-4.5 0-1.6828 0.94331-3.1343 2.3125-3.9062zm-79.625 16c1.3697 0.772 2.313 2.223 2.313 3.906 0 2.484-2.016 4.5-4.5 4.5v7c0.32107 0 0.63541 0.02973 0.9375 0.09375v-5.4062c2.5211-0.46326 4.5-2.5999 4.5-5.25 0-2.1892-1.3591-4.0092-3.25-4.8438zm79.625 0c-1.8909 0.83456-3.25 2.6546-3.25 4.8438 0 2.6501 1.9789 4.7867 4.5 5.25v5.4062c0.303-0.064 0.617-0.094 0.938-0.094v-7c-2.484 0.000001-4.5-2.016-4.5-4.5 0-1.6828 0.94331-3.1343 2.3125-3.9062zm-79.625 16c1.3697 0.772 2.313 2.223 2.313 3.906 0 2.484-2.016 4.5-4.5 4.5v7c0.32107-0.000001 0.63541 0.02973 0.9375 0.09375v-5.4062c2.5211-0.46326 4.5-2.5999 4.5-5.25 0-2.1892-1.3591-4.0092-3.25-4.8438zm79.625 0c-1.8909 0.83456-3.25 2.6546-3.25 4.8438 0 2.6501 1.9789 4.7867 4.5 5.25v5.4062c0.303-0.064 0.617-0.094 0.938-0.094v-7c-2.484 0.000001-4.5-2.016-4.5-4.5 0-1.6828 0.94331-3.1343 2.3125-3.9062zm-79.625 16c1.3697 0.772 2.313 2.223 2.313 3.906 0 2.473-1.9993 4.483-4.4688 4.5 0.2496 3.091 2.8111 5.5 5.9688 5.5 0-2.1629 1.5274-3.975 3.5625-4.4062-2.1542 0.40051-3.8319 2.1304-4.2812 4.2812-2.0542-0.29442-3.6355-1.7406-4.125-3.7188 2.4131-0.54808 4.2812-2.6458 4.2812-5.2188 0-2.1892-1.3591-4.0092-3.25-4.8438zm79.625 0c-1.8909 0.83456-3.25 2.6546-3.25 4.8438 0 2.5729 1.8681 4.6707 4.2812 5.2188-0.40866 1.6533-1.5722 2.9409-3.1562 3.5-0.51472-2.0638-2.1492-3.6862-4.25-4.0625 2.0106 0.42121 3.5184 2.1881 3.5625 4.3125 2.689-0.446 4.746-2.648 4.969-5.407-2.47-0.017-4.469-2.027-4.469-4.5 0-1.6828 0.94331-3.1343 2.3125-3.9062zm-70.344 9.5c2.021 0.442 3.532 2.254 3.532 4.406h0.75c-0.40535-2.2059-2.0906-3.993-4.2812-4.4062zm14.062 0c-2.189 0.413-3.875 2.2-4.28 4.406h0.75c0-2.1524 1.5111-3.9637 3.5312-4.4062zm1.9375 0c2.021 0.442 3.532 2.254 3.532 4.406h0.75c-0.40535-2.2059-2.0906-3.993-4.2812-4.4062zm14.062 0c-2.189 0.413-3.875 2.2-4.28 4.406h0.75c0-2.1524 1.5111-3.9637 3.5312-4.4062zm1.9375 0c2.021 0.442 3.532 2.254 3.532 4.406h0.75c-0.40535-2.2059-2.0906-3.993-4.2812-4.4062zm14.062 0c-2.189 0.413-3.875 2.2-4.28 4.406h0.75c0-2.1524 1.5111-3.9637 3.5312-4.4062zm1.9375 0c2.021 0.442 3.532 2.254 3.532 4.406h0.75c-0.40535-2.2059-2.0906-3.993-4.2812-4.4062zm14.062 0c-2.189 0.413-3.875 2.2-4.28 4.406h0.75c-0.000003-2.1524 1.5111-3.9637 3.5312-4.4062z" fill="url(#linearGradient20126)"/>
    <path id="path2901" opacity=".3" d="m6.5312 9.5625c-0.266 0.6015-0.4444 1.2485-0.5 1.9375 2.1261 0.015 3.8906 1.507 4.3438 3.5 0.074-0.323 0.125-0.655 0.125-1 0-2.302-1.7373-4.172-3.9688-4.4375zm82.938 0c-2.232 0.2655-3.969 2.1355-3.969 4.4375 0 0.34535 0.05123 0.6769 0.125 1 0.45319-1.993 2.2177-3.4853 4.3438-3.5-0.05569-0.68982-0.23378-1.3361-0.5-1.9375zm-83.469 15.938v2c2.1387 0 3.9181 1.4991 4.375 3.5 0.07377-0.3231 0.125-0.65465 0.125-1 0-2.484-2.016-4.5-4.5-4.5zm84 0c-2.484 0-4.5 2.016-4.5 4.5 0 0.34535 0.05123 0.6769 0.125 1 0.45687-2.0009 2.2363-3.5 4.375-3.5v-2zm-84 16v2c2.1387 0 3.9181 1.4991 4.375 3.5 0.07377-0.3231 0.125-0.65465 0.125-1 0-2.484-2.016-4.5-4.5-4.5zm84 0c-2.484 0-4.5 2.016-4.5 4.5 0 0.34535 0.05123 0.6769 0.125 1 0.45687-2.0009 2.2363-3.5 4.375-3.5v-2zm-84 16v2c2.1387 0 3.9181 1.4991 4.375 3.5 0.07377-0.3231 0.125-0.65465 0.125-1 0-2.484-2.016-4.5-4.5-4.5zm84 0c-2.484 0-4.5 2.016-4.5 4.5 0 0.34535 0.05123 0.6769 0.125 1 0.45687-2.0009 2.2363-3.5 4.375-3.5v-2zm-84 16v2c2.1387-0.000003 3.9181 1.4991 4.375 3.5 0.07318-0.32183 0.125-0.65612 0.125-1 0-2.484-2.016-4.5-4.5-4.5zm84 0c-2.484 0-4.5 2.016-4.5 4.5 0 0.34388 0.05182 0.67817 0.125 1 0.45687-2.0009 2.2363-3.5 4.375-3.5v-2zm-73.5 10c-2.484 0-4.5 2.016-4.5 4.5-2.4543 0-4.5404-1.463-5.4688-3.562-0.1656 0.019-0.3293 0.061-0.5 0.062 0.2496 3.091 2.8111 5.5 5.9688 5.5 0-2.484 2.016-4.5 4.5-4.5s4.5 2.016 4.5 4.5h7c0-2.484 2.016-4.5 4.5-4.5s4.5 2.016 4.5 4.5h7c0-2.484 2.016-4.5 4.5-4.5s4.5 2.016 4.5 4.5h7c0-2.484 2.016-4.5 4.5-4.5s4.5 2.016 4.5 4.5h7c-0.000004-2.484 2.016-4.5 4.5-4.5 2.4522 0 4.4493 1.9661 4.5 4.4062 2.6885-0.44512 4.746-2.647 4.9688-5.4062-0.17068-0.0012-0.33432-0.04279-0.5-0.0625-0.799 1.804-2.453 3.134-4.469 3.468-0.051-2.44-2.048-4.406-4.5-4.406-2.484 0-4.5 2.016-4.5 4.5h-7c0-2.484-2.016-4.5-4.5-4.5s-4.5 2.016-4.5 4.5h-7c0-2.484-2.016-4.5-4.5-4.5s-4.5 2.016-4.5 4.5h-7c0-2.484-2.016-4.5-4.5-4.5s-4.5 2.016-4.5 4.5h-7c0-2.484-2.016-4.5-4.5-4.5z" fill="url(#radialGradient20128)"/>
   </g>
   <g id="layer3" transform="translate(143.17 916.04)">
    <rect id="rect4180" opacity=".3" height="66" width="66" y="15" x="15" fill="url(#linearGradient20130)"/>
    <rect id="rect2411" height="64" width="64" y="16" x="16" fill="url(#linearGradient20132)"/>
    <g id="g3963" opacity=".8" clip-path="url(#clipPath4146)" transform="translate(-4.4092e-7 -10)">
     <path id="path3870" style="color:#000000" d="m63.176 37.577c1.3695-0.39771 2.8078 0.36799 3.2055 1.7375 0.26277 0.90483 0.01648 1.8361-0.58162 2.4793 0.58655 0.47866 1.0897 1.0561 1.5055 1.7105 0.67528-0.47186 1.3964-0.88205 2.1926-1.19-0.06956-0.13999-0.14562-0.27731-0.19075-0.43272-0.40846-1.4065 0.40358-2.8832 1.8101-3.2917 1.0305-0.29927 2.09 0.06539 2.7465 0.82944 0.71646-1.3394 1.9296-2.4116 3.4859-2.8997-0.36546-1.2584 0.35998-2.5777 1.6184-2.9431 1.1849-0.34412 2.4063 0.29254 2.8521 1.4171 0.32427-0.23589 0.70211-0.43169 1.1094-0.54996 1.8877-0.54819 3.8665 0.53996 4.4147 2.4276 0.01796 0.06184 0.0078 0.1268 0.02228 0.18878 0.5619-0.24483 1.1335-0.45935 1.7357-0.63424 1.6025-0.46537 3.1983-0.63221 4.7794-0.57446 0.79208-1.3548 2.0873-2.4285 3.7134-2.9007 3.3682-0.97815 6.8831 0.9547 7.8612 4.3229 0.14672 0.50522 0.22646 1.0197 0.24699 1.5228 2.1491-0.3304 4.2499 0.9638 4.8726 3.1082 0.12227 0.42102 0.17183 0.83567 0.16855 1.2527 0.2622 0.12185 0.51679 0.24917 0.76579 0.39589 0.63234-0.96454 1.5939-1.732 2.8112-2.0855 2.6279-0.76317 5.3354 0.66766 6.0663 3.1845 0.73092 2.5169-0.78897 5.1754-3.4169 5.9385-0.39479 0.11465-0.79196 0.1614-1.184 0.18113 0.12908 3.8894-2.3625 7.5197-6.2725 8.6552-1.2289 0.3569-2.4795 0.42203-3.669 0.252-1.92 2.7901-4.7482 4.9584-8.2544 5.9767-4.7374 1.3758-9.6028 0.33061-13.287-2.3892-0.58501 0.61766-1.3331 1.103-2.2091 1.3574-2.331 0.67695-4.7547-0.41753-5.8058-2.5117-0.02951 0.0088-0.06039 0.01754-0.09003 0.02614-3.47 1.0077-7.0196 0.12201-9.6027-2.0274-0.85466 1.6019-2.3363 2.8588-4.2177 3.4051-3.3969 0.98648-6.954-0.7078-8.3443-3.8572-0.39834 0.22718-0.80841 0.43002-1.2682 0.56353-3.1461 0.91365-6.4442-0.89994-7.3578-4.046-0.91365-3.1461 0.89994-6.4442 4.046-7.3578 0.32887-0.09551 0.65822-0.15163 0.98647-0.18886 0.33617-0.60813 0.87158-1.0666 1.5527-1.2644 0.70433-0.20454 1.4424-0.08217 2.0659 0.27864-0.12887-3.2244 1.9287-6.2548 5.1671-7.1953 0.70473-0.20466 1.4091-0.26407 2.1065-0.25381-0.06387-1.1722 0.66728-2.2764 1.843-2.6179z" fill="url(#linearGradient20134)"/>
     <path id="path3739" style="color:#000000" d="m20.5 50.312c-0.95045 0-1.8285 0.30559-2.5312 0.8125-0.58004-0.08942-1.1762-0.15625-1.7812-0.15625-2.6437 0-5.0504 0.91554-7 2.4062-0.2257-0.035-0.4522-0.062-0.688-0.062-2.3125 0-4.1875 1.7719-4.1875 3.9688 0 0.82384 0.26727 1.5839 0.71875 2.2188-0.268 0.97769-0.40625 1.9997-0.40625 3.0625 0 1.0735 0.13301 2.1073 0.40625 3.0938-0.6199-0.279-1.3073-0.437-2.0312-0.437-2.7365 0-4.9375 2.201-4.9375 4.9375s2.201 4.9688 4.9375 4.9688c0.36612 0 0.719-0.04965 1.0625-0.125-0.000643 0.04129 0 0.08355 0 0.125 0 4.3167 3.4958 7.8125 7.8125 7.8125 2.786 0 5.2097-1.4621 6.5938-3.6562 2.0411 1.841 4.7536 2.9688 7.7188 2.9688 4.015 0 7.533-2.072 9.5938-5.1875 1.2942 0.97115 2.8824 1.5625 4.625 1.5625 2.725 0 5.1192-1.4353 6.5-3.5625 0.69317 0.55616 1.5421 0.90625 2.5 0.90625 1.3093 0 2.4789-0.6295 3.2188-1.5938 0.32267 0.20323 0.71549 0.34375 1.125 0.34375 1.1563 0 2.0938-0.93749 2.0938-2.0938s-0.93749-2.0938-2.0938-2.0938c-0.18067 0-0.36401 0.01947-0.53125 0.0625-0.509-1.456-1.821-2.527-3.408-2.688-0.086-1.348-1.192-2.406-2.562-2.406-0.3812 0-0.73681 0.07047-1.0625 0.21875-1.4183-1.5835-3.4881-2.5938-5.7812-2.5938-1.0245 0-1.9799 0.20126-2.875 0.5625-0.22426-2.3734-2.2241-4.25-4.6562-4.25-0.28018 0-0.54588 0.04651-0.8125 0.09375 0.03207-0.21766 0.0625-0.42967 0.0625-0.65625 0-2.5052-2.0573-4.5312-4.5625-4.5312-0.93946 0-1.8073 0.2609-2.5312 0.75-0.12466-0.14758-0.24323-0.29637-0.375-0.4375 0.01212-0.12327 0.03125-0.24872 0.03125-0.375 0-2.1969-1.875-3.9688-4.1875-3.9688z" fill="url(#linearGradient20136)"/>
     <path id="path3772" style="color:#000000" d="m94.09 34.889c-1.7951 0-3.2871 1.3348-3.5312 3.0625-0.99024 0.39781-1.8962 0.90849-2.7188 1.5625-0.48316-0.50848-1.1494-0.84375-1.9062-0.84375-1.4646 0-2.6562 1.1917-2.6562 2.6562 0 0.01073-0.00013 0.02055 0 0.03125-1.0357 0.06809-2.0271 0.26679-2.9688 0.59375-0.55027-0.63705-1.3734-1.0312-2.2813-1.0312-1.6368 0-2.9673 1.3085-3 2.9375-0.04347-0.0022-0.08097-0.03125-0.125-0.03125-1.2037 0-2.2233 0.86986-2.4688 2-2.4536 0.16605-4.5626 1.5198-5.7812 3.5-0.4926-0.20835-1.0253-0.3125-1.5938-0.3125-2.274 0-4.125 1.851-4.125 4.125s1.851 4.0938 4.125 4.0938c0.53425 0 1.0316-0.09607 1.5-0.28125 1.2861 2.1833 3.6578 3.625 6.375 3.625 0.87777 0 1.7188-0.15691 2.5-0.4375 2.0858 2.4103 5.156 3.9375 8.5938 3.9375 3.5742 0 6.7584-1.6406 8.8438-4.2188 1.215 1.3833 2.9829 2.2812 4.9688 2.2812 1.5447 0 2.9666-0.55175 4.0938-1.4375 1.0575 0.54918 2.2573 0.875 3.5312 0.875 1.5489 0 2.9813-0.46094 4.1875-1.25 0.49805 0.25713 1.0571 0.40625 1.6562 0.40625 1.7433 0 3.213-1.236 3.5625-2.875 0.23611 1.5401 1.5501 2.7188 3.1562 2.7188 1.7729 0 3.2188-1.4146 3.2188-3.1875 0-1.6151-1.1974-2.9623-2.75-3.1875 0.0458-0.25866 0.0937-0.54069 0.0937-0.8125 0-2.5052-2.026-4.5312-4.5312-4.5312-0.84008 0-1.6378 0.25822-2.3125 0.65625-0.22398-0.31986-0.44981-0.65593-0.71875-0.9375 0.10594-0.25048 0.15625-0.52343 0.15625-0.8125 0-1.1563-0.93749-2.0938-2.0938-2.0938-0.0932 0-0.1913 0.01945-0.28125 0.03125-0.0172-1.7967-1.4805-3.25-3.2812-3.25-0.47744 0-0.93457 0.09784-1.3438 0.28125-1.4251-2.523-3.8275-4.4148-6.6875-5.1875-0.40134-1.5259-1.7544-2.6562-3.4062-2.6562z" fill="url(#linearGradient20138)"/>
     <path id="path3671" opacity=".8" style="color:#000000" d="m10.661 61.763c3.0264 0.30734 5.375 2.8925 5.375 6 0 0.50225-0.07128 0.97124-0.1875 1.4375 1.3556-0.82923 2.9508-1.3125 4.6562-1.3125 0.69713 0 1.3801 0.09893 2.0312 0.25 0.47506-1.3625 1.7568-2.3438 3.2812-2.3438 1.9271 0 3.4688 1.5729 3.4688 3.5 0 0.92305-0.35225 1.751-0.9375 2.375 0.19649-0.02238 0.39127 0 0.59375 0 2.8907 0 5.25 2.3281 5.25 5.2188s-2.3593 5.25-5.25 5.25c-0.40398 0-0.77855-0.0696-1.1562-0.15625-1.0117 1.427-2.4356 2.5193-4.0938 3.1562 0.0042 0.11543 0.03125 0.22731 0.03125 0.34375 0 5.2417-4.2583 9.4688-9.5 9.4688-1.5304 0-2.9698-0.3566-4.25-1-2.6246 1.7834-5.8064 2.8438-9.2188 2.8438-6.8387 0-12.693-4.2051-15.156-10.156-4.7852-0.5966-8.5-4.647-8.5-9.5937 0-5.3573 4.3302-9.7188 9.6875-9.7188 1.1595 0 2.2818 0.22061 3.3125 0.59375 0.85422-0.73119 1.7894-1.3932 2.7812-1.9375-0.0827-0.23333-0.15625-0.48833-0.15625-0.75 0-1.2333 1.0166-2.2188 2.25-2.2188 0.94828 0 1.7699 0.57244 2.0938 1.4062 1.0568-0.24278 2.1573-0.40621 3.2813-0.4375 0.31043-1.2856 1.4628-2.2188 2.8438-2.2188 1.1744 0 2.1886 0.6901 2.6562 1.6875 1.0788-1.0542 2.5545-1.6875 4.1875-1.6875 0.20716 0 0.42324-0.02049 0.625 0z" fill="url(#linearGradient20140)"/>
     <path id="path3713" opacity=".8" style="color:#000000" d="m7.6562 74.656c3.5005 0 6.464 2.1862 7.625 5.2812 2.9227 0.05208 5.2812 2.4399 5.2812 5.375 0 2.9677-2.4073 5.375-5.375 5.375-1.1753 0-2.2405-0.3911-3.125-1.0312-1.2736 0.82112-2.7782 1.3125-4.4062 1.3125-0.41217 0-0.82299-0.0348-1.2188-0.0937-0.4608 0.55836-1.157 0.9375-1.9375 0.9375-1.11 0-2.0426-0.72039-2.375-1.7188-0.573 0.1721-1.1834 0.28125-1.8125 0.28125-3.4688 0-6.2812-2.8125-6.2812-6.2812 0-2.9051 1.9776-5.3448 4.6562-6.0625-0.02473-0.15323-0.0625-0.30854-0.0625-0.46875 0-1.6188 1.3187-2.9062 2.9375-2.9062 0.86619 0 1.6509 0.37137 2.1875 0.96875 1.1569-0.62848 2.4971-0.96875 3.9062-0.96875z" fill="url(#linearGradient20142)"/>
     <path id="path5536" opacity=".5" style="color:#000000" d="m83.406 60.312c0.95045 0 1.8285 0.30559 2.5312 0.8125 0.58004-0.08942 1.1762-0.15625 1.7812-0.15625 2.6437 0 5.0504 0.91554 7 2.4062 0.2252-0.03559 0.45167-0.0625 0.6875-0.0625 2.3125 0 4.1875 1.7719 4.1875 3.9688 0 0.82384-0.26727 1.5839-0.71875 2.2188 0.268 0.97769 0.40625 1.9997 0.40625 3.0625 0 1.0735-0.13301 2.1073-0.40625 3.0938 0.61992-0.27902 1.3073-0.4375 2.0312-0.4375 2.7365 0 4.9375 2.201 4.9375 4.9375s-2.201 4.9688-4.9375 4.9688c-0.36612 0-0.719-0.0496-1.0625-0.125 0.00064 0.0413 0 0.0836 0 0.125 0 4.3167-3.4958 7.8125-7.8125 7.8125-2.786 0-5.2097-1.4621-6.5938-3.6562-2.0411 1.841-4.7536 2.9688-7.7188 2.9688-4.015 0-7.533-2.072-9.5938-5.1875-1.2942 0.97115-2.8824 1.5625-4.625 1.5625-2.725 0-5.1192-1.4353-6.5-3.5625-0.69317 0.55616-1.5421 0.90625-2.5 0.90625-1.3093 0-2.4789-0.6295-3.2188-1.5938-0.32267 0.20323-0.71549 0.34375-1.125 0.34375-1.1563 0-2.0938-0.93749-2.0938-2.0938s0.93749-2.0938 2.0938-2.0938c0.18067 0 0.36401 0.0195 0.53125 0.0625 0.50733-1.456 1.8198-2.5264 3.4062-2.6875 0.08623-1.3481 1.1927-2.4062 2.5625-2.4062 0.3812 0 0.73681 0.07047 1.0625 0.21875 1.419-1.584 3.489-2.594 5.782-2.594 1.0245 0 1.9799 0.20126 2.875 0.5625 0.22426-2.3734 2.2241-4.25 4.6562-4.25 0.28018 0 0.54588 0.04651 0.8125 0.09375-0.03207-0.21766-0.0625-0.42967-0.0625-0.65625 0-2.5052 2.0573-4.5312 4.5625-4.5312 0.93946 0 1.8073 0.2609 2.5312 0.75 0.12466-0.14758 0.24323-0.29637 0.375-0.4375-0.01212-0.12327-0.03125-0.24872-0.03125-0.375 0-2.1969 1.875-3.9688 4.1875-3.9688z" fill="url(#linearGradient20144)"/>
     <path id="path5540" opacity=".8" style="color:#000000" d="m104.09 56.889c-1.7951 0-3.2871 1.3348-3.5312 3.0625-0.99024 0.39781-1.8962 0.90849-2.7188 1.5625-0.48316-0.50848-1.1494-0.84375-1.9062-0.84375-1.4646 0-2.6562 1.1916-2.6562 2.6562 0 0.01073-0.00013 0.02055 0 0.03125-1.0357 0.06809-2.0271 0.26679-2.9688 0.59375-0.55027-0.63705-1.3734-1.0312-2.2813-1.0312-1.6368 0-2.9673 1.3085-3 2.9375-0.04347-0.0022-0.08097-0.03125-0.125-0.03125-1.2037 0-2.2233 0.86986-2.4688 2-2.4536 0.16605-4.5626 1.5198-5.7812 3.5-0.4926-0.20835-1.0253-0.3125-1.5938-0.3125-2.274 0-4.125 1.851-4.125 4.125s1.851 4.0938 4.125 4.0938c0.53425 0 1.0316-0.09607 1.5-0.28125 1.2861 2.1833 3.6578 3.625 6.375 3.625 0.87777 0 1.7188-0.15691 2.5-0.4375 2.0858 2.4103 5.156 3.9375 8.5938 3.9375 3.5742 0 6.7584-1.6406 8.8438-4.2188 1.215 1.3833 2.9829 2.2812 4.9688 2.2812 1.5447 0 2.9666-0.55175 4.0938-1.4375 1.0575 0.54918 2.2573 0.875 3.5312 0.875 1.5489 0 2.9813-0.46094 4.1875-1.25 0.49805 0.25713 1.0571 0.40625 1.6562 0.40625 1.7433 0 3.213-1.236 3.5625-2.875 0.23611 1.5401 1.5501 2.7188 3.1562 2.7188 1.7729 0 3.2188-1.4146 3.2188-3.1875 0-1.6151-1.1974-2.9623-2.75-3.1875 0.0458-0.25866 0.0937-0.54069 0.0937-0.8125 0-2.5052-2.026-4.5312-4.5312-4.5312-0.84008 0-1.6378 0.25822-2.3125 0.65625-0.22398-0.31986-0.44981-0.65593-0.71875-0.9375 0.10594-0.25048 0.15625-0.52343 0.15625-0.8125 0-1.1563-0.93749-2.0938-2.0938-2.0938-0.0932 0-0.1913 0.01945-0.28125 0.03125-0.0172-1.7967-1.4805-3.25-3.2812-3.25-0.47744 0-0.93457 0.09784-1.3438 0.28125-1.4251-2.523-3.8275-4.4148-6.6875-5.1875-0.40134-1.5259-1.7544-2.6562-3.4062-2.6562z" fill="url(#linearGradient20146)"/>
    </g>
    <path id="rect4171" opacity=".15" d="m16 16v64h64v-64h-64zm2 2h60v60h-60v-60z" fill="#3365a8"/>
    <path id="rect4183" opacity=".3" d="m16.438 16c-0.03654 0.0073-0.06024 0.01707-0.09375 0.03125-0.07367 0.02998-0.13462 0.06872-0.1875 0.125-0.09518 0.1013-0.15946 0.22767-0.15625 0.375v62.906 0.03125c0.0019 0.05425 0.01433 0.10669 0.03125 0.15625 0.01558 0.04455 0.03654 0.08657 0.0625 0.125 0.01089 0.01749 0.01848 0.04637 0.03125 0.0625 0.0088 0.01017 0.02176 0.02176 0.03125 0.03125 0.05288 0.05628 0.11383 0.09502 0.1875 0.125 0.02947 0.01199 0.06172 0.02443 0.09375 0.03125 0.03461 0.0069 0.05711-0.000004 0.09375 0h16.062 3.8125 1.6562 27.969 13.438c0.07531-0.000007 0.12225-0.0036 0.1875-0.03125 0.19576-0.08281 0.34373-0.27407 0.34375-0.5 0.000591-0.0104-0.000001-0.02071 0-0.03125v-62.906c-0.000007-0.07531-0.0036-0.12225-0.03125-0.1875-0.08281-0.19576-0.27407-0.34373-0.5-0.34375h-13.438-27.969-1.6562-3.8125-16.062c-0.03777-0.004-0.05597-0.004-0.09375 0zm0.65625 1.0938h14.688 4.1562 1.125 30.75 11.094v61.812h-11.094-30.75-1.125-4.1562-14.688v-61.812z" fill="#3365a8"/>
   </g>
   <g id="layer5" transform="translate(143.17 916.04)">
    <rect id="rect3171" height="66" stroke="#fff" stroke-linecap="round" stroke-width=".5" fill="url(#linearGradient20148)" rx="12" ry="12" width="66" opacity=".1" clip-path="url(#clipPath3613-37)" filter="url(#filter3794-75)" y="15" x="15"/>
   </g>
   <path id="path5534" opacity=".05" style="color:#000000" d="m206.33 939.79v0.0313c-1.3082-0.084-2.3592 0.6274-3.0312 1.25-0.70278 0.65104-1.2159 1.0794-1.25 1.0938-0.01-0.002-0.0212 0.002-0.0313 0-2.2243-0.37892-4.7286-0.39714-6.7812 1.2188-0.0118 0.009-0.0195 0.0219-0.0313 0.0313-5.2358 3.7318-8.8029 9.004-13.094 13.188-1.7093 1.3545-3.8537 2.1939-6.0625 3.1562-2.2332 0.97295-4.5462 2.0783-6.375 4.0938-0.0104 0.0114-0.0209 0.0197-0.0313 0.0313-1.2747 1.2833-1.5046 3.0082-1.1875 4.5 0.31982 1.5046 1.1218 2.871 1.9062 3.9375a1.0152 1.0152 0 0 0 0 0.0313c4.73 6.2492 11.445 10.535 18.25 13.906a1.0152 1.0152 0 0 0 0.0313 0.0313c4.6937 2.1232 9.8755 4.262 15.406 3.9375 0.0102-0.00038 0.0211 0.00044 0.0313 0 2.3445-0.10071 4.7012-1.6571 5.0625-4.1562h0.0313c0.004-0.0308-0.004-0.0627 0-0.0937 0.006-0.0219 0.0258-0.0406 0.0313-0.0625 0.7169-2.873 0.31855-5.6849 0.0313-8.3438-0.29261-2.708-0.45822-5.2362 0.5-7.5938a1.0152 1.0152 0 0 0 0.0313 -0.0937c1.6584-5.471 4.0833-11.039 4.2188-17.156a1.0152 1.0152 0 0 0 0 -0.0937c-0.13997-2.1468-1.3559-3.7922-2.5625-5.1562 1.5537-3.0123-0.21026-7.0354-3.6875-7.5625v-0.0313c-0.0283-0.006-0.065 0.006-0.0937 0-0.33675-0.066-0.70631-0.10084-1.0938-0.0937-0.022 0.0004-0.0403-0.00076-0.0625 0-0.0554 0.002-0.1-0.004-0.15625 0z"/>
   <path id="path5528" opacity=".1" style="color:#000000" d="m206.39 940.79c-1.9797-0.28098-2.9872 2.2242-4.2547 2.389-2.1841-0.41071-4.4892-0.42793-6.3122 1.0273-5.0581 3.5928-8.6033 8.819-13.005 13.111-3.7686 3.0503-9.0905 3.5459-12.428 7.2543-2.0755 2.0479-0.67225 5.1902 0.77779 7.1616 4.5863 6.0594 11.158 10.282 17.891 13.618 4.6796 2.1168 9.7161 4.1978 14.953 3.8816 1.9749-0.0743 3.9819-1.4324 4.19-3.4215 1.4126-5.3485-1.5333-10.951 0.60123-16.203 1.6814-5.5468 4.0569-11.055 4.1866-16.913-0.12884-1.976-1.4147-3.6059-2.6936-4.9994 1.9134-2.4006 0.25712-6.4171-2.7812-6.8125-0.36889-0.0767-0.74791-0.12221-1.125-0.0937z"/>
   <path id="path5348" opacity=".3" style="color:#000000" d="m206.45 941.7c-1.1208 0.0792-2.1772 0.70374-2.7812 1.75-0.18459 0.31972-0.2997 0.65768-0.375 1-0.0943-0.0349-0.1858-0.0936-0.28125-0.125-0.50411-0.16609-1.0466-0.26509-1.6562-0.34375-0.074-0.01-0.14222-0.0229-0.21875-0.0313-0.0814-0.009-0.16542-0.0236-0.25-0.0313-0.14844-0.0132-0.3407-0.0219-0.5-0.0313-0.35417-0.02-0.73746-0.0289-1.1562-0.0313-0.20308-0.001-0.40612 0.0166-0.625 0.0625-0.0427 0.009-0.0818 0.0209-0.125 0.0313-0.0326 0.008-0.0608 0.0223-0.0937 0.0313-0.2266 0.0599-0.44718 0.11521-0.6875 0.21875-0.0803 0.0346-0.16823 0.0858-0.25 0.125-3.8115 1.8272-9.1389 8.5723-13.25 12.938-1.3414 1.4243-3.185 2.3961-5.125 3.2812-0.16336 0.0729-0.33547 0.14533-0.5 0.21875-1.8694 0.83442-3.7758 1.6096-5.375 2.625-0.0452 0.0287-0.0803 0.0647-0.125 0.0937-0.75937 0.49395-1.4334 1.0442-2 1.6875-0.20166 0.17912-0.36824 0.36554-0.5 0.59375-1.933 3.348 4.6434 10.764 14.688 16.562 10.044 5.799 19.754 7.7856 21.688 4.4375 0.12081-0.20925 0.19443-0.41661 0.25-0.65625 0.85978-2.4629 0.44639-5.4284 0.125-8.4062-0.004-0.006 0.005-0.0249 0-0.0313-0.0256-0.23698-0.0703-0.48197-0.0937-0.71875-0.21442-2.1754-0.29521-4.3307 0.28125-6.25 1.6848-5.6095 4.7227-13.341 4.5625-17.625 0.0111 0.01 0.0202 0.0216 0.0313 0.0313-0.007-0.22604-0.0359-0.4182-0.0625-0.625-0.0226-0.19264-0.0544-0.35689-0.0937-0.53125-0.037-0.1561-0.074-0.32839-0.125-0.46875-0.008-0.0224-0.0228-0.0405-0.0313-0.0625-0.0605-0.15762-0.10837-0.30218-0.1875-0.4375-0.18282-0.31265-0.36161-0.58019-0.53125-0.84375-0.0304-0.0468-0.0636-0.0796-0.0937-0.125-0.14152-0.21601-0.26958-0.4064-0.40625-0.59375-0.0551-0.0745-0.10138-0.14819-0.15625-0.21875-0.11481-0.15043-0.22915-0.27188-0.34375-0.40625-0.0745-0.0863-0.14361-0.1693-0.21875-0.25-0.2609-0.28408-0.5283-0.54579-0.8125-0.78125 0.25949-0.23669 0.50252-0.49211 0.6875-0.8125 0.9665-1.674 0.39277-3.8148-1.2812-4.7812-0.25865-0.14933-0.53763-0.23508-0.8125-0.3125-0.0873-0.0338-0.17949-0.0433-0.28125-0.0625-0.30032-0.0577-0.60658-0.11493-0.90625-0.0937z"/>
   <path id="path5238" style="color:#000000" d="m209.73 945.94a3.5 3.5 0 0 1 -6.0622 -3.5 3.5 3.5 0 0 1 6.0622 3.5z" fill="url(#radialGradient20150)"/>
   <path id="path5240" opacity=".61135" d="m205.46 941.54s-2.3113 1.5554 0.46854 3.3457c3.6313 2.3387 4.0329-1.6153 4.0329-1.6153 0.64924 2.7873-1.9621 4.1505-1.9621 4.1505l-4.4824-2.5155s-0.8472-1.7919 1.943-3.3654z" fill="#2a0a00"/>
   <path id="path5242" d="m206.26 944.95c-2.6404-1.5244-3.6779-2.0817-7.0282-2.1002-3.7661-0.0208-10.228 8.2985-15.027 13.394-3.5771 3.7982-10.776 4.4479-13.631 8.5167l18.187 10.5 18.187 10.5c2.0958-4.5076-0.94091-11.067 0.55992-16.064 2.0136-6.7041 5.9875-16.46 4.0865-19.711-1.6912-2.8922-2.6925-3.5121-5.3329-5.0365z" fill="url(#linearGradient20152)"/>
   <path id="path5246" opacity=".69432" d="m207.22 945.54c1.4748 0.95304 2.3495 1.8456 3.6179 4.0148 1.901 3.2511-2.0729 13.007-4.0865 19.711-1.5008 4.997 1.5359 11.556-0.55991 16.064l0.75777 0.4375c2.0958-4.5076-0.94091-11.067 0.55992-16.064 2.0136-6.7041 5.9875-16.46 4.0865-19.711-1.4537-2.4861-2.4623-3.3065-4.3757-4.4523z" fill="url(#linearGradient20154)"/>
   <path id="path5248" opacity=".5" d="m206.26 944.95c-2.6404-1.5244-3.6779-2.0817-7.0282-2.1002-0.5442-0.003-1.1493 0.17002-1.7929 0.48041 2.3625 0.90048 4.7098 2.0246 7.026 3.3618 2.8022 1.6178 5.3606 3.4352 7.6375 5.4199-0.027-0.85779-0.19294-1.5841-0.50945-2.1254-1.6912-2.8922-2.6925-3.5121-5.3329-5.0365z" fill="url(#linearGradient20156)"/>
   <path id="path5252" opacity=".8" style="color:#000000" d="m194.23 965.29c-5.5115-3.1821-10.901-5.2027-14.975-5.8358-0.22557 0.10398-0.45198 0.20062-0.67967 0.30222 4.1246 0.54294 9.7083 2.6056 15.436 5.9125 6.0844 3.5128 10.89 7.5948 13.304 11.028-0.0267-0.24725-0.0537-0.4928-0.0781-0.73971-2.4901-3.3551-7.1371-7.278-13.007-10.667z" fill="url(#linearGradient20158)"/>
   <path id="path5256" style="color:#000000" d="m197.05 970.19a4.1979 1.1047 30.093 0 1 -7.2641 -4.2096 4.1979 1.1047 30.093 1 1 7.2641 4.2096z" fill="url(#radialGradient20160)"/>
   <path id="path5258" style="color:#000000" d="m194.45 964.91c-5.3238-3.0737-10.548-5.0622-14.575-5.7628-0.20804 0.10028-0.40762 0.20861-0.61864 0.30588 4.0745 0.63313 9.4636 2.6538 14.975 5.8358 5.8697 3.3889 10.517 7.3118 13.007 10.667-0.0246-0.2491-0.0574-0.4916-0.0781-0.73972-2.5559-3.2731-7.0632-7.0459-12.71-10.306z" fill="url(#linearGradient20162)"/>
   <path id="path5264" opacity=".6" d="m204.52 943.98c-1.5628-0.80071-2.7731-1.1119-5.2859-1.1258-3.7661-0.0208-10.228 8.2985-15.027 13.394-3.5771 3.7982-10.776 4.4479-13.631 8.5167l0.75777 0.4375c2.8558-4.0688 10.054-4.7184 13.631-8.5167 4.7992-5.0959 11.261-13.415 15.027-13.394 2.5128 0.0139 3.7231 0.3251 5.2859 1.1258-0.24845-0.13819-0.52947-0.32052-0.75778-0.4375z" fill="url(#linearGradient20164)"/>
   <path id="path5268" style="color:#000000" d="m206.95 985.76a21 7 30 1 1 -36.373 -21 21 7 30 0 1 36.373 21z" fill="url(#linearGradient20166)"/>
   <path id="path5270" d="m191.94 968.61c-7.3478-4.2422-14.502-6.4986-18.738-6.2087-0.8281 0.52652-1.5731 1.1055-2.1787 1.8048 2.6962-2.5192 11.82-0.43773 21.236 4.9988 9.4164 5.4366 15.781 12.297 14.947 15.892 0.0605-0.17464 0.10693-0.36234 0.15504-0.54197 0.3521-3.7745-6.0704-10.546-15.422-15.945z" fill="url(#linearGradient20168)"/>
   <path id="path5272" opacity=".5" style="color:#000000" d="m192.26 969.2c-0.76508-0.44172-1.5212-0.85149-2.277-1.2515-0.54239-0.28417-1.0817-0.54704-1.6176-0.80762-4.6258-2.2495-8.9495-3.616-12.223-3.931 0.0592 3.2716 5.0163 8.5479 12.235 12.715 7.2182 4.1674 14.266 5.8223 17.129 4.2378-1.9095-2.6773-5.2548-5.7385-9.5158-8.6198-0.49678-0.33069-0.98843-0.67085-1.5082-0.99706-0.7243-0.45457-1.4572-0.90447-2.2223-1.3462z" fill="url(#linearGradient20170)"/>
   <path id="path5274" opacity=".5" style="color:#000000" d="m192.26 969.2c-10.044-5.799-19.754-7.7859-21.687-4.4378-1.933 3.348 4.6424 10.763 14.687 16.562 10.044 5.799 19.754 7.7859 21.687 4.4378 1.933-3.348-4.6424-10.763-14.687-16.562zm-0.0957 0.16576c9.7678 5.6394 16.256 12.696 14.476 15.778-1.7796 3.0823-11.148 1.0151-20.916-4.6243-9.7678-5.6394-16.242-12.719-14.463-15.801 1.7796-3.0823 11.134-0.99141 20.902 4.648z" fill="url(#linearGradient20172)"/>
   <path id="path5276" opacity=".5" style="color:#000000" d="m192.26 969.2c-10.044-5.799-19.754-7.7859-21.687-4.4378-1.933 3.348 4.6424 10.763 14.687 16.562 10.044 5.799 19.754 7.7859 21.687 4.4378 1.933-3.348-4.6424-10.763-14.687-16.562zm-0.0957 0.16576c9.7678 5.6394 16.256 12.696 14.476 15.778-1.7796 3.0823-11.148 1.0151-20.916-4.6243-9.7678-5.6394-16.242-12.719-14.463-15.801 1.7796-3.0823 11.134-0.99141 20.902 4.648z" fill="url(#radialGradient20174)"/>
   <path id="path5278" style="color:#000000" d="m206.66 943.08a1.1381 1.9858 70.854 1 1 -0.74654 -2.1502 1.1381 1.9858 70.854 1 1 0.74654 2.1502z" fill="url(#radialGradient20176)"/>
   <path id="path5280" opacity=".61135" d="m208.81 941.82s0.98019 0.93787 0.54968 2.1376c-0.37979 1.0583-1.6126 1.2168-1.6126 1.2168 2.0056-1.6452 1.0629-3.3543 1.0629-3.3543z" fill="#ffe9a5"/>
   <g id="g5282" clip-path="url(#clipPath4728-2)" transform="matrix(.75777 .4375 -.4375 .75777 86.64 900.14)">
    <path id="path5284" opacity="0.08" style="color:#000000" d="m144-30.562c-3.0537 0-5.5625 2.5088-5.5625 5.5625s2.5088 5.5625 5.5625 5.5625 5.5625-2.5088 5.5625-5.5625-2.5088-5.5625-5.5625-5.5625z" transform="matrix(1.4022 0 0 1.4022 -50.024 49.094)" fill="#2b0d00"/>
    <path id="path5286" opacity="0.12" style="color:#000000" d="m144-29.938c-2.7192 0-4.9375 2.2183-4.9375 4.9375s2.2183 4.9375 4.9375 4.9375 4.9375-2.2183 4.9375-4.9375-2.2183-4.9375-4.9375-4.9375z" transform="matrix(1.4022 0 0 1.4022 -50.024 49.094)" fill="#2b0d00"/>
    <path id="path5288" opacity=".2" style="color:#000000" d="m144-29.406c-2.4317 0-4.4062 1.9745-4.4062 4.4062s1.9745 4.4062 4.4062 4.4062 4.4062-1.9745 4.4062-4.4062-1.9745-4.4062-4.4062-4.4062z" transform="matrix(1.4022 0 0 1.4022 -50.024 49.094)" fill="#2b0d00"/>
    <path id="path5290" opacity=".3" style="color:#000000" d="m148-25a4 4 0 1 1 -8 0 4 4 0 1 1 8 0z" transform="matrix(1.4022 0 0 1.4022 -50.024 49.094)" fill="#2b0d00"/>
    <path id="path5292" style="color:#000000" d="m148-25a4 4 0 1 1 -8 0 4 4 0 1 1 8 0z" transform="matrix(1.4022 0 0 1.4022 -50.311 48.664)" fill="url(#radialGradient20178)"/>
    <path id="path5294" opacity=".5" d="m155.65 15.785s-1.0653 2.6686-3.8728 2.8156c-2.4767 0.12972-3.8562-2.1314-3.8562-2.1314 5.064 2.5428 7.7291-0.6842 7.7291-0.6842z" fill="#441b00"/>
    <path id="path5296" style="color:#000000" d="m151.59 8c-2.6609 0-4.8337 1.8582-5.4062 4.3438 2.5798-2.1672 8.1649-2.3484 10.875 0.03125-0.56-2.5038-2.79-4.375-5.47-4.375z" fill="url(#radialGradient20180)"/>
    <path id="path5298" style="color:#000000" d="m153.42-7.8293a2.4745 11.11 0 1 1 -4.9491 0 2.4745 11.11 0 1 1 4.9491 0z" transform="matrix(1.0546 .046439 -.024018 .30799 -9.9897 8.2867)" fill="url(#radialGradient20182)"/>
   </g>
  </g>
  <path id="rect5265-0" d="m5.7756 1029.8v5.0663c0 6.668 5.3434 12.032 11.985 12.032h60.809c6.6418 0 11.985-5.3645 11.985-12.032v-5.0663c0 6.6681-5.3434 12.032-11.985 12.032h-60.809c-6.6418 0-11.985-5.3643-11.985-12.032z" fill-opacity=".23529"/>
  <path id="path5252-0" d="m5.7756 1033.9v1.0133c0 6.668 5.3434 12.032 11.985 12.032h60.809c6.6418 0 11.985-5.3645 11.985-12.032v-1.0133c0 6.6681-5.3434 12.032-11.985 12.032h-60.809c-6.6418 0-11.985-5.3644-11.985-12.032z" fill-opacity=".098039"/>
  <rect id="rect4772" display="none" height="107.79" width="107.79" y="971.68" x="-369.64" fill="none"/>
  <g id="g4788" display="none" transform="matrix(.21052 0 0 .21052 -369.68 971.63)"></g>
  <g id="g4806" display="none" transform="matrix(.21052 0 0 .21052 -369.68 971.63)">
   <g id="g4808" display="inline">
    <path id="path4810" d="m349.1 256.65c-0.265-0.254 37.637 27.605 39.421 25.012 6.362-9.252 82.046-93.137 84.784-116.24 0.242-2.003-0.516-4.096-0.516-4.096s-1.19-0.144-6.325-4.314c-2.692-2.192-5.483-4.581-5.483-4.581-16.054 0.998-57.885 41.559-111.06 103.57" fill="#050505" display="none"/>
   </g>
  </g>
  <g id="g4796" transform="matrix(.21052 0 0 .21052 -369.68 971.63)"></g>
  <rect id="rect3873" rx="6" ry="6" height="84" width="84" display="none" y="974.2" x="-163.06" fill="url(#linearGradient9745)"/>
  <rect id="rect3880" rx="6" ry="6" height="84" width="84" display="none" y="974.2" x="-163.06" fill="url(#linearGradient9745)"/>
  <g id="layer2" display="none" transform="translate(275.39 1104.2)">
   <rect id="rect3745" opacity=".9" rx="6" ry="6" height="85" filter="url(#filter3174)" width="86" y="7" x="5" fill="url(#ButtonShadow-5)"/>
  </g>
  <g id="layer2-9" display="none" transform="translate(143.17 916.04)">
   <path id="rect3745-2" opacity=".9" d="m11 7c-2.8841 0-5.26 2.0143-5.8438 4.7187 2.5086 0.0336 4.5313 2.0773 4.5312 4.5938 0 2.5374-2.0563 4.5938-4.5938 4.5938-0.031404 0-0.062496 0.000628-0.09375 0v7.1562c0.031254-0.000628 0.062346 0 0.09375 0 2.5374 0 4.5938 2.0563 4.5938 4.5938 0 2.5374-2.0563 4.5937-4.5938 4.5938-0.031404 0-0.062496 0.000628-0.09375 0v7.1562c0.031254-0.000628 0.062346 0 0.09375 0 2.5374 0 4.5938 2.0563 4.5938 4.5938 0 2.5374-2.0563 4.5937-4.5938 4.5938-0.031404 0-0.062496 0.000628-0.09375 0l0.0002 7.156c0.031254-0.000628 0.062346 0 0.09375 0 2.5374 0 4.5938 2.0563 4.5938 4.5938 0 2.5374-2.0563 4.5938-4.5938 4.5938-0.031404 0-0.062496 0.000628-0.09375 0v7.1562c0.031254-0.000628 0.062346 0 0.09375 0 2.5374-0.000004 4.5938 2.0563 4.5938 4.5938 0 2.5374-2.0563 4.5938-4.5938 4.5938-0.031404 0-0.062496 0.000628-0.09375 0 0.1444 3.193 2.7693 5.718 6 5.718h0.21875c-0.000628-0.03125 0-0.06235 0-0.09375 0-2.5374 2.0563-4.5937 4.5938-4.5938 2.5374 0 4.5938 2.0563 4.5938 4.5938 0 0.0314 0.000628 0.0625 0 0.09375h7.1562c-0.000628-0.03125 0-0.06235 0-0.09375 0-2.5374 2.0563-4.5937 4.5938-4.5938 2.5374 0 4.5938 2.0563 4.5938 4.5938 0 0.0314 0.000628 0.0625 0 0.09375h7.1562c-0.000628-0.03125 0-0.06235 0-0.09375 0-2.5374 2.0563-4.5937 4.5938-4.5938 2.5374 0 4.5937 2.0563 4.5938 4.5938 0 0.0314 0.000628 0.0625 0 0.09375h7.155c-0.000628-0.03125 0-0.06235 0-0.09375 0-2.5374 2.0563-4.5937 4.5938-4.5938 2.5374 0 4.5937 2.0563 4.5938 4.5938 0 0.0314 0.000628 0.0625 0 0.09375h7.1562c-0.000628-0.03125 0-0.06235 0-0.09375-0.000005-2.5374 2.0563-4.5937 4.5938-4.5938 2.5374 0 4.5937 2.0563 4.5938 4.5938 0 0.01047 0.00007 0.0208 0 0.03125 2.8652-0.36646 5.0861-2.7222 5.2188-5.6562-0.03125 0.000628-0.06235 0-0.09375 0-2.5374-0.000003-4.5937-2.0563-4.5938-4.5938 0-2.5374 2.0563-4.5938 4.5938-4.5938 0.0314 0 0.0625-0.000628 0.09375 0v-7.1562c-0.03125 0.000628-0.06235 0-0.09375 0-2.5374 0.000001-4.5937-2.0563-4.5938-4.5938 0-2.5374 2.0563-4.5937 4.5938-4.5938 0.0314 0 0.0625-0.000628 0.09375 0v-7.1562c-0.03125 0.000628-0.06235 0-0.09375 0-2.5374 0.000001-4.5937-2.0563-4.5938-4.5938 0-2.5374 2.0563-4.5937 4.5938-4.5938 0.0314 0 0.0625-0.000628 0.09375 0v-7.155c-0.03125 0.000628-0.06235 0-0.09375 0-2.5374 0.000001-4.5937-2.0563-4.5938-4.5938 0-2.5374 2.0563-4.5937 4.5938-4.5938 0.0314 0 0.0625-0.000628 0.09375 0v-7.1562c-0.03125 0.000628-0.06235 0-0.09375 0-2.5374 0.000001-4.5937-2.0563-4.5938-4.5938 0-2.5165 2.0227-4.5602 4.5312-4.5938-0.53737-2.4896-2.5803-4.4006-5.1562-4.6875-0.42886 2.094-2.2798 3.6562-4.5 3.6562-2.2307 0-4.0826-1.5787-4.5-3.6875h-7.3438c-0.41736 2.1088-2.2693 3.6875-4.5 3.6875s-4.0826-1.5787-4.5-3.6875h-7.3438c-0.416 2.1088-2.268 3.688-4.499 3.688-2.2307 0-4.0826-1.5787-4.5-3.6875h-7.3438c-0.41736 2.1088-2.2693 3.6875-4.5 3.6875s-4.0826-1.5787-4.5-3.6875h-7.3438c-0.41736 2.1088-2.2693 3.6875-4.5 3.6875s-4.0826-1.5787-4.5-3.6875h-0.3125z" display="inline" filter="url(#filter3174-2)" fill="url(#ButtonShadow-5)"/>
  </g>
  <g id="layer4" display="none" transform="translate(143.17 916.04)">
   <g id="g4297" opacity=".4" clip-path="url(#clipPath5556)" transform="matrix(.69994 0 0 .69994 -85.768 3.9069)" display="inline">
    <g id="g5547" transform="translate(85.721 -20.002)">
     <path id="path4086" d="m78.328 146.13c24.652-4.62 40.942-28.38 36.322-53.035-4.61-24.652-28.403-40.907-53.054-36.289s-40.912 28.375-36.294 53.024c4.6178 24.651 28.376 40.912 53.027 36.295zm-0.27619-1.4744c-23.853 4.46-46.808-11.25-51.276-35.1-4.468-23.857 11.243-46.812 35.096-51.28 23.853-4.4684 46.839 11.237 51.307 35.091 4.4684 23.853-11.274 46.814-35.127 51.282z" display="inline"/>
     <path id="path4088" d="m76.058 133.99c17.941-3.36 29.792-20.68 26.432-38.616-3.36-17.941-20.673-29.772-38.614-26.411s-29.776 20.651-26.415 38.597c3.3608 17.941 20.656 29.798 38.597 26.437zm-0.27884-1.4886c-17.143 3.2114-33.64-8.0801-36.852-25.223-3.2114-17.143 8.0801-33.64 25.223-36.852 17.143-3.2114 33.663 8.0759 36.874 25.219 3.2114 17.143-8.1023 33.644-25.246 36.856z" display="inline"/>
     <path id="path4090" d="m80.565 102.03a44.7 44.7 0 1 1 -89.399 0 44.7 44.7 0 1 1 89.399 0z" transform="matrix(-.77311 .14482 -.14482 -.77311 112.48 175.15)" display="inline" fill="none"/>
     <g id="g4118" transform="matrix(1.1 -.86862 .86862 1.1 -60.967 18.73)">
      <path id="path4102" d="m29.682 99.378-2.3266 1.8416 0.98506 2.8318-2.4704-1.6437-2.3888 1.8119 0.79983-2.8574-2.4614-1.712 2.9647-0.12231 0.86754-2.87 1.0325 2.7818z" transform="matrix(1.5606 .41815 -.41815 1.5606 33.235 -70.873)" display="inline"/>
      <path id="path4104" d="m29.682 99.378-2.3266 1.8416 0.98506 2.8318-2.4704-1.6437-2.3888 1.8119 0.79983-2.8574-2.4614-1.712 2.9647-0.12231 0.86754-2.87 1.0325 2.7818z" transform="matrix(1.5606 .41815 -.41815 1.5606 47.387 -67.081)" display="inline"/>
      <path id="path4106" d="m29.682 99.378-2.3266 1.8416 0.98506 2.8318-2.4704-1.6437-2.3888 1.8119 0.79983-2.8574-2.4614-1.712 2.9647-0.12231 0.86754-2.87 1.0325 2.7818z" transform="matrix(1.5606 .41815 -.41815 1.5606 36.915 -57.344)" display="inline"/>
     </g>
    </g>
   </g>
  </g>
 </g>
</svg>
