<?xml version="1.0" encoding="UTF-8" standalone="no"?>
<!-- Created with Inkscape (http://www.inkscape.org/) -->
<svg id="svg2" xmlns:rdf="http://www.w3.org/1999/02/22-rdf-syntax-ns#" xmlns="http://www.w3.org/2000/svg" height="96" width="96" version="1.1" xmlns:cc="http://creativecommons.org/ns#" xmlns:xlink="http://www.w3.org/1999/xlink" xmlns:dc="http://purl.org/dc/elements/1.1/">
 <defs id="defs4">
  <linearGradient id="linearGradient3700-09">
   <stop id="stop3702-67" stop-color="#70a83e" offset="0"/>
   <stop id="stop3704-18" stop-color="#9fd058" offset="1"/>
  </linearGradient>
  <linearGradient id="linearGradient9745" y2="5.9877" xlink:href="#linearGradient3700-09" gradientUnits="userSpaceOnUse" x2="48" gradientTransform="translate(-169.06 968.2)" y1="90" x1="48"/>
  <filter id="filter3174" color-interpolation-filters="sRGB">
   <feGaussianBlur id="feGaussianBlur3176" stdDeviation="1.71"/>
  </filter>
  <linearGradient id="ButtonShadow-5" x1="45.448" gradientUnits="userSpaceOnUse" y1="92.54" gradientTransform="scale(1.0059 .99417)" x2="45.448" y2="7.0165">
   <stop id="stop3750-1" offset="0"/>
   <stop id="stop3752-6" stop-opacity=".58824" offset="1"/>
  </linearGradient>
  <clipPath id="clipPath5556">
   <path id="path5558" d="m139.68 2.9904c-4.5114 0-8.1709 3.4413-8.5275 7.8578 3.528 0.02442 6.3844 2.8954 6.3844 6.4291 0 3.5489-2.8802 6.4291-6.4291 6.4291v10.001c3.5488 0 6.4291 2.8802 6.4291 6.4291s-2.8802 6.4291-6.4291 6.4291v10.001c3.5488 0 6.4291 2.8802 6.4291 6.4291s-2.8802 6.4291-6.4291 6.4291v10.001c3.5488 0 6.4291 2.8802 6.4291 6.4291s-2.8802 6.4291-6.4291 6.4291v10.001c3.5488-0.00001 6.4291 2.8802 6.4291 6.4291 0 3.5337-2.8564 6.4047-6.3844 6.4291 0.35653 4.4165 4.0161 7.8578 8.5275 7.8578 0-3.5489 2.8802-6.4291 6.4291-6.4291 3.5488 0 6.4291 2.8802 6.4291 6.4291h10.001c0-3.5489 2.8802-6.4291 6.4291-6.4291s6.4291 2.8802 6.4291 6.4291h10.001c0-3.5489 2.8802-6.4291 6.4291-6.4291s6.4291 2.8802 6.4291 6.4291h10.001c0-3.5489 2.8802-6.4291 6.4291-6.4291 3.5488 0 6.4291 2.8802 6.4291 6.4291h10.001c-0.00001-3.5489 2.8802-6.4291 6.4291-6.4291 3.5034 0 6.3567 2.809 6.4291 6.2952 3.8411-0.63593 6.7806-3.7817 7.0988-7.7238-3.528-0.0244-6.3844-2.8954-6.3844-6.4291 0-3.5489 2.8802-6.4291 6.4291-6.4291v-10.001c-3.5489 0.000002-6.4291-2.8802-6.4291-6.4291s2.8802-6.4291 6.4291-6.4291v-10.001c-3.5489 0.000001-6.4291-2.8802-6.4291-6.4291s2.8802-6.4291 6.4291-6.4291v-10.001c-3.5489 0.000002-6.4291-2.8802-6.4291-6.4291s2.8802-6.4291 6.4291-6.4291v-10.001c-3.5489 0.000001-6.4291-2.8802-6.4291-6.4291 0-3.5337 2.8564-6.4047 6.3844-6.4291-0.31823-3.9421-3.2577-7.0879-7.0988-7.7238-0.0724 3.4862-2.9256 6.2951-6.4291 6.2951-3.5489 0-6.4291-2.8802-6.4291-6.4291h-10.001c0.00001 3.5489-2.8802 6.4291-6.4291 6.4291s-6.4291-2.8802-6.4291-6.4291h-10.001c0 3.5489-2.8802 6.4291-6.4291 6.4291-3.5488 0-6.4291-2.8802-6.4291-6.4291h-10.001c0 3.5489-2.8802 6.4291-6.4291 6.4291s-6.4291-2.8802-6.4291-6.4291h-10.001c0 3.5489-2.8802 6.4291-6.4291 6.4291s-6.4291-2.8802-6.4291-6.4291z" fill="#f0f"/>
  </clipPath>
  <filter id="filter3174-2" color-interpolation-filters="sRGB">
   <feGaussianBlur id="feGaussianBlur3176-2" stdDeviation="1.71"/>
  </filter>
  <clipPath id="clipPath4101">
   <path id="path4103" d="m131.81 6c-10.565 7.4797-17.814 19.08-17.219 33.062 0.61551 14.47 12.417 28.991 28.5 27.25 9.1883-0.99477 16.536-9.73 11.844-17.188-1.4905-2.369-5.1102-2.5732-6.8125-1.4375 8.1795-0.23077 4.1866 9.5126-3 11-9.8172 2.0318-17.351-7.4544-18.031-16.281-1.2708-16.495 14.681-28.178 29.938-28.125 14.389 0.05043 26.06 8.2959 32.969 19.75v-22.03c0-3.324-2.676-6-6-6h-52.188zm24.031 23.531c-0.47014-0.006-0.95892 0.0088-1.4375 0.03125-0.49402 0.02315-0.99741 0.07059-1.5 0.125-9.1883 0.99477-16.536 9.73-11.844 17.188 1.4905 2.369 5.1102 2.5732 6.8125 1.4375-8.1795 0.23077-4.1866-9.5126 3-11 9.8172-2.0318 17.351 7.4544 18.031 16.281 1.2708 16.495-14.681 28.178-29.938 28.125-14.38-0.051-26.05-8.296-32.96-19.75v22.031c0 3.324 2.676 6 6 6h52.188c10.56-7.48 17.81-19.08 17.22-33.062-0.58-13.58-10.99-27.22-25.57-27.407z" fill="#f0f"/>
  </clipPath>
  <clipPath id="clipPath4000">
   <rect id="rect4002" rx="6" ry="6" transform="scale(1,-1)" width="84" y="-90" x="36" height="84" fill="#f0f"/>
  </clipPath>
  <clipPath id="clipPath3613-90">
   <rect id="rect3615-35" rx="6" ry="6" height="84" width="84" y="6" x="6" fill="#fff"/>
  </clipPath>
  <filter id="filter3794-26" height="1.384" width="1.384" color-interpolation-filters="sRGB" y="-.192" x="-.192">
   <feGaussianBlur id="feGaussianBlur3796-38" stdDeviation="5.28"/>
  </filter>
  <filter id="filter3174-20" color-interpolation-filters="sRGB">
   <feGaussianBlur id="feGaussianBlur3176-9" stdDeviation="1.71"/>
  </filter>
  <linearGradient id="linearGradient25602" y2="5.9877" gradientUnits="userSpaceOnUse" x2="48" gradientTransform="translate(-172.7 -1061.4)" y1="90" x1="48">
   <stop id="stop6457" stop-color="#fdb245" offset="0"/>
   <stop id="stop6459" stop-color="#f57900" offset="1"/>
  </linearGradient>
  <radialGradient id="radialGradient25604" gradientUnits="userSpaceOnUse" cy="48" cx="48" gradientTransform="translate(30)" r="42">
   <stop id="stop6663" stop-color="#a4c1e0" offset="0"/>
   <stop id="stop6665" stop-color="#3465a4" offset="1"/>
  </radialGradient>
  <linearGradient id="linearGradient25606" y2="138.66" gradientUnits="userSpaceOnUse" x2="48" y1="20.221" x1="48">
   <stop id="stop3739-492" stop-color="#fff" offset="0"/>
   <stop id="stop3741-82" stop-color="#fff" stop-opacity="0" offset="1"/>
  </linearGradient>
  <clipPath id="clipPath25608" clipPathUnits="userSpaceOnUse">
   <path id="path25610" d="m-153.39 974.74c-5.9254 0-10.678 4.9355-10.678 11.036v55.838c0 6.1006 4.7524 11.008 10.678 11.008h54.253c5.9254 0 10.678-4.9069 10.678-11.008v-55.838c0-6.1005-4.7524-11.036-10.678-11.036h-54.253z" fill="url(#linearGradient25612)"/>
  </clipPath>
  <linearGradient id="linearGradient25612" y2="5.9877" gradientUnits="userSpaceOnUse" x2="48" gradientTransform="matrix(.96841 0 0 .96304 -172.59 967.07)" y1="90" x1="48">
   <stop id="stop3189-0" stop-color="#e0880b" offset="0"/>
   <stop id="stop3191-1" stop-color="#f7ce50" offset="1"/>
  </linearGradient>
 </defs>
 <metadata id="metadata7">
  <rdf:RDF>
   <cc:Work rdf:about="">
    <dc:format>image/svg+xml</dc:format>
    <dc:type rdf:resource="http://purl.org/dc/dcmitype/StillImage"/>
    <dc:title/>
   </cc:Work>
  </rdf:RDF>
 </metadata>
 <g id="layer1" transform="translate(0 -956.36)">
  <g id="g5523">
   <rect id="rect5263-0" fill-opacity=".019608" ry="12.724" height="89.978" width="89.624" y="959.35" x="3.3534"/>
   <rect id="rect5261-6" fill-opacity=".039216" ry="12.552" height="88.762" width="88.413" y="959.96" x="3.9589"/>
   <rect id="rect5259-9" fill-opacity=".078431" ry="12.38" height="87.546" width="87.202" y="960.57" x="4.5645"/>
   <rect id="rect5257-5" fill-opacity=".15686" ry="12.208" height="86.33" width="85.991" y="961.18" x="5.1701"/>
  </g>
  <g id="g25588" clip-path="url(#clipPath25608)" transform="matrix(1.1209 0 0 1.093 189.69 -103.63)">
   <rect id="rect2419" transform="scale(1,-1)" rx="6" ry="6" height="84" width="84" y="-1055.4" x="-166.7" fill="url(#linearGradient25602)"/>
   <g id="g3996" transform="translate(-202.7 965.43)" clip-path="url(#clipPath4000)">
    <path id="path4051" fill="url(#radialGradient25604)" d="m61.812 6c-10.565 7.4797-17.814 19.08-17.219 33.062 0.61551 14.47 12.417 28.991 28.5 27.25 9.1883-0.99477 16.536-9.73 11.844-17.188-1.4905-2.369-5.1102-2.5732-6.8125-1.4375 8.1795-0.23077 4.1866 9.5126-3 11-9.8172 2.0318-17.351-7.4544-18.031-16.281-1.2708-16.495 14.681-28.178 29.938-28.125 14.389 0.05043 26.06 8.2959 32.969 19.75v-22.03c0-3.324-2.676-6-6-6h-52.188zm24.031 23.531c-0.47014-0.006-0.95892 0.0088-1.4375 0.03125-0.49402 0.02315-0.99741 0.07059-1.5 0.125-9.1883 0.99477-16.536 9.73-11.844 17.188 1.4905 2.369 5.1102 2.5732 6.8125 1.4375-8.1795 0.23077-4.1866-9.5126 3-11 9.8172-2.0318 17.351 7.4544 18.031 16.281 1.2708 16.495-14.681 28.178-29.938 28.125-14.387-0.051-26.058-8.296-32.967-19.75v22.031c0 3.324 2.676 6 6 6h52.188c10.562-7.48 17.812-19.08 17.222-33.062-0.58-13.58-10.99-27.22-25.566-27.407z"/>
    <path id="path3987" opacity=".3" d="m87.031 14.281c-14.887-0.05217-30.435 11.074-30 26.938 0.2294-15.328 15.429-25.989 30-25.938 14.389 0.05043 26.06 8.2959 32.969 19.75v-1c-6.909-11.454-18.58-19.7-32.969-19.75zm-3.4688 22.75c-0.87646-0.0019-1.7671 0.09076-2.6875 0.28125-4.6524 0.96289-7.9604 5.3756-7.5 8.3125 0.2901-2.8549 3.3492-6.4534 7.5-7.3125 9.8172-2.0318 17.351 7.4544 18.031 16.281 0.03081 0.39995 0.05168 0.79331 0.0625 1.1875 0.01079-0.72085-0.0054-1.4466-0.0625-2.1875-0.616-7.999-6.871-16.543-15.344-16.562zm-38.968 2.031c0.0053 0.33408-0.01433 0.66313 0 1 0.61551 14.47 12.417 28.991 28.5 27.25 7.4525-0.80684 13.692-6.6958 13.281-12.875-0.28988 5.7949-6.2402 11.113-13.281 11.875-16.083 1.7412-27.884-12.78-28.5-27.25zm25.031 3.532c-0.08184 1.7576 0.34734 3.5485 1.4375 5.2812 1.4905 2.369 5.1102 2.5732 6.8125 1.4375-1.0224 0.02885-1.8404-0.09651-2.5-0.34375-1.6071 0.0092-3.381-0.61311-4.3125-2.0938-0.87972-1.3983-1.3371-2.8526-1.4375-4.2812zm11 5.4375c-0.96424 0.0055-1.8616 0.23036-2.5 0.65625 2.8117-0.07933 4.2003 1.0251 4.5 2.5625 0.1032-1.4159-0.47597-2.6475-2-3.2188zm30.815 11.656c-0.4 12.752-7.39 23.329-17.252 30.312h-52.188c-3.324 0-6-2.676-6-6v1c0 3.324 2.676 6 6 6h52.188c10.12-7.1643 17.194-18.115 17.25-31.312z" fill="#fff"/>
    <path id="path4006" d="m31.812 5c-10.119 7.164-17.193 18.115-17.25 31.312 0.398-12.752 7.386-23.329 17.25-30.312h52.188c3.324 0 6 2.676 6 6v-1c0-3.324-2.676-6-6-6h-52.188zm24.031 23.531c-0.47014-0.006-0.95892 0.0088-1.4375 0.03125-0.49402 0.02315-0.99741 0.07059-1.5 0.125-7.4525 0.80684-13.692 6.6958-13.281 12.875 0.28988-5.7949 6.2402-11.113 13.281-11.875 0.50259-0.05441 1.006-0.10185 1.5-0.125 0.47858-0.02245 0.96736-0.03725 1.4375-0.03125 14.574 0.1864 24.985 13.826 25.562 27.406-0.0053-0.33408 0.01433-0.66313 0-1-0.576-13.579-10.987-27.219-25.561-27.406zm-28.812 11.688c-0.01079 0.72085 0.0054 1.4466 0.0625 2.1875 0.68003 8.8269 8.2141 18.313 18.031 16.281 4.6524-0.96289 7.9604-5.3756 7.5-8.3125-0.2901 2.8549-3.3492 6.4534-7.5 7.3125-9.8172 2.0318-17.351-7.4544-18.031-16.281-0.03081-0.39995-0.05168-0.79331-0.0625-1.1875zm16.344 4.531c-0.1032 1.4159 0.47597 2.6475 2 3.2188 0.96424-0.0055 1.8616-0.23036 2.5-0.65625-2.8117 0.07933-4.2003-1.0251-4.5-2.5625zm7.25 1.2812c-0.96424 0.0055-1.8616 0.23036-2.5 0.65625 1.0224-0.02885 1.8404 0.09651 2.5 0.34375 1.6071-0.0092 3.381 0.61311 4.3125 2.0938 0.87972 1.3983 1.3371 2.8526 1.4375 4.2812 0.08184-1.7576-0.34734-3.5485-1.4375-5.2812-0.93154-1.4806-2.7054-2.103-4.3125-2.0938zm18.344 8.75c-0.2294 15.328-15.429 25.989-30 25.938-14.389-0.051-26.06-8.296-32.969-19.75v1c6.909 11.454 18.58 19.7 32.969 19.75 14.887 0.05217 30.435-11.074 30-26.938z" transform="translate(30)" fill="#ce5c00"/>
    <path id="path4105" opacity=".3" d="m31.812 6c-10.119 7.164-17.193 18.115-17.25 31.312 0.398-12.752 7.386-23.329 17.25-30.312l2.0182-1zm24.031 23.531c-0.47014-0.006-0.95892 0.0088-1.4375 0.03125-0.49402 0.02315-0.99741 0.07059-1.5 0.125-7.4525 0.80684-13.692 6.6958-13.281 12.875 0.28988-5.7949 6.2402-11.113 13.281-11.875 0.50259-0.05441 1.006-0.10185 1.5-0.125 0.47858-0.02245 0.96736-0.03725 1.4375-0.03125 14.574 0.1864 24.985 13.826 25.562 27.406-0.0053-0.33408 0.01433-0.66313 0-1-0.576-13.579-10.987-27.219-25.561-27.406zm-28.812 11.688c-0.01079 0.72085 0.0054 1.4466 0.0625 2.1875 0.68003 8.8269 8.2141 18.313 18.031 16.281 4.6524-0.96289 7.9604-5.3756 7.5-8.3125-0.2901 2.8549-3.3492 6.4534-7.5 7.3125-9.8172 2.0318-17.351-7.4544-18.031-16.281-0.03081-0.39995-0.05168-0.79331-0.0625-1.1875zm16.344 4.531c-0.1032 1.4159 0.47597 2.6475 2 3.2188 0.96424-0.0055 1.8616-0.23036 2.5-0.65625-2.8117 0.07933-4.2003-1.0251-4.5-2.5625zm7.25 1.2812c-0.96424 0.0055-1.8616 0.23036-2.5 0.65625 1.0224-0.02885 1.8404 0.09651 2.5 0.34375 1.6071-0.0092 3.381 0.61311 4.3125 2.0938 0.87972 1.3983 1.3371 2.8526 1.4375 4.2812 0.08184-1.7576-0.34734-3.5485-1.4375-5.2812-0.93154-1.4806-2.7054-2.103-4.3125-2.0938zm18.344 8.75c-0.2294 15.328-15.429 25.989-30 25.938-14.389-0.051-26.06-8.296-32.969-19.75v1c6.909 11.454 18.58 19.7 32.969 19.75 14.887 0.05217 30.435-11.074 30-26.938z" transform="translate(30)"/>
   </g>
   <g id="g4096" clip-path="url(#clipPath4101)" transform="translate(-272.7 965.43)" stroke="#000" fill="none">
    <path id="path4058" opacity=".1" d="m145.88-6.0625-14.062 12 0.75 0.0625h-0.75c-10.565 7.4797-17.814 19.08-17.219 33.062 0.61551 14.47 12.417 28.991 28.5 27.25 9.1883-0.99477 16.536-9.73 11.844-17.188-1.4905-2.369-5.1102-2.5732-6.8125-1.4375 8.1795-0.23077 4.1866 9.5126-3 11-9.8172 2.0318-17.351-7.4544-18.031-16.281-1.2708-16.495 14.681-28.178 29.938-28.125 14.339 0.05025 25.988 8.2332 32.906 19.625l0.06 0.095v0.03125l7.8125 12.719 7.875-52.312zm9.9688 35.594c-0.47014-0.006-0.95892 0.0088-1.4375 0.03125-0.49402 0.02315-0.99741 0.07059-1.5 0.125-9.1883 0.99477-16.536 9.73-11.844 17.188 1.4905 2.369 5.1102 2.5732 6.8125 1.4375-8.1795 0.23077-4.1866-9.5126 3-11 9.8172-2.0318 17.351 7.4544 18.031 16.281 1.2708 16.495-14.681 28.178-29.938 28.125-14.39-0.052-26.06-8.297-32.97-19.751v0.28125l-7.8125-12.719-7.875 52.312 59.812 0.5 14.07-12.34c10.56-7.48 17.81-19.08 17.22-33.062-0.58-13.58-10.99-27.22-25.57-27.407z" stroke-width="4"/>
    <path id="path4060" opacity=".05" d="m145.88-6.0625-14.062 12 0.75 0.0625h-0.75c-10.565 7.4797-17.814 19.08-17.219 33.062 0.61551 14.47 12.417 28.991 28.5 27.25 9.1883-0.99477 16.536-9.73 11.844-17.188-1.4905-2.369-5.1102-2.5732-6.8125-1.4375 8.1795-0.23077 4.1866 9.5126-3 11-9.8172 2.0318-17.351-7.4544-18.031-16.281-1.2708-16.495 14.681-28.178 29.938-28.125 14.339 0.05025 25.988 8.2332 32.906 19.625l0.06 0.095v0.03125l7.8125 12.719 7.875-52.312zm9.9688 35.594c-0.47014-0.006-0.95892 0.0088-1.4375 0.03125-0.49402 0.02315-0.99741 0.07059-1.5 0.125-9.1883 0.99477-16.536 9.73-11.844 17.188 1.4905 2.369 5.1102 2.5732 6.8125 1.4375-8.1795 0.23077-4.1866-9.5126 3-11 9.8172-2.0318 17.351 7.4544 18.031 16.281 1.2708 16.495-14.681 28.178-29.938 28.125-14.39-0.052-26.06-8.297-32.97-19.751v0.28125l-7.8125-12.719-7.875 52.312 59.812 0.5 14.07-12.34c10.56-7.48 17.81-19.08 17.22-33.062-0.58-13.58-10.99-27.22-25.57-27.407z" stroke-width="6"/>
    <path id="path4051-8" opacity=".2" d="m145.88-6.0625-14.062 12 0.75 0.0625h-0.75c-10.565 7.4797-17.814 19.08-17.219 33.062 0.61551 14.47 12.417 28.991 28.5 27.25 9.1883-0.99477 16.536-9.73 11.844-17.188-1.4905-2.369-5.1102-2.5732-6.8125-1.4375 8.1795-0.23077 4.1866 9.5126-3 11-9.8172 2.0318-17.351-7.4544-18.031-16.281-1.2708-16.495 14.681-28.178 29.938-28.125 14.339 0.05025 25.988 8.2332 32.906 19.625l0.06 0.095v0.03125l7.8125 12.719 7.875-52.312zm9.9688 35.594c-0.47014-0.006-0.95892 0.0088-1.4375 0.03125-0.49402 0.02315-0.99741 0.07059-1.5 0.125-9.1883 0.99477-16.536 9.73-11.844 17.188 1.4905 2.369 5.1102 2.5732 6.8125 1.4375-8.1795 0.23077-4.1866-9.5126 3-11 9.8172-2.0318 17.351 7.4544 18.031 16.281 1.2708 16.495-14.681 28.178-29.938 28.125-14.39-0.052-26.06-8.297-32.97-19.751v0.28125l-7.8125-12.719-7.875 52.312 59.812 0.5 14.07-12.34c10.56-7.48 17.81-19.08 17.22-33.062-0.58-13.58-10.99-27.22-25.57-27.407z" stroke-width="2"/>
   </g>
   <g id="layer5" transform="translate(-172.7 965.43)">
    <rect id="rect3171" height="66" stroke="#fff" stroke-linecap="round" stroke-width=".5" fill="url(#linearGradient25606)" rx="12" ry="12" width="66" opacity=".1" clip-path="url(#clipPath3613-90)" filter="url(#filter3794-26)" y="15" x="15"/>
   </g>
  </g>
  <path id="rect5265-0" d="m5.7756 1029.8v5.0663c0 6.668 5.3434 12.032 11.985 12.032h60.809c6.6418 0 11.985-5.3645 11.985-12.032v-5.0663c0 6.6681-5.3434 12.032-11.985 12.032h-60.809c-6.6418 0-11.985-5.3643-11.985-12.032z" fill-opacity=".23529"/>
  <path id="path5252-0" d="m5.7756 1033.9v1.0133c0 6.668 5.3434 12.032 11.985 12.032h60.809c6.6418 0 11.985-5.3645 11.985-12.032v-1.0133c0 6.6681-5.3434 12.032-11.985 12.032h-60.809c-6.6418 0-11.985-5.3644-11.985-12.032z" fill-opacity=".098039"/>
  <rect id="rect4772" display="none" height="107.79" width="107.79" y="971.68" x="-369.64" fill="none"/>
  <g id="g4788" display="none" transform="matrix(.21052 0 0 .21052 -369.68 971.63)"></g>
  <g id="g4806" display="none" transform="matrix(.21052 0 0 .21052 -369.68 971.63)">
   <g id="g4808" display="inline">
    <path id="path4810" d="m349.1 256.65c-0.265-0.254 37.637 27.605 39.421 25.012 6.362-9.252 82.046-93.137 84.784-116.24 0.242-2.003-0.516-4.096-0.516-4.096s-1.19-0.144-6.325-4.314c-2.692-2.192-5.483-4.581-5.483-4.581-16.054 0.998-57.885 41.559-111.06 103.57" fill="#050505" display="none"/>
   </g>
  </g>
  <g id="g4796" transform="matrix(.21052 0 0 .21052 -369.68 971.63)"></g>
  <rect id="rect3873" rx="6" ry="6" height="84" width="84" display="none" y="974.2" x="-163.06" fill="url(#linearGradient9745)"/>
  <rect id="rect3880" rx="6" ry="6" height="84" width="84" display="none" y="974.2" x="-163.06" fill="url(#linearGradient9745)"/>
  <g id="layer2" display="none" transform="translate(275.39 1104.2)">
   <rect id="rect3745" opacity=".9" rx="6" ry="6" height="85" filter="url(#filter3174)" width="86" y="7" x="5" fill="url(#ButtonShadow-5)"/>
  </g>
  <g id="layer2-9" display="none" transform="translate(143.17 916.04)">
   <path id="rect3745-2" opacity=".9" d="m11 7c-2.8841 0-5.26 2.0143-5.8438 4.7187 2.5086 0.0336 4.5313 2.0773 4.5312 4.5938 0 2.5374-2.0563 4.5938-4.5938 4.5938-0.031404 0-0.062496 0.000628-0.09375 0v7.1562c0.031254-0.000628 0.062346 0 0.09375 0 2.5374 0 4.5938 2.0563 4.5938 4.5938 0 2.5374-2.0563 4.5937-4.5938 4.5938-0.031404 0-0.062496 0.000628-0.09375 0v7.1562c0.031254-0.000628 0.062346 0 0.09375 0 2.5374 0 4.5938 2.0563 4.5938 4.5938 0 2.5374-2.0563 4.5937-4.5938 4.5938-0.031404 0-0.062496 0.000628-0.09375 0l0.0002 7.156c0.031254-0.000628 0.062346 0 0.09375 0 2.5374 0 4.5938 2.0563 4.5938 4.5938 0 2.5374-2.0563 4.5938-4.5938 4.5938-0.031404 0-0.062496 0.000628-0.09375 0v7.1562c0.031254-0.000628 0.062346 0 0.09375 0 2.5374-0.000004 4.5938 2.0563 4.5938 4.5938 0 2.5374-2.0563 4.5938-4.5938 4.5938-0.031404 0-0.062496 0.000628-0.09375 0 0.1444 3.193 2.7693 5.718 6 5.718h0.21875c-0.000628-0.03125 0-0.06235 0-0.09375 0-2.5374 2.0563-4.5937 4.5938-4.5938 2.5374 0 4.5938 2.0563 4.5938 4.5938 0 0.0314 0.000628 0.0625 0 0.09375h7.1562c-0.000628-0.03125 0-0.06235 0-0.09375 0-2.5374 2.0563-4.5937 4.5938-4.5938 2.5374 0 4.5938 2.0563 4.5938 4.5938 0 0.0314 0.000628 0.0625 0 0.09375h7.1562c-0.000628-0.03125 0-0.06235 0-0.09375 0-2.5374 2.0563-4.5937 4.5938-4.5938 2.5374 0 4.5937 2.0563 4.5938 4.5938 0 0.0314 0.000628 0.0625 0 0.09375h7.155c-0.000628-0.03125 0-0.06235 0-0.09375 0-2.5374 2.0563-4.5937 4.5938-4.5938 2.5374 0 4.5937 2.0563 4.5938 4.5938 0 0.0314 0.000628 0.0625 0 0.09375h7.1562c-0.000628-0.03125 0-0.06235 0-0.09375-0.000005-2.5374 2.0563-4.5937 4.5938-4.5938 2.5374 0 4.5937 2.0563 4.5938 4.5938 0 0.01047 0.00007 0.0208 0 0.03125 2.8652-0.36646 5.0861-2.7222 5.2188-5.6562-0.03125 0.000628-0.06235 0-0.09375 0-2.5374-0.000003-4.5937-2.0563-4.5938-4.5938 0-2.5374 2.0563-4.5938 4.5938-4.5938 0.0314 0 0.0625-0.000628 0.09375 0v-7.1562c-0.03125 0.000628-0.06235 0-0.09375 0-2.5374 0.000001-4.5937-2.0563-4.5938-4.5938 0-2.5374 2.0563-4.5937 4.5938-4.5938 0.0314 0 0.0625-0.000628 0.09375 0v-7.1562c-0.03125 0.000628-0.06235 0-0.09375 0-2.5374 0.000001-4.5937-2.0563-4.5938-4.5938 0-2.5374 2.0563-4.5937 4.5938-4.5938 0.0314 0 0.0625-0.000628 0.09375 0v-7.155c-0.03125 0.000628-0.06235 0-0.09375 0-2.5374 0.000001-4.5937-2.0563-4.5938-4.5938 0-2.5374 2.0563-4.5937 4.5938-4.5938 0.0314 0 0.0625-0.000628 0.09375 0v-7.1562c-0.03125 0.000628-0.06235 0-0.09375 0-2.5374 0.000001-4.5937-2.0563-4.5938-4.5938 0-2.5165 2.0227-4.5602 4.5312-4.5938-0.53737-2.4896-2.5803-4.4006-5.1562-4.6875-0.42886 2.094-2.2798 3.6562-4.5 3.6562-2.2307 0-4.0826-1.5787-4.5-3.6875h-7.3438c-0.41736 2.1088-2.2693 3.6875-4.5 3.6875s-4.0826-1.5787-4.5-3.6875h-7.3438c-0.416 2.1088-2.268 3.688-4.499 3.688-2.2307 0-4.0826-1.5787-4.5-3.6875h-7.3438c-0.41736 2.1088-2.2693 3.6875-4.5 3.6875s-4.0826-1.5787-4.5-3.6875h-7.3438c-0.41736 2.1088-2.2693 3.6875-4.5 3.6875s-4.0826-1.5787-4.5-3.6875h-0.3125z" display="inline" filter="url(#filter3174-2)" fill="url(#ButtonShadow-5)"/>
  </g>
  <g id="layer4" display="none" transform="translate(143.17 916.04)">
   <g id="g4297" opacity=".4" clip-path="url(#clipPath5556)" transform="matrix(.69994 0 0 .69994 -85.768 3.9069)" display="inline">
    <g id="g5547" transform="translate(85.721 -20.002)">
     <path id="path4086" d="m78.328 146.13c24.652-4.62 40.942-28.38 36.322-53.035-4.61-24.652-28.403-40.907-53.054-36.289s-40.912 28.375-36.294 53.024c4.6178 24.651 28.376 40.912 53.027 36.295zm-0.27619-1.4744c-23.853 4.46-46.808-11.25-51.276-35.1-4.468-23.857 11.243-46.812 35.096-51.28 23.853-4.4684 46.839 11.237 51.307 35.091 4.4684 23.853-11.274 46.814-35.127 51.282z" display="inline"/>
     <path id="path4088" d="m76.058 133.99c17.941-3.36 29.792-20.68 26.432-38.616-3.36-17.941-20.673-29.772-38.614-26.411s-29.776 20.651-26.415 38.597c3.3608 17.941 20.656 29.798 38.597 26.437zm-0.27884-1.4886c-17.143 3.2114-33.64-8.0801-36.852-25.223-3.2114-17.143 8.0801-33.64 25.223-36.852 17.143-3.2114 33.663 8.0759 36.874 25.219 3.2114 17.143-8.1023 33.644-25.246 36.856z" display="inline"/>
     <path id="path4090" d="m80.565 102.03a44.7 44.7 0 1 1 -89.399 0 44.7 44.7 0 1 1 89.399 0z" transform="matrix(-.77311 .14482 -.14482 -.77311 112.48 175.15)" display="inline" fill="none"/>
     <g id="g4118" transform="matrix(1.1 -.86862 .86862 1.1 -60.967 18.73)">
      <path id="path4102" d="m29.682 99.378-2.3266 1.8416 0.98506 2.8318-2.4704-1.6437-2.3888 1.8119 0.79983-2.8574-2.4614-1.712 2.9647-0.12231 0.86754-2.87 1.0325 2.7818z" transform="matrix(1.5606 .41815 -.41815 1.5606 33.235 -70.873)" display="inline"/>
      <path id="path4104" d="m29.682 99.378-2.3266 1.8416 0.98506 2.8318-2.4704-1.6437-2.3888 1.8119 0.79983-2.8574-2.4614-1.712 2.9647-0.12231 0.86754-2.87 1.0325 2.7818z" transform="matrix(1.5606 .41815 -.41815 1.5606 47.387 -67.081)" display="inline"/>
      <path id="path4106" d="m29.682 99.378-2.3266 1.8416 0.98506 2.8318-2.4704-1.6437-2.3888 1.8119 0.79983-2.8574-2.4614-1.712 2.9647-0.12231 0.86754-2.87 1.0325 2.7818z" transform="matrix(1.5606 .41815 -.41815 1.5606 36.915 -57.344)" display="inline"/>
     </g>
    </g>
   </g>
  </g>
  <g id="layer2-1" display="none" transform="translate(-172.7 965.43)">
   <rect id="rect3745-1" opacity=".9" rx="6" ry="6" height="85" filter="url(#filter3174-20)" width="86" y="7" x="5" fill="url(#ButtonShadow-5)"/>
  </g>
 </g>
</svg>
