<?xml version="1.0" encoding="UTF-8" standalone="no"?>
<!-- Created with Inkscape (http://www.inkscape.org/) -->
<svg id="svg2" xmlns:rdf="http://www.w3.org/1999/02/22-rdf-syntax-ns#" xmlns="http://www.w3.org/2000/svg" height="96" width="96" version="1.1" xmlns:cc="http://creativecommons.org/ns#" xmlns:xlink="http://www.w3.org/1999/xlink" xmlns:dc="http://purl.org/dc/elements/1.1/">
 <defs id="defs4">
  <linearGradient id="linearGradient6400" y2="2.9934" gradientUnits="userSpaceOnUse" x2="47.995" y1="84.031" x1="47.995">
   <stop id="stop6396" stop-color="#ccc" offset="0"/>
   <stop id="stop6398" stop-color="#dae0de" offset="1"/>
  </linearGradient>
  <radialGradient id="radialGradient6415" gradientUnits="userSpaceOnUse" cy="-15.871" cx="56.066" gradientTransform="matrix(.0022597 .92548 -1.3844 0 25.902 -30.211)" r="35.938">
   <stop id="stop3177-8" stop-color="#4490e6" offset="0"/>
   <stop id="stop3179-85" stop-color="#103d8f" offset="1"/>
  </radialGradient>
  <clipPath id="clipPath6423" clipPathUnits="userSpaceOnUse">
   <rect id="rect6425" ry="7.8031" height="61.004" width="64.562" y="967.42" x="16.061" fill="url(#linearGradient6427)"/>
  </clipPath>
  <linearGradient id="linearGradient6427" y2="1427.6" gradientUnits="userSpaceOnUse" x2="3415" gradientTransform="matrix(.29063 0 0 .34170 -934.72 469.12)" y1="1594.7" x1="3391.4">
   <stop id="stop4911" stop-color="#1a1a1a" offset="0"/>
   <stop id="stop4913" stop-color="#7a7a7a" offset="1"/>
  </linearGradient>
  <linearGradient id="linearGradient4368-4">
   <stop id="stop4370-3" stop-color="#828282" offset="0"/>
   <stop id="stop4372-3" stop-color="#5a5a5a" offset="1"/>
  </linearGradient>
  <linearGradient id="linearGradient4360-1">
   <stop id="stop4362-8" stop-color="#6e6e6e" offset="0"/>
   <stop id="stop4364-9" stop-color="#8c8c8c" offset="1"/>
  </linearGradient>
  <linearGradient id="linearGradient7175-7">
   <stop id="stop7177-4" offset="0"/>
   <stop id="stop7179-1" stop-opacity="0" offset="1"/>
  </linearGradient>
  <linearGradient id="linearGradient7155-9">
   <stop id="stop7157-6" stop-color="#fff" offset="0"/>
   <stop id="stop7159-2" stop-color="#fff" stop-opacity="0" offset="1"/>
  </linearGradient>
  <filter id="filter3342" height="2.1786" width="1.5882" color-interpolation-filters="sRGB" y="-.58931" x="-.29412">
   <feGaussianBlur id="feGaussianBlur3344" stdDeviation="2.2029067"/>
  </filter>
  <linearGradient id="linearGradient4353-5">
   <stop id="stop4355-0" stop-color="#fff" offset="0"/>
   <stop id="stop4369-4" stop-color="#fff" stop-opacity=".49804" offset=".2"/>
   <stop id="stop4357-8" stop-color="#fff" stop-opacity="0" offset="1"/>
  </linearGradient>
  <linearGradient id="linearGradient4149" x1="65.156" xlink:href="#linearGradient7155-9" gradientUnits="userSpaceOnUse" y1="16.125" gradientTransform="translate(60)" x2="65.156" y2="69.688"/>
  <linearGradient id="linearGradient4147" x1="65.156" xlink:href="#linearGradient3487-2" gradientUnits="userSpaceOnUse" y1="16.125" gradientTransform="translate(60)" x2="65.156" y2="69.688"/>
  <linearGradient id="linearGradient2969-0" x1="32.251" xlink:href="#ButtonShadow-0-54" gradientUnits="userSpaceOnUse" y1="6.1317" gradientTransform="matrix(1.0238 0 0 1.0119 -1.1429 -98.071)" x2="32.251" y2="90.239"/>
  <linearGradient id="ButtonShadow-0-54" x1="45.448" gradientUnits="userSpaceOnUse" y1="92.54" gradientTransform="matrix(1.0059 0 0 .99417 100 0)" x2="45.448" y2="7.0165">
   <stop id="stop3750-8-0" offset="0"/>
   <stop id="stop3752-5-3" stop-opacity=".58824" offset="1"/>
  </linearGradient>
  <linearGradient id="linearGradient3721-0" x1="32.251" xlink:href="#ButtonShadow-0-54" gradientUnits="userSpaceOnUse" y1="6.1317" gradientTransform="translate(0,-97)" x2="32.251" y2="90.239"/>
  <radialGradient id="radialGradient2893-2" cx="48" gradientUnits="userSpaceOnUse" cy="90.172" r="42" gradientTransform="matrix(1.1573 0 0 .99591 -7.551 .19713)">
   <stop id="stop3739-7-2" stop-color="#fff" offset="0"/>
   <stop id="stop3741-2-7" stop-color="#fff" stop-opacity="0" offset="1"/>
  </radialGradient>
  <linearGradient id="linearGradient2675-0" x1="65.156" xlink:href="#linearGradient7155-9" gradientUnits="userSpaceOnUse" y1="16.125" x2="65.156" y2="69.688"/>
  <linearGradient id="linearGradient3701-9" x1="65.156" xlink:href="#linearGradient3487-2" gradientUnits="userSpaceOnUse" y1="16.125" x2="65.156" y2="69.688"/>
  <linearGradient id="linearGradient3693-2" x1="76.451" gradientUnits="userSpaceOnUse" y1="8.0625" x2="76.451" y2="72.766">
   <stop id="stop3689-7" stop-color="#fff" offset="0"/>
   <stop id="stop3691-8" stop-color="#fff" stop-opacity="0" offset="1"/>
  </linearGradient>
  <linearGradient id="linearGradient3466-6" x1="48" gradientUnits="userSpaceOnUse" y1="90" x2="48" y2="5.9877">
   <stop id="stop3189-0" stop-color="#b4b4b4" offset="0"/>
   <stop id="stop3191-2" stop-color="#e6e6e6" offset="1"/>
  </linearGradient>
  <linearGradient id="linearGradient3436-5" x1="43.179" gradientUnits="userSpaceOnUse" y1="13" gradientTransform="matrix(1.0294 0 0 1.0294 -1.4118 -1.4118)" x2="43.179" y2="83.295">
   <stop id="stop3467-4" stop-color="#919191" offset="0"/>
   <stop id="stop3469-7" stop-color="#fdfdfd" offset="1"/>
  </linearGradient>
  <linearGradient id="linearGradient3188-03" x1="36.357" xlink:href="#linearGradient7155-9" gradientUnits="userSpaceOnUse" y1="6" x2="36.357" y2="63.893"/>
  <filter id="filter3174" color-interpolation-filters="sRGB">
   <feGaussianBlur id="feGaussianBlur3176" stdDeviation="1.71"/>
  </filter>
  <linearGradient id="ButtonShadow-4" x1="45.448" gradientUnits="userSpaceOnUse" y1="92.54" gradientTransform="scale(1.0059 .99417)" x2="45.448" y2="7.0165">
   <stop id="stop3750-0" offset="0"/>
   <stop id="stop3752-2" stop-opacity=".58824" offset="1"/>
  </linearGradient>
  <linearGradient id="linearGradient3487-2">
   <stop id="stop3489-8" stop-color="#9cb7d2" offset="0"/>
   <stop id="stop3491-6" stop-color="#e7edf3" stop-opacity="0" offset="1"/>
  </linearGradient>
  <linearGradient id="linearGradient5078" y2="-1" xlink:href="#linearGradient7175-7" gradientUnits="userSpaceOnUse" x2="61.891" y1="53" x1="69"/>
  <linearGradient id="linearGradient5082" xlink:href="#linearGradient7175-7" gradientUnits="userSpaceOnUse" x2="56.067" y1="52" x1="70"/>
  <linearGradient id="linearGradient5084" y2="30" gradientUnits="userSpaceOnUse" x2="66" y1="46" x1="50">
   <stop id="stop4478" stop-color="#f1decd" offset="0"/>
   <stop id="stop4480" stop-color="#f6e8dd" offset=".41506"/>
   <stop id="stop4482" stop-color="#f0dcc9" offset=".625"/>
   <stop id="stop4484" stop-color="#dab693" offset=".87264"/>
   <stop id="stop4488" stop-color="#bf9d7a" offset=".94252"/>
   <stop id="stop4486" stop-color="#8f765e" offset="1"/>
  </linearGradient>
  <linearGradient id="linearGradient5086" y2="45.314" xlink:href="#linearGradient7175-7" gradientUnits="userSpaceOnUse" x2="52" y1="46.894" x1="64"/>
  <linearGradient id="linearGradient5088" y2="20" gradientUnits="userSpaceOnUse" x2="49" y1="46" x1="49">
   <stop id="stop4319" stop-color="#fff" offset="0"/>
   <stop id="stop4321" stop-color="#fff" stop-opacity="0" offset="1"/>
  </linearGradient>
  <linearGradient id="linearGradient5092" y2="16" gradientUnits="userSpaceOnUse" x2="77" y1="32" x1="72">
   <stop id="stop4337" stop-color="#999" offset="0"/>
   <stop id="stop4339" stop-color="#bbb" offset="1"/>
  </linearGradient>
  <linearGradient id="linearGradient5094" y2="80" xlink:href="#linearGradient4353-5" gradientUnits="userSpaceOnUse" x2="25" y1="76" x1="25"/>
  <linearGradient id="linearGradient5096" y2="80" xlink:href="#linearGradient4353-5" gradientUnits="userSpaceOnUse" x2="25" gradientTransform="translate(12)" y1="76" x1="25"/>
  <linearGradient id="linearGradient5098" y2="80" xlink:href="#linearGradient4353-5" gradientUnits="userSpaceOnUse" x2="25" gradientTransform="translate(24)" y1="76" x1="25"/>
  <linearGradient id="linearGradient5100" y2="-9.8173" gradientUnits="userSpaceOnUse" x2="11.375" y1="22" x1="11.375">
   <stop id="stop3330-1" offset="0"/>
   <stop id="stop3333-0" stop-opacity="0" offset="1"/>
  </linearGradient>
  <radialGradient id="radialGradient5102" gradientUnits="userSpaceOnUse" cy="32.812" cx="65.548" gradientTransform="matrix(.14657 0 0 .080251 1.45 4.383)" r="51.413">
   <stop id="stop7107-4" stop-color="#515151" offset="0"/>
   <stop id="stop7113-4" stop-color="#1b1b1b" offset="1"/>
  </radialGradient>
  <linearGradient id="linearGradient5104" y2="7.2537" gradientUnits="userSpaceOnUse" x2="-3.0608" gradientTransform="matrix(0 1 -1 0 28.258 11.119)" y1="27.258" x1="-3.0608">
   <stop id="stop11086-7" stop-color="#a0a0a0" offset="0"/>
   <stop id="stop11088-6" stop-color="#dcdcdc" offset=".13621"/>
   <stop id="stop11090-3" stop-color="#f5f5f5" offset=".30236"/>
   <stop id="stop11092-1" stop-color="#dcdcdc" offset=".61225"/>
   <stop id="stop11094-7" stop-color="#b4b4b4" offset="1"/>
  </linearGradient>
  <linearGradient id="linearGradient5106" y2="110.74" xlink:href="#linearGradient7155-9" gradientUnits="userSpaceOnUse" x2="26.985" gradientTransform="matrix(.16899 0 0 .16899 -9.1486 .15508)" y1="5" x1="26.985"/>
  <linearGradient id="linearGradient5108" y2="96.04" xlink:href="#linearGradient7155-9" spreadMethod="reflect" gradientUnits="userSpaceOnUse" x2="26.985" gradientTransform="matrix(.068362 0 0 -.16899 -12.166 21.785)" y1="54.295" x1="26.985"/>
  <linearGradient id="linearGradient5110" y2="68.695" xlink:href="#linearGradient7155-9" gradientUnits="userSpaceOnUse" x2="26.985" gradientTransform="matrix(.084084 0 0 -.16899 -18.3 21.785)" y1="5" x1="26.985"/>
  <linearGradient id="linearGradient5112" y2="70.167" xlink:href="#linearGradient7175-7" gradientUnits="userSpaceOnUse" x2="26.985" gradientTransform="matrix(.22873 0 0 -.16899 -19.27 21.785)" y1="5" x1="26.985"/>
  <linearGradient id="linearGradient5114" y2="120.64" xlink:href="#linearGradient7175-7" gradientUnits="userSpaceOnUse" x2="26.985" gradientTransform="matrix(.18471 0 0 -.16899 -12.947 21.845)" y1="5" x1="26.985"/>
  <linearGradient id="linearGradient5116" y2="68.695" xlink:href="#linearGradient7155-9" gradientUnits="userSpaceOnUse" x2="26.985" gradientTransform="matrix(.033772 0 0 .16899 -2.2528 .15508)" y1="5" x1="26.985"/>
  <linearGradient id="linearGradient5118" y2="176.65" xlink:href="#linearGradient7175-7" gradientUnits="userSpaceOnUse" x2="26.985" gradientTransform="matrix(.066863 0 0 .16899 -4.1694 .21479)" y1="5" x1="26.985"/>
  <linearGradient id="linearGradient5120" y2="110.67" xlink:href="#linearGradient7155-9" gradientUnits="userSpaceOnUse" x2="26.985" gradientTransform="matrix(.021194 0 0 .16899 -18.017 .15508)" y1="5" x1="26.985"/>
  <linearGradient id="linearGradient5122" y2="47.795" gradientUnits="userSpaceOnUse" x2="48.223" y1="13.313" x1="48.223">
   <stop id="stop7099-8" stop-color="#919191" offset="0"/>
   <stop id="stop7101-8" stop-color="#fff" offset="1"/>
  </linearGradient>
  <linearGradient id="linearGradient5124" y2="103.55" xlink:href="#linearGradient4360-1" gradientUnits="userSpaceOnUse" x2="69.921" y1="103.55" x1="87.229"/>
  <linearGradient id="linearGradient5126" y2="97.972" xlink:href="#linearGradient4368-4" gradientUnits="userSpaceOnUse" x2="86.749" y1="87.433" x1="82.856"/>
  <linearGradient id="linearGradient5128" y2="68.296" xlink:href="#linearGradient4368-4" gradientUnits="userSpaceOnUse" x2="61.13" y1="76.541" x1="52.106"/>
  <linearGradient id="linearGradient5130" y2="80.815" xlink:href="#linearGradient4360-1" gradientUnits="userSpaceOnUse" x2="75.281" y1="63.589" x1="66.74"/>
  <linearGradient id="linearGradient5132" y2="93.471" xlink:href="#linearGradient4360-1" gradientUnits="userSpaceOnUse" x2="48.194" y1="104.22" x1="43.245"/>
  <linearGradient id="linearGradient5134" y2="110.66" xlink:href="#linearGradient4368-4" gradientUnits="userSpaceOnUse" x2="46.921" y1="106.16" x1="60.414"/>
  <linearGradient id="linearGradient5136" y2="6.4255" gradientUnits="userSpaceOnUse" x2="6.935" gradientTransform="translate(0,-2)" y1="3" x1="6.9333">
   <stop id="stop3350-9" stop-color="#e0c693" offset="0"/>
   <stop id="stop3356-6" stop-color="#c0984f" offset=".71692"/>
   <stop id="stop3352-3" stop-color="#a67315" offset="1"/>
  </linearGradient>
  <linearGradient id="linearGradient5138" y2="85.821" gradientUnits="userSpaceOnUse" x2="48.036" gradientTransform="matrix(.21953 0 0 .21953 .33707 1.1776)" y1="25.911" x1="48.036">
   <stop id="stop3319-6" stop-color="#c6953a" offset="0"/>
   <stop id="stop3321-1" stop-color="#ab7a1f" offset="1"/>
  </linearGradient>
  <linearGradient id="linearGradient5140" y2="8.1216" gradientUnits="userSpaceOnUse" x2="10.872" gradientTransform="translate(-1.74 -3.123)" y1="24.123" x1="10.872">
   <stop id="stop4231-9" stop-color="#cca050" offset="0"/>
   <stop id="stop4233-8" stop-color="#dec18c" offset="1"/>
  </linearGradient>
 </defs>
 <metadata id="metadata7">
  <rdf:RDF>
   <cc:Work rdf:about="">
    <dc:format>image/svg+xml</dc:format>
    <dc:type rdf:resource="http://purl.org/dc/dcmitype/StillImage"/>
    <dc:title/>
   </cc:Work>
  </rdf:RDF>
 </metadata>
 <g id="layer1" transform="translate(0 -956.36)">
  <rect id="rect5263-0" fill-opacity=".019608" ry="12.724" height="89.978" width="89.624" y="959.35" x="3.3534"/>
  <rect id="rect5261-6" fill-opacity=".039216" ry="12.552" height="88.762" width="88.413" y="959.96" x="3.9589"/>
  <rect id="rect5259-9" fill-opacity=".078431" ry="12.38" height="87.546" width="87.202" y="960.57" x="4.5645"/>
  <rect id="rect5257-5" fill-opacity=".15686" ry="12.208" height="86.33" width="85.991" y="961.18" x="5.1701"/>
  <path id="rect2419" d="m17.75 5.4062c-6.642 0-11.969 5.3948-11.969 12.063l0.0002 61.031c0 6.668 5.3268 12.031 11.969 12.031h60.812c6.642 0 11.969-5.363 11.969-12.031v-61.031c0-6.668-5.327-12.063-11.969-12.063l-60.812 0.0002z" transform="translate(0 956.36)" fill="url(#linearGradient6400)"/>
  <path id="rect5265-0" d="m5.7756 1029.8v5.0663c0 6.668 5.3434 12.032 11.985 12.032h60.809c6.6418 0 11.985-5.3645 11.985-12.032v-5.0663c0 6.6681-5.3434 12.032-11.985 12.032h-60.809c-6.6418 0-11.985-5.3643-11.985-12.032z" fill-opacity=".11765"/>
  <path id="path5252-0" d="m5.7756 1033.9v1.0133c0 6.668 5.3434 12.032 11.985 12.032h60.809c6.6418 0 11.985-5.3645 11.985-12.032v-1.0133c0 6.6681-5.3434 12.032-11.985 12.032h-60.809c-6.6418 0-11.985-5.3644-11.985-12.032z" fill-opacity=".098039"/>
  <rect id="rect4891" opacity=".5" ry="7.1631" height="56" width="71.472" y="969.4" x="12.232" fill="#4d4d4d"/>
  <g id="g6406" clip-path="url(#clipPath6423)" transform="matrix(1.0793 0 0 .91797 -4.2058 83.612)">
   <g id="layer3" style="enable-background:new" transform="matrix(1 0 0 .93125 .27169 953.28)">
    <path id="path3215" d="m12.062 12.062v53.875h71.875v-53.875h-71.875z" transform="matrix(-1.0009 0 0 -1.334 96.01 99.966)" fill="url(#radialGradient6415)"/>
    <rect id="rect4832" opacity=".4" rx="3.0291" ry="2.383" height="10" width="72.536" y="74" x="11.786" fill="#c3d9f5"/>
    <rect id="rect4345" opacity=".4" rx="3.0291" ry="2.383" height="10" width="72.536" y="12" x="11.786" fill="#c3d9f5"/>
    <path id="rect3222" opacity="0.08" style="block-progression:tb;text-indent:0;color:#000000;enable-background:accumulate;text-transform:none" d="m19 13c-3.2894 0-6 2.7106-6 6v58c0 3.2894 2.7106 6 6 6h58c3.2894 0 6-2.7106 6-6v-58c0-3.2894-2.7106-6-6-6h-58zm0 4h58c1.1426 0 2 0.85741 2 2v58c0 1.1426-0.85741 2-2 2h-58c-1.1426 0-2-0.85741-2-2v-58c0-1.1426 0.85741-2 2-2z"/>
    <path id="rect3981" opacity=".1" style="color:#000000;enable-background:accumulate" d="m17 14c-1.662 0-3 1.338-3 3v62c0 1.662 1.338 3 3 3h62c1.662 0 3-1.338 3-3v-62c0-1.662-1.338-3-3-3h-62zm0 1.9375h62c0.61816 0 1.0625 0.44434 1.0625 1.0625v62c0 0.61816-0.44434 1.0625-1.0625 1.0625h-62c-0.61816 0-1.0625-0.44434-1.0625-1.0625v-62c0-0.61816 0.44434-1.0625 1.0625-1.0625z"/>
    <path id="rect3977" opacity=".25" style="color:#000000;enable-background:accumulate" d="m17 14c-1.662 0-3 1.338-3 3v62c0 1.662 1.338 3 3 3h62c1.662 0 3-1.338 3-3v-62c0-1.662-1.338-3-3-3h-62zm0 0.96875h62c1.1401 0 2.0312 0.89117 2.0312 2.0312v62c0 1.1401-0.89117 2.0312-2.0312 2.0312h-62c-1.1401 0-2.0312-0.89117-2.0312-2.0312v-62c0-1.1401 0.89117-2.0312 2.0312-2.0312z"/>
   </g>
  </g>
  <rect id="rect4935" transform="scale(1,-1)" ry=".56012" height="1.1202" width="15.011" y="-1034.4" x="61.232" fill="#999"/>
  <rect id="rect4939" transform="scale(1,-1)" ry=".56012" height="1.1202" width="15.011" y="-1033.9" x="61.232" fill="#808080"/>
  <g id="layer2" display="none" transform="translate(234.08 755.86)">
   <rect id="rect3745" opacity=".9" rx="6" ry="6" height="85" filter="url(#filter3174)" width="86" y="7" x="5" fill="url(#ButtonShadow-4)"/>
  </g>
  <g id="layer4" transform="translate(234.08 755.86)">
   <path id="path3786" opacity="0.08" d="m12-95.031c-5.5111 0-10.031 4.5202-10.031 10.031v71c0 5.5111 4.5202 10.031 10.031 10.031h72c5.5111 0 10.031-4.5202 10.031-10.031v-71c0-5.5111-4.5202-10.031-10.031-10.031h-72z" transform="scale(1,-1)" fill="url(#linearGradient2969-0)"/>
   <path id="path3778" opacity=".1" d="m12-94.031c-4.9716 0-9.0312 4.0596-9.0312 9.0312v71c0 4.9716 4.0596 9.0312 9.0312 9.0312h72c4.9716 0 9.0312-4.0596 9.0312-9.0312v-71c0-4.9716-4.0596-9.0312-9.0312-9.0312h-72z" transform="scale(1,-1)" fill="url(#linearGradient2969-0)"/>
   <path id="path3770" opacity=".2" d="m12-93c-4.4091 0-8 3.5909-8 8v71c0 4.4091 3.5909 8 8 8h72c4.4091 0 8-3.5909 8-8v-71c0-4.4091-3.5909-8-8-8h-72z" transform="scale(1,-1)" fill="url(#linearGradient2969-0)"/>
   <rect id="rect3723" opacity=".3" transform="scale(1,-1)" rx="7" ry="7" height="85" width="86" y="-92" x="5" fill="url(#linearGradient2969-0)"/>
   <rect id="rect3716" opacity=".45" transform="scale(1,-1)" rx="6" ry="6" height="84" width="84" y="-91" x="6" fill="url(#linearGradient3721-0)"/>
  </g>
  <g id="layer3-0" transform="translate(247.34 771.95)">
   <path id="path3215-5" d="m12.062 12.062v53.875h71.875v-53.875h-71.875z" transform="matrix(-1.0009 0 0 -1.334 96.01 99.966)" fill="url(#radialGradient6415)"/>
   <g id="g3449">
    <rect id="rect4345-7" opacity=".4" rx="3.0291" ry="2.383" height="10" width="72.536" y="12" x="11.786" fill="#c3d9f5"/>
    <path id="path4371-1" opacity=".5" style="color:#000000" d="m25 19a2 2 0 1 1 -4 0 2 2 0 1 1 4 0z" transform="translate(-1,-1)" fill="#fff"/>
    <g id="text4373-0" opacity=".5" transform="translate(.11513 .90977)" fill="#fff">
     <path id="path4378-6" d="m27.487 18.535c-0.022-0.072-0.047-0.146-0.075-0.222-0.026-0.076-0.052-0.152-0.078-0.228h-0.81c-0.026 0.076-0.053 0.152-0.081 0.228-0.026 0.076-0.05 0.15-0.072 0.222h-0.486c0.078-0.224 0.152-0.431 0.222-0.621s0.138-0.369 0.204-0.537c0.068-0.168 0.134-0.327 0.198-0.477 0.066-0.152 0.134-0.3 0.204-0.444h0.447c0.068 0.144 0.135 0.292 0.201 0.444 0.066 0.15 0.132 0.309 0.198 0.477 0.068 0.168 0.137 0.347 0.207 0.537s0.144 0.397 0.222 0.621h-0.501m-0.561-1.608c-0.01 0.03-0.025 0.071-0.045 0.123s-0.043 0.112-0.069 0.18-0.055 0.143-0.087 0.225c-0.03 0.082-0.061 0.168-0.093 0.258h0.591c-0.032-0.09-0.063-0.176-0.093-0.258s-0.059-0.157-0.087-0.225c-0.026-0.068-0.049-0.128-0.069-0.18s-0.036-0.093-0.048-0.123"/>
     <path id="path4380-1" d="m29.238 17.758c-0.000001-0.138-0.031-0.248-0.093-0.33-0.062-0.084-0.154-0.126-0.276-0.126-0.04 0.000001-0.077 0.002-0.111 0.006-0.034 0.002-0.062 0.005-0.084 0.009v0.807c0.028 0.018 0.064 0.033 0.108 0.045 0.046 0.012 0.092 0.018 0.138 0.018 0.212 0 0.318-0.143 0.318-0.429m0.456-0.012c-0.000001 0.122-0.015 0.233-0.045 0.333s-0.074 0.186-0.132 0.258-0.13 0.128-0.216 0.168-0.185 0.06-0.297 0.06c-0.062 0-0.12-0.006-0.174-0.018s-0.106-0.029-0.156-0.051v0.594h-0.447v-2.079c0.04-0.012 0.086-0.023 0.138-0.033 0.052-0.012 0.106-0.022 0.162-0.03 0.058-0.008 0.116-0.014 0.174-0.018 0.06-0.006 0.117-0.009 0.171-0.009 0.13 0.000001 0.246 0.02 0.348 0.06 0.102 0.038 0.188 0.093 0.258 0.165 0.07 0.07 0.123 0.156 0.159 0.258 0.038 0.102 0.057 0.216 0.057 0.342"/>
     <path id="path4382-5" d="m31.049 17.758c-0.000001-0.138-0.031-0.248-0.093-0.33-0.062-0.084-0.154-0.126-0.276-0.126-0.04 0.000001-0.077 0.002-0.111 0.006-0.034 0.002-0.062 0.005-0.084 0.009v0.807c0.028 0.018 0.064 0.033 0.108 0.045 0.046 0.012 0.092 0.018 0.138 0.018 0.212 0 0.318-0.143 0.318-0.429m0.456-0.012c-0.000001 0.122-0.015 0.233-0.045 0.333s-0.074 0.186-0.132 0.258-0.13 0.128-0.216 0.168-0.185 0.06-0.297 0.06c-0.062 0-0.12-0.006-0.174-0.018s-0.106-0.029-0.156-0.051v0.594h-0.447v-2.079c0.04-0.012 0.086-0.023 0.138-0.033 0.052-0.012 0.106-0.022 0.162-0.03 0.058-0.008 0.116-0.014 0.174-0.018 0.06-0.006 0.117-0.009 0.171-0.009 0.13 0.000001 0.246 0.02 0.348 0.06 0.102 0.038 0.188 0.093 0.258 0.165 0.07 0.07 0.123 0.156 0.159 0.258 0.038 0.102 0.057 0.216 0.057 0.342"/>
     <path id="path4384-9" d="m32.478 18.565c-0.13-0.002-0.236-0.016-0.318-0.042-0.08-0.026-0.144-0.062-0.192-0.108-0.046-0.048-0.078-0.105-0.096-0.171-0.016-0.068-0.024-0.144-0.024-0.228v-1.737l0.447-0.072v1.719c-0.000001 0.04 0.003 0.076 0.009 0.108s0.017 0.059 0.033 0.081c0.018 0.022 0.043 0.04 0.075 0.054s0.075 0.023 0.129 0.027l-0.063 0.369"/>
     <path id="path4386-4" d="m33.244 18.535h-0.447v-1.578h0.447v1.578m0.042-2.034c-0.000001 0.082-0.027 0.147-0.081 0.195-0.052 0.046-0.114 0.069-0.186 0.069-0.072 0.000001-0.135-0.023-0.189-0.069-0.052-0.048-0.078-0.113-0.078-0.195s0.026-0.146 0.078-0.192c0.054-0.048 0.117-0.072 0.189-0.072 0.072 0.000002 0.134 0.024 0.186 0.072 0.054 0.046 0.081 0.11 0.081 0.192"/>
     <path id="path4388-9" d="m33.589 17.746c0-0.114 0.018-0.221 0.054-0.321 0.038-0.102 0.092-0.19 0.162-0.264 0.07-0.076 0.155-0.136 0.255-0.18s0.214-0.066 0.342-0.066c0.084 0.000001 0.161 0.008 0.231 0.024 0.07 0.014 0.138 0.035 0.204 0.063l-0.093 0.357c-0.042-0.016-0.088-0.03-0.138-0.042s-0.106-0.018-0.168-0.018c-0.132 0.000001-0.231 0.041-0.297 0.123-0.064 0.082-0.096 0.19-0.096 0.324 0 0.142 0.03 0.252 0.09 0.33 0.062 0.078 0.169 0.117 0.321 0.117 0.054 0 0.112-0.005 0.174-0.015s0.119-0.026 0.171-0.048l0.063 0.366c-0.052 0.022-0.117 0.041-0.195 0.057s-0.164 0.024-0.258 0.024c-0.144 0-0.268-0.021-0.372-0.063-0.104-0.044-0.19-0.103-0.258-0.177-0.066-0.074-0.115-0.161-0.147-0.261-0.03-0.102-0.045-0.212-0.045-0.33"/>
     <path id="path4390-0" d="m35.691 18.223c0.044 0 0.086-0.001 0.126-0.003s0.072-0.005 0.096-0.009v-0.339c-0.018-0.004-0.045-0.008-0.081-0.012s-0.069-0.006-0.099-0.006c-0.042 0-0.082 0.003-0.12 0.009-0.036 0.004-0.068 0.013-0.096 0.027s-0.05 0.033-0.066 0.057-0.024 0.054-0.024 0.09c-0.000001 0.07 0.023 0.119 0.069 0.147 0.048 0.026 0.113 0.039 0.195 0.039m-0.036-1.308c0.132 0.000001 0.242 0.015 0.33 0.045s0.158 0.073 0.21 0.129c0.054 0.056 0.092 0.124 0.114 0.204s0.033 0.169 0.033 0.267v0.93c-0.064 0.014-0.153 0.03-0.267 0.048-0.114 0.02-0.252 0.03-0.414 0.03-0.102 0-0.195-0.009-0.279-0.027-0.082-0.018-0.153-0.047-0.213-0.087-0.06-0.042-0.106-0.096-0.138-0.162s-0.048-0.147-0.048-0.243c-0.000001-0.092 0.018-0.17 0.054-0.234 0.038-0.064 0.088-0.115 0.15-0.153s0.133-0.065 0.213-0.081c0.08-0.018 0.163-0.027 0.249-0.027 0.058 0.000001 0.109 0.003 0.153 0.009 0.046 0.004 0.083 0.01 0.111 0.018v-0.042c-0.000002-0.076-0.023-0.137-0.069-0.183s-0.126-0.069-0.24-0.069c-0.076 0.000001-0.151 0.006-0.225 0.018-0.074 0.01-0.138 0.025-0.192 0.045l-0.057-0.36c0.026-0.008 0.058-0.016 0.096-0.024 0.04-0.01 0.083-0.018 0.129-0.024 0.046-0.008 0.094-0.014 0.144-0.018 0.052-0.006 0.104-0.009 0.156-0.009"/>
     <path id="path4392-9" d="m36.732 16.564 0.447-0.072v0.465h0.537v0.372h-0.537v0.555c-0.000001 0.094 0.016 0.169 0.048 0.225 0.034 0.056 0.101 0.084 0.201 0.084 0.048 0 0.097-0.004 0.147-0.012 0.052-0.01 0.099-0.023 0.141-0.039l0.063 0.348c-0.054 0.022-0.114 0.041-0.18 0.057s-0.147 0.024-0.243 0.024c-0.122 0-0.223-0.016-0.303-0.048-0.08-0.034-0.144-0.08-0.192-0.138-0.048-0.06-0.082-0.132-0.102-0.216-0.018-0.084-0.027-0.177-0.027-0.279v-1.326"/>
     <path id="path4394-1" d="m38.524 18.535h-0.447v-1.578h0.447v1.578m0.042-2.034c-0.000001 0.082-0.027 0.147-0.081 0.195-0.052 0.046-0.114 0.069-0.186 0.069-0.072 0.000001-0.135-0.023-0.189-0.069-0.052-0.048-0.078-0.113-0.078-0.195s0.026-0.146 0.078-0.192c0.054-0.048 0.117-0.072 0.189-0.072 0.072 0.000002 0.134 0.024 0.186 0.072 0.054 0.046 0.081 0.11 0.081 0.192"/>
     <path id="path4396-7" d="m40.42 17.743c-0.000001 0.124-0.018 0.238-0.054 0.342-0.036 0.102-0.088 0.19-0.156 0.264-0.068 0.072-0.15 0.128-0.246 0.168-0.094 0.04-0.2 0.06-0.318 0.06-0.116 0-0.222-0.02-0.318-0.06-0.094-0.04-0.175-0.096-0.243-0.168-0.068-0.074-0.121-0.162-0.159-0.264-0.038-0.104-0.057-0.218-0.057-0.342s0.019-0.237 0.057-0.339c0.04-0.102 0.094-0.189 0.162-0.261 0.07-0.072 0.152-0.128 0.246-0.168 0.096-0.04 0.2-0.06 0.312-0.06 0.114 0.000001 0.218 0.02 0.312 0.06 0.096 0.04 0.178 0.096 0.246 0.168s0.121 0.159 0.159 0.261 0.057 0.215 0.057 0.339m-0.456 0c-0.000001-0.138-0.028-0.246-0.084-0.324-0.054-0.08-0.132-0.12-0.234-0.12-0.102 0.000001-0.181 0.04-0.237 0.12-0.056 0.078-0.084 0.186-0.084 0.324s0.028 0.248 0.084 0.33c0.056 0.08 0.135 0.12 0.237 0.12s0.18-0.04 0.234-0.12c0.056-0.082 0.084-0.192 0.084-0.33"/>
     <path id="path4398-7" d="m40.766 17.011c0.076-0.022 0.174-0.042 0.294-0.06 0.12-0.02 0.246-0.03 0.378-0.03 0.134 0.000001 0.245 0.018 0.333 0.054 0.09 0.034 0.161 0.083 0.213 0.147s0.089 0.14 0.111 0.228 0.033 0.186 0.033 0.294v0.891h-0.447v-0.837c-0.000001-0.144-0.019-0.246-0.057-0.306s-0.109-0.09-0.213-0.09c-0.032 0.000001-0.066 0.002-0.102 0.006-0.036 0.002-0.068 0.005-0.096 0.009v1.218h-0.447v-1.524"/>
     <path id="path4400-1" d="m42.989 18.214c0.082 0 0.14-0.008 0.174-0.024s0.051-0.047 0.051-0.093c-0.000001-0.036-0.022-0.067-0.066-0.093-0.044-0.028-0.111-0.059-0.201-0.093-0.07-0.026-0.134-0.053-0.192-0.081-0.056-0.028-0.104-0.061-0.144-0.099-0.04-0.04-0.071-0.087-0.093-0.141s-0.033-0.119-0.033-0.195c0-0.148 0.055-0.265 0.165-0.351s0.261-0.129 0.453-0.129c0.096 0.000001 0.188 0.009 0.276 0.027 0.088 0.016 0.158 0.034 0.21 0.054l-0.078 0.348c-0.052-0.018-0.109-0.034-0.171-0.048-0.06-0.014-0.128-0.021-0.204-0.021-0.14 0.000001-0.21 0.039-0.21 0.117 0 0.018 0.003 0.034 0.009 0.048s0.018 0.028 0.036 0.042c0.018 0.012 0.042 0.026 0.072 0.042 0.032 0.014 0.072 0.03 0.12 0.048 0.098 0.036 0.179 0.072 0.243 0.108 0.064 0.034 0.114 0.072 0.15 0.114 0.038 0.04 0.064 0.085 0.078 0.135 0.016 0.05 0.024 0.108 0.024 0.174-0.000001 0.156-0.059 0.274-0.177 0.354-0.116 0.08-0.281 0.12-0.495 0.12-0.14 0-0.257-0.012-0.351-0.036-0.092-0.024-0.156-0.044-0.192-0.06l0.075-0.363c0.076 0.03 0.154 0.054 0.234 0.072 0.08 0.016 0.159 0.024 0.237 0.024"/>
    </g>
   </g>
   <path id="path4333" fill="url(#linearGradient5092)" d="m47 14 35 34v-34z"/>
   <rect id="rect4832-0" opacity=".4" rx="3.0291" ry="2.383" height="10" width="72.536" y="74" x="11.786" fill="#c3d9f5"/>
   <path id="rect3222-2" opacity="0.08" style="block-progression:tb;text-indent:0;color:#000000;text-transform:none" d="m19 13c-3.2894 0-6 2.7106-6 6v58c0 3.2894 2.7106 6 6 6h58c3.2894 0 6-2.7106 6-6v-58c0-3.2894-2.7106-6-6-6h-58zm0 4h58c1.1426 0 2 0.85741 2 2v58c0 1.1426-0.85741 2-2 2h-58c-1.1426 0-2-0.85741-2-2v-58c0-1.1426 0.85741-2 2-2z"/>
   <path id="rect3981-5" opacity=".1" style="color:#000000" d="m17 14c-1.662 0-3 1.338-3 3v62c0 1.662 1.338 3 3 3h62c1.662 0 3-1.338 3-3v-62c0-1.662-1.338-3-3-3h-62zm0 1.9375h62c0.61816 0 1.0625 0.44434 1.0625 1.0625v62c0 0.61816-0.44434 1.0625-1.0625 1.0625h-62c-0.61816 0-1.0625-0.44434-1.0625-1.0625v-62c0-0.61816 0.44434-1.0625 1.0625-1.0625z"/>
   <path id="rect3977-4" opacity=".25" style="color:#000000" d="m17 14c-1.662 0-3 1.338-3 3v62c0 1.662 1.338 3 3 3h62c1.662 0 3-1.338 3-3v-62c0-1.662-1.338-3-3-3h-62zm0 0.96875h62c1.1401 0 2.0312 0.89117 2.0312 2.0312v62c0 1.1401-0.89117 2.0312-2.0312 2.0312h-62c-1.1401 0-2.0312-0.89117-2.0312-2.0312v-62c0-1.1401 0.89117-2.0312 2.0312-2.0312z"/>
   <rect id="rect4347-2" opacity=".5" style="color:#000000" rx="1" ry="1" height="4" width="10" y="76" x="20" fill="url(#linearGradient5094)"/>
   <rect id="rect4361-2" opacity=".5" style="color:#000000" rx="1" ry="1" height="4" width="10" y="76" x="32" fill="url(#linearGradient5096)"/>
   <rect id="rect4365-6" opacity=".5" style="color:#000000" rx="1" ry="1" height="4" width="10" y="76" x="44" fill="url(#linearGradient5098)"/>
   <path id="path3573" opacity="0.08" d="m21.531 26.031c-1.3738-0.02826-2.6312 1.2081-2.5625 2.5938-0.67583 0.54992-1.0291 1.4084-0.9375 2.2717 0.01819 1.5291-0.03825 3.0619 0.03183 4.5885 0.18087 1.3208 1.4002 2.3635 2.7182 2.421-1.5743 0.05001-2.9137 1.5335-2.75 3.1112 0.0096 2.1134-0.01945 4.228 0.01511 6.3406 0.12414 1.5652 1.6616 2.7764 3.2079 2.6106 2.0345-0.0096 4.0702 0.01955 6.1039-0.01511 1.5671-0.12419 2.7779-1.6645 2.6106-3.2121-0.0089-2.0901 0.01801-4.1813-0.01394-6.2706-0.11313-1.3551-1.3402-2.4443-2.6736-2.5334 0.76327-0.03489 1.316-0.55007 1.8801-1.0148 0.77369-0.66894 0.8508-1.7135 0.80738-2.6627-0.01583-1.3871 0.03337-2.7773-0.02788-4.1622-0.09327-1.1397-1.2507-1.6143-1.6909-2.5353-0.62704-0.54251-1.0614-0.7479-1.9417-0.78125h-1.5583c-0.56401-0.70353-1.4923-0.79891-2.3295-0.75h-0.88928z"/>
   <path id="path3569" opacity=".15" d="m21.531 25.094c-0.78187 0-1.5 0.62776-1.5 1.4688v0.375 0.09375c-0.51562 0.32968-0.9375 0.79693-0.9375 1.4375v4.5938c0 0.99292 0.85083 1.8438 1.8438 1.8438h6.125c0.2164 0 0.41216-0.06783 0.5625-0.125 0.0099-0.0038 0.02192-0.02749 0.03125-0.03125 0.008-0.0029 0.0233 0.0031 0.03125 0 0.65924-0.25409 1.2188-0.89148 1.2188-1.6875v-4.5938c0-0.77979-0.54662-1.3916-1.1875-1.6562-0.084-0.165-0.111-0.392-0.22-0.502-0.146-0.145-0.29-0.237-0.469-0.312-0.043-0.018-0.228-0.156-0.562-0.156h-2.2188c-0.043-0.078-0.047-0.119-0.125-0.219-0.187-0.24-0.637-0.531-1.063-0.531h-1.5312zm-0.59375 11.812c-0.99292 0-1.8438 0.85083-1.8438 1.8438v6.3125c0 0.99292 0.85083 1.8438 1.8438 1.8438h0.15625 5.8125 0.15625c0.99292 0 1.8438-0.85083 1.8438-1.8438v-6.3125c0-0.99292-0.85083-1.8438-1.8438-1.8438h-6.125z" transform="translate(0,2)"/>
   <g id="g11096" transform="matrix(.38095 0 0 .38095 19.81 39.619)">
    <g id="g11165">
     <rect id="rect11167" opacity=".3" rx="2.5" ry="2.5" height="21.5" width="21" y=".5" x=".5" fill="url(#linearGradient5100)"/>
     <rect id="rect11169" opacity=".5" rx="2.381" ry="2.3256" height="20" width="20" y="2" x="1"/>
    </g>
    <rect id="rect3344" fill-rule="evenodd" height="12.137" width="17.615" y="1.6893" x="2.2499" fill="url(#radialGradient5102)"/>
    <path id="path11172" d="m3 1c-1.108 0-2 0.892-2 2v16c0 1.108 0.892 2 2 2h16c1.108 0 2-0.892 2-2v-16c0-1.108-0.892-2-2-2h-16zm8 1.5c4.14 0 7.5 1.3464 7.5 3-0.000001 1.6536-3.36 3-7.5 3-4.14 1e-7 -7.5-1.3464-7.5-3 1e-7 -1.6536 3.36-3 7.5-3z" fill-rule="evenodd" fill="url(#linearGradient5104)"/>
    <g id="g4359" fill-rule="evenodd" transform="translate(20)">
     <path id="rect7153" opacity=".6" d="m-6.1875 1v1.75c1.2913 0.21049 2.4042 0.55724 3.2188 1v-2.75h-3.2188zm3.2188 6.375c-0.33326 0.24412-0.75225 0.46093-1.2188 0.65625-0.58322 0.24419-1.2533 0.44154-2 0.59375v12.312h3.2188v-13.562z" fill="url(#linearGradient5106)"/>
     <path id="rect7163" opacity=".3" d="m-10.969 1v1.625c0.4264-0.046882 0.85938-0.077656 1.3125-0.09375v-1.5312h-1.3125zm0 7.875v12.062h1.3125v-12c-0.44408-0.0059-0.89128-0.02527-1.3125-0.0625z" fill="url(#linearGradient5108)"/>
     <path id="rect7167" opacity=".4" d="m-16.812 1v4.375c0.08904-0.30661 0.26281-0.60877 0.53125-0.875 0.2714-0.26916 0.60953-0.52846 1.0312-0.75v-2.75h-1.5625zm0 5.1562v14.781h1.5625v-13.188c-0.42171-0.22163-0.75984-0.44999-1.0312-0.71875-0.26846-0.26584-0.44222-0.57002-0.53125-0.875z" fill="url(#linearGradient5110)"/>
     <path id="rect7171" opacity=".15" d="m-15.281 1v2.875c0.99349-0.60739 2.5462-1.0557 4.3438-1.25v-1.625h-4.3438zm0 6.125v13.812h4.3438v-12.562c-1.807-0.19531-3.3507-0.6378-4.3438-1.25z" fill="url(#linearGradient5112)"/>
     <path id="rect7185" opacity=".1" d="m-9.7188 1.0625v1.4688c0.2419-0.0095 0.4708-0.0313 0.7188-0.0313 0.9883 0 1.917 0.079814 2.7812 0.21875v-1.6562h-3.5zm3.5 7.2188c-0.8642 0.1389-1.7929 0.2187-2.7812 0.2187-0.248 0-0.4769-0.0218-0.7188-0.0312v12.531h3.5v-12.719z" fill="url(#linearGradient5114)"/>
     <rect id="rect7189" opacity=".4" height="19.94" width=".64132" y="1" x="-1.6621" fill="url(#linearGradient5116)"/>
     <path id="rect7193" opacity=".1" d="m-3 1.0625v2.6562c0.59861 0.32006 1.0407 0.69314 1.2812 1.0938v-3.75h-1.2812zm1.2812 5.125c-0.2383 0.4013-0.6836 0.7729-1.2812 1.0937v13.719h1.2812v-14.812z" fill="url(#linearGradient5118)"/>
     <rect id="rect7197" opacity=".4" height="19.94" width=".40247" y="1" x="-17.646" fill="url(#linearGradient5120)"/>
    </g>
    <path id="path11183" opacity=".15" d="m3 21c-1.108 0-2-0.892-2-2v-1c0 1.108 0.892 2 2 2h16c1.108 0 2-0.892 2-2v1c0 1.108-0.892 2-2 2h-16z" fill-rule="evenodd"/>
    <path id="path11185" opacity=".25" d="m3 1c-1.108 0-2 0.892-2 2v1c0-1.108 0.892-2 2-2h16c1.108 0 2 0.892 2 2v-1c0-1.108-0.892-2-2-2h-16z" fill-rule="evenodd" fill="#fff"/>
    <path id="path7095" stroke-linejoin="round" d="m103.44 30.554a40.477 16.241 0 1 1 -80.955 0 40.477 16.241 0 1 1 80.955 0z" transform="matrix(.18529 0 0 .18445 -.66667 -.13118)" stroke="url(#linearGradient5122)" stroke-linecap="round" stroke-width="7.0997" fill="none"/>
    <g id="g3350" transform="matrix(.18038 0 0 .18038 -.54414 -1.4184)">
     <path id="path3292" d="m66.74 106.88 6.3317-11.357 0.0301 4.1536 13.326-0.03009c2.3811-0.25234 4.4687-1.2201 5.9805-3.0399-4.825 9.8683-6.2147 16.851-16.226 16.855h-3.0806l-0.0301 4.6151-6.3317-11.197z" fill="url(#linearGradient5124)"/>
     <path id="path3290" d="m81.24 97.921-5.88-10.835 11.881-7.193 5.749 11.517c0.17409 2.7563-4.2769 6.592-7.0396 6.5622l-4.7107-0.05088z" fill="url(#linearGradient5126)"/>
     <path id="path3288" d="m45.109 73.92 6.07-9.0957c5.8874-2.1923 9.2977 2.5406 11.45 5.524l-5.719 10.976-11.801-7.404z" fill="url(#linearGradient5128)"/>
     <path id="path3286" d="m69.091 78.447c-1.221-2.878-2.852-6.169-4.892-9.031-1.826-2.563-4.033-4.798-5.704-5.797l15.353-0.03009c2.7572 0.24748 4.0968 1.8546 5.5591 4.0532l2.2076 3.8827 3.4117-2.1771-6.422 11.437-13.848 0.03009 4.3349-2.3677z" fill="url(#linearGradient5130)"/>
     <path id="path3284" d="m47.847 82.694 7.3428 10.731-3.7316-1.8255-5.9163 11.938c-0.83607 2.2434-0.90083 4.5431 0.05403 6.7077-6.682-8.719-12.313-13.077-7.8518-22.037l1.3739-2.7568-4.1179-2.0852 12.847-0.67259z" fill="url(#linearGradient5132)"/>
     <path id="path4068" d="m49.529 99.667 13.538-0.42958-0.07542 13.84-12.875 0.009c-2.5451-1.0735-3.9936-6.7673-2.7347-9.2263l2.1465-4.1929z" fill="url(#linearGradient5134)"/>
    </g>
   </g>
   <g id="g2863" transform="matrix(.38095 0 0 .38095 19.81 27.619)">
    <g id="g3180" transform="translate(0,1)">
     <rect id="rect3178" opacity=".2" rx="2.5" ry="2.5" height="17" width="21" y="4" x=".5"/>
     <rect id="rect5478" opacity=".4" rx="2" ry="2" height="16" width="20" y="5" x="1"/>
    </g>
    <path id="rect2859" d="m4.5 1c-0.831 0-1.5 0.669-1.5 1.5v2 3c0 0.831 0.669 1.5 1.5 1.5h4 9c0.831 0 1.5-0.669 1.5-1.5v-3c0-0.831-0.669-1.5-1.5-1.5h-7.235l-0.265-0.5c-0.3893-0.7341-0.669-1.5-1.5-1.5h-4z" fill="url(#linearGradient5136)"/>
    <path id="path3648" opacity=".2" d="m4.5 1c-0.831 0-1.5 0.669-1.5 1.5v1c0-0.831 0.669-1.5 1.5-1.5h4c0.831 0 1.1107 0.7659 1.5 1.5l0.25 0.5h7.25c0.831 0 1.5 0.669 1.5 1.5v-1c0-0.831-0.669-1.5-1.5-1.5h-7.25l-0.25-0.5c-0.3893-0.7341-0.669-1.5-1.5-1.5h-4z" fill="#fff"/>
    <rect id="rect3352" rx="1.3172" ry="1.3172" height="13.76" width="16.464" y="6.2581" x="2.6499" fill="url(#linearGradient5138)"/>
    <path id="path2788" d="m11 8-6 6.0312h1.9688v3.9688h8.0312v-4h2.062l-3.031-3.031v-1.969h-1.031v1l-2-2zm0 1 1.5 1.5c0.2183 0.23216 0.56752 0.2839 0.84375 0.125v0.34375c-0.0074 0.18512 0.06019 0.3654 0.1875 0.5l1.8438 1.8438h-0.375c-0.37968 0.000038-0.68746 0.30782-0.6875 0.6875v3.3125h-6.6562v-3.2812c-0.000038-0.37968-0.30782-0.68746-0.6875-0.6875h-0.28125l4.311-4.344z" fill="#835c1d"/>
    <rect id="rect4260" opacity=".15" transform="matrix(.88177 0 0 .88177 .23840 7.2541)" rx="2" ry="2" height="8.9714" filter="url(#filter3342)" width="17.976" y="1.98" x="2" fill="#fff"/>
    <path id="rect3660" d="m3 5c-1.108 0-2 0.892-2 2v12c0 1.108 0.892 2 2 2h16c1.108 0 2-0.892 2-2v-12c0-1.108-0.892-2-2-2h-16zm8 3 2 2v-1h1.0312v1.9688l3.031 3.031h-2.062v4h-8.0312v-3.9688h-1.9688l6-6.031z" fill="url(#linearGradient5140)"/>
    <path id="rect3670" d="m3 5c-1.108 0-2 0.892-2 2v1c0-1.108 0.892-2 2-2h16c1.108 0 2 0.892 2 2v-1c0-1.108-0.892-2-2-2h-16z" fill="#ead7b4"/>
    <path id="path3675" d="m3 21c-1.108 0-2-0.892-2-2v-1c0 1.108 0.892 2 2 2h16c1.108 0 2-0.892 2-2v1c0 1.108-0.892 2-2 2h-16z" fill="#b07c28"/>
    <path id="path3582" opacity=".5" d="m10.875 7.0312c-0.213 0.0289-0.411 0.1278-0.563 0.2813l-6 6.0312c-0.275 0.278-0.3684 0.701-0.2182 1.062 0.1501 0.362 0.5145 0.592 0.9062 0.594h1v3c0.00198 0.5342 0.43455 0.96676 0.96875 0.96875h8.0312c0.534-0.002 0.967-0.435 0.969-0.969v-3.0312h1.0938c0.39166-0.0015 0.7561-0.23201 0.90625-0.59375 0.15016-0.36174 0.05672-0.78408-0.21875-1.0625l-2.75-2.751v-1.562c-0.002-0.5342-0.435-0.9668-0.969-0.9688h-1.0312c-0.1643 0.00139-0.32557 0.044399-0.46875 0.125l-0.843-0.8437c-0.213-0.2149-0.513-0.3188-0.813-0.2813zm0.125 0.9688l2 2v-1h1.0312v1.9688l3.031 3.031h-2.062v4h-8.0312v-3.9688h-1.9688l6-6.031z" fill="#ead7b4"/>
   </g>
  </g>
  <g id="layer1-2" transform="translate(234.08 755.86)">
   <path id="rect2419-8" d="m12 6c-3.324 0-6 2.676-6 6v72c0 3.324 2.676 6 6 6h72c3.324 0 6-2.676 6-6v-72c0-3.324-2.676-6-6-6h-72zm5 8h1 60 1c1.6838 0 3 1.3162 3 3v1 60 1c0.000001 1.6838-1.3162 3-3 3h-1-60-1c-1.6838 0.000001-3-1.3162-3-3v-1-60-1c0-1.6838 1.3162-3 3-3z" fill="url(#linearGradient3466-6)"/>
   <path id="rect3728" opacity=".7" d="m12 6c-3.324 0-6 2.676-6 6v2 68 2c0 0.33472 0.04135 0.6507 0.09375 0.96875 0.0487 0.2956 0.09704 0.59692 0.1875 0.875 0.00988 0.03038 0.020892 0.0636 0.03125 0.09375 0.098865 0.28777 0.23488 0.54745 0.375 0.8125 0.14459 0.27351 0.31562 0.53562 0.5 0.78125 0.18438 0.24564 0.37378 0.47347 0.59375 0.6875 0.43995 0.42806 0.94291 0.81453 1.5 1.0938 0.27854 0.13961 0.57347 0.24695 0.875 0.34375-0.2562-0.10022-0.48671-0.23627-0.71875-0.375-0.00741-0.0044-0.023866 0.0045-0.03125 0-0.031933-0.0193-0.062293-0.04251-0.09375-0.0625-0.1204-0.0767-0.23102-0.16351-0.34375-0.25-0.10617-0.0808-0.21328-0.16111-0.3125-0.25-0.1778-0.162-0.3473-0.346-0.4999-0.531-0.1075-0.131-0.2183-0.266-0.3124-0.407-0.0251-0.038-0.0385-0.086-0.0626-0.125-0.0647-0.103-0.1302-0.204-0.1874-0.312-0.1011-0.195-0.2057-0.416-0.2813-0.625-0.008-0.022-0.0236-0.041-0.0313-0.063-0.0318-0.092-0.0358-0.187-0.0624-0.281-0.0304-0.107-0.0704-0.203-0.0938-0.313-0.0729-0.341-0.125-0.698-0.125-1.062v-2-68-2c0-2.782 2.2182-5 5-5h2 68 2c2.7818 0 5 2.2182 5 5v2 68 2c0 0.3643-0.05212 0.72099-0.125 1.0625-0.04415 0.20689-0.08838 0.39766-0.15625 0.59375-0.0077 0.02195-0.0233 0.04069-0.03125 0.0625-0.06274 0.17374-0.13838 0.36745-0.21875 0.53125-0.04158 0.0828-0.07904 0.16995-0.125 0.25-0.0546 0.09721-0.12677 0.18835-0.1875 0.28125-0.09411 0.14096-0.20492 0.276-0.3125 0.40625-0.14317 0.17445-0.30314 0.347-0.46875 0.5-0.01117 0.0102-0.01998 0.02115-0.03125 0.03125-0.13839 0.12556-0.28509 0.23444-0.4375 0.34375-0.10257 0.07315-0.20432 0.15336-0.3125 0.21875-0.0074 0.0045-0.02384-0.0044-0.03125 0-0.23204 0.13873-0.46255 0.27478-0.71875 0.375 0.30153-0.0968 0.59646-0.20414 0.875-0.34375 0.55709-0.27922 1.0601-0.66569 1.5-1.0938 0.21997-0.21403 0.40937-0.44186 0.59375-0.6875s0.35541-0.50774 0.5-0.78125c0.14012-0.26505 0.27614-0.52473 0.375-0.8125 0.01041-0.03078 0.02133-0.06274 0.03125-0.09375 0.09046-0.27808 0.1388-0.5794 0.1875-0.875 0.053-0.318 0.094-0.634 0.094-0.969v-2-68-2c0-3.324-2.676-6-6-6h-72z" fill="url(#linearGradient3188-03)"/>
   <rect id="rect3425" stroke-linejoin="round" stroke-opacity=".69658" rx="4" ry="4" height="70" width="70" stroke="url(#linearGradient3436-5)" stroke-linecap="square" y="13" x="13" stroke-width="2" fill="none"/>
   <path id="path3615" opacity=".4" d="m12 90c-3.324 0-6-2.676-6-6v-2-68-2c0-0.33472 0.04135-0.6507 0.09375-0.96875 0.0487-0.2956 0.09704-0.59692 0.1875-0.875 0.0099-0.03 0.0209-0.063 0.0313-0.094 0.0989-0.2873 0.2349-0.547 0.375-0.812 0.1446-0.2735 0.3156-0.5356 0.5-0.7812 0.1844-0.2457 0.3738-0.4735 0.5937-0.6876 0.44-0.428 0.943-0.8145 1.5-1.0937 0.2786-0.1396 0.5735-0.2469 0.8748-0.3437-0.256 0.1002-0.4865 0.2362-0.7185 0.375-0.00741 0.0044-0.023866-0.0045-0.03125 0-0.031933 0.0193-0.062293 0.04251-0.09375 0.0625-0.1204 0.0767-0.23102 0.16351-0.34375 0.25-0.10617 0.0808-0.21328 0.16111-0.3125 0.25-0.1779 0.1614-0.3474 0.3453-0.5 0.5312-0.1075 0.1303-0.2183 0.2653-0.3124 0.4063-0.0251 0.0383-0.0385 0.0858-0.0626 0.125-0.0647 0.103-0.1302 0.2045-0.1874 0.3124-0.1011 0.1948-0.2057 0.4158-0.2813 0.625-0.008 0.0219-0.0236 0.0406-0.0313 0.0626-0.0318 0.0919-0.0358 0.1868-0.0624 0.2812-0.0304 0.1066-0.0704 0.203-0.0938 0.3125-0.0729 0.3415-0.125 0.6985-0.125 1.0625v2 68 2c0 2.7818 2.2182 5 5 5h2 68 2c2.7818 0 5-2.2182 5-5v-2-68-2c0-0.364-0.052-0.721-0.125-1.0625-0.044-0.2069-0.088-0.3977-0.156-0.5937-0.008-0.022-0.024-0.0407-0.031-0.0626-0.063-0.1737-0.139-0.3674-0.219-0.5312-0.042-0.0828-0.079-0.17-0.125-0.25-0.055-0.0972-0.127-0.1884-0.188-0.2812-0.094-0.141-0.205-0.276-0.312-0.4063-0.143-0.1745-0.303-0.347-0.469-0.5-0.011-0.0102-0.02-0.0211-0.031-0.0313-0.139-0.1255-0.285-0.2344-0.438-0.3437-0.102-0.0731-0.204-0.1534-0.312-0.2187-0.0074-0.0045-0.02384 0.0044-0.03125 0-0.23204-0.13873-0.46255-0.27478-0.71875-0.375 0.30153 0.0968 0.59646 0.20414 0.875 0.34375 0.55709 0.27922 1.0601 0.66569 1.5 1.0938 0.21997 0.21403 0.40937 0.44186 0.59375 0.6875s0.35541 0.50774 0.5 0.78125c0.14012 0.26505 0.27614 0.52473 0.375 0.8125 0.01041 0.03078 0.02133 0.06274 0.03125 0.09375 0.09046 0.27808 0.1388 0.5794 0.1875 0.875 0.053 0.318 0.094 0.634 0.094 0.969v2 68 2c0 3.324-2.676 6-6 6h-72z" fill="url(#radialGradient2893-2)"/>
  </g>
  <g id="layer5" opacity=".81281" fill-rule="evenodd" transform="translate(234.08 755.86)">
   <path id="path3660" opacity=".4" d="m44.844 8.0625 1.3438 3.875h31.812 1c2.754 0 5.0625 2.3085 5.0625 5.0625v1 60 1c0.000002 2.754-2.3085 5.0625-5.0625 5.0625h-1-6.875l1.3438 3.875h11.531c2.2218 0 3.9375-1.7157 3.9375-3.9375v-72c0-2.2218-1.716-3.9375-3.938-3.9375h-39.156z" fill="url(#linearGradient3693-2)"/>
   <path id="path3664" opacity=".7" d="m66 30c-44 44-22 22 0 0zm3.8438 15.062c-3.121-0.014-7.184 0.155-12.032 0.438l11.875 34.375h9.3125c0.5388 0 0.875-0.3362 0.875-0.875v-32.438c-1.741-1.0015-4.7899-1.4754-10.031-1.5z" fill="url(#linearGradient3701-9)"/>
   <path id="path2669" opacity=".5" d="m47.656 16.125 1.0625 3.0312c-0.284-1.309-0.632-2.304-1.03-3.031h-0.03125zm11.125 29.312c-0.292 0.017-0.669 0.046-0.969 0.063l11.875 34.375h1l-11.906-34.438z" fill="url(#linearGradient2675-0)"/>
   <path id="path4143" opacity=".7" d="m107.66 16.125 22.031 63.75h9.3125c0.5388 0 0.875-0.3362 0.875-0.875v-62c0-0.5388-0.33619-0.875-0.875-0.875h-31.344z" fill="url(#linearGradient4147)"/>
   <path id="path4145" opacity=".5" d="m107.66 16.125 22.031 63.75h1l-22.031-63.75h-1z" fill="url(#linearGradient4149)"/>
  </g>
  <path id="rect5158" d="m55.717 971.67h19.928c3.9683 0 7.1631 3.1947 7.1631 7.1631v20.776c-0.978-2.25-22.937-24.81-27.091-27.94z" fill="#999"/>
  <g id="layer6" transform="matrix(.77272 0 0 .82406 19.547 960.15)">
   <path id="path4250" opacity=".05" style="enable-background:new" d="m40.156 14c-0.0024 0.01001 0.000032 0.03116 0 0.03125-0.01981 0.05795-0.02351 0.0081-0.03125 0.03125-0.0077 0.02318-0.03079 0.09215-0.03125 0.09375l-0.03125 0.125c-0.000013 0.00009 0.0011 0.05037 0 0.0625-0.0022 0.02426 0.000449 0.05297 0 0.0625-0.000898 0.01907 0.000115 0.02415 0 0.03125-0.000229 0.0142-0.000014 0.02389 0 0.03125-0.0015 0.01979 0.000262 0.02404 0 0.03125 0.000108 0.01161-0.000016 0.02738 0 0.03125-0.0037 0.02964-0.03075 0.05413-0.03125 0.0625-0.0019 0.0097-0.000003 0.03127 0 0.03125-0.000396 0.01267 0.000057 0.02615 0 0.03125-0.000113 0.01021-0.000005 0.02491 0 0.03125-0.006 0.031-0.032 0.063-0.032 0.063-0.00014 0.0017-0.000051 0.13304 0 0.15625-0.000058 0.0017-0.000009 0.07054 0 0.09375s-0.0017-0.089 0 0.03125c-0.0022-0.14957 0.000033 0.008 0 0.03125-0.000033 0.02321-0.000106 0.12334 0 0.125-0.000014 0.0058-0.000001 0.02565 0 0.03125 0.000001 0.0112-0.000093 0.12417 0 0.125 0.000006 0.000055 0.02488 0.0275 0.03125 0.0625 0.000072 0.0057-0.000521 0.01672 0 0.03125 0.0025 0.01279-0.0011 0.02719 0 0.03125 0.0045 0.01727-0.002 0.02454 0 0.03125 0.004 0.01343 0.02956 0.02598 0.03125 0.03125 0.0034 0.01053-0.0021 0.02486 0 0.03125 0.003 0.0127-0.000687 0.02901 0 0.03125 0.0011 0.0074-0.000004 0.03123 0 0.03125 0.000174 0.000814 0.02761 0.11408 0.03125 0.125 0.0036 0.01092-0.0039 0.01967 0 0.03125 0.0075 0.02441 0.02532 0.07602 0.03125 0.09375 0.0039 0.01159 0.01904 0.04077 0.03125 0.0625 0.000992 0.009 0.0026 0.03155 0 0.03125 0.0077 0.02319 0.03067 0.06094 0.03125 0.0625 0.000583 0.0016-0.0077 0.008 0 0.03125 0.0038 0.0116 0.02063 0.03352 0.03125 0.0625-0.0076-0.02322 0.03191 0.06403 0.03125 0.0625 0.0013 0.0038-0.0031 0.02252 0 0.03125 0.0031 0.0087 0.03116 0.09356 0.03125 0.09375 0.000092 0.000187 0.05792 0.08658 0.0625 0.09375 0.0046 0.0072-0.0022 0.02798 0 0.03125 0.0043 0.0066 0.02768-0.0054 0.03125 0 0.000012 0.000021 0.02359 0.01971 0.03125 0.03125 0.0033 0.0087 0.02166 0.04047 0.03125 0.0625 0.0048 0.01102-0.000042 0.03117 0 0.03125 0.000012 0.000023 0.02321 0.01763 0.03125 0.03125 0.0158 0.01915 0.02461 0.02392 0.03125 0.03125 0.01327 0.01466 0.02615 0.02597 0.03125 0.03125 0.0031 0.0052-0.000005 0.03124 0 0.03125 0.0019 0.0027 0.09173 0.12236 0.09375 0.125 0.000253 0.000331 0.05666 0.08781 0.0625 0.09375 0.0029 0.003 0.02909-0.0022 0.03125 0 0.0042 0.0064-0.0077 0.01963 0 0.03125 0.008 0.008 0.02347 0.02354 0.03125 0.03125 0.004 0.0059 0.02527 0.02249 0.03125 0.03125 0.0081 0.0085-0.0036 0.02768 0 0.03125 0.0031 0.0037 0.03126 0.000013 0.03125 0 0.01038 0.01368 0.09367 0.12493 0.09375 0.125 0.000075 0.000073 0.08182 0.08485 0.09375 0.09375 0.0039 0.0039 0.02742-0.0038 0.03125 0 0.0026 0.0026 0.01741 0.01874 0.03125 0.03125 0.01148 0.0076 0.01963 0.02359 0.03125 0.03125 0.0065 0.0059 0.02718-0.0036 0.03125 0 0.0024 0.0024-0.0034 0.0279 0 0.03125 0.0085 0.008 0.09358 0.09363 0.09375 0.09375l0.125 0.0625c0.000033 0.000017 0.023-0.004 0.03125 0 0.0086 0.0057 0.01968 0.02352 0.03125 0.03125 0.02357 0.01044 0.05324 0.02766 0.0625 0.03125 0.01537 0.0098 0.0307 0.03093 0.03125 0.03125 0.000864 0.000501-0.000493-0.01643 0.03125 0 0.005 0.0016 0.0266-0.0015 0.03125 0 0.01155 0.0078 0.02011 0.02382 0.03125 0.03125 0.0056 0.0037-0.0074 0.02641 0 0.03125 0.0037 0.0024 0.02267-0.0054 0.03125 0 0.0086 0.0054 0.12481 0.06241 0.125 0.0625 0.000757 0.000345 0.08293 0.02764 0.09375 0.03125 0.01082 0.0036 0.01964 0.02742 0.03125 0.03125 0.0031 0.0012 0.32754 0.08982 0.15625 0.03125 0.05795 0.01981 0.0081 0.02351 0.03125 0.03125 0.02318 0.0077 0.09215 0.03079 0.09375 0.03125 0.02317 0.0078 0.15463 0.03087 0.15625 0.03125 0.005 0.0017 0.02546-0.002 0.03125 0 0.01623 0.0027 0.03492-0.0044 0.0625 0 0.01655 0.0026 0.01868 0.02943 0.03125 0.03125 0.01047 0.0015 0.0274-0.000293 0.03125 0 0.02003 0.0015 0.02331-0.000311 0.03125 0 0.01356 0.0017 0.02006-0.0013 0.03125 0 0.03151 0.0062 0.06244 0.03124 0.0625 0.03125 0.000412 0.000055 0.11682-0.00007 0.125 0 0.0017 0.000139 0.13304 0.000051 0.15625 0 0.0017 0.000058 0.07054 0.000009 0.09375 0s-0.089 0.0017 0.03125 0c1.1913-0.0064 1.8343 0.22103 1.7812 0.1875 0.07062 0.04461 0.10044 0.05103 0.25 0.3125 0.14956 0.26146 0.37039 0.76818 0.59375 1.625 0.87502 3.3567 1.4062 11.447 1.4062 26.906-0.000116 0.0331-0.000163 0.15282 0 0.15625 0.000903 0.03257-0.000987 0.06893 0 0.09375-0.000054 0.01544 0.000003 0.01709 0 0.03125-0.000001 0.0071-0.000063 0.0228 0 0.03125 0.000031 0.0042-0.000191 0.02208 0 0.03125 0.000191 0.0092-0.000032 0.12479 0 0.125 0.000032 0.000212 0.02782 0.11362 0.03125 0.125 0.0017 0.0057 0.03022-0.0033 0.03125 0 0.001 0.0033-0.00075 0.02892 0 0.03125 0.000169 0.0058-0.000545 0.02078 0 0.03125s-0.000026 0.03099 0 0.03125c0.000008 0.000079 0.02611 0.0374 0.03125 0.0625 0.0037 0.01118-0.0039 0.01966 0 0.03125 0.01122 0.05483 0.03123 0.12494 0.03125 0.125 0.0246 0.07871-0.003 0.02209 0 0.03125 0.003 0.0092-0.0039 0.01965 0 0.03125 0.0077 0.0232 0.03066 0.06089 0.03125 0.0625 0.000037 0.000101 0.05297 0.13956 0.0625 0.15625 0.0048 0.0083 0.02841-0.0047 0.03125 0 0.0028 0.0047-0.0019 0.02813 0 0.03125 0.0077 0.01248-0.0032 0.02638 0 0.03125 0.0019 0.0044 0.02919-0.0049 0.03125 0 0.0016 0.0049-0.0017 0.02627 0 0.03125 0.0052 0.01218-0.000028 0.03119 0 0.03125 0.0022 0.006-0.006 0.01641 0 0.03125s0.06245 0.09366 0.0625 0.09375c0.000833 0.0015 0.04702 0.10186 0.0625 0.125s0.03034 0.0298 0.03125 0.03125c0.000057 0.000091 0.08056 0.10953 0.09375 0.125s0.02567 0.02518 0.03125 0.03125c0.0038 0.0055 0.02726-0.0058 0.03125 0 0.0029 0.0029-0.0024 0.02885 0 0.03125 0.0063 0.0092-0.0049 0.02415 0 0.03125 0.0038 0.0058 0.02745-0.0057 0.03125 0 0.0035 0.0051-0.000309 0.03085 0 0.03125 0.0035 0.0053-0.0043 0.02492 0 0.03125 0.0043 0.0063 0.09347 0.09343 0.09375 0.09375 0.0011 0.0013 0.04697 0.07828 0.0625 0.09375s0.03007-0.0012 0.03125 0c0.0024 0.0025 0.09126 0.09139 0.09375 0.09375 0.000078 0.000074 0.08254 0.08543 0.09375 0.09375 0.004 0.004 0.02724-0.004 0.03125 0 0.004 0.004 0.02529 0.0254 0.03125 0.03125 0.01135 0.0076 0.01963 0.02358 0.03125 0.03125 0.02699 0.02353 0.06229 0.03109 0.0625 0.03125 0.002 0.0015 0.05503 0.036 0.09375 0.0625 0.0057 0.0052 0.01563 0.01791 0.03125 0.03125 0.0052 0.0053 0.02037 0.02075 0.03125 0.03125 0.0054 0.0052 0.01615 0.01763 0.03125 0.03125 0.0075 0.0068 0.01169 0.0152 0.03125 0.03125 0.01159 0.0076 0.03067-0.00036 0.03125 0 0.0406 0.02862 0.12492 0.09371 0.125 0.09375 0.000022 0.000012 0.02322-0.0039 0.03125 0 0.02678 0.0129 0.05137 0.05805 0.0625 0.0625 0.0079 0.0044 0.03129 0.000022 0.03125 0 0.0051 0.0032 0.01795-0.0078 0.03125 0 0.0091 0.0038 0.01848-0.0053 0.03125 0 0.0073 0.0024 0.02428 0.02897 0.03125 0.03125 0.02782 0.01387 0.06245 0.03123 0.0625 0.03125 0.0016 0.000668 0.07053 0.05481 0.09375 0.0625 0.02322 0.0077 0.02964-0.000587 0.03125 0 0.0032 0.0012 0.15297 0.03024 0.15625 0.03125 0.0016 0.000504-0.02319 0.02347 0 0.03125 0.02319 0.0078 0.12334 0.03083 0.125 0.03125 0.000052 0.000013 0.12489 0.03124 0.125 0.03125 0.000107 0.000012 0.05281-0.000656 0.0625 0 0.0055 0.0016 0.02989-0.0072 0.0625 0 0.03669 0.0081 0.06239 0.03123 0.0625 0.03125 0.000212 0.000031 0.11457-0.00027 0.125 0s0.02683-0.000042 0.03125 0c0.0052 0.0015 0.02276-0.0023 0.03125 0 0.008 0.0003 0.01904-0.000429 0.03125 0 0.000133 0.000029 0.06241 0.03124 0.0625 0.03125 0.000094 0.000015 0.1562 0 0.15625 0 0.000054 0 0.12489 0.000015 0.125 0 0.000109-0.000015 0.05346-0.02959 0.0625-0.03125 0.02601-0.0019 0.03653 0.0019 0.0625 0 13.904-0.99169 21.958-1.1946 25.75-0.5625 1.9023 0.31704 2.6257 0.86494 2.7188 0.96875 0.1849 0.20623 0.3125 0.43291 0.3125 1.625a0.99689 0.99689 0 0 0 0 0.03125c-0.000059-0.0034 0.000385 0.15963 0 0.15625-0.000385-0.0034 0.03196 0.19083 0.03125 0.1875-0.000707-0.0033 0.06352 0.19074 0.0625 0.1875-0.001-0.0032 0.06383 0.15938 0.0625 0.15625-0.0013-0.0031 0.06412 0.15924 0.0625 0.15625-0.0016-0.003 0.09565 0.15907 0.09375 0.15625-0.0019-0.0028 0.12716 0.15888 0.125 0.15625-0.0022-0.0026 0.1274 0.1274 0.125 0.125s0.12762 0.12716 0.125 0.125c-0.0026-0.0022 0.15907 0.1269 0.15625 0.125-0.0028-0.0019 0.15924 0.09537 0.15625 0.09375-0.003-0.0016 0.15938 0.06383 0.15625 0.0625-0.0031-0.0013 0.15949 0.06352 0.15625 0.0625-0.0032-0.001 0.19083 0.06321 0.1875 0.0625-0.0033-0.000707 0.19088 0.03164 0.1875 0.03125-0.0034-0.000385 0.15965 0.000059 0.15625 0a0.99689 0.99689 0 0 0 0.03125 0l1.095 0.01v-11.625c-0.197-0.216-0.409-0.433-0.625-0.656-2.452-2.545-6.411-5.962-13.313-12.719-6.908-6.764-10.585-10.736-13.406-13.25-0.7-0.624-1.386-1.166-2.062-1.625h-12.438z" fill="url(#linearGradient5078)"/>
   <path id="path4225" opacity=".1" style="enable-background:new" d="m41.281 14c-0.0017 0.0029-0.06097 0.09079-0.0625 0.09375-0.0015 0.003-0.02987 0.09072-0.03125 0.09375-0.0014 0.003-0.06127 0.09066-0.0625 0.09375-0.0012 0.0031-0.03017 0.05935-0.03125 0.0625-0.0011 0.0031-0.03033 0.09055-0.03125 0.09375-0.000921 0.0032 0.000763 0.09051 0 0.09375-0.000763 0.0032-0.03065 0.12173-0.03125 0.125-0.000603 0.0033 0.000441 0.09045 0 0.09375s-0.03097 0.09043-0.03125 0.09375c-0.000279 0.0033 0.000116 0.09042 0 0.09375-0.000116 0.0033-0.000048 0.09042 0 0.09375 0.000048 0.0033-0.000211 0.09043 0 0.09375 0.000211 0.0033-0.000374 0.09044 0 0.09375 0.000374 0.0033 0.03072 0.09047 0.03125 0.09375 0.000535 0.0033-0.000696 0.0905 0 0.09375 0.000696 0.0033 0.03039 0.09053 0.03125 0.09375 0.000855 0.0032 0.03024 0.09058 0.03125 0.09375 0.001 0.0032 0.03008 0.09063 0.03125 0.09375 0.0012 0.0031 0.02993 0.09069 0.03125 0.09375 0.0013 0.0031 0.02978 0.09076 0.03125 0.09375 0.0015 0.003 0.06089 0.09084 0.0625 0.09375 0.0016 0.0029 0.06075 0.05967 0.0625 0.0625 0.0018 0.0028 0.02936 0.09101 0.03125 0.09375 0.0019 0.0027 0.06048 0.0911 0.0625 0.09375 0.002 0.0026 0.06035 0.05996 0.0625 0.0625 0.0021 0.0025 0.06023 0.06007 0.0625 0.0625 0.0023 0.0024 0.06011 0.09143 0.0625 0.09375 0.0024 0.0023 0.09125 0.0603 0.09375 0.0625s0.0599 0.06042 0.0625 0.0625c0.0026 0.0021 0.0598 0.06056 0.0625 0.0625 0.0027 0.0019 0.09096 0.02944 0.09375 0.03125 0.0028 0.0018 0.09087 0.06083 0.09375 0.0625 0.0029 0.0017 0.05954 0.02972 0.0625 0.03125 0.003 0.0015 0.09072 0.06112 0.09375 0.0625 0.003 0.0014 0.09066 0.03002 0.09375 0.03125 0.0031 0.0012 0.0906 0.03017 0.09375 0.03125 0.0031 0.0011 0.09055 0.03033 0.09375 0.03125 0.0032 0.000921 0.09051 0.03049 0.09375 0.03125 0.0032 0.000763 0.09048-0.000603 0.09375 0 0.0033 0.000603 0.09045 0.03081 0.09375 0.03125 0.0033 0.000441 0.09043-0.000279 0.09375 0 0.0033 0.000279 0.09042-0.000116 0.09375 0 0.0033 0.000116 0.09042 0.000048 0.09375 0 1.2689-0.0068 1.986 0.13751 2.3125 0.34375 0.36466 0.23033 0.80719 0.71271 1.2812 2.5312 0.9446 3.6236 1.4375 11.676 1.4375 27.156-0.000012 0.0034-0.000163 0.09032 0 0.09375 0.000163 0.0034-0.000338 0.09034 0 0.09375 0.000338 0.0034-0.000511 0.12161 0 0.125 0.000511 0.0034 0.03057 0.09039 0.03125 0.09375 0.000684 0.0034 0.0304 0.09043 0.03125 0.09375 0.000854 0.0033-0.001 0.09048 0 0.09375 0.001 0.0033 0.03006 0.09053 0.03125 0.09375 0.0012 0.0032 0.06115 0.0906 0.0625 0.09375 0.0014 0.0032 0.02974 0.09067 0.03125 0.09375 0.0015 0.0031 0.02958 0.09075 0.03125 0.09375 0.0017 0.003 0.06068 0.09084 0.0625 0.09375 0.0018 0.0029 0.06054 0.05969 0.0625 0.0625 0.002 0.0028 0.0604 0.09104 0.0625 0.09375 0.0021 0.0027 0.06026 0.09115 0.0625 0.09375 0.0022 0.0026 0.06013 0.06002 0.0625 0.0625 0.0024 0.0025 0.06001 0.06014 0.0625 0.0625 0.0025 0.0024 0.09114 0.06027 0.09375 0.0625 0.0026 0.0022 0.05978 0.06041 0.0625 0.0625 0.0027 0.0021 0.09093 0.06055 0.09375 0.0625 0.0028 0.0019 0.09083 0.0607 0.09375 0.0625 0.0029 0.0018 0.05949 0.06085 0.0625 0.0625 0.003 0.0017 0.09067 0.02975 0.09375 0.03125 0.0031 0.0015 0.09059 0.06116 0.09375 0.0625 0.0032 0.0013 0.09053 0.03008 0.09375 0.03125 0.0032 0.0012 0.09047 0.03024 0.09375 0.03125 0.0033 0.001 0.09043 0.03041 0.09375 0.03125 0.0033 0.000839 0.12164-0.000669 0.125 0 0.0034 0.000669 0.09036 0.03075 0.09375 0.03125 0.0034 0.000496 0.09034-0.000322 0.09375 0 0.0034 0.000322 0.09032-0.000148 0.09375 0 0.0034 0.000148 0.09032 0.03128 0.09375 0.03125 0.0034-0.000027 0.12158-0.03105 0.125-0.03125 13.969-0.99782 21.988-1.2051 26.031-0.53125 2.0237 0.33729 2.9502 0.87712 3.3125 1.2812 0.37686 0.42035 0.5625 0.99338 0.5625 2.2812a0.89051 0.89051 0 0 0 0.875 0.875h1.0938v-9.0625c-0.391-0.487-0.827-0.995-1.344-1.531-2.388-2.478-6.363-5.915-13.281-12.687-6.922-6.777-10.624-10.767-13.375-13.219-1.177-1.049-2.247-1.828-3.312-2.375h-9.4062z" fill="url(#linearGradient5078)"/>
   <path id="path4176" opacity=".15" style="enable-background:new" d="m42.531 14a1.0939 1.0939 0 0 0 0.469 2.094c1.3156-0.0071 2.1843 0.09171 2.7812 0.46875 0.59693 0.37704 1.185 1.135 1.6875 3.0625 1.0049 3.855 1.4375 11.878 1.4375 27.375a1.092 1.092 0 0 0 1.1562 1.0938c13.983-0.99882 21.996-1.2403 26.25-0.53125 2.1271 0.35452 3.2422 0.92635 3.8125 1.5625 0.57034 0.63615 0.78125 1.4963 0.78125 2.875h1.095v-6.656c-0.482-0.758-1.125-1.53-2-2.438-2.333-2.42-6.319-5.902-13.25-12.687-6.933-6.788-10.656-10.792-13.344-13.188-2.016-1.796-3.604-2.702-5.344-3.031h-5.5312z" fill="url(#linearGradient5082)"/>
   <path id="path4170" opacity=".3" style="enable-background:new" d="m43 15c5.398-0.02908 7 0.96895 7 32 28-2 32-1 32 5v-2.625c0-4.362-2.107-4.773-16-18.375s-15.057-16.128-19.73-16.053z"/>
   <path id="path4154" style="enable-background:new" d="m43 14c5.398-0.02908 7 0.96895 7 32 28-2 32-1 32 5v-2.625c0-4.362-2.107-4.773-16-18.375s-15.057-16.128-19.73-16.053z" fill="url(#linearGradient5084)"/>
   <path id="path4297" opacity=".2" style="enable-background:new" d="m46.281 13.938-3.281 0.062c4.7232-0.02544 6.5258 0.73974 6.9062 21.719-0.23216-14.677-1.1139-19.946-3.125-21.75-0.17042-0.0053-0.3201-0.03415-0.5-0.03125zm23.562 30.125c-4.672-0.022-11.093 0.312-19.843 0.937 0.000477 0.36842 0 0.62275 0 1 28-2 32-1 32 5v-1c0-4.125-1.876-5.8892-12.156-5.9375z" fill="url(#linearGradient5086)"/>
   <path id="path4306" style="enable-background:new" d="m46.281 13.938-3.281 0.062c0.34929-0.0019 0.68191-0.01458 1 0l2.625-0.0625c-0.11879-0.0018-0.22037-0.002-0.34375 0zm-2.281 0.062c4.5978 0.21071 6 2.9769 6 32 0.37208-0.02658 0.63635-0.03699 1-0.0625-0.002-30.962-1.606-31.967-7-31.938z" fill="url(#linearGradient5088)"/>
   <g id="g4471" transform="translate(0,-90)">
    <path id="rect3222-7" opacity="0.08" style="block-progression:tb;text-indent:0;color:#000000;text-transform:none" d="m46.281 103.94-3.281 0.06c2.3686-0.0128 4.0015 0.16674 5.0938 3h4.75c-2.703-2.4286-4.1834-3.1008-6.5625-3.0625zm32.719 28.5v3.7188c2.3723 0.9394 3 2.5159 3 4.8438v-2.625c0-2.2399-0.57879-3.4606-3-5.9375z"/>
    <path id="rect3981-2" opacity=".1" style="color:#000000" d="m43.969 104c1.5413 0.0664 2.7314 0.43118 3.625 1.9375h4c-1.5891-1.2621-2.8066-1.7961-4.25-1.9375h-3.375zm36.094 29.594v3.0938c1.513 0.97 1.937 2.38 1.937 4.32v-2.625c0-1.865-0.41106-3.0213-1.9375-4.7812z"/>
    <path id="rect3977-0" opacity=".25" style="color:#000000" d="m43.969 104c1.1274 0.0486 2.0412 0.27688 2.8125 0.96875h3.4375c-0.973-0.59-1.877-0.87-2.876-0.97h-3.375zm37.062 30.812v2.7188c0.73 0.89 0.969 2.04 0.969 3.47v-2.625c0-1.3994-0.21565-2.4105-0.96875-3.5625z"/>
   </g>
  </g>
 </g>
</svg>
