<?xml version="1.0" encoding="UTF-8" standalone="no"?>
<!-- Created with Inkscape (http://www.inkscape.org/) -->
<svg id="svg2" xmlns:rdf="http://www.w3.org/1999/02/22-rdf-syntax-ns#" xmlns="http://www.w3.org/2000/svg" height="96" width="96" version="1.1" xmlns:cc="http://creativecommons.org/ns#" xmlns:xlink="http://www.w3.org/1999/xlink" xmlns:dc="http://purl.org/dc/elements/1.1/">
 <defs id="defs4">
  <linearGradient id="linearGradient3613-7" y2="138.66" gradientUnits="userSpaceOnUse" x2="48" y1="20.221" x1="48">
   <stop id="stop3739-40" stop-color="#fff" offset="0"/>
   <stop id="stop3741-8" stop-color="#fff" stop-opacity="0" offset="1"/>
  </linearGradient>
  <clipPath id="clipPath3613-22">
   <rect id="rect3615-13" rx="6" ry="6" height="84" width="84" y="6" x="6" fill="#fff"/>
  </clipPath>
  <filter id="filter3794-3" height="1.384" width="1.384" color-interpolation-filters="sRGB" y="-.192" x="-.192">
   <feGaussianBlur id="feGaussianBlur3796-52" stdDeviation="5.28"/>
  </filter>
  <linearGradient id="linearGradient2806">
   <stop id="stop2808" stop-color="#ef2929" offset="0"/>
   <stop id="stop2810" stop-color="#c00" offset="1"/>
  </linearGradient>
  <linearGradient id="linearGradient2928">
   <stop id="stop2930" stop-color="#a40000" offset="0"/>
   <stop id="stop2932" stop-color="#300000" offset="1"/>
  </linearGradient>
  <linearGradient id="linearGradient2998">
   <stop id="stop3000" stop-color="#310000" offset="0"/>
   <stop id="stop3002" stop-color="#310000" stop-opacity="0" offset="1"/>
  </linearGradient>
  <linearGradient id="linearGradient2415">
   <stop id="stop2417" stop-color="#eeeeec" offset="0"/>
   <stop id="stop2419" stop-color="#eeeeec" stop-opacity="0" offset="1"/>
  </linearGradient>
  <linearGradient id="linearGradient2950">
   <stop id="stop2952" stop-color="#fcaf3e" offset="0"/>
   <stop id="stop2954" stop-color="#f57900" stop-opacity="0" offset="1"/>
  </linearGradient>
  <linearGradient id="linearGradient2898">
   <stop id="stop2900" stop-color="#f5f5f4" offset="0"/>
   <stop id="stop2902" stop-color="#f5f5f4" stop-opacity="0" offset="1"/>
  </linearGradient>
  <linearGradient id="linearGradient4750">
   <stop id="stop4752" stop-color="#fff" offset="0"/>
   <stop id="stop4758" stop-color="#fefefe" offset=".37931"/>
   <stop id="stop4754" stop-color="#1d1d1d" offset="1"/>
  </linearGradient>
  <linearGradient id="linearGradient4346" y2="5.9877" gradientUnits="userSpaceOnUse" x2="48" gradientTransform="matrix(1.261 0 0 1.1473 -15.271 -4.942)" y1="90" x1="48">
   <stop id="stop3616-5" stop-color="#c83737" offset="0"/>
   <stop id="stop3618-9" stop-color="#de8787" offset="1"/>
  </linearGradient>
  <linearGradient id="linearGradient4403" y2="37.761" xlink:href="#linearGradient2806" gradientUnits="userSpaceOnUse" x2="42.109" gradientTransform="matrix(1.5044 -.23961 .23961 1.5044 -1.4759 17.555)" y1="37.761" x1="7.225"/>
  <linearGradient id="linearGradient4405" y2="37.761" xlink:href="#linearGradient2928" gradientUnits="userSpaceOnUse" x2="42.109" gradientTransform="matrix(1.5044 -.23961 .23961 1.5044 -1.4759 17.555)" y1="37.761" x1="7.225"/>
  <linearGradient id="linearGradient4407" y2="37.719" xlink:href="#linearGradient2998" gradientUnits="userSpaceOnUse" x2="11.562" gradientTransform="matrix(1.5044 -.23961 .23961 1.5044 2.8328 16.881)" y1="38.406" x1="20.375"/>
  <linearGradient id="linearGradient4409" y2="35.894" xlink:href="#linearGradient2806" gradientUnits="userSpaceOnUse" x2="41.9" gradientTransform="matrix(1.5044 -.23961 .23961 1.5044 -1.4759 17.555)" y1="35.894" x1="25.412"/>
  <linearGradient id="linearGradient4411" y2="39.525" xlink:href="#linearGradient2928" gradientUnits="userSpaceOnUse" x2="41.213" gradientTransform="matrix(1.5044 -.23961 .23961 1.5044 -1.4759 17.555)" y1="32.262" x1="30.038"/>
  <linearGradient id="linearGradient4413" y2="23.544" gradientUnits="userSpaceOnUse" x2="27.513" gradientTransform="matrix(1.5234 0 0 1.5234 9.9158 10.947)" y1="-1.3036" x1="22.675">
   <stop id="stop2442" stop-color="#60625e" offset="0"/>
   <stop id="stop2444" stop-color="#1d2122" offset="1"/>
  </linearGradient>
  <linearGradient id="linearGradient4415" y2="-1.7747" gradientUnits="userSpaceOnUse" x2="26.548" gradientTransform="matrix(1.5234 0 0 1.5234 9.9158 10.947)" y1="23.842" x1="31.117">
   <stop id="stop2398" stop-color="#e1e2df" offset="0"/>
   <stop id="stop2400" stop-color="#888a85" offset="1"/>
  </linearGradient>
  <radialGradient id="radialGradient4417" gradientUnits="userSpaceOnUse" cy="-14.446" cx="25" gradientTransform="matrix(-3.4086 0 0 -1.5387 133.22 8.7506)" r="20">
   <stop id="stop2418" stop-color="#30312f" offset="0"/>
   <stop id="stop2420" stop-color="#555753" stop-opacity="0" offset="1"/>
  </radialGradient>
  <linearGradient id="linearGradient4419" y2="23.842" gradientUnits="userSpaceOnUse" x2="20.007" gradientTransform="matrix(1.5234 0 0 1.5234 9.9158 10.947)" y1="7.2467" x1="18.996">
   <stop id="stop2406" stop-color="#d3d7cf" offset="0"/>
   <stop id="stop2408" stop-color="#555856" offset="1"/>
  </linearGradient>
  <linearGradient id="linearGradient4421" y2="41.324" xlink:href="#linearGradient2998" gradientUnits="userSpaceOnUse" x2="35.656" gradientTransform="matrix(1.5044 -.23961 .23961 1.5044 -1.4759 17.555)" y1="37.699" x1="36.125"/>
  <linearGradient id="linearGradient4423" y2="36.03" gradientUnits="userSpaceOnUse" x2="39.863" gradientTransform="matrix(1.5044 -.23961 .23961 1.5044 -1.4759 17.555)" y1="31.905" x1="32.878">
   <stop id="stop2972" stop-color="#fcaf3e" offset="0"/>
   <stop id="stop2974" stop-color="#fcaf3e" stop-opacity="0" offset="1"/>
  </linearGradient>
  <linearGradient id="linearGradient4425" y2="42.369" gradientUnits="userSpaceOnUse" x2="32.4" gradientTransform="matrix(.90177 0 0 1 1.4558 0)" y1="17.6" x1="32.4">
   <stop id="stop2523" stop-color="#7f4e01" offset="0"/>
   <stop id="stop2525" stop-color="#402700" offset="1"/>
  </linearGradient>
  <linearGradient id="linearGradient4427" y2="48.4" gradientUnits="userSpaceOnUse" x2="32.4" gradientTransform="matrix(.90177 0 0 1 1.4558 0)" y1="48.4" x1="17.6">
   <stop id="stop2507" stop-color="#e9b96e" offset="0"/>
   <stop id="stop2509" stop-color="#774a01" offset="1"/>
  </linearGradient>
  <linearGradient id="linearGradient4429" y2="48.45" gradientUnits="userSpaceOnUse" x2="24.923" y1="40" x1="24">
   <stop id="stop2553" stop-color="#5f3a00" offset="0"/>
   <stop id="stop2555" stop-color="#5f3a00" stop-opacity="0" offset="1"/>
  </linearGradient>
  <linearGradient id="linearGradient4431" y2="33" gradientUnits="userSpaceOnUse" x2="29.712" y1="31.764" x1="19.348">
   <stop id="stop2533" stop-color="#f1d09e" offset="0"/>
   <stop id="stop2535" stop-color="#8f5902" offset="1"/>
  </linearGradient>
  <linearGradient id="linearGradient4433" y2="11.375" gradientUnits="userSpaceOnUse" x2="36.82" gradientTransform="matrix(1.5234 0 0 1.5234 9.9158 10.947)" y1="18" x1="36.82">
   <stop id="stop2434" stop-color="#eeeeec" offset="0"/>
   <stop id="stop2436" stop-color="#eeeeec" stop-opacity="0" offset="1"/>
  </linearGradient>
  <linearGradient id="linearGradient4435" y2="21.636" xlink:href="#linearGradient2415" gradientUnits="userSpaceOnUse" x2="24.746" gradientTransform="matrix(1.5212 -.077361 -.082008 -1.435 11.925 38.648)" y1="6.0466" x1="23.906"/>
  <linearGradient id="linearGradient4437" y2="8.1485" xlink:href="#linearGradient2415" gradientUnits="userSpaceOnUse" x2="20.264" gradientTransform="matrix(-1.516 -.019012 -.089082 1.3279 85.606 11.221)" y1="14.821" x1="12.255"/>
  <linearGradient id="linearGradient4439" y2="9.7131" xlink:href="#linearGradient2415" gradientUnits="userSpaceOnUse" x2="18.573" gradientTransform="matrix(1.516 -.019012 .089082 1.3279 10.124 11.277)" y1="12.908" x1="12.9"/>
  <linearGradient id="linearGradient4441" y2="35" xlink:href="#linearGradient2950" gradientUnits="userSpaceOnUse" x2="13.312" gradientTransform="matrix(1.5044 -.23961 .23961 1.5044 -1.4759 17.555)" y1="39.688" x1="9.375"/>
  <linearGradient id="linearGradient4443" y2="34.035" gradientUnits="userSpaceOnUse" x2="29.433" gradientTransform="matrix(1.5234 0 0 1.5234 11.439 10.947)" y1="42.078" x1="19.445">
   <stop id="stop2890" stop-color="#ffd79a" offset="0"/>
   <stop id="stop2892" stop-color="#eeb660" stop-opacity="0" offset="1"/>
  </linearGradient>
  <linearGradient id="linearGradient4445" y2="31.441" xlink:href="#linearGradient2806" gradientUnits="userSpaceOnUse" x2="27.389" gradientTransform="matrix(1.5234 0 0 1.5234 11.439 10.947)" y1="32.237" x1="22.668"/>
  <linearGradient id="linearGradient4447" y2="34.579" xlink:href="#linearGradient2928" gradientUnits="userSpaceOnUse" x2="25.709" gradientTransform="matrix(1.5234 0 0 1.5234 11.439 10.947)" y1="34.004" x1="17.806"/>
  <linearGradient id="linearGradient4449" y2="31.967" xlink:href="#linearGradient2806" gradientUnits="userSpaceOnUse" x2="29.111" gradientTransform="matrix(1.5234 0 0 1.5234 11.439 10.947)" y1="32.055" x1="23.277"/>
  <linearGradient id="linearGradient4451" y2="29.934" xlink:href="#linearGradient2928" gradientUnits="userSpaceOnUse" x2="29.907" gradientTransform="matrix(1.5234 0 0 1.5234 11.439 10.947)" y1="29.934" x1="18.681"/>
  <linearGradient id="linearGradient4453" y2="27.072" xlink:href="#linearGradient2950" gradientUnits="userSpaceOnUse" x2="28.5" gradientTransform="matrix(1.5234 0 0 1.5234 11.439 10.947)" y1="27.072" x1="19.625"/>
  <linearGradient id="linearGradient4455" y2="31.25" xlink:href="#linearGradient2950" gradientUnits="userSpaceOnUse" x2="23.335" gradientTransform="matrix(1.5234 0 0 1.5234 11.439 10.947)" y1="31.339" x1="18.827"/>
  <linearGradient id="linearGradient4457" y2="8.0927" xlink:href="#linearGradient2898" gradientUnits="userSpaceOnUse" x2="7.8666" gradientTransform="matrix(1.5234 0 0 1.5234 11.439 10.947)" y1="17.55" x1="4.773"/>
  <linearGradient id="linearGradient4459" y2="17.771" gradientUnits="userSpaceOnUse" x2="9.3692" gradientTransform="matrix(1.5234 0 0 1.5234 11.439 10.947)" y1="23.826" x1="11.358">
   <stop id="stop2910" stop-color="#252829" offset="0"/>
   <stop id="stop2912" stop-color="#252829" stop-opacity="0" offset="1"/>
  </linearGradient>
  <linearGradient id="linearGradient4461" y2="2.1975" xlink:href="#linearGradient2898" gradientUnits="userSpaceOnUse" x2="32.085" gradientTransform="matrix(1.5234 0 0 1.5234 11.439 10.947)" y1="2.1975" x1="6.5407"/>
  <radialGradient id="radialGradient4463" fx="18.934" fy="17.81" xlink:href="#linearGradient4750" gradientUnits="userSpaceOnUse" cy="17.486" cx="18.634" gradientTransform="scale(1.0368 .96449)" r="40.693"/>
 </defs>
 <metadata id="metadata7">
  <rdf:RDF>
   <cc:Work rdf:about="">
    <dc:format>image/svg+xml</dc:format>
    <dc:type rdf:resource="http://purl.org/dc/dcmitype/StillImage"/>
    <dc:title/>
   </cc:Work>
  </rdf:RDF>
 </metadata>
 <g id="layer1" transform="translate(0 -956.36)">
  <rect id="rect5263-0" fill-opacity=".019608" ry="12.724" height="89.978" width="89.978" y="959.35" x="2.9998"/>
  <rect id="rect5261-6" fill-opacity=".039216" ry="12.552" height="88.762" width="88.762" y="959.96" x="3.6078"/>
  <rect id="rect5259-9" fill-opacity=".078431" ry="12.38" height="87.546" width="87.546" y="960.57" x="4.2157"/>
  <rect id="rect5257-5" fill-opacity=".15686" ry="12.208" height="86.33" width="86.33" y="961.18" x="4.8237"/>
  <path id="rect2419-0" d="m17.469 5.4062c-6.668 0-12.032 5.3948-12.032 12.063l0.0005 61.031c0 6.668 5.3635 12.031 12.032 12.031h61.03c6.454 0 11.671-5.036 12-11.406v-62.281c-0.321-6.377-5.54-11.438-12-11.438l-61.031 0.0002z" transform="translate(0 956.36)" fill="url(#linearGradient4346)"/>
  <path id="rect5265-0" d="m5.4316 1029.8v5.0663c0 6.668 5.3645 12.032 12.032 12.032h61.049c6.668 0 12.032-5.3645 12.032-12.032v-5.0663c0 6.6681-5.3645 12.032-12.032 12.032h-61.049c-6.668 0-12.032-5.3643-12.032-12.032z" fill-opacity=".23529"/>
  <path id="path5252-0" d="m5.4316 1033.9v1.0133c0 6.668 5.3645 12.032 12.032 12.032h61.049c6.668 0 12.032-5.3645 12.032-12.032v-1.0133c0 6.6681-5.3645 12.032-12.032 12.032h-61.049c-6.668 0-12.032-5.3644-12.032-12.032z" fill-opacity=".098039"/>
  <g id="layer5" transform="translate(-95.023 954.86)">
   <rect id="rect3171" height="66" stroke="#fff" stroke-linecap="round" stroke-width=".5" fill="url(#linearGradient3613-7)" rx="12" ry="12" width="66" opacity=".1" clip-path="url(#clipPath3613-22)" filter="url(#filter3794-3)" y="15" x="15"/>
  </g>
  <g id="g4348" transform="matrix(.97260 .31963 -.34459 .90216 350.55 86.434)">
   <g id="layer3" transform="translate(-3.8058 955.13)">
    <path id="path3903" opacity=".05" style="block-progression:tb;text-indent:0;color:#000000;text-transform:none" d="m46.469 10.281c-8.5601 0.0675-17.174 0.11436-25.75 0.65625a0.93159 0.93159 0 0 0 -0.1875 0.03125c-1.3816 0.36849-2.0291 1.5935-2.3438 2.625-0.31468 1.0315-0.48987 2.0497-0.75 2.5625a0.93159 0.93159 0 0 0 -0.063 0.156c-1.844 6.591-3.338 13.342-4.031 20.188a0.93159 0.93159 0 0 0 0.0625 0.375c1.444 4.486 3.351 8.918 5.594 13.063a0.93159 0.93159 0 0 0 0.1875 0.25c0.95984 0.89736 2.166 1.005 3.1875 1s1.9486-0.08395 2.5625 0.0625a0.93159 0.93159 0 0 0 0.1875 0.03125c4.2294 0.16616 8.448 0.31177 12.688 0.40625-0.29082 4.2166-0.62056 8.4204-1 12.625-4.0791 0.76725-8.3711 0.4124-12.656 0.125a0.93159 0.93159 0 0 0 -0.283 0.032c-1.1726 0.29413-1.8608 1.2075-2.3125 2-0.45169 0.7925-0.79795 1.5502-1.1562 1.9688a0.93159 0.93159 0 0 0 -0.09375 0.125c-1.3668 2.4004-3.1123 4.7437-4.375 7.4062a0.93159 0.93159 0 0 0 -0.062 0.219c-0.22555 1.1994 0.35448 2.3178 1.1875 2.9062 0.78202 0.55245 1.7633 0.73538 2.7188 0.59375v0.03125c5.412-0.036 10.839-0.371 16.219-1.031 0.31274 2.5248 1.6116 4.7096 3.4688 6.25 2.084 1.7286 4.8103 2.6979 7.5312 2.7188 0.0018 0.000014-0.0018 0.03124 0 0.03125 0.0307 0.0029 0.06301-0.0027 0.09375 0 2.7254 0.24161 5.6068-0.37267 8-1.7812 2.358-1.3879 4.2195-3.6101 4.7812-6.5312 0.0148-0.07698 0.04954-0.1408 0.0625-0.21875h-0.03125c0.56738-1.5494 0.20202-3.2252 0.21875-4.2188 0.0088-0.52005 0.11088-0.6594 0.0625-0.625s0.23406-0.11008 1.125 0.21875a0.93159 0.93159 0 0 0 0.34375 0.0625c3.5952-0.13904 8.0307-0.09131 11.25-2.875a0.93159 0.93159 0 0 0 0.0625 -0.0625c1.0703-1.1002 1.3084-2.5613 1.0625-3.8125-0.24107-1.2266-0.85669-2.3079-1.5312-3.1875-0.01137-0.01794-0.01985-0.04443-0.03125-0.0625-0.99975-1.5851-2.1217-3.6189-3.625-5-1.2252-2.401-3.6976-3.1505-5.875-3.4375-1.9731-0.26009-3.6687-0.31525-4.5312-0.5625-0.0921-1.3189-0.33503-2.748-0.25-3.5312 0.05193-0.47835 0.14965-0.58491 0.28125-0.65625s0.60892-0.15107 1.625 0.15625a0.93159 0.93159 0 0 0 0.3125 0.03125c4.954-0.244 10.036-0.101 15.092-0.594a0.93159 0.93159 0 0 0 0.375 -0.125c1.1361-0.65548 1.7051-1.7378 2.125-2.7188 0.41986-0.98095 0.73901-1.9329 1.1562-2.5625a0.93159 0.93159 0 0 0 0.094 -0.156c1.142-2.7954 2.6947-5.6916 3.375-8.875a0.93159 0.93159 0 0 0 0.031 -0.313c-0.991-8.079-2.645-16.188-5.344-23.906a0.93159 0.93159 0 0 0 -0.156 -0.282c-0.865-1.081-2.163-1.275-3.218-1.281-1.056-0.005-2.026 0.102-2.626-0.031a0.93159 0.93159 0 0 0 -0.15625 -0.03125c-8.2145-0.22477-16.46-0.41328-24.688-0.4375z"/>
    <path id="path3897" opacity=".1" style="block-progression:tb;text-indent:0;color:#000000;text-transform:none" d="m46.469 11.219c-8.5615 0.06751-17.148 0.11662-25.688 0.65625-1.9997 0.53337-1.7454 3.1865-2.5053 4.6846-1.8347 6.557-3.3092 13.261-3.9947 20.034 1.4249 4.4276 3.3155 8.8116 5.5312 12.906 1.4106 1.3188 3.6415 0.4454 5.3439 0.8515 4.5508 0.17879 9.1026 0.33886 13.656 0.42975-0.32612 4.7953-0.68456 9.5887-1.125 14.375-4.472 0.99455-9.0952 0.52046-13.594 0.21875-1.6717 0.41934-1.959 2.4752-2.9672 3.653-1.4049 2.4673-3.1359 4.7969-4.3453 7.347-0.31927 1.6978 1.5126 2.7046 3.0017 2.4071 5.6915-0.03809 11.385-0.3897 17.03-1.1259 0.03707 5.3525 5.2282 9.1057 10.274 9.1006 5.1049 0.48899 11.048-2.2722 11.959-7.7493 0.99419-2.2963-1.444-6.8386 2.583-5.3523 3.6191-0.13996 7.8036-0.14581 10.688-2.6398 1.6988-1.7463 0.66386-4.2654-0.58443-5.8721-1.098-1.73-2.309-3.927-3.733-5.113-2.073-4.061-8.165-2.576-10.431-3.647 0.0084-2.7447-1.7284-7.11 2.796-5.7416 5.0037-0.24649 10.063-0.09405 15.041-0.57948 1.7445-1.0065 1.9274-3.3925 2.9735-4.971 1.169-2.859 2.698-5.712 3.34-8.717-0.985-8.031-2.611-16.081-5.281-23.719-1.265-1.58-3.627-0.615-5.329-0.993-8.211-0.225-16.425-0.42-24.64-0.444z"/>
    <path id="path3893" opacity=".15" style="block-progression:tb;text-indent:0;color:#000000;text-transform:none" d="m46.469 12.312c-12.249 0-24.438 0.53125-24.438 0.53125a0.9294 0.9294 0 0 0 -0.03125 0l-0.84375 0.0625a0.9294 0.9294 0 0 0 -0.8125 0.65625l-0.25 0.78125s-3.137 9.2833-4.6875 21.688a0.9294 0.9294 0 0 0 0 0.03125l-0.031 0.282a0.9294 0.9294 0 0 0 0.063 0.406l0.09375 0.21875s-0.00006 0.03107 0 0.03125c0.0136 0.04119 1.5587 4.7423 4.6562 10.938l0.3125 0.625a0.9294 0.9294 0 0 0 0.8125 0.53125l0.65625 0.03125h0.03125c0.0274 0.0015 8.5344 0.42684 18 0.59375-0.45344 6.8817-0.90344 12.373-1.2812 16.375-5.795 1.554-13.813 0.406-13.813 0.406a0.9294 0.9294 0 0 0 -0.0625 -0.03125l-0.282-0.031a0.9294 0.9294 0 0 0 -0.90625 0.46875l-0.125 0.21875h0.03125l-5.1875 8.5v0.03125l-0.375 0.5625a0.9294 0.9294 0 0 0 0.75 1.4375l0.6875 0.03125s8.9437 0.15814 18.375-1.2188c-0.0058 0.93519 0.01134 2.8761 1.1875 4.9062 1.3671 2.3597 4.3327 4.3125 9 4.3125s7.6329-1.9528 9-4.3125c1.347-2.3251 1.2188-4.8 1.2188-5.4375 0-0.63974-0.06809-1.4449-0.21875-2.8438-0.02102-0.19517-0.06378-0.55687-0.09375-0.875 1.9891 0.10877 3.8759 0.56802 6.7188 0.21875 2.6961-0.33123 4.587-0.68316 5.9375-1.4375 0.67003-0.37425 1.3265-0.93107 1.5312-1.8125 0.16452-0.70814-0.06375-1.3729-0.375-1.9688a0.9294 0.9294 0 0 0 -0.03125 -0.125c-0.01144-0.02044-0.01952-0.04228-0.03125-0.0625a0.9294 0.9294 0 0 0 -0.094 -0.188 0.9294 0.9294 0 0 0 -0.062 -0.094v-0.03125a0.9294 0.9294 0 0 0 -0.09375 -0.0625l-0.21875-0.3125c-0.88197-1.573-1.7572-2.8588-2.4062-3.75-0.615-0.845-0.924-1.216-1.093-1.406-0.028-0.045-0.036-0.03-0.063-0.063-0.024-0.037-0.009-0.036-0.031-0.063h-0.03125c-1.044-1.576-2.601-2.543-4.313-2.937-0.89001-0.20462-1.8303-0.26642-2.75-0.25-0.93433 0.01669-1.8643 0.14554-2.8125 0.3125-0.35943 0.06328-0.70735 0.13846-1.0625 0.21875-0.201-2.573-0.418-5.488-0.625-8.75 9.224-0.187 17.969-0.531 17.969-0.531l0.719-0.031a0.9294 0.9294 0 0 0 0.812 -0.532l0.3125-0.625c3.098-6.195 4.643-10.896 4.657-10.937 0.00006-0.000181 0-0.03125 0-0.03125l0.093-0.219a0.9294 0.9294 0 0 0 0.063 -0.406l-0.031-0.282a0.9294 0.9294 0 0 0 0 -0.03125c-1.5505-12.404-4.6875-21.688-4.6875-21.688l-0.25-0.8125a0.9294 0.9294 0 0 0 -0.844 -0.655l-0.84375-0.03125s-7.6719-0.24837-16.5-0.40625c-3.6126-0.06459-7.4389-0.125-11-0.125z"/>
    <path id="path4394" opacity="0.31" style="block-progression:tb;text-indent:0;color:#000000;text-transform:none" d="m46.469 13.25c-12.222 0-24.406 0.53125-24.406 0.53125l-0.84375 0.0625-0.25 0.78125s-3.0864 9.2222-4.625 21.531l-0.03125 0.28125 0.09375 0.25s1.5425 4.6787 4.625 10.844l0.3125 0.625 0.6875 0.03125s8.8222 0.48233 18.969 0.625c-0.50073 7.7769-0.99546 13.775-1.4062 18.062-0.11256 0.03063-0.30161 0.06422-0.40625 0.09375-6.1351 1.7314-14.438 0.4375-14.438 0.4375l-0.28125-0.03125-0.125 0.21875-5.1875 8.5312-0.375 0.59375 0.6875 0.03125s9.555 0.23609 19.281-1.3125c-0.0073 0.1619-0.03125 0.37102-0.03125 0.5 0 0.72239-0.09897 2.91 1.0938 4.9688 1.192 2.06 3.77 3.845 8.187 3.845 4.4169 0 6.9948-1.785 8.1875-3.8438 1.1927-2.0587 1.0938-4.2464 1.0938-4.9688 0-0.56409-0.06888-1.3584-0.21875-2.75-0.04859-0.45115-0.12469-1.3388-0.1875-1.9062 0.35743-0.0026 0.73152-0.0175 1.0625 0 2.1027 0.11118 3.8516 0.5518 6.5625 0.21875 2.6637-0.32726 4.4856-0.69351 5.5938-1.3125 0.5541-0.3095 0.97308-0.69933 1.0938-1.2188 0.12067-0.51942-0.0528-1.0712-0.40625-1.625v-0.03125h-0.03125l-0.3125-0.40625c-1.7795-3.2061-3.45-5.1297-3.5312-5.2188-0.01655-0.02669-0.04563-0.03623-0.0625-0.0625-0.90239-1.4056-2.2654-2.2381-3.8125-2.5938-0.78802-0.18117-1.6288-0.23431-2.5-0.21875-0.87123 0.01556-1.7743 0.12047-2.6875 0.28125-0.696 0.123-1.395 0.288-2.094 0.469-0.25-3.083-0.491-6.685-0.75-10.812 9.798-0.178 18.938-0.562 18.938-0.562l0.71875-0.03125 0.3125-0.625c3.0825-6.165 4.625-10.844 4.625-10.844l0.09375-0.25-0.03125-0.28125c-1.538-12.31-4.625-21.532-4.625-21.532l-0.25-0.8125-0.84375-0.03125s-7.6797-0.24851-16.5-0.40625c-3.611-0.065-7.418-0.125-10.968-0.125z"/>
    <g id="g4713">
     <path id="path2968" d="m24.685 66.799s8.327 1.3128 14.601-0.45777c6.2739-1.7705 26.969-5.4882 26.969-5.4882l4.1852 5.6965c1.2847 2.0128-0.69402 2.9064-5.9894 3.557-5.2954 0.65058-6.8178-1.7285-15.638 1.4717-11.608 4.2117-29.324 3.7611-29.324 3.7611l5.1957-8.5404z" fill-rule="evenodd" stroke="url(#linearGradient4405)" stroke-miterlimit="10" stroke-width="0.8" fill="url(#linearGradient4403)"/>
     <path id="path3006" d="m34.196 67.721-1.8817 4.7209 6.148-0.52475 0.40307-4.9535-4.6693 0.75734z" fill-rule="evenodd" fill="url(#linearGradient4407)"/>
     <path id="path2956" d="m47.903 61.848c5.2288-2.279 15.276-6.3859 18.649-0.94568 0 0 1.8948 2.0603 3.7792 5.5684-8.1869-6.4571-16.1 1.2145-23.615 3.6648l1.1867-8.2875z" fill-rule="evenodd" stroke="url(#linearGradient4411)" stroke-width="0.8" fill="url(#linearGradient4409)"/>
     <path id="path2190" d="m22.103 13.994s12.187-0.53859 24.374-0.53859c3.5403 0 7.3376 0.04546 10.944 0.10994 8.8081 0.15752 16.477 0.42865 16.477 0.42865s3.0467 9.1402 4.5701 21.327c0 0-1.5234 4.5701-4.5701 10.664 0 0-15.234 0.67324-27.421 0.67324s-24.374-0.67324-24.374-0.67324c-3.047-6.094-4.57-10.664-4.57-10.664 1.523-12.187 4.57-21.327 4.57-21.327z" stroke="url(#linearGradient4413)" stroke-miterlimit="100" stroke-width="2.4" fill="none"/>
     <path id="path1315" d="m22.103 13.994s12.187-0.53859 24.374-0.53859 27.421 0.53859 27.421 0.53859 3.0467 9.1402 4.5701 21.327c0 0-1.5234 4.5701-4.5701 10.664 0 0-15.234 0.67324-27.421 0.67324s-24.374-0.67324-24.374-0.67324c-3.047-6.094-4.57-10.664-4.57-10.664 1.523-12.187 4.57-21.327 4.57-21.327z" fill-rule="evenodd" fill="url(#linearGradient4415)"/>
     <path id="path2414" d="m39.669 34.845c-13.98 0.11-22.136 0.476-22.136 0.476l4.5701 10.664s25.673 0.94254 51.795 0l4.569-10.664s-2.9705-0.18773-10.997-0.33324l-5.7602 5.6174 3.2792-8.0415c-3.0467 1.6186-4.087 2.3765-4.087 2.3765-4.27-0.064-7.121-0.095-12.902-0.095-2.9753 0-5.742-0.02044-8.3309 0z" fill-rule="evenodd" fill="url(#radialGradient4417)"/>
     <path id="path2412" d="m22.103 13.994s12.187-0.53859 24.374-0.53859 27.421 0.53859 27.421 0.53859 3.0467 9.1402 4.5701 21.327c0 0-1.5234 4.5701-4.5701 10.664 0 0-15.234 0.67324-27.421 0.67324s-24.374-0.67324-24.374-0.67324c-3.047-6.094-4.57-10.664-4.57-10.664 1.523-12.187 4.57-21.327 4.57-21.327z" stroke="url(#linearGradient4419)" stroke-miterlimit="100" stroke-width="0.8" fill="none"/>
     <path id="path2988" d="m53.039 68.068s5.2968-0.4245 9.484 0.22486c2.9903 0.46374 7.443-1.089 7.443-1.089s-1.4815-2.7908-6.6166-2.8026c-4.5081-0.01036-10.201 3.7458-10.31 3.6668z" fill-rule="evenodd" fill="url(#linearGradient4421)"/>
     <path id="path3016" d="m53.525 63.573 1.0583 2.0529s7.9631-4.1486 12.808-1.7672c-3.8243-4.964-13.866-0.28571-13.866-0.28571z" fill-rule="evenodd" fill="url(#linearGradient4423)"/>
     <g id="g2515" transform="matrix(1.5234 0 0 1.5234 11.439 10.947)">
      <path id="path2529" d="m20.393 21s1.1272-2 3.6071-2 3.6071 2 3.6071 2c0.78905 14.125 1.7053 20 1.7053 21s0.09823 5-5.3124 5-5.3124-4-5.3124-5 0.91626-7.25 1.7053-21z" stroke="url(#linearGradient4425)" stroke-miterlimit="100" stroke-width="1.5755" fill="none"/>
      <path id="path2495" d="m20.393 21s1.1272-2 3.6071-2 3.6071 2 3.6071 2c0.78905 14.125 1.7053 20 1.7053 21s0.09823 5-5.3124 5-5.3124-4-5.3124-5 0.91626-7.25 1.7053-21z" fill-rule="evenodd" fill="url(#linearGradient4427)"/>
      <path id="path2541" d="m19 43s0.75-2 5-2 5 2 5 2 2 4-5 4-5-4-5-4z" fill-rule="evenodd" fill="url(#linearGradient4429)"/>
      <path id="path2539" d="m20.393 21s1.1272-2 3.6071-2 3.6071 2 3.6071 2c0.78905 14.125 1.7053 20 1.7053 21s0.09823 5-5.3124 5-5.3124-4-5.3124-5 0.91626-7.25 1.7053-21z" stroke="url(#linearGradient4431)" stroke-miterlimit="100" stroke-width=".52515" fill="none"/>
     </g>
     <path id="path2430" d="m61.806 40.462s1.4282-4.2845 3.3324-7.8073c0 0 2.4755 0.76168 2.1898 2.3803l-5.5222 5.427z" fill-rule="evenodd" fill="url(#linearGradient4433)"/>
     <path id="path1540" d="m48.476 33.686-0.80158-0.67881c-0.70712-0.59881-2.4275-1.6442-3.5775-3.371-0.72501-1.0886-0.96679-2.5733-0.86143-4.2287-1.946-0.5503-3.5247-1.3678-4.5297-2.513-1.6831-1.918-2.4374-4.1642-3.6581-5.6155l-1.0225-1.2073 1.6239 0.05233c2.7635 0.09058 5.7486 0.01356 8.5255 0.69075 0.72115 0.17585 1.384 0.45865 2.0478 0.79532-0.78984 0.5061-1.2816 1.0225-1.5869 1.4299-0.0062 0.0084-0.84942-0.40371-1.3168-0.51768-2.0348-0.49618-3.0058-0.02879-5.297-0.0904 0.92605 1.4643 0.77182 2.2946 1.8713 3.5477 0.8348 0.95134 2.8469 1.5414 4.6518 2.147 1.8049 0.60558 4.4884 0.279 4.8268 0.20426l-0.05804 1.4871c-0.44728 0.10126-0.95287 0.18338-1.5135 0.21189-1.6818 0.08554-2.6275-0.30673-2.7378-0.35547-0.06433 1.2814 0.23437 2.3853 0.80505 3.2421 0.7131 1.0707 2.3837 1.8056 2.5872 1.8922 0.80314-1.1998 1.5398-1.4966 2.083-2.7594 0.32929-0.76558 0.94142-1.9145 0.0688-4.6357-0.54351-1.6949-1.243-2.1063-1.9576-2.5539l1.3247-1.0118c0.42717 0.28652 0.91416 0.69223 1.3077 1.1927 0.98778 1.2563 0.91894 2.3831 0.90666 2.5174 0 0 1.8619-1.4189 2.6264-2.4272 0.99147-1.3077 1.3543-2.1594 2.2746-3.5786-2.042 0.12504-3.3716-0.3435-5.5592 0.3277-0.59156 0.18151-1.8243 0.92666-3.2895 2.193-1.4651 1.2663-2.1909 2.0466-2.5711 2.8723l-1.8847-0.44383c0.02191-0.05274 2.2-3.8531 4.3844-4.8456 2.1844-0.99249 9.2581-1.6947 11.54-1.8107l1.8539-0.09428-1.2143 1.276c-1.2695 1.3341-2.2443 3.0444-3.7638 5.0485-0.90608 1.195-2.3985 2.1342-4.2697 2.8706 0 0 0.19703 2.1147-0.4528 3.7558-0.69648 1.7589-2.3846 2.8093-2.962 4.0633l-0.42411 0.92104z" fill-rule="evenodd" fill="url(#linearGradient4435)"/>
     <path id="path2461" d="m51.989 16.863c1.9432 2.4888 6.7869 5.121 9.1886 5.805 0.04159 0.01188 0.10204-0.0088 0.14213 0.0018 0.01021-0.000498 0.03711 0.0012 0.04738 0.000594 0.60591-0.03464 1.2342-0.245 1.9897-0.68108 2.213-1.2774 1.3136-0.93724 3.7286-1.8637 0.0252-0.0096 0.07137-0.03152 0.09754-0.04031 1.5161-0.4763 4.5498 0.43987 5.0804 0.60361-0.51411 0.06377-2.6837 0.41506-4.194 1.7332-0.0096 0.0084-0.04032 0.03264-0.05016 0.0409-0.01005 0.0081-0.03987 0.03287-0.05016 0.0409-0.44188 0.33222-1.1201 0.57338-1.8978 0.72376 1.1713 0.08604 2.3925 0.21526 3.6703 0.4198 2.3852 0.38184 3.8608 1.2107 4.5399 2.2996 0.67905 1.0889 0.45521 2.4221-0.45958 3.3167-2.6548 2.5962-9.7551 1.2644-9.7261-1.3264 0.0015-0.04409 0.0055-0.12118 0.01112-0.16598 0.0084-0.05623 0.04608-0.14961 0.0613-0.20689 0.0166-0.05749 0.03766-0.14841 0.0613-0.20689 0.01005-0.02348 0.04176-0.05877 0.05294-0.0824 1.4092-2.9767 4.8237-1.1823 5.9638 0.15785-1.2255-0.71842-2.9328-0.8565-3.5309-0.37653-0.01127 0.0096-0.03971 0.03076-0.05017 0.0409-0.01508 0.01557-0.03996 0.06573-0.05294 0.0824-0.0038 0.0058-0.04654 0.03498-0.05016 0.0409-0.0034 0.0061 0.000362 0.03533-0.0027 0.0415-0.0029 0.0062-0.000133 0.03508-0.0027 0.0415-0.0072 0.01959-0.04806 0.0617-0.05294 0.0824-0.0014 0.007-0.0017 0.03435-0.0027 0.0415-0.000829 0.0073-0.0023 0.03411-0.0027 0.0415-0.000284 0.0075-0.0027 0.03385-0.0027 0.0415-0.002 2.1402 5.7025 2.1677 6.1923 0.28531 0.11899-0.45734 0.11058-0.85031 0.03057-1.1625-0.0093-0.03297-0.02776-0.09357-0.03903-0.12508-0.01188-0.03106-0.02515-0.09541-0.03903-0.12508-0.0097-0.01948-0.03129-0.0647-0.04182-0.08359-0.48111-0.81865-1.7738-1.0948-3.2302-1.328-2.9838-0.47767-6.1725-0.01112-8.798-0.31798-3.972-0.46433-5.7281-1.0125-7.9009-3.7953l-0.679-3.997z" fill-rule="evenodd" fill="url(#linearGradient4437)"/>
     <path id="path2530" d="m43.741 16.919c-1.9432 2.4888-6.7869 5.121-9.1886 5.805-0.04159 0.01188-0.10204-0.0088-0.14213 0.0018-0.01021-0.000499-0.03711 0.0012-0.04738 0.000594-0.60591-0.03464-1.2342-0.245-1.9897-0.68108-2.213-1.2774-1.3136-0.93724-3.7286-1.8637-0.0252-0.0096-0.07137-0.03152-0.09754-0.04031-1.5161-0.4763-4.5498 0.43987-5.0804 0.60361 0.51411 0.06377 2.6837 0.41506 4.194 1.7332 0.0096 0.0084 0.04032 0.03265 0.05016 0.0409 0.01005 0.0081 0.03987 0.03287 0.05016 0.0409 0.44188 0.33222 1.1201 0.57338 1.8978 0.72376-1.1713 0.08604-2.3925 0.21526-3.6703 0.4198-2.3852 0.38184-3.8608 1.2107-4.5399 2.2996-0.67905 1.0889-0.45521 2.4221 0.45958 3.3167 2.6548 2.5962 9.7551 1.2644 9.7261-1.3264-0.0015-0.04409-0.0055-0.12118-0.01112-0.16598-0.0084-0.05623-0.04608-0.14961-0.0613-0.20688-0.01661-0.05749-0.03766-0.14841-0.0613-0.20689-0.01005-0.02347-0.04176-0.05877-0.05294-0.0824-1.4092-2.9767-4.8237-1.1823-5.9638 0.15785 1.2255-0.71842 2.9328-0.8565 3.5309-0.37653 0.01127 0.0096 0.03971 0.03077 0.05016 0.0409 0.01508 0.01557 0.03996 0.06573 0.05294 0.0824 0.0038 0.0058 0.04654 0.03498 0.05016 0.0409 0.0034 0.0061-0.000362 0.03533 0.0027 0.0415 0.0029 0.0062 0.000133 0.03508 0.0027 0.0415 0.0072 0.01959 0.04806 0.0617 0.05294 0.0824 0.0014 0.007 0.0017 0.03435 0.0027 0.0415 0.000828 0.0073 0.0023 0.03411 0.0027 0.0415 0.000283 0.0075 0.0027 0.03385 0.0027 0.0415 0.002 2.1402-5.7025 2.1677-6.1923 0.28531-0.11899-0.45734-0.11058-0.85031-0.03057-1.1625 0.0093-0.03297 0.02776-0.09355 0.03903-0.12508 0.01188-0.03106 0.02515-0.09541 0.03903-0.12508 0.0096-0.01948 0.03129-0.0647 0.0418-0.08359 0.48092-0.81865 1.7736-1.0948 3.23-1.328 2.9838-0.47767 6.1725-0.01112 8.798-0.31798 3.972-0.46433 5.7281-1.0125 7.9009-3.7953l0.68028-3.9955z" fill-rule="evenodd" fill="url(#linearGradient4439)"/>
     <path id="path3034" d="m20.543 74.69 4.5142-7.3713s-1.1126 4.5157-0.28722 7.2765l-4.227 0.09477z" fill-rule="evenodd" fill="url(#linearGradient4441)"/>
     <path id="path2886" d="m40.119 75.99c5.2344-3.9216 13.465-1.8851 13.465-1.8851-6.8073-3.5702-5.9245-10.368-5.9245-10.368l-3.4642 6.5284-0.70987-27.803s-2.9454 26.677-3.3662 33.527z" fill-rule="evenodd" fill="url(#linearGradient4443)"/>
     <path id="path2804" d="m54.382 55.787 0.86366 5.5871c-10.099-3.501-16.072 9.268-16.072 9.268l0.79155-9.4226c4.982-9.6947 14.417-5.4321 14.417-5.4321z" fill-rule="evenodd" stroke="url(#linearGradient4447)" stroke-miterlimit="10" stroke-width="0.8" fill="url(#linearGradient4445)"/>
     <path id="path2584" d="m40.894 49.313-0.38761 5.8727c10.099-3.5008 15.882 9.3628 15.882 9.3628l-0.886-9.423c-4.982-9.695-14.608-5.813-14.608-5.813z" fill-rule="evenodd" stroke="url(#linearGradient4451)" stroke-miterlimit="10" stroke-width="0.8" fill="url(#linearGradient4449)"/>
     <path id="path2850" d="m41.565 49.697-0.22986 2.7611c9.9425-3.1188 13.52 2.7611 13.52 2.7611-4.1893-8.6247-13.29-5.5222-13.29-5.5222z" fill-rule="evenodd" fill="url(#linearGradient4453)"/>
     <path id="path2876" d="m40.523 61.448-0.40394 4.1741s2.289-6.5978 9.4254-8.6175l-2.4237-1.4811c-4.4434 1.7504-6.5978 5.9245-6.5978 5.9245z" fill-rule="evenodd" fill="url(#linearGradient4455)"/>
     <path id="path2896" d="m17.094 35.326s0.03367-2.491 0.94254-5.7899c1.4475 3.9721 13.111 2.4405 37.028 5.2513-17.959 0.38711-37.971 0.53859-37.971 0.53859z" fill-rule="evenodd" fill="url(#linearGradient4457)"/>
     <path id="path2906" d="m28.001 47.713c-2.0197-4.4434-1.6158-9.1561-1.6158-9.1561s4.6203 6.4073 7.0439 9.2349l-5.4282-0.07888z" fill-rule="evenodd" fill="url(#linearGradient4459)"/>
     <path id="path3044" d="m21.807 13.244-1.2118 3.7701c8.3482-2.289 53.725-3.5008 53.725-3.5008s-34.335-1.2118-52.513-0.2693z" fill-rule="evenodd" fill="url(#linearGradient4461)"/>
    </g>
    <g id="g4202" fill-opacity=".71345" transform="matrix(1.4965 0 0 1.4965 -133.41 1.4212)">
     <g id="g4204" opacity=".75"></g>
     <g id="g4208"></g>
    </g>
    <g id="g4212" fill-opacity=".71345" transform="matrix(1.4965 0 0 1.4965 -133.41 1.4212)">
     <g id="g4214" opacity=".75"></g>
     <g id="g4218"></g>
    </g>
    <g id="g3282" style="color:#000000" transform="matrix(1.4965 0 0 1.4965 -133.72 1.1134)" fill="url(#radialGradient4463)">
     <g id="g3284" opacity=".75" style="color:#000000"></g>
     <g id="g3288" style="color:#000000"></g>
    </g>
    <g id="g3292" style="color:#000000" transform="matrix(1.4965 0 0 1.4965 -133.72 1.1134)" fill="url(#radialGradient4463)">
     <g id="g3294" opacity=".75" style="color:#000000"></g>
     <g id="g3298" style="color:#000000"></g>
    </g>
   </g>
  </g>
 </g>
</svg>
