<?xml version="1.0" encoding="UTF-8" standalone="no"?>
<!-- Created with Inkscape (http://www.inkscape.org/) -->
<svg id="svg2" xmlns:rdf="http://www.w3.org/1999/02/22-rdf-syntax-ns#" xmlns="http://www.w3.org/2000/svg" height="96" width="96" version="1.1" xmlns:cc="http://creativecommons.org/ns#" xmlns:xlink="http://www.w3.org/1999/xlink" xmlns:dc="http://purl.org/dc/elements/1.1/">
 <defs id="defs4">
  <linearGradient id="linearGradient5310" y2="78" gradientUnits="userSpaceOnUse" x2="46" gradientTransform="matrix(1.1052 0 0 1.2929 -4.4996 -5.1476)" y1="6" x1="46">
   <stop id="stop4329" stop-color="#f0f0f0" offset="0"/>
   <stop id="stop4331" stop-color="#b4b4b4" offset="1"/>
  </linearGradient>
  <filter id="filter3536" height="1.2868" width="1.4834" color-interpolation-filters="sRGB" y="-.14339" x="-.24171">
   <feGaussianBlur id="feGaussianBlur3538" stdDeviation="3.525"/>
  </filter>
  <clipPath id="clipPath3520">
   <path id="path3522" d="m9.9375 33.688c-3.2233 0-5.8438 1.784-5.8438 4v67.719c0 2.216 2.6205 4 5.8438 4h77.625c3.2233 0 5.8438-1.784 5.8438-4v-67.719c0-2.216-2.6205-4-5.8438-4h-77.625zm37.968 8.312c3.4319 0 6.2188 2.1981 6.2188 4.9375 0 2.1817-1.7642 4.0541-4.2188 4.7188v3.5625c0.01488 0.49755 0.29869 1.0673 0.6875 1.4688 0.09978 0.07533 8.1924 6.2001 8.2188 6.2188 0.0084 0.0065 0.02327-0.0068 0.03125 0 0.02396 0.01835 0.04599 0.04881 0.0625 0.0625 0.0042 0.0036 0.02447-0.006 0.03125 0 0.0068 0.006 0.03104 0.06226 0.03125 0.0625 0.000026 0.000029 0.06248 0.06248 0.0625 0.0625 0 0 0.000001 0.03125 0 0.03125 0.01173 0.01044 0.01956 0.02072 0.03125 0.03125 1.0961 0.9886 2 2.3551 2 3.8125v4.0938c1.724 0.628 2.938 2.024 2.938 3.657 0 2.2201-2.2042 4.0313-4.9375 4.0312-2.7333 0-4.9688-1.8111-4.9688-4.0312 0-1.6554 1.2361-3.0718 3-3.6875-0.000235-1.0474-0.000001-2.3794 0-4.0938-0.01444-0.49788-0.29736-1.0345-0.6875-1.4375l-6.5-4.9375v28.125h4.4688l-6.375 9.312-6.375-9.3125h4.3125v-21.969l-6.5312 4.9375c-0.3949 0.40606-0.67319 0.90899-0.6875 1.4062v3.8125h2.8125v7.9062h-9.5312v-7.9062h2.7812v-3.75c0-1.4421 0.88924-2.7945 1.9688-3.7812 0 0 0.0213-0.01152 0.03125-0.03125 0.0043-0.0039-0.0044-0.02734 0-0.03125l0.03125-0.03125c0.000015-0.000021 0.03122-0.03122 0.03125-0.03125 0.000203-0.000243 0.05499-0.08694 0.0625-0.09375 0.0047-0.004-0.0046-0.02742 0-0.03125 0.01531-0.01278 0.07133-0.01367 0.09375-0.03125 0.0079-0.01061 0.02312-0.02513 0.03125-0.03125 0.01626-0.01224 0.03151-0.0079 0.0625-0.03125 0.06197-0.04673 0.16688-0.13246 0.28125-0.21875 0.22873-0.17257 0.51658-0.42467 0.90625-0.71875 0.77935-0.58816 1.8392-1.3432 2.875-2.125 2.0463-1.5445 4.0441-3.0875 4.0938-3.125 0.39272-0.40316 0.67163-0.90931 0.6875-1.4062v-6.1562c-0.003-0.04389-0.000459-0.02213 0-0.03125 0.000459-0.0091-0.000001-0.03827 0-0.03125v-3.5312c-2.454-0.665-4.248-2.537-4.248-4.719 0-2.74 2.785-4.938 6.218-4.938z" fill="#fff"/>
  </clipPath>
  <filter id="filter4180-5" height="3.8298" width="1.2289" color-interpolation-filters="sRGB" y="-1.4149" x="-.11445">
   <feGaussianBlur id="feGaussianBlur4182-2" stdDeviation="3.5372897"/>
  </filter>
  <filter id="filter3174" color-interpolation-filters="sRGB">
   <feGaussianBlur id="feGaussianBlur3176" stdDeviation="1.71"/>
  </filter>
  <linearGradient id="ButtonShadow-5" x1="45.448" gradientUnits="userSpaceOnUse" y1="92.54" gradientTransform="scale(1.0059 .99417)" x2="45.448" y2="7.0165">
   <stop id="stop3750-4" offset="0"/>
   <stop id="stop3752-2" stop-opacity=".58824" offset="1"/>
  </linearGradient>
  <radialGradient id="radialGradient4480" gradientUnits="userSpaceOnUse" cy="84" cx="48" gradientTransform="matrix(1.0667 0 0 .066667 -3.2 77.4)" r="30">
   <stop id="stop3315-7" stop-color="#ffcf29" offset="0"/>
   <stop id="stop4186-0" stop-color="#ff1313" stop-opacity=".65098" offset=".67213"/>
   <stop id="stop3317-9" stop-color="#f00" stop-opacity="0" offset="1"/>
  </radialGradient>
  <linearGradient id="linearGradient4482" y2="62.971" gradientUnits="userSpaceOnUse" x2="24.668" gradientTransform="matrix(0 .67664 -.84794 0 101.4 -4.6916)" y1="62.971" x1="105.56">
   <stop id="stop3769-2" stop-color="#4d4d4d" stop-opacity=".70732" offset="0"/>
   <stop id="stop3771-8" stop-color="#4d4d4d" stop-opacity=".25203" offset="1"/>
  </linearGradient>
 </defs>
 <metadata id="metadata7">
  <rdf:RDF>
   <cc:Work rdf:about="">
    <dc:format>image/svg+xml</dc:format>
    <dc:type rdf:resource="http://purl.org/dc/dcmitype/StillImage"/>
    <dc:title/>
   </cc:Work>
  </rdf:RDF>
 </metadata>
 <g id="layer1" transform="translate(0 -956.36)">
  <rect id="rect5263-0" fill-opacity=".019608" ry="12.724" height="89.978" width="89.624" y="959.35" x="3.3534"/>
  <rect id="rect5261-6" fill-opacity=".039216" ry="12.552" height="88.762" width="88.413" y="959.96" x="3.9589"/>
  <rect id="rect5259-9" fill-opacity=".078431" ry="12.38" height="87.546" width="87.202" y="960.57" x="4.5645"/>
  <rect id="rect5257-5" fill-opacity=".15686" ry="12.208" height="86.33" width="85.991" y="961.18" x="5.1701"/>
  <path id="rect3171" d="m17.75 5.4062c-6.642 0-11.969 5.3948-11.969 12.063l0.0002 61.031c0 6.668 5.3268 12.031 11.969 12.031h60.812c6.642 0 11.969-5.363 11.969-12.031v-61.031c0-6.668-5.327-12.063-11.969-12.063l-60.812 0.0002z" transform="translate(0 956.36)" fill="url(#linearGradient5310)"/>
  <path id="rect5265-0" d="m5.7756 1029.8v5.0663c0 6.668 5.3434 12.032 11.985 12.032h60.809c6.6418 0 11.985-5.3645 11.985-12.032v-5.0663c0 6.6681-5.3434 12.032-11.985 12.032h-60.809c-6.6418 0-11.985-5.3643-11.985-12.032z" fill-opacity=".11765"/>
  <path id="path5252-0" d="m5.7756 1033.9v1.0133c0 6.668 5.3434 12.032 11.985 12.032h60.809c6.6418 0 11.985-5.3645 11.985-12.032v-1.0133c0 6.6681-5.3434 12.032-11.985 12.032h-60.809c-6.6418 0-11.985-5.3644-11.985-12.032z" fill-opacity=".098039"/>
  <g id="layer2" display="none" transform="translate(187.11 947.14)">
   <rect id="rect3745" opacity=".9" rx="6" ry="6" height="85" filter="url(#filter3174)" width="86" y="7" x="5" fill="url(#ButtonShadow-5)"/>
  </g>
  <g id="layer5-5" transform="translate(.083269 955.27)">
   <rect id="rect3323-2" opacity=".6" rx="6.7435" ry="6" height="6" filter="url(#filter4180-5)" width="74.179" y="80" x="10.911" fill="#f00"/>
   <rect id="rect3311-0" rx="5.8182" ry="4" height="4" width="64" y="81" x="16" fill="url(#radialGradient4480)"/>
  </g>
  <g id="layer4-6" transform="translate(.083265 957.27)">
   <path id="path1334" d="m64 44.713c0-1.6326-1.2147-3.0314-2.938-3.6591v-4.0767c0-1.4574-0.91153-2.8296-2.0076-3.8182-0.01169-0.01054-0.01276-0.02933-0.02449-0.03977v-0.01989c-0.000017-0.000021-0.04894-0.05963-0.04897-0.05966-0.00021-0.000241-0.04218-0.05362-0.04897-0.05966-0.0068-0.006-0.0203 0.0036-0.02448 0-0.0042-0.0036 0.0041-0.01646 0-0.01988-0.01651-0.01369-0.04949-0.02143-0.07345-0.03977-0.008-0.0068-0.01614-0.01341-0.02449-0.01989-0.02631-0.01864-8.1267-6.1491-8.2265-6.2244-0.38881-0.40146-0.67066-0.95415-0.68554-1.4517v-3.5597c2.4546-0.66468 4.2357-2.5313 4.2357-4.7131 0-2.739-2.787-4.951-6.219-4.951-3.4329 0-6.2188 2.2123-6.2188 4.9517 0.000003 2.1822 1.7797 4.0485 4.2357 4.7131v3.5199c0-0.007 0.000459 0.03066 0 0.03977-0.000458 0.0091-0.003-0.0041 0 0.03977v6.1449c-0.01587 0.49694-0.29283 1.0088-0.68554 1.4119-0.04962 0.03746-2.0424 1.5578-4.0888 3.1023-1.0358 0.78181-2.0852 1.5596-2.8646 2.1477-0.38967 0.29408-0.70164 0.54334-0.93037 0.71591-0.11437 0.08629-0.20735 0.15214-0.26932 0.19886-0.03098 0.02336-0.05719 0.02753-0.07345 0.03977-0.0081 0.0061-0.0166 0.02917-0.02448 0.03977-0.02242 0.01758-0.05814 0.027-0.07345 0.03977-0.0046 0.0038 0.0047 0.01588 0 0.01989-0.0047 0.004-0.01698-0.0068-0.02448 0s-0.04876 0.0793-0.04897 0.07955c-0.000027 0.000031-0.04895 0.03975-0.04897 0.03977v0.01989l-0.02448 0.01989c-0.0044 0.0039 0.0043 0.01597 0 0.01989-0.0099 0.01973-0.02448 0.03977-0.02448 0.03977-1.0795 0.98676-1.9832 2.3363-1.9832 3.7784v3.7386h-2.7666v7.9347h9.5173v-7.9347h-2.7844v-3.7983c0.01431-0.49726 0.29064-1.0059 0.68554-1.4119l6.5126-4.9318v21.974h-4.2956l6.365 9.307 6.3664-9.3068h-4.4692v-28.119l6.5126 4.9119c0.39014 0.40295 0.6711 0.95383 0.68554 1.4517 0 1.7143-0.000235 3.0492 0 4.0966-1.7639 0.61572-3.0115 2.0236-3.0115 3.679 0 2.2201 2.2368 4.0369 4.9702 4.0369 2.734 0 4.946-1.817 4.946-4.037z" fill="url(#linearGradient4482)"/>
   <path id="path3504" opacity=".4" d="m47.906 12c-3.4329 0-6.2188 2.1981-6.2188 4.9375 0 0.13698 0.04875 0.27198 0.0625 0.40625 0.373-2.454 2.979-4.344 6.156-4.344 3.2044 0 5.8514 1.9206 6.1875 4.4062 0.018-0.153 0.031-0.311 0.031-0.468 0-2.74-2.787-4.938-6.219-4.938zm2 13.219v1c0.01488 0.49755 0.29869 1.0673 0.6875 1.4688 0.09978 0.07533 8.1924 6.2001 8.2188 6.2188 0.0084 0.0065 0.02327-0.0068 0.03125 0 0.02396 0.01835 0.04599 0.04881 0.0625 0.0625 0.0042 0.0036 0.02447-0.006 0.03125 0 0.0068 0.006 0.03104 0.06226 0.03125 0.0625 0.000026 0.000029 0.06248 0.06248 0.0625 0.0625 0 0 0.000001 0.03125 0 0.03125 0.01173 0.01044 0.01956 0.02072 0.03125 0.03125 1.0961 0.9886 2 2.3551 2 3.8125v-1c0.000001-1.4574-0.90388-2.8239-2-3.8125-0.01169-0.01053-0.01952-0.02081-0.03125-0.03125 0.000001 0.000001 0-0.03125 0-0.03125-0.000016-0.000021-0.06247-0.06247-0.0625-0.0625-0.000208-0.000241-0.02446-0.05646-0.03125-0.0625-0.0068-0.006-0.02707 0.0036-0.03125 0-0.01651-0.01369-0.03854-0.04415-0.0625-0.0625-0.008-0.0068-0.0229 0.0065-0.03125 0-0.02631-0.01863-8.119-6.1434-8.2188-6.2188-0.38881-0.40146-0.67262-0.9712-0.6875-1.4688zm-3.9688 6.1875c-0.01587 0.49694-0.29478 1.0031-0.6875 1.4062-0.04962 0.03746-2.0474 1.5805-4.0938 3.125-1.0358 0.78181-2.0957 1.5368-2.875 2.125-0.38967 0.29408-0.67752 0.54618-0.90625 0.71875-0.11437 0.08629-0.21928 0.17202-0.28125 0.21875-0.03099 0.02336-0.04624 0.01901-0.0625 0.03125-0.0081 0.0061-0.02336 0.02064-0.03125 0.03125-0.02242 0.01758-0.07844 0.01847-0.09375 0.03125-0.0046 0.0038 0.0047 0.02724 0 0.03125-0.0075 0.0068-0.0623 0.09351-0.0625 0.09375-0.000028 0.000031-0.03124 0.03123-0.03125 0.03125 0 0.000001-0.03125 0.03125-0.03125 0.03125-0.0044 0.0039 0.0043 0.02733 0 0.03125-0.0099 0.01973-0.03125 0.03125-0.03125 0.03125-1.0795 0.98676-1.9688 2.3392-1.9688 3.7812v1c0-1.4421 0.88924-2.7945 1.9688-3.7812 0 0 0.0213-0.01152 0.03125-0.03125 0.0043-0.0039-0.0044-0.02734 0-0.03125l0.03125-0.03125c0.000015-0.000021 0.03122-0.03122 0.03125-0.03125 0.000203-0.000243 0.05499-0.08693 0.0625-0.09375 0.0047-0.004-0.0046-0.02742 0-0.03125 0.01531-0.01278 0.07133-0.01367 0.09375-0.03125 0.0079-0.01061 0.02312-0.02513 0.03125-0.03125 0.01626-0.01224 0.03151-0.0079 0.0625-0.03125 0.06197-0.04673 0.16688-0.13246 0.28125-0.21875 0.22873-0.17257 0.51658-0.42467 0.90625-0.71875 0.77935-0.58816 1.8392-1.3432 2.875-2.125 2.0463-1.5445 4.0441-3.0875 4.0938-3.125 0.39272-0.40316 0.67163-0.90931 0.6875-1.4062v-1zm11.156 9.625c-1.7639 0.61572-3 2.0321-3 3.6875 0 0.18207 0.03337 0.35539 0.0625 0.53125 0.20676-1.4531 1.3395-2.6609 2.9375-3.2188-0.000057-0.25585 0.000012-0.7085 0-1zm3.9688 0.03125v1c1.5528 0.56556 2.6646 1.7629 2.875 3.1875 0.029-0.176 0.063-0.349 0.063-0.531 0-1.633-1.214-3.029-2.938-3.657zm-29.062 5.813v1h2.7812v-1h-2.7812zm6.7188 0v1h2.8125v-1h-2.8125zm2.9062 11.812 0.6875 1h3.625v-1h-4.3125zm8.2812 0v1h3.7812l0.6875-1h-4.4688z"/>
   <path id="path3518" opacity=".8" d="m64 74.713c0-1.6326-1.2147-3.0314-2.938-3.6591v-4.0767c0-1.4574-0.91153-2.8296-2.0076-3.8182-0.01169-0.01054-0.01276-0.02933-0.02449-0.03977v-0.01989c-0.000017-0.000021-0.04894-0.05963-0.04897-0.05966-0.00021-0.000241-0.04218-0.05362-0.04897-0.05966-0.0068-0.006-0.0203 0.0036-0.02448 0-0.0042-0.0036 0.0041-0.01646 0-0.01988-0.01651-0.01369-0.04949-0.02143-0.07345-0.03977-0.008-0.0068-0.01614-0.01341-0.02449-0.01989-0.02631-0.01864-8.1267-6.1491-8.2265-6.2244-0.38881-0.40146-0.67066-0.95415-0.68554-1.4517v-3.5597c2.4546-0.66468 4.2357-2.5313 4.2357-4.7131 0-2.739-2.787-4.951-6.219-4.951-3.4329 0-6.2188 2.2123-6.2188 4.9517 0.000003 2.1822 1.7797 4.0485 4.2357 4.7131v3.5199c0-0.007 0.000459 0.03066 0 0.03977-0.000458 0.0091-0.003-0.0041 0 0.03977v6.1449c-0.01587 0.49694-0.29283 1.0088-0.68554 1.4119-0.04962 0.03746-2.0424 1.5578-4.0888 3.1023-1.0358 0.78181-2.0852 1.5596-2.8646 2.1477-0.38967 0.29408-0.70164 0.54334-0.93037 0.71591-0.11437 0.08629-0.20735 0.15214-0.26932 0.19886-0.03098 0.02336-0.05719 0.02753-0.07345 0.03977-0.0081 0.0061-0.0166 0.02917-0.02448 0.03977-0.02242 0.01758-0.05814 0.027-0.07345 0.03977-0.0046 0.0038 0.0047 0.01588 0 0.01989-0.0047 0.004-0.01698-0.0068-0.02448 0s-0.04876 0.0793-0.04897 0.07955c-0.000027 0.000031-0.04895 0.03975-0.04897 0.03977v0.01989l-0.02448 0.01989c-0.0044 0.0039 0.0043 0.01597 0 0.01989-0.0099 0.01973-0.02448 0.03977-0.02448 0.03977-1.0795 0.98676-1.9832 2.3363-1.9832 3.7784v3.7386h-2.7666v7.9347h9.5173v-7.9347h-2.7844v-3.7983c0.01431-0.49726 0.29064-1.0059 0.68554-1.4119l6.5126-4.9318v21.974h-4.2956l6.365 9.307 6.3664-9.3068h-4.4692v-28.119l6.5126 4.9119c0.39014 0.40295 0.6711 0.95383 0.68554 1.4517 0 1.7143-0.000235 3.0492 0 4.0966-1.7639 0.61572-3.0115 2.0236-3.0115 3.679 0 2.2201 2.2368 4.0369 4.9702 4.0369 2.734 0 4.946-1.817 4.946-4.037z" clip-path="url(#clipPath3520)" transform="translate(0,-30)" filter="url(#filter3536)" stroke="#fff" stroke-width="3" fill="none"/>
  </g>
  <path id="path4530" fill-opacity=".31132" d="m5.7756 1024.4v1.0133c0 6.668 5.3434 12.032 11.985 12.032h60.809c6.6418 0 11.985-5.3645 11.985-12.032v-1.0133c0 6.6681-5.3434 12.032-11.985 12.032h-60.809c-6.6418 0-11.985-5.3644-11.985-12.032z"/>
  <path id="path4532" fill-opacity=".21226" d="m5.7756 1020.1v5.0663c0 6.668 5.3434 12.032 11.985 12.032h60.809c6.6418 0 11.985-5.3645 11.985-12.032v-5.0663c0 6.6681-5.3434 12.032-11.985 12.032h-60.809c-6.6418 0-11.985-5.3643-11.985-12.032z"/>
 </g>
</svg>
