<?xml version="1.0" encoding="UTF-8" standalone="no"?>
<!-- Created with Inkscape (http://www.inkscape.org/) -->
<svg id="svg2" xmlns:rdf="http://www.w3.org/1999/02/22-rdf-syntax-ns#" xmlns="http://www.w3.org/2000/svg" height="96" width="96" version="1.1" xmlns:cc="http://creativecommons.org/ns#" xmlns:xlink="http://www.w3.org/1999/xlink" xmlns:dc="http://purl.org/dc/elements/1.1/">
 <defs id="defs4">
  <linearGradient id="linearGradient6400" y2="2.9934" gradientUnits="userSpaceOnUse" x2="47.995" y1="84.031" x1="47.995">
   <stop id="stop6396" stop-color="#ccc" offset="0"/>
   <stop id="stop6398" stop-color="#dae0de" offset="1"/>
  </linearGradient>
  <radialGradient id="radialGradient3140" gradientUnits="userSpaceOnUse" cx="47.098" cy="78.287" r="38.957" gradientTransform="matrix(1.3031 0 0 1.0199 -14.917 -12.741)">
   <stop id="stop3993" stop-color="#505052" offset="0"/>
   <stop id="stop3995-1" stop-color="#141414" offset="1"/>
  </radialGradient>
 </defs>
 <metadata id="metadata7">
  <rdf:RDF>
   <cc:Work rdf:about="">
    <dc:format>image/svg+xml</dc:format>
    <dc:type rdf:resource="http://purl.org/dc/dcmitype/StillImage"/>
    <dc:title/>
   </cc:Work>
  </rdf:RDF>
 </metadata>
 <g id="layer1" transform="translate(0 -956.36)">
  <rect id="rect5263-0" fill-opacity=".019608" ry="12.724" height="89.978" width="89.624" y="959.35" x="3.3534"/>
  <rect id="rect5261-6" fill-opacity=".039216" ry="12.552" height="88.762" width="88.413" y="959.96" x="3.9589"/>
  <rect id="rect5259-9" fill-opacity=".078431" ry="12.38" height="87.546" width="87.202" y="960.57" x="4.5645"/>
  <rect id="rect5257-5" fill-opacity=".15686" ry="12.208" height="86.33" width="85.991" y="961.18" x="5.1701"/>
  <path id="rect2419" d="m17.75 5.4062c-6.642 0-11.969 5.3948-11.969 12.063l0.0002 61.031c0 6.668 5.3268 12.031 11.969 12.031h60.812c6.642 0 11.969-5.363 11.969-12.031v-61.031c0-6.668-5.327-12.063-11.969-12.063l-60.812 0.0002z" transform="translate(0 956.36)" fill="url(#linearGradient6400)"/>
  <path id="rect5265-0" d="m5.7756 1029.8v5.0663c0 6.668 5.3434 12.032 11.985 12.032h60.809c6.6418 0 11.985-5.3645 11.985-12.032v-5.0663c0 6.6681-5.3434 12.032-11.985 12.032h-60.809c-6.6418 0-11.985-5.3643-11.985-12.032z" fill-opacity=".11765"/>
  <path id="path5252-0" d="m5.7756 1033.9v1.0133c0 6.668 5.3434 12.032 11.985 12.032h60.809c6.6418 0 11.985-5.3645 11.985-12.032v-1.0133c0 6.6681-5.3434 12.032-11.985 12.032h-60.809c-6.6418 0-11.985-5.3644-11.985-12.032z" fill-opacity=".098039"/>
  <rect id="rect4891" opacity=".5" ry="7.259" height="56.75" width="71.472" y="968.65" x="12.232" fill="#4d4d4d"/>
  <path id="rect3461-2" d="m20.281 15.312c-3.968 0-7.156 3.188-7.156 7.157v41.687c0 3.969 3.188 7.156 7.156 7.156h55.375c3.969 0 7.156-3.187 7.156-7.156v-41.687c0-3.969-3.187-7.157-7.156-7.157h-55.375z" transform="translate(0 956.36)" fill="url(#radialGradient3140)"/>
  <rect id="rect4927" ry="2.6401" height="5.2802" width="20.498" y="993.6" x="41.135" fill="#fff"/>
  <rect id="rect4935" transform="scale(1,-1)" ry="1.2796" height="2.5593" width="17.309" y="-1036.3" x="58.934" fill="#999"/>
  <rect id="rect4939" transform="scale(1,-1)" ry="1.2796" height="2.5593" width="17.309" y="-1035.4" x="58.934" fill="#808080"/>
  <rect id="rect7880" transform="rotate(-31.104)" ry="2.6401" height="5.2802" width="20.498" y="862.3" x="-497.32" fill="#fff"/>
  <rect id="rect7882" ry="2.6401" transform="matrix(.85624 .51659 .51659 -.85624 0 0)" height="5.2802" width="20.498" y="-829.8" x="523.55" fill="#fff"/>
 </g>
</svg>
