<?xml version="1.0" encoding="UTF-8" standalone="no"?>
<!-- Created with Inkscape (http://www.inkscape.org/) -->

<svg
   xmlns:dc="http://purl.org/dc/elements/1.1/"
   xmlns:cc="http://creativecommons.org/ns#"
   xmlns:rdf="http://www.w3.org/1999/02/22-rdf-syntax-ns#"
   xmlns:svg="http://www.w3.org/2000/svg"
   xmlns="http://www.w3.org/2000/svg"
   xmlns:xlink="http://www.w3.org/1999/xlink"
   xmlns:sodipodi="http://sodipodi.sourceforge.net/DTD/sodipodi-0.dtd"
   xmlns:inkscape="http://www.inkscape.org/namespaces/inkscape"
   id="svg2"
   height="96"
   width="96"
   version="1.1"
   inkscape:version="0.91 r"
   sodipodi:docname="cheese.svg">
  <sodipodi:namedview
     pagecolor="#ffffff"
     bordercolor="#666666"
     borderopacity="1"
     objecttolerance="10"
     gridtolerance="10"
     guidetolerance="10"
     inkscape:pageopacity="0"
     inkscape:pageshadow="2"
     inkscape:window-width="1366"
     inkscape:window-height="717"
     id="namedview124"
     showgrid="false"
     inkscape:zoom="1.2291667"
     inkscape:cx="10.446254"
     inkscape:cy="43.368844"
     inkscape:window-x="0"
     inkscape:window-y="0"
     inkscape:window-maximized="1"
     inkscape:current-layer="svg2" />
  <defs
     id="defs4">
    <linearGradient
       id="linearGradient3613-4"
       y2="138.66"
       gradientUnits="userSpaceOnUse"
       x2="48"
       y1="20.221"
       x1="48">
      <stop
         id="stop3739-2"
         stop-color="#fff"
         offset="0" />
      <stop
         id="stop3741-18"
         stop-color="#fff"
         stop-opacity="0"
         offset="1" />
    </linearGradient>
    <clipPath
       id="clipPath3613-9">
      <rect
         id="rect3615-39"
         rx="6"
         ry="6"
         height="84"
         width="84"
         y="6"
         x="6"
         fill="#fff" />
    </clipPath>
    <filter
       id="filter3794-6"
       height="1.384"
       width="1.384"
       color-interpolation-filters="sRGB"
       y="-.192"
       x="-.192">
      <feGaussianBlur
         id="feGaussianBlur3796-7"
         stdDeviation="5.28" />
    </filter>
    <clipPath
       id="clipPath4165">
      <rect
         id="rect4167"
         rx="6"
         ry="6"
         height="84"
         width="84"
         y="6"
         x="6"
         fill="#ff2a2a" />
    </clipPath>
    <radialGradient
       id="radialGradient4393"
       xlink:href="#linearGradient3853"
       gradientUnits="userSpaceOnUse"
       cy="26.357"
       cx="24.821"
       r="8.0357" />
    <linearGradient
       id="linearGradient3853">
      <stop
         id="stop3855"
         stop-color="#e88d01"
         stop-opacity=".18431"
         offset="0" />
      <stop
         id="stop3863"
         stop-color="#e58907"
         stop-opacity=".41085"
         offset=".5" />
      <stop
         id="stop4397"
         stop-color="#e48a0a"
         stop-opacity=".68217"
         offset=".75" />
      <stop
         id="stop3859-7"
         stop-color="#e4870a"
         offset="1" />
    </linearGradient>
    <radialGradient
       id="radialGradient4045"
       xlink:href="#linearGradient3853"
       gradientUnits="userSpaceOnUse"
       cy="30.464"
       cx="43.393"
       r="4.1071" />
    <radialGradient
       id="radialGradient4047"
       xlink:href="#linearGradient3698"
       gradientUnits="userSpaceOnUse"
       cy="24.64"
       cx="53.542"
       r="2.1429" />
    <linearGradient
       id="linearGradient3698">
      <stop
         id="stop3700"
         stop-color="#f0a801"
         stop-opacity=".18605"
         offset="0" />
      <stop
         id="stop3711"
         stop-color="#f0a801"
         stop-opacity=".35659"
         offset=".5" />
      <stop
         id="stop4395"
         stop-color="#e8a301"
         stop-opacity=".83721"
         offset=".75" />
      <stop
         id="stop3703"
         stop-color="#e09201"
         offset="1" />
    </linearGradient>
    <radialGradient
       id="radialGradient4049"
       xlink:href="#linearGradient3698"
       gradientUnits="userSpaceOnUse"
       cy="37.607"
       cx="62.679"
       r="5.3571" />
    <radialGradient
       id="radialGradient4051"
       xlink:href="#linearGradient3698"
       gradientUnits="userSpaceOnUse"
       cy="62.283"
       cx="30.529"
       r="6.6071" />
    <radialGradient
       id="radialGradient4053"
       xlink:href="#linearGradient3853"
       gradientUnits="userSpaceOnUse"
       cy="71.637"
       cx="65.731"
       r="8.2143" />
    <radialGradient
       id="radialGradient4055"
       xlink:href="#linearGradient3698"
       gradientUnits="userSpaceOnUse"
       cy="56.426"
       cx="48.796"
       r="3.3929" />
    <radialGradient
       id="radialGradient4125"
       xlink:href="#linearGradient3853"
       gradientUnits="userSpaceOnUse"
       cy="77.455"
       cx="12.211"
       r="7.8571" />
    <radialGradient
       id="radialGradient4059"
       xlink:href="#linearGradient3698"
       gradientUnits="userSpaceOnUse"
       cy="87.036"
       cx="33.899"
       r="4.1071" />
    <radialGradient
       id="radialGradient4061"
       xlink:href="#linearGradient3698"
       gradientUnits="userSpaceOnUse"
       cy="86.754"
       cx="50.864"
       r="5.3571" />
    <radialGradient
       id="radialGradient4063"
       xlink:href="#linearGradient3853"
       gradientUnits="userSpaceOnUse"
       cy="13.679"
       cx="73.393"
       r="3.5714" />
    <radialGradient
       id="radialGradient4065"
       xlink:href="#linearGradient3698"
       gradientUnits="userSpaceOnUse"
       cy="25.643"
       cx="80.714"
       r="9.2857" />
    <radialGradient
       id="radialGradient4105"
       xlink:href="#linearGradient3853"
       gradientUnits="userSpaceOnUse"
       cy="79.565"
       cx="78.237"
       r="2.1429" />
    <radialGradient
       id="radialGradient4102"
       xlink:href="#linearGradient3698"
       gradientUnits="userSpaceOnUse"
       cy="69.737"
       cx="82.598"
       r="4.8214" />
    <radialGradient
       id="radialGradient4121"
       xlink:href="#linearGradient3698"
       gradientUnits="userSpaceOnUse"
       cy="34.283"
       cx="12.649"
       r="3.2143" />
    <radialGradient
       id="radialGradient4073"
       xlink:href="#linearGradient3698"
       gradientUnits="userSpaceOnUse"
       cy="5.0426"
       cx="34.688"
       r="6.0714" />
    <radialGradient
       id="radialGradient4119"
       xlink:href="#linearGradient3698"
       gradientUnits="userSpaceOnUse"
       cy="17.705"
       cx="3.023"
       gradientTransform="matrix(1,0,0,0.975,0,0.37768)"
       r="7.1429" />
    <radialGradient
       id="radialGradient4077"
       xlink:href="#linearGradient3698"
       gradientUnits="userSpaceOnUse"
       cy="7.8687"
       cx="60.239"
       r="2.7679" />
    <linearGradient
       id="linearGradient3353"
       y2="5.9877"
       gradientUnits="userSpaceOnUse"
       y1="90"
       gradientTransform="matrix(1.0565,0,0,1.0565,-2.8393,953.27)"
       x2="48"
       x1="48">
      <stop
         id="stop2843"
         stop-color="#f0bf39"
         offset="0" />
      <stop
         id="stop2845"
         stop-color="#f8e699"
         offset="1" />
    </linearGradient>
    <clipPath
       id="clipPath9032"
       clipPathUnits="userSpaceOnUse">
      <path
         id="path9034"
         d="m17.469 961.77c-6.668 0-12.031 5.3945-12.031 12.062v61.031c0 6.668 5.3633 12.031 12.031 12.031h61.031c6.668 0 12.031-5.3633 12.031-12.031v-61.031c0-6.668-5.3633-12.062-12.031-12.062h-61.031z"
         fill="#f2f2f2" />
    </clipPath>
    <linearGradient
       id="linearGradient3320-7"
       y2="35.428"
       gradientUnits="userSpaceOnUse"
       x2="24.925"
       y1="14.859"
       x1="24.925">
      <stop
         id="stop3796-1-7"
         stop-color="#141414"
         offset="0" />
      <stop
         id="stop3798-4-1"
         stop-color="#333"
         offset="1" />
    </linearGradient>
    <radialGradient
       id="radialGradient3322-6"
       gradientUnits="userSpaceOnUse"
       cy="19.82"
       cx="-25.441"
       r="7.8559">
      <stop
         id="stop3822-1-4"
         stop-color="#2c74cd"
         offset="0" />
      <stop
         id="stop3824-8-7"
         stop-color="#141414"
         offset="1" />
    </radialGradient>
    <radialGradient
       id="radialGradient3324-0"
       gradientUnits="userSpaceOnUse"
       cy="19.82"
       cx="-25.441"
       r="7.8559">
      <stop
         id="stop3836-6-6"
         stop-color="#2c74cd"
         offset="0" />
      <stop
         id="stop3838-5-8"
         stop-color="#2c74cd"
         stop-opacity=".098039"
         offset="1" />
    </radialGradient>
    <radialGradient
       id="radialGradient3326-7"
       xlink:href="#linearGradient3804-0-3"
       gradientUnits="userSpaceOnUse"
       cy="19.82"
       cx="-25.441"
       r="7.8559" />
    <linearGradient
       id="linearGradient3804-0-3">
      <stop
         id="stop3806-6-8"
         stop-color="#fff"
         offset="0" />
      <stop
         id="stop3808-2-7"
         stop-color="#fff"
         stop-opacity="0"
         offset="1" />
    </linearGradient>
    <linearGradient
       id="linearGradient3165-8"
       y2="20.623"
       xlink:href="#linearGradient3804-0-3"
       gradientUnits="userSpaceOnUse"
       y1="27.69"
       gradientTransform="matrix(0.63647,0,0,0.63647,39.18,1015.6)"
       x2="-24.567"
       x1="-17.501" />
  </defs>
  <metadata
     id="metadata7">
    <rdf:RDF>
      <cc:Work
         rdf:about="">
        <dc:format>image/svg+xml</dc:format>
        <dc:type
           rdf:resource="http://purl.org/dc/dcmitype/StillImage" />
        <dc:title />
      </cc:Work>
    </rdf:RDF>
  </metadata>
  <rect
     style="fill-opacity:0.01960802"
     x="2.9998"
     y="2.9899757"
     width="89.977997"
     height="89.977997"
     ry="12.724"
     id="rect5263-0" />
  <rect
     style="fill-opacity:0.03921599"
     x="3.6078"
     y="3.6000221"
     width="88.762001"
     height="88.762001"
     ry="12.552"
     id="rect5261-6" />
  <rect
     style="fill-opacity:0.07843101"
     x="4.2157001"
     y="4.2100072"
     width="87.545998"
     height="87.545998"
     ry="12.38"
     id="rect5259-9" />
  <rect
     style="fill-opacity:0.15685999"
     x="4.8237"
     y="4.8199925"
     width="86.330002"
     height="86.330002"
     ry="12.208"
     id="rect5257-5" />
  <path
     style="fill:#1a1a1a"
     inkscape:connector-curvature="0"
     d="m 17.469,5.4062 c -6.668,0 -12.032,5.3948 -12.032,12.063 l 5e-4,61.031 c 0,6.668 5.3635,12.031 12.032,12.031 l 61.03,0 c 6.668,0 12.031,-5.363 12.031,-12.031 l 0,-61.031 c 0,-6.668 -5.363,-12.063 -12.031,-12.063 l -61.031,2e-4 z"
     id="rect2419" />
  <path
     style="fill-opacity:0.23222997"
     inkscape:connector-curvature="0"
     d="m 5.4316,73.44 0,5.0663 c 0,6.668 5.3645,12.032 12.032,12.032 l 61.049,0 c 6.668,0 12.032,-5.3645 12.032,-12.032 l 0,-5.0663 c 0,6.6681 -5.3645,12.032 -12.032,12.032 l -61.049,0 c -6.668,0 -12.032,-5.3643 -12.032,-12.032 z"
     id="rect5265-0" />
  <path
     style="fill-opacity:0.18483001"
     inkscape:connector-curvature="0"
     d="m 5.4316,77.54 0,1.0133 c 0,6.668 5.3645,12.032 12.032,12.032 l 61.049,0 c 6.668,0 12.032,-5.3645 12.032,-12.032 l 0,-1.0133 c 0,6.6681 -5.3645,12.032 -12.032,12.032 l -61.049,0 c -6.668,0 -12.032,-5.3644 -12.032,-12.032 z"
     id="path5252-0" />
  <path
     style="opacity:0.79920002;fill:#fff6d5;fill-opacity:0.83019002"
     inkscape:connector-curvature="0"
     d="m 78.72095,46.525388 a 30.781975,30.781975 0 0 1 -61.56395,0 30.781975,30.781975 0 1 1 61.56395,0 z"
     id="path9875" />
  <path
     style="opacity:0.79920002;fill:#808080;fill-opacity:0.83019002"
     inkscape:connector-curvature="0"
     d="m 78.72095,44.350862 a 30.781975,30.781975 0 0 1 -61.56395,0 30.781975,30.781975 0 1 1 61.56395,0 z"
     id="path9105" />
  <g
     transform="matrix(2.2905002,0,0,2.2905002,-4.6235761,-2308.723)"
     id="g3308">
    <path
       style="fill:#232323"
       inkscape:connector-curvature="0"
       transform="matrix(1.2526,0,0,1.2526,-8.4298,996.75)"
       d="m 35.459,25.081 c 0,5.7318 -4.6466,10.378 -10.378,10.378 -5.7318,0 -10.378,-4.6466 -10.378,-10.378 0,-5.7318 4.6466,-10.378 10.378,-10.378 5.7318,0 10.378,4.6466 10.378,10.378 z"
       id="path3923-1" />
    <path
       style="fill:#141414"
       inkscape:connector-curvature="0"
       transform="matrix(1.1563,0,0,1.1563,-6.0131,999.17)"
       d="m 35.459,25.081 c 0,5.7318 -4.6466,10.378 -10.378,10.378 -5.7318,0 -10.378,-4.6466 -10.378,-10.378 0,-5.7318 4.6466,-10.378 10.378,-10.378 5.7318,0 10.378,4.6466 10.378,10.378 z"
       id="path3906-6" />
    <path
       inkscape:connector-curvature="0"
       style="fill:url(#linearGradient3320-7)"
       transform="matrix(0.96354,0,0,0.96354,-1.1798,1004)"
       d="m 35.459,25.081 c 0,5.7318 -4.6466,10.378 -10.378,10.378 -5.7318,0 -10.378,-4.6466 -10.378,-10.378 0,-5.7318 4.6466,-10.378 10.378,-10.378 5.7318,0 10.378,4.6466 10.378,10.378 z"
       id="path3792-2" />
    <path
       inkscape:connector-curvature="0"
       style="fill:url(#radialGradient3322-6)"
       transform="matrix(1.1456,0,0,1.1456,52.134,1005.5)"
       d="m -17.586,19.82 c 0,4.3387 -3.5172,7.8559 -7.8559,7.8559 -4.3387,0 -7.8559,-3.5172 -7.8559,-7.8559 0,-4.3387 3.5172,-7.8559 7.8559,-7.8559 4.3387,0 7.8559,3.5172 7.8559,7.8559 z"
       id="path3816-5" />
    <path
       inkscape:connector-curvature="0"
       transform="matrix(0.50917,0,0,0.50917,35.941,1018.1)"
       d="m -17.586,19.82 c 0,4.3387 -3.5172,7.8559 -7.8559,7.8559 -4.3387,0 -7.8559,-3.5172 -7.8559,-7.8559 0,-4.3387 3.5172,-7.8559 7.8559,-7.8559 4.3387,0 7.8559,3.5172 7.8559,7.8559 z"
       id="path3828-6" />
    <path
       inkscape:connector-curvature="0"
       style="fill:url(#radialGradient3324-0)"
       transform="matrix(0.38188,0,0,0.38188,32.702,1020.6)"
       d="m -17.586,19.82 c 0,4.3387 -3.5172,7.8559 -7.8559,7.8559 -4.3387,0 -7.8559,-3.5172 -7.8559,-7.8559 0,-4.3387 3.5172,-7.8559 7.8559,-7.8559 4.3387,0 7.8559,3.5172 7.8559,7.8559 z"
       id="path3832-2" />
    <path
       inkscape:connector-curvature="0"
       style="opacity:0.2;fill:url(#radialGradient3326-7)"
       transform="matrix(0.38188,0,0,0.38188,32.702,1020.6)"
       d="m -17.586,19.82 c 0,4.3387 -3.5172,7.8559 -7.8559,7.8559 -4.3387,0 -7.8559,-3.5172 -7.8559,-7.8559 0,-4.3387 3.5172,-7.8559 7.8559,-7.8559 4.3387,0 7.8559,3.5172 7.8559,7.8559 z"
       id="path3842-2" />
    <path
       style="opacity:0.4;fill:#ffffff"
       inkscape:connector-curvature="0"
       d="m 18.643,1025.7 c -0.14554,0.2521 -0.2442,0.5077 -0.34375,0.7813 l 0.9375,0.3437 c 0.07964,-0.2188 0.16482,-0.4233 0.28125,-0.625 l -0.875,-0.5 z"
       id="path3881-4" />
    <path
       style="opacity:0.3;fill:#ffffff"
       inkscape:connector-curvature="0"
       d="m 21.268,1023.5 c -0.82475,0.3002 -1.5608,0.7964 -2.125,1.4688 l 0.78125,0.6562 c 0.45133,-0.5379 1.0277,-0.9474 1.6875,-1.1875 L 21.268,1023.5 Z"
       id="path3887-9" />
    <path
       inkscape:connector-curvature="0"
       style="opacity:0.4;fill:url(#linearGradient3165-8)"
       d="m 27.987,1028.2 c 0,2.7614 -2.2386,5 -5,5 -0.38304,0 -0.38739,-0.022 -0.38739,-0.3153 0,-1.3807 0.55964,-2.6307 1.4645,-3.5356 0.90482,-0.9048 2.1548,-1.4644 3.5355,-1.4644 0.29296,0 0.38739,-0.014 0.38739,0.3153 z"
       id="path3893-1" />
  </g>
</svg>
