<?xml version="1.0" encoding="UTF-8" standalone="no"?>
<!-- Created with Inkscape (http://www.inkscape.org/) -->

<svg
   xmlns:dc="http://purl.org/dc/elements/1.1/"
   xmlns:cc="http://creativecommons.org/ns#"
   xmlns:rdf="http://www.w3.org/1999/02/22-rdf-syntax-ns#"
   xmlns:svg="http://www.w3.org/2000/svg"
   xmlns="http://www.w3.org/2000/svg"
   xmlns:xlink="http://www.w3.org/1999/xlink"
   xmlns:sodipodi="http://sodipodi.sourceforge.net/DTD/sodipodi-0.dtd"
   xmlns:inkscape="http://www.inkscape.org/namespaces/inkscape"
   id="svg2"
   height="96"
   width="96"
   version="1.1"
   inkscape:version="0.91 r"
   sodipodi:docname="drive-removable-media-scsi.svg">
  <sodipodi:namedview
     pagecolor="#ffffff"
     bordercolor="#666666"
     borderopacity="1"
     objecttolerance="10"
     gridtolerance="10"
     guidetolerance="10"
     inkscape:pageopacity="0"
     inkscape:pageshadow="2"
     inkscape:window-width="1366"
     inkscape:window-height="717"
     id="namedview48"
     showgrid="false"
     inkscape:zoom="2.4583333"
     inkscape:cx="80.39316"
     inkscape:cy="80.963722"
     inkscape:window-x="0"
     inkscape:window-y="0"
     inkscape:window-maximized="1"
     inkscape:current-layer="svg2"
     showguides="false">
    <sodipodi:guide
       position="-25.024389,60.547516"
       orientation="-0.70710678,0.70710678"
       id="guide4184" />
  </sodipodi:namedview>
  <defs
     id="defs4">
    <filter
       id="filter4180"
       height="3.8298"
       width="1.2289"
       color-interpolation-filters="sRGB"
       y="-1.4149"
       x="-.11445">
      <feGaussianBlur
         id="feGaussianBlur4182"
         stdDeviation="3.5372897" />
    </filter>
    <radialGradient
       id="radialGradient4509"
       gradientUnits="userSpaceOnUse"
       cy="84"
       cx="48"
       gradientTransform="matrix(1.0667,0,0,0.066667,-2.97996,76.71)"
       r="30"
       fx="48"
       fy="84"
       spreadMethod="pad">
      <stop
         id="stop3315-4"
         stop-color="#4dbeff"
         offset="0" />
      <stop
         id="stop4186"
         stop-color="#1379ff"
         stop-opacity=".65041"
         offset=".67213" />
      <stop
         id="stop3317-7"
         stop-color="#06f"
         stop-opacity="0"
         offset="1" />
    </radialGradient>
    <linearGradient
       id="linearGradient5310"
       y2="78"
       gradientUnits="userSpaceOnUse"
       x2="46"
       gradientTransform="matrix(1.1052,0,0,1.2929,-4.4996001,-5.5543797)"
       y1="6"
       x1="46">
      <stop
         id="stop4329"
         stop-color="#f0f0f0"
         offset="0" />
      <stop
         id="stop4331"
         stop-color="#b4b4b4"
         offset="1" />
    </linearGradient>
    <filter
       id="filter3813"
       height="1.3968"
       width="1.372"
       color-interpolation-filters="sRGB"
       y="-.19840"
       x="-.186">
      <feGaussianBlur
         id="feGaussianBlur3815"
         stdDeviation="2.48" />
    </filter>
    <linearGradient
       id="linearGradient3811"
       x1="46"
       gradientUnits="userSpaceOnUse"
       y1="6"
       gradientTransform="translate(100)"
       x2="46"
       y2="78">
      <stop
         id="stop4329-6"
         stop-color="#f0f0f0"
         offset="0" />
      <stop
         id="stop4331-5"
         stop-color="#b4b4b4"
         offset="1" />
    </linearGradient>
    <clipPath
       id="clipPath3807">
      <path
         id="path3809"
         d="m112 6c-3.324 0-6 2.676-6 6v58c0 3.324 2.676 6 6 6h72c3.324 0 6-2.676 6-6v-58c0-3.324-2.676-6-6-6h-72zm36 18 16 18h-32l16-18zm-16 22h32v8h-32v-8z"
         fill="url(#linearGradient3811)" />
    </clipPath>
    <filter
       id="filter3174"
       color-interpolation-filters="sRGB">
      <feGaussianBlur
         id="feGaussianBlur3176"
         stdDeviation="1.71" />
    </filter>
    <linearGradient
       id="ButtonShadow-7"
       x1="45.448"
       gradientUnits="userSpaceOnUse"
       y1="92.54"
       gradientTransform="scale(1.0059,0.99417)"
       x2="45.448"
       y2="7.0165">
      <stop
         id="stop3750-7"
         offset="0" />
      <stop
         id="stop3752-1"
         stop-opacity=".58824"
         offset="1" />
    </linearGradient>
    <linearGradient
       id="linearGradient4830"
       y2="24"
       gradientUnits="userSpaceOnUse"
       x2="48"
       gradientTransform="translate(0,2)"
       y1="51.959"
       x1="48">
      <stop
         id="stop3769-1"
         stop-color="#4d4d4d"
         stop-opacity=".70732"
         offset="0" />
      <stop
         id="stop3771-8"
         stop-color="#4d4d4d"
         stop-opacity=".25203"
         offset="1"
         style="stop-color:#4d4d4d;stop-opacity:0" />
    </linearGradient>
    <linearGradient
       x1="105.55817"
       y1="62.97105"
       x2="24.668499"
       y2="62.97105"
       id="linearGradient3816"
       xlink:href="#linearGradient3767"
       gradientUnits="userSpaceOnUse"
       gradientTransform="matrix(0,0.6766374,-0.847943,0,101.39586,-4.6916286)" />
    <linearGradient
       id="linearGradient3767">
      <stop
         id="stop3769"
         style="stop-color:#4d4d4d;stop-opacity:0.70731705"
         offset="0" />
      <stop
         id="stop3771"
         style="stop-color:#4d4d4d;stop-opacity:0.25203252"
         offset="1" />
    </linearGradient>
    <clipPath
       id="clipPath3520">
      <path
         d="m 9.9375,33.6875 c -3.2232728,0 -5.84375,1.784 -5.84375,4 l 0,67.71875 c 0,2.216 2.6204767,4 5.84375,4 l 77.625,0 c 3.223273,0 5.843753,-1.784 5.84375,-4 l 0,-67.71875 c 0,-2.216 -2.62048,-4 -5.84375,-4 l -77.625,0 z M 47.90625,42 c 3.431866,0 6.21875,2.198129 6.21875,4.9375 0,2.181733 -1.764187,4.054067 -4.21875,4.71875 l 0,3.5625 c 0.01488,0.497551 0.298693,1.06729 0.6875,1.46875 0.09978,0.07533 8.192442,6.200116 8.21875,6.21875 0.0084,0.0065 0.02327,-0.0068 0.03125,0 0.02396,0.01835 0.04599,0.04881 0.0625,0.0625 0.0042,0.0036 0.02447,-0.006 0.03125,0 0.0068,0.006 0.03104,0.06226 0.03125,0.0625 2.6e-5,2.9e-5 0.06248,0.06248 0.0625,0.0625 0,0 10e-7,0.03125 0,0.03125 0.01173,0.01044 0.01956,0.02072 0.03125,0.03125 1.096118,0.988597 2.000001,2.355113 2,3.8125 l 0,4.09375 C 62.785851,71.690189 64,73.086119 64,74.71875 c 0,2.220106 -2.20417,4.031251 -4.9375,4.03125 -2.733338,0 -4.96875,-1.811144 -4.96875,-4.03125 0,-1.655395 1.236126,-3.071778 3,-3.6875 -2.35e-4,-1.047382 -10e-7,-2.379418 0,-4.09375 -0.01444,-0.497879 -0.297358,-1.034548 -0.6875,-1.4375 l -6.5,-4.9375 0,28.125 4.46875,0 L 48,98 l -6.375,-9.3125 4.3125,0 0,-21.96875 -6.53125,4.9375 c -0.394904,0.406057 -0.673191,0.908993 -0.6875,1.40625 0,2.101393 0,2.980142 0,3.8125 l 2.8125,0 0,7.90625 -9.53125,0 0,-7.90625 2.78125,0 0,-3.75 c 0,-1.44207 0.88924,-2.794493 1.96875,-3.78125 0,0 0.0213,-0.01152 0.03125,-0.03125 0.0043,-0.0039 -0.0044,-0.02734 0,-0.03125 0,0 0.03125,-0.03125 0.03125,-0.03125 1.5e-5,-2.1e-5 0.03122,-0.03122 0.03125,-0.03125 2.03e-4,-2.43e-4 0.05499,-0.08694 0.0625,-0.09375 0.0047,-0.004 -0.0046,-0.02742 0,-0.03125 0.01531,-0.01278 0.07133,-0.01367 0.09375,-0.03125 0.0079,-0.01061 0.02312,-0.02513 0.03125,-0.03125 0.01626,-0.01224 0.03151,-0.0079 0.0625,-0.03125 0.06197,-0.04673 0.166883,-0.13246 0.28125,-0.21875 0.228732,-0.172571 0.516577,-0.424672 0.90625,-0.71875 0.779348,-0.588157 1.839188,-1.343188 2.875,-2.125 2.046308,-1.544518 4.044131,-3.087545 4.09375,-3.125 0.392715,-0.403164 0.671626,-0.909306 0.6875,-1.40625 l 0,-6.15625 c -0.003,-0.04389 -4.59e-4,-0.02213 0,-0.03125 4.59e-4,-0.0091 -10e-7,-0.03827 0,-0.03125 l 0,-3.53125 C 43.481518,50.991635 41.687502,49.119667 41.6875,46.9375 41.6875,44.198126 44.473344,42 47.90625,42 Z"
         inkscape:connector-curvature="0"
         id="path3522"
         style="fill:#ffffff;fill-opacity:1;fill-rule:nonzero;stroke:none" />
    </clipPath>
    <filter
       style="color-interpolation-filters:sRGB"
       x="-0.24171428"
       y="-0.14338984"
       width="1.4834286"
       height="1.2867796"
       id="filter3536">
      <feGaussianBlur
         id="feGaussianBlur3538"
         stdDeviation="3.525" />
    </filter>
    <linearGradient
       inkscape:collect="always"
       xlink:href="#ButtonShadow-7"
       id="linearGradient4196"
       x1="2.6412539"
       y1="82.309998"
       x2="93.799828"
       y2="82.309998"
       gradientUnits="userSpaceOnUse" />
    <radialGradient
       inkscape:collect="always"
       xlink:href="#linearGradient4830"
       id="radialGradient4200"
       cx="48.220039"
       cy="82.309998"
       fx="48.220039"
       fy="82.309998"
       r="32"
       gradientTransform="matrix(1,0,0,0.0625,0,77.165623)"
       gradientUnits="userSpaceOnUse" />
    <linearGradient
       x1="52.92857"
       y1="60"
       x2="52.92857"
       y2="19.986593"
       id="linearGradient3381"
       xlink:href="#linearGradient3767"
       gradientUnits="userSpaceOnUse"
       gradientTransform="translate(0,2.5000001e-6)" />
    <clipPath
       id="clipPath3403">
      <path
         d="m -72.6875,6.90625 0,67.5 82.34375,0 0,-67.5 -82.34375,0 z M -32,20 c 13.248,0 24,8.96 24,20 0,11.040001 -10.752,20.000001 -24,20 -13.248,0 -24,-8.959998 -24,-20 0,-11.040001 10.752,-20 24,-20 z m 5.71875,2.25 -2.84375,8.90625 c 1.884334,0.423339 3.565705,1.226629 4.90625,2.34375 L -16.375,27 c -2.867015,-2.389179 -5.989834,-3.875501 -9.90625,-4.75 z M -32,32.5 c -4.967999,0 -8.999999,3.360001 -9,7.5 0,4.139999 4.032001,7.500001 9,7.5 4.967999,0 8.999999,-3.36 9,-7.5 0,-4.139999 -4.032,-7.500001 -9,-7.5 z m 0,2.5 c 3.311999,0 6,2.240001 6,5 -1e-6,2.759999 -2.688,5.000001 -6,5 -3.312,-10e-7 -6,-2.239999 -6,-5 0,-2.76 2.688,-5.000001 6,-5 z m 0,1.65625 c -2.208,0 -3.999999,1.503751 -4,3.34375 0,1.84 1.792,3.343748 4,3.34375 2.208,0 4,-1.50375 4,-3.34375 0,-1.84 -1.792,-3.343751 -4,-3.34375 z M -39.78125,46.5 -47.5625,53 c 2.867015,2.389177 5.989835,3.8755 9.90625,4.75 l 2.84375,-8.90625 C -36.712573,48.426166 -38.398383,47.621706 -39.75,46.5 l -0.03125,0 z"
         inkscape:connector-curvature="0"
         id="path3405"
         style="fill:#ffffff;fill-opacity:1;fill-rule:nonzero;stroke:none" />
    </clipPath>
    <filter
       style="color-interpolation-filters:sRGB"
       x="-0.1104"
       y="-0.13142857"
       width="1.2208"
       height="1.2628571"
       id="filter3407">
      <feGaussianBlur
         id="feGaussianBlur3409"
         stdDeviation="2.3" />
    </filter>
    <clipPath
       id="clipPath3520-2">
      <path
         d="m 9.9375,33.6875 c -3.2232728,0 -5.84375,1.784 -5.84375,4 l 0,67.71875 c 0,2.216 2.6204767,4 5.84375,4 l 77.625,0 c 3.223273,0 5.843753,-1.784 5.84375,-4 l 0,-67.71875 c 0,-2.216 -2.62048,-4 -5.84375,-4 l -77.625,0 z M 47.90625,42 c 3.431866,0 6.21875,2.198129 6.21875,4.9375 0,2.181733 -1.764187,4.054067 -4.21875,4.71875 l 0,3.5625 c 0.01488,0.497551 0.298693,1.06729 0.6875,1.46875 0.09978,0.07533 8.192442,6.200116 8.21875,6.21875 0.0084,0.0065 0.02327,-0.0068 0.03125,0 0.02396,0.01835 0.04599,0.04881 0.0625,0.0625 0.0042,0.0036 0.02447,-0.006 0.03125,0 0.0068,0.006 0.03104,0.06226 0.03125,0.0625 2.6e-5,2.9e-5 0.06248,0.06248 0.0625,0.0625 0,0 10e-7,0.03125 0,0.03125 0.01173,0.01044 0.01956,0.02072 0.03125,0.03125 1.096118,0.988597 2.000001,2.355113 2,3.8125 l 0,4.09375 C 62.785851,71.690189 64,73.086119 64,74.71875 c 0,2.220106 -2.20417,4.031251 -4.9375,4.03125 -2.733338,0 -4.96875,-1.811144 -4.96875,-4.03125 0,-1.655395 1.236126,-3.071778 3,-3.6875 -2.35e-4,-1.047382 -10e-7,-2.379418 0,-4.09375 -0.01444,-0.497879 -0.297358,-1.034548 -0.6875,-1.4375 l -6.5,-4.9375 0,28.125 4.46875,0 L 48,98 l -6.375,-9.3125 4.3125,0 0,-21.96875 -6.53125,4.9375 c -0.394904,0.406057 -0.673191,0.908993 -0.6875,1.40625 0,2.101393 0,2.980142 0,3.8125 l 2.8125,0 0,7.90625 -9.53125,0 0,-7.90625 2.78125,0 0,-3.75 c 0,-1.44207 0.88924,-2.794493 1.96875,-3.78125 0,0 0.0213,-0.01152 0.03125,-0.03125 0.0043,-0.0039 -0.0044,-0.02734 0,-0.03125 0,0 0.03125,-0.03125 0.03125,-0.03125 1.5e-5,-2.1e-5 0.03122,-0.03122 0.03125,-0.03125 2.03e-4,-2.43e-4 0.05499,-0.08694 0.0625,-0.09375 0.0047,-0.004 -0.0046,-0.02742 0,-0.03125 0.01531,-0.01278 0.07133,-0.01367 0.09375,-0.03125 0.0079,-0.01061 0.02312,-0.02513 0.03125,-0.03125 0.01626,-0.01224 0.03151,-0.0079 0.0625,-0.03125 0.06197,-0.04673 0.166883,-0.13246 0.28125,-0.21875 0.228732,-0.172571 0.516577,-0.424672 0.90625,-0.71875 0.779348,-0.588157 1.839188,-1.343188 2.875,-2.125 2.046308,-1.544518 4.044131,-3.087545 4.09375,-3.125 0.392715,-0.403164 0.671626,-0.909306 0.6875,-1.40625 l 0,-6.15625 c -0.003,-0.04389 -4.59e-4,-0.02213 0,-0.03125 4.59e-4,-0.0091 -10e-7,-0.03827 0,-0.03125 l 0,-3.53125 C 43.481518,50.991635 41.687502,49.119667 41.6875,46.9375 41.6875,44.198126 44.473344,42 47.90625,42 Z"
         inkscape:connector-curvature="0"
         id="path3522-8"
         style="fill:#ffffff;fill-opacity:1;fill-rule:nonzero;stroke:none" />
    </clipPath>
    <filter
       style="color-interpolation-filters:sRGB"
       x="-0.24171428"
       y="-0.14338984"
       width="1.4834286"
       height="1.2867796"
       id="filter3536-7">
      <feGaussianBlur
         id="feGaussianBlur3538-5"
         stdDeviation="3.525" />
    </filter>
    <clipPath
       id="clipPath3807-3">
      <path
         d="m 112,6 c -3.324,0 -6,2.676 -6,6 l 0,58 c 0,3.324 2.676,6 6,6 l 72,0 c 3.324,0 6,-2.676 6,-6 l 0,-58 c 0,-3.324 -2.676,-6 -6,-6 l -72,0 z m 36,18 16,18 -32,0 16,-18 z m -16,22 32,0 0,8 -32,0 0,-8 z"
         inkscape:connector-curvature="0"
         id="path3809-5"
         style="display:inline;fill:url(#linearGradient3811);fill-opacity:1;fill-rule:nonzero;stroke:none" />
    </clipPath>
    <filter
       style="color-interpolation-filters:sRGB"
       x="-0.186"
       y="-0.19840001"
       width="1.372"
       height="1.3968"
       id="filter3813-7">
      <feGaussianBlur
         id="feGaussianBlur3815-7"
         stdDeviation="2.48" />
    </filter>
    <linearGradient
       x1="48"
       y1="51.959389"
       x2="48"
       y2="24"
       id="linearGradient3761"
       xlink:href="#linearGradient3767"
       gradientUnits="userSpaceOnUse"
       gradientTransform="translate(0,2)" />
    <linearGradient
       x1="85.000008"
       y1="65.999985"
       x2="16.919882"
       y2="65.999985"
       id="linearGradient3421"
       xlink:href="#linearGradient3767"
       gradientUnits="userSpaceOnUse"
       gradientTransform="matrix(0,0.7058823,-0.8125,0,101.62499,4.0000002)" />
    <clipPath
       id="clipPath3532">
      <path
         d="m 12,-14 c -3.324,0 -6,2.676 -6,6 l 0,58 c 0,3.324 2.676,6 6,6 l 72,0 c 3.324,0 6,-2.676 6,-6 l 0,-58 c 0,-3.324 -2.676,-6 -6,-6 l -72,0 z M 65.28125,-4 74,3.5625 63.0625,12.90625 54.34375,5.4375 65.28125,-4 Z m -33.3125,0.375 3.34375,2.8125 -10,8.65625 L 22,4.96875 31.96875,-3.625 Z M 38.625,2.0625 41.9375,4.90625 31.96875,13.5 28.65625,10.65625 38.625,2.0625 Z m 9.21875,7.3125 c 5.900686,-10e-7 10.6875,4.133876 10.6875,9.21875 -2e-6,5.084874 -4.78613,9.1875 -10.6875,9.1875 -5.901368,-5.9e-4 -10.6875,-4.103216 -10.6875,-9.1875 0,-5.084285 4.786131,-9.21875 10.6875,-9.21875 z m 0,4.0625 c -3.304793,-2e-6 -6,2.30988 -6,5.15625 -6.84e-4,2.848144 2.695206,5.15625 6,5.15625 3.306164,-1e-6 5.96875,-2.308106 5.96875,-5.15625 -2e-6,-2.84637 -2.662587,-5.15625 -5.96875,-5.15625 z m -7.0625,18.40625 14.125,0 0,4.0625 -14.125,0 0,-4.0625 z m 0,8.09375 14.125,0 0,4.0625 -14.125,0 0,-4.0625 z"
         inkscape:connector-curvature="0"
         id="path3534"
         style="display:inline;fill:#ffffff;fill-opacity:1;fill-rule:nonzero;stroke:none" />
    </clipPath>
    <filter
       style="color-interpolation-filters:sRGB"
       x="-0.11555556"
       y="-0.1248"
       width="1.231111"
       height="1.2496001"
       id="filter3548">
      <feGaussianBlur
         id="feGaussianBlur3550"
         stdDeviation="2.6" />
    </filter>
    <clipPath
       id="clipPath3824">
      <path
         d="m 16,12 c -2.216,0 -4,1.784 -4,4 l 0,52 c 0,2.216 1.784,4 4,4 l 64,0 c 2.216,0 4,-1.784 4,-4 l 0,-52 c 0,-2.216 -1.784,-4 -4,-4 l -64,0 z m 32,8 2.65625,2.25 18.6875,15.625 L 72,40.125 69.34375,42.34375 55.375,54.0625 l 0,-8.875 L 61.40625,40.125 48,28.875 l -13.40625,11.25 6.03125,5.0625 0,8.875 L 26.65625,42.34375 24,40.125 26.65625,37.875 45.34375,22.25 48,20 Z m -3.75,20.03125 7.5,0 0,21.96875 -7.5,0 0,-21.96875 z"
         inkscape:connector-curvature="0"
         id="path3826"
         style="display:inline;fill:#ffffff;fill-opacity:1;fill-rule:nonzero;stroke:none" />
    </clipPath>
    <filter
       style="color-interpolation-filters:sRGB"
       x="-0.22499999"
       y="-0.25714287"
       width="1.45"
       height="1.5142857"
       id="filter3810">
      <feGaussianBlur
         id="feGaussianBlur3812"
         stdDeviation="4.5" />
    </filter>
    <linearGradient
       x1="48"
       y1="62"
       x2="48"
       y2="21.554564"
       id="linearGradient3773"
       xlink:href="#linearGradient3767"
       gradientUnits="userSpaceOnUse"
       gradientTransform="translate(0,-1)" />
    <clipPath
       id="clipPath4114">
      <path
         d="M 12.09375,6 C 8.7143501,6 6,8.7143501 6,12.09375 l 0,67.8125 C 6,83.28565 8.7143501,86 12.09375,86 l 71.8125,0 C 87.28565,86 90,83.28565 90,79.90625 l 0,-67.8125 C 90,8.7143501 87.28565,6 83.90625,6 l -71.8125,0 z m 32.875,18 6.0625,0 c 0.865802,0 1.5625,0.668199 1.5625,1.46875 l 0,2.8125 C 54.141869,28.656231 55.646552,29.221906 57,29.9375 l 2.1875,-2 c 0.622678,-0.566075 1.606531,-0.587802 2.21875,-0.03125 l 4.3125,3.90625 c 0.61221,0.556562 0.591371,1.433924 -0.03125,2 l -2.21875,2.03125 c 0.787147,1.230407 1.43127,2.56136 1.84375,3.96875 l 3.09375,0 C 69.286845,39.8125 70,40.462899 70,41.25 l 0,5.5 c 0,0.787098 -0.713155,1.4375 -1.59375,1.4375 l -3.09375,0 c -0.412477,1.407388 -1.056603,2.738342 -1.84375,3.96875 l 2.21875,2.03125 c 0.622678,0.566076 0.643525,1.443438 0.03125,2 l -4.3125,3.90625 c -0.61222,0.556561 -1.59607,0.534836 -2.21875,-0.03125 l -2.1875,-2 c -1.353446,0.715594 -2.858132,1.281269 -4.40625,1.65625 l 0,2.8125 C 52.59375,63.331803 51.897053,64 51.03125,64 l -6.0625,0 c -0.86581,0 -1.5625,-0.6682 -1.5625,-1.46875 l 0,-2.8125 C 41.858131,59.343771 40.353446,58.778093 39,58.0625 l -2.1875,2 c -0.311343,0.283039 -0.690843,0.434397 -1.09375,0.4375 -0.402908,0.0031 -0.818895,-0.127971 -1.125,-0.40625 l -4.3125,-3.90625 c -0.612211,-0.556562 -0.591361,-1.433924 0.03125,-2 l 2.21875,-2.03125 C 31.744104,50.925842 31.099987,49.594888 30.6875,48.1875 l -3.09375,0 C 26.713146,48.1875 26,47.537099 26,46.75 l 0,-5.5 c 0,-0.787099 0.713146,-1.4375 1.59375,-1.4375 l 3.09375,0 c 0.412487,-1.40739 1.056604,-2.738343 1.84375,-3.96875 L 30.3125,33.8125 c -0.62268,-0.566076 -0.643528,-1.443438 -0.03125,-2 l 4.3125,-3.90625 c 0.61221,-0.556561 1.596073,-0.534834 2.21875,0.03125 l 2.1875,2 c 1.353446,-0.715594 2.858131,-1.281269 4.40625,-1.65625 l 0,-2.8125 C 43.40625,24.668201 44.10294,24 44.96875,24 Z M 48,37.96875 c -3.67143,0 -6.65625,2.693576 -6.65625,6.03125 0,3.337676 2.98482,6.03125 6.65625,6.03125 3.671436,0 6.65625,-2.693574 6.65625,-6.03125 0,-3.337674 -2.984814,-6.03125 -6.65625,-6.03125 z"
         inkscape:connector-curvature="0"
         id="path4116"
         style="display:inline;fill:#ff00ff;fill-opacity:1;fill-rule:nonzero;stroke:none" />
    </clipPath>
    <filter
       style="color-interpolation-filters:sRGB"
       x="-0.2290909"
       y="-0.252"
       width="1.4581819"
       height="1.5039999"
       id="filter4118">
      <feGaussianBlur
         id="feGaussianBlur4120"
         stdDeviation="4.2000002" />
    </filter>
    <linearGradient
       x1="20.758585"
       y1="1"
       x2="20.758585"
       y2="45.017357"
       id="linearGradient3256"
       xlink:href="#linearGradient3767"
       gradientUnits="userSpaceOnUse"
       gradientTransform="matrix(1.0232529,0,0,-0.93023283,23.441935,63.395351)" />
  </defs>
  <metadata
     id="metadata7">
    <rdf:RDF>
      <cc:Work
         rdf:about="">
        <dc:format>image/svg+xml</dc:format>
        <dc:type
           rdf:resource="http://purl.org/dc/dcmitype/StillImage" />
        <dc:title></dc:title>
      </cc:Work>
    </rdf:RDF>
  </metadata>
  <rect
     style="fill-opacity:0.01960802"
     x="3.3534"
     y="2.9899757"
     width="89.624001"
     height="89.977997"
     ry="12.724"
     id="rect5263-0" />
  <rect
     style="fill-opacity:0.03921599"
     x="3.9589"
     y="3.6000221"
     width="88.413002"
     height="88.762001"
     ry="12.552"
     id="rect5261-6" />
  <rect
     style="fill-opacity:0.07843101"
     x="4.5644999"
     y="4.2100072"
     width="87.202003"
     height="87.545998"
     ry="12.38"
     id="rect5259-9" />
  <rect
     style="fill-opacity:0.15685999"
     x="5.1701002"
     y="4.8199925"
     width="85.990997"
     height="86.330002"
     ry="12.208"
     id="rect5257-5" />
  <path
     inkscape:connector-curvature="0"
     style="fill:url(#linearGradient5310)"
     d="m 17.750001,4.9994203 c -6.642,0 -11.9690011,5.3947997 -11.9690011,12.0629997 l 2e-4,61.031 c 0,6.668 5.3268011,12.031 11.9690011,12.031 l 60.812,0 c 6.642,0 11.969,-5.363 11.969,-12.031 l 0,-61.031 c 0,-6.668 -5.327,-12.0629997 -11.969,-12.0629997 l -60.812,2e-4 z"
     id="rect3171" />
  <path
     style="fill-opacity:0.11764999"
     inkscape:connector-curvature="0"
     d="m 5.7756,73.44 0,5.0663 c 0,6.668 5.3434,12.032 11.985,12.032 l 60.809,0 c 6.6418,0 11.985,-5.3645 11.985,-12.032 l 0,-5.0663 c 0,6.6681 -5.3434,12.032 -11.985,12.032 l -60.809,0 c -6.6418,0 -11.985,-5.3643 -11.985,-12.032 z"
     id="rect5265-0" />
  <path
     style="fill-opacity:0.09803898"
     inkscape:connector-curvature="0"
     d="m 5.7756,77.54 0,1.0133 c 0,6.668 5.3434,12.032 11.985,12.032 l 60.809,0 c 6.6418,0 11.985,-5.3645 11.985,-12.032 l 0,-1.0133 c 0,6.6681 -5.3434,12.032 -11.985,12.032 l -60.809,0 c -6.6418,0 -11.985,-5.3644 -11.985,-12.032 z"
     id="path5252-0" />
  <rect
     id="rect3323"
     rx="6.7435002"
     ry="6"
     height="6"
     width="74.179001"
     y="79.309998"
     x="11.131041"
     style="opacity:0.6;fill:url(#linearGradient4196);filter:url(#filter4180);fill-opacity:1.0" />
  <rect
     id="rect3311"
     rx="5.8182001"
     ry="4"
     height="4"
     width="64"
     y="80.309998"
     x="16.220039"
     style="fill:url(#radialGradient4200);fill-opacity:1" />
  <g
     style="display:none"
     transform="translate(197.01,2.66)"
     display="none"
     id="layer2">
    <rect
       style="opacity:0.9;fill:url(#ButtonShadow-7);filter:url(#filter3174)"
       x="5"
       y="7"
       width="86"
       height="85"
       ry="6"
       rx="6"
       id="rect3745" />
  </g>
  <path
     style="fill-opacity:0.31132005"
     inkscape:connector-curvature="0"
     d="m 5.7756,68.04 0,1.0133 c 0,6.668 5.3434,12.032 11.985,12.032 l 60.809,0 c 6.6418,0 11.985,-5.3645 11.985,-12.032 l 0,-1.0133 c 0,6.6681 -5.3434,12.032 -11.985,12.032 l -60.809,0 c -6.6418,0 -11.985,-5.3644 -11.985,-12.032 z"
     id="path4530" />
  <path
     style="fill-opacity:0.21225999"
     inkscape:connector-curvature="0"
     d="m 5.7756,63.74 0,5.0663 c 0,6.668 5.3434,12.032 11.985,12.032 l 60.809,0 c 6.6418,0 11.985,-5.3645 11.985,-12.032 l 0,-5.0663 c 0,6.6681 -5.3434,12.032 -11.985,12.032 l -60.809,0 c -6.6418,0 -11.985,-5.3643 -11.985,-12.032 z"
     id="path4532" />
</svg>
