<?xml version="1.0" encoding="UTF-8" standalone="no"?>
<!-- Created with Inkscape (http://www.inkscape.org/) -->

<svg
   xmlns:dc="http://purl.org/dc/elements/1.1/"
   xmlns:cc="http://creativecommons.org/ns#"
   xmlns:rdf="http://www.w3.org/1999/02/22-rdf-syntax-ns#"
   xmlns:svg="http://www.w3.org/2000/svg"
   xmlns="http://www.w3.org/2000/svg"
   xmlns:xlink="http://www.w3.org/1999/xlink"
   xmlns:sodipodi="http://sodipodi.sourceforge.net/DTD/sodipodi-0.dtd"
   xmlns:inkscape="http://www.inkscape.org/namespaces/inkscape"
   id="svg2"
   height="96"
   width="96"
   version="1.1"
   inkscape:version="0.91 r"
   sodipodi:docname="gnome-display-properties.svg">
  <sodipodi:namedview
     pagecolor="#ffffff"
     bordercolor="#666666"
     borderopacity="1"
     objecttolerance="10"
     gridtolerance="10"
     guidetolerance="10"
     inkscape:pageopacity="0"
     inkscape:pageshadow="2"
     inkscape:window-width="1366"
     inkscape:window-height="717"
     id="namedview51"
     showgrid="false"
     inkscape:zoom="1.7383042"
     inkscape:cx="105.36657"
     inkscape:cy="56.764258"
     inkscape:window-x="0"
     inkscape:window-y="0"
     inkscape:window-maximized="1"
     inkscape:current-layer="svg2" />
  <defs
     id="defs4">
    <linearGradient
       id="linearGradient6400"
       y2="2.9934"
       gradientUnits="userSpaceOnUse"
       x2="47.995"
       y1="84.031"
       x1="47.995">
      <stop
         id="stop6396"
         stop-color="#ccc"
         offset="0" />
      <stop
         id="stop6398"
         stop-color="#dae0de"
         offset="1" />
    </linearGradient>
    <linearGradient
       id="linearGradient3733"
       y2="52.101"
       xlink:href="#linearGradient3715-05"
       gradientUnits="userSpaceOnUse"
       x2="19.942"
       y1="52.101"
       x1="80.711" />
    <linearGradient
       id="linearGradient3715-05">
      <stop
         id="stop3717"
         stop-color="#fff"
         offset="0" />
      <stop
         id="stop3719-3"
         stop-color="#fff"
         stop-opacity="0"
         offset="1" />
    </linearGradient>
    <filter
       id="filter3780"
       height="1.3025"
       width="1.0888"
       color-interpolation-filters="sRGB"
       y="-.15126"
       x="-.044412">
      <feGaussianBlur
         id="feGaussianBlur3782"
         stdDeviation="1.1526305" />
    </filter>
    <filter
       id="filter3776"
       height="1.0908"
       width="1.3035"
       color-interpolation-filters="sRGB"
       y="-.045378"
       x="-.15174">
      <feGaussianBlur
         id="feGaussianBlur3778"
         stdDeviation="1.1526305" />
    </filter>
    <radialGradient
       id="radialGradient4635"
       gradientUnits="userSpaceOnUse"
       cy="-15.871"
       cx="56.066"
       gradientTransform="matrix(-0.0022616,-1.0568,1.3856,0,10.224,1077.8)"
       r="35.938">
      <stop
         id="stop3177-6"
         stop-color="#4490e6"
         offset="0" />
      <stop
         id="stop3179-3"
         stop-color="#103d8f"
         offset="1" />
    </radialGradient>
    <clipPath
       id="clipPath4637"
       clipPathUnits="userSpaceOnUse">
      <rect
         id="rect4639"
         opacity=".75104"
         ry="7.1631"
         height="56"
         width="69.679"
         y="971.67"
         x="-46.872"
         fill="url(#linearGradient4641)" />
    </clipPath>
    <linearGradient
       id="linearGradient4641"
       y2="975.65"
       gradientUnits="userSpaceOnUse"
       x2="3468.4"
       gradientTransform="matrix(.31367 0 0 .31367 -1073 514.25)"
       y1="1636.7"
       x1="3382.6">
      <stop
         id="stop4911"
         stop-color="#1a1a1a"
         offset="0" />
      <stop
         id="stop4913"
         stop-color="#7a7a7a"
         offset="1" />
    </linearGradient>
  </defs>
  <metadata
     id="metadata7">
    <rdf:RDF>
      <cc:Work
         rdf:about="">
        <dc:format>image/svg+xml</dc:format>
        <dc:type
           rdf:resource="http://purl.org/dc/dcmitype/StillImage" />
        <dc:title />
      </cc:Work>
    </rdf:RDF>
  </metadata>
  <rect
     style="fill-opacity:0.01960802"
     x="3.3534"
     y="2.9899757"
     width="89.624001"
     height="89.977997"
     ry="12.724"
     id="rect5263-0" />
  <rect
     style="fill-opacity:0.03921599"
     x="3.9589"
     y="3.6000221"
     width="88.413002"
     height="88.762001"
     ry="12.552"
     id="rect5261-6" />
  <rect
     style="fill-opacity:0.07843101"
     x="4.5644999"
     y="4.2100072"
     width="87.202003"
     height="87.545998"
     ry="12.38"
     id="rect5259-9" />
  <rect
     style="fill-opacity:0.15685999"
     x="5.1701002"
     y="4.8199925"
     width="85.990997"
     height="86.330002"
     ry="12.208"
     id="rect5257-5" />
  <path
     inkscape:connector-curvature="0"
     style="fill:url(#linearGradient6400)"
     d="m 17.75,5.4062 c -6.642,0 -11.969,5.3948 -11.969,12.063 l 2e-4,61.031 c 0,6.668 5.3268,12.031 11.969,12.031 l 60.812,0 c 6.642,0 11.969,-5.363 11.969,-12.031 l 0,-61.031 c 0,-6.668 -5.327,-12.063 -11.969,-12.063 l -60.812,2e-4 z"
     id="rect2419" />
  <path
     style="fill-opacity:0.11764999"
     inkscape:connector-curvature="0"
     d="m 5.7756,73.44 0,5.0663 c 0,6.668 5.3434,12.032 11.985,12.032 l 60.809,0 c 6.6418,0 11.985,-5.3645 11.985,-12.032 l 0,-5.0663 c 0,6.6681 -5.3434,12.032 -11.985,12.032 l -60.809,0 c -6.6418,0 -11.985,-5.3643 -11.985,-12.032 z"
     id="rect5265-0" />
  <path
     style="fill-opacity:0.09803898"
     inkscape:connector-curvature="0"
     d="m 5.7756,77.54 0,1.0133 c 0,6.668 5.3434,12.032 11.985,12.032 l 60.809,0 c 6.6418,0 11.985,-5.3645 11.985,-12.032 l 0,-1.0133 c 0,6.6681 -5.3434,12.032 -11.985,12.032 l -60.809,0 c -6.6418,0 -11.985,-5.3644 -11.985,-12.032 z"
     id="path5252-0" />
  <rect
     style="opacity:0.5;fill:#4d4d4d"
     x="12.232"
     y="12.290025"
     width="71.472"
     height="56.75"
     ry="7.2589998"
     id="rect4891" />
  <rect
     style="fill:#999999"
     x="58.933998"
     y="-79.940048"
     width="17.309"
     height="2.5592999"
     ry="1.2796"
     transform="scale(1,-1)"
     id="rect4935" />
  <rect
     style="fill:#808080"
     x="58.933998"
     y="-79.040024"
     width="17.309"
     height="2.5592999"
     ry="1.2796"
     transform="scale(1,-1)"
     id="rect4939" />
  <g
     transform="translate(60,-956.36)"
     clip-path="url(#clipPath4637)"
     id="g4632">
    <path
       inkscape:connector-curvature="0"
       style="fill:url(#radialGradient4635)"
       d="m 24.076,1029.6 0,-61.521 -71.937,0 0,61.521 71.937,0 z"
       id="path3215-5" />
  </g>
</svg>
