<?xml version="1.0" encoding="UTF-8" standalone="no"?>
<!-- Created with Inkscape (http://www.inkscape.org/) -->
<svg id="svg2408" xmlns:rdf="http://www.w3.org/1999/02/22-rdf-syntax-ns#" xmlns="http://www.w3.org/2000/svg" height="96" width="96" version="1.0" xmlns:cc="http://creativecommons.org/ns#" xmlns:xlink="http://www.w3.org/1999/xlink" xmlns:dc="http://purl.org/dc/elements/1.1/">
 <defs id="defs2410">
  <linearGradient id="ButtonShadow" y2="7.0165" gradientUnits="userSpaceOnUse" x2="45.448" gradientTransform="scale(1.0059 .99417)" y1="92.54" x1="45.448">
   <stop id="stop3750" offset="0"/>
   <stop id="stop3752" stop-opacity=".58824" offset="1"/>
  </linearGradient>
  <linearGradient id="linearGradient3737">
   <stop id="stop3739" stop-color="#fff" offset="0"/>
   <stop id="stop3741" stop-color="#fff" stop-opacity="0" offset="1"/>
  </linearGradient>
  <filter id="filter3174" color-interpolation-filters="sRGB">
   <feGaussianBlur id="feGaussianBlur3176" stdDeviation="1.71"/>
  </filter>
  <linearGradient id="linearGradient3188" y2="63.893" xlink:href="#linearGradient3737" gradientUnits="userSpaceOnUse" x2="36.357" y1="6" x1="36.357"/>
  <filter id="filter3794" height="1.384" width="1.384" color-interpolation-filters="sRGB" y="-.192" x="-.192">
   <feGaussianBlur id="feGaussianBlur3796" stdDeviation="5.28"/>
  </filter>
  <linearGradient id="linearGradient3613" y2="138.66" xlink:href="#linearGradient3737" gradientUnits="userSpaceOnUse" x2="48" y1="20.221" x1="48"/>
  <radialGradient id="radialGradient3619" xlink:href="#linearGradient3737" gradientUnits="userSpaceOnUse" cy="90.172" cx="48" gradientTransform="matrix(1.1573 0 0 .99591 -7.551 .19713)" r="42"/>
  <clipPath id="clipPath3613">
   <rect id="rect3615" rx="6" ry="6" height="84" width="84" y="6" x="6" fill="#fff"/>
  </clipPath>
  <linearGradient id="linearGradient3617" y2="5.9877" gradientUnits="userSpaceOnUse" x2="48" y1="90" x1="48">
   <stop id="stop4059" stop-color="#dd481f" stop-opacity=".94118" offset="0"/>
   <stop id="stop4061" stop-color="#ec6829" stop-opacity=".94118" offset="1"/>
  </linearGradient>
  <linearGradient id="ButtonShadow-0" y2="7.0165" gradientUnits="userSpaceOnUse" x2="45.448" gradientTransform="matrix(1.0059 0 0 .99417 100 0)" y1="92.54" x1="45.448">
   <stop id="stop3750-8" offset="0"/>
   <stop id="stop3752-5" stop-opacity=".58824" offset="1"/>
  </linearGradient>
  <linearGradient id="linearGradient3780" y2="90.239" xlink:href="#ButtonShadow-0" gradientUnits="userSpaceOnUse" x2="32.251" gradientTransform="matrix(1.0238 0 0 1.0119 -1.1429 -98.071)" y1="6.1317" x1="32.251"/>
  <linearGradient id="linearGradient3721" y2="90.239" xlink:href="#ButtonShadow-0" gradientUnits="userSpaceOnUse" x2="32.251" gradientTransform="translate(0,-97)" y1="6.1317" x1="32.251"/>
 </defs>
 <metadata id="metadata2413">
  <rdf:RDF>
   <cc:Work rdf:about="">
    <dc:format>image/svg+xml</dc:format>
    <dc:type rdf:resource="http://purl.org/dc/dcmitype/StillImage"/>
   </cc:Work>
  </rdf:RDF>
 </metadata>
 <g id="layer2" display="none">
  <rect id="rect3745" opacity=".9" rx="6" ry="6" height="85" filter="url(#filter3174)" width="86" y="7" x="5" fill="url(#ButtonShadow)"/>
 </g>
 <g id="layer3">
  <path id="path3786" opacity="0.08" d="m12-95.031c-5.5111 0-10.031 4.5202-10.031 10.031v71c0 5.5111 4.5202 10.031 10.031 10.031h72c5.5111 0 10.031-4.5202 10.031-10.031v-71c0-5.5111-4.5202-10.031-10.031-10.031h-72z" transform="scale(1,-1)" fill="url(#linearGradient3780)"/>
  <path id="path3778" opacity=".1" d="m12-94.031c-4.9716 0-9.0312 4.0596-9.0312 9.0312v71c0 4.9716 4.0596 9.0312 9.0312 9.0312h72c4.9716 0 9.0312-4.0596 9.0312-9.0312v-71c0-4.9716-4.0596-9.0312-9.0312-9.0312h-72z" transform="scale(1,-1)" fill="url(#linearGradient3780)"/>
  <path id="path3770" opacity=".2" d="m12-93c-4.4091 0-8 3.5909-8 8v71c0 4.4091 3.5909 8 8 8h72c4.4091 0 8-3.5909 8-8v-71c0-4.4091-3.5909-8-8-8h-72z" transform="scale(1,-1)" fill="url(#linearGradient3780)"/>
  <rect id="rect3723" opacity=".3" transform="scale(1,-1)" rx="7" ry="7" height="85" width="86" y="-92" x="5" fill="url(#linearGradient3780)"/>
  <rect id="rect3716" opacity=".45" transform="scale(1,-1)" rx="6" ry="6" height="84" width="84" y="-91" x="6" fill="url(#linearGradient3721)"/>
 </g>
 <g id="layer1">
  <rect id="rect2419" rx="6" ry="6" height="84" width="84" y="6" x="6" fill="url(#linearGradient3617)"/>
  <path id="rect3728" opacity=".35" d="m12 6c-3.324 0-6 2.676-6 6v2 68 2c0 0.33472 0.04135 0.6507 0.09375 0.96875 0.0487 0.2956 0.09704 0.59692 0.1875 0.875 0.00988 0.03038 0.020892 0.0636 0.03125 0.09375 0.098865 0.28777 0.23488 0.54745 0.375 0.8125 0.14459 0.27351 0.31562 0.53562 0.5 0.78125 0.18438 0.24564 0.37378 0.47347 0.59375 0.6875 0.43995 0.42806 0.94291 0.81453 1.5 1.0938 0.27854 0.13961 0.57347 0.24695 0.875 0.34375-0.2562-0.10022-0.48671-0.23627-0.71875-0.375-0.00741-0.0044-0.023866 0.0045-0.03125 0-0.031933-0.0193-0.062293-0.04251-0.09375-0.0625-0.1204-0.0767-0.23102-0.16351-0.34375-0.25-0.10617-0.0808-0.21328-0.16111-0.3125-0.25-0.1778-0.162-0.3473-0.346-0.4999-0.531-0.1075-0.131-0.2183-0.266-0.3124-0.407-0.0251-0.038-0.0385-0.086-0.0626-0.125-0.0647-0.103-0.1302-0.204-0.1874-0.312-0.1011-0.195-0.2057-0.416-0.2813-0.625-0.008-0.022-0.0236-0.041-0.0313-0.063-0.0318-0.092-0.0358-0.187-0.0624-0.281-0.0304-0.107-0.0704-0.203-0.0938-0.313-0.0729-0.341-0.125-0.698-0.125-1.062v-2-68-2c0-2.782 2.2182-5 5-5h2 68 2c2.7818 0 5 2.2182 5 5v2 68 2c0 0.3643-0.05212 0.72099-0.125 1.0625-0.04415 0.20689-0.08838 0.39766-0.15625 0.59375-0.0077 0.02195-0.0233 0.04069-0.03125 0.0625-0.06274 0.17374-0.13838 0.36745-0.21875 0.53125-0.04158 0.0828-0.07904 0.16995-0.125 0.25-0.0546 0.09721-0.12677 0.18835-0.1875 0.28125-0.09411 0.14096-0.20492 0.276-0.3125 0.40625-0.14317 0.17445-0.30314 0.347-0.46875 0.5-0.01117 0.0102-0.01998 0.02115-0.03125 0.03125-0.13839 0.12556-0.28509 0.23444-0.4375 0.34375-0.10257 0.07315-0.20432 0.15336-0.3125 0.21875-0.0074 0.0045-0.02384-0.0044-0.03125 0-0.23204 0.13873-0.46255 0.27478-0.71875 0.375 0.30153-0.0968 0.59646-0.20414 0.875-0.34375 0.55709-0.27922 1.0601-0.66569 1.5-1.0938 0.21997-0.21403 0.40937-0.44186 0.59375-0.6875s0.35541-0.50774 0.5-0.78125c0.14012-0.26505 0.27614-0.52473 0.375-0.8125 0.01041-0.03078 0.02133-0.06274 0.03125-0.09375 0.09046-0.27808 0.1388-0.5794 0.1875-0.875 0.053-0.318 0.094-0.634 0.094-0.969v-2-68-2c0-3.324-2.676-6-6-6h-72z" fill="url(#linearGradient3188)"/>
  <path id="path3615" opacity=".2" d="m12 90c-3.324 0-6-2.676-6-6v-2-68-2c0-0.33472 0.04135-0.6507 0.09375-0.96875 0.0487-0.2956 0.09704-0.59692 0.1875-0.875 0.0099-0.03 0.0209-0.063 0.0313-0.094 0.0989-0.2873 0.2349-0.547 0.375-0.812 0.1446-0.2735 0.3156-0.5356 0.5-0.7812 0.1844-0.2457 0.3738-0.4735 0.5937-0.6876 0.44-0.428 0.943-0.8145 1.5-1.0937 0.2786-0.1396 0.5735-0.2469 0.8748-0.3437-0.256 0.1002-0.4865 0.2362-0.7185 0.375-0.00741 0.0044-0.023866-0.0045-0.03125 0-0.031933 0.0193-0.062293 0.04251-0.09375 0.0625-0.1204 0.0767-0.23102 0.16351-0.34375 0.25-0.10617 0.0808-0.21328 0.16111-0.3125 0.25-0.1779 0.1614-0.3474 0.3453-0.5 0.5312-0.1075 0.1303-0.2183 0.2653-0.3124 0.4063-0.0251 0.0383-0.0385 0.0858-0.0626 0.125-0.0647 0.103-0.1302 0.2045-0.1874 0.3124-0.1011 0.1948-0.2057 0.4158-0.2813 0.625-0.008 0.0219-0.0236 0.0406-0.0313 0.0626-0.0318 0.0919-0.0358 0.1868-0.0624 0.2812-0.0304 0.1066-0.0704 0.203-0.0938 0.3125-0.0729 0.3415-0.125 0.6985-0.125 1.0625v2 68 2c0 2.7818 2.2182 5 5 5h2 68 2c2.7818 0 5-2.2182 5-5v-2-68-2c0-0.364-0.052-0.721-0.125-1.0625-0.044-0.2069-0.088-0.3977-0.156-0.5937-0.008-0.022-0.024-0.0407-0.031-0.0626-0.063-0.1737-0.139-0.3674-0.219-0.5312-0.042-0.0828-0.079-0.17-0.125-0.25-0.055-0.0972-0.127-0.1884-0.188-0.2812-0.094-0.141-0.205-0.276-0.312-0.4063-0.143-0.1745-0.303-0.347-0.469-0.5-0.011-0.0102-0.02-0.0211-0.031-0.0313-0.139-0.1255-0.285-0.2344-0.438-0.3437-0.102-0.0731-0.204-0.1534-0.312-0.2187-0.0074-0.0045-0.02384 0.0044-0.03125 0-0.23204-0.13873-0.46255-0.27478-0.71875-0.375 0.30153 0.0968 0.59646 0.20414 0.875 0.34375 0.55709 0.27922 1.0601 0.66569 1.5 1.0938 0.21997 0.21403 0.40937 0.44186 0.59375 0.6875s0.35541 0.50774 0.5 0.78125c0.14012 0.26505 0.27614 0.52473 0.375 0.8125 0.01041 0.03078 0.02133 0.06274 0.03125 0.09375 0.09046 0.27808 0.1388 0.5794 0.1875 0.875 0.053 0.318 0.094 0.634 0.094 0.969v2 68 2c0 3.324-2.676 6-6 6h-72z" fill="url(#radialGradient3619)"/>
  <path id="path4365" opacity="0.07" d="m61.188 15.469c-3.65 0-6.6159 2.28-8.0625 5.375-0.05383-0.0134-0.03458-0.02095-0.09375-0.03125-1.5586-0.27132-3.1624-0.5-4.8125-0.5-4.2856 0.000558-8.5445 1.0519-12.406 2.9688-0.92962 0.46312-1.5845 1.2884-1.8438 2.2188-0.0094 0.03327 0.0083 0.06062 0 0.09375-0.03048-0.0062-0.06341-0.02589-0.09375-0.03125-0.24556-0.04332-0.27678-0.0052-0.34375 0s-0.14237-0.005-0.1875 0c-0.09026 0.0099-0.14673-0.0024-0.09375 0-0.02882-0.0047 0.0023 0.0046-0.03125 0-0.22186-0.03059-0.39948-0.03447-0.25-0.03125-0.26004-0.0056-0.45035 0.05931-0.46875 0.0625-0.06756 0.000794-0.07258-0.02774-0.1875 0-0.43068 0.10398-0.8172 0.33536-1.1875 0.625-4.3912 3.3972-7.6702 8.0977-9.4062 13.344-0.78218-0.21843-1.5543-0.5-2.4062-0.5-5.1195 0-9.3438 4.2099-9.3438 9.3438s4.2242 9.3438 9.3438 9.3438c0.88596 0 1.6901-0.29586 2.5-0.53125 1.7438 5.1127 4.9499 9.6948 9.2188 13.031 0.52882 0.41476 1.4474 0.91759 2.6875 0.71875a1.0817 1.0817 0 0 0 0.03125 0c-0.36155 0.06253-0.36204 0.07391 0.03125 0 0.027-0.0051 0.03603-0.02564 0.0625-0.03125a1.0817 1.0817 0 0 0 0.03125 0.03125 1.0817 1.0817 0 0 0 0 0.03125c0.17548 0.63849 0.67863 1.6166 1.7812 2.1875v0.03125c0.0081 0.0041 0.02305-0.0041 0.03125 0 3.8987 1.9554 8.2204 3 12.531 3 1.5437 0 3.0674-0.21644 4.5625-0.46875 1.1281 3.8352 4.4537 6.7812 8.6562 6.7812 5.1149 0 9.3125-4.203 9.3125-9.3125 0-2.2484-0.97576-4.1848-2.3125-5.7812 4.247-4.478 6.952-10.268 7.565-16.409 0.113-1.127-0.338-2.062-0.875-2.656-0.02053-0.0227-0.04158-0.04055-0.0625-0.0625 0.01706-0.01803 0.04569-0.01265 0.0625-0.03125 0.64538-0.71412 0.96935-1.6741 0.875-2.6875-0.57004-5.883-3.0612-11.506-7-15.906-0.1066-0.11971-0.17104-0.07206-0.28125-0.15625 0.9357-1.4058 1.6562-3.0035 1.6562-4.8438 0-5.047-4.1375-9.2188-9.1875-9.2188zm-12.969 21.219c5.6087 0 10.556 4.2301 11.438 9.7812 0.11742 0.7418 0.53218 1.3728 1.0312 1.875-0.51611 0.5031-0.9406 1.09-1.0625 1.8438-0.89174 5.5-5.7981 9.6875-11.406 9.6875-1.5697 0-3.0783-0.29892-4.5625-0.9375-0.67518-0.2887-1.4626-0.31694-2.1875-0.15625-0.14868-0.65111-0.37462-1.3153-0.9375-1.8125-2.5097-2.2181-3.9375-5.3968-3.9375-8.6875 0-3.3276 1.4408-6.5381 3.9688-8.75 0.55436-0.48666 0.81091-1.1398 0.96875-1.8125 0.54994 0.13426 1.1183 0.09093 1.6875-0.0625v0.0625c-0.000801-0.000012 0.09455-0.000012 0.09375 0a1.0817 1.0817 0 0 0 0.34375 -0.09375 1.0817 1.0817 0 0 0 0.0625 0c1.4822-0.6294 2.9672-0.9375 4.5-0.9375z"/>
  <path id="path4361" opacity=".1" d="m61.188 16.562c-3.6193 0-6.5708 2.4564-7.5938 5.75-0.25474-0.15116-0.45172-0.38556-0.75-0.4375-1.5291-0.26618-3.0688-0.46875-4.625-0.46875-4.1106 0.000535-8.221 0.99897-11.938 2.8438-0.6514 0.32451-1.1058 0.90137-1.2812 1.5312-0.19612 0.69465 0.000056 1.4232 0.3125 1.9375-0.40357-0.64096-1.0779-0.99713-1.625-1.0938-0.07396-0.01305-0.33244 0.0389-0.5 0.03125-0.02025-0.0049-0.04651 0.003-0.0625 0-0.01799-0.0033-0.04791-0.02924-0.0625-0.03125-0.05511-0.0076-0.08953 0.000764-0.125 0-0.09492-0.002-0.1736 0.01801-0.25 0.03125-0.03781 0.0066-0.08509-0.0096-0.125 0-0.24111 0.05821-0.5064 0.19126-0.78125 0.40625-4.39 3.398-7.677 8.153-9.281 13.439-0.03056 0.10067 0.01702 0.20874 0 0.3125-0.98327-0.41966-2.0549-0.65625-3.1875-0.65625-4.5295 0-8.25 3.7066-8.25 8.25s3.7205 8.25 8.25 8.25c1.1326 0 2.2042-0.23658 3.1875-0.65625 0.0056 0.02031-0.0061 0.04234 0 0.0625 1.5924 5.2439 4.8539 9.9567 9.1875 13.344 0.32778 0.25709 1.0461 0.63291 1.875 0.5 0.01031-0.0018 0.02103 0.0019 0.03125 0 0.87371-0.16417 1.4176-0.84839 1.5938-1.125-0.45837 0.72621-0.4215 1.3942-0.28125 1.9062a1.0043 1.0043 0 0 0 0 0.03125c0.12468 0.45365 0.44604 1.1291 1.25 1.5312 3.7544 1.888 7.9134 2.875 12.062 2.875 1.5842 0 3.1811-0.18914 4.75-0.46875 0.19091-0.03361 0.29992-0.18023 0.46875-0.25 0.6074 3.944 3.8971 7.0312 8 7.0312 4.5257 0 8.2188-3.6983 8.2188-8.2188 0-2.3813-1.0549-4.4943-2.6875-6 0.13781-0.09168 0.31793-0.09629 0.4375-0.21875 4.235-4.3381 6.9299-10.039 7.5312-16.062 0.08322-0.8268-0.21066-1.3855-0.625-1.8438-0.4828-0.53397-1.1768-0.77591-1.7812-0.78125 0.59297-0.01035 1.2981-0.21535 1.7812-0.75 0.44691-0.49451 0.69044-1.1721 0.625-1.875-0.54694-5.6445-2.9642-11.052-6.75-15.281-0.25692-0.28852-0.60953-0.37172-0.9375-0.5 1.2239-1.4189 2.0312-3.2068 2.0312-5.2188 0-4.4589-3.6369-8.125-8.0938-8.125zm-12.969 19.032c6.1522 0 11.534 4.6369 12.5 10.719 0.18555 1.1722 1.189 2.0166 2.375 2.0312-1.1768 0.02369-2.2233 0.90018-2.4062 2.0312-0.97765 6.03-6.3249 10.594-12.469 10.594-1.7111 0-3.3832-0.33559-5-1.0312-1.0103-0.43201-2.311-0.1676-3 0.90625 0.56644-0.9177 0.53716-2.2291-0.40625-3.0625-2.7404-2.4219-4.3125-5.8949-4.3125-9.5 0-3.6405 1.5798-7.1442 4.3438-9.5625 0.88093-0.77335 1.0419-2.07 0.4375-3.0625 0.62924 1.0034 1.864 1.4351 2.9688 0.96875a1.0043 1.0043 0 0 0 0.03125 0c1.6051-0.6816 3.2548-1.0312 4.9375-1.0312z"/>
  <path id="path4357" opacity=".15" d="m61.188 17.562c-3.9065 0-7.0625 3.217-7.0625 7.125s3.1617 7.0938 7.0625 7.0938 7.0938-3.1801 7.0938-7.0938-3.1872-7.125-7.0938-7.125zm-12.969 4.8438c-3.9459 0.000514-7.9178 0.9719-11.5 2.75-0.39165 0.19511-0.64624 0.53384-0.75 0.90625-0.12205 0.43231-0.03007 0.80774 0.1875 1.1562l4.968 7.907c0.36142 0.57634 1.1233 0.82705 1.75 0.5625 1.7274-0.73351 3.5282-1.0938 5.3438-1.0938 6.6541 0 12.456 4.9891 13.5 11.562 0.10454 0.66047 0.72251 1.1875 1.4062 1.1875h9.375c0.38501 0 0.75117-0.12424 1.0625-0.46875 0.26598-0.29431 0.41217-0.69454 0.375-1.0938-0.5254-5.4223-2.8572-10.649-6.5-14.719-0.48776-0.54776-1.2678-0.57229-1.8125-0.21875-1.2741 0.82648-2.6888 1.25-4.125 1.25-4.207 0-7.6213-3.4023-7.6562-7.5938 0.000007-0.000122-0.000166-0.02626 0-0.03125 0.000332-0.01-0.000059-0.02765 0-0.03125 0.000055-0.0083-0.000013-0.02188 0-0.03125 0.000025-0.01875 0.000031-0.03929 0-0.0625-0.000063-0.04641 0-0.10918 0-0.09375 0-0.69472-0.53905-1.2621-1.1875-1.375-1.5081-0.26254-2.9757-0.46875-4.4375-0.46875zm-15.281 5.219c0.04299-0.01059-0.19616-0.04335-0.53125 0.21875-4.223 3.2671-7.3955 7.8574-8.9375 12.938-0.16457 0.54215-0.01248 1.1492 0.46875 1.5312 1.8187 1.447 2.9062 3.6953 2.9062 5.9688s-1.0871 4.5218-2.9062 5.9688c-0.47998 0.38175-0.63349 0.98716-0.46875 1.5312 1.5301 5.0387 4.6742 9.5849 8.8438 12.844 0.21967 0.17229 0.57226 0.37302 1.0938 0.28125 0.54955-0.09502 0.79417-0.43111 0.9375-0.65625l5.031-7.907c0.33961-0.53456 0.33239-1.3256-0.21875-1.8125-2.953-2.611-4.656-6.353-4.656-10.251 0-3.9309 1.7054-7.7033 4.6875-10.312 0.51514-0.45223 0.62018-1.2225 0.25-1.8125l-4.969-7.907c-0.251-0.399-0.59-0.558-0.969-0.625-0.11706-0.02065-0.34109-0.05455-0.5625 0zm-13.625 13.531c-3.9824 0-7.25 3.254-7.25 7.25s3.2676 7.25 7.25 7.25 7.2188-3.2596 7.2188-7.25-3.2363-7.25-7.2188-7.25zm43.812 8.156c-0.76957 0.0016-1.3198 0.49116-1.4375 1.2188-1.0573 6.5212-6.8292 11.438-13.469 11.438-1.8357 0-3.6581-0.34157-5.4062-1.0938-0.56255-0.24054-1.3652-0.09972-1.75 0.5l-5.0312 7.9375c-0.24775 0.39252-0.22594 0.87055-0.15625 1.125 0.06798 0.24736 0.27278 0.68317 0.71875 0.90625 3.6145 1.8176 7.6377 2.7812 11.625 2.7812 1.4971 0 3.0259-0.19489 4.5625-0.46875 0.58298-0.10263 1.0903-0.65894 1.1562-1.2188 0.44628-3.8716 3.6872-6.75 7.5625-6.75 1.1853 0 2.4161 0.29103 3.5312 0.875 0.5469 0.28679 1.2384 0.17799 1.6562-0.25 4.0757-4.1749 6.6719-9.6788 7.25-15.469 0.03943-0.39181-0.1739-0.84008-0.375-1.0625-0.309-0.341-0.675-0.469-1.062-0.468h-9.375zm-1.687 16.688c-3.9801 0-7.25 3.2382-7.25 7.2188s3.2699 7.2188 7.25 7.2188 7.2188-3.2438 7.2188-7.2188c-0.001-3.975-3.239-7.219-7.219-7.219z"/>
  <path id="path4353" opacity=".3" d="m61.196 18.5c-3.3972 0-6.1481 2.7659-6.1481 6.1756s2.7509 6.1756 6.1481 6.1756 6.1481-2.7659 6.1481-6.1756-2.7509-6.1756-6.1481-6.1756zm-12.984 4.8368c-3.7916 0.000494-7.6357 0.9617-11.092 2.6775-0.12293 0.06124-0.19959 0.16993-0.23647 0.3023-0.03737 0.13237-0.02978 0.27211 0.04299 0.38867l4.9873 7.9246c0.12637 0.20151 0.3831 0.2867 0.60191 0.19434 1.8459-0.78383 3.7613-1.166 5.6967-1.166 7.1189 0 13.33 5.2988 14.446 12.33 0.03737 0.23609 0.23544 0.41027 0.47293 0.41027h9.3726c0.13669 0 0.2735-0.0494 0.36545-0.15115 0.09195-0.10174 0.14176-0.22977 0.12898-0.36708-0.50548-5.2166-2.7258-10.267-6.2341-14.187-0.15833-0.17781-0.42328-0.19468-0.62341-0.06478-1.4146 0.91767-3.0197 1.4035-4.6433 1.4035-4.7366 0-8.5768-3.8653-8.5773-8.594 0.000492-0.0024 0-0.16484 0-0.17274 0-0.23559-0.17586-0.45614-0.40844-0.49664-1.481-0.25782-2.9187-0.43186-4.2994-0.43186zm-15.048 5.1823c-0.0649 0.01599-0.14012 0.04464-0.19347 0.08637-4.0654 3.1452-7.1143 7.5685-8.5987 12.459-0.05802 0.19114-0.0063 0.39377 0.15048 0.51823 2.043 1.6254 3.2675 4.1275 3.2675 6.6938s-1.224 5.0684-3.2675 6.6938c-0.15587 0.12397-0.2085 0.3266-0.15048 0.51823 1.4727 4.8497 4.4975 9.2561 8.5128 12.394 0.10768 0.08446 0.23072 0.13167 0.36545 0.10796 0.13424-0.02321 0.24919-0.12244 0.32245-0.23752l5.0303-7.903c0.12834-0.20201 0.09349-0.46765-0.08599-0.6262-3.1514-2.7851-4.9658-6.7786-4.9658-10.948 0-4.2002 1.8245-8.2047 5.0088-10.991 0.17947-0.15756 0.23484-0.4232 0.10748-0.6262l-4.9873-7.9246c-0.07277-0.11558-0.18822-0.19222-0.32245-0.21593-0.06712-0.01184-0.12857-0.01599-0.19347 0zm-13.865 13.56c-3.4768 0-6.2986 2.8368-6.2986 6.3267s2.8218 6.3051 6.2986 6.3051 6.2986-2.8152 6.2986-6.3051-2.8218-6.3267-6.2986-6.3267zm53.205 8.1621-9.3726 0.0216c-0.23651 0.000494-0.45657 0.17615-0.49443 0.41026-1.1314 6.9784-7.3251 12.243-14.424 12.243-1.958 0-3.8946-0.40612-5.7612-1.2092-0.21832-0.09335-0.47358-0.02729-0.60191 0.17274l-5.0303 7.9246c-0.07326 0.11607-0.07938 0.25581-0.04299 0.38867 0.03638 0.13237 0.11403 0.24106 0.23647 0.3023 3.4837 1.7519 7.3645 2.6775 11.2 2.6775 1.4225 0 2.9076-0.14306 4.4069-0.41026 0.21045-0.03705 0.36187-0.19739 0.38694-0.41026 0.49958-4.334 4.1485-7.6007 8.4913-7.6007 1.3463 0 2.7319 0.34132 3.9769 0.99327 0.18931 0.09927 0.40895 0.06723 0.55892-0.08637 3.9263-4.0219 6.4084-9.3244 6.965-14.899 0.01377-0.13681-0.03654-0.26484-0.12898-0.36708s-0.22875-0.15164-0.36545-0.15115zm-11.072 16.692c-3.4768 0-6.2986 2.8116-6.2986 6.2835s2.8218 6.2835 6.2986 6.2835 6.2986-2.8116 6.2986-6.2835-2.8218-6.2835-6.2986-6.2835z"/>
  <path id="path3324" d="m61.196 17.5c-3.3972 0-6.1481 2.7659-6.1481 6.1756s2.7509 6.1756 6.1481 6.1756 6.1481-2.7659 6.1481-6.1756-2.7509-6.1756-6.1481-6.1756zm-12.984 4.8368c-3.7916 0.000494-7.6357 0.9617-11.092 2.6775-0.12293 0.06124-0.19959 0.16993-0.23647 0.3023-0.03737 0.13237-0.02978 0.27211 0.04299 0.38867l4.9873 7.9246c0.12637 0.20151 0.3831 0.2867 0.60191 0.19434 1.8459-0.78383 3.7613-1.166 5.6967-1.166 7.1189 0 13.33 5.2988 14.446 12.33 0.03737 0.23609 0.23544 0.41027 0.47293 0.41027h9.3726c0.13669 0 0.2735-0.0494 0.36545-0.15115 0.09195-0.10174 0.14176-0.22977 0.12898-0.36708-0.50548-5.2166-2.7258-10.267-6.2341-14.187-0.15833-0.17781-0.42328-0.19468-0.62341-0.06478-1.4146 0.91767-3.0197 1.4035-4.6433 1.4035-4.7366 0-8.5768-3.8653-8.5773-8.594 0.000492-0.0024 0-0.16484 0-0.17274 0-0.23559-0.17586-0.45614-0.40844-0.49664-1.481-0.25782-2.9187-0.43186-4.2994-0.43186zm-15.048 5.1823c-0.0649 0.01599-0.14012 0.04464-0.19347 0.08637-4.0654 3.1452-7.1143 7.5685-8.5987 12.459-0.05802 0.19114-0.0063 0.39377 0.15048 0.51823 2.043 1.6254 3.2675 4.1275 3.2675 6.6938s-1.224 5.0684-3.2675 6.6938c-0.15587 0.12397-0.2085 0.3266-0.15048 0.51823 1.4727 4.8497 4.4975 9.2561 8.5128 12.394 0.10768 0.08446 0.23072 0.13167 0.36545 0.10796 0.13424-0.02321 0.24919-0.12244 0.32245-0.23752l5.0303-7.903c0.12834-0.20201 0.09349-0.46765-0.08599-0.6262-3.1514-2.7851-4.9658-6.7786-4.9658-10.948 0-4.2002 1.8245-8.2047 5.0088-10.991 0.17947-0.15756 0.23484-0.4232 0.10748-0.6262l-4.9873-7.9246c-0.07277-0.11558-0.18822-0.19222-0.32245-0.21593-0.06712-0.01184-0.12857-0.01599-0.19347 0zm-13.865 13.56c-3.4768 0-6.2986 2.8368-6.2986 6.3267s2.8218 6.3051 6.2986 6.3051 6.2986-2.8152 6.2986-6.3051-2.8218-6.3267-6.2986-6.3267zm53.205 8.1621-9.3726 0.0216c-0.23651 0.000494-0.45657 0.17615-0.49443 0.41026-1.1314 6.9784-7.3251 12.243-14.424 12.243-1.958 0-3.8946-0.40612-5.7612-1.2092-0.21832-0.09335-0.47358-0.02729-0.60191 0.17274l-5.0303 7.9246c-0.07326 0.11607-0.07938 0.25581-0.04299 0.38867 0.03638 0.13237 0.11403 0.24106 0.23647 0.3023 3.4837 1.7519 7.3645 2.6775 11.2 2.6775 1.4225 0 2.9076-0.14306 4.4069-0.41026 0.21045-0.03705 0.36187-0.19739 0.38694-0.41026 0.49958-4.334 4.1485-7.6007 8.4913-7.6007 1.3463 0 2.7319 0.34132 3.9769 0.99327 0.18931 0.09927 0.40895 0.06723 0.55892-0.08637 3.9263-4.0219 6.4084-9.3244 6.965-14.899 0.01377-0.13681-0.03654-0.26484-0.12898-0.36708s-0.22875-0.15164-0.36545-0.15115zm-11.072 16.692c-3.4768 0-6.2986 2.8116-6.2986 6.2835s2.8218 6.2835 6.2986 6.2835 6.2986-2.8116 6.2986-6.2835-2.8218-6.2835-6.2986-6.2835z" fill="#fff"/>
 </g>
 <g id="layer5">
  <rect id="rect3171" height="66" stroke="#fff" stroke-linecap="round" stroke-width=".5" fill="url(#linearGradient3613)" rx="12" ry="12" width="66" opacity=".1" clip-path="url(#clipPath3613)" filter="url(#filter3794)" y="15" x="15"/>
 </g>
</svg>
