<?xml version="1.0" encoding="UTF-8" standalone="no"?>
<!-- Created with Inkscape (http://www.inkscape.org/) -->
<svg id="svg2" xmlns:rdf="http://www.w3.org/1999/02/22-rdf-syntax-ns#" xmlns="http://www.w3.org/2000/svg" height="96" width="96" version="1.1" xmlns:cc="http://creativecommons.org/ns#" xmlns:xlink="http://www.w3.org/1999/xlink" xmlns:dc="http://purl.org/dc/elements/1.1/">
 <defs id="defs4">
  <linearGradient id="linearGradient3613-3" y2="138.66" gradientUnits="userSpaceOnUse" x2="48" y1="20.221" x1="48">
   <stop id="stop3739-10" stop-color="#fff" offset="0"/>
   <stop id="stop3741-2" stop-color="#fff" stop-opacity="0" offset="1"/>
  </linearGradient>
  <clipPath id="clipPath3613-29">
   <rect id="rect3615-1" rx="6" ry="6" height="84" width="84" y="6" x="6" fill="#fff"/>
  </clipPath>
  <filter id="filter3794-0" height="1.384" width="1.384" color-interpolation-filters="sRGB" y="-.192" x="-.192">
   <feGaussianBlur id="feGaussianBlur3796-8" stdDeviation="5.28"/>
  </filter>
  <clipPath id="clipPath3613-25">
   <rect id="rect3615-14" rx="6" ry="6" height="84" width="84" y="6" x="6" fill="#fff"/>
  </clipPath>
  <filter id="filter3794-6" height="1.384" width="1.384" color-interpolation-filters="sRGB" y="-.192" x="-.192">
   <feGaussianBlur id="feGaussianBlur3796-26" stdDeviation="5.28"/>
  </filter>
  <clipPath id="clipPath3860">
   <rect id="rect3862" rx="6" ry="6" height="72" width="84" y="18" x="6" fill="#f0f"/>
  </clipPath>
  <filter id="filter3870" height="1.3943" width="1.3312" color-interpolation-filters="sRGB" y="-.19716" x="-.16559">
   <feGaussianBlur id="feGaussianBlur3872" stdDeviation="5.1703125"/>
  </filter>
  <linearGradient id="linearGradient5696" y2="81.481" gradientUnits="userSpaceOnUse" x2="48.022" y1="22.933" x1="48.022">
   <stop id="stop3876" stop-color="#fff" offset="0"/>
   <stop id="stop3878" stop-color="#fff" stop-opacity="0" offset="1"/>
  </linearGradient>
  <linearGradient id="linearGradient4640" y2="48.005" gradientUnits="userSpaceOnUse" x2="6.1872" gradientTransform="translate(0 956.36)" y1="48.005" x1="93.008">
   <stop id="stop4636" stop-color="#be8e4a" stop-opacity=".076923" offset="0"/>
   <stop id="stop4638" stop-color="#a67c25" offset="1"/>
  </linearGradient>
  <linearGradient id="linearGradient3248" y2="32.398" gradientUnits="userSpaceOnUse" x2="48.071" y1="73.766" x1="48.071">
   <stop id="stop3701-3" stop-color="#aa7932" stop-opacity=".78431" offset="0"/>
   <stop id="stop3703-34" stop-color="#aa7932" stop-opacity=".39216" offset="1"/>
  </linearGradient>
  <linearGradient id="linearGradient3930-2" y2="32.398" xlink:href="#linearGradient3699-7" gradientUnits="userSpaceOnUse" x2="48.071" y1="73.766" x1="48.071"/>
  <linearGradient id="linearGradient3699-7">
   <stop id="stop3701-4-5" stop-color="#aa7932" stop-opacity=".78431" offset="0"/>
   <stop id="stop3703-1" stop-color="#aa7932" stop-opacity=".39216" offset="1"/>
  </linearGradient>
 </defs>
 <metadata id="metadata7">
  <rdf:RDF>
   <cc:Work rdf:about="">
    <dc:format>image/svg+xml</dc:format>
    <dc:type rdf:resource="http://purl.org/dc/dcmitype/StillImage"/>
    <dc:title/>
   </cc:Work>
  </rdf:RDF>
 </metadata>
 <g id="layer1" transform="translate(0 -956.36)">
  <rect id="rect5263-0" fill-opacity=".019608" ry="12.724" height="89.978" width="89.978" y="959.35" x="2.9998"/>
  <rect id="rect5261-6" fill-opacity=".039216" ry="12.552" height="88.762" width="88.762" y="959.96" x="3.6078"/>
  <rect id="rect5259-9" fill-opacity=".078431" ry="12.38" height="87.546" width="87.546" y="960.57" x="4.2157"/>
  <rect id="rect5257-5" fill-opacity=".15686" ry="12.208" height="86.33" width="86.33" y="961.18" x="4.8237"/>
  <path id="rect2419-5" d="m17.469 961.77c-6.2512 0-11.355 4.7568-11.969 10.844v63.469c0.61364 6.0834 5.7175 10.812 11.969 10.812h61.031c6.4543 0 11.671-5.0367 12-11.406v-62.281c-0.32117-6.3771-5.5404-11.438-12-11.438h-61.031z" fill="#cc993d"/>
  <rect id="rect3171" ry="12" stroke="#fff" stroke-linecap="round" stroke-width=".5" fill="url(#linearGradient3613-3)" rx="12" transform="matrix(1.0149 0 0 1.0238 -.83801 955.22)" width="66" opacity=".05" clip-path="url(#clipPath3613-29)" height="66" filter="url(#filter3794-0)" y="15" x="15"/>
  <path id="path5865" d="m17.469 961.77c-6.2512 0-11.355 4.7568-11.969 10.844v63.469c0.07233 0.717 0.21463 1.4198 0.40625 2.0937-0.14675-1.3295-0.26905-2.6965-0.34375-4.0937v-59.281c0-2.3816 0.62452-7.4626 6.625-7.4688h12.75c4.9632 0 7.6402-1.0079 10.125 3.7188 3.0657 4.2041 4.006 4.8869 9.5625 4.2812h40.656c3.7739-0.0442 5.1676 1.5874 5.2188 5.4375v-7.5625c-0.32117-6.3771-5.5404-11.438-12-11.438h-61.031zm73.031 69.73c-0.04406 2.2078-0.18649 4.3503-0.40625 6.4063 0.21124-0.7976 0.36211-1.6143 0.40625-2.4688v-3.9375zm-1.0625 8.2813c-0.13416 0.2981-0.28057 0.5904-0.4375 0.875 0.1575-0.2841 0.30285-0.5773 0.4375-0.875zm-0.438 0.9c-0.15693 0.2845-0.32144 0.5427-0.5 0.8125 0.17482-0.2638 0.34595-0.5347 0.5-0.8125zm-81.906 0.25c0.15696 0.2676 0.32348 0.5274 0.5 0.7812-0.1807-0.2598-0.33982-0.5069-0.5-0.7812zm76.188 4.9375c-0.26128 0.1134-0.54176 0.2175-0.8125 0.3125 0.27423-0.096 0.5479-0.198 0.8125-0.3125zm-69.625 0.375c0.2786 0.093 0.55637 0.1773 0.84375 0.25-0.28437-0.072-0.56799-0.1586-0.84375-0.25zm67.625 0.2812c-0.24437 0.058-0.4999 0.1135-0.75 0.1563 0.25388-0.043 0.50195-0.097 0.75-0.1563z" fill="url(#linearGradient4640)"/>
  <g id="layer5" transform="matrix(1.0168 0 0 1.021 -.61038 955.51)">
   <rect id="rect3171-4" height="66" stroke="#fff" stroke-linecap="round" stroke-width=".5" fill="url(#linearGradient3613-3)" rx="12" ry="12" width="66" opacity=".1" clip-path="url(#clipPath3613-25)" filter="url(#filter3794-6)" y="15" x="15"/>
  </g>
  <path id="path7506" opacity=".55020" d="m28.25 966.31c-0.98771 0.0223-2.0717 0.10149-3.3125 0.10149h-12.75c-6.0005 0.007-6.625 6.3566-6.625 8.9362v0.81233c0-2.5796 0.62452-8.0829 6.625-8.0895h12.75c4.9632 0 7.7652-0.96667 10.125 3.3403 3.0657 4.5536 4.006 5.293 9.5625 4.6371h40.656c3.7739-0.0479 5.1676 1.7193 5.2188 5.8894v-0.81234c-0.05112-4.1701-1.4448-5.9373-5.2188-5.8894h-40.656c-5.5565 0.65596-6.4968-0.0835-9.5625-4.6371-1.8636-3.8396-3.8494-4.3555-6.8125-4.2885z" fill="#f9f9f9"/>
  <rect id="rect3634" opacity="0" height="1" width="84.972" y="973.33" x="5.5655"/>
  <path id="path7563" opacity=".20482" d="m35.742 968.8c0.0231 0.043 0.0394 0.081 0.0625 0.125 0.034 0.047 0.0603 0.079 0.0937 0.125h45.625c2.0566 0 3.7188 1.6621 3.7188 3.7187v-0.25c0-2.0566-1.6621-3.7187-3.7188-3.7187h-45.781z" fill-opacity=".58962" fill="#fff"/>
  <path id="path7516" opacity=".51807" d="m35.742 969.05c0.0231 0.043 0.0394 0.081 0.0625 0.125 0.0241 0.033 0.0386 0.061 0.0625 0.094h45.656c2.0566 0 3.7188 1.6621 3.7188 3.7187v-0.2187c0-2.0566-1.6621-3.7188-3.7188-3.7188l-45.781 0.0001z" fill-opacity=".58962" fill="#fff"/>
  <path id="path7514" opacity=".74699" d="m35.742 969.27c0.0231 0.043 0.0394 0.081 0.0625 0.125 0.0335 0.046 0.0607 0.08 0.0937 0.125h45.625c0.25708 0 0.50773 0.013 0.75 0.063 0.24227 0.049 0.46498 0.1248 0.6875 0.2188 0.23229 0.096 0.45057 0.2049 0.65625 0.3437 0.2043 0.138 0.35868 0.294 0.53125 0.4688 0.32871 0.3328 0.62762 0.7185 0.8125 1.1562 0.004 0.01-0.004 0.023 0 0.031 0.18093 0.4379 0.28125 0.9336 0.28125 1.4375v-0.25c0-2.0566-1.6621-3.7187-3.7188-3.7187h-45.781z" fill-opacity=".58962" fill="#fff"/>
  <path id="rect7493" fill-opacity=".83019" fill="#fff" d="m35.751 969.5c0.0231 0.043 0.0394 0.081 0.0625 0.125 3.0657 4.2041 4.006 4.8869 9.5625 4.2813h39.875v-0.6875c0-2.0567-1.6621-3.7188-3.7188-3.7188h-45.781z"/>
  <g id="g5676" transform="matrix(.94641 0 0 .84994 2.9331 964.94)">
   <path id="path5678" opacity=".15" filter="url(#filter3870)" d="m15.969 22.531c-2.8459 0.0043-5.4332 2.5916-5.4375 5.4375v48.062c0.0043 2.8459 2.5916 5.4332 5.4375 5.4375h64.062c2.8459-0.0043 5.4332-2.5916 5.4375-5.4375v-48.062c-0.0043-2.8459-2.5916-5.4332-5.4375-5.4375z" clip-path="url(#clipPath3860)" fill="url(#linearGradient5696)"/>
  </g>
  <path id="rect5265-0" d="m5.3323 1029.9v5.0663c0 6.668 5.3645 12.032 12.032 12.032h61.049c6.668 0 12.032-5.3645 12.032-12.032v-5.0663c0 6.6681-5.3645 12.032-12.032 12.032h-61.049c-6.668 0-12.032-5.3643-12.032-12.032z" fill-opacity=".11765"/>
  <path id="path5252-0" d="m5.3323 1033.9v1.0133c0 6.668 5.3645 12.032 12.032 12.032h61.049c6.668 0 12.032-5.3645 12.032-12.032v-1.0133c0 6.6681-5.3645 12.032-12.032 12.032h-61.049c-6.668 0-12.032-5.3644-12.032-12.032z" fill-opacity=".098039"/>
  <g id="layer6" transform="translate(.61993 956.59)">
   <path id="path3717" opacity=".9" d="m48 32c-10.749 0-21.486 4.111-29.688 12.312l4.938 4.938c13.668-13.668 35.832-13.668 49.5 0l4.9375-4.9375c-8.202-8.201-18.939-12.312-29.688-12.312zm0 14c-7.1658 0-14.345 2.7202-19.812 8.1875l4.9688 4.9688c8.201-8.201 21.486-8.201 29.688 0l4.967-4.969c-5.467-5.468-12.646-8.188-19.812-8.188zm0 14c-3.5829 0-7.1726 1.3601-9.9062 4.0938l9.906 9.906 9.906-9.906c-2.733-2.734-6.323-4.094-9.906-4.094z" fill="url(#linearGradient3248)"/>
   <path id="path3920" opacity=".25" d="m48 32c-10.749 0-21.486 4.111-29.688 12.312l4.938 4.938c13.668-13.668 35.832-13.668 49.5 0l4.9375-4.9375c-8.202-8.201-18.939-12.312-29.688-12.312zm0 1.9375c9.634 0 19.191 3.5853 26.812 10.5l-2.187 2.187c-14.004-12.59-35.246-12.59-49.25 0l-2.187-2.187c7.621-6.915 17.178-10.5 26.812-10.5zm0 12.062c-7.1658 0-14.345 2.7202-19.812 8.1875l4.9688 4.9688c8.201-8.201 21.486-8.201 29.688 0l4.967-4.969c-5.467-5.468-12.646-8.188-19.812-8.188zm0 1.9375c6.056 0 12.063 2.1832 16.938 6.375l-2.2188 2.2188c-8.5052-7.1633-20.932-7.1633-29.438 0l-2.219-2.22c4.875-4.191 10.882-6.374 16.938-6.374zm0 12.062c-3.5829 0-7.1726 1.3601-9.9062 4.0938l9.906 9.906 9.906-9.906c-2.733-2.734-6.323-4.094-9.906-4.094zm0 1.9375c2.4507 0 4.7917 0.95714 6.875 2.4375l-6.875 6.874-6.875-6.875c2.083-1.48 4.424-2.437 6.875-2.437z" fill="url(#linearGradient3930-2)"/>
   <path id="path3907" opacity=".5" d="m48 32c-10.749 0-21.486 4.111-29.688 12.312l4.938 4.938c13.668-13.668 35.832-13.668 49.5 0l4.9375-4.9375c-8.202-8.201-18.939-12.312-29.688-12.312zm0 1.0312c10.165 0 20.284 3.8223 28.188 11.344l-3.5 3.5c-13.861-13.097-35.514-13.097-49.375 0l-3.5-3.5c7.903-7.521 18.022-11.344 28.187-11.344zm0 12.969c-7.1658 0-14.345 2.7202-19.812 8.1875l4.9688 4.9688c8.201-8.201 21.486-8.201 29.688 0l4.967-4.969c-5.467-5.468-12.646-8.188-19.812-8.188zm0 1.0312c6.5836 0 13.146 2.4308 18.312 7.2188l-3.5312 3.5312c-8.3817-7.6347-21.181-7.6347-29.562 0l-3.531-3.531c5.166-4.788 11.728-7.219 18.312-7.219zm0 12.969c-3.5829 0-7.1726 1.3601-9.9062 4.0938l9.906 9.906 9.906-9.906c-2.733-2.734-6.323-4.094-9.906-4.094zm0 1.0312c2.9995 0 5.9858 1.0603 8.4062 3.125l-8.406 8.406-8.406-8.406c2.4205-2.0647 5.4067-3.125 8.4062-3.125z" fill="url(#linearGradient3930-2)"/>
   <path id="path3898" fill="url(#linearGradient3930-2)" d="m48 32c-10.749 0-21.486 4.111-29.688 12.312l0.5 0.5c8.135-7.87 18.659-11.812 29.188-11.812s21.053 3.9422 29.188 11.812l0.5-0.5c-8.202-8.201-18.939-12.312-29.688-12.312zm0 14c-7.1658 0-14.345 2.7202-19.812 8.1875l0.5 0.5c5.399-5.136 12.367-7.688 19.312-7.688 6.9454 0 13.913 2.5521 19.312 7.6875l0.5-0.5c-5.467-5.468-12.646-8.188-19.812-8.188zm0 14c-3.5829 0-7.1726 1.3601-9.9062 4.0938l0.531 0.531c2.661-2.407 6.013-3.625 9.375-3.625 3.3623 0 6.7138 1.2184 9.375 3.625l0.53125-0.53125c-2.733-2.734-6.323-4.094-9.906-4.094z"/>
   <path id="path3942" opacity=".05" d="m48 30c-11.258 0-22.513 4.3251-31.094 12.906-0.0015 0.0015-0.06111 0.06096-0.0625 0.0625-0.0014 0.0015-0.06119 0.09215-0.0625 0.09375-0.0013 0.0016-0.06127 0.06083-0.0625 0.0625-0.0012 0.0017-0.06135 0.09203-0.0625 0.09375-0.0012 0.0017-0.06143 0.06072-0.0625 0.0625-0.0011 0.0018-0.03027 0.09192-0.03125 0.09375-0.000977 0.0018-0.06161 0.09188-0.0625 0.09375-0.000886 0.0019-0.03046 0.09183-0.03125 0.09375-0.000793 0.0019-0.03055 0.0918-0.03125 0.09375-0.000698 0.002-0.03065 0.06052-0.03125 0.0625-0.000601 0.002-0.03075 0.09174-0.03125 0.09375-0.000503 0.002-0.03085 0.12297-0.03125 0.125-0.000404 0.002 0.000304 0.0917 0 0.09375-0.000304 0.0021-0.03105 0.09169-0.03125 0.09375-0.000203 0.0021 0.000102 0.09168 0 0.09375-0.000102 0.0021 0 0.09168 0 0.09375 0 0.0021-0.000102 0.09168 0 0.09375 0.000102 0.0021-0.000203 0.09169 0 0.09375 0.000203 0.0021 0.03095 0.0917 0.03125 0.09375 0.000304 0.0021-0.000404 0.09172 0 0.09375 0.000404 0.002 0.03075 0.12299 0.03125 0.125 0.000503 0.002 0.03065 0.09177 0.03125 0.09375 0.000601 0.002 0.03055 0.06055 0.03125 0.0625 0.000698 0.002 0.03046 0.09183 0.03125 0.09375 0.000793 0.0019 0.03036 0.09188 0.03125 0.09375 0.000886 0.0019 0.06152 0.09192 0.0625 0.09375 0.000977 0.0018 0.03018 0.09197 0.03125 0.09375 0.0011 0.0018 0.06135 0.06078 0.0625 0.0625 0.0012 0.0017 0.06127 0.09208 0.0625 0.09375 0.0012 0.0017 0.06119 0.0609 0.0625 0.0625 0.0013 0.0016 0.06111 0.09221 0.0625 0.09375 0.0014 0.0015 0.06104 0.06103 0.0625 0.0625l4.9375 4.9375c0.0015 0.0015 0.06096 0.06111 0.0625 0.0625 0.0015 0.0014 0.09215 0.06119 0.09375 0.0625 0.0016 0.0013 0.06083 0.06127 0.0625 0.0625 0.0017 0.0012 0.09203 0.06135 0.09375 0.0625 0.0017 0.0012 0.06072 0.06144 0.0625 0.0625 0.0018 0.0011 0.09192 0.03027 0.09375 0.03125 0.0018 0.000977 0.09188 0.06161 0.09375 0.0625 0.0019 0.000886 0.09183 0.03046 0.09375 0.03125 0.0019 0.000793 0.0918 0.03055 0.09375 0.03125 0.002 0.000698 0.06052 0.03065 0.0625 0.03125 0.002 0.000601 0.09174 0.03075 0.09375 0.03125 0.002 0.000503 0.12297 0.03085 0.125 0.03125 0.002 0.000404 0.0917-0.000304 0.09375 0 0.0021 0.000304 0.09169 0.03105 0.09375 0.03125 0.0021 0.000203 0.09168-0.000102 0.09375 0 0.0021 0.000102 0.09168 0 0.09375 0 0.0021 0 0.09168 0.000102 0.09375 0 0.0021-0.000102 0.09169 0.000203 0.09375 0 0.0021-0.000203 0.0917-0.03095 0.09375-0.03125 0.0021-0.000304 0.09172 0.000404 0.09375 0 0.002-0.000404 0.12299-0.03075 0.125-0.03125 0.002-0.000503 0.09177-0.03065 0.09375-0.03125 0.002-0.000601 0.06055-0.03055 0.0625-0.03125 0.002-0.000698 0.09183-0.03046 0.09375-0.03125 0.0019-0.000793 0.09188-0.03036 0.09375-0.03125 0.0019-0.000886 0.09192-0.06152 0.09375-0.0625 0.0018-0.000977 0.09197-0.03019 0.09375-0.03125 0.0018-0.0011 0.06078-0.06135 0.0625-0.0625 0.0017-0.0012 0.09208-0.06127 0.09375-0.0625 0.0017-0.0012 0.0609-0.06119 0.0625-0.0625 0.0016-0.0013 0.09221-0.06111 0.09375-0.0625 0.0015-0.0014 0.06103-0.06103 0.0625-0.0625 12.906-12.906 33.781-12.906 46.688 0 0.0015 0.0015 0.06096 0.06111 0.0625 0.0625 0.0015 0.0014 0.09215 0.06119 0.09375 0.0625 0.0016 0.0013 0.06083 0.06127 0.0625 0.0625 0.0017 0.0012 0.09203 0.06135 0.09375 0.0625 0.0017 0.0012 0.06072 0.06144 0.0625 0.0625 0.0018 0.0011 0.09192 0.03027 0.09375 0.03125 0.0018 0.000977 0.09188 0.06161 0.09375 0.0625 0.0019 0.000886 0.09183 0.03046 0.09375 0.03125 0.0019 0.000793 0.0918 0.03055 0.09375 0.03125 0.002 0.000698 0.06052 0.03065 0.0625 0.03125 0.002 0.000601 0.09174 0.03075 0.09375 0.03125 0.002 0.000503 0.12297 0.03085 0.125 0.03125 0.002 0.000404 0.0917-0.000304 0.09375 0 0.0021 0.000304 0.09169 0.03105 0.09375 0.03125 0.0021 0.000203 0.09168-0.000102 0.09375 0 0.0021 0.000102 0.09168 0 0.09375 0 0.0021 0 0.09168 0.000102 0.09375 0 0.0021-0.000102 0.09169 0.000203 0.09375 0 0.0021-0.000203 0.0917-0.03095 0.09375-0.03125 0.0021-0.000304 0.09172 0.000404 0.09375 0 0.002-0.000404 0.12299-0.03075 0.125-0.03125 0.002-0.000503 0.09177-0.03065 0.09375-0.03125 0.002-0.000601 0.06055-0.03055 0.0625-0.03125 0.002-0.000698 0.09183-0.03046 0.09375-0.03125 0.0019-0.000793 0.09188-0.03036 0.09375-0.03125 0.0019-0.000886 0.09192-0.06152 0.09375-0.0625 0.0018-0.000977 0.09197-0.03019 0.09375-0.03125 0.0018-0.0011 0.06078-0.06135 0.0625-0.0625 0.0017-0.0012 0.09208-0.06127 0.09375-0.0625 0.0017-0.0012 0.0609-0.06119 0.0625-0.0625 0.0016-0.0013 0.09221-0.06111 0.09375-0.0625 0.0015-0.0014 0.06103-0.06103 0.0625-0.0625l4.9375-4.9375c0.0015-0.0015 0.06111-0.06096 0.0625-0.0625 0.0014-0.0015 0.06119-0.09215 0.0625-0.09375 0.0013-0.0016 0.06127-0.06083 0.0625-0.0625 0.0012-0.0017 0.06135-0.09203 0.0625-0.09375 0.0012-0.0017 0.06144-0.06072 0.0625-0.0625 0.0011-0.0018 0.03027-0.09192 0.03125-0.09375 0.000977-0.0018 0.06161-0.09188 0.0625-0.09375 0.000886-0.0019 0.03046-0.09183 0.03125-0.09375 0.000793-0.0019 0.03055-0.0918 0.03125-0.09375 0.000698-0.002 0.03065-0.06052 0.03125-0.0625 0.000601-0.002 0.03075-0.09174 0.03125-0.09375 0.000503-0.002 0.03085-0.12297 0.03125-0.125 0.000404-0.002-0.000304-0.0917 0-0.09375 0.000304-0.0021 0.03105-0.09169 0.03125-0.09375 0.000203-0.0021-0.000102-0.09168 0-0.09375 0.000102-0.0021 0-0.09168 0-0.09375 0-0.0021 0.000102-0.09168 0-0.09375-0.000102-0.0021 0.000203-0.09169 0-0.09375-0.000203-0.0021-0.03095-0.0917-0.03125-0.09375-0.000304-0.0021 0.000404-0.09172 0-0.09375-0.000404-0.002-0.03075-0.12299-0.03125-0.125-0.000503-0.002-0.03065-0.09177-0.03125-0.09375-0.000601-0.002-0.03055-0.06055-0.03125-0.0625-0.000698-0.002-0.03046-0.09183-0.03125-0.09375-0.000793-0.0019-0.03036-0.09188-0.03125-0.09375-0.000886-0.0019-0.06152-0.09192-0.0625-0.09375-0.000977-0.0018-0.03019-0.09197-0.03125-0.09375-0.0011-0.0018-0.06135-0.06078-0.0625-0.0625-0.0012-0.0017-0.06127-0.09208-0.0625-0.09375-0.0012-0.0017-0.06119-0.0609-0.0625-0.0625-0.0013-0.0016-0.06111-0.09221-0.0625-0.09375-0.0014-0.0015-0.06104-0.06103-0.0625-0.0625-8.585-8.582-19.84-12.907-31.098-12.907zm0 2c10.749 0 21.486 4.1115 29.688 12.312l-4.938 4.938c-13.668-13.668-35.832-13.668-49.5 0l-4.938-4.938c8.202-8.201 18.939-12.312 29.688-12.312zm0 12c-7.6714 0-15.368 2.9302-21.219 8.7812-0.0015 0.0015-0.06111 0.06096-0.0625 0.0625-0.0014 0.0015-0.06119 0.09215-0.0625 0.09375-0.0013 0.0016-0.06127 0.06083-0.0625 0.0625-0.0012 0.0017-0.06135 0.09203-0.0625 0.09375-0.0012 0.0017-0.06143 0.06072-0.0625 0.0625-0.0011 0.0018-0.03027 0.09192-0.03125 0.09375-0.000977 0.0018-0.06161 0.09188-0.0625 0.09375-0.000886 0.0019-0.03046 0.09183-0.03125 0.09375-0.000793 0.0019-0.03055 0.0918-0.03125 0.09375-0.000698 0.002-0.03065 0.06052-0.03125 0.0625-0.000601 0.002-0.03075 0.09174-0.03125 0.09375-0.000503 0.002-0.03085 0.12297-0.03125 0.125-0.000404 0.002 0.000304 0.0917 0 0.09375-0.000304 0.0021-0.03105 0.09169-0.03125 0.09375-0.000203 0.0021 0.000102 0.09168 0 0.09375-0.000102 0.0021 0 0.09168 0 0.09375 0 0.0021-0.000102 0.09168 0 0.09375 0.000102 0.0021-0.000203 0.09169 0 0.09375 0.000203 0.0021 0.03095 0.0917 0.03125 0.09375 0.000304 0.0021-0.000404 0.09172 0 0.09375 0.000404 0.002 0.03075 0.12299 0.03125 0.125 0.000503 0.002 0.03065 0.09177 0.03125 0.09375 0.000601 0.002 0.03055 0.06055 0.03125 0.0625 0.000698 0.002 0.03046 0.09183 0.03125 0.09375 0.000793 0.0019 0.03036 0.09188 0.03125 0.09375 0.000886 0.0019 0.06152 0.09192 0.0625 0.09375 0.000977 0.0018 0.03018 0.09197 0.03125 0.09375 0.0011 0.0018 0.06135 0.06078 0.0625 0.0625 0.0012 0.0017 0.06127 0.09208 0.0625 0.09375 0.0012 0.0017 0.06119 0.0609 0.0625 0.0625 0.0013 0.0016 0.06111 0.09221 0.0625 0.09375 0.0014 0.0015 0.06104 0.06103 0.0625 0.0625l4.97 4.966c0.0015 0.0015 0.06096 0.06111 0.0625 0.0625 0.0015 0.0014 0.09215 0.06119 0.09375 0.0625 0.0016 0.0013 0.06083 0.06127 0.0625 0.0625 0.0017 0.0012 0.09203 0.06135 0.09375 0.0625 0.0017 0.0012 0.06072 0.06144 0.0625 0.0625 0.0018 0.0011 0.09192 0.03027 0.09375 0.03125 0.0018 0.000977 0.09188 0.06161 0.09375 0.0625 0.0019 0.000886 0.09183 0.03046 0.09375 0.03125 0.0019 0.000793 0.0918 0.03055 0.09375 0.03125 0.002 0.000698 0.06052 0.03065 0.0625 0.03125 0.002 0.000601 0.09174 0.03075 0.09375 0.03125 0.002 0.000503 0.12297 0.03085 0.125 0.03125 0.002 0.000404 0.0917-0.000304 0.09375 0 0.0021 0.000304 0.09169 0.03105 0.09375 0.03125 0.0021 0.000203 0.09168-0.000102 0.09375 0 0.0021 0.000102 0.09168 0 0.09375 0 0.0021 0 0.09168 0.000102 0.09375 0 0.0021-0.000102 0.09169 0.000203 0.09375 0 0.0021-0.000203 0.0917-0.03095 0.09375-0.03125 0.0021-0.000304 0.09172 0.000404 0.09375 0 0.002-0.000404 0.12299-0.03075 0.125-0.03125 0.002-0.000503 0.09177-0.03065 0.09375-0.03125 0.002-0.000601 0.06055-0.03055 0.0625-0.03125 0.002-0.000698 0.09183-0.03046 0.09375-0.03125 0.0019-0.000793 0.09188-0.03036 0.09375-0.03125 0.0019-0.000886 0.09192-0.06152 0.09375-0.0625 0.0018-0.000977 0.09197-0.03019 0.09375-0.03125 0.0018-0.0011 0.06078-0.06135 0.0625-0.0625 0.0017-0.0012 0.09208-0.06127 0.09375-0.0625 0.0017-0.0012 0.0609-0.06119 0.0625-0.0625 0.0016-0.0013 0.09221-0.06111 0.09375-0.0625 0.0015-0.0014 0.06103-0.06103 0.0625-0.0625 7.4399-7.4399 19.435-7.4399 26.875 0 0.0015 0.0015 0.06096 0.06111 0.0625 0.0625 0.0015 0.0014 0.09215 0.06119 0.09375 0.0625 0.0016 0.0013 0.06083 0.06127 0.0625 0.0625 0.0017 0.0012 0.09203 0.06135 0.09375 0.0625 0.0017 0.0012 0.06072 0.06144 0.0625 0.0625 0.0018 0.0011 0.09192 0.03027 0.09375 0.03125 0.0018 0.000977 0.09188 0.06161 0.09375 0.0625 0.0019 0.000886 0.09183 0.03046 0.09375 0.03125 0.0019 0.000793 0.0918 0.03055 0.09375 0.03125 0.002 0.000698 0.06052 0.03065 0.0625 0.03125 0.002 0.000601 0.09174 0.03075 0.09375 0.03125 0.002 0.000503 0.12297 0.03085 0.125 0.03125 0.002 0.000404 0.0917-0.000304 0.09375 0 0.0021 0.000304 0.09169 0.03105 0.09375 0.03125 0.0021 0.000203 0.09168-0.000102 0.09375 0 0.0021 0.000102 0.09168 0 0.09375 0 0.0021 0 0.09168 0.000102 0.09375 0 0.0021-0.000102 0.09169 0.000203 0.09375 0 0.0021-0.000203 0.0917-0.03095 0.09375-0.03125 0.0021-0.000304 0.09172 0.000404 0.09375 0 0.002-0.000404 0.12299-0.03075 0.125-0.03125 0.002-0.000503 0.09177-0.03065 0.09375-0.03125 0.002-0.000601 0.06055-0.03055 0.0625-0.03125 0.002-0.000698 0.09183-0.03046 0.09375-0.03125 0.0019-0.000793 0.09188-0.03036 0.09375-0.03125 0.0019-0.000886 0.09192-0.06152 0.09375-0.0625 0.0018-0.000977 0.09197-0.03019 0.09375-0.03125 0.0018-0.0011 0.06078-0.06135 0.0625-0.0625 0.0017-0.0012 0.09208-0.06127 0.09375-0.0625 0.0017-0.0012 0.0609-0.06119 0.0625-0.0625 0.0016-0.0013 0.09221-0.06111 0.09375-0.0625 0.0015-0.0014 0.06103-0.06103 0.0625-0.0625l4.9688-4.9688c0.0015-0.0015 0.06111-0.06096 0.0625-0.0625 0.0014-0.0015 0.06119-0.09215 0.0625-0.09375 0.0013-0.0016 0.06127-0.06083 0.0625-0.0625 0.0012-0.0017 0.06135-0.09203 0.0625-0.09375 0.0012-0.0017 0.06144-0.06072 0.0625-0.0625 0.0011-0.0018 0.03027-0.09192 0.03125-0.09375 0.000977-0.0018 0.06161-0.09188 0.0625-0.09375 0.000886-0.0019 0.03046-0.09183 0.03125-0.09375 0.000793-0.0019 0.03055-0.0918 0.03125-0.09375 0.000698-0.002 0.03065-0.06052 0.03125-0.0625 0.000601-0.002 0.03075-0.09174 0.03125-0.09375 0.000503-0.002 0.03085-0.12297 0.03125-0.125 0.000404-0.002-0.000304-0.0917 0-0.09375 0.000304-0.0021 0.03105-0.09169 0.03125-0.09375 0.000203-0.0021-0.000102-0.09168 0-0.09375 0.000102-0.0021 0-0.09168 0-0.09375 0-0.0021 0.000102-0.09168 0-0.09375-0.000102-0.0021 0.000203-0.09169 0-0.09375-0.000203-0.0021-0.03095-0.0917-0.03125-0.09375-0.000304-0.0021 0.000404-0.09172 0-0.09375-0.000404-0.002-0.03075-0.12299-0.03125-0.125-0.000503-0.002-0.03065-0.09177-0.03125-0.09375-0.000601-0.002-0.03055-0.06055-0.03125-0.0625-0.000698-0.002-0.03046-0.09183-0.03125-0.09375-0.000793-0.0019-0.03036-0.09188-0.03125-0.09375-0.000886-0.0019-0.06152-0.09192-0.0625-0.09375-0.000977-0.0018-0.03019-0.09197-0.03125-0.09375-0.0011-0.0018-0.06135-0.06078-0.0625-0.0625-0.0012-0.0017-0.06127-0.09208-0.0625-0.09375-0.0012-0.0017-0.06119-0.0609-0.0625-0.0625-0.0013-0.0016-0.06111-0.09221-0.0625-0.09375-0.0014-0.0015-0.06104-0.06103-0.0625-0.0625-5.853-5.85-13.55-8.78-21.221-8.78zm0 2c7.1658 0 14.345 2.7202 19.812 8.1875l-4.9688 4.9688c-8.201-8.201-21.486-8.201-29.688 0l-4.967-4.969c5.467-5.468 12.646-8.188 19.812-8.188zm0 12c-4.089 0-8.195 1.57-11.312 4.6875-0.0015 0.0015-0.06111 0.06096-0.0625 0.0625-0.0014 0.0015-0.06119 0.09215-0.0625 0.09375-0.0013 0.0016-0.06127 0.06083-0.0625 0.0625-0.0012 0.0017-0.06135 0.09203-0.0625 0.09375-0.0012 0.0017-0.06144 0.06072-0.0625 0.0625-0.0011 0.0018-0.03027 0.09192-0.03125 0.09375-0.000977 0.0018-0.06161 0.09188-0.0625 0.09375-0.000886 0.0019-0.03046 0.09183-0.03125 0.09375-0.000793 0.0019-0.03055 0.0918-0.03125 0.09375-0.000698 0.002-0.03065 0.06052-0.03125 0.0625-0.000601 0.002-0.03075 0.09174-0.03125 0.09375-0.000503 0.002-0.03085 0.12297-0.03125 0.125-0.000404 0.002 0.000304 0.0917 0 0.09375-0.000304 0.0021-0.03105 0.09169-0.03125 0.09375-0.000203 0.0021 0.000102 0.09168 0 0.09375-0.000102 0.0021 0 0.09168 0 0.09375 0 0.0021-0.000102 0.09168 0 0.09375 0.000102 0.0021-0.000203 0.09169 0 0.09375 0.000203 0.0021 0.03095 0.0917 0.03125 0.09375 0.000304 0.0021-0.000404 0.09172 0 0.09375 0.000404 0.002 0.03075 0.12299 0.03125 0.125 0.000503 0.002 0.03065 0.09177 0.03125 0.09375 0.000601 0.002 0.03055 0.06055 0.03125 0.0625 0.000698 0.002 0.03046 0.09183 0.03125 0.09375 0.000793 0.0019 0.03036 0.09188 0.03125 0.09375 0.000886 0.0019 0.06152 0.09192 0.0625 0.09375 0.000977 0.0018 0.03019 0.09197 0.03125 0.09375 0.0011 0.0018 0.06135 0.06078 0.0625 0.0625 0.0012 0.0017 0.06127 0.09208 0.0625 0.09375 0.0012 0.0017 0.06119 0.0609 0.0625 0.0625 0.0013 0.0016 0.06111 0.09221 0.0625 0.09375 0.0014 0.0015 0.06103 0.06103 0.0625 0.0625l9.9062 9.9062c0.0015 0.0015 0.06096 0.06111 0.0625 0.0625 0.0015 0.0014 0.09215 0.06119 0.09375 0.0625 0.0016 0.0013 0.06083 0.06127 0.0625 0.0625 0.0017 0.0012 0.09203 0.06135 0.09375 0.0625 0.0017 0.0012 0.06072 0.06144 0.0625 0.0625 0.0018 0.0011 0.09192 0.03027 0.09375 0.03125 0.0018 0.000977 0.09188 0.06161 0.09375 0.0625 0.0019 0.000886 0.09183 0.03046 0.09375 0.03125 0.0019 0.000793 0.0918 0.03055 0.09375 0.03125 0.002 0.000698 0.06052 0.03065 0.0625 0.03125 0.002 0.000601 0.09174 0.03075 0.09375 0.03125 0.002 0.000503 0.12297 0.03085 0.125 0.03125 0.002 0.000404 0.0917-0.000304 0.09375 0 0.0021 0.000304 0.09169 0.03105 0.09375 0.03125 0.0021 0.000203 0.09168-0.000102 0.09375 0 0.0021 0.000102 0.09168 0 0.09375 0 0.0021 0 0.09168 0.000102 0.09375 0 0.0021-0.000102 0.09169 0.000203 0.09375 0 0.0021-0.000203 0.0917-0.03095 0.09375-0.03125 0.0021-0.000304 0.09172 0.000404 0.09375 0 0.002-0.000404 0.12299-0.03075 0.125-0.03125 0.002-0.000503 0.09177-0.03065 0.09375-0.03125 0.002-0.000601 0.06055-0.03055 0.0625-0.03125 0.002-0.000698 0.09183-0.03046 0.09375-0.03125 0.0019-0.000793 0.09188-0.03036 0.09375-0.03125 0.0019-0.000886 0.09192-0.06152 0.09375-0.0625 0.0018-0.000977 0.09197-0.03019 0.09375-0.03125 0.0018-0.0011 0.06078-0.06135 0.0625-0.0625 0.0017-0.0012 0.09208-0.06127 0.09375-0.0625 0.0017-0.0012 0.0609-0.06119 0.0625-0.0625 0.0016-0.0013 0.09221-0.06111 0.09375-0.0625 0.0015-0.0014 0.06103-0.06104 0.0625-0.0625l9.905-9.906c0.0015-0.0015 0.06111-0.06096 0.0625-0.0625 0.0014-0.0015 0.06119-0.09215 0.0625-0.09375 0.0013-0.0016 0.06127-0.06083 0.0625-0.0625 0.0012-0.0017 0.06135-0.09203 0.0625-0.09375 0.0012-0.0017 0.06144-0.06072 0.0625-0.0625 0.0011-0.0018 0.03027-0.09192 0.03125-0.09375 0.000977-0.0018 0.06161-0.09188 0.0625-0.09375 0.000886-0.0019 0.03046-0.09183 0.03125-0.09375 0.000793-0.0019 0.03055-0.0918 0.03125-0.09375 0.000698-0.002 0.03065-0.06052 0.03125-0.0625 0.000601-0.002 0.03075-0.09174 0.03125-0.09375 0.000503-0.002 0.03085-0.12297 0.03125-0.125 0.000404-0.002-0.000304-0.0917 0-0.09375 0.000304-0.0021 0.03105-0.09169 0.03125-0.09375 0.000203-0.0021-0.000102-0.09168 0-0.09375 0.000102-0.0021 0-0.09168 0-0.09375 0-0.0021 0.000102-0.09168 0-0.09375-0.000102-0.0021 0.000203-0.09169 0-0.09375-0.000203-0.0021-0.03095-0.0917-0.03125-0.09375-0.000304-0.0021 0.000404-0.09172 0-0.09375-0.000404-0.002-0.03075-0.12299-0.03125-0.125 0-0.001-0.03-0.091-0.031-0.093 0-0.002-0.03-0.061-0.031-0.062 0-0.002-0.03-0.092-0.031-0.094s-0.03-0.092-0.031-0.094-0.062-0.092-0.063-0.094-0.03-0.092-0.031-0.094c-0.001-0.001-0.061-0.06-0.063-0.062-0.001-0.002-0.061-0.092-0.062-0.094l-0.062-0.062c-0.002-0.002-0.062-0.092-0.063-0.094s-0.061-0.061-0.063-0.062c-3.117-3.118-7.223-4.688-11.312-4.688zm0 2c3.5829 0 7.1726 1.3601 9.9062 4.0938l-9.906 9.906-9.906-9.906c2.733-2.734 6.323-4.094 9.906-4.094z" fill="#fff"/>
   <path id="path3938" opacity=".1" d="m48 30.938c-11.019 0-22.034 4.2219-30.438 12.625a1.0613 1.0613 0 0 0 0 1.5l4.938 4.937a1.0613 1.0613 0 0 0 1.5 0c13.263-13.263 34.737-13.263 48 0a1.0613 1.0613 0 0 0 1.5 0l4.9375-4.9375a1.0613 1.0613 0 0 0 0 -1.5c-8.404-8.403-19.419-12.624-30.438-12.624zm0 1.062c10.749 0 21.486 4.1115 29.688 12.312l-4.938 4.938c-13.668-13.668-35.832-13.668-49.5 0l-4.938-4.938c8.202-8.201 18.939-12.312 29.688-12.312zm0 12.938c-7.4344 0-14.891 2.8287-20.562 8.5a1.0613 1.0613 0 0 0 0 1.5l4.9688 4.9688a1.0613 1.0613 0 0 0 1.5 0c7.7958-7.7958 20.392-7.7958 28.188 0a1.0613 1.0613 0 0 0 1.5 0l4.967-4.969a1.0613 1.0613 0 0 0 0 -1.5c-5.671-5.672-13.128-8.5-20.562-8.5zm0 1.062c7.1658 0 14.345 2.7202 19.812 8.1875l-4.9688 4.9688c-8.201-8.201-21.486-8.201-29.688 0l-4.967-4.969c5.467-5.468 12.646-8.188 19.812-8.188zm0 12.938c-3.8515 0-7.7186 1.4686-10.656 4.4062a1.0613 1.0613 0 0 0 0 1.5l9.906 9.906a1.0613 1.0613 0 0 0 1.5 0l9.9062-9.9062a1.0613 1.0613 0 0 0 0 -1.5c-2.937-2.938-6.805-4.406-10.656-4.406zm0 1.062c3.5829 0 7.1726 1.3601 9.9062 4.0938l-9.906 9.906-9.906-9.906c2.733-2.734 6.323-4.094 9.906-4.094z" fill="#fff"/>
   <path id="path3975-5" opacity=".2" d="m48 39c-8.9579 0-17.916 3.4158-24.75 10.25l-4.4375-4.4375c-0.16939 0.16389-0.3327 0.3327-0.5 0.5l4.938 4.938c13.668-13.668 35.832-13.668 49.5 0l4.9375-4.9375c-0.1673-0.1673-0.33061-0.33611-0.5-0.5l-4.438 4.438c-6.834-6.834-15.792-10.25-24.75-10.25zm0 14c-5.3716 0-10.743 2.0557-14.844 6.1562l-4.468-4.468c-0.17138 0.16299-0.33181 0.33181-0.5 0.5l4.9688 4.9688c8.201-8.201 21.486-8.201 29.688 0l4.967-4.969c-0.16819-0.16819-0.32862-0.33701-0.5-0.5l-4.4688 4.4688c-4.1-4.101-9.471-6.157-14.843-6.157zm-9.375 11.625c-0.17464 0.15794-0.3629 0.3004-0.53125 0.46875l9.906 9.906 9.906-9.906c-0.168-0.169-0.356-0.311-0.531-0.469l-9.375 9.375-9.375-9.375z" fill="#fff"/>
  </g>
 </g>
</svg>
