<?xml version="1.0" encoding="UTF-8" standalone="no"?>
<!-- Created with Inkscape (http://www.inkscape.org/) -->
<svg id="svg2" xmlns:rdf="http://www.w3.org/1999/02/22-rdf-syntax-ns#" xmlns="http://www.w3.org/2000/svg" height="96" width="96" version="1.1" xmlns:cc="http://creativecommons.org/ns#" xmlns:xlink="http://www.w3.org/1999/xlink" xmlns:dc="http://purl.org/dc/elements/1.1/">
 <defs id="defs4">
  <linearGradient id="linearGradient3613-3" y2="138.66" gradientUnits="userSpaceOnUse" x2="48" y1="20.221" x1="48">
   <stop id="stop3739-10" stop-color="#fff" offset="0"/>
   <stop id="stop3741-2" stop-color="#fff" stop-opacity="0" offset="1"/>
  </linearGradient>
  <clipPath id="clipPath3613-29">
   <rect id="rect3615-1" rx="6" ry="6" height="84" width="84" y="6" x="6" fill="#fff"/>
  </clipPath>
  <filter id="filter3794-0" height="1.384" width="1.384" color-interpolation-filters="sRGB" y="-.192" x="-.192">
   <feGaussianBlur id="feGaussianBlur3796-8" stdDeviation="5.28"/>
  </filter>
  <clipPath id="clipPath3613-25">
   <rect id="rect3615-14" rx="6" ry="6" height="84" width="84" y="6" x="6" fill="#fff"/>
  </clipPath>
  <filter id="filter3794-6" height="1.384" width="1.384" color-interpolation-filters="sRGB" y="-.192" x="-.192">
   <feGaussianBlur id="feGaussianBlur3796-26" stdDeviation="5.28"/>
  </filter>
  <clipPath id="clipPath3860">
   <rect id="rect3862" rx="6" ry="6" height="72" width="84" y="18" x="6" fill="#f0f"/>
  </clipPath>
  <filter id="filter3870" height="1.3943" width="1.3312" color-interpolation-filters="sRGB" y="-.19716" x="-.16559">
   <feGaussianBlur id="feGaussianBlur3872" stdDeviation="5.1703125"/>
  </filter>
  <linearGradient id="linearGradient5696" y2="81.481" gradientUnits="userSpaceOnUse" x2="48.022" y1="22.933" x1="48.022">
   <stop id="stop3876" stop-color="#fff" offset="0"/>
   <stop id="stop3878" stop-color="#fff" stop-opacity="0" offset="1"/>
  </linearGradient>
  <linearGradient id="linearGradient4640" y2="48.005" gradientUnits="userSpaceOnUse" x2="6.1872" gradientTransform="translate(0 956.36)" y1="48.005" x1="93.008">
   <stop id="stop4636" stop-color="#be8e4a" stop-opacity=".076923" offset="0"/>
   <stop id="stop4638" stop-color="#a67c25" offset="1"/>
  </linearGradient>
  <linearGradient id="linearGradient4419" y2="39.99" xlink:href="#linearGradient3699-69" gradientUnits="userSpaceOnUse" x2="128" gradientTransform="matrix(.20234 0 0 .19826 18.677 22.072)" y1="272.01" x1="128"/>
  <linearGradient id="linearGradient3699-69">
   <stop id="stop3701-7" stop-color="#aa7932" stop-opacity=".78431" offset="0"/>
   <stop id="stop3703-54" stop-color="#aa7932" stop-opacity=".39216" offset="1"/>
  </linearGradient>
 </defs>
 <metadata id="metadata7">
  <rdf:RDF>
   <cc:Work rdf:about="">
    <dc:format>image/svg+xml</dc:format>
    <dc:type rdf:resource="http://purl.org/dc/dcmitype/StillImage"/>
    <dc:title/>
   </cc:Work>
  </rdf:RDF>
 </metadata>
 <g id="layer1" transform="translate(0 -956.36)">
  <rect id="rect5263-0" fill-opacity=".019608" ry="12.724" height="89.978" width="89.978" y="959.35" x="2.9998"/>
  <rect id="rect5261-6" fill-opacity=".039216" ry="12.552" height="88.762" width="88.762" y="959.96" x="3.6078"/>
  <rect id="rect5259-9" fill-opacity=".078431" ry="12.38" height="87.546" width="87.546" y="960.57" x="4.2157"/>
  <rect id="rect5257-5" fill-opacity=".15686" ry="12.208" height="86.33" width="86.33" y="961.18" x="4.8237"/>
  <path id="rect2419-5" d="m17.469 961.77c-6.2512 0-11.355 4.7568-11.969 10.844v63.469c0.61364 6.0834 5.7175 10.812 11.969 10.812h61.031c6.4543 0 11.671-5.0367 12-11.406v-62.281c-0.32117-6.3771-5.5404-11.438-12-11.438h-61.031z" fill="#cc993d"/>
  <rect id="rect3171" ry="12" stroke="#fff" stroke-linecap="round" stroke-width=".5" fill="url(#linearGradient3613-3)" rx="12" transform="matrix(1.0149 0 0 1.0238 -.83801 955.22)" width="66" opacity=".05" clip-path="url(#clipPath3613-29)" height="66" filter="url(#filter3794-0)" y="15" x="15"/>
  <path id="path5865" d="m17.469 961.77c-6.2512 0-11.355 4.7568-11.969 10.844v63.469c0.07233 0.717 0.21463 1.4198 0.40625 2.0937-0.14675-1.3295-0.26905-2.6965-0.34375-4.0937v-59.281c0-2.3816 0.62452-7.4626 6.625-7.4688h12.75c4.9632 0 7.6402-1.0079 10.125 3.7188 3.0657 4.2041 4.006 4.8869 9.5625 4.2812h40.656c3.7739-0.0442 5.1676 1.5874 5.2188 5.4375v-7.5625c-0.32117-6.3771-5.5404-11.438-12-11.438h-61.031zm73.031 69.73c-0.04406 2.2078-0.18649 4.3503-0.40625 6.4063 0.21124-0.7976 0.36211-1.6143 0.40625-2.4688v-3.9375zm-1.0625 8.2813c-0.13416 0.2981-0.28057 0.5904-0.4375 0.875 0.1575-0.2841 0.30285-0.5773 0.4375-0.875zm-0.438 0.9c-0.15693 0.2845-0.32144 0.5427-0.5 0.8125 0.17482-0.2638 0.34595-0.5347 0.5-0.8125zm-81.906 0.25c0.15696 0.2676 0.32348 0.5274 0.5 0.7812-0.1807-0.2598-0.33982-0.5069-0.5-0.7812zm76.188 4.9375c-0.26128 0.1134-0.54176 0.2175-0.8125 0.3125 0.27423-0.096 0.5479-0.198 0.8125-0.3125zm-69.625 0.375c0.2786 0.093 0.55637 0.1773 0.84375 0.25-0.28437-0.072-0.56799-0.1586-0.84375-0.25zm67.625 0.2812c-0.24437 0.058-0.4999 0.1135-0.75 0.1563 0.25388-0.043 0.50195-0.097 0.75-0.1563z" fill="url(#linearGradient4640)"/>
  <g id="layer5" transform="matrix(1.0168 0 0 1.021 -.61038 955.51)">
   <rect id="rect3171-4" height="66" stroke="#fff" stroke-linecap="round" stroke-width=".5" fill="url(#linearGradient3613-3)" rx="12" ry="12" width="66" opacity=".1" clip-path="url(#clipPath3613-25)" filter="url(#filter3794-6)" y="15" x="15"/>
  </g>
  <path id="path7506" opacity=".55020" d="m28.25 966.31c-0.98771 0.0223-2.0717 0.10149-3.3125 0.10149h-12.75c-6.0005 0.007-6.625 6.3566-6.625 8.9362v0.81233c0-2.5796 0.62452-8.0829 6.625-8.0895h12.75c4.9632 0 7.7652-0.96667 10.125 3.3403 3.0657 4.5536 4.006 5.293 9.5625 4.6371h40.656c3.7739-0.0479 5.1676 1.7193 5.2188 5.8894v-0.81234c-0.05112-4.1701-1.4448-5.9373-5.2188-5.8894h-40.656c-5.5565 0.65596-6.4968-0.0835-9.5625-4.6371-1.8636-3.8396-3.8494-4.3555-6.8125-4.2885z" fill="#f9f9f9"/>
  <rect id="rect3634" opacity="0" height="1" width="84.972" y="973.33" x="5.5655"/>
  <path id="path7563" opacity=".20482" d="m35.742 968.8c0.0231 0.043 0.0394 0.081 0.0625 0.125 0.034 0.047 0.0603 0.079 0.0937 0.125h45.625c2.0566 0 3.7188 1.6621 3.7188 3.7187v-0.25c0-2.0566-1.6621-3.7187-3.7188-3.7187h-45.781z" fill-opacity=".58962" fill="#fff"/>
  <path id="path7516" opacity=".51807" d="m35.742 969.05c0.0231 0.043 0.0394 0.081 0.0625 0.125 0.0241 0.033 0.0386 0.061 0.0625 0.094h45.656c2.0566 0 3.7188 1.6621 3.7188 3.7187v-0.2187c0-2.0566-1.6621-3.7188-3.7188-3.7188l-45.781 0.0001z" fill-opacity=".58962" fill="#fff"/>
  <path id="path7514" opacity=".74699" d="m35.742 969.27c0.0231 0.043 0.0394 0.081 0.0625 0.125 0.0335 0.046 0.0607 0.08 0.0937 0.125h45.625c0.25708 0 0.50773 0.013 0.75 0.063 0.24227 0.049 0.46498 0.1248 0.6875 0.2188 0.23229 0.096 0.45057 0.2049 0.65625 0.3437 0.2043 0.138 0.35868 0.294 0.53125 0.4688 0.32871 0.3328 0.62762 0.7185 0.8125 1.1562 0.004 0.01-0.004 0.023 0 0.031 0.18093 0.4379 0.28125 0.9336 0.28125 1.4375v-0.25c0-2.0566-1.6621-3.7187-3.7188-3.7187h-45.781z" fill-opacity=".58962" fill="#fff"/>
  <path id="rect7493" fill-opacity=".83019" fill="#fff" d="m35.751 969.5c0.0231 0.043 0.0394 0.081 0.0625 0.125 3.0657 4.2041 4.006 4.8869 9.5625 4.2813h39.875v-0.6875c0-2.0567-1.6621-3.7188-3.7188-3.7188h-45.781z"/>
  <g id="g5676" transform="matrix(.94641 0 0 .84994 2.9331 964.94)">
   <path id="path5678" opacity=".15" filter="url(#filter3870)" d="m15.969 22.531c-2.8459 0.0043-5.4332 2.5916-5.4375 5.4375v48.062c0.0043 2.8459 2.5916 5.4332 5.4375 5.4375h64.062c2.8459-0.0043 5.4332-2.5916 5.4375-5.4375v-48.062c-0.0043-2.8459-2.5916-5.4332-5.4375-5.4375z" clip-path="url(#clipPath3860)" fill="url(#linearGradient5696)"/>
  </g>
  <path id="rect5265-0" d="m5.3323 1029.9v5.0663c0 6.668 5.3645 12.032 12.032 12.032h61.049c6.668 0 12.032-5.3645 12.032-12.032v-5.0663c0 6.6681-5.3645 12.032-12.032 12.032h-61.049c-6.668 0-12.032-5.3643-12.032-12.032z" fill-opacity=".11765"/>
  <path id="path5252-0" d="m5.3323 1033.9v1.0133c0 6.668 5.3645 12.032 12.032 12.032h61.049c6.668 0 12.032-5.3645 12.032-12.032v-1.0133c0 6.6681-5.3645 12.032-12.032 12.032h-61.049c-6.668 0-12.032-5.3644-12.032-12.032z" fill-opacity=".098039"/>
  <g id="layer6" fill-rule="evenodd" transform="translate(-.61705 956.81)">
   <path id="path4455" opacity=".05" style="color:#000000" d="m55.688 27.969c-2.2657 0.04822-4.5402 0.88697-6.375 2.4375-2.8399 2.3999-3.3365 5.3479-3.5312 7.375-0.19475 2.0271-0.1369 3.0022-1.6875 4.3125-1.5491 1.309-2.5772 1.1082-4.6562 1-2.0791-0.10819-5.0962-0.05728-7.9375 2.3438-1.3254 1.12-2.266 2.5148-2.8438 4-0.0033 0.0085 0.0033 0.02274 0 0.03125-0.000697 0.0023 0.0013 0.02685 0 0.03125-0.0055 0.01863-0.01847 0.07976-0.03125 0.125-0.08283 0.21478-0.19071 0.4481-0.28125 0.78125-0.01361 0.05009-0.0716 0.20019-0.125 0.4375-0.0034 0.015 0.003 0.01622 0 0.03125s0.0026 0.01624 0 0.03125c-0.0611 0.28147-0.11885 0.57467-0.15625 0.875-0.0019 0.01517 0.0015 0.0161 0 0.03125-0.01711 0.14388-0.02479 0.26591-0.03125 0.375-0.01221-0.01801-0.05051 0.10342-0.0625 0.375-0.0078 0.18532-0.002 0.23579 0 0.15625-0.0049 0.17365-0.0029 0.22018 0 0.09375-0.0027 0.13267-0.0029 0.23896 0 0.375-0.0011-0.05705-0.0088 0.0397 0 0.25 0.01219 0.27015 0.05034 0.39256 0.0625 0.375 0.0039 0.09025 0.0064 0.20865 0.03125 0.40625 0.0387 0.31083 0.09239 0.61585 0.15625 0.90625 0.0028 0.01478-0.0032 0.01651 0 0.03125 0.05183 0.22837 0.10849 0.37734 0.125 0.4375 0.07543 0.27754 0.1451 0.46265 0.21875 0.65625 0.02104 0.05532 0.04347 0.13809 0.0625 0.1875 0.0058 0.02098-0.000068 0.09357 0 0.09375a2.021 2.021 0 0 0 0.03125 0c0.49866 1.2923 1.3317 2.4506 2.375 3.4688 0.01634 0.01595 0.01478 0.04664 0.03125 0.0625a2.021 2.021 0 0 0 0.09375 0.125 2.021 2.021 0 0 0 0.34375 0.34375 2.021 2.021 0 0 0 0 0.03125c2.8413 2.401 5.8584 2.4519 7.9375 2.3438 2.0791-0.10819 3.1072-0.30904 4.6562 1 1.5506 1.3103 1.4928 2.2854 1.6875 4.3125 0.19475 2.0271 0.69134 4.9751 3.5312 7.375 4.2127 3.56 10.607 3.1393 14.25-1 3.6434-4.1393 3.1543-10.499-1.0625-14.062-2.8413-2.401-5.8584-2.4519-7.9375-2.3438-2.0791 0.10819-3.1072 0.30904-4.6562-1-1.504-1.269-1.482-2.266-1.656-4.185 0.17384-1.9193 0.15197-2.9163 1.6562-4.1875 1.5491-1.309 2.5772-1.1082 4.6562-1 2.0791 0.10819 5.0962 0.05727 7.9375-2.3438 4.2168-3.5634 4.7059-9.9232 1.0625-14.062-2.0498-2.3288-4.9753-3.4992-7.875-3.4375zm0.031 2.031c2.3317-0.04962 4.6704 0.88439 6.3125 2.75 2.9193 3.3166 2.5412 8.3271-0.84375 11.188-4.7625 4.0246-8.4407-0.16585-12.594 3.3438-2.098 1.7729-2.1811 3.7097-2.375 5.7188 0.1939 2.009 0.27702 3.9458 2.375 5.7188 4.1531 3.5096 7.8312-0.68087 12.594 3.3438 3.3849 2.8605 3.7631 7.8709 0.84375 11.188-2.92 3.315-8.022 3.671-11.407 0.81-4.763-4.024-1.066-8.177-5.219-11.687s-7.831 0.681-12.594-3.344v-0.03125c-1.0578-0.89389-1.8197-1.9914-2.2812-3.1875-0.003-0.008 0.0031-0.02335 0-0.03125-0.09295-0.24324-0.1821-0.46891-0.25-0.71875-0.03066-0.11174-0.06819-0.23113-0.09375-0.34375-0.0027-0.01233 0.0027-0.0189 0-0.03125-0.05192-0.2361-0.0952-0.47939-0.125-0.71875-0.0156-0.12426-0.02165-0.25036-0.03125-0.375-0.0065-0.08415-0.02745-0.16576-0.03125-0.25-0.0024-0.05743 0.0011-0.13002 0-0.1875-0.0024-0.11236-0.0023-0.2002 0-0.3125 0.000323-0.0143-0.000406-0.04821 0-0.0625 0.0011-0.04292-0.0018-0.08212 0-0.125 0.0037-0.08424 0.02475-0.16585 0.03125-0.25 0.0084-0.11192 0.01799-0.23226 0.03125-0.34375 0.0015-0.01247-0.0016-0.01878 0-0.03125 0.02981-0.23936 0.07308-0.48265 0.125-0.71875 0.0026-0.01226-0.0028-0.01902 0-0.03125 0.02519-0.11194 0.06361-0.23283 0.09375-0.34375 0.0679-0.24984 0.15705-0.47551 0.25-0.71875 0.003-0.0079-0.0031-0.02345 0-0.03125 0.46156-1.1961 1.2235-2.3249 2.2812-3.2188 4.7625-4.0246 8.4407 0.16586 12.594-3.3438 4.1531-3.5096 0.45621-7.6629 5.2188-11.688 1.4809-1.2514 3.2802-1.8989 5.0938-1.9375z" fill="#fff"/>
   <path id="path4446" opacity=".1" style="color:#000000" d="m55.688 29c-2.0404 0.04343-4.0603 0.75476-5.7188 2.1562-2.6114 2.2068-2.995 4.7151-3.1875 6.7188s-0.21856 3.4369-2.0312 4.9688c-1.8119 1.5312-3.3184 1.357-5.375 1.25-2.0566-0.10702-4.6067-0.11358-7.2188 2.0938-1.1958 1.0106-2.0432 2.2791-2.5625 3.625-0.000046 0.000115 0.0015 0.02631 0 0.03125-0.01095 0.03709-0.05571 0.15938-0.0625 0.21875-0.07038 0.18514-0.15526 0.36015-0.21875 0.59375-0.02185 0.0804-0.08566 0.23141-0.125 0.40625-0.0035 0.01533 0.0026 0.01592 0 0.03125-0.05792 0.26337-0.09073 0.53733-0.125 0.8125-0.01406 0.10962-0.000535 0.21227 0 0.21875-0.0064 0.07091-0.02657 0.15657-0.03125 0.21875 0.0026-0.03308-0.02137 0.0576-0.03125 0.28125-0.0048 0.11434-0.000475 0.14352 0 0.125-0.0027 0.09424-0.0013 0.1188 0 0.0625-0.0025 0.12252-0.0027 0.25076 0 0.375 0 0.000022-0.0056 0.05338 0 0.1875 0.01005 0.22269 0.03379 0.31433 0.03125 0.28125 0.0081 0.10496 0.0091 0.26128 0.03125 0.4375 0.03426 0.27522 0.06709 0.54916 0.125 0.8125 0.0024 0.01509-0.0033 0.01618 0 0.03125 0.03874 0.17069 0.10144 0.32039 0.125 0.40625 0.08628 0.31746 0.19082 0.57586 0.28125 0.8125a1.0139 1.0139 0 0 0 0 0.03125c0.48347 1.2529 1.287 2.3821 2.3438 3.3438 0.0058 0.0053-0.0058 0.026 0 0.03125a1.0139 1.0139 0 0 0 0.03125 0.03125 1.0139 1.0139 0 0 0 0.1875 0.1875 1.0139 1.0139 0 0 0 0 0.03125c2.612 2.2073 5.1621 2.2008 7.2188 2.0938 2.0566-0.10702 3.5631-0.28117 5.375 1.25 1.8127 1.5318 1.8388 2.9651 2.0312 4.9688 0.1925 2.0037 0.57613 4.512 3.1875 6.7188 3.8002 3.2114 9.5299 2.7919 12.812-0.9375 3.2826-3.7294 2.8648-9.4119-0.9375-12.625-2.611-2.205-5.161-2.199-7.218-2.091-2.057 0.107-3.563 0.281-5.375-1.25-1.799-1.521-1.844-2.948-2.031-4.938 0.1877-1.9896 0.23208-3.4171 2.0312-4.9375 1.8119-1.5312 3.3184-1.357 5.375-1.25 2.0566 0.10702 4.6067 0.11358 7.2188-2.0938 3.8023-3.2131 4.2201-8.8956 0.9375-12.625-1.846-2.098-4.477-3.15-7.093-3.094zm0.03125 1c2.3317-0.04962 4.6704 0.88439 6.3125 2.75 2.9193 3.3166 2.5412 8.3271-0.84375 11.188-4.7625 4.0246-8.4407-0.16585-12.594 3.3438-2.098 1.7729-2.1811 3.7097-2.375 5.7188 0.1939 2.009 0.27702 3.9458 2.375 5.7188 4.1531 3.5096 7.8312-0.68087 12.594 3.3438 3.3849 2.8605 3.7631 7.8709 0.84375 11.188-2.92 3.315-8.022 3.671-11.407 0.81-4.763-4.024-1.066-8.177-5.219-11.687s-7.831 0.681-12.594-3.344v-0.03125c-1.0578-0.89389-1.8197-1.9914-2.2812-3.1875-0.003-0.008 0.0031-0.02335 0-0.03125-0.09295-0.24324-0.1821-0.46891-0.25-0.71875-0.03066-0.11174-0.06819-0.23113-0.09375-0.34375-0.0027-0.01233 0.0027-0.0189 0-0.03125-0.05192-0.2361-0.0952-0.47939-0.125-0.71875-0.0156-0.12426-0.02165-0.25036-0.03125-0.375-0.0065-0.08415-0.02745-0.16576-0.03125-0.25-0.0024-0.05743 0.0011-0.13002 0-0.1875-0.0024-0.11236-0.0023-0.2002 0-0.3125 0.000323-0.0143-0.000406-0.04821 0-0.0625 0.0011-0.04292-0.0018-0.08212 0-0.125 0.0037-0.08424 0.02475-0.16585 0.03125-0.25 0.0084-0.11192 0.01799-0.23226 0.03125-0.34375 0.0015-0.01247-0.0016-0.01878 0-0.03125 0.02981-0.23936 0.07308-0.48265 0.125-0.71875 0.0026-0.01226-0.0028-0.01902 0-0.03125 0.02519-0.11194 0.06361-0.23283 0.09375-0.34375 0.0679-0.24984 0.15705-0.47551 0.25-0.71875 0.003-0.0079-0.0031-0.02345 0-0.03125 0.46156-1.1961 1.2235-2.3249 2.2812-3.2188 4.7625-4.0246 8.4407 0.16586 12.594-3.3438 4.1531-3.5096 0.45621-7.6629 5.2188-11.688 1.4809-1.2514 3.2802-1.8989 5.0938-1.9375z" fill="#fff"/>
   <path id="path3984-0-3-4-7" opacity=".9" style="color:#000000" d="m55.73 30.002c-1.8135 0.0386-3.6281 0.66916-5.109 1.9206-4.7625 4.0246-1.0634 8.2061-5.2165 11.716-4.1531 3.5096-7.833-0.68524-12.596 3.3394v0.0062c-1.0578 0.89389-1.8211 2.0008-2.2826 3.1969-0.0031 0.0078-0.0033 0.01691-0.0063 0.02479-0.09295 0.24324-0.17238 0.48743-0.24028 0.73726-0.03014 0.11092-0.06334 0.22262-0.08853 0.33456-0.0028 0.01223-0.0037 0.02492-0.0063 0.03718-0.05192 0.2361-0.09033 0.47312-0.12014 0.71248-0.000262 0.002 0.000243 0.0041 0 0.0062-0.0016 0.01247-0.0048 0.0247-0.0063 0.03717-0.01326 0.11149-0.02319 0.22264-0.03162 0.33456-0.0065 0.08415-0.01525 0.16977-0.01897 0.25402-0.0018 0.04288-0.0052 0.08719-0.0063 0.13011-0.000406 0.01429 0.000323 0.02907 0 0.04337-0.0023 0.1123-0.0024 0.2222 0 0.33456 0.0011 0.05748 0.0039 0.11605 0.0063 0.17348 0.0038 0.08424 0.01251 0.16986 0.01897 0.25402 0.0096 0.12464 0.02235 0.24747 0.03795 0.37173 0.000244 0.002-0.000262 0.0041 0 0.0062 0.0298 0.23936 0.06822 0.47638 0.12014 0.71248 0.0027 0.01235 0.0036 0.02484 0.0063 0.03717 0.02556 0.11262 0.05787 0.22282 0.08853 0.33456 0.0679 0.24984 0.14732 0.49402 0.24028 0.73726 0.0031 0.0079 0.0033 0.01683 0.0063 0.02479 0.46156 1.1961 1.2248 2.303 2.2826 3.1969v0.0062c4.7625 4.0246 8.4424-0.17022 12.596 3.3394 4.1531 3.5096 0.45398 7.6911 5.2165 11.716 3.3849 2.8604 8.4938 2.4864 11.413-0.8302 2.9193-3.3166 2.5439-8.3224-0.84097-11.183-4.7625-4.0246-8.4424 0.17642-12.596-3.3332-2.098-1.7729-2.1899-3.7218-2.3838-5.7308 0.1939-2.009 0.28581-3.9579 2.3838-5.7308 4.1531-3.5096 7.833 0.69144 12.596-3.3332 3.3849-2.8604 3.7603-7.8662 0.84097-11.183-1.6421-1.8656-3.9724-2.8004-6.3041-2.7508z" fill="url(#linearGradient4419)"/>
   <path id="path4380" style="color:#000000" d="m55.719 30c-1.8135 0.0386-3.6128 0.68605-5.0938 1.9375-4.7625 4.0246-1.0657 8.1779-5.2188 11.688-4.1531 3.5096-7.8312-0.68087-12.594 3.3438-1.0578 0.89389-1.8197 2.0226-2.2812 3.2188-0.0031 0.0078 0.003 0.02337 0 0.03125-0.09295 0.24324-0.1821 0.46891-0.25 0.71875-0.03014 0.11092-0.06856 0.23181-0.09375 0.34375-0.0028 0.01223 0.0026 0.01899 0 0.03125-0.05192 0.2361-0.09519 0.47939-0.125 0.71875-0.0016 0.01247 0.0015 0.01878 0 0.03125-0.01326 0.11149-0.02282 0.23183-0.03125 0.34375-0.0065 0.08415-0.02753 0.16576-0.03125 0.25-0.0018 0.04288 0.0011 0.08208 0 0.125-0.000406 0.01429 0.000323 0.0482 0 0.0625-0.0023 0.1123-0.0024 0.20014 0 0.3125 0.0011 0.05748-0.0024 0.13007 0 0.1875 0.0024 0.05314 0.02674 0.10273 0.03125 0.15625 0.0026-0.03133-0.0024-0.06268 0-0.09375 0.0084-0.11192 0.01799-0.23226 0.03125-0.34375 0.0015-0.01247-0.0016-0.01878 0-0.03125 0.02981-0.23936 0.07308-0.48265 0.125-0.71875 0.0026-0.01226-0.0028-0.01902 0-0.03125 0.02519-0.11194 0.06361-0.23283 0.09375-0.34375 0.0679-0.24984 0.15705-0.47551 0.25-0.71875 0.003-0.0079-0.0031-0.02345 0-0.03125 0.46156-1.1961 1.2235-2.3249 2.2812-3.2188 4.7625-4.0246 8.4407 0.16586 12.594-3.3438 4.1531-3.5096 0.45621-7.6629 5.2188-11.688 1.4809-1.2514 3.2802-1.8989 5.0938-1.9375 2.3317-0.04962 4.6704 0.88439 6.3125 2.75 1.1935 1.356 1.8259 2.9976 1.9375 4.6562 0.125-1.994-0.501-4.025-1.938-5.657-1.642-1.866-3.981-2.8-6.312-2.75zm-9.4375 23.5c-0.016 0.16687-0.04631 0.33222-0.0625 0.5 0.1939 2.009 0.27702 3.9458 2.375 5.7188 4.1531 3.5096 7.8312-0.68087 12.594 3.3438 1.6925 1.4302 2.6292 3.3827 2.7812 5.4062 0.12-2.358-0.815-4.745-2.781-6.407-4.763-4.024-8.441 0.166-12.594-3.343-1.923-1.625-2.137-3.388-2.313-5.219z" fill="url(#linearGradient4419)"/>
   <path id="path4392" opacity=".5" style="color:#000000" d="m55.719 30c-1.8135 0.0386-3.6128 0.68605-5.0938 1.9375-4.7625 4.0246-1.0657 8.1779-5.2188 11.688-4.1531 3.5096-7.8312-0.68087-12.594 3.3438-1.0578 0.89389-1.8197 2.0226-2.2812 3.2188-0.0031 0.0078 0.003 0.02337 0 0.03125-0.09295 0.24324-0.1821 0.46891-0.25 0.71875-0.03014 0.11092-0.06856 0.23181-0.09375 0.34375-0.0028 0.01223 0.0026 0.01899 0 0.03125-0.05192 0.2361-0.09519 0.47939-0.125 0.71875-0.0016 0.01247 0.0015 0.01878 0 0.03125-0.01326 0.11149-0.02282 0.23183-0.03125 0.34375-0.0065 0.08415-0.02753 0.16576-0.03125 0.25-0.0018 0.04288 0.0011 0.08208 0 0.125-0.000406 0.01429 0.000323 0.0482 0 0.0625-0.0023 0.1123-0.0024 0.20014 0 0.3125 0.0011 0.05748-0.0024 0.13007 0 0.1875 0.0038 0.08424 0.02479 0.16585 0.03125 0.25 0.0096 0.12464 0.01565 0.25074 0.03125 0.375 0.0298 0.23936 0.07308 0.48265 0.125 0.71875 0.0027 0.01235-0.0027 0.01892 0 0.03125 0.02556 0.11262 0.06309 0.23201 0.09375 0.34375 0.0679 0.24984 0.15705 0.47551 0.25 0.71875 0.0031 0.0079-0.003 0.02329 0 0.03125 0.46156 1.1961 1.2235 2.2936 2.2812 3.1875v0.03125c4.7625 4.0246 8.4407-0.16586 12.594 3.3438 4.1531 3.5096 0.45621 7.6629 5.2188 11.688 3.3849 2.8604 8.4869 2.5041 11.406-0.8125 2.9193-3.3166 2.5412-8.327-0.84375-11.188-4.7625-4.0246-8.4407 0.16585-12.594-3.3438-2.098-1.7729-2.1811-3.7097-2.375-5.7188 0.1939-2.009 0.27702-3.9458 2.375-5.7188 4.1531-3.5096 7.8312 0.68087 12.594-3.3438 3.385-2.863 3.764-7.873 0.844-11.19-1.642-1.866-3.981-2.8-6.312-2.75zm0.031 1.062c2.0327-0.04326 4.0412 0.75321 5.4688 2.375 2.5382 2.8836 2.2283 7.1971-0.71875 9.6875-2.1391 1.8077-3.771 1.7296-5.7812 1.625-2.0103-0.10461-4.4583-0.27069-6.8125 1.7188-2.3791 2.0105-2.5596 4.4646-2.75 6.4375a1.0638 1.0638 0 0 0 0 0.1875c0.19042 1.9729 0.37088 4.427 2.75 6.4375 2.3542 1.9894 4.8022 1.8234 6.8125 1.7188 2.0103-0.10461 3.6421-0.1827 5.7812 1.625 2.947 2.4904 3.2569 6.8039 0.71875 9.6875s-6.9571 3.1797-9.9062 0.6875c-2.1398-1.8083-2.2809-3.3571-2.4688-5.3125-0.18786-1.9554-0.3966-4.3862-2.75-6.375-2.3542-1.9894-4.8022-1.8234-6.8125-1.7188-1.99 0.103-3.613 0.155-5.72-1.594a1.0638 1.0638 0 0 0 -0.062 -0.031 1.0638 1.0638 0 0 0 0 -0.03125c-0.91534-0.77352-1.5692-1.6946-1.9688-2.7188-0.003-0.0078 0.003-0.02349 0-0.03125-0.0015-0.0051 0.000046-0.03113 0-0.03125-0.0956-0.25017-0.17013-0.44612-0.21875-0.625-0.03461-0.12614-0.07977-0.22524-0.09375-0.28125-0.0025-0.01568 0.0034-0.01559 0-0.03125-0.046-0.208-0.069-0.424-0.094-0.625-0.009-0.07-0.02-0.199-0.031-0.344-0.014-0.178-0.03-0.208-0.032-0.188 0.000161 0.0038-0.000195-0.03019 0-0.03125 0.000974-0.0053 0.0019-0.05811 0-0.15625-0.0021-0.09989-0.0021-0.14843 0-0.25 0.002-0.08838 0.002-0.1321 0-0.0625 0.0021-0.08053 0.001-0.09316 0-0.09375-0.000383 0.0087-0.000295-0.03475 0-0.03125 0.0018 0.02149 0.01749-0.0094 0.03125-0.1875 0.0082-0.1088 0.02151-0.23061 0.03125-0.3125 0.002-0.01623-0.0011-0.01534 0-0.03125 0.02513-0.20179 0.04812-0.41751 0.09375-0.625a1.0638 1.0638 0 0 0 0 -0.03125c0.01034-0.04595 0.05491-0.13831 0.09375-0.28125 0.04861-0.17887 0.12315-0.37482 0.21875-0.625 0.00004-0.000104-0.0012-0.02707 0-0.03125 0.40093-1.039 1.0558-2.0098 1.9688-2.7812 2.1391-1.8077 3.771-1.7296 5.7812-1.625 2.0103 0.10461 4.4583 0.27069 6.8125-1.7188 2.3534-1.9888 2.5621-4.4196 2.75-6.375 0.18786-1.9554 0.3289-3.5042 2.4688-5.3125 1.2946-1.094 2.862-1.654 4.4375-1.6875z" fill="url(#linearGradient4419)"/>
   <path id="path4394" opacity=".25" style="color:#000000" d="m55.719 30c-1.8135 0.0386-3.6128 0.68605-5.0938 1.9375-4.7625 4.0246-1.0657 8.1779-5.2188 11.688-4.1531 3.5096-7.8312-0.68087-12.594 3.3438-1.0578 0.89389-1.8197 2.0226-2.2812 3.2188-0.0031 0.0078 0.003 0.02337 0 0.03125-0.09295 0.24324-0.1821 0.46891-0.25 0.71875-0.03014 0.11092-0.06856 0.23181-0.09375 0.34375-0.0028 0.01223 0.0026 0.01899 0 0.03125-0.05192 0.2361-0.09519 0.47939-0.125 0.71875-0.0016 0.01247 0.0015 0.01878 0 0.03125-0.01326 0.11149-0.02282 0.23183-0.03125 0.34375-0.0065 0.08415-0.02753 0.16576-0.03125 0.25-0.0018 0.04288 0.0011 0.08208 0 0.125-0.000406 0.01429 0.000323 0.0482 0 0.0625-0.0023 0.1123-0.0024 0.20014 0 0.3125 0.0011 0.05748-0.0024 0.13007 0 0.1875 0.0038 0.08424 0.02479 0.16585 0.03125 0.25 0.0096 0.12464 0.01565 0.25074 0.03125 0.375 0.0298 0.23936 0.07308 0.48265 0.125 0.71875 0.0027 0.01235-0.0027 0.01892 0 0.03125 0.02556 0.11262 0.06309 0.23201 0.09375 0.34375 0.0679 0.24984 0.15705 0.47551 0.25 0.71875 0.0031 0.0079-0.003 0.02329 0 0.03125 0.46156 1.1961 1.2235 2.2936 2.2812 3.1875v0.03125c4.7625 4.0246 8.4407-0.16586 12.594 3.3438 4.1531 3.5096 0.45621 7.6629 5.2188 11.688 3.3849 2.8604 8.4869 2.5041 11.406-0.8125 2.9193-3.3166 2.5412-8.327-0.84375-11.188-4.7625-4.0246-8.4407 0.16585-12.594-3.3438-2.098-1.7729-2.1811-3.7097-2.375-5.7188 0.1939-2.009 0.27702-3.9458 2.375-5.7188 4.1531-3.5096 7.8312 0.68087 12.594-3.3438 3.385-2.863 3.764-7.873 0.844-11.19-1.642-1.866-3.981-2.8-6.312-2.75zm0.031 1.969c1.7757-0.03779 3.5382 0.68151 4.7812 2.0938 2.2106 2.5115 1.9457 6.2027-0.625 8.375-1.931 1.6318-3.1664 1.4785-5.1562 1.375-1.9899-0.10354-4.8447-0.22235-7.4375 1.9688-2.6207 2.2147-2.8751 5.0894-3.0625 7.0312a1.9781 1.9781 0 0 0 0 0.375c0.18742 1.9418 0.44177 4.8166 3.0625 7.0312 2.5928 2.1911 5.4476 2.0723 7.4375 1.9688 1.9899-0.10354 3.2252-0.25685 5.1562 1.375 2.5707 2.1724 2.8356 5.8635 0.625 8.375s-6.0503 2.8008-8.625 0.625c-1.932-1.633-1.97-2.785-2.156-4.719s-0.471-4.779-3.062-6.969c-2.593-2.191-5.448-2.072-7.438-1.969-1.9656 0.10228-3.203 0.2261-5.0938-1.3438-0.02333-0.01937-0.03896-0.01136-0.0625-0.03125a1.9781 1.9781 0 0 0 0 -0.03125c-0.79888-0.6751-1.3733-1.4908-1.7188-2.375-0.003-0.0077 0.003-0.02357 0-0.03125-0.000737-0.0025 0.000023-0.03119 0-0.03125-0.09787-0.25612-0.15546-0.41335-0.1875-0.53125-0.04451-0.16222-0.06265-0.25067-0.0625-0.25-0.0028-0.01508 0.0033-0.01622 0-0.03125-0.04-0.183-0.073-0.362-0.094-0.531-0.003-0.023-0.018-0.118-0.031-0.281-0.024-0.313-0.04-0.374-0.031-0.188 0.0039 0.09221 0.0032 0.04458 0-0.125-0.0019-0.08918-0.0019-0.15765 0-0.25 0.0034-0.15204 0.004-0.17294 0-0.03125 0.0042-0.16278 0.0041-0.19029 0-0.09375-0.0083 0.18773 0.0071 0.12536 0.03125-0.1875 0.0071-0.09448 0.02499-0.1923 0.03125-0.25 0.000772-0.0071-0.000737-0.02505 0-0.03125 0.02111-0.1695 0.05353-0.34835 0.09375-0.53125a1.9781 1.9781 0 0 0 0 -0.03125c-0.0024 0.01076 0.01618-0.07954 0.0625-0.25 0.03204-0.11788 0.08962-0.27511 0.1875-0.53125 0.000022-0.000058-0.000709-0.02876 0-0.03125-0.000023 0.000057-0.000713-0.02883 0-0.03125 0.34969-0.89531 0.93705-1.7457 1.7188-2.4062 1.931-1.6318 3.1664-1.4785 5.1562-1.375 1.9899 0.10354 4.8447 0.22235 7.4375-1.9688 2.5913-2.1898 2.8767-5.0346 3.0625-6.9688 0.18582-1.9341 0.22389-3.0858 2.1562-4.7188 1.1345-0.95871 2.4729-1.4396 3.8438-1.4688z" fill="url(#linearGradient4419)"/>
   <path id="path4421" opacity=".2" style="color:#000000" d="m63.969 38.5c-0.15204 2.0236-1.0888 4.0073-2.7812 5.4375-4.7625 4.0246-8.4407-0.16585-12.594 3.3438-2.098 1.7729-2.1811 3.7097-2.375 5.7188 0.01619 0.16778 0.0465 0.33313 0.0625 0.5 0.17557-1.8313 0.38973-3.5939 2.3125-5.2188 4.1531-3.5096 7.8312 0.68087 12.594-3.3438 1.9748-1.6688 2.9118-4.0697 2.7812-6.4375zm-33.938 15c-0.0045 0.05352-0.0289 0.10311-0.03125 0.15625-0.0018 0.04288 0.0011 0.08208 0 0.125-0.000406 0.01429 0.000323 0.0482 0 0.0625-0.0023 0.1123-0.0024 0.20014 0 0.3125 0.0011 0.05748-0.0024 0.13007 0 0.1875 0.0038 0.08424 0.02479 0.16585 0.03125 0.25 0.0096 0.12464 0.01565 0.25074 0.03125 0.375 0.0298 0.23936 0.07308 0.48265 0.125 0.71875 0.0027 0.01235-0.0027 0.01892 0 0.03125 0.02556 0.11262 0.06309 0.23201 0.09375 0.34375 0.0679 0.24984 0.15705 0.47551 0.25 0.71875 0.0031 0.0079-0.003 0.02329 0 0.03125 0.46156 1.1961 1.2235 2.2936 2.2812 3.1875v0.03125c4.7625 4.0246 8.4407-0.16586 12.594 3.3438 4.1531 3.5096 0.45621 7.6629 5.2188 11.688 3.3849 2.8604 8.4869 2.5041 11.406-0.8125 1.4378-1.6335 2.064-3.6926 1.9375-5.6875-0.10556 1.6693-0.73642 3.323-1.9375 4.6875-2.918 3.316-8.02 3.672-11.405 0.811-4.763-4.024-1.066-8.177-5.219-11.687s-7.831 0.681-12.594-3.344v-0.03125c-1.0578-0.89389-1.8197-1.9914-2.2812-3.1875-0.003-0.008 0.0031-0.02335 0-0.03125-0.09295-0.24324-0.1821-0.46891-0.25-0.71875-0.03066-0.11174-0.06819-0.23113-0.09375-0.34375-0.0027-0.01233 0.0027-0.0189 0-0.03125-0.05192-0.2361-0.0952-0.47939-0.125-0.71875-0.0156-0.12426-0.02165-0.25036-0.03125-0.375-0.0024-0.03107 0.0026-0.06242 0-0.09375z" fill="#fff"/>
  </g>
 </g>
</svg>
