<?xml version="1.0" encoding="UTF-8" standalone="no"?>
<!-- Created with Inkscape (http://www.inkscape.org/) -->
<svg id="svg2408" xmlns:rdf="http://www.w3.org/1999/02/22-rdf-syntax-ns#" xmlns="http://www.w3.org/2000/svg" height="96" width="96" version="1.0" xmlns:cc="http://creativecommons.org/ns#" xmlns:xlink="http://www.w3.org/1999/xlink" xmlns:dc="http://purl.org/dc/elements/1.1/">
 <defs id="defs2410">
  <linearGradient id="ButtonShadow" y2="7.0165" gradientUnits="userSpaceOnUse" x2="45.448" gradientTransform="scale(1.0059 .99417)" y1="92.54" x1="45.448">
   <stop id="stop3750" offset="0"/>
   <stop id="stop3752" stop-opacity=".58824" offset="1"/>
  </linearGradient>
  <linearGradient id="linearGradient3737">
   <stop id="stop3739" stop-color="#fff" offset="0"/>
   <stop id="stop3741" stop-color="#fff" stop-opacity="0" offset="1"/>
  </linearGradient>
  <filter id="filter3174" color-interpolation-filters="sRGB">
   <feGaussianBlur id="feGaussianBlur3176" stdDeviation="1.71"/>
  </filter>
  <linearGradient id="linearGradient3188" y2="63.893" xlink:href="#linearGradient3737" gradientUnits="userSpaceOnUse" x2="36.357" y1="6" x1="36.357"/>
  <filter id="filter3794" height="1.384" width="1.384" color-interpolation-filters="sRGB" y="-.192" x="-.192">
   <feGaussianBlur id="feGaussianBlur3796" stdDeviation="5.28"/>
  </filter>
  <linearGradient id="linearGradient3613" y2="138.66" xlink:href="#linearGradient3737" gradientUnits="userSpaceOnUse" x2="48" y1="20.221" x1="48"/>
  <radialGradient id="radialGradient3619" xlink:href="#linearGradient3737" gradientUnits="userSpaceOnUse" cy="90.172" cx="48" gradientTransform="matrix(1.1573 0 0 .99591 -7.551 .19713)" r="42"/>
  <clipPath id="clipPath3613">
   <rect id="rect3615" rx="6" ry="6" height="84" width="84" y="6" x="6" fill="#fff"/>
  </clipPath>
  <linearGradient id="ButtonShadow-0" y2="7.0165" gradientUnits="userSpaceOnUse" x2="45.448" gradientTransform="matrix(1.0059 0 0 .99417 100 0)" y1="92.54" x1="45.448">
   <stop id="stop3750-8" offset="0"/>
   <stop id="stop3752-5" stop-opacity=".58824" offset="1"/>
  </linearGradient>
  <linearGradient id="linearGradient3780" y2="90.239" xlink:href="#ButtonShadow-0" gradientUnits="userSpaceOnUse" x2="32.251" gradientTransform="matrix(1.0238 0 0 1.0119 -1.1429 -98.071)" y1="6.1317" x1="32.251"/>
  <linearGradient id="linearGradient3721" y2="90.239" xlink:href="#ButtonShadow-0" gradientUnits="userSpaceOnUse" x2="32.251" gradientTransform="translate(0,-97)" y1="6.1317" x1="32.251"/>
  <linearGradient id="linearGradient3060-4" y2="303.14" gradientUnits="userSpaceOnUse" x2="606.91" gradientTransform="matrix(-.13678 0 0 .13677 122.2 8.522)" y1="104.51" x1="541.34">
   <stop id="stop193-9" stop-color="#fff" stop-opacity="0" offset="0"/>
   <stop id="stop195-6" stop-color="#fff" stop-opacity=".60465" offset="1"/>
  </linearGradient>
  <linearGradient id="linearGradient3909" y2="5.9464" gradientUnits="userSpaceOnUse" x2="48" y1="90" x1="48">
   <stop id="stop3905" stop-color="#1793d1" offset="0"/>
   <stop id="stop3907" stop-color="#6dc4ef" offset="1"/>
  </linearGradient>
  <radialGradient id="radialGradient3925" gradientUnits="userSpaceOnUse" cy="71.995" cx="48" gradientTransform="matrix(1 0 0 1.0002 0 -.0090170)" r="32.994">
   <stop id="stop3921" stop-color="#fafafa" offset="0"/>
   <stop id="stop3923" stop-color="#f0f0f0" offset="1"/>
  </radialGradient>
 </defs>
 <metadata id="metadata2413">
  <rdf:RDF>
   <cc:Work rdf:about="">
    <dc:format>image/svg+xml</dc:format>
    <dc:type rdf:resource="http://purl.org/dc/dcmitype/StillImage"/>
    <dc:title/>
   </cc:Work>
  </rdf:RDF>
 </metadata>
 <g id="layer2" display="none">
  <rect id="rect3745" opacity=".9" rx="6" ry="6" height="85" filter="url(#filter3174)" width="86" y="7" x="5" fill="url(#ButtonShadow)"/>
 </g>
 <g id="layer3">
  <path id="path3786" opacity="0.08" d="m12-95.031c-5.5111 0-10.031 4.5202-10.031 10.031v71c0 5.5111 4.5202 10.031 10.031 10.031h72c5.5111 0 10.031-4.5202 10.031-10.031v-71c0-5.5111-4.5202-10.031-10.031-10.031h-72z" transform="scale(1,-1)" fill="url(#linearGradient3780)"/>
  <path id="path3778" opacity=".1" d="m12-94.031c-4.9716 0-9.0312 4.0596-9.0312 9.0312v71c0 4.9716 4.0596 9.0312 9.0312 9.0312h72c4.9716 0 9.0312-4.0596 9.0312-9.0312v-71c0-4.9716-4.0596-9.0312-9.0312-9.0312h-72z" transform="scale(1,-1)" fill="url(#linearGradient3780)"/>
  <path id="path3770" opacity=".2" d="m12-93c-4.4091 0-8 3.5909-8 8v71c0 4.4091 3.5909 8 8 8h72c4.4091 0 8-3.5909 8-8v-71c0-4.4091-3.5909-8-8-8h-72z" transform="scale(1,-1)" fill="url(#linearGradient3780)"/>
  <rect id="rect3723" opacity=".3" transform="scale(1,-1)" rx="7" ry="7" height="85" width="86" y="-92" x="5" fill="url(#linearGradient3780)"/>
  <rect id="rect3716" opacity=".45" transform="scale(1,-1)" rx="6" ry="6" height="84" width="84" y="-91" x="6" fill="url(#linearGradient3721)"/>
 </g>
 <g id="layer1">
  <rect id="rect2419" rx="6" ry="6" height="84" width="84" y="6" x="6" fill="url(#linearGradient3909)"/>
  <path id="rect3728" opacity=".4" d="m12 6c-3.324 0-6 2.676-6 6v2 68 2c0 0.33472 0.04135 0.6507 0.09375 0.96875 0.0487 0.2956 0.09704 0.59692 0.1875 0.875 0.00988 0.03038 0.020892 0.0636 0.03125 0.09375 0.098865 0.28777 0.23488 0.54745 0.375 0.8125 0.14459 0.27351 0.31562 0.53562 0.5 0.78125 0.18438 0.24564 0.37378 0.47347 0.59375 0.6875 0.43995 0.42806 0.94291 0.81453 1.5 1.0938 0.27854 0.13961 0.57347 0.24695 0.875 0.34375-0.2562-0.10022-0.48671-0.23627-0.71875-0.375-0.00741-0.0044-0.023866 0.0045-0.03125 0-0.031933-0.0193-0.062293-0.04251-0.09375-0.0625-0.1204-0.0767-0.23102-0.16351-0.34375-0.25-0.10617-0.0808-0.21328-0.16111-0.3125-0.25-0.1778-0.162-0.3473-0.346-0.4999-0.531-0.1075-0.131-0.2183-0.266-0.3124-0.407-0.0251-0.038-0.0385-0.086-0.0626-0.125-0.0647-0.103-0.1302-0.204-0.1874-0.312-0.1011-0.195-0.2057-0.416-0.2813-0.625-0.008-0.022-0.0236-0.041-0.0313-0.063-0.0318-0.092-0.0358-0.187-0.0624-0.281-0.0304-0.107-0.0704-0.203-0.0938-0.313-0.0729-0.341-0.125-0.698-0.125-1.062v-2-68-2c0-2.782 2.2182-5 5-5h2 68 2c2.7818 0 5 2.2182 5 5v2 68 2c0 0.3643-0.05212 0.72099-0.125 1.0625-0.04415 0.20689-0.08838 0.39766-0.15625 0.59375-0.0077 0.02195-0.0233 0.04069-0.03125 0.0625-0.06274 0.17374-0.13838 0.36745-0.21875 0.53125-0.04158 0.0828-0.07904 0.16995-0.125 0.25-0.0546 0.09721-0.12677 0.18835-0.1875 0.28125-0.09411 0.14096-0.20492 0.276-0.3125 0.40625-0.14317 0.17445-0.30314 0.347-0.46875 0.5-0.01117 0.0102-0.01998 0.02115-0.03125 0.03125-0.13839 0.12556-0.28509 0.23444-0.4375 0.34375-0.10257 0.07315-0.20432 0.15336-0.3125 0.21875-0.0074 0.0045-0.02384-0.0044-0.03125 0-0.23204 0.13873-0.46255 0.27478-0.71875 0.375 0.30153-0.0968 0.59646-0.20414 0.875-0.34375 0.55709-0.27922 1.0601-0.66569 1.5-1.0938 0.21997-0.21403 0.40937-0.44186 0.59375-0.6875s0.35541-0.50774 0.5-0.78125c0.14012-0.26505 0.27614-0.52473 0.375-0.8125 0.01041-0.03078 0.02133-0.06274 0.03125-0.09375 0.09046-0.27808 0.1388-0.5794 0.1875-0.875 0.053-0.318 0.094-0.634 0.094-0.969v-2-68-2c0-3.324-2.676-6-6-6h-72z" fill="url(#linearGradient3188)"/>
  <path id="path3615" opacity=".2" d="m12 90c-3.324 0-6-2.676-6-6v-2-68-2c0-0.33472 0.04135-0.6507 0.09375-0.96875 0.0487-0.2956 0.09704-0.59692 0.1875-0.875 0.0099-0.03 0.0209-0.063 0.0313-0.094 0.0989-0.2873 0.2349-0.547 0.375-0.812 0.1446-0.2735 0.3156-0.5356 0.5-0.7812 0.1844-0.2457 0.3738-0.4735 0.5937-0.6876 0.44-0.428 0.943-0.8145 1.5-1.0937 0.2786-0.1396 0.5735-0.2469 0.8748-0.3437-0.256 0.1002-0.4865 0.2362-0.7185 0.375-0.00741 0.0044-0.023866-0.0045-0.03125 0-0.031933 0.0193-0.062293 0.04251-0.09375 0.0625-0.1204 0.0767-0.23102 0.16351-0.34375 0.25-0.10617 0.0808-0.21328 0.16111-0.3125 0.25-0.1779 0.1614-0.3474 0.3453-0.5 0.5312-0.1075 0.1303-0.2183 0.2653-0.3124 0.4063-0.0251 0.0383-0.0385 0.0858-0.0626 0.125-0.0647 0.103-0.1302 0.2045-0.1874 0.3124-0.1011 0.1948-0.2057 0.4158-0.2813 0.625-0.008 0.0219-0.0236 0.0406-0.0313 0.0626-0.0318 0.0919-0.0358 0.1868-0.0624 0.2812-0.0304 0.1066-0.0704 0.203-0.0938 0.3125-0.0729 0.3415-0.125 0.6985-0.125 1.0625v2 68 2c0 2.7818 2.2182 5 5 5h2 68 2c2.7818 0 5-2.2182 5-5v-2-68-2c0-0.364-0.052-0.721-0.125-1.0625-0.044-0.2069-0.088-0.3977-0.156-0.5937-0.008-0.022-0.024-0.0407-0.031-0.0626-0.063-0.1737-0.139-0.3674-0.219-0.5312-0.042-0.0828-0.079-0.17-0.125-0.25-0.055-0.0972-0.127-0.1884-0.188-0.2812-0.094-0.141-0.205-0.276-0.312-0.4063-0.143-0.1745-0.303-0.347-0.469-0.5-0.011-0.0102-0.02-0.0211-0.031-0.0313-0.139-0.1255-0.285-0.2344-0.438-0.3437-0.102-0.0731-0.204-0.1534-0.312-0.2187-0.0074-0.0045-0.02384 0.0044-0.03125 0-0.23204-0.13873-0.46255-0.27478-0.71875-0.375 0.30153 0.0968 0.59646 0.20414 0.875 0.34375 0.55709 0.27922 1.0601 0.66569 1.5 1.0938 0.21997 0.21403 0.40937 0.44186 0.59375 0.6875s0.35541 0.50774 0.5 0.78125c0.14012 0.26505 0.27614 0.52473 0.375 0.8125 0.01041 0.03078 0.02133 0.06274 0.03125 0.09375 0.09046 0.27808 0.1388 0.5794 0.1875 0.875 0.053 0.318 0.094 0.634 0.094 0.969v2 68 2c0 3.324-2.676 6-6 6h-72z" fill="url(#radialGradient3619)"/>
 </g>
 <g id="layer5">
  <rect id="rect3171" height="66" stroke="#fff" stroke-linecap="round" stroke-width=".5" fill="url(#linearGradient3613)" rx="12" ry="12" width="66" opacity=".1" clip-path="url(#clipPath3613)" filter="url(#filter3794)" y="15" x="15"/>
 </g>
 <g id="layer4" fill-rule="evenodd">
  <path id="path3943" opacity=".05" d="m47.625 13.031a0.96732 0.96732 0 0 0 -0.125 0.031c-1.5108 0.34146-2.2722 1.61-2.6875 2.7188-0.41531 1.1087-0.67347 2.1964-1.0312 2.75a0.96732 0.96732 0 0 0 -0.09375 0.1875c-2.019 5.213-4.333 10.363-6.531 15.532a0.96732 0.96732 0 0 0 -0.09375 0.4375c0.0035 0.0611-0.05822 0.19336-0.40625 0.59375-0.29003 0.33366-0.67935 0.87938-0.84375 1.5938h-0.03125c-7.322 14.997-15.644 29.537-23.593 44.249a0.96732 0.96732 0 0 0 -0.09375 0.1875c-0.73078 2.5116 2.2765 4.6309 4.375 3.2812 0.02116-0.01361 0.04153-0.01693 0.0625-0.03125 8.1603-4.6772 16.559-9.1585 25.688-11.031a0.96732 0.96732 0 0 0 0.28 -0.093c0.67394-0.36342 1.154-0.92129 1.375-1.5312 0.22104-0.60996 0.22015-1.2029 0.15625-1.75-0.128-1.095-0.456-2.114-0.437-2.657a0.96732 0.96732 0 0 0 0 -0.0625c-0.05185-1.8794 0.10618-3.9358 0.6875-5.7188 0.57157-1.7531 1.5389-3.1847 3.0625-4.125 0.57001-0.14686 1.0582-0.11849 1.5 0.0625 0.48773 0.19981 0.96665 0.59094 1.4062 1.125 0.87919 1.0681 1.5435 2.6811 1.875 3.9375a0.96732 0.96732 0 0 0 0 0.03125c0.82606 2.6042 0.4546 5.4889 0.125 8.4062a0.96732 0.96732 0 0 0 0.03125 0.375c0.2316 0.81013 0.7514 1.4227 1.3438 1.8125 0.59234 0.38984 1.2271 0.59144 1.8438 0.71875 1.2333 0.25462 2.4239 0.33832 3 0.65625a0.96732 0.96732 0 0 0 0.1875 0.09375c7.4684 2.2436 14.459 6.1921 21.312 9.9688a0.96732 0.96732 0 0 0 0.125 0.0625c2.4805 0.89629 4.8293-2.0868 3.4375-4.2812l0.03125-0.03125c-0.01828-0.03162-0.04427-0.06208-0.0625-0.09375-1.9935-3.464-3.6974-7.2732-5.9375-10.75a0.96732 0.96732 0 0 0 -0.373 -0.313c-0.789-0.414-1.059-0.726-1.188-1s-0.157-0.689-0.062-1.469a0.96732 0.96732 0 0 0 -0.125 -0.5625c-8.351-15.9-17.029-31.696-23.719-48.313a0.96732 0.96732 0 0 0 -0.094 -0.125c-0.308-0.498-0.575-1.688-1.094-2.781-0.259-0.547-0.609-1.075-1.156-1.5s-1.31-0.677-2.125-0.594z"/>
  <path id="path3937" opacity=".1" d="m47.719 14c-2.2113 0.49978-2.0829 3.4787-3.1135 5.0734-2.0326 5.2458-4.3823 10.396-6.574 15.552 0.05853 1.0152-1.3325 1.4963-1.3811 2.681-7.341 15.036-15.677 29.59-23.619 44.288-0.484 1.663 1.658 3.051 2.969 2.156 8.1964-4.6996 16.698-9.2416 26.031-11.156 2.0027-1.0799 0.53591-3.437 0.59546-5.1172-0.10778-3.9073 0.67062-8.624 4.2896-10.786 3.4172-1.0869 5.4299 3.0517 6.1454 5.7637 0.9113 2.873 0.48449 5.8979 0.15706 8.7961 0.69111 2.4175 3.9317 1.6317 5.7089 2.6125 7.61 2.284 14.665 6.301 21.511 10.074 1.652 0.597 3.299-1.497 2.281-2.938-2.051-3.548-3.762-7.356-5.969-10.781-1.758-0.924-1.985-1.756-1.781-3.438-8.345-15.887-17.064-31.678-23.784-48.368-0.918-1.486-1.038-4.66-3.466-4.413z"/>
  <path id="path3933" opacity=".15" d="m47.781 15.125a0.8863 0.8863 0 0 0 -0.59375 0.53125c-2.9411 7.2108-4.7416 11.913-8 18.875a0.8863 0.8863 0 0 0 0.157 0.969c0.52226 0.55359 1.2353 1.2062 1.8438 1.8125-0.49968-0.36223-1.1292-0.72937-1.5625-1.0938a0.8863 0.8863 0 0 0 -1.375 0.3125c-4.171 8.704-10.726 21.124-24.031 45.03a0.8863 0.8863 0 0 0 1.2188 1.2188c10.424-6.018 18.45-9.704 25.843-11.093a0.8863 0.8863 0 0 0 0.719 -1.063c-0.30321-1.3041-0.50363-2.7229-0.5-4.1875v-0.0625c0.000066-0.0108-0.000086-0.02045 0-0.03125l0.03125-0.25a0.8863 0.8863 0 0 0 0 -0.0625c0.07932-3.2027 0.96079-6.0325 2.25-7.9375s2.9143-2.8611 4.5938-2.7188c1.6784 0.14221 3.2682 1.4151 4.4688 3.5625 1.2005 2.1474 1.9543 5.1087 1.875 8.3125-0.03012 1.2158-0.17289 2.381-0.40625 3.4375a0.8863 0.8863 0 0 0 0.71875 1.0625c7.3148 1.4309 15.247 5.0942 25.531 11.031a0.8863 0.8863 0 0 0 1.218 -1.219c-2.034-3.744-3.859-7.096-5.593-10.312a0.8863 0.8863 0 0 0 -0.25 -0.28125c-1.163-0.901-2.454-2.015-3.938-3.157 0.19 0.10679 0.44402 0.20384 0.625 0.3125a0.8863 0.8863 0 0 0 1.25 -1.1562c-17.626-32.816-19.01-37.108-25.063-51.312a0.8863 0.8863 0 0 0 -1.031 -0.531z"/>
  <path id="path3927" opacity=".3" d="m47.994 16c-2.9376 7.2022-4.7094 11.913-7.9801 18.901 2.0053 2.1256 4.4667 4.601 8.4641 7.3968-4.298-1.768-7.229-3.544-9.42-5.386-4.186 8.734-10.744 21.176-24.052 45.088 10.46-6.0386 18.568-9.7615 26.124-11.182-0.32448-1.3956-0.50896-2.9052-0.49643-4.4803l0.01243-0.33508c0.16597-6.7013 3.652-11.855 7.7815-11.505 4.1295 0.3499 7.3393 6.0693 7.1734 12.771-0.03124 1.261-0.17345 2.474-0.42196 3.5991 7.475 1.462 15.497 5.175 25.815 11.132-2.035-3.746-3.851-7.122-5.585-10.338-2.732-2.117-5.581-4.873-11.393-7.856 3.9948 1.038 6.8551 2.2356 9.0846 3.5743-17.633-32.828-19.061-37.19-25.107-51.38z"/>
  <path id="path2518" d="m47.994 15c-2.9376 7.2022-4.7094 11.913-7.9801 18.901 2.0053 2.1256 4.4667 4.601 8.4641 7.3968-4.298-1.768-7.229-3.544-9.42-5.386-4.186 8.734-10.744 21.176-24.052 45.088 10.46-6.0386 18.568-9.7615 26.124-11.182-0.32448-1.3956-0.50896-2.9052-0.49643-4.4803l0.01243-0.33508c0.16597-6.7013 3.652-11.855 7.7815-11.505 4.1295 0.3499 7.3393 6.0693 7.1734 12.771-0.03124 1.261-0.17345 2.474-0.42196 3.5991 7.475 1.462 15.497 5.175 25.815 11.132-2.035-3.746-3.851-7.122-5.585-10.338-2.732-2.117-5.581-4.873-11.393-7.856 3.9948 1.038 6.8551 2.2356 9.0846 3.5743-17.633-32.828-19.061-37.19-25.107-51.38z" fill="url(#radialGradient3925)"/>
  <path id="path2522" d="m66.576 54.224c-14.304-19.416-17.62-35.064-18.46-38.8 7.631 17.6 7.579 17.816 18.46 38.8z" fill="#fff"/>
  <path id="path2520" d="m48.118 15.298c-0.36426 0.89551-0.71819 1.7667-1.0549 2.5938-0.37554 0.92252-0.7372 1.8049-1.0921 2.6683-0.3549 0.86343-0.70619 1.7001-1.0549 2.5318-0.34873 0.83173-0.69795 1.6548-1.0549 2.4821-0.35694 0.82732-0.72499 1.6567-1.1046 2.507-0.37956 0.85031-0.77485 1.7304-1.1914 2.6311-0.41662 0.90063-0.84755 1.8265-1.3155 2.8048-0.06347 0.13277-0.13396 0.28748-0.19857 0.42196 1.9989 2.1173 4.4529 4.5802 8.4268 7.3595-4.2842-1.7629-7.2064-3.5376-9.3949-5.3738-0.11465 0.23408-0.21694 0.44285-0.33509 0.68259-0.41273 0.83752-0.86821 1.7411-1.3279 2.6559-0.01914 0.03864-0.03036 0.07292-0.04961 0.1117-0.11652 0.23169-0.21528 0.43303-0.33508 0.67018-0.01815 0.03642-0.04378 0.07513-0.06204 0.1117-1.9016 3.8143-4.2521 8.3702-7.2726 14.024 8.3651-4.7153 17.394-11.511 33.782-5.6593-0.82222-1.5573-1.5737-3.0079-2.2836-4.381-0.70988-1.3731-1.3733-2.6686-1.9857-3.8845-0.61237-1.2159-1.183-2.3519-1.7127-3.4378-0.528-1.086-1.014-2.12-1.475-3.103-0.462-0.983-0.895-1.922-1.304-2.829-0.408-0.907-0.796-1.785-1.166-2.644-0.37-0.858-0.721-1.695-1.067-2.532-0.347-0.836-0.693-1.664-1.031-2.507-0.113-0.281-0.234-0.572-0.347-0.856-0.932-2.187-1.885-4.452-2.991-7.049z" fill="url(#linearGradient3060-4)"/>
 </g>
</svg>
