<?xml version="1.0" encoding="UTF-8" standalone="no"?>
<!-- Created with Inkscape (http://www.inkscape.org/) -->
<svg id="svg2408" xmlns:rdf="http://www.w3.org/1999/02/22-rdf-syntax-ns#" xmlns="http://www.w3.org/2000/svg" height="96" width="96" version="1.0" xmlns:cc="http://creativecommons.org/ns#" xmlns:xlink="http://www.w3.org/1999/xlink" xmlns:dc="http://purl.org/dc/elements/1.1/">
 <defs id="defs2410">
  <linearGradient id="ButtonShadow" y2="7.0165" gradientUnits="userSpaceOnUse" x2="45.448" gradientTransform="scale(1.0059 .99417)" y1="92.54" x1="45.448">
   <stop id="stop3750" offset="0"/>
   <stop id="stop3752" stop-opacity=".58824" offset="1"/>
  </linearGradient>
  <linearGradient id="linearGradient3737">
   <stop id="stop3739" stop-color="#fff" offset="0"/>
   <stop id="stop3741" stop-color="#fff" stop-opacity="0" offset="1"/>
  </linearGradient>
  <filter id="filter3174" color-interpolation-filters="sRGB">
   <feGaussianBlur id="feGaussianBlur3176" stdDeviation="1.71"/>
  </filter>
  <linearGradient id="linearGradient3188" y2="63.893" xlink:href="#linearGradient3737" gradientUnits="userSpaceOnUse" x2="36.357" y1="6" x1="36.357"/>
  <filter id="filter3794" height="1.384" width="1.384" color-interpolation-filters="sRGB" y="-.192" x="-.192">
   <feGaussianBlur id="feGaussianBlur3796" stdDeviation="5.28"/>
  </filter>
  <linearGradient id="linearGradient3613" y2="138.66" xlink:href="#linearGradient3737" gradientUnits="userSpaceOnUse" x2="48" y1="20.221" x1="48"/>
  <radialGradient id="radialGradient3619" xlink:href="#linearGradient3737" gradientUnits="userSpaceOnUse" cy="90.172" cx="48" gradientTransform="matrix(1.1573 0 0 .99591 -7.551 .19713)" r="42"/>
  <clipPath id="clipPath3613">
   <rect id="rect3615" rx="6" ry="6" height="84" width="84" y="6" x="6" fill="#fff"/>
  </clipPath>
  <linearGradient id="linearGradient3617" y2="5.9877" gradientUnits="userSpaceOnUse" x2="48" y1="90" x1="48">
   <stop id="stop3702" stop-color="#4b61ac" offset="0"/>
   <stop id="stop3704" stop-color="#93a0d0" offset="1"/>
  </linearGradient>
  <linearGradient id="ButtonShadow-0" y2="7.0165" gradientUnits="userSpaceOnUse" x2="45.448" gradientTransform="matrix(1.0059 0 0 .99417 100 0)" y1="92.54" x1="45.448">
   <stop id="stop3750-8" offset="0"/>
   <stop id="stop3752-5" stop-opacity=".58824" offset="1"/>
  </linearGradient>
  <linearGradient id="linearGradient3780" y2="90.239" xlink:href="#ButtonShadow-0" gradientUnits="userSpaceOnUse" x2="32.251" gradientTransform="matrix(1.0238 0 0 1.0119 -1.1429 -98.071)" y1="6.1317" x1="32.251"/>
  <linearGradient id="linearGradient3721" y2="90.239" xlink:href="#ButtonShadow-0" gradientUnits="userSpaceOnUse" x2="32.251" gradientTransform="translate(0,-97)" y1="6.1317" x1="32.251"/>
  <linearGradient id="linearGradient4004" y2="520.17" gradientUnits="userSpaceOnUse" x2="365.98" gradientTransform="matrix(.44931 0 0 .44741 -116.01 -161.73)" y1="408.4" x1="365.51">
   <stop id="stop3787" stop-color="#384880" offset="0"/>
   <stop id="stop3789" offset="1"/>
  </linearGradient>
 </defs>
 <metadata id="metadata2413">
  <rdf:RDF>
   <cc:Work rdf:about="">
    <dc:format>image/svg+xml</dc:format>
    <dc:type rdf:resource="http://purl.org/dc/dcmitype/StillImage"/>
    <dc:title/>
   </cc:Work>
  </rdf:RDF>
 </metadata>
 <g id="layer2" display="none">
  <rect id="rect3745" opacity=".9" rx="6" ry="6" height="85" filter="url(#filter3174)" width="86" y="7" x="5" fill="url(#ButtonShadow)"/>
 </g>
 <g id="layer3">
  <path id="path3786" opacity="0.08" d="m12-95.031c-5.5111 0-10.031 4.5202-10.031 10.031v71c0 5.5111 4.5202 10.031 10.031 10.031h72c5.5111 0 10.031-4.5202 10.031-10.031v-71c0-5.5111-4.5202-10.031-10.031-10.031h-72z" transform="scale(1,-1)" fill="url(#linearGradient3780)"/>
  <path id="path3778" opacity=".1" d="m12-94.031c-4.9716 0-9.0312 4.0596-9.0312 9.0312v71c0 4.9716 4.0596 9.0312 9.0312 9.0312h72c4.9716 0 9.0312-4.0596 9.0312-9.0312v-71c0-4.9716-4.0596-9.0312-9.0312-9.0312h-72z" transform="scale(1,-1)" fill="url(#linearGradient3780)"/>
  <path id="path3770" opacity=".2" d="m12-93c-4.4091 0-8 3.5909-8 8v71c0 4.4091 3.5909 8 8 8h72c4.4091 0 8-3.5909 8-8v-71c0-4.4091-3.5909-8-8-8h-72z" transform="scale(1,-1)" fill="url(#linearGradient3780)"/>
  <rect id="rect3723" opacity=".3" transform="scale(1,-1)" rx="7" ry="7" height="85" width="86" y="-92" x="5" fill="url(#linearGradient3780)"/>
  <rect id="rect3716" opacity=".45" transform="scale(1,-1)" rx="6" ry="6" height="84" width="84" y="-91" x="6" fill="url(#linearGradient3721)"/>
 </g>
 <g id="layer1">
  <rect id="rect2419" rx="6" ry="6" height="84" width="84" y="6" x="6" fill="url(#linearGradient3617)"/>
  <path id="rect3728" opacity=".35" d="m12 6c-3.324 0-6 2.676-6 6v2 68 2c0 0.33472 0.04135 0.6507 0.09375 0.96875 0.0487 0.2956 0.09704 0.59692 0.1875 0.875 0.00988 0.03038 0.020892 0.0636 0.03125 0.09375 0.098865 0.28777 0.23488 0.54745 0.375 0.8125 0.14459 0.27351 0.31562 0.53562 0.5 0.78125 0.18438 0.24564 0.37378 0.47347 0.59375 0.6875 0.43995 0.42806 0.94291 0.81453 1.5 1.0938 0.27854 0.13961 0.57347 0.24695 0.875 0.34375-0.2562-0.10022-0.48671-0.23627-0.71875-0.375-0.00741-0.0044-0.023866 0.0045-0.03125 0-0.031933-0.0193-0.062293-0.04251-0.09375-0.0625-0.1204-0.0767-0.23102-0.16351-0.34375-0.25-0.10617-0.0808-0.21328-0.16111-0.3125-0.25-0.1778-0.162-0.3473-0.346-0.4999-0.531-0.1075-0.131-0.2183-0.266-0.3124-0.407-0.0251-0.038-0.0385-0.086-0.0626-0.125-0.0647-0.103-0.1302-0.204-0.1874-0.312-0.1011-0.195-0.2057-0.416-0.2813-0.625-0.008-0.022-0.0236-0.041-0.0313-0.063-0.0318-0.092-0.0358-0.187-0.0624-0.281-0.0304-0.107-0.0704-0.203-0.0938-0.313-0.0729-0.341-0.125-0.698-0.125-1.062v-2-68-2c0-2.782 2.2182-5 5-5h2 68 2c2.7818 0 5 2.2182 5 5v2 68 2c0 0.3643-0.05212 0.72099-0.125 1.0625-0.04415 0.20689-0.08838 0.39766-0.15625 0.59375-0.0077 0.02195-0.0233 0.04069-0.03125 0.0625-0.06274 0.17374-0.13838 0.36745-0.21875 0.53125-0.04158 0.0828-0.07904 0.16995-0.125 0.25-0.0546 0.09721-0.12677 0.18835-0.1875 0.28125-0.09411 0.14096-0.20492 0.276-0.3125 0.40625-0.14317 0.17445-0.30314 0.347-0.46875 0.5-0.01117 0.0102-0.01998 0.02115-0.03125 0.03125-0.13839 0.12556-0.28509 0.23444-0.4375 0.34375-0.10257 0.07315-0.20432 0.15336-0.3125 0.21875-0.0074 0.0045-0.02384-0.0044-0.03125 0-0.23204 0.13873-0.46255 0.27478-0.71875 0.375 0.30153-0.0968 0.59646-0.20414 0.875-0.34375 0.55709-0.27922 1.0601-0.66569 1.5-1.0938 0.21997-0.21403 0.40937-0.44186 0.59375-0.6875s0.35541-0.50774 0.5-0.78125c0.14012-0.26505 0.27614-0.52473 0.375-0.8125 0.01041-0.03078 0.02133-0.06274 0.03125-0.09375 0.09046-0.27808 0.1388-0.5794 0.1875-0.875 0.053-0.318 0.094-0.634 0.094-0.969v-2-68-2c0-3.324-2.676-6-6-6h-72z" fill="url(#linearGradient3188)"/>
  <path id="path3615" opacity=".2" d="m12 90c-3.324 0-6-2.676-6-6v-2-68-2c0-0.33472 0.04135-0.6507 0.09375-0.96875 0.0487-0.2956 0.09704-0.59692 0.1875-0.875 0.0099-0.03 0.0209-0.063 0.0313-0.094 0.0989-0.2873 0.2349-0.547 0.375-0.812 0.1446-0.2735 0.3156-0.5356 0.5-0.7812 0.1844-0.2457 0.3738-0.4735 0.5937-0.6876 0.44-0.428 0.943-0.8145 1.5-1.0937 0.2786-0.1396 0.5735-0.2469 0.8748-0.3437-0.256 0.1002-0.4865 0.2362-0.7185 0.375-0.00741 0.0044-0.023866-0.0045-0.03125 0-0.031933 0.0193-0.062293 0.04251-0.09375 0.0625-0.1204 0.0767-0.23102 0.16351-0.34375 0.25-0.10617 0.0808-0.21328 0.16111-0.3125 0.25-0.1779 0.1614-0.3474 0.3453-0.5 0.5312-0.1075 0.1303-0.2183 0.2653-0.3124 0.4063-0.0251 0.0383-0.0385 0.0858-0.0626 0.125-0.0647 0.103-0.1302 0.2045-0.1874 0.3124-0.1011 0.1948-0.2057 0.4158-0.2813 0.625-0.008 0.0219-0.0236 0.0406-0.0313 0.0626-0.0318 0.0919-0.0358 0.1868-0.0624 0.2812-0.0304 0.1066-0.0704 0.203-0.0938 0.3125-0.0729 0.3415-0.125 0.6985-0.125 1.0625v2 68 2c0 2.7818 2.2182 5 5 5h2 68 2c2.7818 0 5-2.2182 5-5v-2-68-2c0-0.364-0.052-0.721-0.125-1.0625-0.044-0.2069-0.088-0.3977-0.156-0.5937-0.008-0.022-0.024-0.0407-0.031-0.0626-0.063-0.1737-0.139-0.3674-0.219-0.5312-0.042-0.0828-0.079-0.17-0.125-0.25-0.055-0.0972-0.127-0.1884-0.188-0.2812-0.094-0.141-0.205-0.276-0.312-0.4063-0.143-0.1745-0.303-0.347-0.469-0.5-0.011-0.0102-0.02-0.0211-0.031-0.0313-0.139-0.1255-0.285-0.2344-0.438-0.3437-0.102-0.0731-0.204-0.1534-0.312-0.2187-0.0074-0.0045-0.02384 0.0044-0.03125 0-0.23204-0.13873-0.46255-0.27478-0.71875-0.375 0.30153 0.0968 0.59646 0.20414 0.875 0.34375 0.55709 0.27922 1.0601 0.66569 1.5 1.0938 0.21997 0.21403 0.40937 0.44186 0.59375 0.6875s0.35541 0.50774 0.5 0.78125c0.14012 0.26505 0.27614 0.52473 0.375 0.8125 0.01041 0.03078 0.02133 0.06274 0.03125 0.09375 0.09046 0.27808 0.1388 0.5794 0.1875 0.875 0.053 0.318 0.094 0.634 0.094 0.969v2 68 2c0 3.324-2.676 6-6 6h-72z" fill="url(#radialGradient3619)"/>
 </g>
 <g id="layer5">
  <rect id="rect3171" height="66" stroke="#fff" stroke-linecap="round" stroke-width=".5" fill="url(#linearGradient3613)" rx="12" ry="12" width="66" opacity=".1" clip-path="url(#clipPath3613)" filter="url(#filter3794)" y="15" x="15"/>
 </g>
 <g id="layer4">
  <path id="path4020" opacity=".05" d="m48.125 19.094c-4.7031 0-10.318 1.0526-15.094 3.6562-4.8095 2.6223-8.875 7.1895-8.875 13.5 0 6.1028 3.945 10.457 8.5625 12.844 4.5761 2.3657 9.8976 3.1875 14.188 3.1875 3.7943 0 7.4169 0.53754 9.6562 1.5312 1.1504 0.5105 1.9158 1.0738 2.375 1.6562 0.47099 0.59736 0.6875 1.1657 0.6875 2.1875 0 1.0048-0.22148 1.7277-0.6875 2.375-0.46602 0.64728-1.214 1.2221-2.3438 1.8125-2.1759 1.1372-5.7058 1.875-9.5312 1.875-4.0879 0-6.8667-1.3296-8.6875-2.875-0.88162-0.74826-1.5262-1.6039-1.9375-2.3438-0.19867-0.3574-0.31974-0.70134-0.40625-0.96875s-0.125-0.50896-0.125-0.4375c0-1.9488-1.2905-3.306-2.4688-4.0625-1.1948-0.7671-2.656-1.1875-4.2188-1.1875-1.5146 0-2.9829 0.37767-4.1562 1.2812-1.2196 0.93917-1.9688 2.4002-1.9688 3.9688v10.219c-0.0021 0.13968-0.0021-0.10843 0 0.03125 0.000004 0.01976 0.000013 0.06325 0 0.0625 0.0531 1.5335 0.38034 3.2822 1.4688 4.8125 0.55685 0.7829 1.3039 1.4065 2.1875 1.875h-5.8438v-11.094c0.0013 0.11781-0.000027-0.0081 0-0.03125 0.00002-0.01739 0.000494-0.0696 0-0.09375 0.000032-0.01159 0.000002-0.05166 0-0.0625s0.000082-0.09298 0-0.09375c-0.000004-0.000041-0.02636-0.03481-0.03125-0.0625 0.000006-0.0063 0.000116-0.02097 0-0.03125-0.000058-0.0051 0.000418-0.01827 0-0.03125-0.000209-0.0065 0.001-0.01467 0-0.03125-0.000261-0.0041 0.0017-0.01799 0-0.03125-0.0038-0.01294 0.0016-0.02619 0-0.03125-0.0043-0.03121 0.00001-0.06245 0-0.0625-0.000077-0.00038-0.02902-0.11814-0.03125-0.125-0.0022-0.0069-0.02943 0.0055-0.03125 0-0.0036-0.0109 0.0039-0.01967 0-0.03125-0.000381-0.0015-0.02349-0.07059-0.03125-0.09375-0.0078-0.02316 0.000453-0.02976 0-0.03125-0.000905-0.003-0.06145-0.12208-0.0625-0.125-0.0001-0.00028-0.01873-0.06433-0.03125-0.09375 0.0077 0.0232-0.000591-0.03269 0-0.03125 0.000591 0.0014-0.03911-0.04679-0.03125-0.03125-0.000268-0.000792 0.01117-0.03491 0-0.0625-0.0019-0.0058 0.0028-0.02297 0-0.03125-0.00071-0.0021-0.03026 0.0028-0.03125 0-0.000992-0.0028 0.0018-0.02635 0-0.03125-0.0035-0.0098-0.03116-0.12483-0.03125-0.125-0.00002-0.000038-0.0389-0.02703-0.0625-0.0625-0.0041-0.0097-0.03121-0.03117-0.03125-0.03125-0.00002-0.000041-0.01527-0.03419-0.03125-0.0625-0.000155-0.000189-0.02463-0.02394-0.03125-0.03125-0.0041-0.0072 0.000005-0.03124 0-0.03125-0.000045-0.000068-0.07121-0.0648-0.09375-0.09375 0.000026 0.000036 0.0063-0.02366 0-0.03125-0.0051-0.0077-0.01913-0.01406-0.03125-0.03125-0.0147-0.0177-0.02878-0.02865-0.03125-0.03125-0.0064-0.0068-0.02993-0.02991-0.03125-0.03125-0.000485-0.000606-0.05504-0.08628-0.0625-0.09375-0.0075-0.0075-0.02349-0.02354-0.03125-0.03125-0.0021-0.0023-0.09159-0.09152-0.09375-0.09375-0.08693-0.08958-0.01578-0.01577-0.03125-0.03125s-0.06137-0.06144-0.0625-0.0625c-0.01029-0.01034-0.0393-0.04064-0.0625-0.0625 0.01542 0.01553-0.03243-0.03226-0.03125-0.03125-0.0054-0.0054-0.09344-0.09351-0.09375-0.09375-0.0025-0.0019-0.12246-0.09197-0.125-0.09375-0.000159-0.000111-0.08375-0.02586-0.09375-0.03125-0.01-0.0054-0.02715-0.02914-0.03125-0.03125-0.01203-0.0071-0.03749-0.0031-0.03125 0-0.03333-0.02145-0.09267-0.06189-0.09375-0.0625-0.001-0.000589-0.0024-0.01653-0.03125-0.03125-0.01155-0.0078-0.02023-0.0239-0.03125-0.03125-0.0055-0.0037-0.02407 0.0047-0.03125 0-0.0042-0.0026-0.02018-0.02459-0.03125-0.03125-0.01107-0.0067-0.09366-0.03121-0.09375-0.03125-0.0012-0.000525-0.0849-0.048-0.125-0.0625-0.01242-0.0053-0.03183-0.000226-0.03125 0-0.03217-0.0134-0.09346-0.0624-0.09375-0.0625-0.0454-0.01532-0.12201-0.0304-0.125-0.03125-0.000047-0.000013-0.15616-0.03124-0.15625-0.03125 0.0021 0.000686-0.02808 0.0011-0.03125 0-0.02291-0.002-0.05367 0.000389-0.0625 0-0.006-0.002 0.0091-0.02832 0-0.03125-0.0045-0.0015-0.02 0.0034-0.03125 0-0.0056-0.0017-0.01663 0.004-0.03125 0s-0.1249-0.03124-0.125-0.03125c-0.000192-0.000026-0.08475 0.0002-0.09375 0s-0.02734 0.000031-0.03125 0c-0.0015-0.000136-0.13306-0.000051-0.15625 0l-2.0312-0.0625h-0.0625c-0.01636-0.000569-0.01818 0.000398-0.03125 0s-0.0291-0.000076-0.03125 0c-0.0033-0.00017-0.21725 0-0.1875 0 0.0238 0-0.08078-0.000368-0.125 0-0.0046-0.000013-0.02035-0.000313-0.03125 0-0.0436 0.0013-0.12367-0.000136-0.125 0a0.97327 0.97327 0 0 0 -0.15625 0c-0.000349 0.000066-0.08514 0.02857-0.09375 0.03125-0.0086 0.0027-0.02643-0.0016-0.03125 0-0.0096 0.0031-0.0214 0.02797-0.03125 0.03125-0.01971 0.0066-0.03936-0.0078-0.0625 0-0.04628 0.01557-0.02852 0.03048-0.03125 0.03125-0.01936 0.0038-0.04451-0.0036-0.0625 0-0.009 0.0018-0.02032-0.0023-0.03125 0-0.0055 0.0012-0.01983 0.02862-0.03125 0.03125-0.01142 0.0026-0.12467 0.03113-0.125 0.03125-0.07733 0.02917-0.01623-0.006-0.03125 0s-0.04316 0.02353-0.0625 0.03125c-0.03867 0.01543-0.12244 0.06127-0.125 0.0625-0.00016 0.000077-0.1109 0.05332-0.125 0.0625-0.01411 0.0092-0.02553-0.004-0.03125 0-0.01145 0.008-0.02618 0.02755-0.03125 0.03125-0.01013 0.0074 0.0075 0.0256 0 0.03125-0.01506 0.01129-0.04708 0.01955-0.0625 0.03125-0.01178 0.007-0.01192 0.01969-0.03125 0.03125-0.03865 0.02313-0.15394 0.0921-0.15625 0.09375-0.0704 0.05039-0.01913 0.0222-0.03125 0.03125-0.01212 0.009-0.04701 0.01965-0.0625 0.03125-0.03098 0.0232-0.09159 0.06065-0.09375 0.0625-0.0022 0.0018-0.09413 0.09406-0.125 0.125s-0.01248 0.01151-0.0625 0.0625c0.17091-0.17421-0.18389 0.18311-0.1875 0.1875-0.0036 0.0044-0.15303 0.18282-0.15625 0.1875-0.0016 0.0023-0.03935 0.08636-0.0625 0.125-0.01158 0.01932-0.02226 0.04745-0.03125 0.0625-0.009 0.01505 0.02727-0.04086-0.03125 0.0625-0.000175 0.000309-0.05871 0.08488-0.0625 0.09375-0.0038 0.0093 0.0034 0.02269 0 0.03125-0.000603 0.001 0.0039 0.02483 0 0.03125-0.0075 0.01452-0.02367 0.01667-0.03125 0.03125-0.01534 0.03871 0.0012 0.02867 0 0.03125-0.007 0.01149-0.02487 0.02061-0.03125 0.03125-0.0053 0.0089-0.02503 0.0206-0.03125 0.03125-0.0031 0.0053 0.0064 0.01983 0 0.03125-0.0032 0.0057-0.02376 0.01685-0.03125 0.03125-0.0075 0.0144-0.03119 0.12483-0.03125 0.125-0.000119 0.000335-0.02892 0.08352-0.03125 0.09375-0.0023 0.01023-0.03018 0.02616-0.03125 0.03125-0.0021 0.01018 0.0018 0.02245 0 0.03125-0.0035 0.0176 0.0038 0.04314 0 0.0625-0.000716 0.0027-0.02353 0.08631-0.03125 0.125-0.0039 0.01935 0.003 0.04724 0 0.0625s-0.01089-0.0577-0.03125 0.0625c-0.0012 0.007-0.03079 0.24434-0.03125 0.25-0.000229 0.0028-0.000055 0.14879 0 0.1875s-0.000168 0.03442 0 0.0625l0.156 16.062c-0.0014-0.12345 0.000029 0.0081 0 0.03125-0.000029 0.0232-0.000094 0.12342 0 0.125-0.000012 0.0058-0.000001 0.02579 0 0.03125 0.000002 0.01093-0.000085 0.09296 0 0.09375 0.000005 0.000042 0.02641 0.03532 0.03125 0.0625-0.000006 0.0064-0.000124 0.02068 0 0.03125 0.000062 0.0053-0.000448 0.01785 0 0.03125 0.0019 0.0096-0.000852 0.028 0 0.03125 0.0044 0.01691-0.0019 0.02477 0 0.03125 0.0038 0.01296-0.0016 0.02617 0 0.03125 0.000855 0.0038 0.03039-0.0038 0.03125 0 0.0042 0.02947-0.000009 0.06245 0 0.0625 0.000982 0.0029 0.001 0.03434 0 0.03125 0.0076 0.02885-0.0017 0.08867 0 0.09375 0.0022 0.0068 0.02944-0.0054 0.03125 0 0.0036 0.01086-0.0039 0.01967 0 0.03125 0.000793 0.0031 0.03031 0.12198 0.03125 0.125 0.00094 0.003 0.06142 0.15328 0.0625 0.15625 0.0077 0.0232 0.03064 0.12354 0.03125 0.125 0.0018 0.0055-0.0024 0.02422 0 0.03125 0.0024 0.007 0.06233 0.09339 0.0625 0.09375 0.04635 0.09677 0.02346 0.04691 0.03125 0.0625 0.0078 0.01559 0.0305 0.06111 0.03125 0.0625 0.000752 0.0014 0.04702 0.10188 0.0625 0.125 0.000029 0.000047 0.03833 0.02869 0.0625 0.0625 0.0069 0.0097-0.0062 0.02269 0 0.03125 0.00001 0.000019 0.02413 0.01986 0.03125 0.03125 0.01334 0.01566 0.02575 0.02527 0.03125 0.03125 0.02216 0.03546 0.03123 0.09373 0.03125 0.09375 0.000059 0.000079 0.01309 0.0096 0.03125 0.03125 0.0049 0.0074 0.02357 0.01964 0.03125 0.03125 0.01297 0.01726 0.0315 0.03155 0.03125 0.03125 0.0023 0.0033-0.0051 0.02388 0 0.03125 0.004 0.004 0.02736-0.0039 0.03125 0 0.01996 0.02538 0.06239 0.09363 0.0625 0.09375 0.0021 0.0023 0.11366 0.11366 0.09375 0.09375s0.09141 0.09162 0.09375 0.09375c0.000146 0.000133 0.08638 0.08861 0.09375 0.09375 0.004 0.004 0.02724-0.004 0.03125 0 0.003 0.003 0.02397 0.02433 0.03125 0.03125 0.01161 0.0077 0.02384 0.02634 0.03125 0.03125 0.02165 0.01815 0.03117 0.03119 0.03125 0.03125 0.000021 0.000016 0.05829 0.0091 0.09375 0.03125 0.006 0.0055 0.01559 0.01791 0.03125 0.03125 0.01139 0.0071 0.03123 0.03124 0.03125 0.03125 0.0086 0.0062 0.02159-0.0069 0.03125 0 0.0338 0.02417 0.06245 0.06247 0.0625 0.0625 0.02313 0.01548 0.12361 0.06175 0.125 0.0625 0.0014 0.000752 0.04691 0.02346 0.0625 0.03125 0.01559 0.0078-0.03427-0.0151 0.0625 0.03125 0.000357 0.000171 0.08672 0.0601 0.09375 0.0625 0.007 0.0024 0.02575-0.0018 0.03125 0 0.0015 0.000614 0.1018 0.02356 0.125 0.03125 0.003 0.0011 0.15323 0.06156 0.15625 0.0625 0.003 0.00094 0.12194 0.03046 0.125 0.03125 0.01158 0.0039 0.02039-0.0036 0.03125 0 0.0054 0.0018-0.0068 0.02904 0 0.03125 0.0068 0.0022 0.12461-0.00008 0.125 0 0.0087 0.0027 0.1252 0.03128 0.125 0.03125-0.000147-0.000023 0.0566-0.0033 0.09375 0 0.02718 0.0048 0.06246 0.03124 0.0625 0.03125 0.000787 0.000085 0.08282-0.000002 0.09375 0s0.0509 0.000034 0.0625 0c0.02465 0.000525 0.07635 0.000022 0.09375 0 0.02319-0.000029 0.1547 0.0014 0.03125 0h64c-0.12345 0.0014 0.0081-0.000029 0.03125 0 0.0232 0.000029 0.12342 0.000095 0.125 0 0.0058 0.000012 0.02579 0.000001 0.03125 0 0.01093-0.000002 0.09296 0.000085 0.09375 0 0.000042-0.000005 0.03532-0.02641 0.0625-0.03125 0.03715-0.0033 0.0939-0.000023 0.09375 0 0.008-0.000524 0.03256 0.0042 0.0625 0 0.01016-0.0033-0.0063-0.02915 0-0.03125 0.02947-0.0042 0.06245 0.000009 0.0625 0 0.0087-0.0027 0.0297 0.000505 0.03125 0 0.02885-0.0076 0.08867 0.0017 0.09375 0 0.0068-0.0022-0.0054-0.02944 0-0.03125 0.01086-0.0036 0.01967 0.0039 0.03125 0 0.0031-0.000793 0.12198-0.03031 0.125-0.03125 0.003-0.00094 0.15328-0.06141 0.15625-0.0625 0.0232-0.0077 0.12354-0.03064 0.125-0.03125 0.0055-0.0018 0.02422 0.0024 0.03125 0 0.007-0.0024 0.09339-0.06233 0.09375-0.0625 0.09677-0.04635 0.04691-0.02346 0.0625-0.03125 0.01559-0.0078 0.06111-0.0305 0.0625-0.03125 0.0014-0.000752 0.10188-0.04702 0.125-0.0625 0.000047-0.000029 0.02869-0.03833 0.0625-0.0625 0.01285-0.0074 0.02419 0.0041 0.03125 0 0.000019-0.00001 0.01986-0.02413 0.03125-0.03125 0.0068-0.0051 0.01833-0.02139 0.03125-0.03125 0.03546-0.02216 0.09373-0.03123 0.09375-0.03125 0.000159-0.000118 0.05522-0.05558 0.0625-0.0625 0.01726-0.01297 0.03155-0.0315 0.03125-0.03125-0.0012 0.001 0.04666-0.0468 0.03125-0.03125 0.02538-0.01996 0.09363-0.06239 0.09375-0.0625 0.0023-0.0021 0.11366-0.11366 0.09375-0.09375s0.09162-0.09141 0.09375-0.09375c0.000111-0.000122 0.04254-0.06837 0.0625-0.09375 0.0078-0.0077 0.02322-0.02323 0.03125-0.03125 0.003-0.003 0.02433-0.02397 0.03125-0.03125 0.01297-0.01726 0.03371-0.03495 0.03125-0.03125 0.01815-0.02165 0.03119-0.03117 0.03125-0.03125 0.000016-0.000021 0.0091-0.05829 0.03125-0.09375 0.0099-0.01292 0.02612-0.02449 0.03125-0.03125 0.0071-0.01139 0.03124-0.03123 0.03125-0.03125 0.000042-0.000081-0.0053-0.01936 0-0.03125 0.02417-0.03381 0.06247-0.06245 0.0625-0.0625 0.01548-0.02312 0.06175-0.12361 0.0625-0.125 0.000752-0.0014 0.02346-0.04691 0.03125-0.0625 0.0078-0.01559-0.0151 0.03427 0.03125-0.0625 0.000171-0.000357 0.0601-0.08672 0.0625-0.09375 0.0024-0.007-0.0018-0.02575 0-0.03125-0.000614 0.0015 0.0076-0.05445 0-0.03125 0.01003-0.02744 0.02537-0.07601 0.03125-0.09375 0.0011-0.003 0.06156-0.15323 0.0625-0.15625 0.00094-0.003 0.03046-0.12194 0.03125-0.125 0.0039-0.01158-0.0036-0.02039 0-0.03125 0.0018-0.0054 0.02904 0.0068 0.03125 0 0.0017-0.0051-0.0076-0.0649 0-0.09375 0.000505-0.0015-0.0027-0.02257 0-0.03125 0.0039-0.01157-0.0042-0.04993 0-0.0625 0.0078-0.03405 0.03127-0.0626 0.03125-0.0625-0.000023 0.000147-0.0033-0.0566 0-0.09375 0.0048-0.02718 0.03124-0.06246 0.03125-0.0625 0.000085-0.000787-0.000002-0.08282 0-0.09375s0.000034-0.0509 0-0.0625c0.000525-0.02465 0.000022-0.07635 0-0.09375-0.000029-0.0232 0.0014-0.1547 0-0.03125v-2c0.0014 0.12345-0.000029-0.0081 0-0.03125 0.000022-0.0174 0.000525-0.0691 0-0.09375-0.000068 0.02319-0.000095-0.03283 0-0.03125 0.000012-0.0058 0.000001-0.02579 0-0.03125-0.000002-0.01093 0.000085-0.09296 0-0.09375-0.000005-0.000042-0.02641-0.03532-0.03125-0.0625 0.000006-0.0064 0.000124-0.02068 0-0.03125-0.000062-0.0053 0.000448-0.01785 0-0.03125-0.000224-0.0067 0.0011-0.0142 0-0.03125-0.000262-0.004 0.0016-0.01891 0-0.03125-0.0038-0.01296 0.0016-0.02617 0-0.03125-0.000855-0.0038-0.03039 0.0038-0.03125 0-0.0042-0.01257 0.0039-0.05093 0-0.0625-0.00008-0.000387 0.0022-0.11822 0-0.125-0.0022-0.0068-0.02944 0.0054-0.03125 0-0.0036-0.01086 0.0039-0.01967 0-0.03125-0.000793-0.0031-0.03031-0.12198-0.03125-0.125-0.00094-0.003-0.06141-0.15328-0.0625-0.15625-0.0059-0.01774-0.02122-0.06631-0.03125-0.09375 0.0076 0.0232-0.000614-0.03271 0-0.03125-0.0018-0.0055 0.0024-0.02422 0-0.03125-0.0024-0.007-0.06233-0.09339-0.0625-0.09375-0.04635-0.09677-0.02346-0.04691-0.03125-0.0625-0.0078-0.01559-0.0305-0.06111-0.03125-0.0625-0.000752-0.0014-0.04702-0.10188-0.0625-0.125-0.000029-0.000047-0.03833-0.02869-0.0625-0.0625-0.0053-0.01189 0.000042-0.03117 0-0.03125-0.0047-0.0064-0.02757 0.005-0.03125 0 0.000009 0.000013 0.0029-0.02739 0-0.03125-0.01334-0.01566-0.02575-0.02527-0.03125-0.03125-0.02216-0.03546-0.03123-0.09373-0.03125-0.09375-0.000059-0.000079-0.0131-0.0096-0.03125-0.03125 0.0025 0.0037-0.01828-0.01399-0.03125-0.03125-0.0077-0.01161-0.02404-0.02044-0.03125-0.03125-0.0023-0.0033 0.0051-0.02388 0-0.03125-0.01082-0.01246-0.03902-0.0077-0.03125 0-0.01996-0.02538-0.06239-0.09363-0.0625-0.09375-0.0021-0.0023-0.11366-0.11366-0.09375-0.09375s-0.09141-0.09162-0.09375-0.09375c-0.000122-0.000111-0.06837-0.04254-0.09375-0.0625 0.0077 0.0078 0.01246-0.02043 0-0.03125-0.004-0.004-0.02724 0.004-0.03125 0-0.003-0.003-0.02397-0.02433-0.03125-0.03125-0.0073-0.0069-0.06234-0.06238-0.0625-0.0625-0.000021-0.000016-0.05829-0.0091-0.09375-0.03125-0.006-0.0055-0.01559-0.01791-0.03125-0.03125-0.0025-0.0021-0.02464 0.0049-0.03125 0-0.01156-0.0086-0.01435-0.01917-0.03125-0.03125-0.03381-0.02417-0.06245-0.06247-0.0625-0.0625-0.02312-0.01548-0.12361-0.06175-0.125-0.0625-0.0014-0.000752-0.04691-0.02346-0.0625-0.03125-0.01559-0.0078 0.03427 0.0151-0.0625-0.03125-0.000357-0.000171-0.08672-0.0601-0.09375-0.0625-0.007-0.0024-0.02575 0.0018-0.03125 0 0.0015 0.000614-0.05445-0.0076-0.03125 0-0.02744-0.01003-0.07601-0.02537-0.09375-0.03125-0.003-0.0011-0.15323-0.06156-0.15625-0.0625-0.003-0.00094-0.12194-0.03046-0.125-0.03125-0.01158-0.0039-0.02039 0.0036-0.03125 0-0.0054-0.0018 0.0068-0.02904 0-0.03125-0.0051-0.0017-0.0649 0.0076-0.09375 0-0.0015-0.000505-0.02257 0.0027-0.03125 0-0.0041-0.0013-0.03223 0.0069-0.0625 0-0.0063-0.0021 0.01016-0.02799 0-0.03125-0.03002-0.0068-0.06259-0.000015-0.0625 0-0.0098-0.0026-0.05669 0.0066-0.09375 0-0.02718-0.0048-0.06246-0.03124-0.0625-0.03125-0.000787-0.000085-0.08282 0.000002-0.09375 0-0.0055-0.000001-0.02549-0.000012-0.03125 0-0.0016-0.000095-0.1018-0.000029-0.125 0s-0.1547-0.0014-0.03125 0h-24c3.6904-0.75804 6.978-2.0008 9.6562-3.8125 4.426-2.994 7.2819-7.4832 7.25-12.562-0.04801-7.6491-5.0005-12.474-10.5-14.75-5.441-2.253-11.5-2.564-15.406-2.564-3.3796-0.03542-5.7898-0.87847-7.25-1.8438-1.4646-0.96821-1.8438-2.0151-1.8438-2.375 0-1.5425 1.9132-5.9062 9.9688-5.9062 4.6274 0 7.0912 1.1923 8.4688 2.3438 1.3677 1.1432 1.7063 2.423 1.75 2.6562a0.97327 0.97327 0 0 0 0.03125 0.0625c-0.000465-0.0017 0.03181 0.09543 0.03125 0.09375-0.000561-0.0017 0.0319 0.0954 0.03125 0.09375 0.06823 0.24559 0.04762 0.13535 0.03125 0.0625-0.007-0.03122 0.02618 0.12005 0 0.03125 0.85393 2.8966 3.7388 4.25 6.4062 4.25 1.3969 0 2.8456-0.30777 4.0312-1.1875 1.2495-0.92711 2-2.417 2-4.0312v-9.5312c0-1.9169-1.1833-3.3196-2.3125-4.1875-1.1787-0.90594-2.7263-1.5312-4.4688-1.5312-1.1478 0-2.4777 0.148-3.75 0.84375-0.4316 0.23601-0.60817 0.50793-0.84375 0.78125-0.95414-0.39336-1.9066-0.78089-3.2188-1.0625-2.4351-0.52263-5.2539-0.875-7.9375-0.875zm-12.406 53.281c1.7928 0.70946 3.6043 1.3031 5.4688 1.7188h-7.2188c0.2996-0.15077 0.62148-0.17741 0.90625-0.40625 0.47578-0.38233 0.60644-0.85537 0.84375-1.3125z" fill="#fff"/>
  <path id="path4016" opacity="0.08" d="m48.125 20.062c-4.5565 0-10.037 1.0298-14.625 3.5312-4.6 2.508-8.375 6.7612-8.375 12.656 0 5.6883 3.6338 9.6954 8.0312 11.969 4.3828 2.2658 9.5892 3.0938 13.75 3.0938 3.8831 0 7.5985 0.53162 10.062 1.625 1.2489 0.55419 2.1331 1.1947 2.7188 1.9375 0.58566 0.7428 0.90625 1.5855 0.90625 2.7812 0 2.3273-1.1401 3.7965-3.5625 5.0625-2.3982 1.2533-6.0256 1.9688-9.9688 1.9688-4.3001 0-7.3239-1.406-9.3125-3.0938-0.98537-0.83632-1.6939-1.7932-2.1562-2.625-0.46239-0.8318-0.65625-1.5847-0.65625-1.875 0-1.5114-1.0189-2.6001-2.0312-3.25-1.0277-0.6598-2.2982-1.0312-3.6875-1.0312-1.3475 0-2.5927 0.34697-3.5625 1.0938-0.99068 0.76289-1.5938 1.9301-1.5938 3.1875v10.219c-0.000028 0.0019-0.000028 0.02935 0 0.03125a0.87866 0.87866 0 0 0 0 0.03125c0.04929 1.4234 0.34469 2.9645 1.2812 4.2812 0.96255 1.3533 2.6263 2.2812 4.5938 2.2812 1.5594 0 3.0619 0.0049 4.3125-1 0.57443-0.46161 0.86958-1.0827 1.0938-1.7188 4.1597 1.743 8.4796 2.7188 13.031 2.7188 6.7499 0 12.54-1.6207 16.75-4.4688 4.2155-2.8516 6.8421-7.0357 6.8125-11.75-0.047-7.239-4.654-11.67-9.908-13.844-5.233-2.165-11.181-2.5-15.031-2.5-3.5343-0.03705-6.1286-0.90747-7.7812-2-1.6551-1.0941-2.2812-2.3453-2.2812-3.1875 0-2.2659 2.5264-6.875 10.938-6.875 4.7966 0 7.524 1.2504 9.0938 2.5625 1.5697 1.3121 2.008 2.7608 2.0938 3.2188a0.87866 0.87866 0 0 0 0.03125 0.09375c0.00096 0.0034 0.01558 0.04682 0.03125 0.09375 0.0067 0.02394 0.02426 0.0388 0.03125 0.0625 0.70842 2.403 3.1219 3.5625 5.4688 3.5625 1.2517 0 2.4672-0.28005 3.4375-1 1.0008-0.74258 1.625-1.9464 1.625-3.25v-9.5312c0-1.5151-0.93844-2.6384-1.9375-3.4062-1.0281-0.79017-2.3714-1.3438-3.875-1.3438-1.0668 0-2.2103 0.13311-3.2812 0.71875-0.43576 0.23829-0.73968 0.65615-1.0625 1.0312-1.0662-0.46319-2.2016-0.89985-3.6875-1.2188-2.371-0.509-5.12-0.845-7.72-0.845zm-32.625 40.938c-0.0056 0.0011-0.18203 0.06096-0.1875 0.0625-0.0055 0.0015-0.15093 0.02925-0.15625 0.03125-0.0053 0.002-0.15113 0.06004-0.15625 0.0625-0.0051 0.0025-0.12011 0.09086-0.125 0.09375-0.0049 0.0029-0.15163 0.09044-0.15625 0.09375-0.0046 0.0033-0.12068 0.09005-0.125 0.09375-0.0043 0.0037-0.12102 0.12094-0.125 0.125-0.004 0.0041-0.12139 0.12061-0.125 0.125-0.0036 0.0044-0.09053 0.12032-0.09375 0.125-0.0032 0.0047-0.09095 0.15131-0.09375 0.15625-0.0028 0.0049-0.06014 0.15108-0.0625 0.15625-0.0024 0.0052-0.09185 0.1509-0.09375 0.15625-0.0019 0.0054-0.02982 0.15075-0.03125 0.15625-0.0014 0.0055-0.0303 0.15065-0.03125 0.15625-0.000949 0.0056-0.03079 0.18184-0.03125 0.1875-0.000459 0.0057-0.000034 0.15057 0 0.15625l0.156 16.063c0.000036 0.0032-0.000189 0.09059 0 0.09375 0.000189 0.0032-0.000341 0.0906 0 0.09375 0.000341 0.0031 0.03076 0.09062 0.03125 0.09375 0.000493 0.0031-0.000644 0.09065 0 0.09375s0.03046 0.09069 0.03125 0.09375c0.000793 0.0031 0.03031 0.09073 0.03125 0.09375 0.00094 0.003 0.03017 0.09078 0.03125 0.09375 0.0011 0.003 0.03002 0.09083 0.03125 0.09375 0.0012 0.0029 0.02988 0.0909 0.03125 0.09375 0.0014 0.0029 0.02975 0.05972 0.03125 0.0625 0.0015 0.0028 0.06086 0.09104 0.0625 0.09375 0.0016 0.0027 0.06073 0.05987 0.0625 0.0625 0.0018 0.0026 0.02936 0.09121 0.03125 0.09375 0.0019 0.0025 0.06049 0.06006 0.0625 0.0625 0.002 0.0024 0.06037 0.09141 0.0625 0.09375 0.0021 0.0023 0.06026 0.06026 0.0625 0.0625 0.0022 0.0022 0.06016 0.06037 0.0625 0.0625 0.0023 0.0021 0.09131 0.06049 0.09375 0.0625 0.0024 0.002 0.05996 0.06061 0.0625 0.0625 0.0025 0.0019 0.09112 0.02948 0.09375 0.03125 0.0026 0.0018 0.05979 0.06086 0.0625 0.0625 0.0027 0.0016 0.09097 0.061 0.09375 0.0625 0.0028 0.0015 0.05965 0.02988 0.0625 0.03125 0.0029 0.0014 0.09083 0.03002 0.09375 0.03125 0.0029 0.0012 0.09078 0.03016 0.09375 0.03125 0.003 0.0011 0.09073 0.03031 0.09375 0.03125 0.003 0.00094 0.09069 0.03046 0.09375 0.03125 0.0031 0.000793 0.09065 0.03061 0.09375 0.03125 0.0031 0.000644 0.09062-0.000493 0.09375 0 0.0031 0.000493 0.0906 0.03091 0.09375 0.03125 0.0031 0.000341 0.09059-0.000189 0.09375 0 0.0032 0.000189 0.09059-0.000036 0.09375 0h64c0.0032-0.000036 0.09059 0.000189 0.09375 0 0.0032-0.000189 0.0906 0.000341 0.09375 0 0.0031-0.000341 0.09062-0.03076 0.09375-0.03125 0.0031-0.000493 0.09065 0.000644 0.09375 0s0.09069-0.03046 0.09375-0.03125c0.0031-0.000793 0.09073-0.03031 0.09375-0.03125 0.003-0.00094 0.09078-0.03016 0.09375-0.03125 0.003-0.0011 0.09083-0.03002 0.09375-0.03125 0.0029-0.0012 0.0909-0.02988 0.09375-0.03125 0.0029-0.0014 0.05972-0.02975 0.0625-0.03125 0.0028-0.0015 0.09104-0.06086 0.09375-0.0625 0.0027-0.0016 0.05987-0.06073 0.0625-0.0625 0.0026-0.0018 0.09121-0.02936 0.09375-0.03125 0.0025-0.0019 0.06006-0.06049 0.0625-0.0625 0.0024-0.002 0.09141-0.06037 0.09375-0.0625 0.0023-0.0021 0.06026-0.06026 0.0625-0.0625 0.0022-0.0022 0.06037-0.06016 0.0625-0.0625 0.0021-0.0023 0.06049-0.09131 0.0625-0.09375 0.002-0.0024 0.06061-0.05996 0.0625-0.0625 0.0019-0.0025 0.02948-0.09112 0.03125-0.09375 0.0018-0.0026 0.06086-0.05979 0.0625-0.0625 0.0016-0.0027 0.061-0.09097 0.0625-0.09375 0.0015-0.0028 0.02988-0.05965 0.03125-0.0625 0.0014-0.0029 0.03002-0.09083 0.03125-0.09375 0.0012-0.0029 0.03016-0.09078 0.03125-0.09375 0.0011-0.003 0.03031-0.09073 0.03125-0.09375 0.00094-0.003 0.03046-0.09069 0.03125-0.09375 0.000793-0.0031 0.03061-0.09065 0.03125-0.09375 0.000644-0.0031-0.000493-0.09062 0-0.09375 0.000493-0.0031 0.03091-0.0906 0.03125-0.09375 0.000341-0.0031-0.000189-0.09059 0-0.09375 0.000189-0.0032-0.000036-0.09059 0-0.09375v-2c-0.000036-0.0032 0.000189-0.09059 0-0.09375-0.000189-0.0032 0.000341-0.0906 0-0.09375-0.000341-0.0031-0.03076-0.09062-0.03125-0.09375-0.000493-0.0031 0.000644-0.09065 0-0.09375s-0.03046-0.09069-0.03125-0.09375c-0.000793-0.0031-0.03031-0.09073-0.03125-0.09375-0.00094-0.003-0.03016-0.09078-0.03125-0.09375-0.0011-0.003-0.03002-0.09083-0.03125-0.09375-0.0012-0.0029-0.02988-0.0909-0.03125-0.09375-0.0014-0.0029-0.02975-0.05972-0.03125-0.0625-0.0015-0.0028-0.06086-0.09104-0.0625-0.09375-0.0016-0.0027-0.06073-0.05987-0.0625-0.0625-0.0018-0.0026-0.02936-0.09121-0.03125-0.09375-0.0019-0.0025-0.06049-0.06006-0.0625-0.0625-0.002-0.0024-0.06037-0.09141-0.0625-0.09375-0.0021-0.0023-0.06026-0.06026-0.0625-0.0625-0.0022-0.0022-0.06016-0.06037-0.0625-0.0625-0.0023-0.0021-0.09131-0.06049-0.09375-0.0625-0.0024-0.002-0.05996-0.06061-0.0625-0.0625-0.0025-0.0019-0.09112-0.02948-0.09375-0.03125-0.0026-0.0018-0.05979-0.06086-0.0625-0.0625-0.0027-0.0016-0.09097-0.061-0.09375-0.0625-0.0028-0.0015-0.05965-0.02988-0.0625-0.03125-0.0029-0.0014-0.09083-0.03002-0.09375-0.03125-0.0029-0.0012-0.09078-0.03016-0.09375-0.03125-0.003-0.0011-0.09073-0.03031-0.09375-0.03125-0.003-0.00094-0.09069-0.03046-0.09375-0.03125-0.0031-0.000793-0.09065-0.03061-0.09375-0.03125-0.0031-0.000644-0.09062 0.000493-0.09375 0-0.0031-0.000493-0.0906-0.03091-0.09375-0.03125-0.0031-0.000341-0.09059 0.000189-0.09375 0-0.0032-0.000189-0.09059 0.000036-0.09375 0h-60.062v-12.062c-0.000033-0.0031 0.00018-0.09065 0-0.09375s0.000327-0.09066 0-0.09375c-0.000327-0.0031-0.03078-0.09068-0.03125-0.09375-0.000474-0.0031 0.000619-0.09071 0-0.09375-0.000619-0.003-0.03049-0.09074-0.03125-0.09375-0.000763-0.003-0.03035-0.09078-0.03125-0.09375-0.000905-0.003-0.0302-0.09083-0.03125-0.09375-0.001-0.0029-0.03007-0.05963-0.03125-0.0625-0.0012-0.0029-0.02993-0.09094-0.03125-0.09375-0.0013-0.0028-0.0298-0.091-0.03125-0.09375-0.0014-0.0027-0.06092-0.05982-0.0625-0.0625-0.0016-0.0027-0.02955-0.09115-0.03125-0.09375s-0.06067-0.05999-0.0625-0.0625c-0.0018-0.0025-0.06056-0.09133-0.0625-0.09375-0.0019-0.0024-0.06045-0.06017-0.0625-0.0625-0.0021-0.0023-0.06034-0.06027-0.0625-0.0625-0.0022-0.0022-0.06023-0.06038-0.0625-0.0625-0.0023-0.0021-0.06013-0.06049-0.0625-0.0625-0.0024-0.002-0.06004-0.0606-0.0625-0.0625-0.0025-0.0019-0.0912-0.06072-0.09375-0.0625-0.0025-0.0018-0.05987-0.02959-0.0625-0.03125-0.0026-0.0017-0.09105-0.06097-0.09375-0.0625-0.0027-0.0015-0.05973-0.02985-0.0625-0.03125-0.0028-0.0014-0.09091-0.06123-0.09375-0.0625-0.0028-0.0013-0.09086-0.03012-0.09375-0.03125-0.0029-0.0011-0.05956-0.03026-0.0625-0.03125-0.0029-0.000993-0.09076-0.0304-0.09375-0.03125-0.003-0.000852-0.09073 0.000709-0.09375 0-0.003-0.000709-0.0907-0.03068-0.09375-0.03125-0.0031-0.000565-0.09067-0.03083-0.09375-0.03125-0.0031-0.000419-0.09066 0.000273-0.09375 0-0.0031-0.000273-0.09065 0.000126-0.09375 0l-2.093-0.063c-0.0022-0.000226-0.03383 0.0022-0.0625 0-0.01434-0.0011-0.03014 0.000057-0.03125 0-0.0033-0.00017-0.12167 0-0.125 0-0.0033 0-0.09042-0.00017-0.09375 0-0.0033 0.00017-0.09043-0.000339-0.09375 0a0.87866 0.87866 0 0 0 -0.063 0z" fill="#fff"/>
  <path id="path4012" opacity=".15" d="m48.125 20.938c-4.4201 0-9.8017 1.0292-14.219 3.4375-4.417 2.407-7.906 6.349-7.906 11.874 0 5.3187 3.3563 9.013 7.5625 11.188 4.2062 2.1745 9.3026 3 13.344 3 3.9581 0 7.745 0.50657 10.406 1.6875 2.6613 1.1809 4.1562 2.8172 4.1562 5.5312 0 2.6456-1.4373 4.4881-4.0312 5.8438-2.594 1.3556-6.3295 2.0625-10.375 2.0625-4.4949 0-7.7344-1.4957-9.875-3.3125s-3.125-4.053-3.125-5.1562c0-1.1225-0.7453-1.9352-1.625-2.5-0.8797-0.56479-1.9926-0.90625-3.2188-0.90625-1.1988 0-2.2496 0.30436-3.0312 0.90625-0.78161 0.60189-1.25 1.5235-1.25 2.5v10.219a1.0748 1.0748 0 0 0 0 0.03125c0.04569 1.3194 0.32806 2.692 1.125 3.8125s2.179 1.9062 3.875 1.9062c1.55 0 2.7699-0.02486 3.75-0.8125 0.49007-0.39382 0.79721-0.9497 0.96875-1.5625 0.05118-0.18284 0.03087-0.42973 0.0625-0.625 4.3572 1.9761 8.8699 3 13.656 3 6.6092 0 12.222-1.588 16.25-4.3125 4.0277-2.7245 6.465-6.6458 6.4375-11.031-0.042-6.878-4.33-10.946-9.373-13.033-5.044-2.088-10.892-2.438-14.688-2.438-3.675-0.039-6.456-0.95-8.281-2.156-1.826-1.207-2.657-2.671-2.657-3.906 0-2.8893 3.0756-7.75 11.812-7.75 9.8998 0 11.816 5.1842 12.062 6.5a1.0748 1.0748 0 0 0 0.03125 0.09375c0.55454 1.9961 2.5678 3 4.6562 3 1.1127 0 2.1251-0.26414 2.9062-0.84375 0.78116-0.57961 1.2812-1.5163 1.2812-2.5312v-9.5312c0-1.1589-0.70466-2.0354-1.5938-2.7188-0.887-0.684-2.053-1.157-3.342-1.157-0.9842 0-1.986 0.13888-2.875 0.625-0.48976 0.26781-0.93192 0.70855-1.25 1.2188-1.111-0.529-2.427-0.986-4.094-1.344-2.308-0.495-5.005-0.812-7.531-0.812zm-32.469 40.937a1.0748 1.0748 0 0 0 -0.875 1.0625l0.157 16.062a1.0748 1.0748 0 0 0 1.062 1.062h64a1.0748 1.0748 0 0 0 1.062 -1.062v-2a1.0748 1.0748 0 0 0 -1.062 -1.062h-60.938v-12.938a1.0748 1.0748 0 0 0 -1.031 -1.062l-2.156-0.063a1.0748 1.0748 0 0 0 -0.21875 0z" fill="#fff"/>
  <path id="path4006" opacity=".2" d="m48.125 22c-8.4957 0-21.062 4.0854-21.062 14.25 0 9.7503 12.072 13.125 19.844 13.125 8.0927 0 15.625 1.9947 15.625 8.2812 0 6.1255-7.1333 8.9688-15.469 8.9688-9.468 0-14.063-6.304-14.063-9.531 0-1.131-1.758-2.344-3.781-2.344-2.025 0-3.219 1.055-3.219 2.344v10.218c0.081 2.337 1.15 4.688 3.938 4.688 3.0024 0 3.875-0.40891 3.875-3.4062 4.623 2.363 9.415 3.406 14.562 3.406 12.867 0 21.675-6.305 21.625-14.281-0.081-12.892-15.554-14.407-23-14.407-7.687-0.08-12-3.74-12-7.124 0-3.6266 3.7317-8.8125 12.875-8.8125 10.285 0 12.778 5.523 13.125 7.375 0.40456 1.4562 1.8431 2.2188 3.625 2.2188 1.8627 0 3.125-0.94281 3.125-2.3125v-9.5312c0-1.2086-1.8712-2.8125-3.875-2.8125-1.6991 0-3.4503 0.63859-3.5312 2.25-1.699-1.291-7.354-2.564-12.219-2.564zm-32.281 40.938 0.156 16.062h64v-2h-62v-14l-2.1562-0.0625z" fill="#fff"/>
  <path id="path3052" fill="url(#linearGradient4004)" d="m48.125 21c-8.4957 0-21.062 4.0854-21.062 14.25 0 9.7503 12.072 13.125 19.844 13.125 8.0927 0 15.625 1.9947 15.625 8.2812 0 6.1255-7.1333 8.9688-15.469 8.9688-9.468 0-14.063-6.304-14.063-9.531 0-1.131-1.758-2.344-3.781-2.344-2.025 0-3.219 1.055-3.219 2.344v10.218c0.081 2.337 1.15 4.688 3.938 4.688 3.0024 0 3.875-0.40891 3.875-3.4062 4.623 2.363 9.415 3.406 14.562 3.406 12.867 0 21.675-6.305 21.625-14.281-0.081-12.892-15.554-14.407-23-14.407-7.687-0.08-12-3.74-12-7.124 0-3.6266 3.7317-8.8125 12.875-8.8125 10.285 0 12.778 5.523 13.125 7.375 0.40456 1.4562 1.8431 2.2188 3.625 2.2188 1.8627 0 3.125-0.94281 3.125-2.3125v-9.5312c0-1.2086-1.8712-2.8125-3.875-2.8125-1.6991 0-3.4503 0.63859-3.5312 2.25-1.699-1.291-7.354-2.564-12.219-2.564zm-32.281 40.938 0.156 16.062h64v-2h-62v-14l-2.1562-0.0625z"/>
  <path id="path4022" opacity=".5" d="m48.125 21c-8.4957 0-21.062 4.0854-21.062 14.25 0 0.16827 0.02414 0.33551 0.03125 0.5 0.408-9.796 12.677-13.75 21.031-13.75 4.8654 0 10.52 1.2734 12.219 2.5625 0.08092-1.6114 1.8321-2.25 3.5312-2.25 2.0038 0 3.875 1.6039 3.875 2.8125v-1c0-1.2086-1.8712-2.8125-3.875-2.8125-1.6991 0-3.4503 0.63859-3.5312 2.25-1.699-1.289-7.354-2.562-12.219-2.562zm-13.094 14.5c-0.029 0.237-0.031 0.461-0.031 0.688 0 3.3849 4.3134 7.0444 12 7.125 7.3601 0 22.541 1.4835 22.969 13.969 0.0085-0.18515 0.03242-0.37545 0.03125-0.5625-0.081-12.893-15.554-14.408-23-14.408-7.446-0.078-11.708-3.52-11.969-6.812zm-5.8125 18.25c-2.024 0-3.218 1.055-3.218 2.344v1c0-1.289 1.194-2.344 3.219-2.344 2.023 0 3.781 1.213 3.781 2.344 0 3.2268 4.5955 9.5312 14.062 9.5312 8.3354 0 15.469-2.8433 15.469-8.9688 0-0.17432-0.01982-0.33223-0.03125-0.5-0.38 5.779-7.333 8.469-15.438 8.469-9.467 0-14.062-6.304-14.062-9.531 0-1.131-1.758-2.344-3.781-2.344zm-13.375 8.1875v1l2.157 0.062v-1l-2.156-0.062zm2.157 14.062v1h62v-1h-62z"/>
 </g>
</svg>
