<?xml version="1.0" encoding="UTF-8" standalone="no"?>
<!-- Created with Inkscape (http://www.inkscape.org/) -->
<svg id="svg2408" xmlns:rdf="http://www.w3.org/1999/02/22-rdf-syntax-ns#" xmlns="http://www.w3.org/2000/svg" height="96" width="96" version="1.0" xmlns:cc="http://creativecommons.org/ns#" xmlns:xlink="http://www.w3.org/1999/xlink" xmlns:dc="http://purl.org/dc/elements/1.1/">
 <defs id="defs2410">
  <linearGradient id="ButtonShadow" y2="7.0165" gradientUnits="userSpaceOnUse" x2="45.448" gradientTransform="scale(1.0059 .99417)" y1="92.54" x1="45.448">
   <stop id="stop3750" offset="0"/>
   <stop id="stop3752" stop-opacity=".58824" offset="1"/>
  </linearGradient>
  <linearGradient id="linearGradient3737">
   <stop id="stop3739" stop-color="#fff" offset="0"/>
   <stop id="stop3741" stop-color="#fff" stop-opacity="0" offset="1"/>
  </linearGradient>
  <filter id="filter3174" color-interpolation-filters="sRGB">
   <feGaussianBlur id="feGaussianBlur3176" stdDeviation="1.71"/>
  </filter>
  <linearGradient id="linearGradient3188" y2="63.893" xlink:href="#linearGradient3737" gradientUnits="userSpaceOnUse" x2="36.357" y1="6" x1="36.357"/>
  <filter id="filter3794" height="1.384" width="1.384" color-interpolation-filters="sRGB" y="-.192" x="-.192">
   <feGaussianBlur id="feGaussianBlur3796" stdDeviation="5.28"/>
  </filter>
  <linearGradient id="linearGradient3613" y2="138.66" xlink:href="#linearGradient3737" gradientUnits="userSpaceOnUse" x2="48" y1="20.221" x1="48"/>
  <radialGradient id="radialGradient3619" xlink:href="#linearGradient3737" gradientUnits="userSpaceOnUse" cy="90.172" cx="48" gradientTransform="matrix(1.1573 0 0 .99591 -7.551 .19713)" r="42"/>
  <clipPath id="clipPath3613">
   <rect id="rect3615" rx="6" ry="6" height="84" width="84" y="6" x="6" fill="#fff"/>
  </clipPath>
  <linearGradient id="linearGradient3617" y2="5.9877" gradientUnits="userSpaceOnUse" x2="48" y1="90" x1="48">
   <stop id="stop3702" stop-color="#d70751" offset="0"/>
   <stop id="stop3704" stop-color="#e7466b" offset="1"/>
  </linearGradient>
  <linearGradient id="ButtonShadow-0" y2="7.0165" gradientUnits="userSpaceOnUse" x2="45.448" gradientTransform="matrix(1.0059 0 0 .99417 100 0)" y1="92.54" x1="45.448">
   <stop id="stop3750-8" offset="0"/>
   <stop id="stop3752-5" stop-opacity=".58824" offset="1"/>
  </linearGradient>
  <linearGradient id="linearGradient3780" y2="90.239" xlink:href="#ButtonShadow-0" gradientUnits="userSpaceOnUse" x2="32.251" gradientTransform="matrix(1.0238 0 0 1.0119 -1.1429 -98.071)" y1="6.1317" x1="32.251"/>
  <linearGradient id="linearGradient3721" y2="90.239" xlink:href="#ButtonShadow-0" gradientUnits="userSpaceOnUse" x2="32.251" gradientTransform="translate(0,-97)" y1="6.1317" x1="32.251"/>
 </defs>
 <metadata id="metadata2413">
  <rdf:RDF>
   <cc:Work rdf:about="">
    <dc:format>image/svg+xml</dc:format>
    <dc:type rdf:resource="http://purl.org/dc/dcmitype/StillImage"/>
    <dc:title/>
   </cc:Work>
  </rdf:RDF>
 </metadata>
 <g id="layer2" display="none">
  <rect id="rect3745" opacity=".9" rx="6" ry="6" height="85" filter="url(#filter3174)" width="86" y="7" x="5" fill="url(#ButtonShadow)"/>
 </g>
 <g id="layer3">
  <path id="path3786" opacity="0.08" d="m12-95.031c-5.5111 0-10.031 4.5202-10.031 10.031v71c0 5.5111 4.5202 10.031 10.031 10.031h72c5.5111 0 10.031-4.5202 10.031-10.031v-71c0-5.5111-4.5202-10.031-10.031-10.031h-72z" transform="scale(1,-1)" fill="url(#linearGradient3780)"/>
  <path id="path3778" opacity=".1" d="m12-94.031c-4.9716 0-9.0312 4.0596-9.0312 9.0312v71c0 4.9716 4.0596 9.0312 9.0312 9.0312h72c4.9716 0 9.0312-4.0596 9.0312-9.0312v-71c0-4.9716-4.0596-9.0312-9.0312-9.0312h-72z" transform="scale(1,-1)" fill="url(#linearGradient3780)"/>
  <path id="path3770" opacity=".2" d="m12-93c-4.4091 0-8 3.5909-8 8v71c0 4.4091 3.5909 8 8 8h72c4.4091 0 8-3.5909 8-8v-71c0-4.4091-3.5909-8-8-8h-72z" transform="scale(1,-1)" fill="url(#linearGradient3780)"/>
  <rect id="rect3723" opacity=".3" transform="scale(1,-1)" rx="7" ry="7" height="85" width="86" y="-92" x="5" fill="url(#linearGradient3780)"/>
  <rect id="rect3716" opacity=".45" transform="scale(1,-1)" rx="6" ry="6" height="84" width="84" y="-91" x="6" fill="url(#linearGradient3721)"/>
 </g>
 <g id="layer1">
  <rect id="rect2419" rx="6" ry="6" height="84" width="84" y="6" x="6" fill="url(#linearGradient3617)"/>
  <path id="rect3728" opacity=".4" d="m12 6c-3.324 0-6 2.676-6 6v2 68 2c0 0.33472 0.04135 0.6507 0.09375 0.96875 0.0487 0.2956 0.09704 0.59692 0.1875 0.875 0.00988 0.03038 0.020892 0.0636 0.03125 0.09375 0.098865 0.28777 0.23488 0.54745 0.375 0.8125 0.14459 0.27351 0.31562 0.53562 0.5 0.78125 0.18438 0.24564 0.37378 0.47347 0.59375 0.6875 0.43995 0.42806 0.94291 0.81453 1.5 1.0938 0.27854 0.13961 0.57347 0.24695 0.875 0.34375-0.2562-0.10022-0.48671-0.23627-0.71875-0.375-0.00741-0.0044-0.023866 0.0045-0.03125 0-0.031933-0.0193-0.062293-0.04251-0.09375-0.0625-0.1204-0.0767-0.23102-0.16351-0.34375-0.25-0.10617-0.0808-0.21328-0.16111-0.3125-0.25-0.1778-0.162-0.3473-0.346-0.4999-0.531-0.1075-0.131-0.2183-0.266-0.3124-0.407-0.0251-0.038-0.0385-0.086-0.0626-0.125-0.0647-0.103-0.1302-0.204-0.1874-0.312-0.1011-0.195-0.2057-0.416-0.2813-0.625-0.008-0.022-0.0236-0.041-0.0313-0.063-0.0318-0.092-0.0358-0.187-0.0624-0.281-0.0304-0.107-0.0704-0.203-0.0938-0.313-0.0729-0.341-0.125-0.698-0.125-1.062v-2-68-2c0-2.782 2.2182-5 5-5h2 68 2c2.7818 0 5 2.2182 5 5v2 68 2c0 0.3643-0.05212 0.72099-0.125 1.0625-0.04415 0.20689-0.08838 0.39766-0.15625 0.59375-0.0077 0.02195-0.0233 0.04069-0.03125 0.0625-0.06274 0.17374-0.13838 0.36745-0.21875 0.53125-0.04158 0.0828-0.07904 0.16995-0.125 0.25-0.0546 0.09721-0.12677 0.18835-0.1875 0.28125-0.09411 0.14096-0.20492 0.276-0.3125 0.40625-0.14317 0.17445-0.30314 0.347-0.46875 0.5-0.01117 0.0102-0.01998 0.02115-0.03125 0.03125-0.13839 0.12556-0.28509 0.23444-0.4375 0.34375-0.10257 0.07315-0.20432 0.15336-0.3125 0.21875-0.0074 0.0045-0.02384-0.0044-0.03125 0-0.23204 0.13873-0.46255 0.27478-0.71875 0.375 0.30153-0.0968 0.59646-0.20414 0.875-0.34375 0.55709-0.27922 1.0601-0.66569 1.5-1.0938 0.21997-0.21403 0.40937-0.44186 0.59375-0.6875s0.35541-0.50774 0.5-0.78125c0.14012-0.26505 0.27614-0.52473 0.375-0.8125 0.01041-0.03078 0.02133-0.06274 0.03125-0.09375 0.09046-0.27808 0.1388-0.5794 0.1875-0.875 0.053-0.318 0.094-0.634 0.094-0.969v-2-68-2c0-3.324-2.676-6-6-6h-72z" fill="url(#linearGradient3188)"/>
  <path id="path3615" opacity=".2" d="m12 90c-3.324 0-6-2.676-6-6v-2-68-2c0-0.33472 0.04135-0.6507 0.09375-0.96875 0.0487-0.2956 0.09704-0.59692 0.1875-0.875 0.0099-0.03 0.0209-0.063 0.0313-0.094 0.0989-0.2873 0.2349-0.547 0.375-0.812 0.1446-0.2735 0.3156-0.5356 0.5-0.7812 0.1844-0.2457 0.3738-0.4735 0.5937-0.6876 0.44-0.428 0.943-0.8145 1.5-1.0937 0.2786-0.1396 0.5735-0.2469 0.8748-0.3437-0.256 0.1002-0.4865 0.2362-0.7185 0.375-0.00741 0.0044-0.023866-0.0045-0.03125 0-0.031933 0.0193-0.062293 0.04251-0.09375 0.0625-0.1204 0.0767-0.23102 0.16351-0.34375 0.25-0.10617 0.0808-0.21328 0.16111-0.3125 0.25-0.1779 0.1614-0.3474 0.3453-0.5 0.5312-0.1075 0.1303-0.2183 0.2653-0.3124 0.4063-0.0251 0.0383-0.0385 0.0858-0.0626 0.125-0.0647 0.103-0.1302 0.2045-0.1874 0.3124-0.1011 0.1948-0.2057 0.4158-0.2813 0.625-0.008 0.0219-0.0236 0.0406-0.0313 0.0626-0.0318 0.0919-0.0358 0.1868-0.0624 0.2812-0.0304 0.1066-0.0704 0.203-0.0938 0.3125-0.0729 0.3415-0.125 0.6985-0.125 1.0625v2 68 2c0 2.7818 2.2182 5 5 5h2 68 2c2.7818 0 5-2.2182 5-5v-2-68-2c0-0.364-0.052-0.721-0.125-1.0625-0.044-0.2069-0.088-0.3977-0.156-0.5937-0.008-0.022-0.024-0.0407-0.031-0.0626-0.063-0.1737-0.139-0.3674-0.219-0.5312-0.042-0.0828-0.079-0.17-0.125-0.25-0.055-0.0972-0.127-0.1884-0.188-0.2812-0.094-0.141-0.205-0.276-0.312-0.4063-0.143-0.1745-0.303-0.347-0.469-0.5-0.011-0.0102-0.02-0.0211-0.031-0.0313-0.139-0.1255-0.285-0.2344-0.438-0.3437-0.102-0.0731-0.204-0.1534-0.312-0.2187-0.0074-0.0045-0.02384 0.0044-0.03125 0-0.23204-0.13873-0.46255-0.27478-0.71875-0.375 0.30153 0.0968 0.59646 0.20414 0.875 0.34375 0.55709 0.27922 1.0601 0.66569 1.5 1.0938 0.21997 0.21403 0.40937 0.44186 0.59375 0.6875s0.35541 0.50774 0.5 0.78125c0.14012 0.26505 0.27614 0.52473 0.375 0.8125 0.01041 0.03078 0.02133 0.06274 0.03125 0.09375 0.09046 0.27808 0.1388 0.5794 0.1875 0.875 0.053 0.318 0.094 0.634 0.094 0.969v2 68 2c0 3.324-2.676 6-6 6h-72z" fill="url(#radialGradient3619)"/>
  <path id="path2536" fill="#fff" d="m69.584 42.96c0.07037 1.8888-0.55118 2.8067-1.1133 4.4297l-1.0109 0.5027c-0.82637 1.6058 0.08209 1.0195-0.50974 2.2962-1.2915 1.1469-3.9137 3.5877-4.7534 3.8113-0.61372-0.01336 0.41514-0.72396 0.54961-1.0015-1.727 1.1852-1.3861 1.7794-4.0279 2.501l-0.07662-0.17278c-6.5125 3.0647-15.56-3.0076-15.441-11.292-0.06881 0.52537-0.1978 0.39403-0.34165 0.60512-0.33618-4.2616 1.9686-8.542 5.8557-10.293 3.8019-1.881 8.259-1.1102 10.98 1.4299-1.4948-1.9592-4.4727-4.0365-7.9995-3.8442-3.4564 0.0563-6.6907 2.2524-7.7696 4.6377-1.77 1.1141-1.9764 4.2968-2.7473 4.88-1.039 7.6305 1.9522 10.926 7.0128 14.804 0.79432 0.53632 0.2236 0.61841 0.32992 1.0265-1.6809-0.7865-3.2195-1.9748-4.486-3.4298 0.67236 0.98273 1.3971 1.9381 2.3345 2.6886-1.5863-0.53554-3.7042-3.841-4.3211-3.9755 2.7324 4.8926 11.084 8.5803 15.46 6.7501-2.0249 0.07505-4.5962 0.04144-6.8698-0.79901-0.95772-0.49176-2.2547-1.5089-2.0225-1.6989 5.9699 2.2289 12.135 1.6871 17.3-2.4525 1.315-1.0242 2.7504-2.7653 3.1655-2.7887-0.62467 0.93973 0.1071 0.45189-0.37292 1.2814 1.3072-2.1117-0.56994-0.85999 1.3525-3.6464l0.70988 0.97726c-0.26582-1.7544 2.1773-3.8825 1.9287-6.6548 0.56056-0.84748 0.62467 0.91315 0.03049 2.863 0.82481-2.1633 0.21812-2.5112 0.42921-4.2968 0.22751 0.60043 0.53007 1.2376 0.68408 1.8716-0.53788-2.0913 0.54961-3.5205 0.82012-4.7362-0.26738-0.11728-0.8295 0.9241-0.95928-1.5449 0.01954-1.0726 0.29943-0.56212 0.40654-0.82637-0.20953-0.12118-0.76227-0.94364-1.0977-2.5206 0.24158-0.37136 0.65046 0.96084 0.98195 1.0148-0.21343-1.2532-0.5801-2.2094-0.59573-3.1718-0.96944-2.0249-0.34322 0.27051-1.1282-0.86937-1.032-3.2164 0.8553-0.74663 0.98352-2.207 1.5621 2.2633 2.4525 5.7737 2.863 7.227-0.31272-1.7724-0.81699-3.49-1.4338-5.1513 0.47612 0.20092-0.76539-3.6456 0.61841-1.0984-1.4768-5.4297-6.3154-10.504-10.768-12.883 0.54336 0.49801 1.2306 1.1235 0.98508 1.222-2.2156-1.3173-1.8263-1.4213-2.1437-1.978-1.8021-0.73412-1.9225 0.06019-3.1147 0.0016-3.4009-1.8044-4.056-1.6129-7.1856-2.7418l0.14228 0.6661c-2.2524-0.75054-2.6245 0.28302-5.0583 0.0016-0.14777-0.11493 0.78024-0.41905 1.5449-0.52928-2.1781 0.2877-2.0765-0.42999-4.2077 0.07897 0.52459-0.36823 1.0812-0.61294 1.641-0.92566-1.7755 0.10789-4.2405 1.0336-3.4798 0.19076-2.8966 1.2931-8.0417 3.1077-10.929 5.8151l-0.09068-0.60668c-1.3228 1.5879-5.769 4.7424-6.1231 6.801l-0.35416 0.08209c-0.68721 1.1656-1.1336 2.4861-1.6793 3.6846-0.89986 1.5347-1.3197 0.59105-1.1915 0.83184-1.7708 3.5901-2.6519 6.6063-3.411 9.0815 0.54101 0.80917 0.01336 4.8722 0.21734 8.1238-0.88813 16.061 11.272 31.655 24.564 35.254 1.9483 0.69815 4.8449 0.67314 7.3091 0.74194-2.9068-0.83184-3.282-0.44016-6.1153-1.4276-2.0429-0.96319-2.4901-2.0616-3.938-3.318l0.57306 1.0124c-2.837-1.004-1.649-1.242-3.958-1.973l0.61216-0.79823c-0.92019-0.07037-2.4369-1.5495-2.8513-2.3712l-1.007 0.03988c-1.2087-1.4901-1.8537-2.5667-1.806-3.4009l-0.32523 0.5801c-0.36823-0.63248-4.4493-5.5962-2.3321-4.4407-0.39325-0.35807-0.91628-0.58401-1.4831-1.6152l0.43078-0.49176c-1.0171-1.3111-1.8748-2.9912-1.8091-3.551 0.54336 0.73334 0.92019 0.87094 1.2939 0.99681-2.5729-6.3827-2.7176-0.35103-4.6651-6.4968l0.41123-0.03284c-0.31507-0.47768-0.50818-0.9929-0.76148-1.5003l0.17982-1.7864c-1.8513-2.139-0.51756-9.1042-0.2494-12.923 0.18373-1.5527 1.5456-3.2062 2.58-5.7995l-0.63014-0.1079c1.2055-2.1015 6.8815-8.4427 9.5115-8.1175 1.2736-1.5996-0.2533-0.0063-0.5027-0.4081 2.7981-2.895 3.6776-2.0452 5.5657-2.5667 2.035-1.2079-1.7473 0.47221-0.78259-0.46048 3.5205-0.8983 2.494-2.0436 7.0855-2.4994 0.48472 0.2752-1.1235 0.4253-1.5269 0.78259 2.9318-1.4354 9.2793-1.1078 13.404 0.79588 4.7823 2.2368 10.159 8.8454 10.371 15.063l0.24158 0.06489c-0.12196 2.4721 0.37839 5.3312-0.4902 7.9565l0.58714-1.2439"/>
 </g>
 <g id="layer5">
  <rect id="rect3171" height="66" stroke="#fff" stroke-linecap="round" stroke-width=".5" fill="url(#linearGradient3613)" rx="12" ry="12" width="66" opacity=".1" clip-path="url(#clipPath3613)" filter="url(#filter3794)" y="15" x="15"/>
 </g>
</svg>
