<?xml version="1.0" encoding="UTF-8" standalone="no"?>
<!-- Created with Inkscape (http://www.inkscape.org/) -->
<svg id="svg2" xmlns:rdf="http://www.w3.org/1999/02/22-rdf-syntax-ns#" xmlns="http://www.w3.org/2000/svg" height="96" width="96" version="1.1" xmlns:cc="http://creativecommons.org/ns#" xmlns:xlink="http://www.w3.org/1999/xlink" xmlns:dc="http://purl.org/dc/elements/1.1/">
 <defs id="defs4">
  <linearGradient id="linearGradient3613-3" y2="138.66" gradientUnits="userSpaceOnUse" x2="48" y1="20.221" x1="48">
   <stop id="stop3739-10" stop-color="#fff" offset="0"/>
   <stop id="stop3741-2" stop-color="#fff" stop-opacity="0" offset="1"/>
  </linearGradient>
  <clipPath id="clipPath3613-29">
   <rect id="rect3615-1" rx="6" ry="6" height="84" width="84" y="6" x="6" fill="#fff"/>
  </clipPath>
  <filter id="filter3794-0" height="1.384" width="1.384" color-interpolation-filters="sRGB" y="-.192" x="-.192">
   <feGaussianBlur id="feGaussianBlur3796-8" stdDeviation="5.28"/>
  </filter>
  <clipPath id="clipPath3613-25">
   <rect id="rect3615-14" rx="6" ry="6" height="84" width="84" y="6" x="6" fill="#fff"/>
  </clipPath>
  <filter id="filter3794-6" height="1.384" width="1.384" color-interpolation-filters="sRGB" y="-.192" x="-.192">
   <feGaussianBlur id="feGaussianBlur3796-26" stdDeviation="5.28"/>
  </filter>
  <clipPath id="clipPath3860">
   <rect id="rect3862" rx="6" ry="6" height="72" width="84" y="18" x="6" fill="#f0f"/>
  </clipPath>
  <filter id="filter3870" height="1.3943" width="1.3312" color-interpolation-filters="sRGB" y="-.19716" x="-.16559">
   <feGaussianBlur id="feGaussianBlur3872" stdDeviation="5.1703125"/>
  </filter>
  <linearGradient id="linearGradient5696" y2="81.481" gradientUnits="userSpaceOnUse" x2="48.022" y1="22.933" x1="48.022">
   <stop id="stop3876" stop-color="#fff" offset="0"/>
   <stop id="stop3878" stop-color="#fff" stop-opacity="0" offset="1"/>
  </linearGradient>
  <linearGradient id="linearGradient4640" y2="48.005" gradientUnits="userSpaceOnUse" x2="6.1872" gradientTransform="translate(0 956.36)" y1="48.005" x1="93.008">
   <stop id="stop4636" stop-color="#be8e4a" stop-opacity=".076923" offset="0"/>
   <stop id="stop4638" stop-color="#a67c25" offset="1"/>
  </linearGradient>
  <linearGradient id="linearGradient3664" x1="45.448" gradientUnits="userSpaceOnUse" y1="80.472" gradientTransform="matrix(1.0059 0 0 .99417 0 12)" x2="45.448" y2="5.2972">
   <stop id="stop3750-7" offset="0"/>
   <stop id="stop3752-8" stop-opacity=".58824" offset="1"/>
  </linearGradient>
  <filter id="filter3174" color-interpolation-filters="sRGB">
   <feGaussianBlur id="feGaussianBlur3176" stdDeviation="1.71"/>
  </filter>
  <linearGradient id="linearGradient3699-40">
   <stop id="stop3701-04" stop-color="#aa7932" stop-opacity=".78431" offset="0"/>
   <stop id="stop3703-0" stop-color="#aa7932" stop-opacity=".39216" offset="1"/>
  </linearGradient>
  <filter id="filter3174-5" color-interpolation-filters="sRGB">
   <feGaussianBlur id="feGaussianBlur3176-4" stdDeviation="1.71"/>
  </filter>
  <linearGradient id="linearGradient4157" y2="31.732" xlink:href="#linearGradient3699-40" gradientUnits="userSpaceOnUse" x2="51.551" gradientTransform="translate(.16975 954.94)" y1="75.568" x1="51.551"/>
 </defs>
 <metadata id="metadata7">
  <rdf:RDF>
   <cc:Work rdf:about="">
    <dc:format>image/svg+xml</dc:format>
    <dc:type rdf:resource="http://purl.org/dc/dcmitype/StillImage"/>
    <dc:title/>
   </cc:Work>
  </rdf:RDF>
 </metadata>
 <g id="layer1" transform="translate(0 -956.36)">
  <rect id="rect5263-0" fill-opacity=".019608" ry="12.724" height="89.978" width="89.978" y="959.35" x="2.9998"/>
  <rect id="rect5261-6" fill-opacity=".039216" ry="12.552" height="88.762" width="88.762" y="959.96" x="3.6078"/>
  <rect id="rect5259-9" fill-opacity=".078431" ry="12.38" height="87.546" width="87.546" y="960.57" x="4.2157"/>
  <rect id="rect5257-5" fill-opacity=".15686" ry="12.208" height="86.33" width="86.33" y="961.18" x="4.8237"/>
  <path id="rect2419-5" d="m17.469 961.77c-6.2512 0-11.355 4.7568-11.969 10.844v63.469c0.61364 6.0834 5.7175 10.812 11.969 10.812h61.031c6.4543 0 11.671-5.0367 12-11.406v-62.281c-0.32117-6.3771-5.5404-11.438-12-11.438h-61.031z" fill="#cc993d"/>
  <rect id="rect3171" ry="12" stroke="#fff" stroke-linecap="round" stroke-width=".5" fill="url(#linearGradient3613-3)" rx="12" transform="matrix(1.0149 0 0 1.0238 -.83801 955.22)" width="66" opacity=".05" clip-path="url(#clipPath3613-29)" height="66" filter="url(#filter3794-0)" y="15" x="15"/>
  <path id="path5865" d="m17.469 961.77c-6.2512 0-11.355 4.7568-11.969 10.844v63.469c0.07233 0.717 0.21463 1.4198 0.40625 2.0937-0.14675-1.3295-0.26905-2.6965-0.34375-4.0937v-59.281c0-2.3816 0.62452-7.4626 6.625-7.4688h12.75c4.9632 0 7.6402-1.0079 10.125 3.7188 3.0657 4.2041 4.006 4.8869 9.5625 4.2812h40.656c3.7739-0.0442 5.1676 1.5874 5.2188 5.4375v-7.5625c-0.32117-6.3771-5.5404-11.438-12-11.438h-61.031zm73.031 69.73c-0.04406 2.2078-0.18649 4.3503-0.40625 6.4063 0.21124-0.7976 0.36211-1.6143 0.40625-2.4688v-3.9375zm-1.0625 8.2813c-0.13416 0.2981-0.28057 0.5904-0.4375 0.875 0.1575-0.2841 0.30285-0.5773 0.4375-0.875zm-0.438 0.9c-0.15693 0.2845-0.32144 0.5427-0.5 0.8125 0.17482-0.2638 0.34595-0.5347 0.5-0.8125zm-81.906 0.25c0.15696 0.2676 0.32348 0.5274 0.5 0.7812-0.1807-0.2598-0.33982-0.5069-0.5-0.7812zm76.188 4.9375c-0.26128 0.1134-0.54176 0.2175-0.8125 0.3125 0.27423-0.096 0.5479-0.198 0.8125-0.3125zm-69.625 0.375c0.2786 0.093 0.55637 0.1773 0.84375 0.25-0.28437-0.072-0.56799-0.1586-0.84375-0.25zm67.625 0.2812c-0.24437 0.058-0.4999 0.1135-0.75 0.1563 0.25388-0.043 0.50195-0.097 0.75-0.1563z" fill="url(#linearGradient4640)"/>
  <g id="layer5" transform="matrix(1.0168 0 0 1.021 -.61038 955.51)">
   <rect id="rect3171-4" height="66" stroke="#fff" stroke-linecap="round" stroke-width=".5" fill="url(#linearGradient3613-3)" rx="12" ry="12" width="66" opacity=".1" clip-path="url(#clipPath3613-25)" filter="url(#filter3794-6)" y="15" x="15"/>
  </g>
  <path id="path7506" opacity=".55020" d="m28.25 966.31c-0.98771 0.0223-2.0717 0.10149-3.3125 0.10149h-12.75c-6.0005 0.007-6.625 6.3566-6.625 8.9362v0.81233c0-2.5796 0.62452-8.0829 6.625-8.0895h12.75c4.9632 0 7.7652-0.96667 10.125 3.3403 3.0657 4.5536 4.006 5.293 9.5625 4.6371h40.656c3.7739-0.0479 5.1676 1.7193 5.2188 5.8894v-0.81234c-0.05112-4.1701-1.4448-5.9373-5.2188-5.8894h-40.656c-5.5565 0.65596-6.4968-0.0835-9.5625-4.6371-1.8636-3.8396-3.8494-4.3555-6.8125-4.2885z" fill="#f9f9f9"/>
  <rect id="rect3634" opacity="0" height="1" width="84.972" y="973.33" x="5.5655"/>
  <path id="path7563" opacity=".20482" d="m35.742 968.8c0.0231 0.043 0.0394 0.081 0.0625 0.125 0.034 0.047 0.0603 0.079 0.0937 0.125h45.625c2.0566 0 3.7188 1.6621 3.7188 3.7187v-0.25c0-2.0566-1.6621-3.7187-3.7188-3.7187h-45.781z" fill-opacity=".58962" fill="#fff"/>
  <path id="path7516" opacity=".51807" d="m35.742 969.05c0.0231 0.043 0.0394 0.081 0.0625 0.125 0.0241 0.033 0.0386 0.061 0.0625 0.094h45.656c2.0566 0 3.7188 1.6621 3.7188 3.7187v-0.2187c0-2.0566-1.6621-3.7188-3.7188-3.7188l-45.781 0.0001z" fill-opacity=".58962" fill="#fff"/>
  <path id="path7514" opacity=".74699" d="m35.742 969.27c0.0231 0.043 0.0394 0.081 0.0625 0.125 0.0335 0.046 0.0607 0.08 0.0937 0.125h45.625c0.25708 0 0.50773 0.013 0.75 0.063 0.24227 0.049 0.46498 0.1248 0.6875 0.2188 0.23229 0.096 0.45057 0.2049 0.65625 0.3437 0.2043 0.138 0.35868 0.294 0.53125 0.4688 0.32871 0.3328 0.62762 0.7185 0.8125 1.1562 0.004 0.01-0.004 0.023 0 0.031 0.18093 0.4379 0.28125 0.9336 0.28125 1.4375v-0.25c0-2.0566-1.6621-3.7187-3.7188-3.7187h-45.781z" fill-opacity=".58962" fill="#fff"/>
  <path id="rect7493" fill-opacity=".83019" fill="#fff" d="m35.751 969.5c0.0231 0.043 0.0394 0.081 0.0625 0.125 3.0657 4.2041 4.006 4.8869 9.5625 4.2813h39.875v-0.6875c0-2.0567-1.6621-3.7188-3.7188-3.7188h-45.781z"/>
  <g id="g5676" transform="matrix(.94641 0 0 .84994 2.9331 964.94)">
   <path id="path5678" opacity=".15" filter="url(#filter3870)" d="m15.969 22.531c-2.8459 0.0043-5.4332 2.5916-5.4375 5.4375v48.062c0.0043 2.8459 2.5916 5.4332 5.4375 5.4375h64.062c2.8459-0.0043 5.4332-2.5916 5.4375-5.4375v-48.062c-0.0043-2.8459-2.5916-5.4332-5.4375-5.4375z" clip-path="url(#clipPath3860)" fill="url(#linearGradient5696)"/>
  </g>
  <path id="rect5265-0" d="m5.3323 1029.9v5.0663c0 6.668 5.3645 12.032 12.032 12.032h61.049c6.668 0 12.032-5.3645 12.032-12.032v-5.0663c0 6.6681-5.3645 12.032-12.032 12.032h-61.049c-6.668 0-12.032-5.3643-12.032-12.032z" fill-opacity=".11765"/>
  <path id="path5252-0" d="m5.3323 1033.9v1.0133c0 6.668 5.3645 12.032 12.032 12.032h61.049c6.668 0 12.032-5.3645 12.032-12.032v-1.0133c0 6.6681-5.3645 12.032-12.032 12.032h-61.049c-6.668 0-12.032-5.3644-12.032-12.032z" fill-opacity=".098039"/>
  <g id="layer2" display="none" transform="translate(-174.5 911.47)">
   <path id="rect3745" opacity=".9" d="m14.969 8.8029c-1.64 0-2.969 1.2821-2.969 2.8751v7.322c-3.324 0-7 2.676-7 6v61c0 3.324 2.676 6 6 6h74c3.324 0 6-2.676 6-6v-61c0-3.324-3.7474-6-7.0714-6v-0.13461c0-2.3891-1.9777-4.3125-4.4375-4.3125h-43.335l-1.4688-2.875c-0.734-1.424-1.329-2.8741-2.969-2.8741h-16.75z" filter="url(#filter3174)" fill="url(#linearGradient3664)"/>
  </g>
  <g id="layer2-2" display="none" transform="translate(-107.42 878.16)">
   <path id="rect3745-0" opacity=".9" d="m14.969 8.8029c-1.64 0-2.969 1.2821-2.969 2.8751v7.322c-3.324 0-7 2.676-7 6v61c0 3.324 2.676 6 6 6h74c3.324 0 6-2.676 6-6v-61c0-3.324-3.7474-6-7.0714-6v-0.13461c0-2.3891-1.9777-4.3125-4.4375-4.3125h-43.335l-1.4688-2.875c-0.734-1.424-1.329-2.8741-2.969-2.8741h-16.75z" filter="url(#filter3174-5)" fill="url(#linearGradient3664)"/>
  </g>
  <path id="path4250" opacity=".05" d="m38.513 984.94a2.0041 2.0041 0 0 0 -0.84375 0.28125l-14.406 8.75a2.0041 2.0041 0 0 0 -0.25 3.25l7.8438 6.625-7.9688 6.4375a2.0041 2.0041 0 0 0 0.15625 3.25l9.1875 5.875a2.0041 2.0041 0 0 0 -0.0625 0.4687v1.25a2.0041 2.0041 0 0 0 0.84375 1.6563l14.062 9.8125a2.0041 2.0041 0 0 0 2.2812 0l14.25-9.8125a2.0041 2.0041 0 0 0 0.875 -1.6563v-1.4062a2.0041 2.0041 0 0 0 -0.0625 -0.5l8.875-5.6875a2.0041 2.0041 0 0 0 0.15625 -3.25l-7.8438-6.3438 7.8438-6.6875a2.0041 2.0041 0 0 0 -0.28125 -3.25l-14.375-8.7188a2.0041 2.0041 0 0 0 -2.3438 0.1875l-8.1875 7.0625-8.25-7.125a2.0041 2.0041 0 0 0 -1.5 -0.46875zm0.1875 2 9.5625 8.25 9.5-8.1875 14.375 8.7188-9.6875 8.25 9.75 7.875-14.281 9.125-9.75-8.2813-9.75 8.2813-14.281-9.125 9.8125-7.9063 14.219 8.75 14.188-8.7187-14.188-8.75-14.125 8.7187-9.75-8.25 14.406-8.75zm9.4688 10.656 10.344 6.375-10.344 6.3437-10.312-6.3437 10.312-6.375zm0 16.75 9.75 8.2812 4.5625-2.9062v1.4062l-14.25 9.8125-14.062-9.8125v-1.25l4.25 2.75 9.75-8.2812z" fill="#fff"/>
  <path id="path3700" opacity=".9" d="m38.694 986.94-14.389 8.7585 9.7491 8.2372 14.128-8.7064 14.18 8.7325-14.18 8.7324 9.7491 8.2633 14.285-9.1235-9.7751-7.8722 9.6969-8.2372-14.389-8.7324-9.4884 8.185-9.5666-8.2372zm-4.7442 16.996-9.8273 7.8983 14.311 9.1235 9.723-8.2633-14.207-8.7585zm14.207 10.427-9.723 8.2632-4.275-2.737v1.2512l14.076 9.8012 14.233-9.8012v-1.4076l-4.5356 2.8934-9.7751-8.2632z" fill="url(#linearGradient4157)"/>
  <path id="path4211" opacity=".25" d="m38.701 986.94-14.406 8.75 9.75 8.25 14.125-8.7187 14.188 8.75-14.188 8.7187 9.75 8.2813 14.281-9.125-9.75-7.875 9.6875-8.25-14.375-8.7188-9.5 8.1875-9.5625-8.25zm9.4688 25.75-14.219-8.75-9.8125 7.9063 14.281 9.125 9.75-8.2813zm-9.625-23.812 7.0625 6.0938-11.438 7.0312-7.2188-6.0937 11.594-7.0312zm19.375 0.0625 11.562 7-7.1875 6.125-11.438-7.0312 7.0625-6.0938zm-23.844 16.906 11.438 7.0625-7.2188 6.125-11.5-7.3438 7.2812-5.8437zm28.219 0 7.25 5.8437-11.5 7.3438-7.2188-6.125 11.469-7.0625zm-14.125 8.5-9.75 8.2812-4.25-2.75v1.25l14.062 9.8125 14.25-9.8125v-1.4062l-4.5625 2.9062-9.75-8.2812zm0 2.0312 8.2812 7.0313-8.1875 5.625-8.25-5.7188 8.1562-6.9375z" fill="url(#linearGradient4157)"/>
  <path id="path4189" d="m38.701 986.94-14.406 8.75 0.6875 0.59375 13.719-8.3438 8.875 7.6562 0.59375-0.375 0.71875 0.4375 8.875-7.6562 13.688 8.3125 0.6875-0.59375-14.375-8.7188-9.5 8.1875-9.5625-8.25zm-5.3125 17.437-9.25 7.4688 0.6875 0.4375 9.125-7.3438 13.531 8.3438 0.6875-0.5938-13.375-8.2187-0.75 0.4687-0.65625-0.5625zm14.781 8.3125 0.6875 0.5938 13.5-8.3125-0.8125-0.5-13.375 8.2187zm14.875-8.2187-0.59375 0.5 9.0625 7.3125 0.6875-0.4375-9.1562-7.375zm-14.875 9.875-9.75 8.2812-4.25-2.75v1l4.25 2.75 9.75-8.2812 9.75 8.2812 4.5625-2.9062v-1l-4.5625 2.9062-9.75-8.2812z" fill="url(#linearGradient4157)"/>
  <path id="path4198" opacity=".5" d="m38.701 986.94-14.406 8.75 9.75 8.25 14.125-8.7187 14.188 8.75-14.188 8.7187 9.75 8.2813 14.281-9.125-9.75-7.875 9.6875-8.25-14.375-8.7188-9.5 8.1875-9.5625-8.25zm9.4688 25.75-14.219-8.75-9.8125 7.9063 14.281 9.125 9.75-8.2813zm-9.5625-24.781 8.2812 7.1562-12.781 7.9063-8.4688-7.1563 12.969-7.9062zm19.25 0.0625 12.938 7.875-8.4688 7.1875-12.781-7.9063 8.3125-7.1562zm-23.844 16.938 12.812 7.9062-8.4688 7.1875-12.875-8.2187 8.5312-6.875zm28.344 0 8.5 6.875-12.875 8.2187-8.4688-7.1875 12.844-7.9062zm-14.188 9.4375-9.75 8.2812-4.25-2.75v1.25l14.062 9.8125 14.25-9.8125v-1.4062l-4.5625 2.9062-9.75-8.2812zm0 1.0312 9.25 7.8438a0.79621 0.79621 0 0 0 0.34375 0.1875l-9.5 6.5625-9.5312-6.625a0.79621 0.79621 0 0 0 0.1875 -0.125l9.25-7.8438z" fill="url(#linearGradient4157)"/>
  <path id="path4224" opacity=".2" d="m47.576 995.6-13.531 8.3437-9.0625-7.6562-0.6875 0.40625 9.0938 7.6875 0.5625-0.4375 0.84375 0.5313 13.375-8.25 13.375 8.25 0.8125-0.5-13.469-8.3125-0.625 0.53125-0.6875-0.59375zm23.875 0.71875-9 7.6563 0.59375 0.5 9.0938-7.75-0.6875-0.40625zm-46.625 15.969-0.6875 0.5625 14.281 9.125 9.75-8.2813-0.6875-0.4062-9.0625 7.6875-13.594-8.6875zm23.344 1.4062 9.75 8.2813 14.281-9.125-0.6875-0.5625-13.594 8.6875-9.0625-7.6875-0.6875 0.4062zm-14 7.4375v1l14.062 9.8125 14.25-9.8125v-1l-14.25 9.8125-14.062-9.8125z" fill="#fff"/>
 </g>
</svg>
