<?xml version="1.0" encoding="UTF-8" standalone="no"?>
<!-- Created with Inkscape (http://www.inkscape.org/) -->
<svg id="svg2" xmlns:rdf="http://www.w3.org/1999/02/22-rdf-syntax-ns#" xmlns="http://www.w3.org/2000/svg" height="96" width="96" version="1.1" xmlns:cc="http://creativecommons.org/ns#" xmlns:xlink="http://www.w3.org/1999/xlink" xmlns:dc="http://purl.org/dc/elements/1.1/">
 <defs id="defs4">
  <linearGradient id="linearGradient3613-3" y2="138.66" gradientUnits="userSpaceOnUse" x2="48" y1="20.221" x1="48">
   <stop id="stop3739-10" stop-color="#fff" offset="0"/>
   <stop id="stop3741-2" stop-color="#fff" stop-opacity="0" offset="1"/>
  </linearGradient>
  <clipPath id="clipPath3613-29">
   <rect id="rect3615-1" rx="6" ry="6" height="84" width="84" y="6" x="6" fill="#fff"/>
  </clipPath>
  <filter id="filter3794-0" height="1.384" width="1.384" color-interpolation-filters="sRGB" y="-.192" x="-.192">
   <feGaussianBlur id="feGaussianBlur3796-8" stdDeviation="5.28"/>
  </filter>
  <clipPath id="clipPath3613-25">
   <rect id="rect3615-14" rx="6" ry="6" height="84" width="84" y="6" x="6" fill="#fff"/>
  </clipPath>
  <filter id="filter3794-6" height="1.384" width="1.384" color-interpolation-filters="sRGB" y="-.192" x="-.192">
   <feGaussianBlur id="feGaussianBlur3796-26" stdDeviation="5.28"/>
  </filter>
  <clipPath id="clipPath3860">
   <rect id="rect3862" rx="6" ry="6" height="72" width="84" y="18" x="6" fill="#f0f"/>
  </clipPath>
  <filter id="filter3870" height="1.3943" width="1.3312" color-interpolation-filters="sRGB" y="-.19716" x="-.16559">
   <feGaussianBlur id="feGaussianBlur3872" stdDeviation="5.1703125"/>
  </filter>
  <linearGradient id="linearGradient5696" y2="81.481" gradientUnits="userSpaceOnUse" x2="48.022" y1="22.933" x1="48.022">
   <stop id="stop3876" stop-color="#fff" offset="0"/>
   <stop id="stop3878" stop-color="#fff" stop-opacity="0" offset="1"/>
  </linearGradient>
  <linearGradient id="linearGradient4640" y2="48.005" gradientUnits="userSpaceOnUse" x2="6.1872" gradientTransform="translate(0 956.36)" y1="48.005" x1="93.008">
   <stop id="stop5859" stop-color="#a3a6a6" offset="0"/>
   <stop id="stop5861" stop-color="#ccc" offset="1"/>
  </linearGradient>
  <linearGradient id="linearGradient3664" x1="45.448" gradientUnits="userSpaceOnUse" y1="80.472" gradientTransform="matrix(1.0059 0 0 .99417 0 12)" x2="45.448" y2="5.2972">
   <stop id="stop3750-7" offset="0"/>
   <stop id="stop3752-8" stop-opacity=".58824" offset="1"/>
  </linearGradient>
  <filter id="filter3174" color-interpolation-filters="sRGB">
   <feGaussianBlur id="feGaussianBlur3176" stdDeviation="1.71"/>
  </filter>
  <filter id="filter3870-36" height="1.3943" width="1.3312" color-interpolation-filters="sRGB" y="-.19716" x="-.16559">
   <feGaussianBlur id="feGaussianBlur3872-5" stdDeviation="5.1703125"/>
  </filter>
  <clipPath id="clipPath3860-4">
   <rect id="rect3862-9" rx="6" ry="6" height="72" width="84" y="18" x="6" fill="#f0f"/>
  </clipPath>
  <filter id="filter3174-0" color-interpolation-filters="sRGB">
   <feGaussianBlur id="feGaussianBlur3176-9" stdDeviation="1.71"/>
  </filter>
  <filter id="filter3174-2" color-interpolation-filters="sRGB">
   <feGaussianBlur id="feGaussianBlur3176-8" stdDeviation="1.71"/>
  </filter>
  <linearGradient id="linearGradient6647" y2="96.025" gradientUnits="userSpaceOnUse" x2="45.5" gradientTransform="matrix(.70536 0 0 .70536 34.929 10.589)" y1=".48101" x1="45.5">
   <stop id="stop3950-6" stop-opacity=".56911" offset="0"/>
   <stop id="stop3952-2" stop-opacity="0" offset=".070175"/>
   <stop id="stop3954-8" stop-color="#3c3c3c" stop-opacity=".090196" offset=".20272"/>
   <stop id="stop3956-4" stop-color="#888" stop-opacity=".13725" offset=".26649"/>
   <stop id="stop3958-7" stop-color="#bbb" stop-opacity=".18431" offset=".35025"/>
   <stop id="stop3960-2" stop-color="#757575" stop-opacity=".13725" offset="0.439"/>
   <stop id="stop3962-4" stop-color="#383838" stop-opacity=".090196" offset=".49777"/>
   <stop id="stop3964-0" stop-color="#8a8a8a" stop-opacity=".19216" offset=".65896"/>
   <stop id="stop3966-6" stop-color="#292929" stop-opacity=".60976" offset="1"/>
  </linearGradient>
 </defs>
 <metadata id="metadata7">
  <rdf:RDF>
   <cc:Work rdf:about="">
    <dc:format>image/svg+xml</dc:format>
    <dc:type rdf:resource="http://purl.org/dc/dcmitype/StillImage"/>
    <dc:title/>
   </cc:Work>
  </rdf:RDF>
 </metadata>
 <g id="layer1" transform="translate(0 -956.36)">
  <rect id="rect5263-0" fill-opacity=".019608" ry="12.724" height="89.978" width="89.978" y="959.35" x="2.9998"/>
  <rect id="rect5261-6" fill-opacity=".039216" ry="12.552" height="88.762" width="88.762" y="959.96" x="3.6078"/>
  <rect id="rect5259-9" fill-opacity=".078431" ry="12.38" height="87.546" width="87.546" y="960.57" x="4.2157"/>
  <rect id="rect5257-5" fill-opacity=".15686" ry="12.208" height="86.33" width="86.33" y="961.18" x="4.8237"/>
  <path id="rect2419-5" d="m17.469 961.77c-6.2512 0-11.355 4.7568-11.969 10.844v63.469c0.61364 6.0834 5.7175 10.812 11.969 10.812h61.031c6.4543 0 11.671-5.0367 12-11.406v-62.281c-0.32117-6.3771-5.5404-11.438-12-11.438h-61.031z" fill="#b0b0b0"/>
  <rect id="rect3171" ry="12" stroke="#fff" stroke-linecap="round" stroke-width=".5" fill="url(#linearGradient3613-3)" rx="12" transform="matrix(1.0149 0 0 1.0238 -.83801 955.22)" width="66" opacity=".05" clip-path="url(#clipPath3613-29)" height="66" filter="url(#filter3794-0)" y="15" x="15"/>
  <path id="path5865" d="m17.469 961.77c-6.2512 0-11.355 4.7568-11.969 10.844v63.469c0.07233 0.717 0.21463 1.4198 0.40625 2.0937-0.14675-1.3295-0.26905-2.6965-0.34375-4.0937v-59.281c0-2.3816 0.62452-7.4626 6.625-7.4688h12.75c4.9632 0 7.6402-1.0079 10.125 3.7188 3.0657 4.2041 4.006 4.8869 9.5625 4.2812h40.656c3.7739-0.0442 5.1676 1.5874 5.2188 5.4375v-7.5625c-0.32117-6.3771-5.5404-11.438-12-11.438h-61.031zm73.031 69.73c-0.04406 2.2078-0.18649 4.3503-0.40625 6.4063 0.21124-0.7976 0.36211-1.6143 0.40625-2.4688v-3.9375zm-1.0625 8.2813c-0.13416 0.2981-0.28057 0.5904-0.4375 0.875 0.1575-0.2841 0.30285-0.5773 0.4375-0.875zm-0.438 0.9c-0.15693 0.2845-0.32144 0.5427-0.5 0.8125 0.17482-0.2638 0.34595-0.5347 0.5-0.8125zm-81.906 0.25c0.15696 0.2676 0.32348 0.5274 0.5 0.7812-0.1807-0.2598-0.33982-0.5069-0.5-0.7812zm76.188 4.9375c-0.26128 0.1134-0.54176 0.2175-0.8125 0.3125 0.27423-0.096 0.5479-0.198 0.8125-0.3125zm-69.625 0.375c0.2786 0.093 0.55637 0.1773 0.84375 0.25-0.28437-0.072-0.56799-0.1586-0.84375-0.25zm67.625 0.2812c-0.24437 0.058-0.4999 0.1135-0.75 0.1563 0.25388-0.043 0.50195-0.097 0.75-0.1563z" fill="url(#linearGradient4640)"/>
  <g id="layer5" transform="matrix(1.0168 0 0 1.021 -.61038 955.51)">
   <rect id="rect3171-4" height="66" stroke="#fff" stroke-linecap="round" stroke-width=".5" fill="url(#linearGradient3613-3)" rx="12" ry="12" width="66" opacity=".1" clip-path="url(#clipPath3613-25)" filter="url(#filter3794-6)" y="15" x="15"/>
  </g>
  <path id="path7506" opacity=".55020" d="m28.25 966.31c-0.98771 0.0223-2.0717 0.10149-3.3125 0.10149h-12.75c-6.0005 0.007-6.625 6.3566-6.625 8.9362v0.81233c0-2.5796 0.62452-8.0829 6.625-8.0895h12.75c4.9632 0 7.7652-0.96667 10.125 3.3403 3.0657 4.5536 4.006 5.293 9.5625 4.6371h40.656c3.7739-0.0479 5.1676 1.7193 5.2188 5.8894v-0.81234c-0.05112-4.1701-1.4448-5.9373-5.2188-5.8894h-40.656c-5.5565 0.65596-6.4968-0.0835-9.5625-4.6371-1.8636-3.8396-3.8494-4.3555-6.8125-4.2885z" fill="#f9f9f9"/>
  <rect id="rect3634" opacity="0" height="1" width="84.972" y="973.33" x="5.5655"/>
  <path id="path7563" opacity=".20482" d="m35.742 968.8c0.0231 0.043 0.0394 0.081 0.0625 0.125 0.034 0.047 0.0603 0.079 0.0937 0.125h45.625c2.0566 0 3.7188 1.6621 3.7188 3.7187v-0.25c0-2.0566-1.6621-3.7187-3.7188-3.7187h-45.781z" fill-opacity=".58962" fill="#fff"/>
  <path id="path7516" opacity=".51807" d="m35.742 969.05c0.0231 0.043 0.0394 0.081 0.0625 0.125 0.0241 0.033 0.0386 0.061 0.0625 0.094h45.656c2.0566 0 3.7188 1.6621 3.7188 3.7187v-0.2187c0-2.0566-1.6621-3.7188-3.7188-3.7188l-45.781 0.0001z" fill-opacity=".58962" fill="#fff"/>
  <path id="path7514" opacity=".74699" d="m35.742 969.27c0.0231 0.043 0.0394 0.081 0.0625 0.125 0.0335 0.046 0.0607 0.08 0.0937 0.125h45.625c0.25708 0 0.50773 0.013 0.75 0.063 0.24227 0.049 0.46498 0.1248 0.6875 0.2188 0.23229 0.096 0.45057 0.2049 0.65625 0.3437 0.2043 0.138 0.35868 0.294 0.53125 0.4688 0.32871 0.3328 0.62762 0.7185 0.8125 1.1562 0.004 0.01-0.004 0.023 0 0.031 0.18093 0.4379 0.28125 0.9336 0.28125 1.4375v-0.25c0-2.0566-1.6621-3.7187-3.7188-3.7187h-45.781z" fill-opacity=".58962" fill="#fff"/>
  <path id="rect7493" fill-opacity=".83019" fill="#fff" d="m35.751 969.5c0.0231 0.043 0.0394 0.081 0.0625 0.125 3.0657 4.2041 4.006 4.8869 9.5625 4.2813h39.875v-0.6875c0-2.0567-1.6621-3.7188-3.7188-3.7188h-45.781z"/>
  <g id="g5676" transform="matrix(.94641 0 0 .84994 2.9331 964.94)">
   <path id="path5678" opacity=".15" filter="url(#filter3870)" d="m15.969 22.531c-2.8459 0.0043-5.4332 2.5916-5.4375 5.4375v48.062c0.0043 2.8459 2.5916 5.4332 5.4375 5.4375h64.062c2.8459-0.0043 5.4332-2.5916 5.4375-5.4375v-48.062c-0.0043-2.8459-2.5916-5.4332-5.4375-5.4375z" clip-path="url(#clipPath3860)" fill="url(#linearGradient5696)"/>
  </g>
  <path id="rect5265-0" d="m5.3323 1029.9v5.0663c0 6.668 5.3645 12.032 12.032 12.032h61.049c6.668 0 12.032-5.3645 12.032-12.032v-5.0663c0 6.6681-5.3645 12.032-12.032 12.032h-61.049c-6.668 0-12.032-5.3643-12.032-12.032z" fill-opacity=".11765"/>
  <path id="path5252-0" d="m5.3323 1033.9v1.0133c0 6.668 5.3645 12.032 12.032 12.032h61.049c6.668 0 12.032-5.3645 12.032-12.032v-1.0133c0 6.6681-5.3645 12.032-12.032 12.032h-61.049c-6.668 0-12.032-5.3644-12.032-12.032z" fill-opacity=".098039"/>
  <g id="layer2" display="none" transform="translate(-174.5 911.47)">
   <path id="rect3745" opacity=".9" d="m14.969 8.8029c-1.64 0-2.969 1.2821-2.969 2.8751v7.322c-3.324 0-7 2.676-7 6v61c0 3.324 2.676 6 6 6h74c3.324 0 6-2.676 6-6v-61c0-3.324-3.7474-6-7.0714-6v-0.13461c0-2.3891-1.9777-4.3125-4.4375-4.3125h-43.335l-1.4688-2.875c-0.734-1.424-1.329-2.8741-2.969-2.8741h-16.75z" filter="url(#filter3174)" fill="url(#linearGradient3664)"/>
  </g>
  <g id="layer2-1" display="none" transform="translate(-176.3 917.78)">
   <path id="rect3745-2" opacity=".9" d="m14.969 8.8029c-1.64 0-2.969 1.2821-2.969 2.8751v7.322c-3.324 0-7 2.676-7 6v61c0 3.324 2.676 6 6 6h74c3.324 0 6-2.676 6-6v-61c0-3.324-3.7474-6-7.0714-6v-0.13461c0-2.3891-1.9777-4.3125-4.4375-4.3125h-43.335l-1.4688-2.875c-0.734-1.424-1.329-2.8741-2.969-2.8741h-16.75z" filter="url(#filter3174-0)" fill="url(#linearGradient3664)"/>
  </g>
  <g id="layer5-9" display="none" transform="translate(-176.3 917.78)">
   <path id="path3850" opacity=".15" filter="url(#filter3870-36)" d="m15.969 22.531c-2.8459 0.0043-5.4332 2.5916-5.4375 5.4375v48.062c0.0043 2.8459 2.5916 5.4332 5.4375 5.4375h64.062c2.8459-0.0043 5.4332-2.5916 5.4375-5.4375v-48.062c-0.0043-2.8459-2.5916-5.4332-5.4375-5.4375z" clip-path="url(#clipPath3860-4)" fill="url(#linearGradient5696)"/>
  </g>
  <g id="layer2-9" display="none" transform="translate(-154.32 943.65)">
   <path id="rect3745-7" opacity=".9" d="m14.969 8.8029c-1.64 0-2.969 1.2821-2.969 2.8751v7.322c-3.324 0-7 2.676-7 6v61c0 3.324 2.676 6 6 6h74c3.324 0 6-2.676 6-6v-61c0-3.324-3.7474-6-7.0714-6v-0.13461c0-2.3891-1.9777-4.3125-4.4375-4.3125h-43.335l-1.4688-2.875c-0.734-1.424-1.329-2.8741-2.969-2.8741h-16.75z" filter="url(#filter3174-2)" fill="url(#linearGradient3664)"/>
  </g>
  <g id="layer6-2" transform="matrix(1 0 0 .88703 .99193 962.56)">
   <path id="path3859-8" opacity=".05" d="m77.781 9.9688c-0.27-0.0104-0.558-0.0048-0.875 0.0312-0.04514 0.0051-0.07898-0.0068-0.125 0h-22.875a0.94004 0.94004 0 0 0 -0.156 0c-0.08984 0.01423-0.12037 0.04227-0.1875 0.0625h-0.5625c-2.1665 0-3.9375 1.771-3.9375 3.9375v0.03125a0.94004 0.94004 0 0 0 0.938 0.938h2.8125c0.24908 0.17452 0.44152 0.29886 0.59375 0.34375v63.719c-0.0411 2.6092 3.7251 3.5639 5 1.3438l0.032 0.03 0.062-0.094 9.594-13.562c3.3569 4.7015 6.6574 9.469 10.094 14.125a0.94004 0.94004 0 0 0 0.093 0.125c1.7482 1.7023 4.7508 0.02545 4.5-2.3125h0.03125c-0.000033-0.05208 0.000033-0.10417 0-0.15625-0.01346-21.374 0.01674-42.749-0.03125-64.125a0.94004 0.94004 0 0 0 0 -0.0625c-0.20656-2.661-2.6284-4.2841-5-4.375zm-24.781 1.0312h0.969 23.031c1.662 0 3 1.338 3 3v0.03125l0.0625 50.156v12 2.125l-11.969-16.938-12 16.938v-14.125-45.188l-0.094 0.001v-4.9688h-6v-0.031c0-1.662 1.338-3 3-3z"/>
   <path id="path3850-2" opacity=".1" d="m77.75 10.906c-0.28353-0.01087-0.56372-0.01023-0.84375 0.03125h-23c-0.088 0.014-0.146 0.037-0.218 0.063h0.28125 22 1.031c1.662 0 3 1.338 3 3l0.0625 50.188v12 2.125l-11.969-16.938-12 16.938v-14.125-45.188h-0.094v-5c0-1.4759-1.0686-2.6827-2.4688-2.9375-0.01026-0.0019-0.02095 0.0018-0.03125 0-0.79056 0.46336-0.42352 1.8146-0.46875 2.625 0.05117 1.0014 1.6314 0.54264 1.3125 1.5938v63.75c-0.02695 1.7111 2.5317 2.3675 3.3125 0.84375l10.438-14.75c3.626 5.0498 7.1628 10.2 10.844 15.188 1.1503 1.1201 3.2085-0.07211 2.9375-1.625-0.01371-21.427 0.01685-42.855-0.03125-64.281-0.16467-2.1214-2.109-3.4239-4.0938-3.5z"/>
   <path id="path3846-0" opacity=".15" d="m54 11.938v1.562c0.76467 0 1.3438 0.56165 1.3438 1.3125v50.094 14.094a0.77798 0.77798 0 0 0 1.406 0.438l11.344-16.032 11.375 16.032a0.77798 0.77798 0 0 0 1.406 -0.438v-2.0938-12-50.094c0-1.0203-0.538-1.8963-1.3438-2.4062 0.291 0.462 0.469 1.005 0.469 1.594l0.0625 50.188v12 2.125l-11.969-16.938-12 16.938v-14.125-45.188h-0.094v-5c0-0.79923-0.30644-1.5259-0.8125-2.0625h-1.1875z"/>
   <path id="path3202-6" opacity=".3" d="m54 12.719c0.94735 0 1.7286 0.61356 2 1.4688v-0.188c0-0.46494-0.12528-0.88922-0.3125-1.2812h-1.6875zm26 1.5 0.0625 49.969v12 2.125l-11.968-16.938-11.969 16.906v0.719l11.969-16.906 12 16.906v-2.0938-12-50.094c0-0.21466-0.03485-0.39881-0.09375-0.59375z"/>
   <path id="rect3204-5" d="m53 11c1.662 0 3 1.338 3 3v5h0.09375v45.188 14.125l12-16.938 11.969 16.938v-2.125-12l-0.063-50.188c0-1.662-1.338-3-3-3h-1.0312-22-0.969z" fill="#646464"/>
   <path id="path3173-9" d="m54.875 11c1.172 0 3.125 0.283 3.125 2.125v58.469l10.094-13.594 9.875 13.594v-58.469c0-1.172-0.953-2.125-2.125-2.125h-1.969c1.172 0 2.125 0.953 2.125 2.125v52.562l-7.9062-11.312-8.1562 11.312v-52.562c0-1.976-1.953-2.125-3.126-2.125h-1.9375z" fill="#828282"/>
   <path id="rect3196-4" d="m53 11c-1.662 0-3 1.338-3 3v0.03125h6v-0.031c0-1.662-1.338-3-3-3z" fill="#323232"/>
   <path id="path3177-9" d="m53 11c1.662 0 3 1.338 3 3v5h0.0937v45.188 14.125l12-16.938 11.969 16.938v-2.125-12l-0.063-50.188c0-1.596-1.243-2.868-2.812-2.969-0.068-0.019-0.124-0.028-0.188-0.031h-23.031-0.969z" fill="url(#linearGradient6647)"/>
  </g>
 </g>
</svg>
