<?xml version="1.0" encoding="UTF-8" standalone="no"?>
<!-- Created with Inkscape (http://www.inkscape.org/) -->
<svg id="svg2" xmlns:rdf="http://www.w3.org/1999/02/22-rdf-syntax-ns#" xmlns="http://www.w3.org/2000/svg" height="96" width="96" version="1.1" xmlns:cc="http://creativecommons.org/ns#" xmlns:xlink="http://www.w3.org/1999/xlink" xmlns:dc="http://purl.org/dc/elements/1.1/">
 <defs id="defs4">
  <linearGradient id="linearGradient3613-3" y2="138.66" gradientUnits="userSpaceOnUse" x2="48" y1="20.221" x1="48">
   <stop id="stop3739-10" stop-color="#fff" offset="0"/>
   <stop id="stop3741-2" stop-color="#fff" stop-opacity="0" offset="1"/>
  </linearGradient>
  <clipPath id="clipPath3613-29">
   <rect id="rect3615-1" rx="6" ry="6" height="84" width="84" y="6" x="6" fill="#fff"/>
  </clipPath>
  <filter id="filter3794-0" height="1.384" width="1.384" color-interpolation-filters="sRGB" y="-.192" x="-.192">
   <feGaussianBlur id="feGaussianBlur3796-8" stdDeviation="5.28"/>
  </filter>
  <clipPath id="clipPath3613-25">
   <rect id="rect3615-14" rx="6" ry="6" height="84" width="84" y="6" x="6" fill="#fff"/>
  </clipPath>
  <filter id="filter3794-6" height="1.384" width="1.384" color-interpolation-filters="sRGB" y="-.192" x="-.192">
   <feGaussianBlur id="feGaussianBlur3796-26" stdDeviation="5.28"/>
  </filter>
  <clipPath id="clipPath3860">
   <rect id="rect3862" rx="6" ry="6" height="72" width="84" y="18" x="6" fill="#f0f"/>
  </clipPath>
  <filter id="filter3870" height="1.3943" width="1.3312" color-interpolation-filters="sRGB" y="-.19716" x="-.16559">
   <feGaussianBlur id="feGaussianBlur3872" stdDeviation="5.1703125"/>
  </filter>
  <linearGradient id="linearGradient5696" y2="81.481" gradientUnits="userSpaceOnUse" x2="48.022" y1="22.933" x1="48.022">
   <stop id="stop3876" stop-color="#fff" offset="0"/>
   <stop id="stop3878" stop-color="#fff" stop-opacity="0" offset="1"/>
  </linearGradient>
  <linearGradient id="linearGradient4640" y2="48.005" gradientUnits="userSpaceOnUse" x2="6.1872" gradientTransform="translate(0 956.36)" y1="48.005" x1="93.008">
   <stop id="stop4636" stop-color="#be8e4a" stop-opacity=".076923" offset="0"/>
   <stop id="stop4638" stop-color="#a67c25" offset="1"/>
  </linearGradient>
  <linearGradient id="linearGradient3087-8" y2="32" xlink:href="#linearGradient3699-5" gradientUnits="userSpaceOnUse" x2="56" gradientTransform="translate(0,-2)" y1="76" x1="56"/>
  <linearGradient id="linearGradient3699-5">
   <stop id="stop3701-4" stop-color="#aa7932" stop-opacity=".78431" offset="0"/>
   <stop id="stop3703-3" stop-color="#aa7932" stop-opacity=".39216" offset="1"/>
  </linearGradient>
 </defs>
 <metadata id="metadata7">
  <rdf:RDF>
   <cc:Work rdf:about="">
    <dc:format>image/svg+xml</dc:format>
    <dc:type rdf:resource="http://purl.org/dc/dcmitype/StillImage"/>
    <dc:title/>
   </cc:Work>
  </rdf:RDF>
 </metadata>
 <g id="layer1" transform="translate(0 -956.36)">
  <rect id="rect5263-0" fill-opacity=".019608" ry="12.724" height="89.978" width="89.978" y="959.35" x="2.9998"/>
  <rect id="rect5261-6" fill-opacity=".039216" ry="12.552" height="88.762" width="88.762" y="959.96" x="3.6078"/>
  <rect id="rect5259-9" fill-opacity=".078431" ry="12.38" height="87.546" width="87.546" y="960.57" x="4.2157"/>
  <rect id="rect5257-5" fill-opacity=".15686" ry="12.208" height="86.33" width="86.33" y="961.18" x="4.8237"/>
  <path id="rect2419-5" d="m17.469 961.77c-6.2512 0-11.355 4.7568-11.969 10.844v63.469c0.61364 6.0834 5.7175 10.812 11.969 10.812h61.031c6.4543 0 11.671-5.0367 12-11.406v-62.281c-0.32117-6.3771-5.5404-11.438-12-11.438h-61.031z" fill="#cc993e"/>
  <rect id="rect3171" ry="12" stroke="#fff" stroke-linecap="round" stroke-width=".5" fill="url(#linearGradient3613-3)" rx="12" transform="matrix(1.0149 0 0 1.0238 -.83801 955.22)" width="66" opacity=".05" clip-path="url(#clipPath3613-29)" height="66" filter="url(#filter3794-0)" y="15" x="15"/>
  <path id="path5865" d="m17.469 961.77c-6.2512 0-11.355 4.7568-11.969 10.844v63.469c0.07233 0.717 0.21463 1.4198 0.40625 2.0937-0.14675-1.3295-0.26905-2.6965-0.34375-4.0937v-59.281c0-2.3816 0.62452-7.4626 6.625-7.4688h12.75c4.9632 0 7.6402-1.0079 10.125 3.7188 3.0657 4.2041 4.006 4.8869 9.5625 4.2812h40.656c3.7739-0.0442 5.1676 1.5874 5.2188 5.4375v-7.5625c-0.32117-6.3771-5.5404-11.438-12-11.438h-61.031zm73.031 69.73c-0.04406 2.2078-0.18649 4.3503-0.40625 6.4063 0.21124-0.7976 0.36211-1.6143 0.40625-2.4688v-3.9375zm-1.0625 8.2813c-0.13416 0.2981-0.28057 0.5904-0.4375 0.875 0.1575-0.2841 0.30285-0.5773 0.4375-0.875zm-0.438 0.9c-0.15693 0.2845-0.32144 0.5427-0.5 0.8125 0.17482-0.2638 0.34595-0.5347 0.5-0.8125zm-81.906 0.25c0.15696 0.2676 0.32348 0.5274 0.5 0.7812-0.1807-0.2598-0.33982-0.5069-0.5-0.7812zm76.188 4.9375c-0.26128 0.1134-0.54176 0.2175-0.8125 0.3125 0.27423-0.096 0.5479-0.198 0.8125-0.3125zm-69.625 0.375c0.2786 0.093 0.55637 0.1773 0.84375 0.25-0.28437-0.072-0.56799-0.1586-0.84375-0.25zm67.625 0.2812c-0.24437 0.058-0.4999 0.1135-0.75 0.1563 0.25388-0.043 0.50195-0.097 0.75-0.1563z" fill="url(#linearGradient4640)"/>
  <g id="layer5" transform="matrix(1.0168 0 0 1.021 -.61038 955.51)">
   <rect id="rect3171-4" height="66" stroke="#fff" stroke-linecap="round" stroke-width=".5" fill="url(#linearGradient3613-3)" rx="12" ry="12" width="66" opacity=".1" clip-path="url(#clipPath3613-25)" filter="url(#filter3794-6)" y="15" x="15"/>
  </g>
  <path id="path7506" opacity=".55020" d="m28.25 966.31c-0.98771 0.0223-2.0717 0.10149-3.3125 0.10149h-12.75c-6.0005 0.007-6.625 6.3566-6.625 8.9362v0.81233c0-2.5796 0.62452-8.0829 6.625-8.0895h12.75c4.9632 0 7.7652-0.96667 10.125 3.3403 3.0657 4.5536 4.006 5.293 9.5625 4.6371h40.656c3.7739-0.0479 5.1676 1.7193 5.2188 5.8894v-0.81234c-0.05112-4.1701-1.4448-5.9373-5.2188-5.8894h-40.656c-5.5565 0.65596-6.4968-0.0835-9.5625-4.6371-1.8636-3.8396-3.8494-4.3555-6.8125-4.2885z" fill="#f9f9f9"/>
  <rect id="rect3634" opacity="0" height="1" width="84.972" y="973.33" x="5.5655"/>
  <path id="path7563" opacity=".20482" d="m35.742 968.8c0.0231 0.043 0.0394 0.081 0.0625 0.125 0.034 0.047 0.0603 0.079 0.0937 0.125h45.625c2.0566 0 3.7188 1.6621 3.7188 3.7187v-0.25c0-2.0566-1.6621-3.7187-3.7188-3.7187h-45.781z" fill-opacity=".58962" fill="#fff"/>
  <path id="path7516" opacity=".51807" d="m35.742 969.05c0.0231 0.043 0.0394 0.081 0.0625 0.125 0.0241 0.033 0.0386 0.061 0.0625 0.094h45.656c2.0566 0 3.7188 1.6621 3.7188 3.7187v-0.2187c0-2.0566-1.6621-3.7188-3.7188-3.7188l-45.781 0.0001z" fill-opacity=".58962" fill="#fff"/>
  <path id="path7514" opacity=".74699" d="m35.742 969.27c0.0231 0.043 0.0394 0.081 0.0625 0.125 0.0335 0.046 0.0607 0.08 0.0937 0.125h45.625c0.25708 0 0.50773 0.013 0.75 0.063 0.24227 0.049 0.46498 0.1248 0.6875 0.2188 0.23229 0.096 0.45057 0.2049 0.65625 0.3437 0.2043 0.138 0.35868 0.294 0.53125 0.4688 0.32871 0.3328 0.62762 0.7185 0.8125 1.1562 0.004 0.01-0.004 0.023 0 0.031 0.18093 0.4379 0.28125 0.9336 0.28125 1.4375v-0.25c0-2.0566-1.6621-3.7187-3.7188-3.7187h-45.781z" fill-opacity=".58962" fill="#fff"/>
  <path id="rect7493" fill-opacity=".83019" fill="#fff" d="m35.751 969.5c0.0231 0.043 0.0394 0.081 0.0625 0.125 3.0657 4.2041 4.006 4.8869 9.5625 4.2813h39.875v-0.6875c0-2.0567-1.6621-3.7188-3.7188-3.7188h-45.781z"/>
  <g id="g5676" transform="matrix(.94641 0 0 .84994 2.9331 964.94)">
   <path id="path5678" opacity=".15" filter="url(#filter3870)" d="m15.969 22.531c-2.8459 0.0043-5.4332 2.5916-5.4375 5.4375v48.062c0.0043 2.8459 2.5916 5.4332 5.4375 5.4375h64.062c2.8459-0.0043 5.4332-2.5916 5.4375-5.4375v-48.062c-0.0043-2.8459-2.5916-5.4332-5.4375-5.4375z" clip-path="url(#clipPath3860)" fill="url(#linearGradient5696)"/>
  </g>
  <path id="rect5265-0" d="m5.3323 1029.9v5.0663c0 6.668 5.3645 12.032 12.032 12.032h61.049c6.668 0 12.032-5.3645 12.032-12.032v-5.0663c0 6.6681-5.3645 12.032-12.032 12.032h-61.049c-6.668 0-12.032-5.3643-12.032-12.032z" fill-opacity=".11765"/>
  <path id="path5252-0" d="m5.3323 1033.9v1.0133c0 6.668 5.3645 12.032 12.032 12.032h61.049c6.668 0 12.032-5.3645 12.032-12.032v-1.0133c0 6.6681-5.3645 12.032-12.032 12.032h-61.049c-6.668 0-12.032-5.3644-12.032-12.032z" fill-opacity=".098039"/>
  <g id="layer6" transform="translate(.0019670 957.22)">
   <path id="path4031" opacity=".05" d="m32 27.969c-2.1918 0-4.0312 1.8394-4.0312 4.0312v40c0 2.1918 1.8394 4.0312 4.0312 4.0312h32c2.1918 0 4.0312-1.8394 4.0312-4.0312v-28c0-1.694-0.35014-3.3292-1.3125-4.8438s-2.3705-2.9642-4.625-5.2188c-2.478-2.477-3.936-3.88-5.438-4.812-1.501-0.932-3.056-1.156-4.656-1.156h-20zm0 2.031h20c3 0 3.7285 0.44727 8.6562 5.375 4.479 4.479 5.344 5.625 5.344 8.625v28c0 1.108-0.892 2-2 2h-32c-1.108 0-2-0.892-2-2v-40c0-1.108 0.892-2 2-2zm2 4v36h28v-26h-10v-10h-18zm2.0312 2.0312h13.938v3.5625a2.0196 2.0196 0 0 0 -1.969 -1.625h-10a2.0196 2.0196 0 0 0 -1.9688 1.5938v-3.5312zm1.969 3.969h10v2h-10v-2zm-1.9688 2.4062a2.0196 2.0196 0 0 0 1.781 1.594 2.0196 2.0196 0 0 0 -1.781 1.562v-3.1562zm13.938 0.03125v1.5625a2.0196 2.0196 0 0 0 2.031 2.031h7.9688v21.938h-2.5625a2.0196 2.0196 0 0 0 1.625 -1.969v-2a2.0196 2.0196 0 0 0 -1.8438 -2 2.0196 2.0196 0 0 0 1.8438 -2v-2a2.0196 2.0196 0 0 0 -1.8438 -2 2.0196 2.0196 0 0 0 1.8438 -2v-2a2.0196 2.0196 0 0 0 -2.031 -2.031h-8.5938a2.0196 2.0196 0 0 0 1.625 -1.969v-2a2.0196 2.0196 0 0 0 -1.843 -2 2.0196 2.0196 0 0 0 1.781 -1.562zm-11.969 3.563h10v2h-10v-2zm-1.9688 2.4062a2.0196 2.0196 0 0 0 1.781 1.594 2.0196 2.0196 0 0 0 -1.781 1.562v-3.1562zm1.969 3.594h19v2h-19v-2zm-1.9688 2.4062a2.0196 2.0196 0 0 0 1.781 1.594 2.0196 2.0196 0 0 0 -1.781 1.562v-3.1562zm1.969 3.594h19v2h-19v-2zm-1.9688 2.4062a2.0196 2.0196 0 0 0 1.781 1.594 2.0196 2.0196 0 0 0 -1.781 1.562v-3.1562zm1.969 3.594h19v2h-19v-2zm-1.9688 2.4062a2.0196 2.0196 0 0 0 1.5312 1.5625h-1.5312v-1.5625z" fill="#fff"/>
   <path id="path4020" opacity=".1" d="m32 29c-1.645 0-3 1.355-3 3v40c0 1.645 1.355 3 3 3h32c1.645 0 3-1.355 3-3v-28c0-1.596-0.288-2.915-1.156-4.281-0.869-1.367-2.222-2.816-4.469-5.063-2.471-2.47-3.914-3.827-5.25-4.656s-2.575-1-4.125-1h-20zm0 1h20c3 0 3.7285 0.44727 8.6562 5.375 4.479 4.479 5.344 5.625 5.344 8.625v28c0 1.108-0.892 2-2 2h-32c-1.108 0-2-0.892-2-2v-40c0-1.108 0.892-2 2-2zm2 4v36h28v-26h-10v-10h-18zm1 1h16v9a1.0007 1.0007 0 0 0 1 1h9v24h-26v-34zm2.8125 4a1.0007 1.0007 0 0 0 -0.812 1v2a1.0007 1.0007 0 0 0 1 1h10a1.0007 1.0007 0 0 0 1 -1v-2a1.0007 1.0007 0 0 0 -1 -1h-10a1.0007 1.0007 0 0 0 -0.09375 0 1.0007 1.0007 0 0 0 -0.09375 0zm0.188 1h10v2h-10v-2zm-0.1875 5a1.0007 1.0007 0 0 0 -0.812 1v2a1.0007 1.0007 0 0 0 1 1h10a1.0007 1.0007 0 0 0 1 -1v-2a1.0007 1.0007 0 0 0 -1 -1h-10a1.0007 1.0007 0 0 0 -0.09375 0 1.0007 1.0007 0 0 0 -0.09375 0zm0.188 1h10v2h-10v-2zm-0.1875 5a1.0007 1.0007 0 0 0 -0.812 1v2a1.0007 1.0007 0 0 0 1 1h19a1.0007 1.0007 0 0 0 1 -1v-2a1.0007 1.0007 0 0 0 -1 -1h-19a1.0007 1.0007 0 0 0 -0.09375 0 1.0007 1.0007 0 0 0 -0.09375 0zm0.188 1h19v2h-19v-2zm-0.1875 5a1.0007 1.0007 0 0 0 -0.812 1v2a1.0007 1.0007 0 0 0 1 1h19a1.0007 1.0007 0 0 0 1 -1v-2a1.0007 1.0007 0 0 0 -1 -1h-19a1.0007 1.0007 0 0 0 -0.09375 0 1.0007 1.0007 0 0 0 -0.09375 0zm0.188 1h19v2h-19v-2zm-0.1875 5a1.0007 1.0007 0 0 0 -0.812 1v2a1.0007 1.0007 0 0 0 1 1h19a1.0007 1.0007 0 0 0 1 -1v-2a1.0007 1.0007 0 0 0 -1 -1h-19a1.0007 1.0007 0 0 0 -0.09375 0 1.0007 1.0007 0 0 0 -0.09375 0zm0.188 1h19v2h-19v-2z" fill="#fff"/>
   <path id="rect2938" opacity=".9" d="m32 30c-1.108 0-2 0.892-2 2v40c0 1.108 0.892 2 2 2h32c1.108 0 2-0.892 2-2v-28c0-3-0.865-4.146-5.344-8.625-4.927-4.928-5.656-5.375-8.656-5.375h-20zm2 4h18v10h10v26h-28v-36zm4 6v2h10v-2h-10zm0 6v2h10v-2h-10zm0 6v2h19v-2h-19zm0 6v2h19v-2h-19zm0 6v2h19v-2h-19z" fill="url(#linearGradient3087-8)"/>
   <path id="path3992" opacity=".25" d="m32 30c-1.108 0-2 0.892-2 2v40c0 1.108 0.892 2 2 2h32c1.108 0 2-0.892 2-2v-28c0-3-0.865-4.146-5.344-8.625-4.927-4.928-5.656-5.375-8.656-5.375h-20zm0 2h1.8438a2.0002 2.0002 0 0 0 -1.844 1.812v-1.812zm20.406 0.03125c0.97173 0.01139 1.4259 0.04689 2.1562 0.5 0.84778 0.52596 2.2371 1.7996 4.6875 4.25 2.2248 2.2248 3.471 3.6003 4.0625 4.5312 0.52227 0.82196 0.63289 1.3508 0.65625 2.3438a2.0002 2.0002 0 0 0 -1.968 -1.656h-8v-8a2.0002 2.0002 0 0 0 -1.594 -1.969zm-18.406 1.969h18v10h10v26h-28v-36zm4 6v2h10v-2h-10zm0 6v2h10v-2h-10zm0 6v2h19v-2h-19zm0 6v2h19v-2h-19zm0 6v2h19v-2h-19zm-6 6.1562a2.0002 2.0002 0 0 0 1.812 1.844h-1.812v-1.844zm32 0.032v1.812h-1.844a2.0002 2.0002 0 0 0 1.844 -1.812z" fill="url(#linearGradient3087-8)"/>
   <path id="path3969" d="m32 30c-1.108 0-2 0.892-2 2v1c0-1.108 0.892-2 2-2h20c3 0 3.7285 0.44727 8.6562 5.375 4.479 4.479 5.344 5.625 5.344 8.625v-1c0-3-0.865-4.146-5.344-8.625-4.927-4.928-5.656-5.375-8.656-5.375h-20zm6 10v1h10v-1h-10zm0 6v1h10v-1h-10zm0 6v1h19v-1h-19zm0 6v1h19v-1h-19zm0 6v1h19v-1h-19zm-4 6v1h28v-1h-28z" fill="url(#linearGradient3087-8)"/>
   <path id="path3978" opacity=".5" d="m32 30c-1.108 0-2 0.892-2 2v40c0 1.108 0.892 2 2 2h32c1.108 0 2-0.892 2-2v-28c0-3-0.865-4.146-5.344-8.625-4.927-4.928-5.656-5.375-8.656-5.375h-20zm0 1h20c1.4503 0 2.0521 0.06063 3.0625 0.6875s2.4179 1.9491 4.875 4.4062c2.2322 2.2322 3.535 3.6113 4.2188 4.6875 0.684 1.076 0.844 1.815 0.844 3.219v28c0 0.5713-0.4287 1-1 1h-32c-0.5713 0-1-0.4287-1-1v-40c0-0.5713 0.4287-1 1-1zm1.8125 2a1.0001 1.0001 0 0 0 -0.812 1v36a1.0001 1.0001 0 0 0 1 1h28a1.0001 1.0001 0 0 0 1 -1v-26a1.0001 1.0001 0 0 0 -1 -1h-9v-9a1.0001 1.0001 0 0 0 -1 -1h-18a1.0001 1.0001 0 0 0 -0.15625 0 1.0001 1.0001 0 0 0 -0.03125 0zm0.188 1h18v10h10v26h-28v-36zm4 6v2h10v-2h-10zm0 6v2h10v-2h-10zm0 6v2h19v-2h-19zm0 6v2h19v-2h-19zm0 6v2h19v-2h-19z" fill="url(#linearGradient3087-8)"/>
   <path id="path4005" opacity=".2" d="m34 34v1h18v-1h-18zm4 8v1h10v-1h-10zm14 2v1h10v-1h-10zm-14 4v1h10v-1h-10zm0 6v1h19v-1h-19zm0 6v1h19v-1h-19zm0 6v1h19v-1h-19zm-8 6v1c0 1.108 0.892 2 2 2h32c1.108 0 2-0.892 2-2v-1c0 1.108-0.892 2-2 2h-32c-1.108 0-2-0.892-2-2z" fill="#fff"/>
  </g>
 </g>
</svg>
