<?xml version="1.0" encoding="UTF-8" standalone="no"?>
<!-- Created with Inkscape (http://www.inkscape.org/) -->
<svg id="svg2" xmlns:rdf="http://www.w3.org/1999/02/22-rdf-syntax-ns#" xmlns="http://www.w3.org/2000/svg" height="96" width="96" version="1.1" xmlns:cc="http://creativecommons.org/ns#" xmlns:xlink="http://www.w3.org/1999/xlink" xmlns:dc="http://purl.org/dc/elements/1.1/">
 <defs id="defs4">
  <linearGradient id="linearGradient3613-3" y2="138.66" gradientUnits="userSpaceOnUse" x2="48" y1="20.221" x1="48">
   <stop id="stop3739-10" stop-color="#fff" offset="0"/>
   <stop id="stop3741-2" stop-color="#fff" stop-opacity="0" offset="1"/>
  </linearGradient>
  <clipPath id="clipPath3613-29">
   <rect id="rect3615-1" rx="6" ry="6" height="84" width="84" y="6" x="6" fill="#fff"/>
  </clipPath>
  <filter id="filter3794-0" height="1.384" width="1.384" color-interpolation-filters="sRGB" y="-.192" x="-.192">
   <feGaussianBlur id="feGaussianBlur3796-8" stdDeviation="5.28"/>
  </filter>
  <clipPath id="clipPath3613-25">
   <rect id="rect3615-14" rx="6" ry="6" height="84" width="84" y="6" x="6" fill="#fff"/>
  </clipPath>
  <filter id="filter3794-6" height="1.384" width="1.384" color-interpolation-filters="sRGB" y="-.192" x="-.192">
   <feGaussianBlur id="feGaussianBlur3796-26" stdDeviation="5.28"/>
  </filter>
  <clipPath id="clipPath3860">
   <rect id="rect3862" rx="6" ry="6" height="72" width="84" y="18" x="6" fill="#f0f"/>
  </clipPath>
  <filter id="filter3870" height="1.3943" width="1.3312" color-interpolation-filters="sRGB" y="-.19716" x="-.16559">
   <feGaussianBlur id="feGaussianBlur3872" stdDeviation="5.1703125"/>
  </filter>
  <linearGradient id="linearGradient5696" y2="81.481" gradientUnits="userSpaceOnUse" x2="48.022" y1="22.933" x1="48.022">
   <stop id="stop3876" stop-color="#fff" offset="0"/>
   <stop id="stop3878" stop-color="#fff" stop-opacity="0" offset="1"/>
  </linearGradient>
  <linearGradient id="linearGradient4640" y2="48.005" gradientUnits="userSpaceOnUse" x2="6.1872" gradientTransform="translate(0 956.36)" y1="48.005" x1="93.008">
   <stop id="stop4636" stop-color="#be8e4a" stop-opacity=".076923" offset="0"/>
   <stop id="stop4638" stop-color="#a67c25" offset="1"/>
  </linearGradient>
  <linearGradient id="linearGradient3100" y2="38.758" xlink:href="#linearGradient3699-6" gradientUnits="userSpaceOnUse" x2="49" gradientTransform="translate(-2,-4)" y1="72" x1="49"/>
  <linearGradient id="linearGradient3699-6">
   <stop id="stop3701-8" stop-color="#aa7932" stop-opacity=".78431" offset="0"/>
   <stop id="stop3703-5" stop-color="#aa7932" stop-opacity=".39216" offset="1"/>
  </linearGradient>
 </defs>
 <metadata id="metadata7">
  <rdf:RDF>
   <cc:Work rdf:about="">
    <dc:format>image/svg+xml</dc:format>
    <dc:type rdf:resource="http://purl.org/dc/dcmitype/StillImage"/>
    <dc:title/>
   </cc:Work>
  </rdf:RDF>
 </metadata>
 <g id="layer1" transform="translate(0 -956.36)">
  <rect id="rect5263-0" fill-opacity=".019608" ry="12.724" height="89.978" width="89.978" y="959.35" x="2.9998"/>
  <rect id="rect5261-6" fill-opacity=".039216" ry="12.552" height="88.762" width="88.762" y="959.96" x="3.6078"/>
  <rect id="rect5259-9" fill-opacity=".078431" ry="12.38" height="87.546" width="87.546" y="960.57" x="4.2157"/>
  <rect id="rect5257-5" fill-opacity=".15686" ry="12.208" height="86.33" width="86.33" y="961.18" x="4.8237"/>
  <path id="rect2419-5" d="m17.469 961.77c-6.2512 0-11.355 4.7568-11.969 10.844v63.469c0.61364 6.0834 5.7175 10.812 11.969 10.812h61.031c6.4543 0 11.671-5.0367 12-11.406v-62.281c-0.32117-6.3771-5.5404-11.438-12-11.438h-61.031z" fill="#cc993d"/>
  <rect id="rect3171" ry="12" stroke="#fff" stroke-linecap="round" stroke-width=".5" fill="url(#linearGradient3613-3)" rx="12" transform="matrix(1.0149 0 0 1.0238 -.83801 955.22)" width="66" opacity=".05" clip-path="url(#clipPath3613-29)" height="66" filter="url(#filter3794-0)" y="15" x="15"/>
  <path id="path5865" d="m17.469 961.77c-6.2512 0-11.355 4.7568-11.969 10.844v63.469c0.07233 0.717 0.21463 1.4198 0.40625 2.0937-0.14675-1.3295-0.26905-2.6965-0.34375-4.0937v-59.281c0-2.3816 0.62452-7.4626 6.625-7.4688h12.75c4.9632 0 7.6402-1.0079 10.125 3.7188 3.0657 4.2041 4.006 4.8869 9.5625 4.2812h40.656c3.7739-0.0442 5.1676 1.5874 5.2188 5.4375v-7.5625c-0.32117-6.3771-5.5404-11.438-12-11.438h-61.031zm73.031 69.73c-0.04406 2.2078-0.18649 4.3503-0.40625 6.4063 0.21124-0.7976 0.36211-1.6143 0.40625-2.4688v-3.9375zm-1.0625 8.2813c-0.13416 0.2981-0.28057 0.5904-0.4375 0.875 0.1575-0.2841 0.30285-0.5773 0.4375-0.875zm-0.438 0.9c-0.15693 0.2845-0.32144 0.5427-0.5 0.8125 0.17482-0.2638 0.34595-0.5347 0.5-0.8125zm-81.906 0.25c0.15696 0.2676 0.32348 0.5274 0.5 0.7812-0.1807-0.2598-0.33982-0.5069-0.5-0.7812zm76.188 4.9375c-0.26128 0.1134-0.54176 0.2175-0.8125 0.3125 0.27423-0.096 0.5479-0.198 0.8125-0.3125zm-69.625 0.375c0.2786 0.093 0.55637 0.1773 0.84375 0.25-0.28437-0.072-0.56799-0.1586-0.84375-0.25zm67.625 0.2812c-0.24437 0.058-0.4999 0.1135-0.75 0.1563 0.25388-0.043 0.50195-0.097 0.75-0.1563z" fill="url(#linearGradient4640)"/>
  <g id="layer5" transform="matrix(1.0168 0 0 1.021 -.61038 955.51)">
   <rect id="rect3171-4" height="66" stroke="#fff" stroke-linecap="round" stroke-width=".5" fill="url(#linearGradient3613-3)" rx="12" ry="12" width="66" opacity=".1" clip-path="url(#clipPath3613-25)" filter="url(#filter3794-6)" y="15" x="15"/>
  </g>
  <path id="path7506" opacity=".55020" d="m28.25 966.31c-0.98771 0.0223-2.0717 0.10149-3.3125 0.10149h-12.75c-6.0005 0.007-6.625 6.3566-6.625 8.9362v0.81233c0-2.5796 0.62452-8.0829 6.625-8.0895h12.75c4.9632 0 7.7652-0.96667 10.125 3.3403 3.0657 4.5536 4.006 5.293 9.5625 4.6371h40.656c3.7739-0.0479 5.1676 1.7193 5.2188 5.8894v-0.81234c-0.05112-4.1701-1.4448-5.9373-5.2188-5.8894h-40.656c-5.5565 0.65596-6.4968-0.0835-9.5625-4.6371-1.8636-3.8396-3.8494-4.3555-6.8125-4.2885z" fill="#f9f9f9"/>
  <rect id="rect3634" opacity="0" height="1" width="84.972" y="973.33" x="5.5655"/>
  <path id="path7563" opacity=".20482" d="m35.742 968.8c0.0231 0.043 0.0394 0.081 0.0625 0.125 0.034 0.047 0.0603 0.079 0.0937 0.125h45.625c2.0566 0 3.7188 1.6621 3.7188 3.7187v-0.25c0-2.0566-1.6621-3.7187-3.7188-3.7187h-45.781z" fill-opacity=".58962" fill="#fff"/>
  <path id="path7516" opacity=".51807" d="m35.742 969.05c0.0231 0.043 0.0394 0.081 0.0625 0.125 0.0241 0.033 0.0386 0.061 0.0625 0.094h45.656c2.0566 0 3.7188 1.6621 3.7188 3.7187v-0.2187c0-2.0566-1.6621-3.7188-3.7188-3.7188l-45.781 0.0001z" fill-opacity=".58962" fill="#fff"/>
  <path id="path7514" opacity=".74699" d="m35.742 969.27c0.0231 0.043 0.0394 0.081 0.0625 0.125 0.0335 0.046 0.0607 0.08 0.0937 0.125h45.625c0.25708 0 0.50773 0.013 0.75 0.063 0.24227 0.049 0.46498 0.1248 0.6875 0.2188 0.23229 0.096 0.45057 0.2049 0.65625 0.3437 0.2043 0.138 0.35868 0.294 0.53125 0.4688 0.32871 0.3328 0.62762 0.7185 0.8125 1.1562 0.004 0.01-0.004 0.023 0 0.031 0.18093 0.4379 0.28125 0.9336 0.28125 1.4375v-0.25c0-2.0566-1.6621-3.7187-3.7188-3.7187h-45.781z" fill-opacity=".58962" fill="#fff"/>
  <path id="rect7493" fill-opacity=".83019" fill="#fff" d="m35.751 969.5c0.0231 0.043 0.0394 0.081 0.0625 0.125 3.0657 4.2041 4.006 4.8869 9.5625 4.2813h39.875v-0.6875c0-2.0567-1.6621-3.7188-3.7188-3.7188h-45.781z"/>
  <g id="g5676" transform="matrix(.94641 0 0 .84994 2.9331 964.94)">
   <path id="path5678" opacity=".15" filter="url(#filter3870)" d="m15.969 22.531c-2.8459 0.0043-5.4332 2.5916-5.4375 5.4375v48.062c0.0043 2.8459 2.5916 5.4332 5.4375 5.4375h64.062c2.8459-0.0043 5.4332-2.5916 5.4375-5.4375v-48.062c-0.0043-2.8459-2.5916-5.4332-5.4375-5.4375z" clip-path="url(#clipPath3860)" fill="url(#linearGradient5696)"/>
  </g>
  <path id="rect5265-0" d="m5.3323 1029.9v5.0663c0 6.668 5.3645 12.032 12.032 12.032h61.049c6.668 0 12.032-5.3645 12.032-12.032v-5.0663c0 6.6681-5.3645 12.032-12.032 12.032h-61.049c-6.668 0-12.032-5.3643-12.032-12.032z" fill-opacity=".11765"/>
  <path id="path5252-0" d="m5.3323 1033.9v1.0133c0 6.668 5.3645 12.032 12.032 12.032h61.049c6.668 0 12.032-5.3645 12.032-12.032v-1.0133c0 6.6681-5.3645 12.032-12.032 12.032h-61.049c-6.668 0-12.032-5.3644-12.032-12.032z" fill-opacity=".098039"/>
  <g id="layer6-1" transform="translate(.16974 956.89)">
   <path id="path3930" opacity=".05" d="m35.5 34.031c-1.3625 0-2.5278 0.83294-3.0938 2h-3.4062c-2.7219 0-4.9688 2.2469-4.9688 4.9688v24c0 2.7219 2.2469 4.9688 4.9688 4.9688h38c2.7219 0 4.9688-2.2469 4.9688-4.9688v-24c0-2.7219-2.2469-4.9688-4.9688-4.9688h-23.406c-0.56599-1.1671-1.7312-2-3.0938-2h-5zm0 1.9688h5c0.831 0 1.5 0.669 1.5 1.5v0.5h25c1.662 0 3 1.338 3 3v24c0 1.662-1.338 3-3 3h-38c-1.662 0-3-1.338-3-3v-24c0-1.662 1.338-3 3-3h5v-0.5c0-0.831 0.669-1.5 1.5-1.5zm-4.5 6c-0.554 0-1 0.446-1 1v2c0 0.554 0.446 1 1 1h10c0.554 0 1-0.446 1-1v-2c0-0.554-0.446-1-1-1h-10zm0.96875 1.9688h8.0625v0.0625h-8.0625v-0.0625zm24.031 0.031c-5.5228 0-10 4.4772-10 10s4.4772 10 10 10 10-4.4772 10-10-4.4772-10-10-10zm0 1.9688c4.4556 0 8.0312 3.5757 8.0312 8.0312 0 4.4556-3.5757 8.0312-8.0312 8.0312-4.4556 0-8.0312-3.5757-8.0312-8.0312 0-4.4556 3.5757-8.0312 8.0312-8.0312zm0 2.0625c-3.2764 0-5.9688 2.6924-5.9688 5.9688s2.6924 5.9688 5.9688 5.9688 5.9688-2.6924 5.9688-5.9688-2.6924-5.9688-5.9688-5.9688zm0 1.968c2.2091 0 4 1.7909 4 4s-1.7909 4-4 4-4-1.7909-4-4 1.7909-4 4-4z" fill="#fff"/>
   <path id="path3921" opacity=".1" d="m35.5 35.062c-1.1591 0-2.0175 0.9045-2.25 2h-4.25c-2.1599 0-3.9375 1.7776-3.9375 3.9375v24c0 2.1599 1.7776 3.9375 3.9375 3.9375h38c2.1599 0 3.9375-1.7776 3.9375-3.9375v-24c0-2.1599-1.7776-3.9375-3.9375-3.9375h-24.25c-0.2325-1.0955-1.0909-2-2.25-2h-5zm0 0.9375h5c0.831 0 1.5 0.669 1.5 1.5v0.5h25c1.662 0 3 1.338 3 3v24c0 1.662-1.338 3-3 3h-38c-1.662 0-3-1.338-3-3v-24c0-1.662 1.338-3 3-3h5v-0.5c0-0.831 0.669-1.5 1.5-1.5zm-4.5 6c-0.554 0-1 0.446-1 1v2c0 0.554 0.446 1 1 1h10c0.554 0 1-0.446 1-1v-2c0-0.554-0.446-1-1-1h-10zm-0.0625 0.9375c0.0086-0.0086 0.03445 0 0.0625 0h10c0.0561 0 0.0625 0.0064 0.0625 0.0625v2c0 0.0561-0.0064 0.0625-0.0625 0.0625h-10c-0.0561 0-0.0625-0.0064-0.0625-0.0625v-2c0-0.02805-0.0086-0.05389 0-0.0625zm25.062 1.062c-5.5228 0-10 4.4772-10 10s4.4772 10 10 10 10-4.4772 10-10-4.4772-10-10-10zm0 0.9375c5.0215 0 9.0625 4.041 9.0625 9.0625s-4.041 9.0625-9.0625 9.0625-9.0625-4.041-9.0625-9.0625 4.041-9.0625 9.0625-9.0625zm0 4.125c-2.7105 0-4.9375 2.227-4.9375 4.9375s2.227 4.9375 4.9375 4.9375 4.9375-2.227 4.9375-4.9375-2.227-4.9375-4.9375-4.9375zm0 0.937c2.2091 0 4 1.7909 4 4s-1.7909 4-4 4-4-1.7909-4-4 1.7909-4 4-4z" fill="#fff"/>
   <path id="rect2941" opacity=".9" d="m35.5 36c-0.831 0-1.5 0.669-1.5 1.5v0.5h-5c-1.662 0-3 1.338-3 3v24c0 1.662 1.338 3 3 3h38c1.662 0 3-1.338 3-3v-24c0-1.662-1.338-3-3-3h-25v-0.5c0-0.831-0.669-1.5-1.5-1.5h-5zm-4.5 6h10c0.554 0 1 0.446 1 1v2c0 0.554-0.446 1-1 1h-10c-0.554 0-1-0.446-1-1v-2c0-0.554 0.446-1 1-1zm25 2c5.5228 0 10 4.4772 10 10s-4.4772 10-10 10-10-4.4772-10-10 4.4772-10 10-10zm0 6c-2.2091 0-4 1.7909-4 4s1.7909 4 4 4 4-1.7909 4-4-1.7909-4-4-4z" fill="url(#linearGradient3100)"/>
   <path id="path3893" opacity=".25" d="m35.5 36c-0.831 0-1.5 0.669-1.5 1.5v0.5h-5c-1.662 0-3 1.338-3 3v24c0 1.662 1.338 3 3 3h38c1.662 0 3-1.338 3-3v-24c0-1.662-1.338-3-3-3h-25v-0.5c0-0.831-0.669-1.5-1.5-1.5h-5zm0.59375 2.0938h3.8125a2.0876 2.0876 0 0 0 1.25 1.8438c-0.052-0.003-0.103-0.032-0.156-0.032h-6.125a2.0876 2.0876 0 0 0 1.2188 -1.8125zm5.0938 1.8438c0.28204 0.018 0.55363 0.06398 0.8125 0.15625h25c0.54172 0 0.90625 0.36453 0.90625 0.90625v12.094c-0.491-6.209-5.577-11.188-11.906-11.188-6.6509 0-12.094 5.4428-12.094 12.094 0 6.3295 4.9792 11.415 11.188 11.906h-26.094c-0.54172 0-0.90625-0.36453-0.90625-0.90625v-19.562c0.2465 1.4467 1.4014 2.6562 2.9062 2.6562h10c1.6743 0 3.0938-1.4195 3.0938-3.0938v-2c0-1.3255-0.89235-2.478-2.0938-2.9062a2.0876 2.0876 0 0 1 -0.812 -0.156zm-12.188 0.156h1.5625c-1.2838 0.21874-2.25 1.185-2.4688 2.4688v-1.5625c0-0.54172 0.36453-0.90625 0.90625-0.90625zm2 1.906h10c0.554 0 1 0.446 1 1v2c0 0.554-0.446 1-1 1h-10c-0.554 0-1-0.446-1-1v-2c0-0.554 0.446-1 1-1zm25 2c5.5228 0 10 4.4772 10 10s-4.4772 10-10 10-10-4.4772-10-10 4.4772-10 10-10zm0 6c-2.2091 0-4 1.7909-4 4s1.7909 4 4 4 4-1.7909 4-4-1.7909-4-4-4zm0 2.0938c1.0811 0 1.9062 0.82519 1.9062 1.9062 0 1.0811-0.82519 1.9062-1.9062 1.9062-1.0811 0-1.9062-0.82519-1.9062-1.9062 0-1.0811 0.82519-1.9062 1.9062-1.9062zm11.906 2.8125v10.094c0 0.54172-0.36453 0.90625-0.90625 0.90625h-10.094c5.893-0.46583 10.534-5.107 11-11z" fill="url(#linearGradient3100)"/>
   <path id="path3880" opacity=".5" d="m35.5 36c-0.831 0-1.5 0.669-1.5 1.5v0.5h-5c-1.662 0-3 1.338-3 3v24c0 1.662 1.338 3 3 3h38c1.662 0 3-1.338 3-3v-24c0-1.662-1.338-3-3-3h-25v-0.5c0-0.831-0.669-1.5-1.5-1.5h-5zm0 1.0312h5c0.27086 0 0.46875 0.19789 0.46875 0.46875v0.5a1.0438 1.0438 0 0 0 1.031 1.031h25c1.1019 0 1.9688 0.86689 1.9688 1.9688v24c0 1.1019-0.86689 1.9688-1.9688 1.9688h-38c-1.1019 0-1.9688-0.86689-1.9688-1.9688v-24c0-1.1019 0.86689-1.9688 1.9688-1.9688h5a1.0438 1.0438 0 0 0 1.031 -1.031v-0.5c0-0.27086 0.19789-0.46875 0.46875-0.46875zm-4.5 3.9375c-1.1141 0-2.0312 0.91711-2.0312 2.0312v2c0 1.1141 0.91711 2.0312 2.0312 2.0312h10c1.1141 0 2.0312-0.91711 2.0312-2.0312v-2c0-1.1141-0.91711-2.0312-2.0312-2.0312h-10zm0 1.032h10c0.554 0 1 0.446 1 1v2c0 0.554-0.446 1-1 1h-10c-0.554 0-1-0.446-1-1v-2c0-0.554 0.446-1 1-1zm25 0.96875c-6.0869 0-11.031 4.9444-11.031 11.031 0 6.0869 4.9444 11.031 11.031 11.031 6.0869 0 11.031-4.9444 11.031-11.031 0-6.087-4.944-11.031-11.031-11.031zm0 1.031c5.5228 0 10 4.4772 10 10s-4.4772 10-10 10-10-4.4772-10-10 4.4772-10 10-10zm0 6c-2.2091 0-4 1.7909-4 4s1.7909 4 4 4 4-1.7909 4-4-1.7909-4-4-4zm0 1.0312c1.6451 0 2.9688 1.3237 2.9688 2.9688s-1.3237 2.9688-2.9688 2.9688-2.9688-1.3237-2.9688-2.9688 1.3237-2.9688 2.9688-2.9688z" fill="url(#linearGradient3100)"/>
   <path id="path3871" d="m35.5 36c-0.831 0-1.5 0.669-1.5 1.5v0.5h-5c-1.662 0-3 1.338-3 3v1c0-1.662 1.338-3 3-3h5v-0.5c0-0.831 0.669-1.5 1.5-1.5h5c0.831 0 1.5 0.669 1.5 1.5v0.5h25c1.662 0 3 1.338 3 3v-1c0-1.662-1.338-3-3-3h-25v-0.5c0-0.831-0.669-1.5-1.5-1.5h-5zm-5.5 9v1c0 0.554 0.446 1 1 1h10c0.554 0 1-0.446 1-1v-1c0 0.554-0.446 1-1 1h-10c-0.554 0-1-0.446-1-1zm26 5c-2.2091 0-4 1.7909-4 4 0 0.17012 0.04189 0.33547 0.0625 0.5 0.248-1.972 1.899-3.5 3.938-3.5s3.6904 1.528 3.9375 3.5c0.02-0.165 0.062-0.33 0.062-0.5 0-2.209-1.791-4-4-4zm-9.9688 4.5c-0.008 0.165-0.031 0.333-0.031 0.5 0 5.5228 4.4772 10 10 10s10-4.4772 10-10c0-0.16738-0.02312-0.33464-0.03125-0.5-0.26 5.291-4.614 9.5-9.969 9.5s-9.709-4.209-9.969-9.5z" fill="url(#linearGradient3100)"/>
   <path id="path3906" opacity=".2" d="m31 42c-0.554 0-1 0.446-1 1v1c0-0.554 0.446-1 1-1h10c0.554 0 1 0.446 1 1v-1c0-0.554-0.446-1-1-1h-10zm25 2c-5.5228 0-10 4.4772-10 10 0 0.16738 0.02312 0.33464 0.03125 0.5 0.26-5.291 4.614-9.5 9.969-9.5 5.3555 0 9.7087 4.209 9.9688 9.5 0.008-0.165 0.031-0.333 0.031-0.5 0-5.523-4.477-10-10-10zm-3.938 10.5c-0.02 0.165-0.062 0.33-0.062 0.5 0 2.2091 1.7909 4 4 4s4-1.7909 4-4c0-0.17012-0.04189-0.33547-0.0625-0.5-0.248 1.972-1.899 3.5-3.938 3.5s-3.69-1.528-3.938-3.5zm-26.062 10.5v1c0 1.662 1.338 3 3 3h38c1.662 0 3-1.338 3-3v-1c0 1.662-1.338 3-3 3h-38c-1.662 0-3-1.338-3-3z" fill="#fff"/>
  </g>
 </g>
</svg>
