<?xml version="1.0" encoding="UTF-8" standalone="no"?>
<!-- Created with Inkscape (http://www.inkscape.org/) -->
<svg id="svg2" xmlns:rdf="http://www.w3.org/1999/02/22-rdf-syntax-ns#" xmlns="http://www.w3.org/2000/svg" height="96" width="96" version="1.1" xmlns:cc="http://creativecommons.org/ns#" xmlns:xlink="http://www.w3.org/1999/xlink" xmlns:dc="http://purl.org/dc/elements/1.1/">
 <defs id="defs4">
  <linearGradient id="linearGradient3613-3" y2="138.66" gradientUnits="userSpaceOnUse" x2="48" y1="20.221" x1="48">
   <stop id="stop3739-10" stop-color="#fff" offset="0"/>
   <stop id="stop3741-2" stop-color="#fff" stop-opacity="0" offset="1"/>
  </linearGradient>
  <clipPath id="clipPath3613-29">
   <rect id="rect3615-1" rx="6" ry="6" height="84" width="84" y="6" x="6" fill="#fff"/>
  </clipPath>
  <filter id="filter3794-0" height="1.384" width="1.384" color-interpolation-filters="sRGB" y="-.192" x="-.192">
   <feGaussianBlur id="feGaussianBlur3796-8" stdDeviation="5.28"/>
  </filter>
  <clipPath id="clipPath3613-25">
   <rect id="rect3615-14" rx="6" ry="6" height="84" width="84" y="6" x="6" fill="#fff"/>
  </clipPath>
  <filter id="filter3794-6" height="1.384" width="1.384" color-interpolation-filters="sRGB" y="-.192" x="-.192">
   <feGaussianBlur id="feGaussianBlur3796-26" stdDeviation="5.28"/>
  </filter>
  <clipPath id="clipPath3860">
   <rect id="rect3862" rx="6" ry="6" height="72" width="84" y="18" x="6" fill="#f0f"/>
  </clipPath>
  <filter id="filter3870" height="1.3943" width="1.3312" color-interpolation-filters="sRGB" y="-.19716" x="-.16559">
   <feGaussianBlur id="feGaussianBlur3872" stdDeviation="5.1703125"/>
  </filter>
  <linearGradient id="linearGradient5696" y2="81.481" gradientUnits="userSpaceOnUse" x2="48.022" y1="22.933" x1="48.022">
   <stop id="stop3876" stop-color="#fff" offset="0"/>
   <stop id="stop3878" stop-color="#fff" stop-opacity="0" offset="1"/>
  </linearGradient>
  <linearGradient id="linearGradient4640" y2="48.005" gradientUnits="userSpaceOnUse" x2="6.1872" gradientTransform="translate(0 956.36)" y1="48.005" x1="93.008">
   <stop id="stop4636" stop-color="#be8e4a" stop-opacity=".076923" offset="0"/>
   <stop id="stop4638" stop-color="#a67c25" offset="1"/>
  </linearGradient>
  <linearGradient id="linearGradient5172" y2="33.893" xlink:href="#linearGradient3699-8" gradientUnits="userSpaceOnUse" x2="55" gradientTransform="translate(0,-2)" y1="76" x1="55"/>
  <linearGradient id="linearGradient3699-8">
   <stop id="stop3701-2" stop-color="#aa7932" stop-opacity=".78431" offset="0"/>
   <stop id="stop3703-6" stop-color="#aa7932" stop-opacity=".39216" offset="1"/>
  </linearGradient>
 </defs>
 <metadata id="metadata7">
  <rdf:RDF>
   <cc:Work rdf:about="">
    <dc:format>image/svg+xml</dc:format>
    <dc:type rdf:resource="http://purl.org/dc/dcmitype/StillImage"/>
    <dc:title/>
   </cc:Work>
  </rdf:RDF>
 </metadata>
 <g id="layer1" transform="translate(0 -956.36)">
  <rect id="rect5263-0" fill-opacity=".019608" ry="12.724" height="89.978" width="89.978" y="959.35" x="2.9998"/>
  <rect id="rect5261-6" fill-opacity=".039216" ry="12.552" height="88.762" width="88.762" y="959.96" x="3.6078"/>
  <rect id="rect5259-9" fill-opacity=".078431" ry="12.38" height="87.546" width="87.546" y="960.57" x="4.2157"/>
  <rect id="rect5257-5" fill-opacity=".15686" ry="12.208" height="86.33" width="86.33" y="961.18" x="4.8237"/>
  <path id="rect2419-5" d="m17.469 961.77c-6.2512 0-11.355 4.7568-11.969 10.844v63.469c0.61364 6.0834 5.7175 10.812 11.969 10.812h61.031c6.4543 0 11.671-5.0367 12-11.406v-62.281c-0.32117-6.3771-5.5404-11.438-12-11.438h-61.031z" fill="#cc993d"/>
  <rect id="rect3171" ry="12" stroke="#fff" stroke-linecap="round" stroke-width=".5" fill="url(#linearGradient3613-3)" rx="12" transform="matrix(1.0149 0 0 1.0238 -.83801 955.22)" width="66" opacity=".05" clip-path="url(#clipPath3613-29)" height="66" filter="url(#filter3794-0)" y="15" x="15"/>
  <path id="path5865" d="m17.469 961.77c-6.2512 0-11.355 4.7568-11.969 10.844v63.469c0.07233 0.717 0.21463 1.4198 0.40625 2.0937-0.14675-1.3295-0.26905-2.6965-0.34375-4.0937v-59.281c0-2.3816 0.62452-7.4626 6.625-7.4688h12.75c4.9632 0 7.6402-1.0079 10.125 3.7188 3.0657 4.2041 4.006 4.8869 9.5625 4.2812h40.656c3.7739-0.0442 5.1676 1.5874 5.2188 5.4375v-7.5625c-0.32117-6.3771-5.5404-11.438-12-11.438h-61.031zm73.031 69.73c-0.04406 2.2078-0.18649 4.3503-0.40625 6.4063 0.21124-0.7976 0.36211-1.6143 0.40625-2.4688v-3.9375zm-1.0625 8.2813c-0.13416 0.2981-0.28057 0.5904-0.4375 0.875 0.1575-0.2841 0.30285-0.5773 0.4375-0.875zm-0.438 0.9c-0.15693 0.2845-0.32144 0.5427-0.5 0.8125 0.17482-0.2638 0.34595-0.5347 0.5-0.8125zm-81.906 0.25c0.15696 0.2676 0.32348 0.5274 0.5 0.7812-0.1807-0.2598-0.33982-0.5069-0.5-0.7812zm76.188 4.9375c-0.26128 0.1134-0.54176 0.2175-0.8125 0.3125 0.27423-0.096 0.5479-0.198 0.8125-0.3125zm-69.625 0.375c0.2786 0.093 0.55637 0.1773 0.84375 0.25-0.28437-0.072-0.56799-0.1586-0.84375-0.25zm67.625 0.2812c-0.24437 0.058-0.4999 0.1135-0.75 0.1563 0.25388-0.043 0.50195-0.097 0.75-0.1563z" fill="url(#linearGradient4640)"/>
  <g id="layer5" transform="matrix(1.0168 0 0 1.021 -.61038 955.51)">
   <rect id="rect3171-4" height="66" stroke="#fff" stroke-linecap="round" stroke-width=".5" fill="url(#linearGradient3613-3)" rx="12" ry="12" width="66" opacity=".1" clip-path="url(#clipPath3613-25)" filter="url(#filter3794-6)" y="15" x="15"/>
  </g>
  <path id="path7506" opacity=".55020" d="m28.25 966.31c-0.98771 0.0223-2.0717 0.10149-3.3125 0.10149h-12.75c-6.0005 0.007-6.625 6.3566-6.625 8.9362v0.81233c0-2.5796 0.62452-8.0829 6.625-8.0895h12.75c4.9632 0 7.7652-0.96667 10.125 3.3403 3.0657 4.5536 4.006 5.293 9.5625 4.6371h40.656c3.7739-0.0479 5.1676 1.7193 5.2188 5.8894v-0.81234c-0.05112-4.1701-1.4448-5.9373-5.2188-5.8894h-40.656c-5.5565 0.65596-6.4968-0.0835-9.5625-4.6371-1.8636-3.8396-3.8494-4.3555-6.8125-4.2885z" fill="#f9f9f9"/>
  <rect id="rect3634" opacity="0" height="1" width="84.972" y="973.33" x="5.5655"/>
  <path id="path7563" opacity=".20482" d="m35.742 968.8c0.0231 0.043 0.0394 0.081 0.0625 0.125 0.034 0.047 0.0603 0.079 0.0937 0.125h45.625c2.0566 0 3.7188 1.6621 3.7188 3.7187v-0.25c0-2.0566-1.6621-3.7187-3.7188-3.7187h-45.781z" fill-opacity=".58962" fill="#fff"/>
  <path id="path7516" opacity=".51807" d="m35.742 969.05c0.0231 0.043 0.0394 0.081 0.0625 0.125 0.0241 0.033 0.0386 0.061 0.0625 0.094h45.656c2.0566 0 3.7188 1.6621 3.7188 3.7187v-0.2187c0-2.0566-1.6621-3.7188-3.7188-3.7188l-45.781 0.0001z" fill-opacity=".58962" fill="#fff"/>
  <path id="path7514" opacity=".74699" d="m35.742 969.27c0.0231 0.043 0.0394 0.081 0.0625 0.125 0.0335 0.046 0.0607 0.08 0.0937 0.125h45.625c0.25708 0 0.50773 0.013 0.75 0.063 0.24227 0.049 0.46498 0.1248 0.6875 0.2188 0.23229 0.096 0.45057 0.2049 0.65625 0.3437 0.2043 0.138 0.35868 0.294 0.53125 0.4688 0.32871 0.3328 0.62762 0.7185 0.8125 1.1562 0.004 0.01-0.004 0.023 0 0.031 0.18093 0.4379 0.28125 0.9336 0.28125 1.4375v-0.25c0-2.0566-1.6621-3.7187-3.7188-3.7187h-45.781z" fill-opacity=".58962" fill="#fff"/>
  <path id="rect7493" fill-opacity=".83019" fill="#fff" d="m35.751 969.5c0.0231 0.043 0.0394 0.081 0.0625 0.125 3.0657 4.2041 4.006 4.8869 9.5625 4.2813h39.875v-0.6875c0-2.0567-1.6621-3.7188-3.7188-3.7188h-45.781z"/>
  <g id="g5676" transform="matrix(.94641 0 0 .84994 2.9331 964.94)">
   <path id="path5678" opacity=".15" filter="url(#filter3870)" d="m15.969 22.531c-2.8459 0.0043-5.4332 2.5916-5.4375 5.4375v48.062c0.0043 2.8459 2.5916 5.4332 5.4375 5.4375h64.062c2.8459-0.0043 5.4332-2.5916 5.4375-5.4375v-48.062c-0.0043-2.8459-2.5916-5.4332-5.4375-5.4375z" clip-path="url(#clipPath3860)" fill="url(#linearGradient5696)"/>
  </g>
  <path id="rect5265-0" d="m5.3323 1029.9v5.0663c0 6.668 5.3645 12.032 12.032 12.032h61.049c6.668 0 12.032-5.3645 12.032-12.032v-5.0663c0 6.6681-5.3645 12.032-12.032 12.032h-61.049c-6.668 0-12.032-5.3643-12.032-12.032z" fill-opacity=".11765"/>
  <path id="path5252-0" d="m5.3323 1033.9v1.0133c0 6.668 5.3645 12.032 12.032 12.032h61.049c6.668 0 12.032-5.3645 12.032-12.032v-1.0133c0 6.6681-5.3645 12.032-12.032 12.032h-61.049c-6.668 0-12.032-5.3644-12.032-12.032z" fill-opacity=".098039"/>
  <g id="layer6" transform="translate(.16974 956.16)">
   <path id="path5235" opacity=".05" d="m42.594 30c-2.6725 0.0409-5.7147 0.71694-9.375 2.2188a1.987 1.987 0 0 0 -1.157 1.281l-4.625 15.781a1.987 1.987 0 0 0 0.25 1.6562 1.987 1.987 0 0 0 -1.0625 1.25l-4.53 15.688a1.987 1.987 0 0 0 2.656 2.406c4.4348-1.8191 7.4683-2.1324 9.8125-1.7812s4.1405 1.3844 6.0938 2.6875a1.987 1.987 0 0 0 1.7188 0.25 1.987 1.987 0 0 0 0.8125 1.0938c2.0924 1.4076 4.5196 2.8157 7.7188 3.2812 3.1991 0.46558 7.0255-0.02851 11.906-2.0312a1.987 1.987 0 0 0 1.157 -1.281l4.4375-15.281a1.987 1.987 0 0 0 -0.375 -1.8125c0.06826-0.0298 0.11889-0.03204 0.1875-0.0625a1.987 1.987 0 0 0 1.0938 -1.25l4.594-15.719a1.987 1.987 0 0 0 -2.656 -2.406c-4.4251 1.8142-7.4759 2.1262-9.8438 1.7812-2.3679-0.34493-4.1877-1.3614-6.125-2.6562a1.987 1.987 0 0 0 -1.531 -0.282 1.987 1.987 0 0 0 -0.875 -1.374c-2.626-1.763-5.836-3.506-10.281-3.438zm0.03125 2c3.9408-0.06033 6.6339 1.4012 9.1562 3.0938l-4.593 15.718c-2.4295-1.6238-5.0357-3.1291-8.75-3.1562-2.4495-0.01911-5.3899 0.67027-9.0938 2.1875l4.625-15.781c3.493-1.433 6.292-2.026 8.656-2.062zm11.562 4.75c4.028 2.692 8.509 4.877 17.813 1.062l-4.594 15.719c-8.92 3.959-13.788 1.739-17.812-0.969l4.594-15.812zm-16.937 13.906c3.9374-0.09503 6.6408 1.3056 9.1562 3l-4.656 15.875c-4.04-2.695-8.428-4.917-17.75-1.093l4.5312-15.688h0.0625c3.482-1.423 6.2938-2.0367 8.6562-2.0938zm11.594 4.5625c4.0366 2.6941 8.1687 4.6557 17.656 1.4375l-4.438 15.282c-9.311 3.821-13.749 1.649-17.781-1.063l4.5625-15.656z" fill="#fff"/>
   <path id="path5224" opacity=".1" d="m42.594 30.969c-2.5232 0.03862-5.4205 0.68759-9 2.1562a1.0238 1.0238 0 0 0 -0.594 0.656l-4.625 15.781a1.0238 1.0238 0 0 0 1.3438 1.2188c3.6287-1.4864 6.4677-2.1113 8.7188-2.0938 3.4412 0.02519 5.7962 1.3705 8.1875 2.9688a1.0238 1.0238 0 0 0 1.5312 -0.5625l4.594-15.719a1.0238 1.0238 0 0 0 -0.406 -1.125c-2.5759-1.7285-5.5491-3.3456-9.75-3.2812zm0.031 1.031c3.9408-0.06033 6.6339 1.4012 9.1562 3.0938l-4.593 15.718c-2.4295-1.6238-5.0357-3.1291-8.75-3.1562-2.4495-0.01911-5.3899 0.67027-9.0938 2.1875l4.625-15.781c3.493-1.433 6.292-2.026 8.656-2.062zm11.438 3.7188a1.0238 1.0238 0 0 0 -0.84375 0.75l-4.594 15.812a1.0238 1.0238 0 0 0 0.40625 1.125c2.0634 1.388 4.4501 2.7274 7.5 3.1562 3.0499 0.42889 6.6933-0.05735 11.281-2.0938a1.0238 1.0238 0 0 0 0.563 -0.656l4.594-15.718a1.0238 1.0238 0 0 0 -1.344 -1.219c-4.5351 1.8593-7.8041 2.2183-10.375 1.8438s-4.5256-1.4929-6.5-2.8125a1.0238 1.0238 0 0 0 -0.6875 -0.1875zm0.125 1.031c4.027 2.692 8.508 4.877 17.812 1.062l-4.594 15.719c-8.92 3.959-13.788 1.739-17.812-0.969l4.594-15.812zm-16.969 12.875c-2.44 0.05889-5.274 0.73229-8.6875 2.0938-0.03051 0.01217-0.06315-0.01229-0.09375 0a1.0238 1.0238 0 0 0 -0.875 0.75l-4.5312 15.688a1.0238 1.0238 0 0 0 1.343 1.218c4.5446-1.8641 7.7945-2.1944 10.344-1.8125 2.5493 0.38192 4.4832 1.4879 6.4688 2.8125a1.0238 1.0238 0 0 0 1.5312 -0.5625l4.656-15.874a1.0238 1.0238 0 0 0 -0.40625 -1.125c-2.5805-1.7382-5.5588-3.2887-9.75-3.1875zm0.031 1.031c3.9374-0.09503 6.6408 1.3056 9.1562 3l-4.656 15.875c-4.04-2.695-8.428-4.917-17.75-1.093l4.5312-15.688h0.0625c3.482-1.423 6.2938-2.0367 8.6562-2.0938zm11.469 3.5312a1.0238 1.0238 0 0 0 -0.84375 0.75l-4.5625 15.656a1.0238 1.0238 0 0 0 0.40625 1.125c2.0554 1.3827 4.3179 2.7204 7.3125 3.1562 2.9946 0.43582 6.6344-0.04197 11.406-2a1.0238 1.0238 0 0 0 0.59375 -0.65625l4.4375-15.281a1.0238 1.0238 0 0 0 -1.3125 -1.25c-4.6411 1.5743-7.8558 1.8618-10.375 1.4688-2.5192-0.39302-4.3954-1.46-6.375-2.7812a1.0238 1.0238 0 0 0 -0.6875 -0.1875zm0.125 1.0312c4.0366 2.6941 8.1687 4.6557 17.656 1.4375l-4.438 15.282c-9.311 3.821-13.749 1.649-17.781-1.063l4.5625-15.656z" fill="#fff"/>
   <path id="path5142" opacity=".9" d="m42.625 32c-2.3645 0.03619-5.1626 0.62907-8.6562 2.0625l-4.625 15.781c3.7039-1.5172 6.6442-2.2066 9.0938-2.1875 3.7143 0.02719 6.3205 1.5324 8.75 3.1562l4.593-15.718c-2.522-1.693-5.215-3.154-9.156-3.094zm11.562 4.75-4.5938 15.812c4.0247 2.7073 8.8925 4.928 17.812 0.96875l4.595-15.719c-9.304 3.815-13.785 1.63-17.812-1.062zm-16.937 13.906c-2.3624 0.05702-5.1743 0.6708-8.6562 2.0938h-0.0625l-4.532 15.688c9.3223-3.8239 13.71-1.6011 17.75 1.0938l4.6562-15.875c-2.5154-1.6944-5.2189-3.095-9.1562-3zm11.594 4.5625-4.5625 15.656c4.0321 2.7125 8.4693 4.8835 17.781 1.0625l4.437-15.28c-9.4876 3.2182-13.62 1.2566-17.656-1.4375z" fill="url(#linearGradient5172)"/>
   <path id="path5196" opacity=".25" d="m42.625 32c-2.3645 0.03619-5.1626 0.62907-8.6562 2.0625l-4.625 15.781c3.7039-1.5172 6.6442-2.2066 9.0938-2.1875 3.7143 0.02719 6.3205 1.5324 8.75 3.1562l4.593-15.718c-2.522-1.693-5.215-3.154-9.156-3.094zm0.03125 1.9688c2.8413-0.0435 4.8165 0.86588 6.7812 2.0625l-3.468 11.843c-2.0846-1.1613-4.4444-2.1649-7.5312-2.1875-1.8421-0.01437-3.902 0.4313-6.125 1.0938l3.281-11.156c2.8651-1.084 5.2072-1.6279 7.0625-1.6562zm11.532 2.781-4.594 15.812c4.0247 2.7073 8.8925 4.928 17.812 0.96875l4.594-15.719c-9.304 3.815-13.785 1.63-17.812-1.062zm1.2188 2.9688c1.5781 0.86548 3.3088 1.6587 5.4375 1.9688 2.3074 0.33612 5.1017-0.07092 8.2188-0.9375l-3.2812 11.219c-3.744 1.527-6.6025 1.9402-8.8438 1.625-1.9046-0.26782-3.477-1.0547-5-1.9688l3.468-11.906zm-18.157 10.937c-2.3624 0.05702-5.1743 0.6708-8.6562 2.0938h-0.0625l-4.532 15.688c9.3223-3.8239 13.71-1.6011 17.75 1.0938l4.6562-15.875c-2.5154-1.6944-5.2189-3.095-9.1562-3zm0.0625 1.9688c2.8506-0.0688 4.8002 0.82251 6.75 2l-3.5 11.906c-1.5734-0.87313-3.2789-1.6188-5.4062-1.9375-2.3055-0.34539-5.1186 0.0625-8.25 0.9375l3.25-11.188c2.8977-1.1012 5.2856-1.6736 7.1562-1.7188zm11.531 2.5938-4.5625 15.656c4.0321 2.7125 8.4693 4.8835 17.781 1.0625l4.439-15.282c-9.4876 3.2182-13.62 1.2566-17.656-1.4375zm1.1875 2.9688c1.5502 0.85149 3.2057 1.6137 5.2812 1.9375 2.298 0.35851 5.1349 0.0073 8.3438-0.75l-3.217 10.968c-3.9003 1.4714-6.7922 1.8793-8.9688 1.5625-1.8482-0.26898-3.3461-1.0258-4.8438-1.9375l3.406-11.781z" fill="url(#linearGradient5172)"/>
   <path id="path5174" fill="url(#linearGradient5172)" d="m42.625 32c-2.3645 0.03619-5.1626 0.62907-8.6562 2.0625l-4.625 15.781c0.12056-0.04939 0.2248-0.07737 0.34375-0.125l4.281-14.656c3.493-1.433 6.292-2.026 8.656-2.062 3.8148-0.0584 6.4528 1.3146 8.9062 2.9375l0.25-0.84375c-2.522-1.693-5.215-3.154-9.156-3.094zm11.562 4.75-4.5938 15.812c0.08067 0.05427 0.16862 0.10242 0.25 0.15625l4.345-14.968c3.9768 2.6579 8.4019 4.8051 17.469 1.1875l0.343-1.126c-9.304 3.815-13.785 1.63-17.812-1.062zm-16.937 13.906c-2.3624 0.05702-5.1743 0.6708-8.6562 2.0938h-0.0625l-4.532 15.688c0.1083-0.04443 0.20552-0.0822 0.3125-0.125l4.2188-14.562h0.0625c3.482-1.423 6.2938-2.0367 8.6562-2.0938 3.8115-0.09199 6.4585 1.2229 8.9062 2.8438l0.25-0.84375c-2.5154-1.6944-5.2189-3.095-9.1562-3zm11.594 4.5625-4.5625 15.656c0.082 0.05517 0.16762 0.10158 0.25 0.15625l4.3125-14.812c3.9908 2.6636 8.0831 4.5975 17.344 1.5312l0.312-1.093c-9.4876 3.2182-13.62 1.2566-17.656-1.4375z"/>
   <path id="path5183" opacity=".5" d="m42.625 32c-2.3645 0.03619-5.1626 0.62907-8.6562 2.0625l-4.625 15.781c3.7039-1.5172 6.6442-2.2066 9.0938-2.1875 3.7143 0.02719 6.3205 1.5324 8.75 3.1562l4.593-15.718c-2.522-1.693-5.215-3.154-9.156-3.094zm0.03125 1.0625c3.3404-0.05114 5.5985 1.0884 7.8438 2.5312l-3.969 13.657c-2.2101-1.3685-4.7047-2.6314-8.0938-2.6562-2.1425-0.01671-4.6622 0.59497-7.5 1.5938l3.907-13.313c3.1594-1.2444 5.7252-1.7806 7.8125-1.8125zm11.532 3.688-4.594 15.812c4.0247 2.7073 8.8925 4.928 17.812 0.96875l4.594-15.719c-9.304 3.815-13.785 1.63-17.812-1.062zm0.65625 1.5938c1.7568 1.0771 3.68 2.0813 6.125 2.4375 2.5386 0.3698 5.698-0.13982 9.4375-1.4062l-3.875 13.312c-4.083 1.737-7.205 2.166-9.719 1.813-2.332-0.328-4.196-1.303-5.968-2.438l4-13.719zm-17.594 12.312c-2.3624 0.05702-5.1743 0.6708-8.6562 2.0938h-0.0625l-4.532 15.688c9.3223-3.8239 13.71-1.6011 17.75 1.0938l4.6562-15.875c-2.5154-1.6944-5.2189-3.095-9.1562-3zm0.03125 1.0625c3.3421-0.08067 5.6127 1.0087 7.8438 2.4375l-4.031 13.782c-1.751-1.08-3.663-2.074-6.094-2.438-2.5309-0.37916-5.6825 0.0986-9.4375 1.375l3.8438-13.281c3.187-1.2588 5.7727-1.8243 7.875-1.875zm11.562 3.5-4.5625 15.656c4.0321 2.7125 8.4693 4.8835 17.781 1.0625l4.439-15.28c-9.4876 3.2182-13.62 1.2566-17.656-1.4375zm0.657 1.594c1.7323 1.0602 3.5909 2.0353 5.9688 2.4062 2.5053 0.39084 5.6643-0.0037 9.5-1.0938l-3.781 12.97c-4.2592 1.6756-7.3924 2.0755-9.8438 1.7188-2.2763-0.33128-4.0499-1.2995-5.8125-2.4375l3.968-13.563z" fill="url(#linearGradient5172)"/>
   <path id="path5209" opacity=".2" d="m51.531 35.938-4.3438 14.875c-2.4295-1.6238-5.0357-3.1291-8.75-3.1562-2.3698-0.01849-5.2145 0.64667-8.75 2.0625l-0.34375 1.125c3.7039-1.5172 6.6442-2.2066 9.0938-2.1875 3.7143 0.02719 6.3205 1.5324 8.75 3.1562l4.5938-15.719c-0.08062-0.0541-0.169-0.10267-0.25-0.15625zm20.469 2.874c-0.11744 0.04815-0.22784 0.07875-0.34375 0.125l-4.25 14.594c-8.7412 3.8798-13.584 1.8192-17.562-0.8125l-0.25 0.84375c4.0247 2.7073 8.8925 4.928 17.812 0.96875l4.594-15.719zm-25.844 15.688-4.406 15.031c-3.993-2.663-8.336-4.86-17.438-1.219l-0.312 1.126c9.3223-3.8239 13.71-1.6011 17.75 1.0938l4.6562-15.875c-0.08-0.055-0.169-0.103-0.25-0.157zm20.344 3.156c-0.10754 0.03648-0.20633 0.0586-0.3125 0.09375l-4.125 14.188c-9.1226 3.7433-13.563 1.7273-17.531-0.90625l-0.25 0.84375c4.0321 2.7125 8.4693 4.8835 17.781 1.0625l4.437-15.282z" fill="#fff"/>
  </g>
 </g>
</svg>
