<?xml version="1.0" encoding="UTF-8" standalone="no"?>
<!-- Created with Inkscape (http://www.inkscape.org/) -->
<svg id="svg2" xmlns:rdf="http://www.w3.org/1999/02/22-rdf-syntax-ns#" xmlns="http://www.w3.org/2000/svg" height="96" width="96" version="1.1" xmlns:cc="http://creativecommons.org/ns#" xmlns:xlink="http://www.w3.org/1999/xlink" xmlns:dc="http://purl.org/dc/elements/1.1/">
 <defs id="defs4">
  <linearGradient id="linearGradient3613-3" y2="138.66" gradientUnits="userSpaceOnUse" x2="48" y1="20.221" x1="48">
   <stop id="stop3739-10" stop-color="#fff" offset="0"/>
   <stop id="stop3741-2" stop-color="#fff" stop-opacity="0" offset="1"/>
  </linearGradient>
  <clipPath id="clipPath3613-29">
   <rect id="rect3615-1" rx="6" ry="6" height="84" width="84" y="6" x="6" fill="#fff"/>
  </clipPath>
  <filter id="filter3794-0" height="1.384" width="1.384" color-interpolation-filters="sRGB" y="-.192" x="-.192">
   <feGaussianBlur id="feGaussianBlur3796-8" stdDeviation="5.28"/>
  </filter>
  <clipPath id="clipPath3613-25">
   <rect id="rect3615-14" rx="6" ry="6" height="84" width="84" y="6" x="6" fill="#fff"/>
  </clipPath>
  <filter id="filter3794-6" height="1.384" width="1.384" color-interpolation-filters="sRGB" y="-.192" x="-.192">
   <feGaussianBlur id="feGaussianBlur3796-26" stdDeviation="5.28"/>
  </filter>
  <clipPath id="clipPath3860">
   <rect id="rect3862" rx="6" ry="6" height="72" width="84" y="18" x="6" fill="#f0f"/>
  </clipPath>
  <filter id="filter3870" height="1.3943" width="1.3312" color-interpolation-filters="sRGB" y="-.19716" x="-.16559">
   <feGaussianBlur id="feGaussianBlur3872" stdDeviation="5.1703125"/>
  </filter>
  <linearGradient id="linearGradient5696" y2="81.481" gradientUnits="userSpaceOnUse" x2="48.022" y1="22.933" x1="48.022">
   <stop id="stop3876" stop-color="#fff" offset="0"/>
   <stop id="stop3878" stop-color="#fff" stop-opacity="0" offset="1"/>
  </linearGradient>
  <linearGradient id="linearGradient4640" y2="48.005" gradientUnits="userSpaceOnUse" x2="6.1872" gradientTransform="translate(0 956.36)" y1="48.005" x1="93.008">
   <stop id="stop4636" stop-color="#be8e4a" stop-opacity=".076923" offset="0"/>
   <stop id="stop4638" stop-color="#a67c25" offset="1"/>
  </linearGradient>
  <linearGradient id="linearGradient3092" y2="45.017" xlink:href="#linearGradient3699-698" gradientUnits="userSpaceOnUse" x2="20.759" gradientTransform="matrix(1.0233 0 0 -1.0233 23.442 75.535)" y1="1" x1="20.759"/>
  <linearGradient id="linearGradient3699-698">
   <stop id="stop3701-39" stop-color="#aa7932" stop-opacity=".78431" offset="0"/>
   <stop id="stop3703-60" stop-color="#aa7932" stop-opacity=".39216" offset="1"/>
  </linearGradient>
 </defs>
 <metadata id="metadata7">
  <rdf:RDF>
   <cc:Work rdf:about="">
    <dc:format>image/svg+xml</dc:format>
    <dc:type rdf:resource="http://purl.org/dc/dcmitype/StillImage"/>
    <dc:title/>
   </cc:Work>
  </rdf:RDF>
 </metadata>
 <g id="layer1" transform="translate(0 -956.36)">
  <rect id="rect5263-0" fill-opacity=".019608" ry="12.724" height="89.978" width="89.978" y="959.35" x="2.9998"/>
  <rect id="rect5261-6" fill-opacity=".039216" ry="12.552" height="88.762" width="88.762" y="959.96" x="3.6078"/>
  <rect id="rect5259-9" fill-opacity=".078431" ry="12.38" height="87.546" width="87.546" y="960.57" x="4.2157"/>
  <rect id="rect5257-5" fill-opacity=".15686" ry="12.208" height="86.33" width="86.33" y="961.18" x="4.8237"/>
  <path id="rect2419-5" d="m17.469 961.77c-6.2512 0-11.355 4.7568-11.969 10.844v63.469c0.61364 6.0834 5.7175 10.812 11.969 10.812h61.031c6.4543 0 11.671-5.0367 12-11.406v-62.281c-0.32117-6.3771-5.5404-11.438-12-11.438h-61.031z" fill="#cc993d"/>
  <rect id="rect3171" ry="12" stroke="#fff" stroke-linecap="round" stroke-width=".5" fill="url(#linearGradient3613-3)" rx="12" transform="matrix(1.0149 0 0 1.0238 -.83801 955.22)" width="66" opacity=".05" clip-path="url(#clipPath3613-29)" height="66" filter="url(#filter3794-0)" y="15" x="15"/>
  <path id="path5865" d="m17.469 961.77c-6.2512 0-11.355 4.7568-11.969 10.844v63.469c0.07233 0.717 0.21463 1.4198 0.40625 2.0937-0.14675-1.3295-0.26905-2.6965-0.34375-4.0937v-59.281c0-2.3816 0.62452-7.4626 6.625-7.4688h12.75c4.9632 0 7.6402-1.0079 10.125 3.7188 3.0657 4.2041 4.006 4.8869 9.5625 4.2812h40.656c3.7739-0.0442 5.1676 1.5874 5.2188 5.4375v-7.5625c-0.32117-6.3771-5.5404-11.438-12-11.438h-61.031zm73.031 69.73c-0.04406 2.2078-0.18649 4.3503-0.40625 6.4063 0.21124-0.7976 0.36211-1.6143 0.40625-2.4688v-3.9375zm-1.0625 8.2813c-0.13416 0.2981-0.28057 0.5904-0.4375 0.875 0.1575-0.2841 0.30285-0.5773 0.4375-0.875zm-0.438 0.9c-0.15693 0.2845-0.32144 0.5427-0.5 0.8125 0.17482-0.2638 0.34595-0.5347 0.5-0.8125zm-81.906 0.25c0.15696 0.2676 0.32348 0.5274 0.5 0.7812-0.1807-0.2598-0.33982-0.5069-0.5-0.7812zm76.188 4.9375c-0.26128 0.1134-0.54176 0.2175-0.8125 0.3125 0.27423-0.096 0.5479-0.198 0.8125-0.3125zm-69.625 0.375c0.2786 0.093 0.55637 0.1773 0.84375 0.25-0.28437-0.072-0.56799-0.1586-0.84375-0.25zm67.625 0.2812c-0.24437 0.058-0.4999 0.1135-0.75 0.1563 0.25388-0.043 0.50195-0.097 0.75-0.1563z" fill="url(#linearGradient4640)"/>
  <g id="layer5" transform="matrix(1.0168 0 0 1.021 -.61038 955.51)">
   <rect id="rect3171-4" height="66" stroke="#fff" stroke-linecap="round" stroke-width=".5" fill="url(#linearGradient3613-3)" rx="12" ry="12" width="66" opacity=".1" clip-path="url(#clipPath3613-25)" filter="url(#filter3794-6)" y="15" x="15"/>
  </g>
  <path id="path7506" opacity=".55020" d="m28.25 966.31c-0.98771 0.0223-2.0717 0.10149-3.3125 0.10149h-12.75c-6.0005 0.007-6.625 6.3566-6.625 8.9362v0.81233c0-2.5796 0.62452-8.0829 6.625-8.0895h12.75c4.9632 0 7.7652-0.96667 10.125 3.3403 3.0657 4.5536 4.006 5.293 9.5625 4.6371h40.656c3.7739-0.0479 5.1676 1.7193 5.2188 5.8894v-0.81234c-0.05112-4.1701-1.4448-5.9373-5.2188-5.8894h-40.656c-5.5565 0.65596-6.4968-0.0835-9.5625-4.6371-1.8636-3.8396-3.8494-4.3555-6.8125-4.2885z" fill="#f9f9f9"/>
  <rect id="rect3634" opacity="0" height="1" width="84.972" y="973.33" x="5.5655"/>
  <path id="path7563" opacity=".20482" d="m35.742 968.8c0.0231 0.043 0.0394 0.081 0.0625 0.125 0.034 0.047 0.0603 0.079 0.0937 0.125h45.625c2.0566 0 3.7188 1.6621 3.7188 3.7187v-0.25c0-2.0566-1.6621-3.7187-3.7188-3.7187h-45.781z" fill-opacity=".58962" fill="#fff"/>
  <path id="path7516" opacity=".51807" d="m35.742 969.05c0.0231 0.043 0.0394 0.081 0.0625 0.125 0.0241 0.033 0.0386 0.061 0.0625 0.094h45.656c2.0566 0 3.7188 1.6621 3.7188 3.7187v-0.2187c0-2.0566-1.6621-3.7188-3.7188-3.7188l-45.781 0.0001z" fill-opacity=".58962" fill="#fff"/>
  <path id="path7514" opacity=".74699" d="m35.742 969.27c0.0231 0.043 0.0394 0.081 0.0625 0.125 0.0335 0.046 0.0607 0.08 0.0937 0.125h45.625c0.25708 0 0.50773 0.013 0.75 0.063 0.24227 0.049 0.46498 0.1248 0.6875 0.2188 0.23229 0.096 0.45057 0.2049 0.65625 0.3437 0.2043 0.138 0.35868 0.294 0.53125 0.4688 0.32871 0.3328 0.62762 0.7185 0.8125 1.1562 0.004 0.01-0.004 0.023 0 0.031 0.18093 0.4379 0.28125 0.9336 0.28125 1.4375v-0.25c0-2.0566-1.6621-3.7187-3.7188-3.7187h-45.781z" fill-opacity=".58962" fill="#fff"/>
  <path id="rect7493" fill-opacity=".83019" fill="#fff" d="m35.751 969.5c0.0231 0.043 0.0394 0.081 0.0625 0.125 3.0657 4.2041 4.006 4.8869 9.5625 4.2813h39.875v-0.6875c0-2.0567-1.6621-3.7188-3.7188-3.7188h-45.781z"/>
  <g id="g5676" transform="matrix(.94641 0 0 .84994 2.9331 964.94)">
   <path id="path5678" opacity=".15" filter="url(#filter3870)" d="m15.969 22.531c-2.8459 0.0043-5.4332 2.5916-5.4375 5.4375v48.062c0.0043 2.8459 2.5916 5.4332 5.4375 5.4375h64.062c2.8459-0.0043 5.4332-2.5916 5.4375-5.4375v-48.062c-0.0043-2.8459-2.5916-5.4332-5.4375-5.4375z" clip-path="url(#clipPath3860)" fill="url(#linearGradient5696)"/>
  </g>
  <path id="rect5265-0" d="m5.3323 1029.9v5.0663c0 6.668 5.3645 12.032 12.032 12.032h61.049c6.668 0 12.032-5.3645 12.032-12.032v-5.0663c0 6.6681-5.3645 12.032-12.032 12.032h-61.049c-6.668 0-12.032-5.3643-12.032-12.032z" fill-opacity=".11765"/>
  <path id="path5252-0" d="m5.3323 1033.9v1.0133c0 6.668 5.3645 12.032 12.032 12.032h61.049c6.668 0 12.032-5.3645 12.032-12.032v-1.0133c0 6.6681-5.3645 12.032-12.032 12.032h-61.049c-6.668 0-12.032-5.3644-12.032-12.032z" fill-opacity=".098039"/>
  <g id="layer6" transform="translate(.16974 957.09)">
   <path id="path4765" opacity=".05" d="m44.969 28c-1.9662 0-3.5625 1.6562-3.5625 3.5938v1.7812c-0.659 0.237-1.283 0.513-1.906 0.813l-1.25-1.2812a2.0041 2.0041 0 0 0 -0.03125 0c-1.353-1.354-3.644-1.419-5.031-0.032l-4.3125 4.3125c-1.3874 1.3873-1.3219 3.6781 0.03125 5.0312a2.0041 2.0041 0 0 0 0 0.03125l1.2812 1.25c-0.29979 0.62268-0.5756 1.2474-0.8125 1.9062h-1.7812c-1.939 0-3.595 1.597-3.595 3.563v6.0625c0 1.9662 1.6562 3.5625 3.5938 3.5625h1.7812c0.2369 0.65889 0.51271 1.2836 0.8125 1.9062l-1.2812 1.25a2.0041 2.0041 0 0 0 0 0.03125c-1.353 1.3532-1.4186 3.6439-0.03125 5.0312l4.3125 4.3125c0.73999 0.74 1.7011 1.0385 2.5625 1.0312 0.9028-0.0076 1.8153-0.40906 2.4688-1.0625a2.0041 2.0041 0 0 0 0.03125 0l1.25-1.281c0.62268 0.29979 1.2474 0.5756 1.9062 0.8125v1.7812c0 1.9375 1.5963 3.5938 3.5625 3.5938h6.0625c1.9662 0 3.5625-1.6562 3.5625-3.5938v-1.7812c0.661-0.236 1.285-0.512 1.908-0.812l1.25 1.2812a2.0041 2.0041 0 0 0 0.03125 0c1.3532 1.3532 3.644 1.4185 5.0312 0.03125l4.3125-4.3125c1.3874-1.3873 1.3219-3.6781-0.03125-5.0312a2.0041 2.0041 0 0 0 0 -0.03125l-1.281-1.25c0.29979-0.62268 0.5756-1.2474 0.8125-1.9062h1.7812c1.939 0 3.595-1.597 3.595-3.563v-6.0625c0-1.9662-1.6562-3.5625-3.5938-3.5625h-1.7812c-0.237-0.659-0.513-1.283-0.813-1.906l1.2812-1.25a2.0041 2.0041 0 0 0 0 -0.03125c1.354-1.353 1.419-3.644 0.032-5.031l-4.313-4.313c-1.3873-1.3873-3.678-1.322-5.0312 0.03125a2.0041 2.0041 0 0 0 -0.03125 0l-1.25 1.282c-0.623-0.3-1.247-0.576-1.906-0.813v-1.7812c0-1.938-1.597-3.594-3.563-3.594h-6.0625zm0 2h6.0625c0.8658 0 1.5625 0.71315 1.5625 1.5938v3.0938c1.5481 0.41248 3.0528 1.0566 4.4062 1.8438l2.1875-2.2188c0.62268-0.62268 1.6065-0.64345 2.2188-0.03125l4.3125 4.3125c0.61221 0.61222 0.59137 1.5961-0.03125 2.2188l-2.22 2.187c0.78715 1.3534 1.4313 2.8581 1.8438 4.4062h3.0938c0.8806 0 1.5938 0.69669 1.5938 1.5625v6.0625c0 0.8658-0.71316 1.5625-1.5938 1.5625h-3.0938c-0.413 1.55-1.057 3.055-1.844 4.408l2.2188 2.1875c0.62268 0.62268 0.64352 1.6065 0.03125 2.2188l-4.3125 4.3125c-0.612 0.611-1.596 0.59-2.218-0.032l-2.188-2.219c-1.3534 0.78715-2.8581 1.4313-4.4062 1.8438v3.0938c0 0.88-0.697 1.593-1.563 1.593h-6.0625c-0.86581 0-1.5625-0.71315-1.5625-1.5938v-3.0938c-1.548-0.412-3.053-1.056-4.406-1.843l-2.1875 2.2188c-0.31134 0.31134-0.69084 0.46534-1.0938 0.46875-0.40291 0.0034-0.8189-0.13139-1.125-0.4375l-4.3125-4.3125c-0.611-0.612-0.59-1.596 0.032-2.218l2.219-2.188c-0.787-1.353-1.431-2.858-1.843-4.406h-3.0938c-0.881 0-1.594-0.697-1.594-1.563v-6.0625c0-0.86581 0.71315-1.5625 1.5938-1.5625h3.0938c0.412-1.548 1.056-3.053 1.843-4.406l-2.219-2.188c-0.62268-0.62268-0.64353-1.6065-0.03125-2.2188l4.3125-4.3125c0.61221-0.61222 1.5961-0.59144 2.2188 0.03125l2.187 2.22c1.3534-0.78715 2.8581-1.4313 4.4062-1.8438v-3.0938c0-0.88 0.697-1.593 1.563-1.593zm3.031 15.344c-3.6714 0-6.6562 2.9848-6.6562 6.6562s2.9848 6.6562 6.6562 6.6562 6.6562-2.9848 6.6562-6.6562-2.9848-6.6562-6.6562-6.6562zm0 2c2.5853 0 4.6562 2.0709 4.6562 4.6562s-2.0709 4.6562-4.6562 4.6562-4.6562-2.0709-4.6562-4.6562 2.0709-4.6562 4.6562-4.6562z" display="block" fill="#fff"/>
   <path id="path4754" opacity=".1" d="m44.969 29c-1.4149 0-2.5625 1.1857-2.5625 2.5938v2.4375c-1.1077 0.35052-2.1808 0.77897-3.1875 1.3125l-1.687-1.719a1.0001 1.0001 0 0 0 0 -0.03125c-0.987-0.988-2.657-1.031-3.656-0.032l-4.3125 4.3125c-0.9991 0.999-0.95595 2.669 0.03125 3.6562a1.0001 1.0001 0 0 0 0.03125 0l1.7188 1.6875c-0.53352 1.0067-0.96198 2.0798-1.3125 3.1875h-2.4375c-1.406 0-2.592 1.148-2.592 2.563v6.0625c0 1.4149 1.1857 2.5625 2.5938 2.5625h2.4375c0.35052 1.1077 0.77898 2.1808 1.3125 3.1875l-1.7188 1.6875a1.0001 1.0001 0 0 0 -0.03125 0c-0.98711 0.98722-1.0303 2.6572-0.03125 3.6562l4.3125 4.3125c0.52263 0.52263 1.212 0.72408 1.8438 0.71875 0.65237-0.0055 1.3304-0.26794 1.8125-0.75a1.0001 1.0001 0 0 0 0 -0.03125l1.6875-1.7188c1.0067 0.53353 2.0798 0.96198 3.1875 1.3125v2.4375c0 1.408 1.1476 2.5938 2.5625 2.5938h6.0625c1.4149 0 2.5625-1.1857 2.5625-2.5938v-2.4375c1.1077-0.35052 2.1808-0.77897 3.1875-1.3125l1.6875 1.7188a1.0001 1.0001 0 0 0 0 0.03125c0.98723 0.98725 2.6573 1.0302 3.6562 0.03125l4.3125-4.3125c0.9991-0.999 0.95595-2.669-0.03125-3.6562a1.0001 1.0001 0 0 0 -0.03125 0l-1.7188-1.6875c0.53352-1.0067 0.96198-2.0798 1.3125-3.1875h2.4375c1.406 0 2.592-1.148 2.592-2.563v-6.0625c0-1.4149-1.1857-2.5625-2.5938-2.5625h-2.4375c-0.35052-1.1077-0.77898-2.1808-1.3125-3.1875l1.7188-1.6875a1.0001 1.0001 0 0 0 0.03125 0c0.987-0.986 1.031-2.656 0.032-3.655l-4.313-4.313c-0.999-0.99898-2.669-0.95598-3.6562 0.03125a1.0001 1.0001 0 0 0 0 0.03125l-1.6875 1.7188c-1.0067-0.53353-2.0798-0.96198-3.1875-1.3125v-2.4375c0-1.406-1.148-2.592-2.563-2.592h-6.0625zm0 1h6.0625c0.8658 0 1.5625 0.71315 1.5625 1.5938v3.0938c1.5481 0.41248 3.0528 1.0566 4.4062 1.8438l2.1875-2.2188c0.62268-0.62268 1.6065-0.64345 2.2188-0.03125l4.3125 4.3125c0.61221 0.61222 0.59137 1.5961-0.03125 2.2188l-2.22 2.187c0.78715 1.3534 1.4313 2.8581 1.8438 4.4062h3.0938c0.8806 0 1.5938 0.69669 1.5938 1.5625v6.0625c0 0.8658-0.71316 1.5625-1.5938 1.5625h-3.0938c-0.413 1.55-1.057 3.055-1.844 4.408l2.2188 2.1875c0.62268 0.62268 0.64352 1.6065 0.03125 2.2188l-4.3125 4.3125c-0.612 0.611-1.596 0.59-2.218-0.032l-2.188-2.219c-1.3534 0.78715-2.8581 1.4313-4.4062 1.8438v3.0938c0 0.88-0.697 1.593-1.563 1.593h-6.0625c-0.86581 0-1.5625-0.71315-1.5625-1.5938v-3.0938c-1.548-0.412-3.053-1.056-4.406-1.843l-2.1875 2.2188c-0.31134 0.31134-0.69084 0.46534-1.0938 0.46875-0.40291 0.0034-0.8189-0.13139-1.125-0.4375l-4.3125-4.3125c-0.611-0.612-0.59-1.596 0.032-2.218l2.219-2.188c-0.787-1.353-1.431-2.858-1.843-4.406h-3.0938c-0.881 0-1.594-0.697-1.594-1.563v-6.0625c0-0.86581 0.71315-1.5625 1.5938-1.5625h3.0938c0.412-1.548 1.056-3.053 1.843-4.406l-2.219-2.188c-0.62268-0.62268-0.64353-1.6065-0.03125-2.2188l4.3125-4.3125c0.61221-0.61222 1.5961-0.59144 2.2188 0.03125l2.187 2.22c1.3534-0.78715 2.8581-1.4313 4.4062-1.8438v-3.0938c0-0.88 0.697-1.593 1.563-1.593zm3.031 15.344c-3.6714 0-6.6562 2.9848-6.6562 6.6562s2.9848 6.6562 6.6562 6.6562 6.6562-2.9848 6.6562-6.6562-2.9848-6.6562-6.6562-6.6562zm0 1c3.1294 0 5.6562 2.5268 5.6562 5.6562s-2.5268 5.6562-5.6562 5.6562-5.6562-2.5268-5.6562-5.6562 2.5268-5.6562 5.6562-5.6562z" display="block" fill="#fff"/>
   <path id="rect3267" opacity=".9" d="m44.962 74c-0.86581 0-1.5669-0.71823-1.5669-1.5988v-3.1017c-1.5481-0.41248-3.0274-1.0355-4.3808-1.8227l-2.2064 2.2064c-0.31134 0.31134-0.68429 0.47624-1.0872 0.47965-0.40291 0.0034-0.81308-0.14157-1.1192-0.44767l-4.317-4.316c-0.61221-0.61222-0.5907-1.5837 0.03191-2.2064l2.2064-2.2064c-0.78715-1.3534-1.4102-2.8327-1.8227-4.3808h-3.1017c-0.8806 0-1.5988-0.70105-1.5988-1.5669v-6.0756c0-0.86581 0.71823-1.5669 1.5988-1.5669h3.1017c0.41249-1.5481 1.0355-3.0274 1.8227-4.3808l-2.2064-2.2064c-0.62268-0.62268-0.64419-1.5942-0.03191-2.2064l4.3169-4.3168c0.61221-0.61222 1.5837-0.5907 2.2064 0.03199l2.2064 2.2064c1.3534-0.78715 2.8327-1.4102 4.3808-1.8227v-3.1017c0-0.8806 0.70105-1.5988 1.5669-1.5988h6.0756c0.8658 0 1.5669 0.71823 1.5669 1.5988v3.1017c1.5481 0.41248 3.0274 1.0355 4.3808 1.8227l2.2064-2.2064c0.62268-0.62268 1.5942-0.64419 2.2064-0.03199l4.3168 4.3168c0.61221 0.61222 0.5907 1.5837-0.03192 2.2064l-2.2064 2.2064c0.78715 1.3534 1.4102 2.8327 1.8227 4.3808h3.1017c0.8806 0 1.5988 0.70105 1.5988 1.5669v6.0756c0 0.8658-0.71824 1.5669-1.5988 1.5669h-3.1017c-0.41248 1.5481-1.0355 3.0274-1.8227 4.3808l2.2064 2.2064c0.62268 0.62268 0.6442 1.5942 0.03192 2.2064l-4.3168 4.3168c-0.61222 0.61222-1.5837 0.5907-2.2064-0.03199l-2.2064-2.2064c-1.354 0.787-2.833 1.41-4.381 1.822v3.1017c0 0.8806-0.70105 1.5988-1.5669 1.5988h-6.0756zm3.0378-15.349c3.6714 0 6.6511-2.9797 6.6511-6.6511s-2.9797-6.6511-6.6511-6.6511-6.6511 2.9797-6.6511 6.6511 2.9797 6.6511 6.6511 6.6511z" display="block" fill="url(#linearGradient3092)"/>
   <path id="path4726" opacity=".25" d="m44.969 30c-0.86581 0-1.5625 0.71315-1.5625 1.5938v3.0938c-1.548 0.412-3.053 1.056-4.406 1.843l-2.188-2.219c-0.62268-0.62269-1.6065-0.64346-2.2188-0.03125l-4.3125 4.3125c-0.61228 0.61222-0.59143 1.5961 0.03125 2.2188l2.22 2.187c-0.78715 1.3534-1.4313 2.8581-1.8438 4.4062h-3.0938c-0.88 0-1.593 0.697-1.593 1.563v6.0625c0 0.86581 0.71315 1.5625 1.5938 1.5625h3.0938c0.41249 1.5481 1.0566 3.0528 1.8438 4.4062l-2.2188 2.1875c-0.62261 0.62268-0.64346 1.6065-0.03125 2.2188l4.3125 4.3125c0.3061 0.30611 0.72209 0.4409 1.125 0.4375s0.78241-0.15741 1.0938-0.46875l2.187-2.22c1.3534 0.78715 2.8581 1.4313 4.4062 1.8438v3.0938c0 0.8806 0.69669 1.5938 1.5625 1.5938h6.0625c0.8658 0 1.5625-0.71314 1.5625-1.5938v-3.0938c1.55-0.413 3.055-1.057 4.408-1.844l2.1875 2.2188c0.62268 0.6227 1.6065 0.64347 2.2188 0.03125l4.3125-4.3125c0.611-0.612 0.59-1.596-0.032-2.218l-2.219-2.188c0.78715-1.3534 1.4313-2.8581 1.8438-4.4062h3.0938c0.88 0 1.593-0.697 1.593-1.563v-6.0625c0-0.86581-0.71316-1.5625-1.5938-1.5625h-3.0938c-0.412-1.548-1.056-3.053-1.843-4.406l2.2188-2.1875c0.62262-0.62268 0.64346-1.6065 0.03125-2.2188l-4.3125-4.3125c-0.612-0.611-1.596-0.59-2.218 0.032l-2.188 2.219c-1.353-0.787-2.858-1.431-4.406-1.843v-3.0938c0-0.881-0.697-1.594-1.563-1.594h-6.0625zm0.4375 2h5.1875v2.6875a2.0002 2.0002 0 0 0 1.5 1.9375c1.359 0.361 2.7 0.922 3.906 1.624a2.0002 2.0002 0 0 0 2.4375 -0.3125l1.9062-1.9062 3.625 3.625-1.9062 1.9062a2.0002 2.0002 0 0 0 -0.313 2.437c0.70166 1.2065 1.2629 2.5471 1.625 3.9062a2.0002 2.0002 0 0 0 1.9375 1.5h2.6875v5.1875h-2.6875a2.0002 2.0002 0 0 0 -1.9375 1.5c-0.361 1.359-0.922 2.7-1.624 3.906a2.0002 2.0002 0 0 0 0.3125 2.4375l1.9062 1.9062-3.625 3.625-1.905-1.907a2.0002 2.0002 0 0 0 -2.438 -0.312c-1.2065 0.70166-2.5471 1.2629-3.9062 1.625a2.0002 2.0002 0 0 0 -1.5 1.9375v2.6875h-5.1875v-2.6875a2.0002 2.0002 0 0 0 -1.5 -1.9375c-1.359-0.361-2.7-0.922-3.906-1.624a2.0002 2.0002 0 0 0 -2.4375 0.3125l-1.9062 1.9062-3.625-3.625 1.9062-1.9062a2.0002 2.0002 0 0 0 0.313 -2.437c-0.70166-1.2065-1.2629-2.5471-1.625-3.9062a2.0002 2.0002 0 0 0 -1.9375 -1.5h-2.6875v-5.1875h2.6875a2.0002 2.0002 0 0 0 1.9375 -1.5c0.361-1.359 0.922-2.7 1.624-3.906a2.0002 2.0002 0 0 0 -0.3125 -2.4375l-1.9062-1.9062 3.625-3.625 1.9062 1.9062a2.0002 2.0002 0 0 0 2.437 0.313c1.2065-0.70166 2.5471-1.2629 3.9062-1.625a2.0002 2.0002 0 0 0 1.5 -1.9375v-2.6875zm2.594 11.344c-4.7554 0-8.6562 3.9008-8.6562 8.6562s3.9008 8.6562 8.6562 8.6562 8.6562-3.9008 8.6562-8.6562-3.9008-8.6562-8.6562-8.6562zm0 2c3.6714 0 6.6562 2.9848 6.6562 6.6562s-2.9848 6.6562-6.6562 6.6562-6.6562-2.9848-6.6562-6.6562 2.9848-6.6562 6.6562-6.6562z" display="block" fill="url(#linearGradient3092)"/>
   <path id="path4713" opacity=".5" d="m44.969 30c-0.86581 0-1.5625 0.71315-1.5625 1.5938v3.0938c-1.548 0.412-3.053 1.056-4.406 1.843l-2.188-2.219c-0.62268-0.62269-1.6065-0.64346-2.2188-0.03125l-4.3125 4.3125c-0.61228 0.61222-0.59143 1.5961 0.03125 2.2188l2.22 2.187c-0.78715 1.3534-1.4313 2.8581-1.8438 4.4062h-3.0938c-0.88 0-1.593 0.697-1.593 1.563v6.0625c0 0.86581 0.71315 1.5625 1.5938 1.5625h3.0938c0.41249 1.5481 1.0566 3.0528 1.8438 4.4062l-2.2188 2.1875c-0.62261 0.62268-0.64346 1.6065-0.03125 2.2188l4.3125 4.3125c0.3061 0.30611 0.72209 0.4409 1.125 0.4375s0.78241-0.15741 1.0938-0.46875l2.187-2.22c1.3534 0.78715 2.8581 1.4313 4.4062 1.8438v3.0938c0 0.8806 0.69669 1.5938 1.5625 1.5938h6.0625c0.8658 0 1.5625-0.71314 1.5625-1.5938v-3.0938c1.55-0.413 3.055-1.057 4.408-1.844l2.1875 2.2188c0.62268 0.6227 1.6065 0.64347 2.2188 0.03125l4.3125-4.3125c0.611-0.612 0.59-1.596-0.032-2.218l-2.219-2.188c0.78715-1.3534 1.4313-2.8581 1.8438-4.4062h3.0938c0.88 0 1.593-0.697 1.593-1.563v-6.0625c0-0.86581-0.71316-1.5625-1.5938-1.5625h-3.0938c-0.412-1.548-1.056-3.053-1.843-4.406l2.2188-2.1875c0.62262-0.62268 0.64346-1.6065 0.03125-2.2188l-4.3125-4.3125c-0.612-0.611-1.596-0.59-2.218 0.032l-2.188 2.219c-1.353-0.787-2.858-1.431-4.406-1.843v-3.0938c0-0.881-0.697-1.594-1.563-1.594h-6.0625zm0 1h6.0625c0.31668 0 0.5625 0.24058 0.5625 0.59375v3.0938a1.0001 1.0001 0 0 0 0.75 0.96875c1.4536 0.3873 2.8763 1.0056 4.1562 1.75a1.0001 1.0001 0 0 0 1.2188 -0.1875l2.1875-2.1875c0.258-0.259 0.556-0.257 0.782-0.032l4.312 4.312c0.22541 0.22541 0.22686 0.52311-0.03125 0.78125l-2.1875 2.1875a1.0001 1.0001 0 0 0 -0.188 1.22c0.7444 1.28 1.3627 2.7026 1.75 4.1562a1.0001 1.0001 0 0 0 0.96875 0.75h3.0938c0.35316 0 0.59375 0.24582 0.59375 0.5625v6.0625c0 0.31668-0.2406 0.5625-0.59375 0.5625h-3.0938a1.0001 1.0001 0 0 0 -0.96875 0.75c-0.3873 1.4536-1.0056 2.8763-1.75 4.1562a1.0001 1.0001 0 0 0 0.1875 1.2188l2.1875 2.1875c0.257 0.26 0.255 0.558 0.03 0.784l-4.312 4.312c-0.22544 0.22544-0.52312 0.22689-0.78125-0.03125l-2.1875-2.1875a1.0001 1.0001 0 0 0 -1.22 -0.188c-1.28 0.74441-2.7026 1.3627-4.1562 1.75a1.0001 1.0001 0 0 0 -0.75 0.96875v3.0938c0 0.352-0.246 0.593-0.563 0.593h-6.0625c-0.31669 0-0.5625-0.24058-0.5625-0.59375v-3.0938a1.0001 1.0001 0 0 0 -0.75 -0.96875c-1.453-0.387-2.876-1.005-4.156-1.749a1.0001 1.0001 0 0 0 -1.2188 0.1875l-2.1875 2.1875c-0.14062 0.14062-0.22155 0.1862-0.375 0.1875-0.174 0-0.317-0.068-0.407-0.158l-4.312-4.312c-0.2254-0.22541-0.22686-0.52311 0.03125-0.78125l2.1875-2.1875a1.0001 1.0001 0 0 0 0.188 -1.22c-0.7444-1.2799-1.3627-2.7026-1.75-4.1562a1.0001 1.0001 0 0 0 -0.96875 -0.75h-3.0938c-0.352 0-0.593-0.246-0.593-0.563v-6.0625c0-0.31669 0.24058-0.5625 0.59375-0.5625h3.0938a1.0001 1.0001 0 0 0 0.96875 -0.75c0.38731-1.4536 1.0056-2.8763 1.75-4.1562a1.0001 1.0001 0 0 0 -0.1875 -1.2188l-2.1875-2.1875c-0.259-0.258-0.257-0.556-0.032-0.782l4.312-4.312c0.22542-0.22543 0.52313-0.22688 0.78125 0.03125l2.1875 2.1875a1.0001 1.0001 0 0 0 1.22 0.188c1.28-0.74441 2.7026-1.3627 4.1562-1.75a1.0001 1.0001 0 0 0 0.75 -0.96875v-3.0938c0-0.352 0.246-0.593 0.563-0.593zm3.031 13.344c-4.2134 0-7.6562 3.4428-7.6562 7.6562s3.4428 7.6562 7.6562 7.6562 7.6562-3.4428 7.6562-7.6562-3.4428-7.6562-7.6562-7.6562zm0 1c3.6714 0 6.6562 2.9848 6.6562 6.6562s-2.9848 6.6562-6.6562 6.6562-6.6562-2.9848-6.6562-6.6562 2.9848-6.6562 6.6562-6.6562z" display="block" fill="url(#linearGradient3092)"/>
   <path id="path4704" d="m44.969 30c-0.86581 0-1.5625 0.71315-1.5625 1.5938v1c0-0.881 0.697-1.594 1.563-1.594h6.0625c0.8658 0 1.5625 0.71315 1.5625 1.5938v-1c0-0.881-0.697-1.594-1.563-1.594h-6.0625zm-9.2812 3.8438c-0.39724-0.0067-0.78764 0.13139-1.0938 0.4375l-4.3125 4.3125c-0.41839 0.41835-0.50684 1.0033-0.34375 1.5312 0.07436-0.1869 0.19068-0.3782 0.34375-0.53125l4.3125-4.3125c0.61221-0.61222 1.5961-0.59144 2.2188 0.03125l2.187 2.218c1.3534-0.78715 2.8581-1.4313 4.4062-1.8438v-1c-1.548 0.413-3.053 1.057-4.406 1.844l-2.188-2.219c-0.31134-0.31135-0.72776-0.46206-1.125-0.46875zm24.625 0c-0.39724 0.0067-0.81366 0.15741-1.125 0.46875l-2.188 2.218c-1.353-0.787-2.858-1.431-4.406-1.843v1c1.5481 0.41248 3.0528 1.0566 4.4062 1.8438l2.1875-2.2188c0.62268-0.62268 1.6065-0.64345 2.2188-0.03125l4.3125 4.3125c0.15305 0.15305 0.2694 0.34435 0.34375 0.53125 0.16308-0.52794 0.07459-1.1129-0.34375-1.5312l-4.3125-4.3125c-0.30611-0.3061-0.69651-0.44419-1.0938-0.4375zm-28.125 9.8125c-0.62218 1.1766-1.1511 2.4404-1.5 3.75h-3.0938c-0.881 0-1.594 0.697-1.594 1.563v1c0-0.86581 0.71315-1.5625 1.5938-1.5625h3.0938c0.412-1.548 1.056-3.053 1.843-4.406l-0.343-0.344zm31.625 0l-0.344 0.344c0.78715 1.3534 1.4313 2.8581 1.8438 4.4062h3.0938c0.8806 0 1.5938 0.69669 1.5938 1.5625v-1c0-0.86581-0.71316-1.5625-1.5938-1.5625h-3.0938c-0.34894-1.3096-0.87782-2.5734-1.5-3.75zm-22.438 8.844c-0.01212 0.16393-0.03125 0.33299-0.03125 0.5 0 3.6714 2.9848 6.6562 6.6562 6.6562s6.6562-2.9848 6.6562-6.6562c0-0.16701-0.01913-0.33607-0.03125-0.5-0.25424 3.4398-3.1206 6.1562-6.625 6.1562s-6.3708-2.7164-6.625-6.1562zm-9.1875 8.8438-1.875 1.8438c-0.45872 0.45877-0.58191 1.102-0.375 1.6562 0.07724-0.23402 0.18562-0.46685 0.375-0.65625l2.218-2.188c-0.121-0.209-0.23-0.442-0.343-0.656zm31.625 0c-0.114 0.214-0.223 0.447-0.344 0.656l2.2188 2.1875c0.1894 0.1894 0.29776 0.42224 0.375 0.65625 0.20693-0.55427 0.08377-1.1975-0.375-1.6562l-1.875-1.8438z" display="block" fill="url(#linearGradient3092)"/>
   <path id="path4739" opacity=".2" d="m29.938 40.156c-0.20693 0.55427-0.08377 1.1975 0.375 1.6562l1.875 1.8438c0.113-0.214 0.222-0.447 0.343-0.656l-2.219-2.188c-0.1894-0.1894-0.29776-0.42224-0.375-0.65625zm36.125 0c-0.07724 0.23402-0.18562 0.46685-0.375 0.65625l-2.219 2.188c0.12126 0.2085 0.23045 0.44198 0.34375 0.65625l1.875-1.8438c0.45872-0.45877 0.58191-1.102 0.375-1.6562zm-18.063 5.188c-3.6714 0-6.6562 2.9848-6.6562 6.6562 0 0.16701 0.01913 0.33607 0.03125 0.5 0.25424-3.4398 3.1206-6.1562 6.625-6.1562s6.3708 2.7164 6.625 6.1562c0.01212-0.16393 0.03125-0.33299 0.03125-0.5 0-3.6714-2.9848-6.6562-6.6562-6.6562zm-22 9.6875v1c0 0.86581 0.71315 1.5625 1.5938 1.5625h3.0938c0.34894 1.3096 0.87782 2.5734 1.5 3.75l0.343-0.344c-0.787-1.353-1.431-2.858-1.843-4.406h-3.0938c-0.881 0-1.594-0.697-1.594-1.563zm44 0c0 0.8658-0.71316 1.5625-1.5938 1.5625h-3.0938c-0.412 1.548-1.056 3.053-1.843 4.406l0.34375 0.34375c0.62218-1.1766 1.1511-2.4404 1.5-3.75h3.0938c0.88 0 1.593-0.697 1.593-1.563v-1zm-40.062 9.843c-0.16307 0.52794-0.07459 1.1129 0.34375 1.5312l4.3125 4.3125c0.3061 0.30611 0.72209 0.4409 1.125 0.4375s0.78241-0.15741 1.0938-0.46875l2.187-2.218c1.3534 0.78715 2.8581 1.4313 4.4062 1.8438v-1c-1.548-0.413-3.053-1.057-4.406-1.844l-2.1875 2.2188c-0.31134 0.31134-0.69084 0.46534-1.0938 0.46875-0.40291 0.0034-0.8189-0.13139-1.125-0.4375l-4.3125-4.3125c-0.152-0.153-0.268-0.344-0.342-0.531zm36.125 0c-0.07435 0.1869-0.19068 0.3782-0.34375 0.53125l-4.3125 4.3125c-0.612 0.613-1.596 0.592-2.218-0.03l-2.188-2.219c-1.3534 0.78715-2.8581 1.4313-4.4062 1.8438v1c1.548-0.413 3.053-1.057 4.406-1.844l2.1875 2.2188c0.62268 0.6227 1.6065 0.64347 2.2188 0.03125l4.3125-4.3125c0.41839-0.41835 0.50684-1.0033 0.34375-1.5312zm-22.656 7.5312v1c0 0.8806 0.69669 1.5938 1.5625 1.5938h6.0625c0.8658 0 1.5625-0.71314 1.5625-1.5938v-1c0 0.881-0.697 1.594-1.563 1.594h-6.0625c-0.86581 0-1.5625-0.71315-1.5625-1.5938z" display="block" fill="#fff"/>
  </g>
 </g>
</svg>
