<?xml version="1.0" encoding="UTF-8" standalone="no"?>
<!-- Created with Inkscape (http://www.inkscape.org/) -->
<svg id="svg2" xmlns:rdf="http://www.w3.org/1999/02/22-rdf-syntax-ns#" xmlns="http://www.w3.org/2000/svg" height="16" width="16" version="1.0" xmlns:cc="http://creativecommons.org/ns#" xmlns:xlink="http://www.w3.org/1999/xlink" xmlns:dc="http://purl.org/dc/elements/1.1/">
 <metadata id="metadata7">
  <rdf:RDF>
   <cc:Work rdf:about="">
    <dc:format>image/svg+xml</dc:format>
    <dc:type rdf:resource="http://purl.org/dc/dcmitype/StillImage"/>
    <dc:title/>
   </cc:Work>
  </rdf:RDF>
 </metadata>
 <g id="layer2" style="display:none" transform="translate(0,-6)">
  <rect id="rect4898" style="display:inline;fill:#333" height="22" width="22" y="0" x="0"/>
 </g>
 <g id="layer3" style="display:none" transform="translate(0,-6)">
  <rect id="rect4126" style="fill:#efebe7" height="22" width="22" y="0" x="0"/>
 </g>
 <g id="layer1" transform="translate(0,-6)">
  <path id="path4951" style="fill:#d40000" d="m-13.375 32c-0.69219 0.04617-1.4852 0.35032-2.125 0.875-0.7839 0.64287-1.4206 2.2772-1.25 3.1875 0.08798 0.46934 0.44215 1.0404 0.78125 1.2188 0.63148 0.33208 1.7824-0.21877 2.8438-1.3438 1.1465-1.2153 1.673-2.5543 1.2812-3.3125-0.241-0.466-0.839-0.671-1.531-0.625zm-5.6562 0.71875c-0.96296 0.000866-1.4724 0.67796-1.4688 1.9688 0.0025 0.88392 0.31322 1.6791 0.71875 1.875 0.30151 0.14563 0.30905 0.13204 0.6875 0 0.62686-0.21871 1.2158-1.6786 1.0938-2.6562-0.09989-0.80016-0.44381-1.188-1.0312-1.1875zm-3.8125 1.3125c-0.18018 0.02605-0.3609 0.14201-0.53125 0.3125-0.34336 0.34365-0.34794 0.53096-0.34375 1.1875 0.0049 0.7743 0.1939 1.1965 0.71875 1.75 0.3926 0.41405 0.67572 0.4388 1.0312 0.0625 0.38514-0.40763 0.50472-1.0477 0.375-1.75-0.19783-1.0711-0.70945-1.6407-1.25-1.5625zm-2.6875 2.3438c-0.18695 0.03041-0.35545 0.13656-0.53125 0.3125-0.46135 0.46173-0.13867 1.7314 0.59375 2.375 0.87418 0.76817 1.5801 0.06483 1.2812-1.2812-0.21265-0.95791-0.7829-1.4975-1.3438-1.4062zm8.032 1.686c-0.61906-0.01065-1.3128 0.04097-2.0312 0.1875-1.8508 0.37747-3.3317 1.0754-4.2812 2.0312-0.54689 0.55046-0.8598 1.0601-1.125 1.8438-0.64192 1.897 0.5469 4.5957 2.8125 6.4375 0.84409 0.6862 1.3592 0.99331 2.2188 1.2812 0.44574 0.14931 0.79916 0.18399 1.625 0.15625 0.94672-0.03181 1.1393-0.07408 1.75-0.375 0.89504-0.44099 1.9096-1.461 2.3438-2.3438 0.26488-0.5385 0.30732-0.76863 0.28125-1.2188-0.04452-0.76858-0.34266-0.97776-1.3125-0.96875-1.3845 0.01285-1.9658 0.33393-2.25 1.3125-0.21469 0.73912-0.45204 1-0.9375 1-0.76937 0-1.5625-0.61179-1.5625-1.25 0-0.44399 0.71531-1.1058 2.5-2.3125 2.5141-1.6999 3.3785-2.7341 3.25-3.875-0.13273-1.1786-1.4241-1.8743-3.2812-1.9062z"/>
  <path id="path4004" style="fill:#bebebe" transform="matrix(.93234 0 0 .93234 -3.1041 4.1682)" d="m11.562 1.9688c-1.171-0.0615-2.1683 0.6026-3.0932 1.125-0.9398 0.6093-1.7678 1.4463-2.2188 2.5-0.0057 0.0132-0.0257 0.0179-0.0312 0.0312-1.045 1.2767-1.2635 2.9965-1.1563 4.563-0.042458 2.1662 0.6859 4.3676 2.0938 6.0312 1.3432 1.6648 3.3506 2.922 5.5625 2.9062a0.13191 0.13191 0 0 0 0.03125 0 0.13191 0.13191 0 0 0 0.03125 0 0.13191 0.13191 0 0 0 0.03125 -0.03125 0.13191 0.13191 0 0 0 0.03125 -0.03125 0.13191 0.13191 0 0 0 0 -0.03125 0.13191 0.13191 0 0 0 0 -0.03125 0.13191 0.13191 0 0 0 0 -0.03125 0.13191 0.13191 0 0 0 0 -0.03125 0.13191 0.13191 0 0 0 -0.03125 -0.03125 0.13191 0.13191 0 0 0 -0.03125 -0.03125 0.13191 0.13191 0 0 0 -0.03125 0c-1.016-0.173-1.915-0.79-2.7812-1.375-0.00546-0.0055-0.025779 0.0055-0.03125 0-0.6306-0.632-1.3316-1.153-1.7814-1.875-0.4008-0.653-0.6427-1.412-0.9062-2.156a0.13191 0.13191 0 0 0 0 -0.03125 0.13191 0.13191 0 0 0 -0.03125 -0.03125c-0.6489-0.694-1.0403-1.59-1-2.531-0.2032-1.7183 0.2789-3.5565 1.4062-4.875 0.0097-0.0113 0.0215-0.02 0.0312-0.0312 0.8304-0.5501 1.5783-1.2386 2.4688-1.5938 0.89473-0.59305 2.0252-0.75355 3.0938-0.6875 0.01037 0.0006413 0.02088-0.0006801 0.03125 0 1.9241 0.25636 3.6258 1.9702 3.8125 3.9062a0.13191 0.13191 0 0 0 0 0.03125 0.13191 0.13191 0 0 0 0 0.03125c0.10408 0.22003 0.07408 0.48836 0.03125 0.78125-0.04002 0.2737-0.06866 0.56636 0.03125 0.84375 0.007 0.019443-0.0086 0.04323 0 0.0625-0.23653 1.9246-2.4396 3.4376-4.3125 2.8438-0.77581-0.27785-1.3812-0.9641-1.6875-1.75-0.30634-0.7859-0.28514-1.6706 0.1875-2.375 0.71427-0.97356 2.2365-1.3074 3.25-0.625a0.13191 0.13191 0 0 0 0.03125 0 0.13191 0.13191 0 0 0 0.03125 0 0.13191 0.13191 0 0 0 0.03125 0 0.13191 0.13191 0 0 0 0.03125 0 0.13191 0.13191 0 0 0 0.032 -0.0313 0.13191 0.13191 0 0 0 0.031 -0.0312 0.13191 0.13191 0 0 0 0 -0.03125 0.13191 0.13191 0 0 0 0 -0.03125 0.13191 0.13191 0 0 0 0 -0.03125 0.13191 0.13191 0 0 0 0 -0.03125c-0.366-0.5458-1.133-0.7992-1.781-0.7812-1.0566 0.00303-2.0101 0.68998-2.4375 1.625-0.79711 1.4278-0.26927 3.3895 1.1562 4.2188 0.0127 0.0074 0.01841 0.02405 0.03125 0.03125 0.0048 0.009-0.0041 0.02313 0 0.03125-0.05355-0.0248-0.10426-0.06399-0.15625-0.09375-0.03595-0.02058-0.06777-0.04726-0.09375-0.0625-0.01299-0.0076-0.02085 0.0058-0.03125 0s-0.033-0.02175-0.0625-0.03125a0.13191 0.13191 0 0 0 -0.03125 0c-0.0058-0.0045-0.02512 0.0047-0.03125 0-0.04597-0.03552-0.07385-0.08557-0.125-0.125-0.04816-0.03713-0.08456-0.06537-0.125-0.09375-0.02022-0.01419-0.04424-0.0204-0.0625-0.03125s-0.02023-0.02236-0.0625-0.03125c-0.0053-0.0011-0.02397 0.000603-0.03125 0-0.0073-0.000603-0.03065-0.000061-0.03125 0-0.000599 0.000061-0.03078-0.000184-0.03125 0-0.000472 0.000184-0.03091 0.03094-0.03125 0.03125-0.000341 0.000311-0.03104 0.03081-0.03125 0.03125-0.000208 0.000441 0.000071 0.06193 0 0.0625-0.000071 0.000574-0.000838 0.02271 0 0.03125 0.01212 0.04829 0.01594 0.07227 0.03125 0.09375 0.03062 0.04296 0.08053 0.10387 0.15625 0.1875 0.57484 0.54864 1.3171 0.81608 2.0938 0.9375 0.02225 0.0035 0.04021 0.02805 0.0625 0.03125 0.02996 0.0069 0.06324-0.0061 0.09375 0 0.34574 0.0689 0.73166 0.10064 1 0.0625l-0.031-0.124-0.032-0.125c-0.285 0.071-0.576-0.011-0.906-0.063 1.647 0.17 3.401-0.619 4.25-2.062 0.0095-0.01089 0.02202-0.02022 0.03125-0.03125 0.4709-0.56246 0.60862-1.3124 0.90625-1.875a0.13191 0.13191 0 0 0 0 -0.03125 0.13191 0.13191 0 0 0 0 -0.03125c0.08644-0.80244 0.0067-1.6133-0.28125-2.375-0.0055-0.018601 0.0039-0.014599 0-0.03125-0.03082-0.13321-0.01199-0.23047 0-0.25 0.01349-0.021973 0.01467-0.011955 0.0625 0 0.09566 0.02391 0.26007 0.17129 0.25 0.40625a0.13191 0.13191 0 0 0 0 0.03125c0.01765 0.12049 0.02154 0.19662 0.03125 0.25 0.0049 0.026692 0.02665 0.044934 0.03125 0.0625 0.0023 0.00878-0.01078 0.00957 0 0.03125 0.0027 0.00542-0.000211 0.030975 0 0.03125 0.000105 0.0001376 0.03115-0.0000882 0.03125 0 0.000099 0.0000882 0.03116 0.031211 0.03125 0.03125 0.000093 0.0000393 0.06241 0.0000093 0.0625 0 0.000086-0.0000093 0.06242 0.0000574 0.0625 0s0.03118-0.031145 0.03125-0.03125c0.000074-0.0001051 0.03118-0.031098 0.03125-0.03125 0.000135-0.0003046-0.0014-0.025276 0-0.03125 0.00095-0.00737-0.000178-0.026638 0-0.03125 0.000357-0.00922 0.000254-0.022687 0-0.03125-0.000507-0.017127 0.0018-0.038404 0-0.0625-0.004-0.0483-0.024-0.1139-0.032-0.1876-0.031-0.2949-0.075-0.7183-0.125-0.9063-0.299-1.3116-1.339-2.2962-2.437-2.9374-0.84158-0.4397-1.8097-0.49533-2.6562-0.75-0.34948-0.09959-0.67837-0.087231-1-0.09375-0.32163-0.00652-0.6179-0.036334-0.90625-0.15625a0.13191 0.13191 0 0 0 -0.03125 0 0.13191 0.13191 0 0 0 -0.03125 0z"/>
 </g>
</svg>
