<?xml version="1.0" encoding="UTF-8" standalone="no"?>
<!-- Created with Inkscape (http://www.inkscape.org/) -->
<svg id="svg2" xmlns:rdf="http://www.w3.org/1999/02/22-rdf-syntax-ns#" xmlns="http://www.w3.org/2000/svg" height="16" width="16" version="1.0" xmlns:cc="http://creativecommons.org/ns#" xmlns:xlink="http://www.w3.org/1999/xlink" xmlns:dc="http://purl.org/dc/elements/1.1/">
 <defs id="defs4">
  <radialGradient id="radialGradient4055" gradientUnits="userSpaceOnUse" cy="126.15" cx="126.16" gradientTransform="matrix(.063412 0 0 .063414 -20.001 6.0006)" r="154.62">
   <stop id="translucent-stop-color" style="stop-color:#003364;stop-opacity:0" offset="0"/>
   <stop id="opaque-blue-stop-color" style="stop-color:#0067c8" offset="1"/>
  </radialGradient>
 </defs>
 <metadata id="metadata7">
  <rdf:RDF>
   <cc:Work rdf:about="">
    <dc:format>image/svg+xml</dc:format>
    <dc:type rdf:resource="http://purl.org/dc/dcmitype/StillImage"/>
    <dc:title/>
   </cc:Work>
  </rdf:RDF>
 </metadata>
 <g id="layer2" style="display:none" transform="translate(0,-6)">
  <rect id="rect4898" style="display:inline;fill:#333" height="22" width="22" y="0" x="0"/>
 </g>
 <g id="layer3" style="display:none" transform="translate(0,-6)">
  <rect id="rect4126" style="fill:#efebe7" height="22" width="22" y="0" x="0"/>
 </g>
 <g id="layer1" transform="translate(0,-6)">
  <path id="path4951" style="fill:#d40000" d="m-13.375 32c-0.69219 0.04617-1.4852 0.35032-2.125 0.875-0.7839 0.64287-1.4206 2.2772-1.25 3.1875 0.08798 0.46934 0.44215 1.0404 0.78125 1.2188 0.63148 0.33208 1.7824-0.21877 2.8438-1.3438 1.1465-1.2153 1.673-2.5543 1.2812-3.3125-0.241-0.466-0.839-0.671-1.531-0.625zm-5.6562 0.71875c-0.96296 0.000866-1.4724 0.67796-1.4688 1.9688 0.0025 0.88392 0.31322 1.6791 0.71875 1.875 0.30151 0.14563 0.30905 0.13204 0.6875 0 0.62686-0.21871 1.2158-1.6786 1.0938-2.6562-0.09989-0.80016-0.44381-1.188-1.0312-1.1875zm-3.8125 1.3125c-0.18018 0.02605-0.3609 0.14201-0.53125 0.3125-0.34336 0.34365-0.34794 0.53096-0.34375 1.1875 0.0049 0.7743 0.1939 1.1965 0.71875 1.75 0.3926 0.41405 0.67572 0.4388 1.0312 0.0625 0.38514-0.40763 0.50472-1.0477 0.375-1.75-0.19783-1.0711-0.70945-1.6407-1.25-1.5625zm-2.6875 2.3438c-0.18695 0.03041-0.35545 0.13656-0.53125 0.3125-0.46135 0.46173-0.13867 1.7314 0.59375 2.375 0.87418 0.76817 1.5801 0.06483 1.2812-1.2812-0.21265-0.95791-0.7829-1.4975-1.3438-1.4062zm8.032 1.686c-0.61906-0.01065-1.3128 0.04097-2.0312 0.1875-1.8508 0.37747-3.3317 1.0754-4.2812 2.0312-0.54689 0.55046-0.8598 1.0601-1.125 1.8438-0.64192 1.897 0.5469 4.5957 2.8125 6.4375 0.84409 0.6862 1.3592 0.99331 2.2188 1.2812 0.44574 0.14931 0.79916 0.18399 1.625 0.15625 0.94672-0.03181 1.1393-0.07408 1.75-0.375 0.89504-0.44099 1.9096-1.461 2.3438-2.3438 0.26488-0.5385 0.30732-0.76863 0.28125-1.2188-0.04452-0.76858-0.34266-0.97776-1.3125-0.96875-1.3845 0.01285-1.9658 0.33393-2.25 1.3125-0.21469 0.73912-0.45204 1-0.9375 1-0.76937 0-1.5625-0.61179-1.5625-1.25 0-0.44399 0.71531-1.1058 2.5-2.3125 2.5141-1.6999 3.3785-2.7341 3.25-3.875-0.13273-1.1786-1.4241-1.8743-3.2812-1.9062z"/>
  <path id="speech-bubble" style="fill:#bebebe" d="m28 6c-4.4162 0-7.997 3.5842-8 8v6.4062c0 0.887 0.707 1.594 1.594 1.594h6.406c4.4167-0.0018 8-3.5828 8-8 0-4.4186-3.5817-8-8-8zm1.875 3c1.722 0 3.125 1.403 3.125 3.125s-1.403 3.0938-3.125 3.0938h-1.625v1.6562c0 1.722-1.403 3.125-3.125 3.125s-3.125-1.403-3.125-3.125c0-1.7221 1.4028-3.0937 3.125-3.0938h1.625v-1.6562c0-1.722 1.403-3.125 3.125-3.125zm0 1.4688c-0.90798 0-1.6234 0.7483-1.625 1.6562v1.4062c0 0.1285 0.09036 0.25 0.21875 0.25h1.4062c0.90887 0 1.6562-0.7473 1.6562-1.6562 0-0.90905-0.74738-1.6562-1.6562-1.6562zm-4.75 4.75c-0.90887 0-1.6562 0.74704-1.6562 1.6562 0 0.9089 0.74738 1.6562 1.6562 1.6562 0.90792 0 1.6237-0.74883 1.625-1.6562v-1.4062c0-0.12818-0.09036-0.25-0.21875-0.25h-1.4062z"/>
  <path id="f-script-path" style="opacity:.35;fill:#bebebe" d="m30.25 9.0312c0.0994 0.015202 0.20223 0.033635 0.3125 0.0625-0.103-0.0234-0.205-0.0495-0.312-0.0625zm0.3125 0.0625c0.35267 0.09247 0.65609 0.38245 0.65625 0.71875 0.000159 0.40655-0.30897 0.6875-0.75 0.6875-0.08823 0-0.182 0.0082-0.25 0 0.75124 0.15348 1.3125 0.82958 1.3125 1.625 0 0.90895-0.74738 1.6562-1.6562 1.6562h-0.3125c0.40275 0 0.71843 0.31494 0.71875 0.71875 0 0.40397-0.31616 0.71875-0.71875 0.71875h0.3125c1.723 0.001 3.126-1.371 3.126-3.093 0-1.483-1.05-2.7151-2.438-3.0312zm-5.4375 4.6875c-1.721 0-3.124 1.372-3.124 3.094 0 1.4832 1.0503 2.7152 2.4375 3.0312-0.35269-0.09242-0.65609-0.38256-0.65625-0.71875 0-0.40645 0.30876-0.6875 0.75-0.6875 0.08814 0 0.182-0.0082 0.25 0-0.75121-0.15346-1.3125-0.82972-1.3125-1.625 0-0.90921 0.74738-1.6562 1.6562-1.6562h0.3125c-0.40285 0-0.71875-0.31467-0.71875-0.71875-0.000105-0.40634 0.34288-0.71875 0.75-0.71875h-0.34375zm-0.6875 6.125c0.10306 0.02348 0.20583 0.04951 0.3125 0.0625-0.0994-0.01521-0.20223-0.03361-0.3125-0.0625z"/>
  <path id="path4037" style="fill:#bebebe" transform="translate(0,6)" d="m8 0c-4.4162 0-7.997 3.5842-8 8v6.406c0 0.887 0.70735 1.594 1.5938 1.594h6.4062c4.417-0.002 8-3.583 8-8 0-4.4186-3.582-8-8-8zm2.312 2c2.036 0 3.688 1.6522 3.688 3.6875 0 2.0351-1.652 3.6563-3.688 3.6563h-1.937v1.9682c0 2.036-1.6525 3.688-3.6875 3.688-2.0352 0-3.6875-1.652-3.6875-3.688 0-2.0347 1.6522-3.6869 3.6875-3.687h1.9375v-1.9375c0-2.0353 1.6522-3.6875 3.687-3.6875zm0 1.75c-1.0726 0-1.9351 0.8645-1.937 1.9375v1.6875c0 0.1519 0.1295 0.25 0.2812 0.25h1.6558c1.075 0 1.969-0.8633 1.969-1.9375 0-1.0743-0.894-1.9375-1.969-1.9375zm-5.6245 5.5938c-1.0741 0-1.9687 0.8942-1.9687 1.9682 0 1.075 0.8946 1.938 1.9687 1.938 1.073 0 1.936-0.865 1.9375-1.938v-1.687c0-0.1515-0.1295-0.2812-0.2812-0.2812h-1.6563z"/>
  <path id="path4039" style="opacity:.45;fill:#bebebe" transform="translate(0,6)" d="m10.75 2.0312c0.119 0.018 0.243 0.028 0.375 0.0626-0.122-0.0275-0.249-0.0476-0.375-0.0626zm0.375 0.0626c0.417 0.1092 0.75 0.4775 0.75 0.875 0 0.4804-0.323 0.8124-0.844 0.8124-0.108 0-0.229 0.0102-0.312 0 0.888 0.1814 1.562 0.9663 1.562 1.9063 0 1.0742-0.894 1.9375-1.969 1.9375h-0.3745c0.4755 0 0.8435 0.3978 0.8435 0.875 0 0.4774-0.368 0.8438-0.8435 0.8438h0.3745c2.036 0 3.688-1.6212 3.688-3.6563 0-1.7565-1.23-3.2242-2.875-3.5937zm-6.4375 5.5312c-2.0353 0.0001-3.6875 1.6523-3.6875 3.687 0 1.888 1.4213 3.44 3.25 3.657-0.1194-0.018-0.2425-0.059-0.375-0.094-0.4168-0.109-0.7498-0.446-0.75-0.844 0-0.48 0.3223-0.812 0.8438-0.812 0.1076 0 0.2291-0.01 0.3124 0-0.8877-0.182-1.5624-0.967-1.5624-1.907 0-1.074 0.8946-1.9682 1.9687-1.9682h0.375c-0.4761 0-0.8437-0.3663-0.8437-0.8438-0.0002-0.4802 0.3938-0.875 0.875-0.875h-0.4063zm1.7813 4.437c-0.0986 0.233-0.2303 0.45-0.4063 0.626 0.176-0.176 0.3077-0.393 0.4063-0.626z"/>
  <path id="path4049" style="fill:url(#radialGradient4055)" d="m-12.001 6.0006c-4.4162 0-7.997 3.5842-8 8v6.4c0 0.8864 0.7136 1.6 1.6 1.6h6.4c4.4167-0.0018 8-3.5828 8-8 0-4.4186-3.5817-8-8-8z"/>
  <path id="path4051" style="fill:#0b6fd1" d="m-9.6849 7.9995c-2.0353 0-3.6851 1.6499-3.6851 3.6852v1.9529h-1.9449c-2.036 0.001-3.686 1.643-3.686 3.678s1.65 3.685 3.685 3.685 3.6849-1.6498 3.6849-3.6853v-1.9612h1.9452c2.0349 0 3.6848-1.634 3.6848-3.669 0-2.0357-1.6499-3.6856-3.6849-3.6856zm-3.6851 9.3187c-0.0015 1.0724-0.87192 1.9418-1.9449 1.9418-1.0741 0-1.9529-0.87082-1.9529-1.945 0-1.0745 0.87882-1.9615 1.9529-1.9615h1.6705c0.15173 0 0.27477 0.12279 0.27477 0.27428 0 0.000312-0.000187 0.000312-0.000187 0.000686v1.6897h-0.000061zm3.685-3.6805h-1.6706c-0.15173 0-0.27446-0.12273-0.27446-0.27459v-1.6816c0.0019-1.073 0.87192-1.9421 1.945-1.9421 1.0741 0 1.9531 0.87088 1.9531 1.9452 0 1.0742-0.87901 1.9531-1.9531 1.9531z"/>
  <path id="path4053" style="fill:#fff" d="m-13.37 13.638v-1.953c0-2.0353 1.6498-3.6852 3.6851-3.6852 0.30875 0 0.52813 0.034789 0.81391 0.1096 0.41679 0.10928 0.75716 0.45072 0.75734 0.84817 0.000188 0.48047-0.34858 0.82974-0.8698 0.82974-0.24832 0-0.33806-0.047545-0.70164-0.047545-1.0731 0-1.9432 0.86908-1.945 1.9421v1.6816c0 0.15186 0.12273 0.27459 0.27446 0.27459h1.2783c0.47598 0 0.86034 0.38108 0.86072 0.85831 0 0.47742-0.38493 0.85763-0.86072 0.85763h-1.5526v1.9615c0 2.033-1.65 3.683-3.685 3.683-0.30881 0-0.52819-0.0348-0.81398-0.10966-0.41682-0.10922-0.7573-0.45084-0.75749-0.84816 0-0.48034 0.34852-0.82974 0.86999-0.82974 0.24807 0 0.33806 0.04762 0.70145 0.04762 1.0731 0 1.9434-0.86914 1.9451-1.9418v-1.6903c0-0.15155-0.12304-0.27428-0.27477-0.27428h-1.2778c-0.4761 0-0.86078-0.37983-0.86078-0.85738-0.000124-0.48022 0.38866-0.8585 0.8698-0.8585h1.5434v-0.000063z"/>
 </g>
</svg>
