<?xml version="1.0" encoding="UTF-8" standalone="no"?>
<!-- Created with Inkscape (http://www.inkscape.org/) -->
<svg id="svg2" xmlns:rdf="http://www.w3.org/1999/02/22-rdf-syntax-ns#" xmlns="http://www.w3.org/2000/svg" height="96" width="96" version="1.1" xmlns:cc="http://creativecommons.org/ns#" xmlns:xlink="http://www.w3.org/1999/xlink" xmlns:dc="http://purl.org/dc/elements/1.1/">
 <defs id="defs4">
  <linearGradient id="linearGradient3613-3" y2="138.66" gradientUnits="userSpaceOnUse" x2="48" y1="20.221" x1="48">
   <stop id="stop3739-10" stop-color="#fff" offset="0"/>
   <stop id="stop3741-2" stop-color="#fff" stop-opacity="0" offset="1"/>
  </linearGradient>
  <clipPath id="clipPath3613-29">
   <rect id="rect3615-1" rx="6" ry="6" height="84" width="84" y="6" x="6" fill="#fff"/>
  </clipPath>
  <filter id="filter3794-0" height="1.384" width="1.384" color-interpolation-filters="sRGB" y="-.192" x="-.192">
   <feGaussianBlur id="feGaussianBlur3796-8" stdDeviation="5.28"/>
  </filter>
  <clipPath id="clipPath3613-25">
   <rect id="rect3615-14" rx="6" ry="6" height="84" width="84" y="6" x="6" fill="#fff"/>
  </clipPath>
  <filter id="filter3794-6" height="1.384" width="1.384" color-interpolation-filters="sRGB" y="-.192" x="-.192">
   <feGaussianBlur id="feGaussianBlur3796-26" stdDeviation="5.28"/>
  </filter>
  <clipPath id="clipPath3860">
   <rect id="rect3862" rx="6" ry="6" height="72" width="84" y="18" x="6" fill="#f0f"/>
  </clipPath>
  <filter id="filter3870" height="1.3943" width="1.3312" color-interpolation-filters="sRGB" y="-.19716" x="-.16559">
   <feGaussianBlur id="feGaussianBlur3872" stdDeviation="5.1703125"/>
  </filter>
  <linearGradient id="linearGradient5696" y2="81.481" gradientUnits="userSpaceOnUse" x2="48.022" y1="22.933" x1="48.022">
   <stop id="stop3876" stop-color="#fff" offset="0"/>
   <stop id="stop3878" stop-color="#fff" stop-opacity="0" offset="1"/>
  </linearGradient>
  <linearGradient id="linearGradient4640" y2="48.005" gradientUnits="userSpaceOnUse" x2="6.1872" gradientTransform="translate(0 956.36)" y1="48.005" x1="93.008">
   <stop id="stop4636" stop-color="#be8e4a" stop-opacity=".076923" offset="0"/>
   <stop id="stop4638" stop-color="#a67c25" offset="1"/>
  </linearGradient>
  <linearGradient id="linearGradient3104-3" y2="1.8332" xlink:href="#linearGradient3699-66" gradientUnits="userSpaceOnUse" x2="8.9155" gradientTransform="matrix(2.5842 0 0 2.5842 18.116 24.973)" y1="18.869" x1="8.9155"/>
  <linearGradient id="linearGradient3699-66">
   <stop id="stop3701-5" stop-color="#aa7932" stop-opacity=".78431" offset="0"/>
   <stop id="stop3703-23" stop-color="#aa7932" stop-opacity=".39216" offset="1"/>
  </linearGradient>
 </defs>
 <metadata id="metadata7">
  <rdf:RDF>
   <cc:Work rdf:about="">
    <dc:format>image/svg+xml</dc:format>
    <dc:type rdf:resource="http://purl.org/dc/dcmitype/StillImage"/>
    <dc:title/>
   </cc:Work>
  </rdf:RDF>
 </metadata>
 <g id="layer1" transform="translate(0 -956.36)">
  <rect id="rect5263-0" fill-opacity=".019608" ry="12.724" height="89.978" width="89.978" y="959.35" x="2.9998"/>
  <rect id="rect5261-6" fill-opacity=".039216" ry="12.552" height="88.762" width="88.762" y="959.96" x="3.6078"/>
  <rect id="rect5259-9" fill-opacity=".078431" ry="12.38" height="87.546" width="87.546" y="960.57" x="4.2157"/>
  <rect id="rect5257-5" fill-opacity=".15686" ry="12.208" height="86.33" width="86.33" y="961.18" x="4.8237"/>
  <path id="rect2419-5" d="m17.469 961.77c-6.2512 0-11.355 4.7568-11.969 10.844v63.469c0.61364 6.0834 5.7175 10.812 11.969 10.812h61.031c6.4543 0 11.671-5.0367 12-11.406v-62.281c-0.32117-6.3771-5.5404-11.438-12-11.438h-61.031z" fill="#cc993d"/>
  <rect id="rect3171" ry="12" stroke="#fff" stroke-linecap="round" stroke-width=".5" fill="url(#linearGradient3613-3)" rx="12" transform="matrix(1.0149 0 0 1.0238 -.83801 955.22)" width="66" opacity=".05" clip-path="url(#clipPath3613-29)" height="66" filter="url(#filter3794-0)" y="15" x="15"/>
  <path id="path5865" d="m17.469 961.77c-6.2512 0-11.355 4.7568-11.969 10.844v63.469c0.07233 0.717 0.21463 1.4198 0.40625 2.0937-0.14675-1.3295-0.26905-2.6965-0.34375-4.0937v-59.281c0-2.3816 0.62452-7.4626 6.625-7.4688h12.75c4.9632 0 7.6402-1.0079 10.125 3.7188 3.0657 4.2041 4.006 4.8869 9.5625 4.2812h40.656c3.7739-0.0442 5.1676 1.5874 5.2188 5.4375v-7.5625c-0.32117-6.3771-5.5404-11.438-12-11.438h-61.031zm73.031 69.73c-0.04406 2.2078-0.18649 4.3503-0.40625 6.4063 0.21124-0.7976 0.36211-1.6143 0.40625-2.4688v-3.9375zm-1.0625 8.2813c-0.13416 0.2981-0.28057 0.5904-0.4375 0.875 0.1575-0.2841 0.30285-0.5773 0.4375-0.875zm-0.438 0.9c-0.15693 0.2845-0.32144 0.5427-0.5 0.8125 0.17482-0.2638 0.34595-0.5347 0.5-0.8125zm-81.906 0.25c0.15696 0.2676 0.32348 0.5274 0.5 0.7812-0.1807-0.2598-0.33982-0.5069-0.5-0.7812zm76.188 4.9375c-0.26128 0.1134-0.54176 0.2175-0.8125 0.3125 0.27423-0.096 0.5479-0.198 0.8125-0.3125zm-69.625 0.375c0.2786 0.093 0.55637 0.1773 0.84375 0.25-0.28437-0.072-0.56799-0.1586-0.84375-0.25zm67.625 0.2812c-0.24437 0.058-0.4999 0.1135-0.75 0.1563 0.25388-0.043 0.50195-0.097 0.75-0.1563z" fill="url(#linearGradient4640)"/>
  <g id="layer5" transform="matrix(1.0168 0 0 1.021 -.61038 955.51)">
   <rect id="rect3171-4" height="66" stroke="#fff" stroke-linecap="round" stroke-width=".5" fill="url(#linearGradient3613-3)" rx="12" ry="12" width="66" opacity=".1" clip-path="url(#clipPath3613-25)" filter="url(#filter3794-6)" y="15" x="15"/>
  </g>
  <path id="path7506" opacity=".55020" d="m28.25 966.31c-0.98771 0.0223-2.0717 0.10149-3.3125 0.10149h-12.75c-6.0005 0.007-6.625 6.3566-6.625 8.9362v0.81233c0-2.5796 0.62452-8.0829 6.625-8.0895h12.75c4.9632 0 7.7652-0.96667 10.125 3.3403 3.0657 4.5536 4.006 5.293 9.5625 4.6371h40.656c3.7739-0.0479 5.1676 1.7193 5.2188 5.8894v-0.81234c-0.05112-4.1701-1.4448-5.9373-5.2188-5.8894h-40.656c-5.5565 0.65596-6.4968-0.0835-9.5625-4.6371-1.8636-3.8396-3.8494-4.3555-6.8125-4.2885z" fill="#f9f9f9"/>
  <rect id="rect3634" opacity="0" height="1" width="84.972" y="973.33" x="5.5655"/>
  <path id="path7563" opacity=".20482" d="m35.742 968.8c0.0231 0.043 0.0394 0.081 0.0625 0.125 0.034 0.047 0.0603 0.079 0.0937 0.125h45.625c2.0566 0 3.7188 1.6621 3.7188 3.7187v-0.25c0-2.0566-1.6621-3.7187-3.7188-3.7187h-45.781z" fill-opacity=".58962" fill="#fff"/>
  <path id="path7516" opacity=".51807" d="m35.742 969.05c0.0231 0.043 0.0394 0.081 0.0625 0.125 0.0241 0.033 0.0386 0.061 0.0625 0.094h45.656c2.0566 0 3.7188 1.6621 3.7188 3.7187v-0.2187c0-2.0566-1.6621-3.7188-3.7188-3.7188l-45.781 0.0001z" fill-opacity=".58962" fill="#fff"/>
  <path id="path7514" opacity=".74699" d="m35.742 969.27c0.0231 0.043 0.0394 0.081 0.0625 0.125 0.0335 0.046 0.0607 0.08 0.0937 0.125h45.625c0.25708 0 0.50773 0.013 0.75 0.063 0.24227 0.049 0.46498 0.1248 0.6875 0.2188 0.23229 0.096 0.45057 0.2049 0.65625 0.3437 0.2043 0.138 0.35868 0.294 0.53125 0.4688 0.32871 0.3328 0.62762 0.7185 0.8125 1.1562 0.004 0.01-0.004 0.023 0 0.031 0.18093 0.4379 0.28125 0.9336 0.28125 1.4375v-0.25c0-2.0566-1.6621-3.7187-3.7188-3.7187h-45.781z" fill-opacity=".58962" fill="#fff"/>
  <path id="rect7493" fill-opacity=".83019" fill="#fff" d="m35.751 969.5c0.0231 0.043 0.0394 0.081 0.0625 0.125 3.0657 4.2041 4.006 4.8869 9.5625 4.2813h39.875v-0.6875c0-2.0567-1.6621-3.7188-3.7188-3.7188h-45.781z"/>
  <g id="g5676" transform="matrix(.94641 0 0 .84994 2.9331 964.94)">
   <path id="path5678" opacity=".15" filter="url(#filter3870)" d="m15.969 22.531c-2.8459 0.0043-5.4332 2.5916-5.4375 5.4375v48.062c0.0043 2.8459 2.5916 5.4332 5.4375 5.4375h64.062c2.8459-0.0043 5.4332-2.5916 5.4375-5.4375v-48.062c-0.0043-2.8459-2.5916-5.4332-5.4375-5.4375z" clip-path="url(#clipPath3860)" fill="url(#linearGradient5696)"/>
  </g>
  <path id="rect5265-0" d="m5.3323 1029.9v5.0663c0 6.668 5.3645 12.032 12.032 12.032h61.049c6.668 0 12.032-5.3645 12.032-12.032v-5.0663c0 6.6681-5.3645 12.032-12.032 12.032h-61.049c-6.668 0-12.032-5.3643-12.032-12.032z" fill-opacity=".11765"/>
  <path id="path5252-0" d="m5.3323 1033.9v1.0133c0 6.668 5.3645 12.032 12.032 12.032h61.049c6.668 0 12.032-5.3645 12.032-12.032v-1.0133c0 6.6681-5.3645 12.032-12.032 12.032h-61.049c-6.668 0-12.032-5.3644-12.032-12.032z" fill-opacity=".098039"/>
  <g id="layer6" transform="translate(.16130 958.44)">
   <path id="path4663" opacity=".05" d="m41.531 28c-4.4866 0-8.991 1.691-12.406 5.0938-6.8344 6.8094-6.8344 17.941 0 24.75 5.7593 5.7382 14.548 6.641 21.281 2.6875 0.34737 0.02725 0.71355 0.03673 1 0.09375 0.19392 0.0386 0.07969-0.03663 0.15625 0 0.0041 0.18838-0.0059 0.38784 0 0.75 0.01537 0.93752 0.27177 2.532 1.5 3.7188l-0.031 0.03 0.094 0.094 9.406 9.531s0.02999 0.02996 0.03125 0.03125c0.04704 0.04831 0.94182 0.96484 2.3438 1.1875 1.4394 0.22861 3.3421-0.34826 5.0312-2.0312 1.6909-1.6847 2.2622-3.5896 2.0312-5.0312-0.21891-1.3666-1.0643-2.2216-1.1562-2.3125l-0.062-0.063-9.406-9.531c-0.02156-0.02382-0.04063-0.0394-0.0625-0.0625-1.1965-1.264-2.8646-1.461-3.8125-1.4688-0.34687-0.0028-0.53057 0.0019-0.71875 0-0.03463-0.07217 0.04512 0.02628 0-0.1875-0.06-0.284-0.096-0.631-0.125-0.969 3.966-6.708 3.105-15.478-2.656-21.218-3.42-3.408-7.951-5.094-12.438-5.094zm0 2c3.9762 0 7.9684 1.5107 11 4.5312 5.2858 5.2664 5.9615 13.375 2.0312 19.375 0.05134 1.0199 0.20956 2.6656 0.875 3.25 0.90605 0.79574 3.0254-0.3386 4.4062 1.1875l9.532 9.656s1.8774 1.7577-0.875 4.5-4.5 0.875-4.5 0.875l-9.531-9.656c-1.532-1.376-0.42-3.504-1.219-4.407-0.587-0.662-2.226-0.792-3.25-0.843-6.0222 3.9159-14.152 3.2039-19.438-2.0625-6.0632-6.041-6.0632-15.834 0-21.875 3.032-3.02 6.993-4.531 10.969-4.531zm0.0625 5.1562c-2.8582 0-5.4381 1.1012-7.3125 2.9688s-3.0625 4.496-3.0625 7.3438c0 5.6955 4.6585 10.313 10.375 10.312 5.7165 0 10.344-4.617 10.344-10.312 0-5.6955-4.6273-10.312-10.344-10.312zm0 2c4.6317 0 8.3438 3.7082 8.3438 8.3125s-3.7121 8.3125-8.3438 8.3125c-4.6317 0.000002-8.375-3.7155-8.375-8.3125 0-2.2874 0.99359-4.4054 2.5-5.9062 1.5002-1.4947 3.5342-2.4062 5.875-2.4062z" fill="#fff"/>
   <path id="path4652" opacity=".1" d="m41.531 28.969c-4.2404 0-8.4886 1.5942-11.719 4.8125-6.4624 6.4387-6.4624 16.936 0 23.375 5.519 5.4988 13.956 6.2796 20.344 2.375 0.45598 0.0269 0.98857 0.06689 1.4375 0.15625 0.5175 0.10301 0.87889 0.3169 0.875 0.3125-0.01457-0.01646 0.03999 0.03681 0.0625 0.28125s-0.0073 0.61556 0 1.0625c0.01432 0.87341 0.19369 2.1502 1.1875 3.0938 0.02329 0.02211 0.03828 0.04074 0.0625 0.0625l9.469 9.593s0.69077 0.72809 1.8125 0.90625 2.6493-0.21746 4.1875-1.75c1.5391-1.5334 1.93-3.064 1.75-4.1875-0.17338-1.0824-0.82508-1.7326-0.875-1.7812l-0.031-0.032-9.469-9.594c-0.01093-0.01208-0.02023-0.01941-0.03125-0.03125-0.95149-1.0226-2.2421-1.1803-3.125-1.1875-0.44654-0.0036-0.81915 0.02058-1.0625 0s-0.29846-0.07762-0.28125-0.0625c0.0011 0.000974-0.23442-0.38819-0.34375-0.90625-0.09457-0.4481-0.12817-0.95875-0.15625-1.4062 3.9188-6.3645 3.1768-14.781-2.3438-20.281-3.2327-3.2208-7.5096-4.8125-11.75-4.8125zm0 1.0312c3.9762 0 7.9684 1.5107 11 4.5312 5.2858 5.2664 5.9615 13.375 2.0312 19.375 0.05134 1.0199 0.20956 2.6656 0.875 3.25 0.90605 0.79574 3.0254-0.3386 4.4062 1.1875l9.532 9.656s1.8774 1.7577-0.875 4.5-4.5 0.875-4.5 0.875l-9.531-9.656c-1.532-1.376-0.42-3.504-1.219-4.407-0.587-0.662-2.226-0.792-3.25-0.843-6.0222 3.9159-14.152 3.2039-19.438-2.0625-6.0632-6.041-6.0632-15.834 0-21.875 3.032-3.02 6.993-4.531 10.969-4.531zm0.0625 5.1562c-2.8582 0-5.4381 1.1012-7.3125 2.9688s-3.0625 4.496-3.0625 7.3438c0 5.6955 4.6585 10.313 10.375 10.312 5.7165 0 10.344-4.617 10.344-10.312 0-5.6955-4.6273-10.312-10.344-10.312zm0 1.0312c5.155 0 9.3125 4.1505 9.3125 9.2812 0 5.1308-4.1575 9.2812-9.3125 9.2812-5.155 0.000002-9.3438-4.1543-9.3438-9.2812 0-2.5578 1.0973-4.916 2.7812-6.5938 1.6807-1.6746 3.9721-2.6875 6.5625-2.6875z" fill="#fff"/>
   <path id="Symbol" opacity=".9" d="m30.547 34.531c-6.0632 6.041-6.0632 15.847 0 21.888 5.2858 5.2664 13.429 5.9678 19.451 2.052 1.0236 0.05117 2.6743 0.192 3.2609 0.85499 0.79867 0.90273-0.33032 3.0131 1.2014 4.3889l9.5261 9.6524s1.7671 1.8873 4.5195-0.85499 0.85814-4.5029 0.85814-4.5029l-9.526-9.653c-1.3809-1.5261-3.499-0.40125-4.4051-1.197-0.66544-0.58442-0.80679-2.2291-0.85813-3.249 3.9303-6.0001 3.2263-14.113-2.0595-19.38-6.0632-6.041-15.905-6.041-21.968 0zm3.7186 3.591c1.8744-1.8676 4.4645-2.964 7.3227-2.964 5.7165 0 10.355 4.6214 10.355 10.317 0 5.6955-4.6383 10.317-10.355 10.317-5.7165 0.000002-10.355-4.6214-10.355-10.317 0-2.8478 1.1576-5.4854 3.0321-7.3529z" fill="url(#linearGradient3104-3)"/>
   <path id="path4624" opacity=".25" d="m41.531 30c-3.9762 0-7.9371 1.5107-10.969 4.5312-6.0632 6.041-6.0632 15.834 0 21.875 5.2858 5.2664 13.415 5.9784 19.438 2.0625 1.0236 0.05117 2.6634 0.18076 3.25 0.84375 0.79867 0.90273-0.31296 3.0304 1.2188 4.4062l9.531 9.657s1.7476 1.8673 4.5-0.875 0.875-4.5 0.875-4.5l-9.5312-9.6562c-1.3809-1.5261-3.5002-0.39176-4.4062-1.1875-0.66544-0.58442-0.82366-2.2301-0.875-3.25 3.9303-6.0001 3.2545-14.109-2.0312-19.375-3.032-3.021-7.024-4.532-11.001-4.532zm0 1.9375c3.4839 0 6.9683 1.3217 9.625 3.9688 4.6377 4.6207 5.2157 11.694 1.7812 16.938a1.9441 1.9441 0 0 0 -0.312 1.155c0.02807 0.55765 0.0839 1.3067 0.25 2.0938 0.06215 0.2945 0.14655 0.62135 0.25 0.9375-0.331-0.108-0.663-0.22-0.969-0.281-0.786-0.156-1.52-0.192-2.062-0.219a1.9441 1.9441 0 0 0 -1.1562 0.3125c-5.2617 3.4213-12.358 2.8124-17-1.8125-5.3191-5.2996-5.3191-13.825 0-19.125 2.6615-2.6517 6.1099-3.9688 9.5938-3.9688zm0.0625 1.2812c-3.3575 0-6.452 1.3039-8.6875 3.5312-2.2295 2.2213-3.625 5.3303-3.625 8.7188 0 6.7555 5.5493 12.25 12.312 12.25 6.7632 0 12.281-5.5016 12.281-12.25s-5.5181-12.25-12.281-12.25zm0 1.9375c5.7165 0 10.344 4.617 10.344 10.312 0 5.6955-4.6273 10.312-10.344 10.312-5.7165 0.000002-10.375-4.617-10.375-10.312 0-2.8478 1.1881-5.4762 3.0625-7.3438s4.4543-2.9688 7.3125-2.9688zm13.5 23.844c0.36862 0.13102 0.77528 0.38196 1.0625 0.40625 0.54216 0.04585 0.94553-0.0027 1.2812 0 0.67143 0.0055 0.77104 0.03149 0.96875 0.25a1.9441 1.9441 0 0 0 0.0625 0.0625l9.532 9.657a1.9441 1.9441 0 0 0 0.03125 0.03125s0.0079-0.02089 0.03125 0.125c0.02337 0.14589 0.13502 0.52516-0.9375 1.5938-1.0742 1.0702-1.4481 0.92938-1.5938 0.90625-0.14564-0.02313-0.125 0-0.125 0a1.9441 1.9441 0 0 0 -0.031 -0.031l-9.5312-9.6562a1.9441 1.9441 0 0 0 -0.0625 -0.0625c-0.222-0.2-0.24-0.297-0.251-0.97-0.005-0.336 0.019-0.771-0.031-1.312-0.025-0.276-0.284-0.649-0.406-1z" fill="url(#linearGradient3104-3)"/>
   <path id="path4602" d="m41.531 30c-3.9762 0-7.9371 1.5107-10.969 4.5312-3.158 3.1465-4.6629 7.3123-4.5312 11.438 0.12362-3.7913 1.6287-7.5456 4.5312-10.438 6.0632-6.041 15.906-6.041 21.969 0 2.8866 2.876 4.3548 6.6088 4.5 10.375 0.10748-4.1012-1.3574-8.244-4.5-11.375-3.031-3.02-7.023-4.531-11-4.531zm-10.281 15.969c-0.0079 0.16598-0.03125 0.33245-0.03125 0.5 0 5.6955 4.6585 10.313 10.375 10.312 5.7165 0 10.344-4.617 10.344-10.312 0-0.16755-0.02331-0.3344-0.03125-0.5-0.26188 5.4637-4.7642 9.8125-10.312 9.8125-5.5483 0.000002-10.082-4.3488-10.344-9.8125zm23.375 8.8125c-0.02506 0.03903-0.03705 0.08614-0.0625 0.125 0.05134 1.0199 0.20956 2.6656 0.875 3.25 0.90605 0.79574 3.0254-0.3386 4.4062 1.1875l9.531 9.656s0.4162 0.421 0.5625 1.1562c0.275-1.355-0.563-2.156-0.563-2.156l-9.5312-9.6562c-1.3809-1.5261-3.5002-0.39176-4.4062-1.1875-0.49908-0.43831-0.71989-1.4548-0.8125-2.375z" fill="url(#linearGradient3104-3)"/>
   <path id="path4611" opacity=".5" d="m41.531 30c-3.9762 0-7.9371 1.5107-10.969 4.5312-6.0632 6.041-6.0632 15.834 0 21.875 5.2858 5.2664 13.415 5.9784 19.438 2.0625 1.0236 0.05117 2.6634 0.18076 3.25 0.84375 0.79867 0.90273-0.31296 3.0304 1.2188 4.4062l9.531 9.657s1.7476 1.8673 4.5-0.875 0.875-4.5 0.875-4.5l-9.5312-9.6562c-1.3809-1.5261-3.5002-0.39176-4.4062-1.1875-0.66544-0.58442-0.82366-2.2301-0.875-3.25 3.9303-6.0001 3.2545-14.109-2.0312-19.375-3.032-3.021-7.024-4.532-11.001-4.532zm0 1c3.7194 0 7.4452 1.4243 10.281 4.25 4.9478 4.9296 5.5779 12.488 1.9062 18.094a1.014 1.014 0 0 0 -0.15625 0.625c0.02692 0.53483 0.07033 1.2342 0.21875 1.9375 0.14842 0.70327 0.34268 1.4227 1 2 0.4635 0.40707 0.98839 0.52452 1.4375 0.5625s0.87977 0.02823 1.25 0.03125c0.74045 0.006 1.1915 0.05222 1.625 0.53125a1.014 1.014 0 0 0 0.032 0.031l9.5312 9.6562a1.014 1.014 0 0 0 0.032 0.032s0.20912 0.17467 0.28125 0.625 0.0303 1.1929-1.1875 2.4062c-1.2187 1.2142-1.9567 1.2589-2.4062 1.1875-0.451-0.072-0.626-0.281-0.626-0.281a1.014 1.014 0 0 0 -0.031 -0.032l-9.531-9.656a1.014 1.014 0 0 0 -0.032 -0.031c-0.482-0.433-0.55-0.915-0.562-1.657-0.006-0.37 0.01-0.77-0.032-1.218-0.041-0.449-0.154-0.977-0.562-1.438-0.58225-0.65811-1.2976-0.86019-2-1-0.70235-0.13981-1.41-0.16113-1.9375-0.1875a1.014 1.014 0 0 0 -0.625 0.15625c-5.6255 3.6579-13.206 2.9943-18.156-1.9375-5.6751-5.6543-5.6751-14.783 0-20.438 2.8386-2.8282 6.5306-4.25 10.25-4.25zm0.0625 3.1562c-3.1186 0-5.9685 1.1948-8.0312 3.25-2.0596 2.0521-3.3438 4.9327-3.3438 8.0625 0 6.2484 5.1126 11.313 11.375 11.312 6.2624 0 11.344-5.0678 11.344-11.312 0-6.2447-5.0814-11.312-11.344-11.312zm0 1c5.7165 0 10.344 4.617 10.344 10.312 0 5.6955-4.6273 10.312-10.344 10.312-5.7165 0.000002-10.375-4.617-10.375-10.312 0-2.8478 1.1881-5.4762 3.0625-7.3438s4.4543-2.9688 7.3125-2.9688z" fill="url(#linearGradient3104-3)"/>
   <path id="path4637" opacity=".2" d="m41.594 35.156c-2.8582 0-5.4381 1.1012-7.3125 2.9688s-3.0625 4.496-3.0625 7.3438c0 0.16755 0.02331 0.3344 0.03125 0.5 0.12677-2.6551 1.2671-5.0861 3.0312-6.8438 1.8744-1.8676 4.4543-2.9688 7.3125-2.9688 5.5483 0 10.051 4.3488 10.312 9.8125 0.0079-0.1656 0.03125-0.33245 0.03125-0.5 0-5.6955-4.6273-10.312-10.344-10.312zm15.438 10.75c-0.0733 2.797-0.87515 5.5671-2.4688 8 0.01284 0.25497 0.03163 0.56826 0.0625 0.875 1.7316-2.6968 2.5252-5.7893 2.4062-8.875zm-31 0.0625c-0.13461 4.1286 1.3705 8.2884 4.5312 11.438 5.2858 5.2664 13.415 5.9784 19.438 2.0625 1.0236 0.05117 2.6634 0.18076 3.25 0.84375 0.79867 0.90273-0.31296 3.0304 1.2188 4.4062l9.53 9.657s1.7476 1.8673 4.5-0.875c1.4215-1.4163 1.5938-2.5584 1.4375-3.3438-0.135 0.661-0.536 1.445-1.438 2.344-2.752 2.742-4.5 0.875-4.5 0.875l-9.531-9.656c-1.532-1.376-0.42-3.504-1.219-4.407-0.587-0.662-2.226-0.792-3.25-0.843-6.022 3.916-14.152 3.204-19.438-2.063-2.905-2.894-4.41-6.642-4.531-10.437z" fill="#fff"/>
  </g>
 </g>
</svg>
