<?xml version="1.0" encoding="UTF-8" standalone="no"?>
<!-- Created with Inkscape (http://www.inkscape.org/) -->
<svg id="svg2" xmlns:rdf="http://www.w3.org/1999/02/22-rdf-syntax-ns#" xmlns="http://www.w3.org/2000/svg" height="96" width="96" version="1.1" xmlns:cc="http://creativecommons.org/ns#" xmlns:xlink="http://www.w3.org/1999/xlink" xmlns:dc="http://purl.org/dc/elements/1.1/">
 <defs id="defs4">
  <linearGradient id="linearGradient3613-3" y2="138.66" gradientUnits="userSpaceOnUse" x2="48" y1="20.221" x1="48">
   <stop id="stop3739-10" stop-color="#fff" offset="0"/>
   <stop id="stop3741-2" stop-color="#fff" stop-opacity="0" offset="1"/>
  </linearGradient>
  <clipPath id="clipPath3613-29">
   <rect id="rect3615-1" rx="6" ry="6" height="84" width="84" y="6" x="6" fill="#fff"/>
  </clipPath>
  <filter id="filter3794-0" height="1.384" width="1.384" color-interpolation-filters="sRGB" y="-.192" x="-.192">
   <feGaussianBlur id="feGaussianBlur3796-8" stdDeviation="5.28"/>
  </filter>
  <clipPath id="clipPath3613-25">
   <rect id="rect3615-14" rx="6" ry="6" height="84" width="84" y="6" x="6" fill="#fff"/>
  </clipPath>
  <filter id="filter3794-6" height="1.384" width="1.384" color-interpolation-filters="sRGB" y="-.192" x="-.192">
   <feGaussianBlur id="feGaussianBlur3796-26" stdDeviation="5.28"/>
  </filter>
  <clipPath id="clipPath3860">
   <rect id="rect3862" rx="6" ry="6" height="72" width="84" y="18" x="6" fill="#f0f"/>
  </clipPath>
  <filter id="filter3870" height="1.3943" width="1.3312" color-interpolation-filters="sRGB" y="-.19716" x="-.16559">
   <feGaussianBlur id="feGaussianBlur3872" stdDeviation="5.1703125"/>
  </filter>
  <linearGradient id="linearGradient5696" y2="81.481" gradientUnits="userSpaceOnUse" x2="48.022" y1="22.933" x1="48.022">
   <stop id="stop3876" stop-color="#fff" offset="0"/>
   <stop id="stop3878" stop-color="#fff" stop-opacity="0" offset="1"/>
  </linearGradient>
  <linearGradient id="linearGradient4640" y2="48.005" gradientUnits="userSpaceOnUse" x2="6.1872" gradientTransform="translate(0 956.36)" y1="48.005" x1="93.008">
   <stop id="stop4636" stop-color="#be8e4a" stop-opacity=".076923" offset="0"/>
   <stop id="stop4638" stop-color="#a67c25" offset="1"/>
  </linearGradient>
  <linearGradient id="linearGradient3093-0" y2="31.782" xlink:href="#linearGradient3699-98" gradientUnits="userSpaceOnUse" x2="51.179" gradientTransform="translate(0,-2)" y1="76.409" x1="51.179"/>
  <linearGradient id="linearGradient3699-98">
   <stop id="stop3701-475" stop-color="#aa7932" stop-opacity=".78431" offset="0"/>
   <stop id="stop3703-9" stop-color="#aa7932" stop-opacity=".39216" offset="1"/>
  </linearGradient>
 </defs>
 <metadata id="metadata7">
  <rdf:RDF>
   <cc:Work rdf:about="">
    <dc:format>image/svg+xml</dc:format>
    <dc:type rdf:resource="http://purl.org/dc/dcmitype/StillImage"/>
    <dc:title/>
   </cc:Work>
  </rdf:RDF>
 </metadata>
 <g id="layer1" transform="translate(0 -956.36)">
  <rect id="rect5263-0" fill-opacity=".019608" ry="12.724" height="89.978" width="89.978" y="959.35" x="2.9998"/>
  <rect id="rect5261-6" fill-opacity=".039216" ry="12.552" height="88.762" width="88.762" y="959.96" x="3.6078"/>
  <rect id="rect5259-9" fill-opacity=".078431" ry="12.38" height="87.546" width="87.546" y="960.57" x="4.2157"/>
  <rect id="rect5257-5" fill-opacity=".15686" ry="12.208" height="86.33" width="86.33" y="961.18" x="4.8237"/>
  <path id="rect2419-5" d="m17.469 961.77c-6.2512 0-11.355 4.7568-11.969 10.844v63.469c0.61364 6.0834 5.7175 10.812 11.969 10.812h61.031c6.4543 0 11.671-5.0367 12-11.406v-62.281c-0.32117-6.3771-5.5404-11.438-12-11.438h-61.031z" fill="#cc993d"/>
  <rect id="rect3171" ry="12" stroke="#fff" stroke-linecap="round" stroke-width=".5" fill="url(#linearGradient3613-3)" rx="12" transform="matrix(1.0149 0 0 1.0238 -.83801 955.22)" width="66" opacity=".05" clip-path="url(#clipPath3613-29)" height="66" filter="url(#filter3794-0)" y="15" x="15"/>
  <path id="path5865" d="m17.469 961.77c-6.2512 0-11.355 4.7568-11.969 10.844v63.469c0.07233 0.717 0.21463 1.4198 0.40625 2.0937-0.14675-1.3295-0.26905-2.6965-0.34375-4.0937v-59.281c0-2.3816 0.62452-7.4626 6.625-7.4688h12.75c4.9632 0 7.6402-1.0079 10.125 3.7188 3.0657 4.2041 4.006 4.8869 9.5625 4.2812h40.656c3.7739-0.0442 5.1676 1.5874 5.2188 5.4375v-7.5625c-0.32117-6.3771-5.5404-11.438-12-11.438h-61.031zm73.031 69.73c-0.04406 2.2078-0.18649 4.3503-0.40625 6.4063 0.21124-0.7976 0.36211-1.6143 0.40625-2.4688v-3.9375zm-1.0625 8.2813c-0.13416 0.2981-0.28057 0.5904-0.4375 0.875 0.1575-0.2841 0.30285-0.5773 0.4375-0.875zm-0.438 0.9c-0.15693 0.2845-0.32144 0.5427-0.5 0.8125 0.17482-0.2638 0.34595-0.5347 0.5-0.8125zm-81.906 0.25c0.15696 0.2676 0.32348 0.5274 0.5 0.7812-0.1807-0.2598-0.33982-0.5069-0.5-0.7812zm76.188 4.9375c-0.26128 0.1134-0.54176 0.2175-0.8125 0.3125 0.27423-0.096 0.5479-0.198 0.8125-0.3125zm-69.625 0.375c0.2786 0.093 0.55637 0.1773 0.84375 0.25-0.28437-0.072-0.56799-0.1586-0.84375-0.25zm67.625 0.2812c-0.24437 0.058-0.4999 0.1135-0.75 0.1563 0.25388-0.043 0.50195-0.097 0.75-0.1563z" fill="url(#linearGradient4640)"/>
  <g id="layer5" transform="matrix(1.0168 0 0 1.021 -.61038 955.51)">
   <rect id="rect3171-4" height="66" stroke="#fff" stroke-linecap="round" stroke-width=".5" fill="url(#linearGradient3613-3)" rx="12" ry="12" width="66" opacity=".1" clip-path="url(#clipPath3613-25)" filter="url(#filter3794-6)" y="15" x="15"/>
  </g>
  <path id="path7506" opacity=".55020" d="m28.25 966.31c-0.98771 0.0223-2.0717 0.10149-3.3125 0.10149h-12.75c-6.0005 0.007-6.625 6.3566-6.625 8.9362v0.81233c0-2.5796 0.62452-8.0829 6.625-8.0895h12.75c4.9632 0 7.7652-0.96667 10.125 3.3403 3.0657 4.5536 4.006 5.293 9.5625 4.6371h40.656c3.7739-0.0479 5.1676 1.7193 5.2188 5.8894v-0.81234c-0.05112-4.1701-1.4448-5.9373-5.2188-5.8894h-40.656c-5.5565 0.65596-6.4968-0.0835-9.5625-4.6371-1.8636-3.8396-3.8494-4.3555-6.8125-4.2885z" fill="#f9f9f9"/>
  <rect id="rect3634" opacity="0" height="1" width="84.972" y="973.33" x="5.5655"/>
  <path id="path7563" opacity=".20482" d="m35.742 968.8c0.0231 0.043 0.0394 0.081 0.0625 0.125 0.034 0.047 0.0603 0.079 0.0937 0.125h45.625c2.0566 0 3.7188 1.6621 3.7188 3.7187v-0.25c0-2.0566-1.6621-3.7187-3.7188-3.7187h-45.781z" fill-opacity=".58962" fill="#fff"/>
  <path id="path7516" opacity=".51807" d="m35.742 969.05c0.0231 0.043 0.0394 0.081 0.0625 0.125 0.0241 0.033 0.0386 0.061 0.0625 0.094h45.656c2.0566 0 3.7188 1.6621 3.7188 3.7187v-0.2187c0-2.0566-1.6621-3.7188-3.7188-3.7188l-45.781 0.0001z" fill-opacity=".58962" fill="#fff"/>
  <path id="path7514" opacity=".74699" d="m35.742 969.27c0.0231 0.043 0.0394 0.081 0.0625 0.125 0.0335 0.046 0.0607 0.08 0.0937 0.125h45.625c0.25708 0 0.50773 0.013 0.75 0.063 0.24227 0.049 0.46498 0.1248 0.6875 0.2188 0.23229 0.096 0.45057 0.2049 0.65625 0.3437 0.2043 0.138 0.35868 0.294 0.53125 0.4688 0.32871 0.3328 0.62762 0.7185 0.8125 1.1562 0.004 0.01-0.004 0.023 0 0.031 0.18093 0.4379 0.28125 0.9336 0.28125 1.4375v-0.25c0-2.0566-1.6621-3.7187-3.7188-3.7187h-45.781z" fill-opacity=".58962" fill="#fff"/>
  <path id="rect7493" fill-opacity=".83019" fill="#fff" d="m35.751 969.5c0.0231 0.043 0.0394 0.081 0.0625 0.125 3.0657 4.2041 4.006 4.8869 9.5625 4.2813h39.875v-0.6875c0-2.0567-1.6621-3.7188-3.7188-3.7188h-45.781z"/>
  <g id="g5676" transform="matrix(.94641 0 0 .84994 2.9331 964.94)">
   <path id="path5678" opacity=".15" filter="url(#filter3870)" d="m15.969 22.531c-2.8459 0.0043-5.4332 2.5916-5.4375 5.4375v48.062c0.0043 2.8459 2.5916 5.4332 5.4375 5.4375h64.062c2.8459-0.0043 5.4332-2.5916 5.4375-5.4375v-48.062c-0.0043-2.8459-2.5916-5.4332-5.4375-5.4375z" clip-path="url(#clipPath3860)" fill="url(#linearGradient5696)"/>
  </g>
  <path id="rect5265-0" d="m5.3323 1029.9v5.0663c0 6.668 5.3645 12.032 12.032 12.032h61.049c6.668 0 12.032-5.3645 12.032-12.032v-5.0663c0 6.6681-5.3645 12.032-12.032 12.032h-61.049c-6.668 0-12.032-5.3643-12.032-12.032z" fill-opacity=".11765"/>
  <path id="path5252-0" d="m5.3323 1033.9v1.0133c0 6.668 5.3645 12.032 12.032 12.032h61.049c6.668 0 12.032-5.3645 12.032-12.032v-1.0133c0 6.6681-5.3645 12.032-12.032 12.032h-61.049c-6.668 0-12.032-5.3644-12.032-12.032z" fill-opacity=".098039"/>
  <g id="layer6" transform="translate(-.013976 957.09)">
   <path id="path5077" opacity=".05" d="m38 28.031c-7.6875 0-13.969 6.2813-13.969 13.969 0 4.695 2.4345 8.7535 6 11.281-1.6381 0.51195-3 1.8423-3 3.7188s1.3619 3.2068 3 3.7188v4.2812c0 2.7147 2.254 4.9688 4.9688 4.9688h0.59375l-0.782 1.031c-0.85241 1.1069-0.59842 2.6913 0.0625 3.5625 0.66092 0.87121 1.6755 1.4135 2.875 1.4062h9 9.0312c1.1995 0.0072 2.2141-0.53504 2.875-1.4062 0.66092-0.87121 0.9149-2.4556 0.0625-3.5625l-0.78125-1.0312h0.0625 1c2.5802 0 4.6675-2.0618 4.875-4.5938l2.375 1.6562h0.03125l0.15625 0.125 0.03125-0.0625c1.1303 0.8391 2.9449 0.88304 4-0.0625 1.1111-0.99562 1.4667-2.2669 1.4688-3.625v-4.9375-3.9375c0.0085-1.1353-0.31831-2.1459-0.9375-3-0.61919-0.85405-1.7851-1.7236-3.2188-1.4375a1.9617 1.9617 0 0 0 -0.031 0.031c-0.50995 0.10416-0.90863 0.36483-1.2812 0.65625l-0.031-0.031-0.157 0.094c-0.01024 0.009-0.02114 0.0222-0.03125 0.03125l-2.4062 1.6875c-0.02077-0.23115-0.13593-0.43162-0.1875-0.65625 2.5976-2.5227 4.3125-5.9916 4.3125-9.9062 0-7.6875-6.2813-13.969-13.969-13.969-3.0151 0-5.7134 1.1132-8 2.75-2.2866-1.6368-4.9849-2.75-8-2.75zm0 1.969c3.0781 0 5.8765 1.1536 8 3.0625 2.123-1.908 4.922-3.062 8-3.062 6.6274 0 12 5.3726 12 12 0 3.78-1.769 7.1157-4.5 9.3125 0.323 0.479 0.5 1.065 0.5 1.688v2.9688h0.40625l5.1562-3.625c0.18218-0.16305 0.38519-0.2699 0.59375-0.3125 0.90891-0.18138 1.8231 1.0796 1.8125 2.5v3.9375 4.9375c-0.0013 0.86733-0.32809 1.7222-0.8125 2.1562-0.48441 0.43411-1.1082 0.43108-1.5938 0l-5.156-3.594h-0.406v3.031c0 1.662-1.338 3-3 3h-1-4.0312l3.1875 4.1875c0.56205 0.72985-0.26436 1.8192-1.375 1.8125h-9.0312-9c-1.1106 0.0067-1.937-1.0826-1.375-1.8125l3.187-4.188h-3.562-1c-1.662 0-3-1.338-3-3v-6.0312c-0.163 0.026-0.327 0.031-0.5 0.031-1.385 0-2.5-0.892-2.5-2s1.115-2 2.5-2c0.17312 0 0.33696 0.0047 0.5 0.03125v-2.031c0-0.20775 0.02267-0.3981 0.0625-0.59375-3.608-2.069-6.062-5.949-6.062-10.406 0-6.627 5.373-12 12-12zm0 6c-3.3137 0-6 2.6863-6 6s2.6863 6 6 6c1.864 0 3.5245-0.85402 4.625-2.1875 0.42797-0.51858 0.76324-1.1077 1-1.75 0.03375-0.09154 0.06442-0.18767 0.09375-0.28125 0.07391-0.23764 0.14335-0.46946 0.1875-0.71875 0.0054-0.03015-0.005-0.06344 0-0.09375 0.052-0.316 0.094-0.638 0.094-0.969 0-0.3307-0.04189-0.65292-0.09375-0.96875-0.0049-0.03052 0.0054-0.06339 0-0.09375-0.0095-0.05266-0.02039-0.10408-0.03125-0.15625-0.05994-0.29294-0.14906-0.56806-0.25-0.84375-0.23676-0.64226-0.57203-1.2314-1-1.75-1.1-1.333-2.761-2.187-4.625-2.187zm16 0c-1.864 0-3.5245 0.85402-4.625 2.1875-0.42797 0.51858-0.76324 1.1077-1 1.75-0.11186 0.30549-0.21996 0.61105-0.28125 0.9375-0.0095 0.04992 0.0083 0.1059 0 0.15625-0.052 0.316-0.094 0.638-0.094 0.969 0 0.3307 0.04189 0.65292 0.09375 0.96875 0.0083 0.05035-0.0095 0.10633 0 0.15625 0.06129 0.32645 0.16939 0.63201 0.28125 0.9375 0.23676 0.64226 0.57203 1.2314 1 1.75 1.1 1.334 2.761 2.188 4.625 2.188 3.3137 0 6-2.6863 6-6s-2.6863-6-6-6zm-16 2c2.2091 0 4 1.7909 4 4s-1.7909 4-4 4-4-1.7909-4-4 1.7909-4 4-4zm16 0c2.2091 0 4 1.7909 4 4s-1.7909 4-4 4-4-1.7909-4-4 1.7909-4 4-4z" fill="#fff"/>
   <path id="path5066" opacity=".1" d="m38 29.031c-7.1443 0-12.969 5.8244-12.969 12.969 0 4.5692 2.4512 8.5394 6.0312 10.844-0.002 0.054-0.031 0.1-0.031 0.156v1.1875c-1.5852 0.20554-3 1.2323-3 2.8125s1.4148 2.607 3 2.8125v5.1875c0 2.1753 1.7934 3.9688 3.9688 3.9688h1 1.625l-2 2.625c-0.55965 0.72673-0.40078 1.7331 0.0625 2.3438 0.46328 0.61068 1.193 1.0365 2.0625 1.0312h9 9.0312c0.86945 0.0052 1.5992-0.42057 2.0625-1.0312 0.46328-0.61068 0.62215-1.617 0.0625-2.3438l-2-2.625h2.0938 1c2.1753 0 3.9688-1.7934 3.9688-3.9688v-1.4688l3.9688 2.75 0.0625 0.0625 0.03125-0.03125c0.79288 0.63378 1.9855 0.6539 2.75-0.03125 0.78998-0.70791 1.1546-1.7684 1.1562-2.875v-4.9375-3.9375c0.0068-0.91751-0.27343-1.7489-0.75-2.4062-0.47657-0.65734-1.2868-1.2172-2.2188-1.0312-0.36318 0.07418-0.66187 0.27205-0.9375 0.5l-0.032-0.032-0.0625 0.0625-3.9688 2.7812v-1.4062c0-0.49974-0.2664-0.9227-0.4375-1.375 2.6726-2.3639 4.4375-5.7696 4.4375-9.625 0-7.1443-5.8244-12.969-12.969-12.969-3.0536 0-5.7849 1.1624-8 2.9375-2.2151-1.7751-4.9464-2.9375-8-2.9375zm0 0.969c3.0781 0 5.8765 1.1536 8 3.0625 2.123-1.908 4.922-3.062 8-3.062 6.6274 0 12 5.3726 12 12 0 3.78-1.769 7.1157-4.5 9.3125 0.323 0.479 0.5 1.065 0.5 1.688v2.9688h0.40625l5.1562-3.625c0.18218-0.16305 0.38519-0.2699 0.59375-0.3125 0.90891-0.18138 1.8231 1.0796 1.8125 2.5v3.9375 4.9375c-0.0013 0.86733-0.32809 1.7222-0.8125 2.1562-0.48441 0.43411-1.1082 0.43108-1.5938 0l-5.156-3.594h-0.406v3.031c0 1.662-1.338 3-3 3h-1-4.0312l3.1875 4.1875c0.56205 0.72985-0.26436 1.8192-1.375 1.8125h-9.0312-9c-1.1106 0.0067-1.937-1.0826-1.375-1.8125l3.187-4.188h-3.562-1c-1.662 0-3-1.338-3-3v-6.0312c-0.163 0.026-0.327 0.031-0.5 0.031-1.385 0-2.5-0.892-2.5-2s1.115-2 2.5-2c0.17312 0 0.33696 0.0047 0.5 0.03125v-2.031c0-0.20775 0.02267-0.3981 0.0625-0.59375-3.608-2.069-6.062-5.949-6.062-10.406 0-6.627 5.373-12 12-12zm0 6c-3.3137 0-6 2.6863-6 6s2.6863 6 6 6c1.864 0 3.5245-0.85402 4.625-2.1875 0.42797-0.51858 0.76324-1.1077 1-1.75 0.03375-0.09154 0.06442-0.18767 0.09375-0.28125 0.07391-0.23764 0.14335-0.46946 0.1875-0.71875 0.0054-0.03015-0.005-0.06344 0-0.09375 0.052-0.316 0.094-0.638 0.094-0.969 0-0.3307-0.04189-0.65292-0.09375-0.96875-0.0049-0.03052 0.0054-0.06339 0-0.09375-0.0095-0.05266-0.02039-0.10408-0.03125-0.15625-0.05994-0.29294-0.14906-0.56806-0.25-0.84375-0.23676-0.64226-0.57203-1.2314-1-1.75-1.1-1.333-2.761-2.187-4.625-2.187zm16 0c-1.864 0-3.5245 0.85402-4.625 2.1875-0.42797 0.51858-0.76324 1.1077-1 1.75-0.11186 0.30549-0.21996 0.61105-0.28125 0.9375-0.0095 0.04992 0.0083 0.1059 0 0.15625-0.052 0.316-0.094 0.638-0.094 0.969 0 0.3307 0.04189 0.65292 0.09375 0.96875 0.0083 0.05035-0.0095 0.10633 0 0.15625 0.06129 0.32645 0.16939 0.63201 0.28125 0.9375 0.23676 0.64226 0.57203 1.2314 1 1.75 1.1 1.334 2.761 2.188 4.625 2.188 3.3137 0 6-2.6863 6-6s-2.6863-6-6-6zm-16 0.96875c1.0496 0 1.9653 0.34653 2.75 0.90625-0.78427-0.52516-1.7427-0.84375-2.75-0.84375-2.7261 0-4.9688 2.2427-4.9688 4.9688s2.2427 4.9688 4.9688 4.9688c1.0073 0 1.9657-0.31859 2.75-0.84375-0.78472 0.55972-1.7004 0.90625-2.75 0.90625-2.7968 0-5.0312-2.2345-5.0312-5.0312 0-2.7968 2.2345-5.0312 5.0312-5.0312zm16 0c2.7968 0 5.0312 2.2345 5.0312 5.0312 0 2.7968-2.2345 5.0312-5.0312 5.0312-1.0496 0-1.9653-0.34653-2.75-0.90625 0.78427 0.52516 1.7427 0.84375 2.75 0.84375 2.7261 0 4.9688-2.2427 4.9688-4.9688s-2.2427-4.9688-4.9688-4.9688c-1.0073 0-1.9657 0.31859-2.75 0.84375 0.78472-0.55972 1.7004-0.90625 2.75-0.90625zm-16 1.031c2.2091 0 4 1.7909 4 4s-1.7909 4-4 4-4-1.7909-4-4 1.7909-4 4-4zm16 0c2.2091 0 4 1.7909 4 4s-1.7909 4-4 4-4-1.7909-4-4 1.7909-4 4-4zm-12.5 0.5c0.11237 0.11298 0.27334 0.15806 0.375 0.28125 0.35769 0.43342 0.64269 0.95458 0.84375 1.5 0.09279 0.25343 0.17255 0.46173 0.21875 0.6875 0.01133 0.05443 0.02516 0.09121 0.03125 0.125 0.006 0.04015-0.0091 0.03715 0 0.09375 0.04835 0.29446 0.0625 0.56257 0.0625 0.8125s-0.01415 0.51804-0.0625 0.8125c-0.02899 0.17572-0.03178 0.26426-0.03125 0.28125-0.03074 0.12858-0.07521 0.24618-0.125 0.40625-0.02832 0.09037-0.07012 0.15465-0.09375 0.21875-0.20106 0.54542-0.48606 1.0666-0.84375 1.5-0.10166 0.12319-0.26263 0.16827-0.375 0.28125 0.89836-0.89836 1.4688-2.137 1.4688-3.5s-0.57039-2.6016-1.4688-3.5zm9 0c-0.89836 0.89836-1.4688 2.137-1.4688 3.5s0.57039 2.6016 1.4688 3.5c-0.11237-0.11298-0.27334-0.15806-0.375-0.28125-0.35769-0.43342-0.64269-0.95458-0.84375-1.5-0.10947-0.29897-0.20638-0.54889-0.25-0.78125-0.0071-0.04854 0.01237-0.04993 0-0.125-0.04835-0.29446-0.0625-0.56257-0.0625-0.8125s0.01415-0.51804 0.0625-0.8125c0.01238-0.07508-0.0071-0.07645 0-0.125 0.04363-0.23236 0.14053-0.48228 0.25-0.78125 0.20106-0.54542 0.48606-1.0666 0.84375-1.5 0.102-0.123 0.263-0.168 0.375-0.281z" fill="#fff"/>
   <path id="path3729" opacity=".9" d="m38 30c-6.6274 0-12 5.3726-12 12 0 4.4567 2.4537 8.3365 6.0625 10.406-0.03983 0.19564-0.0625 0.386-0.0625 0.59375v2.0312c-0.163-0.026-0.327-0.031-0.5-0.031-1.385 0-2.5 0.892-2.5 2s1.115 2 2.5 2c0.17312 0 0.33696-0.0047 0.5-0.03125v6.0312c0 1.662 1.338 3 3 3h1 3.5625l-3.1875 4.1875c-0.562 0.729 0.264 1.819 1.375 1.812h9 9.0312c1.1106 0.0067 1.937-1.0826 1.375-1.8125l-3.187-4.188h4.031 1c1.662 0 3-1.338 3-3v-3.0312h0.40625l5.1562 3.5938c0.48553 0.43108 1.1093 0.43411 1.5938 0 0.48441-0.43408 0.81119-1.2889 0.8125-2.1562v-4.9375-3.9375c0.01059-1.4204-0.90359-2.6814-1.8125-2.5-0.20856 0.0426-0.41157 0.14945-0.59375 0.3125l-5.1562 3.625h-0.40625v-2.969c0-0.623-0.177-1.209-0.5-1.688 2.731-2.196 4.5-5.532 4.5-9.312 0-6.627-5.373-12-12-12-3.078 0-5.877 1.154-8 3.062-2.123-1.908-4.922-3.062-8-3.062zm0 6c1.864 0 3.5245 0.85402 4.625 2.1875 0.42797 0.51858 0.76324 1.1077 1 1.75 0.10094 0.27569 0.19006 0.55081 0.25 0.84375 0.01086 0.05217 0.02176 0.10358 0.03125 0.15625 0.0054 0.03036-0.0049 0.06323 0 0.09375 0.052 0.316 0.094 0.638 0.094 0.969 0 0.3307-0.04189 0.65292-0.09375 0.96875-0.005 0.03031 0.0054 0.0636 0 0.09375-0.04415 0.24929-0.11359 0.48111-0.1875 0.71875-0.02933 0.09358-0.06 0.18971-0.09375 0.28125-0.23676 0.64226-0.57203 1.2314-1 1.75-1.1 1.334-2.761 2.188-4.625 2.188-3.3137 0-6-2.6863-6-6s2.6863-6 6-6zm16 0c3.3137 0 6 2.6863 6 6s-2.6863 6-6 6c-1.864 0-3.5245-0.85402-4.625-2.1875-0.42797-0.51858-0.76324-1.1077-1-1.75-0.11186-0.30549-0.21996-0.61105-0.28125-0.9375-0.0095-0.04992 0.0083-0.1059 0-0.15625-0.052-0.316-0.094-0.638-0.094-0.969 0-0.3307 0.04189-0.65292 0.09375-0.96875 0.0083-0.05035-0.0095-0.10633 0-0.15625 0.06129-0.32645 0.16939-0.63201 0.28125-0.9375 0.23676-0.64226 0.57203-1.2314 1-1.75 1.1-1.334 2.761-2.188 4.625-2.188zm-16 2c-2.2091 0-4 1.7909-4 4s1.7909 4 4 4 4-1.7909 4-4-1.7909-4-4-4zm16 0c-2.2091 0-4 1.7909-4 4s1.7909 4 4 4 4-1.7909 4-4-1.7909-4-4-4z" fill="url(#linearGradient3093-0)"/>
   <path id="path5038" opacity=".25" d="m38 30c-6.6274 0-12 5.3726-12 12 0 4.4567 2.4537 8.3365 6.0625 10.406-0.039 0.196-0.062 0.386-0.062 0.594v2.0312c-0.163-0.026-0.327-0.031-0.5-0.031-1.385 0-2.5 0.892-2.5 2s1.115 2 2.5 2c0.17312 0 0.33696-0.0047 0.5-0.03125v6.031c0 1.662 1.338 3 3 3h1 3.5625l-3.1875 4.1875c-0.562 0.729 0.264 1.819 1.375 1.812h9 9.0312c1.1106 0.0067 1.937-1.0826 1.375-1.8125l-3.187-4.188h4.031 1c1.662 0 3-1.338 3-3v-3.0312h0.40625l5.1562 3.5938c0.48553 0.43108 1.1093 0.43411 1.5938 0 0.48441-0.43408 0.81119-1.2889 0.8125-2.1562v-4.9375-3.9375c0.01059-1.4204-0.90359-2.6814-1.8125-2.5-0.20856 0.0426-0.41157 0.14945-0.59375 0.3125l-5.1562 3.625h-0.40625v-2.969c0-0.623-0.177-1.209-0.5-1.688 2.731-2.196 4.5-5.532 4.5-9.312 0-6.627-5.373-12-12-12-3.078 0-5.877 1.154-8 3.062-2.123-1.908-4.922-3.062-8-3.062zm0 1.9375c2.5944 0 4.9357 0.95967 6.7188 2.5625a1.936 1.936 0 0 0 2.5625 0c1.782-1.603 4.124-2.562 6.718-2.562 5.5812 0 10.062 4.4813 10.062 10.062 0 3.176-1.4779 5.9596-3.7812 7.8125a1.936 1.936 0 0 0 -0.375 2.5938c0.097 0.144 0.156 0.338 0.156 0.594v2.9688a1.936 1.936 0 0 0 1.938 1.937h0.40625a1.936 1.936 0 0 0 1.125 -0.34375l4.469-3.156c0.0065 0.05074 0.03163 0.07458 0.03125 0.125v3.9375 4.9375c0 0.067-0.016 0.057-0.031 0.125l-4.5-3.156a1.936 1.936 0 0 0 -1.0938 -0.34375h-0.40625a1.936 1.936 0 0 0 -1.9375 1.9375v3.0312c0 0.62302-0.43948 1.0625-1.0625 1.0625h-1-4.0312a1.936 1.936 0 0 0 -1.5312 3.125l2.1875 2.875h-7.875-7.8438l2.1875-2.875a1.936 1.936 0 0 0 -1.5312 -3.125h-3.5625-1c-0.62303 0-1.0625-0.43948-1.0625-1.0625v-6.0312a1.936 1.936 0 0 0 -2.25 -1.9062c0.0043-0.000693-0.04941 0-0.1875 0-0.20768 0-0.3236-0.02805-0.40625-0.0625-0.13775 0.05742-0.15625 0.1192-0.15625 0s0.0185-0.05742 0.15625 0c0.08265-0.03445 0.19857-0.0625 0.40625-0.0625 0.13816 0 0.1919 0.000718 0.1875 0a1.936 1.936 0 0 0 2.25 -1.9062v-2.0312c0-0.06692 0.01174-0.12293 0.03125-0.21875a1.936 1.936 0 0 0 -0.9375 -2.0625c-3.032-1.74-5.094-4.974-5.094-8.72 0-5.581 4.481-10.062 10.062-10.062zm0 2.125c-4.3599 0-7.9375 3.5776-7.9375 7.9375s3.5776 7.9375 7.9375 7.9375c2.4553 0 4.6743-1.1484 6.125-2.9062 0.5702-0.69092 1.0035-1.4742 1.3125-2.3125 0.05423-0.14708 0.09363-0.24368 0.125-0.34375a1.936 1.936 0 0 0 0 -0.03125c0.07784-0.25025 0.18101-0.54794 0.25-0.9375 0.12504-0.69814 0.10222-0.74463 0-0.125 0.05896-0.35909 0.125-0.78707 0.125-1.2812 0-0.49418-0.06604-0.92216-0.125-1.2812 0.09689 0.60351 0.12191 0.5604 0-0.125-0.01408-0.07814-0.02158-0.1414-0.03125-0.1875-0.0022-0.0109 0.0023-0.02043 0-0.03125-0.087-0.415-0.229-0.781-0.343-1.094-0.31-0.838-0.743-1.621-1.313-2.312-1.451-1.758-3.67-2.907-6.125-2.907zm16 0c-2.4553 0-4.6743 1.1484-6.125 2.9062-0.5702 0.69092-1.0035 1.4742-1.3125 2.3125-0.11402 0.31139-0.27776 0.7185-0.375 1.2188-0.0023 0.01174 0.0022 0.0194 0 0.03125-0.04049 0.23739-0.06176 0.41532-0.0625 0.46875-0.04425 0.29816-0.0625 0.62402-0.0625 1s0.01825 0.70184 0.0625 1c0.000742 0.05343 0.02202 0.23138 0.0625 0.46875 0.0022 0.01185-0.0023 0.01951 0 0.03125 0.09725 0.50026 0.26099 0.90737 0.375 1.2188 0.30901 0.83827 0.7423 1.6216 1.3125 2.3125 1.4507 1.7579 3.6697 2.9062 6.125 2.9062 4.3599 0 7.9375-3.5776 7.9375-7.9375s-3.5776-7.9375-7.9375-7.9375zm-16 1.937c1.864 0 3.5245 0.85402 4.625 2.1875 0.42797 0.51858 0.76324 1.1077 1 1.75 0.10094 0.27569 0.19006 0.55081 0.25 0.84375 0.01086 0.05217 0.02176 0.10358 0.03125 0.15625 0.0054 0.03036-0.0049 0.06323 0 0.09375 0.052 0.316 0.094 0.638 0.094 0.969 0 0.3307-0.04189 0.65292-0.09375 0.96875-0.005 0.03031 0.0054 0.0636 0 0.09375-0.04415 0.24929-0.11359 0.48111-0.1875 0.71875-0.02933 0.09358-0.06 0.18971-0.09375 0.28125-0.23676 0.64226-0.57203 1.2314-1 1.75-1.1 1.334-2.761 2.188-4.625 2.188-3.3137 0-6-2.6863-6-6s2.6863-6 6-6zm16 0c3.3137 0 6 2.6863 6 6s-2.6863 6-6 6c-1.864 0-3.5245-0.85402-4.625-2.1875-0.42797-0.51858-0.76324-1.1077-1-1.75-0.11186-0.30549-0.21996-0.61105-0.28125-0.9375-0.0095-0.04992 0.0083-0.1059 0-0.15625-0.052-0.316-0.094-0.638-0.094-0.969 0-0.3307 0.04189-0.65292 0.09375-0.96875 0.0083-0.05035-0.0095-0.10633 0-0.15625 0.06129-0.32645 0.16939-0.63201 0.28125-0.9375 0.23676-0.64226 0.57203-1.2314 1-1.75 1.1-1.334 2.761-2.188 4.625-2.188zm-16 2c-2.2091 0-4 1.7909-4 4s1.7909 4 4 4 4-1.7909 4-4-1.7909-4-4-4zm16 0c-2.2091 0-4 1.7909-4 4s1.7909 4 4 4 4-1.7909 4-4-1.7909-4-4-4zm-16 1.9375c1.1629 0 2.0625 0.89957 2.0625 2.0625s-0.89957 2.0625-2.0625 2.0625-2.0625-0.89957-2.0625-2.0625 0.89957-2.0625 2.0625-2.0625zm16 0c1.1629 0 2.0625 0.89957 2.0625 2.0625s-0.89957 2.0625-2.0625 2.0625-2.0625-0.89957-2.0625-2.0625 0.89957-2.0625 2.0625-2.0625z" fill="url(#linearGradient3093-0)"/>
   <path id="path5025" opacity=".5" d="m38 30c-6.6274 0-12 5.3726-12 12 0 4.4567 2.4537 8.3365 6.0625 10.406-0.039 0.196-0.062 0.386-0.062 0.594v2.0312c-0.163-0.026-0.327-0.031-0.5-0.031-1.385 0-2.5 0.892-2.5 2s1.115 2 2.5 2c0.17312 0 0.33696-0.0047 0.5-0.03125v6.031c0 1.662 1.338 3 3 3h1 3.5625l-3.1875 4.1875c-0.562 0.729 0.264 1.819 1.375 1.812h9 9.0312c1.1106 0.0067 1.937-1.0826 1.375-1.8125l-3.187-4.188h4.031 1c1.662 0 3-1.338 3-3v-3.0312h0.40625l5.1562 3.5938c0.48553 0.43108 1.1093 0.43411 1.5938 0 0.48441-0.43408 0.81119-1.2889 0.8125-2.1562v-4.9375-3.9375c0.01059-1.4204-0.90359-2.6814-1.8125-2.5-0.20856 0.0426-0.41157 0.14945-0.59375 0.3125l-5.1562 3.625h-0.40625v-2.969c0-0.623-0.177-1.209-0.5-1.688 2.731-2.196 4.5-5.532 4.5-9.312 0-6.627-5.373-12-12-12-3.078 0-5.877 1.154-8 3.062-2.123-1.908-4.922-3.062-8-3.062zm0 1.0312c2.819 0 5.3714 1.0675 7.3125 2.8125a1.037 1.037 0 0 0 1.375 0c1.9411-1.745 4.4935-2.8125 7.3125-2.8125 6.067 0 10.969 4.9017 10.969 10.969 0 3.4565-1.6231 6.4874-4.125 8.5a1.037 1.037 0 0 0 -0.219 1.406c0.20195 0.29941 0.34375 0.66699 0.34375 1.0938v2.9688a1.037 1.037 0 0 0 1.031 1.031h0.40625a1.037 1.037 0 0 0 0.594 -0.188l5.1562-3.625a1.037 1.037 0 0 0 0.094 -0.062c0.05173-0.0463 0.07892-0.0575 0.09375-0.0625-0.0045 0.000901 0.03433-0.000508 0.03125 0-0.04004 0.0066 0.0076-0.02933 0.1875 0.21875 0.19369 0.26716 0.37862 0.76449 0.375 1.25v3.9375 4.9375c-0.000917 0.60792-0.3156 1.2378-0.46875 1.375-0.15314 0.13724-0.06115 0.13993-0.21875 0a1.037 1.037 0 0 0 -0.09375 -0.0625l-5.156-3.593a1.037 1.037 0 0 0 -0.59375 -0.1875h-0.40625a1.037 1.037 0 0 0 -1.0312 1.0312v3.0312c0 1.1055-0.86324 1.9688-1.9688 1.9688h-1-4.0312a1.037 1.037 0 0 0 -0.8125 1.6562l3.125 4.125c-0.07126 0.09394-0.28521 0.22005-0.5 0.21875h-9.0312-9c-0.21478 0.0013-0.42874-0.12481-0.5-0.21875l3.125-4.125a1.037 1.037 0 0 0 -0.8125 -1.6562h-3.5625-1c-1.1055 0-1.9688-0.86324-1.9688-1.9688v-6.0312a1.037 1.037 0 0 0 -1.1875 -1.0312c-0.07343 0.01196-0.18939 0.03125-0.34375 0.03125-0.93981 0-1.4688-0.55637-1.4688-0.96875s0.52894-0.96875 1.4688-0.96875c0.1544 0 0.2704 0.0193 0.34375 0.03125a1.037 1.037 0 0 0 1.1875 -1.0312v-2.0312c0-0.13232 0.03355-0.23282 0.0625-0.375a1.037 1.037 0 0 0 -0.5 -1.125c-3.2997-1.8924-5.5625-5.4239-5.5625-9.5 0-6.067 4.9017-10.969 10.969-10.969zm0 3.9375c-3.8741 0-7.0312 3.1572-7.0312 7.0312 0 3.8741 3.1572 7.0312 7.0312 7.0312 2.1807 0 4.1494-1.0017 5.4375-2.5625 0.50415-0.61089 0.88079-1.3153 1.1562-2.0625 0.04472-0.12129 0.09458-0.21544 0.125-0.3125 0.07601-0.2444 0.16129-0.51933 0.21875-0.84375 0.01376-0.07682-0.0074-0.07461 0-0.125 0.05566-0.339 0.09375-0.70674 0.09375-1.125 0-0.34403-0.02238-0.64971-0.0625-0.9375 0.0023-0.02223 0.0027-0.1219-0.03125-0.3125-0.01318-0.07312-0.05215-0.13778-0.0625-0.1875h0.03125c-0.075-0.365-0.202-0.668-0.312-0.968-0.276-0.747-0.652-1.452-1.156-2.063-1.289-1.561-3.257-2.562-5.438-2.562zm16 0c-2.1807 0-4.1494 1.0017-5.4375 2.5625-0.50415 0.61089-0.88079 1.3153-1.1562 2.0625-0.11445 0.31257-0.26331 0.66531-0.34375 1.0938-0.08059 0.42346-0.05046 0.49359 0 0.1875-0.05566 0.339-0.09375 0.70674-0.09375 1.125s0.03809 0.786 0.09375 1.125c-0.05045-0.30604-0.08058-0.23593 0 0.1875 0.08044 0.42845 0.22931 0.78119 0.34375 1.0938 0.27546 0.74725 0.6521 1.4516 1.1562 2.0625 1.2881 1.5608 3.2568 2.5625 5.4375 2.5625 3.8741 0 7.0312-3.1572 7.0312-7.0312 0-3.8741-3.1572-7.0312-7.0312-7.0312zm-16 1.032c1.864 0 3.5245 0.85402 4.625 2.1875 0.42797 0.51858 0.76324 1.1077 1 1.75 0.10094 0.27569 0.19006 0.55081 0.25 0.84375 0.01086 0.05217 0.02176 0.10358 0.03125 0.15625 0.0054 0.03036-0.0049 0.06323 0 0.09375 0.052 0.316 0.094 0.638 0.094 0.969 0 0.3307-0.04189 0.65292-0.09375 0.96875-0.005 0.03031 0.0054 0.0636 0 0.09375-0.04415 0.24929-0.11359 0.48111-0.1875 0.71875-0.02933 0.09358-0.06 0.18971-0.09375 0.28125-0.23676 0.64226-0.57203 1.2314-1 1.75-1.1 1.334-2.761 2.188-4.625 2.188-3.3137 0-6-2.6863-6-6s2.6863-6 6-6zm16 0c3.3137 0 6 2.6863 6 6s-2.6863 6-6 6c-1.864 0-3.5245-0.85402-4.625-2.1875-0.42797-0.51858-0.76324-1.1077-1-1.75-0.11186-0.30549-0.21996-0.61105-0.28125-0.9375-0.0095-0.04992 0.0083-0.1059 0-0.15625-0.052-0.316-0.094-0.638-0.094-0.969 0-0.3307 0.04189-0.65292 0.09375-0.96875 0.0083-0.05035-0.0095-0.10633 0-0.15625 0.06129-0.32645 0.16939-0.63201 0.28125-0.9375 0.23676-0.64226 0.57203-1.2314 1-1.75 1.1-1.334 2.761-2.188 4.625-2.188zm-16 2c-2.2091 0-4 1.7909-4 4s1.7909 4 4 4 4-1.7909 4-4-1.7909-4-4-4zm16 0c-2.2091 0-4 1.7909-4 4s1.7909 4 4 4 4-1.7909 4-4-1.7909-4-4-4zm-16 1.0312c1.6488 0 2.9688 1.32 2.9688 2.9688s-1.32 2.9688-2.9688 2.9688-2.9688-1.32-2.9688-2.9688 1.32-2.9688 2.9688-2.9688zm16 0c1.6488 0 2.9688 1.32 2.9688 2.9688s-1.32 2.9688-2.9688 2.9688-2.9688-1.32-2.9688-2.9688 1.32-2.9688 2.9688-2.9688z" fill="url(#linearGradient3093-0)"/>
   <path id="path5016" d="m38 30c-6.6274 0-12 5.3726-12 12 0 0.19613 0.02186 0.39996 0.03125 0.59375 0.218-6.436 5.48-11.594 11.969-11.594 3.0781 0 5.8765 1.1536 8 3.0625 2.123-1.908 4.922-3.062 8-3.062 6.436 0 11.671 5.075 11.969 11.438 0.005-0.146 0.031-0.291 0.031-0.438 0-6.627-5.373-12-12-12-3.078 0-5.877 1.154-8 3.062-2.123-1.908-4.922-3.062-8-3.062zm0 8c-2.2091 0-4 1.7909-4 4 0 0.17012 0.04189 0.33547 0.0625 0.5 0.248-1.972 1.899-3.5 3.938-3.5s3.6904 1.528 3.9375 3.5c0.02-0.165 0.062-0.33 0.062-0.5 0-2.209-1.791-4-4-4zm16 0c-2.2091 0-4 1.7909-4 4 0 0.17012 0.04189 0.33547 0.0625 0.5 0.248-1.972 1.899-3.5 3.938-3.5s3.6904 1.528 3.9375 3.5c0.02-0.165 0.062-0.33 0.062-0.5 0-2.209-1.791-4-4-4zm-10.062 4.5c-0.01679 0.15559-0.0062 0.31637-0.03125 0.46875-0.005 0.03031 0.0054 0.0636 0 0.09375-0.04415 0.24929-0.11359 0.48111-0.1875 0.71875-0.02933 0.09358-0.06 0.18971-0.09375 0.28125-0.23676 0.64226-0.57203 1.2314-1 1.75-1.101 1.334-2.762 2.188-4.626 2.188-3.107 0-5.661-2.349-5.969-5.375-0.007 0.123-0.031 0.251-0.031 0.375 0 3.3137 2.6863 6 6 6 1.864 0 3.5245-0.85402 4.625-2.1875 0.42797-0.51858 0.76324-1.1077 1-1.75 0.03375-0.09154 0.06442-0.18767 0.09375-0.28125 0.07391-0.23764 0.14335-0.46946 0.1875-0.71875 0.0054-0.03015-0.005-0.06344 0-0.09375 0.052-0.316 0.094-0.638 0.094-0.969 0-0.171-0.044-0.333-0.062-0.5zm4.125 0c-0.019 0.167-0.063 0.329-0.063 0.5 0 0.3307 0.04189 0.65292 0.09375 0.96875 0.0083 0.05035-0.0095 0.10633 0 0.15625 0.06129 0.32645 0.16939 0.63201 0.28125 0.9375 0.23676 0.64226 0.57203 1.2314 1 1.75 1.1 1.334 2.761 2.188 4.625 2.188 3.3137 0 6-2.6863 6-6 0-0.12447-0.02378-0.25241-0.03125-0.375-0.308 3.026-2.862 5.375-5.969 5.375-1.864 0-3.5245-0.85402-4.625-2.1875-0.42797-0.51858-0.76324-1.1077-1-1.75-0.11186-0.30549-0.21996-0.61105-0.28125-0.9375-0.0095-0.04992 0.0083-0.1059 0-0.15625-0.025-0.153-0.015-0.313-0.032-0.469zm13.781 9.5c-0.118 0.102-0.223 0.215-0.344 0.312 0.323 0.479 0.5 1.065 0.5 1.688v-1c0-0.34696-0.05187-0.68833-0.15625-1zm6.3125 0.03125c-0.20856 0.0426-0.41157 0.14945-0.59375 0.3125l-5.1562 3.625h-0.40625v1h0.40625l5.1562-3.625c0.18218-0.16305 0.38519-0.2699 0.59375-0.3125 0.90891-0.18138 1.8231 1.0796 1.8125 2.5v-1c0.01059-1.4204-0.90359-2.6814-1.8125-2.5zm-36.156 1.344v0.625c0-0.20775 0.02267-0.3981 0.0625-0.59375-0.02-0.011-0.042-0.019-0.062-0.031zm-0.5 1.625c-1.385 0-2.5 0.892-2.5 2 0 0.17312 0.04253 0.34 0.09375 0.5 0.276-0.864 1.237-1.5 2.406-1.5 0.17312 0 0.33696 0.0047 0.5 0.03125v-1c-0.163-0.026-0.327-0.031-0.5-0.031zm7.3125 14-2.4375 3.1875c-0.24126 0.31328-0.21431 0.7006-0.03125 1.0312 0.0085-0.01224 0.02197-0.0192 0.03125-0.03125l3.188-4.188h-0.75zm15.156 0 3.1875 4.1875c0.0093 0.01205 0.02272 0.01901 0.03125 0.03125 0.18306-0.33064 0.21001-0.71796-0.03125-1.0312l-2.437-3.188h-0.75z" fill="url(#linearGradient3093-0)"/>
   <path id="path5051" opacity=".2" d="m38 36c-3.3137 0-6 2.6863-6 6 0 0.12447 0.02378 0.25241 0.03125 0.375 0.308-3.026 2.862-5.375 5.969-5.375 1.864 0 3.5245 0.85402 4.625 2.1875 0.42797 0.51858 0.76324 1.1077 1 1.75 0.10094 0.27569 0.19006 0.55081 0.25 0.84375 0.01086 0.05217 0.02176 0.10358 0.03125 0.15625 0.0054 0.03036-0.0049 0.06323 0 0.09375 0.02502 0.15238 0.01446 0.31316 0.03125 0.46875 0.019-0.167 0.063-0.329 0.063-0.5 0-0.3307-0.04189-0.65292-0.09375-0.96875-0.0049-0.03052 0.0054-0.06339 0-0.09375-0.0095-0.05266-0.02039-0.10408-0.03125-0.15625-0.05994-0.29294-0.14906-0.56806-0.25-0.84375-0.23676-0.64226-0.57203-1.2314-1-1.75-1.1-1.333-2.761-2.187-4.625-2.187zm16 0c-1.864 0-3.5245 0.85402-4.625 2.1875-0.42797 0.51858-0.76324 1.1077-1 1.75-0.11186 0.30549-0.21996 0.61105-0.28125 0.9375-0.0095 0.04992 0.0083 0.1059 0 0.15625-0.052 0.316-0.094 0.638-0.094 0.969 0 0.17115 0.04449 0.33311 0.0625 0.5 0.01679-0.15559 0.0062-0.31637 0.03125-0.46875 0.0083-0.05035-0.0095-0.10633 0-0.15625 0.06129-0.32645 0.16939-0.63201 0.28125-0.9375 0.23676-0.64226 0.57203-1.2314 1-1.75 1.1-1.334 2.761-2.188 4.625-2.188 3.1066 0 5.6615 2.3495 5.9688 5.375 0.007-0.123 0.031-0.251 0.031-0.375 0-3.314-2.686-6-6-6zm11.969 6.4375c-0.131 3.598-1.844 6.763-4.469 8.874 0.143 0.213 0.261 0.44 0.344 0.688 2.526-2.195 4.156-5.388 4.156-9 0-0.191-0.022-0.373-0.031-0.562zm-31.907 0.062c-0.02 0.165-0.062 0.33-0.062 0.5 0 2.2091 1.7909 4 4 4s4-1.7909 4-4c0-0.17012-0.04189-0.33547-0.0625-0.5-0.248 1.972-1.899 3.5-3.938 3.5s-3.69-1.528-3.938-3.5zm16 0c-0.02 0.165-0.062 0.33-0.062 0.5 0 2.2091 1.7909 4 4 4s4-1.7909 4-4c0-0.17012-0.04189-0.33547-0.0625-0.5-0.248 1.972-1.899 3.5-3.938 3.5s-3.69-1.528-3.938-3.5zm-24.031 0.094c-0.004 0.137-0.031 0.268-0.031 0.406 0 4.4316 2.4245 8.2967 6 10.375v-0.375c0-0.20775 0.02267-0.3981 0.0625-0.59375-3.45-1.9787-5.8272-5.6027-6.0312-9.8125zm3.063 14.906c-0.051 0.16-0.094 0.327-0.094 0.5 0 1.108 1.115 2 2.5 2 0.17312 0 0.33696-0.0047 0.5-0.03125v-1c-0.163 0.026-0.327 0.031-0.5 0.031-1.169 0-2.13-0.636-2.406-1.5zm32.906 4.469v1h0.40625l5.1562 3.5938c0.48553 0.43108 1.1093 0.43411 1.5938 0 0.48441-0.43408 0.81119-1.2889 0.8125-2.1562v-1c-0.0013 0.86733-0.32809 1.7222-0.8125 2.1562-0.48441 0.43411-1.1082 0.43108-1.5938 0l-5.1562-3.5938h-0.40625zm-30 3.031v1c0 1.662 1.338 3 3 3h1 2.8125l0.75-1h-3.562-1c-1.662 0-3-1.338-3-3zm30 0c0 1.662-1.338 3-3 3h-1-4.0312l0.75 1h3.2812 1c1.662 0 3-1.338 3-3v-1zm-25.656 8.219c-0.508 0.729 0.314 1.788 1.406 1.781h9 9.0312c1.0923 0.0066 1.9142-1.0522 1.4062-1.7812-0.243 0.439-0.772 0.785-1.406 0.781h-9.0312-9c-0.6339 0.0038-1.1628-0.3416-1.4062-0.78125z" fill="#fff"/>
  </g>
 </g>
</svg>
