<?xml version="1.0" encoding="UTF-8" standalone="no"?>
<!-- Created with Inkscape (http://www.inkscape.org/) -->
<svg id="svg2" xmlns:rdf="http://www.w3.org/1999/02/22-rdf-syntax-ns#" xmlns="http://www.w3.org/2000/svg" height="96" width="96" version="1.1" xmlns:cc="http://creativecommons.org/ns#" xmlns:xlink="http://www.w3.org/1999/xlink" xmlns:dc="http://purl.org/dc/elements/1.1/">
 <defs id="defs4">
  <linearGradient id="linearGradient3613-3" y2="138.66" gradientUnits="userSpaceOnUse" x2="48" y1="20.221" x1="48">
   <stop id="stop3739-10" stop-color="#fff" offset="0"/>
   <stop id="stop3741-2" stop-color="#fff" stop-opacity="0" offset="1"/>
  </linearGradient>
  <clipPath id="clipPath3613-29">
   <rect id="rect3615-1" rx="6" ry="6" height="84" width="84" y="6" x="6" fill="#fff"/>
  </clipPath>
  <filter id="filter3794-0" height="1.384" width="1.384" color-interpolation-filters="sRGB" y="-.192" x="-.192">
   <feGaussianBlur id="feGaussianBlur3796-8" stdDeviation="5.28"/>
  </filter>
  <clipPath id="clipPath3613-25">
   <rect id="rect3615-14" rx="6" ry="6" height="84" width="84" y="6" x="6" fill="#fff"/>
  </clipPath>
  <filter id="filter3794-6" height="1.384" width="1.384" color-interpolation-filters="sRGB" y="-.192" x="-.192">
   <feGaussianBlur id="feGaussianBlur3796-26" stdDeviation="5.28"/>
  </filter>
  <clipPath id="clipPath3860">
   <rect id="rect3862" rx="6" ry="6" height="72" width="84" y="18" x="6" fill="#f0f"/>
  </clipPath>
  <filter id="filter3870" height="1.3943" width="1.3312" color-interpolation-filters="sRGB" y="-.19716" x="-.16559">
   <feGaussianBlur id="feGaussianBlur3872" stdDeviation="5.1703125"/>
  </filter>
  <linearGradient id="linearGradient5696" y2="81.481" gradientUnits="userSpaceOnUse" x2="48.022" y1="22.933" x1="48.022">
   <stop id="stop3876" stop-color="#fff" offset="0"/>
   <stop id="stop3878" stop-color="#fff" stop-opacity="0" offset="1"/>
  </linearGradient>
  <linearGradient id="linearGradient4640" y2="48.005" gradientUnits="userSpaceOnUse" x2="6.1872" gradientTransform="translate(0 956.36)" y1="48.005" x1="93.008">
   <stop id="stop4636" stop-color="#be8e4a" stop-opacity=".076923" offset="0"/>
   <stop id="stop4638" stop-color="#a67c25" offset="1"/>
  </linearGradient>
  <linearGradient id="linearGradient3098" y2="27.531" xlink:href="#linearGradient3699-0" gradientUnits="userSpaceOnUse" x2="48" y1="76" x1="48"/>
  <linearGradient id="linearGradient3699-0">
   <stop id="stop3701-49" stop-color="#aa7932" stop-opacity=".78431" offset="0"/>
   <stop id="stop3703-0" stop-color="#aa7932" stop-opacity=".39216" offset="1"/>
  </linearGradient>
 </defs>
 <metadata id="metadata7">
  <rdf:RDF>
   <cc:Work rdf:about="">
    <dc:format>image/svg+xml</dc:format>
    <dc:type rdf:resource="http://purl.org/dc/dcmitype/StillImage"/>
    <dc:title/>
   </cc:Work>
  </rdf:RDF>
 </metadata>
 <g id="layer1" transform="translate(0 -956.36)">
  <rect id="rect5263-0" fill-opacity=".019608" ry="12.724" height="89.978" width="89.978" y="959.35" x="2.9998"/>
  <rect id="rect5261-6" fill-opacity=".039216" ry="12.552" height="88.762" width="88.762" y="959.96" x="3.6078"/>
  <rect id="rect5259-9" fill-opacity=".078431" ry="12.38" height="87.546" width="87.546" y="960.57" x="4.2157"/>
  <rect id="rect5257-5" fill-opacity=".15686" ry="12.208" height="86.33" width="86.33" y="961.18" x="4.8237"/>
  <path id="rect2419-5" d="m17.469 961.77c-6.2512 0-11.355 4.7568-11.969 10.844v63.469c0.61364 6.0834 5.7175 10.812 11.969 10.812h61.031c6.4543 0 11.671-5.0367 12-11.406v-62.281c-0.32117-6.3771-5.5404-11.438-12-11.438h-61.031z" fill="#cc993d"/>
  <rect id="rect3171" ry="12" stroke="#fff" stroke-linecap="round" stroke-width=".5" fill="url(#linearGradient3613-3)" rx="12" transform="matrix(1.0149 0 0 1.0238 -.83801 955.22)" width="66" opacity=".05" clip-path="url(#clipPath3613-29)" height="66" filter="url(#filter3794-0)" y="15" x="15"/>
  <path id="path5865" d="m17.469 961.77c-6.2512 0-11.355 4.7568-11.969 10.844v63.469c0.07233 0.717 0.21463 1.4198 0.40625 2.0937-0.14675-1.3295-0.26905-2.6965-0.34375-4.0937v-59.281c0-2.3816 0.62452-7.4626 6.625-7.4688h12.75c4.9632 0 7.6402-1.0079 10.125 3.7188 3.0657 4.2041 4.006 4.8869 9.5625 4.2812h40.656c3.7739-0.0442 5.1676 1.5874 5.2188 5.4375v-7.5625c-0.32117-6.3771-5.5404-11.438-12-11.438h-61.031zm73.031 69.73c-0.04406 2.2078-0.18649 4.3503-0.40625 6.4063 0.21124-0.7976 0.36211-1.6143 0.40625-2.4688v-3.9375zm-1.0625 8.2813c-0.13416 0.2981-0.28057 0.5904-0.4375 0.875 0.1575-0.2841 0.30285-0.5773 0.4375-0.875zm-0.438 0.9c-0.15693 0.2845-0.32144 0.5427-0.5 0.8125 0.17482-0.2638 0.34595-0.5347 0.5-0.8125zm-81.906 0.25c0.15696 0.2676 0.32348 0.5274 0.5 0.7812-0.1807-0.2598-0.33982-0.5069-0.5-0.7812zm76.188 4.9375c-0.26128 0.1134-0.54176 0.2175-0.8125 0.3125 0.27423-0.096 0.5479-0.198 0.8125-0.3125zm-69.625 0.375c0.2786 0.093 0.55637 0.1773 0.84375 0.25-0.28437-0.072-0.56799-0.1586-0.84375-0.25zm67.625 0.2812c-0.24437 0.058-0.4999 0.1135-0.75 0.1563 0.25388-0.043 0.50195-0.097 0.75-0.1563z" fill="url(#linearGradient4640)"/>
  <g id="layer5" transform="matrix(1.0168 0 0 1.021 -.61038 955.51)">
   <rect id="rect3171-4" height="66" stroke="#fff" stroke-linecap="round" stroke-width=".5" fill="url(#linearGradient3613-3)" rx="12" ry="12" width="66" opacity=".1" clip-path="url(#clipPath3613-25)" filter="url(#filter3794-6)" y="15" x="15"/>
  </g>
  <path id="path7506" opacity=".55020" d="m28.25 966.31c-0.98771 0.0223-2.0717 0.10149-3.3125 0.10149h-12.75c-6.0005 0.007-6.625 6.3566-6.625 8.9362v0.81233c0-2.5796 0.62452-8.0829 6.625-8.0895h12.75c4.9632 0 7.7652-0.96667 10.125 3.3403 3.0657 4.5536 4.006 5.293 9.5625 4.6371h40.656c3.7739-0.0479 5.1676 1.7193 5.2188 5.8894v-0.81234c-0.05112-4.1701-1.4448-5.9373-5.2188-5.8894h-40.656c-5.5565 0.65596-6.4968-0.0835-9.5625-4.6371-1.8636-3.8396-3.8494-4.3555-6.8125-4.2885z" fill="#f9f9f9"/>
  <rect id="rect3634" opacity="0" height="1" width="84.972" y="973.33" x="5.5655"/>
  <path id="path7563" opacity=".20482" d="m35.742 968.8c0.0231 0.043 0.0394 0.081 0.0625 0.125 0.034 0.047 0.0603 0.079 0.0937 0.125h45.625c2.0566 0 3.7188 1.6621 3.7188 3.7187v-0.25c0-2.0566-1.6621-3.7187-3.7188-3.7187h-45.781z" fill-opacity=".58962" fill="#fff"/>
  <path id="path7516" opacity=".51807" d="m35.742 969.05c0.0231 0.043 0.0394 0.081 0.0625 0.125 0.0241 0.033 0.0386 0.061 0.0625 0.094h45.656c2.0566 0 3.7188 1.6621 3.7188 3.7187v-0.2187c0-2.0566-1.6621-3.7188-3.7188-3.7188l-45.781 0.0001z" fill-opacity=".58962" fill="#fff"/>
  <path id="path7514" opacity=".74699" d="m35.742 969.27c0.0231 0.043 0.0394 0.081 0.0625 0.125 0.0335 0.046 0.0607 0.08 0.0937 0.125h45.625c0.25708 0 0.50773 0.013 0.75 0.063 0.24227 0.049 0.46498 0.1248 0.6875 0.2188 0.23229 0.096 0.45057 0.2049 0.65625 0.3437 0.2043 0.138 0.35868 0.294 0.53125 0.4688 0.32871 0.3328 0.62762 0.7185 0.8125 1.1562 0.004 0.01-0.004 0.023 0 0.031 0.18093 0.4379 0.28125 0.9336 0.28125 1.4375v-0.25c0-2.0566-1.6621-3.7187-3.7188-3.7187h-45.781z" fill-opacity=".58962" fill="#fff"/>
  <path id="rect7493" fill-opacity=".83019" fill="#fff" d="m35.751 969.5c0.0231 0.043 0.0394 0.081 0.0625 0.125 3.0657 4.2041 4.006 4.8869 9.5625 4.2813h39.875v-0.6875c0-2.0567-1.6621-3.7188-3.7188-3.7188h-45.781z"/>
  <g id="g5676" transform="matrix(.94641 0 0 .84994 2.9331 964.94)">
   <path id="path5678" opacity=".15" filter="url(#filter3870)" d="m15.969 22.531c-2.8459 0.0043-5.4332 2.5916-5.4375 5.4375v48.062c0.0043 2.8459 2.5916 5.4332 5.4375 5.4375h64.062c2.8459-0.0043 5.4332-2.5916 5.4375-5.4375v-48.062c-0.0043-2.8459-2.5916-5.4332-5.4375-5.4375z" clip-path="url(#clipPath3860)" fill="url(#linearGradient5696)"/>
  </g>
  <path id="rect5265-0" d="m5.3323 1029.9v5.0663c0 6.668 5.3645 12.032 12.032 12.032h61.049c6.668 0 12.032-5.3645 12.032-12.032v-5.0663c0 6.6681-5.3645 12.032-12.032 12.032h-61.049c-6.668 0-12.032-5.3643-12.032-12.032z" fill-opacity=".11765"/>
  <path id="path5252-0" d="m5.3323 1033.9v1.0133c0 6.668 5.3645 12.032 12.032 12.032h61.049c6.668 0 12.032-5.3645 12.032-12.032v-1.0133c0 6.6681-5.3645 12.032-12.032 12.032h-61.049c-6.668 0-12.032-5.3644-12.032-12.032z" fill-opacity=".098039"/>
  <g id="layer6" transform="translate(.16974 956.8)">
   <path id="path4873" opacity=".05" d="m47 26c-1.6242 0-3 1.3758-3 3v6.1875c-2.3648 1.3926-4 3.8895-4 6.8125 0 1.309 0.40832 2.5048 0.96875 3.5938l-1.907 6.406h-3.062c-1.6242 0-3 1.3758-3 3s1.3758 3 3 3h1.2812l-1.4688 4.875c-1.1526 3.8638-1.7511 7.4731-1.7812 10.375-0.01508 1.4509 0.07724 2.7072 0.4375 3.8438s1.1031 2.3865 2.5312 2.8125a1.9943 1.9943 0 0 0 2.469 -1.345l6.125-20.562h4.8438l6.125 20.562a1.9943 1.9943 0 0 0 2.4688 1.3438c1.4282-0.42603 2.171-1.6759 2.5312-2.8125 0.36-1.137 0.452-2.393 0.437-3.844-0.03-2.902-0.629-6.511-1.781-10.375l-1.469-4.875h1.25c1.6242 0 3-1.3758 3-3s-1.3758-3-3-3h-3.031l-1.907-6.438c0.552-1.086 0.938-2.269 0.938-3.562 0-2.923-1.635-5.42-4-6.812v-6.188c0-1.6242-1.3758-3-3-3h-2zm0 2h2c0.554 0 1 0.446 1 1v7.3438c2.3312 0.82325 4 3.0433 4 5.6562 0 1.2672-0.39198 2.4377-1.0625 3.4062l2.562 8.594h4.5c0.554 0 1 0.446 1 1s-0.446 1-1 1h-3.9062l2.2188 7.4375c2.217 7.432 2.279 13.929 0.156 14.562l-6.563-22h-7.781l-6.563 22c-2.123-0.633-2.06-7.13 0.157-14.562l2.219-7.438h-3.938c-0.554 0-1-0.446-1-1s0.446-1 1-1h4.5312l2.5625-8.5625c-0.686-0.976-1.094-2.155-1.094-3.438 0-2.613 1.6688-4.833 4-5.6562v-7.344c0-0.554 0.446-1 1-1zm1 10c-2.2091 0-4 1.7909-4 4 0 0.32165 0.05331 0.63782 0.125 0.9375 0.0446 0.18642 0.0872 0.35625 0.15625 0.53125 0.07164 0.18183 0.15362 0.36358 0.25 0.53125 0.02663 0.04695 0.06532 0.07928 0.09375 0.125 0.02436 0.03886 0.03686 0.08705 0.0625 0.125 0.04673 0.06947 0.10537 0.12129 0.15625 0.1875 0.11239 0.14626 0.24374 0.30856 0.375 0.4375 0.10208 0.09862 0.20041 0.19385 0.3125 0.28125 0.04161 0.03271 0.08205 0.0627 0.125 0.09375 0.06081 0.04366 0.12421 0.08474 0.1875 0.125 0.16649 0.10591 0.34925 0.20049 0.53125 0.28125 0.02115 0.0094 0.04116 0.02225 0.0625 0.03125 0.22609 0.09492 0.4726 0.1664 0.71875 0.21875 0.27 0.058 0.557 0.094 0.844 0.094 0.30044 0 0.59348-0.0622 0.875-0.125 0.18588-0.04146 0.35654-0.0908 0.53125-0.15625 0.34941-0.13091 0.67525-0.31478 0.96875-0.53125 0.14675-0.10823 0.30752-0.21673 0.4375-0.34375s0.23242-0.26218 0.34375-0.40625c0.10277-0.13299 0.19589-0.2914 0.28125-0.4375 0.007-0.01207 0.02435-0.01911 0.03125-0.03125 0.08629-0.15142 0.18386-0.30503 0.25-0.46875 0.07263-0.18034 0.11026-0.37026 0.15625-0.5625 0.072-0.3 0.125-0.616 0.125-0.938 0-2.209-1.791-4-4-4zm0 2c1.1315 0 2 0.86854 2 2 0 0.10132-0.0126 0.26017-0.0625 0.46875-0.05787 0.2419-0.08196 0.32956-0.0625 0.28125 0.02386-0.05906-0.0335 0.02487-0.125 0.1875-0.0087 0.01474 0.0088 0.0157 0 0.03125-0.01539 0.02478-0.01549 0.0041-0.03125 0.03125-0.0834 0.14275-0.13431 0.2308-0.125 0.21875-0.11839 0.15321-0.18863 0.18861-0.1875 0.1875 0.05196-0.05078-0.0244 0.04416-0.21875 0.1875-0.16025 0.11819-0.31242 0.19143-0.46875 0.25-0.08344 0.03126-0.17028 0.069-0.28125 0.09375-0.268 0.059-0.413 0.062-0.438 0.062-0.11795 0-0.28178 0.0019-0.4375-0.03125-0.09296-0.01977-0.15289-0.0342-0.21875-0.0625 0.0055-0.0016-0.02771-0.02147-0.125-0.0625-0.01538-0.0066-0.01289 0.0081-0.03125 0-0.107-0.048-0.219-0.117-0.282-0.156-0.054-0.035-0.085-0.057-0.094-0.063-0.03-0.022-0.048-0.021-0.062-0.031-0.0033-0.0026-0.06029-0.06362-0.125-0.125-0.0081-0.0077 0.0092-0.02245 0-0.03125-0.009-0.009-0.098-0.103-0.187-0.219-0.048-0.062-0.066-0.059-0.094-0.094-0.032-0.048-0.019-0.042-0.032-0.063-0.015-0.024-0.018-0.01-0.031-0.031-0.014-0.024-0.019-0.01-0.031-0.031-0.01183-0.02058-0.04601-0.06368-0.0625-0.09375-0.0041-0.0071 0.0033-0.02548 0-0.03125-0.01279-0.02078-0.0618-0.093-0.0625-0.09375-0.0047-0.01123 0.0048-0.01917 0-0.03125-0.01-0.026-0.021-0.108-0.063-0.281-0.049-0.209-0.062-0.368-0.062-0.469 0-1.1315 0.86854-2 2-2zm-1.406 7.812-1.844 6.188h6.562l-1.843-6.188c-0.469 0.118-0.963 0.188-1.469 0.188-0.484 0-0.955-0.079-1.406-0.188zm1.406 2.188c0.01076 0 0.0205 0.000046 0.03125 0l0.625 2h-1.25l0.594-2z" fill="#fff"/>
   <path id="path4862" opacity=".1" d="m47 26.969c-1.1136 0-2.0312 0.91769-2.0312 2.0312v6.75c-2.3516 1.1427-4 3.4711-4 6.25 0 1.2883 0.39486 2.4639 1 3.5l-2.2188 7.4688h-3.75c-1.1136 0-2.0312 0.91769-2.0312 2.0312 0 1.1136 0.91769 2.0312 2.0312 2.0312h2.5312l-1.8125 6.0938c-1.1316 3.7933-1.7212 7.3517-1.75 10.125-0.01442 1.3867 0.09474 2.5797 0.40625 3.5625 0.31151 0.98278 0.87497 1.8892 1.875 2.1875a1.0427 1.0427 0 0 0 1.3125 -0.6875l6.3438-21.281h6.2188l6.3438 21.281a1.0427 1.0427 0 0 0 1.312 0.686c1-0.29831 1.5635-1.2047 1.875-2.1875 0.31151-0.98278 0.42067-2.1758 0.40625-3.5625-0.02883-2.7733-0.61844-6.3317-1.75-10.125l-1.812-6.094h2.5c1.1136 0 2.0312-0.91769 2.0312-2.0312 0-1.1136-0.91769-2.0312-2.0312-2.0312h-3.7188l-2.2188-7.5c0.592-1.031 0.969-2.199 0.969-3.469 0-2.7789-1.6484-5.1073-4-6.25v-6.75c0-1.1136-0.91769-2.0312-2.0312-2.0312h-2zm0 1.031h2c0.554 0 1 0.446 1 1v7.3438c2.3312 0.82325 4 3.0433 4 5.6562 0 1.2672-0.39198 2.4377-1.0625 3.4062l2.562 8.594h4.5c0.554 0 1 0.446 1 1s-0.446 1-1 1h-3.9062l2.2188 7.4375c2.217 7.432 2.279 13.929 0.156 14.562l-6.563-22h-7.781l-6.563 22c-2.123-0.633-2.06-7.13 0.157-14.562l2.219-7.438h-3.938c-0.554 0-1-0.446-1-1s0.446-1 1-1h4.5312l2.5625-8.5625c-0.686-0.976-1.094-2.155-1.094-3.438 0-2.613 1.6688-4.833 4-5.6562v-7.344c0-0.554 0.446-1 1-1zm1 10c-2.2091 0-4 1.7909-4 4 0 0.32165 0.05331 0.63782 0.125 0.9375 0.0446 0.18642 0.0872 0.35625 0.15625 0.53125 0.07164 0.18183 0.15362 0.36358 0.25 0.53125 0.02663 0.04695 0.06532 0.07928 0.09375 0.125 0.02436 0.03886 0.03686 0.08705 0.0625 0.125 0.04673 0.06947 0.10537 0.12129 0.15625 0.1875 0.11239 0.14626 0.24374 0.30856 0.375 0.4375 0.10208 0.09862 0.20041 0.19385 0.3125 0.28125 0.04161 0.03271 0.08205 0.0627 0.125 0.09375 0.06081 0.04366 0.12421 0.08474 0.1875 0.125 0.16649 0.10591 0.34925 0.20049 0.53125 0.28125 0.02115 0.0094 0.04116 0.02225 0.0625 0.03125 0.22609 0.09492 0.4726 0.1664 0.71875 0.21875 0.27 0.058 0.557 0.094 0.844 0.094 0.30044 0 0.59348-0.0622 0.875-0.125 0.18588-0.04146 0.35654-0.0908 0.53125-0.15625 0.34941-0.13091 0.67525-0.31478 0.96875-0.53125 0.14675-0.10823 0.30752-0.21673 0.4375-0.34375s0.23242-0.26218 0.34375-0.40625c0.10277-0.13299 0.19589-0.2914 0.28125-0.4375 0.007-0.01207 0.02435-0.01911 0.03125-0.03125 0.08629-0.15142 0.18386-0.30503 0.25-0.46875 0.07263-0.18034 0.11026-0.37026 0.15625-0.5625 0.072-0.3 0.125-0.616 0.125-0.938 0-2.209-1.791-4-4-4zm0 1.0312c1.6457 0 2.9688 1.3231 2.9688 2.9688 0 0.20645-0.03345 0.43545-0.09375 0.6875-0.0522 0.2182-0.10052 0.37671-0.125 0.4375-0.01758 0.04351-0.08398 0.13083-0.1875 0.3125-0.0078 0.01178 0.008 0.01833 0 0.03125-0.0072 0.01163-0.02394-0.0126-0.03125 0-0.08434 0.14435-0.14333 0.28659-0.1875 0.34375-0.11502 0.14885-0.18857 0.22122-0.25 0.28125-0.03485 0.03406-0.17211 0.12341-0.34375 0.25-0.22383 0.16508-0.47029 0.31316-0.71875 0.40625-0.12699 0.04758-0.22828 0.06102-0.375 0.09375-0.27426 0.06118-0.49972 0.125-0.65625 0.125-0.19849 0-0.41492-0.04908-0.625-0.09375-0.17148-0.03647-0.3305-0.0725-0.46875-0.125 0.0041-0.0019-0.01672-0.01194-0.0625-0.03125-0.01291-0.0051-0.01303 0.0081-0.03125 0-0.14268-0.06331-0.29413-0.14742-0.40625-0.21875-0.04976-0.03166-0.093-0.07146-0.125-0.09375-0.0084-0.0061-0.02364 0.0056-0.03125 0-0.02535-0.01857-0.04173-0.04617-0.0625-0.0625-0.056-0.044-0.148-0.12-0.25-0.219-0.068-0.066-0.181-0.182-0.282-0.313-0.126-0.164-0.138-0.222-0.094-0.156 0.116 0.171 0.083 0.138-0.062-0.094-0.038-0.061-0.043-0.065-0.062-0.093-0.062-0.107-0.129-0.225-0.188-0.375-0.038-0.097-0.082-0.227-0.125-0.406-0.06-0.253-0.094-0.482-0.094-0.688 0-1.6457 1.3231-2.9688 2.9688-2.9688zm-1.406 8.781-1.844 6.188h6.562l-1.843-6.188c-0.469 0.118-0.963 0.188-1.469 0.188-0.484 0-0.955-0.079-1.406-0.188zm0.75 1.125c0.22248 0.02581 0.41901 0.09375 0.65625 0.09375 0.25162 0 0.47609-0.06694 0.71875-0.09375l1.1875 4.0312h-3.75l1.1875-4.0312z" fill="#fff"/>
   <path id="rect2957" opacity=".9" d="m47 28c-0.554 0-1 0.446-1 1v7.3438c-2.331 0.823-4 3.043-4 5.656 0 1.2827 0.4081 2.4622 1.0938 3.4375l-2.563 8.562h-4.531c-0.554 0-1 0.446-1 1s0.446 1 1 1h3.9375l-2.2188 7.4375c-2.217 7.432-2.28 13.929-0.157 14.562l6.5625-22h7.7812l6.5625 22c2.124-0.633 2.062-7.13-0.156-14.562l-2.218-7.438h3.906c0.554 0 1-0.446 1-1s-0.446-1-1-1h-4.5l-2.5625-8.5938c0.67-0.968 1.062-2.139 1.062-3.406 0-2.613-1.669-4.833-4-5.656v-7.344c0-0.554-0.446-1-1-1h-2zm1 10c2.2091 0 4 1.7909 4 4 0 0.32165-0.05331 0.63782-0.125 0.9375-0.04599 0.19224-0.08362 0.38216-0.15625 0.5625-0.06614 0.16372-0.16371 0.31733-0.25 0.46875-0.0069 0.01214-0.02425 0.01918-0.03125 0.03125-0.08536 0.1461-0.17848 0.30451-0.28125 0.4375-0.11133 0.14407-0.21378 0.27923-0.34375 0.40625-0.12998 0.12702-0.29075 0.23552-0.4375 0.34375-0.2935 0.21646-0.61934 0.40034-0.96875 0.53125-0.174 0.065-0.345 0.115-0.531 0.156-0.282 0.063-0.575 0.125-0.875 0.125-0.287 0-0.574-0.036-0.844-0.094-0.246-0.052-0.492-0.124-0.718-0.218-0.022-0.01-0.042-0.022-0.063-0.032-0.182-0.081-0.365-0.175-0.531-0.281-0.064-0.04-0.127-0.081-0.188-0.125-0.043-0.031-0.083-0.061-0.125-0.094-0.112-0.087-0.21-0.182-0.312-0.281-0.132-0.129-0.263-0.291-0.375-0.437-0.051-0.067-0.11-0.119-0.156-0.188-0.026-0.038-0.039-0.086-0.063-0.125-0.028-0.046-0.067-0.078-0.094-0.125-0.096-0.168-0.178-0.349-0.25-0.531-0.069-0.175-0.111-0.345-0.156-0.531-0.072-0.3-0.125-0.616-0.125-0.938 0-2.2091 1.7909-4 4-4zm-1.4062 9.8125c0.451 0.109 0.922 0.188 1.406 0.188 0.5056 0 0.99968-0.06974 1.4688-0.1875l1.843 6.188h-6.562l1.844-6.188z" fill="url(#linearGradient3098)"/>
   <path id="path4832" opacity=".25" d="m47 28c-0.554 0-1 0.446-1 1v7.3438c-2.331 0.823-4 3.043-4 5.656 0 1.2827 0.4081 2.4622 1.0938 3.4375l-2.563 8.562h-4.531c-0.554 0-1 0.446-1 1s0.446 1 1 1h3.9375l-2.2188 7.4375c-2.217 7.432-2.28 13.929-0.157 14.562l6.5625-22h7.7812l6.5625 22c2.124-0.633 2.062-7.13-0.156-14.562l-2.218-7.438h3.906c0.554 0 1-0.446 1-1s-0.446-1-1-1h-4.5l-2.5625-8.5938c0.67-0.968 1.062-2.139 1.062-3.406 0-2.613-1.669-4.833-4-5.656v-7.344c0-0.554-0.446-1-1-1h-2zm1 10c2.2091 0 4 1.7909 4 4 0 0.32165-0.05331 0.63782-0.125 0.9375-0.04599 0.19224-0.08362 0.38216-0.15625 0.5625-0.06614 0.16372-0.16371 0.31733-0.25 0.46875-0.0069 0.01214-0.02425 0.01918-0.03125 0.03125-0.08536 0.1461-0.17848 0.30451-0.28125 0.4375-0.11133 0.14407-0.21378 0.27923-0.34375 0.40625-0.12998 0.12702-0.29075 0.23552-0.4375 0.34375-0.2935 0.21646-0.61934 0.40034-0.96875 0.53125-0.174 0.065-0.345 0.115-0.531 0.156-0.282 0.063-0.575 0.125-0.875 0.125-0.287 0-0.574-0.036-0.844-0.094-0.246-0.052-0.492-0.124-0.718-0.218-0.022-0.01-0.042-0.022-0.063-0.032-0.182-0.081-0.365-0.175-0.531-0.281-0.064-0.04-0.127-0.081-0.188-0.125-0.043-0.031-0.083-0.061-0.125-0.094-0.112-0.087-0.21-0.182-0.312-0.281-0.132-0.129-0.263-0.291-0.375-0.437-0.051-0.067-0.11-0.119-0.156-0.188-0.026-0.038-0.039-0.086-0.063-0.125-0.028-0.046-0.067-0.078-0.094-0.125-0.096-0.168-0.178-0.349-0.25-0.531-0.069-0.175-0.111-0.345-0.156-0.531-0.072-0.3-0.125-0.616-0.125-0.938 0-2.2091 1.7909-4 4-4zm3.3125 8.9375 0.0625 0.1875a2.0002 2.0002 0 0 0 -0.09375 -0.15625c0.01141-0.0076 0.01991-0.0236 0.03125-0.03125zm-6.624 0.062c0.02231 0.01448 0.04298 0.05006 0.0625 0.0625a2.0002 2.0002 0 0 0 -0.062 0.188l-1.8438 6.1875a2.0002 2.0002 0 0 0 -0.032 1.062 2.0002 2.0002 0 0 0 0 0.03125 2.0002 2.0002 0 0 0 -0.59375 0.90625l-2.75 9.1562c0.06-0.208 0.095-0.385 0.157-0.594l2.2188-7.4375a2.0002 2.0002 0 0 0 0.031 -1.093 2.0002 2.0002 0 0 0 0.563 -0.907l2.25-7.562zm6.6875 0.25 2.2188 7.3125a2.0002 2.0002 0 0 0 0.5625 0.90625 2.0002 2.0002 0 0 0 0.03125 1.0938l2.217 7.438c0.06245 0.20934 0.09745 0.38607 0.15625 0.59375l-2.75-9.1562a2.0002 2.0002 0 0 0 -0.562 -0.907 2.0002 2.0002 0 0 0 -0.031 -1.093l-1.844-6.188zm-4.7812 0.5625c0.45 0.109 0.921 0.188 1.405 0.188 0.5056 0 0.99968-0.06974 1.4688-0.1875l1.843 6.188h-6.562l1.844-6.188z" fill="url(#linearGradient3098)"/>
   <path id="path4806" d="m47 28c-0.554 0-1 0.446-1 1v1c0-0.554 0.446-1 1-1h2c0.554 0 1 0.446 1 1v-1c0-0.554-0.446-1-1-1h-2zm-1 8.3438c-2.331 0.823-4 3.043-4 5.656 0 0.17098 0.01706 0.33292 0.03125 0.5 0.198-2.393 1.788-4.386 3.969-5.156v-1zm4 0v1c2.181 0.77 3.771 2.763 3.969 5.156 0.013-0.165 0.031-0.331 0.031-0.5 0-2.613-1.669-4.833-4-5.656zm-5.938 6.218c-0.015 0.145-0.062 0.289-0.062 0.438 0 0.32165 0.05331 0.63782 0.125 0.9375 0.0446 0.18642 0.0872 0.35625 0.15625 0.53125 0.07164 0.18183 0.15362 0.36358 0.25 0.53125 0.02663 0.04695 0.06532 0.07928 0.09375 0.125 0.02436 0.03886 0.03686 0.08705 0.0625 0.125 0.04673 0.06947 0.10537 0.12129 0.15625 0.1875 0.11239 0.14626 0.24374 0.30856 0.375 0.4375 0.10208 0.09862 0.20041 0.19385 0.3125 0.28125 0.04161 0.03271 0.08205 0.0627 0.125 0.09375 0.06081 0.04366 0.12421 0.08474 0.1875 0.125 0.16649 0.10591 0.34925 0.20049 0.53125 0.28125 0.02115 0.0094 0.04116 0.02225 0.0625 0.03125 0.22609 0.09492 0.4726 0.1664 0.71875 0.21875 0.27 0.058 0.557 0.094 0.844 0.094 0.30044 0 0.59348-0.0622 0.875-0.125 0.18588-0.04146 0.35654-0.0908 0.53125-0.15625 0.34941-0.13091 0.67525-0.31478 0.96875-0.53125 0.14675-0.10823 0.30752-0.21673 0.4375-0.34375s0.23242-0.26218 0.34375-0.40625c0.10277-0.13299 0.19589-0.2914 0.28125-0.4375 0.007-0.01207 0.02435-0.01911 0.03125-0.03125 0.08629-0.15142 0.18386-0.30503 0.25-0.46875 0.07263-0.18034 0.11026-0.37026 0.15625-0.5625 0.072-0.3 0.125-0.616 0.125-0.938 0-0.14916-0.04659-0.29258-0.0625-0.4375-0.02049 0.12362-0.03401 0.2559-0.0625 0.375-0.04599 0.19224-0.08362 0.38216-0.15625 0.5625-0.06614 0.16372-0.16371 0.31733-0.25 0.46875-0.0069 0.01214-0.02425 0.01918-0.03125 0.03125-0.08536 0.1461-0.17848 0.30451-0.28125 0.4375-0.11133 0.14407-0.21378 0.27923-0.34375 0.40625-0.12998 0.12702-0.29075 0.23552-0.4375 0.34375-0.2935 0.21646-0.61934 0.40034-0.96875 0.53125-0.174 0.065-0.345 0.115-0.531 0.156-0.282 0.063-0.575 0.125-0.875 0.125-0.287 0-0.574-0.036-0.844-0.094-0.246-0.052-0.492-0.124-0.718-0.218-0.022-0.01-0.042-0.022-0.063-0.032-0.182-0.081-0.365-0.175-0.531-0.281-0.064-0.04-0.127-0.081-0.188-0.125-0.043-0.031-0.083-0.061-0.125-0.094-0.112-0.087-0.21-0.182-0.312-0.281-0.132-0.129-0.263-0.291-0.375-0.437-0.051-0.067-0.11-0.119-0.156-0.188-0.026-0.038-0.039-0.086-0.063-0.125-0.028-0.046-0.067-0.078-0.094-0.125-0.09638-0.16767-0.17836-0.34942-0.25-0.53125-0.06905-0.175-0.11165-0.34482-0.15625-0.53125-0.02849-0.1191-0.04201-0.25138-0.0625-0.375zm9.0625 3.5c-0.06833 0.11413-0.11194 0.2346-0.1875 0.34375l2.564 8.594h4.5c0.3661 0 0.66952 0.20801 0.84375 0.5 0.089-0.15 0.156-0.312 0.156-0.5 0-0.554-0.446-1-1-1h-4.5l-2.375-7.9375zm-10.218 0.032-2.375 7.906h-4.531c-0.554 0-1 0.446-1 1 0 0.1879 0.06682 0.35014 0.15625 0.5 0.174-0.292 0.478-0.5 0.844-0.5h4.5312l2.5625-8.5625c-0.07361-0.1047-0.12045-0.23447-0.1875-0.34375zm2.156 7.906-0.312 1h6.562l-0.312-1h-5.938zm-5.4375 3-1.9062 6.4375c-1.201 4.026-1.7559 7.775-1.6875 10.469 0.07198-2.5867 0.62793-5.9168 1.6875-9.4688l2.22-7.438h-0.313zm16.469 0 2.2188 7.4375c1.06 3.551 1.616 6.882 1.688 9.468 0.068-2.693-0.487-6.442-1.688-10.468l-1.906-6.438h-0.3125z" fill="url(#linearGradient3098)"/>
   <path id="path4815" opacity=".5" d="m47 28c-0.554 0-1 0.446-1 1v7.3438c-2.331 0.823-4 3.043-4 5.656 0 1.2827 0.4081 2.4622 1.0938 3.4375l-2.563 8.562h-4.531c-0.554 0-1 0.446-1 1s0.446 1 1 1h3.9375l-2.2188 7.4375c-2.217 7.432-2.28 13.929-0.157 14.562l6.5625-22h7.7812l6.5625 22c2.124-0.633 2.062-7.13-0.156-14.562l-2.218-7.438h3.906c0.554 0 1-0.446 1-1s-0.446-1-1-1h-4.5l-2.5625-8.5938c0.67-0.968 1.062-2.139 1.062-3.406 0-2.613-1.669-4.833-4-5.656v-7.344c0-0.554-0.446-1-1-1h-2zm0 1h2v7.3438a1.0001 1.0001 0 0 0 0.65625 0.9375c0.05032 0.01777 0.07543 0.07444 0.125 0.09375-0.558-0.218-1.149-0.376-1.781-0.376-0.63207 0-1.2232 0.15843-1.7812 0.375 0.04957-0.01931 0.07468-0.07598 0.125-0.09375a1.0001 1.0001 0 0 0 0.656 -0.937v-7.344zm1 9c2.2091 0 4 1.7909 4 4 0 0.32165-0.05331 0.63782-0.125 0.9375-0.04599 0.19224-0.08362 0.38216-0.15625 0.5625-0.06614 0.16372-0.16371 0.31733-0.25 0.46875-0.0069 0.01214-0.02425 0.01918-0.03125 0.03125-0.08536 0.1461-0.17848 0.30451-0.28125 0.4375-0.11133 0.14407-0.21378 0.27923-0.34375 0.40625-0.12998 0.12702-0.29075 0.23552-0.4375 0.34375-0.2935 0.21646-0.61934 0.40034-0.96875 0.53125-0.174 0.065-0.345 0.115-0.531 0.156-0.282 0.063-0.575 0.125-0.875 0.125-0.287 0-0.574-0.036-0.844-0.094-0.246-0.052-0.492-0.124-0.718-0.218-0.022-0.01-0.042-0.022-0.063-0.032-0.182-0.081-0.365-0.175-0.531-0.281-0.064-0.04-0.127-0.081-0.188-0.125-0.043-0.031-0.083-0.061-0.125-0.094-0.112-0.087-0.21-0.182-0.312-0.281-0.132-0.129-0.263-0.291-0.375-0.437-0.051-0.067-0.11-0.119-0.156-0.188-0.026-0.038-0.039-0.086-0.063-0.125-0.028-0.046-0.067-0.078-0.094-0.125-0.096-0.168-0.178-0.349-0.25-0.531-0.069-0.175-0.111-0.345-0.156-0.531-0.072-0.3-0.125-0.616-0.125-0.938 0-2.2091 1.7909-4 4-4zm4.1562 6.7188c-0.02332 0.03555-0.007 0.09004-0.03125 0.125a1.0001 1.0001 0 0 0 -0.0625 0.0625c0.04046-0.05986 0.06045-0.13284 0.09375-0.1875zm-8.1875 0.21875c0.02441 0.02586 0.10304 0.10585 0.09375 0.09375 0.12396 0.16132 0.27611 0.37327 0.46875 0.5625 0.1015 0.09806 0.20875 0.21412 0.375 0.34375 0.05562 0.04373 0.10707 0.08944 0.15625 0.125 0.0869 0.06239 0.18196 0.11297 0.25 0.15625 0.21864 0.13909 0.43653 0.24625 0.65625 0.34375-0.07506-0.03329-0.03587-0.02342 0.09375 0.03125a1.0001 1.0001 0 0 0 0 0.03125c0.21514 0.09032 0.41254 0.13496 0.625 0.1875a1.0001 1.0001 0 0 0 -1.0625 0.71875l-1.8438 6.1875a1.0001 1.0001 0 0 0 0.782 1.282h-0.4375a1.0001 1.0001 0 0 0 -0.96875 0.71875l-5.9062 19.75c-0.12276-0.62161-0.25977-1.2481-0.25-2.1875 0.02596-2.4972 0.60103-5.9203 1.6875-9.5625l2.2188-7.4375a1.0001 1.0001 0 0 0 -0.78 -1.282h0.40625a1.0001 1.0001 0 0 0 0.969 -0.719l2.5625-8.5625a1.0001 1.0001 0 0 0 -0.093 -0.78zm8.032 0.062a1.0001 1.0001 0 0 0 -0.03125 0.6875l2.5625 8.5938a1.0001 1.0001 0 0 0 0.968 0.718h0.40625a1.0001 1.0001 0 0 0 -0.781 1.281l2.2188 7.4375c1.0865 3.6422 1.6615 7.0653 1.6875 9.5625 0.0098 0.93939-0.12724 1.5659-0.25 2.1875l-5.907-19.749a1.0001 1.0001 0 0 0 -0.969 -0.719h-0.406a1.0001 1.0001 0 0 0 0.78125 -1.2812l-1.8438-6.1875a1.0001 1.0001 0 0 0 -1.2188 -0.6875c-0.04023 0.0101-0.08449-0.0092-0.125 0 0.22345-0.04984 0.43578-0.1049 0.65625-0.1875 0.44624-0.16718 0.85843-0.3905 1.2188-0.65625 0.12288-0.09063 0.31004-0.22132 0.53125-0.4375 0.19572-0.19128 0.32971-0.36051 0.4375-0.5 0.021-0.027 0.045-0.041 0.063-0.063zm-5.4062 2.8125c0.451 0.109 0.922 0.188 1.406 0.188 0.5056 0 0.99968-0.06974 1.4688-0.1875l1.843 6.188h-6.562l1.844-6.188z" fill="url(#linearGradient3098)"/>
   <path id="path4847" opacity=".2" d="m48 38c-2.2091 0-4 1.7909-4 4 0 0.19382 0.03143 0.37507 0.0625 0.5625 0.22-2.001 1.878-3.562 3.938-3.562s3.7178 1.561 3.9375 3.5625c0.031-0.187 0.062-0.368 0.062-0.562 0-2.209-1.791-4-4-4zm-5.9688 4.5c-0.013 0.165-0.031 0.331-0.031 0.5 0 1.145 0.34875 2.1851 0.90625 3.0938l0.1875-0.65625c-0.595-0.846-0.97-1.852-1.063-2.938zm11.938 0c-0.08882 1.0743-0.45011 2.0668-1.0312 2.9062l0.187 0.656c0.538-0.898 0.875-1.938 0.875-3.062 0-0.169-0.018-0.335-0.031-0.5zm-7.375 5.3125l-1.844 6.188h0.3125l1.5312-5.1875c0.451 0.109 0.922 0.188 1.406 0.188 0.5056 0 0.99968-0.06974 1.4688-0.1875l1.531 5.188h0.312l-1.843-6.188c-0.469 0.118-0.963 0.188-1.469 0.188-0.484 0-0.955-0.079-1.406-0.188zm-11.438 7.688c-0.089 0.15-0.156 0.312-0.156 0.5 0 0.554 0.446 1 1 1h3.625l0.3125-1h-3.938c-0.3661 0-0.66952-0.20801-0.84375-0.5zm25.688 0c-0.174 0.292-0.478 0.5-0.844 0.5h-3.9062l0.3125 1h3.594c0.554 0 1-0.446 1-1 0-0.1879-0.06682-0.35014-0.15625-0.5zm-16.719 0.5-6.563 22c-0.973-0.29-1.473-1.815-1.531-4.094-0.078 2.826 0.423 4.763 1.531 5.094l6.5625-22h7.7812l6.5625 22c1.109-0.331 1.611-2.268 1.532-5.094-0.058 2.279-0.558 3.804-1.531 4.094l-6.563-22h-7.781z" fill="#fff"/>
  </g>
 </g>
</svg>
