<?xml version="1.0" encoding="UTF-8" standalone="no"?>
<!-- Created with Inkscape (http://www.inkscape.org/) -->
<svg id="svg2" xmlns:rdf="http://www.w3.org/1999/02/22-rdf-syntax-ns#" xmlns="http://www.w3.org/2000/svg" height="96" width="96" version="1.1" xmlns:cc="http://creativecommons.org/ns#" xmlns:xlink="http://www.w3.org/1999/xlink" xmlns:dc="http://purl.org/dc/elements/1.1/">
 <defs id="defs4">
  <linearGradient id="linearGradient3613-3" y2="138.66" gradientUnits="userSpaceOnUse" x2="48" y1="20.221" x1="48">
   <stop id="stop3739-10" stop-color="#fff" offset="0"/>
   <stop id="stop3741-2" stop-color="#fff" stop-opacity="0" offset="1"/>
  </linearGradient>
  <clipPath id="clipPath3613-29">
   <rect id="rect3615-1" rx="6" ry="6" height="84" width="84" y="6" x="6" fill="#fff"/>
  </clipPath>
  <filter id="filter3794-0" height="1.384" width="1.384" color-interpolation-filters="sRGB" y="-.192" x="-.192">
   <feGaussianBlur id="feGaussianBlur3796-8" stdDeviation="5.28"/>
  </filter>
  <clipPath id="clipPath3613-25">
   <rect id="rect3615-14" rx="6" ry="6" height="84" width="84" y="6" x="6" fill="#fff"/>
  </clipPath>
  <filter id="filter3794-6" height="1.384" width="1.384" color-interpolation-filters="sRGB" y="-.192" x="-.192">
   <feGaussianBlur id="feGaussianBlur3796-26" stdDeviation="5.28"/>
  </filter>
  <clipPath id="clipPath3860">
   <rect id="rect3862" rx="6" ry="6" height="72" width="84" y="18" x="6" fill="#f0f"/>
  </clipPath>
  <filter id="filter3870" height="1.3943" width="1.3312" color-interpolation-filters="sRGB" y="-.19716" x="-.16559">
   <feGaussianBlur id="feGaussianBlur3872" stdDeviation="5.1703125"/>
  </filter>
  <linearGradient id="linearGradient5696" y2="81.481" gradientUnits="userSpaceOnUse" x2="48.022" y1="22.933" x1="48.022">
   <stop id="stop3876" stop-color="#fff" offset="0"/>
   <stop id="stop3878" stop-color="#fff" stop-opacity="0" offset="1"/>
  </linearGradient>
  <linearGradient id="linearGradient4640" y2="48.005" gradientUnits="userSpaceOnUse" x2="6.1872" gradientTransform="translate(0 956.36)" y1="48.005" x1="93.008">
   <stop id="stop4636" stop-color="#be8e4a" stop-opacity=".076923" offset="0"/>
   <stop id="stop4638" stop-color="#a67c25" offset="1"/>
  </linearGradient>
  <linearGradient id="linearGradient3117" y2="32" xlink:href="#linearGradient3699-32" gradientUnits="userSpaceOnUse" x2="56" gradientTransform="translate(0 -2)" y1="76" x1="56"/>
  <linearGradient id="linearGradient3699-32">
   <stop id="stop3701-06" stop-color="#aa7932" stop-opacity=".78431" offset="0"/>
   <stop id="stop3703-58" stop-color="#aa7932" stop-opacity=".39216" offset="1"/>
  </linearGradient>
 </defs>
 <metadata id="metadata7">
  <rdf:RDF>
   <cc:Work rdf:about="">
    <dc:format>image/svg+xml</dc:format>
    <dc:type rdf:resource="http://purl.org/dc/dcmitype/StillImage"/>
    <dc:title/>
   </cc:Work>
  </rdf:RDF>
 </metadata>
 <g id="layer1" transform="translate(0 -956.36)">
  <rect id="rect5263-0" fill-opacity=".019608" ry="12.724" height="89.978" width="89.978" y="959.35" x="2.9998"/>
  <rect id="rect5261-6" fill-opacity=".039216" ry="12.552" height="88.762" width="88.762" y="959.96" x="3.6078"/>
  <rect id="rect5259-9" fill-opacity=".078431" ry="12.38" height="87.546" width="87.546" y="960.57" x="4.2157"/>
  <rect id="rect5257-5" fill-opacity=".15686" ry="12.208" height="86.33" width="86.33" y="961.18" x="4.8237"/>
  <path id="rect2419-5" d="m17.469 961.77c-6.2512 0-11.355 4.7568-11.969 10.844v63.469c0.61364 6.0834 5.7175 10.812 11.969 10.812h61.031c6.4543 0 11.671-5.0367 12-11.406v-62.281c-0.32117-6.3771-5.5404-11.438-12-11.438h-61.031z" fill="#cc993d"/>
  <rect id="rect3171" ry="12" stroke="#fff" stroke-linecap="round" stroke-width=".5" fill="url(#linearGradient3613-3)" rx="12" transform="matrix(1.0149 0 0 1.0238 -.83801 955.22)" width="66" opacity=".05" clip-path="url(#clipPath3613-29)" height="66" filter="url(#filter3794-0)" y="15" x="15"/>
  <path id="path5865" d="m17.469 961.77c-6.2512 0-11.355 4.7568-11.969 10.844v63.469c0.07233 0.717 0.21463 1.4198 0.40625 2.0937-0.14675-1.3295-0.26905-2.6965-0.34375-4.0937v-59.281c0-2.3816 0.62452-7.4626 6.625-7.4688h12.75c4.9632 0 7.6402-1.0079 10.125 3.7188 3.0657 4.2041 4.006 4.8869 9.5625 4.2812h40.656c3.7739-0.0442 5.1676 1.5874 5.2188 5.4375v-7.5625c-0.32117-6.3771-5.5404-11.438-12-11.438h-61.031zm73.031 69.73c-0.04406 2.2078-0.18649 4.3503-0.40625 6.4063 0.21124-0.7976 0.36211-1.6143 0.40625-2.4688v-3.9375zm-1.0625 8.2813c-0.13416 0.2981-0.28057 0.5904-0.4375 0.875 0.1575-0.2841 0.30285-0.5773 0.4375-0.875zm-0.438 0.9c-0.15693 0.2845-0.32144 0.5427-0.5 0.8125 0.17482-0.2638 0.34595-0.5347 0.5-0.8125zm-81.906 0.25c0.15696 0.2676 0.32348 0.5274 0.5 0.7812-0.1807-0.2598-0.33982-0.5069-0.5-0.7812zm76.188 4.9375c-0.26128 0.1134-0.54176 0.2175-0.8125 0.3125 0.27423-0.096 0.5479-0.198 0.8125-0.3125zm-69.625 0.375c0.2786 0.093 0.55637 0.1773 0.84375 0.25-0.28437-0.072-0.56799-0.1586-0.84375-0.25zm67.625 0.2812c-0.24437 0.058-0.4999 0.1135-0.75 0.1563 0.25388-0.043 0.50195-0.097 0.75-0.1563z" fill="url(#linearGradient4640)"/>
  <g id="layer5" transform="matrix(1.0168 0 0 1.021 -.61038 955.51)">
   <rect id="rect3171-4" height="66" stroke="#fff" stroke-linecap="round" stroke-width=".5" fill="url(#linearGradient3613-3)" rx="12" ry="12" width="66" opacity=".1" clip-path="url(#clipPath3613-25)" filter="url(#filter3794-6)" y="15" x="15"/>
  </g>
  <path id="path7506" opacity=".55020" d="m28.25 966.31c-0.98771 0.0223-2.0717 0.10149-3.3125 0.10149h-12.75c-6.0005 0.007-6.625 6.3566-6.625 8.9362v0.81233c0-2.5796 0.62452-8.0829 6.625-8.0895h12.75c4.9632 0 7.7652-0.96667 10.125 3.3403 3.0657 4.5536 4.006 5.293 9.5625 4.6371h40.656c3.7739-0.0479 5.1676 1.7193 5.2188 5.8894v-0.81234c-0.05112-4.1701-1.4448-5.9373-5.2188-5.8894h-40.656c-5.5565 0.65596-6.4968-0.0835-9.5625-4.6371-1.8636-3.8396-3.8494-4.3555-6.8125-4.2885z" fill="#f9f9f9"/>
  <rect id="rect3634" opacity="0" height="1" width="84.972" y="973.33" x="5.5655"/>
  <path id="path7563" opacity=".20482" d="m35.742 968.8c0.0231 0.043 0.0394 0.081 0.0625 0.125 0.034 0.047 0.0603 0.079 0.0937 0.125h45.625c2.0566 0 3.7188 1.6621 3.7188 3.7187v-0.25c0-2.0566-1.6621-3.7187-3.7188-3.7187h-45.781z" fill-opacity=".58962" fill="#fff"/>
  <path id="path7516" opacity=".51807" d="m35.742 969.05c0.0231 0.043 0.0394 0.081 0.0625 0.125 0.0241 0.033 0.0386 0.061 0.0625 0.094h45.656c2.0566 0 3.7188 1.6621 3.7188 3.7187v-0.2187c0-2.0566-1.6621-3.7188-3.7188-3.7188l-45.781 0.0001z" fill-opacity=".58962" fill="#fff"/>
  <path id="path7514" opacity=".74699" d="m35.742 969.27c0.0231 0.043 0.0394 0.081 0.0625 0.125 0.0335 0.046 0.0607 0.08 0.0937 0.125h45.625c0.25708 0 0.50773 0.013 0.75 0.063 0.24227 0.049 0.46498 0.1248 0.6875 0.2188 0.23229 0.096 0.45057 0.2049 0.65625 0.3437 0.2043 0.138 0.35868 0.294 0.53125 0.4688 0.32871 0.3328 0.62762 0.7185 0.8125 1.1562 0.004 0.01-0.004 0.023 0 0.031 0.18093 0.4379 0.28125 0.9336 0.28125 1.4375v-0.25c0-2.0566-1.6621-3.7187-3.7188-3.7187h-45.781z" fill-opacity=".58962" fill="#fff"/>
  <path id="rect7493" fill-opacity=".83019" fill="#fff" d="m35.751 969.5c0.0231 0.043 0.0394 0.081 0.0625 0.125 3.0657 4.2041 4.006 4.8869 9.5625 4.2813h39.875v-0.6875c0-2.0567-1.6621-3.7188-3.7188-3.7188h-45.781z"/>
  <g id="g5676" transform="matrix(.94641 0 0 .84994 2.9331 964.94)">
   <path id="path5678" opacity=".15" filter="url(#filter3870)" d="m15.969 22.531c-2.8459 0.0043-5.4332 2.5916-5.4375 5.4375v48.062c0.0043 2.8459 2.5916 5.4332 5.4375 5.4375h64.062c2.8459-0.0043 5.4332-2.5916 5.4375-5.4375v-48.062c-0.0043-2.8459-2.5916-5.4332-5.4375-5.4375z" clip-path="url(#clipPath3860)" fill="url(#linearGradient5696)"/>
  </g>
  <path id="rect5265-0" d="m5.3323 1029.9v5.0663c0 6.668 5.3645 12.032 12.032 12.032h61.049c6.668 0 12.032-5.3645 12.032-12.032v-5.0663c0 6.6681-5.3645 12.032-12.032 12.032h-61.049c-6.668 0-12.032-5.3643-12.032-12.032z" fill-opacity=".11765"/>
  <path id="path5252-0" d="m5.3323 1033.9v1.0133c0 6.668 5.3645 12.032 12.032 12.032h61.049c6.668 0 12.032-5.3645 12.032-12.032v-1.0133c0 6.6681-5.3645 12.032-12.032 12.032h-61.049c-6.668 0-12.032-5.3644-12.032-12.032z" fill-opacity=".098039"/>
  <g id="layer6" transform="translate(2.1712 956.5)">
   <path id="path4561" opacity=".05" style="color:#000000" d="m48 27.969c-12.551 0-22.763 9.7155-23.812 22h-2.1875a2.0273 2.0273 0 0 0 -1.75 3.0625l3.5 6 3.5 6a2.0273 2.0273 0 0 0 3.5 0l3.5-6 3.5-6a2.0273 2.0273 0 0 0 -1.75 -3.063h-1.75c0.80489-5.499 4.7498-9.9116 10-11.375-0.169 0.44-0.281 0.912-0.281 1.406v11.344h0.0625c-0.15489 1.0107 0.03287 2.0221 0.59375 2.8438h-0.03125c0.02105 0.03266 0.01066 0.03264 0.03125 0.0625 0.01338 0.01941 0.01812 0.01299 0.03125 0.03125 0.22426 0.31173 0.45964 0.52214 0.5 0.5625l7.0625 7.0938c1.2561 1.2561 3.2975 1.6305 4.8438 0.625-2.4428 2.0973-5.5756 3.4062-9.0625 3.4062-2.5519 0-4.906-0.6798-6.9688-1.875a2.0273 2.0273 0 0 0 -2.7812 0.75l-3 5.2188a2.0273 2.0273 0 0 0 0.75 2.75c3.5342 2.0427 7.6352 3.2188 12 3.2188 13.245-0.001 24.03-10.786 24.03-24.032s-10.785-24.031-24.031-24.031zm0 2.031c12.15 0 22 9.8497 22 22s-9.8497 22-22 22c-4.0043 0-7.7657-1.0681-11-2.9375l3-5.2188c2.356 1.366 5.082 2.157 8 2.157 8.837 0 16-7.163 16-16s-7.163-16-16-16-16 7.163-16 16h4l-3.5 6-3.5 6-3.5-6-3.5-6h4c0-12.15 9.85-22 22-22zm0 8c1.108 0 2 0.892 2 2v11.188l6.5 6.4688c0.78347 0.78347 0.88657 1.9259 0.25 2.5625l-0.531 0.53c-0.63657 0.63657-1.779 0.53347-2.5625-0.25l-7.0625-7.0938c-0.1-0.1-0.204-0.193-0.282-0.312-0.401-0.561-0.511-1.216-0.312-1.75v-11.344c0-1.108 0.892-2 2-2zm3.75 0.59375c5.891 1.642 10.219 6.977 10.219 13.406 0 3.4869-1.309 6.6196-3.4062 9.0625 1.0055-1.5462 0.63114-3.5876-0.625-4.8438l-5.9062-5.875v-10.344c0-0.49409-0.11255-0.9658-0.28125-1.4062z" fill="#fff"/>
   <path id="path4550" opacity=".1" style="color:#000000" d="m48 29c-12.348 0-22.37 9.783-22.906 22h-3.094a1.0001 1.0001 0 0 0 -0.875 1.5l3.5 6 3.5 6a1.0001 1.0001 0 0 0 1.75 0l3.5-6 3.5-6a1.0001 1.0001 0 0 0 -0.875 -1.5h-2.9062c0.521-7.82 6.952-14 14.906-14 8.2961 0 15 6.7039 15 15s-6.7039 15-15 15c-2.7376 0-5.2889-0.75006-7.5-2.0312a1.0001 1.0001 0 0 0 -1.375 0.375l-3 5.2188a1.0001 1.0001 0 0 0 0.375 1.375c3.382 1.954 7.318 3.062 11.5 3.062 12.691 0 23-10.309 23-23s-10.309-23-23-23zm0 8c-1.6447 0-3 1.3553-3 3v11.344h0.03125c-0.17161 0.77946-0.02883 1.6007 0.4375 2.2812 0.01815 0.02817 0.01325 0.03712 0.03125 0.0625 0.15201 0.2143 0.30917 0.37168 0.375 0.4375l7.0625 7.0938c1.0962 1.0962 2.9022 1.3478 4 0.25l0.53125-0.53125c1.0978-1.0978 0.84616-2.9038-0.25-4l-6.219-6.188v-10.75c0-1.6447-1.3553-3-3-3zm0-7c12.15 0 22 9.8497 22 22s-9.8497 22-22 22c-4.0043 0-7.7657-1.0681-11-2.9375l3-5.2188c2.356 1.366 5.082 2.157 8 2.157 8.837 0 16-7.163 16-16s-7.163-16-16-16-16 7.163-16 16h4l-3.5 6-3.5 6-3.5-6-3.5-6h4c0-12.15 9.85-22 22-22zm0 8c1.108 0 2 0.892 2 2v11.188l6.5 6.4688c0.78347 0.78347 0.88657 1.9259 0.25 2.5625l-0.531 0.53c-0.63657 0.63657-1.779 0.53347-2.5625-0.25l-7.0625-7.0938c-0.1-0.1-0.204-0.193-0.282-0.312-0.401-0.561-0.511-1.216-0.312-1.75v-11.344c0-1.108 0.892-2 2-2z" fill="#fff"/>
   <path id="path4090" opacity=".9" style="color:#000000" d="m48 30c-12.15 0-22 9.85-22 22h-4l3.5 6 3.5 6 3.5-6 3.5-6h-4c0-8.8366 7.1634-16 16-16s16 7.1634 16 16-7.1634 16-16 16c-2.9184 0-5.6444-0.79134-8-2.1562l-3 5.218c3.234 1.87 6.996 2.938 11 2.938 12.15 0 22-9.85 22-22s-9.85-22-22-22zm0 8c-1.108 0-2 0.892-2 2v11.344c-0.19861 0.53433-0.08906 1.1893 0.3125 1.75 0.0771 0.11963 0.18109 0.21234 0.28125 0.3125l7.062 7.094c0.78347 0.78347 1.9259 0.88657 2.5625 0.25l0.532-0.531c0.63657-0.63657 0.53347-1.779-0.25-2.5625l-6.5-6.468v-11.188c0-1.108-0.892-2-2-2z" fill="url(#linearGradient3117)"/>
   <path id="path4522" opacity=".25" style="color:#000000" d="m48 30c-12.15 0-22 9.85-22 22h-4l3.5 6 3.5 6 3.5-6 3.5-6h-4c0-8.8366 7.1634-16 16-16s16 7.1634 16 16-7.1634 16-16 16c-2.9184 0-5.6444-0.79134-8-2.1562l-3 5.218c3.234 1.87 6.996 2.938 11 2.938 12.15 0 22-9.85 22-22s-9.85-22-22-22zm0 1.9688c11.081 0 20.031 8.95 20.031 20.031s-8.95 20.031-20.031 20.031c-2.9373 0-5.6486-0.77587-8.1562-1.9062l1.031-1.781c2.2023 0.96743 4.5666 1.625 7.125 1.625 9.9056 0 17.969-8.0632 17.969-17.969 0-9.906-8.063-17.969-17.969-17.969s-17.969 8.063-17.969 17.969a1.9783 1.9783 0 0 0 1.969 1.969h0.5625l-1.781 3.031-1.781 3.062-1.781-3.062-1.781-3.031h0.5625a1.9783 1.9783 0 0 0 1.969 -1.969c0-11.081 8.95-20.031 20.031-20.031zm0 6.031c-1.108 0-2 0.892-2 2v11.344c-0.19861 0.53433-0.08906 1.1893 0.3125 1.75 0.0771 0.11963 0.18109 0.21234 0.28125 0.3125l7.062 7.094c0.78347 0.78347 1.9259 0.88657 2.5625 0.25l0.532-0.531c0.63657-0.63657 0.53347-1.779-0.25-2.5625l-6.5-6.468v-11.188c0-1.108-0.892-2-2-2zm0 1.9688c0.04636 0 0.03125-0.01511 0.03125 0.03125v11.188a1.9783 1.9783 0 0 0 0.4375 1.25l-0.468-0.438c-0.07633-0.07633-0.12258-0.0994-0.125-0.09375-0.0018-0.0057-0.000964-0.03679 0-0.03125a1.9783 1.9783 0 0 0 0.09375 -0.53125v-11.344c0-0.04636-0.01511-0.03125 0.03125-0.03125zm0.59375 12.625 6.5 6.4688-0.03125 0.03125-6.4688-6.5z" fill="url(#linearGradient3117)"/>
   <path id="path4500" style="color:#000000" d="m48 30c-12.15 0-22 9.85-22 22h-4l0.59375 1h3.406c0-12.15 9.85-22 22-22 11.982 0 21.732 9.583 22 21.5 0.004-0.168 0-0.331 0-0.5 0-12.15-9.85-22-22-22zm0 8c-1.108 0-2 0.892-2 2v1c0-1.108 0.892-2 2-2s2 0.892 2 2v-1c0-1.108-0.892-2-2-2zm2 13.188v1l6.5 6.4688c0.2938 0.2938 0.49443 0.65084 0.59375 1 0.20283-0.6266-0.0061-1.4124-0.59375-2l-6.5-6.469zm-4 0.15625c-0.12085 0.32514-0.10371 0.69645 0 1.0625 0.0064-0.01982-0.0073-0.04299 0-0.0625v-1zm-13.938 0.656c-0.02 0.335-0.062 0.66-0.062 1h3.406l0.594-1h-3.938zm31.906 0.5c-0.268 8.601-7.301 15.5-15.968 15.5-2.918 0-5.644-0.791-8-2.156l-3 5.2188c0.14005 0.08094 0.2955 0.14083 0.4375 0.21875l2.562-4.438c2.356 1.365 5.082 2.156 8 2.156 8.8366 0 16-7.1634 16-16 0-0.16998-0.02599-0.3313-0.03125-0.5z" fill="url(#linearGradient3117)"/>
   <path id="path4509" opacity=".5" style="color:#000000" d="m48 30c-12.15 0-22 9.85-22 22h-4l3.5 6 3.5 6 3.5-6 3.5-6h-4c0-8.8366 7.1634-16 16-16s16 7.1634 16 16-7.1634 16-16 16c-2.9184 0-5.6444-0.79134-8-2.1562l-3 5.218c3.234 1.87 6.996 2.938 11 2.938 12.15 0 22-9.85 22-22s-9.85-22-22-22zm0 0.9375c11.639 0 21.062 9.4236 21.062 21.062 0 11.639-9.4236 21.062-21.062 21.062-3.4985 0-6.7555-0.93122-9.6562-2.4375l2.0625-3.5938c2.295 1.167 4.843 1.908 7.594 1.908 9.348 0 16.938-7.59 16.938-16.938s-7.59-16.938-16.938-16.938-16.938 7.59-16.938 16.938a0.94621 0.94621 0 0 0 0.938 0.938h2.375l-2.6875 4.5938-2.688 4.593-2.688-4.594-2.687-4.593h2.375a0.94621 0.94621 0 0 0 0.938 -0.938c0-11.639 9.423-21.062 21.062-21.062zm0 7.062c-1.108 0-2 0.892-2 2v11.344c-0.19861 0.53433-0.08906 1.1893 0.3125 1.75 0.0771 0.11963 0.18109 0.21234 0.28125 0.3125l7.062 7.094c0.78347 0.78347 1.9259 0.88657 2.5625 0.25l0.532-0.531c0.63657-0.63657 0.53347-1.779-0.25-2.5625l-6.5-6.468v-11.188c0-1.108-0.892-2-2-2zm0 0.9375c0.60022 0 1.0625 0.46228 1.0625 1.0625v11.188a0.94621 0.94621 0 0 0 0.28125 0.65625l6.5 6.4688c0.48764 0.48763 0.45023 1.0498 0.25 1.25l-0.53125 0.53125c-0.20023 0.20023-0.76236 0.23764-1.25-0.25l-7.062-7.094c-0.12527-0.12527-0.16842-0.17514-0.15625-0.15625a0.94621 0.94621 0 0 0 0 -0.0625c-0.246-0.344-0.29-0.653-0.219-0.844a0.94621 0.94621 0 0 0 0.0625 -0.34375v-11.344c0-0.60022 0.46228-1.0625 1.0625-1.0625z" fill="url(#linearGradient3117)"/>
   <path id="path4535" opacity=".2" style="color:#000000" d="m48 36c-8.8366 0-16 7.1634-16 16h0.0625c0.523-8.365 7.441-15 15.938-15 8.667 0 15.7 6.899 15.969 15.5 0.005-0.169 0.031-0.33 0.031-0.5 0-8.837-7.163-16-16-16zm-2 16.406c-0.16969 0.52303-0.0744 1.1472 0.3125 1.6875 0.0771 0.11963 0.18109 0.21234 0.28125 0.3125l7.062 7.094c0.78347 0.78347 1.9259 0.88657 2.5625 0.25l0.532-0.531c0.39786-0.39786 0.50928-0.98057 0.34375-1.5625-0.06761 0.20886-0.18461 0.40336-0.34375 0.5625l-0.531 0.531c-0.63657 0.63657-1.779 0.53347-2.5625-0.25l-7.0625-7.0938c-0.1-0.1-0.204-0.193-0.282-0.312-0.157-0.22-0.245-0.452-0.312-0.688zm24 0.094c-0.268 11.917-10.018 21.5-22 21.5-3.831 0-7.425-0.997-10.562-2.719l-0.438 0.781c3.234 1.87 6.996 2.938 11 2.938 12.15 0 22-9.8497 22-22 0-0.16862 0.0038-0.33228 0-0.5zm-48 0.5 3.5 6 3.5 6 3.5-6 3.5-6h-0.594l-2.906 5-3.5 6-3.5-6-2.906-5h-0.594z" fill="#fff"/>
  </g>
 </g>
</svg>
