<?xml version="1.0" encoding="UTF-8" standalone="no"?>
<!-- Created with Inkscape (http://www.inkscape.org/) -->

<svg
   xmlns:dc="http://purl.org/dc/elements/1.1/"
   xmlns:cc="http://creativecommons.org/ns#"
   xmlns:rdf="http://www.w3.org/1999/02/22-rdf-syntax-ns#"
   xmlns:svg="http://www.w3.org/2000/svg"
   xmlns="http://www.w3.org/2000/svg"
   xmlns:xlink="http://www.w3.org/1999/xlink"
   xmlns:sodipodi="http://sodipodi.sourceforge.net/DTD/sodipodi-0.dtd"
   xmlns:inkscape="http://www.inkscape.org/namespaces/inkscape"
   id="svg2"
   height="96"
   width="96"
   version="1.1"
   inkscape:version="0.91 r"
   sodipodi:docname="template.svg">
  <sodipodi:namedview
     pagecolor="#ffffff"
     bordercolor="#666666"
     borderopacity="1"
     objecttolerance="10"
     gridtolerance="10"
     guidetolerance="10"
     inkscape:pageopacity="0"
     inkscape:pageshadow="2"
     inkscape:window-width="1366"
     inkscape:window-height="717"
     id="namedview39"
     showgrid="false"
     inkscape:zoom="1.2291667"
     inkscape:cx="204.21448"
     inkscape:cy="-61.25369"
     inkscape:window-x="0"
     inkscape:window-y="0"
     inkscape:window-maximized="1"
     inkscape:current-layer="layer6" />
  <defs
     id="defs4">
    <linearGradient
       id="linearGradient3700-0">
      <stop
         id="stop3702-2"
         stop-color="#70a83e"
         offset="0" />
      <stop
         id="stop3704-9"
         stop-color="#9fd058"
         offset="1" />
    </linearGradient>
    <linearGradient
       id="linearGradient4982"
       y2="5.9877"
       xlink:href="#linearGradient3700-0"
       gradientUnits="userSpaceOnUse"
       x2="48"
       gradientTransform="translate(101.91,-15.02)"
       y1="90"
       x1="48" />
    <clipPath
       id="clipPath3613-55">
      <rect
         id="rect3615-88"
         rx="6"
         ry="6"
         height="84"
         width="84"
         y="6"
         x="6"
         fill="#fff" />
    </clipPath>
    <filter
       id="filter3794-41"
       height="1.384"
       width="1.384"
       color-interpolation-filters="sRGB"
       y="-.192"
       x="-.192">
      <feGaussianBlur
         id="feGaussianBlur3796-50"
         stdDeviation="5.28" />
    </filter>
    <linearGradient
       id="linearGradient3182"
       y2="5.9877"
       gradientUnits="userSpaceOnUse"
       y1="90"
       gradientTransform="matrix(1.125,0,0,1.0417,-7.75,-3.25)"
       x2="48"
       x1="48"
       xlink:href="#linearGradient90466">
      <stop
         id="stop4083"
         stop-color="#8c8c8c"
         offset="0" />
      <stop
         id="stop4085"
         stop-color="#dcdcdc"
         offset="1" />
    </linearGradient>
    <linearGradient
       id="linearGradient90466"
       y2="138.66"
       gradientUnits="userSpaceOnUse"
       x2="48"
       y1="20.221"
       x1="48">
      <stop
         id="stop3739-532"
         stop-color="#fff"
         offset="0" />
      <stop
         id="stop3741-666"
         stop-color="#fff"
         stop-opacity="0"
         offset="1" />
    </linearGradient>
    <linearGradient
       id="linearGradient4416-6"
       y2="80"
       gradientUnits="userSpaceOnUse"
       x2="48"
       y1="16"
       x1="48">
      <stop
         id="stop4283-9-2"
         stop-color="#1e1e1e"
         offset="0" />
      <stop
         id="stop4285-8-6"
         stop-color="#505050"
         offset="1" />
    </linearGradient>
    <linearGradient
       inkscape:collect="always"
       xlink:href="#linearGradient3700-0"
       id="linearGradient4167"
       gradientUnits="userSpaceOnUse"
       gradientTransform="translate(101.91,-15.02)"
       x1="48"
       y1="90"
       x2="48"
       y2="5.9877" />
    <filter
       style="color-interpolation-filters:sRGB"
       id="filter3276">
      <feGaussianBlur
         id="feGaussianBlur3278"
         stdDeviation="0.56241694" />
    </filter>
    <filter
       style="color-interpolation-filters:sRGB"
       id="filter4247">
      <feGaussianBlur
         id="feGaussianBlur4249"
         stdDeviation="0.56241694" />
    </filter>
    <linearGradient
       id="linearGradient3659"
       y2="103.55"
       xlink:href="#linearGradient4360"
       gradientUnits="userSpaceOnUse"
       x2="69.920998"
       y1="103.55"
       x1="87.228996" />
    <linearGradient
       id="linearGradient4360">
      <stop
         id="stop4362"
         stop-color="#6e6e6e"
         offset="0" />
      <stop
         id="stop4364"
         stop-color="#8c8c8c"
         offset="1" />
    </linearGradient>
    <linearGradient
       id="linearGradient3661"
       y2="97.972"
       xlink:href="#linearGradient4368"
       gradientUnits="userSpaceOnUse"
       x2="86.749001"
       y1="87.432999"
       x1="82.856003" />
    <linearGradient
       id="linearGradient4368">
      <stop
         id="stop4370"
         stop-color="#828282"
         offset="0" />
      <stop
         id="stop4372"
         stop-color="#5a5a5a"
         offset="1" />
    </linearGradient>
    <linearGradient
       id="linearGradient3663"
       y2="68.295998"
       xlink:href="#linearGradient4368"
       gradientUnits="userSpaceOnUse"
       x2="61.130001"
       y1="76.541"
       x1="52.105999" />
    <linearGradient
       id="linearGradient3665"
       y2="80.815002"
       xlink:href="#linearGradient4360"
       gradientUnits="userSpaceOnUse"
       x2="75.280998"
       y1="63.589001"
       x1="66.739998" />
    <linearGradient
       id="linearGradient3667"
       y2="93.471001"
       xlink:href="#linearGradient4360"
       gradientUnits="userSpaceOnUse"
       x2="48.194"
       y1="104.22"
       x1="43.244999" />
    <linearGradient
       id="linearGradient3669"
       y2="110.66"
       xlink:href="#linearGradient4368"
       gradientUnits="userSpaceOnUse"
       x2="46.921001"
       y1="106.16"
       x1="60.414001" />
    <linearGradient
       id="linearGradient3309"
       y2="31"
       gradientUnits="userSpaceOnUse"
       x2="48"
       y1="31"
       x1="30">
      <stop
         id="stop3305"
         stop-color="#1a1a1a"
         offset="0" />
      <stop
         id="stop3313"
         stop-color="#1a1a1a"
         offset=".25050" />
      <stop
         id="stop3311"
         stop-color="#cdff01"
         offset=".50099" />
      <stop
         id="stop3315"
         stop-color="#1a1a1a"
         offset=".75050" />
      <stop
         id="stop3307"
         stop-color="#1a1a1a"
         offset="1" />
    </linearGradient>
    <linearGradient
       id="linearGradient3339">
      <stop
         id="stop3341"
         stop-color="#4f4f4f"
         offset="0" />
      <stop
         id="stop3343"
         stop-color="#a2a2a2"
         offset="1" />
    </linearGradient>
    <filter
       style="color-interpolation-filters:sRGB"
       id="filter6045">
      <feGaussianBlur
         id="feGaussianBlur6047"
         stdDeviation="0.1903125" />
    </filter>
    <linearGradient
       id="linearGradient5875"
       y2="82.014"
       gradientUnits="userSpaceOnUse"
       x2="38.473"
       y1="72"
       x1="38.473">
      <stop
         id="stop5849"
         stop-color="#333"
         offset="0" />
      <stop
         id="stop5857"
         stop-color="#333"
         offset=".43065" />
      <stop
         id="stop5855"
         offset=".55548" />
      <stop
         id="stop5851"
         offset="1" />
    </linearGradient>
    <linearGradient
       id="linearGradient5892">
      <stop
         id="stop5894"
         stop-color="#333"
         offset="0" />
      <stop
         id="stop5896"
         stop-color="#424242"
         offset="1" />
    </linearGradient>
    <linearGradient
       id="linearGradient3175"
       y2="7.0165"
       gradientUnits="userSpaceOnUse"
       x2="45.448002"
       gradientTransform="scale(1.0059,0.99417)"
       y1="92.540001"
       x1="45.448002">
      <stop
         id="stop3177"
         offset="0" />
      <stop
         id="stop3179"
         stop-opacity="0"
         offset="1" />
    </linearGradient>
    <linearGradient
       id="linearGradient5908"
       y2="32"
       gradientUnits="userSpaceOnUse"
       x2="39"
       gradientTransform="matrix(1,0,0,0.91071,0,9.9286)"
       y1="34"
       x1="39">
      <stop
         id="stop5912"
         offset="0" />
      <stop
         id="stop5916"
         stop-color="#656565"
         offset=".5" />
      <stop
         id="stop5914"
         offset="1" />
    </linearGradient>
    <filter
       style="color-interpolation-filters:sRGB"
       id="filter6036">
      <feGaussianBlur
         id="feGaussianBlur6038"
         stdDeviation="0.285" />
    </filter>
    <linearGradient
       id="linearGradient6059">
      <stop
         id="stop6061"
         stop-opacity=".42629"
         offset="0" />
      <stop
         id="stop6063"
         stop-color="#fff"
         stop-opacity=".31707"
         offset="1" />
    </linearGradient>
    <linearGradient
       id="linearGradient6075"
       y2="48"
       gradientUnits="userSpaceOnUse"
       x2="43.643002"
       y1="48"
       x1="34.139">
      <stop
         id="stop6071"
         stop-color="#fff"
         offset="0" />
      <stop
         id="stop6073"
         stop-color="#7c7c7c"
         offset="1" />
    </linearGradient>
    <filter
       style="color-interpolation-filters:sRGB"
       id="filter4966">
      <feGaussianBlur
         id="feGaussianBlur4968"
         stdDeviation="0.1903125" />
    </filter>
    <filter
       style="color-interpolation-filters:sRGB"
       id="filter5024">
      <feGaussianBlur
         id="feGaussianBlur5026"
         stdDeviation="0.285" />
    </filter>
    <filter
       style="color-interpolation-filters:sRGB"
       id="filter5096">
      <feGaussianBlur
         id="feGaussianBlur5098"
         stdDeviation="0.1903125" />
    </filter>
    <filter
       style="color-interpolation-filters:sRGB"
       id="filter5154">
      <feGaussianBlur
         id="feGaussianBlur5156"
         stdDeviation="0.285" />
    </filter>
    <linearGradient
       id="linearGradient6157"
       y2="48"
       xlink:href="#linearGradient6151"
       gradientUnits="userSpaceOnUse"
       x2="43.210999"
       y1="48"
       x1="34.570999" />
    <linearGradient
       id="linearGradient6151">
      <stop
         id="stop6153"
         stop-color="#5b5b5b"
         offset="0" />
      <stop
         id="stop6155"
         stop-color="#0a0a0a"
         offset="1" />
    </linearGradient>
    <linearGradient
       id="linearGradient6149"
       y2="48"
       xlink:href="#linearGradient6159"
       gradientUnits="userSpaceOnUse"
       x2="43.643002"
       y1="48"
       x1="34.139" />
    <linearGradient
       id="linearGradient6159">
      <stop
         id="stop6161"
         stop-color="#747474"
         offset="0" />
      <stop
         id="stop6163"
         offset="1" />
    </linearGradient>
    <linearGradient
       id="linearGradient6214"
       y2="48"
       xlink:href="#linearGradient6151"
       gradientUnits="userSpaceOnUse"
       x2="43.416"
       y1="48"
       x1="34.365002" />
    <linearGradient
       inkscape:collect="always"
       xlink:href="#linearGradient3309"
       id="linearGradient4314"
       gradientUnits="userSpaceOnUse"
       x1="30"
       y1="31"
       x2="48"
       y2="31" />
    <linearGradient
       inkscape:collect="always"
       xlink:href="#linearGradient3309"
       id="linearGradient4316"
       gradientUnits="userSpaceOnUse"
       x1="30"
       y1="31"
       x2="48"
       y2="31" />
    <linearGradient
       inkscape:collect="always"
       xlink:href="#linearGradient3339"
       id="linearGradient4318"
       gradientUnits="userSpaceOnUse"
       x1="39"
       y1="34"
       x2="39"
       y2="32" />
    <filter
       style="color-interpolation-filters:sRGB"
       id="filter6045-2">
      <feGaussianBlur
         id="feGaussianBlur6047-6"
         stdDeviation="0.1903125" />
    </filter>
    <linearGradient
       inkscape:collect="always"
       xlink:href="#linearGradient5875"
       id="linearGradient4320"
       gradientUnits="userSpaceOnUse"
       x1="38.473"
       y1="72"
       x2="38.473"
       y2="82.014" />
    <linearGradient
       inkscape:collect="always"
       xlink:href="#linearGradient5892"
       id="linearGradient4322"
       gradientUnits="userSpaceOnUse"
       x1="39"
       y1="73"
       x2="39"
       y2="83.042999" />
    <linearGradient
       inkscape:collect="always"
       xlink:href="#linearGradient3175"
       id="linearGradient4324"
       gradientUnits="userSpaceOnUse"
       x1="33"
       y1="76.5"
       x2="34"
       y2="76.5" />
    <linearGradient
       inkscape:collect="always"
       xlink:href="#linearGradient3175"
       id="linearGradient4326"
       gradientUnits="userSpaceOnUse"
       gradientTransform="translate(-78,0)"
       x1="33"
       y1="76.5"
       x2="34"
       y2="76.5" />
    <linearGradient
       inkscape:collect="always"
       xlink:href="#linearGradient3339"
       id="linearGradient4328"
       gradientUnits="userSpaceOnUse"
       gradientTransform="translate(0,4)"
       x1="39"
       y1="34"
       x2="39"
       y2="32" />
    <linearGradient
       inkscape:collect="always"
       xlink:href="#linearGradient5908"
       id="linearGradient4330"
       gradientUnits="userSpaceOnUse"
       gradientTransform="matrix(1,0,0,0.91071,0,9.9286)"
       x1="39"
       y1="34"
       x2="39"
       y2="32" />
    <filter
       style="color-interpolation-filters:sRGB"
       id="filter6036-5">
      <feGaussianBlur
         id="feGaussianBlur6038-1"
         stdDeviation="0.285" />
    </filter>
    <linearGradient
       inkscape:collect="always"
       xlink:href="#linearGradient5892"
       id="linearGradient4332"
       gradientUnits="userSpaceOnUse"
       x1="39"
       y1="72"
       x2="39"
       y2="42" />
    <linearGradient
       inkscape:collect="always"
       xlink:href="#linearGradient3175"
       id="linearGradient4334"
       gradientUnits="userSpaceOnUse"
       gradientTransform="matrix(2,0,0,1.3333,6,-141)"
       x1="33"
       y1="76.5"
       x2="34"
       y2="76.5" />
    <linearGradient
       inkscape:collect="always"
       xlink:href="#linearGradient6059"
       id="linearGradient4336"
       gradientUnits="userSpaceOnUse"
       x1="36.924999"
       y1="48"
       x2="42.851002"
       y2="48" />
    <linearGradient
       inkscape:collect="always"
       xlink:href="#linearGradient6075"
       id="linearGradient4338"
       gradientUnits="userSpaceOnUse"
       x1="34.139"
       y1="48"
       x2="43.643002"
       y2="48" />
    <linearGradient
       inkscape:collect="always"
       xlink:href="#linearGradient3309"
       id="linearGradient5414"
       gradientUnits="userSpaceOnUse"
       x1="30"
       y1="31"
       x2="48"
       y2="31" />
    <linearGradient
       inkscape:collect="always"
       xlink:href="#linearGradient3309"
       id="linearGradient5428"
       gradientUnits="userSpaceOnUse"
       x1="30"
       y1="31"
       x2="48"
       y2="31" />
    <linearGradient
       inkscape:collect="always"
       xlink:href="#linearGradient3339"
       id="linearGradient5442"
       gradientUnits="userSpaceOnUse"
       x1="39"
       y1="34"
       x2="39"
       y2="32" />
    <filter
       style="color-interpolation-filters:sRGB"
       id="filter5450">
      <feGaussianBlur
         id="feGaussianBlur5452"
         stdDeviation="0.1903125" />
    </filter>
    <linearGradient
       inkscape:collect="always"
       xlink:href="#linearGradient5875"
       id="linearGradient5454"
       gradientUnits="userSpaceOnUse"
       x1="38.473"
       y1="72"
       x2="38.473"
       y2="82.014" />
    <linearGradient
       inkscape:collect="always"
       xlink:href="#linearGradient5892"
       id="linearGradient5466"
       gradientUnits="userSpaceOnUse"
       x1="39"
       y1="73"
       x2="39"
       y2="83.042999" />
    <linearGradient
       inkscape:collect="always"
       xlink:href="#linearGradient3175"
       id="linearGradient5474"
       gradientUnits="userSpaceOnUse"
       x1="33"
       y1="76.5"
       x2="34"
       y2="76.5" />
    <linearGradient
       inkscape:collect="always"
       xlink:href="#linearGradient3175"
       id="linearGradient5482"
       gradientUnits="userSpaceOnUse"
       gradientTransform="translate(-78,0)"
       x1="33"
       y1="76.5"
       x2="34"
       y2="76.5" />
    <linearGradient
       inkscape:collect="always"
       xlink:href="#linearGradient3339"
       id="linearGradient5490"
       gradientUnits="userSpaceOnUse"
       gradientTransform="translate(0,4)"
       x1="39"
       y1="34"
       x2="39"
       y2="32" />
    <linearGradient
       inkscape:collect="always"
       xlink:href="#linearGradient5908"
       id="linearGradient5498"
       gradientUnits="userSpaceOnUse"
       gradientTransform="matrix(1,0,0,0.91071,0,9.9286)"
       x1="39"
       y1="34"
       x2="39"
       y2="32" />
    <filter
       style="color-interpolation-filters:sRGB"
       id="filter5508">
      <feGaussianBlur
         id="feGaussianBlur5510"
         stdDeviation="0.285" />
    </filter>
    <linearGradient
       inkscape:collect="always"
       xlink:href="#linearGradient5892"
       id="linearGradient5512"
       gradientUnits="userSpaceOnUse"
       x1="39"
       y1="72"
       x2="39"
       y2="42" />
    <linearGradient
       inkscape:collect="always"
       xlink:href="#linearGradient3175"
       id="linearGradient5520"
       gradientUnits="userSpaceOnUse"
       gradientTransform="matrix(2,0,0,1.3333,6,-141)"
       x1="33"
       y1="76.5"
       x2="34"
       y2="76.5" />
    <linearGradient
       inkscape:collect="always"
       xlink:href="#linearGradient6059"
       id="linearGradient5528"
       gradientUnits="userSpaceOnUse"
       x1="36.924999"
       y1="48"
       x2="42.851002"
       y2="48" />
    <linearGradient
       inkscape:collect="always"
       xlink:href="#linearGradient6075"
       id="linearGradient5536"
       gradientUnits="userSpaceOnUse"
       x1="34.139"
       y1="48"
       x2="43.643002"
       y2="48" />
    <linearGradient
       inkscape:collect="always"
       xlink:href="#linearGradient3309"
       id="linearGradient5544"
       gradientUnits="userSpaceOnUse"
       x1="30"
       y1="31"
       x2="48"
       y2="31" />
    <linearGradient
       inkscape:collect="always"
       xlink:href="#linearGradient3309"
       id="linearGradient5558"
       gradientUnits="userSpaceOnUse"
       x1="30"
       y1="31"
       x2="48"
       y2="31" />
    <linearGradient
       inkscape:collect="always"
       xlink:href="#linearGradient3339"
       id="linearGradient5572"
       gradientUnits="userSpaceOnUse"
       x1="39"
       y1="34"
       x2="39"
       y2="32" />
    <filter
       style="color-interpolation-filters:sRGB"
       id="filter5580">
      <feGaussianBlur
         id="feGaussianBlur5582"
         stdDeviation="0.1903125" />
    </filter>
    <linearGradient
       inkscape:collect="always"
       xlink:href="#linearGradient5875"
       id="linearGradient5584"
       gradientUnits="userSpaceOnUse"
       x1="38.473"
       y1="72"
       x2="38.473"
       y2="82.014" />
    <linearGradient
       inkscape:collect="always"
       xlink:href="#linearGradient5892"
       id="linearGradient5596"
       gradientUnits="userSpaceOnUse"
       x1="39"
       y1="73"
       x2="39"
       y2="83.042999" />
    <linearGradient
       inkscape:collect="always"
       xlink:href="#linearGradient3175"
       id="linearGradient5604"
       gradientUnits="userSpaceOnUse"
       x1="33"
       y1="76.5"
       x2="34"
       y2="76.5" />
    <linearGradient
       inkscape:collect="always"
       xlink:href="#linearGradient3175"
       id="linearGradient5612"
       gradientUnits="userSpaceOnUse"
       gradientTransform="translate(-78,0)"
       x1="33"
       y1="76.5"
       x2="34"
       y2="76.5" />
    <linearGradient
       inkscape:collect="always"
       xlink:href="#linearGradient3339"
       id="linearGradient5620"
       gradientUnits="userSpaceOnUse"
       gradientTransform="translate(0,4)"
       x1="39"
       y1="34"
       x2="39"
       y2="32" />
    <linearGradient
       inkscape:collect="always"
       xlink:href="#linearGradient5908"
       id="linearGradient5628"
       gradientUnits="userSpaceOnUse"
       gradientTransform="matrix(1,0,0,0.91071,0,9.9286)"
       x1="39"
       y1="34"
       x2="39"
       y2="32" />
    <filter
       style="color-interpolation-filters:sRGB"
       id="filter5638">
      <feGaussianBlur
         id="feGaussianBlur5640"
         stdDeviation="0.285" />
    </filter>
    <linearGradient
       inkscape:collect="always"
       xlink:href="#linearGradient5892"
       id="linearGradient5642"
       gradientUnits="userSpaceOnUse"
       x1="39"
       y1="72"
       x2="39"
       y2="42" />
    <linearGradient
       inkscape:collect="always"
       xlink:href="#linearGradient3175"
       id="linearGradient5650"
       gradientUnits="userSpaceOnUse"
       gradientTransform="matrix(2,0,0,1.3333,6,-141)"
       x1="33"
       y1="76.5"
       x2="34"
       y2="76.5" />
    <linearGradient
       inkscape:collect="always"
       xlink:href="#linearGradient6059"
       id="linearGradient5658"
       gradientUnits="userSpaceOnUse"
       x1="36.924999"
       y1="48"
       x2="42.851002"
       y2="48" />
    <linearGradient
       inkscape:collect="always"
       xlink:href="#linearGradient6075"
       id="linearGradient5666"
       gradientUnits="userSpaceOnUse"
       x1="34.139"
       y1="48"
       x2="43.643002"
       y2="48" />
    <radialGradient
       id="radialGradient3275"
       xlink:href="#linearGradient3737"
       gradientUnits="userSpaceOnUse"
       cy="45"
       cx="34.521"
       gradientTransform="matrix(1.5570596,-7.0878583e-8,3.2320511e-8,0.66289973,-22.411171,1.5295563)"
       r="27" />
    <linearGradient
       id="linearGradient3737">
      <stop
         id="stop3739"
         stop-color="#fff"
         offset="0" />
      <stop
         id="stop3741"
         stop-color="#fff"
         stop-opacity="0"
         offset="1" />
    </linearGradient>
    <radialGradient
       id="radialGradient3271"
       gradientUnits="userSpaceOnUse"
       cy="-0.56155002"
       cx="77.203003"
       gradientTransform="matrix(-1.9504657,0,0,-0.46937783,224.41285,16.045046)"
       r="21">
      <stop
         id="stop3267"
         stop-color="#6262ea"
         offset="0" />
      <stop
         id="stop3269"
         stop-color="#4b28d9"
         offset="1" />
    </radialGradient>
    <linearGradient
       id="linearGradient6065"
       y2="48"
       xlink:href="#linearGradient6059"
       gradientUnits="userSpaceOnUse"
       x2="42.851002"
       y1="48"
       x1="36.924999" />
    <linearGradient
       id="linearGradient6157-2"
       y2="48"
       xlink:href="#linearGradient6151"
       gradientUnits="userSpaceOnUse"
       x2="43.210999"
       y1="48"
       x1="34.570999" />
    <linearGradient
       id="linearGradient6149-5"
       y2="48"
       xlink:href="#linearGradient6159"
       gradientUnits="userSpaceOnUse"
       x2="43.643002"
       y1="48"
       x1="34.139" />
    <linearGradient
       id="linearGradient5696"
       y2="48"
       xlink:href="#linearGradient6059"
       gradientUnits="userSpaceOnUse"
       x2="42.851002"
       y1="48"
       x1="36.924999" />
    <linearGradient
       id="linearGradient6214-2"
       y2="48"
       xlink:href="#linearGradient6151"
       gradientUnits="userSpaceOnUse"
       x2="43.416"
       y1="48"
       x1="34.365002" />
    <linearGradient
       id="linearGradient5711"
       y2="48"
       xlink:href="#linearGradient6159"
       gradientUnits="userSpaceOnUse"
       x2="43.643002"
       y1="48"
       x1="34.139" />
    <linearGradient
       y2="48"
       x2="42.851002"
       y1="48"
       x1="36.924999"
       gradientUnits="userSpaceOnUse"
       id="linearGradient5777"
       xlink:href="#linearGradient6059"
       inkscape:collect="always" />
    <linearGradient
       y2="48"
       x2="43.643002"
       y1="48"
       x1="34.139"
       gradientUnits="userSpaceOnUse"
       id="linearGradient5779"
       xlink:href="#linearGradient6159"
       inkscape:collect="always" />
    <linearGradient
       inkscape:collect="always"
       xlink:href="#linearGradient3309"
       id="linearGradient5699"
       gradientUnits="userSpaceOnUse"
       x1="30"
       y1="31"
       x2="48"
       y2="31" />
    <linearGradient
       inkscape:collect="always"
       xlink:href="#linearGradient3309"
       id="linearGradient5701"
       gradientUnits="userSpaceOnUse"
       x1="30"
       y1="31"
       x2="48"
       y2="31" />
    <linearGradient
       inkscape:collect="always"
       xlink:href="#linearGradient3339"
       id="linearGradient5703"
       gradientUnits="userSpaceOnUse"
       x1="39"
       y1="34"
       x2="39"
       y2="32" />
    <linearGradient
       inkscape:collect="always"
       xlink:href="#linearGradient5875"
       id="linearGradient5705"
       gradientUnits="userSpaceOnUse"
       x1="38.473"
       y1="72"
       x2="38.473"
       y2="82.014" />
    <linearGradient
       inkscape:collect="always"
       xlink:href="#linearGradient5892"
       id="linearGradient5707"
       gradientUnits="userSpaceOnUse"
       x1="39"
       y1="73"
       x2="39"
       y2="83.042999" />
    <linearGradient
       inkscape:collect="always"
       xlink:href="#linearGradient3175"
       id="linearGradient5709"
       gradientUnits="userSpaceOnUse"
       x1="33"
       y1="76.5"
       x2="34"
       y2="76.5" />
    <linearGradient
       inkscape:collect="always"
       xlink:href="#linearGradient3175"
       id="linearGradient5712"
       gradientUnits="userSpaceOnUse"
       gradientTransform="translate(-78,0)"
       x1="33"
       y1="76.5"
       x2="34"
       y2="76.5" />
    <linearGradient
       inkscape:collect="always"
       xlink:href="#linearGradient3339"
       id="linearGradient5714"
       gradientUnits="userSpaceOnUse"
       gradientTransform="translate(0,4)"
       x1="39"
       y1="34"
       x2="39"
       y2="32" />
    <linearGradient
       inkscape:collect="always"
       xlink:href="#linearGradient5908"
       id="linearGradient5716"
       gradientUnits="userSpaceOnUse"
       gradientTransform="matrix(1,0,0,0.91071,0,9.9286)"
       x1="39"
       y1="34"
       x2="39"
       y2="32" />
    <linearGradient
       inkscape:collect="always"
       xlink:href="#linearGradient5892"
       id="linearGradient5718"
       gradientUnits="userSpaceOnUse"
       x1="39"
       y1="72"
       x2="39"
       y2="42" />
    <linearGradient
       inkscape:collect="always"
       xlink:href="#linearGradient3175"
       id="linearGradient5720"
       gradientUnits="userSpaceOnUse"
       gradientTransform="matrix(2,0,0,1.3333,6,-141)"
       x1="33"
       y1="76.5"
       x2="34"
       y2="76.5" />
    <linearGradient
       inkscape:collect="always"
       xlink:href="#linearGradient6059"
       id="linearGradient5722"
       gradientUnits="userSpaceOnUse"
       x1="36.924999"
       y1="48"
       x2="42.851002"
       y2="48" />
    <linearGradient
       inkscape:collect="always"
       xlink:href="#linearGradient6075"
       id="linearGradient5724"
       gradientUnits="userSpaceOnUse"
       x1="34.139"
       y1="48"
       x2="43.643002"
       y2="48" />
    <linearGradient
       inkscape:collect="always"
       xlink:href="#linearGradient4368"
       id="linearGradient5740"
       x1="5.4369998"
       y1="47.703201"
       x2="90.5"
       y2="47.703201"
       gradientUnits="userSpaceOnUse" />
  </defs>
  <metadata
     id="metadata7">
    <rdf:RDF>
      <cc:Work
         rdf:about="">
        <dc:format>image/svg+xml</dc:format>
        <dc:type
           rdf:resource="http://purl.org/dc/dcmitype/StillImage" />
        <dc:title></dc:title>
      </cc:Work>
    </rdf:RDF>
  </metadata>
  <rect
     style="fill-opacity:0.03921599"
     x="3.6078"
     y="3.6000221"
     width="88.762001"
     height="88.762001"
     ry="12.552"
     id="rect5261-6" />
  <rect
     style="fill-opacity:0.07843101"
     x="4.2157001"
     y="4.2100072"
     width="87.545998"
     height="87.545998"
     ry="12.38"
     id="rect5259-9" />
  <rect
     style="fill-opacity:0.15685999"
     x="4.8237"
     y="4.8199925"
     width="86.330002"
     height="86.330002"
     ry="12.208"
     id="rect5257-5" />
  <path
     inkscape:connector-curvature="0"
     style="opacity:0.9;fill:url(#linearGradient5740);fill-opacity:1.0"
     d="m 17.469,5.4062 c -6.668,0 -12.032,5.3948 -12.032,12.063 l 5e-4,61.031 c 0,5.418 3.5332,9.982 8.4375,11.5 l 68.187,0 c 4.715,-1.457 8.172,-5.734 8.438,-10.875 l 0,-62.281 c -0.321,-6.377 -5.54,-11.438 -12,-11.438 l -61.031,2e-4 z"
     id="rect2419" />
  <path
     style="fill-opacity:0.23528999"
     inkscape:connector-curvature="0"
     d="m 5.4316,73.44 0,5.0663 c 0,6.668 5.3645,12.032 12.032,12.032 l 61.049,0 c 6.668,0 12.032,-5.3645 12.032,-12.032 l 0,-5.0663 c 0,6.6681 -5.3645,12.032 -12.032,12.032 l -61.049,0 c -6.668,0 -12.032,-5.3643 -12.032,-12.032 z"
     id="rect5265-0" />
  <path
     style="fill-opacity:0.09803898"
     inkscape:connector-curvature="0"
     d="m 5.4316,77.54 0,1.0133 c 0,6.668 5.3645,12.032 12.032,12.032 l 61.049,0 c 6.668,0 12.032,-5.3645 12.032,-12.032 l 0,-1.0133 c 0,6.6681 -5.3645,12.032 -12.032,12.032 l -61.049,0 c -6.668,0 -12.032,-5.3644 -12.032,-12.032 z"
     id="path5252-0" />
  <rect
     style="display:none;fill:url(#linearGradient4167)"
     x="107.91"
     y="-9.0199728"
     display="none"
     width="84"
     height="84"
     ry="6"
     rx="6"
     id="rect3873" />
  <rect
     style="display:none;fill:url(#linearGradient4982)"
     x="107.91"
     y="-9.0199728"
     display="none"
     width="84"
     height="84"
     ry="6"
     rx="6"
     id="rect3880" />
  <g
     transform="translate(-0.5,-2.5)"
     id="layer5">
    <rect
       style="opacity:0.3;fill:url(#linearGradient90466);stroke:#ffffff;stroke-width:0.5;stroke-linecap:round;filter:url(#filter3794-41)"
       x="15"
       y="15"
       clip-path="url(#clipPath3613-55)"
       width="66"
       ry="12"
       rx="12"
       height="66"
       id="rect3171" />
  </g>
  <g
     transform="matrix(0.90024263,0,0,0.86987866,4.3305359,5.2637714)"
     id="layer6">
    <path
       style="fill:url(#linearGradient5777)"
       inkscape:connector-curvature="0"
       id="path6127"
       d="m 42.851,48 a 3.9597,3.9597 0 1 1 -7.9194,0 3.9597,3.9597 0 1 1 7.9194,0 z"
       transform="matrix(0,1.7678,-1.7678,0,102.85,9.2487)" />
    <path
       style="fill:url(#linearGradient6157-2);stroke:#000000;stroke-width:0.71995002;stroke-linecap:square"
       inkscape:connector-curvature="0"
       id="path6129"
       d="m 42.851,48 a 3.9597,3.9597 0 1 1 -7.9194,0 3.9597,3.9597 0 1 1 7.9194,0 z"
       transform="matrix(0,1.389,-1.389,0,84.671,23.981)" />
    <path
       style="fill:none;stroke:url(#linearGradient5779);stroke-width:0.41681001;stroke-linecap:square"
       inkscape:connector-curvature="0"
       id="path6131"
       d="m 42.851,48 a 3.9597,3.9597 0 1 1 -7.9194,0 3.9597,3.9597 0 1 1 7.9194,0 z"
       transform="matrix(0,1.1996,-1.1996,0,75.58,31.347)" />
    <text
       style="font-stretch:semi-condensed;font-size:3px;line-height:120.00000477%;font-family:'DejaVu Sans';fill:#666666"
       sodipodi:linespacing="120%"
       id="text6177"
       xml:space="preserve"
       font-size="3px"
       line-height="120.00000477%"
       font-stretch="semi-condensed"
       y="70"
       x="13.787839"><tspan
         id="tspan6179"
         y="70"
         x="13.787839">Power</tspan></text>
    <g
       id="g6191"
       transform="matrix(1.0227,0,0,1.0227,-0.29526,-1.4763)">
      <path
         style="fill:url(#linearGradient6065)"
         inkscape:connector-curvature="0"
         id="path6181"
         d="m 42.851,48 a 3.9597,3.9597 0 1 1 -7.9194,0 3.9597,3.9597 0 1 1 7.9194,0 z"
         transform="matrix(0,1.2347,-1.2347,0,77.153,12.094)" />
      <path
         style="fill:url(#linearGradient6214-2);stroke:#000000;stroke-width:1.13129997;stroke-linecap:square"
         inkscape:connector-curvature="0"
         id="path6183"
         d="m 42.851,48 a 3.9597,3.9597 0 1 1 -7.9194,0 3.9597,3.9597 0 1 1 7.9194,0 z"
         transform="matrix(0,0.86427,-0.86427,0,59.374,26.499)" />
      <path
         style="fill:none;stroke:url(#linearGradient6149-5);stroke-width:0.71995002;stroke-linecap:square"
         inkscape:connector-curvature="0"
         id="path6185"
         d="m 42.851,48 a 3.9597,3.9597 0 1 1 -7.9194,0 3.9597,3.9597 0 1 1 7.9194,0 z"
         transform="matrix(0,0.67907,-0.67907,0,50.484,33.701)" />
    </g>
    <text
       style="font-stretch:semi-condensed;font-size:3px;line-height:120.00000477%;font-family:'DejaVu Sans';fill:#666666"
       sodipodi:linespacing="120%"
       id="text6216"
       xml:space="preserve"
       font-size="3px"
       line-height="120.00000477%"
       font-stretch="semi-condensed"
       y="54"
       x="14.132813"><tspan
         id="tspan6218"
         y="54"
         x="14.132813">Reset</tspan></text>
    <text
       style="font-weight:bold;font-stretch:semi-condensed;font-size:2px;line-height:120.00000477%;font-family:'DejaVu Sans';fill:#666666"
       sodipodi:linespacing="120%"
       id="text6224"
       font-weight="bold"
       xml:space="preserve"
       font-size="2px"
       line-height="120.00000477%"
       font-stretch="semi-condensed"
       y="18.975868"
       x="9.8489876"><tspan
         id="tspan6226"
         y="18.975868"
         x="9.8489876">Icon Server</tspan></text>
  </g>
  <rect
     style="fill:#2e2e2e"
     x="31.337814"
     y="10.483044"
     width="48.613102"
     height="20.877089"
     id="rect3189" />
  <rect
     style="opacity:0.3"
     x="30.437572"
     y="10.483044"
     width="0.90024263"
     height="73.069809"
     id="rect3200" />
  <rect
     style="opacity:0.3"
     x="79.95092"
     y="10.483044"
     width="0.90024263"
     height="73.069809"
     id="rect3210" />
  <rect
     style="fill:url(#radialGradient3271);stroke:#2f2485;stroke-width:0.88493043;stroke-linecap:square"
     x="37.189392"
     y="16.137259"
     width="36.909946"
     height="9.5686655"
     id="rect3255" />
  <rect
     style="opacity:0.3;fill:url(#radialGradient3275)"
     x="31.337814"
     y="10.483044"
     width="48.613102"
     height="20.877089"
     id="rect3273" />
  <path
     style="fill:#aabce8"
     inkscape:connector-curvature="0"
     d="m 41.390824,17.463818 c -0.136387,0.242931 0.04159,0.41454 0.338752,0.326204 0.203689,0.0711 -0.01442,0.454434 0.02697,0.652409 -0.0075,0.264687 -0.06877,0.546354 -0.05626,0.842695 -0.0239,0.22763 -0.0094,0.562342 -0.396188,0.43494 -0.244307,-0.05716 -0.186026,0.446961 0.08673,0.29902 0.327319,-0.01899 0.732581,0.03734 1.012773,-0.02718 0.161377,-0.339923 -0.182497,-0.276552 -0.424321,-0.271837 -0.0036,-0.173002 0.0292,-0.503565 0.0586,-0.679593 0.02757,-0.440742 0.07019,-0.830352 0.11253,-1.250451 0.245299,2.86e-4 0.557053,0.07472 0.478254,-0.271837 -0.133551,-0.124671 -0.504469,-0.01997 -0.731447,-0.05437 l -0.506386,0 z m 9.790138,0 c 0.04564,0.312843 -0.353453,0.143782 -0.309458,0.462123 -0.0026,0.250786 -0.03883,0.465663 -0.05627,0.73396 0.299709,-0.06307 0.121172,0.335982 0.450121,0.244653 l 0.900243,0 c 0.01193,0.27429 -0.07973,0.539899 -0.05626,0.815512 -0.374429,0.01877 -0.82564,-0.03665 -1.153391,0.02718 -0.166887,0.352319 0.206551,0.270985 0.450121,0.271837 0.244092,-0.01786 0.562003,0.03562 0.75958,-0.02718 -0.02441,-0.299595 0.402021,-0.101854 0.281326,-0.489307 0.03681,-0.240609 0.04692,-0.423509 0.05627,-0.652409 -0.299709,0.06308 -0.121173,-0.335982 -0.450122,-0.244653 l -0.900242,0 c -0.01908,-0.275456 0.08052,-0.53956 0.05626,-0.815512 0.384593,-0.01802 0.842861,0.03517 1.181568,-0.02718 0.112387,-0.344942 -0.162259,-0.315897 -0.42432,-0.299021 l -0.785381,0 z m 2.166164,0 c 0.04564,0.312843 -0.353453,0.143782 -0.309458,0.462123 -0.0026,0.250786 -0.03883,0.465663 -0.05626,0.73396 0.351427,0.03534 0.172954,0.16646 -0.02813,0.21747 -0.01341,0.281753 -0.05449,0.58615 -0.0844,0.897018 0.299709,-0.06307 0.121173,0.335982 0.450122,0.244654 0.327382,-0.01892 0.731744,0.03653 1.012773,-0.02718 0.161377,-0.339922 -0.182498,-0.276552 -0.424321,-0.271837 l -0.700983,0 c 0.03037,-0.24407 0.02979,-0.58341 0.0844,-0.815511 0.376049,-0.01721 0.824181,0.03524 1.153391,-0.02718 0.107795,-0.331441 -0.181831,-0.278857 -0.424321,-0.271837 -0.219443,-0.03386 -0.611732,0.06921 -0.717853,-0.05441 0.04348,-0.268096 0.05407,-0.517865 0.07314,-0.761092 0.374222,-0.01897 0.825495,0.03651 1.153391,-0.02718 0.171667,-0.370107 -0.186171,-0.306537 -0.450122,-0.299021 l -0.731447,0 z m 2.166164,0 c 0.01792,0.2894 -0.398564,0.126419 -0.309458,0.489307 -0.005,0.228203 -0.04004,0.431137 -0.05627,0.679592 0.389751,0.05688 0.109002,0.133674 -0.02813,0.244654 0.02939,0.292305 -0.124063,0.647442 -0.02813,0.897018 0.326113,0.09727 0.286998,-0.158378 0.309459,-0.35451 0.03373,-0.211868 -0.05103,-0.606244 0.281325,-0.515368 0.330678,-0.07412 0.40502,0.09944 0.421989,0.328457 0.0317,0.177029 0.112927,0.306206 0.112531,0.514238 0.174998,0.13584 0.446448,-0.05779 0.309458,-0.244654 -0.02316,-0.147357 -0.104086,-0.242835 -0.0844,-0.434939 -0.277932,-0.187389 0.348034,-0.085 0.168796,-0.407756 0.345765,0.09851 0.24654,-0.232962 0.281325,-0.434939 -0.02464,-0.208362 0.220029,-0.64378 -0.168795,-0.543674 0.102475,-0.362165 -0.370144,-0.168643 -0.591946,-0.21747 l -0.617755,0 z m 4.30424,0 c 0.07744,0.319471 -0.371323,0.130508 -0.281326,0.462123 -0.02643,0.269271 -0.05301,0.477694 -0.05626,0.73396 0.339337,0.02769 0.156381,0.163354 -0.02813,0.21747 -0.04906,0.318027 -0.04684,0.572606 -0.0844,0.897018 0.299708,-0.06307 0.121172,0.335982 0.450121,0.244654 0.32921,-0.01715 0.730934,0.03575 1.012773,-0.02718 0.107795,-0.331441 -0.181831,-0.278857 -0.42432,-0.271837 -0.217283,-0.03432 -0.579487,0.07138 -0.700983,-0.05549 -0.0093,-0.256022 0.08043,-0.502572 0.05627,-0.760021 0.374222,-0.01897 0.825495,0.03651 1.153391,-0.02718 0.155102,-0.325839 -0.157777,-0.281727 -0.396188,-0.271837 -0.218759,-0.03439 -0.610437,0.06818 -0.717854,-0.05441 0.03399,-0.273411 0.03054,-0.483087 0.07314,-0.761092 0.37514,-0.01808 0.82591,0.03691 1.153391,-0.02718 0.16533,-0.356877 -0.16244,-0.311921 -0.42432,-0.299021 l -0.785381,0 z m 2.166164,0 c 0.05399,0.292923 -0.348673,0.120226 -0.281326,0.462123 -0.01575,0.222497 -0.06839,0.529869 -0.02813,0.706776 0.422772,0.09356 -0.0655,0.09783 -0.05627,0.300143 -0.02176,0.244001 -0.05519,0.536907 -0.0844,0.814389 0.241093,0.12274 0.413841,-0.0214 0.348853,-0.299064 0.09864,-0.191513 -0.09282,-0.627026 0.241931,-0.543622 0.269082,-0.02336 0.452246,-0.02198 0.421988,0.21747 0.05326,0.113414 0.06803,0.272246 0.112531,0.407755 -0.01024,0.14126 0.101367,0.364279 0.337591,0.21747 0.06714,-0.148662 -0.0082,-0.389723 -0.0844,-0.489307 -0.06473,-0.284085 -0.04928,-0.343184 0.196928,-0.407755 -0.02727,-0.288139 0.393199,-0.114737 0.264455,-0.516534 0.0074,-0.200464 0.12382,-0.538072 -0.01126,-0.652357 -0.261772,0.03743 -0.04016,-0.367419 -0.450121,-0.21747 l -0.92833,0 z m -23.012002,0.244653 c -0.03579,0.268523 -0.09243,0.6381 -0.0844,0.951473 0.197387,0.114215 0.404983,-0.01772 0.337591,-0.271837 -0.0053,-0.196009 0.0836,-0.476476 0.02813,-0.652409 -0.01365,-0.06539 -0.214087,-0.0094 -0.281326,-0.02718 z m 4.360595,0 c -0.08291,0.207797 -0.06278,0.472857 -0.0844,0.706777 -0.180147,0.272759 0.197622,0.3626 0.309459,0.217469 -0.04862,-0.235667 0.09849,-0.665787 0.0844,-0.190286 0.02051,0.151464 0.140609,0.352223 0.365724,0.21747 0.06596,-0.252578 -0.04326,-0.327388 -0.05627,-0.516491 -0.141842,-0.08919 -0.01759,-0.346838 -0.140663,-0.434939 l -0.478254,0 z m 1.378452,0 c -0.06558,0.260625 -0.06475,0.623547 -0.112531,0.951473 0.225412,0.124767 0.401769,-0.02791 0.365724,-0.244653 -0.0444,-0.229248 0.100674,-0.52398 0.02813,-0.706776 l -0.281325,0 z m 0.787712,0 c -0.06611,0.261007 -0.0632,0.623686 -0.11253,0.951473 0.225411,0.124767 0.401769,-0.02791 0.365723,-0.244653 -0.04139,-0.220714 0.121488,-0.575259 -0.02813,-0.706776 l -0.22506,0 z m 1.378451,0 c -0.03579,0.268523 -0.09243,0.6381 -0.0844,0.951473 0.197387,0.114215 0.404983,-0.01772 0.337591,-0.271837 -0.0053,-0.196009 0.0836,-0.476476 0.02813,-0.652409 -0.02592,-0.06716 -0.202473,-0.0084 -0.281326,-0.02718 z m 1.040861,0 c -0.142698,0.204796 0.05081,0.288809 0,0.489307 0.09233,0.09723 0.09289,0.279022 0.11253,0.434939 0.134064,0.154952 0.477435,0.04175 0.337591,-0.244653 -0.112647,-0.09956 -0.04783,-0.370603 -0.168795,-0.462123 0.043,-0.249708 -0.0568,-0.227178 -0.281326,-0.21747 z m 0.900242,0 c -0.03602,0.162041 -0.101673,0.332476 -0.196928,0.462123 -0.02409,0.157413 -0.193048,0.319768 -0.0844,0.516491 0.328876,0.09139 0.313158,-0.187598 0.384601,-0.381312 0.09044,-0.158257 0.136297,-0.286172 0.206174,-0.488567 0.03507,-0.174132 -0.183235,-0.08968 -0.309459,-0.108735 z m 8.608571,0 c -0.112072,0.262982 -0.06531,0.642449 -0.112531,0.951473 0.244668,0.137563 0.385754,-0.06658 0.348853,-0.326256 0.0018,-0.225577 0.08375,-0.447301 0.01687,-0.625182 l -0.253193,0 z m 1.15339,0 c -0.06839,0.167739 -0.131642,0.321403 -0.196928,0.462123 -0.05329,0.132448 -0.254723,0.378023 -0.0844,0.516491 0.295828,0.07654 0.305317,-0.196375 0.365723,-0.354511 0.02572,-0.189764 0.210801,-0.295158 0.196928,-0.517612 0.03338,-0.162354 -0.160522,-0.09274 -0.281326,-0.106482 z m -3.038318,0.08155 1.069038,0 c -0.0292,0.236016 -0.03595,0.52057 -0.0844,0.788328 l -1.040861,0 c -0.01331,-0.265226 0.07701,-0.521953 0.05627,-0.788328 z m 6.498671,0 1.069038,0 c -0.05761,0.280588 -0.03381,0.502721 -0.0844,0.788328 l -1.069038,0 c 0.06357,-0.270985 0.06019,-0.541186 0.0844,-0.788328 z m -23.15334,1.032981 c -0.09471,0.256371 -0.04904,0.553417 -0.106922,0.842791 0.01509,0.188581 0.279363,0.163476 0.275717,0.380476 0.385358,-0.01727 0.842952,0.03526 1.181569,-0.02718 0.112386,-0.344941 -0.16226,-0.315896 -0.42432,-0.29902 -0.217778,-0.0335 -0.615118,0.06847 -0.715189,-0.05384 0.04332,-0.292149 0.06199,-0.539412 0.07047,-0.816042 -0.05397,-0.04722 -0.183695,-0.02163 -0.281326,-0.02718 z m 4.332418,0 c -0.04099,0.267096 -0.09219,0.639178 -0.0844,0.951473 0.223908,0.129334 0.362384,-0.04656 0.337591,-0.244653 -0.0444,-0.229248 0.100674,-0.52398 0.02813,-0.706776 l -0.281325,0 z m 0.92833,0 c -0.08524,0.170566 0.03281,0.363235 0.05626,0.516491 0.09692,0.133256 -0.02498,0.477954 0.226222,0.462123 0.26053,0.03038 0.491676,0.02058 0.420827,-0.299021 0.03681,-0.240609 0.04692,-0.423509 0.05627,-0.652409 -0.241094,-0.12274 -0.413842,0.0214 -0.348854,0.299064 -0.04147,0.260903 -0.09152,-0.181265 -0.101268,-0.244697 0.01846,-0.138397 -0.201807,-0.0632 -0.309458,-0.08155 z m 1.237833,0 c -0.0572,0.224403 -0.04023,0.58629 -0.0844,0.816634 -0.01226,0.244888 0.295,0.12929 0.22506,0.406633 0.403768,-0.01761 0.880177,0.03498 1.237834,-0.02718 -0.103195,-0.344367 0.408665,-0.09442 0.253193,-0.489306 0.01751,-0.217313 0.135901,-0.574834 0,-0.706777 -0.360187,-0.110153 -0.261898,0.29268 -0.309458,0.516491 0.02228,0.266931 -0.03402,0.457939 -0.368055,0.380572 -0.206561,-0.05641 -0.723534,0.121374 -0.701262,-0.107674 0.01353,-0.241339 0.06919,-0.567361 0.02841,-0.762205 -0.01365,-0.06539 -0.214086,-0.0094 -0.281326,-0.02718 z m 2.644463,0 c -0.03602,0.162041 -0.101673,0.332477 -0.196928,0.462123 -0.0077,0.157039 -0.213754,0.324978 -0.11253,0.516491 0.343469,0.114415 0.279066,-0.165286 0.393856,-0.271837 0.06024,-0.220819 0.12607,-0.338053 0.20819,-0.516534 0.09082,-0.247994 -0.102745,-0.185632 -0.292588,-0.190243 z m 0.478254,0 c -0.142697,0.204796 0.05081,0.288809 0,0.489307 0.09233,0.09723 0.09289,0.279022 0.11253,0.434939 0.134064,0.154952 0.477435,0.04175 0.337591,-0.244653 -0.112647,-0.09956 -0.04783,-0.370603 -0.168795,-0.462123 0.043,-0.249708 -0.0568,-0.227178 -0.281326,-0.21747 z m 8.805453,0 c -0.06558,0.260625 -0.06475,0.623547 -0.11253,0.951473 0.124026,0.0093 0.56483,0.126742 0.572095,-0.08193 0.05226,-0.218879 0.175655,-0.339426 0.215617,-0.570484 0.182623,-0.133787 0.0674,-0.420247 -0.22506,-0.29902 -0.04633,0.163641 -0.0944,0.325595 -0.168796,0.462123 -0.04633,-0.137772 0.132795,-0.580357 -0.225061,-0.462123 l -0.02813,0 -0.02813,0 z m -15.810061,2.827106 c 0.06939,0.311703 -0.403318,0.09959 -0.281326,0.462123 0.0014,0.22616 -0.144903,0.592248 0,0.73396 0.27967,-0.04222 0.01752,0.407321 0.450122,0.244653 l 0.843977,0 c -0.05589,0.281737 -0.03406,0.502651 -0.0844,0.788328 -0.376049,0.01721 -0.824181,-0.03524 -1.15339,0.02718 -0.112387,0.344941 0.162259,0.315896 0.42432,0.29902 0.261989,-0.01794 0.598463,0.03611 0.813513,-0.02718 -0.103195,-0.344368 0.408665,-0.09443 0.253193,-0.489307 0.01921,-0.216426 0.135883,-0.573894 0,-0.706776 -0.446547,-0.09038 0.199215,-0.07524 0.112531,-0.326205 0.01187,-0.2521 0.07263,-0.580461 0.02813,-0.788328 -0.312987,0.07591 -0.09463,-0.361617 -0.478254,-0.217469 l -0.92833,0 z m 2.166164,0 c -0.136387,0.242931 0.04159,0.41454 0.338752,0.326204 l 0.786551,0 c -0.05589,0.281737 -0.03406,0.502651 -0.0844,0.788328 -0.375528,0.01771 -0.825748,-0.03675 -1.153391,0.02718 -0.0257,0.260841 -0.364599,0.158448 -0.281326,0.489306 0.05763,0.213329 -0.142031,0.55701 0,0.679593 0.279534,-0.03451 0.07742,0.396369 0.478254,0.244653 0.299402,-0.01878 0.675263,0.03633 0.92833,-0.02718 0.16533,-0.356877 -0.16244,-0.311921 -0.42432,-0.299021 -0.217283,-0.03432 -0.579487,0.07138 -0.700983,-0.05549 -0.0036,-0.246419 0.07974,-0.484513 0.05627,-0.732838 0.384935,-0.01768 0.843257,0.03554 1.181568,-0.02718 -0.103195,-0.344368 0.408665,-0.09443 0.253194,-0.489307 0.01921,-0.216426 0.135882,-0.573894 0,-0.706777 -0.261773,0.03743 -0.04017,-0.367419 -0.450122,-0.217469 l -0.92833,0 z m 5.035777,0 c 0.01792,0.2894 -0.398564,0.126419 -0.309458,0.489307 0.01948,0.216912 -0.08812,0.488202 -0.02813,0.679592 0.422772,0.09356 -0.0655,0.09783 -0.05626,0.300143 -0.02176,0.244001 -0.05519,0.536907 -0.0844,0.814389 0.318839,-0.07249 0.103024,0.37163 0.450122,0.271837 0.327382,-0.01892 0.731744,0.03653 1.012773,-0.02718 -0.05845,-0.329719 0.388742,-0.115833 0.281325,-0.489307 0.0094,-0.223237 0.04118,-0.431712 0.05627,-0.679593 -0.299709,0.06307 -0.121173,-0.335982 -0.450122,-0.244653 l -0.92833,0 c 0.06303,-0.273116 0.06006,-0.538368 0.0844,-0.788328 0.374222,-0.01897 0.825495,0.03651 1.153391,-0.02718 0.171667,-0.370108 -0.186171,-0.306537 -0.450122,-0.299021 l -0.731447,0 z m 2.166164,0 c 0.01791,0.2894 -0.398564,0.126419 -0.309458,0.489307 0.01948,0.216912 -0.08813,0.488202 -0.02813,0.679592 0.441128,0.108683 -0.05564,0.09034 -0.05626,0.300143 0.01742,0.273133 -0.121317,0.610333 -0.02813,0.841573 0.336214,-0.08815 0.0156,0.405955 0.450122,0.244653 0.309008,-0.01856 0.693916,0.03623 0.956507,-0.02718 -0.05845,-0.329719 0.388743,-0.115833 0.281326,-0.489307 0.0371,-0.250403 0.04972,-0.437871 0.05626,-0.679593 -0.389751,-0.05688 -0.109001,-0.133674 0.02813,-0.244653 0.01611,-0.268349 0.05933,-0.569484 0.0844,-0.869879 -0.299709,0.06307 -0.121173,-0.335982 -0.450122,-0.244653 l -0.984685,0 z m 5.0076,0 c 0.08504,0.30945 -0.366264,0.100653 -0.281326,0.410008 -0.0327,0.214051 -0.05365,0.506914 -0.0844,0.758891 0.225412,0.124767 0.401769,-0.02791 0.365724,-0.244653 0.05824,-0.185267 -0.0927,-0.626043 0.171127,-0.598042 l 0.926079,0 c 0.02363,0.283589 -0.12282,0.628818 -0.02813,0.869879 0.32126,0.102402 0.327085,-0.175916 0.309458,-0.410009 0.0036,-0.132186 0.119093,-0.485653 0,-0.568605 -0.263123,0.02772 -0.100368,-0.356076 -0.478254,-0.217469 l -0.900242,0 z m 2.166163,0 c 0.06939,0.311703 -0.403317,0.09959 -0.281325,0.462123 -0.02628,0.259198 -0.04994,0.463402 -0.05627,0.706776 0.197388,0.114215 0.404984,-0.01772 0.337591,-0.271837 0.06799,-0.177438 -0.09009,-0.610168 0.225061,-0.570858 l 0.87211,0 c -2.17e-4,0.302927 -0.05657,0.563395 -0.05626,0.842695 0.225826,0.127959 0.388257,-0.04496 0.348853,-0.299064 0.003,-0.234267 0.08524,-0.462758 0.01687,-0.652357 -0.312988,0.07591 -0.09463,-0.361617 -0.478254,-0.217469 l -0.928331,0 z m 2.756993,0 c -0.136386,0.242931 0.04159,0.41454 0.338753,0.326204 l 0.786551,0 c -0.05589,0.281737 -0.03406,0.502651 -0.0844,0.788328 -0.375527,0.01771 -0.825748,-0.03675 -1.153391,0.02718 -0.0257,0.260841 -0.364598,0.158448 -0.281326,0.489306 0.05763,0.213329 -0.142031,0.55701 0,0.679593 0.279535,-0.03451 0.07742,0.396369 0.478254,0.244653 0.299403,-0.01878 0.675263,0.03633 0.92833,-0.02718 0.16533,-0.356877 -0.162439,-0.311921 -0.42432,-0.299021 -0.217282,-0.03432 -0.579486,0.07138 -0.700983,-0.05549 -0.0036,-0.246419 0.07974,-0.484513 0.05627,-0.732838 0.384935,-0.01768 0.843258,0.03554 1.181569,-0.02718 -0.103195,-0.344368 0.408665,-0.09443 0.253193,-0.489307 0.01921,-0.216426 0.135883,-0.573894 0,-0.706777 -0.261773,0.03743 -0.04016,-0.367419 -0.450121,-0.217469 l -0.928331,0 z m 2.194342,0 c 0.01791,0.2894 -0.398565,0.126419 -0.309459,0.489307 0.01949,0.216912 -0.08812,0.488202 -0.02813,0.679592 0.288258,0.158501 0.346044,-0.09986 0.331982,-0.353484 0.07506,-0.197132 -0.0891,-0.593083 0.258802,-0.489211 l 0.843978,0 c -0.01541,0.260607 -0.05646,0.551529 -0.0844,0.842695 0.225412,0.124767 0.401769,-0.02791 0.365723,-0.244653 -0.03797,-0.229439 0.102295,-0.52325 0.02813,-0.706777 -0.312987,0.07591 -0.09463,-0.361617 -0.478254,-0.217469 l -0.92833,0 z m 2.166164,0 c 0.08504,0.30945 -0.366264,0.100653 -0.281326,0.410008 -0.0327,0.214051 -0.05365,0.506914 -0.0844,0.758891 0.225412,0.124767 0.401769,-0.02791 0.365724,-0.244653 0.05824,-0.185267 -0.0927,-0.626043 0.171127,-0.598042 l 0.926079,0 c 0.02359,0.283589 -0.122821,0.628818 -0.02809,0.869879 0.321261,0.102402 0.327085,-0.175916 0.309458,-0.410009 0.0036,-0.132186 0.119093,-0.485653 0,-0.568605 -0.263123,0.02772 -0.100368,-0.356076 -0.478254,-0.217469 l -0.900241,0 z m -24.700858,0.217469 c -0.06094,0.264826 -0.06519,0.622059 -0.11253,0.951474 0.199827,0.10977 0.44192,6.9e-4 0.365724,-0.271837 -0.05121,-0.212277 0.143624,-0.557836 0,-0.679593 l -0.253194,0 z m 7.201942,0 c -0.07981,0.207014 -0.05948,0.478573 -0.0844,0.706777 -0.180148,0.272759 0.197621,0.3626 0.309458,0.21747 -0.02671,-0.302657 0.124783,-0.663761 0.02813,-0.924247 l -0.253193,0 z m 7.173853,0 c -0.06094,0.264826 -0.06519,0.622059 -0.11253,0.951474 0.199826,0.10977 0.44192,6.9e-4 0.365723,-0.271837 -0.05121,-0.212277 0.143625,-0.557836 0,-0.679593 l -0.253193,0 z m -13.278579,0.108735 1.040861,0 c -0.0014,0.280014 -0.04801,0.536994 -0.05626,0.788328 l -1.069039,0 c 0.05863,-0.278822 0.03055,-0.505608 0.0844,-0.788328 z m 9.340017,0 1.069039,0 c -0.02017,0.244767 -0.04138,0.515099 -0.0844,0.788328 l -1.040861,0 c -0.01469,-0.266 0.08076,-0.521345 0.05627,-0.788328 z m -10.549943,1.005754 c -0.0572,0.224403 -0.04023,0.58629 -0.0844,0.816633 -0.09042,0.253196 0.421008,0.227291 0.337591,-0.0283 0.01187,-0.2521 0.07263,-0.580462 0.02813,-0.788328 l -0.281326,0 z m 7.201941,0 c -0.05482,0.264634 -0.08422,0.618423 -0.0844,0.951473 0.197388,0.114215 0.404984,-0.01772 0.337591,-0.271837 -0.0068,-0.19601 0.08592,-0.474432 0.02813,-0.652409 -0.01365,-0.06539 -0.214087,-0.0094 -0.281326,-0.02718 z m 7.173854,0 c -0.0572,0.224403 -0.04023,0.58629 -0.0844,0.816633 -0.09042,0.253196 0.421007,0.227291 0.337591,-0.0283 0.01187,-0.2521 0.07263,-0.580462 0.02813,-0.788328 l -0.281325,0 z m 0.787712,0 c -0.0572,0.224403 -0.04023,0.58629 -0.0844,0.816633 -0.01226,0.244889 0.295001,0.12929 0.225061,0.406634 0.403768,-0.01761 0.880176,0.03498 1.237833,-0.02718 -0.103194,-0.344367 0.408666,-0.09442 0.253194,-0.489307 0.01921,-0.216425 0.135882,-0.573893 0,-0.706776 -0.360187,-0.110153 -0.261899,0.292679 -0.309459,0.51649 0.02228,0.266931 -0.03402,0.457939 -0.368055,0.380572 -0.206561,-0.05641 -0.723534,0.121375 -0.701262,-0.107673 0.01286,-0.241539 0.06933,-0.565569 0.02841,-0.762205 -0.02592,-0.06716 -0.202474,-0.0084 -0.281326,-0.02718 z m 2.194341,0 c -0.07981,0.207014 -0.05948,0.478572 -0.0844,0.706776 -0.197838,0.374074 0.306757,0.155674 0.196928,0.489307 0.347349,0.06307 0.816322,0.0086 1.209746,0.02718 -0.07743,-0.319472 0.371323,-0.130508 0.281325,-0.462123 0.0043,-0.24461 0.12075,-0.559297 0.05627,-0.761144 -0.356181,-0.108204 -0.318767,0.16392 -0.337591,0.381694 -0.04199,0.191852 0.06158,0.600703 -0.253194,0.515368 l -0.843977,0 c -0.01809,-0.306214 0.09984,-0.627165 0.02813,-0.869878 -0.01853,-0.06521 -0.180778,-0.01085 -0.253194,-0.02718 z m 4.923247,0 c -0.03579,0.268523 -0.09243,0.638099 -0.0844,0.951473 0.329057,-0.07539 0.05657,0.349987 0.396188,0.271837 0.336115,-0.0188 0.748786,0.03638 1.03861,-0.02718 -0.05845,-0.329719 0.388743,-0.115833 0.281326,-0.489307 0.0371,-0.250403 0.04972,-0.437871 0.05627,-0.679593 -0.259387,-0.132552 -0.413985,0.04162 -0.348853,0.326257 -0.09864,0.191512 0.09282,0.627026 -0.241931,0.543622 l -0.87211,0 c 0.01611,-0.268349 0.05933,-0.569484 0.0844,-0.869879 -0.06065,-0.05028 -0.204184,-0.01944 -0.309459,-0.02718 z m 2.166164,0 c -0.0572,0.224403 -0.04023,0.58629 -0.0844,0.816633 -0.01226,0.244889 0.295001,0.12929 0.225061,0.406634 0.403768,-0.01761 0.880175,0.03498 1.237833,-0.02718 -0.103195,-0.344367 0.408665,-0.09442 0.253193,-0.489307 0.01918,-0.216425 0.135882,-0.573893 0,-0.706776 -0.360187,-0.110153 -0.261899,0.292679 -0.309459,0.51649 0.02224,0.266931 -0.03403,0.457939 -0.368055,0.380572 -0.20656,-0.05641 -0.723533,0.121375 -0.701261,-0.107673 0.01286,-0.241539 0.06933,-0.565569 0.02841,-0.762205 -0.02592,-0.06716 -0.202474,-0.0084 -0.281326,-0.02718 z m -16.17646,0.108735 1.069038,0 c 0.01467,0.265974 -0.08073,0.521414 -0.05626,0.788327 l -1.069038,0 c 0.0105,-0.245993 0.06567,-0.509096 0.05626,-0.788327 z m 2.194342,0 1.04086,0 c 0.01467,0.265974 -0.08073,0.521414 -0.05626,0.788327 l -1.069038,0 c 0.02132,-0.246106 0.03894,-0.512289 0.0844,-0.788327 z m -5.485899,0.924246 c -0.137845,0.177838 0.05344,0.422778 0.253193,0.271837 0.14593,-0.237512 0.03019,-0.316984 -0.253193,-0.271837 z m 7.173854,0 c -0.137846,0.177838 0.05344,0.422778 0.253193,0.271837 0.145929,-0.237512 0.03018,-0.316984 -0.253193,-0.271837 z m 7.201941,0 c -0.137846,0.177838 0.05344,0.422778 0.253193,0.271837 0.10107,-0.210615 0.01607,-0.325317 -0.253193,-0.271837 z"
     id="path3290" />
  <g
     transform="matrix(0.90024263,0,0,0.86987866,4.3305359,5.2637714)"
     id="g6120">
    <path
       style="fill:#d4ff2a"
       inkscape:connector-curvature="0"
       transform="matrix(0.87996,0,0,0.93172,4.1111,1.614)"
       d="m 38.512,27.246 a 1.1364,1.0733 0 1 1 -2.2728,0 1.1364,1.0733 0 1 1 2.2728,0 z"
       id="path3293" />
    <path
       style="fill:#ffa000"
       inkscape:connector-curvature="0"
       transform="matrix(0.87996,0,0,0.93172,8.1111,1.614)"
       d="m 38.512,27.246 a 1.1364,1.0733 0 1 1 -2.2728,0 1.1364,1.0733 0 1 1 2.2728,0 z"
       id="path3295" />
    <path
       style="fill:#d4ff2a"
       inkscape:connector-curvature="0"
       transform="matrix(0.87996,0,0,0.93172,12.111,1.614)"
       d="m 38.512,27.246 a 1.1364,1.0733 0 1 1 -2.2728,0 1.1364,1.0733 0 1 1 2.2728,0 z"
       id="path3297" />
    <path
       style="fill:#ff4d2a"
       inkscape:connector-curvature="0"
       transform="matrix(0.87996,0,0,0.93172,16.111,1.614)"
       d="m 38.512,27.246 a 1.1364,1.0733 0 1 1 -2.2728,0 1.1364,1.0733 0 1 1 2.2728,0 z"
       id="path3299" />
  </g>
  <g
     transform="matrix(0.90024263,0,0,0.86987866,4.3305359,5.2637714)"
     id="g6086">
    <path
       style="fill:#999999"
       inkscape:connector-curvature="0"
       d="m 33.969,50.281 c -0.08293,0.58638 -0.39841,1.0984 -0.875,1.4062 l 0,4.625 c 0.551,0.357 0.906,0.983 0.906,1.688 10e-7,0.70494 -0.35472,1.3313 -0.90625,1.6875 l 0,4.625 c 0.551,0.356 0.906,0.982 0.906,1.687 1e-6,0.70494 -0.35472,1.3313 -0.90625,1.6875 l 0,4.625 c 0.551,0.356 0.906,0.982 0.906,1.687 1e-6,0.70494 -0.35472,1.3313 -0.90625,1.6875 l 0,2 0.9375,0 c 0.149,-0.956 0.97,-1.688 1.968,-1.688 0.99766,0 1.8185,0.73182 1.9688,1.6875 l 4.0625,0 c 0.149,-0.956 0.97,-1.688 1.968,-1.688 0.51964,0 0.98802,0.20598 1.3438,0.53125 l 0,-5.0625 c -0.356,0.326 -0.824,0.532 -1.344,0.532 -1.104,0 -2,-0.896 -2,-2 10e-7,-1.104 0.896,-2 2,-2 0.51964,0 0.98802,0.20598 1.3438,0.53125 l 0,-5.0625 c -0.356,0.326 -0.824,0.532 -1.344,0.532 -1.104,0 -2,-0.896 -2,-2 10e-7,-1.104 0.896,-2 2,-2 0.51964,0 0.98802,0.20598 1.3438,0.53125 l 0,-5.0625 c -0.356,0.326 -0.824,0.532 -1.344,0.532 -1.104,0 -2,-0.896 -2,-2 10e-7,-1.104 0.896,-2 2,-2 0.51964,0 0.98802,0.20598 1.3438,0.53125 l 0,-2.25 -3.375,0 c -0.138,0.971 -0.961,1.719 -1.969,1.719 -1.008,0 -1.831,-0.748 -1.969,-1.719 l -4.0625,0 z M 36,52 c 1.104,0 2,0.896 2,2 10e-7,1.104 -0.896,2 -2,2 -1.104,0 -2,-0.896 -2,-2 10e-7,-1.104 0.896,-2 2,-2 z m 4,4 c 1.104,0 2,0.896 2,2 10e-7,1.104 -0.896,2 -2,2 -1.104,0 -2,-0.896 -2,-2 10e-7,-1.104 0.896,-2 2,-2 z m -4,4 c 1.104,0 2,0.896 2,2 10e-7,1.104 -0.896,2 -2,2 -1.104,0 -2,-0.896 -2,-2 10e-7,-1.104 0.896,-2 2,-2 z m 4,4 c 1.104,0 2,0.896 2,2 10e-7,1.104 -0.896,2 -2,2 -1.104,0 -2,-0.896 -2,-2 10e-7,-1.104 0.896,-2 2,-2 z m -4,4 c 1.104,0 2,0.896 2,2 10e-7,1.104 -0.896,2 -2,2 -1.104,0 -2,-0.896 -2,-2 10e-7,-1.104 0.896,-2 2,-2 z m 4,4 c 1.104,0 2,0.896 2,2 10e-7,1.104 -0.896,2 -2,2 -1.104,0 -2,-0.896 -2,-2 10e-7,-1.104 0.896,-2 2,-2 z"
       id="path5968" />
    <rect
       style="opacity:0.64542003;fill:#a5a5a5"
       x="30"
       y="34"
       width="18"
       height="50"
       id="rect5832" />
    <rect
       style="fill:url(#linearGradient5699)"
       x="30"
       y="30"
       width="18"
       height="2"
       id="rect3301" />
    <rect
       style="fill:url(#linearGradient5701)"
       x="30"
       y="30"
       width="18"
       height="2"
       id="rect3317" />
    <rect
       x="30"
       y="32"
       width="18"
       height="1"
       id="rect3325" />
    <rect
       style="fill:#c4c4c4"
       x="30"
       y="33"
       width="18"
       height="1"
       id="rect3327" />
    <rect
       style="fill:url(#linearGradient5703)"
       x="33"
       y="32"
       width="12"
       height="2"
       id="rect3329" />
    <path
       style="fill:none;stroke:#000000;stroke-linecap:square;filter:url(#filter6045-2)"
       inkscape:connector-curvature="0"
       d="M 34,68.969 34,75 c 0,0.554 0.446,1 1,1 0.554,0 1,-0.446 1,-1 l 0,-6.0312 -2,0 z m 4,0 0,6.031 c 0,0.554 0.446,1 1,1 0.554,0 1,-0.446 1,-1 l 0,-6.0312 -2,0 z m 4,0 0,6.031 c 0,0.554 0.446,1 1,1 0.554,0 1,-0.446 1,-1 l 0,-6.0312 -2,0 z"
       id="path6040" />
    <rect
       style="fill:none;stroke:#000000;stroke-linecap:square"
       x="30.5"
       y="34.5"
       width="17"
       height="49"
       id="rect3191" />
    <path
       inkscape:connector-curvature="0"
       style="fill:url(#linearGradient5705)"
       d="m 32,72 0,10 14,0 0,-10 -2,0 0,3 c 0,0.554 -0.446,1 -1,1 -0.554,0 -1,-0.446 -1,-1 l 0,-3 -2,0 0,3 c 0,0.554 -0.446,1 -1,1 -0.554,0 -1,-0.446 -1,-1 l 0,-3 -2,0 0,3 c 0,0.554 -0.446,1 -1,1 -0.554,0 -1,-0.446 -1,-1 l 0,-3 -2,0 z"
       id="rect5845" />
    <path
       inkscape:connector-curvature="0"
       style="fill:url(#linearGradient5707)"
       d="m 31,73 0,8 0,2 2,0 12,0 1.0938,0 0.90625,0 0,-10 -2,0 0,8 -12,0 0,-8 -2,0 z"
       id="rect5834" />
    <rect
       x="31"
       y="72"
       width="2"
       height="1"
       id="rect5841" />
    <rect
       x="45"
       y="72"
       width="2"
       height="1"
       id="rect5843" />
    <rect
       style="fill:url(#linearGradient5709)"
       x="33"
       y="72"
       width="1"
       height="9"
       id="rect5878" />
    <rect
       style="fill:url(#linearGradient5712)"
       x="-45"
       y="72"
       width="1"
       height="9"
       transform="scale(-1,1)"
       id="rect5888" />
    <rect
       x="30.535999"
       y="34.812"
       width="16.875"
       height="7.1875"
       id="rect5900" />
    <rect
       style="opacity:0.6;fill:url(#linearGradient5714)"
       x="33"
       y="36"
       width="12"
       height="2"
       id="rect5902" />
    <rect
       style="fill:url(#linearGradient5716)"
       x="33"
       y="39.070999"
       width="12"
       height="1.8214"
       id="rect5906" />
    <rect
       style="fill:#545454"
       x="31"
       y="36"
       width="1"
       height="5"
       id="rect5918" />
    <rect
       style="fill:#545454"
       x="46"
       y="36"
       width="1"
       height="5"
       id="rect5920" />
    <path
       style="fill:none;stroke:#000000;stroke-linecap:square;filter:url(#filter6036-5)"
       inkscape:connector-curvature="0"
       d="M 34,51.5 34,67 c 0,0.554 0.446,1 1,1 0.554,0 1,-0.446 1,-1 L 36,53.281 C 35.213,52.834 34.518,52.238 34,51.5 Z m 10,0 c -0.51837,0.73816 -1.2126,1.3338 -2,1.7812 l 0,13.719 c 0,0.554 0.446,1 1,1 0.554,0 1,-0.446 1,-1 l 0,-15.5 z m -6,2.5 0,13 c 0,0.554 0.446,1 1,1 0.554,0 1,-0.446 1,-1 l 0,-13 c -0.32749,0.05456 -0.6571,0.09375 -1,0.09375 -0.3429,0 -0.67251,-0.03919 -1,-0.09375 z"
       id="path6020" />
    <path
       inkscape:connector-curvature="0"
       style="fill:url(#linearGradient5718)"
       d="m 31,42 0,30 16,0 0,-30 -16,0 z m 3,9.5 c 0.51837,0.73816 1.2126,1.3338 2,1.7812 l 0,13.719 c 0,0.554 -0.446,1 -1,1 -0.554,0 -1,-0.446 -1,-1 l 0,-15.5 z m 10,0 0,15.5 c 0,0.554 -0.446,1 -1,1 -0.554,0 -1,-0.446 -1,-1 l 0,-13.719 c 0.787,-0.447 1.482,-1.043 2,-1.781 z M 38,54 c 0.32749,0.05456 0.6571,0.09375 1,0.09375 0.3429,0 0.67251,-0.03919 1,-0.09375 l 0,13 c 0,0.554 -0.446,1 -1,1 -0.554,0 -1,-0.446 -1,-1 l 0,-13 z"
       id="rect5922" />
    <rect
       style="fill:url(#linearGradient5720)"
       x="72"
       y="-45"
       width="2"
       height="12"
       transform="matrix(0,1,-1,0,0,0)"
       id="rect5932" />
    <path
       inkscape:connector-curvature="0"
       style="fill:url(#linearGradient5722)"
       transform="matrix(0,1.2347,-1.2347,0,98.264,-0.017494)"
       d="m 42.851,48 a 3.9597,3.9597 0 1 1 -7.9194,0 3.9597,3.9597 0 1 1 7.9194,0 z"
       id="path6049" />
    <path
       style="fill:#c6c6c6;stroke:#000000;stroke-width:1.13129997;stroke-linecap:square"
       inkscape:connector-curvature="0"
       transform="matrix(0.8839,0,0,0.8839,4.6243,5.5728)"
       d="m 42.851,48 a 3.9597,3.9597 0 1 1 -7.9194,0 3.9597,3.9597 0 1 1 7.9194,0 z"
       id="path5936" />
    <path
       style="opacity:0.15;fill:#ffffff"
       inkscape:connector-curvature="0"
       d="m 34,67 0,1 c 0,0.554 0.446,1 1,1 0.554,0 1,-0.446 1,-1 l 0,-1 c 0,0.554 -0.446,1 -1,1 -0.554,0 -1,-0.446 -1,-1 z m 4,0 0,1 c 0,0.554 0.446,1 1,1 0.554,0 1,-0.446 1,-1 l 0,-1 c 0,0.554 -0.446,1 -1,1 -0.554,0 -1,-0.446 -1,-1 z m 4,0 0,1 c 0,0.554 0.446,1 1,1 0.554,0 1,-0.446 1,-1 l 0,-1 c 0,0.554 -0.446,1 -1,1 -0.554,0 -1,-0.446 -1,-1 z"
       id="path5963" />
    <path
       inkscape:connector-curvature="0"
       style="fill:none;stroke:url(#linearGradient5724);stroke-width:1.58389997;stroke-linecap:square"
       transform="matrix(0,0.63136,-0.63136,0,69.305,23.446)"
       d="m 42.851,48 a 3.9597,3.9597 0 1 1 -7.9194,0 3.9597,3.9597 0 1 1 7.9194,0 z"
       id="path6067" />
    <path
       style="opacity:0.42629"
       inkscape:connector-curvature="0"
       d="m 39,46.5 c -0.83227,0 -1.5312,0.69898 -1.5312,1.5312 0,0.69356 0.51281,1.2637 1.1562,1.4375 l 0,0.5 0.6875,0 0,-0.46875 c 0.686,-0.139 1.188,-0.741 1.188,-1.469 0,-0.832 -0.668,-1.531 -1.5,-1.531 z m 0,0.5 c 0.56174,10e-7 1,0.46951 1,1.0312 -10e-7,0.56174 -0.43826,1 -1,1 -0.56174,-10e-7 -1.0312,-0.43826 -1.0312,-1 0,-0.561 0.469,-1.031 1.031,-1.031 z"
       id="path6077" />
  </g>
  <use
     x="0"
     y="0"
     width="96"
     height="96"
     transform="translate(16.204367,0)"
     xlink:href="#g6086"
     id="use6116" />
  <use
     x="0"
     y="0"
     width="96"
     height="96"
     transform="translate(32.408735,0)"
     xlink:href="#g6086"
     id="use6118" />
</svg>
