<?xml version="1.0" encoding="UTF-8" standalone="no"?>
<!-- Created with Inkscape (http://www.inkscape.org/) -->

<svg
   xmlns:dc="http://purl.org/dc/elements/1.1/"
   xmlns:cc="http://creativecommons.org/ns#"
   xmlns:rdf="http://www.w3.org/1999/02/22-rdf-syntax-ns#"
   xmlns:svg="http://www.w3.org/2000/svg"
   xmlns="http://www.w3.org/2000/svg"
   xmlns:xlink="http://www.w3.org/1999/xlink"
   xmlns:sodipodi="http://sodipodi.sourceforge.net/DTD/sodipodi-0.dtd"
   xmlns:inkscape="http://www.inkscape.org/namespaces/inkscape"
   id="svg2"
   height="96"
   width="96"
   version="1.1"
   inkscape:version="0.91 r"
   sodipodi:docname="network-workgroup.svg">
  <sodipodi:namedview
     pagecolor="#ffffff"
     bordercolor="#666666"
     borderopacity="1"
     objecttolerance="10"
     gridtolerance="10"
     guidetolerance="10"
     inkscape:pageopacity="0"
     inkscape:pageshadow="2"
     inkscape:window-width="1366"
     inkscape:window-height="717"
     id="namedview97"
     showgrid="false"
     inkscape:zoom="1.2291667"
     inkscape:cx="-58.876117"
     inkscape:cy="76.565159"
     inkscape:window-x="0"
     inkscape:window-y="0"
     inkscape:window-maximized="1"
     inkscape:current-layer="svg2" />
  <defs
     id="defs4">
    <linearGradient
       id="linearGradient6400"
       y2="2.9934"
       gradientUnits="userSpaceOnUse"
       x2="47.995"
       y1="84.031"
       x1="47.995">
      <stop
         id="stop6396"
         stop-color="#ccc"
         offset="0" />
      <stop
         id="stop6398"
         stop-color="#dae0de"
         offset="1" />
    </linearGradient>
    <radialGradient
       id="radialGradient6415"
       gradientUnits="userSpaceOnUse"
       cy="-15.871"
       cx="56.066"
       gradientTransform="matrix(0.0022597,0.92548,-1.3844,0,25.902,-30.211)"
       r="35.938">
      <stop
         id="stop3177-8"
         stop-color="#4490e6"
         offset="0" />
      <stop
         id="stop3179-85"
         stop-color="#103d8f"
         offset="1" />
    </radialGradient>
    <clipPath
       id="clipPath6423"
       clipPathUnits="userSpaceOnUse">
      <rect
         id="rect6425"
         ry="7.8031"
         height="61.004"
         width="64.562"
         y="967.42"
         x="16.061"
         fill="url(#linearGradient6427)" />
    </clipPath>
    <linearGradient
       id="linearGradient6427"
       y2="1427.6"
       gradientUnits="userSpaceOnUse"
       x2="3415"
       gradientTransform="matrix(.29063 0 0 .34170 -934.72 469.12)"
       y1="1594.7"
       x1="3391.4">
      <stop
         id="stop4911"
         stop-color="#1a1a1a"
         offset="0" />
      <stop
         id="stop4913"
         stop-color="#7a7a7a"
         offset="1" />
    </linearGradient>
    <linearGradient
       id="linearGradient3286">
      <stop
         id="stop3288"
         stop-color="#fff"
         offset="0" />
      <stop
         id="stop3298-6"
         stop-color="#fff"
         offset="0.15" />
      <stop
         id="stop3290"
         stop-color="#fff"
         stop-opacity=".4375"
         offset="0.3" />
      <stop
         id="stop3294"
         stop-color="#412788"
         stop-opacity="0"
         offset="1" />
    </linearGradient>
    <linearGradient
       id="linearGradient3452-0">
      <stop
         id="stop3454-6"
         stop-color="#fff"
         stop-opacity="0"
         offset="0" />
      <stop
         id="stop3456-3"
         stop-color="#aac2e7"
         offset="1" />
    </linearGradient>
    <linearGradient
       id="linearGradient3418">
      <stop
         id="stop3420-9"
         stop-color="#fff"
         offset="0" />
      <stop
         id="stop3422"
         stop-color="#98b7e5"
         offset="1" />
    </linearGradient>
    <linearGradient
       id="linearGradient3276-1">
      <stop
         id="stop3278-1"
         stop-color="#fff"
         offset="0" />
      <stop
         id="stop3284-36"
         stop-color="#fff"
         stop-opacity=".61719"
         offset="0.3" />
      <stop
         id="stop3286-5"
         stop-color="#fff"
         stop-opacity=".21875"
         offset="0.6" />
      <stop
         id="stop3280-7"
         stop-color="#fff"
         stop-opacity="0"
         offset="1" />
    </linearGradient>
    <filter
       id="filter3174"
       color-interpolation-filters="sRGB">
      <feGaussianBlur
         id="feGaussianBlur3176"
         stdDeviation="1.71" />
    </filter>
    <linearGradient
       id="ButtonShadow-3"
       x1="45.448"
       gradientUnits="userSpaceOnUse"
       y1="92.54"
       gradientTransform="scale(1.0059,0.99417)"
       x2="45.448"
       y2="7.0165">
      <stop
         id="stop3750-6"
         offset="0" />
      <stop
         id="stop3752-1"
         stop-opacity=".58824"
         offset="1" />
    </linearGradient>
    <radialGradient
       id="radialGradient15016"
       gradientUnits="userSpaceOnUse"
       cy="65.119"
       cx="65.796"
       gradientTransform="matrix(0.72247,0,0,0.8033,-0.37705,-4.4626)"
       r="16.062">
      <stop
         id="stop3268"
         stop-color="#ffa727"
         offset="0" />
      <stop
         id="stop3270"
         stop-color="#ffe680"
         offset="1" />
    </radialGradient>
    <radialGradient
       id="radialGradient15018"
       xlink:href="#linearGradient3286"
       gradientUnits="userSpaceOnUse"
       cy="34.052"
       cx="30.233"
       r="4.2476" />
    <radialGradient
       id="radialGradient15022"
       xlink:href="#linearGradient3276-1"
       gradientUnits="userSpaceOnUse"
       cy="34.052"
       cx="30.233"
       r="4.2476" />
    <linearGradient
       id="linearGradient15040"
       y2="86.233"
       xlink:href="#linearGradient3418"
       gradientUnits="userSpaceOnUse"
       x2="86.142"
       gradientTransform="matrix(0.72247,0,0,0.72247,3.6229,3.6011)"
       y1="71.482"
       x1="86.142" />
    <linearGradient
       id="linearGradient15042"
       y2="73.28"
       xlink:href="#linearGradient3452-0"
       gradientUnits="userSpaceOnUse"
       x2="81.455"
       y1="78.777"
       x1="81.455" />
    <linearGradient
       id="linearGradient15050"
       y2="92.006"
       xlink:href="#linearGradient3418"
       gradientUnits="userSpaceOnUse"
       x2="66.541"
       gradientTransform="matrix(0.72247,0,0,0.72247,1.6229,6.6011)"
       y1="85.295"
       x1="66.541" />
    <linearGradient
       id="linearGradient15058"
       y2="56.034"
       xlink:href="#linearGradient3418"
       gradientUnits="userSpaceOnUse"
       x2="47.341"
       gradientTransform="matrix(0.72247,0,0,0.72247,1.6229,3.6011)"
       y1="49.562"
       x1="47.341" />
    <linearGradient
       inkscape:collect="always"
       xlink:href="#linearGradient6400"
       id="linearGradient4451"
       gradientUnits="userSpaceOnUse"
       x1="47.995"
       y1="84.031"
       x2="47.995"
       y2="2.9934"
       gradientTransform="matrix(0.60658723,0,0,0.58735076,6.6825182,6.4112704)" />
    <radialGradient
       inkscape:collect="always"
       xlink:href="#radialGradient6415"
       id="radialGradient4453"
       gradientUnits="userSpaceOnUse"
       gradientTransform="matrix(0.0022597,0.92548,-1.3844,0,25.902,-30.211)"
       cx="56.066"
       cy="-15.871"
       r="35.938" />
    <linearGradient
       inkscape:collect="always"
       xlink:href="#ButtonShadow-3"
       id="linearGradient4455"
       gradientUnits="userSpaceOnUse"
       gradientTransform="scale(1.0059,0.99417)"
       x1="45.448"
       y1="92.54"
       x2="45.448"
       y2="7.0165" />
    <linearGradient
       inkscape:collect="always"
       xlink:href="#linearGradient6400"
       id="linearGradient4545"
       gradientUnits="userSpaceOnUse"
       gradientTransform="matrix(0.42458601,0,0,0.42458601,30.016137,28.470682)"
       x1="47.995"
       y1="84.031"
       x2="47.995"
       y2="2.9934" />
    <radialGradient
       inkscape:collect="always"
       xlink:href="#radialGradient6415"
       id="radialGradient4547"
       gradientUnits="userSpaceOnUse"
       gradientTransform="matrix(0.0022597,0.92548,-1.3844,0,25.902,-30.211)"
       cx="56.066"
       cy="-15.871"
       r="35.938" />
  </defs>
  <metadata
     id="metadata7">
    <rdf:RDF>
      <cc:Work
         rdf:about="">
        <dc:format>image/svg+xml</dc:format>
        <dc:type
           rdf:resource="http://purl.org/dc/dcmitype/StillImage" />
        <dc:title></dc:title>
      </cc:Work>
    </rdf:RDF>
  </metadata>
  <rect
     style="fill-opacity:0.01960802"
     x="3.3534"
     y="2.9899757"
     width="89.624001"
     height="89.977997"
     ry="12.724"
     id="rect5263-0" />
  <rect
     style="fill-opacity:0.03921599"
     x="3.9589"
     y="3.6000221"
     width="88.413002"
     height="88.762001"
     ry="12.552"
     id="rect5261-6" />
  <rect
     style="fill-opacity:0.07843101"
     x="4.5644999"
     y="4.2100072"
     width="87.202003"
     height="87.545998"
     ry="12.38"
     id="rect5259-9" />
  <rect
     style="fill-opacity:0.15685999"
     x="5.1701002"
     y="4.8199925"
     width="85.990997"
     height="86.330002"
     ry="12.208"
     id="rect5257-5" />
  <path
     inkscape:connector-curvature="0"
     style="fill:#f2f2f2"
     d="m 17.75,5.4062 c -6.642,0 -11.969,5.3948 -11.969,12.063 l 2e-4,61.031 c 0,6.668 5.3268,12.031 11.969,12.031 l 60.812,0 c 6.642,0 11.969,-5.363 11.969,-12.031 l 0,-61.031 c 0,-6.668 -5.327,-12.063 -11.969,-12.063 l -60.812,2e-4 z"
     id="rect2419" />
  <rect
     y="-42.81356"
     x="68.338974"
     height="20.338984"
     width="3.8644068"
     id="rect4577"
     style="opacity:1;fill:#808080;fill-opacity:1;stroke:none"
     transform="matrix(0,1,-1,0,0,0)"
     inkscape:transform-center-x="8.4118016"
     inkscape:transform-center-y="-7.9322034" />
  <path
     style="fill-opacity:0.11764999"
     inkscape:connector-curvature="0"
     d="m 5.7756,73.44 0,5.0663 c 0,6.668 5.3434,12.032 11.985,12.032 l 60.809,0 c 6.6418,0 11.985,-5.3645 11.985,-12.032 l 0,-5.0663 c 0,6.6681 -5.3434,12.032 -11.985,12.032 l -60.809,0 c -6.6418,0 -11.985,-5.3643 -11.985,-12.032 z"
     id="rect5265-0" />
  <path
     style="fill-opacity:0.09803898"
     inkscape:connector-curvature="0"
     d="m 5.7756,77.54 0,1.0133 c 0,6.668 5.3434,12.032 11.985,12.032 l 60.809,0 c 6.6418,0 11.985,-5.3645 11.985,-12.032 l 0,-1.0133 c 0,6.6681 -5.3434,12.032 -11.985,12.032 l -60.809,0 c -6.6418,0 -11.985,-5.3644 -11.985,-12.032 z"
     id="path5252-0" />
  <g
     style="display:none"
     transform="translate(-484.11,-195.5)"
     display="none"
     id="layer2">
    <rect
       style="opacity:0.9;fill:url(#ButtonShadow-3);filter:url(#filter3174)"
       x="5"
       y="7"
       width="86"
       height="85"
       ry="6"
       rx="6"
       id="rect3745" />
  </g>
  <rect
     style="opacity:1;fill:#808080;fill-opacity:1;stroke:none"
     id="rect4575"
     width="3.8644068"
     height="20.135593"
     x="21.661016"
     y="49.728809" />
  <rect
     inkscape:transform-center-y="-7.9322034"
     inkscape:transform-center-x="8.4118016"
     transform="matrix(0,1,-1,0,0,0)"
     style="opacity:1;fill:#808080;fill-opacity:1;stroke:none"
     id="rect4597"
     width="3.8644068"
     height="20.338984"
     x="23.99999"
     y="-69.593224" />
  <g
     id="g4579"
     transform="matrix(0.86392281,0,0,0.86392281,1.754981,1.4164859)">
    <rect
       style="fill-opacity:0.01960802"
       x="8.7166481"
       y="8.1674347"
       width="54.364773"
       height="52.848648"
       ry="7.4734511"
       id="rect4351" />
    <rect
       style="fill-opacity:0.03921599"
       x="9.0839386"
       y="8.5257473"
       width="53.630199"
       height="52.134426"
       ry="7.3724265"
       id="rect4353" />
    <rect
       style="fill-opacity:0.07843101"
       x="9.4512815"
       y="8.8840227"
       width="52.895618"
       height="51.420212"
       ry="7.2714028"
       id="rect4355" />
    <rect
       style="fill-opacity:0.15685999"
       x="9.8186369"
       y="9.2422981"
       width="52.161041"
       height="50.70599"
       ry="7.1703782"
       id="rect4357" />
    <path
       inkscape:connector-curvature="0"
       style="fill:url(#linearGradient4451)"
       d="m 17.449441,9.5866064 c -4.028952,0 -7.260241,3.1686406 -7.260241,7.0852136 l 1.21e-4,35.846604 c 0,3.916455 3.231168,7.066418 7.260242,7.066418 l 36.887782,0 c 4.028952,0 7.260242,-3.149963 7.260242,-7.066418 l 0,-35.846604 c 0,-3.916456 -3.23129,-7.0852136 -7.260242,-7.0852136 l -36.887782,1.169e-4 z"
       id="path4359" />
    <path
       style="fill-opacity:0.11764999"
       inkscape:connector-curvature="0"
       d="m 10.185924,49.546311 0,2.975695 c 0,3.916456 3.241237,7.067005 7.269947,7.067005 l 36.885963,0 c 4.02883,0 7.269947,-3.150843 7.269947,-7.067005 l 0,-2.975695 c 0,3.916513 -3.241237,7.067005 -7.269947,7.067005 l -36.885963,0 c -4.028832,0 -7.269947,-3.150726 -7.269947,-7.067005 z"
       id="path4361" />
    <path
       style="fill-opacity:0.09803898"
       inkscape:connector-curvature="0"
       d="m 10.185924,51.954449 0,0.595164 c 0,3.916454 3.241237,7.067004 7.269947,7.067004 l 36.885963,0 c 4.02883,0 7.269947,-3.150844 7.269947,-7.067004 l 0,-0.595164 c 0,3.916515 -3.241237,7.067005 -7.269947,7.067005 l -36.885963,0 c -4.028832,0 -7.269947,-3.150783 -7.269947,-7.067005 z"
       id="path4363" />
    <rect
       style="opacity:0.5;fill:#4d4d4d"
       x="14.102293"
       y="14.070339"
       width="43.354004"
       height="32.891644"
       ry="4.207252"
       id="rect4365" />
    <g
       transform="matrix(0.65468959,0,0,0.53917038,4.1313351,-506.19794)"
       clip-path="url(#clipPath6423)"
       id="g4367">
      <g
         transform="matrix(1,0,0,0.93125,0.27169,953.28)"
         style="enable-background:new"
         id="g4369">
        <path
           inkscape:connector-curvature="0"
           style="fill:url(#radialGradient4453)"
           transform="matrix(-1.0009,0,0,-1.334,96.01,99.966)"
           d="m 12.062,12.062 0,53.875 71.875,0 0,-53.875 -71.875,0 z"
           id="path4371" />
        <rect
           style="opacity:0.4;fill:#c3d9f5"
           x="11.786"
           y="74"
           width="72.536003"
           height="10"
           ry="2.3829999"
           rx="3.0290999"
           id="rect4373" />
        <rect
           style="opacity:0.4;fill:#c3d9f5"
           x="11.786"
           y="12"
           width="72.536003"
           height="10"
           ry="2.3829999"
           rx="3.0290999"
           id="rect4375" />
        <path
           inkscape:connector-curvature="0"
           d="m 19,13 c -3.2894,0 -6,2.7106 -6,6 l 0,58 c 0,3.2894 2.7106,6 6,6 l 58,0 c 3.2894,0 6,-2.7106 6,-6 l 0,-58 c 0,-3.2894 -2.7106,-6 -6,-6 l -58,0 z m 0,4 58,0 c 1.1426,0 2,0.85741 2,2 l 0,58 c 0,1.1426 -0.85741,2 -2,2 l -58,0 c -1.1426,0 -2,-0.85741 -2,-2 l 0,-58 c 0,-1.1426 0.85741,-2 2,-2 z"
           style="color:#000000;text-indent:0;text-transform:none;block-progression:tb;opacity:0.07999998;enable-background:accumulate"
           id="path4377" />
        <path
           inkscape:connector-curvature="0"
           d="m 17,14 c -1.662,0 -3,1.338 -3,3 l 0,62 c 0,1.662 1.338,3 3,3 l 62,0 c 1.662,0 3,-1.338 3,-3 l 0,-62 c 0,-1.662 -1.338,-3 -3,-3 l -62,0 z m 0,1.9375 62,0 c 0.61816,0 1.0625,0.44434 1.0625,1.0625 l 0,62 c 0,0.61816 -0.44434,1.0625 -1.0625,1.0625 l -62,0 c -0.61816,0 -1.0625,-0.44434 -1.0625,-1.0625 l 0,-62 c 0,-0.61816 0.44434,-1.0625 1.0625,-1.0625 z"
           style="color:#000000;opacity:0.1;enable-background:accumulate"
           id="path4379" />
        <path
           inkscape:connector-curvature="0"
           d="m 17,14 c -1.662,0 -3,1.338 -3,3 l 0,62 c 0,1.662 1.338,3 3,3 l 62,0 c 1.662,0 3,-1.338 3,-3 l 0,-62 c 0,-1.662 -1.338,-3 -3,-3 l -62,0 z m 0,0.96875 62,0 c 1.1401,0 2.0312,0.89117 2.0312,2.0312 l 0,62 c 0,1.1401 -0.89117,2.0312 -2.0312,2.0312 l -62,0 c -1.1401,0 -2.0312,-0.89117 -2.0312,-2.0312 l 0,-62 c 0,-1.1401 0.89117,-2.0312 2.0312,-2.0312 z"
           style="color:#000000;opacity:0.25;enable-background:accumulate"
           id="path4381" />
      </g>
    </g>
  </g>
  <g
     id="g4387"
     display="none"
     transform="translate(-590.53556,-200.9651)"
     style="display:none">
    <rect
       id="rect4389"
       rx="6"
       ry="6"
       height="85"
       width="86"
       y="7"
       x="5"
       style="opacity:0.9;fill:url(#linearGradient4455);filter:url(#filter3174)" />
  </g>
  <g
     id="g4549"
     transform="matrix(1.2342483,0,0,1.195107,1.426683,0.68588328)">
    <rect
       style="fill:#999999"
       x="35.592186"
       y="-41.758453"
       width="6.3734603"
       height="0.47562125"
       ry="0.23781911"
       transform="scale(1,-1)"
       id="rect4383" />
    <rect
       style="fill:#808080"
       x="35.592186"
       y="-41.546162"
       width="6.3734603"
       height="0.47562125"
       ry="0.23781911"
       transform="scale(1,-1)"
       id="rect4385" />
    <rect
       id="rect4509"
       ry="5.4024324"
       height="38.2034"
       width="38.053097"
       y="29.740185"
       x="31.439943"
       style="fill-opacity:0.01960802" />
    <rect
       id="rect4511"
       ry="5.3294034"
       height="37.687103"
       width="37.538925"
       y="29.999203"
       x="31.697031"
       style="fill-opacity:0.03921599" />
    <rect
       id="rect4513"
       ry="5.2563748"
       height="37.170807"
       width="37.02475"
       y="30.258194"
       x="31.954157"
       style="fill-opacity:0.07843101" />
    <rect
       id="rect4515"
       ry="5.1833463"
       height="36.65451"
       width="36.510574"
       y="30.517185"
       x="32.211292"
       style="fill-opacity:0.15685999" />
    <path
       id="path4517"
       d="m 37.552539,30.766079 c -2.8201,0 -5.081869,2.290557 -5.081869,5.121782 l 8.5e-5,25.912908 c 0,2.83114 2.261684,5.108195 5.081869,5.108195 l 25.819924,0 c 2.8201,0 5.08187,-2.277055 5.08187,-5.108195 l 0,-25.912908 c 0,-2.83114 -2.26177,-5.121782 -5.08187,-5.121782 l -25.819924,8.5e-5 z"
       style="fill:url(#linearGradient4545)"
       inkscape:connector-curvature="0" />
    <path
       id="path4519"
       d="m 32.468377,59.652279 0,2.15108 c 0,2.83114 2.268732,5.108619 5.088662,5.108619 l 25.818651,0 c 2.820015,0 5.088663,-2.277691 5.088663,-5.108619 l 0,-2.15108 c 0,2.831182 -2.268732,5.108619 -5.088663,5.108619 l -25.818651,0 c -2.820015,0 -5.088662,-2.277607 -5.088662,-5.108619 z"
       inkscape:connector-curvature="0"
       style="fill-opacity:0.11764999" />
    <path
       id="path4521"
       d="m 32.468377,61.393082 0,0.430233 c 0,2.831139 2.268732,5.108619 5.088662,5.108619 l 25.818651,0 c 2.820015,0 5.088663,-2.277692 5.088663,-5.108619 l 0,-0.430233 c 0,2.831182 -2.268732,5.108619 -5.088663,5.108619 l -25.818651,0 c -2.820015,0 -5.088662,-2.277649 -5.088662,-5.108619 z"
       inkscape:connector-curvature="0"
       style="fill-opacity:0.09803898" />
    <rect
       id="rect4523"
       ry="3.041352"
       height="23.776817"
       width="30.346012"
       y="34.007294"
       x="35.209675"
       style="opacity:0.5;fill:#4d4d4d" />
    <g
       id="g4525"
       clip-path="url(#clipPath6423)"
       transform="matrix(0.45825568,0,0,0.38975722,28.230414,-342.08591)">
      <g
         id="g4527"
         style="enable-background:new"
         transform="matrix(1,0,0,0.93125,0.27169,953.28)">
        <path
           id="path4529"
           d="m 12.062,12.062 0,53.875 71.875,0 0,-53.875 -71.875,0 z"
           transform="matrix(-1.0009,0,0,-1.334,96.01,99.966)"
           style="fill:url(#radialGradient4547)"
           inkscape:connector-curvature="0" />
        <rect
           id="rect4531"
           rx="3.0290999"
           ry="2.3829999"
           height="10"
           width="72.536003"
           y="74"
           x="11.786"
           style="opacity:0.4;fill:#c3d9f5" />
        <rect
           id="rect4533"
           rx="3.0290999"
           ry="2.3829999"
           height="10"
           width="72.536003"
           y="12"
           x="11.786"
           style="opacity:0.4;fill:#c3d9f5" />
        <path
           id="path4535"
           style="color:#000000;text-indent:0;text-transform:none;block-progression:tb;opacity:0.07999998;enable-background:accumulate"
           d="m 19,13 c -3.2894,0 -6,2.7106 -6,6 l 0,58 c 0,3.2894 2.7106,6 6,6 l 58,0 c 3.2894,0 6,-2.7106 6,-6 l 0,-58 c 0,-3.2894 -2.7106,-6 -6,-6 l -58,0 z m 0,4 58,0 c 1.1426,0 2,0.85741 2,2 l 0,58 c 0,1.1426 -0.85741,2 -2,2 l -58,0 c -1.1426,0 -2,-0.85741 -2,-2 l 0,-58 c 0,-1.1426 0.85741,-2 2,-2 z"
           inkscape:connector-curvature="0" />
        <path
           id="path4537"
           style="color:#000000;opacity:0.1;enable-background:accumulate"
           d="m 17,14 c -1.662,0 -3,1.338 -3,3 l 0,62 c 0,1.662 1.338,3 3,3 l 62,0 c 1.662,0 3,-1.338 3,-3 l 0,-62 c 0,-1.662 -1.338,-3 -3,-3 l -62,0 z m 0,1.9375 62,0 c 0.61816,0 1.0625,0.44434 1.0625,1.0625 l 0,62 c 0,0.61816 -0.44434,1.0625 -1.0625,1.0625 l -62,0 c -0.61816,0 -1.0625,-0.44434 -1.0625,-1.0625 l 0,-62 c 0,-0.61816 0.44434,-1.0625 1.0625,-1.0625 z"
           inkscape:connector-curvature="0" />
        <path
           id="path4539"
           style="color:#000000;opacity:0.25;enable-background:accumulate"
           d="m 17,14 c -1.662,0 -3,1.338 -3,3 l 0,62 c 0,1.662 1.338,3 3,3 l 62,0 c 1.662,0 3,-1.338 3,-3 l 0,-62 c 0,-1.662 -1.338,-3 -3,-3 l -62,0 z m 0,0.96875 62,0 c 1.1401,0 2.0312,0.89117 2.0312,2.0312 l 0,62 c 0,1.1401 -0.89117,2.0312 -2.0312,2.0312 l -62,0 c -1.1401,0 -2.0312,-0.89117 -2.0312,-2.0312 l 0,-62 c 0,-1.1401 0.89117,-2.0312 2.0312,-2.0312 z"
           inkscape:connector-curvature="0" />
      </g>
    </g>
    <rect
       id="rect4541"
       transform="scale(1,-1)"
       ry="0.23781911"
       height="0.47562125"
       width="6.3734603"
       y="-61.605381"
       x="56.014389"
       style="fill:#999999" />
    <rect
       id="rect4543"
       transform="scale(1,-1)"
       ry="0.23781911"
       height="0.47562125"
       width="6.3734603"
       y="-61.393089"
       x="56.014389"
       style="fill:#808080" />
  </g>
  <circle
     style="opacity:1;fill:#808080;fill-opacity:1;stroke:none"
     id="path4571"
     cx="23.508474"
     cy="70.661018"
     r="5" />
  <circle
     r="5"
     cy="70.026176"
     cx="23.508474"
     id="circle4573"
     style="opacity:1;fill:#b3b3b3;fill-opacity:1;stroke:none" />
  <rect
     y="5.3898263"
     x="68.440674"
     height="20.135593"
     width="3.8644068"
     id="rect4599"
     style="opacity:1;fill:#808080;fill-opacity:1;stroke:none" />
  <circle
     r="5"
     cy="26.322035"
     cx="70.288132"
     id="circle4601"
     style="opacity:1;fill:#808080;fill-opacity:1;stroke:none" />
  <circle
     style="opacity:1;fill:#b3b3b3;fill-opacity:1;stroke:none"
     id="circle4603"
     cx="70.288132"
     cy="25.687193"
     r="5" />
</svg>
