<?xml version="1.0" encoding="UTF-8" standalone="no"?>
<!-- Created with Inkscape (http://www.inkscape.org/) -->
<svg id="svg2408" xmlns:rdf="http://www.w3.org/1999/02/22-rdf-syntax-ns#" xmlns="http://www.w3.org/2000/svg" height="96" width="96" version="1.0" xmlns:cc="http://creativecommons.org/ns#" xmlns:xlink="http://www.w3.org/1999/xlink" xmlns:dc="http://purl.org/dc/elements/1.1/">
 <defs id="defs2410">
  <linearGradient id="ButtonShadow" y2="7.0165" gradientUnits="userSpaceOnUse" x2="45.448" gradientTransform="scale(1.0059 .99417)" y1="92.54" x1="45.448">
   <stop id="stop3750" offset="0"/>
   <stop id="stop3752" stop-opacity=".58824" offset="1"/>
  </linearGradient>
  <linearGradient id="linearGradient3737">
   <stop id="stop3739" stop-color="#fff" offset="0"/>
   <stop id="stop3741" stop-color="#fff" stop-opacity="0" offset="1"/>
  </linearGradient>
  <filter id="filter3174" color-interpolation-filters="sRGB">
   <feGaussianBlur id="feGaussianBlur3176" stdDeviation="1.71"/>
  </filter>
  <linearGradient id="linearGradient3188" y2="63.893" xlink:href="#linearGradient3737" gradientUnits="userSpaceOnUse" x2="36.357" y1="6" x1="36.357"/>
  <radialGradient id="radialGradient3619" xlink:href="#linearGradient3737" gradientUnits="userSpaceOnUse" cy="90.172" cx="48" gradientTransform="matrix(1.1573 0 0 .99591 -7.551 .19713)" r="42"/>
  <linearGradient id="ButtonShadow-0" y2="7.0165" gradientUnits="userSpaceOnUse" x2="45.448" gradientTransform="matrix(1.0059 0 0 .99417 100 0)" y1="92.54" x1="45.448">
   <stop id="stop3750-8" offset="0"/>
   <stop id="stop3752-5" stop-opacity=".58824" offset="1"/>
  </linearGradient>
  <linearGradient id="linearGradient3780" y2="90.239" xlink:href="#ButtonShadow-0" gradientUnits="userSpaceOnUse" x2="32.251" gradientTransform="matrix(1.0238 0 0 1.0119 -1.1429 -98.071)" y1="6.1317" x1="32.251"/>
  <linearGradient id="linearGradient3721" y2="90.239" xlink:href="#ButtonShadow-0" gradientUnits="userSpaceOnUse" x2="32.251" gradientTransform="translate(0,-97)" y1="6.1317" x1="32.251"/>
  <radialGradient id="radialGradient2877" gradientUnits="userSpaceOnUse" cy="133.1" cx="115.9" gradientTransform="matrix(.25365 0 0 .25366 16 16)" r="154.62">
   <stop id="stop3899" stop-color="#294172" stop-opacity=".37405" offset="0"/>
   <stop id="stop3901" stop-color="#294172" offset="1"/>
  </radialGradient>
  <linearGradient id="linearGradient3931" y2="8" gradientUnits="userSpaceOnUse" x2="64" y1="88" x1="64">
   <stop id="stop3927" stop-color="#3c6eb4" offset="0"/>
   <stop id="stop3929" stop-color="#81a4d5" offset="1"/>
  </linearGradient>
 </defs>
 <metadata id="metadata2413">
  <rdf:RDF>
   <cc:Work rdf:about="">
    <dc:format>image/svg+xml</dc:format>
    <dc:type rdf:resource="http://purl.org/dc/dcmitype/StillImage"/>
    <dc:title/>
   </cc:Work>
  </rdf:RDF>
 </metadata>
 <g id="layer2" display="none">
  <rect id="rect3745" opacity=".9" rx="6" ry="6" height="85" filter="url(#filter3174)" width="86" y="7" x="5" fill="url(#ButtonShadow)"/>
 </g>
 <g id="layer3">
  <path id="path3786" opacity="0.08" d="m12-95.031c-5.5111 0-10.031 4.5202-10.031 10.031v71c0 5.5111 4.5202 10.031 10.031 10.031h72c5.5111 0 10.031-4.5202 10.031-10.031v-71c0-5.5111-4.5202-10.031-10.031-10.031h-72z" transform="scale(1,-1)" fill="url(#linearGradient3780)"/>
  <path id="path3778" opacity=".1" d="m12-94.031c-4.9716 0-9.0312 4.0596-9.0312 9.0312v71c0 4.9716 4.0596 9.0312 9.0312 9.0312h72c4.9716 0 9.0312-4.0596 9.0312-9.0312v-71c0-4.9716-4.0596-9.0312-9.0312-9.0312h-72z" transform="scale(1,-1)" fill="url(#linearGradient3780)"/>
  <path id="path3770" opacity=".2" d="m12-93c-4.4091 0-8 3.5909-8 8v71c0 4.4091 3.5909 8 8 8h72c4.4091 0 8-3.5909 8-8v-71c0-4.4091-3.5909-8-8-8h-72z" transform="scale(1,-1)" fill="url(#linearGradient3780)"/>
  <rect id="rect3723" opacity=".3" transform="scale(1,-1)" rx="7" ry="7" height="85" width="86" y="-92" x="5" fill="url(#linearGradient3780)"/>
  <rect id="rect3716" opacity=".45" transform="scale(1,-1)" rx="6" ry="6" height="84" width="84" y="-91" x="6" fill="url(#linearGradient3721)"/>
 </g>
 <g id="layer1">
  <rect id="rect2419-5" rx="6" ry="6" height="84" width="84" y="6" x="6" fill="url(#linearGradient3931)"/>
  <rect id="rect2419-5-1" rx="6" ry="6" height="84" width="84" y="6" x="6" fill="url(#linearGradient3931)"/>
  <path id="speech-bubble-7" d="m48 16c-17.665 0-31.988 14.32-32 31.983v20.356 4.4068 2.2881c0 2.751 2.215 4.966 4.966 4.966h2.3051 16.034 8.7119c17.667-0.007 31.983-14.331 31.983-32 0-17.674-14.327-32-32-32z" fill="url(#radialGradient2877)"/>
 </g>
 <g id="layer4">
  <path id="speech-bubble" d="m48 16c-17.665 0-31.988 14.32-32 31.983v20.356 4.4068 2.2881c0 2.751 2.215 4.966 4.966 4.966h2.3051 16.034 8.7119c17.667-0.007 31.983-14.331 31.983-32 0-17.674-14.327-32-32-32z" fill="url(#radialGradient2877)"/>
  <path id="f-script-path" d="m57.644 23.012c-8.4748 0-15.344 6.8699-15.344 15.344v0.01062 8.1213h-8.0962-0.002c-8.4745 0-15.344 6.8364-15.344 15.31 0 8.4753 6.8697 15.345 15.344 15.345 8.4735 0 15.343-6.8696 15.343-15.345v-0.01062-8.155h8.0959 0.0034c8.4735 0 15.343-6.8028 15.343-15.277 0-8.4745-6.8697-15.344-15.343-15.344zm-15.344 38.801c-0.0064 4.4653-3.6305 8.0853-8.0982 8.0853-4.4724 0-8.1317-3.6259-8.1317-8.0985 0-4.4741 3.6593-8.1671 8.1317-8.1671h0.01063 6.9394 0.0052c0.63177 0 1.1441 0.51129 1.1441 1.142 0 0.0012-0.000778 0.0012-0.000778 0.0029v7.0355h-0.000258zm15.343-15.324h-0.0076-6.9441-0.0041c-0.63177 0-1.1428-0.51103-1.1428-1.1433v-0.000259-7.0015c0.0076-4.4679 3.6305-8.0865 8.0985-8.0865 4.4724 0 8.1324 3.6262 8.1324 8.0995 0 4.4728-3.66 8.1322-8.1324 8.1322z" fill="#5484c6"/>
  <path id="blue-inifity-connectors" fill="#fff" d="m42.3 46.489v-8.1215-0.01063c0-8.4745 6.8694-15.344 15.344-15.344 1.2856 0 2.199 0.14486 3.389 0.45635 1.7354 0.45506 3.1526 1.8767 3.1534 3.5316 0.000774 2.0006-1.4514 3.4549-3.6217 3.4549-1.034 0-1.4076-0.19799-2.9215-0.19799-4.468 0-8.091 3.6187-8.0985 8.0865v7.0013 0.00026c0 0.63231 0.51102 1.1433 1.1428 1.1433h0.0041 5.318c1.9819 0 3.5823 1.5867 3.5838 3.5738 0 1.9879-1.6028 3.571-3.5838 3.571h-6.4649v8.155 0.01218c0 8.4737-6.8697 15.343-15.343 15.343-1.2858 0-2.1993-0.14486-3.3892-0.45661-1.7354-0.4548-3.1532-1.8772-3.1539-3.5316 0-2.0001 1.4512-3.4549 3.6225-3.4549 1.0329 0 1.4076 0.19824 2.9207 0.19824 4.468 0 8.092-3.6189 8.099-8.0852v-7.0381c0-0.63101-0.51231-1.142-1.1441-1.142h-0.0029-5.3177c-1.9824 0-3.5841-1.5815-3.5841-3.57-0.000519-1.9995 1.6183-3.5746 3.6217-3.5746h6.4263v-0.000259z"/>
  <path id="path3933" opacity=".1" d="m48 16c-17.665 0-31.988 14.305-32 31.969v1c0.012-17.664 14.335-31.969 32-31.969 17.506 0 31.733 14.056 32 31.5 0.003-0.166 0-0.333 0-0.5 0-17.674-14.327-32-32-32z"/>
  <path id="path3942" opacity=".1" d="m80 48.5c-0.267 17.439-14.469 31.493-31.969 31.5h-8.7188-16.031-2.3125c-2.751 0-4.969-2.218-4.969-4.969v1c0 2.751 2.218 4.969 4.969 4.969h2.3125 16.031 8.7188c17.666-0.007 31.968-14.331 31.968-32 0-0.16668 0.0025-0.33393 0-0.5z" fill="#fff"/>
  <rect id="rect3959" style="color:#000000" height="16" width="16" y="0" x="112" fill="#294172"/>
  <rect id="rect3961" style="color:#000000" height="16" width="16" y="24" x="112" fill="#3c6eb4"/>
 </g>
 <g id="layer5">
  <path id="rect3728" opacity=".3" d="m12 6c-3.324 0-6 2.676-6 6v2 68 2c0 0.33472 0.04135 0.6507 0.09375 0.96875 0.0487 0.2956 0.09704 0.59692 0.1875 0.875 0.00988 0.03038 0.020892 0.0636 0.03125 0.09375 0.098865 0.28777 0.23488 0.54745 0.375 0.8125 0.14459 0.27351 0.31562 0.53562 0.5 0.78125 0.18438 0.24564 0.37378 0.47347 0.59375 0.6875 0.43995 0.42806 0.94291 0.81453 1.5 1.0938 0.27854 0.13961 0.57347 0.24695 0.875 0.34375-0.2562-0.10022-0.48671-0.23627-0.71875-0.375-0.00741-0.0044-0.023866 0.0045-0.03125 0-0.031933-0.0193-0.062293-0.04251-0.09375-0.0625-0.1204-0.0767-0.23102-0.16351-0.34375-0.25-0.10617-0.0808-0.21328-0.16111-0.3125-0.25-0.1778-0.162-0.3473-0.346-0.4999-0.531-0.1075-0.131-0.2183-0.266-0.3124-0.407-0.0251-0.038-0.0385-0.086-0.0626-0.125-0.0647-0.103-0.1302-0.204-0.1874-0.312-0.1011-0.195-0.2057-0.416-0.2813-0.625-0.008-0.022-0.0236-0.041-0.0313-0.063-0.0318-0.092-0.0358-0.187-0.0624-0.281-0.0304-0.107-0.0704-0.203-0.0938-0.313-0.0729-0.341-0.125-0.698-0.125-1.062v-2-68-2c0-2.782 2.2182-5 5-5h2 68 2c2.7818 0 5 2.2182 5 5v2 68 2c0 0.3643-0.05212 0.72099-0.125 1.0625-0.04415 0.20689-0.08838 0.39766-0.15625 0.59375-0.0077 0.02195-0.0233 0.04069-0.03125 0.0625-0.06274 0.17374-0.13838 0.36745-0.21875 0.53125-0.04158 0.0828-0.07904 0.16995-0.125 0.25-0.0546 0.09721-0.12677 0.18835-0.1875 0.28125-0.09411 0.14096-0.20492 0.276-0.3125 0.40625-0.14317 0.17445-0.30314 0.347-0.46875 0.5-0.01117 0.0102-0.01998 0.02115-0.03125 0.03125-0.13839 0.12556-0.28509 0.23444-0.4375 0.34375-0.10257 0.07315-0.20432 0.15336-0.3125 0.21875-0.0074 0.0045-0.02384-0.0044-0.03125 0-0.23204 0.13873-0.46255 0.27478-0.71875 0.375 0.30153-0.0968 0.59646-0.20414 0.875-0.34375 0.55709-0.27922 1.0601-0.66569 1.5-1.0938 0.21997-0.21403 0.40937-0.44186 0.59375-0.6875s0.35541-0.50774 0.5-0.78125c0.14012-0.26505 0.27614-0.52473 0.375-0.8125 0.01041-0.03078 0.02133-0.06274 0.03125-0.09375 0.09046-0.27808 0.1388-0.5794 0.1875-0.875 0.053-0.318 0.094-0.634 0.094-0.969v-2-68-2c0-3.324-2.676-6-6-6h-72z" fill="url(#linearGradient3188)"/>
  <path id="path3615" opacity=".2" d="m12 90c-3.324 0-6-2.676-6-6v-2-68-2c0-0.33472 0.04135-0.6507 0.09375-0.96875 0.0487-0.2956 0.09704-0.59692 0.1875-0.875 0.0099-0.03 0.0209-0.063 0.0313-0.094 0.0989-0.2873 0.2349-0.547 0.375-0.812 0.1446-0.2735 0.3156-0.5356 0.5-0.7812 0.1844-0.2457 0.3738-0.4735 0.5937-0.6876 0.44-0.428 0.943-0.8145 1.5-1.0937 0.2786-0.1396 0.5735-0.2469 0.8748-0.3437-0.256 0.1002-0.4865 0.2362-0.7185 0.375-0.00741 0.0044-0.023866-0.0045-0.03125 0-0.031933 0.0193-0.062293 0.04251-0.09375 0.0625-0.1204 0.0767-0.23102 0.16351-0.34375 0.25-0.10617 0.0808-0.21328 0.16111-0.3125 0.25-0.1779 0.1614-0.3474 0.3453-0.5 0.5312-0.1075 0.1303-0.2183 0.2653-0.3124 0.4063-0.0251 0.0383-0.0385 0.0858-0.0626 0.125-0.0647 0.103-0.1302 0.2045-0.1874 0.3124-0.1011 0.1948-0.2057 0.4158-0.2813 0.625-0.008 0.0219-0.0236 0.0406-0.0313 0.0626-0.0318 0.0919-0.0358 0.1868-0.0624 0.2812-0.0304 0.1066-0.0704 0.203-0.0938 0.3125-0.0729 0.3415-0.125 0.6985-0.125 1.0625v2 68 2c0 2.7818 2.2182 5 5 5h2 68 2c2.7818 0 5-2.2182 5-5v-2-68-2c0-0.364-0.052-0.721-0.125-1.0625-0.044-0.2069-0.088-0.3977-0.156-0.5937-0.008-0.022-0.024-0.0407-0.031-0.0626-0.063-0.1737-0.139-0.3674-0.219-0.5312-0.042-0.0828-0.079-0.17-0.125-0.25-0.055-0.0972-0.127-0.1884-0.188-0.2812-0.094-0.141-0.205-0.276-0.312-0.4063-0.143-0.1745-0.303-0.347-0.469-0.5-0.011-0.0102-0.02-0.0211-0.031-0.0313-0.139-0.1255-0.285-0.2344-0.438-0.3437-0.102-0.0731-0.204-0.1534-0.312-0.2187-0.0074-0.0045-0.02384 0.0044-0.03125 0-0.23204-0.13873-0.46255-0.27478-0.71875-0.375 0.30153 0.0968 0.59646 0.20414 0.875 0.34375 0.55709 0.27922 1.0601 0.66569 1.5 1.0938 0.21997 0.21403 0.40937 0.44186 0.59375 0.6875s0.35541 0.50774 0.5 0.78125c0.14012 0.26505 0.27614 0.52473 0.375 0.8125 0.01041 0.03078 0.02133 0.06274 0.03125 0.09375 0.09046 0.27808 0.1388 0.5794 0.1875 0.875 0.053 0.318 0.094 0.634 0.094 0.969v2 68 2c0 3.324-2.676 6-6 6h-72z" fill="url(#radialGradient3619)"/>
 </g>
</svg>
