<?xml version="1.0" encoding="UTF-8" standalone="no"?>
<!-- Created with Inkscape (http://www.inkscape.org/) -->
<svg id="svg2" xmlns:rdf="http://www.w3.org/1999/02/22-rdf-syntax-ns#" xmlns="http://www.w3.org/2000/svg" height="16" width="16" version="1.0" xmlns:cc="http://creativecommons.org/ns#" xmlns:xlink="http://www.w3.org/1999/xlink" xmlns:dc="http://purl.org/dc/elements/1.1/">
 <metadata id="metadata7">
  <rdf:RDF>
   <cc:Work rdf:about="">
    <dc:format>image/svg+xml</dc:format>
    <dc:type rdf:resource="http://purl.org/dc/dcmitype/StillImage"/>
    <dc:title/>
   </cc:Work>
  </rdf:RDF>
 </metadata>
 <g id="layer2" style="display:none" transform="translate(0,-6)">
  <rect id="rect4898" style="display:inline;fill:#333" height="22" width="22" y="0" x="0"/>
 </g>
 <g id="layer3" style="display:none" transform="translate(0,-6)">
  <rect id="rect4126" style="fill:#efebe7" height="22" width="22" y="0" x="0"/>
 </g>
 <g id="layer1" transform="translate(0,-6)">
  <path id="path4951" style="fill:#d40000" d="m-13.375 32c-0.69219 0.04617-1.4852 0.35032-2.125 0.875-0.7839 0.64287-1.4206 2.2772-1.25 3.1875 0.08798 0.46934 0.44215 1.0404 0.78125 1.2188 0.63148 0.33208 1.7824-0.21877 2.8438-1.3438 1.1465-1.2153 1.673-2.5543 1.2812-3.3125-0.241-0.466-0.839-0.671-1.531-0.625zm-5.6562 0.71875c-0.96296 0.000866-1.4724 0.67796-1.4688 1.9688 0.0025 0.88392 0.31322 1.6791 0.71875 1.875 0.30151 0.14563 0.30905 0.13204 0.6875 0 0.62686-0.21871 1.2158-1.6786 1.0938-2.6562-0.09989-0.80016-0.44381-1.188-1.0312-1.1875zm-3.8125 1.3125c-0.18018 0.02605-0.3609 0.14201-0.53125 0.3125-0.34336 0.34365-0.34794 0.53096-0.34375 1.1875 0.0049 0.7743 0.1939 1.1965 0.71875 1.75 0.3926 0.41405 0.67572 0.4388 1.0312 0.0625 0.38514-0.40763 0.50472-1.0477 0.375-1.75-0.19783-1.0711-0.70945-1.6407-1.25-1.5625zm-2.6875 2.3438c-0.18695 0.03041-0.35545 0.13656-0.53125 0.3125-0.46135 0.46173-0.13867 1.7314 0.59375 2.375 0.87418 0.76817 1.5801 0.06483 1.2812-1.2812-0.21265-0.95791-0.7829-1.4975-1.3438-1.4062zm8.032 1.686c-0.61906-0.01065-1.3128 0.04097-2.0312 0.1875-1.8508 0.37747-3.3317 1.0754-4.2812 2.0312-0.54689 0.55046-0.8598 1.0601-1.125 1.8438-0.64192 1.897 0.5469 4.5957 2.8125 6.4375 0.84409 0.6862 1.3592 0.99331 2.2188 1.2812 0.44574 0.14931 0.79916 0.18399 1.625 0.15625 0.94672-0.03181 1.1393-0.07408 1.75-0.375 0.89504-0.44099 1.9096-1.461 2.3438-2.3438 0.26488-0.5385 0.30732-0.76863 0.28125-1.2188-0.04452-0.76858-0.34266-0.97776-1.3125-0.96875-1.3845 0.01285-1.9658 0.33393-2.25 1.3125-0.21469 0.73912-0.45204 1-0.9375 1-0.76937 0-1.5625-0.61179-1.5625-1.25 0-0.44399 0.71531-1.1058 2.5-2.3125 2.5141-1.6999 3.3785-2.7341 3.25-3.875-0.13273-1.1786-1.4241-1.8743-3.2812-1.9062z"/>
  <path id="rect3729" style="opacity:.45;color:#000000;fill:#bebebe" d="m3.7234 6.011c-0.3225 0.0445-0.5916 0.3008-0.6814 0.636l-3.021 11.289c-0.11975 0.44692 0.16636 0.90238 0.61328 1.0221l11.289 3.021c0.44692 0.11975 0.90238-0.16636 1.0221-0.61328l3.021-11.289c0.12-0.4471-0.166-0.9026-0.613-1.0223l-11.289-3.021c-0.1116-0.0299-0.2331-0.0375-0.3406-0.0227zm-0.18171 2.9074h8.9039c0.35234 0 0.636 0.28365 0.636 0.636v8.9039c0 0.35234-0.28365 0.636-0.636 0.636h-8.9039c-0.35234 0-0.636-0.28365-0.636-0.636v-8.9039c0-0.35234 0.28365-0.636 0.636-0.636z"/>
  <path id="rect3748" style="color:#000000;fill:#bebebe" d="m3.5417 8.9184c-0.35234 0-0.636 0.28365-0.636 0.636v8.9039c0 0.35234 0.28365 0.636 0.636 0.636h8.9039c0.35234 0 0.636-0.28365 0.636-0.636v-8.9039c0-0.35234-0.28365-0.636-0.636-0.636h-8.9039zm6.6325 2.1806v1.4537h-2.9074v0.72685h2.1806v1.4537h-2.1806v2.1806h-1.4537v-5.8148h4.3611z"/>
 </g>
</svg>
