<?xml version="1.0" encoding="UTF-8" standalone="no"?>
<!-- Created with Inkscape (http://www.inkscape.org/) -->
<svg id="svg2408" xmlns:rdf="http://www.w3.org/1999/02/22-rdf-syntax-ns#" xmlns="http://www.w3.org/2000/svg" height="96" width="96" version="1.0" xmlns:cc="http://creativecommons.org/ns#" xmlns:xlink="http://www.w3.org/1999/xlink" xmlns:dc="http://purl.org/dc/elements/1.1/">
 <defs id="defs2410">
  <linearGradient id="ButtonShadow" y2="7.0165" gradientUnits="userSpaceOnUse" x2="45.448" gradientTransform="scale(1.0059 .99417)" y1="92.54" x1="45.448">
   <stop id="stop3750" offset="0"/>
   <stop id="stop3752" stop-opacity=".58824" offset="1"/>
  </linearGradient>
  <linearGradient id="linearGradient3737">
   <stop id="stop3739" stop-color="#fff" offset="0"/>
   <stop id="stop3741" stop-color="#fff" stop-opacity="0" offset="1"/>
  </linearGradient>
  <filter id="filter3174" color-interpolation-filters="sRGB">
   <feGaussianBlur id="feGaussianBlur3176" stdDeviation="1.71"/>
  </filter>
  <linearGradient id="linearGradient3188" y2="63.893" xlink:href="#linearGradient3737" gradientUnits="userSpaceOnUse" x2="36.357" y1="6" x1="36.357"/>
  <filter id="filter3794" height="1.384" width="1.384" color-interpolation-filters="sRGB" y="-.192" x="-.192">
   <feGaussianBlur id="feGaussianBlur3796" stdDeviation="5.28"/>
  </filter>
  <linearGradient id="linearGradient3613" y2="138.66" xlink:href="#linearGradient3737" gradientUnits="userSpaceOnUse" x2="48" y1="20.221" x1="48"/>
  <radialGradient id="radialGradient3619" xlink:href="#linearGradient3737" gradientUnits="userSpaceOnUse" cy="90.172" cx="48" gradientTransform="matrix(1.1573 0 0 .99591 -7.551 .19713)" r="42"/>
  <clipPath id="clipPath3613">
   <rect id="rect3615" rx="6" ry="6" height="84" width="84" y="6" x="6" fill="#fff"/>
  </clipPath>
  <linearGradient id="ButtonShadow-0" y2="7.0165" gradientUnits="userSpaceOnUse" x2="45.448" gradientTransform="matrix(1.0059 0 0 .99417 100 0)" y1="92.54" x1="45.448">
   <stop id="stop3750-8" offset="0"/>
   <stop id="stop3752-5" stop-opacity=".58824" offset="1"/>
  </linearGradient>
  <linearGradient id="linearGradient3780" y2="90.239" xlink:href="#ButtonShadow-0" gradientUnits="userSpaceOnUse" x2="32.251" gradientTransform="matrix(1.0238 0 0 1.0119 -1.1429 -98.071)" y1="6.1317" x1="32.251"/>
  <linearGradient id="linearGradient3721" y2="90.239" xlink:href="#ButtonShadow-0" gradientUnits="userSpaceOnUse" x2="32.251" gradientTransform="translate(0,-97)" y1="6.1317" x1="32.251"/>
  <linearGradient id="linearGradient4201" y2="72" gradientUnits="userSpaceOnUse" x2="48" y1="24" x1="32">
   <stop id="stop3314" stop-color="#c7f994" offset="0"/>
   <stop id="stop3316" stop-color="#87cf3e" offset="1"/>
  </linearGradient>
  <linearGradient id="linearGradient4215" y2="39.964" gradientUnits="userSpaceOnUse" x2="49.615" y1="64.281" x1="29.158">
   <stop id="stop4211" offset="0"/>
   <stop id="stop4213" stop-opacity="0" offset="1"/>
  </linearGradient>
  <linearGradient id="linearGradient4272" y2="5.8498" gradientUnits="userSpaceOnUse" x2="37.964" y1="90.5" x1="37.964">
   <stop id="stop4268" stop-color="#47761a" offset="0"/>
   <stop id="stop4270" stop-color="#61a224" offset="1"/>
  </linearGradient>
 </defs>
 <metadata id="metadata2413">
  <rdf:RDF>
   <cc:Work rdf:about="">
    <dc:format>image/svg+xml</dc:format>
    <dc:type rdf:resource="http://purl.org/dc/dcmitype/StillImage"/>
    <dc:title/>
   </cc:Work>
  </rdf:RDF>
 </metadata>
 <g id="layer2" display="none">
  <rect id="rect3745" opacity=".9" rx="6" ry="6" height="85" filter="url(#filter3174)" width="86" y="7" x="5" fill="url(#ButtonShadow)"/>
 </g>
 <g id="layer3">
  <path id="path3786" opacity="0.08" d="m12-95.031c-5.5111 0-10.031 4.5202-10.031 10.031v71c0 5.5111 4.5202 10.031 10.031 10.031h72c5.5111 0 10.031-4.5202 10.031-10.031v-71c0-5.5111-4.5202-10.031-10.031-10.031h-72z" transform="scale(1,-1)" fill="url(#linearGradient3780)"/>
  <path id="path3778" opacity=".1" d="m12-94.031c-4.9716 0-9.0312 4.0596-9.0312 9.0312v71c0 4.9716 4.0596 9.0312 9.0312 9.0312h72c4.9716 0 9.0312-4.0596 9.0312-9.0312v-71c0-4.9716-4.0596-9.0312-9.0312-9.0312h-72z" transform="scale(1,-1)" fill="url(#linearGradient3780)"/>
  <path id="path3770" opacity=".2" d="m12-93c-4.4091 0-8 3.5909-8 8v71c0 4.4091 3.5909 8 8 8h72c4.4091 0 8-3.5909 8-8v-71c0-4.4091-3.5909-8-8-8h-72z" transform="scale(1,-1)" fill="url(#linearGradient3780)"/>
  <rect id="rect3723" opacity=".3" transform="scale(1,-1)" rx="7" ry="7" height="85" width="86" y="-92" x="5" fill="url(#linearGradient3780)"/>
  <rect id="rect3716" opacity=".45" transform="scale(1,-1)" rx="6" ry="6" height="84" width="84" y="-91" x="6" fill="url(#linearGradient3721)"/>
 </g>
 <g id="layer1">
  <rect id="rect2419" rx="6" ry="6" height="84" width="84" y="6" x="6" fill="url(#linearGradient4272)"/>
  <path id="rect3728" opacity=".4" d="m12 6c-3.324 0-6 2.676-6 6v2 68 2c0 0.33472 0.04135 0.6507 0.09375 0.96875 0.0487 0.2956 0.09704 0.59692 0.1875 0.875 0.00988 0.03038 0.020892 0.0636 0.03125 0.09375 0.098865 0.28777 0.23488 0.54745 0.375 0.8125 0.14459 0.27351 0.31562 0.53562 0.5 0.78125 0.18438 0.24564 0.37378 0.47347 0.59375 0.6875 0.43995 0.42806 0.94291 0.81453 1.5 1.0938 0.27854 0.13961 0.57347 0.24695 0.875 0.34375-0.2562-0.10022-0.48671-0.23627-0.71875-0.375-0.00741-0.0044-0.023866 0.0045-0.03125 0-0.031933-0.0193-0.062293-0.04251-0.09375-0.0625-0.1204-0.0767-0.23102-0.16351-0.34375-0.25-0.10617-0.0808-0.21328-0.16111-0.3125-0.25-0.1778-0.162-0.3473-0.346-0.4999-0.531-0.1075-0.131-0.2183-0.266-0.3124-0.407-0.0251-0.038-0.0385-0.086-0.0626-0.125-0.0647-0.103-0.1302-0.204-0.1874-0.312-0.1011-0.195-0.2057-0.416-0.2813-0.625-0.008-0.022-0.0236-0.041-0.0313-0.063-0.0318-0.092-0.0358-0.187-0.0624-0.281-0.0304-0.107-0.0704-0.203-0.0938-0.313-0.0729-0.341-0.125-0.698-0.125-1.062v-2-68-2c0-2.782 2.2182-5 5-5h2 68 2c2.7818 0 5 2.2182 5 5v2 68 2c0 0.3643-0.05212 0.72099-0.125 1.0625-0.04415 0.20689-0.08838 0.39766-0.15625 0.59375-0.0077 0.02195-0.0233 0.04069-0.03125 0.0625-0.06274 0.17374-0.13838 0.36745-0.21875 0.53125-0.04158 0.0828-0.07904 0.16995-0.125 0.25-0.0546 0.09721-0.12677 0.18835-0.1875 0.28125-0.09411 0.14096-0.20492 0.276-0.3125 0.40625-0.14317 0.17445-0.30314 0.347-0.46875 0.5-0.01117 0.0102-0.01998 0.02115-0.03125 0.03125-0.13839 0.12556-0.28509 0.23444-0.4375 0.34375-0.10257 0.07315-0.20432 0.15336-0.3125 0.21875-0.0074 0.0045-0.02384-0.0044-0.03125 0-0.23204 0.13873-0.46255 0.27478-0.71875 0.375 0.30153-0.0968 0.59646-0.20414 0.875-0.34375 0.55709-0.27922 1.0601-0.66569 1.5-1.0938 0.21997-0.21403 0.40937-0.44186 0.59375-0.6875s0.35541-0.50774 0.5-0.78125c0.14012-0.26505 0.27614-0.52473 0.375-0.8125 0.01041-0.03078 0.02133-0.06274 0.03125-0.09375 0.09046-0.27808 0.1388-0.5794 0.1875-0.875 0.053-0.318 0.094-0.634 0.094-0.969v-2-68-2c0-3.324-2.676-6-6-6h-72z" fill="url(#linearGradient3188)"/>
  <path id="path3615" opacity=".2" d="m12 90c-3.324 0-6-2.676-6-6v-2-68-2c0-0.33472 0.04135-0.6507 0.09375-0.96875 0.0487-0.2956 0.09704-0.59692 0.1875-0.875 0.0099-0.03 0.0209-0.063 0.0313-0.094 0.0989-0.2873 0.2349-0.547 0.375-0.812 0.1446-0.2735 0.3156-0.5356 0.5-0.7812 0.1844-0.2457 0.3738-0.4735 0.5937-0.6876 0.44-0.428 0.943-0.8145 1.5-1.0937 0.2786-0.1396 0.5735-0.2469 0.8748-0.3437-0.256 0.1002-0.4865 0.2362-0.7185 0.375-0.00741 0.0044-0.023866-0.0045-0.03125 0-0.031933 0.0193-0.062293 0.04251-0.09375 0.0625-0.1204 0.0767-0.23102 0.16351-0.34375 0.25-0.10617 0.0808-0.21328 0.16111-0.3125 0.25-0.1779 0.1614-0.3474 0.3453-0.5 0.5312-0.1075 0.1303-0.2183 0.2653-0.3124 0.4063-0.0251 0.0383-0.0385 0.0858-0.0626 0.125-0.0647 0.103-0.1302 0.2045-0.1874 0.3124-0.1011 0.1948-0.2057 0.4158-0.2813 0.625-0.008 0.0219-0.0236 0.0406-0.0313 0.0626-0.0318 0.0919-0.0358 0.1868-0.0624 0.2812-0.0304 0.1066-0.0704 0.203-0.0938 0.3125-0.0729 0.3415-0.125 0.6985-0.125 1.0625v2 68 2c0 2.7818 2.2182 5 5 5h2 68 2c2.7818 0 5-2.2182 5-5v-2-68-2c0-0.364-0.052-0.721-0.125-1.0625-0.044-0.2069-0.088-0.3977-0.156-0.5937-0.008-0.022-0.024-0.0407-0.031-0.0626-0.063-0.1737-0.139-0.3674-0.219-0.5312-0.042-0.0828-0.079-0.17-0.125-0.25-0.055-0.0972-0.127-0.1884-0.188-0.2812-0.094-0.141-0.205-0.276-0.312-0.4063-0.143-0.1745-0.303-0.347-0.469-0.5-0.011-0.0102-0.02-0.0211-0.031-0.0313-0.139-0.1255-0.285-0.2344-0.438-0.3437-0.102-0.0731-0.204-0.1534-0.312-0.2187-0.0074-0.0045-0.02384 0.0044-0.03125 0-0.23204-0.13873-0.46255-0.27478-0.71875-0.375 0.30153 0.0968 0.59646 0.20414 0.875 0.34375 0.55709 0.27922 1.0601 0.66569 1.5 1.0938 0.21997 0.21403 0.40937 0.44186 0.59375 0.6875s0.35541 0.50774 0.5 0.78125c0.14012 0.26505 0.27614 0.52473 0.375 0.8125 0.01041 0.03078 0.02133 0.06274 0.03125 0.09375 0.09046 0.27808 0.1388 0.5794 0.1875 0.875 0.053 0.318 0.094 0.634 0.094 0.969v2 68 2c0 3.324-2.676 6-6 6h-72z" fill="url(#radialGradient3619)"/>
 </g>
 <g id="layer5" display="none">
  <rect id="rect3171" height="66" stroke="#fff" stroke-linecap="round" stroke-width=".5" fill="url(#linearGradient3613)" rx="12" ry="12" width="66" opacity=".1" clip-path="url(#clipPath3613)" filter="url(#filter3794)" y="15" x="15"/>
 </g>
 <g id="layer4">
  <path id="path4259" opacity=".05" style="color:#000000" d="m12.656 18.938c0.0024-0.000281-0.15862 0.03172-0.15625 0.03125 0.0014-0.000273-0.04749-0.0112-0.09375 0-0.00014 0.000027-0.03109 0.02452-0.0625 0.03125-0.07263 0.01557-0.15593 0.03116-0.15625 0.03125-0.000455 0.00013-0.28081 0.09358-0.28125 0.09375-0.000442 0.000169-0.24958 0.09354-0.25 0.09375-0.000425 0.000207-0.24959 0.12476-0.25 0.125 0 0-0.09212 0.06128-0.09375 0.0625-0.0016 0.0012 0.0019 0.02983 0 0.03125-0.01189 0.0089-0.04689 0.01954-0.0625 0.03125-0.03123 0.02343-0.03106 0.03111-0.03125 0.03125-0.01952 0.0117-0.0476 0.02231-0.0625 0.03125-0.0074 0.0045-0.02642-0.0029-0.03125 0-0.000357 0.00031-0.34342 0.31216-0.34375 0.3125 0 0-0.09242 0.09198-0.09375 0.09375-0.0029 0.0039 0.0045 0.02529 0 0.03125-0.0089 0.01192-0.01954 0.01563-0.03125 0.03125-0.02342 0.03124-0.0311 0.03107-0.03125 0.03125-0.000298 0.000367-0.18724 0.24961-0.1875 0.25-0.000265 0.000392-0.12477 0.21834-0.125 0.21875-0.00023 0.000413-0.09356 0.21832-0.09375 0.21875-0.000096 0.000216-0.07814 0.14066-0.09375 0.1875s-0.03117 0.09353-0.03125 0.09375c-0.000077 0.000224 0.01562-0.0078 0 0.03125-0.0078 0.01951-0.0253 0.01638-0.03125 0.03125-0.003 0.0074 0.0019 0.02647 0 0.03125-0.000116 0.000459-0.093675 0.40578-0.09375 0.40625 0 0 0.00349 0.08071 0 0.125 0.0000061-0.000031 0.00111 0.02293 0 0.03125-0.0000047 0.0057 4e-7 0.02233 0 0.03125-0.00183 0.0091 0.00196 0.02149 0 0.03125-0.00196 0.0098 0.00184 0.02204 0 0.03125-0.00184 0.0092-0.029746-0.0075-0.03125 0-0.0015 0.0075 0.00102 0.0261 0 0.03125h0.03125l1.0316 0.219h-1.0625v16s-0.00043 0.18488 0 0.1875c0.0009566 0.0058-0.00149 0.02232 0 0.03125 0.00298 0.01787-0.00391 0.03908 0 0.0625 0.00782 0.04684 0.031223 0.03099 0.03125 0.03125 0.000054 0.000528 0.031145 0.31198 0.03125 0.3125 0.000052 0.00026-0.0078 0.01566 0 0.0625 0.0039 0.02342 0.02828 0.04469 0.03125 0.0625 0.000474 0.0028-0.000405 0.02885 0 0.03125 0.000155 0.000507 0.1248 0.37451 0.125 0.375 0.000204 0.00049 0.156 0.28078 0.15625 0.28125 0.000251 0.000467 0.1247 0.24956 0.125 0.25 0.000295 0.000441 0.18716 0.24959 0.1875 0.25 0.000169 0.000205 0.03128 0.02346 0.0625 0.0625 0.01561 0.01952 0.01941 0.0477 0.03125 0.0625 0.0059 0.0074 0.02755-0.0046 0.03125 0 0.0018 0.0023-0.0014 0.02945 0 0.03125 0 0 0.15446 0.15481 0.15625 0.15625 0.0018 0.0014 0.02894-0.0018 0.03125 0 0.0046 0.0037-0.0074 0.02533 0 0.03125 0.0148 0.01184 0.04298 0.01564 0.0625 0.03125 0.03904 0.03122 0.0623 0.06233 0.0625 0.0625 0.00041 0.000337 0.24956 0.1872 0.25 0.1875 0.000441 0.000295 0.24953 0.12475 0.25 0.125 0.000467 0.000251 0.28076 0.15605 0.28125 0.15625 0.00049 0.000204 0.24949 0.0936 0.25 0.09375 0 0 0.1226 0.03084 0.125 0.03125 0.0024 0.000405 0.02842-0.000474 0.03125 0 0.01781 0.003 0.03908 0.02735 0.0625 0.03125 0.04684 0.0078 0.06224-0.000052 0.0625 0 0.00052 0.000105 0.31197 0.0312 0.3125 0.03125 0.000264 0.000027-0.01559 0.02343 0.03125 0.03125 0.02342 0.0039 0.04463-0.003 0.0625 0 0.0089 0.0015 0.02548-0.000957 0.03125 0a1.0779 1.0779 0 0 0 0.1875 0h4.9375v3.5312 11.594c0 12.624 10.251 22.875 22.875 22.875h14.375 19.812s0.18488 0.00043 0.1875 0c0.0058-0.000957 0.02232 0.0015 0.03125 0 0.01787-0.003 0.03908 0.0039 0.0625 0 0.04684-0.0078 0.03099-0.03122 0.03125-0.03125 0.000528-0.000054 0.31198-0.03114 0.3125-0.03125 0.00026-0.000053 0.01566 0.0078 0.0625 0 0.02342-0.0039 0.04469-0.02828 0.0625-0.03125 0.0028-0.000474 0.02885 0.000405 0.03125 0 0.000507-0.000155 0.37451-0.1248 0.375-0.125 0.00049-0.000204 0.28078-0.156 0.28125-0.15625 0.000467-0.000251 0.24956-0.1247 0.25-0.125 0.000441-0.000295 0.24959-0.18716 0.25-0.1875 0.000205-0.000169 0.02346-0.03128 0.0625-0.0625 0.01952-0.01561 0.0477-0.01941 0.0625-0.03125 0.0074-0.0059-0.0046-0.02756 0-0.03125 0.0023-0.0018 0.02945 0.0014 0.03125 0 0 0 0.15481-0.15446 0.15625-0.15625 0.0014-0.0018-0.0018-0.02894 0-0.03125 0.0037-0.0046 0.02533 0.0074 0.03125 0 0.01184-0.0148 0.01564-0.04298 0.03125-0.0625 0.03122-0.03904 0.06233-0.0623 0.0625-0.0625 0.000337-0.00041 0.1872-0.24956 0.1875-0.25 0.000295-0.000441 0.12475-0.24953 0.125-0.25 0.000251-0.000467 0.15605-0.28076 0.15625-0.28125 0.000204-0.00049 0.09359-0.24949 0.09375-0.25 0 0 0.03084-0.1226 0.03125-0.125 0.000405-0.0024-0.000474-0.02842 0-0.03125 0.003-0.01781 0.02735-0.03908 0.03125-0.0625 0.0078-0.04684-0.000052-0.06224 0-0.0625 0.000105-0.00052 0.0312-0.31197 0.03125-0.3125 0.000027-0.000264 0.02343 0.01559 0.03125-0.03125 0.0039-0.02342-0.003-0.04463 0-0.0625 0.0015-0.0089-0.000957-0.02548 0-0.03125a1.0779 1.0779 0 0 0 0 -0.1875v-19.812-14.375c0-12.624-10.251-22.875-22.875-22.875h-6.1875-8-20-7.9688-0.03125-0.0625-0.0625c-0.05331-0.000003-0.15595-0.000014-0.15625 0a1.0779 1.0779 0 0 0 -0.0625 0z"/>
  <path id="path4255" opacity=".1" style="color:#000000" d="m12.781 20a0.98812 0.98812 0 0 0 -0.156 0.031c-0.000464 0.00009-0.1558 0.03112-0.15625 0.03125-0.000455 0.00013-0.18706 0.06233-0.1875 0.0625-0.000442 0.000169-0.15582 0.06229-0.15625 0.0625-0.000425 0.000207-0.15584 0.09351-0.15625 0.09375-0.000406 0.000243-0.12462 0.09347-0.125 0.09375-0.000383 0.000278-0.15589 0.09344-0.15625 0.09375-0.000357 0.00031-0.12467 0.12466-0.125 0.125-0.000329 0.00034-0.09345 0.12463-0.09375 0.125-0.000298 0.000367-0.12474 0.15586-0.125 0.15625-0.000265 0.000392-0.09352 0.15584-0.09375 0.15625-0.00023 0.000413-0.06231 0.12457-0.0625 0.125-0.000193 0.000432-0.06235 0.18705-0.0625 0.1875-0.000155 0.000447-0.06238 0.15579-0.0625 0.15625-0.000116 0.000459-0.03117 0.15578-0.03125 0.15625-0.000075 0.000467 0.000034 0.18703 0 0.1875l-0.031 0.156v16c0.000002 0.00053 0.0312 0.18697 0.03125 0.1875 0.000054 0.000528 0.03115 0.21823 0.03125 0.21875 0.000105 0.00052 0.0311 0.18699 0.03125 0.1875 0.000155 0.000507 0.0623 0.15576 0.0625 0.15625 0.000204 0.00049 0.0935 0.18703 0.09375 0.1875 0.000251 0.000467 0.09346 0.15581 0.09375 0.15625 0.000295 0.000441 0.12466 0.15584 0.125 0.15625 0.000337 0.00041 0.12462 0.15588 0.125 0.15625 0.000375 0.000375 0.15584 0.12466 0.15625 0.125 0.00041 0.000337 0.15581 0.1247 0.15625 0.125 0.000441 0.000295 0.15578 0.0935 0.15625 0.09375 0.000467 0.000251 0.18701 0.09355 0.1875 0.09375 0.00049 0.000204 0.15574 0.06235 0.15625 0.0625 0.000507 0.000155 0.18698 0.03115 0.1875 0.03125 0.00052 0.000105 0.21822 0.0312 0.21875 0.03125 0.000528 0.000054 0.18697 0.03125 0.1875 0.03125h6v4.5938 11.594c0 12.041 9.771 21.812 21.812 21.812h14.376 19.812c0.00053-0.000002 0.18697-0.0312 0.1875-0.03125 0.000528-0.000054 0.21823-0.03114 0.21875-0.03125 0.00052-0.000105 0.18699-0.03109 0.1875-0.03125 0.000507-0.000155 0.15576-0.0623 0.15625-0.0625 0.00049-0.000204 0.18703-0.0935 0.1875-0.09375 0.000467-0.000251 0.15581-0.09346 0.15625-0.09375 0.000441-0.000295 0.15584-0.12466 0.15625-0.125 0.00041-0.000337 0.15588-0.12462 0.15625-0.125 0.000375-0.000375 0.12466-0.15584 0.125-0.15625 0.000337-0.00041 0.1247-0.15581 0.125-0.15625 0.000295-0.000441 0.0935-0.15578 0.09375-0.15625 0.000251-0.000467 0.09355-0.18701 0.09375-0.1875 0.000204-0.00049 0.06234-0.15574 0.0625-0.15625 0.000155-0.000507 0.03114-0.18698 0.03125-0.1875 0.000105-0.00052 0.0312-0.21822 0.03125-0.21875 0-0.001 0.031-0.187 0.031-0.188v-19.812-14.375c0-12.042-9.771-21.813-21.812-21.813h-6.188-8-20-7.9688c-0.000101-0.000005-0.01934 0.000003-0.03125 0-0.02381-0.000006-0.02688-0.000002-0.0625 0-0.000203-0.000009-0.02688 0.000002-0.0625 0-0.05343-0.000003-0.09345-0.000014-0.09375 0z"/>
  <path id="path4251" opacity=".15" style="color:#000000" d="m12.906 21a1.0043 1.0043 0 0 0 -0.906 1v16a1.0043 1.0043 0 0 0 1 1h7v5.5938 11.594c0 11.508 9.304 20.812 20.812 20.812h14.376 19.812a1.0043 1.0043 0 0 0 1 -1v-19.812-14.375c0-11.509-9.304-20.813-20.812-20.813h-6.188-8-20-8a1.0043 1.0043 0 0 0 -0.09375 0z"/>
  <path id="path4247" opacity=".3" style="color:#000000" d="m13 22v16h8v6.5938 11.594c0 10.969 8.843 19.812 19.812 19.812h14.376 19.812v-19.812-14.376c0-10.969-8.843-19.812-19.812-19.812h-6.188-8-20-8z"/>
  <path id="rect3374" style="color:#000000" d="m13 21v16h8v6.5938 11.594c0 10.969 8.843 19.812 19.812 19.812h14.376 19.812v-19.812-14.376c0-10.969-8.843-19.812-19.812-19.812h-6.188-8-20-8z" fill="#fff"/>
  <path id="path3389" style="color:#000000" d="m17 25v8h4c2.0948-0.0015 4.0015 1.9052 4 4v6.5938 11.594c0 8.821 6.991 15.812 15.812 15.812h14.376 15.812v-15.812-14.376c0-8.821-6.991-15.812-15.812-15.812h-6.188-8-20-4z" fill="url(#linearGradient4201)"/>
  <path id="path4221" opacity="0.08" style="color:#000000" d="m30.844 29a0.50967 0.50967 0 0 0 -0.344 0.5v27 1c0 4.7055 3.7945 8.5 8.5 8.5h18c4.7055 0 8.5-3.7945 8.5-8.5v-1-14c0-4.141-3.359-7.5-7.5-7.5-1.933 0-3.672 0.768-5 1.969-1.328-1.201-3.067-1.969-5-1.969-4.1414 0-7.5 3.3586-7.5 7.5v12a0.50967 0.50967 0 0 0 0.5 0.5h4a0.50967 0.50967 0 0 0 0.5 -0.5v-12c0-1.3814 1.1186-2.5 2.5-2.5s2.5 1.1186 2.5 2.5v12a0.50967 0.50967 0 0 0 0.5 0.5h4a0.50967 0.50967 0 0 0 0.5 -0.5v-12c0-1.3814 1.1186-2.5 2.5-2.5s2.5 1.1186 2.5 2.5v14 1c0 1.9425-1.5575 3.5-3.5 3.5h-18c-1.9425 0-3.5-1.5575-3.5-3.5v-1-27a0.50967 0.50967 0 0 0 -0.5 -0.5h-4a0.50967 0.50967 0 0 0 -0.15625 0z"/>
  <path id="path4203" opacity=".175" d="m17 31.219v1.781h4c2.0948-0.0015 4.0015 1.9052 4 4v6.5938 11.594c0 8.821 6.991 15.812 15.812 15.812h14.375 14.438c-14.758-7.085-14.262-25.215-27.844-34.281-7.65-5.107-20.686-5.51-24.781-5.5z" fill="url(#linearGradient4215)"/>
  <path id="path4217" opacity=".2" style="color:#000000" d="m31 29.5v27 1c0 4.432 3.568 8 8 8h18c4.432 0 8-3.568 8-8v-1-14c0-3.866-3.134-7-7-7-1.9641 0-3.7287 0.8221-5 2.125-1.2713-1.3029-3.0359-2.125-5-2.125-3.866 0-7 3.134-7 7v12h4v-12c0-1.6569 1.3431-3 3-3s3 1.3431 3 3v12h4v-12c0-1.6569 1.3431-3 3-3s3 1.3431 3 3v14 1c0 2.216-1.784 4-4 4h-18c-2.216 0-4-1.784-4-4v-1-27h-4z"/>
  <path id="rect3392" style="color:#000000" d="m31 29v27 1c0 4.432 3.568 8 8 8h18c4.432 0 8-3.568 8-8v-1-14c0-3.866-3.134-7-7-7-1.9641 0-3.7287 0.8221-5 2.125-1.271-1.303-3.036-2.125-5-2.125-3.866 0-7 3.134-7 7v12h4v-12c0-1.6569 1.3431-3 3-3s3 1.3431 3 3v12h4v-12c0-1.6569 1.3431-3 3-3s3 1.3431 3 3v14 1c0 2.216-1.784 4-4 4h-18c-2.216 0-4-1.784-4-4v-1-27h-4z" fill="#fff"/>
  <path id="path4227" opacity=".2" style="color:#000000" d="m17 25v0.5h4 20 8 6.1875c8.821 0 15.812 6.991 15.812 15.812v-0.5c0-8.821-6.991-15.812-15.812-15.812h-6.188-8-20-4z"/>
  <path id="path4236" opacity="0.08" style="color:#000000" d="m17 25v8h0.5v-7h3.5 20 8 6.1875c8.55 0 15.312 6.762 15.312 15.312v14.375 15.312h0.5v-15.812-14.375c0-8.821-6.991-15.812-15.812-15.812h-6.188-8-20-4zm4.7812 8.0938c1.769 0.392 3.22 2.073 3.219 3.906v6.5938 11.594c0 7.2225 4.6781 13.189 11.219 15.125-6.26-1.919-10.719-7.678-10.719-14.625v-11.594-6.5938c0.0015-2.1372-1.663-4.0112-3.7188-4.4062zm14.438 37.219c0.47798 0.14148 0.97208 0.27799 1.4688 0.375-0.5016-0.1008-0.9872-0.22744-1.4688-0.375z"/>
  <path id="rect4261" opacity=".3" style="color:#000000" d="m61 54.031v1.969 1c0 2.216-1.784 4-4 4h-11.969v4h11.969c4.432 0 8-3.568 8-8v-1-1.9688h-4z" fill="#52a800"/>
 </g>
</svg>
