<?xml version="1.0" encoding="UTF-8" standalone="no"?>
<!-- Created with Inkscape (http://www.inkscape.org/) -->
<svg id="svg2408" xmlns:rdf="http://www.w3.org/1999/02/22-rdf-syntax-ns#" xmlns="http://www.w3.org/2000/svg" height="96" width="96" version="1.0" xmlns:cc="http://creativecommons.org/ns#" xmlns:xlink="http://www.w3.org/1999/xlink" xmlns:dc="http://purl.org/dc/elements/1.1/">
 <defs id="defs2410">
  <linearGradient id="ButtonShadow" y2="7.0165" gradientUnits="userSpaceOnUse" x2="45.448" gradientTransform="scale(1.0059 .99417)" y1="92.54" x1="45.448">
   <stop id="stop3750" offset="0"/>
   <stop id="stop3752" stop-opacity=".58824" offset="1"/>
  </linearGradient>
  <linearGradient id="linearGradient3737">
   <stop id="stop3739" stop-color="#fff" offset="0"/>
   <stop id="stop3741" stop-color="#fff" stop-opacity="0" offset="1"/>
  </linearGradient>
  <filter id="filter3174" color-interpolation-filters="sRGB">
   <feGaussianBlur id="feGaussianBlur3176" stdDeviation="1.71"/>
  </filter>
  <linearGradient id="linearGradient3188" y2="63.893" xlink:href="#linearGradient3737" gradientUnits="userSpaceOnUse" x2="36.357" y1="6" x1="36.357"/>
  <filter id="filter3794" height="1.384" width="1.384" color-interpolation-filters="sRGB" y="-.192" x="-.192">
   <feGaussianBlur id="feGaussianBlur3796" stdDeviation="5.28"/>
  </filter>
  <linearGradient id="linearGradient3613" y2="138.66" xlink:href="#linearGradient3737" gradientUnits="userSpaceOnUse" x2="48" y1="20.221" x1="48"/>
  <radialGradient id="radialGradient3619" xlink:href="#linearGradient3737" gradientUnits="userSpaceOnUse" cy="90.172" cx="48" gradientTransform="matrix(1.1573 0 0 .99591 -7.551 .19713)" r="42"/>
  <clipPath id="clipPath3613">
   <rect id="rect3615" rx="6" ry="6" height="84" width="84" y="6" x="6" fill="#fff"/>
  </clipPath>
  <linearGradient id="linearGradient3617" y2="5.9877" gradientUnits="userSpaceOnUse" x2="48" gradientTransform="translate(0,-96)" y1="90" x1="48">
   <stop id="stop4537" stop-color="#617ec4" offset="0"/>
   <stop id="stop4539" stop-color="#244c8d" offset="1"/>
  </linearGradient>
  <linearGradient id="ButtonShadow-0" y2="7.0165" gradientUnits="userSpaceOnUse" x2="45.448" gradientTransform="matrix(1.0059 0 0 .99417 100 0)" y1="92.54" x1="45.448">
   <stop id="stop3750-8" offset="0"/>
   <stop id="stop3752-5" stop-opacity=".58824" offset="1"/>
  </linearGradient>
  <linearGradient id="linearGradient3780" y2="90.239" xlink:href="#ButtonShadow-0" gradientUnits="userSpaceOnUse" x2="32.251" gradientTransform="matrix(1.0238 0 0 1.0119 -1.1429 -98.071)" y1="6.1317" x1="32.251"/>
  <linearGradient id="linearGradient3721" y2="90.239" xlink:href="#ButtonShadow-0" gradientUnits="userSpaceOnUse" x2="32.251" gradientTransform="translate(0,-97)" y1="6.1317" x1="32.251"/>
  <linearGradient id="linearGradient4760">
   <stop id="stop4762" stop-color="#fac45a" offset="0"/>
   <stop id="stop4768" stop-color="#f7a909" offset=".52493"/>
   <stop id="stop4764" stop-color="#d49109" offset="1"/>
  </linearGradient>
  <linearGradient id="linearGradient5009" y2="300.62" xlink:href="#linearGradient4760" gradientUnits="userSpaceOnUse" x2="1140.4" gradientTransform="matrix(.052550 0 0 -.052641 3.8917 82.863)" y1="974.9" x1="480.54"/>
  <linearGradient id="linearGradient5011" y2="300.62" xlink:href="#linearGradient4760" gradientUnits="userSpaceOnUse" x2="1140.4" gradientTransform="matrix(.052550 0 0 -.052641 3.8917 82.863)" y1="974.9" x1="480.54"/>
  <linearGradient id="linearGradient5045" y2="299.32" gradientUnits="userSpaceOnUse" x2="1086.6" gradientTransform="matrix(.32321 0 0 .32377 -195.12 -21.92)" y1="257.31" x1="1086.6">
   <stop id="stop4422" stop-color="#415ea4" offset="0"/>
   <stop id="stop4424" stop-color="#19458c" offset="1"/>
  </linearGradient>
  <filter id="filter5197" color-interpolation-filters="sRGB">
   <feGaussianBlur id="feGaussianBlur5199" stdDeviation="1.4999053"/>
  </filter>
 </defs>
 <metadata id="metadata2413">
  <rdf:RDF>
   <cc:Work rdf:about="">
    <dc:format>image/svg+xml</dc:format>
    <dc:type rdf:resource="http://purl.org/dc/dcmitype/StillImage"/>
    <dc:title/>
   </cc:Work>
  </rdf:RDF>
 </metadata>
 <g id="layer2" display="none">
  <rect id="rect3745" opacity=".9" rx="6" ry="6" height="85" filter="url(#filter3174)" width="86" y="7" x="5" fill="url(#ButtonShadow)"/>
 </g>
 <g id="layer3">
  <path id="path3786" opacity="0.08" d="m12-95.031c-5.5111 0-10.031 4.5202-10.031 10.031v71c0 5.5111 4.5202 10.031 10.031 10.031h72c5.5111 0 10.031-4.5202 10.031-10.031v-71c0-5.5111-4.5202-10.031-10.031-10.031h-72z" transform="scale(1,-1)" fill="url(#linearGradient3780)"/>
  <path id="path3778" opacity=".1" d="m12-94.031c-4.9716 0-9.0312 4.0596-9.0312 9.0312v71c0 4.9716 4.0596 9.0312 9.0312 9.0312h72c4.9716 0 9.0312-4.0596 9.0312-9.0312v-71c0-4.9716-4.0596-9.0312-9.0312-9.0312h-72z" transform="scale(1,-1)" fill="url(#linearGradient3780)"/>
  <path id="path3770" opacity=".2" d="m12-93c-4.4091 0-8 3.5909-8 8v71c0 4.4091 3.5909 8 8 8h72c4.4091 0 8-3.5909 8-8v-71c0-4.4091-3.5909-8-8-8h-72z" transform="scale(1,-1)" fill="url(#linearGradient3780)"/>
  <rect id="rect3723" opacity=".3" transform="scale(1,-1)" rx="7" ry="7" height="85" width="86" y="-92" x="5" fill="url(#linearGradient3780)"/>
  <rect id="rect3716" opacity=".45" transform="scale(1,-1)" rx="6" ry="6" height="84" width="84" y="-91" x="6" fill="url(#linearGradient3721)"/>
 </g>
 <g id="layer1">
  <rect id="rect2419" transform="scale(1,-1)" rx="6" ry="6" height="84" width="84" y="-90" x="6" fill="url(#linearGradient3617)"/>
  <path id="rect3728" opacity=".4" d="m12 6c-3.324 0-6 2.676-6 6v2 68 2c0 0.33472 0.04135 0.6507 0.09375 0.96875 0.0487 0.2956 0.09704 0.59692 0.1875 0.875 0.00988 0.03038 0.020892 0.0636 0.03125 0.09375 0.098865 0.28777 0.23488 0.54745 0.375 0.8125 0.14459 0.27351 0.31562 0.53562 0.5 0.78125 0.18438 0.24564 0.37378 0.47347 0.59375 0.6875 0.43995 0.42806 0.94291 0.81453 1.5 1.0938 0.27854 0.13961 0.57347 0.24695 0.875 0.34375-0.2562-0.10022-0.48671-0.23627-0.71875-0.375-0.00741-0.0044-0.023866 0.0045-0.03125 0-0.031933-0.0193-0.062293-0.04251-0.09375-0.0625-0.1204-0.0767-0.23102-0.16351-0.34375-0.25-0.10617-0.0808-0.21328-0.16111-0.3125-0.25-0.1778-0.162-0.3473-0.346-0.4999-0.531-0.1075-0.131-0.2183-0.266-0.3124-0.407-0.0251-0.038-0.0385-0.086-0.0626-0.125-0.0647-0.103-0.1302-0.204-0.1874-0.312-0.1011-0.195-0.2057-0.416-0.2813-0.625-0.008-0.022-0.0236-0.041-0.0313-0.063-0.0318-0.092-0.0358-0.187-0.0624-0.281-0.0304-0.107-0.0704-0.203-0.0938-0.313-0.0729-0.341-0.125-0.698-0.125-1.062v-2-68-2c0-2.782 2.2182-5 5-5h2 68 2c2.7818 0 5 2.2182 5 5v2 68 2c0 0.3643-0.05212 0.72099-0.125 1.0625-0.04415 0.20689-0.08838 0.39766-0.15625 0.59375-0.0077 0.02195-0.0233 0.04069-0.03125 0.0625-0.06274 0.17374-0.13838 0.36745-0.21875 0.53125-0.04158 0.0828-0.07904 0.16995-0.125 0.25-0.0546 0.09721-0.12677 0.18835-0.1875 0.28125-0.09411 0.14096-0.20492 0.276-0.3125 0.40625-0.14317 0.17445-0.30314 0.347-0.46875 0.5-0.01117 0.0102-0.01998 0.02115-0.03125 0.03125-0.13839 0.12556-0.28509 0.23444-0.4375 0.34375-0.10257 0.07315-0.20432 0.15336-0.3125 0.21875-0.0074 0.0045-0.02384-0.0044-0.03125 0-0.23204 0.13873-0.46255 0.27478-0.71875 0.375 0.30153-0.0968 0.59646-0.20414 0.875-0.34375 0.55709-0.27922 1.0601-0.66569 1.5-1.0938 0.21997-0.21403 0.40937-0.44186 0.59375-0.6875s0.35541-0.50774 0.5-0.78125c0.14012-0.26505 0.27614-0.52473 0.375-0.8125 0.01041-0.03078 0.02133-0.06274 0.03125-0.09375 0.09046-0.27808 0.1388-0.5794 0.1875-0.875 0.053-0.318 0.094-0.634 0.094-0.969v-2-68-2c0-3.324-2.676-6-6-6h-72z" fill="url(#linearGradient3188)"/>
  <path id="path3615" opacity=".2" d="m12 90c-3.324 0-6-2.676-6-6v-2-68-2c0-0.33472 0.04135-0.6507 0.09375-0.96875 0.0487-0.2956 0.09704-0.59692 0.1875-0.875 0.0099-0.03 0.0209-0.063 0.0313-0.094 0.0989-0.2873 0.2349-0.547 0.375-0.812 0.1446-0.2735 0.3156-0.5356 0.5-0.7812 0.1844-0.2457 0.3738-0.4735 0.5937-0.6876 0.44-0.428 0.943-0.8145 1.5-1.0937 0.2786-0.1396 0.5735-0.2469 0.8748-0.3437-0.256 0.1002-0.4865 0.2362-0.7185 0.375-0.00741 0.0044-0.023866-0.0045-0.03125 0-0.031933 0.0193-0.062293 0.04251-0.09375 0.0625-0.1204 0.0767-0.23102 0.16351-0.34375 0.25-0.10617 0.0808-0.21328 0.16111-0.3125 0.25-0.1779 0.1614-0.3474 0.3453-0.5 0.5312-0.1075 0.1303-0.2183 0.2653-0.3124 0.4063-0.0251 0.0383-0.0385 0.0858-0.0626 0.125-0.0647 0.103-0.1302 0.2045-0.1874 0.3124-0.1011 0.1948-0.2057 0.4158-0.2813 0.625-0.008 0.0219-0.0236 0.0406-0.0313 0.0626-0.0318 0.0919-0.0358 0.1868-0.0624 0.2812-0.0304 0.1066-0.0704 0.203-0.0938 0.3125-0.0729 0.3415-0.125 0.6985-0.125 1.0625v2 68 2c0 2.7818 2.2182 5 5 5h2 68 2c2.7818 0 5-2.2182 5-5v-2-68-2c0-0.364-0.052-0.721-0.125-1.0625-0.044-0.2069-0.088-0.3977-0.156-0.5937-0.008-0.022-0.024-0.0407-0.031-0.0626-0.063-0.1737-0.139-0.3674-0.219-0.5312-0.042-0.0828-0.079-0.17-0.125-0.25-0.055-0.0972-0.127-0.1884-0.188-0.2812-0.094-0.141-0.205-0.276-0.312-0.4063-0.143-0.1745-0.303-0.347-0.469-0.5-0.011-0.0102-0.02-0.0211-0.031-0.0313-0.139-0.1255-0.285-0.2344-0.438-0.3437-0.102-0.0731-0.204-0.1534-0.312-0.2187-0.0074-0.0045-0.02384 0.0044-0.03125 0-0.23204-0.13873-0.46255-0.27478-0.71875-0.375 0.30153 0.0968 0.59646 0.20414 0.875 0.34375 0.55709 0.27922 1.0601 0.66569 1.5 1.0938 0.21997 0.21403 0.40937 0.44186 0.59375 0.6875s0.35541 0.50774 0.5 0.78125c0.14012 0.26505 0.27614 0.52473 0.375 0.8125 0.01041 0.03078 0.02133 0.06274 0.03125 0.09375 0.09046 0.27808 0.1388 0.5794 0.1875 0.875 0.053 0.318 0.094 0.634 0.094 0.969v2 68 2c0 3.324-2.676 6-6 6h-72z" fill="url(#radialGradient3619)"/>
 </g>
 <g id="layer5">
  <rect id="rect3171" height="66" stroke="#fff" stroke-linecap="round" stroke-width=".5" fill="url(#linearGradient3613)" rx="12" ry="12" width="66" opacity=".1" clip-path="url(#clipPath3613)" filter="url(#filter3794)" y="15" x="15"/>
 </g>
 <g id="layer4">
  <path id="path5186" opacity=".6" style="block-progression:tb;text-indent:0;color:#000000;text-transform:none" d="m55.062 24.031c-0.27451-0.05739-0.55454 0.03155-0.78125 0.1875s-0.43679 0.36673-0.625 0.65625l-7.968 12.281c-0.559 0.857-2.014 1.508-3.032 1.344l-14.531-2.312c-0.34217-0.05517-0.63826-0.06285-0.90625 0s-0.51518 0.19429-0.65625 0.4375-0.14217 0.54948-0.0625 0.8125 0.24969 0.51459 0.46875 0.78125l9.281 11.343c0.64985 0.79604 0.81384 2.3682 0.34375 3.2812l-6.7188 13c-0.15759 0.30705-0.25904 0.60115-0.28125 0.875s0.06156 0.54201 0.25 0.75 0.44416 0.30634 0.71875 0.3125c0.2746 0.0062 0.58442-0.06343 0.90625-0.1875l13.719-5.281c0.96226-0.36862 2.5221-0.03656 3.25 0.6875l10.375 10.375c0.24408 0.24478 0.46501 0.42506 0.71875 0.53125 0.25374 0.10618 0.55558 0.14439 0.8125 0.03125s0.40873-0.36579 0.5-0.625 0.14432-0.56203 0.125-0.90625l-0.813-14.594c-0.05648-1.0185 0.73469-2.381 1.6562-2.8438l13.125-6.625c0.30866-0.15591 0.53918-0.32301 0.71875-0.53125s0.31126-0.47037 0.28125-0.75c-0.03-0.279-0.218-0.521-0.437-0.687s-0.478-0.286-0.812-0.375l-14.219-3.719c-0.997-0.262-2.061-1.46-2.219-2.469l-2.281-14.437c-0.053-0.34-0.138-0.641-0.281-0.875-0.144-0.234-0.351-0.411-0.626-0.469zm-0.15625 0.78125c0.0095 0.002 0.03104 0.02281 0.09375 0.125s0.11469 0.29638 0.15625 0.5625l2.2812 14.438c0.22154 1.416 1.4195 2.7587 2.8125 3.125l14.219 3.75c0.26342 0.06979 0.43423 0.14523 0.53125 0.21875s0.12424 0.1179 0.125 0.125c0.000762 0.0071-0.01491 0.03358-0.09375 0.125s-0.22613 0.2212-0.46875 0.34375l-13.125 6.5938c-1.2877 0.64668-2.2043 2.1957-2.125 3.625l0.8125 14.625c0.01513 0.26954 0.0085 0.44954-0.03125 0.5625-0.03977 0.11296-0.0861 0.15288-0.09375 0.15625-0.0077 0.0034-0.04384 0.01579-0.15625-0.03125s-0.27707-0.18276-0.46875-0.375l-10.376-10.376c-1.018-1.012-2.783-1.358-4.125-0.844l-13.719 5.2812c-0.2527 0.09741-0.44116 0.12772-0.5625 0.125-0.12134-0.0027-0.1509-0.02535-0.15625-0.03125-0.0053-0.0059-0.0097-0.03656 0-0.15625s0.06391-0.32169 0.1875-0.5625l6.6875-13c0.65792-1.2779 0.47012-3.0757-0.4375-4.1875l-9.28-11.342c-0.17175-0.20907-0.27773-0.3852-0.3125-0.5s-0.0036-0.14999 0-0.15625c0.0036-0.0063 0.0064-0.03468 0.125-0.0625 0.119-0.028 0.325-0.012 0.594 0.031l14.531 2.3125c1.4216 0.22836 3.0617-0.48711 3.8438-1.6875l7.9688-12.312c0.14755-0.22698 0.30591-0.36848 0.40625-0.4375s0.1468-0.06448 0.15625-0.0625zm27.37 21.686-5.3971 0.04731 5.3971-0.04731zm-62.145-10.548c-4.0783 4.5684-6.4413 10.034-6.9949 16.118-0.5408 5.9465 0.41955 13.64 4.7268 18.153 7.9306 8.3106 22.667-0.93269 29.619-5.9553 1.3789-0.99602 2.3344-2.5672 3.7047-3.557-7.3347 5.2994-21.221 13.912-29.619 5.9553-4.3508-4.122-4.9857-11.793-4.777-17.369 0.23634-6.3133 2.858-12.212 7.0452-16.902-1.1338 1.2698-2.567 2.2825-3.7048 3.557m53.171 5.8293c-0.24145 0.44866-0.35349 0.72059-0.20095 0.98373 0.16518 0.28464 1.051 1.6729 1.051 1.6729s0.86636 1.4001 1.051 1.6725c0.17148 0.25132 0.46605 0.27072 0.97788 0.25153 0.24091-0.44846 0.35244-0.72044 0.19988-0.98337-0.16464-0.28443-1.051-1.6727-1.051-1.6727s-0.86637-1.4006-1.051-1.6725c-0.17096-0.25174-0.46605-0.27114-0.97683-0.25211m-0.000524 0.000209 2.8789 4.5807m-2.8789-4.5807 2.8789 4.5807m-0.41293 0.78456m-2.0373 5.402c0.50025-0.01125 0.78693-0.04801 0.93895-0.30279 0.16359-0.27684 0.9258-1.6938 0.9258-1.6938s0.78167-1.4067 0.92632-1.6938c0.13257-0.2656 0.0069-0.52424-0.25512-0.94801-0.49919 0.01166-0.78588 0.04802-0.93737 0.303-0.16412 0.27664-0.92632 1.6938-0.92632 1.6938s-0.78167 1.4065-0.9258 1.6942c-0.13312 0.26497-0.0082 0.52403 0.25354 0.94738m0.000524 0 2.536-4.6381m-2.536 4.6381 2.536-4.6381m3.7879 4.5533c0.24197-0.44887 0.35296-0.72059 0.20095-0.98379-0.16518-0.28438-1.051-1.6723-1.051-1.6723s-0.86636-1.3998-1.051-1.6719c-0.17096-0.25111-0.46553-0.27093-0.97735-0.25153-0.24091 0.44825-0.35243 0.72044-0.19988 0.98316 0.16464 0.28443 1.051 1.6723 1.051 1.6723s0.86636 1.3999 1.051 1.6723c0.17096 0.25069 0.46553 0.27072 0.9763 0.25174m0.000526-0.000419-2.8784-4.5793m2.8784 4.5793-2.8784-4.5793m5.8231-0.84382c-0.259-0.438-0.434-0.673-0.738-0.681-0.33-0.008-1.978 0.02-1.978 0.02s-1.6491 0.0054-1.9784 0.02019c-0.30352 0.01434-0.47342 0.25357-0.72276 0.69653 0.25828 0.43679 0.43292 0.67258 0.73749 0.68037 0.32928 0.0083 1.9773-0.02045 1.9773-0.02045s1.6491-0.0051 1.9784-0.02024c0.30352-0.01371 0.47343-0.25331 0.72275-0.69548m0-0.00037-5.4159 0.05555m5.4159-0.05555-5.4159 0.05555m2.0457-5.4014c-0.50077 0.01097-0.78798 0.04719-0.94001 0.30258-0.16464 0.27664-0.92842 1.695-0.92842 1.695s-0.78378 1.4077-0.92791 1.695c-0.13312 0.26602-0.0082 0.52508 0.25407 0.94948 0.50025-0.01153 0.78745-0.04765 0.93947-0.30321 0.16465-0.27664 0.92791-1.695 0.92791-1.695s0.78377-1.4075 0.92844-1.6952c0.13312-0.2656 0.0082-0.52466-0.25355-0.94859m-0.000524-0.000208-2.5423 4.642m2.5423-4.642-2.5423 4.642m-21.51-20.91c-0.18941-1.2129-0.89482-1.3604-1.5663-0.32742l-7.9762 12.291c-0.67005 1.0285-2.2159 1.7152-3.4356 1.5193l-14.524-2.326c-1.2226-0.19713-1.5809 0.42356-0.79929 1.375l9.2899 11.343c0.77874 0.95392 0.95811 2.6242 0.3941 3.7197l-6.7144 13.016c-0.56237 1.0957-0.08056 1.6249 1.0685 1.1819l13.722-5.2819c1.1521-0.44134 2.8068-0.09358 3.6797 0.77473l10.373 10.374c0.87152 0.87405 1.5285 0.58476 1.4596-0.64276l-0.813-14.61c-0.06787-1.2239 0.77431-2.6826 1.879-3.2374l13.13-6.6042c1.1026-0.55693 1.0263-1.2669-0.16991-1.5838l-14.22-3.745c-1.195-0.315-2.327-1.569-2.517-2.781l-2.261-14.456m0-0.000002c-0.18942-1.2129-0.89482-1.3604-1.5663-0.32742l-7.9762 12.291c-0.67005 1.0285-2.2159 1.7152-3.4356 1.5193l-14.524-2.326c-1.2226-0.19713-1.5809 0.42356-0.79929 1.375l9.2899 11.343c0.77874 0.95392 0.95811 2.6242 0.3941 3.7197l-6.7144 13.016c-0.56237 1.0957-0.08056 1.6249 1.0685 1.1819l13.722-5.2819c1.1521-0.44134 2.8068-0.09358 3.6797 0.77473l10.373 10.374c0.87152 0.87405 1.5285 0.58476 1.4596-0.64276l-0.813-14.61c-0.06787-1.2239 0.77431-2.6826 1.879-3.2374l13.13-6.6042c1.1026-0.55693 1.0263-1.2669-0.16991-1.5838l-14.22-3.745c-1.195-0.31424-2.3266-1.5681-2.5162-2.7805l-2.262-14.456z" filter="url(#filter5197)"/>
  <g id="g4987" transform="matrix(1.001 0 0 .99360 3.163 -1.9835)">
   <path id="path3064" d="m52.362 26.579c-0.189-1.22-0.894-1.369-1.565-0.329l-7.9683 12.37c-0.66938 1.0351-2.2137 1.7263-3.4321 1.5291l-14.51-2.3409c-1.2214-0.1984-1.5793 0.42629-0.7985 1.3839l9.2806 11.416c0.77796 0.96007 0.95715 2.6411 0.39371 3.7437l-6.7077 13.1c-0.56181 1.1028-0.08048 1.6354 1.0674 1.1895l13.709-5.317c1.1509-0.44419 2.804-0.09418 3.676 0.77972l10.362 10.441c0.87065 0.87969 1.527 0.58853 1.4582-0.64691l-0.81-14.704c-0.0678-1.2318 0.77354-2.6999 1.8771-3.2582l13.116-6.647c1.1015-0.56052 1.0252-1.2751-0.16974-1.594l-14.205-3.769c-1.1938-0.31627-2.3242-1.5782-2.5137-2.7985l-2.2592-14.55" fill="url(#linearGradient5009)"/>
   <path id="path3066" d="m52.362 26.579c-0.18923-1.2208-0.89393-1.3692-1.5648-0.32953l-7.968 12.371c-0.66938 1.0351-2.2137 1.7263-3.4321 1.5291l-14.51-2.3409c-1.2214-0.1984-1.5793 0.42629-0.7985 1.3839l9.2806 11.416c0.77796 0.96007 0.95715 2.6411 0.39371 3.7437l-6.7077 13.1c-0.56181 1.1028-0.08048 1.6354 1.0674 1.1895l13.708-5.3159c1.1509-0.44418 2.804-0.09418 3.676 0.77972l10.362 10.441c0.87065 0.87969 1.527 0.58853 1.4582-0.64691l-0.809-14.705c-0.0678-1.2318 0.77354-2.6999 1.8771-3.2582l13.116-6.6468c1.1015-0.56052 1.0252-1.2751-0.16974-1.594l-14.205-3.769c-1.1938-0.31627-2.3242-1.5782-2.5137-2.7985l-2.2592-14.55z" stroke="#fab217" stroke-width=".82301" fill="url(#linearGradient5011)"/>
   <path id="path3068" d="m76.39 42.951-2.5397 4.6719" fill="url(#linearGradient5009)"/>
   <path id="path3070" d="m76.39 42.951-2.5397 4.6719" fill="url(#linearGradient5009)"/>
   <path id="path3072" d="m76.391 42.951c-0.50028 0.01104-0.78719 0.04749-0.93907 0.30453-0.16448 0.27842-0.9275 1.7059-0.9275 1.7059s-0.783 1.4168-0.92699 1.7059c-0.13299 0.26773-0.0082 0.52846 0.25382 0.9556 0.49975-0.0116 0.78667-0.04796 0.93854-0.30516 0.16449-0.27842 0.92699-1.7059 0.92699-1.7059s0.78299-1.4166 0.92751-1.7061c0.13298-0.26731 0.0082-0.52804-0.25329-0.9547" fill="url(#linearGradient5009)"/>
   <path id="path3074" d="m79.758 48.332-5.4105 0.05591" fill="url(#linearGradient5009)"/>
   <path id="path3076" d="m79.758 48.332-5.4105 0.05591" fill="url(#linearGradient5009)"/>
   <path id="path3078" d="m79.758 48.332c-0.25801-0.44045-0.43301-0.67776-0.73674-0.68576-0.32896-0.0078-1.9754 0.02058-1.9754 0.02058s-1.6474 0.0054-1.9764 0.02032c-0.30322 0.01443-0.47295 0.2552-0.72204 0.70102 0.25802 0.43961 0.43249 0.67691 0.73676 0.68476 0.32895 0.0084 1.9753-0.02058 1.9753-0.02058s1.6475-0.0051 1.9764-0.02037c0.30322-0.0138 0.47296-0.25494 0.72203-0.69997" fill="url(#linearGradient5009)"/>
   <path id="path3080" d="m76.816 53.79-2.876-4.609" fill="url(#linearGradient5009)"/>
   <path id="path3082" d="m76.816 53.79-2.876-4.609" fill="url(#linearGradient5009)"/>
   <path id="path3084" d="m76.815 53.79c0.24173-0.45177 0.35261-0.72524 0.20075-0.99013-0.16501-0.28621-1.05-1.683-1.05-1.683s-0.8655-1.4088-1.05-1.6827c-0.17079-0.25273-0.46506-0.27268-0.97638-0.25315-0.24067 0.45114-0.35208 0.72508-0.19969 0.9895 0.16448 0.28626 1.05 1.6831 1.05 1.6831s0.8655 1.4089 1.0499 1.683c0.17079 0.25231 0.46506 0.27247 0.97533 0.25336" fill="url(#linearGradient5009)"/>
   <path id="path3086" d="m70.498 53.876 2.533-4.668" fill="url(#linearGradient5009)"/>
   <path id="path3088" d="m70.498 53.876 2.533-4.668" fill="url(#linearGradient5009)"/>
   <path id="path3090" d="m70.497 53.876c0.49975-0.01132 0.78615-0.04832 0.93801-0.30474 0.16343-0.27863 0.92488-1.7047 0.92488-1.7047s0.7809-1.4157 0.9254-1.7047c0.13243-0.26731 0.0069-0.52762-0.25486-0.95412-0.49869 0.01174-0.7851 0.04833-0.93644 0.30495-0.16395 0.27842-0.9254 1.7047-0.9254 1.7047s-0.7809 1.4156-0.92488 1.7051c-0.13299 0.26668-0.0082 0.52741 0.25329 0.95349" fill="url(#linearGradient5009)"/>
   <path id="path3092" d="m72.532 48.439" fill="url(#linearGradient5009)"/>
   <path id="path3094" d="m70.069 43.039 2.8761 4.6102" fill="url(#linearGradient5009)"/>
   <path id="path3096" d="m70.069 43.039 2.8761 4.6102" fill="url(#linearGradient5009)"/>
   <path id="path3098" d="m70.069 43.039c-0.24121 0.45156-0.35314 0.72524-0.20075 0.99008 0.16501 0.28647 1.05 1.6837 1.05 1.6837s0.8655 1.4092 1.05 1.6833c0.17131 0.25294 0.46559 0.27247 0.9769 0.25315 0.24067-0.45135 0.35209-0.72508 0.19968-0.98971-0.16447-0.28626-1.0499-1.6835-1.0499-1.6835s-0.86551-1.4096-1.05-1.6833c-0.17079-0.25336-0.46559-0.27289-0.97585-0.25373" fill="url(#linearGradient5009)"/>
   <path id="path3108" d="m16.952 37.172c-4.0743 4.5979-6.4349 10.099-6.9879 16.222-0.54027 5.9848 0.41913 13.728 4.7221 18.27 7.9227 8.3642 22.645-0.9387 29.589-5.9937 1.3775-1.0024 2.3321-2.5837 3.701-3.58-7.3274 5.3336-21.2 14.002-29.589 5.9937-4.3465-4.1486-4.9807-11.869-4.7722-17.481 0.23611-6.354 2.8552-12.29 7.0382-17.011-1.1327 1.278-2.5645 2.2973-3.7011 3.58" fill="#fff"/>
   <path id="path32" d="m79.035 47.788-5.3918 0.04762 5.3918-0.04762z" fill-rule="evenodd" fill="url(#linearGradient5045)"/>
  </g>
 </g>
</svg>
