<?xml version="1.0" encoding="UTF-8" standalone="no"?>
<!-- Created with Inkscape (http://www.inkscape.org/) -->
<svg id="svg2408" xmlns:rdf="http://www.w3.org/1999/02/22-rdf-syntax-ns#" xmlns="http://www.w3.org/2000/svg" height="96" width="96" version="1.0" xmlns:cc="http://creativecommons.org/ns#" xmlns:xlink="http://www.w3.org/1999/xlink" xmlns:dc="http://purl.org/dc/elements/1.1/">
 <defs id="defs2410">
  <linearGradient id="ButtonShadow" y2="7.0165" gradientUnits="userSpaceOnUse" x2="45.448" gradientTransform="scale(1.0059 .99417)" y1="92.54" x1="45.448">
   <stop id="stop3750" offset="0"/>
   <stop id="stop3752" stop-opacity=".58824" offset="1"/>
  </linearGradient>
  <linearGradient id="linearGradient3737">
   <stop id="stop3739" stop-color="#fff" offset="0"/>
   <stop id="stop3741" stop-color="#fff" stop-opacity="0" offset="1"/>
  </linearGradient>
  <filter id="filter3174" color-interpolation-filters="sRGB">
   <feGaussianBlur id="feGaussianBlur3176" stdDeviation="1.71"/>
  </filter>
  <linearGradient id="linearGradient3188" y2="63.893" xlink:href="#linearGradient3737" gradientUnits="userSpaceOnUse" x2="36.357" y1="6" x1="36.357"/>
  <filter id="filter3794" height="1.384" width="1.384" color-interpolation-filters="sRGB" y="-.192" x="-.192">
   <feGaussianBlur id="feGaussianBlur3796" stdDeviation="5.28"/>
  </filter>
  <linearGradient id="linearGradient3613" y2="138.66" xlink:href="#linearGradient3737" gradientUnits="userSpaceOnUse" x2="48" y1="20.221" x1="48"/>
  <radialGradient id="radialGradient3619" xlink:href="#linearGradient3737" gradientUnits="userSpaceOnUse" cy="90.172" cx="48" gradientTransform="matrix(1.1573 0 0 .99591 -7.551 .19713)" r="42"/>
  <clipPath id="clipPath3613">
   <rect id="rect3615" rx="6" ry="6" height="84" width="84" y="6" x="6" fill="#fff"/>
  </clipPath>
  <linearGradient id="linearGradient3617" y2="5.9877" gradientUnits="userSpaceOnUse" x2="48" y1="90" x1="48">
   <stop id="stop4110" stop-color="#8983ac" offset="0"/>
   <stop id="stop4112" stop-color="#ceccdd" offset="1"/>
  </linearGradient>
  <linearGradient id="ButtonShadow-0" y2="7.0165" gradientUnits="userSpaceOnUse" x2="45.448" gradientTransform="matrix(1.0059 0 0 .99417 100 0)" y1="92.54" x1="45.448">
   <stop id="stop3750-8" offset="0"/>
   <stop id="stop3752-5" stop-opacity=".58824" offset="1"/>
  </linearGradient>
  <linearGradient id="linearGradient3780" y2="90.239" xlink:href="#ButtonShadow-0" gradientUnits="userSpaceOnUse" x2="32.251" gradientTransform="matrix(1.0238 0 0 1.0119 -1.1429 -98.071)" y1="6.1317" x1="32.251"/>
  <linearGradient id="linearGradient3721" y2="90.239" xlink:href="#ButtonShadow-0" gradientUnits="userSpaceOnUse" x2="32.251" gradientTransform="translate(0,-97)" y1="6.1317" x1="32.251"/>
  <radialGradient id="radialGradient5851" xlink:href="#linearGradient3004" gradientUnits="userSpaceOnUse" cy="320.09" cx="49.53" gradientTransform="matrix(3.2874 0 0 2.5197 111.69 -642.72)" r="31.949"/>
  <radialGradient id="radialGradient3228" xlink:href="#linearGradient3004" gradientUnits="userSpaceOnUse" cy="590.59" cx="332.72" gradientTransform="matrix(-.066040 4.1903 -3.5738 -.056268 2168.2 -1171.4)" r="218.02"/>
  <linearGradient id="linearGradient2994" y2="1340.6" xlink:href="#linearGradient3004" gradientUnits="userSpaceOnUse" x2="1099.7" gradientTransform="matrix(1.2371 0 0 1.2371 -1037.4 -1010.4)" y1="-313.52" x1="783.86"/>
  <linearGradient id="linearGradient2986" y2="269.71" xlink:href="#linearGradient3004" gradientUnits="userSpaceOnUse" x2="368.62" gradientTransform="matrix(1.2371 0 0 1.2371 -161.09 -377.34)" y1="697.44" x1="464.02"/>
  <linearGradient id="linearGradient3004">
   <stop id="stop3006" stop-color="#fff" offset="0"/>
   <stop id="stop7609" stop-color="#fff" offset=".34214"/>
   <stop id="stop7599" stop-color="#bebdf3" offset=".51998"/>
   <stop id="stop7611" stop-color="#8f82f9" offset=".75409"/>
   <stop id="stop7613" stop-color="#9f99c7" offset=".87114"/>
   <stop id="stop3008" stop-color="#524c76" offset="1"/>
  </linearGradient>
 </defs>
 <metadata id="metadata2413">
  <rdf:RDF>
   <cc:Work rdf:about="">
    <dc:format>image/svg+xml</dc:format>
    <dc:type rdf:resource="http://purl.org/dc/dcmitype/StillImage"/>
    <dc:title/>
   </cc:Work>
  </rdf:RDF>
 </metadata>
 <g id="layer2" display="none">
  <rect id="rect3745" opacity=".9" rx="6" ry="6" height="85" filter="url(#filter3174)" width="86" y="7" x="5" fill="url(#ButtonShadow)"/>
 </g>
 <g id="layer3">
  <path id="path3786" opacity="0.08" d="m12-95.031c-5.5111 0-10.031 4.5202-10.031 10.031v71c0 5.5111 4.5202 10.031 10.031 10.031h72c5.5111 0 10.031-4.5202 10.031-10.031v-71c0-5.5111-4.5202-10.031-10.031-10.031h-72z" transform="scale(1,-1)" fill="url(#linearGradient3780)"/>
  <path id="path3778" opacity=".1" d="m12-94.031c-4.9716 0-9.0312 4.0596-9.0312 9.0312v71c0 4.9716 4.0596 9.0312 9.0312 9.0312h72c4.9716 0 9.0312-4.0596 9.0312-9.0312v-71c0-4.9716-4.0596-9.0312-9.0312-9.0312h-72z" transform="scale(1,-1)" fill="url(#linearGradient3780)"/>
  <path id="path3770" opacity=".2" d="m12-93c-4.4091 0-8 3.5909-8 8v71c0 4.4091 3.5909 8 8 8h72c4.4091 0 8-3.5909 8-8v-71c0-4.4091-3.5909-8-8-8h-72z" transform="scale(1,-1)" fill="url(#linearGradient3780)"/>
  <rect id="rect3723" opacity=".3" transform="scale(1,-1)" rx="7" ry="7" height="85" width="86" y="-92" x="5" fill="url(#linearGradient3780)"/>
  <rect id="rect3716" opacity=".45" transform="scale(1,-1)" rx="6" ry="6" height="84" width="84" y="-91" x="6" fill="url(#linearGradient3721)"/>
 </g>
 <g id="layer1">
  <rect id="rect2419" rx="6" ry="6" height="84" width="84" y="6" x="6" fill="url(#linearGradient3617)"/>
  <path id="rect3728" opacity=".4" d="m12 6c-3.324 0-6 2.676-6 6v2 68 2c0 0.33472 0.04135 0.6507 0.09375 0.96875 0.0487 0.2956 0.09704 0.59692 0.1875 0.875 0.00988 0.03038 0.020892 0.0636 0.03125 0.09375 0.098865 0.28777 0.23488 0.54745 0.375 0.8125 0.14459 0.27351 0.31562 0.53562 0.5 0.78125 0.18438 0.24564 0.37378 0.47347 0.59375 0.6875 0.43995 0.42806 0.94291 0.81453 1.5 1.0938 0.27854 0.13961 0.57347 0.24695 0.875 0.34375-0.2562-0.10022-0.48671-0.23627-0.71875-0.375-0.00741-0.0044-0.023866 0.0045-0.03125 0-0.031933-0.0193-0.062293-0.04251-0.09375-0.0625-0.1204-0.0767-0.23102-0.16351-0.34375-0.25-0.10617-0.0808-0.21328-0.16111-0.3125-0.25-0.1778-0.162-0.3473-0.346-0.4999-0.531-0.1075-0.131-0.2183-0.266-0.3124-0.407-0.0251-0.038-0.0385-0.086-0.0626-0.125-0.0647-0.103-0.1302-0.204-0.1874-0.312-0.1011-0.195-0.2057-0.416-0.2813-0.625-0.008-0.022-0.0236-0.041-0.0313-0.063-0.0318-0.092-0.0358-0.187-0.0624-0.281-0.0304-0.107-0.0704-0.203-0.0938-0.313-0.0729-0.341-0.125-0.698-0.125-1.062v-2-68-2c0-2.782 2.2182-5 5-5h2 68 2c2.7818 0 5 2.2182 5 5v2 68 2c0 0.3643-0.05212 0.72099-0.125 1.0625-0.04415 0.20689-0.08838 0.39766-0.15625 0.59375-0.0077 0.02195-0.0233 0.04069-0.03125 0.0625-0.06274 0.17374-0.13838 0.36745-0.21875 0.53125-0.04158 0.0828-0.07904 0.16995-0.125 0.25-0.0546 0.09721-0.12677 0.18835-0.1875 0.28125-0.09411 0.14096-0.20492 0.276-0.3125 0.40625-0.14317 0.17445-0.30314 0.347-0.46875 0.5-0.01117 0.0102-0.01998 0.02115-0.03125 0.03125-0.13839 0.12556-0.28509 0.23444-0.4375 0.34375-0.10257 0.07315-0.20432 0.15336-0.3125 0.21875-0.0074 0.0045-0.02384-0.0044-0.03125 0-0.23204 0.13873-0.46255 0.27478-0.71875 0.375 0.30153-0.0968 0.59646-0.20414 0.875-0.34375 0.55709-0.27922 1.0601-0.66569 1.5-1.0938 0.21997-0.21403 0.40937-0.44186 0.59375-0.6875s0.35541-0.50774 0.5-0.78125c0.14012-0.26505 0.27614-0.52473 0.375-0.8125 0.01041-0.03078 0.02133-0.06274 0.03125-0.09375 0.09046-0.27808 0.1388-0.5794 0.1875-0.875 0.053-0.318 0.094-0.634 0.094-0.969v-2-68-2c0-3.324-2.676-6-6-6h-72z" fill="url(#linearGradient3188)"/>
  <path id="path3615" opacity=".2" d="m12 90c-3.324 0-6-2.676-6-6v-2-68-2c0-0.33472 0.04135-0.6507 0.09375-0.96875 0.0487-0.2956 0.09704-0.59692 0.1875-0.875 0.0099-0.03 0.0209-0.063 0.0313-0.094 0.0989-0.2873 0.2349-0.547 0.375-0.812 0.1446-0.2735 0.3156-0.5356 0.5-0.7812 0.1844-0.2457 0.3738-0.4735 0.5937-0.6876 0.44-0.428 0.943-0.8145 1.5-1.0937 0.2786-0.1396 0.5735-0.2469 0.8748-0.3437-0.256 0.1002-0.4865 0.2362-0.7185 0.375-0.00741 0.0044-0.023866-0.0045-0.03125 0-0.031933 0.0193-0.062293 0.04251-0.09375 0.0625-0.1204 0.0767-0.23102 0.16351-0.34375 0.25-0.10617 0.0808-0.21328 0.16111-0.3125 0.25-0.1779 0.1614-0.3474 0.3453-0.5 0.5312-0.1075 0.1303-0.2183 0.2653-0.3124 0.4063-0.0251 0.0383-0.0385 0.0858-0.0626 0.125-0.0647 0.103-0.1302 0.2045-0.1874 0.3124-0.1011 0.1948-0.2057 0.4158-0.2813 0.625-0.008 0.0219-0.0236 0.0406-0.0313 0.0626-0.0318 0.0919-0.0358 0.1868-0.0624 0.2812-0.0304 0.1066-0.0704 0.203-0.0938 0.3125-0.0729 0.3415-0.125 0.6985-0.125 1.0625v2 68 2c0 2.7818 2.2182 5 5 5h2 68 2c2.7818 0 5-2.2182 5-5v-2-68-2c0-0.364-0.052-0.721-0.125-1.0625-0.044-0.2069-0.088-0.3977-0.156-0.5937-0.008-0.022-0.024-0.0407-0.031-0.0626-0.063-0.1737-0.139-0.3674-0.219-0.5312-0.042-0.0828-0.079-0.17-0.125-0.25-0.055-0.0972-0.127-0.1884-0.188-0.2812-0.094-0.141-0.205-0.276-0.312-0.4063-0.143-0.1745-0.303-0.347-0.469-0.5-0.011-0.0102-0.02-0.0211-0.031-0.0313-0.139-0.1255-0.285-0.2344-0.438-0.3437-0.102-0.0731-0.204-0.1534-0.312-0.2187-0.0074-0.0045-0.02384 0.0044-0.03125 0-0.23204-0.13873-0.46255-0.27478-0.71875-0.375 0.30153 0.0968 0.59646 0.20414 0.875 0.34375 0.55709 0.27922 1.0601 0.66569 1.5 1.0938 0.21997 0.21403 0.40937 0.44186 0.59375 0.6875s0.35541 0.50774 0.5 0.78125c0.14012 0.26505 0.27614 0.52473 0.375 0.8125 0.01041 0.03078 0.02133 0.06274 0.03125 0.09375 0.09046 0.27808 0.1388 0.5794 0.1875 0.875 0.053 0.318 0.094 0.634 0.094 0.969v2 68 2c0 3.324-2.676 6-6 6h-72z" fill="url(#radialGradient3619)"/>
 </g>
 <g id="layer5">
  <rect id="rect3171" height="66" stroke="#fff" stroke-linecap="round" stroke-width=".5" fill="url(#linearGradient3613)" rx="12" ry="12" width="66" opacity=".1" clip-path="url(#clipPath3613)" filter="url(#filter3794)" y="15" x="15"/>
 </g>
 <g id="layer4">
  <path id="path3985" opacity=".05" d="m42.031 14.156c-1.1619 0.02961-2.2988 0.17247-3.4062 0.375-6.4541 1.1803-11.884 4.5466-15.812 8.5-3.9224 3.947-6.4605 8.4861-6.9062 12.75-0.45757 4.3769 1.8659 7.5109 3.0938 8.875 2.3303 2.589 5.5172 4.2632 8.3438 5.6875-2.5394 2.2173-4.8414 4.2318-6.4062 5.875-3.4851 3.6597-6.333 7.6598-6.3438 11.812-0.0006 0.2087-0.03207 1.3776 0.09375 2.6875 0.12598 1.3117 0.44792 2.9166 1.25 4.4688 0.1266 0.24498 0.6757 1.4172 1.6875 2.7188 1.0065 1.2947 2.4942 2.8249 4.6875 4.0625 3.0486 1.7202 6.8924 2.1934 10.656 1.6562 11.227-1.602 24.753-10.399 34.591-18.53 6.282-5.191 10.785-9.897 12.563-13.219 1.603-2.995 1.617-6.804 0.813-9.719-1.219-4.418-5.514-9.089-10.813-13.844-5.32-4.773-11.79-9.375-17.906-12.124-3.158-1.42-6.724-2.12-10.188-2.032z" fill-rule="evenodd"/>
  <path id="path3980" opacity=".1" d="m42.062 15.031c-1.1144 0.0284-2.2152 0.14879-3.2812 0.34375-6.2537 1.1437-11.522 4.4045-15.344 8.25-3.8195 3.8435-6.2712 8.2678-6.6875 12.25-0.42176 4.0343 1.725 6.9411 2.875 8.2188 2.4661 2.7399 6.1342 4.5259 9.1875 6.0625-3.0412 2.6408-5.5058 4.8247-7.25 6.6562-3.4258 3.5973-6.084 7.471-6.0938 11.219-0.000882 0.30689-0.05647 1.3551 0.0625 2.5938 0.11897 1.2386 0.42303 2.7374 1.1562 4.1562 0.15185 0.29385 0.66933 1.3644 1.625 2.5938s2.3628 2.6731 4.4375 3.8438c2.8377 1.6012 6.4835 2.0777 10.094 1.5625 10.884-1.555 24.385-10.269 34.158-18.345 6.238-5.156 10.73-9.897 12.375-12.969 1.453-2.714 1.469-6.373 0.719-9.094-1.119-4.055-5.275-8.721-10.532-13.437-5.264-4.725-11.691-9.274-17.687-11.969-3.03-1.363-6.477-2.023-9.813-1.938z" fill-rule="evenodd"/>
  <path id="path3976" opacity=".15" d="m42.094 16.031c-1.0686 0.02724-2.1157 0.12792-3.125 0.3125-6.0215 1.1012-11.115 4.2483-14.812 7.9688-3.6972 3.7205-6.0251 8.0103-6.4062 11.656-0.38 3.6349 1.568 6.2944 2.625 7.4688 2.5704 2.8558 6.9095 4.8227 10.156 6.5-3.7913 3.2641-6.2936 5.5081-8.25 7.5625-3.3486 3.5163-5.8041 7.2826-5.8125 10.531-0.0022 0.7796-0.2058 3.7665 1.0938 6.2812 0.36597 0.7082 1.7995 3.8374 5.6875 6.0312 2.5871 1.4598 6.0384 1.9271 9.4688 1.4375 10.469-1.492 23.96-10.111 33.654-18.123 6.184-5.111 10.648-9.897 12.125-12.656 1.262-2.357 1.308-5.9 0.625-8.375-0.994-3.604-5.017-8.271-10.219-12.937-5.201-4.667-11.583-9.181-17.437-11.813-2.8808-1.2951-6.1877-1.925-9.375-1.8438z" fill-rule="evenodd"/>
  <path id="path3924" opacity=".3" d="m42.125 17c-1.0142 0.02585-2.0048 0.13622-2.9688 0.3125-11.588 2.1193-19.747 12.145-20.438 18.75-0.3388 3.2408 1.4113 5.6481 2.375 6.7188 2.6045 2.8936 7.7875 5.1062 11.125 6.9375-4.8249 4.1139-7.0394 6.149-9.2188 8.4375-3.2611 3.4245-5.5555 7.1752-5.5625 9.875-0.0025 0.86964-0.13125 3.6547 1 5.8438 0.42542 0.82322 1.6355 3.5679 5.2812 5.625 2.3302 1.3148 5.6251 1.7763 8.875 1.3125 10.059-1.435 23.544-9.961 33.157-17.906 6.126-5.063 10.613-9.959 11.906-12.375 1.044-1.949 1.137-5.462 0.532-7.656-1.72-6.234-15.695-18.986-27.126-24.125-2.732-1.229-5.894-1.828-8.937-1.75zm3.375 20.062c1.6408-0.15272 4.7065 0.83998 4.75 1.7188-0.93918 0.46326-3.8838 0.12189-5.6875-1.2188 0.10736-0.29044 0.43795-0.4535 0.9375-0.5z" fill-rule="evenodd"/>
  <g id="g3143" transform="matrix(.10281 0 0 .10281 17.431 16)">
   <g id="layer2-3" transform="translate(-25.691 -25.521)">
    <path id="path2973" d="m25.757 521.91c0.068-26.26 22.392-62.92 54.112-96.23 21.201-22.26 42.731-41.8 89.661-81.81-32.47-17.81-82.955-39.31-108.29-67.45-9.371-10.42-26.361-34.01-23.066-65.53 6.717-64.25 86.016-161.75 198.74-182.36 37.504-6.8587 80.564-1.9078 116 14.025 111.18 49.984 247.15 174.16 263.88 234.79 5.8884 21.342 4.7566 55.36-5.3948 74.32-12.581 23.498-56.136 71.225-115.72 120.47-93.499 77.274-224.52 160.25-322.35 174.21-31.611 4.5114-63.908-0.19399-86.572-12.983-35.481-20.01-47.252-46.72-51.39-54.73-11.003-21.29-9.637-48.27-9.613-56.73zm263.14-295.04c1.2074-14.889 59.593-0.0658 55.904 11.725-3.892 12.44-57.289 5.3554-55.904-11.725z" fill-rule="evenodd" fill="url(#linearGradient2994)"/>
   </g>
   <g id="layer4-8" fill-rule="evenodd" transform="translate(-25.691 -25.521)">
    <path id="path2975" d="m201.13 319.26c-30.73 25.95-51.16 43.44-76.77 66.85-61.674 56.37-103.58 99.27-81.975 157.93 24.923 67.66 79.555 64.23 143.62 51.65 165.14-32.57 436.6-241.26 422.76-318.34-11.19-62.37-162.85-186.38-252.65-230.5-28.05-13.786-60.38-20.916-92.8-19.39-123.48 5.828-219.9 118.24-214.97 179.15 4.788 59.26 154.55 110.89 152.79 112.65zm-18.54-206.86c-37.153 41.336-13.399 121.31 48.215 164.9 72.095 51.007 188.84 60.243 212.08 20.906 43.335-73.373-3.9803-150.96-74.611-185.56-69.795-34.199-162.52-26.012-185.68-0.24497z" fill="url(#linearGradient2986)"/>
    <path id="path4976" d="m309.3 275.57c52.159 7.2499 97.117-13.639 104.15-65.143 5.3554-39.234-54.689-82.1-90.79-91.987-30.146-8.2561-95.595 2.3603-100.01 59.378-4.5868 59.272 56.237 93.525 86.65 97.752zm-25.543-98.581c-34.279 53.104 49.77 69.43 62.638 59.746 55.477-41.753-47.536-83.142-62.638-59.746z" fill="url(#radialGradient5851)"/>
   </g>
   <g id="layer5-1" transform="translate(-25.691 -25.521)">
    <path id="path2977" d="m253.35 41.57c-60.63 6.39-72.24 14.194-127.17 55.753-18.41 13.927-52.297 47.817-60.978 88.027-3.3065 15.313 0.60194 28.533 11.63 37.804 35.313 29.688 94.416 53.774 142.9 77.057 14.202 6.8196 4.7987 19.185-18.104 39.013-57.792 50.032-135.93 110.93-141.38 157.34-2.5704 21.868 4.9161 51.583 31.459 66.79 31.007 17.764 95.372 6.1696 138.35-9.835 62.806-23.388 145.31-75.004 210.81-125.74 68.11-52.76 131.44-119.77 134.57-130.7 3.8467-13.421 3.4632-25.818-3.9604-40.071-11.66-22.38-27.25-39.01-43.98-57.62-44.9-47.34-92.41-88.94-149.26-120.81-41.04-23.023-77.16-42.03-124.89-37zm89.068 106.13c43.805 21.179 88.79 76.807-0.39035 108.82-24.25 8.7064-101.16-21.382-98.804-62.444 3.4332-60.656 45.707-72.24 99.194-46.381z" fill-rule="evenodd" fill="url(#radialGradient3228)"/>
   </g>
  </g>
 </g>
</svg>
