<?xml version="1.0" encoding="UTF-8" standalone="no"?>
<!-- Created with Inkscape (http://www.inkscape.org/) -->

<svg
   xmlns:dc="http://purl.org/dc/elements/1.1/"
   xmlns:cc="http://creativecommons.org/ns#"
   xmlns:rdf="http://www.w3.org/1999/02/22-rdf-syntax-ns#"
   xmlns:svg="http://www.w3.org/2000/svg"
   xmlns="http://www.w3.org/2000/svg"
   xmlns:xlink="http://www.w3.org/1999/xlink"
   xmlns:sodipodi="http://sodipodi.sourceforge.net/DTD/sodipodi-0.dtd"
   xmlns:inkscape="http://www.inkscape.org/namespaces/inkscape"
   id="svg2"
   height="96"
   width="96"
   version="1.1"
   inkscape:version="0.91 r"
   sodipodi:docname="user-home.svg">
  <sodipodi:namedview
     pagecolor="#ffffff"
     bordercolor="#666666"
     borderopacity="1"
     objecttolerance="10"
     gridtolerance="10"
     guidetolerance="10"
     inkscape:pageopacity="0"
     inkscape:pageshadow="2"
     inkscape:window-width="1366"
     inkscape:window-height="717"
     id="namedview67"
     showgrid="false"
     showguides="true"
     inkscape:guide-bbox="true"
     inkscape:zoom="2.4583333"
     inkscape:cx="-70.962712"
     inkscape:cy="17.193408"
     inkscape:window-x="0"
     inkscape:window-y="0"
     inkscape:window-maximized="1"
     inkscape:current-layer="svg2">
    <sodipodi:guide
       position="48,112.67797"
       orientation="1,0"
       id="guide4458" />
  </sodipodi:namedview>
  <defs
     id="defs4">
    <linearGradient
       id="linearGradient3613-3"
       y2="138.66"
       gradientUnits="userSpaceOnUse"
       x2="48"
       y1="20.221"
       x1="48">
      <stop
         id="stop3739-10"
         stop-color="#fff"
         offset="0" />
      <stop
         id="stop3741-2"
         stop-color="#fff"
         stop-opacity="0"
         offset="1" />
    </linearGradient>
    <clipPath
       id="clipPath3613-29">
      <rect
         id="rect3615-1"
         rx="6"
         ry="6"
         height="84"
         width="84"
         y="6"
         x="6"
         fill="#fff" />
    </clipPath>
    <filter
       id="filter3794-0"
       height="1.384"
       width="1.384"
       color-interpolation-filters="sRGB"
       y="-.192"
       x="-.192">
      <feGaussianBlur
         id="feGaussianBlur3796-8"
         stdDeviation="5.28" />
    </filter>
    <clipPath
       id="clipPath3613-25">
      <rect
         id="rect3615-14"
         rx="6"
         ry="6"
         height="84"
         width="84"
         y="6"
         x="6"
         fill="#fff" />
    </clipPath>
    <filter
       id="filter3794-6"
       height="1.384"
       width="1.384"
       color-interpolation-filters="sRGB"
       y="-.192"
       x="-.192">
      <feGaussianBlur
         id="feGaussianBlur3796-26"
         stdDeviation="5.28" />
    </filter>
    <clipPath
       id="clipPath3860">
      <rect
         id="rect3862"
         rx="6"
         ry="6"
         height="72"
         width="84"
         y="18"
         x="6"
         fill="#f0f" />
    </clipPath>
    <filter
       id="filter3870"
       height="1.3943"
       width="1.3312"
       color-interpolation-filters="sRGB"
       y="-.19716"
       x="-.16559">
      <feGaussianBlur
         id="feGaussianBlur3872"
         stdDeviation="5.1703125" />
    </filter>
    <linearGradient
       id="linearGradient5696"
       y2="81.481"
       gradientUnits="userSpaceOnUse"
       x2="48.022"
       y1="22.933"
       x1="48.022">
      <stop
         id="stop3876"
         stop-color="#fff"
         offset="0" />
      <stop
         id="stop3878"
         stop-color="#fff"
         stop-opacity="0"
         offset="1" />
    </linearGradient>
    <linearGradient
       id="linearGradient4640"
       y2="48.005"
       gradientUnits="userSpaceOnUse"
       x2="6.1872"
       y1="48.005"
       x1="93.008"
       gradientTransform="translate(0 956.36)">
      <stop
         id="stop4636"
         stop-color="#be8e4a"
         stop-opacity=".076923"
         offset="0" />
      <stop
         id="stop4638"
         stop-color="#a67c25"
         offset="1" />
    </linearGradient>
    <linearGradient
       id="linearGradient3664"
       x1="45.448"
       gradientUnits="userSpaceOnUse"
       y1="80.472"
       gradientTransform="matrix(1.0059 0 0 .99417 0 12)"
       x2="45.448"
       y2="5.2972">
      <stop
         id="stop3750-7"
         offset="0" />
      <stop
         id="stop3752-8"
         stop-opacity=".58824"
         offset="1" />
    </linearGradient>
    <filter
       id="filter3174"
       color-interpolation-filters="sRGB">
      <feGaussianBlur
         id="feGaussianBlur3176"
         stdDeviation="1.71" />
    </filter>
    <linearGradient
       id="linearGradient3699-40">
      <stop
         id="stop3701-04"
         stop-color="#aa7932"
         stop-opacity=".78431"
         offset="0" />
      <stop
         id="stop3703-0"
         stop-color="#aa7932"
         stop-opacity=".39216"
         offset="1" />
    </linearGradient>
    <filter
       id="filter3174-5"
       color-interpolation-filters="sRGB">
      <feGaussianBlur
         id="feGaussianBlur3176-4"
         stdDeviation="1.71" />
    </filter>
    <linearGradient
       id="linearGradient4157"
       y2="31.732"
       xlink:href="#linearGradient3699-40"
       gradientUnits="userSpaceOnUse"
       x2="51.551"
       gradientTransform="translate(-81.88145,89.172722)"
       y1="75.568"
       x1="51.551" />
    <clipPath
       id="clipPath3668">
      <path
         inkscape:connector-curvature="0"
         id="path3670"
         style="opacity:0.9;fill:url(#linearGradient3664-2)"
         d="m 48,33.268 -24,24.084 5.9201,0 0,18.648 36.201,0 0,-18.732 5.8791,0 -10.537,-10.62 0,-8.1115 -5.3519,0 0,2.8432 -8.111,-8.111 z" />
    </clipPath>
    <filter
       style="color-interpolation-filters:sRGB"
       id="filter3674">
      <feGaussianBlur
         id="feGaussianBlur3676"
         stdDeviation="0.45365853" />
    </filter>
    <linearGradient
       gradientTransform="matrix(0.92067232,0,0,0.92067232,3.6434534,1.4835585)"
       id="linearGradient3066"
       x1="47"
       xlink:href="#linearGradient3699-40"
       gradientUnits="userSpaceOnUse"
       x2="47"
       y1="76"
       y2="33.085999" />
    <linearGradient
       id="ButtonShadow"
       x1="45.448002"
       gradientUnits="userSpaceOnUse"
       y1="80.472"
       gradientTransform="matrix(1.0059,0,0,0.99417,0,12)"
       x2="45.448002"
       y2="7.0165">
      <stop
         id="stop3750"
         offset="0" />
      <stop
         id="stop3752"
         style="stop-opacity:.58824"
         offset="1" />
    </linearGradient>
    <clipPath
       id="clipPath3690">
      <path
         inkscape:connector-curvature="0"
         id="path3692"
         style="opacity:0.35;fill:#ff00ff"
         d="m 77.375,23.75 c -3.324,0 -6,2.676 -6,6 l 0,49.25 c 0,3.324 2.676,6 6,6 l 59.875,0 c 3.324,0 6,-2.676 6,-6 l 0,-49.25 c 0,-3.324 -2.676,-6 -6,-6 l -59.875,0 z m 30.625,9.5312 8.125,8.0938 0,-2.8438 5.3438,0 0,8.125 10.531,10.625 -5.875,0 0,18.719 -36.219,0 0,-18.656 -5.9062,0 24,-24.062 z" />
    </clipPath>
    <filter
       style="color-interpolation-filters:sRGB"
       id="filter3694">
      <feGaussianBlur
         id="feGaussianBlur3696"
         stdDeviation="0.6804878" />
    </filter>
    <linearGradient
       inkscape:collect="always"
       xlink:href="#linearGradient3664"
       id="linearGradient4354"
       gradientUnits="userSpaceOnUse"
       gradientTransform="matrix(1.0059,0,0,0.99417,0,12)"
       x1="45.448"
       y1="80.472"
       x2="45.448"
       y2="5.2972" />
    <linearGradient
       inkscape:collect="always"
       xlink:href="#linearGradient3664"
       id="linearGradient4356"
       gradientUnits="userSpaceOnUse"
       gradientTransform="matrix(1.0059,0,0,0.99417,0,12)"
       x1="45.448"
       y1="80.472"
       x2="45.448"
       y2="5.2972" />
    <linearGradient
       inkscape:collect="always"
       xlink:href="#linearGradient3613-3"
       id="linearGradient4395"
       gradientUnits="userSpaceOnUse"
       x1="48"
       y1="20.221"
       x2="48"
       y2="138.66" />
    <linearGradient
       inkscape:collect="always"
       xlink:href="#linearGradient4640"
       id="linearGradient4397"
       gradientUnits="userSpaceOnUse"
       x1="93.008"
       y1="48.005"
       x2="6.1872"
       y2="48.005" />
    <linearGradient
       inkscape:collect="always"
       xlink:href="#linearGradient3613-3"
       id="linearGradient4399"
       gradientUnits="userSpaceOnUse"
       x1="48"
       y1="20.221"
       x2="48"
       y2="138.66" />
    <linearGradient
       inkscape:collect="always"
       xlink:href="#linearGradient5696"
       id="linearGradient4401"
       gradientUnits="userSpaceOnUse"
       x1="48.022"
       y1="22.933"
       x2="48.022"
       y2="81.481" />
    <linearGradient
       inkscape:collect="always"
       xlink:href="#linearGradient3664"
       id="linearGradient4403"
       gradientUnits="userSpaceOnUse"
       gradientTransform="matrix(1.0059,0,0,0.99417,0,12)"
       x1="45.448"
       y1="80.472"
       x2="45.448"
       y2="5.2972" />
    <linearGradient
       inkscape:collect="always"
       xlink:href="#linearGradient3664"
       id="linearGradient4405"
       gradientUnits="userSpaceOnUse"
       gradientTransform="matrix(1.0059,0,0,0.99417,0,12)"
       x1="45.448"
       y1="80.472"
       x2="45.448"
       y2="5.2972" />
    <linearGradient
       inkscape:collect="always"
       xlink:href="#linearGradient3699-40"
       id="linearGradient4448"
       x1="24"
       y1="54.633999"
       x2="72.000198"
       y2="54.633999"
       gradientUnits="userSpaceOnUse" />
  </defs>
  <metadata
     id="metadata7">
    <rdf:RDF>
      <cc:Work
         rdf:about="">
        <dc:format>image/svg+xml</dc:format>
        <dc:type
           rdf:resource="http://purl.org/dc/dcmitype/StillImage" />
        <dc:title />
      </cc:Work>
    </rdf:RDF>
  </metadata>
  <rect
     style="fill-opacity:0.01960802"
     x="2.9998"
     y="2.9899757"
     width="89.977997"
     height="89.977997"
     ry="12.724"
     id="rect5263-0" />
  <rect
     style="fill-opacity:0.03921599"
     x="3.6078"
     y="3.6000221"
     width="88.762001"
     height="88.762001"
     ry="12.552"
     id="rect5261-6" />
  <rect
     style="fill-opacity:0.07843101"
     x="4.2157001"
     y="4.2100072"
     width="87.545998"
     height="87.545998"
     ry="12.38"
     id="rect5259-9" />
  <rect
     style="fill-opacity:0.15685999"
     x="4.8237"
     y="4.8199925"
     width="86.330002"
     height="86.330002"
     ry="12.208"
     id="rect5257-5" />
  <path
     style="fill:#cc993d"
     inkscape:connector-curvature="0"
     d="M 17.469,5.41 C 11.2178,5.41 6.114,10.1668 5.5,16.254 l 0,63.469 c 0.61364,6.0834 5.7175,10.812 11.969,10.812 l 61.031,0 c 6.4543,0 11.671,-5.0367 12,-11.406 l 0,-62.281 C 90.17883,10.4709 84.9596,5.41 78.5,5.41 l -61.031,0 z"
     id="rect2419-5" />
  <rect
     style="opacity:0.05;fill:url(#linearGradient4395);stroke:#ffffff;stroke-width:0.5;stroke-linecap:round;filter:url(#filter3794-0)"
     x="15"
     y="15"
     height="66"
     clip-path="url(#clipPath3613-29)"
     width="66"
     transform="matrix(1.0149,0,0,1.0238,-0.83801,-1.14)"
     rx="12"
     ry="12"
     id="rect3171" />
  <path
     inkscape:connector-curvature="0"
     style="fill:url(#linearGradient4397)"
     d="M 17.469,5.41 C 11.2178,5.41 6.114,10.1668 5.5,16.254 l 0,63.469 C 5.57233,80.44 5.71463,81.1428 5.90625,81.8167 5.7595,80.4872 5.6372,79.1202 5.5625,77.723 l 0,-59.281 c 0,-2.3816 0.62452,-7.4626 6.625,-7.4688 l 12.75,0 c 4.9632,0 7.6402,-1.0079 10.125,3.7188 3.0657,4.2041 4.006,4.8869 9.5625,4.2812 l 40.656,0 c 3.7739,-0.0442 5.1676,1.5874 5.2188,5.4375 l 0,-7.5625 c -0.32117,-6.3771 -5.5404,-11.438 -12,-11.438 l -61.031,0 z M 90.5,75.14 c -0.04406,2.2078 -0.18649,4.3503 -0.40625,6.4063 0.21124,-0.7976 0.36211,-1.6143 0.40625,-2.4688 l 0,-3.9375 z m -1.0625,8.2813 c -0.13416,0.2981 -0.28057,0.5904 -0.4375,0.875 0.1575,-0.2841 0.30285,-0.5773 0.4375,-0.875 z m -0.438,0.9 c -0.15693,0.2845 -0.32144,0.5427 -0.5,0.8125 0.17482,-0.2638 0.34595,-0.5347 0.5,-0.8125 z m -81.906,0.25 c 0.15696,0.2676 0.32348,0.5274 0.5,0.7812 -0.1807,-0.2598 -0.33982,-0.5069 -0.5,-0.7812 z m 76.188,4.9375 c -0.26128,0.1134 -0.54176,0.2175 -0.8125,0.3125 0.27423,-0.096 0.5479,-0.198 0.8125,-0.3125 z m -69.625,0.375 c 0.2786,0.093 0.55637,0.1773 0.84375,0.25 -0.28437,-0.072 -0.56799,-0.1586 -0.84375,-0.25 z m 67.625,0.2812 c -0.24437,0.058 -0.4999,0.1135 -0.75,0.1563 0.25388,-0.043 0.50195,-0.097 0.75,-0.1563 z"
     id="path5865" />
  <g
     transform="matrix(1.0168,0,0,1.021,-0.61038,-0.85)"
     id="layer5">
    <rect
       style="opacity:0.1;fill:url(#linearGradient4399);stroke:#ffffff;stroke-width:0.5;stroke-linecap:round;filter:url(#filter3794-6)"
       x="15"
       y="15"
       clip-path="url(#clipPath3613-25)"
       width="66"
       ry="12"
       rx="12"
       height="66"
       id="rect3171-4" />
  </g>
  <path
     style="opacity:0.55019998;fill:#f9f9f9"
     inkscape:connector-curvature="0"
     d="m 28.25,9.95 c -0.98771,0.0223 -2.0717,0.10149 -3.3125,0.10149 l -12.75,0 c -6.0005,0.007 -6.625,6.3566 -6.625,8.9362 l 0,0.81233 c 0,-2.5796 0.62452,-8.0829 6.625,-8.0895 l 12.75,0 c 4.9632,0 7.7652,-0.96667 10.125,3.3403 3.0657,4.5536 4.006,5.293 9.5625,4.6371 l 40.656,0 c 3.7739,-0.0479 5.1676,1.7193 5.2188,5.8894 l 0,-0.81234 c -0.05112,-4.1701 -1.4448,-5.9373 -5.2188,-5.8894 l -40.656,0 c -5.5565,0.65596 -6.4968,-0.0835 -9.5625,-4.6371 -1.8636,-3.8396 -3.8494,-4.3555 -6.8125,-4.2885 z"
     id="path7506" />
  <rect
     style="opacity:0"
     x="5.5654998"
     y="16.970016"
     width="84.972"
     height="1"
     id="rect3634" />
  <path
     style="opacity:0.20482004;fill:#ffffff;fill-opacity:0.58962001"
     inkscape:connector-curvature="0"
     d="m 35.742,12.44 c 0.0231,0.043 0.0394,0.081 0.0625,0.125 0.034,0.047 0.0603,0.079 0.0937,0.125 l 45.625,0 c 2.0566,0 3.7188,1.6621 3.7188,3.7187 l 0,-0.25 c 0,-2.0566 -1.6621,-3.7187 -3.7188,-3.7187 l -45.781,0 z"
     id="path7563" />
  <path
     style="opacity:0.51807;fill:#ffffff;fill-opacity:0.58962001"
     inkscape:connector-curvature="0"
     d="m 35.742,12.69 c 0.0231,0.043 0.0394,0.081 0.0625,0.125 0.0241,0.033 0.0386,0.061 0.0625,0.094 l 45.656,0 c 2.0566,0 3.7188,1.6621 3.7188,3.7187 l 0,-0.2187 c 0,-2.0566 -1.6621,-3.7188 -3.7188,-3.7188 l -45.781,10e-5 z"
     id="path7516" />
  <path
     style="opacity:0.74699001;fill:#ffffff;fill-opacity:0.58962001"
     inkscape:connector-curvature="0"
     d="m 35.742,12.91 c 0.0231,0.043 0.0394,0.081 0.0625,0.125 0.0335,0.046 0.0607,0.08 0.0937,0.125 l 45.625,0 c 0.25708,0 0.50773,0.013 0.75,0.063 0.24227,0.049 0.46498,0.1248 0.6875,0.2188 0.23229,0.096 0.45057,0.2049 0.65625,0.3437 0.2043,0.138 0.35868,0.294 0.53125,0.4688 0.32871,0.3328 0.62762,0.7185 0.8125,1.1562 0.004,0.01 -0.004,0.023 0,0.031 0.18093,0.4379 0.28125,0.9336 0.28125,1.4375 l 0,-0.25 c 0,-2.0566 -1.6621,-3.7187 -3.7188,-3.7187 l -45.781,0 z"
     id="path7514" />
  <path
     style="fill:#ffffff;fill-opacity:0.83019002"
     inkscape:connector-curvature="0"
     d="m 35.751,13.14 c 0.0231,0.043 0.0394,0.081 0.0625,0.125 3.0657,4.2041 4.006,4.8869 9.5625,4.2813 l 39.875,0 0,-0.6875 c 0,-2.0567 -1.6621,-3.7188 -3.7188,-3.7188 l -45.781,0 z"
     id="rect7493" />
  <g
     transform="matrix(0.94641,0,0,0.84994,2.9331,8.58)"
     id="g5676">
    <path
       inkscape:connector-curvature="0"
       style="opacity:0.15;fill:url(#linearGradient4401);filter:url(#filter3870)"
       clip-path="url(#clipPath3860)"
       d="m 15.969,22.531 c -2.8459,0.0043 -5.4332,2.5916 -5.4375,5.4375 l 0,48.062 c 0.0043,2.8459 2.5916,5.4332 5.4375,5.4375 l 64.062,0 c 2.8459,-0.0043 5.4332,-2.5916 5.4375,-5.4375 l 0,-48.062 C 85.4642,25.1226 82.8769,22.5353 80.031,22.531 Z"
       id="path5678" />
  </g>
  <path
     style="fill-opacity:0.11764999"
     inkscape:connector-curvature="0"
     d="m 5.3323,73.54 0,5.0663 c 0,6.668 5.3645,12.032 12.032,12.032 l 61.049,0 c 6.668,0 12.032,-5.3645 12.032,-12.032 l 0,-5.0663 c 0,6.6681 -5.3645,12.032 -12.032,12.032 l -61.049,0 c -6.668,0 -12.032,-5.3643 -12.032,-12.032 z"
     id="rect5265-0" />
  <path
     style="fill-opacity:0.09803898"
     inkscape:connector-curvature="0"
     d="m 5.3323,77.54 0,1.0133 c 0,6.668 5.3645,12.032 12.032,12.032 l 61.049,0 c 6.668,0 12.032,-5.3645 12.032,-12.032 l 0,-1.0133 c 0,6.6681 -5.3645,12.032 -12.032,12.032 l -61.049,0 c -6.668,0 -12.032,-5.3644 -12.032,-12.032 z"
     id="path5252-0" />
  <g
     style="display:none"
     transform="translate(-174.5,-44.89)"
     display="none"
     id="layer2">
    <path
       inkscape:connector-curvature="0"
       style="opacity:0.9;fill:url(#linearGradient4403);filter:url(#filter3174)"
       d="M 14.969,8.8029 C 13.329,8.8029 12,10.085 12,11.678 L 12,19 c -3.324,0 -7,2.676 -7,6 l 0,61 c 0,3.324 2.676,6 6,6 l 74,0 c 3.324,0 6,-2.676 6,-6 l 0,-61 c 0,-3.324 -3.7474,-6 -7.0714,-6 l 0,-0.13461 c 0,-2.3891 -1.9777,-4.3125 -4.4375,-4.3125 l -43.335,0 -1.4688,-2.875 c -0.734,-1.424 -1.329,-2.8741 -2.969,-2.8741 l -16.75,0 z"
       id="rect3745" />
  </g>
  <g
     style="display:none"
     transform="translate(-107.42,-78.2)"
     display="none"
     id="layer2-2">
    <path
       inkscape:connector-curvature="0"
       style="opacity:0.9;fill:url(#linearGradient4405);filter:url(#filter3174-5)"
       d="M 14.969,8.8029 C 13.329,8.8029 12,10.085 12,11.678 L 12,19 c -3.324,0 -7,2.676 -7,6 l 0,61 c 0,3.324 2.676,6 6,6 l 74,0 c 3.324,0 6,-2.676 6,-6 l 0,-61 c 0,-3.324 -3.7474,-6 -7.0714,-6 l 0,-0.13461 c 0,-2.3891 -1.9777,-4.3125 -4.4375,-4.3125 l -43.335,0 -1.4688,-2.875 c -0.734,-1.424 -1.329,-2.8741 -2.969,-2.8741 l -16.75,0 z"
       id="rect3745-0" />
  </g>
  <g
     style="display:none"
     id="g4326"
     display="none"
     transform="translate(-263.17797,42.56763)">
    <path
       inkscape:connector-curvature="0"
       style="opacity:0.9;fill:url(#linearGradient4354);filter:url(#filter3174)"
       id="path4328"
       d="M 14.969,8.8029 C 13.329,8.8029 12,10.085 12,11.678 L 12,19 c -3.324,0 -7,2.676 -7,6 l 0,61 c 0,3.324 2.676,6 6,6 l 74,0 c 3.324,0 6,-2.676 6,-6 l 0,-61 c 0,-3.324 -3.7474,-6 -7.0714,-6 l 0,-0.13461 c 0,-2.3891 -1.9777,-4.3125 -4.4375,-4.3125 l -43.335,0 -1.4688,-2.875 c -0.734,-1.424 -1.329,-2.8741 -2.969,-2.8741 l -16.75,0 z" />
  </g>
  <g
     style="display:none"
     id="g4330"
     display="none"
     transform="translate(-196.09797,9.25763)">
    <path
       inkscape:connector-curvature="0"
       style="opacity:0.9;fill:url(#linearGradient4356);filter:url(#filter3174-5)"
       id="path4332"
       d="M 14.969,8.8029 C 13.329,8.8029 12,10.085 12,11.678 L 12,19 c -3.324,0 -7,2.676 -7,6 l 0,61 c 0,3.324 2.676,6 6,6 l 74,0 c 3.324,0 6,-2.676 6,-6 l 0,-61 c 0,-3.324 -3.7474,-6 -7.0714,-6 l 0,-0.13461 c 0,-2.3891 -1.9777,-4.3125 -4.4375,-4.3125 l -43.335,0 -1.4688,-2.875 c -0.734,-1.424 -1.329,-2.8741 -2.969,-2.8741 l -16.75,0 z" />
  </g>
  <path
     inkscape:connector-curvature="0"
     id="path3678"
     style="opacity:0.3;fill:none;stroke:#ffffff;stroke-width:1.5;filter:url(#filter3694)"
     clip-path="url(#clipPath3690)"
     transform="matrix(0.92067232,0,0,0.92067232,-51.596885,1.4835585)"
     d="m 108,33.768 -24,24.084 5.9201,0 0,18.648 36.201,0 0,-18.732 5.8792,0 -10.537,-10.62 0,-8.1115 -5.3519,0 0,2.8432 -8.11,-8.111 z" />
  <path
     inkscape:connector-curvature="0"
     id="path3347"
     style="opacity:0.45;fill:url(#linearGradient3066);fill-opacity:1"
     d="m 47.835726,32.112482 -22.096139,22.173473 5.450473,0 0,17.168697 33.329261,0 0,-17.246034 5.412725,0 -9.701125,-9.77754 0,-7.468033 -4.927346,0 0,2.617655 -7.467573,-7.467573 z" />
  <path
     transform="matrix(0.92067232,0,0,0.92067232,3.6434534,1.4835585)"
     inkscape:connector-curvature="0"
     id="path3664"
     style="opacity:0.35;fill:url(#linearGradient4448);fill-opacity:1.0;stroke:#000000;stroke-opacity:0.33333333;filter:url(#filter3674)"
     clip-path="url(#clipPath3668)"
     d="m 48,33.768 -24,24.084 5.9201,0 0,18.648 36.201,0 0,-18.732 5.8791,0 -10.537,-10.62 0,-8.1115 -5.3519,0 0,2.8432 -8.111,-8.111 z" />
</svg>
