<?xml version="1.0" encoding="UTF-8" standalone="no"?>
<!-- Created with Inkscape (http://www.inkscape.org/) -->
<svg id="svg2" xmlns:rdf="http://www.w3.org/1999/02/22-rdf-syntax-ns#" xmlns="http://www.w3.org/2000/svg" height="96" width="96" version="1.1" xmlns:cc="http://creativecommons.org/ns#" xmlns:xlink="http://www.w3.org/1999/xlink" xmlns:dc="http://purl.org/dc/elements/1.1/">
 <defs id="defs4">
  <linearGradient id="linearGradient2862-8" y2="138.66" gradientUnits="userSpaceOnUse" x2="48" y1="20.221" x1="48">
   <stop id="stop3739-1-6" stop-color="#fff" offset="0"/>
   <stop id="stop3741-5-1" stop-color="#fff" stop-opacity="0" offset="1"/>
  </linearGradient>
  <clipPath id="clipPath3613-8">
   <rect id="rect3615-2" rx="6" ry="6" height="84" width="84" y="6" x="6" fill="#fff"/>
  </clipPath>
  <filter id="filter3794-9" height="1.384" width="1.384" color-interpolation-filters="sRGB" y="-.192" x="-.192">
   <feGaussianBlur id="feGaussianBlur3796-4" stdDeviation="5.28"/>
  </filter>
  <clipPath id="clipPath3613-3">
   <rect id="rect3615-3" rx="6" ry="6" height="84" width="84" y="6" x="6" fill="#fff"/>
  </clipPath>
  <filter id="filter3794-4" height="1.384" width="1.384" color-interpolation-filters="sRGB" y="-.192" x="-.192">
   <feGaussianBlur id="feGaussianBlur3796-24" stdDeviation="5.28"/>
  </filter>
  <linearGradient id="linearGradient19375" y2="970.99" gradientUnits="userSpaceOnUse" x2="47.995" y1="1028.7" x1="47.995">
   <stop id="stop19371" stop-color="#ccc" offset="0"/>
   <stop id="stop19373" stop-color="#ebeef2" offset="1"/>
  </linearGradient>
 </defs>
 <metadata id="metadata7">
  <rdf:RDF>
   <cc:Work rdf:about="">
    <dc:format>image/svg+xml</dc:format>
    <dc:type rdf:resource="http://purl.org/dc/dcmitype/StillImage"/>
    <dc:title/>
   </cc:Work>
  </rdf:RDF>
 </metadata>
 <g id="layer1" transform="translate(0 -956.36)">
  <rect id="rect5263-0" fill-opacity=".019608" ry="12.724" height="89.978" width="89.978" y="959.35" x="2.9998"/>
  <rect id="rect5261-6" fill-opacity=".039216" ry="12.552" height="88.762" width="88.762" y="959.96" x="3.6078"/>
  <rect id="rect5259-9" fill-opacity=".078431" ry="12.38" height="87.546" width="87.546" y="960.57" x="4.2157"/>
  <rect id="rect5257-5" fill-opacity=".15686" ry="12.208" height="86.33" width="86.33" y="961.18" x="4.8237"/>
  <path id="rect2419-1" d="m17.469 5.4062c-6.668 0-12.032 5.3948-12.032 12.063l0.0005 61.031c0 6.668 5.3635 12.031 12.032 12.031h61.03c6.668 0 12.031-5.363 12.031-12.031v-61.031c0-6.668-5.363-12.063-12.031-12.063l-61.031 0.0002z" transform="translate(0 956.36)" fill="#808080"/>
  <path id="rect5265-0" d="m5.4316 1029.8v5.0663c0 6.668 5.3645 12.032 12.032 12.032h61.049c6.668 0 12.032-5.3645 12.032-12.032v-5.0663c0 6.6681-5.3645 12.032-12.032 12.032h-61.049c-6.668 0-12.032-5.3643-12.032-12.032z" fill-opacity=".2"/>
  <path id="path5252-0" d="m5.4316 1033.9v1.0133c0 6.668 5.3645 12.032 12.032 12.032h61.049c6.668 0 12.032-5.3645 12.032-12.032v-1.0133c0 6.6681-5.3645 12.032-12.032 12.032h-61.049c-6.668 0-12.032-5.3644-12.032-12.032z" fill-opacity=".098039"/>
  <g id="layer5" transform="translate(-1.029e-7 953.86)">
   <rect id="rect3171" height="66" stroke="#fff" stroke-linecap="round" stroke-width=".5" fill="url(#linearGradient2862-8)" rx="12" ry="12" width="66" opacity=".2" clip-path="url(#clipPath3613-8)" filter="url(#filter3794-9)" y="15" x="15"/>
  </g>
  <g id="layer5-1" transform="matrix(1.0295 0 0 1.0295 -1.1542 954.69)">
   <rect id="rect3171-1" height="66" stroke="#fff" stroke-linecap="round" stroke-width=".5" fill="url(#linearGradient2862-8)" rx="12" ry="12" width="66" opacity=".1" clip-path="url(#clipPath3613-3)" filter="url(#filter3794-4)" y="15" x="15"/>
  </g>
  <path id="rect3267" d="m44.271 977.18c-1.0823 0-1.9375 0.89924-1.9375 2v3.875c-1.9352 0.5156-3.777 1.2973-5.4688 2.2812l-2.7812-2.75c-0.38918-0.38918-0.84012-0.62073-1.3438-0.625-0.50364-0.004-1.0236 0.17987-1.4062 0.5625l-5.4062 5.4063c-0.76527 0.7653-0.71577 1.9716 0.0625 2.75l2.75 2.7812c-0.98394 1.6918-1.7656 3.5336-2.2812 5.4688h-3.875c-1.1008 0-2 0.85515-2 1.9374v7.6251c0 1.0823 0.89924 1.9375 2 1.9375h3.875c0.51561 1.9352 1.2973 3.777 2.2812 5.4688l-2.75 2.7812c-0.77835 0.7784-0.82785 1.9848-0.0625 2.7501l5.4062 5.4062c0.76526 0.7653 1.9716 0.7158 2.75-0.063l2.7812-2.75c1.6918 0.9839 3.5336 1.7657 5.4688 2.2813v3.875c0 1.1007 0.85524 2 1.9375 2h7.625c1.0822 0 1.9375-0.8993 1.9375-2v-3.875c1.9351-0.5156 3.7769-1.2974 5.4688-2.2813l2.7812 2.75c0.77835 0.7784 1.9847 0.8278 2.75 0.063l5.4062-5.4062c0.76526-0.7653 0.71576-1.9717-0.0625-2.7501l-2.75-2.7812c0.98393-1.6918 1.7656-3.5336 2.2812-5.4688h3.875c1.1007 0 2-0.8552 2-1.9375v-7.6251c0-1.0822-0.89926-1.9374-2-1.9374h-3.875c-0.5156-1.9352-1.2973-3.777-2.2812-5.4688l2.75-2.7812c0.77835-0.7784 0.82785-1.9847 0.0625-2.75l-5.4062-5.4063c-0.76528-0.76527-1.9716-0.71585-2.75 0.0625l-2.7812 2.75c-1.6918-0.98394-3.5336-1.7656-5.4688-2.2812v-3.875c0-1.1008-0.85525-2-1.9375-2h-7.625zm3.8125 13.5c7.732 0 14 6.268 14 14 0 7.7321-6.268 14-14 14s-14-6.268-14-14c0-7.7319 6.268-14 14-14z" display="block" fill="#666"/>
  <path id="path19367" d="m44.271 974.24c-1.0823 0-1.9375 0.89924-1.9375 2v3.875c-1.9352 0.5156-3.777 1.2973-5.4688 2.2812l-2.7812-2.75c-0.38918-0.38918-0.84012-0.62073-1.3438-0.625-0.50364-0.004-1.0236 0.17987-1.4062 0.5625l-5.4062 5.4063c-0.76527 0.7653-0.71577 1.9716 0.0625 2.75l2.75 2.7812c-0.98394 1.6918-1.7656 3.5336-2.2812 5.4688h-3.875c-1.1008 0-2 0.8552-2 1.9375v7.6252c0 1.0823 0.89924 1.9375 2 1.9375h3.875c0.51561 1.9352 1.2973 3.777 2.2812 5.4688l-2.75 2.7812c-0.77835 0.7784-0.82785 1.9848-0.0625 2.7501l5.4062 5.4062c0.76526 0.7653 1.9716 0.7158 2.75-0.063l2.7812-2.75c1.6918 0.9839 3.5336 1.7657 5.4688 2.2813v3.875c0 1.1007 0.85524 2 1.9375 2h7.625c1.0822 0 1.9375-0.8993 1.9375-2v-3.875c1.9351-0.5156 3.7769-1.2974 5.4688-2.2813l2.7812 2.75c0.77835 0.7784 1.9847 0.8278 2.75 0.063l5.4062-5.4062c0.76526-0.7653 0.71576-1.9717-0.0625-2.7501l-2.75-2.7812c0.98393-1.6918 1.7656-3.5336 2.2812-5.4688h3.875c1.1007 0 2-0.8552 2-1.9375v-7.6252c0-1.0823-0.89926-1.9375-2-1.9375h-3.875c-0.5156-1.9352-1.2973-3.777-2.2812-5.4688l2.75-2.7812c0.77835-0.7784 0.82785-1.9847 0.0625-2.75l-5.4062-5.4063c-0.76528-0.76527-1.9716-0.71585-2.75 0.0625l-2.7812 2.75c-1.6918-0.98394-3.5336-1.7656-5.4688-2.2812v-3.875c0-1.1008-0.85525-2-1.9375-2h-7.625zm3.8125 13.5c7.732 0 14 6.268 14 14 0 7.7321-6.268 14-14 14s-14-6.268-14-14 6.268-14 14-14z" display="block" fill="url(#linearGradient19375)"/>
 </g>
</svg>
