<?xml version="1.0" encoding="UTF-8" standalone="no"?>
<!-- Created with Inkscape (http://www.inkscape.org/) -->
<svg id="svg2" xmlns:rdf="http://www.w3.org/1999/02/22-rdf-syntax-ns#" xmlns="http://www.w3.org/2000/svg" height="96" width="96" version="1.1" xmlns:cc="http://creativecommons.org/ns#" xmlns:xlink="http://www.w3.org/1999/xlink" xmlns:dc="http://purl.org/dc/elements/1.1/">
 <defs id="defs4">
  <linearGradient id="linearGradient3613-3" y2="138.66" gradientUnits="userSpaceOnUse" x2="48" y1="20.221" x1="48">
   <stop id="stop3739-10" stop-color="#fff" offset="0"/>
   <stop id="stop3741-2" stop-color="#fff" stop-opacity="0" offset="1"/>
  </linearGradient>
  <clipPath id="clipPath3613-29">
   <rect id="rect3615-1" rx="6" ry="6" height="84" width="84" y="6" x="6" fill="#fff"/>
  </clipPath>
  <filter id="filter3794-0" height="1.384" width="1.384" color-interpolation-filters="sRGB" y="-.192" x="-.192">
   <feGaussianBlur id="feGaussianBlur3796-8" stdDeviation="5.28"/>
  </filter>
  <clipPath id="clipPath3613-25">
   <rect id="rect3615-14" rx="6" ry="6" height="84" width="84" y="6" x="6" fill="#fff"/>
  </clipPath>
  <filter id="filter3794-6" height="1.384" width="1.384" color-interpolation-filters="sRGB" y="-.192" x="-.192">
   <feGaussianBlur id="feGaussianBlur3796-26" stdDeviation="5.28"/>
  </filter>
  <linearGradient id="linearGradient4640" y2="48.005" gradientUnits="userSpaceOnUse" x2="6.1872" gradientTransform="translate(0 956.36)" y1="48.005" x1="93.008">
   <stop id="stop4636" stop-color="#be8e4a" stop-opacity=".076923" offset="0"/>
   <stop id="stop4638" stop-color="#a67c25" offset="1"/>
  </linearGradient>
  <linearGradient id="linearGradient4154-6" y2="30.013" gradientUnits="userSpaceOnUse" x2="-15.63" gradientTransform="matrix(1.9955 0 0 1.9955 95.191 14.107)" y1="14.381" x1="-26.434">
   <stop id="stop6701-7-4" stop-color="#f7a164" offset="0"/>
   <stop id="stop6295-7" stop-color="#e11c26" offset="1"/>
  </linearGradient>
  <linearGradient id="linearGradient4156-8" y2="30.07" gradientUnits="userSpaceOnUse" x2="-8.7596" gradientTransform="matrix(1.9955 0 0 1.9955 95.191 14.107)" y1="21.995" x1="-19.536">
   <stop id="stop6713-9-9" stop-color="#8badea" offset="0"/>
   <stop id="stop6715-2-7" stop-color="#3b7caf" offset="1"/>
  </linearGradient>
  <linearGradient id="linearGradient4158-5" y2="25.015" gradientUnits="userSpaceOnUse" x2="-20.822" gradientTransform="matrix(1.9955 0 0 1.9955 95.191 14.107)" y1="30.828" x1="-17.863">
   <stop id="stop6721-4-8" stop-color="#8cab2a" offset="0"/>
   <stop id="stop6723-4-4" stop-color="#d7e866" offset="1"/>
  </linearGradient>
  <linearGradient id="linearGradient3672-4" y2="18.75" gradientUnits="userSpaceOnUse" y1="29" x2="-19.5" x1="-20.75">
   <stop id="stop6689-7-8" stop-color="#fff" offset="0"/>
   <stop id="stop6691-6-6" stop-color="#fff" stop-opacity="0" offset="1"/>
  </linearGradient>
 </defs>
 <metadata id="metadata7">
  <rdf:RDF>
   <cc:Work rdf:about="">
    <dc:format>image/svg+xml</dc:format>
    <dc:type rdf:resource="http://purl.org/dc/dcmitype/StillImage"/>
    <dc:title/>
   </cc:Work>
  </rdf:RDF>
 </metadata>
 <g id="layer1" transform="translate(0 -956.36)">
  <rect id="rect5263-0" fill-opacity=".019608" ry="12.724" height="89.978" width="89.978" y="959.35" x="2.9998"/>
  <rect id="rect5261-6" fill-opacity=".039216" ry="12.552" height="88.762" width="88.762" y="959.96" x="3.6078"/>
  <rect id="rect5259-9" fill-opacity=".078431" ry="12.38" height="87.546" width="87.546" y="960.57" x="4.2157"/>
  <rect id="rect5257-5" fill-opacity=".15686" ry="12.208" height="86.33" width="86.33" y="961.18" x="4.8237"/>
  <path id="rect2419-5" d="m17.469 961.77c-6.2512 0-11.355 4.7568-11.969 10.844v63.469c0.61364 6.0834 5.7175 10.812 11.969 10.812h61.031c6.4543 0 11.671-5.0367 12-11.406v-62.281c-0.32117-6.3771-5.5404-11.438-12-11.438h-61.031z" fill="#cc993d"/>
  <rect id="rect3171" ry="12" stroke="#fff" stroke-linecap="round" stroke-width=".5" fill="url(#linearGradient3613-3)" rx="12" transform="matrix(1.0149 0 0 1.0238 -.83801 955.22)" width="66" opacity=".05" clip-path="url(#clipPath3613-29)" height="66" filter="url(#filter3794-0)" y="15" x="15"/>
  <path id="path5865" d="m17.469 961.77c-6.2512 0-11.355 4.7568-11.969 10.844v63.469c0.07233 0.717 0.21463 1.4198 0.40625 2.0937-0.14675-1.3295-0.26905-2.6965-0.34375-4.0937v-59.281c0-2.3816 0.62452-7.4626 6.625-7.4688h12.75c4.9632 0 7.6402-1.0079 10.125 3.7188 3.0657 4.2041 4.006 4.8869 9.5625 4.2812h40.656c3.7739-0.0442 5.1676 1.5874 5.2188 5.4375v-7.5625c-0.32117-6.3771-5.5404-11.438-12-11.438h-61.031zm73.031 69.73c-0.04406 2.2078-0.18649 4.3503-0.40625 6.4063 0.21124-0.7976 0.36211-1.6143 0.40625-2.4688v-3.9375zm-1.0625 8.2813c-0.13416 0.2981-0.28057 0.5904-0.4375 0.875 0.1575-0.2841 0.30285-0.5773 0.4375-0.875zm-0.438 0.9c-0.15693 0.2845-0.32144 0.5427-0.5 0.8125 0.17482-0.2638 0.34595-0.5347 0.5-0.8125zm-81.906 0.25c0.15696 0.2676 0.32348 0.5274 0.5 0.7812-0.1807-0.2598-0.33982-0.5069-0.5-0.7812zm76.188 4.9375c-0.26128 0.1134-0.54176 0.2175-0.8125 0.3125 0.27423-0.096 0.5479-0.198 0.8125-0.3125zm-69.625 0.375c0.2786 0.093 0.55637 0.1773 0.84375 0.25-0.28437-0.072-0.56799-0.1586-0.84375-0.25zm67.625 0.2812c-0.24437 0.058-0.4999 0.1135-0.75 0.1563 0.25388-0.043 0.50195-0.097 0.75-0.1563z" fill="url(#linearGradient4640)"/>
  <g id="layer5" transform="matrix(1.0168 0 0 1.021 -.61038 955.51)">
   <rect id="rect3171-4" height="66" stroke="#fff" stroke-linecap="round" stroke-width=".5" fill="url(#linearGradient3613-3)" rx="12" ry="12" width="66" opacity=".1" clip-path="url(#clipPath3613-25)" filter="url(#filter3794-6)" y="15" x="15"/>
  </g>
  <path id="path7506" opacity=".55020" d="m28.25 966.31c-0.98771 0.0223-2.0717 0.10149-3.3125 0.10149h-12.75c-6.0005 0.007-6.625 6.3566-6.625 8.9362v0.81233c0-2.5796 0.62452-8.0829 6.625-8.0895h12.75c4.9632 0 7.7652-0.96667 10.125 3.3403 3.0657 4.5536 4.006 5.293 9.5625 4.6371h40.656c3.7739-0.0479 5.1676 1.7193 5.2188 5.8894v-0.81234c-0.05112-4.1701-1.4448-5.9373-5.2188-5.8894h-40.656c-5.5565 0.65596-6.4968-0.0835-9.5625-4.6371-1.8636-3.8396-3.8494-4.3555-6.8125-4.2885z" fill="#f9f9f9"/>
  <rect id="rect3634" opacity="0" height="1" width="84.972" y="973.33" x="5.5655"/>
  <path id="path7563" opacity=".20482" d="m35.742 968.8c0.0231 0.043 0.0394 0.081 0.0625 0.125 0.034 0.047 0.0603 0.079 0.0937 0.125h45.625c2.0566 0 3.7188 1.6621 3.7188 3.7187v-0.25c0-2.0566-1.6621-3.7187-3.7188-3.7187h-45.781z" fill-opacity=".58962" fill="#fff"/>
  <path id="path7516" opacity=".51807" d="m35.742 969.05c0.0231 0.043 0.0394 0.081 0.0625 0.125 0.0241 0.033 0.0386 0.061 0.0625 0.094h45.656c2.0566 0 3.7188 1.6621 3.7188 3.7187v-0.2187c0-2.0566-1.6621-3.7188-3.7188-3.7188l-45.781 0.0001z" fill-opacity=".58962" fill="#fff"/>
  <path id="path7514" opacity=".74699" d="m35.742 969.27c0.0231 0.043 0.0394 0.081 0.0625 0.125 0.0335 0.046 0.0607 0.08 0.0937 0.125h45.625c0.25708 0 0.50773 0.013 0.75 0.063 0.24227 0.049 0.46498 0.1248 0.6875 0.2188 0.23229 0.096 0.45057 0.2049 0.65625 0.3437 0.2043 0.138 0.35868 0.294 0.53125 0.4688 0.32871 0.3328 0.62762 0.7185 0.8125 1.1562 0.004 0.01-0.004 0.023 0 0.031 0.18093 0.4379 0.28125 0.9336 0.28125 1.4375v-0.25c0-2.0566-1.6621-3.7187-3.7188-3.7187h-45.781z" fill-opacity=".58962" fill="#fff"/>
  <path id="rect7493" fill-opacity=".83019" fill="#fff" d="m35.751 969.5c0.0231 0.043 0.0394 0.081 0.0625 0.125 3.0657 4.2041 4.006 4.8869 9.5625 4.2813h39.875v-0.6875c0-2.0567-1.6621-3.7188-3.7188-3.7188h-45.781z"/>
  <path id="rect5265-0" d="m5.3323 1029.9v5.0663c0 6.668 5.3645 12.032 12.032 12.032h61.049c6.668 0 12.032-5.3645 12.032-12.032v-5.0663c0 6.6681-5.3645 12.032-12.032 12.032h-61.049c-6.668 0-12.032-5.3643-12.032-12.032z" fill-opacity=".11765"/>
  <path id="path5252-0" d="m5.3323 1033.9v1.0133c0 6.668 5.3645 12.032 12.032 12.032h61.049c6.668 0 12.032-5.3645 12.032-12.032v-1.0133c0 6.6681-5.3645 12.032-12.032 12.032h-61.049c-6.668 0-12.032-5.3644-12.032-12.032z" fill-opacity=".098039"/>
  <g id="layer6" transform="matrix(1.1341 0 0 1.0746 -8.9694 945.67)">
   <path id="path4134" opacity="0.08" d="m64 50.938c-7.0005 0-13.373 1.8561-18.125 5-4.7563 3.1468-7.9688 7.7313-7.9688 12.969v4.125c0 4.5561 2.4359 8.6309 6.1875 11.656 3.5839 2.8901 8.459 4.8387 13.875 5.7188 0.04558 0.02528 0.09512 0.06319 0.09375 0.0625-0.0022-0.0011 0.15856 0.06342 0.15625 0.0625-0.0023-0.000922 0.15862 0.06323 0.15625 0.0625-0.0024-0.000725 0.18993 0.03177 0.1875 0.03125 3.9273 0.7684 9.6975 0.71965 14-0.625 0.03724-0.01164 0.08798 0.01184 0.125 0 0.03384-0.0059 0.0226 0.01003 0.0625 0 0.38446-0.09667 0.75922-0.19863 1.1562-0.3125 0.01186-0.0033 0.01987 0.0033 0.03125 0 0.10245-0.02949 0.18772-0.07119 0.25-0.09375 0.0346-0.01253 0.07731-0.0248 0.09375-0.03125 0.02947-0.0083 0.0675-0.02302 0.09375-0.03125 0.0525-0.01647 0.09228-0.0188 0.1875-0.0625 0.33683-0.10302 0.6611-0.22783 1-0.34375a1.0935 1.0935 0 0 0 0.09375 -0.03125c0.032-0.012 0.062-0.022 0.094-0.033a1.0935 1.0935 0 0 0 0.03125 0c0.16059-0.05553 0.29599-0.09667 0.375-0.125 0.37338-0.13405 0.73017-0.27767 1.125-0.4375 0.34163-0.13673 0.66219-0.27157 0.96875-0.40625 0.16346-0.07299 0.31298-0.12844 0.4375-0.1875 0.01826-0.0087 0.04527-0.02313 0.0625-0.03125 0.0036-0.0013 0.03116 0.000044 0.03125 0 0.4945-0.22829 0.97979-0.4887 1.4688-0.75a1.0935 1.0935 0 0 0 0.03125 0c0.05017-0.02736 0.0851-0.07047 0.125-0.09375 0.01773-0.01035 0.04567-0.021 0.0625-0.03125 2.8377-1.5489 5.353-3.5831 7.125-6.2188h0.03125c0.0043-0.0065-0.0043-0.02476 0-0.03125 0.2158-0.31666 0.38085-0.58227 0.5-0.78125a1.0935 1.0935 0 0 0 0 -0.03125c0.0067-0.01161 0.05248-0.04582 0.0625-0.0625a1.0935 1.0935 0 0 0 0.03125 -0.09375c0.04494-0.07483 0.09223-0.13279 0.15625-0.25 0.0089-0.01623-0.0078-0.01517 0-0.03125 0.16127-0.29329 0.32253-0.59085 0.46875-0.90625a1.0935 1.0935 0 0 0 0 -0.0625 1.0935 1.0935 0 0 0 0.03125 -0.0625c0.0035-0.0075-0.0035-0.02372 0-0.03125 0.0026-0.007-0.0027-0.02357 0-0.03125a1.0935 1.0935 0 0 0 0.031 -0.029c0.0033-0.01174-0.0032-0.0183 0-0.03125 0.0021-0.0083-0.002-0.0224 0-0.03125 0.0051-0.01093 0.02606-0.02022 0.03125-0.03125 0.16752-0.35585 0.34324-0.74176 0.5-1.2188-0.0027 0.0084 0.03117-0.08923 0.0625-0.1875 0.0089-0.02807-0.0061-0.03406 0-0.0625 0.0042-0.01375-0.0035-0.0172 0-0.03125 0.25386-0.83226 0.44787-1.7132 0.53125-2.625 0.0098-0.03676 0.02506-0.06247 0.03125-0.09375 0.01631-0.19725 0.01162-0.214 0-0.0625 0.0075-0.04796 0.02637-0.10606 0.03125-0.15625a1.0935 1.0935 0 0 0 0 -0.03125c-0.000092 0.002-0.000039-0.09874 0-0.15625v-0.0625-0.5625-4.125c0-5.2374-3.2126-9.822-7.9688-12.969-4.7518-3.1439-11.124-5-18.125-5zm24.75 26.5c0.02018 0.028 0.03146 0.06284 0.03125 0.0625-0.015-0.024-0.013-0.035-0.031-0.062z" transform="translate(-6,-5)"/>
   <path id="path4136" opacity=".15" d="m64 52.031c-6.8068 0-12.992 1.8093-17.531 4.8125-4.54 3.003-7.469 7.27-7.469 12.062v4.125c0 4.1676 2.2211 7.9415 5.7812 10.812 3.4662 2.7952 8.2621 4.7342 13.656 5.5625 0.01315 0.002 0.01809 0.02925 0.03125 0.03125a1.0049 1.0049 0 0 0 0.3125 0.125c3.7614 0.73594 9.5904 0.68157 13.625-0.625 0.01926-0.0048 0.04323 0.0048 0.0625 0 0.38126-0.09586 0.75847-0.1981 1.1562-0.3125 0.18426-0.0515 0.26721-0.08968 0.28125-0.09375 0.22904-0.06794 0.27555-0.0985 0.15625-0.0625 0.4385-0.12969 0.88258-0.27823 1.3438-0.4375a1.0049 1.0049 0 0 0 0.03125 0c0.13915-0.04812 0.24344-0.08903 0.34375-0.125 0.37837-0.13584 0.72951-0.2588 1.0938-0.40625 0.30618-0.12254 0.61976-0.26666 0.9375-0.40625 0.16792-0.07498 0.3266-0.15174 0.46875-0.21875 0.0082-0.0038 0.02303 0.0038 0.03125 0 0.47048-0.2172 0.96464-0.46606 1.4375-0.71875 0.24869-0.13563 0.23331-0.14801 0.125-0.09375 0.0077-0.0042 0.02353 0.0042 0.03125 0 2.7546-1.498 5.1571-3.4287 6.8125-5.9062 0.19959-0.29066 0.33871-0.53284 0.46875-0.75a1.0049 1.0049 0 0 0 0 -0.03125c0.05571-0.09597 0.13353-0.21897 0.21875-0.375 0.0054-0.0099-0.0055-0.02108 0-0.03125 0.15852-0.28828 0.31116-0.57123 0.4375-0.84375a1.0049 1.0049 0 0 0 0 -0.03125c0.0095-0.02126-0.008-0.01122 0-0.03125 0.0098-0.02191-0.0082-0.01072 0-0.03125 0.19521-0.42545 0.41124-0.85223 0.5625-1.3125 0.01041-0.03204 0.03769-0.1097 0.0625-0.1875 0.0038-0.01184-0.004-0.01838 0-0.03125 0.24733-0.80494 0.42842-1.6656 0.5-2.5312 0.0017-0.0206-0.0016-0.04187 0-0.0625 0.007-0.01 0.02-0.021 0.033-0.156a1.0049 1.0049 0 0 0 0 -0.09375v-0.625-4.125c0-4.791-2.93-9.059-7.469-12.062s-10.724-4.813-17.531-4.813z" transform="translate(-6,-5)"/>
   <path id="path4138" opacity=".3" d="m58 48.031c-13.254 0-24 7.1129-24 15.875v4.125c0 7.6206 8.1286 13.972 18.969 15.5v0.03125c3.5634 0.6972 9.437 0.63644 13.188-0.59375 0.40102-0.10085 0.79143-0.1986 1.1875-0.3125 0.0966-0.02699 0.18533-0.06595 0.28125-0.09375 0.0533-0.01582 0.10303-0.04644 0.15625-0.0625 0.44272-0.13094 0.88447-0.25842 1.3125-0.40625 0.1166-0.04032 0.22788-0.08345 0.34375-0.125 0.36522-0.13112 0.70904-0.26316 1.0625-0.40625 0.30508-0.1221 0.60783-0.2439 0.90625-0.375 0.15855-0.0708 0.31293-0.14554 0.46875-0.21875 0.47171-0.21757 0.95517-0.44645 1.4062-0.6875 0.0466-0.02542 0.0787-0.0681 0.125-0.09375 2.66-1.4432 4.9239-3.2817 6.4688-5.5938 0.16134-0.23497 0.29324-0.47783 0.4375-0.71875 0.0726-0.12506 0.15028-0.24747 0.21875-0.375 0.14597-0.26351 0.28115-0.54265 0.40625-0.8125 0.004-0.0087-0.004-0.02255 0-0.03125 0.18814-0.4083 0.36146-0.82846 0.5-1.25 0.0201-0.0618 0.0433-0.12521 0.0625-0.1875 0.23975-0.77445 0.40655-1.5639 0.46875-2.375 0.007-0.06419 0.025-0.12286 0.0313-0.1875v-0.625-4.125c0-8.7621-10.745-15.875-24-15.875z"/>
   <path id="path4140" d="m81.174 62.905c-2.751-6.758-12.08-11.734-23.173-11.734-11.094 0-20.422 4.976-23.173 11.734h-0.82774v4.1307c0 8.7608 10.747 15.862 24.001 15.862 13.255 0 23.999-7.101 23.999-15.862v-4.1307h-0.82646z" fill="#b82525"/>
   <path id="path4142" d="m82 62.905c0 8.762-10.744 15.863-23.999 15.863-13.256 0-24.001-7.101-24.001-15.863s10.747-15.863 24.001-15.863c13.255 0 23.999 7.101 23.999 15.863z" fill="url(#linearGradient4154-6)"/>
   <path id="path4144" d="m82 67.654-0.0307-4.3232c-2.6024 8.9815-8.4542 12.786-15.812 14.649v3.98c7.9635-2.0028 15.09-6.5628 15.842-14.306z" fill="#39619a"/>
   <path id="path4146" d="m82 62.905c-0.55 10.136-13.086 14.758-15.887 14.935l-8.1134-14.935h23.999 0.001z" fill="url(#linearGradient4156-8)"/>
   <path id="path4148" d="m52.977 82.551v-4.1294c4.5167 0.58818 8.6605 0.69182 13.136-0.42666l0.0448 3.9665c-3.7505 1.2302-9.6177 1.2881-13.181 0.59087v-0.0013z" fill="#70851f"/>
   <path id="path4150" d="m57.999 62.907 8.1134 14.933c-4.9677 1.8937-13.136 0.58145-13.136 0.58145l5.0228-15.515z" fill="url(#linearGradient4158-5)"/>
   <path id="path4152" opacity=".25" style="color:#000000" d="m-6.875 24.375a11.75 7.75 0 1 1 -23.5 0 11.75 7.75 0 1 1 23.5 0z" display="block" transform="matrix(2.0143 0 0 2.0159 95.54 13.61)" stroke="url(#linearGradient3672-4)" stroke-width=".49625" fill="none"/>
  </g>
 </g>
</svg>
