<?xml version="1.0" encoding="UTF-8" standalone="no"?>
<!-- Created with Inkscape (http://www.inkscape.org/) -->
<svg id="svg2" xmlns:rdf="http://www.w3.org/1999/02/22-rdf-syntax-ns#" xmlns="http://www.w3.org/2000/svg" height="96" width="96" version="1.1" xmlns:cc="http://creativecommons.org/ns#" xmlns:xlink="http://www.w3.org/1999/xlink" xmlns:dc="http://purl.org/dc/elements/1.1/">
 <defs id="defs4">
  <filter id="filter3503" height="1.0634" width="1.5008" color-interpolation-filters="sRGB" y="-.031692" x="-.25042">
   <feGaussianBlur id="feGaussianBlur3505" stdDeviation="1.236517"/>
  </filter>
  <filter id="filter3499" height="1.0712" width="1.4674" color-interpolation-filters="sRGB" y="-.035587" x="-.23372">
   <feGaussianBlur id="feGaussianBlur3501" stdDeviation="1.236517"/>
  </filter>
  <filter id="filter3513" height="1.0531" width="1.502" color-interpolation-filters="sRGB" y="-.026537" x="-0.251">
   <feGaussianBlur id="feGaussianBlur3515" stdDeviation="0.78924581"/>
  </filter>
  <filter id="filter3525" height="1.0557" width="1.6175" color-interpolation-filters="sRGB" y="-.027864" x="-.30875">
   <feGaussianBlur id="feGaussianBlur3527" stdDeviation="1.0871431"/>
  </filter>
  <filter id="filter4689" color-interpolation-filters="sRGB">
   <feGaussianBlur id="feGaussianBlur4691" stdDeviation="0.65275495"/>
  </filter>
  <linearGradient id="linearGradient3734" y2="5.9877" gradientUnits="userSpaceOnUse" x2="48" gradientTransform="matrix(1.0446 0 0 1.0476 -2.0179 -954.65)" y1="90" x1="48">
   <stop id="stop3189" stop-color="#ff0a0a" offset="0"/>
   <stop id="stop4551" stop-color="#c70404" offset=".5"/>
   <stop id="stop3191" stop-color="#7c0000" offset="1"/>
  </linearGradient>
  <linearGradient id="linearGradient3736" y2="74.247" gradientUnits="userSpaceOnUse" x2="57.663" gradientTransform="matrix(.68946 0 0 .68946 5.4582 5.1965)" y1="74.247" x1="63.19">
   <stop id="stop4595" offset="0"/>
   <stop id="stop4597" stop-opacity="0" offset="1"/>
  </linearGradient>
  <radialGradient id="radialGradient3738" gradientUnits="userSpaceOnUse" cy="6.7089" cx="-26.369" gradientTransform="matrix(.60576 0 8.663e-8 .33105 52.393 866.72)" r="59">
   <stop id="stop4629" stop-color="#595959" offset="0"/>
   <stop id="stop4625" offset="1"/>
  </radialGradient>
  <linearGradient id="linearGradient3740" y2="25.297" spreadMethod="reflect" gradientUnits="userSpaceOnUse" x2="148.75" gradientTransform="matrix(.74364 0 0 .74576 .53178 856.63)" y1="25.297" x1="64">
   <stop id="stop4461-7" stop-color="#fff" offset="0"/>
   <stop id="stop3483-0" stop-color="#fff" stop-opacity=".34146" offset=".5"/>
   <stop id="stop4463-3" stop-color="#fff" stop-opacity="0" offset="1"/>
  </linearGradient>
  <clipPath id="clipPath3742" clipPathUnits="userSpaceOnUse">
   <rect id="rect3744" ry="12.036" height="85.114" width="85.114" y="861.78" x="5.4316" fill="url(#linearGradient3746)"/>
  </clipPath>
  <linearGradient id="linearGradient3746" y2="1007.5" gradientUnits="userSpaceOnUse" x2="28.728" gradientTransform="matrix(2.0265 0 0 2.0265 -.64795 -1179.7)" y1="1049.4" x1="28.728">
   <stop id="stop3523" stop-color="#bdcdd4" offset="0"/>
   <stop id="stop3525" stop-color="#fff" offset="1"/>
  </linearGradient>
 </defs>
 <metadata id="metadata7">
  <rdf:RDF>
   <cc:Work rdf:about="">
    <dc:format>image/svg+xml</dc:format>
    <dc:type rdf:resource="http://purl.org/dc/dcmitype/StillImage"/>
    <dc:title/>
   </cc:Work>
  </rdf:RDF>
 </metadata>
 <g id="layer1" transform="translate(0 -956.36)">
  <rect id="rect5263-0" fill-opacity=".019608" ry="12.724" height="89.978" width="89.978" y="959.35" x="2.9998"/>
  <rect id="rect5261-6" fill-opacity=".039216" ry="12.552" height="88.762" width="88.762" y="959.96" x="3.6078"/>
  <rect id="rect5259-9" fill-opacity=".078431" ry="12.38" height="87.546" width="87.546" y="960.57" x="4.2157"/>
  <rect id="rect5257-5" fill-opacity=".15686" ry="12.208" height="86.33" width="86.33" y="961.18" x="4.8237"/>
  <g id="g3703" clip-path="url(#clipPath3742)" transform="translate(0,100)">
   <rect id="rect2419" transform="scale(1,-1)" rx="6.2679" ry="6.2857" height="88" width="87.75" y="-948.36" x="4.25" fill="url(#linearGradient3734)"/>
   <g id="g3529" fill-opacity=".75" fill-rule="evenodd" transform="matrix(.74364 0 0 .74333 .53178 856.65)">
    <path id="path3489" opacity=".3" d="m29.682 23.053s-10.386 51.34 3.5336 93.64c-10.247-65.724 4.5936-92.226 4.5936-92.226l-8.1272-1.4134z" filter="url(#filter3503)" fill="#680000"/>
    <path id="path3487" opacity=".3" d="m15.548 19.873s-10.74 41.446 0.70671 83.392c-6.3604-60.424 7.4205-81.979 7.4205-81.979l-8.1272-1.4134z" filter="url(#filter3499)" fill="#680000"/>
    <path id="path3517" opacity=".3" d="m21.555 103.62s-4.2403-38.163 3.5336-71.378c-6.4975 16.731-11.307 38.163-3.5336 71.378z" transform="matrix(.99964 -.029857 .026689 1.1183 22.576 6.0344)" filter="url(#filter3513)" fill="#f55"/>
    <path id="path3507" opacity=".3" d="m21.555 103.62s-4.2403-38.163 3.5336-71.378c-6.4975 16.731-11.307 38.163-3.5336 71.378z" transform="matrix(.99964 -.026689 .026689 .99964 -1.452 6.2468)" filter="url(#filter3513)" fill="#f55"/>
    <path id="path3519" opacity=".3" d="m52.297 23.053s-1.9056 49.758 3.5336 93.64c-2.1201-64.67 4.5936-92.226 4.5936-92.226l-8.127-1.414z" transform="matrix(1 0 0 0.67 0 7.6075)" filter="url(#filter3525)" fill="#680000"/>
   </g>
   <g id="g3536" fill-opacity=".75" fill-rule="evenodd" transform="matrix(-.74364 0 0 .74333 96.76 856.65)">
    <path id="path3538" opacity=".3" d="m29.682 23.053s-10.386 51.34 3.5336 93.64c-10.247-65.724 4.5936-92.226 4.5936-92.226l-8.1272-1.4134z" filter="url(#filter3503)" fill="#680000"/>
    <path id="path3540" opacity=".3" d="m15.548 19.873s-10.74 41.446 0.70671 83.392c-6.3604-60.424 7.4205-81.979 7.4205-81.979l-8.1272-1.4134z" filter="url(#filter3499)" fill="#680000"/>
    <path id="path3542" opacity=".3" d="m21.555 103.62s-4.2403-38.163 3.5336-71.378c-6.4975 16.731-11.307 38.163-3.5336 71.378z" transform="matrix(.99964 -.029857 .026689 1.1183 22.576 6.0344)" filter="url(#filter3513)" fill="#f55"/>
    <path id="path3544" opacity=".3" d="m21.555 103.62s-4.2403-38.163 3.5336-71.378c-6.4975 16.731-11.307 38.163-3.5336 71.378z" transform="matrix(.99964 -.026689 .026689 .99964 -1.452 6.2468)" filter="url(#filter3513)" fill="#f55"/>
    <path id="path3546" opacity=".3" d="m52.297 23.053s-1.9056 49.758 3.5336 93.64c-2.1201-64.67 4.5936-92.226 4.5936-92.226l-8.127-1.414z" transform="matrix(1 0 0 0.67 0 7.6075)" filter="url(#filter3525)" fill="#680000"/>
   </g>
   <path id="path4669" opacity=".8" d="m89.45 33.898a25.486 9.8984 0 1 1 -50.972 0 25.486 9.8984 0 1 1 50.972 0z" transform="matrix(.69925 0 0 1.0699 3.3713 844.17)" filter="url(#filter4689)" fill="#ffd903"/>
   <path id="path4655" d="m39.485 878.01c2.0971 0.0245 2.7856 2.5749 2.0068 4.2093-0.47735 2.2691-2.6483 3.5112-3.4957 5.5594-1.0931 2.7595-0.15333 5.7882 1.218 8.2624 1.1075 2.324 2.4753 5.0858 5.1827 5.7806 1.5934 0.50733 2.9106-0.95767 4.474-0.61453 1.9766 0.33536 3.9591 2.0875 5.9864 0.97419 1.3559-0.99418 2.1603-2.5598 3.0437-3.9566 1.98-3.4386 1.3142-7.8933-0.92991-11.039-0.88513-1.4463-2.2533-2.5795-2.9918-4.1024-0.54293-2.131 0.6981-4.3714-0.19649-6.4531-1.2624-1.5646-3.5367-0.91668-5.2028-0.51301-2.3689 0.74011-4.8769 2.1144-7.3965 1.217-0.63175-0.0768-1.2959 0.17999-1.6984 0.6758z" fill-opacity=".75" fill-rule="evenodd"/>
   <path id="path2678" d="m17.612 897.42v0c0-4.7037-8.8592 6.0412-7.8831 9.4558 1.1943 4.1782 0.39435 5.2532 4.9927 5.2532 2.754 0 4.2623-2.2661 5.5182-3.9399 1.8386-2.4504 2.3649-3.6974 2.3649-6.3039 0-0.83003-1.7302-3.0305-2.3649-3.6142-0.9333-0.85828-0.6427-0.45418-2.6277-0.85102z" fill-opacity=".70588" fill-rule="evenodd"/>
   <path id="path2684" d="m78.046 897.88c-2.3832-1.6411-6.8905-2.1307-6.5377 1.2038 0.45238 4.2747 1.865 5.5597 3.4365 7.6441 0.56141 0.74466 3.4651 3.3948 4.5054 3.8156 2.4859 1.0057 3.8517-0.67761 5.086-2.2034 1.8129-2.2409-2.0421-7.9548-3.4043-9.7615-1.1406-1.5129-0.97494-1.4253-2.1226-1.8896-0.47342-0.19152-0.64229 0.79393-0.96345 1.1909z" fill-opacity=".70588" fill-rule="evenodd"/>
   <path id="path3456" d="m36.17 914.23c-0.61062-0.48509-2.8299-0.91116-3.8955-0.99171-0.64324-0.0486-3.0873 2.1093-3.7642 2.7834-1.2145 1.2097-2.4773 2.8614-3.6063 4.3991-0.76074 1.0361-1.2654 2.3469-1.8866 4.1804-0.72354 2.1354-0.34576 3.102-0.94787 4.879-0.60247 1.7781 0.31406 2.5318 1.2325 3.3006 0.48195 0.40339 2.632 0.46892 3.4832 0.82109 0.80205 0.33186 1.8529 1.0767 2.7944 1.4663 0.82288 0.34048 1.4324 0.30391 2.88-0.97882 1.3127-1.1632 2.0603 0.3422 4.4376-1.8847 1.0776-1.0094 2.403-4.3166 2.8519-5.6415 0.81387-2.402 0.3825-4.4077 0.23718-4.8629-0.4788-1.5-0.65239-3.7256-1.2061-5.4601-0.60793-1.9045-1.0516-0.85052-2.6101-2.0102z" fill-opacity=".70588" fill-rule="evenodd"/>
   <path id="path3458" d="m59.809 915.19c0.56068-1.7627 3.5411-1.065 5.3774-0.24187 2.0338 0.91164 2.2349 1.3055 3.719 3.2685 2.0613 2.7266 2.7182 2.6498 3.313 5.4828 0.59752 2.8461-1.1038 4.0873-1.68 5.8987-0.30272 0.95173-1.7301 2.1453-2.2692 2.8139-0.63854 0.79181-1.9692 1.1469-2.9408 1.8393-1.4558 1.0375-3.4433-0.90921-4.4126-1.5569-1.6693-1.1156-2.0249-3.5287-2.2566-4.6321-0.34928-1.6637-1.681-2.729-2.5885-4.823-0.59559-1.3743-1.5876-4.5037-1.7137-5.1044-0.25199-1.2003 1.2042-1.8948 1.8318-2.6732 0.44751-0.55491 1.3345-1.0248 2.6166-1.4373 0.80189-0.25801 0.36192-0.3149 1.0035 1.1655z" fill-opacity=".70588" fill-rule="evenodd"/>
   <path id="path3460" d="m19.193 939.57c-1.1443-0.0434-2.5203 0.13938-3.6717 0.13938-1.7215 0-5.5309 3.3263-5.5309 4.9943 0 0.74273 0.106 1.9644 0.23239 3.2985 0.27533 0.0336 0.5519 0.0696 0.8366 0.0696h14.292c0.06023-0.70468-0.04246-1.409-0.37182-2.0674-0.76832-1.536-1.7923-3.1258-2.3704-3.4147-0.08598-0.043-1.1324-2.571-2.3704-2.8804-0.30902-0.0772-0.66432-0.1249-1.0457-0.13938z" fill-opacity=".70588" fill-rule="evenodd"/>
   <path id="path3462" d="m78.498 938.37c-0.43912 0.005-0.86882 0.0947-1.2317 0.30198-1.868 1.067-5.7865 5.384-5.7865 6.2951 0 0.67963 0.12012 1.8382 0.32534 3.1127h13.386c0.41453 0 0.81471-0.0459 1.2084-0.11614-0.05205-0.82122-0.25743-1.6332-0.46478-2.4623-0.36007-1.4397-1.2643-3.004-2.1147-4.7387-0.77998-1.5911-1.5067-1.6135-3.4161-2.0906-0.44095-0.11019-1.1737-0.31115-1.9056-0.30198z" fill-opacity=".70588" fill-rule="evenodd"/>
   <g id="layer4" transform="matrix(1.0446 0 0 1.0476 -2.0179 854.08)">
    <path id="path4553" opacity=".2" style="block-progression:tb;text-indent:0;color:#000000;text-transform:none" d="m48.594 14.906-0.969 0.219c5.039 25.063-1.885 49.503 1.969 74.875l1-0.125c-3.8121-25.1 3.0982-49.611-2-74.969z" fill="#fc0"/>
    <path id="path4591" opacity=".4" d="m44.219 16.228v73.772h5.4941c-3.71-24.941 2.876-49.062-1.724-73.772h-3.7705z" fill="url(#linearGradient3736)"/>
   </g>
   <path id="path3926" opacity=".1" d="m10.518 863.51c-3.4724 0-6.2679 2.8034-6.2679 6.2857v0.55654 3.6339 1.997c9.6835 4.6247 25.719 7.6607 43.875 7.6607s34.192-3.036 43.875-7.6607v-1.997-3.6339-0.55654c0-3.4823-2.7955-6.2857-6.2679-6.2857h-0.55497-74.104-0.55497z"/>
   <path id="path3924" opacity=".15" d="m10.518 862.46c-3.4724 0-6.2679 2.8034-6.2679 6.2857v0.55654 3.6339 1.997c9.6835 4.6247 25.719 7.6607 43.875 7.6607s34.192-3.036 43.875-7.6607v-1.997-3.6339-0.55654c0-3.4823-2.7955-6.2857-6.2679-6.2857h-0.55497-74.104-0.55497z"/>
   <path id="path3920" opacity=".3" d="m10.518 861.41c-3.4724 0-6.2679 2.8034-6.2679 6.2857v0.55654 3.6339 1.997c9.6835 4.6247 25.719 7.6607 43.875 7.6607s34.192-3.036 43.875-7.6607v-1.997-3.6339-0.55654c0-3.4823-2.7955-6.2857-6.2679-6.2857h-0.55497-74.104-0.55497z"/>
   <path id="path4612" d="m10.518 860.36c-3.4724 0-6.2679 2.8034-6.2679 6.2857v0.55655 3.6339 1.997c9.6835 4.6247 25.719 7.6607 43.875 7.6607s34.192-3.036 43.875-7.6607v-1.997-3.6339-0.55655c0-3.4823-2.7955-6.2857-6.2679-6.2857h-0.55497-74.104-0.55497z" fill="url(#radialGradient3738)"/>
   <path id="path4617" opacity=".2" d="m4.25 870.5v2.3305c9.6835 4.6247 25.719 7.6674 43.875 7.6674s34.192-3.0427 43.875-7.6674v-2.3305c-9.6835 4.2394-25.719 7.0148-43.875 7.0148s-34.192-2.7754-43.875-7.0148z" fill="url(#linearGradient3740)"/>
  </g>
  <path id="rect5265-0" d="m5.4316 1029.8v5.0663c0 6.668 5.3645 12.032 12.032 12.032h61.049c6.668 0 12.032-5.3645 12.032-12.032v-5.0663c0 6.6681-5.3645 12.032-12.032 12.032h-61.049c-6.668 0-12.032-5.3643-12.032-12.032z" fill-opacity=".11765"/>
  <path id="path5252-0" d="m5.4316 1033.9v1.0133c0 6.668 5.3645 12.032 12.032 12.032h61.049c6.668 0 12.032-5.3645 12.032-12.032v-1.0133c0 6.6681-5.3645 12.032-12.032 12.032h-61.049c-6.668 0-12.032-5.3644-12.032-12.032z" fill-opacity=".098039"/>
  <path id="path3616" fill-opacity=".11765" d="m5.4316 1029.8v5.0663c0 6.668 5.3645 12.032 12.032 12.032h61.049c6.668 0 12.032-5.3645 12.032-12.032v-5.0663c0 6.6681-5.3645 12.032-12.032 12.032h-61.049c-6.668 0-12.032-5.3643-12.032-12.032z"/>
 </g>
</svg>
