<?xml version="1.0" encoding="UTF-8" standalone="no"?>
<!-- Created with Inkscape (http://www.inkscape.org/) -->
<svg id="svg2" xmlns:rdf="http://www.w3.org/1999/02/22-rdf-syntax-ns#" xmlns="http://www.w3.org/2000/svg" height="96" width="96" version="1.1" xmlns:cc="http://creativecommons.org/ns#" xmlns:xlink="http://www.w3.org/1999/xlink" xmlns:dc="http://purl.org/dc/elements/1.1/">
 <defs id="defs4">
  <linearGradient id="linearGradient5819" y2="5.9877" gradientUnits="userSpaceOnUse" y1="90" gradientTransform="matrix(1.0714 0 0 1.0625 -3.1712 952.99)" x2="48" x1="48">
   <stop id="stop3702-8-7" stop-color="#e70000" offset="0"/>
   <stop id="stop3704-9-3" stop-color="#f22" offset="1"/>
  </linearGradient>
 </defs>
 <metadata id="metadata7">
  <rdf:RDF>
   <cc:Work rdf:about="">
    <dc:format>image/svg+xml</dc:format>
    <dc:type rdf:resource="http://purl.org/dc/dcmitype/StillImage"/>
    <dc:title/>
   </cc:Work>
  </rdf:RDF>
 </metadata>
 <g id="layer1" transform="translate(0 -956.36)">
  <rect id="rect5263-0" fill-opacity=".019608" ry="12.724" height="89.978" width="89.978" y="959.35" x="2.9998"/>
  <rect id="rect5261-6" fill-opacity=".039216" ry="12.552" height="88.762" width="88.762" y="959.96" x="3.6078"/>
  <rect id="rect5259-9" fill-opacity=".078431" ry="12.38" height="87.546" width="87.546" y="960.57" x="4.2157"/>
  <rect id="rect5257-5" fill-opacity=".15686" ry="12.208" height="86.33" width="86.33" y="961.18" x="4.8237"/>
  <path id="rect2419" d="m17.469 5.4062c-6.668 0-12.032 5.3948-12.032 12.063l0.0005 61.031c0 6.668 5.3635 12.031 12.032 12.031h61.03c6.668 0 12.031-5.363 12.031-12.031v-61.031c0-6.668-5.363-12.063-12.031-12.063l-61.031 0.0002z" transform="translate(0 956.36)" fill="#f2f2f2"/>
  <path id="rect2419-6" d="m17.476 961.77c-6.668 0-12.031 5.3945-12.031 12.062v61.03c0 6.6679 5.3632 12.031 12.031 12.031h61.031c6.668 0 12.031-5.3633 12.031-12.031v-61.03c0-6.668-5.3633-12.062-12.031-12.062h-61.031z" fill="url(#linearGradient5819)"/>
  <path id="rect3914" style="color:#000000" d="m5.4449 1021v13.844c0 6.6679 5.3632 12.031 12.031 12.031h61.031c6.668 0 12.031-5.3633 12.031-12.031v-13.844h-85.094z" fill="#666"/>
  <path id="path3931" opacity=".2" style="color:#000000" d="m41.904 977.22c-0.76685 0-1.5215 0.2156-2.1875 0.6563-0.23453 0.1523-0.45938 0.3031-0.65625 0.5l-23.969 23.999c-1.567 1.5669-1.567 4.0894 0 5.6563 1.567 1.5668 4.0893 1.5668 5.6562 0l17.156-17.124v14.311c0 2.2161 1.784 4.0001 4 4.0001s4-1.784 4-4.0001v-23.999c0-0.2781-0.0358-0.5392-0.0937-0.8125-0.0484-0.2379-0.0991-0.4672-0.1875-0.6875-0.19587-0.4814-0.48326-0.952-0.875-1.3437-0.37427-0.3743-0.82395-0.6483-1.2812-0.8438-0.23944-0.1009-0.48914-0.1656-0.75-0.2187-0.2733-0.058-0.53438-0.094-0.8125-0.094zm10 0c-2.216 0-4 1.784-4 4s1.784 4 4 4h4v19.999c0 2.2161 1.784 4.0001 4 4.0001s4-1.784 4-4.0001v-19.999h4c2.216 0 4-1.784 4-4s-1.784-4-4-4h-8-8zm26 0c-2.216 0-4 1.784-4 4v23.999c0 2.2161 1.784 4.0001 4 4.0001s4-1.784 4-4.0001v-23.999c0-2.216-1.784-4-4-4zm0 1c1.6569 0 3 1.3432 3 3 0 1.6569-1.3431 3-3 3-1.6568 0-3-1.3431-3-3 0-1.6568 1.3432-3 3-3zm-44 19c-1.6568 0-3 1.3432-3 2.9994 0 1.6564 1.3432 2.9995 3 2.9995 1.6569 0 3-1.3431 3-2.9995 0-1.6562-1.3431-2.9994-3-2.9994z"/>
  <rect id="rect3927" opacity=".2" style="color:#000000" height="2.0607" width="84.958" y="1020" x="5.4761"/>
  <path id="rect3868" style="color:#000000" d="m41.904 976.22c-0.76685 0-1.5215 0.2156-2.1875 0.6563-0.23453 0.1523-0.45938 0.3031-0.65625 0.5l-23.969 23.999c-1.567 1.5669-1.567 4.0894 0 5.6563 1.567 1.5668 4.0893 1.5668 5.6562 0l17.156-17.124v14.311c0 2.2161 1.784 4.0001 4 4.0001s4-1.784 4-4.0001v-23.999c0-0.2781-0.0358-0.5392-0.0937-0.8125-0.0484-0.2379-0.0991-0.4672-0.1875-0.6875-0.19587-0.4814-0.48326-0.952-0.875-1.3437-0.37427-0.3743-0.82395-0.6483-1.2812-0.8438-0.23944-0.1009-0.48914-0.1656-0.75-0.2187-0.2733-0.058-0.53438-0.094-0.8125-0.094zm10 0c-2.216 0-4 1.784-4 4s1.784 4 4 4h4v19.999c0 2.2161 1.784 4.0001 4 4.0001s4-1.784 4-4.0001v-19.999h4c2.216 0 4-1.784 4-4s-1.784-4-4-4h-8-8zm26 0c-2.216 0-4 1.784-4 4v23.999c0 2.2161 1.784 4.0001 4 4.0001s4-1.784 4-4.0001v-23.999c0-2.216-1.784-4-4-4zm0 1c1.6569 0 3 1.3432 3 3 0 1.6569-1.3431 3-3 3-1.6568 0-3-1.3431-3-3 0-1.6568 1.3432-3 3-3zm-44 19c-1.6568 0-3 1.3432-3 3 0 1.6558 1.3432 2.9989 3 2.9989 1.6569 0 3-1.3431 3-2.9989 0-1.6568-1.3431-3-3-3z" fill="#fff"/>
  <path id="rect5265-0" d="m5.4316 1029.8v5.0663c0 6.668 5.3645 12.032 12.032 12.032h61.049c6.668 0 12.032-5.3645 12.032-12.032v-5.0663c0 6.6681-5.3645 12.032-12.032 12.032h-61.049c-6.668 0-12.032-5.3643-12.032-12.032z" fill-opacity=".18957"/>
  <path id="path5252-0" d="m5.4316 1033.9v1.0133c0 6.668 5.3645 12.032 12.032 12.032h61.049c6.668 0 12.032-5.3645 12.032-12.032v-1.0133c0 6.6681-5.3645 12.032-12.032 12.032h-61.049c-6.668 0-12.032-5.3644-12.032-12.032z" fill-opacity=".098039"/>
 </g>
</svg>
