<?xml version="1.0" encoding="UTF-8" standalone="no"?>
<!-- Created with Inkscape (http://www.inkscape.org/) -->
<svg id="svg2" xmlns:rdf="http://www.w3.org/1999/02/22-rdf-syntax-ns#" xmlns="http://www.w3.org/2000/svg" height="96" width="96" version="1.1" xmlns:cc="http://creativecommons.org/ns#" xmlns:xlink="http://www.w3.org/1999/xlink" xmlns:dc="http://purl.org/dc/elements/1.1/">
 <defs id="defs4">
  <clipPath id="clipPath3613-21">
   <rect id="rect3615-57" rx="6" ry="6" height="84" width="84" y="6" x="6" fill="#fff"/>
  </clipPath>
  <filter id="filter3794-44" height="1.384" width="1.384" color-interpolation-filters="sRGB" y="-.192" x="-.192">
   <feGaussianBlur id="feGaussianBlur3796-83" stdDeviation="5.28"/>
  </filter>
  <linearGradient id="linearGradient3142" y2="5.9877" gradientUnits="userSpaceOnUse" y1="90" gradientTransform="matrix(1.08 0 0 1.08 -3.3463 -3.5129)" x2="48" x1="48">
   <stop id="stop3702-39" stop-color="#2d2d2d" offset="0"/>
   <stop id="stop3704-60" stop-color="#6b6b6b" offset="1"/>
  </linearGradient>
  <radialGradient id="radialGradient24834" gradientUnits="userSpaceOnUse" cy="48.001" cx="47.746" gradientTransform="matrix(1.9072 0 0 1.9072 -42.977 911.09)" r="16.254">
   <stop id="stop3785-6" stop-opacity="0" offset="0"/>
   <stop id="stop3814" stop-color="#ca0000" stop-opacity="0" offset="0.7"/>
   <stop id="stop3791" stop-color="#6b0000" stop-opacity=".12403" offset="0.8"/>
   <stop id="stop3787" offset="1"/>
  </radialGradient>
  <radialGradient id="radialGradient24838" gradientUnits="userSpaceOnUse" cy="47.876" cx="48" gradientTransform="matrix(1 0 0 .92308 .083261 958.44)" r="26">
   <stop id="stop3755" stop-color="#fff814" offset="0"/>
   <stop id="stop3763" stop-color="#ffc516" offset=".5"/>
   <stop id="stop3757" stop-color="#da8600" stop-opacity=".66667" offset="1"/>
  </radialGradient>
  <radialGradient id="radialGradient24842" gradientUnits="userSpaceOnUse" cy="48.001" cx="47.746" gradientTransform="matrix(1.9072 0 0 1.9072 -42.977 911.09)" r="16.254">
   <stop id="stop3718" stop-color="#ee8a0c" offset="0"/>
   <stop id="stop3751" stop-color="#ca0005" offset=".33021"/>
   <stop id="stop3748" stop-color="#530111" offset=".77064"/>
   <stop id="stop3720" offset="1"/>
  </radialGradient>
  <linearGradient id="linearGradient24847" y2="48.001" gradientUnits="userSpaceOnUse" x2="64" gradientTransform="matrix(0 -2.0302 2.0302 0 -49.37 1099.6)" y1="48.001" x1="31.491">
   <stop id="stop3862" stop-color="#fff" offset="0"/>
   <stop id="stop3864" stop-color="#fff" stop-opacity="0" offset="1"/>
  </linearGradient>
 </defs>
 <metadata id="metadata7">
  <rdf:RDF>
   <cc:Work rdf:about="">
    <dc:format>image/svg+xml</dc:format>
    <dc:type rdf:resource="http://purl.org/dc/dcmitype/StillImage"/>
    <dc:title/>
   </cc:Work>
  </rdf:RDF>
 </metadata>
 <g id="layer1" transform="translate(0 -956.36)">
  <rect id="rect5263-0" fill-opacity=".019608" ry="12.724" height="89.978" width="89.624" y="959.35" x="3.3534"/>
  <rect id="rect5261-6" fill-opacity=".039216" ry="12.552" height="88.762" width="88.413" y="959.96" x="3.9589"/>
  <rect id="rect5259-9" fill-opacity=".078431" ry="12.38" height="87.546" width="87.202" y="960.57" x="4.5645"/>
  <rect id="rect5257-5" fill-opacity=".15686" ry="12.208" height="86.33" width="85.991" y="961.18" x="5.1701"/>
  <path id="rect2419-7" d="m17.75 5.4062c-6.642 0-11.969 5.3948-11.969 12.063l0.0002 61.031c0 6.668 5.3268 12.031 11.969 12.031h60.812c6.642 0 11.969-5.363 11.969-12.031v-61.031c0-6.668-5.327-12.063-11.969-12.063l-60.812 0.0002z" transform="translate(0 956.36)" fill="url(#linearGradient3142)"/>
  <path id="rect5265-0" d="m5.7756 1029.8v5.0663c0 6.668 5.3434 12.032 11.985 12.032h60.809c6.6418 0 11.985-5.3645 11.985-12.032v-5.0663c0 6.6681-5.3434 12.032-11.985 12.032h-60.809c-6.6418 0-11.985-5.3643-11.985-12.032z" fill-opacity=".11765"/>
  <path id="path5252-0" d="m5.7756 1033.9v1.0133c0 6.668 5.3434 12.032 11.985 12.032h60.809c6.6418 0 11.985-5.3645 11.985-12.032v-1.0133c0 6.6681-5.3434 12.032-11.985 12.032h-60.809c-6.6418 0-11.985-5.3644-11.985-12.032z" fill-opacity=".098039"/>
  <path id="path3777-0" opacity=".2" style="color:#000000" d="m48.083 969.63a33 33 0 0 1 0 66 33 33 0 1 1 0 -66z" fill="url(#linearGradient24847)"/>
  <g id="layer5" transform="matrix(.91582 0 0 .91582 4.1239 958.67)">
   <rect id="rect3171" height="66" stroke="#fff" stroke-linecap="round" stroke-width=".5" fill="#f00" rx="12" ry="12" width="66" opacity=".1" clip-path="url(#clipPath3613-21)" filter="url(#filter3794-44)" y="15" x="15"/>
  </g>
  <path id="path3685" style="color:#000000" d="m79.083 1002.6a31 31 0 0 1 -62 0 31 31 0 1 1 62 0z" fill="url(#radialGradient24842)"/>
  <path id="path3775-9" opacity=".15" style="color:#000000" d="m34.802 978.1c0.006-0.00089-0.19341 0.064-0.1875 0.0625 0.006-0.002-0.22448 0.0646-0.21875 0.0625 0.006-0.002-0.19299 0.0652-0.1875 0.0625 0.005-0.002-0.088 0.0738-0.125 0.0937-0.006 0.003-0.032 0.00047-0.0313 0v0.0313c-8.6412 5.0073-13.969 14.233-13.969 24.219-0.000038-0.01 0.00061 0.1934 0 0.1875-0.00061-0.01 0.03243 0.2245 0.03125 0.2188-0.0012-0.01 0.06423 0.1931 0.0625 0.1875-0.0017-0.01 0.06477 0.1929 0.0625 0.1875-0.0023 0 0.09654 0.1614 0.09375 0.1562-0.0028 0 0.09703 0.1924 0.09375 0.1875-0.0033 0 0.12874 0.1608 0.125 0.1563-0.0037 0 0.12916 0.1291 0.125 0.125-0.0042 0 0.12955 0.1287 0.125 0.125-0.0045 0 0.16114 0.1282 0.15625 0.125-0.0049 0 0.19268 0.096 0.1875 0.094-0.0052 0 0.16168 0.096 0.15625 0.094-0.0054 0 0.19313 0.064 0.1875 0.063-0.0056 0 0.19327 0.064 0.1875 0.063-0.0058 0 0.22461 0.032 0.21875 0.031-0.0059-0.0006 0.19339 0 0.1875 0h18c-0.006 0 0.19336-0.0006 0.1875 0-0.006 0.0006 0.22452-0.032 0.21875-0.031-0.006 0 0.19313-0.064 0.1875-0.063-0.006 0 0.19293-0.065 0.1875-0.063-0.005 0 0.16144-0.097 0.15625-0.094-0.005 0 0.19239-0.097 0.1875-0.094-0.005 0 0.1608-0.1288 0.15625-0.125-0.001 0.0009 0.0176-0.019 0.0313-0.031 0.31188 1.368 0.91989 2.5944 1.9062 3.5313-0.0251 0.011-0.0961 0.064-0.0937 0.063 0.003 0-0.0966 0.033-0.0937 0.031 0.003 0-0.0965 0.064-0.0937 0.063 0.003 0-0.0964 0.064-0.0937 0.063 0.003 0-0.0651 0.064-0.0625 0.063 0.003 0-0.0962 0.065-0.0937 0.063 0.003 0-0.0961 0.096-0.0937 0.094 0.002 0-0.0647 0.065-0.0625 0.063 0.002 0-0.0646 0.096-0.0625 0.094 0.002 0-0.0644 0.096-0.0625 0.094 0.002 0-0.0643 0.065-0.0625 0.063 0.002 0-0.0641 0.096-0.0625 0.094a1.0937 1.0937 0 0 0 0 0.031l-9 15.594v0.031c-0.0176 0.033-0.0959 0.1608-0.0937 0.1562 0.003-0.01-0.0645 0.1618-0.0625 0.1563 0.002-0.01-0.0639 0.1932-0.0625 0.1875 0.001-0.01-0.0321 0.2246-0.0313 0.2187 0.00087-0.01-0.0315 0.1934-0.0313 0.1875 0.00029-0.01 0.00029 0.1934 0 0.1875-0.00029-0.01 0.0321 0.1934 0.0313 0.1875-0.00087-0.01 0.0327 0.2245 0.0313 0.2188-0.001-0.01 0.0645 0.193 0.0625 0.1875-0.002-0.01 0.065 0.1616 0.0625 0.1562-0.002-0.01 0.0968 0.1926 0.0937 0.1875-0.003-0.01 0.0973 0.161 0.0937 0.1563-0.003 0 0.12898 0.1606 0.125 0.1562-0.004 0 0.16064 0.129 0.15625 0.125-0.004 0 0.16101 0.1285 0.15625 0.125-0.005 0 0.16133 0.1281 0.15625 0.125a1.0937 1.0937 0 0 0 0.0313 0c8.6632 5.0017 19.337 5.0017 28 0a1.0937 1.0937 0 0 0 0.0313 0c-0.005 0 0.16101-0.1285 0.15625-0.125-0.005 0 0.16064-0.129 0.15625-0.125-0.004 0 0.16023-0.1294 0.15625-0.125-0.004 0 0.12853-0.161 0.125-0.1562-0.004 0 0.0968-0.1614 0.0937-0.1563-0.003 0.01 0.0963-0.1929 0.0937-0.1875-0.002 0.01 0.0645-0.1618 0.0625-0.1562-0.002 0.01 0.0639-0.1933 0.0625-0.1875-0.001 0.01 0.0321-0.2247 0.0313-0.2188-0.00087 0.01 0.0315-0.1934 0.0313-0.1875-0.00029 0.01-0.00029-0.1934 0-0.1875 0.00029 0.01-0.0321-0.1934-0.0313-0.1875 0.00087 0.01-0.0327-0.2245-0.0313-0.2187 0.001 0.01-0.0645-0.1931-0.0625-0.1875 0.002 0.01-0.065-0.1617-0.0625-0.1563 0.002 0-0.0761-0.1228-0.0937-0.1562v-0.031l-9-15.594a1.0937 1.0937 0 0 0 0 -0.031c0.003 0.01-0.12854-0.161-0.125-0.1562 0.004 0-0.12898-0.1607-0.125-0.1563 0.004 0-0.12939-0.1602-0.125-0.1562 0.004 0-0.16101-0.1286-0.15625-0.125 0.005 0-0.16133-0.097-0.15625-0.094 0.005 0-0.19286-0.096-0.1875-0.094 0.003 0-0.0406-0.01-0.0937-0.031 1.0027-0.9407 1.6223-2.1799 1.9375-3.5625 0.0137 0.012 0.0324 0.032 0.0313 0.031-0.004 0 0.16114 0.1282 0.15625 0.125-0.005 0 0.19269 0.096 0.1875 0.094-0.005 0 0.16168 0.096 0.15625 0.094-0.005 0 0.19313 0.064 0.1875 0.063-0.006 0 0.19327 0.064 0.1875 0.063-0.006 0 0.22461 0.032 0.21875 0.031-0.006-0.0006 0.19339 0 0.1875 0h18c-0.006 0 0.19336-0.0006 0.1875 0-0.006 0.0006 0.22452-0.032 0.21875-0.031-0.006 0 0.19313-0.064 0.1875-0.063-0.006 0 0.19293-0.065 0.1875-0.063-0.005 0 0.16144-0.097 0.15625-0.094-0.005 0 0.19239-0.097 0.1875-0.094-0.005 0 0.1608-0.1288 0.15625-0.125-0.005 0 0.12917-0.1292 0.125-0.125-0.004 0 0.12874-0.1296 0.125-0.125-0.004 0 0.12828-0.1612 0.125-0.1563-0.003 0 0.0965-0.1927 0.0937-0.1875-0.003 0 0.096-0.1617 0.0937-0.1562-0.002 0 0.0642-0.1932 0.0625-0.1875-0.002 0.01 0.0637-0.1933 0.0625-0.1875-0.001 0.01 0.0319-0.2246 0.0313-0.2188-0.00061 0.01 0.00004-0.1934 0-0.1875 0-9.9861-5.3276-19.211-13.969-24.219-0.006-0.003 0.006-0.028 0-0.0313 0.00068 0.00042-0.0256 0.003-0.0313 0-0.0325-0.018-0.12911-0.0958-0.125-0.0937 0.005 0.002-0.16127-0.0645-0.15625-0.0625 0.005 0.002-0.16142-0.064-0.15625-0.0625 0.005 0.001-0.19279-0.0323-0.1875-0.0313 0.005 0.001-0.16161-0.0318-0.15625-0.0313 0.005 0.00058-0.19289-0.0001-0.1875 0 0.005 0.0001-0.19288 0.00038-0.1875 0 0.005-0.00038-0.19282 0.00086-0.1875 0a1.0937 1.0937 0 0 0 0 0.0313c0.003-0.00058-0.12817 0.00075-0.125 0 0.003-0.00075-0.0969 0.0322-0.0937 0.0313 0.003-0.00092-0.0968 0.0323-0.0937 0.0313 0.003-0.001-0.0968 0.0325-0.0937 0.0313 0.003-0.001-0.12794 0.0639-0.125 0.0625 0.003-0.001-0.0966 0.0328-0.0937 0.0313 0.003-0.002-0.0965 0.0642-0.0937 0.0625 0.003-0.002-0.0964 0.0644-0.0937 0.0625 0.003-0.002-0.0651 0.0645-0.0625 0.0625 0.003-0.002-0.0962 0.0646-0.0937 0.0625 0.003-0.002-0.0961 0.096-0.0937 0.0937 0.002-0.002-0.0647 0.0649-0.0625 0.0625 0.002-0.002-0.0646 0.0963-0.0625 0.0937 0.002-0.003-0.0644 0.0964-0.0625 0.0937 0.002-0.003-0.0643 0.0652-0.0625 0.0625 0.002-0.003-0.0641 0.0966-0.0625 0.0937a1.0937 1.0937 0 0 0 0 0.0313l-9 15.594c0.00041-0.0007 0.003 0.026 0 0.031-0.0176 0.033-0.0959 0.1609-0.0937 0.1563 0.003 0-0.0645 0.1618-0.0625 0.1562 0.002-0.01-0.0639 0.1933-0.0625 0.1875 0.001-0.01-0.0321 0.2246-0.0313 0.2188 0.00087-0.01-0.0315 0.1934-0.0313 0.1875 0.00029-0.01 0.00029 0.1934 0 0.1875-0.00029-0.01 0.0321 0.1933 0.0313 0.1875-0.00012-0.0008-0.001 0.025 0 0.031-0.6534-0.2076-1.3134-0.4105-2.0312-0.4105-0.71783 0-1.3778 0.2029-2.0312 0.4063 0.001-0.01 0.00012-0.032 0-0.031-0.00087 0.01 0.0315-0.1934 0.0313-0.1875-0.00029 0.01-0.00029-0.1934 0-0.1875 0.00029 0.01-0.0321-0.1934-0.0313-0.1875 0.00087 0.01-0.0327-0.2245-0.0313-0.2188 0.001 0.01-0.0645-0.1931-0.0625-0.1875 0.002 0.01-0.065-0.1616-0.0625-0.1562 0.002 0-0.0761-0.1228-0.0937-0.1563v-0.031l-9-15.594a1.0937 1.0937 0 0 0 0 -0.0313c0.002 0.004-0.065-0.12862-0.0625-0.125 0.003 0.004-0.0965-0.12843-0.0937-0.125 0.003 0.003-0.0968-0.097-0.0937-0.0937 0.003 0.003-0.12825-0.0967-0.125-0.0937 0.003 0.003-0.0972-0.0965-0.0937-0.0937 0.004 0.003-0.12865-0.0962-0.125-0.0937 0.004 0.002-0.12882-0.096-0.125-0.0937 0.004 0.002-0.12897-0.0644-0.125-0.0625 0.004 0.002-0.1291-0.0641-0.125-0.0625 0.004 0.002-0.16046-0.0326-0.15625-0.0313 0.004 0.001-0.1293-0.0635-0.125-0.0625 0.004 0.001-0.16061-0.00069-0.15625 0 0.004 0.00069-0.16065-0.0316-0.15625-0.0313 0.004 0.00037-0.12941-0.00005-0.125 0 0.004 0.00005-0.16066 0.00027-0.15625 0 0.004-0.00027-0.16062 0.00059-0.15625 0z" fill="#ffcb16"/>
  <path id="path3689" style="color:#000000" d="m35.083 980.1c-8.0444 4.6444-13 13.242-13 22.531h18c0-2.957 1.6143-5.5216 4-6.9062l-9-15.625zm26 0-9 15.625c2.3857 1.3846 4 3.9492 4 6.9062h18c0-9.2889-4.9556-17.887-13-22.531zm-13 17.531c-2.7614 0-5 2.2386-5 5s2.2386 5 5 5 5-2.2386 5-5-2.2386-5-5-5zm-4 11.906-9 15.625c8.0444 4.6444 17.956 4.6444 26 0l-9-15.625c-1.179 0.6842-2.5387 1.0937-4 1.0937s-2.821-0.4095-4-1.0937z" fill="url(#radialGradient24838)"/>
  <path id="path3769" opacity=".3" style="color:#000000" d="m34.958 979.2a0.91217 0.91217 0 0 0 -0.34375 0.125c-8.3261 4.8071-13.437 13.699-13.437 23.312a0.91217 0.91217 0 0 0 0.90625 0.9063h18a0.91217 0.91217 0 0 0 0.90625 -0.9063c0-2.625 1.4452-4.8961 3.5625-6.125a0.91217 0.91217 0 0 0 0.3125 -1.25l-9-15.625a0.91217 0.91217 0 0 0 -0.90625 -0.4375zm25.969 0a0.91217 0.91217 0 0 0 -0.625 0.4375l-9 15.625a0.91217 0.91217 0 0 0 0.3125 1.25c2.1173 1.2289 3.5625 3.5 3.5625 6.125a0.91217 0.91217 0 0 0 0.90625 0.9063h18a0.91217 0.91217 0 0 0 0.90625 -0.9063c0-9.6133-5.1114-18.505-13.438-23.312a0.91217 0.91217 0 0 0 -0.625 -0.125zm-12.844 17.531c-3.2544 0-5.9062 2.6519-5.9062 5.9062s2.6519 5.9063 5.9062 5.9063c3.2544 0 5.9062-2.652 5.9062-5.9063s-2.6519-5.9062-5.9062-5.9062zm-4.1562 11.906a0.91217 0.91217 0 0 0 -0.625 0.4375l-9 15.625a0.91217 0.91217 0 0 0 0.3125 1.25c8.3254 4.8066 18.612 4.8066 26.938 0a0.91217 0.91217 0 0 0 0.3125 -1.25l-9-15.625a0.91217 0.91217 0 0 0 -1.25 -0.3125c-1.0522 0.6107-2.2403 0.9688-3.5312 0.9688s-2.479-0.3581-3.5312-0.9688a0.91217 0.91217 0 0 0 -0.625 -0.125z" fill="#ffcb16"/>
  <path id="path3777" style="color:#000000" d="m79.083 1002.6a31 31 0 0 1 -62 0 31 31 0 1 1 62 0z" fill="url(#radialGradient24834)"/>
 </g>
</svg>
