<?xml version="1.0" encoding="UTF-8" standalone="no"?>
<!-- Created with Inkscape (http://www.inkscape.org/) -->
<svg id="svg2" xmlns:rdf="http://www.w3.org/1999/02/22-rdf-syntax-ns#" xmlns="http://www.w3.org/2000/svg" height="96" width="96" version="1.1" xmlns:cc="http://creativecommons.org/ns#" xmlns:xlink="http://www.w3.org/1999/xlink" xmlns:dc="http://purl.org/dc/elements/1.1/">
 <defs id="defs4">
  <linearGradient id="linearGradient3613-6" y2="138.66" gradientUnits="userSpaceOnUse" x2="48" y1="20.221" x1="48">
   <stop id="stop3739-73" stop-color="#fff" offset="0"/>
   <stop id="stop3741-93" stop-color="#fff" stop-opacity="0" offset="1"/>
  </linearGradient>
  <clipPath id="clipPath3613-5">
   <rect id="rect3615-80" rx="6" ry="6" height="84" width="84" y="6" x="6" fill="#fff"/>
  </clipPath>
  <filter id="filter3794-72" height="1.384" width="1.384" color-interpolation-filters="sRGB" y="-.192" x="-.192">
   <feGaussianBlur id="feGaussianBlur3796-97" stdDeviation="5.28"/>
  </filter>
  <linearGradient id="linearGradient3825">
   <stop id="stop3827" offset="0"/>
   <stop id="stop3833" offset="0.6"/>
   <stop id="stop3829" stop-opacity="0" offset="1"/>
  </linearGradient>
  <clipPath id="clipPath3613-74">
   <rect id="rect3615-61" rx="6" ry="6" height="84" width="84" y="6" x="6" fill="#fff"/>
  </clipPath>
  <filter id="filter3794-2" height="1.384" width="1.384" color-interpolation-filters="sRGB" y="-.192" x="-.192">
   <feGaussianBlur id="feGaussianBlur3796-74" stdDeviation="5.28"/>
  </filter>
  <linearGradient id="linearGradient14009" y2="5.9877" gradientUnits="userSpaceOnUse" x2="48" gradientTransform="matrix(1.0631 0 0 1.0631 -2.7704 -3.6441)" y1="90" x1="48">
   <stop id="stop3702-0" stop-color="#dcdcdc" offset="0"/>
   <stop id="stop3704-2" stop-color="#f0f0f0" offset="1"/>
  </linearGradient>
  <linearGradient id="linearGradient14028" y2="8" xlink:href="#linearGradient3825" spreadMethod="reflect" gradientUnits="userSpaceOnUse" x2="15" gradientTransform="translate(-98.033 949.91)" y1="48" x1="15"/>
  <linearGradient id="linearGradient14030" y2="8" xlink:href="#linearGradient3825" spreadMethod="reflect" gradientUnits="userSpaceOnUse" x2="15" gradientTransform="matrix(0 1 -1 0 -4.533 952.91)" y1="48" x1="15"/>
  <linearGradient id="linearGradient14034" y2="16" gradientUnits="userSpaceOnUse" x2="32" gradientTransform="translate(-101.03 949.91)" y1="80" x1="32">
   <stop id="stop3924" stop-color="#323232" offset="0"/>
   <stop id="stop3926-3" stop-color="#5a5a5a" offset="1"/>
  </linearGradient>
  <linearGradient id="linearGradient14036" y2="49" gradientUnits="userSpaceOnUse" x2="54" gradientTransform="translate(33.033 949.91)" y1="49" x1="42">
   <stop id="stop3891" stop-color="#464646" offset="0"/>
   <stop id="stop3893" stop-color="#464646" stop-opacity="0" offset="1"/>
  </linearGradient>
  <linearGradient id="linearGradient14038" y2="36" gradientUnits="userSpaceOnUse" x2="45" gradientTransform="translate(-101.03 949.91)" y1="56" x1="45">
   <stop id="stop3947" stop-color="#e66b19" offset="0"/>
   <stop id="stop3949" stop-color="#e69e19" offset="1"/>
  </linearGradient>
 </defs>
 <metadata id="metadata7">
  <rdf:RDF>
   <cc:Work rdf:about="">
    <dc:format>image/svg+xml</dc:format>
    <dc:type rdf:resource="http://purl.org/dc/dcmitype/StillImage"/>
    <dc:title/>
   </cc:Work>
  </rdf:RDF>
 </metadata>
 <g id="layer1" transform="translate(0 -956.36)">
  <rect id="rect5263-0" fill-opacity=".019608" ry="12.724" height="89.978" width="89.624" y="959.35" x="3.3534"/>
  <rect id="rect5261-6" fill-opacity=".039216" ry="12.552" height="88.762" width="88.413" y="959.96" x="3.9589"/>
  <rect id="rect5259-9" fill-opacity=".078431" ry="12.38" height="87.546" width="87.202" y="960.57" x="4.5645"/>
  <rect id="rect5257-5" fill-opacity=".15686" ry="12.208" height="86.33" width="85.991" y="961.18" x="5.1701"/>
  <path id="rect2419-1" d="m17.75 5.4062c-6.642 0-11.969 5.3948-11.969 12.063l0.0002 61.031c0 6.668 5.3268 12.031 11.969 12.031h60.812c6.642 0 11.969-5.363 11.969-12.031v-61.031c0-6.668-5.327-12.063-11.969-12.063l-60.812 0.0002z" transform="translate(0 956.36)" fill="url(#linearGradient14009)"/>
  <path id="rect5265-0" d="m5.7756 1029.8v5.0663c0 6.668 5.3434 12.032 11.985 12.032h60.809c6.6418 0 11.985-5.3645 11.985-12.032v-5.0663c0 6.6681-5.3434 12.032-11.985 12.032h-60.809c-6.6418 0-11.985-5.3643-11.985-12.032z" fill-opacity=".11765"/>
  <path id="path5252-0" d="m5.7756 1033.9v1.0133c0 6.668 5.3434 12.032 11.985 12.032h60.809c6.6418 0 11.985-5.3645 11.985-12.032v-1.0133c0 6.6681-5.3434 12.032-11.985 12.032h-60.809c-6.6418 0-11.985-5.3644-11.985-12.032z" fill-opacity=".098039"/>
  <g id="layer5" transform="translate(-21.881 961.94)">
   <rect id="rect3171" height="66" stroke="#fff" stroke-linecap="round" stroke-width=".5" fill="url(#linearGradient3613-6)" rx="12" ry="12" width="66" opacity=".1" clip-path="url(#clipPath3613-5)" filter="url(#filter3794-72)" y="15" x="15"/>
  </g>
  <g id="g14012" transform="translate(101.74 4.364)">
   <path id="path3811-4" opacity=".1" style="block-progression:tb;text-indent:0;color:#000000;text-transform:none" d="m-83.033 957.91v80h1v-80h-1zm10 0v80h1v-80h-1zm10 0v80h1v-80h-1zm10 0v80h1v-80h-1zm10 0v80h1v-80h-1zm10 0v80h1v-80h-1zm10 0v80h1v-80h-1z" fill="url(#linearGradient14028)"/>
   <path id="path3860" opacity=".1" style="block-progression:tb;text-indent:0;color:#000000;text-transform:none" d="m-12.533 967.91h-80v1h80v-1zm0 10h-80v1h80v-1zm0 10h-80v1h80v-1zm0 10h-80v1h80v-1zm0 10h-80v1h80v-1zm0 10h-80v1h80v-1zm0 10h-80v1h80v-1z" fill="url(#linearGradient14030)"/>
   <g id="layer5-8" transform="translate(-101.03 949.91)">
    <rect id="rect3171-6" height="66" stroke="#fff" stroke-linecap="round" stroke-width=".5" fill="url(#linearGradient3613-6)" rx="12" ry="12" width="66" opacity=".1" clip-path="url(#clipPath3613-74)" filter="url(#filter3794-2)" y="15" x="15"/>
   </g>
   <path id="rect3864" style="color:#000000" d="m-73.033 967.91v6h-4v6.0312h4v35.938h-4v6.0312h4v4h-3l4 8 4-8h-3v-4h18c13.296 0 24-10.704 24-24s-10.704-24-24-24h-18v-6h-2zm2 12.031h18c10.06 0 17.969 7.9089 17.969 17.969s-7.9089 17.969-17.969 17.969h-18v-35.938z" fill="url(#linearGradient14034)"/>
   <rect id="rect3883" style="color:#000000" transform="scale(-1,1)" height="2" width="40" y="997.91" x="47.033" fill="url(#linearGradient14036)"/>
   <path id="path3885" style="color:#000000" d="m-39.033 998.92-8 4v-8z" fill="#464646"/>
   <rect id="rect3897" style="color:#000000" height="6" width="6" y="963.91" x="-75.033" fill="#505050"/>
   <rect id="rect3899" style="color:#000000" height="4" width="4" y="964.91" x="-74.033" fill="#87f042"/>
   <path id="path3941" opacity=".05" style="color:#000000" d="m-59.127 984.95c-0.78567 0.068-1.476 0.5976-1.7468 1.3377-3.2927 6.5957-6.5855 13.192-9.8782 19.787-0.64294 1.0496 0.20841 2.666 1.4688 2.75 2.148 0.072 4.3125 0.011 6.4669 0.031h13.908c1.3114-0.058 2.23-1.6128 1.625-2.7812-0.66878-1.1936-1.2626-2.5084-1.9026-3.7485-2.7652-5.5181-5.5016-11.063-8.2849-16.564-0.4115-0.5032-0.9925-0.8438-1.6562-0.8125zm0.09375 13.25c0.63542 1.2604 1.2708 2.5209 1.9062 3.7813h-3.8125c0.63542-1.2604 1.2708-2.5209 1.9062-3.7813z"/>
   <path id="path3937" opacity=".1" style="color:#000000" d="m-59.221 985.98a0.94282 0.94282 0 0 0 -0.65625 0.5312l-10 20a0.94282 0.94282 0 0 0 0.84375 1.3437h20a0.94282 0.94282 0 0 0 0.84375 -1.3437l-10-20a0.94282 0.94282 0 0 0 -1.0312 -0.5312zm0.1875 10.031 3.5 6.9688h-7l3.5-6.9688z"/>
   <path id="path3933" opacity=".3" style="color:#000000" d="m-59.033 986.92-10 20h20l-10-20zm0 7 5 10h-10l5-10z"/>
   <path id="path3901" style="color:#000000" d="m-59.033 985.92-10 20h20l-10-20zm0 7 5 10h-10l5-10z" fill="url(#linearGradient14038)"/>
   <path id="path3953" opacity=".5" style="color:#000000" d="m-59.033 985.92-10 20h0.5l9.5-19 9.5 19h0.5l-10-20zm-4.5 17-0.5 1h10l-0.5-1h-9z" fill="#fc0"/>
  </g>
 </g>
</svg>
