<?xml version="1.0" encoding="UTF-8" standalone="no"?>
<!-- Created with Inkscape (http://www.inkscape.org/) -->
<svg id="svg2" xmlns:rdf="http://www.w3.org/1999/02/22-rdf-syntax-ns#" xmlns="http://www.w3.org/2000/svg" height="96" width="96" version="1.1" xmlns:cc="http://creativecommons.org/ns#" xmlns:xlink="http://www.w3.org/1999/xlink" xmlns:dc="http://purl.org/dc/elements/1.1/">
 <defs id="defs4">
  <linearGradient id="linearGradient4281">
   <stop id="stop4283" stop-color="#f6e5ed" offset="0"/>
   <stop id="stop4285" stop-color="#9f275f" offset="1"/>
  </linearGradient>
  <filter id="filter4039" color-interpolation-filters="sRGB">
   <feGaussianBlur id="feGaussianBlur4041" stdDeviation="2.4"/>
  </filter>
  <radialGradient id="radialGradient6749" gradientUnits="userSpaceOnUse" cy="66.105" cx="52" gradientTransform="matrix(1.0929 -.0068185 .011785 1.8889 -5.7871 895.19)" r="30">
   <stop id="stop4018" stop-color="#8c7bbd" offset="0"/>
   <stop id="stop4024" stop-color="#150641" offset="1"/>
  </radialGradient>
  <linearGradient id="linearGradient6751" y2="5.9877" gradientUnits="userSpaceOnUse" x2="48" gradientTransform="matrix(1.0673 0 0 1.0673 -3.2796 -3.313)" y1="90" x1="48">
   <stop id="stop3793" stop-color="#36326c" offset="0"/>
   <stop id="stop3795" stop-color="#6d6aaf" offset="1"/>
  </linearGradient>
  <linearGradient id="linearGradient6754" y2="48" gradientUnits="userSpaceOnUse" x2="90" gradientTransform="translate(-.17970 953.6)" y1="48" x1="6">
   <stop id="stop3921-8" stop-color="#aaf" offset="0"/>
   <stop id="stop3923-2" stop-color="#aaf" stop-opacity="0" offset="1"/>
  </linearGradient>
  <linearGradient id="linearGradient6756" y2="48" gradientUnits="userSpaceOnUse" x2="56.04" gradientTransform="translate(-.17970 955.6)" y1="48" x1="6">
   <stop id="stop3017" offset="0"/>
   <stop id="stop3019" stop-opacity="0" offset="1"/>
  </linearGradient>
  <radialGradient id="radialGradient6758" fx="8.0649" fy="11.953" xlink:href="#linearGradient4281" gradientUnits="userSpaceOnUse" cy="12.516" cx="10.367" gradientTransform="matrix(2.1784 2.0857 -1.4669 1.6209 17.003 939.78)" r="20.571"/>
 </defs>
 <metadata id="metadata7">
  <rdf:RDF>
   <cc:Work rdf:about="">
    <dc:format>image/svg+xml</dc:format>
    <dc:type rdf:resource="http://purl.org/dc/dcmitype/StillImage"/>
    <dc:title/>
   </cc:Work>
  </rdf:RDF>
 </metadata>
 <g id="layer1" transform="translate(0 -956.36)">
  <rect id="rect5263-0" fill-opacity=".019608" ry="12.724" height="89.978" width="89.624" y="959.35" x="3.3534"/>
  <rect id="rect5261-6" fill-opacity=".039216" ry="12.552" height="88.762" width="88.413" y="959.96" x="3.9589"/>
  <rect id="rect5259-9" fill-opacity=".078431" ry="12.38" height="87.546" width="87.202" y="960.57" x="4.5645"/>
  <rect id="rect5257-5" fill-opacity=".15686" ry="12.208" height="86.33" width="85.991" y="961.18" x="5.1701"/>
  <path id="rect2419" d="m17.75 5.4062c-6.642 0-11.969 5.3948-11.969 12.063l0.0002 61.031c0 6.668 5.3268 12.031 11.969 12.031h60.812c6.642 0 11.969-5.363 11.969-12.031v-61.031c0-6.668-5.327-12.063-11.969-12.063l-60.812 0.0002z" transform="translate(0 956.36)" fill="url(#linearGradient6751)"/>
  <path id="rect5265-0" d="m5.7756 1029.8v5.0663c0 6.668 5.3434 12.032 11.985 12.032h60.809c6.6418 0 11.985-5.3645 11.985-12.032v-5.0663c0 6.6681-5.3434 12.032-11.985 12.032h-60.809c-6.6418 0-11.985-5.3643-11.985-12.032z" fill-opacity=".18957"/>
  <path id="path5252-0" d="m5.7756 1033.9v1.0133c0 6.668 5.3434 12.032 11.985 12.032h60.809c6.6418 0 11.985-5.3645 11.985-12.032v-1.0133c0 6.6681-5.3434 12.032-11.985 12.032h-60.809c-6.6418 0-11.985-5.3644-11.985-12.032z" fill-opacity=".098039"/>
  <path id="path3015" d="m73.82 1001.6a30 30 0 0 1 -60 0 30 30 0 1 1 60 0z" filter="url(#filter4039)" fill="url(#radialGradient6758)"/>
  <path id="path4043" d="m73.82 1001.6a30 30 0 0 1 -60 0 30 30 0 1 1 60 0z" fill="url(#radialGradient6758)"/>
  <path id="path3908" opacity=".1" d="m52.758 970.47c-1.0058-0.0294-2.1809-0.009-3.1875 0.0625-1.0054 0.0714-2.2244 0.20342-3.2188 0.375-0.97586 0.1684-2.1369 0.41306-3.125 0.6875-0.98714 0.27416-2.1072 0.67188-3.0312 1.0312-0.92497 0.35975-2.0565 0.81675-2.9688 1.2812-0.91003 0.46336-1.944 1.0872-2.7812 1.625-0.84923 0.5455-1.8048 1.2486-2.5938 1.875-0.77696 0.61682-1.7032 1.3803-2.4375 2.0938-0.72298 0.70249-1.5377 1.6031-2.1875 2.375-0.64936 0.77134-1.3689 1.7309-1.9375 2.5625-0.57003 0.83371-1.2051 1.8663-1.6875 2.75-0.48762 0.89322-1.0174 1.9857-1.4062 2.9062-0.39135 0.92647-0.79574 2.0354-1.0938 3-0.29404 0.95173-0.61031 2.0944-0.8125 3.0938-0.20422 1.0094-0.33929 2.236-0.4375 3.2188-0.10001 1.0007-0.15668 2.1776-0.15625 3.1874 0.00025 0.9702 0.026 2.1226 0.125 3.125 0.0986 0.9988 0.27807 2.1988 0.46875 3.1563 0.18961 0.9521 0.45713 2.0977 0.75 3.0625 0.28982 0.9546 0.68763 2.0329 1.0625 2.9375 0.37821 0.9125 0.90688 1.9995 1.375 2.875 0.46836 0.8758 1.047 1.8695 1.5938 2.6875 0.54364 0.8133 1.2396 1.7885 1.875 2.5625 0.63583 0.7745 1.4655 1.6219 2.1562 2.3125 0.69035 0.6901 1.5374 1.5202 2.3125 2.1562 0.77366 0.6348 1.7485 1.3312 2.5625 1.875 0.81759 0.5462 1.811 1.1253 2.6875 1.5938 0.89335 0.4774 1.9819 0.9738 2.875 1.3437 0.90407 0.3744 1.9822 0.7728 2.9375 1.0625 0.94264 0.2859 2.0871 0.5873 3.0625 0.7813 0.97963 0.1948 2.1802 0.3413 3.1562 0.4375 0.97853 0.096 2.1307 0.1562 3.125 0.1562 0.99434 0 2.1465-0.06 3.125-0.1562 0.97609-0.096 2.1766-0.2427 3.1562-0.4375 0.97543-0.194 2.1199-0.4954 3.0625-0.7813 0.95533-0.2897 2.0334-0.6881 2.9375-1.0625 0.8931-0.3699 1.9816-0.8663 2.875-1.3437 0.87651-0.4685 1.8699-1.0476 2.6875-1.5938 0.81397-0.5438 1.7888-1.2402 2.5625-1.875 0.77515-0.636 1.6222-1.4661 2.3125-2.1562 0.69077-0.6906 1.5204-1.538 2.1562-2.3125 0.63535-0.774 1.3314-1.7492 1.875-2.5625 0.54672-0.818 1.1254-1.8117 1.5938-2.6875 0.46812-0.8755 0.99679-1.9625 1.375-2.875 0.37487-0.9046 0.77268-1.9829 1.0625-2.9375 0.29287-0.9648 0.56039-2.1104 0.75-3.0625 0.19068-0.9575 0.37013-2.1575 0.46875-3.1563 0.099-1.0024 0.12475-2.1548 0.125-3.125 0.00041-0.9576-0.0306-2.1125-0.125-3.0937-0.0938-0.97437-0.25361-2.1182-0.4375-3.0624-0.18564-0.9533-0.47275-2.0978-0.75-3.0312-0.27299-0.91914-0.63094-1.9957-1-2.9062-0.37122-0.91585-0.90134-1.9657-1.3438-2.8125-0.44418-0.85014-0.99392-1.8635-1.5312-2.6875-0.53365-0.81837-1.2104-1.7154-1.8125-2.4688-0.6129-0.76694-1.3923-1.6534-2.0625-2.3438-0.65853-0.67832-1.4902-1.4801-2.25-2.125-0.74695-0.63403-1.6472-1.3256-2.4375-1.875-0.80374-0.55869-1.814-1.1839-2.6562-1.6562-0.8358-0.46867-1.8501-0.97885-2.75-1.375-0.90064-0.39647-1.9948-0.82468-2.9062-1.125-0.93245-0.30725-2.0324-0.56997-2.9688-0.78125-0.93565-0.21112-2.0873-0.43942-3.0625-0.5625-0.97472-0.12302-2.1328-0.19071-3.0938-0.21875z"/>
  <path id="path3898" opacity=".3" d="m81.82 1002.6a30 30 0 0 1 -60 0 30 30 0 1 1 60 0z"/>
  <path id="path3904" opacity=".15" d="m52.727 971.53c-0.964-0.0281-2.1318-0.006-3.0938 0.0625-0.96199 0.0683-2.1434 0.21101-3.0938 0.375-0.95036 0.164-2.102 0.39817-3.0312 0.65625-0.92923 0.25808-2.0387 0.65042-2.9375 1-0.89882 0.34958-1.9843 0.81242-2.8438 1.25-0.85942 0.43759-1.8761 1.0413-2.6875 1.5625-0.81143 0.52122-1.7759 1.2129-2.5312 1.8125-0.75532 0.59964-1.6521 1.3592-2.3438 2.0312-0.69167 0.67207-1.5039 1.5435-2.125 2.2812-0.6211 0.73778-1.3307 1.6726-1.875 2.4688-0.54432 0.79611-1.1629 1.8098-1.625 2.6562-0.46211 0.84649-0.96848 1.9241-1.3438 2.8125-0.37527 0.8884-0.77782 1.9848-1.0625 2.9062-0.28468 0.92143-0.59001 2.0548-0.78125 3-0.19124 0.94525-0.34161 2.1341-0.4375 3.0937-0.0959 0.95964-0.15666 2.1293-0.15625 3.0937 0.00024 0.9464 0.032 2.0894 0.125 3.0313 0.093 0.9418 0.2839 2.103 0.46875 3.0312s0.44383 2.0632 0.71875 2.9688 0.6689 1.9694 1.0312 2.8437c0.36235 0.8743 0.86622 1.9467 1.3125 2.7813 0.44628 0.8345 1.0366 1.8069 1.5625 2.5937 0.52593 0.7868 1.212 1.7373 1.8125 2.4688 0.60051 0.7315 1.3932 1.5808 2.0625 2.25 0.6693 0.6691 1.5183 1.4621 2.25 2.0625 0.73166 0.6003 1.6818 1.2867 2.4688 1.8125 0.78697 0.5257 1.759 1.1164 2.5938 1.5625 0.8347 0.446 1.9068 0.9191 2.7812 1.2812s1.9381 0.7566 2.8438 1.0313c0.90568 0.2746 2.0405 0.5654 2.9688 0.75 0.92824 0.1846 2.0894 0.3447 3.0312 0.4375 0.94186 0.093 2.0848 0.1562 3.0312 0.1562 0.94642 0 2.0894-0.063 3.0312-0.1562 0.94186-0.093 2.103-0.2529 3.0312-0.4375 0.92824-0.1846 2.0631-0.4754 2.9688-0.75 0.90568-0.2747 1.9694-0.6692 2.8438-1.0313s1.9466-0.8352 2.7812-1.2812c0.8347-0.4461 1.8068-1.0368 2.5938-1.5625 0.78697-0.5258 1.7371-1.2122 2.4688-1.8125 0.73166-0.6004 1.5807-1.3934 2.25-2.0625 0.6693-0.6692 1.462-1.5185 2.0625-2.25 0.60051-0.7315 1.2866-1.682 1.8125-2.4688 0.52593-0.7868 1.1162-1.7592 1.5625-2.5937 0.44628-0.8346 0.95015-1.907 1.3125-2.7813s0.75633-1.9381 1.0312-2.8437c0.27492-0.9056 0.5339-2.0406 0.71875-2.9688s0.37576-2.0894 0.46875-3.0312c0.093-0.9419 0.12476-2.0849 0.125-3.0313 0.00039-0.9293-0.036-2.075-0.125-2.9999-0.089-0.92496-0.25988-2.0254-0.4375-2.9375-0.17762-0.91211-0.45418-2.0467-0.71875-2.9375-0.26457-0.89079-0.61969-1.9513-0.96875-2.8125s-0.85094-1.8951-1.2812-2.7188c-0.43032-0.82361-0.99243-1.8154-1.5-2.5938-0.50757-0.77838-1.1699-1.6803-1.75-2.4062-0.58012-0.72592-1.3527-1.5833-2-2.25-0.64728-0.66673-1.4478-1.4612-2.1562-2.0625-0.70844-0.60135-1.612-1.2821-2.375-1.8125-0.76302-0.53038-1.752-1.1392-2.5625-1.5938-0.81052-0.4545-1.8058-0.96935-2.6562-1.3438-0.85049-0.3744-1.9299-0.77169-2.8125-1.0625-0.88257-0.29081-1.9685-0.57671-2.875-0.78125-0.90646-0.20454-2.0156-0.41489-2.9375-0.53125-0.92193-0.11636-2.0712-0.19165-3-0.21875z"/>
  <path id="path3880" d="m81.82 1001.6a30 30 0 0 1 -60 0 30 30 0 1 1 60 0z" fill="url(#radialGradient6749)"/>
  <path id="path4028" opacity=".15" d="m79.008 1000.3a27.214 27.214 0 0 1 -54.375 0.4688 27.214 27.214 0 0 0 -0.0313 0.8125 27.219 27.219 0 0 0 54.438 0 27.214 27.214 0 0 0 -0.0313 -1.2813z" fill="#fff"/>
  <path id="path4001" d="m52.695 971.6a30 30 0 0 0 -30.875 30 30 30 0 0 0 60 0 30 30 0 0 0 -29.125 -30zm-0.0313 1.25a28.741 28.741 0 0 1 27.906 28.75 28.75 28.75 0 0 1 -57.5 0 28.741 28.741 0 0 1 29.594 -28.75z" fill="#251650"/>
  <path id="path3927" opacity=".2" style="color:#000000" d="m5.8203 991.6v1h84v-1h-84zm0 2v1h84v-1h-84zm0 4v1h84v-1h-84zm0 2v0.99994h84v-0.99994h-84zm0 3.9999v1h84v-1h-84zm0 2v1h84v-1h-84zm0 4v1h84v-1h-84zm0 2v1h84v-1h-84z" fill="url(#linearGradient6756)"/>
  <path id="rect3910" style="color:#000000" d="m5.8203 992.6v1h84v-1h-84zm0 6v0.99999h84v-0.99999h-84zm0 5.9999v1h84v-1h-84zm0 6v1h84v-1h-84z" fill="url(#linearGradient6754)"/>
 </g>
</svg>
