<?xml version="1.0" encoding="UTF-8" standalone="no"?>
<!-- Created with Inkscape (http://www.inkscape.org/) -->
<svg id="svg2" xmlns:rdf="http://www.w3.org/1999/02/22-rdf-syntax-ns#" xmlns="http://www.w3.org/2000/svg" height="96" width="96" version="1.1" xmlns:cc="http://creativecommons.org/ns#" xmlns:xlink="http://www.w3.org/1999/xlink" xmlns:dc="http://purl.org/dc/elements/1.1/">
 <defs id="defs4">
  <linearGradient id="linearGradient3061" y2="5.9877" gradientUnits="userSpaceOnUse" x2="48" gradientTransform="matrix(1.0952 0 0 1.0952 -4.6321 -3.2315)" y1="90" x1="48">
   <stop id="stop3702-4-5" stop-color="#2b930b" offset="0"/>
   <stop id="stop3704-4-1" stop-color="#67d441" offset="1"/>
  </linearGradient>
  <clipPath id="clipPath2973">
   <rect id="rect2975" rx="6" ry="6" height="84" width="84" y="6" x="6" fill="url(#linearGradient2977)"/>
  </clipPath>
  <linearGradient id="linearGradient3700-09">
   <stop id="stop3702-67" stop-color="#70a83e" offset="0"/>
   <stop id="stop3704-18" stop-color="#9fd058" offset="1"/>
  </linearGradient>
  <linearGradient id="linearGradient9745" y2="5.9877" xlink:href="#linearGradient3700-09" gradientUnits="userSpaceOnUse" x2="48" gradientTransform="translate(-169.06 968.2)" y1="90" x1="48"/>
 </defs>
 <metadata id="metadata7">
  <rdf:RDF>
   <cc:Work rdf:about="">
    <dc:format>image/svg+xml</dc:format>
    <dc:type rdf:resource="http://purl.org/dc/dcmitype/StillImage"/>
    <dc:title/>
   </cc:Work>
  </rdf:RDF>
 </metadata>
 <g id="layer1" transform="translate(0 -956.36)">
  <rect id="rect5263-0" fill-opacity=".019608" ry="12.724" height="89.978" width="89.624" y="959.35" x="3.3534"/>
  <rect id="rect5261-6" fill-opacity=".039216" ry="12.552" height="88.762" width="88.413" y="959.96" x="3.9589"/>
  <rect id="rect5259-9" fill-opacity=".078431" ry="12.38" height="87.546" width="87.202" y="960.57" x="4.5645"/>
  <rect id="rect5257-5" fill-opacity=".15686" ry="12.208" height="86.33" width="85.991" y="961.18" x="5.1701"/>
  <path id="rect2419" d="m17.75 5.4062c-6.642 0-11.969 5.3948-11.969 12.063l0.0002 61.031c0 6.668 5.3268 12.031 11.969 12.031h60.812c6.642 0 11.969-5.363 11.969-12.031v-61.031c0-6.668-5.327-12.063-11.969-12.063l-60.812 0.0002z" transform="translate(0 956.36)" fill="url(#linearGradient3061)"/>
  <path id="rect5265-0" d="m5.7756 1029.8v5.0663c0 6.668 5.3434 12.032 11.985 12.032h60.809c6.6418 0 11.985-5.3645 11.985-12.032v-5.0663c0 6.6681-5.3434 12.032-11.985 12.032h-60.809c-6.6418 0-11.985-5.3643-11.985-12.032z" fill-opacity=".18957"/>
  <path id="path5252-0" d="m5.7756 1033.9v1.0133c0 6.668 5.3434 12.032 11.985 12.032h60.809c6.6418 0 11.985-5.3645 11.985-12.032v-1.0133c0 6.6681-5.3434 12.032-11.985 12.032h-60.809c-6.6418 0-11.985-5.3644-11.985-12.032z" fill-opacity=".098039"/>
  <rect id="rect4772" display="none" height="107.79" width="107.79" y="971.68" x="-369.64" fill="none"/>
  <g id="g4788" display="none" transform="matrix(.21052 0 0 .21052 -369.68 971.63)"></g>
  <g id="g4806" display="none" transform="matrix(.21052 0 0 .21052 -369.68 971.63)">
   <g id="g4808" display="inline">
    <path id="path4810" d="m349.1 256.65c-0.265-0.254 37.637 27.605 39.421 25.012 6.362-9.252 82.046-93.137 84.784-116.24 0.242-2.003-0.516-4.096-0.516-4.096s-1.19-0.144-6.325-4.314c-2.692-2.192-5.483-4.581-5.483-4.581-16.054 0.998-57.885 41.559-111.06 103.57" fill="#050505" display="none"/>
   </g>
  </g>
  <g id="g4796" transform="matrix(.21052 0 0 .21052 -369.68 971.63)"></g>
  <g id="g3855" opacity=".9" clip-path="url(#clipPath2973)" transform="matrix(1 0 0 .94949 -.32323 956.18)" fill="#dcffaa">
   <path id="path3819-6" opacity=".15" d="m48 48 24-56h16l-40 56z"/>
   <path id="path3821" opacity=".15" d="m48 48 55.25 25.677-0.48 15.993-54.77-41.67z"/>
   <path id="path3823" opacity=".15" d="m48 48-59.828 11.516-8.969-13.25 68.797 1.734z"/>
   <path id="path3825" opacity=".15" d="m48 48-49.311-35.783 3.5359-15.604 45.775 51.387z"/>
   <path id="path3827" opacity=".15" d="m48 48 17.519-62.073 30.436 12.714-47.955 49.359z"/>
   <path id="path3829" opacity=".15" d="m48 48 61.64-19.001 5.85 32.461-67.49-13.46z"/>
   <path id="path3831" opacity=".15" d="m48 48-31.246 56.42-26.723-19.331 57.969-37.089z"/>
   <path id="path3833" opacity=".15" d="m48 48-62.812-14.651 11.304-30.988 51.508 45.639z"/>
   <path id="path3835" opacity=".15" d="m48 48 45.81 45.403-3.692 9.027-42.118-54.43z"/>
   <path id="path3837" opacity=".15" d="m48 48-2.9701 64.43-9.1685 3.31l12.138-67.74z"/>
   <path id="path3839" opacity=".15" d="m48 48-44.859 46.343-9.0649-3.585 53.924-42.758z"/>
   <path id="path3841" opacity=".15" d="m48 48-62.116 17.366-6.016-7.67 68.132-9.696z"/>
   <path id="path3843" opacity=".15" d="m48 48-29.147-57.537 6.35-7.396 22.797 64.933z"/>
   <path id="path3845" opacity=".15" d="m48 48 59.482-24.939 6.921 6.8641-66.403 18.074z"/>
   <path id="path3849" opacity=".15" d="m48 48 40.187 45.793-6.897 14.437-33.29-60.23z"/>
   <path id="path3851" opacity=".15" d="m48 48-35.958-49.184 8.152-13.767 27.806 62.951z"/>
  </g>
  <rect id="rect3873" rx="6" ry="6" height="84" width="84" display="none" y="974.2" x="-163.06" fill="url(#linearGradient9745)"/>
  <rect id="rect3880" rx="6" ry="6" height="84" width="84" display="none" y="974.2" x="-163.06" fill="url(#linearGradient9745)"/>
  <g id="layer4" transform="translate(-.32323 955.88)">
   <path id="path3780" opacity=".05" d="m65.906 20.156c-0.86051 0.02442-1.6387 0.12252-2.2812 0.0625a1.0822 1.0822 0 0 0 -0.094 -0.03c-4.614 0.043-9.297-0.088-13.969 0.062a1.0822 1.0822 0 0 0 -0.53125 0.15625c-0.04339-0.0082-0.1173-0.01527-0.28125-0.0625-0.20298-0.05848-0.46582-0.1427-0.84375-0.15625-0.24063-0.0086-0.53426 0.14792-0.8125 0.25v-0.0625c-0.13596 0.02124-0.50822-0.04112-1-0.125-0.43345-0.07393-1.005-0.1166-1.625-0.03125v-0.03125c-5.415 0.043-10.882-0.086-16.344 0.063a1.0822 1.0822 0 0 0 -0.53125 0.1875c-0.20241-0.07891-0.71335-0.34423-1.4062-0.21875-0.01506 0.0027-0.01606-0.0031-0.03125 0-1.2515 0.2396-2.056 1.1597-2.5625 1.9688-0.51059 0.81557-0.86434 1.5902-1.2188 2.0312a1.0822 1.0822 0 0 0 -0.09375 0.125c-2.336 3.8822-4.8655 7.7113-7.125 11.719a1.0822 1.0822 0 0 0 -0.0625 0.09375c-0.34173 0.79416-0.11644 1.5282-0.03125 1.875 0.08519 0.34678 0.084 0.21865 0.0625 0.25a1.0822 1.0822 0 0 0 -0.156 0.468c-0.16863 1.2272 0.40329 2.2441 0.96875 2.9688 0.56546 0.72462 1.1393 1.2938 1.4062 1.75a1.0822 1.0822 0 0 0 0.09375 0.125c8.8713 11.4 17.756 22.79 26.625 34.188 0.65137 0.82942 1.6748 1.021 2.3438 1 0.66894-0.02095 1.1459-0.0773 1.3125-0.03125a1.0822 1.0822 0 0 0 0.5625 0c0.16663-0.04605 0.64356 0.0103 1.3125 0.03125s1.6924-0.17058 2.3438-1c9.557-12.325 19.209-24.604 28.718-36.97a1.0822 1.0822 0 0 0 0.03125 -0.03125c0.54266-0.74137 0.3977-1.6105 0.28125-2.0625-0.11645-0.45197-0.05317-0.56734-0.125-0.40625a1.0822 1.0822 0 0 0 0.032 -0.093c0.429-1.235-0.027-2.397-0.531-3.219-0.505-0.822-1.064-1.482-1.282-1.969a1.0822 1.0822 0 0 0 -0.09375 -0.125c-2.432-3.853-4.728-7.842-7.28-11.687a1.0822 1.0822 0 0 0 -0.126 -0.157c-0.547-0.569-1.278-0.811-1.937-0.843-0.5-0.025-0.943 0.13-1.375 0.281-0.808-0.239-1.619-0.364-2.344-0.344z"/>
   <path id="path3773" opacity=".1" d="m26.375 21.281c-1.7547 0.31886-2.157 2.3836-3.1459 3.6142-2.353 3.9103-4.9021 7.7375-7.1354 11.698-0.35135 0.81653 0.45967 1.5511-0.0625 2.3125-0.23011 1.6746 1.499 2.7145 2.262 4.0187 8.871 11.401 17.744 22.802 26.613 34.201 0.819 1.043 2.077 0.313 3.094 0.594 1.017-0.281 2.275 0.449 3.094-0.594 9.56-12.328 19.214-24.609 28.718-36.969 0.568-0.775-0.267-1.612 0.032-2.281 0.581-1.676-1.139-2.978-1.773-4.394-2.447-3.876-4.762-7.859-7.29-11.669-0.66127-0.68794-1.7387-0.61242-2.5-0.25-1.4741-0.59922-3.1846-0.13452-4.7554-0.28125-4.6412 0.04351-9.3038-0.08585-13.932 0.0625-0.71272 0.5416-1.5456-0.46734-2.3438 0.09375-0.82069 0.12822-1.8186-0.3617-2.7719-0.15625-5.4379 0.04312-10.897-0.0853-16.322 0.0625-0.6321 0.52031-1.0496-0.21158-1.7812-0.0625z"/>
   <path id="path3769" opacity=".15" d="m26.5 22.5a0.77274 0.77274 0 0 0 -0.59375 0.375l-8.562 13.875a0.77274 0.77274 0 0 0 0.656 1.188h17.156a0.77274 0.77274 0 0 0 0.656 -1.188l-8.593-13.875a0.77274 0.77274 0 0 0 -0.719 -0.375zm2.1562 0a0.77274 0.77274 0 0 0 -0.59375 1.1875l8.5625 13.875a0.77274 0.77274 0 0 0 1.3125 0l8.564-13.875a0.77274 0.77274 0 0 0 -0.656 -1.188h-17.125a0.77274 0.77274 0 0 0 -0.0625 0zm19.281 0a0.77274 0.77274 0 0 0 -0.59375 0.375l-8.5625 13.875a0.77274 0.77274 0 0 0 0.65625 1.1875h17.125a0.77274 0.77274 0 0 0 0.658 -1.188l-8.563-13.875a0.77274 0.77274 0 0 0 -0.718 -0.375zm2.1562 0a0.77274 0.77274 0 0 0 -0.593 1.188l8.5625 13.875a0.77274 0.77274 0 0 0 1.3125 0l8.5625-13.875a0.77274 0.77274 0 0 0 -0.655 -1.188h-17.125a0.77274 0.77274 0 0 0 -0.0625 0zm19.281 0a0.77274 0.77274 0 0 0 -0.59375 0.375l-8.592 13.875a0.77274 0.77274 0 0 0 0.65625 1.1875h17.156a0.77274 0.77274 0 0 0 0.656 -1.188l-8.562-13.875a0.77274 0.77274 0 0 0 -0.719 -0.375zm-51.438 16a0.77274 0.77274 0 0 0 -0.561 1.25l28.344 36.438a0.77274 0.77274 0 0 0 1.375 -0.688l-10.125-36.438a0.77274 0.77274 0 0 0 -0.75 -0.562h-18.219a0.77274 0.77274 0 0 0 -0.0625 0zm20.344 0a0.77274 0.77274 0 0 0 -0.6875 0.96875l9.658 36.437a0.77274 0.77274 0 0 0 1.5 0l9.6562-36.438a0.77274 0.77274 0 0 0 -0.75 -0.968h-19.312a0.77274 0.77274 0 0 0 -0.0625 0zm21.438 0a0.77274 0.77274 0 0 0 -0.6875 0.5625l-10.124 36.438a0.77274 0.77274 0 0 0 1.375 0.6875l28.344-36.438a0.77274 0.77274 0 0 0 -0.625 -1.25h-18.219a0.77274 0.77274 0 0 0 -0.0625 0z"/>
   <path id="path2993" opacity=".3" d="m26.562 23.281-8.562 13.875h17.156l-8.5938-13.875zm2.1562 0 8.5625 13.875 8.5625-13.875h-17.125zm19.281 0-8.5625 13.875h17.125l-8.561-13.875zm2.1562 0 8.5625 13.875 8.5625-13.875h-17.125zm19.281 0-8.5938 13.875h17.156l-8.5625-13.875zm-51.438 16 28.344 36.438-10.125-36.438h-18.219zm20.344 0 9.6562 36.438 9.6562-36.438h-19.312zm21.438 0-10.125 36.438l28.345-36.438h-18.219z"/>
   <path id="path2990" d="m26.562 22.281-8.562 13.875h17.156l-8.5938-13.875zm2.1562 0 8.5625 13.875 8.5625-13.875h-17.125zm19.281 0-8.5625 13.875h17.125l-8.561-13.875zm2.1562 0 8.5625 13.875 8.5625-13.875h-17.125zm19.281 0-8.5938 13.875h17.156l-8.5625-13.875zm-51.438 16 28.344 36.438-10.125-36.438h-18.219zm20.344 0 9.6562 36.438 9.6562-36.438h-19.312zm21.438 0-10.125 36.438l28.345-36.438h-18.219z" fill="#fff"/>
  </g>
 </g>
</svg>
