<?xml version="1.0" encoding="UTF-8" standalone="no"?>
<!-- Created with Inkscape (http://www.inkscape.org/) -->
<svg id="svg2" xmlns:rdf="http://www.w3.org/1999/02/22-rdf-syntax-ns#" xmlns="http://www.w3.org/2000/svg" height="96" width="96" version="1.1" xmlns:cc="http://creativecommons.org/ns#" xmlns:xlink="http://www.w3.org/1999/xlink" xmlns:dc="http://purl.org/dc/elements/1.1/">
 <defs id="defs4">
  <linearGradient id="linearGradient3700-09">
   <stop id="stop3702-67" stop-color="#70a83e" offset="0"/>
   <stop id="stop3704-18" stop-color="#9fd058" offset="1"/>
  </linearGradient>
  <linearGradient id="linearGradient9745" y2="5.9877" xlink:href="#linearGradient3700-09" gradientUnits="userSpaceOnUse" x2="48" gradientTransform="translate(-169.06 968.2)" y1="90" x1="48"/>
  <linearGradient id="linearGradient4888">
   <stop id="stop4890" stop-color="#2c6128" offset="0"/>
   <stop id="stop4892" stop-color="#2c6128" stop-opacity="0" offset="1"/>
  </linearGradient>
  <linearGradient id="linearGradient4391">
   <stop id="stop4393" stop-color="#fff" offset="0"/>
   <stop id="stop4395-4" stop-color="#fff" stop-opacity="0" offset="1"/>
  </linearGradient>
  <linearGradient id="linearGradient4813">
   <stop id="stop4815" stop-color="#1b538d" offset="0"/>
   <stop id="stop4817" stop-color="#1b538d" stop-opacity="0" offset="1"/>
  </linearGradient>
  <clipPath id="clipPath4713">
   <path id="path4715" opacity=".6" style="color:#000000" d="m12.438 22.469c-1.108 0-2 0.892-2 2v41.75c0 1.108 0.892 2 2 2h70c1.108 0 2-0.892 2-2v-41.75c0-1.108-0.892-2-2-2h-70zm10.938 26.688h24.812l-3.469 8.843-0.094 0.219-0.219 0.093s-2.7538 0.78502-6.25 1.125-7.7717 0.2465-10.844-1.625l-0.124-0.062-0.063-0.156c-0.32773-0.79479-0.37487-1.9481-0.34375-3.1875-0.27542 0.05906-0.46841 0.13113-1 0.15625-0.40624 0.0192-0.83481 0.02175-1.25-0.09375s-0.8716-0.3682-1.0938-0.8125l-0.03125-0.09375v-0.09375c-0.131-1.555-0.135-2.987-0.031-4.312z" stroke-dashoffset="8.6" stroke="#f0f" stroke-linecap="round" fill="#f0f"/>
  </clipPath>
  <filter id="filter4920" color-interpolation-filters="sRGB">
   <feGaussianBlur id="feGaussianBlur4922" stdDeviation="0.4564276"/>
  </filter>
  <linearGradient id="linearGradient14455" y2="5.9877" gradientUnits="userSpaceOnUse" x2="48" gradientTransform="matrix(1.0558 0 0 1.0558 -2.8461 -4.0196)" y1="90" x1="48">
   <stop id="stop3702-2" stop-color="#2276c5" offset="0"/>
   <stop id="stop3704-96" stop-color="#68baf4" offset="1"/>
  </linearGradient>
  <linearGradient id="linearGradient14484" y2="33.73" xlink:href="#linearGradient4813" gradientUnits="userSpaceOnUse" x2="60.798" gradientTransform="matrix(1.2819 0 0 1.2819 -12.601 950.38)" y1="64.71" x1="60.798"/>
  <linearGradient id="linearGradient14511" y2="33.541" xlink:href="#linearGradient4888" gradientUnits="userSpaceOnUse" x2="34.554" gradientTransform="matrix(1.2819 0 0 1.2819 -12.601 950.38)" y1="59.36" x1="34.554"/>
  <linearGradient id="linearGradient14519" y2="47.671" gradientUnits="userSpaceOnUse" x2="76.789" y1="47.671" x1="19.018">
   <stop id="stop4914" stop-color="#f9a842" offset="0"/>
   <stop id="stop4916" stop-color="#f9be42" offset="1"/>
  </linearGradient>
  <radialGradient id="radialGradient14564" xlink:href="#linearGradient4391" gradientUnits="userSpaceOnUse" cy="42.187" cx="56.271" gradientTransform="matrix(1.5705e-7 2.8655 -2.613 1.6651e-7 169.95 837.79)" r="9.7675"/>
  <linearGradient id="linearGradient14573" y2="39.576" gradientUnits="userSpaceOnUse" x2="54.166" gradientTransform="matrix(1.3006 0 0 1.3006 -13.466 947.65)" y1="59.936" x1="55.476">
   <stop id="stop4357" stop-color="#1a4a7f" offset="0"/>
   <stop id="stop4359" stop-color="#1a4a7f" stop-opacity="0" offset="1"/>
  </linearGradient>
  <linearGradient id="linearGradient14576" y2="37.499" gradientUnits="userSpaceOnUse" x2="42.846" gradientTransform="matrix(1.3006 0 0 1.3006 -13.466 947.65)" y1="53.947" x1="69.538">
   <stop id="stop4365" stop-color="#1c508a" offset="0"/>
   <stop id="stop4367" stop-color="#438dc6" offset="1"/>
  </linearGradient>
  <linearGradient id="linearGradient14581" y2="49.747" gradientUnits="userSpaceOnUse" x2="98.411" gradientTransform="matrix(1.3006 0 0 1.3006 -52.484 947.65)" y1="47.44" x1="72.557">
   <stop id="stop4343" stop-color="#5aa6c8" offset="0"/>
   <stop id="stop4351" stop-color="#8bcae9" offset=".21075"/>
   <stop id="stop4349" stop-color="#8ad2eb" offset="0.4"/>
   <stop id="stop4353" stop-color="#4e91bb" offset=".63987"/>
   <stop id="stop4345" stop-color="#27649a" offset="1"/>
  </linearGradient>
  <linearGradient id="linearGradient14590" y2="20.28" gradientUnits="userSpaceOnUse" x2="58.63" gradientTransform="matrix(1.3006 0 0 1.3006 -26.472 947.65)" y1="32.917" x1="71.873">
   <stop id="stop4385" stop-color="#1b528b" offset="0"/>
   <stop id="stop4387" stop-color="#267bc4" stop-opacity=".22481" offset="1"/>
  </linearGradient>
  <linearGradient id="linearGradient14593" y2="20.141" gradientUnits="userSpaceOnUse" x2="57.424" gradientTransform="matrix(1.3006 0 0 1.3006 -26.472 947.65)" y1="33.647" x1="70.929">
   <stop id="stop4468" stop-color="#1f669e" offset="0"/>
   <stop id="stop4470" stop-color="#1f669e" stop-opacity="0" offset="1"/>
  </linearGradient>
  <radialGradient id="radialGradient14596" gradientUnits="userSpaceOnUse" cy="24.502" cx="51.742" gradientTransform="matrix(1.4925 -2.684e-8 2.6589e-8 1.4786 -22.731 943.92)" r="9.528">
   <stop id="stop4297" stop-color="#83effd" offset="0"/>
   <stop id="stop4303" stop-color="#80bee7" offset="0.4"/>
   <stop id="stop4299" stop-color="#276296" offset="1"/>
  </radialGradient>
  <linearGradient id="linearGradient14602" y2="23.088" gradientUnits="userSpaceOnUse" x2="31.99" gradientTransform="matrix(1.3006 0 0 1.3006 -13.466 947.65)" y1="33.535" x1="42.437">
   <stop id="stop4523" stop-color="#2b6028" offset="0"/>
   <stop id="stop4525" stop-color="#2b6028" stop-opacity="0" offset="1"/>
  </linearGradient>
  <radialGradient id="radialGradient14606" gradientUnits="userSpaceOnUse" cy="26.462" cx="35.381" gradientTransform="matrix(1.5558 1.0256e-7 -1.043e-7 1.5821 -22.345 940.24)" r="7.2122">
   <stop id="stop4506" stop-color="#b0de96" offset="0"/>
   <stop id="stop4512" stop-color="#7dd067" offset="0.4"/>
   <stop id="stop4508" stop-color="#387633" offset="1"/>
  </radialGradient>
  <radialGradient id="radialGradient14609" xlink:href="#linearGradient4391" gradientUnits="userSpaceOnUse" cy="38.149" cx="36.155" gradientTransform="matrix(-1.489 0 0 -1.9171 84.29 1071.3)" r="11.341"/>
  <radialGradient id="radialGradient14618" gradientUnits="userSpaceOnUse" cy="57.701" cx="44.895" gradientTransform="matrix(.78961 0 0 1.1774 10.909 953.45)" r="13.273">
   <stop id="stop4583" stop-color="#2b6028" offset="0"/>
   <stop id="stop4585" stop-color="#2b6028" stop-opacity="0" offset="1"/>
  </radialGradient>
  <linearGradient id="linearGradient14621" y2="48.89" gradientUnits="userSpaceOnUse" x2="48.157" gradientTransform="matrix(1.3006 0 0 1.3006 -13.466 947.65)" y1="46.91" x1="23.298">
   <stop id="stop4539" stop-color="#59af3f" offset="0"/>
   <stop id="stop4547" stop-color="#7dd06e" offset=".28080"/>
   <stop id="stop4545" stop-color="#95db83" offset=".42996"/>
   <stop id="stop4549" stop-color="#73b661" offset=".60335"/>
   <stop id="stop4541" stop-color="#2f7829" offset="1"/>
  </linearGradient>
  <linearGradient id="linearGradient14623" y2="34.607" gradientUnits="userSpaceOnUse" x2="29.773" gradientTransform="matrix(1.3006 0 0 1.3006 -13.466 947.65)" y1="55.112" x1="45.076">
   <stop id="stop4531" stop-color="#2b6128" offset="0"/>
   <stop id="stop4533" stop-color="#59a24c" offset="1"/>
  </linearGradient>
 </defs>
 <metadata id="metadata7">
  <rdf:RDF>
   <cc:Work rdf:about="">
    <dc:format>image/svg+xml</dc:format>
    <dc:type rdf:resource="http://purl.org/dc/dcmitype/StillImage"/>
    <dc:title/>
   </cc:Work>
  </rdf:RDF>
 </metadata>
 <g id="layer1" transform="translate(0 -956.36)">
  <rect id="rect5263-0" fill-opacity=".019608" ry="12.724" height="89.978" width="89.624" y="959.35" x="3.3534"/>
  <rect id="rect5261-6" fill-opacity=".039216" ry="12.552" height="88.762" width="88.413" y="959.96" x="3.9589"/>
  <rect id="rect5259-9" fill-opacity=".078431" ry="12.38" height="87.546" width="87.202" y="960.57" x="4.5645"/>
  <rect id="rect5257-5" fill-opacity=".15686" ry="12.208" height="86.33" width="85.991" y="961.18" x="5.1701"/>
  <path id="rect3145" d="m17.75 5.4062c-6.642 0-11.969 5.3948-11.969 12.063l0.0002 61.031c0 6.668 5.3268 12.031 11.969 12.031h60.812c6.642 0 11.969-5.363 11.969-12.031v-61.031c0-6.668-5.327-12.063-11.969-12.063l-60.812 0.0002z" transform="translate(0 956.36)" fill="url(#linearGradient14455)"/>
  <path id="rect5265-0" d="m5.7756 1029.8v5.0663c0 6.668 5.3434 12.032 11.985 12.032h60.809c6.6418 0 11.985-5.3645 11.985-12.032v-5.0663c0 6.6681-5.3434 12.032-11.985 12.032h-60.809c-6.6418 0-11.985-5.3643-11.985-12.032z" fill-opacity=".18957"/>
  <path id="path5252-0" d="m5.7756 1033.9v1.0133c0 6.668 5.3434 12.032 11.985 12.032h60.809c6.6418 0 11.985-5.3645 11.985-12.032v-1.0133c0 6.6681-5.3434 12.032-11.985 12.032h-60.809c-6.6418 0-11.985-5.3644-11.985-12.032z" fill-opacity=".098039"/>
  <rect id="rect4772" display="none" height="107.79" width="107.79" y="971.68" x="-369.64" fill="none"/>
  <g id="g4788" display="none" transform="matrix(.21052 0 0 .21052 -369.68 971.63)"></g>
  <g id="g4806" display="none" transform="matrix(.21052 0 0 .21052 -369.68 971.63)">
   <g id="g4808" display="inline">
    <path id="path4810" d="m349.1 256.65c-0.265-0.254 37.637 27.605 39.421 25.012 6.362-9.252 82.046-93.137 84.784-116.24 0.242-2.003-0.516-4.096-0.516-4.096s-1.19-0.144-6.325-4.314c-2.692-2.192-5.483-4.581-5.483-4.581-16.054 0.998-57.885 41.559-111.06 103.57" fill="#050505" display="none"/>
   </g>
  </g>
  <g id="g4796" transform="matrix(.21052 0 0 .21052 -369.68 971.63)"></g>
  <rect id="rect3873" rx="6" ry="6" height="84" width="84" display="none" y="974.2" x="-163.06" fill="url(#linearGradient9745)"/>
  <rect id="rect3880" rx="6" ry="6" height="84" width="84" display="none" y="974.2" x="-163.06" fill="url(#linearGradient9745)"/>
  <path id="path4908" opacity=".05" d="m29.983 991.57c0.0064-0.001-0.20668 0.0417-0.2003 0.0401 0.0038-0.001-0.06679 0.0245-0.12012 0.0401-0.02295 0.006-0.04192 0.0406-0.04012 0.0401-0.07717 0.0233-4.4121 1.3425-8.3325 5.3681-3.9561 4.0623-7.5274 11.024-6.65 21.592 0.0012 0.014-0.0012 0.026 0 0.04 0.0032 0.041 0.000345 0.083 0 0.081-0.000517 0 0.04086 0.1244 0.04006 0.1205-0.0008 0 0.0011 0.165 0 0.1602-0.0011 0 0.04142 0.1244 0.04006 0.1206a1.2883 1.2883 0 0 0 0 0.04l0.04006 0.1205 0.04006 0.1205a1.2883 1.2883 0 0 0 0.04006 0.081c-0.0027-0.013 0.08331 0.1666 0.08012 0.1602-0.0012 0 0.02188 0.047 0.04006 0.081 0.02352 0.047 0.05525 0.074 0.08012 0.1205 0.66486 1.2124 1.7864 1.8622 2.7241 2.1231 0.59761 0.1662 1.0462 0.1128 1.5223 0.1205 0.05385 0.8516 0.0081 1.7089 0.36054 2.5638l0.08012 0.1603c-0.000459 0-0.0051 0.028 0 0.04 0.0166 0.04 0.0418 0.1243 0.04006 0.1205-0.0023 0 0.08274 0.1256 0.08012 0.1205-0.0026 0 0.08304 0.1649 0.08012 0.1602-0.0029 0 0.08335 0.1244 0.08012 0.1205-0.0032 0 0.12369 0.1244 0.12018 0.1205-0.0035 0 0.0839 0.1244 0.08012 0.1205-0.0038 0 0.12422 0.1244 0.12018 0.1205-0.0041 0 0.12446 0.083 0.12018 0.081a1.2883 1.2883 0 0 0 0.04006 0.04l0.16024 0.1205a1.2883 1.2883 0 0 0 0.12018 0.081c-0.0011-0.0006 0.03138 0 0.04006 0 0.05137 0.031 0.10859 0.05 0.16024 0.081 4.7524 2.8167 10.722 2.8207 15.423 2.3636 4.7805-0.465 8.5328-1.5624 8.5328-1.5624l0.28042-0.081c-0.0051 0 0.1246-0.041 0.12012-0.04-0.0051 0 0.12448-0.042 0.12012-0.04-0.0038 0 0.12435-0.042 0.12012-0.04-0.0038 0 0.12435-0.082 0.12012-0.081-0.0038 0 0.12409-0.082 0.12012-0.081-0.0038 0 0.08397-0.042 0.08012-0.04-0.0038 0 0.12383-0.083 0.12012-0.081-0.0038 0 0.08358-0.083 0.08012-0.081-0.0038 0 0.12345-0.1231 0.12012-0.1205-0.0038 0 0.0832-0.083 0.08012-0.081-0.0026 0 0.08307-0.1243 0.08012-0.1205-0.0026 0 0.08281-0.085 0.08012-0.081-0.0026 0 0.08268-0.1244 0.08012-0.1205-0.0026 0 0.08243-0.1244 0.08012-0.1205-0.0026 0 0.04205-0.1244 0.04012-0.1205-0.0013 0 0.02372-0.044 0.04012-0.081h0.04012c0.0038-0.013 0.000411-0.041 0-0.04l0.12012-0.2404a1.2883 1.2883 0 0 0 0 -0.081l0.04013-0.04a1.2883 1.2883 0 0 0 0 -0.1205l7.8117-19.91c-0.0026 0 0.05922-0.1192 0.08012-0.1602 0.0038-0.013 0.0005-0.041 0-0.04a1.2883 1.2883 0 0 0 0.08012 -0.1602l0.12012-0.4006c-0.0013 0 0.04115-0.1256 0.04012-0.1205-0.0011 0 0.00082-0.1654 0-0.1602-0.000833 0 0.04051-0.1257 0.04012-0.1205-0.000525 0 0.000205-0.1654 0-0.1603-0.000205 0-0.000115-0.1654 0-0.1602 0.000103 0-0.000423-0.1257 0-0.1205 0.00041 0-0.000731-0.1654 0-0.1603 0.000731 0-0.04115-0.1256-0.04012-0.1205 0.001 0-0.04141-0.1651-0.04012-0.1602 0.0013 0-0.04166-0.1244-0.04012-0.1205 0.0013 0-0.04205-0.1244-0.04012-0.1205 0.0013 0-0.0823-0.1649-0.08012-0.1602 0.0026 0-0.04256-0.1244-0.04012-0.1205 0.0026 0-0.08294-0.1244-0.08012-0.1206 0.0026 0-0.0832-0.1243-0.08012-0.1205 0.0026 0-0.08333-0.1243-0.08012-0.1205a1.2883 1.2883 0 0 0 -0.04012 0l-0.24036-0.2803a1.2883 1.2883 0 0 0 -0.04012 0 1.2883 1.2883 0 0 0 -0.24036 -0.2404 1.2883 1.2883 0 0 0 -0.12012 -0.081c-0.27172-0.3051-1.9957-2.3042-4.647-4.5669-1.4351-1.2247-3.0571-2.4408-4.7271-3.4051-1.6311-0.9417-3.4419-1.7534-5.4882-1.7226h-0.04012-0.04012l-8.3325-0.36054c0.0026 0.00004-0.05281 0.00001-0.08012 0h-0.04012-0.04012-0.04012c0.0026 0.00018-0.03923 0.001-0.08012 0-0.02051-0.00061-0.04166 0-0.04012 0 0.0051 0-0.16502 0.00028-0.16024 0a1.2883 1.2883 0 0 0 -0.12012 0z" fill="url(#linearGradient14511)"/>
  <path id="path4900" opacity=".15" d="m30.183 992.85a1.0398 1.0398 0 0 0 -0.16024 0.0397s-4.0893 1.2251-7.8117 5.0476c-3.7248 3.8247-7.1527 10.368-6.2894 20.631a1.0398 1.0398 0 0 0 0.04006 0.2403l0.04006 0.1205 0.04006 0.1205a1.0398 1.0398 0 0 0 0.08012 0.1603c0.45035 0.9007 1.2714 1.3588 2.003 1.5624 0.72836 0.2025 1.4057 0.1865 1.9629 0.1602 0.14616-0.013 0.15791-0.028 0.28042-0.04 0.01392 1.186 0.07508 2.3413 0.48072 3.325l0.08012 0.2003a1.0398 1.0398 0 0 0 0.32048 0.4407l0.16024 0.1205a1.0398 1.0398 0 0 0 0.08012 0.04c4.3486 2.6493 10.141 2.6948 14.782 2.2434 4.6502-0.4523 8.2924-1.5223 8.2924-1.5223l0.28042-0.081a1.0398 1.0398 0 0 0 0.68102 -0.601l0.12012-0.2804a1.0398 1.0398 0 0 0 0 -0.04l7.9319-20.23a1.0398 1.0398 0 0 0 0.04012 -0.081l0.12012-0.4006a1.0398 1.0398 0 0 0 -0.2003 -0.9615l-0.24036-0.2805a1.0398 1.0398 0 0 0 -0.04012 0s-2.1214-2.4065-4.8873-4.7671c-1.3855-1.1825-2.9444-2.3313-4.5268-3.2449-1.5434-0.89107-3.17-1.5877-4.8473-1.5623h-0.04012-0.04012l-8.3726-0.36061a1.0398 1.0398 0 0 0 -0.04012 0h-0.08012-0.12012a1.0398 1.0398 0 0 0 -0.12012 0z" fill="url(#linearGradient14511)"/>
  <path id="path4571-7" opacity=".3" d="m30.303 993.89s-3.7922 1.1334-7.331 4.7673c-3.5388 3.6337-6.8501 9.8296-6.009 19.83l0.04006 0.1205 0.04006 0.1205c0.28742 0.5749 0.82357 0.8919 1.362 1.0416 0.53847 0.1499 1.1147 0.1451 1.6425 0.1205 0.69774-0.033 0.96623-0.1231 1.322-0.2004-0.04074 1.6137 0.015 3.094 0.44066 4.1263l0.08012 0.2002 0.16024 0.1205c3.9922 2.4321 9.5549 2.5252 14.101 2.0832 4.5462-0.4422 8.1322-1.4823 8.1322-1.4823l0.28042-0.081 0.12012-0.2804 7.9319-20.23 0.12012-0.4006-0.24036-0.2803s-2.1027-2.3389-4.8072-4.647c-1.3523-1.1541-2.8652-2.298-4.3666-3.1648-1.4743-0.85121-2.9412-1.4322-4.3265-1.402h-0.08012l-8.4126-0.36061h-0.08012-0.12012z" fill="url(#linearGradient14511)"/>
  <g id="g4640" transform="matrix(1.3006 0 0 1.3006 -13.466 947.65)">
   <path id="path4638" opacity=".1" d="m76.281 33.562c0.0032-0.000183-0.12821 0.03161-0.125 0.03125-0.007-0.000031-0.03211 0.000043-0.03125 0a1.1089 1.1089 0 0 0 -0.1875 0c0.0059-0.0014-0.19326 0.06447-0.1875 0.0625 0.0058-0.002-0.22428 0.09629-0.21875 0.09375 0.0055-0.0025-0.16149 0.09684-0.15625 0.09375 0.0052-0.0031-0.1924 0.09736-0.1875 0.09375 0.0049-0.0036-0.16076 0.16034-0.15625 0.15625 0.0045-0.0041-0.16032 0.12953-0.15625 0.125 0.0041-0.0045-0.12859 0.19242-0.125 0.1875 0.0028-0.0038-0.06316 0.07845-0.09375 0.125-0.0086 0.01309-0.03192 0.0324-0.03125 0.03125-3.6339 5.6027-8.8438 7.5-8.8438 7.5 0.0057-0.0021-0.193 0.06517-0.1875 0.0625 0.0055-0.0027-0.1927 0.09697-0.1875 0.09375 0.0052-0.0032-0.19234 0.12873-0.1875 0.125 0.0048-0.0037-0.16068 0.16046-0.15625 0.15625 0.0044-0.0042-0.12898 0.12964-0.125 0.125 0.004-0.0046-0.12848 0.19252-0.125 0.1875 0.0035-0.005-0.12795 0.1616-0.125 0.15625 0.003-0.0054-0.09614 0.19312-0.09375 0.1875 0.0024-0.0056-0.0643 0.22459-0.0625 0.21875 0.0018-0.0058-0.0637 0.19349-0.0625 0.1875 0.0012-0.006-0.03183 0.22484-0.03125 0.21875 0.000578-0.0061 0.000047 0.19361 0 0.1875-0.000047-0.0061 0.000671 0.22482 0 0.21875-0.000671-0.0061 0.03254 0.22472 0.03125 0.21875-0.0013-0.006 0.06439 0.19331 0.0625 0.1875-0.0019-0.0058 0.09623 0.19309 0.09375 0.1875h-0.03125l0.84375 1.9688c-0.0025-0.0057 0.12808 0.19295 0.125 0.1875-0.0031-0.0055 0.09739 0.1926 0.09375 0.1875-0.0036-0.0051 0.12915 0.16094 0.125 0.15625-0.0042-0.0047 0.16087 0.16048 0.15625 0.15625-0.0046-0.0042 0.19254 0.15997 0.1875 0.15625-0.005-0.0037 0.16165 0.09692 0.15625 0.09375-0.0054-0.0032 0.1932 0.12759 0.1875 0.125-0.0057-0.0026 0.22469 0.06448 0.21875 0.0625-0.0059-0.002 0.19362 0.06385 0.1875 0.0625-0.0061-0.0013 0.22497 0.03195 0.21875 0.03125-0.0062-0.0007 0.22501 0.000044 0.21875 0-0.0063-0.000044 0.22498-0.000612 0.21875 0-0.0062 0.000612 0.19363-0.03251 0.1875-0.03125-0.0061 0.0013 0.22472-0.0644 0.21875-0.0625-0.006 0.0019 0.19324-0.06501 0.1875-0.0625-0.0057 0.0025 0.22419-0.09685 0.21875-0.09375 0 0 2.3412-1.3489 4.75-3.4062 2.3869-2.0387 5.1574-4.8876 5.3125-8.5938 0.000445-0.01063-0.000402-0.02061 0-0.03125 0.00061-0.03051 0.03124-0.09622 0.03125-0.09375 0.000019 0.0032-0.03144-0.09697-0.03125-0.09375 0.000193 0.0032-0.000367-0.12821 0-0.125 0.000367 0.0032-0.00054-0.09693 0-0.09375 0.00054 0.0032-0.03196-0.12815-0.03125-0.125 0.000711 0.0031-0.03213-0.09685-0.03125-0.09375s-0.0323-0.12805-0.03125-0.125c0.001 0.0031-0.03246-0.09674-0.03125-0.09375 0.0012 0.003-0.06387-0.09667-0.0625-0.09375 0.0014 0.0029-0.03278-0.09659-0.03125-0.09375 0.0015 0.0028-0.06418-0.09651-0.0625-0.09375 0.0017 0.0028-0.06432-0.09641-0.0625-0.09375 0.0018 0.0027-0.06446-0.09631-0.0625-0.09375 0.002 0.0026-0.0646-0.0962-0.0625-0.09375 0.0021 0.0025-0.09598-0.06483-0.09375-0.0625 0.0022 0.0023-0.06485-0.09596-0.0625-0.09375 0.0024 0.0022-0.09622-0.06458-0.09375-0.0625 0.0025 0.0021-0.06508-0.09569-0.0625-0.09375 0.0026 0.0019-0.09643-0.0643-0.09375-0.0625 0.0027 0.0018-0.09652-0.0329-0.09375-0.03125 0.0028 0.0017-0.09661-0.064-0.09375-0.0625 0.0029 0.0015-0.12793-0.06385-0.125-0.0625 0.0029 0.0013-0.09675-0.03243-0.09375-0.03125 0.003 0.0012-0.09681-0.03227-0.09375-0.03125 0.0031 0.001-0.09686-0.0321-0.09375-0.03125 0.0031 0.000854-0.12815-0.03193-0.125-0.03125 0.0032 0.000684-0.09694-0.03176-0.09375-0.03125 0.0032 0.000513-0.12821-0.00034-0.125 0 0.0032 0.00034-0.09697-0.03142-0.09375-0.03125 0.0032 0.000166-0.12823 0.000008-0.125 0 0.0032-0.000008-0.09697 0.000183-0.09375 0z" fill="#f9ac42"/>
   <path id="path4634" opacity=".3" d="m76.281 34.688a0.92966 0.92966 0 0 0 -0.6875 0.4375c-3.8392 5.9508-9.4375 7.9688-9.4375 7.9688a0.92966 0.92966 0 0 0 -0.53125 1.25l0.84375 1.9688a0.92966 0.92966 0 0 0 1.3125 0.4375s2.275-1.3008 4.5938-3.2812c2.3187-1.9805 4.8182-4.6502 4.9375-7.8125a0.92966 0.92966 0 0 0 -1.032 -0.97z" fill="#f9ac42"/>
   <path id="path4620" d="m76.364 35.615c-4.0118 6.2183-9.8991 8.3435-9.8991 8.3435l0.84849 1.9798s8.85-5.0077 9.0506-10.323z" fill="#f9ac42"/>
   <path id="path4630" fill="#fcd298" d="m73.438 40.094c-2.7299 2.5816-5.1946 3.7776-6.1562 4.1875l0.3125 0.75c0.65936-0.39582 2.0684-1.2558 3.7812-2.7188 0.76129-0.65022 1.4011-1.448 2.0625-2.2188z"/>
  </g>
  <path id="path4494" d="m21.878 1017.7s-3.5246 0.9197-4.2603-0.5517c-1.656-19.64 12.874-23.87 12.874-23.87l8.4606 0.36786c4.7821-0.18393 13.059 9.0124 13.059 9.0124l-7.9088 20.232s-14.166 4.0399-21.703-0.5518c-1.5953-3.869 1.6553-17.657 1.6553-17.657" stroke="url(#linearGradient14623)" stroke-width="1.2819px" fill="url(#linearGradient14621)"/>
  <path id="path4571" fill="url(#radialGradient14618)" d="m21.878 1017.7s-3.5246 0.9197-4.2603-0.5517c-1.656-19.64 12.874-23.87 12.874-23.87l8.4606 0.36786c4.7821-0.18393 13.059 9.0124 13.059 9.0124l-7.9088 20.232s-14.166 4.0399-21.703-0.5518c-1.5953-3.869 1.6553-17.657 1.6553-17.657"/>
  <path id="path4551" opacity=".3" d="m20.744 1016-1.8393-0.1839c-1.1036-15.634 10.852-21.152 10.852-21.152 2.7589-1.1036 10.3 0.36786 10.3 0.36786 1.4714 0 8.2767 5.3338 8.2767 5.3338l-2.575 3.1268s-11.587-5.5178-11.036 17.289c-4.966 1.2875-8.6446-0.9196-8.6446-0.9196-2.391-7.9089 0.36785-16.921-1.6553-17.105-3.1268 2.2071-3.6785 13.243-3.6785 13.243z" fill="url(#radialGradient14609)"/>
  <path id="path4565" opacity=".3" d="m32.543 995.04c-1.0516 0.0166-1.9972 0.15668-2.5199 0.36579-0.07452 0.0346-2.8539 1.3008-5.5682 4.4708-2.6713 3.1197-5.1833 8.0628-4.8366 15.323l0.48773 0.041c0.03435-0.5993 0.10603-2.4363 0.56902-5.1211 0.26638-1.5447 0.66531-3.1409 1.1787-4.5522 0.51337-1.4112 1.1453-2.6613 2.1541-3.3734a0.73253 0.73253 0 0 1 0.48773 -0.122c0.52908 0.048 0.95154 0.4708 1.138 0.8942 0.18649 0.4235 0.24972 0.8839 0.28451 1.4226 0.06958 1.0773-0.01397 2.4783-0.08129 4.105-0.13044 3.1517-0.18808 7.145 0.85352 10.852 0.31624 0.1783 3.1805 1.7022 7.3566 0.8129-0.07005-5.3635 0.49585-9.217 1.5038-11.909 1.0544-2.8156 2.56-4.4592 4.1457-5.2837 2.6884-1.3978 5.0094-0.5515 5.7715-0.2438l1.829-2.1948c-0.4418-0.3415-1.4144-1.1007-2.967-2.1948-0.93531-0.65909-1.9069-1.3069-2.7232-1.7883-0.40815-0.24074-0.77017-0.44155-1.0567-0.56902-0.28657-0.12747-0.52467-0.16258-0.48773-0.16258a0.73253 0.73253 0 0 1 -0.12193 0s-4.2448-0.82188-7.3972-0.77223z" fill="url(#radialGradient14609)"/>
  <path id="path4569" opacity=".3" d="m32.584 996.79c-0.90773 0.0143-1.6552 0.18839-1.829 0.24386-0.0014 0.00066-0.07813-0.001-0.08129 0-0.15649 0.0733-2.3541 1.1846-4.7147 3.8612 0.60347 0.4039 1.0968 0.919 1.3006 1.3819 0.33868 0.769 0.36525 1.3538 0.40644 1.9915 0.08238 1.2754-0.01461 2.697-0.08129 4.3083-0.12036 2.9082-0.02699 6.3596 0.73159 9.5513 0.76803 0.3305 1.9595 0.6494 4.0238 0.4878 0.06454-4.6353 0.5466-8.3498 1.5445-11.015 1.1688-3.1212 2.9944-5.1355 4.9992-6.1779 2.0048-1.0423 4.0032-1.0838 5.4869-0.8535-0.48137-0.3552-0.50498-0.3834-1.0567-0.77222-0.91332-0.6436-1.857-1.3088-2.6012-1.7477-0.3721-0.21947-0.70549-0.36316-0.89417-0.44709-0.18868-0.0839-0.32388-0.0406 0.24386-0.0406a2.493 2.493 0 0 1 -0.48773 -0.0407s-4.1564-0.77623-6.9908-0.73159z" fill="url(#radialGradient14609)"/>
  <path id="path4492" style="color:#000000" d="m44.105 984.68a9.5653 9.5653 0 1 1 -0.000049 -0.0305" fill="url(#radialGradient14606)"/>
  <path id="path4597" opacity=".2" style="color:#000000" d="m30.511 993.25s-1.1891 0.34111-2.8044 1.26c1.8389 1.4498 4.2064 2.3574 6.8282 2.3574 2.7801 0 5.3168-0.99177 7.194-2.6012-0.9904-0.44475-1.9249-0.68257-2.7638-0.65031l-8.454-0.36579z" fill="#2b6128"/>
  <path id="path4514" style="color:#000000" d="m34.535 975.12c-5.2828 0-9.5514 4.2686-9.5514 9.5514s4.2686 9.592 9.5514 9.592 9.5514-4.3092 9.5514-9.592v-0.0406c-0.01682-5.2708-4.2805-9.5107-9.5514-9.5107zm0.04064 1.1787c4.6156 0 8.3173 3.7118 8.332 8.332v0.0406c0 4.6308-3.7076 8.3727-8.332 8.3727-4.6245 0-8.3727-3.7482-8.3727-8.3727s3.7482-8.3727 8.3727-8.3727z" fill="url(#linearGradient14602)"/>
  <path id="path4589" opacity=".2" d="m20.587 1017.8s0.91858-12.663 3.6743-14.172c1.7715 0.5249-1.2466 13.648 1.0498 19.881l-3.215-1.5091-0.26245-4.1992h-1.2466z" fill="#336c2e"/>
  <path id="path4591" opacity=".2" d="m20.915 1017.8s1.5091-12.335 3.3462-14.172c1.4435 0.4593-2.0996 13.648 0.19684 19.881l-2.3621-1.5091-0.26245-4.1992h-0.91858z" fill="#336c2e"/>
  <path id="path4593" opacity=".4" style="color:#000000" d="m30.511 993.25s-0.62318 0.20883-1.4225 0.56901c1.5495 1.0812 3.4136 1.7477 5.4463 1.7477 2.0882 0 4.036-0.69342 5.6089-1.829-0.41164-0.0917-0.80424-0.13634-1.1787-0.12194l-8.454-0.36579z" fill="#2b6128"/>
  <path id="path4825" opacity=".15" d="m59.427 992.61c-0.66242-0.0231-1.3071 0.0128-1.9229 0.0397-0.01282 0.00064-0.0273-0.00077-0.04012 0 0.09896 0 0.0764-0.0128-0.08012 0-4.8225-0.1887-8.5719 1.6819-11.137 4.5268-2.5899 2.8726-4.0913 6.613-4.9675 10.296-1.7264 7.2554-1.1747 14.378-1.1617 14.542 0.000115 0-0.000026 0.08 0 0.081 0.02718 0.8093 0.44034 1.4328 0.92138 1.8428 0.37446 0.319 0.72192 0.4586 1.0416 0.5608 0.05564 1.932 0.21891 3.8517 0.76114 5.4482a1.1899 1.1899 0 0 0 0.04012 0.1205l0.04012 0.081a1.1899 1.1899 0 0 0 0.24036 0.2804 1.1899 1.1899 0 0 0 0 0.04l0.08012 0.081 0.04012-0.04c1.6845 2.0454 4.3168 3.1238 7.2509 3.7256 2.99 0.6133 6.3471 0.7774 9.5744 0.641 3.2223-0.1363 6.3208-0.5452 8.7331-1.1217 1.1965-0.286 2.2162-0.6023 3.0846-1.0016 0.6191-0.2846 1.2262-0.7658 1.6825-1.402 0.0051-0.013 0.03525 0.013 0.04012 0a1.1899 1.1899 0 0 0 0.36054 -0.4807 1.1899 1.1899 0 0 0 0.04012 -0.081 1.1899 1.1899 0 0 0 0.04013 -0.04c0.000102-0.0003-0.0064-0.055 0-0.081 0.08114-0.3062 0.04153-0.5935 0.04012-0.6008 0.11358-0.4832 0.11832-0.8398 0.12012-1.242 0.33447-0.055 0.61857-0.071 1.0015-0.2403 0.93644-0.4159 1.8223-1.179 2.2834-2.2834 0.01282-0.03 0.02846-0.051 0.04012-0.081a1.1899 1.1899 0 0 0 0.12012 -0.4808 1.1899 1.1899 0 0 0 0 -0.04v-0.081c0.01923-0.1869 0.77781-7.7721-0.96144-15.704-0.88076-4.0164-2.4108-8.1393-5.1277-11.417-2.7262-3.2891-6.7677-5.6628-12.098-5.8889h-0.08012z" fill="url(#linearGradient14484)"/>
  <path id="path4833" opacity=".05" d="m59.267 991.33c-3.5265-0.0602-7.2185 0.145-10.311 2.0421-5.6547 3.2525-8.2509 9.7885-9.3602 15.918-0.7647 4.5196-1.1539 9.1756-0.62032 13.737 0.6079 1.8061 2.6018 2.3282 2.1016 4.4968 0.23272 1.2425 0.24828 2.6142 0.96394 3.5863 0.52613 0.6625 1.4313 1.0248 2.0406 1.706 4.1375 3.0638 9.5516 3.3288 14.51 3.3833 4.7604-0.153 9.6696-0.5125 14.094-2.4072 0.95235-0.7434 1.7889-1.3408 2.4372-2.2671 0.0923-1.5169 0.86022-1.9772 2.1391-2.7351 1.2201-1.0568 1.8672-2.513 1.7914-4.1165 0.38409-7.7053-0.33727-15.714-3.7112-22.749-2.5762-5.4968-7.8827-9.7145-13.975-10.432-0.69594-0.0887-1.3976-0.16455-2.0999-0.1617z" fill="url(#linearGradient14484)"/>
  <path id="path4331-5" opacity=".3" d="m59.387 993.81c-0.61226-0.0218-1.2211 0-1.8428 0.0397h-0.08012c-4.5621-0.2119-7.9548 1.4856-10.336 4.1262-2.3954 2.6569-3.84 6.215-4.687 9.7747-1.6864 7.0876-1.1267 14.198-1.1217 14.261 0 0.013-0.000449 0.027 0 0.04 0.01333 0.3979 0.23192 0.7494 0.48072 0.9614 0.25714 0.2191 0.54794 0.3306 0.8012 0.4006 0.33767 0.094 0.46588 0.073 0.64096 0.081 0.0291 2.248 0.16825 4.4212 0.72108 6.049l0.04013 0.081 0.08012 0.081c1.3977 1.7655 3.8372 2.7799 6.69 3.3651s6.1389 0.7343 9.2939 0.6009 6.1839-0.5299 8.4927-1.0817c1.1544-0.2758 2.1347-0.5767 2.8843-0.9213 0.70917-0.3261 1.2425-0.6912 1.4822-1.322h0.04012c0.0026-0.013-0.0026-0.031 0-0.04 0.0051-0.014-0.0051-0.027 0-0.04 0.37201-0.9923 0.33008-1.8497 0.24036-2.4436 0.53929-0.06 1.0645-0.099 1.5623-0.3205 0.71368-0.317 1.3587-0.8951 1.6825-1.7226l0.04012-0.081v-0.081s0.78796-7.6682-0.92138-15.463c-0.85467-3.8975-2.3433-7.8271-4.8873-10.896-2.544-3.0693-6.2037-5.2355-11.217-5.4482-0.02654-0.001-0.05346 0.0009-0.08012 0z" fill="url(#linearGradient14484)"/>
  <path id="path4331" fill="url(#linearGradient14581)" d="m59.449 993.17c-0.62529-0.0265-1.2783 0.004-1.9509 0.0406-17.74-0.91311-15.526 27.516-15.526 27.516 0 0.9131 1.5851 0.8941 1.5851 0.8941l0.24386-0.2032c-0.02185 2.558 0.18843 4.906 0.77224 6.625 4.9569 6.2613 27.018 3.3811 27.801 0.7722 0.48526-1.2131 0.16695-2.6089 0.12187-2.8044 1.4405-0.044 2.8549-0.4224 3.3735-1.7477 0 0 2.9641-30.27-16.42-31.093z"/>
  <path id="path4464" opacity=".15" d="m72.366 1029.1c0.52178-0.3913 0.52178-3.2611 0.52178-3.2611l-4.0438-0.5218s-1.5607-14.757-3.9133-20.349c-4.0706-4.0706 2.5118 18.16-4.4545 26.888l11.89-2.756z" fill="#1a4a7f"/>
  <path id="path4458" opacity=".2" d="m72.366 1029.1c0.52178-0.3913 0.52178-3.2611 0.52178-3.2611l-4.0438-0.5218s-0.91311-14.479-3.9133-20.349c0 0 1.9567 22.045-1.9567 26.611l9.392-2.4784z" fill="#1a4a7f"/>
  <path id="path4291" d="m43.538 1021.6s-1.5653 0-1.5653-0.9132c0 0-2.2176-28.437 15.523-27.524 21.523-1.174 18.393 31.046 18.393 31.046-1.174 3.0003-7.044 1.3045-7.044 1.3045-0.26089-14.088-4.4351-21.262-4.4351-21.262" stroke="url(#linearGradient14576)" stroke-width="1.2819px" fill="none"/>
  <path id="path4293" d="m46.017 1004s-3.7829 17.088-1.4349 24.002c4.9569 6.2614 27.002 3.3916 27.785 0.7827 0.52178-1.3044 0.13044-2.8698 0.13044-2.8698" stroke="url(#linearGradient14573)" stroke-width="1.2819px" fill="none"/>
  <path id="path4371" opacity=".3" d="m53.452 995.8c-6.2613 0.78267-4.696 32.481-4.696 32.481 5.2178 2.7394 7.4353 0.3914 7.4353 0.3914 2.348-2.0872 2.0871-30.394 6.6527-27.915 5.2178-0.5217 7.9571 22.828 7.9571 22.828 3.0002 1.174 3.1307-2.8698 3.1307-2.8698s1.3044-18.654-8.4789-24.002c-2.348-1.5653-7.6962-1.6958-12.001-0.91311z" fill="url(#radialGradient14564)"/>
  <path id="path4403" opacity=".3" d="m60.1 996.38c-2.0654-0.12423-4.4272 0.0696-6.503 0.44708a1.0168 1.0168 0 0 1 -0.04064 0c-0.36107 0.0451-0.79021 0.34235-1.26 1.138-0.46975 0.79568-0.90782 2.0125-1.26 3.4954-0.70429 2.9658-1.0686 6.9556-1.26 10.933-0.35601 7.4006-0.08641 14.172-0.04064 15.16 2.1331 1.0082 3.6304 1.1512 4.5115 0.9754 0.47852-0.095 0.77572-0.2445 0.97546-0.3658s0.24386-0.1625 0.24386-0.1625a1.0168 1.0168 0 0 1 0.04064 -0.081c-0.13638 0.1212 0.27538-0.4341 0.48773-1.3413s0.382-2.179 0.56902-3.6173c0.37403-2.8765 0.73508-6.5081 1.138-10.039 0.40295-3.5309 0.85456-6.9274 1.5445-9.3888 0.34496-1.2306 0.7359-2.2542 1.3413-3.0076 0.30268-0.3767 0.6609-0.7047 1.1787-0.85355 0.33156-0.0953 0.67861 0.0391 1.0161 0.12193v-0.0406c1.0297-0.10297 1.9393 0.41776 2.6419 1.1381 0.70261 0.7202 1.266 1.6868 1.7883 2.8044 1.0447 2.2353 1.8876 5.1285 2.5606 8.0475 1.2574 5.454 1.8268 10.236 1.9103 10.933 0.11505-0.01 0.33954 0.073 0.40644 0.041 0.1537-0.075 0.34552-0.2695 0.48773-0.569 0.28442-0.599 0.32515-1.4632 0.32515-1.4632a1.0168 1.0168 0 0 1 0 -0.041s0.3396-4.5534-0.52837-9.7546-2.9595-10.865-7.3972-13.291a1.0168 1.0168 0 0 1 -0.08129 -0.0406c-0.88602-0.59069-2.7242-1.0541-4.796-1.1787z" fill="url(#radialGradient14564)"/>
  <path id="path4407" opacity=".3" d="m60.059 997.52c-1.9507-0.11734-4.2682 0.0444-6.2592 0.40644a2.1465 2.1465 0 0 1 -0.08129 0c0.10736-0.0134-0.07296-0.024-0.44708 0.60966-0.37412 0.63369-0.80111 1.7515-1.138 3.1703-0.67384 2.8375-1.0704 6.7887-1.26 10.73-0.34588 7.19-0.01369 13.144 0.04064 14.347 1.4944 0.5806 2.5511 0.717 3.0889 0.6097 0.27548-0.055 0.41551-0.1025 0.52837-0.1626 0.07957-0.1598 0.26768-0.5156 0.3658-0.9348 0.19624-0.8383 0.38436-2.0346 0.56902-3.4547 0.36932-2.8403 0.69238-6.5308 1.0974-10.08 0.405-3.5489 0.85695-6.9535 1.5851-9.5513 0.36409-1.2989 0.74955-2.3841 1.5445-3.3735 0.39746-0.49468 0.97254-1.0254 1.7883-1.26 0.40111-0.11531 0.76492 0.10788 1.1787 0.16257v-0.12193c1.449-0.1449 2.7305 0.6364 3.5767 1.5038 0.84618 0.8675 1.4375 1.9035 1.9916 3.089 1.1081 2.3709 1.9596 5.332 2.6419 8.2914 0.5812 2.521 0.5199 2.9775 0.85352 5.0398-0.05881-1.6052-0.14136-3.3707-0.48773-5.4463-0.84286-5.0507-2.8543-10.368-6.7876-12.518a2.1465 2.1465 0 0 1 -0.16258 -0.0813c-0.56606-0.37737-2.2627-0.8573-4.227-0.97546z" fill="url(#radialGradient14564)"/>
  <path id="path4450" opacity=".2" style="color:#000000" d="m59.449 993.17c-0.62529-0.0265-1.2783 0.004-1.9509 0.0406-3.0046-0.15465-5.4297 0.54031-7.3972 1.7883 2.1589 1.393 4.7831 2.2354 7.6411 2.2354 2.9998 0 5.7922-0.91748 8.0069-2.4386-1.7849-0.92124-3.8543-1.522-6.2998-1.6258z" fill="#1a4a7f"/>
  <path id="path4289-2" opacity=".4" style="color:#000000" d="m59.449 993.17c-0.62529-0.0265-1.2783 0.004-1.9509 0.0406-2.2716-0.11691-4.2296 0.25152-5.8934 0.97546 1.7968 1.094 3.8798 1.7477 6.1373 1.7477 2.3418 0 4.5417-0.69902 6.3811-1.8696-1.3942-0.50191-2.9405-0.82061-4.6741-0.89417z" fill="#1a4a7f"/>
  <path id="path4289" style="color:#000000" d="m69.627 982.76a11.87 11.87 0 1 1 -0.000061 -0.0379" fill="url(#radialGradient14596)"/>
  <path id="path4311" opacity=".2" style="color:#000000" d="m57.783 970.9c-6.5559 0-11.868 5.3122-11.868 11.868 0 6.5559 5.3122 11.868 11.868 11.868 6.5559 0 11.827-5.3122 11.827-11.868v-0.0406c-0.02087-6.541-5.2863-11.827-11.827-11.827zm0 2.4793c5.2015 0 9.3315 4.1371 9.3481 9.3481v0.0406c0 5.223-4.135 9.3888-9.3481 9.3888-5.2132 0-9.3888-4.1756-9.3888-9.3888s4.1756-9.3888 9.3888-9.3888z" fill="url(#linearGradient14593)"/>
  <path id="path4305" style="color:#000000" d="m57.742 970.9c-6.5559 0-11.868 5.3122-11.868 11.868 0 6.5559 5.3122 11.868 11.868 11.868 6.5559 0 11.868-5.3122 11.868-11.868v-0.0406c-0.02087-6.541-5.327-11.827-11.868-11.827zm0.04064 1.26c5.8384 0 10.508 4.724 10.527 10.567v0.0406c0 5.8568-4.6752 10.567-10.527 10.567-5.8516 0-10.608-4.7158-10.608-10.567 0-5.8516 4.7565-10.608 10.608-10.608z" fill="url(#linearGradient14590)"/>
  <path id="path4460" opacity=".3" d="m72.366 1029.1c0.52178-0.3913 0.52178-3.2611 0.52178-3.2611l-4.0438-0.5218s0.75214-9.9462-2.2481-15.816c0 0 1.7716 17.604-2.1417 22.17l7.9118-2.571z" fill="#1a4a7f"/>
  <path id="path4462" opacity=".3" d="m72.366 1029.1c0.52178-0.3913 0.52178-3.2611 0.52178-3.2611l-4.0438-0.5218s0.75214-9.9462-2.2481-15.816c0 0 4.0845 20.38 0.17115 21.522l5.5989-1.9234z" fill="#1a4a7f"/>
  <g id="g4656" transform="matrix(1.3006 0 0 1.3006 -13.466 947.65)" clip-path="url(#clipPath4713)">
   <path id="path4652" opacity=".1" d="m32.375 38.125c-4.3542-0.01804-9.3459 0.0013-12.778 3.094-3.2203 3.237-3.2486 9.2735 0.11819 12.425 1.4594 1.1773 3.6201 2.0296 5.4724 1.3873 1.2219-0.71172 0.97873-2.2949 1.0938-3.5-0.10338-1.0969-1.2413-1.7308-2.2703-1.6266-2.2133-0.32366-2.5039-3.3139-0.89892-4.5516 2.5859-1.6877 5.892-1.3611 8.8372-1.1983 6.5727 0.66049 11.67 5.2948 17.486 7.9346 8.5714 4.1772 18.293 5.36 27.721 5.0981 1.5879-0.17856 2.0488-2.5404 0.65625-3.3125-1.427-0.621-3.095-0.496-4.599-0.913-9.484-1.681-18.673-4.958-27.032-9.752-4.299-2.358-8.748-5.023-13.806-5.085z" fill="#f9ac42"/>
   <path id="path4648" opacity=".3" d="m32.344 39.031c-5.2482-0.12356-8.7278 0.51063-11 1.9375s-3.1613 3.6967-3.2188 6.1562c-0.0833 3.566 1.4682 5.5874 3.0625 6.4688s3.1875 0.75 3.1875 0.75a0.9083 0.9083 0 0 0 0.84375 -0.8125l0.15625-1.6875a0.9083 0.9083 0 0 0 -1.0312 -1c-0.5884 0.08406-1.5903-0.26459-2.2812-1-0.692-0.734-1.083-1.721-0.814-2.842 0.31031-1.294 0.82507-2.2084 2.1562-2.9062 1.3312-0.69784 3.6282-1.1289 7.4062-0.9375 6.6708 0.33489 10.511 3.597 16.625 6.9062 6.1138 3.3092 14.345 6.5012 29.344 6.25a0.9084 0.9084 0 0 0 0.125 -1.812c-14.015-2.118-22.388-5.845-28.625-9.125s-10.402-6.213-15.937-6.344z" fill="#f9ac42"/>
   <path id="path4622" d="m24.324 53.434s-5.4577 0.34976-5.3027-6.2875c0.10625-4.5487 2.9747-7.4603 13.296-7.2173 10.445 0.24589 16.232 11.217 44.471 15.485-29.732 0.498-32.061-12.454-45.959-13.152-7.723-0.391-9.772 1.636-10.465 4.525-0.69295 2.8896 2.1094 5.2341 4.1011 4.9496l-0.14142 1.697z" fill="url(#linearGradient14519)"/>
   <path id="path4626" d="m32.281 40.656c-5.0903-0.11984-8.2522 0.58195-10.062 1.7188-1.3011 0.81705-1.8275 1.949-2.125 3.25 0.47046-1.1717 1.1677-2.2852 2.5312-3 1.7544-0.9197 4.3211-1.2928 8.25-1.0938 7.1747 0.36019 11.381 3.8661 17.344 7.0938 4.5194 2.4462 10.134 4.7691 19 5.6562-8.8178-2.1505-14.914-4.9587-19.688-7.4688-6.3178-3.3219-10.281-6.0393-15.25-6.1562zm-12.281 8.813c0.38217 1.4706 1.1746 2.2485 1.9688 2.6875 0.6648 0.36754 1.2433 0.45567 1.6875 0.5l0.03125-0.3125c-1.0299-0.12504-2.0358-0.54823-2.8125-1.375-0.38704-0.41196-0.63782-0.95564-0.875-1.5z" filter="url(#filter4920)" fill="#fde3c0"/>
  </g>
 </g>
</svg>
