<?xml version="1.0" encoding="UTF-8" standalone="no"?>
<!-- Created with Inkscape (http://www.inkscape.org/) -->
<svg id="svg2" xmlns:rdf="http://www.w3.org/1999/02/22-rdf-syntax-ns#" xmlns="http://www.w3.org/2000/svg" height="96" width="96" version="1.1" xmlns:cc="http://creativecommons.org/ns#" xmlns:xlink="http://www.w3.org/1999/xlink" xmlns:dc="http://purl.org/dc/elements/1.1/">
 <defs id="defs4">
  <linearGradient id="linearGradient3554" y2="5.9877" gradientUnits="userSpaceOnUse" x2="48" gradientTransform="matrix(1.202 0 0 1.2231 -9.6142 -13.175)" y1="90" x1="48">
   <stop id="stop3189" stop-color="#a00000" offset="0"/>
   <stop id="stop3191" stop-color="#ff0505" offset="1"/>
  </linearGradient>
 </defs>
 <metadata id="metadata7">
  <rdf:RDF>
   <cc:Work rdf:about="">
    <dc:format>image/svg+xml</dc:format>
    <dc:type rdf:resource="http://purl.org/dc/dcmitype/StillImage"/>
    <dc:title/>
   </cc:Work>
  </rdf:RDF>
 </metadata>
 <g id="layer1" transform="translate(0 -956.36)">
  <rect id="rect5263-0" fill-opacity=".019608" ry="12.724" height="89.978" width="89.978" y="959.35" x="2.9998"/>
  <rect id="rect5261-6" fill-opacity=".039216" ry="12.552" height="88.762" width="88.762" y="959.96" x="3.6078"/>
  <rect id="rect5259-9" fill-opacity=".078431" ry="12.38" height="87.546" width="87.546" y="960.57" x="4.2157"/>
  <rect id="rect5257-5" fill-opacity=".15686" ry="12.208" height="86.33" width="86.33" y="961.18" x="4.8237"/>
  <path id="rect2419-2" d="m17.469 5.4062c-6.668 0-12.032 5.3948-12.032 12.063l0.0005 61.031c0 6.668 5.3635 12.031 12.032 12.031h61.03c6.454 0 11.671-5.036 12-11.406v-62.281c-0.321-6.377-5.54-11.438-12-11.438l-61.031 0.0002z" transform="translate(0 956.36)" fill="url(#linearGradient3554)"/>
  <path id="rect5265-0" d="m5.4316 1029.8v5.0663c0 6.668 5.3645 12.032 12.032 12.032h61.049c6.668 0 12.032-5.3645 12.032-12.032v-5.0663c0 6.6681-5.3645 12.032-12.032 12.032h-61.049c-6.668 0-12.032-5.3643-12.032-12.032z" fill-opacity=".19"/>
  <path id="path5252-0" d="m5.4316 1033.9v1.0133c0 6.668 5.3645 12.032 12.032 12.032h61.049c6.668 0 12.032-5.3645 12.032-12.032v-1.0133c0 6.6681-5.3645 12.032-12.032 12.032h-61.049c-6.668 0-12.032-5.3644-12.032-12.032z" fill-opacity=".098039"/>
  <g id="layer3" transform="translate(-.21484 954.43)">
   <path id="path3661" opacity=".05" d="m31.844 19.094c-1.0321-0.02432-1.9075 0.55332-2.4375 1.25-0.49996 0.65714-0.73596 1.4413-0.8125 2.2188h-0.03125c-0.012 0.051-0.02 0.104-0.032 0.156-3.596 15.843-7.246 31.682-10.812 47.531a0.98644 0.98644 0 0 0 0 0.0625c-0.17642 1.1796 0.37357 2.2645 1.1875 2.875 0.76412 0.57312 1.7451 0.8017 2.7188 0.65625v0.03125c2.8521-0.04031 5.8086 0.08534 8.75-0.0625a0.98644 0.98644 0 0 0 0.219 -0.062c1.33-0.3982 2.0174-1.5313 2.3125-2.5312 0.295-1 0.388-2.001 0.594-2.594a0.98644 0.98644 0 0 0 0.03125 -0.09375l3.9062-16.344h13.688c-5.6154 4.9933-11.267 9.9785-16.844 15.031a0.98644 0.98644 0 0 0 -0.0625 0.0625c-0.81552 0.88021-0.90741 2.0875-0.59375 3 0.30043 0.874 0.87415 1.5536 1.4688 2.0938 0.02439 0.02645 0.03816 0.06721 0.0625 0.09375 1.8257 1.9908 3.5168 4.2463 5.5938 6.2188a0.98644 0.98644 0 0 0 0.21875 0.15625c1.1882 0.65538 2.4566 0.3465 3.375-0.09375 0.91837-0.44025 1.6803-0.97422 2.25-1.1875a0.98644 0.98644 0 0 0 0.157 -0.092c2.3444-1.4249 5.2239-1.8361 7.7188-0.78125a0.98644 0.98644 0 0 0 0.0625 0.03125c4.9856 1.7295 10.654 2.897 16 0.875a0.98644 0.98644 0 0 0 0 -0.03125c2.1055-0.80965 4.5534-1.585 6.5-3.25a0.98644 0.98644 0 0 0 0.125 -0.15625c0.74426-1.0111 0.71727-2.1912 0.53125-3.125-0.18602-0.93379-0.49033-1.7642-0.53125-2.3438a0.98644 0.98644 0 0 0 0 -0.1875c-0.47898-1.8925-0.57245-4.0976-1.4375-6.25a0.98644 0.98644 0 0 0 -0.095 -0.188c-0.65622-0.9327-1.7494-1.3398-2.7188-1.2812-0.91741 0.05544-1.7726 0.46656-2.4375 1.0938-2.2633 1.6584-5.1054 2.5448-7.625 1.5a0.98644 0.98644 0 0 0 -0.094 -0.031c-0.60683-0.17444-1.0498-0.33008-1.5312-0.46875 4.7459-4.0211 9.5957-7.9645 14.312-12.062a0.98644 0.98644 0 0 0 0.25 -0.375c0.89851-2.0904 1.1282-4.2618 1.6875-6.1562a0.98644 0.98644 0 0 0 0.032 -0.157c0.06669-0.57767 0.37102-1.3831 0.59375-2.2812 0.22273-0.89815 0.34166-2.0163-0.28125-3.0625a0.98644 0.98644 0 0 0 -0.062 -0.093c-0.80861-1.0613-2.0544-1.3544-3.0625-1.375-1.0081-0.02059-1.9145 0.13644-2.5312 0.0625a0.98644 0.98644 0 0 0 -0.125 -0.03125h-31.625l0.9375-3.625c7.7644-0.01509 15.536 0.03932 23.312-0.03125a0.98644 0.98644 0 0 0 0.1875 -0.03125c1.3733-0.25608 2.1482-1.3779 2.4688-2.375 0.32056-0.99714 0.39126-2.0054 0.5625-2.625a0.98644 0.98644 0 0 0 0.03125 -0.09375c0.35226-2.0401 1.0661-4.1768 1.25-6.5a0.98644 0.98644 0 0 0 0 -0.125c-0.09073-1.1555-0.85506-2.0529-1.7188-2.4688-0.81302-0.39142-1.6989-0.4241-2.5312-0.3125v-0.0625h-33.031-0.03125z" fill="#300000"/>
   <path id="path3655" opacity=".1" d="m31.844 20.094c-1.3944-0.0492-2.2334 1.4016-2.3139 2.6855-3.608 15.897-7.2651 31.792-10.842 47.69-0.24368 1.6294 1.4783 2.7076 2.9512 2.4062 2.8895-0.04084 5.7938 0.08226 8.6738-0.0625 1.9332-0.57881 1.7117-2.9286 2.2531-4.4869 1.3636-5.7127 2.7271-11.425 4.0907-17.138h17.094c-6.262 5.5918-12.595 11.116-18.812 16.75-1.1512 1.2425-0.17429 2.8542 0.87115 3.7756 1.8993 2.0596 3.605 4.3337 5.6288 6.2557 1.7122 0.94443 3.2859-0.76975 4.8219-1.3448 2.578-1.5669 5.7712-2.0361 8.597-0.84128 4.8932 1.6975 10.318 2.7573 15.327 0.86253 2.1329-0.82019 4.4418-1.5863 6.1914-3.0828 1.0545-1.4326-0.0626-3.2234-0.17379-4.7983-0.51364-2.0294-0.60905-4.1993-1.3887-6.1392-0.9157-1.3015-2.754-1.0061-3.7632 0.02104-2.4466 1.7926-5.6449 2.8507-8.5844 1.6318-1.6905-0.48597-4.4063-0.80675-1.8848-2.1647 4.7545-4.0283 9.5926-7.9653 14.295-12.051 0.8205-1.9089 1.0548-4.0689 1.6474-6.0762 0.17914-1.5518 1.3356-3.2115 0.44633-4.7051-1.1685-1.5337-3.3083-0.74042-4.9521-0.9375h-32.892c0.47917-1.875 0.95833-3.75 1.4375-5.625 8.0304-0.02078 16.068 0.04159 24.094-0.03125 1.9993-0.3728 1.87-2.7306 2.2966-4.2743 0.37-2.144 1.064-4.256 1.235-6.416-0.12548-1.5981-1.9163-2.1336-3.2817-1.9062h-33.062z" fill="#300000"/>
   <path id="path3651" opacity=".15" d="m31.844 21.219a1.0168 1.0168 0 0 0 -1 0.8125l-11.032 48.468a1.0168 1.0168 0 0 0 1 1.25h8.9688a1.0168 1.0168 0 0 0 1 -0.78125l5-20.906h20.938l-20.875 18.531a1.0168 1.0168 0 0 0 -0.063 1.406l5.969 6.812a1.0168 1.0168 0 0 0 1.2188 0.25l3.031-1.562c2.7672-1.4105 4.5627-1.6571 6.25-1.4688 1.6873 0.18831 3.3295 0.87708 5.5938 1.5 4.2419 1.167 8.8659 2.4561 17.375-2.4062a1.0168 1.0168 0 0 0 0.5 -1.0625l-1.657-8.374a1.0168 1.0168 0 0 0 -1.593 -0.657c-4.382 3.089-6.898 3.172-9.344 2.563-1.859-0.463-3.881-1.33-6.219-1.844l16.906-14.188a1.0168 1.0168 0 0 0 0.34375 -0.53125l2.032-8.281a1.0168 1.0168 0 0 0 -1 -1.2812h-37.469l2-7.875h24.594a1.0168 1.0168 0 0 0 1 -0.8125l1.75-8.3125a1.0168 1.0168 0 0 0 -1 -1.25h-34.219z" fill="#300000"/>
   <path id="path3459" opacity=".3" d="m31.838 22.264-11.018 48.453h8.9524l5.2004-21.683h24.438l-22.886 20.309 5.9661 6.8102 3.0559-1.561c5.7789-2.9455 8.2026-1.2232 12.587-0.01699 4.2654 1.1735 8.2752 2.4294 16.595-2.3245l-1.652-8.39c-9.0793 6.3995-11.952 0.68989-18.418 0.46325l18.513-15.53 2.0088-8.2901h-38.78l2.4963-9.9496h25.418l1.7431-8.2901h-34.22z" fill="#300000"/>
   <path id="path3307" d="m31.838 21.263-11.018 48.453h8.9524l5.2004-21.683h24.438l-22.886 20.309 5.9661 6.8102 3.0559-1.561c5.7789-2.9455 8.2026-1.2232 12.587-0.01699 4.2654 1.1735 8.2752 2.4294 16.595-2.3245l-1.652-8.391c-9.0793 6.3995-11.952 0.68989-18.418 0.46325l18.513-15.53 2.0088-8.2901h-38.78l2.4963-9.9496h25.418l1.7431-8.2901h-34.22z" fill="#fff"/>
  </g>
 </g>
</svg>
