<?xml version="1.0" encoding="UTF-8" standalone="no"?>
<!-- Created with Inkscape (http://www.inkscape.org/) -->
<svg id="svg2" xmlns:rdf="http://www.w3.org/1999/02/22-rdf-syntax-ns#" xmlns="http://www.w3.org/2000/svg" height="96" width="96" version="1.1" xmlns:cc="http://creativecommons.org/ns#" xmlns:xlink="http://www.w3.org/1999/xlink" xmlns:dc="http://purl.org/dc/elements/1.1/">
 <defs id="defs4">
  <linearGradient id="linearGradient6400" y2="2.9934" gradientUnits="userSpaceOnUse" x2="47.995" y1="84.031" x1="47.995">
   <stop id="stop6396" stop-color="#ccc" offset="0"/>
   <stop id="stop6398" stop-color="#dae0de" offset="1"/>
  </linearGradient>
  <radialGradient id="radialGradient4578" gradientUnits="userSpaceOnUse" cy="-15.871" cx="56.066" gradientTransform="matrix(-.0022616 -1.2346 1.3856 0 169.72 1091.6)" r="35.938">
   <stop id="stop3177-6" stop-color="#4490e6" offset="0"/>
   <stop id="stop3179-3" stop-color="#103d8f" offset="1"/>
  </radialGradient>
  <linearGradient id="linearGradient4580" y2="72.766" gradientUnits="userSpaceOnUse" x2="76.451" gradientTransform="translate(99.638 951.36)" y1="8.0625" x1="76.451">
   <stop id="stop3689-3" stop-color="#fff" offset="0"/>
   <stop id="stop3691-1" stop-color="#fff" stop-opacity="0" offset="1"/>
  </linearGradient>
  <clipPath id="clipPath5350" clipPathUnits="userSpaceOnUse">
   <rect id="rect5352" opacity=".75104" ry="8.3678" height="65.418" width="69.679" y="967.6" x="112.63" fill="url(#linearGradient5354)"/>
  </clipPath>
  <linearGradient id="linearGradient5354" y2="975.65" gradientUnits="userSpaceOnUse" x2="3468.4" gradientTransform="matrix(.31367 0 0 .36643 -913.52 433.24)" y1="1636.7" x1="3382.6">
   <stop id="stop4911" stop-color="#1a1a1a" offset="0"/>
   <stop id="stop4913" stop-color="#7a7a7a" offset="1"/>
  </linearGradient>
 </defs>
 <metadata id="metadata7">
  <rdf:RDF>
   <cc:Work rdf:about="">
    <dc:format>image/svg+xml</dc:format>
    <dc:type rdf:resource="http://purl.org/dc/dcmitype/StillImage"/>
    <dc:title/>
   </cc:Work>
  </rdf:RDF>
 </metadata>
 <g id="layer1" transform="translate(0 -956.36)">
  <rect id="rect5263-0" fill-opacity=".019608" ry="12.724" height="89.978" width="89.624" y="959.35" x="3.3534"/>
  <rect id="rect5261-6" fill-opacity=".039216" ry="12.552" height="88.762" width="88.413" y="959.96" x="3.9589"/>
  <rect id="rect5259-9" fill-opacity=".078431" ry="12.38" height="87.546" width="87.202" y="960.57" x="4.5645"/>
  <rect id="rect5257-5" fill-opacity=".15686" ry="12.208" height="86.33" width="85.991" y="961.18" x="5.1701"/>
  <path id="rect2419" d="m17.75 5.4062c-6.642 0-11.969 5.3948-11.969 12.063l0.0002 61.031c0 6.668 5.3268 12.031 11.969 12.031h60.812c6.642 0 11.969-5.363 11.969-12.031v-61.031c0-6.668-5.327-12.063-11.969-12.063l-60.812 0.0002z" transform="translate(0 956.36)" fill="url(#linearGradient6400)"/>
  <path id="rect5265-0" d="m5.7756 1029.8v5.0663c0 6.668 5.3434 12.032 11.985 12.032h60.809c6.6418 0 11.985-5.3645 11.985-12.032v-5.0663c0 6.6681-5.3434 12.032-11.985 12.032h-60.809c-6.6418 0-11.985-5.3643-11.985-12.032z" fill-opacity=".11765"/>
  <path id="path5252-0" d="m5.7756 1033.9v1.0133c0 6.668 5.3434 12.032 11.985 12.032h60.809c6.6418 0 11.985-5.3645 11.985-12.032v-1.0133c0 6.6681-5.3434 12.032-11.985 12.032h-60.809c-6.6418 0-11.985-5.3644-11.985-12.032z" fill-opacity=".098039"/>
  <rect id="rect4891" opacity=".5" ry="7.259" height="56.75" width="71.472" y="968.65" x="12.232" fill="#4d4d4d"/>
  <rect id="rect4935" transform="scale(1,-1)" ry="1.2796" height="2.5593" width="17.309" y="-1036.3" x="58.934" fill="#999"/>
  <rect id="rect4939" transform="scale(1,-1)" ry="1.2796" height="2.5593" width="17.309" y="-1035.4" x="58.934" fill="#808080"/>
  <g id="g4554" clip-path="url(#clipPath5350)" transform="matrix(1 0 0 .85603 -99.5 143.38)">
   <path id="path3215-5" d="m183.58 1035.2v-71.868h-71.937v71.868h71.937z" fill="url(#radialGradient4578)"/>
   <rect id="rect4832" opacity=".4" rx="3.0291" ry="2.383" height="10" width="72.536" y="1025.4" x="111.42" fill="#c3d9f5"/>
   <rect id="rect3889" opacity=".3" rx="3.5198" ry="4.0227" height="32" width="44" y="981.36" x="125.64" fill="#fff"/>
   <rect id="rect3899" rx="2" ry="2" height="12" width="34" y="994.36" x="130.64" fill="#fff"/>
   <path id="path3915" fill="#0f3d6f" d="m132.64 993.39c-1.6208 0-2.9688 1.348-2.9688 2.9688v8c0 1.6208 1.348 2.9688 2.9688 2.9688h30c1.6208 0 2.9688-1.348 2.9688-2.9688v-8c0-1.6208-1.348-2.9688-2.9688-2.9688h-30zm0 2.0312h30c0.50058 0 0.9375 0.43692 0.9375 0.9375v8c0 0.5006-0.43692 0.9375-0.9375 0.9375h-30c-0.50057 0-0.9375-0.4369-0.9375-0.9375v-8c0-0.50058 0.43693-0.9375 0.9375-0.9375z"/>
   <path id="rect3927" opacity=".3" d="m132.64 995.42c-0.50057 0-0.9375 0.43692-0.9375 0.9375v8c0 0.3099 0.19113 0.5775 0.4375 0.75v-7.75c0-0.50058 0.42139-0.9375 0.90625-0.9375h29.188c0.48487 0 0.90625 0.43692 0.90625 0.9375v7.75c0.24638-0.1725 0.4375-0.4401 0.4375-0.75v-8c0-0.50058-0.43692-0.9375-0.9375-0.9375h-30z"/>
   <path id="path3935" d="m139.64 1000.4a2.5 2.5 0 0 1 -5 0 2.5 2.5 0 1 1 5 0z"/>
   <path id="path3941" d="m146.64 1000.4a2.5 2.5 0 0 1 -5 0 2.5 2.5 0 1 1 5 0z"/>
   <path id="path3943" d="m153.64 1000.4a2.5 2.5 0 0 1 -5 0 2.5 2.5 0 1 1 5 0z"/>
   <path id="path3945" d="m160.64 1000.4a2.5 2.5 0 0 1 -5 0 2.5 2.5 0 1 1 5 0z"/>
   <g id="text3947" fill="#fff" transform="translate(99.638 951.36)">
    <path id="path3952" d="m32.549 35.65c-0.000003 0.14341-0.02416 0.27747-0.07249 0.40218-0.04677 0.12315-0.11769 0.23071-0.21278 0.32268-0.09353 0.09041-0.21122 0.16212-0.35307 0.21512-0.14186 0.053-0.30709 0.0795-0.4957 0.0795h-0.96803v1.2837h-0.4466v-3.2946h1.3866c0.19485 0.000003 0.36476 0.02416 0.50973 0.07248 0.14497 0.04677 0.26578 0.1138 0.36242 0.20109 0.09664 0.08574 0.16913 0.19018 0.21746 0.31332 0.04832 0.12159 0.07248 0.25643 0.07249 0.40451m-0.44894 0.0047c-0.000002-0.20888-0.06391-0.3671-0.19173-0.47466-0.12782-0.10912-0.31956-0.16367-0.5752-0.16368h-0.88619v1.3001h0.9049c0.2572 0.000002 0.44582-0.05689 0.56585-0.17069 0.12158-0.11379 0.18238-0.27747 0.18238-0.49103"/>
    <path id="path3954" d="m33.774 38c-0.25409 0-0.44504-0.06703-0.57287-0.20109-0.12782-0.13406-0.19174-0.318-0.19174-0.55182 0-0.16679 0.03118-0.30319 0.09353-0.40919 0.06391-0.10756 0.14653-0.19173 0.24785-0.25253 0.10288-0.06079 0.21979-0.10288 0.35074-0.12626 0.13094-0.02338 0.26422-0.03663 0.39984-0.03975l0.56819-0.0094v-0.13796c-0.000002-0.10444-0.01091-0.19329-0.03274-0.26656-0.02183-0.07326-0.05534-0.1325-0.10054-0.1777-0.04521-0.0452-0.1021-0.07794-0.17069-0.09821-0.06703-0.02182-0.14653-0.03273-0.2385-0.03274-0.08106 0.000002-0.15432 0.0062-0.21979 0.01871-0.06547 0.01091-0.12237 0.03196-0.17069 0.06313-0.04832 0.02962-0.0873 0.07093-0.11691 0.12393-0.02962 0.05144-0.0491 0.11691-0.05846 0.19641l-0.43959-0.03975c0.01559-0.09976 0.04521-0.19095 0.08885-0.27357 0.04365-0.08417 0.10522-0.15666 0.18472-0.21746 0.08106-0.06079 0.1816-0.10756 0.30163-0.14029 0.12159-0.03429 0.26812-0.05144 0.43959-0.05144 0.318 0.000002 0.55728 0.07327 0.71784 0.21979 0.16056 0.14497 0.24084 0.35541 0.24084 0.63132v1.0896c-0.000002 0.12471 0.01637 0.21901 0.0491 0.28292 0.03273 0.06235 0.09509 0.09353 0.18706 0.09353 0.02338 0 0.04676-0.0016 0.07015-0.0047 0.02338-0.0031 0.04598-0.007 0.06781-0.01169v0.26188c-0.053 0.01247-0.106 0.02182-0.159 0.02806-0.05144 0.0062-0.10678 0.0094-0.16601 0.0094-0.0795 0-0.14809-0.01013-0.20576-0.0304-0.05612-0.02182-0.1021-0.05378-0.13796-0.09587-0.03585-0.04365-0.06313-0.09665-0.08184-0.159-0.01871-0.06391-0.0304-0.13796-0.03507-0.22213h-0.01403c-0.04521 0.08106-0.09509 0.15432-0.14965 0.21979-0.053 0.06547-0.11535 0.12159-0.18706 0.16835-0.07171 0.04521-0.15354 0.08028-0.24551 0.10522-0.09041 0.02494-0.19485 0.03741-0.31332 0.03741m0.09587-0.31566c0.13406 0 0.25097-0.02416 0.35073-0.07249 0.10132-0.04988 0.18472-0.11301 0.25019-0.1894 0.06703-0.07638 0.11691-0.15978 0.14965-0.25019 0.03273-0.09041 0.0491-0.17692 0.0491-0.25954v-0.2081l-0.46063 0.0094c-0.10288 0.0016-0.20109 0.0094-0.29462 0.02338-0.09197 0.01247-0.17303 0.03819-0.24318 0.07716s-0.12626 0.09353-0.16835 0.16368c-0.04053 0.07015-0.06079 0.16212-0.06079 0.27591 0 0.13718 0.03663 0.24318 0.1099 0.318 0.07482 0.07482 0.18082 0.11224 0.318 0.11224"/>
    <path id="path3956" d="m37.693 37.254c-0.000003 0.11847-0.02338 0.22447-0.07015 0.318-0.04521 0.09197-0.11146 0.16991-0.19875 0.23382-0.0873 0.06235-0.19485 0.11068-0.32268 0.14497-0.12627 0.03274-0.27124 0.0491-0.43491 0.0491-0.14653 0-0.27903-0.01169-0.3975-0.03507-0.11691-0.02182-0.21979-0.05768-0.30865-0.10756-0.08885-0.04988-0.16368-0.11535-0.22447-0.19641-0.05924-0.08262-0.10288-0.18316-0.13094-0.30163l0.37178-0.07249c0.03585 0.13562 0.1099 0.23538 0.22213 0.29929 0.11223 0.06235 0.26812 0.09353 0.46765 0.09353 0.09041 0 0.17303-0.0062 0.24785-0.01871 0.07638-0.01247 0.14185-0.03351 0.19641-0.06313 0.05456-0.03118 0.09664-0.07171 0.12626-0.12159 0.03117-0.05144 0.04676-0.11457 0.04677-0.1894-0.000002-0.07638-0.01793-0.13873-0.05378-0.18706-0.03585-0.04988-0.08574-0.09119-0.14965-0.12393s-0.14185-0.06079-0.23382-0.08418c-0.09041-0.02494-0.19018-0.05222-0.29929-0.08184-0.10132-0.0265-0.20187-0.05612-0.30163-0.08885-0.09977-0.03273-0.19018-0.0756-0.27124-0.1286-0.0795-0.05456-0.14419-0.12159-0.19407-0.20109s-0.07482-0.17926-0.07482-0.29929c0-0.2307 0.08184-0.40607 0.24551-0.5261 0.16523-0.12158 0.40529-0.18238 0.72017-0.18238 0.27903 0.000003 0.50038 0.04911 0.66406 0.14731 0.16523 0.09821 0.26967 0.25565 0.31332 0.47232l-0.37879 0.04676c-0.01403-0.06547-0.03975-0.12003-0.07716-0.16368-0.03741-0.0452-0.08262-0.08106-0.13562-0.10756-0.053-0.02806-0.11302-0.04754-0.18004-0.05846-0.06547-0.01247-0.13406-0.0187-0.20576-0.01871-0.19018 0.000003-0.33047 0.02884-0.42088 0.08651-0.09041 0.05768-0.13562 0.14497-0.13562 0.26188-0.000001 0.06859 0.01637 0.12549 0.0491 0.17069 0.03429 0.04365 0.08106 0.08106 0.14029 0.11224 0.06079 0.02962 0.13328 0.05612 0.21746 0.0795 0.08418 0.02182 0.17692 0.04521 0.27825 0.07015 0.06703 0.01715 0.13562 0.03585 0.20576 0.05612 0.07014 0.01871 0.13795 0.04209 0.20342 0.07015 0.06703 0.0265 0.12938 0.05846 0.18706 0.09587 0.05923 0.03585 0.11067 0.0795 0.15432 0.13094 0.04364 0.05144 0.07794 0.11146 0.10288 0.18004 0.0265 0.06859 0.03975 0.14809 0.03975 0.2385"/>
    <path id="path3958" d="m40.087 37.254c-0.000002 0.11847-0.02338 0.22447-0.07015 0.318-0.04521 0.09197-0.11146 0.16991-0.19875 0.23382-0.0873 0.06235-0.19485 0.11068-0.32268 0.14497-0.12627 0.03274-0.27124 0.0491-0.43491 0.0491-0.14653 0-0.27903-0.01169-0.3975-0.03507-0.11691-0.02182-0.21979-0.05768-0.30865-0.10756-0.08885-0.04988-0.16368-0.11535-0.22447-0.19641-0.05924-0.08262-0.10288-0.18316-0.13094-0.30163l0.37178-0.07249c0.03585 0.13562 0.1099 0.23538 0.22213 0.29929 0.11223 0.06235 0.26812 0.09353 0.46764 0.09353 0.09041 0 0.17303-0.0062 0.24785-0.01871 0.07638-0.01247 0.14185-0.03351 0.19641-0.06313 0.05456-0.03118 0.09664-0.07171 0.12626-0.12159 0.03117-0.05144 0.04676-0.11457 0.04676-0.1894-0.000001-0.07638-0.01793-0.13873-0.05378-0.18706-0.03585-0.04988-0.08574-0.09119-0.14965-0.12393s-0.14185-0.06079-0.23382-0.08418c-0.09041-0.02494-0.19018-0.05222-0.29929-0.08184-0.10132-0.0265-0.20187-0.05612-0.30163-0.08885-0.09977-0.03273-0.19018-0.0756-0.27123-0.1286-0.0795-0.05456-0.14419-0.12159-0.19407-0.20109s-0.07482-0.17926-0.07482-0.29929c-0.000001-0.2307 0.08184-0.40607 0.24551-0.5261 0.16523-0.12158 0.40529-0.18238 0.72017-0.18238 0.27903 0.000003 0.50038 0.04911 0.66406 0.14731 0.16523 0.09821 0.26967 0.25565 0.31332 0.47232l-0.37879 0.04676c-0.01403-0.06547-0.03975-0.12003-0.07716-0.16368-0.03741-0.0452-0.08262-0.08106-0.13562-0.10756-0.053-0.02806-0.11302-0.04754-0.18004-0.05846-0.06547-0.01247-0.13406-0.0187-0.20576-0.01871-0.19018 0.000003-0.33047 0.02884-0.42088 0.08651-0.09041 0.05768-0.13562 0.14497-0.13562 0.26188-0.000001 0.06859 0.01637 0.12549 0.0491 0.17069 0.03429 0.04365 0.08106 0.08106 0.14029 0.11224 0.06079 0.02962 0.13328 0.05612 0.21746 0.0795 0.08418 0.02182 0.17692 0.04521 0.27825 0.07015 0.06703 0.01715 0.13562 0.03585 0.20576 0.05612 0.07015 0.01871 0.13795 0.04209 0.20343 0.07015 0.06703 0.0265 0.12938 0.05846 0.18706 0.09587 0.05923 0.03585 0.11067 0.0795 0.15432 0.13094 0.04364 0.05144 0.07794 0.11146 0.10288 0.18004 0.0265 0.06859 0.03975 0.14809 0.03975 0.2385"/>
    <path id="path3960" d="m43.005 37.953h-0.48869l-0.40451-1.6321c-0.01247-0.04209-0.02572-0.09431-0.03975-0.15666-0.01247-0.06235-0.02494-0.12314-0.03741-0.18238-0.01559-0.06859-0.0304-0.13951-0.04443-0.21278-0.01403 0.07015-0.02884 0.13952-0.04443 0.2081-0.01247 0.05924-0.0265 0.12081-0.04209 0.18472-0.01403 0.06391-0.02728 0.12003-0.03975 0.16835l-0.4162 1.6227h-0.48635l-0.70848-2.53h0.4162l0.4279 1.7186c0.01091 0.03585 0.02182 0.08028 0.03274 0.13328 0.01091 0.05144 0.02182 0.1021 0.03273 0.15198 0.01091 0.05768 0.0226 0.11691 0.03507 0.1777 0.01247-0.05924 0.02572-0.11691 0.03975-0.17303 0.01247-0.04832 0.02494-0.09743 0.03741-0.14731s0.02338-0.09119 0.03274-0.12393l0.45829-1.7373h0.45128l0.44192 1.7373c0.01091 0.04053 0.0226 0.08651 0.03507 0.13796 0.01247 0.05144 0.02416 0.09977 0.03507 0.14497 0.01247 0.053 0.02494 0.10678 0.03741 0.16134 0.01247-0.05924 0.02494-0.11691 0.03741-0.17303 0.01091-0.04832 0.02182-0.09821 0.03274-0.14965 0.01247-0.053 0.02416-0.09976 0.03507-0.14029l0.4466-1.7186h0.41153l-0.72485 2.53"/>
    <path id="path3962" d="m46.183 36.686c-0.000002 0.44271-0.09743 0.7724-0.29228 0.98907-0.19486 0.21668-0.47778 0.32501-0.84878 0.32501-0.17615 0-0.33359-0.0265-0.47232-0.0795-0.13874-0.053-0.25643-0.13406-0.35307-0.24318-0.09509-0.10912-0.16835-0.24551-0.21979-0.40919-0.04988-0.16523-0.07482-0.35931-0.07482-0.58222 0-0.87294 0.37801-1.3094 1.134-1.3094 0.19641 0.000002 0.36554 0.02728 0.5074 0.08184 0.14341 0.05456 0.26032 0.1364 0.35073 0.24551 0.09197 0.10912 0.15978 0.24552 0.20343 0.40919 0.04364 0.16368 0.06547 0.35463 0.06547 0.57286m-0.44192 0c-0.000002-0.19641-0.01559-0.35853-0.04677-0.48635-0.02962-0.12782-0.07404-0.22992-0.13328-0.30631-0.05768-0.07638-0.1286-0.12938-0.21278-0.159-0.08418-0.03117-0.17927-0.04676-0.28526-0.04677-0.10756 0.000002-0.20499 0.01637-0.29228 0.0491-0.08574 0.03118-0.159 0.08574-0.21979 0.16368-0.0608 0.07638-0.10756 0.17849-0.14029 0.30631-0.03118 0.12782-0.04677 0.2876-0.04676 0.47934-0.000001 0.19641 0.01715 0.35931 0.05144 0.48869 0.03429 0.12782 0.08106 0.22993 0.14029 0.30631 0.06079 0.07638 0.13172 0.13016 0.21278 0.16134 0.08262 0.03118 0.17225 0.04676 0.2689 0.04676 0.10756 0 0.20498-0.01481 0.29228-0.04443 0.08729-0.03118 0.16134-0.08495 0.22213-0.16134 0.06079-0.07638 0.10756-0.17926 0.14029-0.30865 0.03273-0.12938 0.0491-0.29228 0.0491-0.48869"/>
    <path id="path3964" d="m46.718 37.953v-1.9407c0-0.053-0.000779-0.10678-0.0023-0.16134 0-0.05611-0.00078-0.10989-0.0023-0.16134-0.0016-0.05144-0.0031-0.09976-0.0047-0.14497-0.0016-0.0452-0.0031-0.08573-0.0047-0.12159h0.3975c0.0016 0.03586 0.0031 0.07716 0.0047 0.12393 0.0031 0.04521 0.0055 0.09197 0.007 0.14029 0.0031 0.04833 0.0047 0.09509 0.0047 0.14029 0.0016 0.04365 0.0023 0.08106 0.0023 0.11224h0.0094c0.02962-0.09665 0.06079-0.18004 0.09353-0.25019 0.03429-0.0717 0.07404-0.13016 0.11925-0.17537 0.0452-0.04676 0.09898-0.08106 0.16134-0.10288 0.06235-0.02338 0.13795-0.03507 0.22681-0.03507 0.03429 0.000002 0.06703 0.0031 0.09821 0.0094 0.03117 0.0047 0.05534 0.0094 0.07249 0.01403v0.38581c-0.02806-0.0078-0.0608-0.01325-0.09821-0.01637-0.03741-0.0047-0.0795-0.007-0.12626-0.007-0.09665 0.000003-0.17927 0.02183-0.24785 0.06547-0.06703 0.04365-0.12237 0.10444-0.16602 0.18238-0.04209 0.07638-0.07326 0.16836-0.09353 0.27591-0.02027 0.106-0.0304 0.22213-0.0304 0.3484v1.3188h-0.42088"/>
    <path id="path3966" d="m49.905 37.546c-0.07794 0.16212-0.1816 0.27825-0.31098 0.3484-0.12782 0.07015-0.28682 0.10522-0.477 0.10522-0.31956 0-0.55494-0.10756-0.70614-0.32268-0.14965-0.21512-0.22447-0.54091-0.22447-0.97738-0.000001-0.88229 0.3102-1.3234 0.93061-1.3234 0.19173 0.000002 0.35151 0.03508 0.47934 0.10522 0.12782 0.07015 0.2307 0.1816 0.30865 0.33437h0.0047c-0.000002-0.01559-0.000782-0.03975-0.0023-0.07249-0.000002-0.03429-0.000781-0.06937-0.0023-0.10522-0.000002-0.03741-0.000002-0.07248 0-0.10522-0.000002-0.03273-0.000002-0.05611 0-0.07015v-0.97972h0.42088v2.9485c-0.000002 0.06079-0.000002 0.11925 0 0.17537 0.0016 0.05612 0.0031 0.10756 0.0047 0.15432 0.0016 0.04677 0.0031 0.08729 0.0047 0.12159 0.0016 0.03273 0.0031 0.05612 0.0047 0.07015h-0.40218c-0.0031-0.01559-0.0062-0.03741-0.0094-0.06547-0.0016-0.02962-0.0039-0.06313-0.007-0.10054-0.0016-0.03741-0.0031-0.07638-0.0047-0.11691-0.0016-0.04209-0.0023-0.0834-0.0023-0.12393h-0.0094m-1.277-0.86c-0.000001 0.17459 0.01091 0.32424 0.03274 0.44894 0.02182 0.12471 0.0569 0.22759 0.10522 0.30865 0.04832 0.0795 0.1099 0.13796 0.18472 0.17537s0.16601 0.05612 0.27357 0.05612c0.11068 0 0.2081-0.01793 0.29228-0.05378 0.08573-0.03585 0.15666-0.09353 0.21278-0.17303 0.05767-0.08106 0.10132-0.18628 0.13094-0.31566 0.02961-0.12938 0.04442-0.2876 0.04443-0.47466-0.000002-0.17926-0.01481-0.33047-0.04443-0.45362-0.02962-0.1247-0.07327-0.22525-0.13094-0.30163-0.05768-0.07638-0.1286-0.13094-0.21278-0.16368-0.08262-0.03429-0.17849-0.05144-0.2876-0.05144-0.10288 0.000002-0.19174 0.01793-0.26656 0.05378-0.07482 0.03586-0.13718 0.09353-0.18706 0.17303s-0.0873 0.18316-0.11224 0.31098c-0.02338 0.12627-0.03507 0.27981-0.03507 0.46063"/>
    <path id="path3968" d="m52.417 35.907v-0.48401h0.45595v0.48401h-0.45595m0 2.046v-0.48401h0.45595v0.48401h-0.45595"/>
   </g>
   <path id="rect3970" opacity=".3" d="m129.17 981.36c-1.95 0-3.5312 1.8027-3.5312 4.0312v23.938c0 2.2285 1.5813 4.0312 3.5312 4.0312h36.938c1.95 0 3.5312-1.8027 3.5312-4.0312v-23.938c0-2.2286-1.5813-4.0312-3.5312-4.0312h-36.938zm0 1h36.938c1.3274 0 2.5312 1.2805 2.5312 3.0312v23.938c0 1.7507-1.2038 3.0312-2.5312 3.0312h-36.938c-1.3274 0-2.5312-1.2805-2.5312-3.0312v-23.938c0-1.7507 1.2038-3.0312 2.5312-3.0312z" fill="#fff"/>
   <path id="path3660" opacity=".32512" d="m144.48 959.42 1.3438 3.875h31.812 1c2.754 0 5.0625 2.3085 5.0625 5.0625v1 60 1c0 2.754-2.3085 5.0625-5.0625 5.0625h-1-6.875l1.3438 3.875h11.531c2.2218 0 3.9375-1.7156 3.9375-3.9375v-72c0-2.2218-1.7156-3.9375-3.9375-3.9375h-39.156z" fill-rule="evenodd" fill="url(#linearGradient4580)"/>
  </g>
 </g>
</svg>
