<?xml version="1.0" encoding="UTF-8" standalone="no"?>
<!-- Created with Inkscape (http://www.inkscape.org/) -->
<svg id="svg2" xmlns:rdf="http://www.w3.org/1999/02/22-rdf-syntax-ns#" xmlns="http://www.w3.org/2000/svg" height="96" width="96" version="1.1" xmlns:cc="http://creativecommons.org/ns#" xmlns:xlink="http://www.w3.org/1999/xlink" xmlns:dc="http://purl.org/dc/elements/1.1/">
 <defs id="defs4">
  <linearGradient id="linearGradient3613-7" y2="138.66" gradientUnits="userSpaceOnUse" x2="48" y1="20.221" x1="48">
   <stop id="stop3739-40" stop-color="#fff" offset="0"/>
   <stop id="stop3741-8" stop-color="#fff" stop-opacity="0" offset="1"/>
  </linearGradient>
  <clipPath id="clipPath3613-22">
   <rect id="rect3615-13" rx="6" ry="6" height="84" width="84" y="6" x="6" fill="#fff"/>
  </clipPath>
  <filter id="filter3794-3" height="1.384" width="1.384" color-interpolation-filters="sRGB" y="-.192" x="-.192">
   <feGaussianBlur id="feGaussianBlur3796-52" stdDeviation="5.28"/>
  </filter>
  <linearGradient id="linearGradient3700-0">
   <stop id="stop3702-2" stop-color="#70a83e" offset="0"/>
   <stop id="stop3704-9" stop-color="#9fd058" offset="1"/>
  </linearGradient>
  <linearGradient id="linearGradient4982" y2="5.9877" xlink:href="#linearGradient3700-0" gradientUnits="userSpaceOnUse" x2="48" gradientTransform="translate(101.91 941.34)" y1="90" x1="48"/>
  <linearGradient id="linearGradient3172-2">
   <stop id="stop3174-4" stop-color="#005c9b" offset="0"/>
   <stop id="stop3176-4" stop-color="#55baff" offset="1"/>
  </linearGradient>
  <linearGradient id="linearGradient34517" y2="7.4297" gradientUnits="userSpaceOnUse" x2="20.568" gradientTransform="matrix(1.6749 0 0 1.676 8.9756 960.73)" y1="42.957" x1="24">
   <stop id="stop3178-78" stop-color="#005693" offset="0"/>
   <stop id="stop3365" stop-color="#1d96dc" offset=".64839"/>
   <stop id="stop3180-5" stop-color="#3cc1ff" stop-opacity=".75540" offset="1"/>
  </linearGradient>
  <linearGradient id="linearGradient34519" y2="15.582" xlink:href="#linearGradient3172-2" gradientUnits="userSpaceOnUse" x2="32.369" gradientTransform="matrix(1.9087 0 0 1.8427 -16.253 938.44)" y1="50.016" x1="32.793"/>
  <linearGradient id="linearGradient34521" y2="51.406" xlink:href="#linearGradient3172-2" gradientUnits="userSpaceOnUse" x2="37.438" gradientTransform="matrix(1.1728 0 0 1.1736 9.2131 962.32)" y1="18.172" x1="25.727"/>
  <linearGradient id="linearGradient34523" y2="20.249" gradientUnits="userSpaceOnUse" x2="34.101" gradientTransform="matrix(1.1766 0 0 1.1572 9.1125 962.68)" y1="45.622" x1="34.101">
   <stop id="stop3225-8" stop-color="#003e69" offset="0"/>
   <stop id="stop3227-4" stop-color="#17a3ff" offset="1"/>
  </linearGradient>
  <linearGradient id="linearGradient34531" y2="2.9934" gradientUnits="userSpaceOnUse" x2="47.995" y1="81.469" x1="47.995">
   <stop id="stop34527" stop-color="#999" offset="0"/>
   <stop id="stop34529" stop-color="#999" stop-opacity="0" offset="1"/>
  </linearGradient>
 </defs>
 <metadata id="metadata7">
  <rdf:RDF>
   <cc:Work rdf:about="">
    <dc:format>image/svg+xml</dc:format>
    <dc:type rdf:resource="http://purl.org/dc/dcmitype/StillImage"/>
    <dc:title/>
   </cc:Work>
  </rdf:RDF>
 </metadata>
 <g id="layer1" transform="translate(0 -956.36)">
  <rect id="rect5261-6" fill-opacity=".039216" ry="12.552" height="88.762" width="88.762" y="959.96" x="3.6078"/>
  <rect id="rect5259-9" fill-opacity=".078431" ry="12.38" height="87.546" width="87.546" y="960.57" x="4.2157"/>
  <rect id="rect5257-5" fill-opacity=".15686" ry="12.208" height="86.33" width="86.33" y="961.18" x="4.8237"/>
  <path id="rect31607" d="m17.469 5.4062c-6.668 0-12.032 5.3948-12.032 12.063l0.0005 61.031c0 6.668 5.3635 12.031 12.032 12.031h61.03c6.454 0 11.671-5.036 12-11.406v-62.281c-0.321-6.377-5.54-11.438-12-11.438l-61.031 0.0002z" transform="translate(0 956.36)" fill="url(#linearGradient34531)"/>
  <path id="rect5265-0" d="m5.4316 1029.8v5.0663c0 6.668 5.3645 12.032 12.032 12.032h61.049c6.668 0 12.032-5.3645 12.032-12.032v-5.0663c0 6.6681-5.3645 12.032-12.032 12.032h-61.049c-6.668 0-12.032-5.3643-12.032-12.032z" fill-opacity=".23529"/>
  <path id="path5252-0" d="m5.4316 1033.9v1.0133c0 6.668 5.3645 12.032 12.032 12.032h61.049c6.668 0 12.032-5.3645 12.032-12.032v-1.0133c0 6.6681-5.3645 12.032-12.032 12.032h-61.049c-6.668 0-12.032-5.3644-12.032-12.032z" fill-opacity=".098039"/>
  <g id="layer5" transform="translate(-95.023 954.86)">
   <rect id="rect3171" height="66" stroke="#fff" stroke-linecap="round" stroke-width=".5" fill="url(#linearGradient3613-7)" rx="12" ry="12" width="66" opacity=".1" clip-path="url(#clipPath3613-22)" filter="url(#filter3794-3)" y="15" x="15"/>
  </g>
  <rect id="rect3873" rx="6" ry="6" height="84" width="84" display="none" y="947.34" x="107.91" fill="url(#linearGradient4982)"/>
  <rect id="rect3880" rx="6" ry="6" height="84" width="84" display="none" y="947.34" x="107.91" fill="url(#linearGradient4982)"/>
  <g id="g34503" transform="translate(-1 .5)">
   <path id="path3776" opacity=".05" d="m54.8 963.75c-20.759-1.156-40.618 16.587-41.062 37.531-0.000556 0.01 0.000546 0.021 0 0.031-0.93242 17.802 12.296 35.608 30.187 38.469h0.03125c17.494 3.2539 36.895-8.6966 40.062-26.625 2.9827-14.483-5.0534-30.753-19.125-36.094a0.99391 0.99391 0 0 0 -0.125 -0.0313c-1.6842-0.36016-3.8957-0.66009-5.4688-1.3438-0.78654-0.34183-1.3931-0.75542-1.75-1.25-0.35158-0.48716-0.52964-1.0542-0.40625-1.9688 0.0019-0.0139-0.002-0.0171 0-0.0313 0.47489-1.8485 0.499-3.968-0.1875-5.875-0.0967-0.26862-0.2218-0.42266-0.3125-0.59375a0.99391 0.99391 0 0 0 -0.0625 -0.15625c0.01665 0.0325 0.0071-0.11088-0.125-0.34375a0.99391 0.99391 0 0 0 -0.15625 -0.15625 0.99391 0.99391 0 0 0 -0.03125 -0.0313 0.99391 0.99391 0 0 0 0 -0.0313 0.99391 0.99391 0 0 0 -0.03125 -0.0937c-0.06248-0.0961-0.11656-0.16539-0.15625-0.21875a0.99391 0.99391 0 0 0 -0.03125 -0.0625 0.99391 0.99391 0 0 0 -0.0625 -0.0625c-0.08617-0.14079-0.20196-0.42774-0.5625-0.78125a0.99391 0.99391 0 0 0 -0.625 -0.28125zm0.40625 1.9375v0.15625 0.0937c-0.01332 0.006-0.01807-0.005-0.03125 0l-0.09375-0.0937-0.0625-0.0313 0.1875-0.125zm-0.4375 0.65625a0.99391 0.99391 0 0 0 0.375 0.125l-0.03125 0.125c-0.10448 0.0382-0.19399 0.0615-0.25 0.0625-0.02227 0.00041-0.04416 0.00007-0.0625 0-0.03375-0.0669-0.02066-0.18697-0.03125-0.3125zm-5.25 15.875-0.59375 4.875c-10.246 1.9757-16.445 15.093-10.656 24.031 0.01085 0.021 0.02028 0.042 0.03125 0.063 2.1823 4.15 6.7476 6.3919 11.281 6.5937 4.534 0.2019 9.1761-1.707 11.406-6.0625 0.004-0.01-0.004-0.023 0-0.031 0.0066-0.011 0.02474-0.02 0.03125-0.031 1.1232-1.9526 1.6288-4.4418 1.2812-6.7812-0.35102-2.3629-1.6645-4.6217-4.125-5.6563a0.99391 0.99391 0 0 0 -0.375 -0.0937c-0.68972 0.01-1.3238-0.29522-1.875-0.875-0.55121-0.57978-0.98257-1.4098-1.1562-2.2188-0.17368-0.80895-0.08329-1.563 0.1875-2.0312 0.26335-0.45534 0.66332-0.77114 1.5938-0.8125 4.3023 0.76428 7.5531 3.9426 9.2188 7.9376 1.6824 4.035 1.6925 8.8374-0.5 12.531a0.99391 0.99391 0 0 0 -0.03125 0.031c-4.9616 9.5199-19.672 11.732-27.312 4.2187a0.99391 0.99391 0 0 0 -0.03125 0c-8.6118-7.8851-8.5571-23.804 1.0312-30.875a0.99391 0.99391 0 0 0 0.03125 -0.0313c3.041-2.4667 6.7176-4.1566 10.562-4.7812z" fill-rule="evenodd"/>
   <path id="path3733" opacity="0.08" d="m54.738 964.75c-20.166-1.123-39.599 16.253-40.011 36.59-0.9219 17.293 12.02 34.705 29.372 37.462 16.936 3.1678 35.875-8.4985 38.936-25.821 2.8811-13.989-4.9185-29.837-18.476-34.982-3.2152-0.68756-9.0348-1.1402-8.3779-5.7225 0.65906-2.4753 0.49105-5.6299-1.4431-7.5264zm0.0625 1.25c1.0064-0.24698-0.50913-0.61901 0 0zm0.4375-0.53125c-1.149-1.3618 0.3063 1.3749 0 0zm-0.0625 0.59375c1.0559 0.0673-0.03409-0.9591 0 0zm0.0625 0.0313c0.8811-0.0748-0.69192-0.59091 0 0zm0.09375 0.28125c0.99575 0.20196-0.23016-0.79495 0 0zm0.71875 0.53125-0.41312 0.0279 0.41312-0.0279zm-5.375 14.094l-0.84375 6.875c-9.9671 1.3102-16.241 14.278-10.673 22.776 3.9432 7.6165 16.957 8.5643 20.99 0.5578 2.038-3.4838 1.8712-9.3224-2.3387-11.092-4.0491 0.056-6.2403-7.7845-1.2375-7.9202 9.5082 1.5733 14.289 13.945 9.5255 21.969-5.2982 10.166-20.716 12.494-28.872 4.475-9.0975-8.3301-9.0335-24.932 1.1183-32.418 3.51-2.8472 7.8131-4.784 12.331-5.2222z" fill-rule="evenodd"/>
   <path id="path3727" opacity=".2" d="m54.8 965.47c-15.167-0.39311-29.649 8.2643-36 22.156-8.1073 17.733-0.69596 39.723 17.312 47.875 16.362 7.4073 36.628 0.5423 44.062-16.125 6.6967-15.014 0.33591-33.556-14.969-40.281-3.2985-1.4494-6.7661-1.9948-10.188-2.0938l1.25-9.8125c-0.000174 0.002 0.000097-0.0953 0-0.0937-0.000096 0.002 0.000019-0.064 0-0.0625-0.000019 0.002-0.000059-0.0953 0-0.0937 0.000059 0.002-0.000137-0.064 0-0.0625 0.000137 0.002-0.000214-0.0953 0-0.0937 0.000214 0.002-0.03154-0.064-0.03125-0.0625 0.000291 0.002-0.000367-0.0952 0-0.0937 0.000367 0.002-0.03169-0.064-0.03125-0.0625 0.000442 0.002-0.03177-0.0639-0.03125-0.0625 0.000516 0.001-0.000588-0.0952 0-0.0937 0.000588 0.001-0.03191-0.0639-0.03125-0.0625 0.000659 0.001-0.06323-0.0638-0.0625-0.0625 0.000729 0.001-0.03205-0.095-0.03125-0.0937 0.000796 0.001-0.03211-0.0638-0.03125-0.0625 0.000861 0.001-0.06342-0.0637-0.0625-0.0625 0.000924 0.001-0.03224-0.0637-0.03125-0.0625 0.000985 0.001-0.06354-0.0636-0.0625-0.0625 0.001 0.001-0.0636-0.0323-0.0625-0.0313s-0.06365-0.0635-0.0625-0.0625c0.0012 0.001-0.0637-0.0634-0.0625-0.0625 0.0012 0.00094-0.06375-0.0321-0.0625-0.0313 0.0012 0.00088-0.06379-0.0633-0.0625-0.0625 0.0013 0.00081-0.06383-0.032-0.0625-0.0313 0.0013 0.00075-0.06387-0.0319-0.0625-0.0313 0.0014 0.00068-0.0639-0.0319-0.0625-0.0313 0.0014 0.00061-0.09518-0.0318-0.09375-0.0313 0.0014 0.00053-0.06395-0.0317-0.0625-0.0313 0.0015 0.00046-0.09522-0.0316-0.09375-0.0313 0.0015 0.00039-0.06399-0.00031-0.0625 0 0.0015 0.00031-0.09526-0.0315-0.09375-0.0313 0.0015 0.00023-0.06402-0.00016-0.0625 0 0.0015 0.00016-0.09527-0.00008-0.09375 0zm-3.2812 14.656-1.0312 8.3125c-5.1627 1.0451-9.8791 4.3158-11.812 9.6875-2.4608 6.8371 0.69163 15.161 7.9688 17.5 5.4682 1.7573 12.151-0.8544 13.688-6.8438 0.52622-2.0506 0.26119-4.2911-0.71875-6.1562-0.98723-1.8791-2.8065-3.4078-5.1875-3.7188-0.72857-0.0952-1.4561 0.12106-2.1875 0.3125l1-8.0625c1.9047-0.10582 3.8444 0.0616 5.625 0.75 8.215 3.176 11.75 13.004 8.5 21.031-3.8817 9.588-15.429 13.687-24.812 9.75-10.944-4.5916-15.593-17.872-10.969-28.625 3.5447-8.2438 11.453-13.115 19.937-13.938z" fill-rule="evenodd"/>
   <path id="path3717" opacity=".3" d="m54.769 966.28c-14.841-0.38467-29.01 8.1069-35.219 21.688-7.9221 17.328-0.67416 38.822 16.906 46.781 15.957 7.2238 35.726 0.5185 42.969-15.719 6.5156-14.607 0.31026-32.652-14.562-39.187-3.4672-1.5236-7.1225-2.1174-10.75-2.125l1.3438-10.625a0.73009 0.73009 0 0 0 -0.6875 -0.8125zm-2.3125 12.906-1.2188 9.875c-5.1675 0.84905-9.8778 4.0553-11.781 9.3438-2.3138 6.4288 0.63712 14.252 7.4375 16.437 5.0569 1.6251 11.249-0.7962 12.656-6.2812 0.47291-1.8429 0.22579-3.8837-0.65625-5.5625s-2.4667-3.0076-4.5625-3.2813c-0.85189-0.11127-1.782 0.0197-2.625 0.37498-0.15788 0.067-0.28587 0.1988-0.4375 0.2813l1.25-10.031c2.2209-0.21111 4.4984-0.01 6.625 0.8125 8.6689 3.3515 12.383 13.66 8.9688 22.094-4.0625 10.035-16.084 14.295-25.875 10.188-11.385-4.7768-16.205-18.527-11.406-29.688 3.8163-8.8755 12.489-14.027 21.625-14.562z" fill-rule="evenodd"/>
   <path id="path3263" d="m50.121 1002.8c-0.52888-2.3031 2.2416-3.6375 4.128-3.3911 3.6875 0.48162 5.4359 4.611 4.5867 7.9199-1.2912 5.0316-7.0113 7.2958-11.701 5.7887-6.3724-2.048-9.1657-9.4327-6.9827-15.498 2.7807-7.726 11.846-11.058 19.274-8.1862 9.0716 3.5072 12.94 14.278 9.3786 23.076-4.2231 10.431-16.693 14.844-26.847 10.584-11.778-4.9414-16.729-19.131-11.775-30.654 5.6506-13.141 21.544-18.639 34.419-12.981 14.487 6.366 20.525 23.987 14.17 38.232-7.0716 15.854-26.397 22.439-41.992 15.379-17.199-7.786-24.323-28.844-16.566-45.81 6.0822-13.303 19.986-21.674 34.537-21.297" fill-rule="evenodd" fill="#fff"/>
   <path id="path3239" d="m50.104 1002.8c-0.52888-2.3031 2.2416-3.6375 4.128-3.3911 3.6875 0.48162 5.4359 4.611 4.5867 7.9199-1.2912 5.0316-7.0113 7.2958-11.701 5.7887-6.3724-2.048-9.1657-9.4327-6.9827-15.498 2.7807-7.726 11.846-11.058 19.274-8.1862 9.0716 3.5072 12.94 14.278 9.3786 23.076-4.2231 10.431-16.693 14.844-26.847 10.584-11.778-4.9414-16.729-19.131-11.775-30.654 5.6506-13.141 21.544-18.639 34.419-12.981 14.487 6.366 20.525 23.987 14.17 38.232-7.0716 15.854-26.397 22.439-41.992 15.379-17.199-7.786-24.323-28.844-16.566-45.81 6.0822-13.303 19.986-21.674 34.537-21.297" fill-rule="evenodd" fill="url(#linearGradient34517)"/>
   <path id="path3180" stroke-linejoin="round" d="m54.681 965.83c-12.635 1.1051-25.715 6.8107-32.516 17.984-9.3166 14.754-5.1212 36.487 9.5519 46.189 11.762 7.8319 28.851 7.4597 39.693-1.8557 12.077-10.714 13.102-31.542 1.7235-43.125-5.0755-5.4489-12.442-8.0654-19.787-8.1451" stroke="url(#linearGradient34519)" stroke-width="2.5962" fill="none"/>
   <path id="path2417" stroke-linejoin="round" d="m54.587 965.51-1.448 11.79" stroke="#53b8fd" stroke-linecap="round" stroke-width="1.7259px" fill="none"/>
   <path id="path3369" stroke-linejoin="round" d="m53.004 977.5c-35.162 2.9287-29.68 48.111-2.0798 47.195 24.538-0.8419 25.181-37.184 1.4114-36.202" stroke="url(#linearGradient34521)" stroke-linecap="round" stroke-width="1.6241" fill="none"/>
   <path id="path3191" stroke-linejoin="round" d="m51.677 988.6-1.5718 14.289" stroke="#1c94da" stroke-linecap="round" stroke-width="1.7045px" fill="none"/>
   <path id="path3212" stroke-linejoin="round" d="m50.311 1002.8c0.03854-4.7024 6.5743-4.3488 8.171-0.047 1.6387 4.646-1.4206 9.0991-5.9673 10.454-5.9582 1.7757-11.455-2.6852-13.024-8.4462-1.9526-7.1706 3.7482-15.375 12.438-16.403" stroke="url(#linearGradient34523)" stroke-linecap="round" stroke-width=".91763" fill="none"/>
   <path id="path3189" stroke-linejoin="round" d="m53.121 977.1-1.322 10.84" stroke="#53b8fd" stroke-linecap="round" stroke-width="1.7259px" fill="none"/>
  </g>
 </g>
</svg>
