<?xml version="1.0" encoding="UTF-8" standalone="no"?>
<!-- Created with Inkscape (http://www.inkscape.org/) -->
<svg id="svg2" xmlns:rdf="http://www.w3.org/1999/02/22-rdf-syntax-ns#" xmlns="http://www.w3.org/2000/svg" height="96" width="96" version="1.1" xmlns:cc="http://creativecommons.org/ns#" xmlns:xlink="http://www.w3.org/1999/xlink" xmlns:dc="http://purl.org/dc/elements/1.1/">
 <defs id="defs4">
  <linearGradient id="linearGradient3613-7" y2="138.66" gradientUnits="userSpaceOnUse" x2="48" y1="20.221" x1="48">
   <stop id="stop3739-40" stop-color="#fff" offset="0"/>
   <stop id="stop3741-8" stop-color="#fff" stop-opacity="0" offset="1"/>
  </linearGradient>
  <clipPath id="clipPath3613-22">
   <rect id="rect3615-13" rx="6" ry="6" height="84" width="84" y="6" x="6" fill="#fff"/>
  </clipPath>
  <filter id="filter3794-3" height="1.384" width="1.384" color-interpolation-filters="sRGB" y="-.192" x="-.192">
   <feGaussianBlur id="feGaussianBlur3796-52" stdDeviation="5.28"/>
  </filter>
  <linearGradient id="linearGradient3700-0">
   <stop id="stop3702-2" stop-color="#70a83e" offset="0"/>
   <stop id="stop3704-9" stop-color="#9fd058" offset="1"/>
  </linearGradient>
  <linearGradient id="linearGradient4982" y2="5.9877" xlink:href="#linearGradient3700-0" gradientUnits="userSpaceOnUse" x2="48" gradientTransform="translate(101.91 941.34)" y1="90" x1="48"/>
  <clipPath id="clipPath3613-1">
   <rect id="rect3615-86" rx="6" ry="6" height="84" width="84" y="6" x="6" fill="#fff"/>
  </clipPath>
  <filter id="filter3794-1" height="1.384" width="1.384" color-interpolation-filters="sRGB" y="-.192" x="-.192">
   <feGaussianBlur id="feGaussianBlur3796-26" stdDeviation="5.28"/>
  </filter>
  <linearGradient id="linearGradient49238" y2="15.502" gradientUnits="userSpaceOnUse" x2="48" gradientTransform="translate(.048379 954.04)" y1="80" x1="48">
   <stop id="stop4935" stop-color="#ebebeb" offset="0"/>
   <stop id="stop4937" stop-color="#fafafa" offset="1"/>
  </linearGradient>
  <linearGradient id="linearGradient49252" y2="5.9877" gradientUnits="userSpaceOnUse" x2="48" gradientTransform="matrix(1.0952 0 0 1.0952 -5.5231 -5.3974)" y1="90" x1="48">
   <stop id="stop4919" stop-color="#2684a3" offset="0"/>
   <stop id="stop4921" stop-color="#46b0d4" offset="1"/>
  </linearGradient>
 </defs>
 <metadata id="metadata7">
  <rdf:RDF>
   <cc:Work rdf:about="">
    <dc:format>image/svg+xml</dc:format>
    <dc:type rdf:resource="http://purl.org/dc/dcmitype/StillImage"/>
    <dc:title/>
   </cc:Work>
  </rdf:RDF>
 </metadata>
 <g id="layer1" transform="translate(0 -956.36)">
  <rect id="rect5261-6" fill-opacity=".039216" ry="12.552" height="88.762" width="88.762" y="959.96" x="3.6078"/>
  <rect id="rect5259-9" fill-opacity=".078431" ry="12.38" height="87.546" width="87.546" y="960.57" x="4.2157"/>
  <rect id="rect5257-5" fill-opacity=".15686" ry="12.208" height="86.33" width="86.33" y="961.18" x="4.8237"/>
  <path id="rect2419" d="m17.469 5.4062c-6.668 0-12.032 5.3948-12.032 12.063l0.0005 61.031c0 5.418 3.5332 9.982 8.4375 11.5h68.187c4.715-1.457 8.172-5.734 8.438-10.875v-62.281c-0.321-6.377-5.54-11.438-12-11.438l-61.031 0.0002z" transform="translate(0 956.36)" fill="url(#linearGradient49252)"/>
  <path id="rect5265-0" d="m5.4316 1029.8v5.0663c0 6.668 5.3645 12.032 12.032 12.032h61.049c6.668 0 12.032-5.3645 12.032-12.032v-5.0663c0 6.6681-5.3645 12.032-12.032 12.032h-61.049c-6.668 0-12.032-5.3643-12.032-12.032z" fill-opacity=".23529"/>
  <path id="path5252-0" d="m5.4316 1033.9v1.0133c0 6.668 5.3645 12.032 12.032 12.032h61.049c6.668 0 12.032-5.3645 12.032-12.032v-1.0133c0 6.6681-5.3645 12.032-12.032 12.032h-61.049c-6.668 0-12.032-5.3644-12.032-12.032z" fill-opacity=".098039"/>
  <g id="layer5" transform="translate(-95.023 954.86)">
   <rect id="rect3171" height="66" stroke="#fff" stroke-linecap="round" stroke-width=".5" fill="url(#linearGradient3613-7)" rx="12" ry="12" width="66" opacity=".1" clip-path="url(#clipPath3613-22)" filter="url(#filter3794-3)" y="15" x="15"/>
  </g>
  <rect id="rect3873" rx="6" ry="6" height="84" width="84" display="none" y="947.34" x="107.91" fill="url(#linearGradient4982)"/>
  <rect id="rect3880" rx="6" ry="6" height="84" width="84" display="none" y="947.34" x="107.91" fill="url(#linearGradient4982)"/>
  <g id="layer5-15" transform="translate(.048379 954.04)">
   <rect id="rect3171-4" height="66" stroke="#fff" stroke-linecap="round" stroke-width=".5" fill="url(#linearGradient3613-7)" rx="12" ry="12" width="66" opacity=".1" clip-path="url(#clipPath3613-1)" filter="url(#filter3794-1)" y="15" x="15"/>
  </g>
  <path id="path4973" opacity=".05" d="m47.548 966.97c-15.913 0-28.819 12.826-30.281 28.969-0.9682 1.1104-2.0901 2.252-3 3.8437-1.1023 1.9285-1.6706 4.3807-1.25 7.1875 0.45521 3.0375 2.2989 5.1776 4.3438 6.2813 1.1506 0.621 2.2001 0.775 3.2188 0.9375 1.8504 7.3704-0.0622 10.936-1.625 14.031-0.38089 0.7545-0.81714 1.5382-1.125 2.4688-0.3251 0.9827-0.52875 2.3284 0.0625 3.6875 0.59805 1.3748 1.7952 2.1834 2.9062 2.6875 1.1057 0.5016 2.3925 0.8333 4 1.1562 11.577 2.326 30.041 0.6886 44.75-17.062 5.1122-6.1692 7.5731-13.117 8.3438-20.656 0.6247-0.4471 1.4567-1.0277 2.5-2.2813 1.528-1.8358 3.0965-4.5803 2.8125-7.9375 0.003 0.033-0.002-0.042 0-0.031h0.0313v-0.031a1.0188 1.0188 0 0 0 -0.0313 -0.063 1.0188 1.0188 0 0 0 0 -0.063c0.00008 0.0008-0.00014-0.1569 0-0.1562 0.00006 0.0003-0.0236-0.031-0.0313-0.063-0.004-0.024-0.0268-0.039-0.0313-0.063-0.002-0.01-0.00003-0.031 0-0.031-0.58522-3.0312-2.4771-5.2387-4.7188-6.4687-1.7475-0.9588-3.6038-1.284-5.3438-1.5-5.3974-8.8041-14.733-14.844-25.531-14.844zm3.7188 11.969c8.4469 0 15.281 7.0011 15.281 15.906 0 5.0802-2.3186 9.4397-5.8125 12.344-0.12409-0.9525-0.28729-2.0836-0.5-3.2813-0.45113-2.54-0.98663-5.1282-1.125-5.8125-0.00002-0.0001 0.1253 0.5073 0-0.063 0.002 0.01-0.0623-0.1868-0.0625-0.1875-0.00021-0.0007-0.0622-0.2805-0.0625-0.2812-0.00027-0.0008-0.12466-0.2493-0.125-0.25-0.00009-0.0002-0.0536-0.1101-0.0625-0.125-0.009-0.015-0.0195-0.012-0.0313-0.031-0.0234-0.039-0.0311-0.062-0.0313-0.063-0.0004-0.0007-0.12454-0.2493-0.125-0.25-0.00046-0.0006-0.15573-0.1869-0.15625-0.1875-0.00009-0.0001-0.0226-0.022-0.0313-0.031 0.41589-0.9403 0.75-1.9614 0.75-3.0938 0-1.3493-0.45603-2.5292-1.0312-3.5937 0.00041-0.0005 0.12463-0.187 0.125-0.1875 0 0 0.0611-0.091 0.0625-0.094 0.004-0.01-0.007-0.02 0-0.031 0.006-0.012 0.0234-0.016 0.0313-0.031 0.007-0.01 0.0258-0.024 0.0313-0.031 0 0 0.003-0.035 0-0.031 0.0196-0.033 0.11107-0.1596 0.125-0.1875 0.0156-0.031 0.0624-0.1559 0.0625-0.1562 0 0 0.0617-0.1526 0.0625-0.1563 0.00077 0-0.0003-0.03 0-0.031 0.003-0.015-0.004-0.043 0-0.063 0.00019-0.0006 0.0623-0.1869 0.0625-0.1875 0.00014-0.0007 0.0311-0.2181 0.0313-0.2188 0.00005-0.0003-0.008 0.01 0-0.031 0.004-0.019 0.0283-0.048 0.0313-0.063 0.00049 0-0.00049-0.029 0-0.031 0.00005-0.0006 0.0313-0.343 0.0313-0.3437 0-0.0003 0.00062-0.052 0-0.094v-0.094a1.0188 1.0188 0 0 0 0 -0.031 1.0188 1.0188 0 0 0 -0.0313 -0.031c-0.0792-0.7411-0.1937-2.081-0.5-3.375-0.15859-0.67-0.36662-1.3139-0.65625-1.9375-0.25718-0.5538-0.87634-1.7442-2.2812-2.2813-0.37493-0.1433-0.95842-0.2839-1.6875-0.1875-1.0754 0.1423-1.8576 0.6428-2.3125 1-0.50859 0.3995-0.93636 0.8525-1.3125 1.25-0.78657 0.8313-1.5004 1.7171-1.9375 2.2813-0.0004 0.0005-0.12464 0.1869-0.125 0.1875-0.00002 0-0.0614 0.092-0.0625 0.094-0.009 0.011-0.0195 0.016-0.0313 0.031-0.004 0.01 0.004 0.023 0 0.031-0.0156 0.031-0.0311 0.031-0.0313 0.031 0 0-0.003 0.035 0 0.031-0.0198 0.041-0.1864 0.3396-0.1875 0.3438-0.001 0 0.001 0.025 0 0.031-0.00011 0.0003 0.0156-0.01 0 0.031-0.004 0.016 0.003 0.02 0 0.031h-0.0313c-0.004 0.013 0.00003 0.031 0 0.031-0.0187 0.051-0.0312 0.1248-0.0313 0.125-0.00018 0.0006-0.0624 0.1868-0.0625 0.1875-0.00014 0.0006-0.0312 0.2493-0.0313 0.25 0 0-0.0312 0.1219-0.0313 0.125-0.00001 0 0 0.024 0 0.031 0 0.015-0.00001 0.043 0 0.063-0.00004 0.0007-0.00001 0.1869 0 0.1875 0 0.0005 0.0302 0.089 0.0313 0.1563-2.4365 1.3885-4.125 3.9828-4.125 6.9687 0 2.9998 1.6988 5.6073 4.1562 7-0.00089 0.058 0 0.1558 0 0.1563 0 0.0006-0.00004 0.2181 0 0.2187-0.00001 0.016 0 0.019 0 0.031 0 0.01-0.00001 0.027 0 0.031 0.00009 0.0007 0.0624 0.3744 0.0625 0.375 0.00013 0.0007 0.0623 0.1869 0.0625 0.1875 0.00009 0.0004 0.0469 0.1485 0.0625 0.1875s-0.00011 0.031 0 0.031c0 0 0.0613 0.091 0.0625 0.094 0.001 0-0.00052 0.03 0 0.031 0.006 0.012 0.0234 0.047 0.0313 0.063 0.00027 0.0006 0.0934 0.2182 0.0937 0.2187 0.00016 0.0003 0.0157 0.0001 0.0313 0.031 0.008 0.016 0.0253 0.019 0.0313 0.031 0.001 0-0.001 0.029 0 0.031 0.001 0 0.0625 0.094 0.0625 0.094 0.00035 0.0006 0.12461 0.187 0.125 0.1875-0.065-0.084 0.46587 0.5834 1.125 1.4375 0.65913 0.8542 1.5445 1.9818 2.4375 3.0938 0.90036 1.1212 1.7998 2.2211 2.5312 3.0625 0.031 0.036 0.0632 0.059 0.0937 0.094-1.0106 0.2398-1.9951 0.5625-3.0625 0.5625-8.4398 0-15.281-7.0328-15.281-15.938 0-8.9051 6.8344-15.906 15.281-15.906zm-3.4375 20.594 0.625 0.4375-0.71875-0.25c0.004-0.01-0.003-0.026 0-0.031 0.014-0.034 0.0198-0.073 0.0313-0.094 0.008-0.014 0.0245-0.021 0.0313-0.031-0.002 0 0.0313-0.031 0.0313-0.031z"/>
  <path id="path4969" opacity=".1" d="m47.548 968c-15.488 0-28.094 12.576-29.344 28.406-1.0332 1.2045-2.1908 2.3501-3.0625 3.875-0.99451 1.7398-1.5134 3.9395-1.125 6.5313 0.40673 2.714 2.0205 4.564 3.8125 5.5312 1.2662 0.6835 2.5108 0.9378 3.625 1.0625 0.0142 0.031 0.0162 0.062 0.0313 0.094 2.1305 7.9565-0.0362 12.04-1.625 15.188-0.39246 0.7774-0.7929 1.4976-1.0625 2.3125-0.27728 0.8381-0.42598 1.9177 0.0313 2.9687 0.46007 1.0576 1.3828 1.7061 2.375 2.1563 0.98962 0.449 2.2079 0.7776 3.7812 1.0937 11.284 2.2673 29.319 0.7346 43.781-16.719 5.0757-6.1253 7.485-12.976 8.1875-20.531 0.62132-0.4411 1.5466-1.073 2.6562-2.4062 1.4318-1.7203 2.8469-4.1952 2.5938-7.1875-0.004-0.043 0.004-0.082 0-0.125 0-0.012 0.00001-0.031 0-0.031a0.99205 0.99205 0 0 0 -0.0313 -0.1562c-0.50421-2.7678-2.2128-4.726-4.25-5.8438-1.7118-0.9392-3.6036-1.3015-5.4062-1.5-5.1878-8.7542-14.381-14.719-24.969-14.719zm3.7188 9.9062c9.0125 0 16.312 7.5067 16.312 16.938 0 6.1062-3.081 11.386-7.6875 14.375 0.008-0.1163 0.0348-0.2249 0.0313-0.3437-0.0126-0.4207-0.097-0.8438-0.15625-1.3125-0.12276-0.9716-0.30557-2.1981-0.53125-3.4688-0.44768-2.5206-0.98446-5.1175-1.125-5.8125-0.00002-0.0001 0.002-0.024 0-0.031-0.009-0.04-0.0311-0.1556-0.0313-0.1563-0.00021-0.0007-0.0622-0.1867-0.0625-0.1875-0.00027-0.0007-0.0622-0.1555-0.0625-0.1562-0.00034-0.0007-0.0934-0.1556-0.0937-0.1563-0.0004-0.0007-0.0933-0.1556-0.0937-0.1562-0.00046-0.0007-0.0932-0.1244-0.0937-0.125-0.00052-0.0006-0.12443-0.1244-0.125-0.125s-0.12438-0.1245-0.125-0.125-0.15559-0.1246-0.15625-0.125c-0.00025-0.0002-0.0351-0.014-0.0625-0.031 0.55598-1.0197 0.9375-2.144 0.9375-3.375 0-1.4242-0.52077-2.6952-1.25-3.8125 0.00054-0.0003 0.12448-0.093 0.125-0.094 0.00052-0.0004 0.12452-0.093 0.125-0.094 0.00048-0.0004 0.0933-0.093 0.0937-0.094 0.00045-0.0005 0.0933-0.1245 0.0937-0.125 0.00041-0.0005 0.0934-0.1245 0.0937-0.125 0.00037-0.0006 0.0622-0.1244 0.0625-0.125 0.00033-0.0006 0.0935-0.1244 0.0937-0.125 0.00028-0.0006 0.0623-0.1244 0.0625-0.125 0.00024-0.0006 0.0311-0.1556 0.0313-0.1563 0.00019-0.0006 0.0311-0.1243 0.0313-0.125 0.00014-0.0006 0.0311-0.1556 0.0313-0.1562 0.0001-0.0007 0.0312-0.1556 0.0313-0.1563 0.00005-0.0006 0-0.1555 0-0.1562s0.00005-0.1243 0-0.125a0.99205 0.99205 0 0 0 0 -0.031c-0.0792-0.7417-0.214-2.0105-0.5-3.2187-0.14557-0.615-0.33784-1.199-0.59375-1.75-0.22835-0.4917-0.70808-1.3949-1.7188-1.7813-0.23144-0.088-0.66485-0.1941-1.1875-0.125-0.81824 0.1083-1.4226 0.5063-1.8125 0.8125-0.43947 0.3452-0.81776 0.7343-1.1875 1.125-0.746 0.7885-1.4476 1.6672-1.875 2.2188-0.0004 0.0005-0.0934 0.1244-0.0937 0.125-0.00036 0.0005-0.0622 0.1244-0.0625 0.125-0.00032 0.0006-0.0935 0.1244-0.0937 0.125-0.00027 0.0006-0.031 0.1244-0.0313 0.125-0.00023 0.0006-0.0623 0.1556-0.0625 0.1562-0.00018 0.0007-0.0311 0.1244-0.0313 0.125-0.00014 0.0007-0.0312 0.1556-0.0313 0.1563-0.00009 0.0006 0.00004 0.1556 0 0.1562-0.00004 0.0007-0.00001 0.1244 0 0.125 0.00001 0.0007-0.00006 0.1556 0 0.1563 0.00006 0.0006-0.0001 0.1556 0 0.1562 0.0001 0.0007 0.0311 0.1244 0.0313 0.125 0.00015 0.0007 0.0623 0.1557 0.0625 0.1563 0.00009 0.0003-0.0115 0.03 0 0.063-2.4657 1.0783-4.1875 3.5985-4.1875 6.4687 0 2.9033 1.7663 5.4659 4.2812 6.5313-0.0123 0.036-0.0311 0.062-0.0313 0.063-0.00019 0.0006-0.0624 0.1244-0.0625 0.125-0.00014 0.0006-0.0311 0.1556-0.0313 0.1562-0.0001 0.0007 0.00005 0.1556 0 0.1563-0.00005 0.0006 0 0.1243 0 0.125 0 0.0006-0.00004 0.1556 0 0.1562 0.00004 0.0007-0.00009 0.1244 0 0.125 0.00009 0.0007 0.0311 0.1557 0.0313 0.1563 0.00013 0.0006 0.0311 0.1244 0.0313 0.125 0.00018 0.0006 0.0623 0.1556 0.0625 0.1562 0.00022 0.0006 0.0622 0.1245 0.0625 0.125 0.00027 0.0006 0.0622 0.1245 0.0625 0.125 0.00031 0.0006 0.0622 0.1245 0.0625 0.125 0.00035 0.0006 0.0934 0.1245 0.0937 0.125 0.0371 0.048 1.7577 2.3227 3.5312 4.5313 0.89058 1.109 1.8091 2.2006 2.5312 3.0312 0.35594 0.4094 0.66594 0.7631 0.96875 1.0625 0.14957 0.1479 0.29432 0.2341 0.4375 0.3438-1.6318 0.5667-3.3408 0.9375-5.1562 0.9375-9.0082 0-16.312-7.5381-16.312-16.969 0-9.4308 7.3-16.938 16.312-16.938z"/>
  <path id="path4965" opacity=".15" d="m47.548 969c-15.054 0-27.338 12.284-28.406 27.781-1.1129 1.3181-2.2782 2.5186-3.125 4-0.89895 1.5727-1.3884 3.4918-1.0312 5.875 0.36047 2.4054 1.7561 3.9725 3.3125 4.8125 1.3167 0.7107 2.6588 0.9489 3.8125 1.0313 0.11147 0.2486 0.21151 0.4884 0.34375 0.75 2.1994 8.2137-0.13379 12.735-1.7188 15.875-0.39789 0.7882-0.76747 1.4846-1 2.1875-0.23253 0.7028-0.32739 1.4974 0 2.25s0.99745 1.2581 1.875 1.6562c0.87755 0.3982 2.0272 0.7228 3.5625 1.0313 11.004 2.2108 28.621 0.7891 42.844-16.375 5.0273-6.0669 7.3573-12.82 8-20.375 0.57588-0.4066 1.6598-1.14 2.8438-2.5625 1.355-1.628 2.6134-3.9032 2.3438-6.5938a1.0189 1.0189 0 0 0 0 -0.094c-0.44987-2.4695-1.9269-4.156-3.75-5.1563-1.6735-0.9182-3.6319-1.2949-5.5-1.4687-4.9748-8.7171-14.016-14.625-24.406-14.625zm3.7188 7.9062c9.565 0 17.312 7.9916 17.312 17.938 0 9.946-7.7496 17.969-17.312 17.969-9.563 0-17.312-8.0228-17.312-17.969 0-9.9459 7.7475-17.938 17.312-17.938zm2.625 5.0938c-0.59393 0.079-0.93797 0.3308-1.3125 0.625-0.37453 0.2941-0.7379 0.6552-1.0938 1.0312-0.7117 0.7522-1.4028 1.5963-1.8125 2.125a1.0189 1.0189 0 0 0 0.9375 1.625c0.26223-0.03 0.4799-0.031 0.65625-0.031 1.4602 0 2.7638 0.5395 3.8125 1.4687a1.0189 1.0189 0 0 0 1.6875 -0.8437c-0.0799-0.7477-0.20423-1.9763-0.46875-3.0938-0.13226-0.5587-0.30727-1.0802-0.53125-1.5625-0.22398-0.4822-0.46746-0.9867-1.1562-1.25-0.16936-0.065-0.4049-0.1352-0.71875-0.094zm-2.625 5.5c-3.2432 0-5.875 2.7317-5.875 6.0312 0 3.2996 2.6238 6.0625 5.875 6.0625s5.875-2.7629 5.875-6.0625c0-3.2995-2.6318-6.0312-5.875-6.0312zm4.8438 10.094a1.0189 1.0189 0 0 0 -0.6875 0.3125c-1.0806 1.1057-2.5395 1.7813-4.1562 1.7813-0.22437 0-0.44389 0.019-0.625 0a1.0189 1.0189 0 0 0 -0.90625 1.625c0.0587 0.076 1.7669 2.3028 3.5312 4.5 0.88219 1.0986 1.7885 2.1816 2.5 3 0.35576 0.4092 0.64588 0.7425 0.90625 1 0.13019 0.1287 0.26377 0.2372 0.40625 0.3437 0.0712 0.053 0.13997 0.1244 0.28125 0.1875 0.14128 0.063 0.40298 0.2113 0.875 0 0.37247-0.1669 0.49977-0.4427 0.5625-0.5937 0.0627-0.151 0.0808-0.2522 0.0937-0.3438 0.0258-0.1831 0.0363-0.3316 0.0313-0.5-0.0101-0.3366-0.0652-0.7453-0.125-1.2187-0.11962-0.9468-0.30782-2.1482-0.53125-3.4063-0.44687-2.516-0.9869-5.1605-1.125-5.8437a1.0189 1.0189 0 0 0 -1.0312 -0.8438z"/>
  <path id="path4959" opacity=".3" d="m47.562 970.04c-14.612 0-26.569 12.005-27.443 27.168-2.4101 2.9011-4.7963 4.9405-4.1423 9.3041 0.63285 4.2228 4.5224 4.9693 6.8122 5.0323 0.20547 0.4492 0.42088 0.8908 0.64724 1.3268 4.6427 17.109-10.062 19.973 1.9094 22.378 10.719 2.1536 27.898 0.8492 41.876-16.019 4.9816-6.0117 7.2358-12.608 7.8154-20.178 0.72255-0.4874 5.625-3.9707 5.1617-8.5922-0.79379-4.3573-4.9428-5.6057-8.8186-5.8898-4.7449-8.686-13.623-14.531-23.818-14.531zm3.7054 5.8576c10.134 0 18.349 8.4859 18.349 18.964s-8.2151 18.98-18.349 18.98-18.349-8.5022-18.349-18.98 8.2151-18.964 18.349-18.964zm2.7508 7.1196c-0.90689 0.12-2.7277 2.3659-3.5274 3.398 0.25479-0.029 0.51435-0.049 0.77668-0.049 1.7253 0 3.2996 0.6549 4.5145 1.7314-0.15538-1.4546-0.61357-4.7054-1.5534-5.0646-0.0628-0.024-0.13207-0.027-0.21035-0.016zm-2.7508 5.5177c-2.6768 0-4.8543 2.2483-4.8543 5.0161s2.1775 5.0161 4.8543 5.0161 4.8381-2.2483 4.8381-5.0161-2.1613-5.0161-4.8381-5.0161zm4.8867 10.113c-1.2552 1.2843-2.9813 2.0874-4.8867 2.0874-0.24202 0-0.49248-0.01-0.72814-0.032 0.0996 0.1293 6.8664 8.8911 7.2814 8.7054 0.45223-0.2027-1.3903-9.3933-1.6666-10.76z"/>
  <path id="path4931" d="m47.562 969.04c-14.612 0-26.569 12.005-27.443 27.168-2.4101 2.9011-4.7963 4.9405-4.1423 9.3041 0.63285 4.2228 4.5224 4.9693 6.8122 5.0323 0.20547 0.4492 0.42088 0.8908 0.64724 1.3268 4.6427 17.109-10.062 19.973 1.9094 22.378 10.719 2.1536 27.898 0.8492 41.876-16.019 4.9816-6.0117 7.2358-12.608 7.8154-20.178 0.72255-0.4874 5.625-3.9707 5.1617-8.5922-0.79379-4.3573-4.9428-5.6057-8.8186-5.8898-4.7449-8.686-13.623-14.531-23.818-14.531zm3.7054 5.8576c10.134 0 18.349 8.4859 18.349 18.964s-8.2151 18.98-18.349 18.98-18.349-8.5022-18.349-18.98 8.2151-18.964 18.349-18.964zm2.7508 7.1196c-0.90689 0.12-2.7277 2.3659-3.5274 3.398 0.25479-0.029 0.51435-0.049 0.77668-0.049 1.7253 0 3.2996 0.6549 4.5145 1.7314-0.15538-1.4546-0.61357-4.7054-1.5534-5.0646-0.0628-0.024-0.13207-0.027-0.21035-0.016zm-2.7508 5.5177c-2.6768 0-4.8543 2.2483-4.8543 5.0161s2.1775 5.0161 4.8543 5.0161 4.8381-2.2483 4.8381-5.0161-2.1613-5.0161-4.8381-5.0161zm4.8867 10.113c-1.2552 1.2843-2.9813 2.0874-4.8867 2.0874-0.24202 0-0.49248-0.01-0.72814-0.032 0.0996 0.1293 6.8664 8.8911 7.2814 8.7054 0.45223-0.2027-1.3903-9.3933-1.6666-10.76z" fill="url(#linearGradient49238)"/>
  <path id="path4941" d="m47.548 969.04c-14.612 0-26.564 11.993-27.438 27.156-2.247 2.7047-4.4576 4.6803-4.2188 8.4687 0.17604-3.1538 2.1784-5.0127 4.2188-7.4687 0.87383-15.163 12.826-27.156 27.438-27.156 10.195 0 19.099 5.8453 23.844 14.531 3.8758 0.2842 8.0187 1.5176 8.8125 5.875 0.019-0.3214 0.0335-0.666 0-1-0.79379-4.3574-4.9367-5.5908-8.8125-5.875-4.7449-8.686-13.649-14.531-23.844-14.531zm6.4688 12.969c-0.90689 0.12-2.7315 2.3742-3.5312 3.4062 0.25479-0.029 0.51892-0.063 0.78125-0.063 0.0323 0 0.0616-0.0004 0.0937 0 0.87982-1.047 2.0006-2.257 2.6562-2.3437 0.0783-0.01 0.15592 0.01 0.21875 0.031 0.74861 0.2862 1.1784 2.3825 1.4062 3.9688 0.0403 0.034 0.0855 0.059 0.125 0.094-0.15538-1.4546-0.59145-4.7032-1.5312-5.0625-0.0628-0.024-0.14047-0.042-0.21875-0.031zm-2.75 5.5312c-2.6768 0-4.8438 2.2322-4.8438 5 0 0.1629-0.0147 0.3412 0 0.5 0.24903-2.5276 2.3342-4.5 4.8438-4.5 2.5095 0 4.5652 1.9724 4.8125 4.5 0.0146-0.1589 0.0313-0.3371 0.0313-0.5 0-2.7678-2.1669-5-4.8438-5zm-18.312 6.8125c-0.004 0.1681-0.0313 0.3309-0.0313 0.5 0 10.478 8.2096 19 18.344 19s18.344-8.5218 18.344-19c0-0.1691-0.027-0.3319-0.0313-0.5-0.25929 10.245-8.342 18.5-18.312 18.5-9.9706 0-18.053-8.2554-18.312-18.5zm23.188 3.2813c-1.2552 1.2843-2.9697 2.0937-4.875 2.0937-0.24203 0-0.48309-0.01-0.71875-0.031 0.0115 0.015 0.64278 0.8126 0.8125 1.0312 1.8685-0.026 3.5465-0.8303 4.7812-2.0937 0.22448 1.1105 1.4657 7.3261 1.6875 9.75 0.39888-0.3902-1.4141-9.3977-1.6875-10.75zm-31.781 21.281c-0.16227 7.534-4.3854 10.971-3.75 13.062 0.53956-2.2865 3.9268-6.0039 3.75-13.062z" fill="#fff"/>
  <path id="path4950" opacity="0" d="m51.267 973.88c-10.134 0-18.344 8.4906-18.344 18.969 0 0.1692 0.027 0.332 0.0313 0.5 0.25929-10.244 8.342-18.469 18.312-18.469 9.9706 0 18.053 8.2246 18.312 18.469 0.004-0.168 0.0313-0.3308 0.0313-0.5 0-10.478-8.2096-18.969-18.344-18.969zm0.0937 10.469c-0.33718 0.4013-0.65343 0.7766-0.875 1.0625 0.25479-0.029 0.51892-0.063 0.78125-0.063 1.7253 0 3.2852 0.6736 4.5 1.75-0.0316-0.2959-0.0668-0.6886-0.125-1.0937-1.1746-0.9951-2.6497-1.6331-4.2812-1.6563zm28.844 5.2188c-0.32165 4.0614-4.4928 7.0212-5.1562 7.4687-0.57959 7.5698-2.8309 14.176-7.8125 20.188-13.978 16.868-31.156 18.185-41.875 16.031-3.1599-0.6349-4.4608-1.329-4.75-2.2813-0.36241 1.5358 0.57401 2.4423 4.75 3.2813 10.719 2.1536 27.897 0.8371 41.875-16.031 4.9816-6.0117 7.2329-12.618 7.8125-20.188 0.7161-0.483 5.5212-3.9087 5.1562-8.4687zm-33.781 2.5c-0.0146 0.1583 0 0.3066 0 0.4687 0 2.7679 2.1669 5.0313 4.8438 5.0313 2.6768 0 4.8438-2.2634 4.8438-5.0313 0-0.1622-0.0167-0.3104-0.0313-0.4687-0.24725 2.5276-2.303 4.5-4.8125 4.5s-4.5947-1.9724-4.8438-4.5zm4.125 7.625c0.0996 0.1293 6.8662 8.9045 7.2812 8.7187 0.0849-0.038 0.0512-0.4713 0-1.0312-0.004 0 0.005 0.029 0 0.031-0.36705 0.1643-5.1709-6.0153-6.4688-7.6875-0.0309 0.0005-0.0627 0-0.0937 0-0.24203 0-0.48309-0.01-0.71875-0.031zm-34.656 4.0312c-0.0264 0.5537-0.003 1.1364 0.0937 1.7813 0.63285 4.2228 4.5227 4.9682 6.8125 5.0312 0.20547 0.4493 0.39864 0.9078 0.625 1.3438 0.58033 2.1386 0.87189 4.0296 0.9375 5.75 0.0166-1.966-0.24393-4.1941-0.9375-6.75-0.22636-0.436-0.41953-0.8945-0.625-1.3438-2.2898-0.063-6.1796-0.8084-6.8125-5.0312-0.0409-0.2727-0.0759-0.5259-0.0937-0.7813z"/>
 </g>
</svg>
