<?xml version="1.0" encoding="UTF-8" standalone="no"?>
<!-- Created with Inkscape (http://www.inkscape.org/) -->
<svg id="svg2" xmlns:rdf="http://www.w3.org/1999/02/22-rdf-syntax-ns#" xmlns="http://www.w3.org/2000/svg" height="96" width="96" version="1.1" xmlns:cc="http://creativecommons.org/ns#" xmlns:xlink="http://www.w3.org/1999/xlink" xmlns:dc="http://purl.org/dc/elements/1.1/">
 <defs id="defs4">
  <linearGradient id="linearGradient3700-0">
   <stop id="stop3702-2" stop-color="#70a83e" offset="0"/>
   <stop id="stop3704-9" stop-color="#9fd058" offset="1"/>
  </linearGradient>
  <linearGradient id="linearGradient4982" y2="5.9877" xlink:href="#linearGradient3700-0" gradientUnits="userSpaceOnUse" x2="48" gradientTransform="translate(101.91 941.34)" y1="90" x1="48"/>
  <linearGradient id="linearGradient4250">
   <stop id="stop4252" stop-color="#66c7f1" offset="0"/>
   <stop id="stop4254" stop-color="#1677bb" offset="1"/>
  </linearGradient>
  <linearGradient id="linearGradient3895">
   <stop id="stop3897" stop-color="#fff" offset="0"/>
   <stop id="stop3899" stop-color="#fff" stop-opacity="0" offset="1"/>
  </linearGradient>
  <linearGradient id="linearGradient4350-9">
   <stop id="stop4352" stop-color="#9ee82d" offset="0"/>
   <stop id="stop4356" stop-color="#328c22" offset="1"/>
  </linearGradient>
  <linearGradient id="linearGradient4426">
   <stop id="stop4428" stop-color="#ff5b2a" offset="0"/>
   <stop id="stop4432-1" stop-color="#c21313" offset="1"/>
  </linearGradient>
  <clipPath id="clipPath3613-967">
   <rect id="rect3615-23" rx="6" ry="6" height="84" width="84" y="6" x="6" fill="#fff"/>
  </clipPath>
  <filter id="filter3794-4" height="1.384" width="1.384" color-interpolation-filters="sRGB" y="-.192" x="-.192">
   <feGaussianBlur id="feGaussianBlur3796-71" stdDeviation="5.28"/>
  </filter>
  <linearGradient id="linearGradient6674" y2="138.66" gradientUnits="userSpaceOnUse" x2="48" y1="20.221" x1="48">
   <stop id="stop3739-32" stop-color="#fff" offset="0"/>
   <stop id="stop3741-631" stop-color="#fff" stop-opacity="0" offset="1"/>
  </linearGradient>
  <radialGradient id="radialGradient7880" xlink:href="#linearGradient4250" gradientUnits="userSpaceOnUse" cy="41.677" cx="32" gradientTransform="matrix(.45313 0 0 .39244 6.4999 1018.9)" r="16"/>
  <linearGradient id="linearGradient7882" y2="78" xlink:href="#linearGradient3895" gradientUnits="userSpaceOnUse" x2="77" gradientTransform="matrix(-.70711 -.70711 .70711 -.70711 20.294 1137.1)" y1="71" x1="70"/>
  <radialGradient id="radialGradient7884" xlink:href="#linearGradient4250" gradientUnits="userSpaceOnUse" cy="41.677" cx="32" gradientTransform="matrix(.45313 0 0 .39244 42.5 1018.9)" r="16"/>
  <linearGradient id="linearGradient7886" y2="78" xlink:href="#linearGradient3895" gradientUnits="userSpaceOnUse" x2="77" gradientTransform="matrix(-.70711 -.70711 .70711 -.70711 56.294 1137.1)" y1="71" x1="70"/>
  <radialGradient id="radialGradient7888" xlink:href="#linearGradient4250" gradientUnits="userSpaceOnUse" cy="41.677" cx="32" gradientTransform="matrix(.45313 0 0 .39244 24.5 1000.9)" r="16"/>
  <linearGradient id="linearGradient7890" y2="78" xlink:href="#linearGradient3895" gradientUnits="userSpaceOnUse" x2="77" gradientTransform="matrix(-.70711 -.70711 .70711 -.70711 38.294 1119.1)" y1="71" x1="70"/>
  <radialGradient id="radialGradient7892" xlink:href="#linearGradient4250" gradientUnits="userSpaceOnUse" cy="41.677" cx="32" gradientTransform="matrix(.45313 0 0 .39244 42.5 982.95)" r="16"/>
  <linearGradient id="linearGradient7894" y2="78" xlink:href="#linearGradient3895" gradientUnits="userSpaceOnUse" x2="77" gradientTransform="matrix(-.70711 -.70711 .70711 -.70711 56.294 1101.1)" y1="71" x1="70"/>
  <radialGradient id="radialGradient7896" xlink:href="#linearGradient4250" gradientUnits="userSpaceOnUse" cy="41.677" cx="32" gradientTransform="matrix(.45313 0 0 .39244 60.5 964.95)" r="16"/>
  <linearGradient id="linearGradient7898" y2="78" xlink:href="#linearGradient3895" gradientUnits="userSpaceOnUse" x2="77" gradientTransform="matrix(-.70711 -.70711 .70711 -.70711 74.294 1083.1)" y1="71" x1="70"/>
  <radialGradient id="radialGradient7900" xlink:href="#linearGradient4350-9" gradientUnits="userSpaceOnUse" cy="41.677" cx="32" gradientTransform="matrix(.45313 0 0 .39244 60.5 1018.9)" r="16"/>
  <linearGradient id="linearGradient7902" y2="78" xlink:href="#linearGradient3895" gradientUnits="userSpaceOnUse" x2="77" gradientTransform="matrix(-.70711 -.70711 .70711 -.70711 74.294 1137.1)" y1="71" x1="70"/>
  <radialGradient id="radialGradient7904" xlink:href="#linearGradient4350-9" gradientUnits="userSpaceOnUse" cy="41.677" cx="32" gradientTransform="matrix(.45313 0 0 .39244 24.5 982.95)" r="16"/>
  <linearGradient id="linearGradient7906" y2="78" xlink:href="#linearGradient3895" gradientUnits="userSpaceOnUse" x2="77" gradientTransform="matrix(-.70711 -.70711 .70711 -.70711 38.294 1101.1)" y1="71" x1="70"/>
  <radialGradient id="radialGradient7908" xlink:href="#linearGradient4350-9" gradientUnits="userSpaceOnUse" cy="41.677" cx="32" gradientTransform="matrix(.45313 0 0 .39244 6.4999 964.95)" r="16"/>
  <linearGradient id="linearGradient7910" y2="78" xlink:href="#linearGradient3895" gradientUnits="userSpaceOnUse" x2="77" gradientTransform="matrix(-.70711 -.70711 .70711 -.70711 20.294 1083.1)" y1="71" x1="70"/>
  <radialGradient id="radialGradient7912" xlink:href="#linearGradient4426" gradientUnits="userSpaceOnUse" cy="41.677" cx="32" gradientTransform="matrix(.45313 0 0 .39244 60.5 1000.9)" r="16"/>
  <linearGradient id="linearGradient7914" y2="78" xlink:href="#linearGradient3895" gradientUnits="userSpaceOnUse" x2="77" gradientTransform="matrix(-.70711 -.70711 .70711 -.70711 74.294 1119.1)" y1="71" x1="70"/>
  <radialGradient id="radialGradient7916" xlink:href="#linearGradient4426" gradientUnits="userSpaceOnUse" cy="41.677" cx="32" gradientTransform="matrix(.45313 0 0 .39244 24.5 964.95)" r="16"/>
  <linearGradient id="linearGradient7918" y2="78" xlink:href="#linearGradient3895" gradientUnits="userSpaceOnUse" x2="77" gradientTransform="matrix(-.70711 -.70711 .70711 -.70711 38.294 1083.1)" y1="71" x1="70"/>
 </defs>
 <metadata id="metadata7">
  <rdf:RDF>
   <cc:Work rdf:about="">
    <dc:format>image/svg+xml</dc:format>
    <dc:type rdf:resource="http://purl.org/dc/dcmitype/StillImage"/>
    <dc:title/>
   </cc:Work>
  </rdf:RDF>
 </metadata>
 <g id="layer1" transform="translate(0 -956.36)">
  <rect id="rect5261-6" fill-opacity=".039216" ry="12.552" height="88.762" width="88.762" y="959.96" x="3.6078"/>
  <rect id="rect5259-9" fill-opacity=".078431" ry="12.38" height="87.546" width="87.546" y="960.57" x="4.2157"/>
  <rect id="rect5257-5" fill-opacity=".15686" ry="12.208" height="86.33" width="86.33" y="961.18" x="4.8237"/>
  <path id="rect2419-7" d="m17.469 5.4062c-6.668 0-12.032 5.3948-12.032 12.063l0.0005 61.031c0 5.418 3.5332 9.982 8.4375 11.5h68.187c4.715-1.457 8.172-5.734 8.438-10.875v-62.281c-0.321-6.377-5.54-11.438-12-11.438l-61.031 0.0002z" transform="translate(0 956.36)" fill="#e3e2db"/>
  <path id="rect5265-0" d="m5.4316 1029.8v5.0663c0 6.668 5.3645 12.032 12.032 12.032h61.049c6.668 0 12.032-5.3645 12.032-12.032v-5.0663c0 6.6681-5.3645 12.032-12.032 12.032h-61.049c-6.668 0-12.032-5.3643-12.032-12.032z" fill-opacity=".23529"/>
  <path id="path5252-0" d="m5.4316 1033.9v1.0133c0 6.668 5.3645 12.032 12.032 12.032h61.049c6.668 0 12.032-5.3645 12.032-12.032v-1.0133c0 6.6681-5.3645 12.032-12.032 12.032h-61.049c-6.668 0-12.032-5.3644-12.032-12.032z" fill-opacity=".098039"/>
  <rect id="rect3873" rx="6" ry="6" height="84" width="84" display="none" y="947.34" x="107.91" fill="url(#linearGradient4982)"/>
  <rect id="rect3880" rx="6" ry="6" height="84" width="84" display="none" y="947.34" x="107.91" fill="url(#linearGradient4982)"/>
  <g id="layer5" transform="translate(0 954.36)">
   <rect id="rect3171" height="66" stroke="#fff" stroke-linecap="round" stroke-width=".5" fill="url(#linearGradient6674)" rx="12" ry="12" width="66" opacity=".1" clip-path="url(#clipPath3613-967)" filter="url(#filter3794-4)" y="15" x="15"/>
  </g>
  <g id="g7844" transform="matrix(1 0 0 .94737 0 50.861)">
   <path id="path4238" opacity=".05" style="color:#000000" d="m21 966.36c-6.0469 0-11 4.953-11 11s4.9531 11 11 11c3.8181 0 7.0753-2.0528 9.0312-5.0312 0.8017 1.2018 1.7982 2.1983 3 3-2.978 1.96-5.031 5.21-5.031 9.03 0 3.7932 2.0225 7.0387 4.9688 9-2.9462 1.9613-4.9688 5.2068-4.9688 9 0 6.0469 4.9531 11 11 11s11-4.9531 11-11c0-3.8181-2.0528-7.0753-5.0312-9.0312 1.2018-0.8017 2.1983-1.7982 3-3 1.956 2.9784 5.2131 5.0312 9.0312 5.0312 6.0469 0 11-4.9531 11-11 0-6.047-4.9531-11-11-11-3.8181 0-7.0753 2.0528-9.0312 5.0312-0.8017-1.2018-1.7982-2.1983-3-3 2.978-1.95 5.031-5.21 5.031-9.03 0-6.047-4.9531-11-11-11-3.7932 0-7.0387 2.0225-9 4.9688-1.9613-2.9462-5.2068-4.9688-9-4.9688zm54 0c-6.0469 0-11 4.953-11 11s4.9531 11 11 11 11-4.953 11-11-4.9531-11-11-11zm0 36c-6.0469 0-11 4.9531-11 11 0 3.8181 2.0528 7.0753 5.0312 9.0313-1.2018 0.8016-2.1983 1.7981-3 3-1.956-2.9785-5.2131-5.0313-9.0312-5.0313-6.0469 0-11 4.9531-11 11s4.9531 11 11 11c3.7932 0 7.0387-2.0225 9-4.9687 1.9613 2.9462 5.2068 4.9687 9 4.9687 6.0469 0 11-4.9531 11-11 0-3.7932-2.0225-7.0387-4.9688-9 2.9462-1.9613 4.9688-5.2068 4.9688-9 0-6.0469-4.9531-11-11-11zm-54 18c-6.0469 0-11 4.9531-11 11s4.9531 11 11 11 11-4.9531 11-11-4.9531-11-11-11z"/>
   <path id="path4233" opacity=".1" style="color:#000000" d="m21 967.42c-5.4647 0-9.9375 4.4728-9.9375 9.9375s4.4728 9.9375 9.9375 9.9375c4.0094 0 7.4517-2.4349 9-5.875 0.98988 2.1902 2.7473 3.9476 4.9375 4.9375-3.4401 1.5483-5.875 4.9906-5.875 9s2.4349 7.4517 5.875 9c-3.4401 1.5483-5.875 4.9906-5.875 9 0 5.4647 4.4728 9.9375 9.9375 9.9375s9.9375-4.4728 9.9375-9.9375c0-4.0094-2.4349-7.4517-5.875-9 2.1902-0.9899 3.9476-2.7473 4.9375-4.9375 1.5483 3.4401 4.9906 5.875 9 5.875 5.4647 0 9.9375-4.4728 9.9375-9.9375s-4.4728-9.9375-9.9375-9.9375c-4.0094 0-7.4517 2.4349-9 5.875-0.98988-2.1902-2.7473-3.9476-4.9375-4.9375 3.4401-1.5483 5.875-4.9906 5.875-9 0-5.4647-4.4728-9.9375-9.9375-9.9375-4.0094 0-7.4517 2.4349-9 5.875-1.5483-3.4401-4.9906-5.875-9-5.875zm54 0c-5.4647 0-9.9375 4.4728-9.9375 9.9375s4.4728 9.9375 9.9375 9.9375 9.9375-4.4728 9.9375-9.9375-4.4728-9.9375-9.9375-9.9375zm0 36c-5.4647 0-9.9375 4.4728-9.9375 9.9375 0 4.0094 2.4349 7.4517 5.875 9-2.1902 0.9899-3.9476 2.7473-4.9375 4.9375-1.5483-3.4401-4.9906-5.875-9-5.875-5.4647 0-9.9375 4.4728-9.9375 9.9375s4.4728 9.9375 9.9375 9.9375c4.0094 0 7.4517-2.4349 9-5.875 1.5483 3.4401 4.9906 5.875 9 5.875 5.4647 0 9.9375-4.4728 9.9375-9.9375 0-4.0094-2.4349-7.4517-5.875-9 3.4401-1.5483 5.875-4.9906 5.875-9 0-5.4647-4.4728-9.9375-9.9375-9.9375zm-54 18c-5.4647 0-9.9375 4.4728-9.9375 9.9375s4.4728 9.9375 9.9375 9.9375 9.9375-4.4728 9.9375-9.9375-4.4728-9.9375-9.9375-9.9375z"/>
   <path id="path4229" opacity=".15" style="color:#000000" d="m21 968.3c-4.995 0-9.0625 4.0676-9.0625 9.0625 0 4.995 4.0675 9.0625 9.0625 9.0625 4.8845 0 8.8254-3.9069 9-8.75 0.17062 4.7336 3.9539 8.5169 8.6875 8.6875-4.8431 0.17457-8.75 4.1155-8.75 9s3.9069 8.8254 8.75 9c-4.8431 0.1746-8.75 4.1155-8.75 9 0 4.995 4.0675 9.0625 9.0625 9.0625s9.0625-4.0675 9.0625-9.0625c0-4.8845-3.9069-8.8254-8.75-9 4.7336-0.1706 8.5169-3.9539 8.6875-8.6875 0.17457 4.8431 4.1155 8.75 9 8.75 4.995 0 9.0625-4.0675 9.0625-9.0625s-4.0675-9.0625-9.0625-9.0625c-4.8845 0-8.8254 3.9069-9 8.75-0.17062-4.7336-3.9539-8.5169-8.6875-8.6875 4.8431-0.17457 8.75-4.1155 8.75-9 0-4.995-4.0675-9.0625-9.0625-9.0625-4.8845 0-8.8254 3.9069-9 8.75-0.17457-4.8431-4.1155-8.75-9-8.75zm54 0c-4.995 0-9.0625 4.0676-9.0625 9.0625 0 4.995 4.0675 9.0625 9.0625 9.0625s9.0625-4.0676 9.0625-9.0625c0-4.995-4.0675-9.0625-9.0625-9.0625zm0 36c-4.995 0-9.0625 4.0675-9.0625 9.0625 0 4.8845 3.9069 8.8254 8.75 9-4.7336 0.1706-8.5169 3.9539-8.6875 8.6875-0.17457-4.8431-4.1155-8.75-9-8.75-4.995 0-9.0625 4.0675-9.0625 9.0625s4.0675 9.0625 9.0625 9.0625c4.8845 0 8.8254-3.9069 9-8.75 0.17457 4.8431 4.1155 8.75 9 8.75 4.995 0 9.0625-4.0675 9.0625-9.0625 0-4.8845-3.9069-8.8254-8.75-9 4.8431-0.1746 8.75-4.1155 8.75-9 0-4.995-4.0675-9.0625-9.0625-9.0625zm-54 18c-4.995 0-9.0625 4.0675-9.0625 9.0625s4.0675 9.0625 9.0625 9.0625 9.0625-4.0675 9.0625-9.0625-4.0675-9.0625-9.0625-9.0625z"/>
   <path id="path4204" opacity=".3" style="color:#000000" d="m21 969.36c-4.4183 0-8 3.5817-8 8s3.5817 8 8 8 8-3.5817 8-8-3.5817-8-8-8zm18 0c-4.4183 0-8 3.5817-8 8s3.5817 8 8 8 8-3.5817 8-8-3.5817-8-8-8zm36 0c-4.4183 0-8 3.5817-8 8s3.5817 8 8 8 8-3.5817 8-8-3.5817-8-8-8zm-36 18c-4.4183 0-8 3.5817-8 8s3.5817 8 8 8 8-3.5817 8-8-3.5817-8-8-8zm18 0c-4.4183 0-8 3.5817-8 8s3.5817 8 8 8 8-3.5817 8-8-3.5817-8-8-8zm-18 18c-4.4183 0-8 3.5817-8 8s3.5817 8 8 8 8-3.5817 8-8-3.5817-8-8-8zm36 0c-4.4183 0-8 3.5817-8 8s3.5817 8 8 8 8-3.5817 8-8-3.5817-8-8-8zm-54 18c-4.4183 0-8 3.5817-8 8s3.5817 8 8 8 8-3.5817 8-8-3.5817-8-8-8zm36 0c-4.4183 0-8 3.5817-8 8s3.5817 8 8 8 8-3.5817 8-8-3.5817-8-8-8zm18 0c-4.4183 0-8 3.5817-8 8s3.5817 8 8 8 8-3.5817 8-8-3.5817-8-8-8z"/>
   <path id="path3976" style="color:#000000" d="m29 1030.4a8 8 0 0 1 -16 0 8 8 0 1 1 16 0z" fill="url(#radialGradient7880)"/>
   <path id="path3979" opacity=".2" style="color:#000000" d="m21 1022.4c-4.4183 0-8 3.5817-8 8s3.5817 8 8 8 8-3.5817 8-8-3.5817-8-8-8zm0 1c3.866 0 7 3.134 7 7s-3.134 7-7 7-7-3.134-7-7 3.134-7 7-7z"/>
   <path id="path3981" opacity=".3" style="color:#000000" d="m16.051 1035.3c2.7337 2.7337 7.1658 2.7337 9.8995 0s2.7337-7.1658 0-9.8995c-0.05931-0.059-0.11592-0.12-0.17678-0.1768 2.3604 2.5496 2.3013 6.5375-0.17678 9.0157-2.5384 2.5384-6.654 2.5384-9.1924 0-2.4781-2.4782-2.5371-6.4661-0.17678-9.0157-0.06086 0.057-0.11746 0.1175-0.17678 0.1768-2.7337 2.7337-2.7337 7.1658 0 9.8995z" fill="url(#linearGradient7882)"/>
   <path id="path4264" style="color:#000000" d="m65 1030.4a8 8 0 0 1 -16 0 8 8 0 1 1 16 0z" fill="url(#radialGradient7884)"/>
   <path id="path4266" opacity=".2" style="color:#000000" d="m57 1022.4c-4.4183 0-8 3.5817-8 8s3.5817 8 8 8 8-3.5817 8-8-3.5817-8-8-8zm0 1c3.866 0 7 3.134 7 7s-3.134 7-7 7-7-3.134-7-7 3.134-7 7-7z"/>
   <path id="path4268" opacity=".3" style="color:#000000" d="m52.051 1035.3c2.7337 2.7337 7.1658 2.7337 9.8995 0s2.7337-7.1658 0-9.8995c-0.05931-0.059-0.11592-0.12-0.17678-0.1768 2.3604 2.5496 2.3013 6.5375-0.17678 9.0157-2.5384 2.5384-6.654 2.5384-9.1924 0-2.4781-2.4782-2.5371-6.4661-0.17678-9.0157-0.06086 0.057-0.11746 0.1175-0.17678 0.1768-2.7337 2.7337-2.7337 7.1658 0 9.8995z" fill="url(#linearGradient7886)"/>
   <path id="path4280" style="color:#000000" d="m47 1012.4a8 8 0 0 1 -16 0 8 8 0 1 1 16 0z" fill="url(#radialGradient7888)"/>
   <path id="path4282" opacity=".2" style="color:#000000" d="m39 1004.4c-4.4183 0-8 3.5817-8 8s3.5817 8 8 8 8-3.5817 8-8-3.5817-8-8-8zm0 1c3.866 0 7 3.134 7 7s-3.134 7-7 7-7-3.134-7-7 3.134-7 7-7z"/>
   <path id="path4284" opacity=".3" style="color:#000000" d="m34.051 1017.3c2.7337 2.7337 7.1658 2.7337 9.8995 0s2.7337-7.1658 0-9.8995c-0.05931-0.059-0.11592-0.12-0.17678-0.1768 2.3604 2.5496 2.3013 6.5375-0.17678 9.0157-2.5384 2.5384-6.654 2.5384-9.1924 0-2.4781-2.4782-2.5371-6.4661-0.17678-9.0157-0.06086 0.057-0.11746 0.1175-0.17678 0.1768-2.7337 2.7337-2.7337 7.1658 0 9.8995z" fill="url(#linearGradient7890)"/>
   <path id="path4296" style="color:#000000" d="m65 994.36a8 8 0 0 1 -16 0 8 8 0 1 1 16 0z" fill="url(#radialGradient7892)"/>
   <path id="path4298" opacity=".2" style="color:#000000" d="m57 986.36c-4.4183 0-8 3.5817-8 8s3.5817 8 8 8 8-3.5817 8-8-3.5817-8-8-8zm0 1c3.866 0 7 3.134 7 7s-3.134 7-7 7-7-3.134-7-7 3.134-7 7-7z"/>
   <path id="path4300" opacity=".3" style="color:#000000" d="m52.051 999.31c2.7337 2.7337 7.1658 2.7337 9.8995 0s2.7337-7.1658 0-9.8995c-0.05931-0.0593-0.11592-0.12002-0.17678-0.17678 2.3604 2.5495 2.3013 6.5375-0.17678 9.0156-2.5384 2.5384-6.654 2.5384-9.1924 0-2.4781-2.4781-2.5371-6.4661-0.17678-9.0156-0.06086 0.0568-0.11746 0.11746-0.17678 0.17678-2.7337 2.7337-2.7337 7.1658 0 9.8995z" fill="url(#linearGradient7894)"/>
   <path id="path4312" style="color:#000000" d="m83 976.36a8 8 0 0 1 -16 0 8 8 0 1 1 16 0z" fill="url(#radialGradient7896)"/>
   <path id="path4314" opacity=".2" style="color:#000000" d="m75 968.36c-4.4183 0-8 3.5817-8 8s3.5817 8 8 8 8-3.5817 8-8-3.5817-8-8-8zm0 1c3.866 0 7 3.134 7 7s-3.134 7-7 7-7-3.134-7-7 3.134-7 7-7z"/>
   <path id="path4316" opacity=".3" style="color:#000000" d="m70.051 981.31c2.7337 2.7337 7.1658 2.7337 9.8995 0s2.7337-7.1658 0-9.8995c-0.05931-0.0593-0.11592-0.12002-0.17678-0.17678 2.3604 2.5495 2.3013 6.5375-0.17678 9.0156-2.5384 2.5384-6.654 2.5384-9.1924 0-2.4781-2.4781-2.5371-6.4661-0.17678-9.0156-0.06086 0.0568-0.11746 0.11746-0.17678 0.17678-2.7337 2.7337-2.7337 7.1658 0 9.8995z" fill="url(#linearGradient7898)"/>
   <path id="path4328" style="color:#000000" d="m83 1030.4a8 8 0 0 1 -16 0 8 8 0 1 1 16 0z" fill="url(#radialGradient7900)"/>
   <path id="path4330" opacity=".2" style="color:#000000" d="m75 1022.4c-4.4183 0-8 3.5817-8 8s3.5817 8 8 8 8-3.5817 8-8-3.5817-8-8-8zm0 1c3.866 0 7 3.134 7 7s-3.134 7-7 7-7-3.134-7-7 3.134-7 7-7z"/>
   <path id="path4332" opacity=".3" style="color:#000000" d="m70.051 1035.3c2.7337 2.7337 7.1658 2.7337 9.8995 0s2.7337-7.1658 0-9.8995c-0.05931-0.059-0.11592-0.12-0.17678-0.1768 2.3604 2.5496 2.3013 6.5375-0.17678 9.0157-2.5384 2.5384-6.654 2.5384-9.1924 0-2.4781-2.4782-2.5371-6.4661-0.17678-9.0157-0.06086 0.057-0.11746 0.1175-0.17678 0.1768-2.7337 2.7337-2.7337 7.1658 0 9.8995z" fill="url(#linearGradient7902)"/>
   <path id="path4372" style="color:#000000" d="m47 994.36a8 8 0 0 1 -16 0 8 8 0 1 1 16 0z" fill="url(#radialGradient7904)"/>
   <path id="path4374" opacity=".2" style="color:#000000" d="m39 986.36c-4.4183 0-8 3.5817-8 8s3.5817 8 8 8 8-3.5817 8-8-3.5817-8-8-8zm0 1c3.866 0 7 3.134 7 7s-3.134 7-7 7-7-3.134-7-7 3.134-7 7-7z"/>
   <path id="path4376" opacity=".3" style="color:#000000" d="m34.051 999.31c2.7337 2.7337 7.1658 2.7337 9.8995 0s2.7337-7.1658 0-9.8995c-0.05931-0.0593-0.11592-0.12002-0.17678-0.17678 2.3604 2.5495 2.3013 6.5375-0.17678 9.0156-2.5384 2.5384-6.654 2.5384-9.1924 0-2.4781-2.4781-2.5371-6.4661-0.17678-9.0156-0.06086 0.0568-0.11746 0.11746-0.17678 0.17678-2.7337 2.7337-2.7337 7.1658 0 9.8995z" fill="url(#linearGradient7906)"/>
   <path id="path4388" style="color:#000000" d="m29 976.36a8 8 0 0 1 -16 0 8 8 0 1 1 16 0z" fill="url(#radialGradient7908)"/>
   <path id="path4390" opacity=".2" style="color:#000000" d="m21 968.36c-4.4183 0-8 3.5817-8 8s3.5817 8 8 8 8-3.5817 8-8-3.5817-8-8-8zm0 1c3.866 0 7 3.134 7 7s-3.134 7-7 7-7-3.134-7-7 3.134-7 7-7z"/>
   <path id="path4392" opacity=".3" style="color:#000000" d="m16.051 981.31c2.7337 2.7337 7.1658 2.7337 9.8995 0s2.7337-7.1658 0-9.8995c-0.05931-0.0593-0.11592-0.12002-0.17678-0.17678 2.3604 2.5495 2.3013 6.5375-0.17678 9.0156-2.5384 2.5384-6.654 2.5384-9.1924 0-2.4781-2.4781-2.5371-6.4661-0.17678-9.0156-0.06086 0.0568-0.11746 0.11746-0.17678 0.17678-2.7337 2.7337-2.7337 7.1658 0 9.8995z" fill="url(#linearGradient7910)"/>
   <path id="path4404" style="color:#000000" d="m83 1012.4a8 8 0 0 1 -16 0 8 8 0 1 1 16 0z" fill="url(#radialGradient7912)"/>
   <path id="path4406" opacity=".2" style="color:#000000" d="m75 1004.4c-4.4183 0-8 3.5817-8 8s3.5817 8 8 8 8-3.5817 8-8-3.5817-8-8-8zm0 1c3.866 0 7 3.134 7 7s-3.134 7-7 7-7-3.134-7-7 3.134-7 7-7z"/>
   <path id="path4408" opacity=".3" style="color:#000000" d="m70.051 1017.3c2.7337 2.7337 7.1658 2.7337 9.8995 0s2.7337-7.1658 0-9.8995c-0.05931-0.059-0.11592-0.12-0.17678-0.1768 2.3604 2.5496 2.3013 6.5375-0.17678 9.0157-2.5384 2.5384-6.654 2.5384-9.1924 0-2.4781-2.4782-2.5371-6.4661-0.17678-9.0157-0.06086 0.057-0.11746 0.1175-0.17678 0.1768-2.7337 2.7337-2.7337 7.1658 0 9.8995z" fill="url(#linearGradient7914)"/>
   <path id="path4448" style="color:#000000" d="m47 976.36a8 8 0 0 1 -16 0 8 8 0 1 1 16 0z" fill="url(#radialGradient7916)"/>
   <path id="path4450" opacity=".2" style="color:#000000" d="m39 968.36c-4.4183 0-8 3.5817-8 8s3.5817 8 8 8 8-3.5817 8-8-3.5817-8-8-8zm0 1c3.866 0 7 3.134 7 7s-3.134 7-7 7-7-3.134-7-7 3.134-7 7-7z"/>
   <path id="path4452" opacity=".3" style="color:#000000" d="m34.051 981.31c2.7337 2.7337 7.1658 2.7337 9.8995 0s2.7337-7.1658 0-9.8995c-0.05931-0.0593-0.11592-0.12002-0.17678-0.17678 2.3604 2.5495 2.3013 6.5375-0.17678 9.0156-2.5384 2.5384-6.654 2.5384-9.1924 0-2.4781-2.4781-2.5371-6.4661-0.17678-9.0156-0.06086 0.0568-0.11746 0.11746-0.17678 0.17678-2.7337 2.7337-2.7337 7.1658 0 9.8995z" fill="url(#linearGradient7918)"/>
  </g>
 </g>
</svg>
