<?xml version="1.0" encoding="UTF-8" standalone="no"?>
<!-- Created with Inkscape (http://www.inkscape.org/) -->
<svg id="svg2" xmlns:rdf="http://www.w3.org/1999/02/22-rdf-syntax-ns#" xmlns="http://www.w3.org/2000/svg" height="96" width="96" version="1.1" xmlns:cc="http://creativecommons.org/ns#" xmlns:xlink="http://www.w3.org/1999/xlink" xmlns:dc="http://purl.org/dc/elements/1.1/">
 <defs id="defs4">
  <linearGradient id="linearGradient3700-0">
   <stop id="stop3702-2" stop-color="#70a83e" offset="0"/>
   <stop id="stop3704-9" stop-color="#9fd058" offset="1"/>
  </linearGradient>
  <linearGradient id="linearGradient4982" y2="5.9877" xlink:href="#linearGradient3700-0" gradientUnits="userSpaceOnUse" x2="48" gradientTransform="translate(101.91 941.34)" y1="90" x1="48"/>
  <clipPath id="clipPath4124">
   <path id="path4126" d="m12 6c-3.324 0-6 2.676-6 6v72c0 3.324 2.676 6 6 6h64c3.324 0 6-2.676 6-6v-72c0-3.324-2.676-6-6-6h-64zm41 26c4.7437 0 8.5312 3.5725 8.5312 8-0.01825 0.53641-0.02106 1.1915-0.0625 1.8125 0.70276 0.44193 0.71665 1.9275 0.0625 3.4688-0.23269 0.54826-0.49662 0.96113-0.8125 1.3438-0.09925 0.46292-0.12281 0.83737-0.25 1.375-0.35389 1.0617-1.7896 3.1857-2.8438 4.8125-0.06772 1.0795-0.03947 2.1853 0.09375 3.2812 3.2925 2.8631 11.893 4.3621 11.906 6.8125l0.187 1.094h-33.624l0.187-1.094c-0.01278-2.8631 8.5728-4.0469 11.906-6.8125 0.23112-1.3475 0.11344-2.5343 0-3.7188-1.1569-1.5423-2.4323-3.4218-2.75-4.375-0.11386-0.52116-0.06413-0.73154-0.15625-1.1875-0.37917-0.4081-0.72694-0.88788-1-1.5312-0.68857-1.6224-0.65495-3.2182 0.15625-3.5625-0.045-0.574-0.052-1.247-0.062-1.718 0-4.4275 3.7876-8 8.5312-8z" fill="#f0f"/>
  </clipPath>
  <filter id="filter4128" height="1.4923" width="1.4683" color-interpolation-filters="sRGB" y="-.24614" x="-.23416">
   <feGaussianBlur id="feGaussianBlur4130" stdDeviation="3.2818182"/>
  </filter>
  <linearGradient id="linearGradient3778">
   <stop id="stop3780-3" offset="0"/>
   <stop id="stop3786-1" stop-opacity="0" offset=".5"/>
   <stop id="stop3782" stop-color="#fff" offset="1"/>
  </linearGradient>
  <linearGradient id="linearGradient3745">
   <stop id="stop3747" stop-color="#8a8a8a" offset="0"/>
   <stop id="stop3753-0" stop-color="#7f7d7d" offset=".40964"/>
   <stop id="stop3755-8" stop-color="#6f6f6f" offset=".72741"/>
   <stop id="stop3749-9" stop-color="#373737" offset="1"/>
  </linearGradient>
  <linearGradient id="linearGradient3761">
   <stop id="stop3763" offset="0"/>
   <stop id="stop3769" stop-opacity=".19380" offset=".5"/>
   <stop id="stop3765" stop-opacity="0" offset="1"/>
  </linearGradient>
  <linearGradient id="linearGradient59479" y2="5.9795" gradientUnits="userSpaceOnUse" x2="54.75" gradientTransform="matrix(1.0191 0 0 1.0357 109.78 946.36)" y1="90" x1="54.75">
   <stop id="stop4024" stop-color="#752c1b" offset="0"/>
   <stop id="stop4026" stop-color="#bd634f" offset="1"/>
  </linearGradient>
  <linearGradient id="linearGradient59481" y2="8" gradientUnits="userSpaceOnUse" x2="88" gradientTransform="matrix(.91670 0 0 .79651 116.66 954.78)" y1="88" x1="88">
   <stop id="stop3768-4" stop-color="#d9d9d9" offset="0"/>
   <stop id="stop3770-5" stop-color="#fff" offset="1"/>
  </linearGradient>
  <linearGradient id="linearGradient59483" y2="9.9688" gradientUnits="userSpaceOnUse" x2="83" gradientTransform="matrix(1.0191 0 0 1.0357 106.4 968.42)" y1="26" x1="83">
   <stop id="stop3787-4" stop-color="#ff8e00" offset="0"/>
   <stop id="stop3789-6" stop-color="#ffcc0a" offset="1"/>
  </linearGradient>
  <linearGradient id="linearGradient59485" y2="45.969" gradientUnits="userSpaceOnUse" x2="84" gradientTransform="matrix(1.0191 0 0 1.0357 106.4 960.13)" y1="62" x1="84">
   <stop id="stop3816" stop-color="#2499b6" offset="0"/>
   <stop id="stop3818" stop-color="#57c3de" offset="1"/>
  </linearGradient>
  <linearGradient id="linearGradient59487" y2="9.9688" gradientUnits="userSpaceOnUse" x2="83" gradientTransform="matrix(1.0191 0 0 1.0357 106.4 953.92)" y1="26" x1="83">
   <stop id="stop3748-9" stop-color="#e71e1e" offset="0"/>
   <stop id="stop3751-4" stop-color="#e94b4b" offset="1"/>
  </linearGradient>
  <linearGradient id="linearGradient59489" y2="28" gradientUnits="userSpaceOnUse" x2="84" gradientTransform="matrix(1.0191 0 0 1.0357 106.4 964.27)" y1="44" x1="84">
   <stop id="stop3808-27" stop-color="#4baa0c" offset="0"/>
   <stop id="stop3810-3" stop-color="#66d819" offset="1"/>
  </linearGradient>
  <linearGradient id="linearGradient59491" y2="56" gradientUnits="userSpaceOnUse" x2="45.622" gradientTransform="matrix(2.1023 0 0 2.1023 -47.909 -53.727)" y1="40.778" x1="45.622">
   <stop id="stop4030" stop-opacity=".80916" offset="0"/>
   <stop id="stop4032" stop-opacity=".43511" offset="1"/>
  </linearGradient>
  <linearGradient id="linearGradient59493" y2="24" xlink:href="#linearGradient3778" gradientUnits="userSpaceOnUse" x2="18" gradientTransform="matrix(0 1.0357 .94880 0 101.56 956.72)" y1="24" x1="10"/>
  <linearGradient id="linearGradient59495" y2="26" xlink:href="#linearGradient3745" gradientUnits="userSpaceOnUse" x2="9" gradientTransform="matrix(.94880 0 0 1.0357 111.04 946.36)" y1="22" x1="9"/>
  <linearGradient id="linearGradient59497" y2="24" xlink:href="#linearGradient3761" spreadMethod="reflect" gradientUnits="userSpaceOnUse" x2="12" gradientTransform="matrix(.94880 0 0 1.0357 111.04 946.36)" y1="24" x1="4"/>
  <linearGradient id="linearGradient59499" y2="24" xlink:href="#linearGradient3778" gradientUnits="userSpaceOnUse" x2="18" gradientTransform="matrix(0,1,1,0,-10,10)" y1="24" x1="10"/>
  <linearGradient id="linearGradient59501" y2="26" xlink:href="#linearGradient3745" gradientUnits="userSpaceOnUse" x2="9" y1="22" x1="9"/>
  <linearGradient id="linearGradient59503" y2="24" xlink:href="#linearGradient3761" spreadMethod="reflect" gradientUnits="userSpaceOnUse" x2="12" y1="24" x1="4"/>
  <clipPath id="clipPath59523" clipPathUnits="userSpaceOnUse">
   <path id="path59525" d="m127.42 953.28c-6.668 0-12.031 5.3945-12.031 12.062v61.031c0 5.4178 3.5332 9.9818 8.4375 11.5h68.188c4.7148-1.4568 8.1719-5.7337 8.4375-10.875v-62.281c-0.32117-6.3771-5.5404-11.438-12-11.438h-61.031z" fill-opacity=".42254" fill="#f2f2f2"/>
  </clipPath>
 </defs>
 <metadata id="metadata7">
  <rdf:RDF>
   <cc:Work rdf:about="">
    <dc:format>image/svg+xml</dc:format>
    <dc:type rdf:resource="http://purl.org/dc/dcmitype/StillImage"/>
    <dc:title/>
   </cc:Work>
  </rdf:RDF>
 </metadata>
 <g id="layer1" transform="translate(0 -956.36)">
  <rect id="rect5261-6" fill-opacity=".039216" ry="12.552" height="88.762" width="88.762" y="959.96" x="3.6078"/>
  <rect id="rect5259-9" fill-opacity=".078431" ry="12.38" height="87.546" width="87.546" y="960.57" x="4.2157"/>
  <rect id="rect5257-5" fill-opacity=".15686" ry="12.208" height="86.33" width="86.33" y="961.18" x="4.8237"/>
  <path id="rect2419" d="m17.469 5.4062c-6.668 0-12.032 5.3948-12.032 12.063l0.0005 61.031c0 5.418 3.5332 9.982 8.4375 11.5h68.187c4.715-1.457 8.172-5.734 8.438-10.875v-62.281c-0.321-6.377-5.54-11.438-12-11.438l-61.031 0.0002z" transform="translate(0 956.36)" fill="#f2f2f2"/>
  <g id="g59426" clip-path="url(#clipPath59523)" transform="translate(-109.96 8.4853)">
   <path id="rect3717" d="m183.15 952.57v87h12.229c3.3874 0 6.1145-2.7716 6.1145-6.2143v-74.571c0-3.4427-2.7271-6.2143-6.1145-6.2143h-12.229z" fill="url(#linearGradient59479)"/>
   <path id="path3729" d="m184.58 961.23v63.571h9.081c2.014 0 3.5809-1.3614 3.5809-3.1114v-57.348c0-1.75-1.5668-3.1113-3.5809-3.1113h-9.081z" fill="url(#linearGradient59481)"/>
   <path id="path3764" opacity=".1" d="m177.04 952.57v87h10.917c3.024 0 5.4585-2.7716 5.4585-6.2143v-74.571c0-3.4427-2.4345-6.2143-5.4585-6.2143h-10.917z"/>
   <rect id="rect4142" style="color:#000000" rx="2.0382" ry="2.0714" height="12.429" width="8.1527" y="978.77" x="186.9" fill="url(#linearGradient59483)"/>
   <rect id="rect3779" style="color:#000000" rx="2.0382" ry="2.0714" height="12.429" width="8.1527" y="1007.8" x="186.9" fill="url(#linearGradient59485)"/>
   <path id="path3804" opacity=".2" style="color:#000000" d="m186.9 1017.1v1.0358c0 1.1475 0.90903 2.0714 2.0382 2.0714h4.0763c1.1292 0 2.0382-0.9239 2.0382-2.0714v-1.0358c0 1.1476-0.90902 2.0715-2.0382 2.0715h-4.0763c-1.1291 0-2.0382-0.9239-2.0382-2.0715z"/>
   <rect id="rect3775" style="color:#000000" rx="2.0382" ry="2.0714" height="12.429" width="8.1527" y="964.27" x="186.9" fill="url(#linearGradient59487)"/>
   <path id="rect3793" opacity=".2" style="color:#000000" d="m186.9 973.59v1.0357c0 1.1476 0.90903 2.0714 2.0382 2.0714h4.0763c1.1292 0 2.0382-0.92386 2.0382-2.0714v-1.0357c0 1.1476-0.90902 2.0714-2.0382 2.0714h-4.0763c-1.1291 0-2.0382-0.92386-2.0382-2.0714z"/>
   <rect id="rect3777" style="color:#000000" rx="2.0382" ry="2.0714" height="12.429" width="8.1527" y="993.27" x="186.9" fill="url(#linearGradient59489)"/>
   <path id="path3802" opacity=".2" style="color:#000000" d="m186.9 1002.6v1.0358c0 1.1475 0.90903 2.0714 2.0382 2.0714h4.0763c1.1292 0 2.0382-0.9239 2.0382-2.0714v-1.0358c0 1.1476-0.90902 2.0715-2.0382 2.0715h-4.0763c-1.1291 0-2.0382-0.9239-2.0382-2.0715z"/>
   <path id="path3759" opacity=".3" d="m176.02 952.57v87h10.917c3.024 0 5.4585-2.7716 5.4585-6.2143v-74.571c0-3.4427-2.4345-6.2143-5.4585-6.2143h-10.917z"/>
   <path id="path4144" opacity=".2" style="color:#000000" d="m186.9 988.09v1.0357c0 1.1476 0.90903 2.0714 2.0382 2.0714h4.0763c1.1292 0 2.0382-0.92386 2.0382-2.0714v-1.0357c0 1.1476-0.90902 2.0714-2.0382 2.0714h-4.0763c-1.1291 0-2.0382-0.92386-2.0382-2.0714z"/>
   <rect id="rect3961" rx="5.9591" ry="6.2143" height="87" width="75.482" y="952.57" x="115.89" fill="#c87137"/>
   <rect id="rect3650" opacity=".15" height="87" width="1.0191" y="952.57" x="134.24" fill="#fff"/>
   <path id="rect3635" opacity=".8" d="m122.01 952.57c-3.3874 0-6.1145 2.7716-6.1145 6.2143v74.571c0 3.4427 2.7271 6.2143 6.1145 6.2143h12.229v-87h-12.229z" fill="#a05a2c"/>
   <rect id="rect3648" opacity=".4" height="87" width="1.0191" y="952.57" x="133.22" fill="#784421"/>
   <g id="layer3" style="enable-background:new" transform="matrix(1.0191 0 0 1.0357 109.78 946.36)">
    <path id="path3159" opacity=".6" d="m53 32c-4.7437 0-8.5455 3.5725-8.5455 8 0.01072 0.47147 0.04591 1.1529 0.0909 1.7273-0.8112 0.34429-0.8704 1.9231-0.18183 3.5455 0.27306 0.64336 0.62083 1.1374 1 1.5455 0.09212 0.45596 0.06797 0.66066 0.18183 1.1818 0.31773 0.9532 1.5704 2.8213 2.7273 4.3636 0.11344 1.1845 0.23112 2.3798 0 3.7273-3.3334 2.7656-11.922 3.9551-11.909 6.8182l-0.182 1.091h33.636l-0.182-1.091c-0.01367-2.4504-8.6165-3.9551-11.909-6.8182-0.13322-1.096-0.15862-2.1932-0.0909-3.2727 1.0542-1.6268 2.4643-3.7565 2.8182-4.8182 0.12719-0.53763 0.17348-0.90072 0.27273-1.3636 0.31588-0.38262 0.58549-0.81538 0.81818-1.3636 0.65415-1.5413 0.61186-3.0126-0.0909-3.4545 0.04144-0.621 0.07265-1.2818 0.0909-1.8182 0-4.426-3.801-7.999-8.545-7.999z" fill="url(#linearGradient59491)"/>
    <path id="path4036" opacity=".1" d="m53 32c-4.7437 0-8.5312 3.5725-8.5312 8 0.01072 0.47147 0.01751 1.1444 0.0625 1.7188-0.8112 0.34429-0.84482 1.9401-0.15625 3.5625 0.27306 0.64336 0.62083 1.1232 1 1.5312 0.09212 0.45596 0.04239 0.66634 0.15625 1.1875 0.31773 0.9532 1.5931 2.8327 2.75 4.375 0.11344 1.1845 0.23112 2.3713 0 3.7188-3.3334 2.7656-11.919 3.9494-11.906 6.8125l-0.187 1.094h33.624l-0.187-1.094c-0.014-2.45-8.614-3.949-11.906-6.812-0.133-1.096-0.162-2.202-0.094-3.282 1.054-1.626 2.49-3.75 2.844-4.812 0.12719-0.53763 0.15075-0.91208 0.25-1.375 0.31588-0.38262 0.57981-0.79549 0.8125-1.3438 0.65415-1.5413 0.64026-3.0268-0.0625-3.4688 0.04144-0.621 0.04425-1.2761 0.0625-1.8125 0-4.4275-3.7875-8-8.5312-8zm0 1.0312c4.2209 0 7.482 3.1052 7.5 6.9375 0.00005 0.01059 0 0.02065 0 0.03125-0.01822 0.55392-0.0247 1.1835-0.0625 1.75a1.0182 1.0182 0 0 0 0.46875 0.9375c0.0046 0.0236 0.08877 0.14539 0.09375 0.46875 0.0066 0.43114-0.12614 1.0588-0.40625 1.7188-0.19634 0.46261-0.39203 0.77369-0.65625 1.0938a1.0182 1.0182 0 0 0 -0.21875 0.4375c-0.11591 0.54065-0.14071 0.88177-0.25 1.3438-0.12623 0.34998-0.52569 1.0868-1.0312 1.9062-0.52185 0.84586-1.1244 1.7731-1.6562 2.5938a1.0182 1.0182 0 0 0 -0.1875 0.5c-0.07154 1.1405-0.01604 2.3084 0.125 3.4688a1.0182 1.0182 0 0 0 0.343 0.656c1.9111 1.6618 4.9296 2.6896 7.4688 3.7188 1.2696 0.51458 2.4039 1.005 3.1562 1.4688 0.37617 0.23187 0.64316 0.4652 0.78125 0.625s0.12495 0.2099 0.125 0.21875a1.0182 1.0182 0 0 0 0.03125 0.0625h-31.25a1.0182 1.0182 0 0 0 0.03125 -0.0625c-0.000922-0.20665 0.1739-0.55441 0.90625-1.0312 0.73235-0.47684 1.863-0.97631 3.125-1.4688 2.5239-0.98488 5.5577-1.9198 7.5-3.5312a1.0182 1.0182 0 0 0 0.34375 -0.59375c0.25768-1.5024 0.11322-2.8178 0-4a1.0182 1.0182 0 0 0 -0.186 -0.531c-0.56708-0.75602-1.1722-1.5916-1.6562-2.3438-0.46002-0.71477-0.79169-1.3201-0.90625-1.625-0.0047-0.0215 0.0039-0.04217 0-0.0625-0.071-0.363-0.045-0.54-0.157-1.094a1.0182 1.0182 0 0 0 -0.25 -0.5c-0.31962-0.34401-0.58978-0.72524-0.8125-1.25-0.29506-0.69521-0.42251-1.3708-0.40625-1.8125 0.01219-0.33126 0.07306-0.43335 0.0625-0.4375a1.0182 1.0182 0 0 0 0.5625 -1c-0.041-0.511-0.021-1.144-0.032-1.625 0-0.0106-0.00005-0.02066 0-0.03125 0.01801-3.8323 3.2791-6.9375 7.5-6.9375z"/>
    <path id="path4049" opacity=".2" d="m53 32c-4.7437 0-8.5312 3.5725-8.5312 8 0.0031 0.13728 0.02434 0.33493 0.03125 0.5 0.27737-4.1898 3.9389-7.5 8.5-7.5 4.5725 0 8.239 3.3265 8.5 7.5312 0.0075-0.17462 0.0259-0.3739 0.03125-0.53125 0-4.4275-3.7875-8-8.5312-8zm-8.5 9.75c-0.50422 0.2487-0.67779 1.0028-0.5625 1.9375 0.08082-0.47091 0.26263-0.82822 0.59375-0.96875-0.025-0.324-0.014-0.634-0.031-0.969zm17 0.09375c-0.01589 0.32955-0.0091 0.63686-0.03125 0.96875 0.28226 0.1775 0.43316 0.52128 0.5 0.96875 0.12-0.892-0.032-1.63-0.469-1.938zm-3.906 12.781c-0.01517 0.81529 0.0251 1.6469 0.125 2.4688 3.2925 2.8631 11.893 4.3621 11.906 6.8125l0.031 0.094h0.156l-0.187-1.094c-0.014-2.45-8.614-3.949-11.906-6.812-0.059-0.487-0.107-0.984-0.125-1.469zm-9.219 0.219c-0.01445 0.40058-0.02058 0.82339-0.09375 1.25-3.3334 2.7656-11.919 3.9494-11.906 6.8125l-0.187 1.094h0.156l0.031-0.094c-0.01278-2.8631 8.5728-4.0469 11.906-6.8125 0.13587-0.79219 0.12725-1.5343 0.09375-2.25z"/>
    <path id="path4058" opacity=".15" d="m44.5 40.5c-0.01111 0.16776-0.03125 0.32956-0.03125 0.5 0.0047 0.20577 0.01847 0.49059 0.03125 0.75 0.01373-0.0068 0.01705-0.02522 0.03125-0.03125-0.032-0.407-0.014-0.817-0.031-1.219zm17 0.03125c-0.0181 0.42063-0.002 0.84242-0.03125 1.2812 0.01255 0.0079 0.01912 0.02271 0.03125 0.03125 0.01384-0.28708 0.02275-0.59402 0.03125-0.84375 0-0.15982-0.02148-0.31129-0.03125-0.46875zm-17.562 3.157c-0.11717 0.68276 0.02999 1.6336 0.4375 2.5938 0.27306 0.64336 0.62083 1.1232 1 1.5312 0.09212 0.45596 0.04239 0.66634 0.15625 1.1875 0.31773 0.9532 1.5931 2.8327 2.75 4.375 0.04675 0.48812 0.07027 0.96706 0.09375 1.4688 0.0312-0.86472-0.01623-1.6593-0.09375-2.4688-1.1569-1.5423-2.4323-3.4218-2.75-4.375-0.11386-0.52116-0.06413-0.73154-0.15625-1.1875-0.37917-0.4081-0.72694-0.88788-1-1.5312-0.23418-0.55176-0.37647-1.0989-0.4375-1.5938zm18.031 0.09375c-0.06334 0.46802-0.21634 0.97891-0.4375 1.5-0.23269 0.54826-0.49662 0.96113-0.8125 1.3438-0.09925 0.46292-0.12281 0.83737-0.25 1.375-0.35389 1.0617-1.7896 3.1857-2.8438 4.8125-0.03767 0.6005-0.05374 1.2043-0.03125 1.8125 0.0051-0.2719 0.01431-0.54253 0.03125-0.8125 1.0542-1.6268 2.4899-3.7508 2.8438-4.8125 0.12719-0.53763 0.15075-0.91208 0.25-1.375 0.31588-0.38262 0.57981-0.79549 0.8125-1.3438 0.39141-0.92222 0.53707-1.8334 0.4375-2.5zm-25.625 20.218l-0.15625 1h33.625l-0.15625-1h-33.312z" fill="#fff"/>
    <path id="path4067" opacity=".15" d="m53 32c-4.7437 0-8.5455 3.5725-8.5455 8 0.01072 0.47147 0.04591 1.1529 0.0909 1.7273-0.8112 0.34429-0.8704 1.9231-0.18183 3.5455 0.27306 0.64336 0.62083 1.1374 1 1.5455 0.09212 0.45596 0.06797 0.66066 0.18183 1.1818 0.31773 0.9532 1.5704 2.8213 2.7273 4.3636 0.11344 1.1845 0.23112 2.3798 0 3.7273-3.3334 2.7656-11.922 3.9551-11.909 6.8182l-0.182 1.091h33.636l-0.182-1.091c-0.01367-2.4504-8.6165-3.9551-11.909-6.8182-0.13322-1.096-0.15862-2.1932-0.0909-3.2727 1.0542-1.6268 2.4643-3.7565 2.8182-4.8182 0.12719-0.53763 0.17348-0.90072 0.27273-1.3636 0.31588-0.38262 0.58549-0.81538 0.81818-1.3636 0.65415-1.5413 0.61186-3.0126-0.0909-3.4545 0.04144-0.621 0.07265-1.2818 0.0909-1.8182 0-4.426-3.801-7.999-8.545-7.999z" clip-path="url(#clipPath4124)" filter="url(#filter4128)" stroke="#fff" stroke-width="3" fill="none"/>
   </g>
   <path id="path3773" opacity=".3" d="m120.53 971.22c0-2.288 1.6992-4.1429 3.7952-4.1429s3.7952 1.8548 3.7952 4.1429c0 2.288-1.6992 4.1428-3.7952 4.1428s-3.7952-1.8548-3.7952-4.1428zm0.94881 0c0 1.716 1.2744 3.1071 2.8464 3.1071s2.8464-1.3911 2.8464-3.1071-1.2744-3.1072-2.8464-3.1072-2.8464 1.3911-2.8464 3.1072z" fill="url(#linearGradient59493)"/>
   <path id="path3792" opacity=".3" d="m116.74 968.11v7.25h7.5904c1.5621 0 2.8464-1.6356 2.8464-3.625s-1.2843-3.625-2.8464-3.625h-7.5904z"/>
   <path id="path3771-0" opacity=".6" d="m127.17 971.22a2.8464 3.1071 0 0 1 -5.6928 0 2.8464 3.1071 0 1 1 5.6928 0z"/>
   <rect id="rect3733" rx="1.8976" ry="2.0714" height="4.1429" width="11.386" y="969.14" x="114.84" fill="url(#linearGradient59495)"/>
   <rect id="rect3759-2" opacity=".6" rx="1.8976" ry="2.0714" height="4.1429" width="11.386" y="969.14" x="114.84" fill="url(#linearGradient59497)"/>
   <g id="use3806" transform="matrix(.94880 0 0 1.0357 111.04 958.79)">
    <path id="path58804" opacity=".3" d="m10 24c0-2.2091 1.7909-4 4-4s4 1.7909 4 4-1.7909 4-4 4-4-1.7909-4-4zm1 0c0 1.6569 1.3431 3 3 3s3-1.3431 3-3-1.3431-3-3-3-3 1.3431-3 3z" fill="url(#linearGradient59499)"/>
    <path id="path58806" opacity=".3" d="m6 21v7h8c1.6464 0 3-1.5792 3-3.5 0-1.921-1.354-3.5-3-3.5h-8z"/>
    <path id="path58808" opacity=".6" d="m17 24a3 3 0 1 1 -6 0 3 3 0 1 1 6 0z"/>
    <rect id="rect58810" rx="2" ry="2" height="4" width="12" y="22" x="4" fill="url(#linearGradient59501)"/>
    <rect id="rect58812" opacity=".6" rx="2" ry="2" height="4" width="12" y="22" x="4" fill="url(#linearGradient59503)"/>
   </g>
   <g id="use3808" transform="matrix(.94880 0 0 1.0357 111.04 971.22)">
    <path id="path58786" opacity=".3" d="m10 24c0-2.2091 1.7909-4 4-4s4 1.7909 4 4-1.7909 4-4 4-4-1.7909-4-4zm1 0c0 1.6569 1.3431 3 3 3s3-1.3431 3-3-1.3431-3-3-3-3 1.3431-3 3z" fill="url(#linearGradient59499)"/>
    <path id="path58788" opacity=".3" d="m6 21v7h8c1.6464 0 3-1.5792 3-3.5 0-1.921-1.354-3.5-3-3.5h-8z"/>
    <path id="path58790" opacity=".6" d="m17 24a3 3 0 1 1 -6 0 3 3 0 1 1 6 0z"/>
    <rect id="rect58792" rx="2" ry="2" height="4" width="12" y="22" x="4" fill="url(#linearGradient59501)"/>
    <rect id="rect58794" opacity=".6" rx="2" ry="2" height="4" width="12" y="22" x="4" fill="url(#linearGradient59503)"/>
   </g>
   <g id="use3810" transform="matrix(.94880 0 0 1.0357 111.04 983.64)">
    <path id="path58768" opacity=".3" d="m10 24c0-2.2091 1.7909-4 4-4s4 1.7909 4 4-1.7909 4-4 4-4-1.7909-4-4zm1 0c0 1.6569 1.3431 3 3 3s3-1.3431 3-3-1.3431-3-3-3-3 1.3431-3 3z" fill="url(#linearGradient59499)"/>
    <path id="path58770" opacity=".3" d="m6 21v7h8c1.6464 0 3-1.5792 3-3.5 0-1.921-1.354-3.5-3-3.5h-8z"/>
    <path id="path58772" opacity=".6" d="m17 24a3 3 0 1 1 -6 0 3 3 0 1 1 6 0z"/>
    <rect id="rect58774" rx="2" ry="2" height="4" width="12" y="22" x="4" fill="url(#linearGradient59501)"/>
    <rect id="rect58776" opacity=".6" rx="2" ry="2" height="4" width="12" y="22" x="4" fill="url(#linearGradient59503)"/>
   </g>
   <g id="use3812" transform="matrix(.94880 0 0 1.0357 111.04 996.07)">
    <path id="path58750" opacity=".3" d="m10 24c0-2.2091 1.7909-4 4-4s4 1.7909 4 4-1.7909 4-4 4-4-1.7909-4-4zm1 0c0 1.6569 1.3431 3 3 3s3-1.3431 3-3-1.3431-3-3-3-3 1.3431-3 3z" fill="url(#linearGradient59499)"/>
    <path id="path58752" opacity=".3" d="m6 21v7h8c1.6464 0 3-1.5792 3-3.5 0-1.921-1.354-3.5-3-3.5h-8z"/>
    <path id="path58754" opacity=".6" d="m17 24a3 3 0 1 1 -6 0 3 3 0 1 1 6 0z"/>
    <rect id="rect58756" rx="2" ry="2" height="4" width="12" y="22" x="4" fill="url(#linearGradient59501)"/>
    <rect id="rect58758" opacity=".6" rx="2" ry="2" height="4" width="12" y="22" x="4" fill="url(#linearGradient59503)"/>
   </g>
  </g>
  <path id="rect5265-0" d="m5.4316 1029.8v5.0663c0 6.668 5.3645 12.032 12.032 12.032h61.049c6.668 0 12.032-5.3645 12.032-12.032v-5.0663c0 6.6681-5.3645 12.032-12.032 12.032h-61.049c-6.668 0-12.032-5.3643-12.032-12.032z" fill-opacity=".23529"/>
  <path id="path5252-0" d="m5.4316 1033.9v1.0133c0 6.668 5.3645 12.032 12.032 12.032h61.049c6.668 0 12.032-5.3645 12.032-12.032v-1.0133c0 6.6681-5.3645 12.032-12.032 12.032h-61.049c-6.668 0-12.032-5.3644-12.032-12.032z" fill-opacity=".098039"/>
  <rect id="rect3873" rx="6" ry="6" height="84" width="84" display="none" y="947.34" x="107.91" fill="url(#linearGradient4982)"/>
  <rect id="rect3880" rx="6" ry="6" height="84" width="84" display="none" y="947.34" x="107.91" fill="url(#linearGradient4982)"/>
 </g>
</svg>
