<?xml version="1.0" encoding="UTF-8" standalone="no"?>
<!-- Created with Inkscape (http://www.inkscape.org/) -->
<svg id="svg2" xmlns:rdf="http://www.w3.org/1999/02/22-rdf-syntax-ns#" xmlns="http://www.w3.org/2000/svg" height="96" width="96" version="1.1" xmlns:cc="http://creativecommons.org/ns#" xmlns:xlink="http://www.w3.org/1999/xlink" xmlns:dc="http://purl.org/dc/elements/1.1/">
 <defs id="defs4">
  <linearGradient id="linearGradient3700-0">
   <stop id="stop3702-2" stop-color="#70a83e" offset="0"/>
   <stop id="stop3704-9" stop-color="#9fd058" offset="1"/>
  </linearGradient>
  <linearGradient id="linearGradient4982" y2="5.9877" xlink:href="#linearGradient3700-0" gradientUnits="userSpaceOnUse" x2="48" gradientTransform="translate(101.91 941.34)" y1="90" x1="48"/>
  <linearGradient id="linearGradient3770">
   <stop id="stop3772-9" stop-color="#ff7612" offset="0"/>
   <stop id="stop3778-4" stop-color="#ffc149" offset="1"/>
  </linearGradient>
  <clipPath id="clipPath2973-9">
   <rect id="rect2975-0" rx="6" ry="6" height="84" width="84" y="6" x="6" fill="url(#linearGradient2977)"/>
  </clipPath>
  <linearGradient id="linearGradient3802">
   <stop id="stop3804-6" stop-color="#676767" offset="0"/>
   <stop id="stop3806-2" stop-color="#282828" offset="1"/>
  </linearGradient>
  <linearGradient id="linearGradient7212" y2="5.9877" xlink:href="#linearGradient3700-0" gradientUnits="userSpaceOnUse" x2="48" y1="90" x1="48"/>
  <linearGradient id="linearGradient7267" y2="5.9877" xlink:href="#linearGradient3770" gradientUnits="userSpaceOnUse" x2="48" gradientTransform="matrix(1.0565 0 0 1.0327 -3.3393 -1.4464)" y1="90" x1="48"/>
  <linearGradient id="linearGradient7426" y2="48" gradientUnits="userSpaceOnUse" x2="51" gradientTransform="matrix(1.0793 1.0793 -1.0793 1.0793 181.28 899.59)" y1="48" x1="45">
   <stop id="stop4154-9" stop-color="#fff" offset="0"/>
   <stop id="stop4160-8" stop-color="#fff" stop-opacity="0" offset=".5"/>
   <stop id="stop4156-7" stop-color="#fff" stop-opacity="0" offset="1"/>
  </linearGradient>
  <radialGradient id="radialGradient7434" xlink:href="#linearGradient3802" gradientUnits="userSpaceOnUse" cy="47.746" cx="35.355" gradientTransform="matrix(-4.7556e-7 -3.0634 2.2299 -3.4616e-7 74.107 1130.3)" r="3.5318"/>
  <radialGradient id="radialGradient7441" xlink:href="#linearGradient3802" gradientUnits="userSpaceOnUse" cy="47.746" cx="35.355" gradientTransform="matrix(-3.0634 -4.7556e-7 -3.4616e-7 2.2299 308.49 895.96)" r="3.5318"/>
  <radialGradient id="radialGradient7455" xlink:href="#linearGradient3802" gradientUnits="userSpaceOnUse" cy="48" cx="48" gradientTransform="matrix(1.5263 0 0 1.5263 108.01 929.94)" r="3"/>
  <radialGradient id="radialGradient8299" xlink:href="#linearGradient3802" gradientUnits="userSpaceOnUse" cy="47.746" cx="35.355" gradientTransform="matrix(2.007 -3.1157e-7 2.268e-7 1.4609 -35.349 -22.262)" r="3.5318"/>
  <linearGradient id="linearGradient8303" y2="28.878" xlink:href="#linearGradient3802" gradientUnits="userSpaceOnUse" x2="51" gradientTransform="matrix(0 1 -1 0 95.927 .072888)" y1="28.878" x1="45"/>
  <linearGradient id="linearGradient8305" y2="28.878" xlink:href="#linearGradient3802" gradientUnits="userSpaceOnUse" x2="51" gradientTransform="matrix(1 0 0 -1 -1.5869e-7 96)" y1="28.878" x1="45"/>
  <linearGradient id="linearGradient8307" y2="28.878" xlink:href="#linearGradient3802" gradientUnits="userSpaceOnUse" x2="51" y1="28.878" x1="45"/>
  <linearGradient id="linearGradient8313" y2="28.878" xlink:href="#linearGradient3802" gradientUnits="userSpaceOnUse" x2="51" gradientTransform="matrix(1 0 0 -1 -1.5869e-7 96)" y1="28.878" x1="45"/>
  <radialGradient id="radialGradient8319" gradientUnits="userSpaceOnUse" cy="37.5" cx="37.5" gradientTransform="matrix(3.0526 0 0 3.0526 59.172 881.09)" r="8">
   <stop id="stop3794-0" stop-color="#828282" offset="0"/>
   <stop id="stop3796-63" stop-color="#555" offset=".49463"/>
   <stop id="stop3798-0" stop-color="#3d3d3d" offset=".74731"/>
   <stop id="stop3790" stop-color="#242424" offset="1"/>
  </radialGradient>
  <linearGradient id="linearGradient8323" y2="28.878" xlink:href="#linearGradient3802" gradientUnits="userSpaceOnUse" x2="51" gradientTransform="matrix(1 0 0 -1 -1.5869e-7 96)" y1="28.878" x1="45"/>
  <clipPath id="clipPath8568" clipPathUnits="userSpaceOnUse">
   <path id="path8570" d="m17.469 961.77c-6.668 0-12.031 5.3945-12.031 12.062v61.031c0 5.4178 3.5332 9.9818 8.4375 11.5h68.188c4.7148-1.4568 8.1719-5.7337 8.4375-10.875v-62.281c-0.32117-6.3771-5.5404-11.438-12-11.438h-61.031z" fill="url(#linearGradient8572)"/>
  </clipPath>
  <linearGradient id="linearGradient8572" y2="5.9877" xlink:href="#linearGradient3770" gradientUnits="userSpaceOnUse" x2="48" gradientTransform="matrix(1.0565 0 0 1.0327 -3.3393 954.92)" y1="90" x1="48"/>
 </defs>
 <metadata id="metadata7">
  <rdf:RDF>
   <cc:Work rdf:about="">
    <dc:format>image/svg+xml</dc:format>
    <dc:type rdf:resource="http://purl.org/dc/dcmitype/StillImage"/>
    <dc:title/>
   </cc:Work>
  </rdf:RDF>
 </metadata>
 <g id="layer1" transform="translate(0 -956.36)">
  <rect id="rect5261-6" fill-opacity=".039216" ry="12.552" height="88.762" width="88.762" y="959.96" x="3.6078"/>
  <rect id="rect5259-9" fill-opacity=".078431" ry="12.38" height="87.546" width="87.546" y="960.57" x="4.2157"/>
  <rect id="rect5257-5" fill-opacity=".15686" ry="12.208" height="86.33" width="86.33" y="961.18" x="4.8237"/>
  <path id="rect2419-0" d="m17.469 5.4062c-6.668 0-12.032 5.3948-12.032 12.063l0.0005 61.031c0 5.418 3.5332 9.982 8.4375 11.5h68.187c4.715-1.457 8.172-5.734 8.438-10.875v-62.281c-0.321-6.377-5.54-11.438-12-11.438l-61.031 0.0002z" transform="translate(0 956.36)" fill="url(#linearGradient7267)"/>
  <rect id="rect3873" rx="6" ry="6" height="84" width="84" display="none" y="947.34" x="107.91" fill="url(#linearGradient4982)"/>
  <rect id="rect3880" rx="6" ry="6" height="84" width="84" display="none" y="947.34" x="107.91" fill="url(#linearGradient4982)"/>
  <g id="g8447" clip-path="url(#clipPath8568)">
   <g id="g8329" transform="matrix(1.0253 0 0 1.0253 -137.51 -25.34)">
    <g id="layer7" transform="translate(133.17 955.42)">
     <g id="g3855" opacity=".9" fill="#f00" clip-path="url(#clipPath2973-9)">
      <path id="path3819" opacity=".15" d="m48 48 24-56h16l-40 56z"/>
      <path id="path3821" opacity=".15" d="m48 48 55.25 25.677-0.48 15.993-54.77-41.67z"/>
      <path id="path3823" opacity=".15" d="m48 48-59.828 11.516-8.969-13.25 68.797 1.734z"/>
      <path id="path3825" opacity=".15" d="m48 48-49.311-35.783 3.5359-15.604 45.775 51.387z"/>
      <path id="path3827" opacity=".15" d="m48 48 17.519-62.073 30.436 12.714-47.955 49.359z"/>
      <path id="path3829" opacity=".15" d="m48 48 61.64-19.001 5.85 32.461-67.49-13.46z"/>
      <path id="path3831" opacity=".15" d="m48 48-31.246 56.42-26.723-19.331 57.969-37.089z"/>
      <path id="path3833" opacity=".15" d="m48 48-62.812-14.651 11.304-30.988 51.508 45.639z"/>
      <path id="path3835" opacity=".15" d="m48 48 45.81 45.403-3.692 9.027-42.118-54.43z"/>
      <path id="path3837" opacity=".15" d="m48 48-2.9701 64.43-9.1685 3.31l12.138-67.74z"/>
      <path id="path3839" opacity=".15" d="m48 48-44.859 46.343-9.0649-3.585 53.924-42.758z"/>
      <path id="path3841" opacity=".15" d="m48 48-62.116 17.366-6.016-7.67 68.132-9.696z"/>
      <path id="path3843" opacity=".15" d="m48 48-29.147-57.537 6.35-7.396 22.797 64.933z"/>
      <path id="path3845" opacity=".15" d="m48 48 59.482-24.939 6.921 6.8641-66.403 18.074z"/>
      <path id="path3849" opacity=".15" d="m48 48 40.187 45.793-6.897 14.437-33.29-60.23z"/>
      <path id="path3851" opacity=".15" d="m48 48-35.958-49.184 8.152-13.767 27.806 62.951z"/>
     </g>
     <rect id="rect3873-0" rx="6" ry="6" height="84" width="84" display="none" y="6" x="6" fill="url(#linearGradient7212)"/>
     <rect id="rect3880-3" rx="6" ry="6" height="84" width="84" display="none" y="6" x="6" fill="url(#linearGradient7212)"/>
    </g>
    <path id="path4741" opacity=".05" style="color:#000000" d="m180.79 971.45c-1.3428 0.26231-2.0877 1.3638-2.4375 2.3125-0.34982 0.94873-0.50661 1.8627-0.75 2.375a0.98518 0.98518 0 0 0 -0.0625 0.125l-2.0312 6.0938c-1.0258 0.26193-2.0181 0.68831-2.6875 0.90625-0.41984 0.13669-0.71814 0.13839-0.90625 0.0937-0.18811-0.0446-0.34628-0.1203-0.625-0.5625a0.98518 0.98518 0 0 0 -0.28125 -0.28125c-0.54482-0.38593-1.0898-1.0029-1.75-1.625s-1.4752-1.2699-2.5625-1.5312a0.98518 0.98518 0 0 0 -0.0937 0c-1.2001-0.13517-2.2798 0.5229-2.8125 1.4062-0.49566 0.82191-0.58238 1.8483-0.21875 2.8125h-0.0313l0.0625 0.21875 1.0312 5.125c-0.24066 0.46419-0.45359 0.55686-0.8125 0.59375-0.42445 0.0436-1.1442-0.0944-1.9688-0.3125a0.98518 0.98518 0 0 0 -0.125 -0.0313c-0.58687-0.0786-1.503-0.4299-2.5312-0.53125-0.5141-0.0507-1.0917-0.0268-1.6562 0.1875-0.56456 0.21426-1.0847 0.64634-1.4375 1.25a0.98518 0.98518 0 0 0 -0.0313 0.0313c-0.33077 0.61775-0.4207 1.311-0.3125 1.9062 0.1082 0.59521 0.3816 1.0775 0.6875 1.5 0.6118 0.84498 1.378 1.4886 1.75 1.9688a0.98518 0.98518 0 0 0 0.15625 0.15625c0.68839 0.56687 1.0662 1.1008 1.1875 1.5625 0.10398 0.39576-0.0526 0.88378-0.375 1.5-3.094 1.0688-6.2912 2.0386-9.4062 3.25a0.98518 0.98518 0 0 0 -0.15625 0.063c-2.3139 1.39-1.3774 4.9857 1.1562 5.4062l-0.0313 0.063 8.5312 2.8125c0.25865 0.9791 0.62398 1.9285 0.8125 2.5625 0.11852 0.3986 0.14186 0.6621 0.0937 0.8438-0.0481 0.1817-0.13547 0.3554-0.5625 0.625a0.98518 0.98518 0 0 0 -0.28125 0.2812c-0.78785 1.1157-2.6484 2.1636-3.1875 4.3438a0.98518 0.98518 0 0 0 0 0.125c-0.13508 1.2001 0.52294 2.2801 1.4062 2.8125 0.82188 0.4954 1.8485 0.5814 2.8125 0.2187v0.031l0.21875-0.063 5.1562-1.0313c0.40786 0.2087 0.50819 0.3714 0.53125 0.7188 0.0279 0.42-0.17777 1.1747-0.375 2a0.98518 0.98518 0 0 0 0 0.094c-0.0786 0.587-0.4299 1.5032-0.53125 2.5314-0.0507 0.5141-0.0268 1.0917 0.1875 1.6562 0.21426 0.5646 0.64634 1.0847 1.25 1.4375a0.98518 0.98518 0 0 0 0.0313 0.031c0.61577 0.3294 1.3126 0.417 1.9062 0.3125 0.59368-0.1046 1.0774-0.3857 1.5-0.6875 0.84526-0.604 1.4853-1.3488 1.9688-1.7189a0.98518 0.98518 0 0 0 0.15625 -0.1561c0.56738-0.7004 1.093-1.0779 1.5625-1.1875 0.40516-0.095 0.92697 0.096 1.5625 0.4375 1.0586 3.0617 2.0161 6.2282 3.2188 9.3125a0.98518 0.98518 0 0 0 0.0625 0.1561c1.3902 2.3133 4.9829 1.3756 5.4062-1.1561l0.0625 0.031 2.8125-8.375c1.0114-0.2646 1.9935-0.6903 2.6562-0.9061 0.42006-0.1368 0.71865-0.1384 0.90625-0.094 0.1876 0.045 0.34707 0.1198 0.625 0.5625a0.98518 0.98518 0 0 0 0.28125 0.2813c0.52145 0.3546 1.0822 1.0047 1.7812 1.6562 0.69903 0.6515 1.6455 1.3232 2.875 1.375a0.98518 0.98518 0 0 0 0.0625 0c1.1682-0.051 2.0981-0.8156 2.5-1.7187 0.37092-0.8334 0.38928-1.7815 0.0625-2.6563l-0.0625-0.2187-0.9375-4.6875c0.23747-0.4152 0.44878-0.5348 0.8125-0.5625 0.43754-0.033 1.1434 0.1717 1.9688 0.375a0.98518 0.98518 0 0 0 0.0937 0c0.58654 0.087 1.4992 0.3966 2.5 0.4687 0.50039 0.036 1.0508 0 1.5938-0.2187 0.54299-0.2218 1.0394-0.6318 1.375-1.2188a0.98518 0.98518 0 0 0 0.0313 -0.031c0.33093-0.6178 0.42021-1.3108 0.3125-1.9063-0.10771-0.5954-0.38162-1.0771-0.6875-1.5-0.61176-0.8457-1.3755-1.4881-1.75-1.9687a0.98518 0.98518 0 0 0 -0.0937 -0.094c-0.5389-0.534-0.98246-1.0332-1.125-1.3437-0.14254-0.3106-0.20357-0.3927 0.21875-0.9375a0.98518 0.98518 0 0 0 0.21875 -0.5938c-0.00016-0.2129-0.003-0.2127 0.0313-0.25 0.0342-0.037 0.17594-0.1074 0.40625-0.1875 0.43325-0.1507 1.1772-0.2606 1.9375-0.625v0.031c0.0414-0.015 0.0834-0.047 0.125-0.063 2.2246-0.8153 4.6758-1.3836 7-2.4688a0.98518 0.98518 0 0 0 0.15625 -0.094c2.1266-1.5033 1.0924-4.8647-1.3438-5.2813l0.0313-0.063-8.25-2.7499c-0.24179-1.0855-0.67374-2.0381-0.90625-2.75-0.14287-0.43745-0.17028-0.76684-0.125-0.96875 0.0453-0.20192 0.11599-0.371 0.5625-0.65625a0.98518 0.98518 0 0 0 0.28125 -0.28125c0.34917-0.51721 0.98677-1.0851 1.625-1.7812 0.63823-0.69614 1.296-1.6277 1.3438-2.8438a0.98518 0.98518 0 0 0 0 -0.0625c-0.0509-1.1681-0.81558-2.0977-1.7188-2.5-0.83348-0.37127-1.7811-0.39042-2.6562-0.0625-0.0732 0.0274-0.14682 0.03-0.21875 0.0625l-4.6562 0.9375c-0.46431-0.2497-0.58649-0.44842-0.625-0.8125-0.0455-0.43056 0.0923-1.1754 0.3125-2a0.98518 0.98518 0 0 0 0.0313 -0.0937c0.0855-0.5861 0.41513-1.5212 0.5-2.5312 0.0424-0.50505 0.0312-1.0427-0.1875-1.5938-0.21867-0.55106-0.65682-1.0649-1.25-1.4062a0.98518 0.98518 0 0 0 -0.0313 -0.0313c-0.61775-0.33065-1.3112-0.42104-1.9062-0.3125-0.59505 0.10854-1.0778 0.38158-1.5 0.6875-0.84444 0.61184-1.4889 1.3797-1.9688 1.75a0.98518 0.98518 0 0 0 -0.1875 0.1875c-0.52896 0.69772-0.97301 0.95762-1.4375 1.0312-0.39559 0.0627-0.95426-0.12596-1.5938-0.4375-1.0904-3.1077-1.9964-6.3542-3.3125-9.5a0.98518 0.98518 0 0 0 -0.125 -0.21875c-0.6473-0.86751-1.7025-1.2746-2.75-1.1562a0.98518 0.98518 0 0 0 -0.0625 0z"/>
    <path id="path4735" opacity=".1" style="color:#000000" d="m180.94 965.35a1.214 1.214 0 0 0 -0.0763 0.0382c-0.0002 0.00004-0.15244 0.0381-0.15263 0.0382-0.0002 0.00005-0.15244 0.0381-0.15264 0.0382-0.00019 0.00006-0.15244 0.0381-0.15263 0.0382-0.00018 0.00007-0.15245 0.0762-0.15263 0.0763-0.00018 0.00009-0.15246 0.0762-0.15263 0.0763s-0.15246 0.0762-0.15263 0.0763c-0.00017 0.00011-0.11429 0.11441-0.11441 0.11441-0.00016 0.00012-0.15249 0.11429-0.15264 0.11441-0.00014 0.00013-0.11429 0.11429-0.11441 0.11441-0.00013 0.00015-0.11429 0.11429-0.11441 0.11442-0.00014 0.00014-0.0762 0.11429-0.0763 0.11441-0.00012 0.00016-0.11441 0.15246-0.11441 0.15263-0.00011 0.00017-0.0762 0.15246-0.0763 0.15263s-0.0762 0.11429-0.0763 0.11441c-0.00009 0.00019-0.0762 0.15245-0.0763 0.15264-0.00006 0.00014-0.0243 0.11319-0.0382 0.15263-0.004 0.01 0.00002 0.0381 0 0.0382l-3.7776 11.333c-1.8478 0.43656-3.6337 1.0782-5.3039 1.8697l-5.304-4.6934a1.214 1.214 0 0 0 -0.0382 -0.0382c-0.00017-0.00015-0.15245-0.0762-0.15263-0.0763-0.00018-0.00012-0.15244-0.11441-0.15263-0.11441-0.0002-0.00011-0.15244-0.0762-0.15263-0.0763-0.0002-0.0001-0.15243-0.0762-0.15263-0.0763-0.00021-0.00009-0.19059-0.0763-0.19079-0.0763-0.00021-0.00007-0.19057-0.0381-0.19079-0.0382-0.00022-0.00005-0.15241-0.0381-0.15263-0.0382-0.00022-0.00003-0.19057-0.0381-0.19079-0.0382-0.00022-0.00001-0.19057 0-0.19079 0s-0.19057-0.00001-0.19079 0c-0.00022 0.00002-0.19057 0.0381-0.19079 0.0382-0.00022 0.00004-0.15241-0.00005-0.15263 0s-0.19059 0.0763-0.19079 0.0763c-0.00021 0.00006-0.19058 0.0381-0.19079 0.0382-0.00021 0.00008-0.15244 0.0762-0.15263 0.0763-0.0002 0.0001-0.15244 0.0762-0.15264 0.0763-0.00019 0.00011-0.15244 0.11441-0.15263 0.11441-0.00018 0.00012-0.15246 0.11429-0.15263 0.11441-0.00017 0.00014-0.15247 0.11429-0.15263 0.11442-0.00016 0.00014-0.11429 0.11429-0.11441 0.11441-0.00015 0.00016-0.1525 0.15246-0.15263 0.15263-0.00014 0.00017-0.0762 0.15245-0.0763 0.15263-0.00012 0.00019-0.11441 0.15244-0.11441 0.15263-0.00011 0.0002-0.0762 0.15244-0.0763 0.15264-0.0001 0.00019-0.0762 0.19058-0.0763 0.19078-0.00009 0.00021-0.0763 0.19059-0.0763 0.19079-0.00006 0.00021-0.0381 0.15242-0.0382 0.15264-0.00005 0.00022-0.0381 0.19057-0.0382 0.19079-0.00002 0.00021 0.00001 0.19056 0 0.19078s0 0.19057 0 0.19079-0.00002 0.15242 0 0.15264c0.00003 0.00022 0.0381 0.19057 0.0382 0.19078a1.214 1.214 0 0 0 0 0.0382l1.6026 7.8224c-0.60615 0.61331-1.1697 1.2736-1.7171 1.946l-6.3724-1.2974a1.214 1.214 0 0 0 -0.0382 0c-0.00022-0.00003-0.19057-0.0381-0.19079-0.0382-0.00022-0.00003-0.15241 0-0.15263 0s-0.19057-0.00002-0.19079 0c-0.00022 0.00001-0.19057-0.00004-0.19079 0-0.00022 0.00003-0.19057 0.0381-0.19079 0.0382-0.00022 0.00005-0.15242 0.0381-0.15263 0.0382-0.00021 0.00006-0.19058 0.0762-0.19079 0.0763-0.00021 0.00007-0.19059 0.0762-0.19079 0.0763-0.00019 0.00009-0.15243 0.0762-0.15263 0.0763-0.0002 0.00011-0.15245 0.11441-0.15263 0.11441-0.00018 0.00013-0.15246 0.0762-0.15263 0.0763-0.00017 0.00013-0.15248 0.15248-0.15263 0.15263-0.00016 0.00015-0.1143 0.11429-0.11442 0.11441-0.00014 0.00016-0.11429 0.15246-0.11441 0.15264-0.00013 0.00017-0.11429 0.15244-0.11441 0.15263-0.00012 0.00018-0.11442 0.15243-0.11442 0.15263-0.0001 0.00019-0.0762 0.15243-0.0763 0.15263s-0.0762 0.15242-0.0763 0.15263c-0.00008 0.00021-0.0381 0.19058-0.0382 0.19079-0.00006 0.00021-0.0763 0.19057-0.0763 0.19079-0.00005 0.00022 0.00004 0.15241 0 0.15263s-0.0381 0.19057-0.0382 0.19079c-0.00001 0.00022 0 0.19057 0 0.19079s-0.00001 0.19057 0 0.19079 0.0381 0.19057 0.0382 0.19079c0.00004 0.00022 0.0381 0.15241 0.0382 0.15263 0.00005 0.00022 0.0381 0.19058 0.0382 0.19079 0.00006 0.00021 0.0762 0.19058 0.0763 0.19079 0.00009 0.00021 0.0762 0.15244 0.0763 0.15263 0.0001 0.0002 0.0762 0.15244 0.0763 0.15263 0.00011 0.0002 0.11429 0.15245 0.11442 0.15263 0.00012 0.00019 0.0762 0.15247 0.0763 0.15264a1.214 1.214 0 0 0 0.0382 0.0382l4.35 4.8842c-0.38616 1.0288-0.69188 2.1068-0.95395 3.2053l-11.486 3.854a1.214 1.214 0 0 0 -0.0382 0c-0.00021 0.0001-0.19059 0.076-0.19079 0.077-0.00019 0.0001-0.15244 0.076-0.15263 0.077-0.0002 0.0001-0.15245 0.1148-0.15263 0.1148-0.00019 0.0001-0.15246 0.1148-0.15263 0.1148-0.00017 0.0001-0.15248 0.1147-0.15264 0.1147-0.00015 0.0003-0.11429 0.1148-0.11441 0.1148-0.00014 0.0001-0.11429 0.1525-0.11441 0.1527-0.00013 0.0001-0.11429 0.1525-0.11441 0.1526-0.00013 0.0001-0.11442 0.1524-0.11442 0.1526-0.00011 0.0003-0.0762 0.1524-0.0763 0.1526-0.0001 0.0003-0.0762 0.1524-0.0763 0.1527-0.00008 0.0002-0.0763 0.1906-0.0763 0.1907-0.00006 0.0003-0.0381 0.1906-0.0382 0.1909-0.00005 0.0002-0.0381 0.1523-0.0382 0.1526-0.00004 0.0002 0.00001 0.1906 0 0.1907-0.00001 0.0003-0.0382 0.1906-0.0382 0.1909 0 0.0002 0.0381 0.1906 0.0382 0.1907 0.00001 0.0002-0.00004 0.1906 0 0.1908 0.00004 0.0003 0.0381 0.1524 0.0382 0.1527 0.00005 0.0002 0.0381 0.1906 0.0382 0.1907 0.00006 0.0003 0.0762 0.1906 0.0763 0.1909 0.00009 0.0002 0.0762 0.1523 0.0763 0.1526l0.0763 0.1526c0.00011 0.0003 0.11429 0.1525 0.11442 0.1527 0.00012 0.0001 0.11429 0.1525 0.11441 0.1526 0.00013 0.0001 0.11429 0.1525 0.11441 0.1526 0.00015 0.0001 0.11429 0.1148 0.11441 0.1148 0.00016 0.0002 0.15247 0.1148 0.15264 0.1148 0.00017 0.0001 0.15244 0.1148 0.15263 0.1148 0.00018 0.0001 0.15243 0.1147 0.15263 0.1147 0.00019 0.0002 0.15244 0.076 0.15263 0.077 0.0002 0.0001 0.19058 0.076 0.19079 0.077a1.214 1.214 0 0 0 0.0382 0l11.562 3.8158c0.41924 1.7601 1.0049 3.4603 1.7553 5.0749l-4.7316 5.3803a1.214 1.214 0 0 0 -0.0382 0.038c-0.00013 0.0002-0.0762 0.1525-0.0763 0.1526-0.00012 0.0003-0.11441 0.1525-0.11441 0.1526-0.00011 0.0003-0.0762 0.1526-0.0763 0.1527-0.0001 0.0002-0.0762 0.1525-0.0763 0.1526-0.00008 0.0003-0.0763 0.1906-0.0763 0.1909-0.00007 0.0002-0.0381 0.1906-0.0382 0.1907-0.00005 0.0002-0.0381 0.1525-0.0382 0.1526-0.00004 0.0003-0.0381 0.1906-0.0382 0.1909-0.00001 0.0002 0 0.1906 0 0.1907 0 0.0002-0.00001 0.1906 0 0.1909 0.00001 0.0002 0.0381 0.1906 0.0382 0.1907 0.00004 0.0002-0.00005 0.1525 0 0.1526 0.00005 0.0003 0.0762 0.1906 0.0763 0.1909 0.00006 0.0002 0.0381 0.1906 0.0382 0.1907 0.00008 0.0002 0.0762 0.1525 0.0763 0.1526 0.0001 0.0003 0.0762 0.1525 0.0763 0.1527 0.00011 0.0002 0.11429 0.1525 0.11441 0.1526 0.00012 0.0002 0.11429 0.1525 0.11441 0.1526 0.00014 0.0003 0.11429 0.1525 0.11442 0.1526 0.00014 0.0003 0.11429 0.1148 0.11441 0.1148 0.00016 0.0002 0.15246 0.1525 0.15263 0.1527 0.00017 0.0001 0.15245 0.076 0.15263 0.077 0.00018 0.0001 0.15244 0.1148 0.15263 0.1148 0.0002 0.0001 0.15244 0.077 0.15263 0.077 0.0002 0.0001 0.19059 0.077 0.19079 0.077 0.00021 0.0001 0.19059 0.077 0.19079 0.077 0.00021 0.0002 0.15241 0.038 0.15263 0.038s0.19057 0.038 0.19079 0.038c0.00022 0.0002 0.19057 0 0.19079 0 0.00022 0.0002 0.19057 0.0002 0.19079 0 0.00022 0 0.15241 0.0002 0.15263 0 0.00022 0 0.19057-0.038 0.19079-0.038a1.214 1.214 0 0 0 0.0382 0l7.8605-1.6026c0.58051 0.5676 1.2064 1.0931 1.8316 1.6026l-1.2974 6.3723a1.214 1.214 0 0 0 0 0.038c-0.00004 0.0002-0.0381 0.1906-0.0382 0.1907-0.00003 0.0002 0 0.1525 0 0.1526 0 0.0003-0.00001 0.1906 0 0.1909 0.00001 0.0002-0.00003 0.1906 0 0.1907 0.00002 0.0002 0.0381 0.1906 0.0382 0.1908 0.00005 0.0003 0.0381 0.1524 0.0382 0.1527 0.00006 0.0002 0.0762 0.1906 0.0763 0.1907 0.00009 0.0002 0.0762 0.1906 0.0763 0.1909 0.0001 0.0002 0.0762 0.1523 0.0763 0.1526 0.00011 0.0002 0.11429 0.1525 0.11442 0.1526 0.00012 0.0003 0.0762 0.1525 0.0763 0.1526 0.00014 0.0002 0.15249 0.1526 0.15263 0.1527 0.00015 0.0001 0.11429 0.1148 0.11442 0.1148 0.00016 0.0002 0.15246 0.1147 0.15263 0.1147 0.00017 0.0002 0.15245 0.1148 0.15263 0.1148 0.00018 0.0003 0.15244 0.1148 0.15263 0.1148 0.0002 0.0001 0.15244 0.076 0.15263 0.077 0.0002 0.0001 0.15243 0.076 0.15263 0.077 0.00021 0.0002 0.19059 0.038 0.19079 0.038 0.00021 0.0001 0.19057 0.077 0.19079 0.077 0.00022 0.0002 0.15242 0 0.15263 0 0.00022 0.0002 0.19057 0.038 0.19079 0.038h0.19079 0.19079c0.00022 0 0.19057-0.038 0.19079-0.038s0.15241-0.038 0.15263-0.038 0.19059-0.038 0.19079-0.038c0.00021 0 0.19059-0.076 0.19079-0.077 0.00021 0 0.15244-0.076 0.15263-0.077 0.0002 0 0.15244-0.076 0.15264-0.077 0.00019 0 0.15244-0.1147 0.15263-0.1147 0.00018-0.0002 0.15246-0.076 0.15263-0.077a1.214 1.214 0 0 0 0.0382 -0.038l4.8842-4.3118c1.0568 0.4038 2.1548 0.7595 3.2816 1.0302l3.8158 11.371a1.214 1.214 0 0 0 0 0.038c0.00008 0.0003 0.0762 0.1906 0.0763 0.1907 0.0001 0.0003 0.0762 0.1525 0.0763 0.1527 0.00011 0.0002 0.11429 0.1525 0.11441 0.1526 0.00012 0.0002 0.11429 0.1525 0.11441 0.1526 0.00014 0.0003 0.11429 0.1525 0.11441 0.1527 0.00015 0.0002 0.11429 0.1147 0.11442 0.1147 0.00016 0.0002 0.15246 0.1148 0.15263 0.1148 0.00017 0.0003 0.15245 0.1148 0.15263 0.1148 0.00018 0.0001 0.15244 0.1148 0.15263 0.1148 0.0002 0.0001 0.15244 0.077 0.15263 0.077 0.0002 0.0001 0.15243 0.077 0.15263 0.077 0.00021 0.0002 0.19059 0.077 0.19079 0.077 0.00021 0.0001 0.19057 0.038 0.19079 0.038s0.15242 0.038 0.15263 0.038c0.00022 0.0001 0.19057 0 0.19079 0 0.00022 0.0001 0.19057 0.038 0.19079 0.038s0.19057-0.038 0.19079-0.038 0.19057 0.0001 0.19079 0c0.00022 0 0.15241-0.038 0.15263-0.038s0.19059-0.038 0.19079-0.038c0.00021 0 0.19059-0.076 0.19079-0.077 0.00021 0 0.15244-0.076 0.15263-0.077 0.0002 0 0.15244-0.076 0.15264-0.077 0.00019 0 0.15244-0.1148 0.15263-0.1148 0.00018-0.0001 0.15246-0.1148 0.15263-0.1148 0.00017-0.0001 0.15247-0.1148 0.15263-0.1148 0.00016-0.0001 0.11429-0.1147 0.11441-0.1147 0.00015-0.0002 0.11429-0.1524 0.11442-0.1527 0.00013-0.0001 0.11429-0.1524 0.11441-0.1526 0.00012-0.0001 0.11441-0.1524 0.11441-0.1526 0.00011-0.0002 0.0762-0.1524 0.0763-0.1527 0.00009-0.0001 0.0762-0.1904 0.0763-0.1907a1.214 1.214 0 0 0 0 -0.038l3.7776-11.371c1.8477-0.4413 3.6389-1.077 5.304-1.8697l5.1132 4.5408a1.214 1.214 0 0 0 0.0382 0.038c0.00017 0.0001 0.15244 0.076 0.15263 0.077 0.00018 0.0002 0.15243 0.1148 0.15263 0.1148 0.00019 0.0001 0.15243 0.077 0.15263 0.077 0.0002 0.0002 0.15242 0.077 0.15263 0.077 0.00021 0.0001 0.19058 0.077 0.19079 0.077 0.00021 0.0001 0.19057 0.038 0.19079 0.038s0.15241 0.038 0.15263 0.038c0.00022 0.0001 0.19057 0.038 0.19079 0.038h0.19079 0.19079c0.00022 0 0.19057-0.038 0.19079-0.038s0.15241 0.0001 0.15263 0c0.00022 0 0.19058-0.076 0.19079-0.077 0.00021 0 0.19058-0.038 0.19079-0.038 0.00021-0.0001 0.15244-0.076 0.15263-0.077 0.0002-0.0001 0.15244-0.076 0.15263-0.077 0.0002-0.0002 0.15245-0.1148 0.15263-0.1148 0.00019-0.0001 0.15247-0.1148 0.15264-0.1148 0.00017-0.0001 0.15247-0.1148 0.15263-0.1148 0.00016-0.0001 0.11429-0.1147 0.11441-0.1147 0.00015-0.0002 0.1525-0.1526 0.15263-0.1527 0.00014-0.0001 0.0762-0.1524 0.0763-0.1526 0.00012-0.0001 0.11441-0.1524 0.11441-0.1526 0.00011-0.0003 0.0762-0.1524 0.0763-0.1527 0.00009-0.0002 0.0762-0.1906 0.0763-0.1908 0.00009-0.0001 0.0762-0.1905 0.0763-0.1908 0.00006-0.0002 0.0381-0.1523 0.0382-0.1526 0.00005-0.0002 0.0381-0.1906 0.0382-0.1908 0.00002-0.0002-0.00002-0.1905 0-0.1908 0.00001-0.0002 0-0.1906 0-0.1908 0-0.0001 0.00002-0.1524 0-0.1526-0.00003-0.0002-0.0381-0.1905-0.0382-0.1908a1.214 1.214 0 0 0 0 -0.038l-1.5263-7.5171c0.59194-0.5869 1.1731-1.1826 1.7171-1.8315l6.1434 1.221a1.214 1.214 0 0 0 0.0382 0c0.00021 0 0.19056 0.038 0.19078 0.038 0.00022 0.0001 0.15242 0 0.15264 0 0.00022 0.0001 0.19057 0.0001 0.19079 0 0.00022 0 0.19057 0.0001 0.19078 0 0.00022 0 0.19057-0.038 0.19079-0.038s0.15243-0.038 0.15264-0.038c0.0002 0 0.19058-0.076 0.19079-0.077 0.0002 0 0.19059-0.076 0.19078-0.077 0.0002 0 0.15244-0.076 0.15264-0.077 0.00019 0 0.15244-0.1148 0.15263-0.1148 0.00018-0.0001 0.15246-0.076 0.15263-0.077 0.00017-0.0002 0.15247-0.1525 0.15263-0.1527 0.00016-0.0001 0.11429-0.1147 0.11441-0.1147 0.00015-0.0002 0.11429-0.1524 0.11442-0.1527 0.00013-0.0001 0.11429-0.1524 0.11441-0.1526 0.00012-0.0001 0.11441-0.1524 0.11441-0.1526 0.00011-0.0002 0.0762-0.1524 0.0763-0.1527 0.00009-0.0001 0.0762-0.1524 0.0763-0.1526 0.00009-0.0001 0.0381-0.1905 0.0382-0.1907 0.00006-0.0003 0.0763-0.1906 0.0763-0.1909 0.00005-0.0001-0.00004-0.1524 0-0.1526 0.00003-0.0001 0.0381-0.1905 0.0382-0.1907 0.00001-0.0003 0-0.1906 0-0.1909 0-0.0001 0.00001-0.1905 0-0.1907-0.00002-0.0003-0.0381-0.1906-0.0382-0.1909-0.00004-0.0001-0.0381-0.1524-0.0382-0.1526-0.00005-0.0001-0.0381-0.1905-0.0382-0.1907-0.00007-0.0003-0.0762-0.1906-0.0763-0.1909-0.00008-0.0001-0.0762-0.1524-0.0763-0.1526-0.0001-0.0001-0.0762-0.1524-0.0763-0.1526-0.00011-0.0002-0.11429-0.1524-0.11441-0.1527-0.00012-0.0001-0.0762-0.1524-0.0763-0.1526a1.214 1.214 0 0 0 -0.0382 -0.038l-4.1974-4.6934c0.43508-1.1086 0.81993-2.2496 1.1066-3.4342l11.295-3.7776a1.214 1.214 0 0 0 0.0382 0c0.00021-0.0001 0.19059-0.076 0.19079-0.077 0.00019-0.0002 0.15244-0.076 0.15263-0.077 0.0002-0.0001 0.15245-0.1147 0.15263-0.1147 0.00019-0.0002 0.15246-0.1148 0.15263-0.1148 0.00017-0.0001 0.15248-0.1148 0.15264-0.1148 0.00015-0.0001 0.11429-0.1148 0.11441-0.1148 0.00014-0.0001 0.11429-0.1525 0.11441-0.1526 0.00013-0.0001 0.11429-0.1525 0.11441-0.1526 0.00013-0.0002 0.11442-0.1524 0.11442-0.1527 0.00011-0.0002 0.0762-0.1524 0.0763-0.1526 0.0001-0.0003 0.0762-0.1524 0.0763-0.1526 0.00008-0.0003 0.0762-0.1906 0.0763-0.1909 0.00006-0.0001 0.0381-0.1905 0.0382-0.1907 0.00005-0.0003 0.0381-0.1524 0.0382-0.1527 0.00004-0.0002-0.00001-0.1906 0-0.1908 0.00001-0.0001 0.0382-0.1905 0.0382-0.1907 0-0.0003-0.0381-0.1906-0.0382-0.1909-0.00001-0.0001 0.00004-0.1905 0-0.1907-0.00004-0.0003-0.0381-0.1524-0.0382-0.1526-0.00005-0.0003-0.0381-0.1906-0.0382-0.1909-0.00006-0.0001-0.0762-0.1905-0.0763-0.1907-0.00009-0.0003-0.0762-0.1524-0.0763-0.1527-0.0001-0.0002-0.0762-0.1523-0.0763-0.1526-0.00011-0.0002-0.11429-0.1525-0.11442-0.1526-0.00012-0.0001-0.11429-0.1525-0.11441-0.1526-0.00013-0.0002-0.11429-0.1526-0.11441-0.1527-0.00015-0.0001-0.11429-0.1148-0.11441-0.1148-0.00016-0.0001-0.15247-0.1147-0.15264-0.1147-0.00017-0.0002-0.15244-0.1148-0.15263-0.1148-0.00018-0.0001-0.15243-0.1148-0.15263-0.1148-0.00019-0.0001-0.15244-0.076-0.15263-0.077-0.0002-0.0001-0.19058-0.076-0.19079-0.077a1.214 1.214 0 0 0 -0.0382 0l-11.257-3.7395c-0.4305-1.9039-1.055-3.7573-1.8697-5.4947l4.4645-5.075a1.214 1.214 0 0 0 0.0382 -0.0382c0.00013-0.00017 0.0762-0.15245 0.0763-0.15263 0.00012-0.00019 0.11441-0.15244 0.11441-0.15264 0.00011-0.00019 0.0762-0.15243 0.0763-0.15263 0.0001-0.00019 0.0762-0.15242 0.0763-0.15263 0.00008-0.00021 0.0762-0.19058 0.0763-0.19079 0.00006-0.00021 0.0381-0.19057 0.0382-0.19079 0.00005-0.00022 0.0381-0.15241 0.0382-0.15263 0.00004-0.00022 0.0381-0.19057 0.0382-0.19079 0.00001-0.00022 0-0.19057 0-0.19079s0.00001-0.19057 0-0.19079-0.0381-0.19057-0.0382-0.19079c-0.00003-0.00022 0.00005-0.15241 0-0.15263s-0.0763-0.19058-0.0763-0.19079c-0.00006-0.00021-0.0381-0.19058-0.0382-0.19079-0.00009-0.00021-0.0762-0.15243-0.0763-0.15263-0.0001-0.00019-0.0762-0.15244-0.0763-0.15263-0.00011-0.0002-0.11429-0.15245-0.11442-0.15263-0.00012-0.00019-0.11429-0.15246-0.11441-0.15263-0.00013-0.00017-0.11429-0.15248-0.11441-0.15264l-0.11441-0.11441c-0.00016-0.00014-0.15246-0.1525-0.15264-0.15263-0.00017-0.00013-0.15244-0.0762-0.15263-0.0763-0.00018-0.00012-0.15243-0.11441-0.15263-0.11441-0.00019-0.00011-0.15243-0.0762-0.15263-0.0763s-0.19058-0.0762-0.19079-0.0763c-0.00021-0.00007-0.19058-0.0763-0.19079-0.0763-0.00021-0.00006-0.15241-0.0381-0.15263-0.0382-0.00022-0.00005-0.19057-0.0381-0.19079-0.0382-0.00022-0.00004-0.19057 0.00001-0.19079 0-0.00022-0.00002-0.19057 0-0.19079 0s-0.15241-0.00003-0.15263 0c-0.00022 0.00002-0.19057 0.0381-0.19079 0.0382a1.214 1.214 0 0 0 -0.0382 0l-7.4789 1.5263c-0.61213-0.61419-1.2686-1.1954-1.9461-1.7553l1.2592-6.2197a1.214 1.214 0 0 0 0 -0.0382c0.00004-0.00022 0.0381-0.19057 0.0382-0.19079 0.00003-0.00022 0-0.15241 0-0.15263s0.00001-0.19057 0-0.19079 0.00003-0.19057 0-0.19079c-0.00002-0.00022-0.0381-0.19057-0.0382-0.19079-0.00005-0.00022-0.0381-0.15242-0.0382-0.15263-0.00006-0.0002-0.0762-0.19058-0.0763-0.19079-0.00009-0.0002-0.0762-0.19059-0.0763-0.19079-0.00009-0.00019-0.0762-0.15243-0.0763-0.15263-0.00011-0.00019-0.11429-0.15245-0.11442-0.15263-0.00012-0.00018-0.0762-0.15246-0.0763-0.15263-0.00014-0.00017-0.15249-0.15247-0.15263-0.15263-0.00015-0.00016-0.11429-0.11429-0.11442-0.11441-0.00015-0.00015-0.15246-0.1143-0.15263-0.11442-0.00017-0.00013-0.15245-0.11441-0.15263-0.11441-0.00018-0.00012-0.15243-0.11441-0.15263-0.11441-0.0002-0.00011-0.15244-0.0762-0.15263-0.0763-0.0002-0.0001-0.15243-0.0762-0.15263-0.0763-0.00021-0.00009-0.19058-0.0381-0.19079-0.0382-0.00021-0.00006-0.19057-0.0763-0.19079-0.0763-0.00022-0.00005-0.15241 0.00004-0.15263 0s-0.19057-0.0381-0.19079-0.0382c-0.00022-0.00001-0.19057 0-0.19079 0s-0.19057-0.00001-0.19079 0-0.19057 0.0381-0.19079 0.0382c-0.00022 0.00004-0.15241 0.0381-0.15263 0.0382-0.00022 0.00005-0.19058 0.0381-0.19079 0.0382-0.00021 0.00006-0.19058 0.0762-0.19079 0.0763-0.00021 0.00009-0.15244 0.0762-0.15263 0.0763-0.0002 0.0001-0.15244 0.0762-0.15263 0.0763-0.0002 0.00011-0.15245 0.11441-0.15264 0.11441-0.00018 0.00012-0.15246 0.0762-0.15263 0.0763a1.214 1.214 0 0 0 -0.0382 0.0382l-4.7697 4.2355c-1.0738-0.41695-2.1654-0.78764-3.3197-1.0684l-3.8158-11.371c-0.00007-0.00025-0.0762-0.19056-0.0763-0.19079s-0.0762-0.19057-0.0763-0.19079c-0.00012-0.00023-0.11429-0.19057-0.11441-0.19079-0.00014-0.00022-0.11429-0.15242-0.11441-0.15263-0.00016-0.00021-0.15246-0.19061-0.15264-0.19079-0.00017-0.00018-0.15243-0.15246-0.15263-0.15263-0.00019-0.00017-0.15242-0.11429-0.15263-0.11442-0.00021-0.00015-0.19057-0.11429-0.19079-0.11441-0.00022-0.00013-0.1524-0.11441-0.15263-0.11441-0.00023-0.00012-0.19056-0.0762-0.19079-0.0763-0.00023-0.00009-0.2287-0.0762-0.22895-0.0763-0.00024-0.00008-0.19054-0.0763-0.19079-0.0763-0.00025-0.00005-0.22869-0.0381-0.22894-0.0382-0.00026-0.00003-0.19054 0.00002-0.19079 0-0.00026-0.00001-0.22869-0.00001-0.22895 0-0.00026 0.00002-0.19053-0.00003-0.19079 0z"/>
    <path id="path4731" opacity=".15" style="color:#000000" d="m181.09 966.57a1.2227 1.2227 0 0 0 -0.95395 0.83948l-3.9684 11.905c-2.3161 0.47228-4.525 1.2787-6.5632 2.3276l-5.8-5.1513a1.2227 1.2227 0 0 0 -1.9842 1.1447l1.7171 8.3947c-0.93574 0.90001-1.8 1.8623-2.5947 2.9l-7.021-1.4118a1.2227 1.2227 0 0 0 -1.1447 1.9842l4.8079 5.3803c-0.57519 1.4284-1.0616 2.9246-1.3737 4.4645l-12.058 4.0447a1.2227 1.2227 0 0 0 0 2.2895l12.096 4.0065c0.46245 2.2246 1.2096 4.3515 2.2132 6.3342l-5.1895 5.8763a1.2227 1.2227 0 0 0 1.1447 1.9842l8.4329-1.717c0.86921 0.8978 1.8005 1.7213 2.7855 2.4802l-1.4118 7.021a1.2227 1.2227 0 0 0 1.9842 1.1448l5.3803-4.7316c1.4471 0.5985 2.9662 1.0853 4.5408 1.4119l4.0066 11.943a1.2227 1.2227 0 0 0 2.2895 0l3.9684-11.905c2.3023-0.474 4.5013-1.2866 6.525-2.3276l5.6474 4.9986a1.2227 1.2227 0 0 0 1.9842 -1.1447l-1.6408-8.1276c0.90746-0.8626 1.7773-1.7923 2.5566-2.7856l6.8303 1.3737a1.2227 1.2227 0 0 0 1.1447 -1.9842l-4.6171-5.1895c0.6373-1.5058 1.1466-3.0565 1.4882-4.6933l11.867-3.9684a1.2227 1.2227 0 0 0 0 -2.2895l-11.791-3.9303c-0.46794-2.3746-1.251-4.6586-2.3276-6.7539l4.9224-5.571a1.2227 1.2227 0 0 0 -1.1447 -1.9842l-8.0895 1.6408c-0.90559-0.94447-1.8642-1.8391-2.9-2.6329l1.4118-6.8684a1.2227 1.2227 0 0 0 -1.9842 -1.1447l-5.2658 4.6553c-1.4556-0.60843-2.9873-1.1154-4.579-1.45l-4.0066-11.943a1.2227 1.2227 0 0 0 -1.3355 -0.83948z"/>
    <path id="path4430" opacity=".3" style="color:#000000" d="m181.28 967.79-4.1974 12.554c-2.7616 0.47686-5.3471 1.426-7.7079 2.7474l-6.3724-5.6855 1.8316 9.0053c-1.2716 1.1621-2.4312 2.4484-3.4342 3.8539l-7.7079-1.5645 5.2276 5.8763c-0.79532 1.8019-1.3762 3.7246-1.7171 5.7236l-12.668 4.2356 12.745 4.2355c0.48103 2.6656 1.362 5.1896 2.6329 7.4789l-5.7237 6.4488 9.0434-1.8316c1.1236 1.232 2.3869 2.3384 3.7395 3.3197l-1.5645 7.7079 5.8763-5.1895c1.8321 0.8241 3.7614 1.4415 5.8 1.7935l4.1974 12.554 4.1974-12.554c2.7421-0.4761 5.3229-1.438 7.6697-2.7474l6.2197 5.5328-1.7553-8.738c1.2473-1.1261 2.4026-2.38 3.396-3.7395l7.5171 1.5263-5.075-5.6856c0.86443-1.8688 1.5-3.8643 1.8697-5.9526l12.478-4.1592-12.439-4.1592c-0.46993-2.8073-1.4064-5.4646-2.7474-7.8605l5.4566-6.1816-8.6618 1.7553c-1.1678-1.2961-2.4733-2.4505-3.8921-3.4724l1.5645-7.5553-5.7618 5.1132c-1.8388-0.83176-3.7904-1.476-5.8382-1.8316l-4.1974-12.554z"/>
    <g id="g3898" transform="matrix(1.1424 .65955 -.65955 1.1424 158.07 916.76)">
     <path id="path3900" opacity=".3" style="color:#000000" d="m51.846 33.096a3.9189 1.1036 0 1 1 -7.8377 0 3.9189 1.1036 0 1 1 7.8377 0z"/>
     <path id="path3902" d="m45 33 3-9 3 9s-3.1343 1.7015-6 0z" fill="url(#linearGradient8307)"/>
     <path id="path3904" opacity=".15" d="m48 24-2.3172 9.3625c0.50038 0.17642 1.1541 0.36706 2.0086 0.40155l0.308-9.764z" fill="#fff"/>
     <path id="path3906" opacity=".3" d="m48 24-1.75 9.5312c0.29647 0.08579 0.58693 0.153 0.875 0.1875l0.875-9.718z" fill="#fff"/>
    </g>
    <g id="g3908" transform="matrix(-.65955 1.1424 1.1424 .65955 157.93 916.8)">
     <path id="path3910" opacity=".3" style="color:#000000" d="m51.846 33.096a3.9189 1.1036 0 1 1 -7.8377 0 3.9189 1.1036 0 1 1 7.8377 0z"/>
     <path id="path3912" d="m45 33 3-9 3 9s-3.1343 1.7015-6 0z" fill="url(#linearGradient8307)"/>
     <path id="path3914" opacity=".15" d="m48 24-2.3172 9.3625c0.50038 0.17642 1.1541 0.36706 2.0086 0.40155l0.308-9.764z" fill="#fff"/>
     <path id="path3916" opacity=".3" d="m48 24-1.75 9.5312c0.29647 0.08579 0.58693 0.153 0.875 0.1875l0.875-9.718z" fill="#fff"/>
    </g>
    <g id="g3918" transform="matrix(1.1424 .65955 -.65955 1.1424 158.07 916.76)">
     <path id="path3920" opacity=".3" style="color:#000000" d="m51.846 33.096a3.9189 1.1036 0 1 1 -7.8377 0 3.9189 1.1036 0 1 1 7.8377 0z" transform="matrix(1 0 0 -1 -1.5869e-7 96)"/>
     <path id="path3922" d="m45 63 3 9 3-9s-3.1343-1.7015-6 0z" fill="url(#linearGradient8323)"/>
     <path id="path3924" opacity=".15" d="m48 72-2.3172-9.3625c0.50038-0.17642 1.1541-0.36706 2.0086-0.40155l0.308 9.764z" fill="#fff"/>
     <path id="path3926" opacity=".3" d="m48 72-1.75-9.5312c0.29647-0.08579 0.58693-0.153 0.875-0.1875l0.875 9.718z" fill="#fff"/>
     <path id="path3928" opacity=".3" d="m45 63 3 9 3-9s-3.1343-1.7015-6 0z"/>
    </g>
    <g id="g3930" transform="matrix(1.1424 .65955 -.65955 1.1424 158.07 916.76)">
     <path id="path3932" opacity=".3" style="color:#000000" d="m51.846 33.096a3.9189 1.1036 0 1 1 -7.8377 0 3.9189 1.1036 0 1 1 7.8377 0z" transform="matrix(0 1 -1 0 95.927 .072888)"/>
     <path id="path3934" d="m62.927 45.073 9 3-9 3s-1.7015-3.1343 0-6z" fill="url(#linearGradient8303)"/>
     <path id="path3936" opacity=".15" d="m71.927 48.073-9.3625-2.3172c-0.17642 0.50038-0.36706 1.1541-0.40155 2.0086l9.7641 0.30858z" fill="#fff"/>
     <path id="path3938" opacity=".3" d="m71.927 48.073-9.5312-1.75c-0.08579 0.29647-0.153 0.58693-0.1875 0.875l9.7188 0.875z" fill="#fff"/>
     <path id="path3940" opacity=".5" d="m62.927 45.073 9 3-9 3s-1.7015-3.1343 0-6z"/>
    </g>
    <path id="path3782" style="color:#000000" d="m205.7 1003.2a24.421 24.421 0 0 1 -48.842 0 24.421 24.421 0 1 1 48.842 0z" fill="url(#radialGradient8319)"/>
    <g id="g3826" transform="matrix(1.5263 0 0 1.5263 108.01 929.94)">
     <path id="path3824" opacity=".3" style="color:#000000" d="m51.846 33.096a3.9189 1.1036 0 1 1 -7.8377 0 3.9189 1.1036 0 1 1 7.8377 0z"/>
     <path id="path3800" d="m45 33 3-9 3 9s-3.1343 1.7015-6 0z" fill="url(#linearGradient8307)"/>
     <path id="path3822" opacity=".15" d="m48 24-2.3172 9.3625c0.50038 0.17642 1.1541 0.36706 2.0086 0.40155l0.308-9.764z" fill="#fff"/>
     <path id="path3812" opacity=".3" d="m48 24-1.75 9.5312c0.29647 0.08579 0.58693 0.153 0.875 0.1875l0.875-9.718z" fill="#fff"/>
    </g>
    <g id="g3844" transform="matrix(0 1.5263 1.5263 0 107.9 930.05)">
     <path id="path3846" opacity=".3" style="color:#000000" d="m51.846 33.096a3.9189 1.1036 0 1 1 -7.8377 0 3.9189 1.1036 0 1 1 7.8377 0z"/>
     <path id="path3848" d="m45 33 3-9 3 9s-3.1343 1.7015-6 0z" fill="url(#linearGradient8307)"/>
     <path id="path3850" opacity=".15" d="m48 24-2.3172 9.3625c0.50038 0.17642 1.1541 0.36706 2.0086 0.40155l0.308-9.764z" fill="#fff"/>
     <path id="path3852" opacity=".3" d="m48 24-1.75 9.5312c0.29647 0.08579 0.58693 0.153 0.875 0.1875l0.875-9.718z" fill="#fff"/>
    </g>
    <g id="g3891" transform="matrix(1.5263 0 0 1.5263 108.01 929.94)">
     <path id="path3834" opacity=".3" style="color:#000000" d="m51.846 33.096a3.9189 1.1036 0 1 1 -7.8377 0 3.9189 1.1036 0 1 1 7.8377 0z" transform="matrix(1 0 0 -1 -1.5869e-7 96)"/>
     <path id="path3836" d="m45 63 3 9 3-9s-3.1343-1.7015-6 0z" fill="url(#linearGradient8313)"/>
     <path id="path3838" opacity=".15" d="m48 72-2.3172-9.3625c0.50038-0.17642 1.1541-0.36706 2.0086-0.40155l0.308 9.764z" fill="#fff"/>
     <path id="path3840" opacity=".3" d="m48 72-1.75-9.5312c0.29647-0.08579 0.58693-0.153 0.875-0.1875l0.875 9.718z" fill="#fff"/>
     <path id="path3880" opacity=".3" d="m45 63 3 9 3-9s-3.1343-1.7015-6 0z"/>
    </g>
    <g id="g3884" transform="matrix(1.5263 0 0 1.5263 108.01 929.94)">
     <path id="path3858" opacity=".3" style="color:#000000" d="m51.846 33.096a3.9189 1.1036 0 1 1 -7.8377 0 3.9189 1.1036 0 1 1 7.8377 0z" transform="matrix(0 1 -1 0 95.927 .072888)"/>
     <path id="path3860" d="m62.927 45.073 9 3-9 3s-1.7015-3.1343 0-6z" fill="url(#linearGradient8303)"/>
     <path id="path3862" opacity=".15" d="m71.927 48.073-9.3625-2.3172c-0.17642 0.50038-0.36706 1.1541-0.40155 2.0086l9.7641 0.30858z" fill="#fff"/>
     <path id="path3864" opacity=".3" d="m71.927 48.073-9.5312-1.75c-0.08579 0.29647-0.153 0.58693-0.1875 0.875l9.7188 0.875z" fill="#fff"/>
     <path id="path3882" opacity=".5" d="m62.927 45.073 9 3-9 3s-1.7015-3.1343 0-6z"/>
    </g>
    <g id="g3950" transform="matrix(1.3133 -.75822 .75822 1.3133 81.75 981.08)">
     <path id="path3952" opacity=".3" style="color:#000000" d="m51.846 33.096a3.9189 1.1036 0 1 1 -7.8377 0 3.9189 1.1036 0 1 1 7.8377 0z"/>
     <path id="path3954" d="m45 33 3-9 3 9s-3.1343 1.7015-6 0z" fill="url(#linearGradient8307)"/>
     <path id="path3956" opacity=".15" d="m48 24-2.3172 9.3625c0.50038 0.17642 1.1541 0.36706 2.0086 0.40155l0.308-9.764z" fill="#fff"/>
     <path id="path3958" opacity=".3" d="m48 24-1.75 9.5312c0.29647 0.08579 0.58693 0.153 0.875 0.1875l0.875-9.718z" fill="#fff"/>
    </g>
    <g id="g3960" transform="matrix(.75822 1.3133 1.3133 -.75822 86.289 976.65)">
     <path id="path3962" opacity=".3" style="color:#000000" d="m51.846 33.096a3.9189 1.1036 0 1 1 -7.8377 0 3.9189 1.1036 0 1 1 7.8377 0z"/>
     <path id="path3964" d="m45 33 3-9 3 9s-3.1343 1.7015-6 0z" fill="url(#linearGradient8307)"/>
     <path id="path3966" opacity=".15" d="m48 24-2.3172 9.3625c0.50038 0.17642 1.1541 0.36706 2.0086 0.40155l0.308-9.764z" fill="#fff"/>
     <path id="path3968" opacity=".3" d="m48 24-1.75 9.5312c0.29647 0.08579 0.58693 0.153 0.875 0.1875l0.875-9.718z" fill="#fff"/>
    </g>
    <g id="g3970" transform="matrix(1.3133 -.75822 .75822 1.3133 81.75 971.92)">
     <path id="path3972" opacity=".3" style="color:#000000" d="m51.846 33.096a3.9189 1.1036 0 1 1 -7.8377 0 3.9189 1.1036 0 1 1 7.8377 0z" transform="matrix(1 0 0 -1 -1.5869e-7 96)"/>
     <path id="path3974" d="m45 63 3 9 3-9s-3.1343-1.7015-6 0z" fill="url(#linearGradient8305)"/>
     <path id="path3976" opacity=".15" d="m48 72-2.3172-9.3625c0.50038-0.17642 1.1541-0.36706 2.0086-0.40155l0.308 9.764z" fill="#fff"/>
     <path id="path3978" opacity=".3" d="m48 72-1.75-9.5312c0.29647-0.08579 0.58693-0.153 0.875-0.1875l0.875 9.718z" fill="#fff"/>
     <path id="path3980" opacity=".5" d="m45 63 3 9 3-9s-3.1343-1.7015-6 0z"/>
    </g>
    <g id="g3982" transform="matrix(1.3133 -.75822 .75822 1.3133 77.171 976.5)">
     <path id="path3984" opacity=".3" style="color:#000000" d="m51.846 33.096a3.9189 1.1036 0 1 1 -7.8377 0 3.9189 1.1036 0 1 1 7.8377 0z" transform="matrix(0 1 -1 0 95.927 .072888)"/>
     <path id="path3986" d="m62.927 45.073 9 3-9 3s-1.7015-3.1343 0-6z" fill="url(#linearGradient8303)"/>
     <path id="path3988" opacity=".15" d="m71.927 48.073-9.3625-2.3172c-0.17642 0.50038-0.36706 1.1541-0.40155 2.0086l9.7641 0.30858z" fill="#fff"/>
     <path id="path3990" opacity=".3" d="m71.927 48.073-9.5312-1.75c-0.08579 0.29647-0.153 0.58693-0.1875 0.875l9.7188 0.875z" fill="#fff"/>
     <path id="path3992" opacity=".3" d="m62.927 45.073 9 3-9 3s-1.7015-3.1343 0-6z"/>
    </g>
    <path id="path4136" opacity=".5" style="color:#000000" d="m186.76 1003.2a5.4865 5.4865 0 0 1 -10.973 0 5.4865 5.4865 0 1 1 10.973 0z"/>
    <path id="path4015" style="color:#000000" d="m185.86 1003.2a4.579 4.579 0 0 1 -9.1579 0 4.579 4.579 0 1 1 9.1579 0z" fill="url(#radialGradient7455)"/>
    <g id="g4039" transform="matrix(1.5263 0 0 1.5263 108.01 929.94)">
     <path id="path4037" opacity=".5" style="color:#000000" d="m42.553 47.953a3.3662 3.652 0 1 1 -6.7323 0 3.3662 3.652 0 1 1 6.7323 0z"/>
     <path id="path4004" d="m34.936 48.073s2.253-3.073 4.064-3.073c4 0 4 6 0 6-1.6216-0.04504-4.0637-2.9271-4.0637-2.9271z" fill="url(#radialGradient8299)"/>
     <path id="path4032" opacity=".15" d="m40.344 45.281-5.344 2.719 6.969-0.188c-0.0586-1.0466-0.58934-2.0583-1.625-2.5312z" fill="#fff"/>
     <path id="path4027" opacity=".3" d="m40.875 45.625-5.8125 2.4375 6.6875-1.25c-0.182-0.458-0.474-0.873-0.875-1.187z" fill="#fff"/>
    </g>
    <g id="g4045" transform="matrix(0 1.5263 1.5263 0 108.09 929.86)">
     <path id="path4047" opacity=".5" style="color:#000000" d="m42.553 47.953a3.3662 3.652 0 1 1 -6.7323 0 3.3662 3.652 0 1 1 6.7323 0z"/>
     <path id="path4049" d="m34.936 48.073s2.253-3.073 4.064-3.073c4 0 4 6 0 6-1.6216-0.04504-4.0637-2.9271-4.0637-2.9271z" fill="url(#radialGradient8299)"/>
     <path id="path4051" opacity=".15" d="m40.344 45.281-5.344 2.719 6.969-0.188c-0.0586-1.0466-0.58934-2.0583-1.625-2.5312z" fill="#fff"/>
     <path id="path4053" opacity=".3" d="m40.875 45.625-5.8125 2.4375 6.6875-1.25c-0.182-0.458-0.474-0.873-0.875-1.187z" fill="#fff"/>
    </g>
    <path id="path4071" opacity=".5" style="color:#000000" d="m189.59 1003.1a5.1378 5.5741 0 1 0 10.276 0 5.1378 5.5741 0 1 0 -10.276 0z"/>
    <path id="path4073" d="m201.22 1003.3s-3.4387-4.6902-6.2025-4.6902c-6.1053 0-6.1053 9.1578 0 9.1578 2.4751-0.068 6.2025-4.4676 6.2025-4.4676z" fill="url(#radialGradient7441)"/>
    <path id="path4075" opacity=".15" d="m192.96 999.05 8.1562 4.1496-10.637-0.286c0.0895-1.5976 0.89951-3.1417 2.4803-3.8636z" fill="#fff"/>
    <path id="path4077" opacity=".3" d="m192.15 999.58 8.8717 3.7204-10.207-1.9079c0.27777-0.7002 0.72355-1.333 1.3355-1.8125z" fill="#fff"/>
    <path id="path4087" opacity=".4" d="m201.22 1003.3s-3.4387-4.6902-6.2025-4.6902c-6.1053 0-6.1053 9.1578 0 9.1578 2.4751-0.068 6.2025-4.4676 6.2025-4.4676z"/>
    <path id="path4110" opacity=".5" style="color:#000000" d="m181.28 1011.4a5.5741 5.1378 0 0 1 0 10.276 5.5741 5.1378 0 1 1 0 -10.276z"/>
    <path id="path4112" d="m181.46 1023.1s-4.6902-3.4386-4.6902-6.2024c0-6.1053 9.1579-6.1053 9.1579 0-0.0688 2.475-4.4677 6.2024-4.4677 6.2024z" fill="url(#radialGradient7434)"/>
    <path id="path4114" opacity=".15" d="m177.2 1014.8 4.1497 8.1562-0.28619-10.636c-1.5974 0.089-3.1416 0.8994-3.8635 2.4802z" fill="#fff"/>
    <path id="path4116" opacity=".3" d="m177.72 1014 3.7204 8.8717-1.9079-10.207c-0.70026 0.2778-1.333 0.7236-1.8125 1.3356z" fill="#fff"/>
    <path id="path4126-9" opacity=".2" d="m181.46 1023.1s-4.6902-3.4386-4.6902-6.2024c0-6.1053 9.1579-6.1053 9.1579 0-0.0688 2.475-4.4677 6.2024-4.4677 6.2024z"/>
    <path id="path4140" opacity=".3" d="m179.08 999.19c-0.74558 0.40954-1.3454 1.0255-1.7648 1.7648l3.9112 2.1464-2.1464-3.9112z" fill="#fff"/>
    <path id="path4142" opacity=".15" d="m180.13 998.81c-1.5371 0.40637-2.7405 1.5838-3.1957 3.1004l4.4836 1.1448-1.2878-4.2452z" fill="#fff"/>
    <path id="path4150" opacity=".5" style="color:#000000" d="m184.52 1006.4a4.5789 4.5789 0 0 1 -6.4756 -6.4756 4.5789 4.5789 0 0 1 6.4756 6.4756z" fill="url(#linearGradient7426)"/>
   </g>
  </g>
  <path id="rect5265-0" d="m5.4316 1029.8v5.0663c0 6.668 5.3645 12.032 12.032 12.032h61.049c6.668 0 12.032-5.3645 12.032-12.032v-5.0663c0 6.6681-5.3645 12.032-12.032 12.032h-61.049c-6.668 0-12.032-5.3643-12.032-12.032z" fill-opacity=".23529"/>
  <path id="path5252-0" d="m5.4316 1033.9v1.0133c0 6.668 5.3645 12.032 12.032 12.032h61.049c6.668 0 12.032-5.3645 12.032-12.032v-1.0133c0 6.6681-5.3645 12.032-12.032 12.032h-61.049c-6.668 0-12.032-5.3644-12.032-12.032z" fill-opacity=".098039"/>
 </g>
</svg>
