<?xml version="1.0" encoding="UTF-8" standalone="no"?>
<!-- Created with Inkscape (http://www.inkscape.org/) -->
<svg id="svg2" xmlns:rdf="http://www.w3.org/1999/02/22-rdf-syntax-ns#" xmlns="http://www.w3.org/2000/svg" height="96" width="96" version="1.1" xmlns:cc="http://creativecommons.org/ns#" xmlns:xlink="http://www.w3.org/1999/xlink" xmlns:dc="http://purl.org/dc/elements/1.1/">
 <defs id="defs4">
  <linearGradient id="linearGradient3700-0">
   <stop id="stop3702-2" stop-color="#70a83e" offset="0"/>
   <stop id="stop3704-9" stop-color="#9fd058" offset="1"/>
  </linearGradient>
  <linearGradient id="linearGradient4982" y2="5.9877" xlink:href="#linearGradient3700-0" gradientUnits="userSpaceOnUse" x2="48" gradientTransform="translate(101.91 941.34)" y1="90" x1="48"/>
  <clipPath id="clipPath3613-55">
   <rect id="rect3615-88" rx="6" ry="6" height="84" width="84" y="6" x="6" fill="#fff"/>
  </clipPath>
  <filter id="filter3794-41" height="1.384" width="1.384" color-interpolation-filters="sRGB" y="-.192" x="-.192">
   <feGaussianBlur id="feGaussianBlur3796-50" stdDeviation="5.28"/>
  </filter>
  <linearGradient id="linearGradient3182" y2="5.9877" gradientUnits="userSpaceOnUse" y1="90" gradientTransform="matrix(1.125 0 0 1.0417 -7.75 -3.25)" x2="48" x1="48">
   <stop id="stop4083" stop-color="#8c8c8c" offset="0"/>
   <stop id="stop4085" stop-color="#dcdcdc" offset="1"/>
  </linearGradient>
  <linearGradient id="linearGradient90466" y2="138.66" gradientUnits="userSpaceOnUse" x2="48" y1="20.221" x1="48">
   <stop id="stop3739-532" stop-color="#fff" offset="0"/>
   <stop id="stop3741-666" stop-color="#fff" stop-opacity="0" offset="1"/>
  </linearGradient>
  <linearGradient id="linearGradient4111" y2="80" gradientUnits="userSpaceOnUse" x2="48" y1="16" x1="48">
   <stop id="stop4283-9-1" stop-color="#1e1e1e" offset="0"/>
   <stop id="stop4285-8-0" stop-color="#505050" offset="1"/>
  </linearGradient>
 </defs>
 <metadata id="metadata7">
  <rdf:RDF>
   <cc:Work rdf:about="">
    <dc:format>image/svg+xml</dc:format>
    <dc:type rdf:resource="http://purl.org/dc/dcmitype/StillImage"/>
    <dc:title/>
   </cc:Work>
  </rdf:RDF>
 </metadata>
 <g id="layer1" transform="translate(0 -956.36)">
  <rect id="rect5261-6" fill-opacity=".039216" ry="12.552" height="88.762" width="88.762" y="959.96" x="3.6078"/>
  <rect id="rect5259-9" fill-opacity=".078431" ry="12.38" height="87.546" width="87.546" y="960.57" x="4.2157"/>
  <rect id="rect5257-5" fill-opacity=".15686" ry="12.208" height="86.33" width="86.33" y="961.18" x="4.8237"/>
  <path id="rect2419" opacity=".9" d="m17.469 5.4062c-6.668 0-12.032 5.3948-12.032 12.063l0.0005 61.031c0 5.418 3.5332 9.982 8.4375 11.5h68.187c4.715-1.457 8.172-5.734 8.438-10.875v-62.281c-0.321-6.377-5.54-11.438-12-11.438l-61.031 0.0002z" transform="translate(0 956.36)" fill="url(#linearGradient3182)"/>
  <path id="rect5265-0" d="m5.4316 1029.8v5.0663c0 6.668 5.3645 12.032 12.032 12.032h61.049c6.668 0 12.032-5.3645 12.032-12.032v-5.0663c0 6.6681-5.3645 12.032-12.032 12.032h-61.049c-6.668 0-12.032-5.3643-12.032-12.032z" fill-opacity=".23529"/>
  <path id="path5252-0" d="m5.4316 1033.9v1.0133c0 6.668 5.3645 12.032 12.032 12.032h61.049c6.668 0 12.032-5.3645 12.032-12.032v-1.0133c0 6.6681-5.3645 12.032-12.032 12.032h-61.049c-6.668 0-12.032-5.3644-12.032-12.032z" fill-opacity=".098039"/>
  <rect id="rect3873" rx="6" ry="6" height="84" width="84" display="none" y="947.34" x="107.91" fill="url(#linearGradient4982)"/>
  <rect id="rect3880" rx="6" ry="6" height="84" width="84" display="none" y="947.34" x="107.91" fill="url(#linearGradient4982)"/>
  <g id="layer5" transform="translate(-.5 953.86)">
   <rect id="rect3171" height="66" stroke="#fff" stroke-linecap="round" stroke-width=".5" fill="url(#linearGradient90466)" rx="12" ry="12" width="66" opacity=".3" clip-path="url(#clipPath3613-55)" filter="url(#filter3794-41)" y="15" x="15"/>
  </g>
  <g id="layer4" transform="translate(-.007643 955.35)">
   <path id="rect4223" style="color:#000000" d="m59.688 23.188c-3.1453 0.01609-4.9877 4.1855-2.882 6.522 2.1548 1.834 4.845 3.1049 6.5612 5.4713 5.9079 6.8039 6.1875 17.643 0.66457 24.757-1.7446 2.439-4.1555 4.2925-6.6948 5.8344-2.5148 1.8939-1.5 6.3422 1.5874 6.9581 2.5579 0.60082 4.5824-1.514 6.5183-2.8323 8.6102-6.6826 12.556-18.666 9.5745-29.158-1.949-7.316-6.971-13.86-13.73-17.33-0.511-0.182-1.059-0.258-1.599-0.222zm-24 0.03125c-2.1903 0.361-3.9154 2.0308-5.6562 3.3125-8.1776 6.6696-11.875 18.198-9.1387 28.384 1.8839 7.4558 6.9526 14.151 13.821 17.674 2.9036 1.1913 6.2578-1.897 5.2206-4.8925-0.911-2.765-4.29-3.251-5.963-5.434-6.459-6.104-7.877-16.659-3.284-24.263 1.8478-3.3041 4.7526-5.8611 7.9701-7.7797 2.4676-1.955 1.344-6.377-1.7575-6.917-0.39674-0.08965-0.8072-0.11827-1.2125-0.08453z" fill="url(#linearGradient4111)"/>
   <path id="path3313" opacity=".6" style="color:#000000" d="m59.688 23.188a4.0004 4.0004 0 0 0 -3.75 4.5312 4.0004 4.0004 0 0 1 3.75 -3.5312 4.0004 4.0004 0 0 1 1.9688 0.375c0.11507 0.06431 0.22923 0.12138 0.34375 0.1875 2.5033 1.4453 4.6975 3.2258 6.5625 5.25 0.31083 0.33737 0.61391 0.68065 0.90625 1.0312 4.0702 4.8815 6.3303 11.01 6.5 17.281 0.05589-6.6156-2.2144-13.141-6.5-18.281-0.293-0.351-0.596-0.695-0.907-1.032-1.864-2.024-4.059-3.805-6.562-5.25-0.115-0.066-0.229-0.123-0.344-0.188a4.0004 4.0004 0 0 0 -1.9688 -0.375zm-24 0.03125a4.004 4.004 0 0 0 -1.1562 0.25 4.004 4.004 0 0 0 -0.032 0.031c-0.03238 0.01777-0.06144 0.0446-0.09375 0.0625-0.34974 0.19368-0.72065 0.38484-1.0625 0.59375-0.01246 0.0076-0.0188 0.02361-0.03125 0.03125-0.2906 0.17927-0.59169 0.34184-0.875 0.53125-0.45266 0.3013-0.90772 0.6401-1.3438 0.96875-0.36303 0.27362-0.7119 0.55141-1.0625 0.84375s-0.69388 0.59542-1.0312 0.90625c-0.33737 0.31083-0.67668 0.63964-1 0.96875s-0.62904 0.65283-0.9375 1c-0.21157 0.23812-0.42155 0.4734-0.625 0.71875-0.1331 0.16058-0.24509 0.33587-0.375 0.5-0.23043 0.29092-0.46854 0.57476-0.6875 0.875-0.06072 0.08337-0.12759 0.1658-0.1875 0.25-0.2174 0.30518-0.41966 0.62326-0.625 0.9375-0.281 0.429-0.553 0.862-0.813 1.312-2.588 4.483-3.772 9.406-3.719 14.25 0.113-4.516 1.31-9.078 3.719-13.25 0.25975-0.44989 0.53173-0.8826 0.8125-1.3125 0.20534-0.31424 0.4076-0.63232 0.625-0.9375 0.05991-0.0842 0.12678-0.16663 0.1875-0.25 0.21896-0.30024 0.45707-0.58408 0.6875-0.875 0.12991-0.16413 0.2419-0.33942 0.375-0.5 0.20345-0.24535 0.41343-0.48063 0.625-0.71875 0.30846-0.34717 0.61418-0.67089 0.9375-1s0.66263-0.65792 1-0.96875 0.68065-0.61391 1.0312-0.90625c0.3506-0.29234 0.69947-0.57013 1.0625-0.84375 0.43603-0.32865 0.89109-0.66744 1.3438-0.96875 0.28331-0.18941 0.5844-0.35198 0.875-0.53125 0.01245-0.0076 0.01879-0.02365 0.03125-0.03125 0.34185-0.20891 0.71276-0.40006 1.0625-0.59375 0.033-0.017 0.062-0.044 0.094-0.062a4.004 4.004 0 0 1 0.03125 -0.03125 4.004 4.004 0 0 1 1.1562 -0.25 4.004 4.004 0 0 1 4.2812 3.5 4.004 4.004 0 0 0 -4.2812 -4.5zm-7.688 25.062c-0.26556 7.1505 3.3374 14.185 10 18.031a4.0004 4.0004 0 0 1 0.28125 0.15625 4.0004 4.0004 0 0 1 1.7812 2.8125 4.0004 4.0004 0 0 0 -1.7812 -3.8125 4.0004 4.0004 0 0 0 -0.281 -0.156c-6.353-3.667-9.912-10.23-10-17.031zm40 0.4375c-0.117 3.161-0.988 6.338-2.688 9.282-0.17333 0.30022-0.34528 0.58727-0.53125 0.875-0.05313 0.08208-0.10197 0.16878-0.15625 0.25-0.18602 0.27897-0.39624 0.54575-0.59375 0.8125-0.06159 0.08287-0.12468 0.16814-0.1875 0.25-0.25994 0.33987-0.53464 0.6809-0.8125 1-0.03347 0.03843-0.06003 0.08687-0.09375 0.125-0.25473 0.28591-0.54186 0.54186-0.8125 0.8125-0.30974 0.3117-0.61064 0.6181-0.9375 0.90625-0.32677 0.28661-0.65454 0.54736-1 0.8125-0.26784 0.2068-0.53572 0.40176-0.8125 0.59375-0.08509 0.0588-0.16393 0.12998-0.25 0.1875-0.0505 0.03386-0.10548 0.06038-0.15625 0.09375-0.317 0.209-0.64 0.404-0.968 0.593a4.004 4.004 0 0 0 -0.34375 0.21875 4.004 4.004 0 0 0 -1.7188 3.8125 4.004 4.004 0 0 1 1.7188 -2.8125 4.004 4.004 0 0 1 0.344 -0.219c0.32806-0.18964 0.65089-0.38482 0.96875-0.59375 0.05077-0.03337 0.10575-0.05989 0.15625-0.09375 0.08607-0.05752 0.16491-0.1287 0.25-0.1875 0.27678-0.19199 0.54466-0.38695 0.8125-0.59375 0.34546-0.26514 0.67323-0.52589 1-0.8125 0.32686-0.28814 0.62776-0.59455 0.9375-0.90625 0.27064-0.27064 0.55777-0.52659 0.8125-0.8125 0.03372-0.03813 0.06028-0.08657 0.09375-0.125 0.27786-0.3191 0.55256-0.66013 0.8125-1 0.06282-0.08186 0.12591-0.16713 0.1875-0.25 0.19751-0.26675 0.40773-0.53353 0.59375-0.8125 0.05428-0.08122 0.10312-0.16792 0.15625-0.25 0.186-0.287 0.358-0.574 0.531-0.874 1.879-3.254 2.733-6.798 2.688-10.281z"/>
   <path id="path4113" opacity=".05" style="color:#000000" d="m59.688 23.188c-3.1453 0.01609-4.9807 4.1948-2.875 6.5312 2.1548 1.834 4.8463 3.1024 6.5625 5.4688 5.9079 6.8039 6.1792 17.637 0.65625 24.75-1.7446 2.439-4.1482 4.3019-6.6875 5.8438-2.5148 1.8939-1.4936 6.3216 1.5938 6.9375 2.5579 0.60082 4.564-1.4942 6.5-2.8125 8.61-6.684 12.575-18.666 9.593-29.158-1.948-7.315-6.991-13.873-13.75-17.344-0.51-0.182-1.053-0.254-1.593-0.218zm-24 0.03125c-2.1903 0.361-3.9154 2.0308-5.6562 3.3125-8.1776 6.6696-11.861 18.189-9.125 28.375 1.8839 7.4558 6.9443 14.165 13.812 17.688 2.9036 1.1913 6.2559-1.9107 5.2188-4.9062-0.91-2.767-4.296-3.256-5.969-5.439-6.459-6.104-7.874-16.646-3.281-24.25 1.8478-3.3041 4.7513-5.8627 7.9688-7.7812 2.4676-1.955 1.3515-6.3662-1.75-6.9062-0.39674-0.08965-0.81342-0.12749-1.2188-0.09375zm24 2a2.045 2.045 0 0 0 0.125 0c0.23838-0.01565 0.47015 0.0594 0.6875 0.125 6.1083 3.2057 10.779 9.2408 12.562 15.938a2.045 2.045 0 0 0 0 0.03125c2.7294 9.6043-0.92674 20.748-8.7812 26.906-0.02935 0.02301-0.06429 0.03963-0.09375 0.0625-1.0672 0.73647-1.9817 1.5074-2.7812 1.9688-0.82602 0.47656-1.3519 0.62097-2 0.46875a2.045 2.045 0 0 0 -0.0625 0c-1.319-0.263-1.831-2.455-0.782-3.281 0.0072-0.0057-0.0074-0.02568 0-0.03125 2.5934-1.5917 5.1348-3.5527 7.0625-6.2188h0.03125c0.015-0.019 0.019-0.044 0.033-0.063 6.074-7.88 5.792-19.546-0.657-27.125-0.009-0.013-0.021-0.018-0.031-0.031-0.034-0.04-0.059-0.086-0.094-0.125l-0.031 0.031c-2.0347-2.7034-4.7293-4.0636-6.5625-5.5625-0.8516-1.0091 0.05063-3.087 1.375-3.0938zm-23.688 0.031c0.14079 0.000677 0.30535 0.02558 0.46875 0.0625a2.045 2.045 0 0 0 0.09375 0c1.3292 0.23144 1.8713 2.4736 0.8125 3.3125-3.3334 2.0257-6.4092 4.7169-8.4375 8.3125-0.01212 0.02007-0.0192 0.04239-0.03125 0.0625-5.0208 8.3777-3.5434 19.681 3.4375 26.5 0.07946 0.07762 0.13786 0.17355 0.21875 0.25l0.03125-0.03125c1.1579 1.3702 2.5542 2.1111 3.5625 2.75 1.0756 0.68153 1.613 1.1425 1.8438 1.8438a2.045 2.045 0 0 0 0 0.03125c0.44505 1.2854-1.2322 2.8151-2.4688 2.3438-0.01004-0.0038-0.02127 0.0041-0.03125 0-6.213-3.252-10.898-9.446-12.625-16.282a2.045 2.045 0 0 0 0 -0.03125c-2.509-9.34 0.906-20.047 8.375-26.187 0.023-0.019 0.04-0.044 0.062-0.063 1.857-1.372 3.351-2.642 4.688-2.875z"/>
   <path id="path4100" opacity=".2" style="color:#000000" d="m59.688 23.188c-3.1453 0.01609-4.9877 4.1855-2.882 6.522 2.1548 1.834 4.845 3.1049 6.5612 5.4713 5.9079 6.8039 6.1875 17.643 0.66457 24.757-1.7446 2.439-4.1555 4.2925-6.6948 5.8344-2.5148 1.8939-1.5 6.3422 1.5874 6.9581 2.5579 0.60082 4.5824-1.514 6.5183-2.8323 8.6102-6.6826 12.556-18.666 9.5745-29.158-1.949-7.316-6.971-13.86-13.73-17.33-0.511-0.182-1.059-0.258-1.599-0.222zm-24 0.03125c-2.1903 0.361-3.9154 2.0308-5.6562 3.3125-8.1776 6.6696-11.875 18.198-9.1387 28.384 1.8839 7.4558 6.9526 14.151 13.821 17.674 2.9036 1.1913 6.2578-1.897 5.2206-4.8925-0.911-2.765-4.29-3.251-5.963-5.434-6.459-6.104-7.877-16.659-3.284-24.263 1.8478-3.3041 4.7526-5.8611 7.9701-7.7797 2.4676-1.955 1.344-6.377-1.7575-6.917-0.39674-0.08965-0.8072-0.11827-1.2125-0.08453zm24.062 1.0625c2.1726 0.05479 3.7647 1.936 5.4655 3.0635 8.8399 7.1693 12.127 20.237 7.7081 30.732-2.296 5.727-6.717 10.737-12.143 13.547-2.268 0.822-4.617-1.811-3.531-3.969 0.951-1.709 3.08-2.186 4.398-3.559 6.392-5.318 9.144-14.604 6.474-22.531-1.612-5.211-5.403-9.607-10.153-12.222-1.93-1.652-0.751-4.971 1.781-5.063zm-24 0.03125c2.4756-0.34927 4.2076 2.9697 2.4688 4.7812-1.6816 1.3716-3.6413 2.3224-5.125 4-6.6091 6.3287-8.1414 17.118-3.6179 25.065 1.927 3.6106 5.0281 6.5034 8.5554 8.4974 1.8584 1.5023 0.81627 4.8559-1.5625 5.0312-1.9947 0.18903-3.457-1.5291-5.0259-2.5091-8.635-6.581-12.439-18.677-9.157-29.021 2.054-6.678 6.75-12.691 13.058-15.782l0.187-0.031 0.219-0.032z"/>
   <path id="path4090" opacity=".6" style="color:#000000" d="m39.969 27.719a4.004 4.004 0 0 1 -1.625 2.75 4.004 4.004 0 0 1 -0.344 0.219c-0.32806 0.18964-0.65089 0.38482-0.96875 0.59375-0.13716 0.08988-0.27153 0.18816-0.40625 0.28125-0.27678 0.19199-0.54466 0.38695-0.8125 0.59375-0.34546 0.26514-0.67323 0.52589-1 0.8125-0.32686 0.28814-0.62776 0.59455-0.9375 0.90625-0.27178 0.27349-0.55485 0.52113-0.8125 0.8125-0.03437 0.03858-0.05967 0.08615-0.09375 0.125-0.27786 0.3191-0.55256 0.66013-0.8125 1-0.11828 0.15465-0.22936 0.30985-0.34375 0.46875-0.1916 0.26514-0.38366 0.53752-0.5625 0.8125-0.194 0.299-0.382 0.593-0.562 0.906-1.879 3.254-2.733 6.798-2.688 10.281 0.117-3.16 0.988-6.337 2.688-9.281 0.18064-0.31288 0.36814-0.60693 0.5625-0.90625 0.17884-0.27498 0.3709-0.54736 0.5625-0.8125 0.11439-0.1589 0.22547-0.3141 0.34375-0.46875 0.25994-0.33987 0.53464-0.6809 0.8125-1 0.03408-0.03885 0.05938-0.08642 0.09375-0.125 0.25765-0.29137 0.54072-0.53901 0.8125-0.8125 0.30974-0.3117 0.61064-0.6181 0.9375-0.90625 0.32677-0.28661 0.65454-0.54736 1-0.8125 0.26784-0.2068 0.53572-0.40176 0.8125-0.59375 0.13472-0.09309 0.26909-0.19137 0.40625-0.28125 0.317-0.209 0.64-0.404 0.968-0.593a4.004 4.004 0 0 0 0.34375 -0.21875 4.004 4.004 0 0 0 1.625 -3.75zm15.969 0a4.0004 4.0004 0 0 0 1.7812 3.8125c0.094 0.051 0.188 0.102 0.281 0.156 6.353 3.667 9.912 10.23 10 17.031 0.266-7.151-3.337-14.185-10-18.031-0.093-0.054-0.187-0.105-0.281-0.157a4.0004 4.0004 0 0 1 -1.7812 -2.8125zm-35.906 20.875c-0.124 9.814 4.896 19.418 13.968 24.656a4.0004 4.0004 0 0 0 0.34375 0.1875 4.0004 4.0004 0 0 0 1.9688 0.375 4.0004 4.0004 0 0 0 3.75 -4.5312 4.0004 4.0004 0 0 1 -3.75 3.5312 4.0004 4.0004 0 0 1 -1.9688 -0.375 4.0004 4.0004 0 0 1 -0.344 -0.188c-8.762-5.059-13.748-14.195-13.969-23.656zm55.906 1.031c-0.234 4.235-1.43 8.464-3.688 12.375-0.24088 0.41722-0.491 0.81871-0.75 1.2188-0.0738 0.11393-0.14336 0.23098-0.21875 0.34375-0.18927 0.2833-0.39565 0.56941-0.59375 0.84375-0.02194 0.03034-0.04044 0.0635-0.0625 0.09375-0.21965 0.3016-0.45752 0.58443-0.6875 0.875-0.29148 0.368-0.56573 0.74124-0.875 1.0938-0.34521 0.39352-0.69838 0.75436-1.0625 1.125-0.32332 0.32911-0.66263 0.65792-1 0.96875s-0.68065 0.61391-1.0312 0.90625c-0.3506 0.29234-0.69947 0.57013-1.0625 0.84375s-0.75037 0.55781-1.125 0.8125c-0.0739 0.05044-0.14434 0.1065-0.21875 0.15625-0.30108 0.20041-0.59833 0.37432-0.90625 0.5625-0.34185 0.20891-0.71276 0.40006-1.0625 0.59375a4.004 4.004 0 0 1 -0.094 0.062c-0.0123 0.0067-0.01895 0.02455-0.03125 0.03125a4.004 4.004 0 0 1 -5.5312 -3.1875 4.004 4.004 0 0 0 5.5312 4.1875c0.012-0.006 0.019-0.024 0.031-0.031a4.004 4.004 0 0 0 0.09375 -0.0625c0.34974-0.19368 0.72065-0.38484 1.0625-0.59375 0.30792-0.18818 0.60517-0.36209 0.90625-0.5625 0.07441-0.04975 0.14485-0.10581 0.21875-0.15625 0.37463-0.25469 0.76197-0.53888 1.125-0.8125s0.7119-0.55141 1.0625-0.84375 0.69388-0.59542 1.0312-0.90625c0.33737-0.31083 0.67668-0.63964 1-0.96875 0.36412-0.37064 0.71729-0.73148 1.0625-1.125 0.30927-0.35251 0.58352-0.72575 0.875-1.0938 0.22998-0.29057 0.46785-0.5734 0.6875-0.875 0.02206-0.03025 0.04056-0.06341 0.0625-0.09375 0.1981-0.27434 0.40448-0.56045 0.59375-0.84375 0.07539-0.11276 0.14496-0.22982 0.21875-0.34375 0.259-0.40004 0.50912-0.80153 0.75-1.2188 2.4354-4.2182 3.5982-8.8106 3.6875-13.375z" fill="#fff"/>
  </g>
 </g>
</svg>
