<?xml version="1.0" encoding="UTF-8" standalone="no"?>
<!-- Created with Inkscape (http://www.inkscape.org/) -->
<svg id="svg2" xmlns:rdf="http://www.w3.org/1999/02/22-rdf-syntax-ns#" xmlns="http://www.w3.org/2000/svg" height="96" width="96" version="1.1" xmlns:cc="http://creativecommons.org/ns#" xmlns:xlink="http://www.w3.org/1999/xlink" xmlns:dc="http://purl.org/dc/elements/1.1/">
 <defs id="defs4">
  <linearGradient id="linearGradient3700-0">
   <stop id="stop3702-2" stop-color="#70a83e" offset="0"/>
   <stop id="stop3704-9" stop-color="#9fd058" offset="1"/>
  </linearGradient>
  <linearGradient id="linearGradient4982" y2="5.9877" xlink:href="#linearGradient3700-0" gradientUnits="userSpaceOnUse" x2="48" gradientTransform="translate(101.91 941.34)" y1="90" x1="48"/>
  <linearGradient id="linearGradient3613-28" y2="138.66" gradientUnits="userSpaceOnUse" x2="48" y1="20.221" x1="48">
   <stop id="stop3739-83" stop-color="#fff" offset="0"/>
   <stop id="stop3741-53" stop-color="#fff" stop-opacity="0" offset="1"/>
  </linearGradient>
  <clipPath id="clipPath3613-77">
   <rect id="rect3615-28" rx="6" ry="6" height="84" width="84" y="6" x="6" fill="#fff"/>
  </clipPath>
  <filter id="filter3794-07" height="1.384" width="1.384" color-interpolation-filters="sRGB" y="-.192" x="-.192">
   <feGaussianBlur id="feGaussianBlur3796-75" stdDeviation="5.28"/>
  </filter>
  <linearGradient id="linearGradient31713" y2="48.273" gradientUnits="userSpaceOnUse" x2="81" gradientTransform="translate(-.099058 953.56)" y1="48.273" x1="15">
   <stop id="stop3742-8" stop-color="#fff" offset="0"/>
   <stop id="stop3744-5" stop-color="#fff" stop-opacity="0" offset="1"/>
  </linearGradient>
  <linearGradient id="linearGradient31720" y2="16.973" gradientUnits="userSpaceOnUse" x2="46.655" gradientTransform="translate(-.099058 954.56)" y1="75.562" x1="48.082">
   <stop id="stop3733-0" stop-color="#dcdcdc" offset="0"/>
   <stop id="stop3757-8" stop-color="#ebebeb" offset=".30654"/>
   <stop id="stop3737-4" stop-color="#fff" offset=".70706"/>
   <stop id="stop3759-5" stop-color="#fafafa" offset=".84501"/>
   <stop id="stop3735-3" stop-color="#f0f0f0" offset="1"/>
  </linearGradient>
  <linearGradient id="linearGradient31736" y2="5.9877" gradientUnits="userSpaceOnUse" x2="48" gradientTransform="matrix(1.131 0 0 1.131 -8.3848 -11.086)" y1="90" x1="48">
   <stop id="stop3616-56" stop-color="#65a31b" offset="0"/>
   <stop id="stop3618-2" stop-color="#a0de42" offset="1"/>
  </linearGradient>
 </defs>
 <metadata id="metadata7">
  <rdf:RDF>
   <cc:Work rdf:about="">
    <dc:format>image/svg+xml</dc:format>
    <dc:type rdf:resource="http://purl.org/dc/dcmitype/StillImage"/>
    <dc:title/>
   </cc:Work>
  </rdf:RDF>
 </metadata>
 <g id="layer1" transform="translate(0 -956.36)">
  <rect id="rect5261-6" fill-opacity=".039216" ry="12.552" height="88.762" width="88.762" y="959.96" x="3.6078"/>
  <rect id="rect5259-9" fill-opacity=".078431" ry="12.38" height="87.546" width="87.546" y="960.57" x="4.2157"/>
  <rect id="rect5257-5" fill-opacity=".15686" ry="12.208" height="86.33" width="86.33" y="961.18" x="4.8237"/>
  <path id="rect2419-5" d="m17.469 5.4062c-6.668 0-12.032 5.3948-12.032 12.063l0.0005 61.031c0 5.418 3.5332 9.982 8.4375 11.5h68.187c4.715-1.457 8.172-5.734 8.438-10.875v-62.281c-0.321-6.377-5.54-11.438-12-11.438l-61.031 0.0002z" transform="translate(0 956.36)" fill="url(#linearGradient31736)"/>
  <rect id="rect3873" rx="6" ry="6" height="84" width="84" display="none" y="947.34" x="107.91" fill="url(#linearGradient4982)"/>
  <rect id="rect3880" rx="6" ry="6" height="84" width="84" display="none" y="947.34" x="107.91" fill="url(#linearGradient4982)"/>
  <path id="rect5265-0" d="m5.4316 1029.8v5.0663c0 6.668 5.3645 12.032 12.032 12.032h61.049c6.668 0 12.032-5.3645 12.032-12.032v-5.0663c0 6.6681-5.3645 12.032-12.032 12.032h-61.049c-6.668 0-12.032-5.3643-12.032-12.032z" fill-opacity=".23529"/>
  <path id="path5252-0" d="m5.4316 1033.9v1.0133c0 6.668 5.3645 12.032 12.032 12.032h61.049c6.668 0 12.032-5.3645 12.032-12.032v-1.0133c0 6.6681-5.3645 12.032-12.032 12.032h-61.049c-6.668 0-12.032-5.3644-12.032-12.032z" fill-opacity=".098039"/>
  <g id="layer5" transform="translate(-.099058 953.56)">
   <rect id="rect3171" height="66" stroke="#fff" stroke-linecap="round" stroke-width=".5" fill="url(#linearGradient3613-28)" rx="12" ry="12" width="66" opacity=".1" clip-path="url(#clipPath3613-77)" filter="url(#filter3794-07)" y="15" x="15"/>
  </g>
  <path id="path3724" opacity=".05" d="m47.901 968.31c-20.117 0-37.25 13.556-37.25 31.25 0 10.082 5.918 18.698 14.344 24.281-0.15691 0.5253-0.26659 1.039-0.625 1.5938-0.91988 1.4237-2.1321 2.6471-4.8438 3.4375h-0.03125c-0.01706 0-0.01361-0.01-0.03125 0-0.06018 0.017-0.12731 0.032-0.125 0.031 0.0027-0.0009-0.10648 0.043-0.15625 0.063-0.01244 0-0.03191 0.031-0.03125 0.031l-0.125 0.031a1.2012 1.2012 0 0 0 -0.03125 0v0.031a1.2012 1.2012 0 0 0 -0.0625 0 1.2012 1.2012 0 0 0 0 0.031 1.2012 1.2012 0 0 0 -0.03125 0 1.2012 1.2012 0 0 0 -0.125 0.063 1.2012 1.2012 0 0 0 -0.09375 0.031s-0.04304 0.062-0.09375 0.094a1.2012 1.2012 0 0 0 -0.03125 0c-0.01203 0.01-0.0194 0.024-0.03125 0.031h-0.03125c0.000311 0-0.02944 0.0004-0.03125 0-0.01135 0.01 0.0064 0.028 0 0.031h-0.03125c-0.0173 0.01-0.0138 0-0.0625 0.031a1.2012 1.2012 0 0 0 -0.0625 0.031c-0.02259 0.016-0.0032 0.01-0.03125 0.031-0.08339 0.05-0.01856 0.03-0.0625 0.063 0.000255 0-0.02938 0.0004-0.03125 0a1.2012 1.2012 0 0 0 -0.0625 0.063c-0.02131 0.013 0.0037 0.01-0.03125 0.031-0.02227 0.016-0.0025-0.022-0.03125 0a1.2012 1.2012 0 0 0 -0.0625 0.031c-0.0002 0.001-0.0036 0.033 0 0.031h-0.03125a1.2012 1.2012 0 0 0 -0.21875 0.1875s-0.03924 0.063-0.09375 0.125c-0.02725 0.031-0.07117 0.037-0.09375 0.063-0.0056 0.01 0.0051 0.025 0 0.031-0.0051 0.01-0.02656-0.01-0.03125 0-0.0011 0.0006 0.0026 0.029 0 0.031-0.0076 0.01 0.0073 0.024 0 0.031a1.2012 1.2012 0 0 0 -0.03125 0.031 1.2012 1.2012 0 0 0 -0.03125 0c-0.0052 0.01 0.0042 0.027 0 0.031a1.2012 1.2012 0 0 0 -0.03125 0c-0.0029 0 0.0016 0.03 0 0.031h-0.03125a1.2012 1.2012 0 0 0 -0.0625 0.063s-0.05453 0.07-0.09375 0.125c-0.01961 0.027-0.01399 0.038-0.03125 0.063-0.0048 0.01-0.03376 0.037-0.03125 0.031a1.2012 1.2012 0 0 0 -0.03125 0.031 1.2012 1.2012 0 0 0 0 0.031c-0.01159 0.018 0.0056-0.03-0.03125 0.031a1.2012 1.2012 0 0 0 -0.03125 0.031c0.0076-0.011-0.03409 0.088 0 0.031-0.0066 0.01-0.02415-0.011-0.03125 0-0.006 0.01 0.0056 0.022 0 0.031a1.2012 1.2012 0 0 0 -0.0625 0.063 1.2012 1.2012 0 0 0 -0.0625 0.125c-0.0021 0 0.000015 0.031 0 0.031-0.0078 0.017-0.03697 0.068-0.0625 0.125-0.01543 0.035-0.01866 0.065-0.03125 0.094-0.01259 0.028-0.0061-0.047-0.0625 0.094 0.10388-0.2598 0.05856-0.1621-0.03125 0.063-0.01017 0.021-0.02229 0.01-0.03125 0.031-0.008 0.02 0.0069 0.012 0 0.031l-0.0625 0.1562a1.2012 1.2012 0 0 0 -0.0625 0.3125 1.2012 1.2012 0 0 0 0 0.031c-0.0082 0.011-0.0625 0.063-0.0625 0.063-0.0055 0.028 0.004 0.01 0 0.031-0.0027 0.011 0.0023 0.02 0 0.031-0.0042 0.016-0.02797 0.015-0.03125 0.031-0.0042 0.021 0.0032 0.012 0 0.031l-0.03125 0.1563a1.2012 1.2012 0 0 0 0 0.031c-0.0055 0.027 0.004 0.01 0 0.031-0.0027 0.011 0.0023 0.02 0 0.031-0.0046 0.023 0.0033 0.011 0 0.031-0.0014 0.01-0.02995-0.01-0.03125 0-0.02535 0.1267-0.001 0.114 0 0.1875a1.2012 1.2012 0 0 0 -0.03125 0.3125v0.1875a1.2012 1.2012 0 0 0 0 0.094 1.2012 1.2012 0 0 0 0 0.031v0.031a1.2012 1.2012 0 0 0 0 0.094 1.2012 1.2012 0 0 0 0 0.063s-0.0077 0.063 0 0.125c0.0038 0.031 0.02777 0.035 0.03125 0.063 0.0035 0.027-0.04918-0.09 0 0.1562 0.0033 0.017 0.02708 0.015 0.03125 0.031 0.0025 0.01-0.0028 0.022 0 0.031 0.004 0.023-0.0055 0 0 0.031a1.2012 1.2012 0 0 0 0 0.031l0.03125 0.1563a1.2012 1.2012 0 0 0 0.125 0.2812 1.2012 1.2012 0 0 0 0 0.031c-0.00071 0.017-0.000002 0.094 0 0.094 0.009 0.022 0.02105 0.01 0.03125 0.031s0.02005 0.011 0.03125 0.031c-0.000537 0 0.0414 0.1348 0 0.031a1.2012 1.2012 0 0 0 0 0.031l0.0625 0.1563a1.2012 1.2012 0 0 0 0 0.031c0.009 0.022 0.02108 0.01 0.03125 0.031s0.02007 0.011 0.03125 0.031c0.0044 0.01-0.0048 0.022 0 0.031a1.2012 1.2012 0 0 0 0 0.031 1.2012 1.2012 0 0 0 0.03125 0.031 1.2012 1.2012 0 0 0 0 0.031 1.2012 1.2012 0 0 0 0.03125 0.031 1.2012 1.2012 0 0 0 0.0625 0.125 1.2012 1.2012 0 0 0 0 0.031 1.2012 1.2012 0 0 0 0.03125 0.094l0.09375 0.1562c-0.0021 0 0.12745 0.1908 0.125 0.1875l0.09375 0.125a1.2012 1.2012 0 0 0 0.25 0.25 1.2012 1.2012 0 0 0 0.0625 0.031c0.03396 0.039-0.01591 0.015 0.03125 0.063a1.2012 1.2012 0 0 0 0.09375 0.094s0.02413 0.032 0.0625 0.063c0.0061 0.01 0.02927 0 0.03125 0l0.03125 0.031c0.0017 0 0.01733 0.021 0.03125 0.031a1.2012 1.2012 0 0 0 0.03125 0.031h0.03125c0.0022 0-0.0033 0.029 0 0.031a1.2012 1.2012 0 0 0 0.09375 0.094h0.03125a1.2012 1.2012 0 0 0 0.09375 0.094c-0.26162-0.1962-0.1894-0.1342 0.03125 0.031 0.04616 0.035 0.03062 0.011 0.0625 0.031a1.2012 1.2012 0 0 0 0.21875 0.1563s0.08702 0.032 0.15625 0.063c0.03462 0.015 0.06536 0.019 0.09375 0.031 0.02839 0.013-0.04735 0.01 0.09375 0.063-0.26005-0.1041-0.16189-0.059 0.0625 0.031 0.02117 0.01 0.0089 0.022 0.03125 0.031 0.02002 0.01 0.01185-0.01 0.03125 0l0.15625 0.063 0.15625 0.063a1.2012 1.2012 0 0 0 0.3125 0.063h0.03125c0.01094 0.01 0.06249 0.063 0.0625 0.063h0.03125 0.03125c0.01622 0 0.01484 0.028 0.03125 0.031h0.03125l0.15625 0.031a1.2012 1.2012 0 0 0 0.1875 0c-0.0023-0.0002 0.12728 0 0.125 0-0.0017 0 0.05646 0.001 0.09375 0 0.01122 0.001 0.02004-0.001 0.03125 0-0.000022 0.0008 0.000018 0.031 0 0.031h0.03125 0.0625v-0.031c9.7538 0.9583 16.717-3.1404 20.906-6.9375 2.0913 0.3347 4.2359 0.5937 6.5312 0.5937 20.117 0 37.25-13.556 37.25-31.25s-17.133-31.25-37.25-31.25zm-27.562 68.5a1.2012 1.2012 0 0 0 0.03125 0v0.1562l-0.03125-0.1562z"/>
  <path id="path3720" opacity=".05" d="m47.901 969.5c-19.579 0-36.062 13.148-36.062 30.062 0 9.9449 5.9764 18.491 14.594 23.875-0.21998 0.8335-0.43648 1.6873-1.0625 2.6562-1.0314 1.5963-2.548 3.0758-5.5312 3.9375h-0.03125a1.0828 1.0828 0 0 0 -0.1875 0.063l-0.15625 0.063 0.40625 1c-0.21083-0.4986-0.43017-1.0029-0.4375-1-0.01466 0.01-0.01172 0.023-0.03125 0.031-0.01953 0.01-0.0479 0.025-0.0625 0.031-0.0146 0.01-0.03125 0-0.03125 0s-0.23834 0.1475-0.25 0.1563c-0.01166 0.01-0.04687 0.02-0.0625 0.031 0.01466-0.01-0.0625 0.031-0.0625 0.031-0.01125 0.01-0.02248 0.026-0.03125 0.031-0.01461 0.01-0.03125 0-0.03125 0s-0.08203 0.085-0.09375 0.094c-0.01172 0.01-0.04687 0.02-0.0625 0.031-0.01563 0.012-0.01957 0.023-0.03125 0.031-0.01168 0.01-0.03125 0-0.03125 0s-0.21001 0.2383-0.21875 0.25c-0.0087 0.012-0.01953 0.016-0.03125 0.031-0.006 0.01 0.0063 0.025 0 0.031h-0.03125c-0.01328 0.016-0.03125 0.031-0.03125 0.031-0.01168 0.012-0.03125 0.031-0.03125 0.031s-0.14748 0.2041-0.15625 0.2187c-0.0088 0.015-0.01953 0.043-0.03125 0.063s-0.02245 0.017-0.03125 0.031c-0.0088 0.015-0.03125 0.031-0.03125 0.031-0.0043 0.01 0.0035 0.027 0 0.031-0.0087 0.012-0.03125 0-0.03125 0s-0.11916 0.2667-0.125 0.2813c-0.0058 0.015-0.02343 0.043-0.03125 0.063-0.0078 0.02-0.02538 0.017-0.03125 0.031-0.0059 0.015 0 0.031 0 0.031l-0.0625 0.1562 1 0.4063 1.0312 0.3437s-2.0908-0.5458-2.0938-0.5312c-0.0029 0.015 0.0039 0.043 0 0.063s-0.02832 0.017-0.03125 0.031c-0.0029 0.015 0 0.031 0 0.031l-0.03125 0.1562 0.71875 0.1563c-0.32438-0.054-0.71776-0.13-0.71875-0.125-0.0029 0.015 0.0039 0.043 0 0.063s-0.02833 0.017-0.03125 0.031c-0.0029 0.015 0 0.031 0 0.031l1.0625 0.2187h-1.0938v0.1875h1.0938c-0.5413 0.01-1.0938 0.024-1.0938 0.031 0.000001 0.015-0.000001 0.043 0 0.063 0.000001 0.019 0 0.017 0 0.031v0.031s0.02833 0.2354 0.03125 0.25c0.0029 0.015 0.02734 0.012 0.03125 0.031 0.0039 0.02-0.0029 0.048 0 0.063s0 0.031 0 0.031l0.03125 0.1563 1.0625-0.2188 1.0312-0.2812s-2.0371 0.7041-2.0312 0.7187c0.0058 0.015 0.02344 0.012 0.03125 0.031 0.0078 0.02 0.02539 0.048 0.03125 0.063 0.0059 0.015 0 0.031 0 0.031l0.0625 0.1563 0.8125-0.3438c-0.39954 0.1764-0.81494 0.3689-0.8125 0.375 0.0059 0.015 0.02343 0.012 0.03125 0.031 0.0078 0.02 0.02541 0.048 0.03125 0.063 0.0058 0.015 0 0.031 0 0.031l1-0.4062-0.9375 0.5625 0.09375 0.1562a1.0828 1.0828 0 0 0 0.0625 0.094l0.09375 0.125 0.875-0.6562 0.84375-0.6875s-1.6054 1.457-1.5938 1.4687c0.01169 0.012 0.04687 0.016 0.0625 0.031 0.01563 0.016 0.01953 0.051 0.03125 0.063 0 0 0.14459 0.1163 0.15625 0.125 0.01166 0.01 0.01562 0.02 0.03125 0.031 0.0073 0.01 0.02343 0.023 0.03125 0.031 0.0078 0.01 0.02631 0 0.03125 0 0.0073 0.01-0.0058 0.025 0 0.031 0.01168 0.012 0.03125 0.031 0.03125 0.031s0.11328 0.085 0.125 0.094c0.01172 0.01 0.01562 0.019 0.03125 0.031s0.05082 0.023 0.0625 0.031c0.01168 0.01 0 0.031 0 0.031s0.26667 0.1192 0.28125 0.125c0.01458 0.01 0.04297 0.023 0.0625 0.031 0.01953 0.01 0.01657 0.025 0.03125 0.031 0.01468 0.01 0.03125 0 0.03125 0l0.15625 0.063 0.15625 0.063 0.40625-1 0.3125-1.0312s-0.5146 2.0908-0.5 2.0937h0.0625c0.01953 0 0.0166 0.028 0.03125 0.031h0.03125l0.15625 0.031a1.0828 1.0828 0 0 0 0.125 0 1.0828 1.0828 0 0 0 0.0625 0.031h0.09375v-0.031c9.7462 1.0017 16.58-3.248 20.562-7 2.2149 0.3696 4.4887 0.6563 6.875 0.6563 19.579 0 36.062-13.148 36.062-30.063 0-16.914-16.483-30.062-36.062-30.062zm2.7812 15.125c0.60149 0.00002 0.59144-0.0134 1 0.375 0.01551 0.0147 0.01445 0.0153 0.03125 0.0313a1.0828 1.0828 0 0 0 0.03125 0.0313c0.46322 0.43652 0.34374 0.17128 0.34375 0.71875-0.000008 0.55757 0.08353 0.36378-0.3125 0.71875-0.01407 0.0129-0.018 0.0192-0.03125 0.0313-0.37162 0.3389-0.46074 0.37501-1.0625 0.375-0.6068 0.00001-0.713-0.0348-1.0938-0.375-0.02392-0.0223-0.01031-0.0125-0.03125-0.0313-0.39602-0.35496-0.3125-0.16122-0.3125-0.71875-0.000004-0.58696-0.13266-0.30643 0.34375-0.75 0.43891-0.40863 0.47447-0.40623 1.0938-0.40625zm-3.4688 12.375c0.51469 0.0922 1.1358 0.14161 1.3438 0.3125-0.0015-0.001 0.09538 0.0952 0.09375 0.0937 0.25852 0.22671 0.33586 0.31659 0.375 0.40625 0.03914 0.0897 0.06249 0.2701 0.0625 0.6875-0.000015 0.22326 0.03249 0.60673-0.03125 1.2188a1.0828 1.0828 0 0 0 -0.03125 0.0313c-0.04207 0.50474-0.12211 0.97994-0.25 1.4062a1.0828 1.0828 0 0 0 0 0.031l-1.875 6.625v0.031c-0.17716 0.6223-0.36212 1.3181-0.5 2.0938-0.13701 0.7705-0.25002 1.4556-0.25 2.125-0.000009 0.713 0.15869 1.5417 0.46875 2.3437-0.70023-0.093-1.1727-0.2395-1.4375-0.4687-0.522-0.4765-0.46875-0.3718-0.46875-1.0938-0.000003-0.3548 0.0018-0.7818 0.0625-1.2187 0.06073-0.4494 0.19785-1.0149 0.34375-1.625a1.0828 1.0828 0 0 0 0.03125 -0.3125l1.6562-5.9375a1.0828 1.0828 0 0 0 0.03125 -0.031 1.0828 1.0828 0 0 0 0.09375 -0.2813 1.0828 1.0828 0 0 0 0 -0.063h0.03125a1.0828 1.0828 0 0 0 0 -0.031c0.01001-0.04 0.02612-0.074 0.03125-0.094a1.0828 1.0828 0 0 0 0 -0.063c0.14901-0.5767 0.29577-1.1714 0.40625-1.75 0.08351-0.4373 0.07905-0.449 0-0.031 0.14704-0.7172 0.24999-1.4237 0.25-2.125-0.000004-0.69492-0.15336-1.4964-0.4375-2.2812z"/>
  <path id="path3716" opacity="0.12" d="m47.901 970.59c-19.097 0-34.969 12.762-34.969 28.969 0 9.8126 6.0152 18.31 14.812 23.5-0.22779 1.0474-0.61321 2.3008-1.4688 3.625-1.149 1.7784-2.9471 3.4814-6.2188 4.4062a0.98626 0.98626 0 0 0 -0.03125 0c0.000104 0-0.15635 0.063-0.15625 0.063 0.000101 0-0.15635 0.063-0.15625 0.063 0.000097 0-0.12509 0.094-0.125 0.094 0.000092 0-0.15634 0.094-0.15625 0.094 0.000087-0.0001-0.12508 0.094-0.125 0.094 0.000081-0.0001-0.09382 0.1251-0.09375 0.125 0.000074-0.0001-0.12507 0.1251-0.125 0.125 0.000067-0.0001-0.09381 0.1564-0.09375 0.1563s-0.0938 0.1251-0.09375 0.125c0.000052-0.0001-0.06254 0.1563-0.0625 0.1562 0.000044-0.0001-0.06254 0.1564-0.0625 0.1563 0.000035-0.0001-0.03128 0.1563-0.03125 0.1562 0.000026-0.0001-0.03127 0.1564-0.03125 0.1563 0.000017-0.0001-0.03126 0.1563-0.03125 0.1562 0.000008-0.0001 0.000002 0.1876 0 0.1875s0.000011 0.1564 0 0.1563 0.03127 0.1563 0.03125 0.1562 0.03128 0.1564 0.03125 0.1563c-0.000029-0.0001 0.06254 0.1563 0.0625 0.1562-0.000038-0.0001 0.06255 0.1564 0.0625 0.1563-0.000046-0.0001 0.06255 0.1563 0.0625 0.1562-0.000055-0.0001 0.09381 0.1564 0.09375 0.1563-0.000062-0.0001 0.09382 0.125 0.09375 0.125-0.00007-0.0001 0.12508 0.125 0.125 0.125-0.000077-0.0001 0.12508 0.094 0.125 0.094-0.000083-0.0001 0.12509 0.125 0.125 0.125-0.000089-0.0001 0.12509 0.094 0.125 0.094-0.000094-0.0001 0.15635 0.063 0.15625 0.063-0.000098-0.0001 0.15635 0.063 0.15625 0.063-0.000102-0.0001 0.15636 0.063 0.15625 0.063-0.000105-0.0001 0.15636 0.031 0.15625 0.031-0.000108-0.0001 0.15636 0.031 0.15625 0.031a0.98626 0.98626 0 0 0 0.03125 0c9.7546 1.0601 16.452-3.3593 20.25-7.0625 2.3307 0.4104 4.728 0.6875 7.2188 0.6875 19.097 0 34.969-12.762 34.969-28.969s-15.872-28.969-34.969-28.969zm2.7812 12.938c0.79039 0.00002 1.2145 0.18189 1.7812 0.71875a0.98626 0.98626 0 0 0 0.03125 0 0.98626 0.98626 0 0 0 0 0.0313c0.54254 0.51126 0.68749 0.80252 0.6875 1.5-0.00001 0.7096-0.1205 1.0034-0.6875 1.5312-0.53838 0.49346-1.0139 0.68752-1.8125 0.6875-0.80026 0.00002-1.2926-0.19118-1.8438-0.6875-0.56701-0.52788-0.6875-0.82167-0.6875-1.5312-0.000005-0.70951 0.12045-1.0033 0.6875-1.5312 0.5686-0.52937 1.0519-0.71873 1.8438-0.71875zm-4.1875 12.188c1.4004 0.00002 2.2091 0.30555 2.75 0.75a0.98626 0.98626 0 0 0 0.03125 0.0313 0.98626 0.98626 0 0 0 0.09375 0.0937c0.625 0.5481 0.81249 0.93249 0.8125 1.9062-0.000013 0.19526 0.0075 0.67138-0.0625 1.3438-0.04926 0.59109-0.16629 1.1376-0.3125 1.625l-1.875 6.6563c-0.173 0.6054-0.33681 1.2578-0.46875 2-0.13266 0.7461-0.21877 1.3795-0.21875 1.9375-0.000015 1.1526 0.24507 2.4816 1.3125 3.3437-0.38105 0.057-0.65868 0.1875-1.125 0.1875-1.5163 0-2.3846-0.338-2.9688-0.8437-0.63406-0.5788-0.84375-1.0146-0.84375-1.9063-0.000003-0.3997 0.02486-0.879 0.09375-1.375 0.06933-0.513 0.19431-1.0938 0.34375-1.7187h-0.03125l1.8438-6.5625a0.98626 0.98626 0 0 0 0 -0.031h0.03125a0.98626 0.98626 0 0 0 0 -0.063c0.0114-0.044 0.02002-0.082 0.03125-0.125 0.15396-0.5957 0.30098-1.1675 0.40625-1.7188 0.0018-0.01-0.0018-0.022 0-0.031 0.13951-0.6729 0.21874-1.3184 0.21875-1.9375-0.000007-1.1021-0.19818-2.3322-1.125-3.2188-0.06479-0.062-0.15111-0.0699-0.21875-0.125 0.42556-0.0802 0.91404-0.21874 1.2812-0.21875z"/>
  <path id="path3712" opacity="0.24" d="m47.901 971.59c-18.66 0-33.969 12.408-33.969 27.969 0 9.6667 5.998 18.089 14.938 23.094-0.21052 1.1926-0.65132 2.862-1.75 4.5625-1.2551 1.9426-3.2901 3.8257-6.7812 4.8125a0.98224 0.98224 0 0 0 0.1875 1.9063c9.6905 1.0531 16.246-3.496 19.844-7.125 2.4289 0.4544 4.9344 0.7187 7.5312 0.7187 18.66 0 33.969-12.408 33.969-27.969 0-15.56-15.309-27.969-33.969-27.969zm2.7812 10.938c1.0077 0.00003 1.7648 0.33312 2.4688 1a0.98224 0.98224 0 0 0 0.03125 0c0.71283 0.66371 0.99999 1.3343 1 2.25-0.000013 0.91577-0.28719 1.5864-1 2.25-0.70031 0.65118-1.4838 0.96877-2.5 0.96875-1.0162 0.00002-1.8162-0.31528-2.5312-0.96875-0.71282-0.66364-1-1.3342-1-2.25-0.000006-0.91568 0.28715-1.5863 1-2.25 0.71868-0.66909 1.5235-0.99997 2.5312-1zm-4.1875 12.188c1.6473 0.00002 2.7767 0.40993 3.5312 1.0938a0.98224 0.98224 0 0 0 0 0.0313c0.7892 0.69209 1.1562 1.4777 1.1562 2.6562-0.000017 0.24994-0.02084 0.73745-0.09375 1.4375-0.05533 0.66389-0.17974 1.2658-0.34375 1.8125l-1.875 6.6563c-0.16412 0.5743-0.31132 1.1964-0.4375 1.9062-0.12646 0.7112-0.18752 1.277-0.1875 1.75-0.000013 1.0302 0.19184 1.9603 0.9375 2.5625 0.71475 0.5773 1.6124 0.6875 2.6875 0.6875 0.32408 0 0.70232-0.099 1.0625-0.1562-1.0209 0.3902-2.0234 0.7749-2.6875 1a0.98224 0.98224 0 0 0 -0.03125 0c-0.76479 0.2722-1.6746 0.4375-2.7812 0.4375-1.6751 0-2.8288-0.4045-3.625-1.0938-0.80405-0.7268-1.1875-1.5302-1.1875-2.6562-0.000003-0.4734 0.05309-0.9823 0.125-1.5 0.07417-0.5489 0.18711-1.1575 0.34375-1.8125l1.8438-6.5938a0.98224 0.98224 0 0 0 0 -0.031c0.17427-0.6654 0.32733-1.2926 0.4375-1.875 0.13127-0.6235 0.18749-1.1867 0.1875-1.75-0.000006-0.99202-0.16613-1.8817-0.8125-2.5-0.65672-0.62812-1.5675-0.78123-2.6875-0.78125-0.33666 0.00001-0.64828 0.0963-0.96875 0.15625 0.85579-0.32529 1.7067-0.65967 2.5-0.90625a0.98224 0.98224 0 0 0 0.03125 0c1.0551-0.34218 1.9974-0.53123 2.875-0.53125z"/>
  <path id="path3620" d="m47.901 971.56c-18.225 0-33 12.088-33 27 0 9.4984 5.9998 17.843 15.062 22.656-0.34462 2.5088-1.914 8.6498-9.3438 10.75 9.6229 1.0458 16.014-3.6463 19.406-7.1875 2.5235 0.5055 5.1611 0.7813 7.875 0.7813 18.225 0 33-12.088 33-27s-14.775-27-33-27zm2.7812 9c1.2343 0.00003 2.2877 0.42718 3.1562 1.25 0.88379 0.82289 1.3125 1.8107 1.3125 2.9688-0.000016 1.1581-0.42871 2.1459-1.3125 2.9688-0.86859 0.80765-1.922 1.2188-3.1562 1.2188-1.2343 0.00003-2.3037-0.4111-3.1875-1.2188-0.88382-0.82283-1.3125-1.8106-1.3125-2.9688-0.000008-1.1581 0.42868-2.1459 1.3125-2.9688 0.8838-0.82282 1.9532-1.25 3.1875-1.25zm-4.1875 12.188c1.8133 0.00002 3.2122 0.45996 4.1875 1.3438 0.99046 0.86859 1.4687 2.0044 1.4688 3.4062-0.00002 0.28954-0.01757 0.79984-0.09375 1.5312-0.06096 0.73144-0.19216 1.3905-0.375 2l-1.875 6.6563c-0.15239 0.5333-0.28436 1.1268-0.40625 1.8125-0.12192 0.6857-0.18751 1.212-0.1875 1.5625-0.000011 0.8838 0.19755 1.4925 0.59375 1.8125 0.39618 0.32 1.0872 0.4687 2.0625 0.4687 0.45713 0 0.98344-0.066 1.5625-0.2187 0.57903-0.1677 0.99094-0.3156 1.25-0.4375l-0.5 2.0625c-1.5086 0.5942-2.726 1.039-3.625 1.3437-0.89906 0.32-1.9364 0.4688-3.125 0.4688-1.8286 0-3.2603-0.4287-4.2812-1.3125-1.0057-0.8991-1.5-2.0349-1.5-3.4063-0.000003-0.5333 0.0488-1.0764 0.125-1.625 0.07619-0.5638 0.17613-1.2053 0.34375-1.9062l1.875-6.6563c0.16761-0.64 0.29958-1.2487 0.40625-1.8125 0.1219-0.57903 0.1875-1.0901 0.1875-1.5625-0.000005-0.85331-0.18078-1.446-0.53125-1.7812-0.35048-0.33522-1.0095-0.53123-2-0.53125-0.48762 0.00002-0.98191 0.0977-1.5 0.25-0.50286 0.1524-0.94679 0.30038-1.3125 0.4375l0.5-2.0625c1.2343-0.50284 2.4349-0.93075 3.5625-1.2812 1.1276-0.36569 2.1818-0.56248 3.1875-0.5625z" fill="url(#linearGradient31720)"/>
  <path id="path3666" d="m47.901 971.56c-18.225 0-33 12.088-33 27 0 0.20841 0.0255 0.41773 0.03125 0.625 0.88384-14.266 15.313-25.625 32.969-25.625 17.811 0 32.318 11.557 32.969 26 0.01514-0.33594 0.03125-0.66103 0.03125-1 0-14.912-14.775-27-33-27zm-1.5938 14.219c-0.07734 0.31592-0.125 0.65378-0.125 1-0.000008 1.1581 0.42868 2.1459 1.3125 2.9688 0.8838 0.80765 1.9532 1.2188 3.1875 1.2188 1.2343 0.00003 2.2877-0.4111 3.1562-1.2188 0.88379-0.82283 1.3125-1.8106 1.3125-2.9688-0.000005-0.34622-0.04766-0.68408-0.125-1-0.18135 0.74083-0.56793 1.3919-1.1875 1.9688-0.86859 0.80765-1.922 1.2188-3.1562 1.2188-1.2343 0.00003-2.3037-0.4111-3.1875-1.2188-0.61959-0.57683-1.0062-1.2279-1.1875-1.9688zm-4.25 10.188c-0.31552 0.00001-0.64301 0.0549-0.96875 0.125-0.44524 0.16533-0.88731 0.31405-1.3438 0.5l-0.5 2.0625c0.36571-0.13712 0.80964-0.2851 1.3125-0.4375 0.51809-0.15235 1.0124-0.24998 1.5-0.25 0.99047 0.00002 1.6495 0.19603 2 0.53125 0.19739 0.18882 0.34975 0.4598 0.4375 0.8125 0.05642-0.36125 0.09375-0.71381 0.09375-1.0312-0.000005-0.85331-0.18078-1.446-0.53125-1.7812-0.35048-0.33522-1.0095-0.53123-2-0.53125zm10.031 2.75c-0.01103 0.13112-0.01567 0.16288-0.03125 0.3125-0.06096 0.73144-0.19216 1.3905-0.375 2l-1.875 6.6563c-0.15239 0.5333-0.28436 1.1268-0.40625 1.8125-0.12192 0.6857-0.18751 1.212-0.1875 1.5625-0.000005 0.3736 0.05429 0.6944 0.125 0.9687 0.02578-0.1728 0.02686-0.3308 0.0625-0.5312 0.12189-0.6857 0.25386-1.2792 0.40625-1.8125l1.875-6.6563c0.18284-0.6095 0.31404-1.2685 0.375-2 0.07618-0.7314 0.09373-1.2417 0.09375-1.5312-0.000003-0.27346-0.02585-0.52805-0.0625-0.78125zm-10.375 13.906c-0.04575 0.4085-0.0625 0.8193-0.0625 1.2187-0.000003 1.3714 0.49428 2.5072 1.5 3.4063 1.0209 0.8838 2.4527 1.3125 4.2812 1.3125 1.1886 0 2.2259-0.1488 3.125-0.4688 0.89903-0.3047 2.1164-0.7495 3.625-1.3437l0.5-2.0625c-0.25906 0.1219-0.67097 0.2698-1.25 0.4375-0.18875 0.05-0.35428 0.062-0.53125 0.094-0.84103 0.317-1.762 0.6778-2.3438 0.875-0.89906 0.32-1.9364 0.4687-3.125 0.4687-1.8286 0-3.2603-0.4287-4.2812-1.3125-0.80328-0.7181-1.278-1.6054-1.4375-2.625zm-12.125 10.375c-0.78888 2.9258-2.9421 7.2651-8.9688 8.9687 1.4386 0.1564 2.7988 0.1709 4.0938 0.094 3.9509-2.7354 4.9814-6.8885 5.25-8.8437-0.1292-0.069-0.24706-0.1487-0.375-0.2188z" fill="url(#linearGradient31713)"/>
 </g>
</svg>
