<?xml version="1.0" encoding="UTF-8" standalone="no"?>
<!-- Created with Inkscape (http://www.inkscape.org/) -->
<svg id="svg2" xmlns:rdf="http://www.w3.org/1999/02/22-rdf-syntax-ns#" xmlns="http://www.w3.org/2000/svg" height="96" width="96" version="1.1" xmlns:cc="http://creativecommons.org/ns#" xmlns:xlink="http://www.w3.org/1999/xlink" xmlns:dc="http://purl.org/dc/elements/1.1/">
 <defs id="defs4">
  <linearGradient id="linearGradient3700-09">
   <stop id="stop3702-67" stop-color="#70a83e" offset="0"/>
   <stop id="stop3704-18" stop-color="#9fd058" offset="1"/>
  </linearGradient>
  <linearGradient id="linearGradient9745" y2="5.9877" xlink:href="#linearGradient3700-09" gradientUnits="userSpaceOnUse" x2="48" gradientTransform="translate(-169.06 968.2)" y1="90" x1="48"/>
  <linearGradient id="linearGradient3648">
   <stop id="stop3650" stop-color="#fff" offset="0"/>
   <stop id="stop3652-8" stop-color="#ccc" offset=".39724"/>
   <stop id="stop3654-7" stop-color="#ccc" offset=".49891"/>
   <stop id="stop3656" stop-color="#777" offset=".60806"/>
   <stop id="stop3658-5" stop-color="#fff" offset="1"/>
  </linearGradient>
  <clipPath id="clipPath3644">
   <path id="path3646" d="m12 96c-3.324 0-6 2.676-6 6v72c0 3.324 2.676 6 6 6h72c3.324 0 6-2.676 6-6v-72c0-3.324-2.676-6-6-6h-72zm36 11c18.225 0 33 12.088 33 27s-14.775 27-33 27c-2.7139 0-5.3515-0.27575-7.875-0.78125-3.3926 3.5412-9.7833 8.2333-19.406 7.1875 7.4297-2.1002 8.9991-8.2412 9.3438-10.75-9.063-4.82-15.063-13.16-15.063-22.66 0-14.91 14.775-27 33-27z" fill="url(#linearGradient3648)"/>
  </clipPath>
  <filter id="filter3678" height="1.3762" width="1.3451" color-interpolation-filters="sRGB" y="-.18809" x="-.17257">
   <feGaussianBlur id="feGaussianBlur3680" stdDeviation="4.745809"/>
  </filter>
  <filter id="filter3789" height="1.2321" width="1.3794" color-interpolation-filters="sRGB" y="-.11607" x="-.18971">
   <feGaussianBlur id="feGaussianBlur3791" stdDeviation="1.8477742"/>
  </filter>
  <linearGradient id="linearGradient3703-8" y2="24.84" xlink:href="#linearGradient3697" gradientUnits="userSpaceOnUse" x2="46.125" y1="63.048" x1="46.125"/>
  <linearGradient id="linearGradient3697">
   <stop id="stop3699" stop-color="#dcdcdc" offset="0"/>
   <stop id="stop3701" stop-color="#f0f0f0" offset="1"/>
  </linearGradient>
  <linearGradient id="linearGradient15415" y2="47.025" gradientUnits="userSpaceOnUse" x2="106.51" gradientTransform="matrix(1.0837 0 0 1.0837 -3.7729 952.06)" y1="47.277" x1="15">
   <stop id="stop3773" stop-color="#154a99" offset="0"/>
   <stop id="stop3775" stop-color="#154a99" stop-opacity="0" offset="1"/>
  </linearGradient>
  <linearGradient id="linearGradient15426" y2="5.9877" gradientUnits="userSpaceOnUse" x2="48" gradientTransform="matrix(1.1118 0 0 1.1118 -6.503 -8.5184)" y1="90" x1="48">
   <stop id="stop3616-4" stop-color="#2557a3" offset="0"/>
   <stop id="stop3618-5" stop-color="#5287d7" offset="1"/>
  </linearGradient>
 </defs>
 <metadata id="metadata7">
  <rdf:RDF>
   <cc:Work rdf:about="">
    <dc:format>image/svg+xml</dc:format>
    <dc:type rdf:resource="http://purl.org/dc/dcmitype/StillImage"/>
    <dc:title/>
   </cc:Work>
  </rdf:RDF>
 </metadata>
 <g id="layer1" transform="translate(0 -956.36)">
  <rect id="rect5263-0" fill-opacity=".019608" ry="12.724" height="89.978" width="89.624" y="959.35" x="3.3534"/>
  <rect id="rect5261-6" fill-opacity=".039216" ry="12.552" height="88.762" width="88.413" y="959.96" x="3.9589"/>
  <rect id="rect5259-9" fill-opacity=".078431" ry="12.38" height="87.546" width="87.202" y="960.57" x="4.5645"/>
  <rect id="rect5257-5" fill-opacity=".15686" ry="12.208" height="86.33" width="85.991" y="961.18" x="5.1701"/>
  <path id="rect2419" d="m17.75 5.4062c-6.642 0-11.969 5.3948-11.969 12.063l0.0002 61.031c0 6.668 5.3268 12.031 11.969 12.031h60.812c6.642 0 11.969-5.363 11.969-12.031v-61.031c0-6.668-5.327-12.063-11.969-12.063l-60.812 0.0002z" transform="translate(0 956.36)" fill="url(#linearGradient15426)"/>
  <path id="rect5265-0" d="m5.7756 1029.8v5.0663c0 6.668 5.3434 12.032 11.985 12.032h60.809c6.6418 0 11.985-5.3645 11.985-12.032v-5.0663c0 6.6681-5.3434 12.032-11.985 12.032h-60.809c-6.6418 0-11.985-5.3643-11.985-12.032z" fill-opacity="0.17"/>
  <path id="path5252-0" d="m5.7756 1033.9v1.0133c0 6.668 5.3434 12.032 11.985 12.032h60.809c6.6418 0 11.985-5.3645 11.985-12.032v-1.0133c0 6.6681-5.3434 12.032-11.985 12.032h-60.809c-6.6418 0-11.985-5.3644-11.985-12.032z" fill-opacity=".098039"/>
  <rect id="rect4772" display="none" height="107.79" width="107.79" y="971.68" x="-369.64" fill="none"/>
  <g id="g4788" display="none" transform="matrix(.21052 0 0 .21052 -369.68 971.63)"></g>
  <g id="g4806" display="none" transform="matrix(.21052 0 0 .21052 -369.68 971.63)">
   <g id="g4808" display="inline">
    <path id="path4810" d="m349.1 256.65c-0.265-0.254 37.637 27.605 39.421 25.012 6.362-9.252 82.046-93.137 84.784-116.24 0.242-2.003-0.516-4.096-0.516-4.096s-1.19-0.144-6.325-4.314c-2.692-2.192-5.483-4.581-5.483-4.581-16.054 0.998-57.885 41.559-111.06 103.57" fill="#050505" display="none"/>
   </g>
  </g>
  <g id="g4796" transform="matrix(.21052 0 0 .21052 -369.68 971.63)"></g>
  <rect id="rect3873" rx="6" ry="6" height="84" width="84" display="none" y="974.2" x="-163.06" fill="url(#linearGradient9745)"/>
  <rect id="rect3880" rx="6" ry="6" height="84" width="84" display="none" y="974.2" x="-163.06" fill="url(#linearGradient9745)"/>
  <path id="path3642" opacity=".2" d="m48 107c-18.225 0-33 12.088-33 27 0 9.4984 5.9998 17.843 15.062 22.656-0.34462 2.5088-1.914 8.6498-9.3438 10.75 9.6229 1.0458 16.014-3.6463 19.406-7.1875 2.525 0.5 5.162 0.78 7.876 0.78 18.225 0 33-12.09 33-27s-14.775-27-33-27z" clip-path="url(#clipPath3644)" transform="translate(.79690 864.59)" filter="url(#filter3678)" fill="#fff"/>
  <path id="path3620" opacity=".6" d="m48.244 970.49c-19.751 0-35.762 13.1-35.762 29.26 0 10.293 6.5019 19.337 16.323 24.552-0.37347 2.7188-2.0742 9.3738-10.126 11.65 10.428 1.1333 17.354-3.9515 21.03-7.7891 2.7347 0.5478 5.593 0.8467 8.5341 0.8467 19.751 0 35.762-13.1 35.762-29.26s-16.011-29.26-35.762-29.26z" fill="url(#linearGradient15415)"/>
  <path id="path3779" opacity=".2" d="m12.483 1000.2c-0.0057 0.2168 0 0.4255 0 0.6435 0 10.232 6.4309 19.221 16.154 24.451 0.07276-0.3569 0.13064-0.7005 0.16933-0.9822-9.6814-5.1412-16.141-14.001-16.323-24.112zm71.524 0.1016c-0.35801 15.906-16.236 28.718-35.762 28.718-2.9411 0-5.7994-0.2989-8.5341-0.8467-3.3745 3.5222-9.4799 8.073-18.524 7.9245-0.75925 0.3602-1.5897 0.6892-2.506 0.9483 10.428 1.1333 17.354-3.9515 21.03-7.7891 2.7347 0.5478 5.593 0.8467 8.5341 0.8467 19.751 0 35.762-13.1 35.762-29.26 0-0.1835 0.0041-0.3591 0-0.5418z" fill="#fff"/>
  <path id="path3811-1" opacity=".05" d="m48.244 970.49c-19.751 0-35.762 13.1-35.762 29.26 0 10.293 6.5019 19.337 16.323 24.552-0.37347 2.7188-2.0742 9.3738-10.126 11.65 10.428 1.1333 17.354-3.9515 21.03-7.7891 2.7347 0.5478 5.593 0.8467 8.5341 0.8467 19.751 0 35.762-13.1 35.762-29.26s-16.011-29.26-35.762-29.26zm0 3.1834c18.336 0 32.579 12.029 32.579 26.076s-14.242 26.076-32.579 26.076c-2.7244 0-5.3572-0.3052-7.8907-0.8127a3.1988 3.1988 0 0 0 -2.9463 0.9482c-1.7565 1.8334-4.3392 3.8662-7.7213 5.283 1.4538-2.5509 2.0966-5.001 2.3029-6.5022a3.1988 3.1988 0 0 0 -1.6933 -3.2511c-8.9851-4.7715-14.63-12.795-14.63-21.742 0-14.047 14.242-26.076 32.579-26.076z"/>
  <path id="path3804" opacity="0.08" d="m48.244 970.49c-19.751 0-35.762 13.1-35.762 29.26 0 10.293 6.5019 19.337 16.323 24.552-0.37347 2.7188-2.0742 9.3738-10.126 11.65 10.428 1.1333 17.354-3.9515 21.03-7.7891 2.7347 0.5478 5.593 0.8467 8.5341 0.8467 19.751 0 35.762-13.1 35.762-29.26s-16.011-29.26-35.762-29.26zm0 2.0319c18.849 0 33.73 12.415 33.73 27.228s-14.881 27.228-33.73 27.228c-2.8029 0-5.5213-0.2908-8.1277-0.8128a2.0397 2.0397 0 0 0 -1.8626 0.5756c-2.4164 2.5222-6.3528 5.5323-11.819 6.7393 0.65348-0.69 1.4303-1.3444 1.8965-2.0658 1.7048-2.6387 2.293-5.2902 2.506-6.8409a2.0397 2.0397 0 0 0 -1.0837 -2.0657c-9.2881-4.9324-15.239-13.323-15.239-22.758 0-14.813 14.881-27.228 33.73-27.228z"/>
  <path id="path3797" opacity=".15" d="m48.244 970.49c-19.751 0-35.762 13.1-35.762 29.26 0 10.293 6.5019 19.337 16.323 24.552-0.37347 2.7188-2.0742 9.3738-10.126 11.65 10.428 1.1333 17.354-3.9515 21.03-7.7891 2.7347 0.5478 5.593 0.8467 8.5341 0.8467 19.751 0 35.762-13.1 35.762-29.26s-16.011-29.26-35.762-29.26zm0 1.1514c19.243 0 34.611 12.707 34.611 28.108 0 15.402-15.367 28.108-34.611 28.108-2.8634 0-5.6345-0.2795-8.297-0.8128a1.1476 1.1476 0 0 0 -1.0498 0.3386c-2.865 2.9905-7.8556 6.5553-14.935 7.2811 1.5633-1.1241 2.7638-2.4283 3.6236-3.759 1.6057-2.4854 2.1691-4.9676 2.3706-6.4345a1.1476 1.1476 0 0 0 -0.60958 -1.1853c-9.5213-5.0563-15.714-13.726-15.714-23.537 0-15.402 15.367-28.108 34.611-28.108z"/>
  <g id="layer4" transform="matrix(1.0837 0 0 1.0837 -3.7729 952.06)">
   <g id="g3741" opacity=".8" transform="matrix(.94114 0 0 .94221 4.5901 4.5954)" filter="url(#filter3789)">
    <path id="path3743" d="m57.813 34.824c-0.000024 2.4-0.73602 4.464-2.208 6.192-0.44802 0.57602-1.792 1.744-4.032 3.504-1.472 1.184-2.208 2.288-2.208 3.312v1.68h-8.88v-2.736c-0.000006-1.824 0.70399-3.52 2.112-5.088 0.03199-0.06398 1.328-1.248 3.888-3.552 1.408-1.248 2.112-2.4 2.112-3.456-0.000015-0.70397-0.27201-1.28-0.816-1.728-0.54401-0.47997-1.184-0.71997-1.92-0.72-0.96001 0.000028-1.68 0.35203-2.16 1.056-0.48001 0.70403-0.70401 1.552-0.672 2.544h-8.592v-0.768c0-3.168 1.168-5.696 3.504-7.584 2.144-1.76 4.832-2.64 8.064-2.64 3.2 0.000036 5.92 0.84804 8.16 2.544 2.432 1.856 3.648 4.336 3.648 7.44m-7.872 23.328c-0.000016 1.44-0.46402 2.608-1.392 3.504-0.89601 0.928-2.064 1.392-3.504 1.392-1.44-0.000003-2.624-0.464-3.552-1.392-0.89601-0.896-1.344-2.064-1.344-3.504-0.000006-1.44 0.44799-2.624 1.344-3.552 0.92799-0.92799 2.112-1.392 3.552-1.392 1.44 0.000007 2.608 0.46401 3.504 1.392 0.92798 0.928 1.392 2.112 1.392 3.552"/>
   </g>
   <g id="text3688" fill="url(#linearGradient3703-8)" transform="matrix(.94114 0 0 .94221 4.5901 3.5954)">
    <path id="path3695" fill="url(#linearGradient3703-8)" d="m57.813 34.824c-0.000024 2.4-0.73602 4.464-2.208 6.192-0.44802 0.57602-1.792 1.744-4.032 3.504-1.472 1.184-2.208 2.288-2.208 3.312v1.68h-8.88v-2.736c-0.000006-1.824 0.70399-3.52 2.112-5.088 0.03199-0.06398 1.328-1.248 3.888-3.552 1.408-1.248 2.112-2.4 2.112-3.456-0.000015-0.70397-0.27201-1.28-0.816-1.728-0.54401-0.47997-1.184-0.71997-1.92-0.72-0.96001 0.000028-1.68 0.35203-2.16 1.056-0.48001 0.70403-0.70401 1.552-0.672 2.544h-8.592v-0.768c0-3.168 1.168-5.696 3.504-7.584 2.144-1.76 4.832-2.64 8.064-2.64 3.2 0.000036 5.92 0.84804 8.16 2.544 2.432 1.856 3.648 4.336 3.648 7.44m-7.872 23.328c-0.000016 1.44-0.46402 2.608-1.392 3.504-0.89601 0.928-2.064 1.392-3.504 1.392-1.44-0.000003-2.624-0.464-3.552-1.392-0.89601-0.896-1.344-2.064-1.344-3.504-0.000006-1.44 0.44799-2.624 1.344-3.552 0.92799-0.92799 2.112-1.392 3.552-1.392 1.44 0.000007 2.608 0.46401 3.504 1.392 0.92798 0.928 1.392 2.112 1.392 3.552"/>
   </g>
   <path id="path3737" fill="#fff" d="m47.875 27c-3.0418 0.000034-5.5447 0.84174-7.5625 2.5-2.198 1.779-3.312 4.14-3.312 7.125v0.71875h0.09375c0.28005-2.3875 1.3451-4.3277 3.2188-5.8438 2.0178-1.6583 4.5207-2.5 7.5625-2.5 3.0116 0.000034 5.5793 0.80829 7.6875 2.4062 2.0363 1.5558 3.1496 3.5778 3.375 6.0625 0.035-0.346 0.063-0.701 0.063-1.063-0.000023-2.9246-1.1487-5.2512-3.4375-7-2.108-1.598-4.675-2.406-7.687-2.406zm2.2188 10.312c-0.28962 0.70006-0.86887 1.4369-1.75 2.2188-2.4093 2.1709-3.6261 3.2835-3.6562 3.3438-1.3251 1.4774-2 3.0627-2 4.7812v2c-0.000006-1.7186 0.67487-3.3038 2-4.7812 0.03011-0.06028 1.2469-1.1729 3.6562-3.3438 1.3251-1.1759 1.9687-2.255 1.9688-3.25-0.000008-0.35828-0.07419-0.68167-0.21875-0.96875zm-3.125 16.406c-1.3552 0.000007-2.4391 0.43814-3.3125 1.3125-0.84326 0.87438-1.2813 1.987-1.2812 3.3438-0.000001 0.3392 0.03951 0.66056 0.09375 0.96875 0.16965-0.89956 0.56922-1.6714 1.1875-2.3125 0.87337-0.87436 1.9573-1.3125 3.3125-1.3125 1.3552 0.000007 2.4692 0.43814 3.3125 1.3125 0.6406 0.64135 1.0473 1.4125 1.2188 2.3125 0.05482-0.30819 0.09375-0.62955 0.09375-0.96875-0.000015-1.3568-0.43914-2.4694-1.3125-3.3438-0.84327-0.87436-1.9573-1.3125-3.3125-1.3125z"/>
  </g>
 </g>
</svg>
