<?xml version="1.0" encoding="UTF-8" standalone="no"?>
<!-- Created with Inkscape (http://www.inkscape.org/) -->
<svg id="svg2" xmlns:rdf="http://www.w3.org/1999/02/22-rdf-syntax-ns#" xmlns="http://www.w3.org/2000/svg" height="96" width="96" version="1.1" xmlns:cc="http://creativecommons.org/ns#" xmlns:xlink="http://www.w3.org/1999/xlink" xmlns:dc="http://purl.org/dc/elements/1.1/">
 <defs id="defs4">
  <linearGradient id="linearGradient3700-09">
   <stop id="stop3702-67" stop-color="#70a83e" offset="0"/>
   <stop id="stop3704-18" stop-color="#9fd058" offset="1"/>
  </linearGradient>
  <linearGradient id="linearGradient9745" y2="5.9877" xlink:href="#linearGradient3700-09" gradientUnits="userSpaceOnUse" x2="48" gradientTransform="translate(-169.06 968.2)" y1="90" x1="48"/>
  <linearGradient id="linearGradient3737-52">
   <stop id="stop3739-76" stop-color="#fff" offset="0"/>
   <stop id="stop3741-165" stop-color="#fff" stop-opacity="0" offset="1"/>
  </linearGradient>
  <clipPath id="clipPath3613-75">
   <rect id="rect3615-28" rx="6" ry="6" height="84" width="84" y="6" x="6" fill="#fff"/>
  </clipPath>
  <filter id="filter3794-71" height="1.384" width="1.384" color-interpolation-filters="sRGB" y="-.192" x="-.192">
   <feGaussianBlur id="feGaussianBlur3796-92" stdDeviation="5.28"/>
  </filter>
  <linearGradient id="linearGradient3714">
   <stop id="stop3716-6" stop-color="#d7d7d7" offset="0"/>
   <stop id="stop3718-3" stop-color="#c8c8c8" offset="1"/>
  </linearGradient>
  <linearGradient id="linearGradient3749">
   <stop id="stop3751-7" stop-opacity=".52713" offset="0"/>
   <stop id="stop3757-9" stop-color="#7f7f7f" stop-opacity="0" offset=".5"/>
   <stop id="stop3753" stop-color="#fff" offset="1"/>
  </linearGradient>
  <linearGradient id="linearGradient10894" y2="39.496" gradientUnits="userSpaceOnUse" x2="59.504" gradientTransform="translate(3.0139 952.43)" y1="75" x1="24">
   <stop id="stop3815" stop-color="#666" offset="0"/>
   <stop id="stop3817" stop-color="#666" stop-opacity="0" offset="1"/>
  </linearGradient>
  <linearGradient id="linearGradient10897" y2="60" gradientUnits="userSpaceOnUse" x2="36" gradientTransform="translate(2.0139 953.43)" y1="58" x1="34">
   <stop id="stop3792-0" stop-color="#969696" offset="0"/>
   <stop id="stop3794-3" stop-color="#fff" stop-opacity=".79070" offset="1"/>
  </linearGradient>
  <linearGradient id="linearGradient10901" y2="24" xlink:href="#linearGradient3714" gradientUnits="userSpaceOnUse" x2="48" gradientTransform="translate(2.0139 953.43)" y1="72" x1="48"/>
  <linearGradient id="linearGradient10943" y2="-8" gradientUnits="userSpaceOnUse" x2="48" gradientTransform="translate(2.0139 953.43)" y1="72" x1="48">
   <stop id="stop4064" stop-color="#206520" offset="0"/>
   <stop id="stop4066" stop-color="#5a9d35" offset="1"/>
  </linearGradient>
  <linearGradient id="linearGradient10965" y2="5.9877" gradientUnits="userSpaceOnUse" x2="48" gradientTransform="matrix(1.1023 0 0 1.1023 -4.1826 -3.4354)" y1="90" x1="48">
   <stop id="stop3702-80" stop-color="#236f23" offset="0"/>
   <stop id="stop3704-2" stop-color="#61a939" offset="1"/>
  </linearGradient>
  <linearGradient id="linearGradient10968" y2="24" xlink:href="#linearGradient3714" gradientUnits="userSpaceOnUse" x2="48" gradientTransform="translate(4,-4)" y1="72" x1="48"/>
  <radialGradient id="radialGradient10970" xlink:href="#linearGradient3737-52" gradientUnits="userSpaceOnUse" cy="37" cx="57" gradientTransform="matrix(1.2 7.0503e-8 -6.0704e-8 1.0332 -7.4 -5.2294)" r="15"/>
  <linearGradient id="linearGradient10972" y2="22.999" xlink:href="#linearGradient3749" gradientUnits="userSpaceOnUse" x2="62.823" gradientTransform="matrix(1,0,0,-1,4,66)" y1="53.023" x1="62.823"/>
  <linearGradient id="linearGradient10974" y2="32" xlink:href="#linearGradient3749" gradientUnits="userSpaceOnUse" x2="69.188" gradientTransform="matrix(.25882 .96593 -.96593 .25882 82.415 -42.192)" y1="32" x1="59"/>
  <linearGradient id="linearGradient10976" y2="138.66" xlink:href="#linearGradient3737-52" gradientUnits="userSpaceOnUse" x2="48" y1="20.221" x1="48"/>
 </defs>
 <metadata id="metadata7">
  <rdf:RDF>
   <cc:Work rdf:about="">
    <dc:format>image/svg+xml</dc:format>
    <dc:type rdf:resource="http://purl.org/dc/dcmitype/StillImage"/>
    <dc:title/>
   </cc:Work>
  </rdf:RDF>
 </metadata>
 <g id="layer1" transform="translate(0 -956.36)">
  <g id="g5523">
   <rect id="rect5263-0" fill-opacity=".019608" ry="12.724" height="89.978" width="89.624" y="959.35" x="3.3534"/>
   <rect id="rect5261-6" fill-opacity=".039216" ry="12.552" height="88.762" width="88.413" y="959.96" x="3.9589"/>
   <rect id="rect5259-9" fill-opacity=".078431" ry="12.38" height="87.546" width="87.202" y="960.57" x="4.5645"/>
   <rect id="rect5257-5" fill-opacity=".15686" ry="12.208" height="86.33" width="85.991" y="961.18" x="5.1701"/>
  </g>
  <path id="rect2419" d="m17.75 5.4062c-6.642 0-11.969 5.3948-11.969 12.063l0.0002 61.031c0 6.668 5.3268 12.031 11.969 12.031h60.812c6.642 0 11.969-5.363 11.969-12.031v-61.031c0-6.668-5.327-12.063-11.969-12.063l-60.812 0.0002z" transform="translate(0 956.36)" fill="url(#linearGradient10965)"/>
  <path id="rect5265-0" d="m5.7756 1029.8v5.0663c0 6.668 5.3434 12.032 11.985 12.032h60.809c6.6418 0 11.985-5.3645 11.985-12.032v-5.0663c0 6.6681-5.3434 12.032-11.985 12.032h-60.809c-6.6418 0-11.985-5.3643-11.985-12.032z" fill-opacity=".23529"/>
  <path id="path5252-0" d="m5.7756 1033.9v1.0133c0 6.668 5.3434 12.032 11.985 12.032h60.809c6.6418 0 11.985-5.3645 11.985-12.032v-1.0133c0 6.6681-5.3434 12.032-11.985 12.032h-60.809c-6.6418 0-11.985-5.3644-11.985-12.032z" fill-opacity=".098039"/>
  <rect id="rect4772" display="none" height="107.79" width="107.79" y="971.68" x="-369.64" fill="none"/>
  <g id="g4788" display="none" transform="matrix(.21052 0 0 .21052 -369.68 971.63)"></g>
  <g id="g4806" display="none" transform="matrix(.21052 0 0 .21052 -369.68 971.63)">
   <g id="g4808" display="inline">
    <path id="path4810" d="m349.1 256.65c-0.265-0.254 37.637 27.605 39.421 25.012 6.362-9.252 82.046-93.137 84.784-116.24 0.242-2.003-0.516-4.096-0.516-4.096s-1.19-0.144-6.325-4.314c-2.692-2.192-5.483-4.581-5.483-4.581-16.054 0.998-57.885 41.559-111.06 103.57" fill="#050505" display="none"/>
   </g>
  </g>
  <g id="g4796" transform="matrix(.21052 0 0 .21052 -369.68 971.63)"></g>
  <rect id="rect3873" rx="6" ry="6" height="84" width="84" display="none" y="974.2" x="-163.06" fill="url(#linearGradient9745)"/>
  <rect id="rect3880" rx="6" ry="6" height="84" width="84" display="none" y="974.2" x="-163.06" fill="url(#linearGradient9745)"/>
  <rect id="rect3171" ry="12" stroke="#fff" stroke-linecap="round" stroke-width=".5" fill="url(#linearGradient10976)" rx="12" transform="translate(.013907 955.43)" width="66" opacity=".1" clip-path="url(#clipPath3613-75)" height="66" filter="url(#filter3794-71)" y="15" x="15"/>
  <path id="path3974" opacity=".05" d="m63.014 971.43c-8.982-0.16713-16.995 7.0467-17.844 15.969-0.01487 0.0362-0.01725 0.0621-0.03125 0.125-0.01071 0.0481-0.02605 0.0294-0.03125 0.0937a1.0066 1.0066 0 0 0 0.03125 0.3125 1.0066 1.0066 0 0 0 0 0.0937c-0.31074 2.513 0.20027 4.8128 0.5 6.5-8.6236 8.6309-17.303 17.235-25.906 25.906a1.0066 1.0066 0 0 0 0 0.031c0.000093-0.0001-0.09384 0.094-0.09375 0.094 0.000086-0.0001-0.09383 0.094-0.09375 0.094 0.000079-0.0001-0.06257 0.1252-0.0625 0.125 0.000072-0.0001-0.06256 0.1252-0.0625 0.125 0.000064-0.0001-0.06256 0.1252-0.0625 0.125 0.000056-0.0001-0.06255 0.1252-0.0625 0.125 0.000047-0.0001-0.03129 0.1252-0.03125 0.125 0.000029-0.0001-0.0219 0.058-0.03125 0.094-0.0029 0.011-0.000007 0.031 0 0.031-0.49834 2.0407-0.14063 3.8824-0.21875 5 0.000008-0.0001 0 0.1252 0 0.125 0-0.0001 0.000008 0.1252 0 0.125 0.06664 1.0897-0.22488 2.7779 0.1875 4.6875h-0.03125c-0.000023-0.0001 0.03128 0.094 0.03125 0.094-0.00003-0.0001 0.03129 0.1252 0.03125 0.125-0.000036-0.0001 0.06254 0.094 0.0625 0.094-0.000042-0.0001 0.0313 0.094 0.03125 0.094-0.000048-0.0001 0.06255 0.1251 0.0625 0.125-0.000053-0.0001 0.03131 0.094 0.03125 0.094-0.000059-0.0001 0.06256 0.094 0.0625 0.094-0.000064 0 0.09382 0.094 0.09375 0.094 0.92713 1.1825 2.3356 1.3369 3.1875 1.3125 0.39138-0.011 0.74183-0.044 1-0.063 0.25817-0.018 0.46586 0.023 0.34375 0 0.01365 0 0.03128 0.0001 0.03125 0-0.000109 0 0.12511 0.031 0.125 0.031s0.09386 0.0001 0.09375 0h0.125a1.0066 1.0066 0 0 0 0.0625 0c1.7809-0.072 3.915 0.1947 6.2188-0.125a1.0066 1.0066 0 0 0 0.03125 0c-0.000159 0.0001 0.15641-0.031 0.15625-0.031-0.000157 0.0001 0.1564-0.031 0.15625-0.031-0.000154 0.0001 0.12515-0.063 0.125-0.063-0.000149 0.0001 0.15639-0.063 0.15625-0.063-0.000144 0.0001 0.15639-0.094 0.15625-0.094-0.000138 0.0001 0.12513-0.094 0.125-0.094-0.000131 0.0001 0.12512-0.094 0.125-0.094-0.000103 0.0001 0.06711-0.069 0.09375-0.094h0.03125c0.68427-0.6615 1.8559-1.5386 2.7188-2.9375-0.000052 0.0001 0.04465-0.037 0.0625-0.063 0.0054-0.01 0.000015-0.031 0-0.031-0.000063 0.0001 0.06256-0.094 0.0625-0.094a1.0066 1.0066 0 0 0 0.03125 -0.063c0.22323-0.483 0.18982-0.8228 0.1875-1.1562 0.15626-0.01 0.22546 0.031 0.40625 0 0.47603-0.082 1.1355-0.28 1.6875-0.7813 0.38689-0.3512 0.45158-0.8294 0.59375-1.2812a1.0066 1.0066 0 0 0 0.34375 -0.6563c0.0041-0.034-0.000307-0.054 0-0.094 0.006-0.061-0.0016-0.172 0-0.1562 0.0055-0.1014 0.000109-0.1283 0-0.2188 0.89416-0.1104 1.6882-0.469 2.375-1.125 0.0062-0.01 0.02508 0.01 0.03125 0a1.0066 1.0066 0 0 0 0.5 -0.2812c0.0562-0.062 0.0474-0.072 0.0625-0.094 0.16356-0.1657 0.65832-0.5277 1.1562-1.125 0.43956-0.5273 0.71033-1.3565 0.78125-2.25 1.2463-0.067 2.2272-0.7042 2.7812-1.2813 0.56435-0.5876 1.101-1.1524 1.0625-1.125-0.000094 0.0001 0.09384-0.063 0.09375-0.063a1.0066 1.0066 0 0 0 0.09375 -0.063c0.81041-0.7419 0.97939-1.6402 1.0312-2.375h0.03125c0.48284-0.039 1.1516-0.1634 1.7812-0.625 0.59268-0.4344 0.9004-1.0566 1.0625-1.7187a1.0066 1.0066 0 0 0 0.15625 -0.4063c0.01519-0.1283 0.000449-0.024 0-0.031 0.0017-0.015-0.0015-0.016 0-0.031 0.01982-0.1981 0.0016-0.2436 0-0.4062 0.83479-0.1118 1.5931-0.4456 2.25-1.0313a1.0066 1.0066 0 0 0 0.59375 -0.2812l4.25-4.25c8.3825 2.648 18.029-1.7566 21.438-9.9062 0.0035-0.009-0.0035-0.0228 0-0.0313 0.01179-0.0244 0.0199-0.004 0.03125-0.0313 3.4033-7.645 0.79166-17.138-6.0938-21.906-0.02433-0.0168-0.03806-0.0458-0.0625-0.0625v0.0313c-0.11417-0.0747-0.20906-0.12118-0.21875-0.125-1.017-0.75405-2.2372-1.3938-3.4062-1.875-1.0541-0.43392-1.9446-0.69199-2.8125-0.84375-0.01907-0.015-0.06249-0.0313-0.0625-0.0313-0.000028-0.00002-0.25649-0.0662-0.34375-0.0937-0.01689-0.005-0.06249-0.0313-0.0625-0.0313-1.1061-0.18907-2.2397-0.31901-3.4688-0.3125 0.0012-0.00001-0.0071-0.00018-0.03125 0zm2.9688 14.062h0.125a1.0066 1.0066 0 0 0 0.0625 0c-0.01408 0.002 0.41132 0.10699 0.625 0.4375s0.27504 0.64094 0 1.0625a1.0066 1.0066 0 0 0 -0.03125 0.0625c-0.0024 0.004-0.37762 0.23956-0.8125 0.1875-0.43488-0.0521-0.63549-0.17774-0.6875-0.4375a1.0066 1.0066 0 0 0 -0.03125 -0.1875c-0.05005-0.16447-0.0191-0.49716 0.15625-0.75s0.4362-0.37163 0.59375-0.375z"/>
  <path id="path3855" d="m22.014 981.43v8l40 40h8v-8l-40-40z" fill="url(#linearGradient10943)"/>
  <path id="path3970" opacity=".1" d="m63.014 972.43c-8.4781-0.17402-16.139 6.7503-16.875 15.188-0.0029 0.033-0.02859 0.0607-0.03125 0.0937h0.03125c-0.46128 2.638 0.30146 5.2136 0.59375 7.1562-8.7491 8.759-17.558 17.488-26.281 26.281a1.0005 1.0005 0 0 0 -0.25 0.4688c-0.44453 1.7884-0.09278 3.4887-0.1875 4.8437a1.0005 1.0005 0 0 0 0 0.125c0.0787 1.287-0.20584 2.8545 0.15625 4.5313a1.0005 1.0005 0 0 0 0.1875 0.4062c0.64247 0.8344 1.661 0.958 2.375 0.9375 0.71405-0.02 1.3062-0.1106 1.5625-0.063a1.0005 1.0005 0 0 0 0.21875 0.031c1.898-0.076 3.9852 0.172 6.125-0.125a1.0005 1.0005 0 0 0 0.5625 -0.2812c0.77843-0.7568 1.8776-1.5644 2.625-2.8125a1.0005 1.0005 0 0 0 0.0625 -0.094c0.21528-0.4659 0.17763-0.8106 0.15625-1.125-0.01536-0.2259-0.01225-0.3927-0.03125-0.5625 0.35013 0.019 0.70061 0.058 1.2188-0.031 0.36531-0.063 0.78937-0.1981 1.1562-0.5313 0.34992-0.3177 0.54907-0.8119 0.59375-1.3125h0.03125c0.0036-0.03-0.0029-0.033 0-0.063 0.0528-0.5354-0.0085-0.8622-0.03125-1.125 1.1731 0.1498 2.4101-0.2573 3.1562-1.2812l0.03125 0.031c0.02352-0.026 0.06643-0.097 0.09375-0.125 0.26932-0.2728 0.68081-0.5672 1.0938-1.0625 0.45484-0.5456 0.8675-1.4497 0.625-2.4063a1.0005 1.0005 0 0 0 0 -0.031c-0.02041-0.071-0.02257-0.044-0.03125-0.094 0.09123-0.0004 0.16694-0.023 0.53125 0.031a1.0005 1.0005 0 0 0 0.0625 0c1.0738 0.1037 1.9172-0.5207 2.4375-1.0625 0.52026-0.5417 0.91554-1.0562 1.1875-1.25a1.0005 1.0005 0 0 0 0.09375 -0.063c0.67869-0.6213 0.79066-1.5089 0.78125-2.125-0.0035-0.2291 0.01026-0.3108 0-0.5 0.31325 0.016 0.48087 0.032 0.875 0 0.40117-0.033 0.84604-0.1184 1.2812-0.4375 0.4242-0.3109 0.70993-0.8703 0.78125-1.4375h0.03125c0.0011-0.01-0.000995-0.022 0-0.031 0.06073-0.5542-0.0079-0.8862-0.03125-1.1562 1.1501 0.1469 2.3439-0.2626 3.0938-1.25l0.0625 0.063 4.625-4.6563c8.0061 2.9273 17.57-1.3223 20.844-9.1874 0.0055-0.0131 0.02582-0.0181 0.03125-0.0313 3.2327-7.2154 0.74463-16.282-5.7812-20.75-0.0166-0.0132-0.04568-0.0181-0.0625-0.0313-0.92617-0.72589-2.1789-1.3514-3.375-1.8438-1.1916-0.4905-2.192-0.81998-3-0.90625-0.0024-0.00025 0.0024-0.031 0-0.0313-0.02009-0.004-0.04238 0.003-0.0625 0-1.0753-0.1838-2.1657-0.31857-3.3125-0.3125-0.01073 0.00006-0.02052-0.00008-0.03125 0zm2.9375 12.062a1.0005 1.0005 0 0 0 0.09375 0c1.0998-0.1513 2.5832 1.546 1.5938 3.0625a1.0005 1.0005 0 0 0 0 0.0313c-0.61987 1.036-3.0694 0.93246-3.375-0.59375a1.0005 1.0005 0 0 0 0 -0.0937c-0.32124-1.0556 0.58036-2.3826 1.6875-2.4062z"/>
  <path id="path3964" opacity=".15" d="m63.014 973.43c-7.9547-0.17973-15.278 6.4373-15.917 14.365-0.46579 2.4922 0.47459 5.2394 0.71643 7.4293-8.8746 8.8872-17.799 17.732-26.642 26.646-0.37085 1.4921-0.04894 3.1192-0.15673 4.6613 0.0888 1.4521-0.17638 2.9671 0.12916 4.382 0.76974 0.9996 2.258 0.315 3.3317 0.5165 2.0016-0.08 4.0556 0.1587 6.0261-0.1147 0.84541-0.822 1.8704-1.5874 2.478-2.6021 0.3166-0.6851-0.52127-2.3845 0.52718-2.2832 0.87725-0.011 2.4374 0.2949 2.5078-1 0.10725-0.8875-0.48785-2.4774 0.98436-2 0.97014 0.1762 1.8796-0.132 2.4304-0.9773 0.70118-0.7787 1.8989-1.4413 1.5852-2.6789-0.40019-1.395 0.4714-1.5182 1.6406-1.3438 1.3621 0.1315 1.9676-1.4487 2.9343-2.1373 0.79158-0.7247 0.27924-1.9282 0.42513-2.8627 0.99578-0.1154 2.8441 0.4883 3-1 0.10725-0.8875-0.48785-2.4774 0.98436-2 0.97001 0.1761 1.8804-0.1312 2.4285-0.9791l5.0246-5.0521c7.5894 3.2063 17.128-0.9075 20.254-8.4766 3.0558-6.7737 0.68698-15.403-5.4593-19.571-1.5719-1.2549-4.9323-2.5111-5.9822-2.6091-1.0732-0.18532-2.1582-0.32087-3.25-0.3125zm2.9062 10.062c2.0406-0.28072 3.9857 2.4123 2.5625 4.5938-1.127 1.8836-4.7006 1.5254-5.1875-0.90625-0.5211-1.7123 0.81526-3.6488 2.625-3.6875z"/>
  <path id="path3919" opacity=".3" d="m63.014 974.43c-8.2843 0-15 6.7157-15 15 0 0.36632 0.0054 0.73379 0.03125 1.0938 0.0046 0.0641 0.02485 0.12442 0.03125 0.1875 0.03391 0.39922 0.09168 0.79781 0.15625 1.1875 0.02207 0.12519 0.03896 0.25226 0.0625 0.375 0.01174 0.0613 0.01876 0.12647 0.03125 0.1875 0.18308 0.89014 0.44754 1.7378 0.78125 2.5625 0.02957 0.0735 0.06305 0.14578 0.09375 0.21875 0.0038 0.009-0.0038 0.0223 0 0.0313l-27.188 27.156v8h8l2-2v-3h3v-3h3l2-2v-3h3l2-2v-3h3v-3h3l6.1562-6.1875h0.03125c0.63719 0.2697 1.2817 0.5346 1.9688 0.7187 8.002 2.1442 16.231-2.5917 18.375-10.594 0.2143-0.79978 0.32676-1.6087 0.40625-2.4062 0.0042-0.0411-0.0038-0.0838 0-0.125 0.18118-1.9871-0.0222-3.9466-0.59375-5.7812-0.0096-0.0312-0.02155-0.0626-0.03125-0.0937-0.0029-0.009 0.003-0.0218 0-0.0313-0.01287-0.041-0.01803-0.0842-0.03125-0.125-0.0942-0.2853-0.20167-0.56511-0.3125-0.84375-0.04933-0.12585-0.10364-0.25084-0.15625-0.375-0.0037-0.009 0.0037-0.0226 0-0.0313-0.11353-0.26647-0.24674-0.523-0.375-0.78125-0.08368-0.16653-0.16133-0.33703-0.25-0.5-0.0043-0.008 0.0043-0.0234 0-0.0313-0.08928-0.16336-0.18049-0.31253-0.28125-0.46875-0.05747-0.0966-0.12793-0.18607-0.1875-0.28125-0.10436-0.15194-0.20508-0.31928-0.3125-0.46875-0.06713-0.0988-0.14934-0.18412-0.21875-0.28125-0.20708-0.28968-0.39832-0.60119-0.625-0.875-0.23065-0.27813-0.4689-0.55186-0.71875-0.8125-0.06367-0.0606-0.12277-0.12806-0.1875-0.1875-0.02075-0.0209-0.04163-0.0417-0.0625-0.0625-0.04166-0.0415-0.08286-0.084-0.125-0.125-0.64123-0.62413-1.3489-1.1855-2.0938-1.6875-0.29417-0.19789-0.59149-0.38518-0.90625-0.5625-0.1141-0.0655-0.22779-0.12493-0.34375-0.1875-0.20435-0.10869-0.41877-0.21295-0.625-0.3125-0.16768-0.0808-0.33291-0.1673-0.5-0.25-0.93431-0.40898-1.8841-0.72475-2.9062-0.9375-0.01985-0.004-0.04263 0.004-0.0625 0-0.12242-0.025-0.25129-0.0402-0.375-0.0625-0.86008-0.15299-1.7522-0.25-2.6562-0.25zm2.8438 8.0625c0.26055-0.0152 0.52808-0.005 0.78125 0.0313 0.06127 0.01 0.12718 0.019 0.1875 0.0313 0.18899 0.0359 0.38195 0.0937 0.5625 0.15625 0.06186 0.0225 0.12711 0.0371 0.1875 0.0625 0.06905 0.0278 0.12018 0.0934 0.1875 0.125 0.62595 0.30741 1.1736 0.74175 1.5625 1.3125 0.1439 0.21285 0.27344 0.41709 0.375 0.65625 0.20989 0.48121 0.31071 1.0063 0.3125 1.5625 0 0.54789-0.11009 1.0564-0.3125 1.5312-0.0055 0.0126-0.02565 0.0188-0.03125 0.0313-0.09803 0.22333-0.20777 0.45654-0.34375 0.65625-0.005 0.007 0.005 0.0238 0 0.0313-0.07612 0.10795-0.1631 0.21248-0.25 0.3125-0.02877 0.0338-0.06387 0.0609-0.09375 0.0937-0.14009 0.15032-0.27371 0.27856-0.4375 0.40625-0.0064 0.005-0.02478-0.005-0.03125 0-0.3957 0.30423-0.86296 0.54854-1.375 0.6875l-0.03125 0.0313c-2.0906 0.56016-4.2211-0.69069-4.7812-2.7812-0.56016-2.0906 0.65944-4.2523 2.75-4.8125 0.26132-0.07 0.5207-0.10976 0.78125-0.125z"/>
  <path id="path3666" d="m49.826 993.61-27.812 27.812v8h8l2-2v-3h3v-3h3l2-2v-3h3l2-2v-3h3v-3h3l6.8125-6.8125z" fill="url(#linearGradient10901)"/>
  <path id="path3772" opacity=".6" d="m49.826 993.61-27.812 27.812v1l28.219-28.219c-0.12622-0.20679-0.28992-0.38053-0.40625-0.59375z" fill="#fff"/>
  <path id="path3788" d="m50.608 996.83-28.594 28.594v3l30.375-29.437c-0.65603-0.65988-1.2564-1.3841-1.7812-2.1562z" fill="url(#linearGradient10897)"/>
  <path id="path3798" opacity=".49590" d="m54.451 998.99-23.438 23.437 1 1 23.594-23.594c-0.38616-0.26252-0.76577-0.54729-1.125-0.84375-0.0059-0.005-0.02531 0.005-0.03125 0zm-23.438 23.437-7 7h2l5-5z" fill="url(#linearGradient10894)"/>
  <path id="path4068" opacity="0.09" d="m22.014 989.43v1l40 40h8v-1h-8l-40-40z" fill="#fff"/>
  <path id="path3910" opacity=".15" d="m56.826 1000.6-6.8125 6.8124h-3v3h-3v3l-2 2h-3v3l-2 2h-3v3h-3v3l-2 2h-7v1h8l2-2v-3h3v-3h3l2-2v-3h3l2-2v-3h3v-3h3l6.8125-6.8125-1-0.9999z"/>
  <path id="path3133" opacity=".2" d="m57.326 1001.1-6.3125 6.3125h-3v1h3l6.8125-6.8125-0.5-0.5zm-12.312 9.3125v1h3v-1h-3zm0 3-2 2h-3v1h3l2-2v-1zm-5 5-2 2h-3v1h3l2-2v-1zm-8 5v1h3v-1h-3zm0 3-2 2h-8v1h8l2-2v-1z"/>
  <g id="g3151" transform="translate(-1.9861 957.43)">
   <path id="path3141" d="m65 16c-8.2843 0-15 6.7157-15 15 0 0.36632 0.0054 0.73379 0.03125 1.0938 0.01985 0.27601 0.05915 0.54073 0.09375 0.8125 0.03986 0.3131 0.09741 0.63064 0.15625 0.9375 0.01989 0.10382 0.04048 0.20945 0.0625 0.3125 0.09499 0.44451 0.21033 0.88354 0.34375 1.3125 0.14609 0.4697 0.31024 0.92636 0.5 1.375 0.07024 0.16584 0.14281 0.33732 0.21875 0.5 0.12839 0.27496 0.26198 0.54692 0.40625 0.8125 0.0043 0.0079-0.0043 0.02335 0 0.03125 1.3813 2.5319 3.4681 4.6187 6 6 0.0079 0.0043 0.02334-0.0043 0.03125 0 0.26568 0.14432 0.53726 0.27776 0.8125 0.40625 0.16514 0.07711 0.33166 0.14755 0.5 0.21875 0.44864 0.18976 0.9053 0.35391 1.375 0.5 0.42896 0.13342 0.86799 0.24876 1.3125 0.34375 0.04221 0.009 0.08266 0.02259 0.125 0.03125 0.36819 0.07552 0.74764 0.13946 1.125 0.1875 0.27177 0.0346 0.53649 0.0739 0.8125 0.09375 0.362 0.027 0.723 0.032 1.093 0.032 8.2843 0 15-6.7157 15-15 0-0.0211 0.000087-0.04142 0-0.0625-0.000134-0.04201 0.000479-0.08307 0-0.125-0.01017-0.89104-0.12223-1.7469-0.28125-2.5938-0.01711-0.09128-0.0125-0.19056-0.03125-0.28125-0.09899-0.47683-0.23189-0.94729-0.375-1.4062-0.0029-0.0094 0.003-0.02183 0-0.03125-0.14404-0.45869-0.31422-0.90532-0.5-1.3438-0.0037-0.0087 0.0037-0.02255 0-0.03125-0.18674-0.43828-0.39887-0.86564-0.625-1.2812-0.0043-0.0079 0.0043-0.02335 0-0.03125-0.28894-0.52868-0.65159-1.0125-1-1.5-0.20708-0.28968-0.39832-0.60119-0.625-0.875-0.301-0.364-0.636-0.7-0.969-1.033-0.679-0.678-1.421-1.304-2.219-1.844-0.588-0.395-1.231-0.751-1.875-1.062-0.231-0.111-0.451-0.244-0.688-0.344-0.435-0.183-0.888-0.326-1.343-0.468-0.47-0.147-0.95-0.276-1.438-0.376-0.976-0.199-1.995-0.312-3.031-0.312zm3 8c2.2042 0 3.993 1.7959 4 4 0 2.2091-1.7909 4-4 4s-4-1.7909-4-4 1.7909-4 4-4z" fill="url(#linearGradient10968)"/>
   <path id="path3759" opacity=".4" style="color:#000000" d="m65 16c-8.2843 0-15 6.7157-15 15s6.7157 15 15 15 15-6.7157 15-15v-0.0625c-0.026-8.266-6.734-14.938-15-14.938zm3 8.0312c2.2042 0 3.993 1.7821 4 3.9688 0 2.1916-1.7908 3.9688-4 3.9688s-4-1.7772-4-3.9688 1.7908-3.9688 4-3.9688z" fill="url(#radialGradient10970)"/>
   <path id="path3722" opacity=".8" style="color:#000000" d="m65 16c-8.2843 0-15 6.7157-15 15 0 4.2693 1.7935 8.1121 4.6562 10.844-2.569-2.692-4.156-6.329-4.156-10.344 0-8.2843 6.7157-15 15-15 4.0059 0 7.6529 1.5653 10.344 4.125-2.731-2.853-6.584-4.625-10.844-4.625z" fill="#fff"/>
   <path id="path3726" opacity=".6" style="color:#000000" d="m65 44c-7.1797 0-13-5.8203-13-13s5.8203-13 13-13 13 5.8203 13 13v0.03125c-0.023 7.164-5.836 12.969-13 12.969zm0-1c6.6124 0 11.979-5.3563 12-11.969v-0.031c0-6.6274-5.3726-12-12-12s-12 5.3726-12 12 5.3726 12 12 12z" fill="url(#linearGradient10972)"/>
   <path id="path3734" opacity=".3" style="color:#000000" d="m61.152 45.534c8.002 2.1441 16.227-2.6046 18.371-10.607 1.105-4.1239 0.36716-8.2999-1.691-11.679 1.7846 3.2653 2.3766 7.1889 1.3375 11.067-2.1441 8.002-10.369 12.751-18.371 10.607-3.8694-1.0368-6.987-3.4927-8.9237-6.6616 1.8996 3.4623 5.1627 6.1715 9.2772 7.274z"/>
   <path id="path3744" opacity=".8" style="color:#000000" d="m73.014 26.682c-0.72801-2.717-3.5216-4.3298-6.2385-3.6018-2.717 0.72801-4.3298 3.5216-3.6018 6.2385 0.72801 2.717 3.5216 4.3298 6.2385 3.6018l0.03019-0.0081c2.7085-0.73501 4.298-3.5196 3.5716-6.2305zm-1.1169 0.29926c0.5589 2.0858-0.67809 4.2186-2.7621 4.7842l-0.03019 0.0081c-2.0906 0.56016-4.224-0.67158-4.7842-2.7621-0.56016-2.0906 0.66349-4.2542 2.754-4.8143 2.0906-0.56016 4.2623 0.69367 4.8224 2.7842z" fill="url(#linearGradient10974)"/>
  </g>
 </g>
</svg>
