<?xml version="1.0" encoding="UTF-8" standalone="no"?>
<!-- Created with Inkscape (http://www.inkscape.org/) -->
<svg id="svg2" xmlns:rdf="http://www.w3.org/1999/02/22-rdf-syntax-ns#" xmlns="http://www.w3.org/2000/svg" height="96" width="96" version="1.1" xmlns:cc="http://creativecommons.org/ns#" xmlns:xlink="http://www.w3.org/1999/xlink" xmlns:dc="http://purl.org/dc/elements/1.1/">
 <defs id="defs4">
  <linearGradient id="linearGradient6400" y2="2.9934" gradientUnits="userSpaceOnUse" x2="47.995" y1="84.031" x1="47.995">
   <stop id="stop6396" stop-color="#ccc" offset="0"/>
   <stop id="stop6398" stop-color="#dae0de" offset="1"/>
  </linearGradient>
  <radialGradient id="radialGradient6415" gradientUnits="userSpaceOnUse" cy="-15.871" cx="56.066" gradientTransform="matrix(.0022597 .92548 -1.3844 0 25.902 -30.211)" r="35.938">
   <stop id="stop3177-8" stop-color="#4490e6" offset="0"/>
   <stop id="stop3179-85" stop-color="#103d8f" offset="1"/>
  </radialGradient>
  <clipPath id="clipPath6423" clipPathUnits="userSpaceOnUse">
   <rect id="rect6425" ry="7.8031" height="61.004" width="64.562" y="967.42" x="16.061" fill="url(#linearGradient6427)"/>
  </clipPath>
  <linearGradient id="linearGradient6427" y2="1427.6" gradientUnits="userSpaceOnUse" x2="3415" gradientTransform="matrix(.29063 0 0 .34170 -934.72 469.12)" y1="1594.7" x1="3391.4">
   <stop id="stop4911" stop-color="#1a1a1a" offset="0"/>
   <stop id="stop4913" stop-color="#7a7a7a" offset="1"/>
  </linearGradient>
 </defs>
 <metadata id="metadata7">
  <rdf:RDF>
   <cc:Work rdf:about="">
    <dc:format>image/svg+xml</dc:format>
    <dc:type rdf:resource="http://purl.org/dc/dcmitype/StillImage"/>
    <dc:title/>
   </cc:Work>
  </rdf:RDF>
 </metadata>
 <g id="layer1" transform="translate(0 -956.36)">
  <rect id="rect5263-0" fill-opacity=".019608" ry="12.724" height="89.978" width="89.624" y="959.35" x="3.3534"/>
  <rect id="rect5261-6" fill-opacity=".039216" ry="12.552" height="88.762" width="88.413" y="959.96" x="3.9589"/>
  <rect id="rect5259-9" fill-opacity=".078431" ry="12.38" height="87.546" width="87.202" y="960.57" x="4.5645"/>
  <rect id="rect5257-5" fill-opacity=".15686" ry="12.208" height="86.33" width="85.991" y="961.18" x="5.1701"/>
  <path id="rect2419" d="m17.75 5.4062c-6.642 0-11.969 5.3948-11.969 12.063l0.0002 61.031c0 6.668 5.3268 12.031 11.969 12.031h60.812c6.642 0 11.969-5.363 11.969-12.031v-61.031c0-6.668-5.327-12.063-11.969-12.063l-60.812 0.0002z" transform="translate(0 956.36)" fill="url(#linearGradient6400)"/>
  <path id="rect5265-0" d="m5.7756 1029.8v5.0663c0 6.668 5.3434 12.032 11.985 12.032h60.809c6.6418 0 11.985-5.3645 11.985-12.032v-5.0663c0 6.6681-5.3434 12.032-11.985 12.032h-60.809c-6.6418 0-11.985-5.3643-11.985-12.032z" fill-opacity=".11765"/>
  <path id="path5252-0" d="m5.7756 1033.9v1.0133c0 6.668 5.3434 12.032 11.985 12.032h60.809c6.6418 0 11.985-5.3645 11.985-12.032v-1.0133c0 6.6681-5.3434 12.032-11.985 12.032h-60.809c-6.6418 0-11.985-5.3644-11.985-12.032z" fill-opacity=".098039"/>
  <rect id="rect4891" opacity=".5" ry="7.1631" height="56" width="71.472" y="969.4" x="12.232" fill="#4d4d4d"/>
  <g id="g6406" clip-path="url(#clipPath6423)" transform="matrix(1.0793 0 0 .91797 -4.2058 83.612)">
   <g id="layer3" style="enable-background:new" transform="matrix(1 0 0 .93125 .27169 953.28)">
    <path id="path3215" d="m12.062 12.062v53.875h71.875v-53.875h-71.875z" transform="matrix(-1.0009 0 0 -1.334 96.01 99.966)" fill="url(#radialGradient6415)"/>
    <rect id="rect4832" opacity=".4" rx="3.0291" ry="2.383" height="10" width="72.536" y="74" x="11.786" fill="#c3d9f5"/>
    <rect id="rect4345" opacity=".4" rx="3.0291" ry="2.383" height="10" width="72.536" y="12" x="11.786" fill="#c3d9f5"/>
    <path id="rect3222" opacity="0.08" style="block-progression:tb;text-indent:0;color:#000000;enable-background:accumulate;text-transform:none" d="m19 13c-3.2894 0-6 2.7106-6 6v58c0 3.2894 2.7106 6 6 6h58c3.2894 0 6-2.7106 6-6v-58c0-3.2894-2.7106-6-6-6h-58zm0 4h58c1.1426 0 2 0.85741 2 2v58c0 1.1426-0.85741 2-2 2h-58c-1.1426 0-2-0.85741-2-2v-58c0-1.1426 0.85741-2 2-2z"/>
    <path id="rect3981" opacity=".1" style="color:#000000;enable-background:accumulate" d="m17 14c-1.662 0-3 1.338-3 3v62c0 1.662 1.338 3 3 3h62c1.662 0 3-1.338 3-3v-62c0-1.662-1.338-3-3-3h-62zm0 1.9375h62c0.61816 0 1.0625 0.44434 1.0625 1.0625v62c0 0.61816-0.44434 1.0625-1.0625 1.0625h-62c-0.61816 0-1.0625-0.44434-1.0625-1.0625v-62c0-0.61816 0.44434-1.0625 1.0625-1.0625z"/>
    <path id="rect3977" opacity=".25" style="color:#000000;enable-background:accumulate" d="m17 14c-1.662 0-3 1.338-3 3v62c0 1.662 1.338 3 3 3h62c1.662 0 3-1.338 3-3v-62c0-1.662-1.338-3-3-3h-62zm0 0.96875h62c1.1401 0 2.0312 0.89117 2.0312 2.0312v62c0 1.1401-0.89117 2.0312-2.0312 2.0312h-62c-1.1401 0-2.0312-0.89117-2.0312-2.0312v-62c0-1.1401 0.89117-2.0312 2.0312-2.0312z"/>
   </g>
  </g>
  <rect id="rect4935" transform="scale(1,-1)" ry=".56012" height="1.1202" width="15.011" y="-1034.4" x="61.232" fill="#999"/>
  <rect id="rect4939" transform="scale(1,-1)" ry=".56012" height="1.1202" width="15.011" y="-1033.9" x="61.232" fill="#808080"/>
  <text id="text4529" style="word-spacing:0px;letter-spacing:0px" xml:space="preserve" font-size="40px" y="1004.3673" x="27.499998" font-family="Sans" line-height="125%" fill="#ffffff"><tspan id="tspan4531" y="1004.3673" x="27.499998" font-weight="bold" fill="#ffffff">&gt;</tspan></text>
  <text id="text4533" style="word-spacing:0px;letter-spacing:0px" line-height="125%" transform="scale(-1,1)" font-size="40px" y="1020.2423" x="-69.564873" font-family="Sans" xml:space="preserve" fill="#ffffff"><tspan id="tspan4535" y="1020.2423" x="-69.564873" font-weight="bold" fill="#ffffff">&gt;</tspan></text>
 </g>
</svg>
