<?xml version="1.0" encoding="UTF-8" standalone="no"?>
<!-- Created with Inkscape (http://www.inkscape.org/) -->
<svg id="svg2" xmlns:rdf="http://www.w3.org/1999/02/22-rdf-syntax-ns#" xmlns="http://www.w3.org/2000/svg" height="96" width="96" version="1.1" xmlns:cc="http://creativecommons.org/ns#" xmlns:xlink="http://www.w3.org/1999/xlink" xmlns:dc="http://purl.org/dc/elements/1.1/">
 <defs id="defs4">
  <linearGradient id="linearGradient6400" y2="2.9934" gradientUnits="userSpaceOnUse" x2="47.995" y1="84.031" x1="47.995">
   <stop id="stop6396" stop-color="#ccc" offset="0"/>
   <stop id="stop6398" stop-color="#dae0de" offset="1"/>
  </linearGradient>
 </defs>
 <metadata id="metadata7">
  <rdf:RDF>
   <cc:Work rdf:about="">
    <dc:format>image/svg+xml</dc:format>
    <dc:type rdf:resource="http://purl.org/dc/dcmitype/StillImage"/>
    <dc:title/>
   </cc:Work>
  </rdf:RDF>
 </metadata>
 <g id="layer1" transform="translate(0 -956.36)">
  <rect id="rect5263-0" fill-opacity=".019608" ry="12.724" height="89.978" width="89.624" y="959.35" x="3.3534"/>
  <rect id="rect5261-6" fill-opacity=".039216" ry="12.552" height="88.762" width="88.413" y="959.96" x="3.9589"/>
  <rect id="rect5259-9" fill-opacity=".078431" ry="12.38" height="87.546" width="87.202" y="960.57" x="4.5645"/>
  <rect id="rect5257-5" fill-opacity=".15686" ry="12.208" height="86.33" width="85.991" y="961.18" x="5.1701"/>
  <path id="rect2419" d="m17.75 5.4062c-6.642 0-11.969 5.3948-11.969 12.063l0.0002 61.031c0 6.668 5.3268 12.031 11.969 12.031h60.812c6.642 0 11.969-5.363 11.969-12.031v-61.031c0-6.668-5.327-12.063-11.969-12.063l-60.812 0.0002z" transform="translate(0 956.36)" fill="url(#linearGradient6400)"/>
  <path id="rect5265-0" d="m5.7756 1029.8v5.0663c0 6.668 5.3434 12.032 11.985 12.032h60.809c6.6418 0 11.985-5.3645 11.985-12.032v-5.0663c0 6.6681-5.3434 12.032-11.985 12.032h-60.809c-6.6418 0-11.985-5.3643-11.985-12.032z" fill-opacity=".11765"/>
  <path id="path5252-0" d="m5.7756 1033.9v1.0133c0 6.668 5.3434 12.032 11.985 12.032h60.809c6.6418 0 11.985-5.3645 11.985-12.032v-1.0133c0 6.6681-5.3434 12.032-11.985 12.032h-60.809c-6.6418 0-11.985-5.3644-11.985-12.032z" fill-opacity=".098039"/>
  <rect id="rect4891" opacity=".5" ry="7.259" height="56.75" width="71.472" y="968.65" x="12.232" fill="#4d4d4d"/>
  <path id="rect3461-2" d="m20.281 15.312c-3.968 0-7.156 3.188-7.156 7.157v41.687c0 3.969 3.188 7.156 7.156 7.156h55.375c3.969 0 7.156-3.187 7.156-7.156v-41.687c0-3.969-3.187-7.157-7.156-7.157h-55.375z" transform="translate(0 956.36)" fill="#2b0000"/>
  <rect id="rect4935" transform="scale(1,-1)" ry="1.2796" height="2.5593" width="17.309" y="-1036.3" x="58.934" fill="#999"/>
  <rect id="rect4939" transform="scale(1,-1)" ry="1.2796" height="2.5593" width="17.309" y="-1035.4" x="58.934" fill="#808080"/>
  <path id="path4540" d="m21.826 973.44c-3.7469 0-6.7569 2.9866-6.7569 6.7044v39.056c0 3.7178 3.01 6.7044 6.7569 6.7044h52.285c3.7469 0 6.7569-2.9866 6.7569-6.7044v-39.056c0-3.7178-3.01-6.7044-6.7569-6.7044h-52.285z" fill="#800000"/>
  <rect id="rect4500" rx="0" ry=".77329" height="1.5466" width="69.875" y="999.03" x="13.125" fill="#2b0000"/>
  <rect id="rect4504" rx="0" ry="28.031" height="56.061" width="2.1472" y="971.61" x="46.989" fill="#2b0000"/>
  <path id="path4516" fill="#2b0000" d="m47.528 999.22v-12.466h-0.02149v6.0372c0 3.5493-2.1922 6.4006-4.921 6.4006h-5.4582v0.0277h10.401z"/>
  <path id="path4518" d="m14.954 999.42v-8.0754h0.01995v3.9109c0 2.2993 2.0354 4.1463 4.5691 4.1463h5.068v0.018h-9.657z" fill="#2b0000"/>
  <path id="path4522" d="m48.774 999.22v-12.466h0.02149v6.0372c0 3.5493 2.1922 6.4006 4.921 6.4006h5.4582v0.0277h-10.401z" fill="#2b0000"/>
  <path id="path4524" fill="#2b0000" d="m81.245 999.42v-8.0754h-0.01995v3.9109c0 2.2993-2.0354 4.1463-4.5691 4.1463h-5.068v0.018h9.657z"/>
  <path id="path4528" d="m47.528 1000.3v12.466h-0.02149v-6.0372c0-3.5493-2.1922-6.4006-4.921-6.4006h-5.4582v-0.028h10.401z" fill="#2b0000"/>
  <path id="path4530" fill="#2b0000" d="m14.954 1000.1v8.0754h0.01995v-3.9109c0-2.2993 2.0354-4.1463 4.5691-4.1463h5.068v-0.018h-9.657z"/>
  <path id="path4534" fill="#2b0000" d="m48.774 1000.3v12.466h0.02149v-6.0372c0-3.5493 2.1922-6.4006 4.921-6.4006h5.4582v-0.028h-10.401z"/>
  <path id="path4536" d="m81.245 1000.1v8.0754h-0.01995v-3.9109c0-2.2993-2.0354-4.1463-4.5691-4.1463h-5.068v-0.018h9.657z" fill="#2b0000"/>
  <path id="path4574" fill="#2b0000" d="m48.461 973.35h8.0754v0.0199h-3.9109c-2.2993 0-4.1463 2.0354-4.1463 4.5691v5.068h-0.018v-9.657z"/>
  <path id="path4576" d="m48.461 1026h8.0754v-0.02h-3.9109c-2.2993 0-4.1463-2.0355-4.1463-4.5692v-5.0679h-0.018v9.657z" fill="#2b0000"/>
  <path id="path4578" d="m47.737 973.35h-8.0754v0.0199h3.9109c2.2993 0 4.1463 2.0354 4.1463 4.5691v5.068h0.018v-9.657z" fill="#2b0000"/>
  <path id="path4580" fill="#2b0000" d="m47.737 1026h-8.0754v-0.02h3.9109c2.2993 0 4.1463-2.0355 4.1463-4.5692v-5.0679h0.018v9.657z"/>
 </g>
</svg>
