<?xml version="1.0" encoding="UTF-8" standalone="no"?>
<!-- Created with Inkscape (http://www.inkscape.org/) -->
<svg id="svg2408" xmlns:rdf="http://www.w3.org/1999/02/22-rdf-syntax-ns#" xmlns="http://www.w3.org/2000/svg" height="96" width="96" version="1.0" xmlns:cc="http://creativecommons.org/ns#" xmlns:xlink="http://www.w3.org/1999/xlink" xmlns:dc="http://purl.org/dc/elements/1.1/">
 <defs id="defs2410">
  <linearGradient id="ButtonShadow" y2="7.0165" gradientUnits="userSpaceOnUse" x2="45.448" gradientTransform="scale(1.0059 .99417)" y1="92.54" x1="45.448">
   <stop id="stop3750" offset="0"/>
   <stop id="stop3752" stop-opacity=".58824" offset="1"/>
  </linearGradient>
  <linearGradient id="linearGradient3737">
   <stop id="stop3739" stop-color="#fffac8" offset="0"/>
   <stop id="stop3741" stop-color="#feff67" stop-opacity="0" offset="1"/>
  </linearGradient>
  <filter id="filter3174" color-interpolation-filters="sRGB">
   <feGaussianBlur id="feGaussianBlur3176" stdDeviation="1.71"/>
  </filter>
  <linearGradient id="linearGradient3188" y2="63.893" xlink:href="#linearGradient3737" gradientUnits="userSpaceOnUse" x2="36.357" y1="6" x1="36.357"/>
  <filter id="filter3794" height="1.384" width="1.384" color-interpolation-filters="sRGB" y="-.192" x="-.192">
   <feGaussianBlur id="feGaussianBlur3796" stdDeviation="5.28"/>
  </filter>
  <linearGradient id="linearGradient3613" y2="138.66" xlink:href="#linearGradient3737" gradientUnits="userSpaceOnUse" x2="48" y1="20.221" x1="48"/>
  <radialGradient id="radialGradient3619" xlink:href="#linearGradient3737" gradientUnits="userSpaceOnUse" cy="90.172" cx="48" gradientTransform="matrix(1.1573 0 0 .99591 -7.551 .19713)" r="42"/>
  <clipPath id="clipPath3613">
   <rect id="rect3615" rx="6" ry="6" height="84" width="84" y="6" x="6" fill="#fff"/>
  </clipPath>
  <linearGradient id="ButtonShadow-0" y2="7.0165" gradientUnits="userSpaceOnUse" x2="45.448" gradientTransform="matrix(1.0059 0 0 .99417 100 0)" y1="92.54" x1="45.448">
   <stop id="stop3750-8" offset="0"/>
   <stop id="stop3752-5" stop-opacity=".58824" offset="1"/>
  </linearGradient>
  <linearGradient id="linearGradient3780" y2="90.239" xlink:href="#ButtonShadow-0" gradientUnits="userSpaceOnUse" x2="32.251" gradientTransform="matrix(1.0238 0 0 1.0119 -1.1429 -98.071)" y1="6.1317" x1="32.251"/>
  <linearGradient id="linearGradient3721" y2="90.239" xlink:href="#ButtonShadow-0" gradientUnits="userSpaceOnUse" x2="32.251" gradientTransform="translate(0,-97)" y1="6.1317" x1="32.251"/>
  <linearGradient id="linearGradient4218" y2="24.628" gradientUnits="userSpaceOnUse" x2="20.055" gradientTransform="matrix(1.8236 0 0 2.8764 4.1473 -10.571)" y1="15.298" x1="16.626">
   <stop id="stop2687-1-9-3-0-3" stop-color="#fff" offset="0"/>
   <stop id="stop2689-5-4-9-8-5" stop-color="#fff" stop-opacity="0" offset="1"/>
  </linearGradient>
  <linearGradient id="linearGradient3196" y2="5.9877" gradientUnits="userSpaceOnUse" x2="48" y1="90" x1="48">
   <stop id="stop3702" stop-color="#da4714" offset="0"/>
   <stop id="stop3704" stop-color="#ee743e" offset="1"/>
  </linearGradient>
  <linearGradient id="linearGradient3842" y2="16" gradientUnits="userSpaceOnUse" x2="56" y1="80" x1="56">
   <stop id="stop5107-4" stop-color="#f5f5f5" offset="0"/>
   <stop id="stop5109-4" stop-color="#ebebeb" offset="1"/>
  </linearGradient>
 </defs>
 <metadata id="metadata2413">
  <rdf:RDF>
   <cc:Work rdf:about="">
    <dc:format>image/svg+xml</dc:format>
    <dc:type rdf:resource="http://purl.org/dc/dcmitype/StillImage"/>
    <dc:title/>
   </cc:Work>
  </rdf:RDF>
 </metadata>
 <g id="layer2" display="none">
  <rect id="rect3745" opacity=".9" rx="6" ry="6" height="85" filter="url(#filter3174)" width="86" y="7" x="5" fill="url(#ButtonShadow)"/>
 </g>
 <g id="layer3">
  <path id="path3786" opacity="0.08" d="m12-95.031c-5.5111 0-10.031 4.5202-10.031 10.031v71c0 5.5111 4.5202 10.031 10.031 10.031h72c5.5111 0 10.031-4.5202 10.031-10.031v-71c0-5.5111-4.5202-10.031-10.031-10.031h-72z" transform="scale(1,-1)" fill="url(#linearGradient3780)"/>
  <path id="path3778" opacity=".1" d="m12-94.031c-4.9716 0-9.0312 4.0596-9.0312 9.0312v71c0 4.9716 4.0596 9.0312 9.0312 9.0312h72c4.9716 0 9.0312-4.0596 9.0312-9.0312v-71c0-4.9716-4.0596-9.0312-9.0312-9.0312h-72z" transform="scale(1,-1)" fill="url(#linearGradient3780)"/>
  <path id="path3770" opacity=".2" d="m12-93c-4.4091 0-8 3.5909-8 8v71c0 4.4091 3.5909 8 8 8h72c4.4091 0 8-3.5909 8-8v-71c0-4.4091-3.5909-8-8-8h-72z" transform="scale(1,-1)" fill="url(#linearGradient3780)"/>
  <rect id="rect3723" opacity=".3" transform="scale(1,-1)" rx="7" ry="7" height="85" width="86" y="-92" x="5" fill="url(#linearGradient3780)"/>
  <rect id="rect3716" opacity=".45" transform="scale(1,-1)" rx="6" ry="6" height="84" width="84" y="-91" x="6" fill="url(#linearGradient3721)"/>
 </g>
 <g id="layer1">
  <rect id="rect2419" rx="6" ry="6" height="84" width="84" y="6" x="6" fill="url(#linearGradient3196)"/>
  <path id="path5237-7" opacity=".2" style="enable-background:new" d="m12 6c-3.3136 0-5.9834 2.6592-6 5.969-0.0001 0.01 0 0.021 0 0.031l0.0312 46.906c2.4166-0.053 82.135-19.53 83.969-20.468v-26.438c0-3.324-2.676-6-6-6h-72z" fill-rule="evenodd" fill="url(#linearGradient4218)"/>
  <path id="rect3728" opacity=".35" d="m12 6c-3.324 0-6 2.676-6 6v2 68 2c0 0.33472 0.04135 0.6507 0.09375 0.96875 0.0487 0.2956 0.09704 0.59692 0.1875 0.875 0.00988 0.03038 0.020892 0.0636 0.03125 0.09375 0.098865 0.28777 0.23488 0.54745 0.375 0.8125 0.14459 0.27351 0.31562 0.53562 0.5 0.78125 0.18438 0.24564 0.37378 0.47347 0.59375 0.6875 0.43995 0.42806 0.94291 0.81453 1.5 1.0938 0.27854 0.13961 0.57347 0.24695 0.875 0.34375-0.2562-0.10022-0.48671-0.23627-0.71875-0.375-0.00741-0.0044-0.023866 0.0045-0.03125 0-0.031933-0.0193-0.062293-0.04251-0.09375-0.0625-0.1204-0.0767-0.23102-0.16351-0.34375-0.25-0.10617-0.0808-0.21328-0.16111-0.3125-0.25-0.1778-0.162-0.3473-0.346-0.4999-0.531-0.1075-0.131-0.2183-0.266-0.3124-0.407-0.0251-0.038-0.0385-0.086-0.0626-0.125-0.0647-0.103-0.1302-0.204-0.1874-0.312-0.1011-0.195-0.2057-0.416-0.2813-0.625-0.008-0.022-0.0236-0.041-0.0313-0.063-0.0318-0.092-0.0358-0.187-0.0624-0.281-0.0304-0.107-0.0704-0.203-0.0938-0.313-0.0729-0.341-0.125-0.698-0.125-1.062v-2-68-2c0-2.782 2.2182-5 5-5h2 68 2c2.7818 0 5 2.2182 5 5v2 68 2c0 0.3643-0.05212 0.72099-0.125 1.0625-0.04415 0.20689-0.08838 0.39766-0.15625 0.59375-0.0077 0.02195-0.0233 0.04069-0.03125 0.0625-0.06274 0.17374-0.13838 0.36745-0.21875 0.53125-0.04158 0.0828-0.07904 0.16995-0.125 0.25-0.0546 0.09721-0.12677 0.18835-0.1875 0.28125-0.09411 0.14096-0.20492 0.276-0.3125 0.40625-0.14317 0.17445-0.30314 0.347-0.46875 0.5-0.01117 0.0102-0.01998 0.02115-0.03125 0.03125-0.13839 0.12556-0.28509 0.23444-0.4375 0.34375-0.10257 0.07315-0.20432 0.15336-0.3125 0.21875-0.0074 0.0045-0.02384-0.0044-0.03125 0-0.23204 0.13873-0.46255 0.27478-0.71875 0.375 0.30153-0.0968 0.59646-0.20414 0.875-0.34375 0.55709-0.27922 1.0601-0.66569 1.5-1.0938 0.21997-0.21403 0.40937-0.44186 0.59375-0.6875s0.35541-0.50774 0.5-0.78125c0.14012-0.26505 0.27614-0.52473 0.375-0.8125 0.01041-0.03078 0.02133-0.06274 0.03125-0.09375 0.09046-0.27808 0.1388-0.5794 0.1875-0.875 0.053-0.318 0.094-0.634 0.094-0.969v-2-68-2c0-3.324-2.676-6-6-6h-72z" fill="url(#linearGradient3188)"/>
  <path id="path3615" opacity=".2" d="m12 90c-3.324 0-6-2.676-6-6v-2-68-2c0-0.33472 0.04135-0.6507 0.09375-0.96875 0.0487-0.2956 0.09704-0.59692 0.1875-0.875 0.0099-0.03 0.0209-0.063 0.0313-0.094 0.0989-0.2873 0.2349-0.547 0.375-0.812 0.1446-0.2735 0.3156-0.5356 0.5-0.7812 0.1844-0.2457 0.3738-0.4735 0.5937-0.6876 0.44-0.428 0.943-0.8145 1.5-1.0937 0.2786-0.1396 0.5735-0.2469 0.8748-0.3437-0.256 0.1002-0.4865 0.2362-0.7185 0.375-0.00741 0.0044-0.023866-0.0045-0.03125 0-0.031933 0.0193-0.062293 0.04251-0.09375 0.0625-0.1204 0.0767-0.23102 0.16351-0.34375 0.25-0.10617 0.0808-0.21328 0.16111-0.3125 0.25-0.1779 0.1614-0.3474 0.3453-0.5 0.5312-0.1075 0.1303-0.2183 0.2653-0.3124 0.4063-0.0251 0.0383-0.0385 0.0858-0.0626 0.125-0.0647 0.103-0.1302 0.2045-0.1874 0.3124-0.1011 0.1948-0.2057 0.4158-0.2813 0.625-0.008 0.0219-0.0236 0.0406-0.0313 0.0626-0.0318 0.0919-0.0358 0.1868-0.0624 0.2812-0.0304 0.1066-0.0704 0.203-0.0938 0.3125-0.0729 0.3415-0.125 0.6985-0.125 1.0625v2 68 2c0 2.7818 2.2182 5 5 5h2 68 2c2.7818 0 5-2.2182 5-5v-2-68-2c0-0.364-0.052-0.721-0.125-1.0625-0.044-0.2069-0.088-0.3977-0.156-0.5937-0.008-0.022-0.024-0.0407-0.031-0.0626-0.063-0.1737-0.139-0.3674-0.219-0.5312-0.042-0.0828-0.079-0.17-0.125-0.25-0.055-0.0972-0.127-0.1884-0.188-0.2812-0.094-0.141-0.205-0.276-0.312-0.4063-0.143-0.1745-0.303-0.347-0.469-0.5-0.011-0.0102-0.02-0.0211-0.031-0.0313-0.139-0.1255-0.285-0.2344-0.438-0.3437-0.102-0.0731-0.204-0.1534-0.312-0.2187-0.0074-0.0045-0.02384 0.0044-0.03125 0-0.23204-0.13873-0.46255-0.27478-0.71875-0.375 0.30153 0.0968 0.59646 0.20414 0.875 0.34375 0.55709 0.27922 1.0601 0.66569 1.5 1.0938 0.21997 0.21403 0.40937 0.44186 0.59375 0.6875s0.35541 0.50774 0.5 0.78125c0.14012 0.26505 0.27614 0.52473 0.375 0.8125 0.01041 0.03078 0.02133 0.06274 0.03125 0.09375 0.09046 0.27808 0.1388 0.5794 0.1875 0.875 0.053 0.318 0.094 0.634 0.094 0.969v2 68 2c0 3.324-2.676 6-6 6h-72z" fill="url(#radialGradient3619)"/>
  <path id="path3066" fill="#dd4814" d="m-206.69-38.028c-3.8732 0.01333-9.2421 0.09375-15.062 0.09375h-21.156l0.5 45.75c0.41146 38.16 0.77167 46.998 2.1875 53.219 5.3228 23.388 19.642 36.795 42.719 40.031 12.492 1.7517 37.721-0.28617 57.562-4.625l7.25-1.5625v-66.406-66.406h-18.5-18.5v52.5 52.5h-17-17v-36.5-36.5h-7.5c-4.125 0-7.6562 0.20915-7.6562-0.09375s4.0574-7.6341 8.8125-15.719c4.7552-8.0846 9.2727-15.619 9.5-16.031 0.11365-0.20625-2.283-0.26333-6.1562-0.25z"/>
 </g>
 <g id="layer5">
  <rect id="rect3171" height="66" stroke="#fff" stroke-linecap="round" stroke-width=".5" fill="url(#linearGradient3613)" rx="12" ry="12" width="66" opacity=".1" clip-path="url(#clipPath3613)" filter="url(#filter3794)" y="15" x="15"/>
 </g>
 <g id="layer4">
  <path id="path3884" opacity=".05" d="m42 18.031c-6.1153 0.03095-12.241-0.01967-18.375 0.0625a0.99302 0.99302 0 0 0 -0.187 0.031c-1.1963 0.22478-1.9543 1.1882-2.2188 2.0938-0.25788 0.88303-0.23499 1.7382-0.1875 2.4375 0.0012 0.01783-0.0012 0.04491 0 0.0625 0.08708 11.52-0.28854 23.094 0.4375 34.688 0.42382 8.3921 4.516 17.058 12.281 21.188 7.9569 4.442 17.216 3.5628 25.562 2.7188a0.99302 0.99302 0 0 0 0.03125 0c4.6423-0.57492 9.3345-1.2847 13.906-2.5a0.99302 0.99302 0 0 0 0.28125 -0.125c1.09-0.718 1.438-1.94 1.47-2.908 0.032-0.967-0.096-1.849-0.031-2.406a0.99302 0.99302 0 0 0 0 -0.125c-0.021-17.526 0.041-35.064-0.031-52.594a0.99302 0.99302 0 0 0 -0.03125 -0.1875c-0.23887-1.2386-1.2533-2.0064-2.1875-2.25-0.92272-0.24058-1.8108-0.1886-2.5-0.15625-0.01039 0.000025-0.02086-0.000024-0.03125 0-4.8425 0.01105-9.6934-0.06482-14.562 0a0.99302 0.99302 0 0 0 -0.1875 0.03125c-1.1963 0.22478-1.9543 1.1882-2.2188 2.0938-0.25788 0.88303-0.23499 1.7382-0.1875 2.4375 0.0012 0.01783-0.0012 0.04491 0 0.0625v39.344h-10.062c-0.016-9.463 0.038-18.933-0.032-28.406a0.99302 0.99302 0 0 0 -0.03125 -0.1875c-0.22478-1.1963-1.1882-1.9543-2.0938-2.2188-0.56617-0.16535-1.0455-0.1281-1.5625-0.125 0.06685-0.10126 0.12645-0.21658 0.1875-0.34375 0.02357-0.0393 0.03887-0.0857 0.0625-0.125 0.0063-0.01532 0.02512-0.01543 0.03125-0.03125 1.6989-2.8221 3.5744-5.5973 5.2188-8.5312a0.99302 0.99302 0 0 0 0.09375 -0.21875c0.525-1.848-0.871-3.826-2.845-3.813z" fill="#932d00"/>
  <path id="path3878" opacity=".1" d="m42 19.031c-6.1241 0.031-12.255-0.01948-18.375 0.0625-1.6874 0.31706-1.6871 2.2025-1.5938 3.5542 0.08912 11.567-0.27323 23.15 0.4502 34.702 0.40928 8.1041 4.3498 16.448 11.73 20.373 7.6177 4.2526 16.673 3.4331 25.012 2.5899 4.626-0.574 9.277-1.273 13.777-2.469 1.542-1.015 0.791-3.065 0.969-4.598-0.021-17.529 0.041-35.065-0.031-52.59-0.34016-1.7638-2.3249-1.6613-3.7159-1.5972-4.8647 0.01148-9.7362-0.0612-14.597 0.0035-1.6874 0.31706-1.6871 2.2025-1.5938 3.5542v40.415h-12.062c-0.0208-9.8012 0.04162-19.609-0.03125-29.406-0.31706-1.6874-2.2025-1.6871-3.5542-1.5938-1.6528 0.36748-0.05624-1.0804 0.21859-1.7898 1.739-2.902 3.623-5.737 5.272-8.68 0.347-1.219-0.577-2.539-1.875-2.531z" fill="#932d00"/>
  <path id="path3874" opacity=".15" d="m42 20.031-18 0.031a0.9642 0.9642 0 0 0 -0.96875 0.96875v18.969c0 15.788 0.55111 19.678 1.1875 22.344 2.3897 10.009 9.0928 15.992 19.438 17.375 5.7083 0.763 16.635-0.14694 25.375-1.9688l3.1562-0.65625a0.9642 0.9642 0 0 0 0.78125 -0.9375v-55.125a0.9642 0.9642 0 0 0 -0.969 -0.969l-16-0.031a0.9642 0.9642 0 0 0 -0.969 0.969v43.031h-14.062v-30.031a0.9642 0.9642 0 0 0 -0.969 -0.969h-4.2812l7.093-11.531a0.9642 0.9642 0 0 0 -0.812 -1.469z" fill="#932d00"/>
  <path id="path3870" opacity=".3" d="m24 21.04v18.96c0 15.766 0.55381 19.54 1.1704 22.122 2.3181 9.7087 8.5542 15.274 18.604 16.617 5.4401 0.72715 16.427-0.11879 25.068-1.9199l3.158-0.648v-55.131l-16-0.04v44h-16v-31h-6l8-13z" fill="#932d00"/>
  <path id="path3865" fill="url(#linearGradient3842)" d="m24 20.04v18.96c0 15.766 0.55381 19.54 1.1704 22.122 2.3181 9.7087 8.5542 15.274 18.604 16.617 5.4401 0.72715 16.427-0.11879 25.068-1.9199l3.158-0.648v-55.131l-16-0.04v44h-16v-31h-6l8-13z"/>
  <path id="path3844" fill="#fff" d="m42 20-18 0.03125v1l17.375-0.031 0.625-1zm14 0v1l16 0.03125v-1l-16-0.031zm-21.375 13-0.625 1h6v-1h-5.375zm5.375 31v1h16v-1h-16z"/>
 </g>
</svg>
