<?xml version="1.0" encoding="UTF-8" standalone="no"?>
<!-- Created with Inkscape (http://www.inkscape.org/) -->
<svg id="svg2408" xmlns:rdf="http://www.w3.org/1999/02/22-rdf-syntax-ns#" xmlns="http://www.w3.org/2000/svg" height="96" width="96" version="1.0" xmlns:cc="http://creativecommons.org/ns#" xmlns:xlink="http://www.w3.org/1999/xlink" xmlns:dc="http://purl.org/dc/elements/1.1/">
 <defs id="defs2410">
  <linearGradient id="ButtonShadow" y2="7.0165" gradientUnits="userSpaceOnUse" x2="45.448" gradientTransform="scale(1.0059 .99417)" y1="92.54" x1="45.448">
   <stop id="stop3750" offset="0"/>
   <stop id="stop3752" stop-opacity=".58824" offset="1"/>
  </linearGradient>
  <linearGradient id="linearGradient3737">
   <stop id="stop3739" stop-color="#fff" offset="0"/>
   <stop id="stop3741" stop-color="#fff" stop-opacity="0" offset="1"/>
  </linearGradient>
  <filter id="filter3174" color-interpolation-filters="sRGB">
   <feGaussianBlur id="feGaussianBlur3176" stdDeviation="1.71"/>
  </filter>
  <linearGradient id="linearGradient3188" y2="63.893" xlink:href="#linearGradient3737" gradientUnits="userSpaceOnUse" x2="36.357" y1="6" x1="36.357"/>
  <filter id="filter3794" height="1.384" width="1.384" color-interpolation-filters="sRGB" y="-.192" x="-.192">
   <feGaussianBlur id="feGaussianBlur3796" stdDeviation="5.28"/>
  </filter>
  <linearGradient id="linearGradient3613" y2="138.66" xlink:href="#linearGradient3737" gradientUnits="userSpaceOnUse" x2="48" y1="20.221" x1="48"/>
  <radialGradient id="radialGradient3619" xlink:href="#linearGradient3737" gradientUnits="userSpaceOnUse" cy="90.172" cx="48" gradientTransform="matrix(1.1573 0 0 .99591 -7.551 .19713)" r="42"/>
  <clipPath id="clipPath3613">
   <rect id="rect3615" rx="6" ry="6" height="84" width="84" y="6" x="6" fill="#fff"/>
  </clipPath>
  <linearGradient id="linearGradient3617" y2="5.9877" gradientUnits="userSpaceOnUse" x2="48" y1="90" x1="48">
   <stop id="stop3189" stop-color="#282828" offset="0"/>
   <stop id="stop3191" stop-color="#5a5a5a" offset="1"/>
  </linearGradient>
  <linearGradient id="linearGradient3386">
   <stop id="stop3388" stop-color="#eeeeec" offset="0"/>
   <stop id="stop3390" stop-color="#eeeeec" stop-opacity="0" offset="1"/>
  </linearGradient>
  <radialGradient id="radialGradient3904" xlink:href="#linearGradient3386" gradientUnits="userSpaceOnUse" cy="66.598" cx="53.419" gradientTransform="matrix(1.0164 0 0 1.2415 -19.338 -31.113)" r="47.725"/>
  <radialGradient id="radialGradient3929" xlink:href="#linearGradient3386" gradientUnits="userSpaceOnUse" cy="66.598" cx="53.419" gradientTransform="matrix(1.0221 0 0 1.2415 -19.896 -47.863)" r="47.725"/>
  <radialGradient id="radialGradient3933" xlink:href="#linearGradient3386" gradientUnits="userSpaceOnUse" cy="66.598" cx="53.419" gradientTransform="matrix(1.475 0 0 .84786 -55.737 -9.8942)" r="47.725"/>
  <radialGradient id="radialGradient3937" xlink:href="#linearGradient3386" gradientUnits="userSpaceOnUse" cy="66.598" cx="53.419" gradientTransform="matrix(1.475 0 0 .84786 -77.737 -9.8942)" r="47.725"/>
  <radialGradient id="radialGradient4114" xlink:href="#linearGradient3386" gradientUnits="userSpaceOnUse" cy="66.598" cx="53.419" gradientTransform="matrix(1.0199 0 0 .85846 -19.873 -11.927)" r="47.725"/>
  <radialGradient id="radialGradient4116" xlink:href="#linearGradient3386" gradientUnits="userSpaceOnUse" cy="66.598" cx="53.419" gradientTransform="matrix(1.0199 0 0 .85846 -19.686 -9.2682)" r="47.725"/>
  <linearGradient id="linearGradient3299">
   <stop id="stop3301" stop-color="#dfdfdf" offset="0"/>
   <stop id="stop3303" stop-color="#434343" offset="1"/>
  </linearGradient>
  <linearGradient id="linearGradient3260" gradientUnits="userSpaceOnUse">
   <stop id="stop3262" offset="0"/>
   <stop id="stop3266" stop-opacity=".35484" offset=".2"/>
   <stop id="stop3268" stop-opacity="0" offset=".55255"/>
   <stop id="stop3264" stop-opacity="0" offset="1"/>
  </linearGradient>
  <linearGradient id="linearGradient4262" y2="34.001" xlink:href="#linearGradient3260" gradientUnits="userSpaceOnUse" x2="43.477" gradientTransform="matrix(.72414 0 0 .75 1.6552 4.5)" y1="26" x1="43.477"/>
  <linearGradient id="linearGradient4310" y2="11.925" xlink:href="#linearGradient3260" gradientUnits="userSpaceOnUse" x2="48" gradientTransform="matrix(1 0 0 1.25 0 -4.5982)" y1="16" x1="48"/>
  <linearGradient id="linearGradient4320" y2="20.33" gradientUnits="userSpaceOnUse" x2="50.464" gradientTransform="translate(0 -.67857)" y1="16.036" x1="50.464">
   <stop id="stop4316" stop-color="#fff" offset="0"/>
   <stop id="stop4322" stop-color="#fff" stop-opacity=".49804" offset="0.3"/>
   <stop id="stop4318" stop-color="#fff" stop-opacity="0" offset="1"/>
  </linearGradient>
  <linearGradient id="linearGradient4326" y2="11.925" xlink:href="#linearGradient3260" gradientUnits="userSpaceOnUse" x2="48" gradientTransform="matrix(1 0 0 1.25 0 4.4018)" y1="16" x1="48"/>
  <linearGradient id="linearGradient4371" y2="24" gradientUnits="userSpaceOnUse" x2="16" gradientTransform="matrix(.81331 0 0 .81133 3.9935 2.0282)" y1="10.442" x1="11">
   <stop id="stop3275" stop-color="#5d5d5d" offset="0"/>
   <stop id="stop3277" stop-color="#171717" offset="1"/>
  </linearGradient>
  <linearGradient id="linearGradient4373" y2="24.5" gradientUnits="userSpaceOnUse" x2="19.25" gradientTransform="matrix(.81331 0 0 .81133 3.9935 2.0282)" y1="9.9419" x1="13.125">
   <stop id="stop3291" stop-color="#919191" offset="0"/>
   <stop id="stop3293" stop-color="#232323" offset="1"/>
  </linearGradient>
  <radialGradient id="radialGradient4375" xlink:href="#linearGradient3299" gradientUnits="userSpaceOnUse" cy="14.938" cx="11.312" r="1.4375"/>
  <linearGradient id="ButtonShadow-0" y2="7.0165" gradientUnits="userSpaceOnUse" x2="45.448" gradientTransform="matrix(1.0059 0 0 .99417 100 0)" y1="92.54" x1="45.448">
   <stop id="stop3750-8" offset="0"/>
   <stop id="stop3752-5" stop-opacity=".58824" offset="1"/>
  </linearGradient>
  <linearGradient id="linearGradient3780" y2="90.239" xlink:href="#ButtonShadow-0" gradientUnits="userSpaceOnUse" x2="32.251" gradientTransform="matrix(1.0238 0 0 1.0119 -1.1429 -98.071)" y1="6.1317" x1="32.251"/>
  <linearGradient id="linearGradient3721" y2="90.239" xlink:href="#ButtonShadow-0" gradientUnits="userSpaceOnUse" x2="32.251" gradientTransform="translate(0,-97)" y1="6.1317" x1="32.251"/>
  <clipPath id="clipPath4833">
   <rect id="rect4835" rx="5.2072" ry="5.2072" height="72.901" width="72.901" y="3.8613" x="12.964" fill="url(#linearGradient4837)"/>
  </clipPath>
  <filter id="filter4839" color-interpolation-filters="sRGB">
   <feGaussianBlur id="feGaussianBlur4841" stdDeviation="1.0679101"/>
  </filter>
  <filter id="filter3950" height="1.2307" width="1.0781" color-interpolation-filters="sRGB" y="-.11535" x="-.039040">
   <feGaussianBlur id="feGaussianBlur3952" stdDeviation="0.53403609"/>
  </filter>
  <linearGradient id="linearGradient556">
   <stop id="stop557" stop-color="#7d7d7d" offset="0"/>
   <stop id="stop8106" stop-color="#ddd" offset=".25"/>
   <stop id="stop8096" stop-color="#fff" offset=".5"/>
   <stop id="stop8108" stop-color="#c2c2c2" offset=".75"/>
   <stop id="stop558" stop-color="#868686" offset="1"/>
  </linearGradient>
  <linearGradient id="linearGradient3997">
   <stop id="stop3999" stop-color="#fff" stop-opacity="0" offset="0"/>
   <stop id="stop4001" stop-color="#fff" stop-opacity="0" offset="1"/>
  </linearGradient>
  <filter id="filter11385" color-interpolation-filters="sRGB">
   <feGaussianBlur id="feGaussianBlur11387" stdDeviation="0.45960596"/>
  </filter>
  <linearGradient id="linearGradient4426" y2="46.708" gradientUnits="userSpaceOnUse" x2="22.245" gradientTransform="translate(100,48)" y1="29.046" x1="22.068">
   <stop id="stop8078-1" stop-color="#cf6714" offset="0"/>
   <stop id="stop8080-3" stop-color="#d3790b" offset=".20227"/>
   <stop id="stop8082-8" stop-color="#f08300" offset=".51163"/>
   <stop id="stop8084-0" stop-color="#f3b230" offset=".78421"/>
   <stop id="stop8086-9" stop-color="#d24118" stop-opacity=".92157" offset="1"/>
  </linearGradient>
  <linearGradient id="linearGradient4428" y2="79" gradientUnits="userSpaceOnUse" x2="123" y1="92" x1="123">
   <stop id="stop4253" stop-color="#ffcd65" offset="0"/>
   <stop id="stop4255" stop-color="#ffcd65" stop-opacity="0" offset="1"/>
  </linearGradient>
  <linearGradient id="linearGradient4430" y2="19.932" gradientUnits="userSpaceOnUse" x2="34.751" gradientTransform="matrix(.99861 0 0 .99949 100.53 46.756)" y1="19.502" x1="12.349">
   <stop id="stop5163" stop-color="#c74900" offset="0"/>
   <stop id="stop3195" stop-color="#e8860e" offset=".20227"/>
   <stop id="stop3435" stop-color="#ffac24" offset=".51163"/>
   <stop id="stop3193" stop-color="#e8860e" offset=".75581"/>
   <stop id="stop3187" stop-color="#7a400e" offset="1"/>
  </linearGradient>
  <linearGradient id="linearGradient4432" y2="22.724" gradientUnits="userSpaceOnUse" x2="21.07" gradientTransform="matrix(.99861 0 0 .99949 100.53 46.756)" y1="21.636" x1="14.863">
   <stop id="stop4039" stop-color="#ea690e" offset="0"/>
   <stop id="stop4041" stop-color="#ea690e" stop-opacity="0" offset="1"/>
  </linearGradient>
  <linearGradient id="linearGradient4434" y2="17.831" gradientUnits="userSpaceOnUse" x2="22.68" gradientTransform="matrix(.92575 -.37477 .37444 .92656 97.067 57.293)" y1="19.421" x1="28.228">
   <stop id="stop4031" stop-color="#a54a0a" offset="0"/>
   <stop id="stop4033-0" stop-color="#f78300" stop-opacity="0" offset="1"/>
  </linearGradient>
  <linearGradient id="linearGradient4436" y2="12.609" xlink:href="#linearGradient556" gradientUnits="userSpaceOnUse" x2="30.441" y1="12.609" x1="16.369"/>
  <linearGradient id="linearGradient4438" y2="30.341" xlink:href="#linearGradient556" gradientUnits="userSpaceOnUse" x2="37.146" y1="30.341" x1="10.878"/>
  <linearGradient id="linearGradient4440" y2="66.958" xlink:href="#linearGradient3737" gradientUnits="userSpaceOnUse" x2="36.992" gradientTransform="matrix(.78245 0 0 .78314 85.825 33.076)" y1="45.366" x1="41.295"/>
  <linearGradient id="linearGradient4442" y2="66.958" xlink:href="#linearGradient3997" gradientUnits="userSpaceOnUse" x2="36.992" gradientTransform="matrix(.78245 0 0 .78314 85.825 33.076)" y1="54.331" x1="39.522"/>
  <linearGradient id="linearGradient4448" y2="84.336" gradientUnits="userSpaceOnUse" x2="111.25" y1="84.181" x1="135.12">
   <stop id="stop4397" stop-color="#dd540e" offset="0"/>
   <stop id="stop4399" stop-color="#dd540e" stop-opacity="0" offset="1"/>
  </linearGradient>
  <linearGradient id="linearGradient4456" y2="29.961" gradientUnits="userSpaceOnUse" x2="75.256" y1="51.174" x1="56.821">
   <stop id="stop4799" offset="0"/>
   <stop id="stop4801" stop-opacity="0" offset="1"/>
  </linearGradient>
  <linearGradient id="linearGradient4458" y2="35.496" gradientUnits="userSpaceOnUse" x2="28.738" y1="58.877" x1="53.286">
   <stop id="stop4845" stop-color="#f60" offset="0"/>
   <stop id="stop4847" stop-color="#f60" stop-opacity="0" offset="1"/>
  </linearGradient>
 </defs>
 <metadata id="metadata2413">
  <rdf:RDF>
   <cc:Work rdf:about="">
    <dc:format>image/svg+xml</dc:format>
    <dc:type rdf:resource="http://purl.org/dc/dcmitype/StillImage"/>
    <dc:title/>
   </cc:Work>
  </rdf:RDF>
 </metadata>
 <g id="layer2" display="none">
  <rect id="rect3745" opacity=".9" rx="6" ry="6" height="85" filter="url(#filter3174)" width="86" y="7" x="5" fill="url(#ButtonShadow)"/>
 </g>
 <g id="layer7">
  <path id="path3786" opacity="0.08" d="m12-95.031c-5.5111 0-10.031 4.5202-10.031 10.031v71c0 5.5111 4.5202 10.031 10.031 10.031h72c5.5111 0 10.031-4.5202 10.031-10.031v-71c0-5.5111-4.5202-10.031-10.031-10.031h-72z" transform="scale(1,-1)" fill="url(#linearGradient3780)"/>
  <path id="path3778" opacity=".1" d="m12-94.031c-4.9716 0-9.0312 4.0596-9.0312 9.0312v71c0 4.9716 4.0596 9.0312 9.0312 9.0312h72c4.9716 0 9.0312-4.0596 9.0312-9.0312v-71c0-4.9716-4.0596-9.0312-9.0312-9.0312h-72z" transform="scale(1,-1)" fill="url(#linearGradient3780)"/>
  <path id="path3770" opacity=".2" d="m12-93c-4.4091 0-8 3.5909-8 8v71c0 4.4091 3.5909 8 8 8h72c4.4091 0 8-3.5909 8-8v-71c0-4.4091-3.5909-8-8-8h-72z" transform="scale(1,-1)" fill="url(#linearGradient3780)"/>
  <rect id="rect3723" opacity=".3" transform="scale(1,-1)" rx="7" ry="7" height="85" width="86" y="-92" x="5" fill="url(#linearGradient3780)"/>
  <rect id="rect3716" opacity=".45" transform="scale(1,-1)" rx="6" ry="6" height="84" width="84" y="-91" x="6" fill="url(#linearGradient3721)"/>
 </g>
 <g id="layer1">
  <rect id="rect2419" rx="6" ry="6" height="84" width="84" y="6" x="6" fill="url(#linearGradient3617)"/>
  <path id="path3890" opacity=".8" d="m36.562 32.062c-0.3193 0.000003-0.56595 0.04413-0.75 0.125-0.18266 0.07948-0.31423 0.17168-0.40625 0.3125-0.09063 0.13944-0.15625 0.31119-0.15625 0.46875 0 0.23983 0.10278 0.40773 0.28125 0.5625 0.17708 0.15477 0.45949 0.28158 0.875 0.375 0.25377 0.05577 0.43028 0.12476 0.5 0.1875 0.07 0.063 0.094 0.14 0.094 0.219-0.000002 0.08366-0.01985 0.15461-0.09375 0.21875-0.07251 0.06275-0.17725 0.09375-0.3125 0.09375-0.18126 0.000001-0.3399-0.0634-0.4375-0.1875-0.05996-0.07669-0.10548-0.19734-0.125-0.34375l-0.875 0.0625c0.02649 0.30954 0.11172 0.58047 0.3125 0.78125s0.57227 0.28125 1.0938 0.28125c0.29699 0 0.55479-0.03995 0.75-0.125 0.1952-0.08645 0.32874-0.20907 0.4375-0.375 0.10876-0.16592 0.1875-0.33465 0.1875-0.53125-0.000003-0.16732-0.04274-0.3335-0.125-0.46875-0.08087-0.13525-0.22638-0.25312-0.40625-0.34375-0.17848-0.09202-0.46088-0.16076-0.875-0.25-0.167-0.035-0.268-0.085-0.312-0.125-0.046-0.039-0.094-0.076-0.094-0.125 0-0.06693 0.03798-0.14148 0.09375-0.1875 0.05577-0.0474 0.13985-0.0625 0.25-0.0625 0.13385 0 0.2372 0.03101 0.3125 0.09375 0.07669 0.06275 0.13254 0.17446 0.15625 0.3125l0.875-0.0625c-0.04-0.317-0.138-0.542-0.344-0.687-0.205-0.146-0.515-0.218-0.907-0.219zm14.969 0c-0.49778 0.000003-0.87738 0.12739-1.1562 0.40625-0.27887 0.27887-0.4375 0.68694-0.4375 1.1875 0 0.35834 0.07792 0.63657 0.21875 0.875s0.33662 0.4211 0.5625 0.53125c0.22728 0.11015 0.49795 0.15625 0.84375 0.15625 0.34022 0 0.61647-0.06062 0.84375-0.1875 0.22867-0.12828 0.41134-0.30258 0.53125-0.53125 0.1213-0.23006 0.1875-0.51666 0.1875-0.875-0.000004-0.49359-0.13018-0.88296-0.40625-1.1562-0.27608-0.27468-0.67718-0.40625-1.1875-0.40625zm3.375 0c-0.3193 0.000003-0.5972 0.04413-0.78125 0.125-0.18266 0.07948-0.31422 0.17168-0.40625 0.3125-0.09063 0.13944-0.125 0.31119-0.125 0.46875 0 0.23983 0.07153 0.40773 0.25 0.5625 0.17708 0.15477 0.49074 0.28158 0.90625 0.375 0.25377 0.05577 0.39903 0.12476 0.46875 0.1875 0.06972 0.06275 0.125 0.13927 0.125 0.21875-0.000002 0.08366-0.0511 0.15461-0.125 0.21875-0.072 0.063-0.177 0.094-0.312 0.094-0.181 0-0.308-0.063-0.406-0.187-0.06-0.077-0.105-0.198-0.125-0.344l-0.90625 0.0625c0.02649 0.30954 0.14297 0.58047 0.34375 0.78125s0.57227 0.28125 1.0938 0.28125c0.29699 0 0.52354-0.03995 0.71875-0.125 0.1952-0.08645 0.35999-0.20907 0.46875-0.375 0.10876-0.16592 0.15625-0.33465 0.15625-0.53125-0.000003-0.16732-0.04274-0.3335-0.125-0.46875-0.081-0.134-0.195-0.252-0.375-0.343-0.178-0.092-0.492-0.161-0.906-0.25-0.168-0.035-0.268-0.085-0.313-0.125-0.04602-0.03903-0.0625-0.0762-0.0625-0.125 0-0.06693 0.03798-0.14148 0.09375-0.1875 0.05577-0.0474 0.13985-0.0625 0.25-0.0625 0.13386 0 0.2372 0.03101 0.3125 0.09375 0.07669 0.06275 0.10129 0.17446 0.125 0.3125l0.90625-0.0625c-0.03905-0.3179-0.16864-0.54249-0.375-0.6875-0.20497-0.1464-0.4832-0.21875-0.875-0.21875zm-39.906 0.063v3.0625h0.9375v-1.25h1.1875v-0.625h-1.1875v-0.53125h1.4062v-0.65625h-2.3438zm3.3125 0-1.1562 3.0625h0.96875l0.125-0.53125h1.0938l0.15625 0.53125h0.96875l-1.125-3.0625h-1.0312zm2.4688 0v3.0625h2.5938v-0.71875h-1.6562v-0.59375h1.5v-0.625h-1.5v-0.5h1.5938v-0.625h-2.5312zm3.0938 0v3.0625h0.90625v-1.6875l1.1562 1.6875h0.875v-3.0625h-0.875v1.6875l-1.1562-1.6875h-0.90625zm3.5 0v0.625h1.5312l-1.6875 1.7812v0.65625h2.9062v-0.65625h-1.7812l1.7188-1.8125v-0.59375h-2.6875zm4.0312 0-1.1562 3.0625h0.96875l0.125-0.53125h1.0938l0.15625 0.53125h0.96875l-1.125-3.0625h-1.0312zm6.7812 0v0.75h0.96875v2.3125h0.9375v-2.3125h0.96875v-0.75h-2.875zm3.3125 0v1.8125c0 0.15059 0.03519 0.33604 0.09375 0.53125 0.03625 0.12131 0.0899 0.22942 0.1875 0.34375 0.099 0.11434 0.22523 0.18726 0.34375 0.25 0.11852 0.06135 0.26181 0.10409 0.4375 0.125 0.17708 0.02091 0.3508 0.03125 0.5 0.03125 0.25795 0 0.4722-0.02543 0.65625-0.09375 0.13246-0.0488 0.25508-0.13009 0.375-0.25 0.1213-0.12131 0.19422-0.27715 0.25-0.4375 0.05716-0.16174 0.09375-0.31874 0.09375-0.5v-1.8125h-0.9375v1.8438c-0.000002 0.17011-0.06283 0.31283-0.15625 0.40625-0.09203 0.09203-0.21186 0.125-0.375 0.125-0.16453 0-0.28158-0.03158-0.375-0.125-0.09203-0.09481-0.15625-0.23893-0.15625-0.40625v-1.8438h-0.9375zm3.5938 0v3.0625h1.4062c0.16871 0 0.35474-0.03798 0.5625-0.09375 0.15198-0.04044 0.27379-0.12869 0.40625-0.25 0.13246-0.1227 0.2386-0.25763 0.3125-0.4375 0.07529-0.18126 0.125-0.45358 0.125-0.78125 0-0.20915-0.01231-0.40691-0.0625-0.59375-0.0502-0.18684-0.13846-0.35917-0.25-0.5-0.11155-0.14082-0.266-0.2372-0.4375-0.3125-0.17-0.076-0.379-0.094-0.656-0.094h-1.4062zm3.3438 0v3.0625h0.9375v-3.0625h-0.9375zm3.0938 0.65625c0.19939 0.000003 0.35302 0.05365 0.46875 0.1875 0.11713 0.13246 0.1875 0.33638 0.1875 0.625-0.000002 0.34301-0.07596 0.58629-0.1875 0.71875-0.11155 0.13246-0.26518 0.21875-0.46875 0.21875-0.198 0-0.35302-0.0835-0.46875-0.21875-0.11433-0.13525-0.15625-0.34671-0.15625-0.65625-0.000001-0.31233 0.04052-0.55225 0.15625-0.6875 0.11573-0.13524 0.27772-0.1875 0.46875-0.1875zm-5.5 0.03125h0.25c0.2454 0.000003 0.39403 0.03634 0.5 0.15625 0.10596 0.11992 0.1875 0.36262 0.1875 0.6875 0 0.2454-0.04634 0.4211-0.09375 0.53125-0.04741 0.10876-0.10384 0.17413-0.1875 0.21875-0.08366 0.04323-0.23951 0.0625-0.4375 0.0625h-0.21875v-1.6562zm-27.22 0.094 0.344 1.094h-0.6875l0.34375-1.0938zm13.094 0l0.344 1.094h-0.6875l0.34375-1.0938zm-8.875 4.9688c-0.36464 0.000002-0.64928 0.05669-0.84375 0.21875s-0.3125 0.41759-0.3125 0.71875c0 0.24039 0.07964 0.4207 0.21875 0.5625 0.14045 0.14181 0.35373 0.24767 0.65625 0.3125l0.3125 0.0625c0.18367 0.04051 0.31423 0.07369 0.375 0.125 0.06213 0.05132 0.09375 0.12421 0.09375 0.21875-0.000002 0.10534-0.06576 0.19328-0.15625 0.25-0.09049 0.05671-0.20484 0.09375-0.375 0.09375-0.16746 0-0.35028-0.04243-0.53125-0.09375-0.17962-0.05267-0.36938-0.11611-0.5625-0.21875v0.65625c0.193 0.072 0.401 0.12 0.594 0.157 0.193 0.036 0.371 0.062 0.562 0.062 0.4065 0 0.70907-0.08794 0.90625-0.25 0.19852-0.16341 0.3125-0.41642 0.3125-0.75-0.000003-0.2539-0.07695-0.42475-0.21875-0.5625-0.14181-0.13775-0.38247-0.24497-0.71875-0.3125l-0.343-0.063c-0.15801-0.03241-0.25173-0.08043-0.3125-0.125-0.05942-0.04592-0.09375-0.10647-0.09375-0.1875 0-0.10804 0.03586-0.19869 0.125-0.25 0.08913-0.05131 0.21988-0.0625 0.40625-0.0625 0.14045 0 0.31074-0.0065 0.46875 0.03125 0.15801 0.03782 0.30263 0.11322 0.46875 0.1875v-0.65625c-0.18772-0.04997-0.35568-0.06943-0.53125-0.09375-0.17557-0.02566-0.33389-0.03125-0.5-0.03125zm2.7812 0c-0.36464 0.000003-0.64928 0.05669-0.84375 0.21875s-0.28125 0.41759-0.28125 0.71875c-0.000001 0.2404 0.07965 0.4207 0.21875 0.5625 0.14045 0.14181 0.35373 0.24767 0.65625 0.3125l0.313 0.062c0.18367 0.04051 0.28298 0.07368 0.34375 0.125 0.06212 0.05132 0.09375 0.12421 0.09375 0.21875-0.000001 0.10534-0.03451 0.19329-0.125 0.25s-0.20484 0.09375-0.375 0.09375c-0.16747 0-0.35028-0.04243-0.53125-0.09375-0.17962-0.05267-0.36937-0.11611-0.5625-0.21875v0.65625c0.19313 0.07158 0.36938 0.11979 0.5625 0.15625 0.192 0.037 0.401 0.063 0.593 0.063 0.4065 0 0.70907-0.08794 0.90625-0.25 0.19852-0.16341 0.28125-0.41642 0.28125-0.75-0.000002-0.2539-0.0457-0.42475-0.1875-0.5625-0.14181-0.13775-0.38247-0.24497-0.71875-0.3125l-0.344-0.063c-0.158-0.032-0.251-0.08-0.312-0.124-0.059-0.046-0.094-0.107-0.094-0.188-0.000002-0.10804 0.03586-0.19869 0.125-0.25 0.08913-0.05131 0.21988-0.0625 0.40625-0.0625 0.14045 0 0.31074-0.0066 0.46875 0.03125 0.15801 0.03782 0.30263 0.11322 0.46875 0.1875v-0.656c-0.188-0.05-0.356-0.069-0.531-0.094-0.176-0.025-0.365-0.031-0.532-0.031zm6.2812 0c-0.34945 0.05242-0.61889 0.19658-0.84375 0.40625-0.29982 0.27956-0.4375 0.66871-0.4375 1.1562 0 0.48214 0.14309 0.87399 0.4375 1.1562 0.295 0.281 0.685 0.406 1.189 0.406 0.22283 0 0.44692-0.01524 0.65625-0.0625 0.20933-0.04727 0.39927-0.12421 0.59375-0.21875v-1.4688h-1.2188v0.53125h0.46875v0.59375c-0.05537 0.0216-0.11727 0.02045-0.1875 0.03125-0.06888 0.0095-0.13772 0.03125-0.21875 0.03125-0.29847 0.000001-0.52544-0.07578-0.6875-0.25s-0.25-0.42992-0.25-0.75c-0.000001-0.32277 0.08254-0.57713 0.25-0.75 0.16881-0.17422 0.40813-0.25 0.71875-0.25 0.16746 0 0.33388 0.01524 0.5 0.0625 0.16746 0.04727 0.36243 0.12286 0.53125 0.21875v-0.625c-0.164-0.075-0.346-0.15-0.532-0.188-0.183-0.038-0.392-0.031-0.593-0.031-0.13033 0.000001-0.25852-0.01747-0.375 0zm-17.093 0.031v3.0312h0.75v-2.2188l0.6875 1.6562h0.5l0.6875-1.6562v2.2188h0.75v-3.0312h-1l-0.6875 1.625-0.6875-1.625h-1zm4.125 0v3.0312h2.1562v-0.59375h-1.375v-0.6875h1.25v-0.59375h-1.25v-0.5625h1.3438v-0.59375h-2.125zm15.25 0v3.0312h2.1562v-0.59375h-1.375v-0.6875h1.25v-0.59375h-1.25v-0.5625h1.3125v-0.59375h-2.0938zm-5.8438 0.03125-1.125 3.0312h0.78125l0.1875-0.5625h1.2188l0.1875 0.5625h0.78125l-1.125-3.0312h-0.90625zm0.469 0.688l0.40625 1.2188h-0.84375l0.438-1.219z" fill="url(#radialGradient4116)"/>
  <path id="path3842" opacity=".8" d="m40 39h41v1h-41v-1z" fill="url(#radialGradient3904)"/>
  <path id="path3840" opacity=".8" d="m15 69h66v1h-66v-1z" fill="url(#radialGradient3929)"/>
  <path id="text3348" opacity=".8" d="m59 70v14h-1v-14h1z" fill="url(#radialGradient3933)"/>
  <path id="path3870" opacity=".8" d="m41.781 62.875c-0.36464 0.000003-0.64928 0.05669-0.84375 0.21875s-0.28125 0.41759-0.28125 0.71875c0 0.2404 0.07964 0.4207 0.21875 0.5625 0.14045 0.1418 0.35373 0.24767 0.65625 0.3125l0.3125 0.0625c0.18367 0.04051 0.28298 0.07368 0.34375 0.125 0.06212 0.05132 0.09375 0.12421 0.09375 0.21875-0.000002 0.10534-0.03452 0.19328-0.125 0.25-0.09049 0.05671-0.20484 0.09375-0.375 0.09375-0.16747 0-0.35028-0.04243-0.53125-0.09375-0.17962-0.05267-0.36938-0.11611-0.5625-0.21875v0.65625c0.19312 0.07157 0.36938 0.11979 0.5625 0.15625 0.19312 0.03647 0.40197 0.0625 0.59375 0.0625 0.4065 0 0.70907-0.08794 0.90625-0.25 0.19852-0.16341 0.28125-0.41642 0.28125-0.75-0.000003-0.2539-0.0457-0.42474-0.1875-0.5625-0.142-0.137-0.383-0.244-0.719-0.312l-0.344-0.063c-0.158-0.032-0.251-0.08-0.312-0.124-0.06-0.046-0.094-0.107-0.094-0.188 0-0.10804 0.03586-0.19868 0.125-0.25 0.08913-0.05131 0.21988-0.0625 0.40625-0.0625 0.14045 0 0.31074-0.0066 0.46875 0.03125 0.15801 0.03782 0.30263 0.11322 0.46875 0.1875v-0.65625c-0.188-0.05-0.356-0.069-0.532-0.094-0.175-0.025-0.365-0.031-0.531-0.031zm3.0625 0c-0.339 0.053-0.623 0.195-0.844 0.406-0.29441 0.28091-0.4375 0.67276-0.4375 1.1562 0 0.48214 0.14309 0.87399 0.4375 1.1562 0.294 0.282 0.684 0.407 1.188 0.407 0.16881 0 0.34469-0.02468 0.5-0.0625 0.15531-0.03781 0.29434-0.08197 0.4375-0.15625v-0.625c-0.14451 0.09859-0.2658 0.17283-0.40625 0.21875-0.14046 0.04592-0.31344 0.0625-0.46875 0.0625-0.27821 0.000001-0.49689-0.10298-0.65625-0.28125s-0.21875-0.40678-0.21875-0.71875c-0.000001-0.31332 0.05939-0.57173 0.21875-0.75 0.15936-0.17826 0.37804-0.25 0.65625-0.25 0.15531 0 0.32829 0.01659 0.46875 0.0625 0.14045 0.04592 0.26174 0.12016 0.40625 0.21875v-0.625c-0.14316-0.07428-0.28219-0.14969-0.4375-0.1875-0.15531-0.0378-0.33119-0.03125-0.5-0.03125-0.12594 0.000001-0.2309-0.01764-0.34375 0zm-18.875 0.03125v0.59375h1v2.4375h0.78125v-2.4375h1v-0.59375h-2.7812zm3.1875 0v3.0312h2.1562v-0.59375h-1.375v-0.6875h1.25v-0.59375h-1.25v-0.5625h1.3125v-0.59375h-2.0938zm17.625 0v3.0312h2.1562v-0.59375h-1.375v-0.6875h1.25v-0.59375h-1.25v-0.5625h1.3125v-0.59375h-2.0938zm2.8438 0v3.0312h0.71875v-2.0625l1.125 2.0625h0.84375v-3.0312h-0.71875v2.0938l-1.0938-2.0938h-0.875zm3.4688 0v3.0312h2.1562v-0.59375h-1.375v-0.6875h1.25v-0.59375h-1.25v-0.5625h1.3125v-0.59375h-2.0938zm11.656 0v0.59375h1v2.4375h0.78125v-2.4375h1v-0.59375h-2.7812zm6.0938 0v3.0312h0.78125v-1.1875l1.1875 1.1875h0.96875l-1.5938-1.5938 1.4375-1.4375h-0.90625l-1.0938 1.125v-1.125h-0.78125zm3.1875 0v3.0312h2.1562v-0.59375h-1.375v-0.6875h1.25v-0.59375h-1.25v-0.5625h1.3438v-0.59375h-2.125zm-54.032 0.032v3.0312h0.8125c0.45377 0 0.80436-0.06017 1.0312-0.125 0.22688-0.06618 0.43168-0.15584 0.59375-0.3125 0.1418-0.1364 0.24362-0.29048 0.3125-0.46875 0.06887-0.17962 0.09375-0.39676 0.09375-0.625-0.000002-0.22554-0.02487-0.41548-0.09375-0.59375-0.068-0.179-0.17-0.333-0.311-0.469-0.161-0.157-0.369-0.279-0.594-0.344-0.224-0.066-0.572-0.093-1.032-0.093h-0.8125zm4.1875 0-1.0938 3.0312h0.78125l0.1875-0.5625h1.2188l0.1875 0.5625h0.78125l-1.125-3.0312h-0.9375zm44.188 0-1.125 3.0312h0.78125l0.21875-0.5625h1.2188l0.1875 0.5625h0.78125l-1.125-3.0312h-0.9375zm-47.594 0.59375h0.28125c0.32007 0.000002 0.55128 0.06209 0.71875 0.21875 0.16746 0.15666 0.25 0.38769 0.25 0.6875-0.000003 0.30117-0.08119 0.52949-0.25 0.6875-0.16747 0.15802-0.40003 0.25-0.71875 0.25h-0.28125v-1.8438zm3.875 0.09375 0.4375 1.2188h-0.84375l0.40625-1.2188zm44.188 0 0.40625 1.2188h-0.8125l0.40625-1.2188z" fill="url(#radialGradient4114)"/>
  <path id="path3935" opacity=".8" d="m37 70v14h-1v-14h1z" fill="url(#radialGradient3937)"/>
 </g>
 <g id="layer5">
  <path id="path3615" opacity=".2" d="m12 90c-3.324 0-6-2.676-6-6v-2-68-2c0-0.33472 0.04135-0.6507 0.09375-0.96875 0.0487-0.2956 0.09704-0.59692 0.1875-0.875 0.0099-0.03 0.0209-0.063 0.0313-0.094 0.0989-0.2873 0.2349-0.547 0.375-0.812 0.1446-0.2735 0.3156-0.5356 0.5-0.7812 0.1844-0.2457 0.3738-0.4735 0.5937-0.6876 0.44-0.428 0.943-0.8145 1.5-1.0937 0.2786-0.1396 0.5735-0.2469 0.8748-0.3437-0.256 0.1002-0.4865 0.2362-0.7185 0.375-0.00741 0.0044-0.023866-0.0045-0.03125 0-0.031933 0.0193-0.062293 0.04251-0.09375 0.0625-0.1204 0.0767-0.23102 0.16351-0.34375 0.25-0.10617 0.0808-0.21328 0.16111-0.3125 0.25-0.1779 0.1614-0.3474 0.3453-0.5 0.5312-0.1075 0.1303-0.2183 0.2653-0.3124 0.4063-0.0251 0.0383-0.0385 0.0858-0.0626 0.125-0.0647 0.103-0.1302 0.2045-0.1874 0.3124-0.1011 0.1948-0.2057 0.4158-0.2813 0.625-0.008 0.0219-0.0236 0.0406-0.0313 0.0626-0.0318 0.0919-0.0358 0.1868-0.0624 0.2812-0.0304 0.1066-0.0704 0.203-0.0938 0.3125-0.0729 0.3415-0.125 0.6985-0.125 1.0625v2 68 2c0 2.7818 2.2182 5 5 5h2 68 2c2.7818 0 5-2.2182 5-5v-2-68-2c0-0.364-0.052-0.721-0.125-1.0625-0.044-0.2069-0.088-0.3977-0.156-0.5937-0.008-0.022-0.024-0.0407-0.031-0.0626-0.063-0.1737-0.139-0.3674-0.219-0.5312-0.042-0.0828-0.079-0.17-0.125-0.25-0.055-0.0972-0.127-0.1884-0.188-0.2812-0.094-0.141-0.205-0.276-0.312-0.4063-0.143-0.1745-0.303-0.347-0.469-0.5-0.011-0.0102-0.02-0.0211-0.031-0.0313-0.139-0.1255-0.285-0.2344-0.438-0.3437-0.102-0.0731-0.204-0.1534-0.312-0.2187-0.0074-0.0045-0.02384 0.0044-0.03125 0-0.23204-0.13873-0.46255-0.27478-0.71875-0.375 0.30153 0.0968 0.59646 0.20414 0.875 0.34375 0.55709 0.27922 1.0601 0.66569 1.5 1.0938 0.21997 0.21403 0.40937 0.44186 0.59375 0.6875s0.35541 0.50774 0.5 0.78125c0.14012 0.26505 0.27614 0.52473 0.375 0.8125 0.01041 0.03078 0.02133 0.06274 0.03125 0.09375 0.09046 0.27808 0.1388 0.5794 0.1875 0.875 0.053 0.318 0.094 0.634 0.094 0.969v2 68 2c0 3.324-2.676 6-6 6h-72z" fill="url(#radialGradient3619)"/>
  <rect id="rect3171" height="66" stroke="#fff" stroke-linecap="round" stroke-width=".5" fill="url(#linearGradient3613)" rx="12" ry="12" width="66" opacity=".1" clip-path="url(#clipPath3613)" filter="url(#filter3794)" y="15" x="15"/>
 </g>
 <g id="layer3">
  <path id="rect4237" d="m12 6c-3.324 0-6 2.676-6 6v12h84v-12c0-3.324-2.676-6-6-6h-72z"/>
  <rect id="rect3250" opacity=".8" fill-rule="evenodd" height="6" width="84" y="24" x="6" fill="url(#linearGradient4262)"/>
  <rect id="rect4289" opacity=".3" fill-rule="evenodd" height="5" width="84" y="15" x="6" fill="url(#linearGradient4320)"/>
  <g id="g4299" fill-rule="evenodd" fill="#f0f0f0" transform="translate(1)">
   <path id="path4293" d="m28.333 6-5.333 9 5.333 9h10.667l-5.333-9 5.333-9h-10.667z"/>
   <path id="path4295" d="m50.333 6-5.333 9 5.333 9h10.667l-5.333-9 5.333-9h-10.667z"/>
   <path id="path4297" d="m72.333 6-5.333 9 5.333 9h10.667l-5.333-9 5.333-9h-10.667z"/>
  </g>
  <rect id="rect4291" opacity=".7" fill-rule="evenodd" height="5" width="84" y="10" x="6" fill="url(#linearGradient4310)"/>
  <rect id="rect4324" opacity=".7" fill-rule="evenodd" height="5" width="84" y="19" x="6" fill="url(#linearGradient4326)"/>
  <path id="path4333" stroke-linejoin="round" d="m12.005 10.5c1.1095 0 1.7702 0.98369 6.03 4.3027 4.3044 3.3537 5.4775 3.7265 5.4775 5.0746 0 1.3484-1.0882 1.6227-2.4399 1.6227h-8.1331c-1.352 0-2.44-1.086-2.44-2.434v-6.4906c0-1.348 0.468-2.075 1.505-2.075z" fill-rule="evenodd" stroke="url(#linearGradient4373)" fill="url(#linearGradient4371)"/>
  <path id="path4335" d="m12.75 14.938a1.4375 1.4375 0 1 1 -2.875 0 1.4375 1.4375 0 1 1 2.875 0z" fill-rule="evenodd" transform="matrix(.81331 0 0 .81133 3.5869 1.0747)" fill="url(#radialGradient4375)"/>
  <path id="path4337" d="m12.75 14.938a1.4375 1.4375 0 1 1 -2.875 0 1.4375 1.4375 0 1 1 2.875 0z" fill-rule="evenodd" transform="matrix(.81331 0 0 .81133 3.5869 7.099)" fill="url(#radialGradient4375)"/>
  <path id="path4339" d="m12.75 14.938a1.4375 1.4375 0 1 1 -2.875 0 1.4375 1.4375 0 1 1 2.875 0z" fill-rule="evenodd" transform="matrix(.81331 0 0 .81133 11.618 7.099)" fill="url(#radialGradient4375)"/>
 </g>
 <g id="layer4">
  <path id="rect3728" opacity=".3" d="m12 6c-3.324 0-6 2.676-6 6v2 68 2c0 0.33472 0.04135 0.6507 0.09375 0.96875 0.0487 0.2956 0.09704 0.59692 0.1875 0.875 0.00988 0.03038 0.020892 0.0636 0.03125 0.09375 0.098865 0.28777 0.23488 0.54745 0.375 0.8125 0.14459 0.27351 0.31562 0.53562 0.5 0.78125 0.18438 0.24564 0.37378 0.47347 0.59375 0.6875 0.43995 0.42806 0.94291 0.81453 1.5 1.0938 0.27854 0.13961 0.57347 0.24695 0.875 0.34375-0.2562-0.10022-0.48671-0.23627-0.71875-0.375-0.00741-0.0044-0.023866 0.0045-0.03125 0-0.031933-0.0193-0.062293-0.04251-0.09375-0.0625-0.1204-0.0767-0.23102-0.16351-0.34375-0.25-0.10617-0.0808-0.21328-0.16111-0.3125-0.25-0.1778-0.162-0.3473-0.346-0.4999-0.531-0.1075-0.131-0.2183-0.266-0.3124-0.407-0.0251-0.038-0.0385-0.086-0.0626-0.125-0.0647-0.103-0.1302-0.204-0.1874-0.312-0.1011-0.195-0.2057-0.416-0.2813-0.625-0.008-0.022-0.0236-0.041-0.0313-0.063-0.0318-0.092-0.0358-0.187-0.0624-0.281-0.0304-0.107-0.0704-0.203-0.0938-0.313-0.0729-0.341-0.125-0.698-0.125-1.062v-2-68-2c0-2.782 2.2182-5 5-5h2 68 2c2.7818 0 5 2.2182 5 5v2 68 2c0 0.3643-0.05212 0.72099-0.125 1.0625-0.04415 0.20689-0.08838 0.39766-0.15625 0.59375-0.0077 0.02195-0.0233 0.04069-0.03125 0.0625-0.06274 0.17374-0.13838 0.36745-0.21875 0.53125-0.04158 0.0828-0.07904 0.16995-0.125 0.25-0.0546 0.09721-0.12677 0.18835-0.1875 0.28125-0.09411 0.14096-0.20492 0.276-0.3125 0.40625-0.14317 0.17445-0.30314 0.347-0.46875 0.5-0.01117 0.0102-0.01998 0.02115-0.03125 0.03125-0.13839 0.12556-0.28509 0.23444-0.4375 0.34375-0.10257 0.07315-0.20432 0.15336-0.3125 0.21875-0.0074 0.0045-0.02384-0.0044-0.03125 0-0.23204 0.13873-0.46255 0.27478-0.71875 0.375 0.30153-0.0968 0.59646-0.20414 0.875-0.34375 0.55709-0.27922 1.0601-0.66569 1.5-1.0938 0.21997-0.21403 0.40937-0.44186 0.59375-0.6875s0.35541-0.50774 0.5-0.78125c0.14012-0.26505 0.27614-0.52473 0.375-0.8125 0.01041-0.03078 0.02133-0.06274 0.03125-0.09375 0.09046-0.27808 0.1388-0.5794 0.1875-0.875 0.053-0.318 0.094-0.634 0.094-0.969v-2-68-2c0-3.324-2.676-6-6-6h-72z" fill="url(#linearGradient3188)"/>
 </g>
 <g id="layer6">
  <path id="path4579" opacity="0.08" d="m48.281 27.906c-1.0323 0.0708-2.2563 0.23028-3.4062 0.6875-1.15 0.45722-2.2887 1.2429-2.875 2.5a0.98442 0.98442 0 0 0 -0.03125 0.125c-1.3916 4.9424-3.0442 9.8125-4.4062 14.844-0.0026 0.0097 0.0026 0.02151 0 0.03125-1.4511 4.9218-2.8588 9.8823-4.375 14.75-0.0068 0.02177-0.02446 0.04073-0.03125 0.0625-0.66017 1.8015-1.1839 3.633-1.75 5.4062-0.50229-0.0013-1.0234-0.02094-1.6875-0.03125-0.89805-0.01394-1.9847 0.1089-2.875 0.875a0.98442 0.98442 0 0 0 -0.1875 0.25c-1.2103 2.0164-1.7761 4.2248-2.625 6.0938a0.98442 0.98442 0 0 0 0 0.03125c-1.9427 4.9255-3.9809 9.8823-5.875 14.844a0.98442 0.98442 0 0 0 -0.0625 0.375c0.04711 1.5751-0.35143 3.4952 0.25 5.4688a0.98442 0.98442 0 0 0 0.09375 0.25c0.72818 1.1616 2.0088 1.5039 3.0312 1.5312 1.0224 0.02733 1.9753-0.13701 2.5625-0.0625a0.98442 0.98442 0 0 0 0.125 0c17.014-0.02085 34.044 0.04171 51.062-0.03125a0.98442 0.98442 0 0 0 0.09375 0c1.2485-0.11015 2.1244-1.0439 2.4375-1.9688 0.29457-0.8701 0.25273-1.7327 0.1875-2.4688-0.0033-0.03707 0.0036-0.08874 0-0.125 0.000481-0.01006-0.000472-0.02118 0-0.03125 0.07409-1.5817 0.0323-3.2865-0.8125-4.9062-0.01546-0.03956-0.01579-0.08544-0.03125-0.125-2.381-6.096-4.738-12.254-7.156-18.345a0.98442 0.98442 0 0 0 -0.094 -0.188c-0.77774-1.0941-2.0453-1.404-3.0625-1.4375-0.75988-0.02504-1.3587 0.0245-1.9375 0.03125-1.7944-6.376-3.4997-12.761-5.25-19.156a0.98442 0.98442 0 0 0 0 -0.03125c-1.607-5.368-2.939-10.741-4.563-16.157a0.98442 0.98442 0 0 0 -0.156 -0.344c-1.5902-1.9776-4.2959-2.6531-6.5-2.75a0.98442 0.98442 0 0 0 -0.09375 0z" fill-rule="evenodd"/>
  <path id="path4573" opacity=".1" d="m48.344 28.875c-1.9307 0.13242-4.5436 0.70822-5.4375 2.625-1.4036 4.9851-3.0573 9.8449-4.4102 14.847-1.4587 4.9471-2.8705 9.9264-4.4023 14.841-0.73282 1.9893-1.2931 4.0943-1.9688 6.125-1.5211 0.19636-3.3566-0.49765-4.625 0.59375-1.1095 1.8485-1.661 4.0343-2.5592 6.0116-1.9468 4.9356-3.9907 9.8565-5.8783 14.801 0.05159 1.725-0.28824 3.5551 0.21875 5.2188 1.0455 1.6677 3.2642 0.82586 4.8829 1.0312 17.017-0.02085 34.041 0.04169 51.055-0.03125 1.7617-0.15543 1.887-2.1519 1.75-3.5196 0.08291-1.6153 0.03528-3.2284-0.76125-4.6816-2.4-6.139-4.747-12.301-7.178-18.425-1.1246-1.582-3.2788-0.81567-4.9375-1-1.869-6.612-3.624-13.266-5.436-19.885-1.615-5.396-2.949-10.76-4.564-16.146-1.301-1.617-3.739-2.318-5.75-2.406z" fill-rule="evenodd"/>
  <path id="path4569" opacity=".15" d="m48.344 29.875c-2.4914 0-4.25 1.5312-4.25 1.5312a0.98337 0.98337 0 0 0 -0.282 0.469l-2.1562 7.3125a0.98337 0.98337 0 0 0 -0.03125 0.03125 0.98337 0.98337 0 0 0 -0.15625 0.3125l-2.4375 8.5-4 13.5a0.98337 0.98337 0 0 0 -0.1875 0.375l-2 6.4062h-3.9375a0.98337 0.98337 0 0 0 -0.904 0.593l-7.906 19.782a0.98337 0.98337 0 0 0 -0.0625 0.375v3.9375a0.98337 0.98337 0 0 0 0.968 0.969h54a0.98337 0.98337 0 0 0 0.969 -0.969v-3.9375a0.98337 0.98337 0 0 0 -0.0625 -0.34375l-7.656-19.718a0.98337 0.98337 0 0 0 -0.71875 -0.625 0.98337 0.98337 0 0 0 -0.03125 0 0.98337 0.98337 0 0 0 -0.0625 0 0.98337 0.98337 0 0 0 -0.34375 -0.0625h-3.7812l-0.5625-2c-0.24388-0.9016-0.51728-1.9359-0.78125-2.9062-0.02315-0.08313-0.04649-0.16133-0.0625-0.21875-1.206-4.432-2.034-7.445-3.281-11.968a0.98337 0.98337 0 0 0 0 -0.0625c-0.003-0.01102 0.003-0.02021 0-0.03125a0.98337 0.98337 0 0 0 -0.031 -0.375l-3.0625-10.719c-0.0024-0.0086 0.0024-0.02261 0-0.03125-0.66234-2.3824-2.2188-8-2.2188-8a0.98337 0.98337 0 0 0 -0.375 -0.5625s-2.0728-1.5625-4.5938-1.5625z" fill-rule="evenodd"/>
  <path id="path4462" opacity=".3" d="m48.344 30.844c-2.0771 0-3.5938 1.3125-3.5938 1.3125l-2.281 7.719c-0.007-0.0091-0.0625-0.0625-0.0625-0.0625l-2.4375 8.5-4.125 13.906c-0.0025-0.002-0.0625-0.0312-0.0625-0.0312l-2.2188 7.0938h-4.6562l-7.907 19.781v3.938h54v-3.9375l-7.6562-19.719h-0.21875c-0.0051-0.01-0.03125-0.0625-0.03125-0.0625h-4.5312l-0.75-2.7188c-0.245-0.90574-0.5186-1.9407-0.78125-2.9062-0.01949-0.07-0.04291-0.14848-0.0625-0.21875-1.2472-4.583-2.0542-7.5912-3.375-12.375 0.0031-0.0016 0.0625-0.03125 0.0625-0.03125l-3.0625-10.75c-0.659-2.372-2.219-8.032-2.219-8.032s-1.9541-1.4062-4.0312-1.4062z" fill-rule="evenodd"/>
  <g id="g4450" opacity=".6" clip-path="url(#clipPath4833)" transform="matrix(1.1826 0 0 1.1826 -11.453 8.1668)" filter="url(#filter4839)">
   <path id="path4452" opacity=".5" d="m65.155 58.877 19.193-32.83-4.798-3.788-33.588 27.779 19.193 8.839z" fill="url(#linearGradient4456)"/>
   <path id="path4454" opacity=".5" d="m38.196 58.877-15.09-25.811 3.773-2.978 26.407 21.84-15.09 6.949z" fill="url(#linearGradient4458)"/>
  </g>
  <g id="g4408" transform="matrix(1.3169 0 0 1.3169 -114.64 -33.109)">
   <path id="path3244" d="m109 77-6 15v3h41v-3l-5.8058-14.954z" fill-rule="evenodd" fill="url(#linearGradient4426)"/>
   <g id="layer6-2" transform="translate(100,48)">
    <path id="path10181" opacity=".57321" d="m23.118 40.821s-9.6492-0.65698-12.087-5.41c-2.4517-4.78-2.031-6.411-2.031-6.411h29s2.5385 4.682-2.6775 8.5181c-2.9405 2.1626-12.466 3.3025-12.205 3.3025z" fill-rule="evenodd" filter="url(#filter11385)" stroke-width="0" fill="#832e0a"/>
   </g>
   <path id="path4228" d="m109 77-6 15h41l-5.81-14.969-29.19-0.031zm0.6875 1l27.81 0.031 5.03 12.969h-38.03l5.19-13z" fill-rule="evenodd" fill="url(#linearGradient4428)"/>
   <path id="path4346" d="m110.99 82.677s1.977 5.3979 12.331 5.1665c8.5395-0.19539 13.048-2.8703 12.905-4.3054-0.14338-1.4351-9.4129-34.671-9.4129-34.671s-1.4846-1.064-3.0618-1.064c-1.5773 0-2.7244 1.0046-2.7244 1.0046l-10.037 33.869z" fill-rule="evenodd" stroke-width="0" fill="url(#linearGradient4430)"/>
   <path id="path4348" d="m64.65 65.948a16.415 5.5558 0 1 1 -32.83 0 16.415 5.5558 0 1 1 32.83 0z" transform="matrix(.78245 0 0 .91663 85.825 23.432)" filter="url(#filter3950)" fill="#f29d1a"/>
   <path id="path4350" opacity=".8" d="m121.25 49.644-9.2553 32.596s-2.1615 0.41511-0.0356 1.7591c2.1366 1.3508 3.9675 2.7613 5.4291 2.4928 1.1787-0.21652 5.2681-35.672 5.2681-35.672l-1.4063-1.1757z" fill-rule="evenodd" stroke-width="0" fill="url(#linearGradient4432)"/>
   <path id="path4352" opacity=".8" d="m124.63 49.839 3.6316 33.692s-0.55806 1.8397 1.9163 2.2878c2.4868 0.45037 4.4412-1.3369 5.6955-2.1344 1.0116-0.64308-9.2028-33.777-9.2028-33.777z" fill-rule="evenodd" stroke-width="0" fill="url(#linearGradient4434)"/>
   <g id="g4354" fill-rule="evenodd" transform="matrix(.99861 0 0 .99949 100.53 46.756)" stroke-width="0">
    <path id="path4356" d="m18.759 7.8637s1.1613 1.6123 4.502 1.6621c2.8385 0.042918 4.7471-1.3154 4.7471-1.3154l2.3307 8.183s-4.2041 2.1204-7.2214 2.0276c-4.0531-0.12463-6.7486-2.2974-6.7486-2.2974l2.3902-8.2599z" fill="url(#linearGradient4436)"/>
    <path id="path4358" d="m13.725 24.867s4.2215 2.8091 9.8234 2.9066c4.0224 0.07185 9.1388-2.5527 9.1388-2.5527l2.061 7.484s-3.6755 4.0032-11.428 3.9712c-7.0804-0.02977-11.834-4.6891-11.834-4.6891l2.2379-7.1199z" fill="url(#linearGradient4438)"/>
   </g>
   <path id="path4360" opacity=".91136" d="m126.03 49.345c0 0.4904-0.91923 0.88794-2.0532 0.88794-1.1339 0-2.0532-0.39755-2.0532-0.88794 0-0.4904 0.91922-0.88794 2.0532-0.88794 1.1339 0 2.0532 0.39754 2.0532 0.88794z" stroke-width="0" fill="#643108"/>
   <path id="path4362" opacity=".4" d="m122.48 50.212-8.892 34.808 2.5688 1.1866 6.3232-35.995z" stroke="url(#linearGradient4442)" stroke-width=".75934px" fill="url(#linearGradient4440)"/>
   <path id="path4364" opacity=".2" d="m124.46 50.607 2.0748 36.489-1.8772 0.09888-0.19759-36.588z" fill="#fff"/>
   <path id="path4370" opacity=".2" d="m121.49 59.606-7.0148 25.612 5.7304 1.9777 1.2844-27.589z" stroke="url(#linearGradient4442)" stroke-width=".75934px" fill="url(#linearGradient4440)"/>
   <path id="path4390" d="m111.19 82.062-0.19 0.626s1.9581 5.3877 12.312 5.1562c8.5395-0.19539 13.05-2.8774 12.906-4.3125-0.005-0.04726-0.10114-0.38608-0.125-0.5-0.75831 1.4804-5.1598 3.6381-12.781 3.8125-8.7365 0.19526-11.472-3.5851-12.125-4.7812z" fill-rule="evenodd" stroke-width="0" fill="url(#linearGradient4448)"/>
  </g>
 </g>
</svg>
