<?xml version="1.0" encoding="UTF-8" standalone="no"?>
<!-- Created with Inkscape (http://www.inkscape.org/) -->
<svg id="svg2408" xmlns:rdf="http://www.w3.org/1999/02/22-rdf-syntax-ns#" xmlns="http://www.w3.org/2000/svg" height="96" width="96" version="1.0" xmlns:cc="http://creativecommons.org/ns#" xmlns:xlink="http://www.w3.org/1999/xlink" xmlns:dc="http://purl.org/dc/elements/1.1/">
 <defs id="defs2410">
  <linearGradient id="ButtonShadow" y2="7.0165" gradientUnits="userSpaceOnUse" x2="45.448" gradientTransform="scale(1.0059 .99417)" y1="92.54" x1="45.448">
   <stop id="stop3750" offset="0"/>
   <stop id="stop3752" stop-opacity=".58824" offset="1"/>
  </linearGradient>
  <linearGradient id="linearGradient3737">
   <stop id="stop3739" stop-color="#fff" offset="0"/>
   <stop id="stop3741" stop-color="#fff" stop-opacity="0" offset="1"/>
  </linearGradient>
  <filter id="filter3174" color-interpolation-filters="sRGB">
   <feGaussianBlur id="feGaussianBlur3176" stdDeviation="1.71"/>
  </filter>
  <linearGradient id="linearGradient3188" y2="63.893" xlink:href="#linearGradient3737" gradientUnits="userSpaceOnUse" x2="36.357" y1="6" x1="36.357"/>
  <filter id="filter3794" height="1.384" width="1.384" color-interpolation-filters="sRGB" y="-.192" x="-.192">
   <feGaussianBlur id="feGaussianBlur3796" stdDeviation="5.28"/>
  </filter>
  <linearGradient id="linearGradient3613" y2="138.66" xlink:href="#linearGradient3737" gradientUnits="userSpaceOnUse" x2="48" y1="20.221" x1="48"/>
  <radialGradient id="radialGradient3619" xlink:href="#linearGradient3737" gradientUnits="userSpaceOnUse" cy="90.172" cx="48" gradientTransform="matrix(1.1573 0 0 .99591 -7.551 .19713)" r="42"/>
  <clipPath id="clipPath3613">
   <rect id="rect3615" rx="6" ry="6" height="84" width="84" y="6" x="6" fill="#fff"/>
  </clipPath>
  <linearGradient id="linearGradient3617" y2="5.9877" gradientUnits="userSpaceOnUse" x2="48" y1="90" x1="48">
   <stop id="stop3647" stop-color="#0f466f" offset="0"/>
   <stop id="stop3649" stop-color="#2e72a7" offset="1"/>
  </linearGradient>
  <linearGradient id="ButtonShadow-0" y2="7.0165" gradientUnits="userSpaceOnUse" x2="45.448" gradientTransform="matrix(1.0059 0 0 .99417 100 0)" y1="92.54" x1="45.448">
   <stop id="stop3750-8" offset="0"/>
   <stop id="stop3752-5" stop-opacity=".58824" offset="1"/>
  </linearGradient>
  <linearGradient id="linearGradient3780" y2="90.239" xlink:href="#ButtonShadow-0" gradientUnits="userSpaceOnUse" x2="32.251" gradientTransform="matrix(1.0238 0 0 1.0119 -1.1429 -98.071)" y1="6.1317" x1="32.251"/>
  <linearGradient id="linearGradient3721" y2="90.239" xlink:href="#ButtonShadow-0" gradientUnits="userSpaceOnUse" x2="32.251" gradientTransform="translate(0,-97)" y1="6.1317" x1="32.251"/>
  <linearGradient id="linearGradient2928" y2="12" gradientUnits="userSpaceOnUse" x2="48" y1="84" x1="48">
   <stop id="stop4064" stop-color="#dfdfdf" offset="0"/>
   <stop id="stop4066" stop-color="#fff" offset="1"/>
  </linearGradient>
 </defs>
 <metadata id="metadata2413">
  <rdf:RDF>
   <cc:Work rdf:about="">
    <dc:format>image/svg+xml</dc:format>
    <dc:type rdf:resource="http://purl.org/dc/dcmitype/StillImage"/>
    <dc:title/>
   </cc:Work>
  </rdf:RDF>
 </metadata>
 <g id="layer2" display="none">
  <rect id="rect3745" opacity=".9" rx="6" ry="6" height="85" filter="url(#filter3174)" width="86" y="7" x="5" fill="url(#ButtonShadow)"/>
 </g>
 <g id="layer3">
  <path id="path3786" opacity="0.08" d="m12-95.031c-5.5111 0-10.031 4.5202-10.031 10.031v71c0 5.5111 4.5202 10.031 10.031 10.031h72c5.5111 0 10.031-4.5202 10.031-10.031v-71c0-5.5111-4.5202-10.031-10.031-10.031h-72z" transform="scale(1,-1)" fill="url(#linearGradient3780)"/>
  <path id="path3778" opacity=".1" d="m12-94.031c-4.9716 0-9.0312 4.0596-9.0312 9.0312v71c0 4.9716 4.0596 9.0312 9.0312 9.0312h72c4.9716 0 9.0312-4.0596 9.0312-9.0312v-71c0-4.9716-4.0596-9.0312-9.0312-9.0312h-72z" transform="scale(1,-1)" fill="url(#linearGradient3780)"/>
  <path id="path3770" opacity=".2" d="m12-93c-4.4091 0-8 3.5909-8 8v71c0 4.4091 3.5909 8 8 8h72c4.4091 0 8-3.5909 8-8v-71c0-4.4091-3.5909-8-8-8h-72z" transform="scale(1,-1)" fill="url(#linearGradient3780)"/>
  <rect id="rect3723" opacity=".3" transform="scale(1,-1)" rx="7" ry="7" height="85" width="86" y="-92" x="5" fill="url(#linearGradient3780)"/>
  <rect id="rect3716" opacity=".45" transform="scale(1,-1)" rx="6" ry="6" height="84" width="84" y="-91" x="6" fill="url(#linearGradient3721)"/>
 </g>
 <g id="layer1">
  <rect id="rect2419" rx="6" ry="6" height="84" width="84" y="6" x="6" fill="url(#linearGradient3617)"/>
  <path id="rect3728" opacity=".3" d="m12 6c-3.324 0-6 2.676-6 6v2 68 2c0 0.33472 0.04135 0.6507 0.09375 0.96875 0.0487 0.2956 0.09704 0.59692 0.1875 0.875 0.00988 0.03038 0.020892 0.0636 0.03125 0.09375 0.098865 0.28777 0.23488 0.54745 0.375 0.8125 0.14459 0.27351 0.31562 0.53562 0.5 0.78125 0.18438 0.24564 0.37378 0.47347 0.59375 0.6875 0.43995 0.42806 0.94291 0.81453 1.5 1.0938 0.27854 0.13961 0.57347 0.24695 0.875 0.34375-0.2562-0.10022-0.48671-0.23627-0.71875-0.375-0.00741-0.0044-0.023866 0.0045-0.03125 0-0.031933-0.0193-0.062293-0.04251-0.09375-0.0625-0.1204-0.0767-0.23102-0.16351-0.34375-0.25-0.10617-0.0808-0.21328-0.16111-0.3125-0.25-0.1778-0.162-0.3473-0.346-0.4999-0.531-0.1075-0.131-0.2183-0.266-0.3124-0.407-0.0251-0.038-0.0385-0.086-0.0626-0.125-0.0647-0.103-0.1302-0.204-0.1874-0.312-0.1011-0.195-0.2057-0.416-0.2813-0.625-0.008-0.022-0.0236-0.041-0.0313-0.063-0.0318-0.092-0.0358-0.187-0.0624-0.281-0.0304-0.107-0.0704-0.203-0.0938-0.313-0.0729-0.341-0.125-0.698-0.125-1.062v-2-68-2c0-2.782 2.2182-5 5-5h2 68 2c2.7818 0 5 2.2182 5 5v2 68 2c0 0.3643-0.05212 0.72099-0.125 1.0625-0.04415 0.20689-0.08838 0.39766-0.15625 0.59375-0.0077 0.02195-0.0233 0.04069-0.03125 0.0625-0.06274 0.17374-0.13838 0.36745-0.21875 0.53125-0.04158 0.0828-0.07904 0.16995-0.125 0.25-0.0546 0.09721-0.12677 0.18835-0.1875 0.28125-0.09411 0.14096-0.20492 0.276-0.3125 0.40625-0.14317 0.17445-0.30314 0.347-0.46875 0.5-0.01117 0.0102-0.01998 0.02115-0.03125 0.03125-0.13839 0.12556-0.28509 0.23444-0.4375 0.34375-0.10257 0.07315-0.20432 0.15336-0.3125 0.21875-0.0074 0.0045-0.02384-0.0044-0.03125 0-0.23204 0.13873-0.46255 0.27478-0.71875 0.375 0.30153-0.0968 0.59646-0.20414 0.875-0.34375 0.55709-0.27922 1.0601-0.66569 1.5-1.0938 0.21997-0.21403 0.40937-0.44186 0.59375-0.6875s0.35541-0.50774 0.5-0.78125c0.14012-0.26505 0.27614-0.52473 0.375-0.8125 0.01041-0.03078 0.02133-0.06274 0.03125-0.09375 0.09046-0.27808 0.1388-0.5794 0.1875-0.875 0.053-0.318 0.094-0.634 0.094-0.969v-2-68-2c0-3.324-2.676-6-6-6h-72z" fill="url(#linearGradient3188)"/>
  <path id="path3615" opacity=".2" d="m12 90c-3.324 0-6-2.676-6-6v-2-68-2c0-0.33472 0.04135-0.6507 0.09375-0.96875 0.0487-0.2956 0.09704-0.59692 0.1875-0.875 0.0099-0.03 0.0209-0.063 0.0313-0.094 0.0989-0.2873 0.2349-0.547 0.375-0.812 0.1446-0.2735 0.3156-0.5356 0.5-0.7812 0.1844-0.2457 0.3738-0.4735 0.5937-0.6876 0.44-0.428 0.943-0.8145 1.5-1.0937 0.2786-0.1396 0.5735-0.2469 0.8748-0.3437-0.256 0.1002-0.4865 0.2362-0.7185 0.375-0.00741 0.0044-0.023866-0.0045-0.03125 0-0.031933 0.0193-0.062293 0.04251-0.09375 0.0625-0.1204 0.0767-0.23102 0.16351-0.34375 0.25-0.10617 0.0808-0.21328 0.16111-0.3125 0.25-0.1779 0.1614-0.3474 0.3453-0.5 0.5312-0.1075 0.1303-0.2183 0.2653-0.3124 0.4063-0.0251 0.0383-0.0385 0.0858-0.0626 0.125-0.0647 0.103-0.1302 0.2045-0.1874 0.3124-0.1011 0.1948-0.2057 0.4158-0.2813 0.625-0.008 0.0219-0.0236 0.0406-0.0313 0.0626-0.0318 0.0919-0.0358 0.1868-0.0624 0.2812-0.0304 0.1066-0.0704 0.203-0.0938 0.3125-0.0729 0.3415-0.125 0.6985-0.125 1.0625v2 68 2c0 2.7818 2.2182 5 5 5h2 68 2c2.7818 0 5-2.2182 5-5v-2-68-2c0-0.364-0.052-0.721-0.125-1.0625-0.044-0.2069-0.088-0.3977-0.156-0.5937-0.008-0.022-0.024-0.0407-0.031-0.0626-0.063-0.1737-0.139-0.3674-0.219-0.5312-0.042-0.0828-0.079-0.17-0.125-0.25-0.055-0.0972-0.127-0.1884-0.188-0.2812-0.094-0.141-0.205-0.276-0.312-0.4063-0.143-0.1745-0.303-0.347-0.469-0.5-0.011-0.0102-0.02-0.0211-0.031-0.0313-0.139-0.1255-0.285-0.2344-0.438-0.3437-0.102-0.0731-0.204-0.1534-0.312-0.2187-0.0074-0.0045-0.02384 0.0044-0.03125 0-0.23204-0.13873-0.46255-0.27478-0.71875-0.375 0.30153 0.0968 0.59646 0.20414 0.875 0.34375 0.55709 0.27922 1.0601 0.66569 1.5 1.0938 0.21997 0.21403 0.40937 0.44186 0.59375 0.6875s0.35541 0.50774 0.5 0.78125c0.14012 0.26505 0.27614 0.52473 0.375 0.8125 0.01041 0.03078 0.02133 0.06274 0.03125 0.09375 0.09046 0.27808 0.1388 0.5794 0.1875 0.875 0.053 0.318 0.094 0.634 0.094 0.969v2 68 2c0 3.324-2.676 6-6 6h-72z" fill="url(#radialGradient3619)"/>
 </g>
 <g id="layer5">
  <rect id="rect3171" height="66" stroke="#fff" stroke-linecap="round" stroke-width=".5" fill="url(#linearGradient3613)" rx="12" ry="12" width="66" opacity=".1" clip-path="url(#clipPath3613)" filter="url(#filter3794)" y="15" x="15"/>
 </g>
 <g id="layer4">
  <path id="path4048" d="m47.989 12c-19.848 0-35.989 16.162-35.989 36.011s16.141 35.989 35.989 35.989c19.85 0 36.011-16.14 36.011-35.989s-16.161-36.011-36.011-36.011zm0 3.6335c8.4263 0 16.108 3.2243 21.866 8.4998-0.13928-0.0087-0.26732-0.02163-0.41093-0.02163-3.1793 0-5.4503 2.7779-5.4503 5.7531 0 2.6672 1.5391 4.9243 3.1793 7.5915 1.2311 2.155 2.6819 4.9096 2.6819 8.9108 0 2.7693-0.82533 6.2626-2.4656 10.468l-3.244 10.793-11.679-34.8c1.9483-0.10208 3.6984-0.30279 3.6984-0.30279 1.7441-0.20676 1.5278-2.7623-0.21628-2.6603 0 0-5.2236 0.41093-8.608 0.41093-3.1802 0-8.5431-0.41093-8.5431-0.41093-1.745-0.10208-1.9396 2.5573-0.19465 2.6603 0 0 1.6515 0.20071 3.3956 0.30279l5.04 13.82-7.094 21.239-11.766-35.059c1.95-0.10208 3.6984-0.30279 3.6984-0.30279 1.7424-0.20676 1.5278-2.7623-0.21628-2.6603 0 0-5.2453 0.41093-8.6296 0.41093-0.60732 0-1.3167-0.01903-2.0763-0.04326 5.788-8.785 15.728-14.598 27.035-14.598zm28.419 16.848c2.5253 4.6094 3.9579 9.9022 3.9579 15.529 0 11.94-6.4694 22.356-16.091 27.965l9.884-28.571c1.847-4.6172 2.4656-8.3095 2.4656-11.593 0-1.1913-0.077-2.3004-0.21628-3.3307zm-57.963 2.357 15.421 42.305c-10.797-5.245-18.232-16.322-18.232-29.133 0-4.6924 1.0165-9.1461 2.8117-13.172zm30.128 16.005 9.9489 27.251c0.06575 0.16005 0.12977 0.29415 0.21628 0.43257-3.3636 1.1844-6.9798 1.8384-10.749 1.8384-3.1759 0-6.2272-0.46631-9.1271-1.3193l9.711-28.203z" fill="url(#linearGradient2928)"/>
  <path id="path4052" opacity=".4" d="m48 11c-19.849 0-36 16.151-36 36 0 0.16557 0.02901 0.33495 0.03125 0.5 0.271-19.617 16.289-35.5 35.969-35.5 19.681 0 35.698 15.883 35.969 35.5 0.002-0.165 0.031-0.334 0.031-0.5 0-19.849-16.151-36-36-36zm20.75 12.156c-2.817 0.364-4.75 2.962-4.75 5.719 0 0.15063 0.02169 0.28934 0.03125 0.4375 0.26114-2.7566 2.4256-5.1875 5.4062-5.1875 0.14361 0 0.26696-0.0087 0.40625 0-0.36-0.33-0.719-0.655-1.094-0.969zm-37.094 5.719s-5.2406 0.40625-8.625 0.40625c-0.40478 0-0.89488-0.01844-1.375-0.03125-0.23214 0.32559-0.46723 0.6344-0.6875 0.96875 0.75958 0.02423 1.4552 0.0625 2.0625 0.0625 3.3844 0 8.625-0.40625 8.625-0.40625 0.68036-0.03982 1.123 0.30942 1.3125 0.78125 0.28613-0.80606-0.17261-1.848-1.3125-1.7812zm6.8438 0c-0.91042 0.13062-1.2868 1.1147-1.0312 1.8438 0.17784-0.50083 0.64741-0.88449 1.3438-0.84375 0 0 5.3511 0.40625 8.5312 0.40625 3.3844 0 8.5938-0.40625 8.5938-0.40625 0.68289-0.03997 1.1553 0.30687 1.3438 0.78125 0.27853-0.80486-0.20859-1.8477-1.3438-1.7812 0 0-5.2094 0.40625-8.5938 0.40625-3.1802 0-8.5312-0.40625-8.5312-0.40625-0.10906-0.0064-0.21565-0.0139-0.3125 0zm37.906 3.5938c0.12284 0.90876 0.2029 1.9039 0.21875 2.9375 0.0045-0.1978 0-0.39894 0-0.59375 0-0.74428-0.03723-1.444-0.09375-2.125-0.0392-0.07289-0.08525-0.1462-0.125-0.21875zm-47.906 0.312c-0.11728 0.0069-0.19337 0.02501-0.3125 0.03125l11.75 35.063 7.093-21.219-0.187-0.468-6.906 20.687-11.438-34.094zm24.281 0c-0.1172 0.0069-0.19347 0.02501-0.3125 0.03125l11.688 34.813 3.219-10.781c1.6403-4.2054 2.4688-7.6995 2.4688-10.469 0-0.14155-0.02769-0.26779-0.03125-0.40625-0.10727 2.6698-0.91188 5.9636-2.4375 9.875l-3.219 10.781-11.375-33.844zm27.562 14.625c-0.14382 11.581-6.3623 21.678-15.625 27.281l-0.4375 1.2812c9.623-5.609 16.095-16.028 16.095-27.968 0-0.19959-0.02766-0.39501-0.03125-0.59375zm-64.688 0.0625c-0.002 0.178-0.03 0.354-0.03 0.532 0 12.811 7.4532 23.911 18.25 29.156l-0.4375-1.25c-10.424-5.265-17.606-16.002-17.782-28.437zm42.72 30.188c-3.258 1.103-6.744 1.719-10.375 1.719-3.0613 0-6.0067-0.42352-8.8125-1.2188l-0.313 0.906c2.8999 0.85301 5.9491 1.3125 9.125 1.3125 3.7693 0 7.3864-0.6594 10.75-1.8438-0.08651-0.13842-0.153-0.27745-0.21875-0.4375l-0.156-0.437z"/>
  <path id="path4057" opacity=".3" d="m48 15.625c-11.307 0-21.244 5.8084-27.031 14.594 0.25331 0.0081 0.44728 0.02484 0.6875 0.03125 5.868-8.229 15.467-13.625 26.344-13.625 7.8997 0 15.131 2.8301 20.75 7.5312 0.22245-0.02875 0.45478-0.03125 0.6875-0.03125 0.14361 0 0.26696-0.0087 0.40625 0-5.759-5.276-13.418-8.5-21.844-8.5zm16.031 14.719c-0.015 0.173-0.031 0.355-0.031 0.531 0 2.6672 1.5472 4.9266 3.1875 7.5938 1.1875 2.0788 2.528 4.7247 2.625 8.5 0.0081-0.20064 0.03125-0.40018 0.03125-0.59375 0-4.0012-1.4252-6.7512-2.6562-8.9062-1.5411-2.5058-2.9863-4.663-3.1562-7.125zm-31.062 1.3125c-0.15166 0.42726-0.49015 0.80337-1.0938 0.875 0 0-1.7375 0.17917-3.6875 0.28125l0.312 0.969c1.8023-0.10611 3.375-0.25 3.375-0.25 1.0627-0.12611 1.39-1.1373 1.0938-1.875zm24.312 0c-0.14941 0.43175-0.51607 0.80281-1.125 0.875 0 0-1.7392 0.17917-3.6875 0.28125l0.3125 0.96875c1.8011-0.10611 3.375-0.25 3.375-0.25 1.0612-0.12581 1.4179-1.1378 1.125-1.875zm-19.812 0.0625c-0.26781 0.7542 0.07638 1.7506 1.125 1.8125 0 0 1.6622 0.17917 3.4062 0.28125l4.8438 13.375 0.1875-0.53125-5.031-13.844c-1.7441-0.10208-3.4062-0.28125-3.4062-0.28125-0.61074-0.03603-0.97278-0.37814-1.125-0.8125zm38.938 0.75c0.05226 0.38662 0.09105 0.80978 0.125 1.2188 2.3633 4.3937 3.7165 9.403 3.8125 14.719 0.001-0.136 0.031-0.269 0.031-0.406 0-5.6268-1.4435-10.922-3.9688-15.531zm-57.969 2.375c-1.796 4.026-2.813 8.465-2.813 13.157 0 0.15614 0.02905 0.31313 0.03125 0.46875 0.07395-4.4965 1.0543-8.7525 2.7812-12.625l15 41.062c0.14876 0.07515 0.28743 0.17709 0.4375 0.25l-15.436-42.312zm58.188 1.5625c-0.07107 3.1357-0.73131 6.6568-2.4688 11l-9.875 28.562c0.15155-0.08835 0.28753-0.19053 0.4375-0.28125l9.4375-27.281c1.845-4.617 2.467-8.31 2.467-11.594 0-0.1406 0.0021-0.26793 0-0.40625zm-64.595 12.094c-0.002 0.168-0.031 0.332-0.031 0.5 0 19.849 16.151 36 36 36s36-16.151 36-36c0-0.168-0.029-0.332-0.031-0.5-0.267 19.622-16.285 35.5-35.969 35.5-19.683 0-35.703-15.878-35.969-35.5zm36.531 2.344-9.687 28.218c0.10464 0.03078 0.20747 0.06398 0.3125 0.09375l9.375-27.312 9.8125 26.812c0.12431-0.04209 0.25136-0.08147 0.375-0.125-0.08651-0.13842-0.153-0.27745-0.21875-0.4375l-9.9688-27.25z" fill="#fff"/>
 </g>
</svg>
