<?xml version="1.0" encoding="UTF-8" standalone="no"?>
<!-- Created with Inkscape (http://www.inkscape.org/) -->
<svg id="svg2" xmlns:rdf="http://www.w3.org/1999/02/22-rdf-syntax-ns#" xmlns="http://www.w3.org/2000/svg" height="96" width="96" version="1.1" xmlns:cc="http://creativecommons.org/ns#" xmlns:xlink="http://www.w3.org/1999/xlink" xmlns:dc="http://purl.org/dc/elements/1.1/">
 <defs id="defs4">
  <linearGradient id="linearGradient9714" y2="5.9877" gradientUnits="userSpaceOnUse" x2="48" gradientTransform="matrix(1.1136 0 0 1.1768 -5.9189 -10.692)" y1="90" x1="48">
   <stop id="stop3702" stop-color="#970303" offset="0"/>
   <stop id="stop3704" stop-color="#f31d0c" offset="1"/>
  </linearGradient>
  <linearGradient id="linearGradient3048" y2="120" gradientUnits="userSpaceOnUse" x2="58" gradientTransform="matrix(1.106 0 0 1.0913 -6.6704 949.83)" y1="19" x1="58">
   <stop id="stop4087" stop-color="#782121" offset="0"/>
   <stop id="stop4089" stop-color="#782121" stop-opacity="0" offset="1"/>
  </linearGradient>
  <linearGradient id="linearGradient3087" y2="159.48" gradientUnits="userSpaceOnUse" y1="72.699" gradientTransform="matrix(.65406 -.17291 -.17525 -.64533 107.64 1068)" x2="-50.244" x1="-73.494">
   <stop id="stop3696" stop-color="#e6e6e6" offset="0"/>
   <stop id="stop3698" stop-color="#f5f5f5" offset="1"/>
  </linearGradient>
 </defs>
 <metadata id="metadata7">
  <rdf:RDF>
   <cc:Work rdf:about="">
    <dc:format>image/svg+xml</dc:format>
    <dc:type rdf:resource="http://purl.org/dc/dcmitype/StillImage"/>
    <dc:title/>
   </cc:Work>
  </rdf:RDF>
 </metadata>
 <g id="layer1" transform="translate(0 -956.36)">
  <rect id="rect5263-0" fill-opacity=".019608" ry="12.724" height="89.978" width="89.978" y="959.35" x="2.9998"/>
  <rect id="rect5261-6" fill-opacity=".039216" ry="12.552" height="88.762" width="88.762" y="959.96" x="3.6078"/>
  <rect id="rect5259-9" fill-opacity=".078431" ry="12.38" height="87.546" width="87.546" y="960.57" x="4.2157"/>
  <rect id="rect5257-5" fill-opacity=".15686" ry="12.208" height="86.33" width="86.33" y="961.18" x="4.8237"/>
  <path id="rect2419-7" d="m17.469 5.4062c-6.668 0-12.032 5.3948-12.032 12.063l0.0005 61.031c0 6.668 5.3635 12.031 12.032 12.031h61.03c6.668 0 12.031-5.363 12.031-12.031v-61.031c0-6.668-5.363-12.063-12.031-12.063l-61.031 0.0002z" transform="translate(0 956.36)" fill="url(#linearGradient9714)"/>
  <path id="rect5265-0" d="m5.4316 1029.8v5.0663c0 6.668 5.3645 12.032 12.032 12.032h61.049c6.668 0 12.032-5.3645 12.032-12.032v-5.0663c0 6.6681-5.3645 12.032-12.032 12.032h-61.049c-6.668 0-12.032-5.3643-12.032-12.032z" fill-opacity=".17"/>
  <path id="path17217" opacity=".63831" d="m77.044 1015.8c-0.19366-0.2586-0.50042-0.6219-0.84577-0.9714-3.593-3.6379-6.2765-7.9332-7.7222-12.691-0.06636-0.2212-0.13272-0.4422-0.19231-0.6641-0.0623-0.2232-0.11647-0.4509-0.172-0.6775-1.1572-4.8303-1.0157-9.8765 0.25799-14.797 0 0 0.19434-0.81242 0.24445-1.1471 1.0706-6.2174-2.8088-12.329-9.1029-13.994-6.4174-1.6963-12.995 1.854-15.093 7.9779-0.08668 0.2285-0.26341 0.80574-0.26544 0.81443-1.3794 4.8238-3.7758 9.2032-7.1615 12.788-3.8462 3.9833-8.7359 6.8154-14.218 8.2644-6.6781 1.7651-10.645 8.5498-8.8558 15.142 1.7924 6.5901 8.658 10.504 15.341 8.7368 4.9865-1.256 10.101-1.3985 14.999-0.2573 0.2282 0.057 0.45775 0.1116 0.68528 0.1724 0.2282 0.06 0.45437 0.1256 0.68054 0.1891 4.82 1.4277 9.1781 4.0735 12.86 7.6205 0.45234 0.447 0.84305 0.7616 1.208 1.0162 4.9493 3.7213 11.992 3.436 16.504-1.0162 4.5802-4.5165 4.8457-11.653 0.84915-16.506zm-30.346 2.2334c-6.5379-1.7283-10.419-8.3613-8.6675-14.812 1.7531-6.4512 8.4745-10.281 15.012-8.5524 6.5406 1.7297 10.421 8.3606 8.6682 14.812-1.7525 6.4513-8.4725 10.282-15.013 8.5524z" fill="#fff"/>
  <path id="path5252-0" d="m5.4316 1033.9v1.0133c0 6.668 5.3645 12.032 12.032 12.032h61.049c6.668 0 12.032-5.3645 12.032-12.032v-1.0133c0 6.6681-5.3645 12.032-12.032 12.032h-61.049c-6.668 0-12.032-5.3644-12.032-12.032z" fill-opacity=".098039"/>
  <path id="path17213" fill="#800000" d="m76.794 1011.8c-0.19366-0.2586-0.50042-0.6219-0.84577-0.9714-3.593-3.6379-6.2765-7.9332-7.7222-12.691-0.06636-0.2212-0.13272-0.44221-0.19231-0.66411-0.0623-0.2232-0.11647-0.4509-0.172-0.67746-1.1572-4.8304-1.0157-9.8766 0.25799-14.797 0 0 0.19434-0.81242 0.24445-1.1471 1.0706-6.2174-2.8088-12.329-9.1029-13.994-6.4174-1.6963-12.995 1.854-15.093 7.9779-0.08668 0.2285-0.26341 0.80574-0.26544 0.81443-1.3794 4.8238-3.7758 9.2032-7.1615 12.788-3.8462 3.9833-8.7359 6.8154-14.218 8.2645-6.6781 1.7651-10.645 8.5498-8.8558 15.141 1.7924 6.5901 8.658 10.504 15.341 8.7368 4.9865-1.256 10.101-1.3985 14.999-0.2573 0.2282 0.057 0.45775 0.1116 0.68528 0.1724 0.2282 0.06 0.45437 0.1256 0.68054 0.1891 4.82 1.4277 9.1781 4.0735 12.86 7.6205 0.45234 0.447 0.84305 0.7616 1.208 1.0162 4.9493 3.7213 11.992 3.436 16.504-1.0162 4.5802-4.5165 4.8457-11.653 0.84915-16.506zm-30.346 2.2334c-6.5379-1.7283-10.419-8.3613-8.6675-14.812 1.7531-6.4513 8.4745-10.281 15.012-8.5525 6.5406 1.7297 10.421 8.3607 8.6682 14.812-1.7525 6.4513-8.4725 10.282-15.013 8.5524z"/>
  <path id="path3860-2" d="m76.794 1014.8c-0.19366-0.2586-0.50042-0.6219-0.84577-0.9714-3.593-3.6379-6.2765-7.9332-7.7222-12.691-0.06636-0.2212-0.13272-0.4422-0.19231-0.6641-0.0623-0.2232-0.11647-0.4509-0.172-0.6775-1.1572-4.8304-1.0157-9.8766 0.25799-14.797 0 0 0.19434-0.81242 0.24445-1.1471 1.0706-6.2174-2.8088-12.329-9.1029-13.994-6.4174-1.6963-12.995 1.854-15.093 7.9779-0.08668 0.2285-0.26341 0.80574-0.26544 0.81443-1.3794 4.8238-3.7758 9.2032-7.1615 12.788-3.8462 3.9833-8.7359 6.8154-14.218 8.2645-6.6781 1.7651-10.645 8.5498-8.8558 15.142 1.7924 6.5901 8.658 10.504 15.341 8.7368 4.9865-1.256 10.101-1.3985 14.999-0.2573 0.2282 0.057 0.45775 0.1116 0.68528 0.1724 0.2282 0.06 0.45437 0.1256 0.68054 0.1891 4.82 1.4277 9.1781 4.0735 12.86 7.6205 0.45234 0.447 0.84305 0.7616 1.208 1.0162 4.9493 3.7213 11.992 3.436 16.504-1.0162 4.5802-4.5165 4.8457-11.653 0.84915-16.506zm-30.346 2.2334c-6.5379-1.7283-10.419-8.3613-8.6675-14.812 1.7531-6.4513 8.4745-10.281 15.012-8.5525 6.5406 1.7297 10.421 8.3607 8.6682 14.812-1.7525 6.4513-8.4725 10.282-15.013 8.5524z" fill="url(#linearGradient3087)"/>
  <path id="path4078" opacity=".25" d="m55.682 969.47c-5.1303 0.14397-9.8045 3.4475-11.51 8.4232-0.08668 0.22848-0.27447 0.77565-0.27651 0.78434-1.3794 4.8238-3.7688 9.2031-7.1546 12.788-3.8462 3.9833-8.7233 6.8376-14.205 8.2867-6.6781 1.7651-10.672 8.5497-8.8828 15.141 1.7924 6.5902 8.6633 10.498 15.346 8.7301 4.9865-1.256 10.103-1.4139 15-0.2728 0.2282 0.056 0.46374 0.1097 0.69126 0.1704 0.2282 0.06 0.4651 0.1412 0.69126 0.2046 4.82 1.4278 9.1759 4.0578 12.858 7.6048 0.45234 0.447 0.84473 0.7685 1.2097 1.0231 4.9493 3.7213 11.974 3.4291 16.487-1.0231 4.5802-4.5165 4.8606-11.652 0.86408-16.505-0.19366-0.2585-0.51874-0.6054-0.86408-0.9548-3.593-3.6378-6.2619-7.9282-7.7076-12.686-0.06636-0.2211-0.14779-0.4602-0.20738-0.682-0.0623-0.2232-0.11729-0.4215-0.17282-0.6479-1.1572-4.8305-0.99721-9.8796 0.27651-14.8 0 0 0.19183-0.82474 0.24194-1.1595 1.0706-6.2174-2.796-12.317-9.0901-13.982-1.2033-0.31807-2.4107-0.47655-3.5946-0.44333zm0.03456 1.1595c1.0689-0.0287 2.1491 0.0843 3.2489 0.37512 5.7359 1.5173 9.2695 7.0275 8.2952 12.686a1.1369 1.1217 0 0 0 -0.03456 0.0342c-0.02742 0.18314-0.19616 1.0068-0.20738 1.0572-0.00035 0.001 0 0.0342 0 0.0342-1.3064 5.0666-1.4773 10.299-0.27651 15.312 0.05737 0.234 0.11347 0.4352 0.17282 0.6479 0.0032 0.012-0.0033 0.022 0 0.034 0.07113 0.2592 0.15211 0.4978 0.20738 0.682 1.5022 4.9437 4.2757 9.4087 7.9841 13.163 0.33175 0.3356 0.67383 0.6908 0.79496 0.8526a1.1369 1.1217 0 0 0 0 0.034c3.6363 4.4155 3.4128 10.89-0.76039 15.005-4.113 4.0581-10.486 4.3148-15 0.9208a1.1369 1.1217 0 0 0 -0.03456 -0.034c-0.31012-0.2163-0.65878-0.4789-1.0715-0.8867a1.1369 1.1217 0 0 0 0 -0.034c-3.8014-3.6624-8.3339-6.3602-13.341-7.8434a1.1369 1.1217 0 0 0 0 -0.034c-0.17423-0.049-0.42277-0.1322-0.69126-0.2046h-0.03456c-0.24322-0.064-0.4861-0.12-0.69126-0.1704-5.093-1.1867-10.408-1.0232-15.553 0.2728a1.1369 1.1217 0 0 0 -0.03456 0c-6.0898 1.6109-12.296-1.9413-13.929-7.9457-1.6299-6.0029 2.0036-12.135 8.0878-13.743 5.6798-1.5014 10.734-4.4613 14.724-8.5937a1.1369 1.1217 0 0 0 0 -0.0342c3.5187-3.7258 6.0074-8.2527 7.4311-13.232a1.1369 1.1217 0 0 0 0 -0.0682c0.001-0.004 0.0124-0.008 0.06913-0.17051 0.05673-0.16269 0.13942-0.3553 0.17282-0.44332a1.1369 1.1217 0 0 0 0 -0.0342c1.4324-4.1801 5.1739-7.0531 9.4012-7.5706 0.35114-0.043 0.71515-0.0586 1.0715-0.0682zm-6.6361 21.552c-0.44102 0.0158-0.88187 0.043-1.3134 0.10225-5.1743 0.71128-9.6605 4.4071-11.095 9.6849-1.911 7.0367 2.3403 14.314 9.4703 16.198 7.1344 1.886 14.506-2.3089 16.418-9.3439 1.9116-7.0372-2.338-14.312-9.4703-16.198-1.3334-0.35252-2.6863-0.49095-4.0093-0.44332zm0.03456 1.1254c1.2048-0.0474 2.4378 0.0851 3.6637 0.40922 6.5406 1.7297 10.428 8.3489 8.6754 14.8-1.7525 6.4512-8.4599 10.288-15 8.5595-6.5379-1.7283-10.427-8.3495-8.6754-14.8 1.4244-5.2417 6.116-8.7636 11.337-8.9688z" fill="url(#linearGradient3048)"/>
 </g>
</svg>
