<?xml version="1.0" encoding="UTF-8" standalone="no"?>
<!-- Created with Inkscape (http://www.inkscape.org/) -->
<svg id="svg2" xmlns:rdf="http://www.w3.org/1999/02/22-rdf-syntax-ns#" xmlns="http://www.w3.org/2000/svg" height="96" width="96" version="1.1" xmlns:cc="http://creativecommons.org/ns#" xmlns:xlink="http://www.w3.org/1999/xlink" xmlns:dc="http://purl.org/dc/elements/1.1/">
 <defs id="defs4">
  <linearGradient id="linearGradient2862-8" y2="138.66" gradientUnits="userSpaceOnUse" x2="48" y1="20.221" x1="48">
   <stop id="stop3739-1-6" stop-color="#fff" offset="0"/>
   <stop id="stop3741-5-1" stop-color="#fff" stop-opacity="0" offset="1"/>
  </linearGradient>
  <clipPath id="clipPath3613-8">
   <rect id="rect3615-2" rx="6" ry="6" height="84" width="84" y="6" x="6" fill="#fff"/>
  </clipPath>
  <filter id="filter3794-9" height="1.384" width="1.384" color-interpolation-filters="sRGB" y="-.192" x="-.192">
   <feGaussianBlur id="feGaussianBlur3796-4" stdDeviation="5.28"/>
  </filter>
  <linearGradient id="linearGradient17964" y2="5.9877" gradientUnits="userSpaceOnUse" x2="48" gradientTransform="matrix(1.0595 0 0 1.0774 -1.3571 -4.9643)" y1="90" x1="48">
   <stop id="stop3702-6" stop-color="#84cf18" offset="0"/>
   <stop id="stop3704-7" stop-color="#bff571" offset="1"/>
  </linearGradient>
  <linearGradient id="linearGradient17967" y2="306.34" gradientUnits="userSpaceOnUse" x2="96.074" gradientTransform="matrix(.66134 0 0 .66134 -26.27 -129.44)" y1="239.55" x1="114.71">
   <stop id="stop3595" stop-color="#0362b2" offset="0"/>
   <stop id="stop3597" stop-color="#66bbfb" offset="1"/>
  </linearGradient>
  <linearGradient id="linearGradient17969" y2="246.08" gradientUnits="userSpaceOnUse" x2="105.47" gradientTransform="matrix(.66134 0 0 .66134 -26.27 -129.44)" y1="268.57" x1="100.54">
   <stop id="stop4003-4" stop-color="#fff" offset="0"/>
   <stop id="stop4005" stop-color="#c7c7c7" offset="1"/>
  </linearGradient>
 </defs>
 <metadata id="metadata7">
  <rdf:RDF>
   <cc:Work rdf:about="">
    <dc:format>image/svg+xml</dc:format>
    <dc:type rdf:resource="http://purl.org/dc/dcmitype/StillImage"/>
    <dc:title/>
   </cc:Work>
  </rdf:RDF>
 </metadata>
 <g id="layer1" transform="translate(0 -956.36)">
  <rect id="rect5263-0" fill-opacity=".019608" ry="12.724" height="89.978" width="89.978" y="959.35" x="2.9998"/>
  <rect id="rect5261-6" fill-opacity=".039216" ry="12.552" height="88.762" width="88.762" y="959.96" x="3.6078"/>
  <rect id="rect5259-9" fill-opacity=".078431" ry="12.38" height="87.546" width="87.546" y="960.57" x="4.2157"/>
  <rect id="rect5257-5" fill-opacity=".15686" ry="12.208" height="86.33" width="86.33" y="961.18" x="4.8237"/>
  <path id="rect2419" d="m17.469 5.4062c-6.668 0-12.032 5.3948-12.032 12.063l0.0005 61.031c0 6.668 5.3635 12.031 12.032 12.031h61.03c6.668 0 12.031-5.363 12.031-12.031v-61.031c0-6.668-5.363-12.063-12.031-12.063l-61.031 0.0002z" transform="translate(0 956.36)" fill="url(#linearGradient17964)"/>
  <path id="rect5265-0" d="m5.4316 1029.8v5.0663c0 6.668 5.3645 12.032 12.032 12.032h61.049c6.668 0 12.032-5.3645 12.032-12.032v-5.0663c0 6.6681-5.3645 12.032-12.032 12.032h-61.049c-6.668 0-12.032-5.3643-12.032-12.032z" fill-opacity=".2"/>
  <path id="path5252-0" d="m5.4316 1033.9v1.0133c0 6.668 5.3645 12.032 12.032 12.032h61.049c6.668 0 12.032-5.3645 12.032-12.032v-1.0133c0 6.6681-5.3645 12.032-12.032 12.032h-61.049c-6.668 0-12.032-5.3644-12.032-12.032z" fill-opacity=".098039"/>
  <g id="layer5" transform="translate(-1.029e-7 953.86)">
   <rect id="rect3171" height="66" stroke="#fff" stroke-linecap="round" stroke-width=".5" fill="url(#linearGradient2862-8)" rx="12" ry="12" width="66" opacity=".2" clip-path="url(#clipPath3613-8)" filter="url(#filter3794-9)" y="15" x="15"/>
  </g>
  <path id="path3717" opacity=".05" d="m58.125 963.61c-4.9015-0.0736-9.6182 3.1263-10.884 7.9518-1.475 1.5654 1.0763 6.5015-0.12293 5.9063-3.7125-1.869-7.9448-2.3875-12.056-2.3581 1.9805-5.3506-3.0203-10.605-8.1982-11.128-3.3866-0.71323-7.0394 0.57367-9.2393 3.0656-2.7318 3.2032-2.9114 8.8539 0.85775 11.416 3.1693 1.5664-3.0919 3.287-3.8648 5.5311-5.7348 6.2182-6.951 16-2.7961 23.393 7.493 14.038 27.193 20.075 41.053 11.973 0.81332 2.7271-1.881 7.2118 0.20921 10.57 3.5738 11.278 19.622 16.829 28.796 8.8264 4.1841-3.9899 6.1426-10.422 3.804-15.893-3.4263-9.1773-14.942-14.341-24.028-10.535-1.9939-1.2474 1.4939-3.7694 1.25-5.375 3.0449-7.7431-0.12152-16.626-5.75-22.344 5.4751 1.5329 12.663 0.008 15.031-5.6875 2.0568-4.9694-0.57908-10.871-5.3188-13.179-2.6546-1.4684-5.7086-2.2316-8.7437-2.1337z"/>
  <path id="path3711" opacity=".1" d="m58.156 964.52c-3.4302 0.11563-6.7976 1.4107-8.5938 4.2812-0.49251 0.78711-0.88459 1.5972-1.1875 2.3125-0.79455 1.8763-0.77139 3.9298-0.125 5.75 0.27063 0.76206 0.7511 1.2616 1.1875 1.7812l-0.59375 0.625c-1.361-0.71789-2.7409-1.4145-4.3125-1.9375-3.6636-1.2192-7.3461-1.4994-10.875-1.3438 0.1372-0.22782 0.26985-0.41223 0.40625-0.6875 1.0318-2.0823 0.52557-4.4385-0.46875-6.125-0.97305-1.6505-2.6062-2.9173-4.5938-3.6875-1.9907-0.77141-4.0931-0.92682-6-0.59375-1.7747 0.30997-3.4676 1.1971-4.625 2.75-0.0047 0.006-0.0266-0.006-0.03125 0a0.86105 0.86105 0 0 0 -0.3125 0.3125 0.86105 0.86105 0 0 0 -0.03 0.05c-0.5523 0.89383-0.79103 1.7349-0.9375 2.0312-0.94919 1.9206-0.73615 4.1405 0.28125 5.875 0.91355 1.5575 2.4552 2.6948 4.25 3.4688-5.0113 2.8299-8.7992 7.3052-10.469 12.594-3.7136 11.763 4.7572 24.114 18.219 28.594 8.51 2.8321 17.224 1.751 23.719-2.2812l1.5938 1.5625c-0.22153 0.4109-0.45858 0.8173-0.65625 1.3125-1.3718 3.4366-0.83926 7.1643 0.6875 10.375 1.6161 3.3986 4.5837 6.3611 8.4688 8.2187 7.7681 3.7144 17.128 1.9276 20.625-4.9687 0.31815-0.6274 0.79527-1.2987 1.1875-2.2813 1.376-3.4471 0.88634-7.3185-0.65625-10.562-1.6182-3.4029-4.5912-6.3334-8.4688-8.1875-4.9057-2.3457-10.164-2.3359-14.438-0.4062l-1.7188-1.5938c0.70151-1.0517 1.3845-2.1414 1.8438-3.4375 0.13677-0.386 0.2743-0.8241 0.40625-1.2813 0.03594-0.071 0.02504-0.077 0.03125-0.094 0.02585-0.072 0.0544-0.093 0.0625-0.125 0.0052-0.02-0.0038-0.013 0-0.031s-0.0025-0.015 0-0.031c0.0039-0.017 0.02466-0.036 0.03125-0.063 0.05104-0.1408 0.0893-0.2742 0.125-0.375 2.7772-7.8383-0.33998-16.144-6.5625-22.094l0.625-0.65625c2.6754 0.77253 5.5632 1.0049 8.1875 0.40625 2.9422-0.67111 5.6732-2.352 6.8438-5.1875 0.0056-0.0135 0.02574-0.0177 0.03125-0.0313h-0.03125c1.2834-3.1183 0.69097-6.0346-0.53125-8.125-1.2864-2.2001-3.5151-3.9281-6.2812-5-2.0766-0.80471-4.2518-1.1632-6.3125-1.0938z"/>
  <path id="path3707" opacity=".15" d="m58.188 965.39c-3.2336 0.10901-6.3085 1.3216-7.9062 3.875-0.46114 0.73697-0.83588 1.5048-1.125 2.1875-0.70296 1.6601-0.67545 3.487-0.09375 5.125 0.2935 0.82647 0.89736 1.4786 1.4688 2.1562l-1.4688 1.5625c-1.5098-0.82452-3.0789-1.5793-4.8125-2.1562-4.1145-1.3692-8.2662-1.6805-12.188-1.3125 0.04956-0.0688 0.11012-0.11377 0.15625-0.1875a0.90098 0.90098 0 0 0 0.03125 0c0.35362-0.57093 0.70329-1.0569 1.0312-1.7188 0.86004-1.7356 0.43874-3.8262-0.4375-5.3125-0.85642-1.4526-2.3156-2.5992-4.1562-3.3125-1.84-0.71301-3.7791-0.86854-5.5312-0.5625-1.7558 0.30667-3.4328 1.1318-4.4062 2.6875a0.90098 0.90098 0 0 0 -0.03125 0c-0.47102 0.76229-0.64433 1.502-0.875 1.9688-0.8079 1.6347-0.63023 3.5618 0.25 5.0625 0.86151 1.4688 2.3502 2.6006 4.1875 3.3125 0.5131 0.19883 0.99639 0.21725 1.5 0.3125-5.7532 2.581-10.044 7.4254-11.844 13.125-3.5475 11.237 4.5709 23.166 17.688 27.531 8.5337 2.8399 17.29 1.679 23.594-2.5l2.5 2.4062c-0.30898 0.5868-0.64897 1.168-0.90625 1.8125-1.2641 3.1668-0.79262 6.6407 0.65625 9.6875 1.5235 3.2039 4.3455 6.0353 8.0625 7.8125 7.4318 3.5536 16.228 1.8292 19.469-4.5625 0.35533-0.7007 0.80465-1.3379 1.1562-2.2187 1.267-3.174 0.83269-6.8096-0.625-9.875-1.5246-3.206-4.3494-6.0058-8.0625-7.7813-4.9024-2.3441-10.17-2.2591-14.281-0.1875l-2.5938-2.4375c0.83626-1.2031 1.6175-2.4426 2.125-3.875 0.1632-0.4605 0.33775-0.9357 0.46875-1.4375 0.0026-0.01-0.0026-0.021 0-0.031-0.03193 0.1301-0.01425 0.088 0.03125-0.094 0.0592-0.1613 0.11315-0.3158 0.15625-0.4375 2.7416-7.7379-0.42928-16.043-6.9062-21.844l1.4688-1.5625c2.6962 0.87696 5.6806 1.1003 8.3125 0.5 2.7706-0.63198 5.2231-2.158 6.25-4.6875 1.1917-2.8699 0.61982-5.4598-0.5-7.375-1.1659-1.9941-3.2229-3.6094-5.8438-4.625-1.9669-0.76219-4.0272-1.0967-5.9688-1.0312z"/>
  <path id="path3596-8" opacity=".3" d="m58.213 966.31c-3.0295 0.10213-5.8028 1.2262-7.186 3.4368-0.41856 0.66891-0.74118 1.3735-1.0236 2.0404-0.60992 1.4403-0.61372 3.0358-0.10119 4.4791 0.33343 0.9389 0.96523 1.7974 1.7496 2.5828l-2.3745 2.5411c-1.6424-0.94118-3.4044-1.7607-5.3114-2.3953-4.3448-1.4459-8.7434-1.8012-12.831-1.2706l-0.39575-0.72901c0.28315-0.24036 0.52895-0.51342 0.72901-0.83316 0.37135-0.59956 0.70437-1.0584 0.99383-1.6425 0.65926-1.3304 0.34781-3.1884-0.38979-4.4395s-2.024-2.2845-3.7076-2.9369c-1.6835-0.65236-3.4795-0.81786-5.0614-0.54155-1.582 0.2763-3.0134 1.0153-3.8117 2.2912-0.37207 0.60214-0.55204 1.3174-0.84506 1.9103-0.65847 1.3323-0.49565 2.9158 0.24102 4.1717s2.0223 2.3046 3.7076 2.9577c0.91473 0.35446 1.8625 0.46827 2.7911 0.54155l0.33326 0.62487c-6.354 2.2004-11.037 7.3861-12.929 13.378-3.3726 10.683 4.3568 22.18 17.115 26.426 8.575 2.8537 17.384 1.5766 23.453-2.7702l3.4576 3.3118c-0.0026 0 0.0026 0.015 0 0.021-0.38765 0.7644-0.86373 1.5656-1.1698 2.3324-1.1516 2.8849-0.73893 6.1026 0.62826 8.9777 1.4266 3.0001 4.0822 5.6594 7.6234 7.3526 7.0817 3.3861 15.319 1.71 18.288-4.145 0.38765-0.7644 0.82165-1.3973 1.1277-2.1641 1.1516-2.8848 0.78102-6.2709-0.58618-9.146-1.4266-3.0001-4.0822-5.6593-7.6234-7.3526-4.9083-2.3469-10.25-2.1865-14.143 0.042l-3.4784-3.2909c0.9968-1.3135 1.8292-2.7555 2.3953-4.3533 0.16469-0.4648 0.31634-0.9262 0.43741-1.3955 0.0069-0.028 0.0137-0.055 0.02077-0.083 0.06963-0.175 0.14494-0.342 0.20828-0.5207 2.702-7.6259-0.5485-15.954-7.311-21.579l2.4162-2.562c0.05722 0.0227 0.10969 0.0613 0.16663 0.0833 5.2709 1.8856 12.062 0.79154 13.833-3.5724 1.0847-2.6124 0.57724-4.8308-0.44037-6.5713-1.0411-1.7806-2.9091-3.294-5.3739-4.2491-1.8495-0.7167-3.8075-1.0194-5.6238-0.95813v-0.00003z"/>
  <g id="g2877" transform="matrix(1.0078 0 0 1.0078 -1.5216 951.4)">
   <path id="path3596" d="m59.27 13.805c-3.006 0.10133-5.7576 1.2166-7.13 3.41-0.4153 0.66371-0.73541 1.3628-1.0156 2.0245-0.60517 1.4291-0.60895 3.0121-0.1004 4.4442 0.33083 0.93158 0.95772 1.7834 1.736 2.5627l-2.356 2.5213c-1.63-0.933-3.378-1.746-5.271-2.376-4.311-1.435-8.675-1.787-12.73-1.261l-0.39267-0.72334c0.28095-0.23848 0.52483-0.50942 0.72333-0.82667 0.36846-0.59488 0.69889-1.0501 0.9861-1.6297 0.65413-1.32 0.3451-3.1636-0.38676-4.405s-2.0083-2.2667-3.6787-2.914c-1.6704-0.64728-3.4524-0.81149-5.022-0.53734-1.5696 0.27416-2.9899 1.0074-3.782 2.2733-0.36917 0.59746-0.54774 1.3072-0.83848 1.8954-0.65334 1.322-0.49179 2.8931 0.23914 4.1393 0.73093 1.2461 2.0065 2.2867 3.6787 2.9347 0.90761 0.3517 1.848 0.46463 2.7693 0.53734l0.33067 0.62c-6.3046 2.1832-10.951 7.3285-12.828 13.274-3.3463 10.6 4.3229 22.007 16.982 26.22 8.5083 2.8315 17.248 1.5643 23.271-2.7487l3.4307 3.286c-0.0026 0.0051 0.0026 0.0153 0 0.02061-0.38463 0.75848-0.857 1.5535-1.1607 2.3143-1.1426 2.8624-0.73318 6.0551 0.62336 8.9078 1.4155 2.9767 4.0504 5.6153 7.564 7.2954 7.0265 3.3598 15.199 1.6967 18.145-4.1127 0.38463-0.75848 0.81525-1.3865 1.1189-2.1472 1.1426-2.8624 0.77494-6.2221-0.58161-9.0748-1.4155-2.9767-4.0504-5.6153-7.564-7.2954-4.8701-2.3286-10.17-2.1695-14.033 0.0413l-3.4513-3.2653c0.98904-1.3032 1.815-2.734 2.3767-4.3194 0.1634-0.46118 0.31387-0.91905 0.43401-1.3847 0.0068-0.02787 0.01359-0.05472 0.02061-0.08268 0.06909-0.17366 0.14381-0.33929 0.20666-0.51667 2.68-7.566-0.545-15.829-7.255-21.41l2.3974-2.542c0.05677 0.02249 0.10884 0.06078 0.16533 0.08266 5.2299 1.8709 11.968 0.78538 13.726-3.5446 1.0763-2.592 0.57274-4.7932-0.43694-6.5201-1.033-1.7668-2.8864-3.2683-5.332-4.216-1.8351-0.71112-3.7779-1.0114-5.58-0.95067v-0.000032z" fill="#024c88"/>
   <path id="path3650" d="m59.311 14.756c-2.7888 0.09401-5.229 1.1394-6.3654 2.9553-1.4395 2.3006-0.3441 5.143 2.4387 7.1094l-4.795 5.125c-1.756-1.067-3.665-1.974-5.745-2.666-4.408-1.467-8.891-1.795-12.979-1.158l-1.777-3.327c1.0904-0.30993 1.9967-0.88931 2.5007-1.6947 1.2019-1.9207-0.27032-4.4114-3.286-5.58s-6.4448-0.57739-7.6467 1.3433 0.27032 4.4321 3.286 5.6007c0.99824 0.38683 2.0464 0.58527 3.038 0.59934l1.8393 3.4513c-6.3568 1.552-11.504 5.5483-13.537 11.284-3.5072 9.8986 3.5858 21.235 15.851 25.317 8.5469 2.8443 17.348 1.4174 23.085-3.0587l5.0634 4.8153c-0.60958 0.62618-1.1464 1.3122-1.55 2.108-2.6545 5.2347 0.59333 12.067 7.254 15.252 6.6607 3.1848 14.23 1.5353 16.885-3.6994 2.655-5.234-0.592-12.067-7.253-15.252-4.882-2.334-10.245-2.062-13.805 0.31l-5.105-4.836c1.7707-1.7268 3.1484-3.7872 3.9887-6.1587 2.7154-7.6639-0.93541-16.203-8.4114-21.555l4.8774-5.1874c0.24084 0.11134 0.48816 0.21086 0.744 0.31 4.562 1.7678 9.7346 0.85958 11.553-2.046 1.8181-2.9056-0.39803-6.7056-4.96-8.4734-1.7107-0.66292-3.5141-0.94508-5.1874-0.88867z" fill="url(#linearGradient17967)"/>
   <path id="path4016" d="m94.938 243.81c-2.0346 0.0427-4.0439 0.16751-6.0625 0.375a1.7928 1.7928 0 0 0 -1.4375 1l-2.438 5.1a1.7928 1.7928 0 0 0 2.0938 2.5c1.5724-0.43144 3.2267-0.70738 4.9375-0.84375 1.7438-0.13901 3.5662-0.14476 5.5312 0.0312 2.4914 0.2232 4.1855 0.7225 4.8438 1.125a1.7928 1.7928 0 0 0 0.0312 0c0.0503 0.03 0.024 0.036 0.0625 0.0625l-4.25-0.46875c-5.5444-0.62518-9.8071-0.4465-13.156 0.71875-3.3309 1.1681-5.934 3.5232-7.625 6.875-1.489 2.9513-1.7733 6.0766-0.4375 8.8125a1.7928 1.7928 0 0 0 0.03125 0.0312c1.4502 2.8812 4.3485 4.7953 8.2188 5.6875 2.9252 0.67435 5.7714 0.77751 8.4062 0.1875 1.2044-0.27974 2.372-0.75683 3.5312-1.3125l-0.25 0.84375a1.7928 1.7928 0 0 0 1.3125 2.25l13.875 3.125a1.7928 1.7928 0 0 0 2.1875 -1.4688l3.27-19.68c0.80369-4.8407-0.38716-8.8178-3.4688-11.188-2.8716-2.2444-7.1749-3.2595-12.906-3.625-2.0814-0.13266-4.1988-0.17898-6.2812-0.125-0.01036 0.00027-0.02089-0.00027-0.03125 0zm-0.78125 17.312c0.74132-0.0297 1.6546 0.0415 2.6875 0.1875l3.5625 0.5c-0.48948 1.0336-1.2028 1.9302-2.4062 2.625-0.0078 0.005-0.0234-0.005-0.03125 0-1.5831 0.88763-3.1369 1.169-4.875 0.84375-1.395-0.26107-2.0977-0.72172-2.375-1.0625-0.24613-0.3413-0.3187-0.46673 0-1.25 0.31976-0.78593 0.74178-1.2185 1.625-1.5312 0.0082-0.003 0.02299 0.003 0.03125 0 0.48528-0.16242 1.0623-0.28366 1.7812-0.3125z" transform="matrix(.66134 0 0 .66134 -26.27 -129.44)" fill="#024c88"/>
   <path id="path3601" opacity="0" d="m59.311 14.756c-2.7888 0.09401-5.229 1.1394-6.3654 2.9553-0.55627 0.88899-0.73054 1.8623-0.57867 2.8313 0.08645-0.51828 0.27608-1.0251 0.57867-1.5087 1.1363-1.816 3.5765-2.8613 6.3654-2.9553 1.6733-0.05641 3.4766 0.22575 5.1874 0.88867 3.1364 1.2154 5.1685 3.3946 5.5387 5.58 0.39441-2.5877-1.7636-5.4398-5.5387-6.9027-1.7107-0.66292-3.5141-0.94508-5.1874-0.88867zm-33.439 0.16533c-1.8465 0.05674-3.4649 0.74222-4.216 1.9427-0.40367 0.64513-0.48748 1.3615-0.33067 2.0667 0.06888-0.25477 0.18044-0.50391 0.33067-0.744 1.2018-1.9207 4.631-2.5119 7.6467-1.3433 1.9838 0.76873 3.2906 2.1183 3.6167 3.4927 0.4662-1.7748-0.98763-3.7966-3.6167-4.8154-1.1309-0.43822-2.3228-0.63337-3.4307-0.59934zm4.8153 8.9694c-0.19373 0.07879-0.39057 0.16799-0.59934 0.22733l1.7773 3.3273c4.0876-0.63768 8.5708-0.30958 12.979 1.1573 2.0799 0.69218 3.9891 1.5992 5.7454 2.666l4.7947-5.1254c-0.251-0.176-0.48-0.367-0.702-0.557l-4.093 4.361c-1.756-1.067-3.665-1.974-5.745-2.666-4.408-1.467-8.891-1.795-12.979-1.158l-1.178-2.232zm-1.488 2.79c-6.0685 1.6558-10.951 5.5718-12.917 11.119-0.67911 1.9167-0.94437 3.8873-0.868 5.8487 0.06709-1.5213 0.34151-3.0401 0.868-4.526 2.0323-5.7357 7.18-9.7321 13.537-11.284l-0.62-1.158zm23.809 4.919-0.724 0.765c5.5613 3.9818 8.9976 9.7257 9.2794 15.562 0.208-6.019-3.022-12.064-8.555-16.327zm4.3607 27.797c-0.21486 0.2336-0.4331 0.45944-0.66134 0.682l5.1047 4.836c3.5601-2.3719 8.9231-2.6445 13.805-0.31 4.8433 2.3158 7.8656 6.5696 8.1427 10.726 0.36-4.556-2.781-9.484-8.144-12.049-4.882-2.334-10.245-2.062-13.805 0.31l-4.4433-4.1953zm2.2733 6.2c-0.34361 0.42557-0.65588 0.88486-0.90934 1.3847-0.7243 1.4283-0.99266 2.9663-0.88867 4.526 0.08749-1.1025 0.37146-2.1834 0.88867-3.2034 0.40356-0.79581 0.94043-1.4818 1.55-2.108l-0.64067-0.59934z"/>
   <path id="path3607" opacity=".2" d="m21.325 17.628c-0.4662 1.7788 0.98763 3.8173 3.6167 4.836 0.99824 0.38683 2.0464 0.58527 3.038 0.59934l1.2193 2.294c0.20659-0.05635 0.41072-0.11424 0.62-0.16533l-1.8393-3.4513c-0.99159-0.01408-2.0398-0.21251-3.038-0.59934-1.9933-0.77241-3.2985-2.126-3.6167-3.5133zm11.594 1.4053c-0.06892 0.2542-0.18044 0.50391-0.33068 0.744-0.50393 0.80536-1.4103 1.3847-2.5007 1.6947l0.59934 1.0953c0.81817-0.33272 1.4939-0.81618 1.9013-1.4673 0.40747-0.65118 0.49386-1.3582 0.33068-2.0667zm19.447 0.186c-0.2878 1.7253 0.58503 3.5644 2.3147 5.0427l0.70267-0.76467c-1.7074-1.2065-2.7762-2.7394-3.0173-4.278zm17.67 2.0047c-0.08217 0.53938-0.26507 1.0695-0.57867 1.5707-1.8181 2.9056-6.9907 3.8138-11.553 2.046-0.25584-0.09914-0.50316-0.19867-0.744-0.31l-4.8774 5.1874c0.24944 0.17859 0.48251 0.37247 0.72334 0.558l4.154-4.4227c0.24084 0.11134 0.48816 0.21086 0.744 0.31 4.562 1.7678 9.7346 0.85958 11.553-2.046 0.56816-0.90799 0.74693-1.9 0.57867-2.8933zm-54.622 21.101c-0.37986 8.613 6.2951 17.322 16.719 20.791 8.5469 2.8443 17.348 1.4174 23.085-3.0587l4.4227 4.216c0.2035-0.25203 0.41394-0.49042 0.64067-0.72333l-5.063-4.815c-5.737 4.476-14.538 5.903-23.085 3.058-9.89-3.291-16.401-11.3-16.719-19.468zm46.149 4.278c-0.05412 1.5702-0.32495 3.138-0.86801 4.6707-0.84027 2.3715-2.2179 4.4319-3.9887 6.1587l0.66134 0.64067c1.4522-1.5788 2.5954-3.4108 3.3273-5.4767 0.69543-1.9628 0.96502-3.984 0.86801-5.9934zm-3.72 23.581c-0.36149 4.5558 2.7798 9.4844 8.1427 12.049 6.6607 3.1848 14.23 1.5353 16.885-3.6994 0.7243-1.4283 0.99267-2.9663 0.88867-4.526-0.08748 1.1024-0.37146 2.1834-0.88867 3.2033-2.6545 5.2347-10.224 6.8842-16.885 3.6994-4.8433-2.3158-7.8656-6.5696-8.1427-10.726z" fill="#fff"/>
   <path id="path3999" d="m37.938 42.206c-1.4713-0.208-2.6342-0.1601-3.5151 0.13975-0.86764 0.3015-1.4639 0.85185-1.7947 1.6649-0.31076 0.76377-0.26988 1.4274 0.13442 1.988 0.43154 0.56398 1.1971 0.95305 2.3049 1.1604 1.4113 0.26413 2.7715 0.03591 4.0477-0.68541 1.27-0.7281 2.0882-1.7465 2.452-3.0248l0.19968-0.70154s-3.8289-0.54136-3.8289-0.54136m12.402-0.69821l-2.1615 13.018-9.1764-2.0636 0.99115-3.4823c-1.4954 1.1621-3.0319 1.9317-4.5825 2.2919-1.5363 0.34402-3.2215 0.30291-5.0196-0.1116-2.3375-0.53887-3.8746-1.6033-4.6488-3.1416-0.71413-1.4626-0.60465-3.0599 0.2671-4.7878 1.0059-1.9937 2.4525-3.2875 4.3834-3.9646 1.9448-0.67664 4.6257-0.82279 8.1968-0.42012 0 0 4.1547 0.46849 4.1547 0.46849l0.12143-0.42661c0.24105-0.847-0.02941-1.4944-0.79212-1.9495-0.74072-0.45293-1.9895-0.75445-3.7225-0.90971-1.3679-0.12252-2.6541-0.13382-3.8699-0.0369-1.2001 0.09566-2.354 0.29657-3.4699 0.60276l1.609-3.3604c1.3138-0.13504 2.6274-0.21663 3.9446-0.24368 1.3442-0.03551 2.6901-0.01111 4.0419 0.07505 3.6773 0.23452 6.3425 0.93749 7.8984 2.1536 1.6741 1.2874 2.3238 3.3439 1.8348 6.2889" fill="url(#linearGradient17969)"/>
   <path id="path4018" d="m36.35 34.596c-0.64452-0.006-1.2521 0.03419-1.86 0.08266-0.94489 0.07532-1.8571 0.22818-2.7487 0.434l-0.72334 1.488c1.1159-0.30619 2.2719-0.50368 3.472-0.59934 1.2158-0.09692 2.4968-0.10186 3.8647 0.02063 1.733 0.15526 2.9793 0.45641 3.72 0.90934 0.36434 0.21738 0.60641 0.47937 0.744 0.78533l0.0413-0.14466c0.24105-0.84699-0.02266-1.5083-0.78533-1.9633-0.74072-0.45293-1.987-0.75407-3.72-0.90934-0.68393-0.06124-1.3602-0.09731-2.0047-0.10333zm14.115 4.5467c-0.02591 0.33453-0.06413 0.67233-0.12401 1.0333l-2.17 13.02-8.8247-1.984-0.35133 1.24 9.176 2.0667 2.17-13.02c0.14446-0.87008 0.17537-1.638 0.12401-2.356zm-14.508 1.612c-0.58475 0.02351-1.0889 0.11875-1.5293 0.26867-0.86764 0.30149-1.4672 0.86092-1.798 1.674-0.24318 0.59767-0.27579 1.1177-0.08268 1.5913 0.02787-0.09233 0.04386-0.1732 0.08268-0.26866 0.3308-0.81309 0.93036-1.3725 1.798-1.674 0.88092-0.29985 2.0421-0.35268 3.5134-0.14466l3.4307 0.47533c0.07439-0.17886 0.13178-0.3675 0.186-0.558l0.20667-0.70267-3.8233-0.53734c-0.735-0.105-1.399-0.148-1.984-0.125zm-10.643 4.587c-0.12491 0.93336 0.0218 1.8216 0.43401 2.666 0.77428 1.5383 2.3125 2.6025 4.65 3.1413 1.7981 0.41451 3.4858 0.46802 5.022 0.12401 1.3841-0.32148 2.7495-0.98072 4.092-1.9427l0.47533-1.674c-1.4954 1.1621-3.0168 1.9339-4.5673 2.294-1.5363 0.34402-3.2239 0.29051-5.022-0.12401-2.3375-0.53887-3.8757-1.603-4.65-3.1413-0.21379-0.43787-0.36619-0.88144-0.43401-1.3433z" fill="#fff"/>
  </g>
 </g>
</svg>
