<?xml version="1.0" encoding="UTF-8" standalone="no"?>
<!-- Created with Inkscape (http://www.inkscape.org/) -->
<svg id="svg2" xmlns:rdf="http://www.w3.org/1999/02/22-rdf-syntax-ns#" xmlns="http://www.w3.org/2000/svg" height="96" width="96" version="1.1" xmlns:cc="http://creativecommons.org/ns#" xmlns:xlink="http://www.w3.org/1999/xlink" xmlns:dc="http://purl.org/dc/elements/1.1/">
 <defs id="defs4">
  <linearGradient id="linearGradient3613-3" y2="138.66" gradientUnits="userSpaceOnUse" x2="48" y1="20.221" x1="48">
   <stop id="stop3739-10" stop-color="#fff" offset="0"/>
   <stop id="stop3741-2" stop-color="#fff" stop-opacity="0" offset="1"/>
  </linearGradient>
  <clipPath id="clipPath3613-29">
   <rect id="rect3615-1" rx="6" ry="6" height="84" width="84" y="6" x="6" fill="#fff"/>
  </clipPath>
  <filter id="filter3794-0" height="1.384" width="1.384" color-interpolation-filters="sRGB" y="-.192" x="-.192">
   <feGaussianBlur id="feGaussianBlur3796-8" stdDeviation="5.28"/>
  </filter>
  <radialGradient id="radialGradient3063" gradientUnits="userSpaceOnUse" cy="48" cx="48" gradientTransform="matrix(1.0168 0 0 1.021 -.61038 951.87)" r="35.25">
   <stop id="stop3899" stop-color="#294172" stop-opacity=".37405" offset="0"/>
   <stop id="stop3901" stop-color="#294172" offset="1"/>
  </radialGradient>
  <clipPath id="clipPath3613-25">
   <rect id="rect3615-14" rx="6" ry="6" height="84" width="84" y="6" x="6" fill="#fff"/>
  </clipPath>
  <filter id="filter3794-6" height="1.384" width="1.384" color-interpolation-filters="sRGB" y="-.192" x="-.192">
   <feGaussianBlur id="feGaussianBlur3796-26" stdDeviation="5.28"/>
  </filter>
  <linearGradient id="linearGradient3105" y2="5.9877" gradientUnits="userSpaceOnUse" y1="90" gradientTransform="matrix(1.0168 0 0 1.021 -.61038 -.84736)" x2="48" x1="48">
   <stop id="stop3927-9" stop-color="#3c6eb4" offset="0"/>
   <stop id="stop3929-8" stop-color="#81a4d5" offset="1"/>
  </linearGradient>
 </defs>
 <metadata id="metadata7">
  <rdf:RDF>
   <cc:Work rdf:about="">
    <dc:format>image/svg+xml</dc:format>
    <dc:type rdf:resource="http://purl.org/dc/dcmitype/StillImage"/>
    <dc:title/>
   </cc:Work>
  </rdf:RDF>
 </metadata>
 <g id="layer1" transform="translate(0 -956.36)">
  <rect id="rect5263-0" fill-opacity=".019608" ry="12.724" height="89.978" width="89.978" y="959.35" x="2.9998"/>
  <rect id="rect5261-6" fill-opacity=".039216" ry="12.552" height="88.762" width="88.762" y="959.96" x="3.6078"/>
  <rect id="rect5259-9" fill-opacity=".078431" ry="12.38" height="87.546" width="87.546" y="960.57" x="4.2157"/>
  <rect id="rect5257-5" fill-opacity=".15686" ry="12.208" height="86.33" width="86.33" y="961.18" x="4.8237"/>
  <path id="rect2419-5" d="m17.469 5.4062c-6.251 0-11.355 4.7568-11.969 10.844v63.469c0.6136 6.083 5.718 10.812 11.969 10.812h61.031c6.454 0 11.671-5.036 12-11.406v-62.281c-0.321-6.377-5.54-11.438-12-11.438l-61.031 0.0002z" transform="translate(0 956.36)" fill="url(#linearGradient3105)"/>
  <path id="rect5265-0" d="m5.4316 1029.8v5.0663c0 6.668 5.3645 12.032 12.032 12.032h61.049c6.668 0 12.032-5.3645 12.032-12.032v-5.0663c0 6.6681-5.3645 12.032-12.032 12.032h-61.049c-6.668 0-12.032-5.3643-12.032-12.032z" fill-opacity=".17"/>
  <path id="path5252-0" d="m5.4316 1033.9v1.0133c0 6.668 5.3645 12.032 12.032 12.032h61.049c6.668 0 12.032-5.3645 12.032-12.032v-1.0133c0 6.6681-5.3645 12.032-12.032 12.032h-61.049c-6.668 0-12.032-5.3644-12.032-12.032z" fill-opacity=".098039"/>
  <rect id="rect3171" ry="12" stroke="#fff" stroke-linecap="round" stroke-width=".5" fill="url(#linearGradient3613-3)" rx="12" transform="matrix(1.0149 0 0 1.0238 -.83801 955.22)" width="66" opacity=".05" clip-path="url(#clipPath3613-29)" height="66" filter="url(#filter3794-0)" y="15" x="15"/>
  <g id="layer5" transform="matrix(1.0168 0 0 1.021 -.61038 955.51)">
   <rect id="rect3171-4" height="66" stroke="#fff" stroke-linecap="round" stroke-width=".5" fill="url(#linearGradient3613-3)" rx="12" ry="12" width="66" opacity=".1" clip-path="url(#clipPath3613-25)" filter="url(#filter3794-6)" y="15" x="15"/>
  </g>
  <path id="path3683" style="color:#000000" d="m40.699 964.89c-4.5543 0.95294-8.7901 2.7848-12.552 5.2648 0.10963 2.7522-0.86552 5.5276-2.9552 7.6259s-4.8537 3.0775-7.5945 2.9674c-2.4697 3.777-4.294 8.0303-5.2431 12.604 2.0318 1.8668 3.3047 4.5468 3.3047 7.5303 0 2.9834-1.2729 5.6633-3.3047 7.5302 0.94901 4.5731 2.7733 8.8265 5.2431 12.604 2.7408-0.1102 5.5048 0.869 7.5945 2.9673 2.0897 2.0984 3.0648 4.874 2.9552 7.6262 3.7615 2.4799 7.9972 4.3118 12.552 5.2647 1.8592-2.0402 4.5281-3.3184 7.4992-3.3184s5.64 1.2782 7.4992 3.3184c4.5396-0.9499 8.7674-2.7653 12.52-5.2328-0.0061-0.1474 0-0.2994 0-0.4467 0-2.6131 1.0015-5.2177 2.987-7.2114 2.0897-2.0983 4.8537-3.0775 7.5945-2.9673 2.4697-3.7771 4.294-8.0305 5.2431-12.604-2.0318-1.8669-3.3047-4.5468-3.3047-7.5302s1.2729-5.6634 3.3047-7.5303c-0.94901-4.5732-2.7733-8.8265-5.2431-12.604-2.7408 0.11007-5.5048-0.86911-7.5945-2.9674-1.9855-1.9937-2.987-4.598-2.987-7.2111 0-0.14735-0.0061-0.29931 0-0.4467-3.7524-2.4676-7.9802-4.283-12.52-5.2329-1.8592 2.0402-4.5281 3.3184-7.4992 3.3184s-5.64-1.2782-7.4992-3.3184z" fill="url(#radialGradient3063)"/>
  <path id="path3937" opacity=".05" style="color:#000000" d="m40.699 964.89c-4.5543 0.95294-8.7901 2.7848-12.552 5.2648 0.10963 2.7522-0.86552 5.5276-2.9552 7.6259s-4.8537 3.0775-7.5945 2.9674c-2.4697 3.777-4.294 8.0303-5.2431 12.604 2.0318 1.8668 3.3047 4.5468 3.3047 7.5303 0 2.9834-1.2729 5.6633-3.3047 7.5302 0.94901 4.5731 2.7733 8.8265 5.2431 12.604 2.7408-0.1102 5.5048 0.869 7.5945 2.9673 2.0897 2.0984 3.0648 4.874 2.9552 7.6262 3.7615 2.4799 7.9972 4.3118 12.552 5.2647 1.8592-2.0402 4.5281-3.3184 7.4992-3.3184s5.64 1.2782 7.4992 3.3184c4.5396-0.9499 8.7674-2.7653 12.52-5.2328-0.0061-0.1474 0-0.2994 0-0.4467 0-2.6131 1.0015-5.2177 2.987-7.2114 2.0897-2.0983 4.8537-3.0775 7.5945-2.9673 2.4697-3.7771 4.294-8.0305 5.2431-12.604-2.0318-1.8669-3.3047-4.5468-3.3047-7.5302s1.2729-5.6634 3.3047-7.5303c-0.94901-4.5732-2.7733-8.8265-5.2431-12.604-2.7408 0.11007-5.5048-0.86911-7.5945-2.9674-1.9855-1.9937-2.987-4.598-2.987-7.2111 0-0.14735-0.0061-0.29931 0-0.4467-3.7524-2.4676-7.9802-4.283-12.52-5.2329-1.8592 2.0402-4.5281 3.3184-7.4992 3.3184s-5.64-1.2782-7.4992-3.3184zm-0.63552 2.9036c2.2132 1.8553 5.0398 2.9993 8.1347 2.9993s5.9215-1.144 8.1347-2.9993c3.4057 0.84821 6.6411 2.1895 9.5646 3.9885 0.27883 2.8534 1.3347 5.6477 3.4954 7.8174 2.1775 2.1866 4.9657 3.3714 7.8169 3.6375 1.767 2.9122 3.1033 6.0947 3.9402 9.4766-1.8477 2.2223-2.987 5.0607-2.987 8.1684s1.1393 5.946 2.987 8.1683c-0.83694 3.3818-2.1732 6.5644-3.9402 9.4767-2.8512 0.2659-5.6394 1.4509-7.8169 3.6374-2.1607 2.1697-3.2165 4.9642-3.4954 7.8176-2.9235 1.7989-6.1589 3.1402-9.5646 3.9885-2.2132-1.8554-5.0398-2.9993-8.1347-2.9993s-5.9215 1.1439-8.1347 2.9993c-3.3679-0.8405-6.5373-2.1823-9.4375-3.9566-0.26497-2.8631-1.4449-5.663-3.6225-7.8495-2.1775-2.1865-4.9657-3.3715-7.8169-3.6374-1.767-2.9123-3.1033-6.0949-3.9402-9.4767 1.8477-2.2223 2.987-5.0606 2.987-8.1683 0-3.1078-1.1393-5.9461-2.987-8.1684 0.83693-3.3818 2.1732-6.5644 3.9402-9.4766 2.8512-0.26606 5.6394-1.4509 7.8169-3.6375s3.3575-4.9862 3.6225-7.8493c2.9002-1.7743 6.0696-3.1162 9.4375-3.9566z"/>
  <path id="path3903" opacity=".1" d="m58.779 976.53c-8.1099 0-14.712 6.5959-14.712 14.741v0.032 6.4772h-6.4506c-8.1097 0-14.681 6.5988-14.681 14.741 0 8.1437 6.5712 14.742 14.681 14.742 8.1087 0 14.712-6.5955 14.712-14.742v-0.032-6.5092h6.4506c8.1064 0 14.681-6.5668 14.681-14.709 0-8.1431-6.5718-14.741-14.681-14.741zm0 8.296c3.5672 0 6.4506 2.8673 6.4506 6.4454 0 3.5776-2.8925 6.5091-6.4506 6.5091h-0.03183-6.2599c-0.11576 0-0.15888-0.043-0.15888-0.1595v-6.3496c0.0061-3.5738 2.8885-6.4454 6.4506-6.4454zm-21.163 21.155h0.03183 6.2599c0.11432 0 0.15888 0.045 0.15888 0.1596v6.3815c-0.0051 3.5708-2.8891 6.4454-6.4506 6.4454-3.5671 0-6.4506-2.8681-6.4506-6.4454 0-3.5788 2.8969-6.5411 6.4506-6.5411z" fill="#0a57a4"/>
  <path id="path3898" opacity=".3" d="m58.767 977.39c-7.6416 0-13.836 6.22-13.836 13.893v0.009 7.353h-7.3003-0.002c-7.6414 0-13.835 6.1898-13.835 13.862 0 7.6735 6.1943 13.893 13.835 13.893 7.6405 0 13.835-6.2198 13.835-13.893v-0.01-7.3834h7.3 0.0031c7.6405 0 13.835-6.1594 13.835-13.832 0-7.6728-6.1943-13.893-13.835-13.893zm-13.836 35.131c-0.0061 4.0429-3.2736 7.3203-7.3021 7.3203-4.0327 0-7.3323-3.2829-7.3323-7.3323 0-4.0508 3.2995-7.3945 7.3323-7.3945h0.0092 6.2572 0.0051c0.56966 0 1.0316 0.4629 1.0316 1.034h-0.000702v6.3699h-0.000234zm13.835-13.875h-0.0071-6.2614-0.0041c-0.56966 0-1.0304-0.4627-1.0304-1.0352v-0.0002-6.3391c0.0071-4.0452 3.2736-7.3216 7.3024-7.3216 4.0327 0 7.333 3.2831 7.333 7.3333 0 4.0497-3.3002 7.3628-7.333 7.3628z" fill="#0a57a4"/>
  <g id="f-script" fill="#5484c6" transform="matrix(.23366 0 0 .23463 20.633 969.36)">
   <path id="f-script-path" d="m163.2 29.904c-32.704 0-59.213 26.51-59.213 59.212v0.041 31.339h-31.243-0.008c-32.703 0-59.212 26.381-59.212 59.081 0 32.705 26.51 59.214 59.212 59.214 32.699 0 59.209-26.509 59.209-59.214v-0.041-31.469h31.242 0.013c32.699 0 59.209-26.251 59.209-58.951 0-32.702-26.51-59.212-59.209-59.212zm-59.213 149.73c-0.025 17.231-14.01 31.2-31.251 31.2-17.259 0-31.38-13.992-31.38-31.251 0-17.265 14.121-31.516 31.38-31.516h0.041 26.779 0.02c2.438 0 4.415 1.973 4.415 4.407 0 0.005-0.003 0.005-0.003 0.011v27.149h-0.001zm59.21-59.137h-0.029-26.797-0.016c-2.438 0-4.41-1.972-4.41-4.412v-0.001-27.018c0.029-17.241 14.01-31.205 31.252-31.205 17.259 0 31.383 13.993 31.383 31.255 0 17.26-14.124 31.381-31.383 31.381z" fill="#5484c6"/>
  </g>
  <path id="blue-inifity-connectors" d="m44.931 997.63v-7.3532-0.009c0-7.6728 6.1941-13.893 13.836-13.893 1.1592 0 1.9828 0.13116 3.0558 0.41317 1.5648 0.41201 2.8427 1.6992 2.8434 3.1975 0.000701 1.8113-1.3087 3.128-3.2656 3.128-0.9323 0-1.2692-0.17926-2.6343-0.17926-4.0288 0-7.2956 3.2763-7.3023 7.3216v6.339 0.0002c0 0.5725 0.46078 1.0352 1.0304 1.0352h0.0041 4.7952c1.787 0 3.2301 1.4366 3.2315 3.2358 0 1.7998-1.4452 3.2331-3.2315 3.2331h-5.8294v7.3836 0.011c0 7.6721-6.1943 13.892-13.835 13.892-1.1594 0-1.9831-0.1312-3.056-0.4134-1.5648-0.4118-2.8432-1.6998-2.8439-3.1976 0-1.8109 1.3085-3.128 3.2663-3.128 0.93137 0 1.2692 0.1795 2.6336 0.1795 4.0288 0 7.2965-3.2767 7.3028-7.3204v-6.3722c0-0.5714-0.46195-1.0341-1.0316-1.0341h-0.002-4.7949c-1.7875 0-3.2318-1.4319-3.2318-3.2322-0.000468-1.8104 1.4592-3.2366 3.2656-3.2366h5.7945v-0.0002z" fill="#fff"/>
  <path id="path3927" opacity=".1" style="color:#000000" d="m40.699 964.89c-4.5543 0.95294-8.7901 2.7848-12.552 5.2648 0.10963 2.7522-0.86552 5.5276-2.9552 7.6259s-4.8537 3.0775-7.5945 2.9674c-2.4697 3.777-4.294 8.0303-5.2431 12.604 2.0318 1.8668 3.3047 4.5468 3.3047 7.5303 0 2.9834-1.2729 5.6633-3.3047 7.5302 0.94901 4.5731 2.7733 8.8265 5.2431 12.604 2.7408-0.1102 5.5048 0.869 7.5945 2.9673 2.0897 2.0984 3.0648 4.874 2.9552 7.6262 3.7615 2.4799 7.9972 4.3118 12.552 5.2647 1.8592-2.0402 4.5281-3.3184 7.4992-3.3184s5.64 1.2782 7.4992 3.3184c4.5396-0.9499 8.7674-2.7653 12.52-5.2328-0.0061-0.1474 0-0.2994 0-0.4467 0-2.6131 1.0015-5.2177 2.987-7.2114 2.0897-2.0983 4.8537-3.0775 7.5945-2.9673 2.4697-3.7771 4.294-8.0305 5.2431-12.604-2.0318-1.8669-3.3047-4.5468-3.3047-7.5302s1.2729-5.6634 3.3047-7.5303c-0.94901-4.5732-2.7733-8.8265-5.2431-12.604-2.7408 0.11007-5.5048-0.86911-7.5945-2.9674-1.9855-1.9937-2.987-4.598-2.987-7.2111 0-0.14735-0.0061-0.29931 0-0.4467-3.7524-2.4676-7.9802-4.283-12.52-5.2329-1.8592 2.0402-4.5281 3.3184-7.4992 3.3184s-5.64-1.2782-7.4992-3.3184zm-0.28598 2.0421c2.1146 1.8551 4.766 3.127 7.7852 3.127 3.0191 0 5.6705-1.2719 7.7851-3.127 3.7896 0.8769 7.3387 2.3876 10.55 4.4033 0.18481 2.8247 1.2297 5.6062 3.3683 7.7536 2.1282 2.137 4.8692 3.1248 7.658 3.3184 2.0318 3.2442 3.5684 6.8258 4.4487 10.657-1.8474 2.1234-3.1141 4.7857-3.1141 7.8174s1.2666 5.6939 3.1141 7.8174c-0.88031 3.8314-2.4169 7.4129-4.4487 10.657-2.7888 0.1936-5.5299 1.1813-7.658 3.3184-2.1385 2.1473-3.1835 4.929-3.3683 7.7537-3.211 2.0156-6.7601 3.5264-10.55 4.4032-2.1146-1.855-4.766-3.1269-7.7851-3.1269-3.0192 0-5.6705 1.2719-7.7852 3.1269-3.8156-0.8839-7.3824-2.4268-10.613-4.467-0.19283-2.8004-1.1765-5.553-3.3047-7.6899-2.1282-2.1371-4.8692-3.1248-7.658-3.3184-2.0318-3.2443-3.5684-6.8258-4.4487-10.657 1.8474-2.1235 3.1141-4.7857 3.1141-7.8174 0-3.0318-1.2666-5.6941-3.1141-7.8174 0.8803-3.8314 2.4169-7.413 4.4487-10.657 2.7888-0.19363 5.5299-1.1814 7.658-3.3184 2.1282-2.137 3.1119-4.8894 3.3047-7.6898 3.2308-2.0402 6.7976-3.5831 10.613-4.4671z"/>
  <path id="path3914" opacity=".3" style="color:#000000" d="m40.699 964.89c-4.5543 0.95294-8.7901 2.7848-12.552 5.2648 0.01371 0.34403 0.02026 0.67767 0 1.021 3.7615-2.4799 7.9972-4.3118 12.552-5.2648 1.8592 2.0402 4.5281 3.3184 7.4992 3.3184s5.64-1.2782 7.4992-3.3184c4.5396 0.94986 8.7674 2.7653 12.52 5.2328-0.0061 0.14739 0 0.29935 0 0.44671 0 2.6131 1.0015 5.2174 2.987 7.2111 2.0897 2.0983 4.8537 3.0775 7.5945 2.9674 2.3181 3.5452 4.0616 7.5188 5.0524 11.774 0.06457-0.0626 0.1244-0.13057 0.19066-0.19144-0.94901-4.5732-2.7733-8.8265-5.2431-12.604-2.7408 0.11007-5.5048-0.86911-7.5945-2.9674-1.9855-1.9937-2.987-4.598-2.987-7.2111 0-0.14735-0.0061-0.29931 0-0.4467-3.7524-2.4676-7.9802-4.283-12.52-5.2329-1.8592 2.0402-4.5281 3.3184-7.4992 3.3184s-5.64-1.2782-7.4992-3.3184zm-12.552 6.2858c-0.14178 2.4037-1.1267 4.7689-2.9552 6.6049-2.0897 2.0983-4.8537 3.0775-7.5945 2.9674-2.4697 3.777-4.294 8.0303-5.2431 12.604 0.06626 0.0609 0.12603 0.12885 0.19066 0.19144 0.99081-4.2551 2.7343-8.2287 5.0524-11.774 2.7408 0.11008 5.5048-0.8691 7.5945-2.9674s3.0648-4.8738 2.9552-7.6259zm-12.52 30.217c-0.13562 2.7786-1.3573 5.2595-3.2729 7.0197 0.05825 0.2807 0.12587 0.5514 0.19066 0.8296 1.9171-1.8568 3.1141-4.4527 3.1141-7.3388 0-0.1705-0.02355-0.342-0.03178-0.5105zm65.141 0c-0.0081 0.1685-0.03183 0.34-0.03183 0.5105 0 2.8861 1.1969 5.482 3.1141 7.3388 0.06477-0.2782 0.1324-0.5489 0.19066-0.8296-1.9157-1.7602-3.1373-4.2411-3.2729-7.0197z"/>
  <path id="path3923" opacity=".15" style="color:#000000" d="m40.699 964.89c-4.5543 0.95294-8.7901 2.7848-12.552 5.2648 0.10963 2.7522-0.86552 5.5276-2.9552 7.6259s-4.8537 3.0775-7.5945 2.9674c-2.4697 3.777-4.294 8.0303-5.2431 12.604 2.0318 1.8668 3.3047 4.5468 3.3047 7.5303 0 2.9834-1.2729 5.6633-3.3047 7.5302 0.94901 4.5731 2.7733 8.8265 5.2431 12.604 2.7408-0.1102 5.5048 0.869 7.5945 2.9673 2.0897 2.0984 3.0648 4.874 2.9552 7.6262 3.7615 2.4799 7.9972 4.3118 12.552 5.2647 1.8592-2.0402 4.5281-3.3184 7.4992-3.3184s5.64 1.2782 7.4992 3.3184c4.5396-0.9499 8.7674-2.7653 12.52-5.2328-0.0061-0.1474 0-0.2994 0-0.4467 0-2.6131 1.0015-5.2177 2.987-7.2114 2.0897-2.0983 4.8537-3.0775 7.5945-2.9673 2.4697-3.7771 4.294-8.0305 5.2431-12.604-2.0318-1.8669-3.3047-4.5468-3.3047-7.5302s1.2729-5.6634 3.3047-7.5303c-0.94901-4.5732-2.7733-8.8265-5.2431-12.604-2.7408 0.11007-5.5048-0.86911-7.5945-2.9674-1.9855-1.9937-2.987-4.598-2.987-7.2111 0-0.14735-0.0061-0.29931 0-0.4467-3.7524-2.4676-7.9802-4.283-12.52-5.2329-1.8592 2.0402-4.5281 3.3184-7.4992 3.3184s-5.64-1.2782-7.4992-3.3184zm-0.19066 1.021c1.9951 1.9546 4.6863 3.2227 7.6898 3.2227 3.0121 0 5.725-1.2583 7.7216-3.2227 4.1146 0.91556 7.958 2.5447 11.408 4.7542 0.02542 2.8128 1.1098 5.6134 3.2412 7.7536 2.1183 2.127 4.8791 3.1516 7.658 3.1908 2.2299 3.4915 3.8814 7.38 4.7982 11.551-1.9465 2.0034-3.2094 4.7057-3.2094 7.7217 0 3.0159 1.2628 5.7182 3.2094 7.7216-0.91683 4.1706-2.5683 8.0591-4.7982 11.551-2.779 0.039-5.5398 1.0637-7.658 3.1908-2.1314 2.1402-3.2157 4.9409-3.2412 7.7538-3.4497 2.2095-7.293 3.8386-11.408 4.7542-1.9966-1.9644-4.7095-3.2226-7.7216-3.2226-3.0035 0-5.6947 1.268-7.6898 3.2226-4.1533-0.9207-8.0259-2.5789-11.503-4.818-0.03896-2.7905-1.0594-5.563-3.1776-7.69-2.1183-2.1271-4.8791-3.1517-7.658-3.1908-2.2299-3.4915-3.8814-7.38-4.7982-11.551 1.9465-2.0034 3.2094-4.7057 3.2094-7.7216 0-3.016-1.2629-5.7184-3.2094-7.7217 0.91683-4.1705 2.5683-8.0591 4.7982-11.551 2.779-0.0391 5.5398-1.0637 7.658-3.1908 2.1183-2.127 3.1387-4.8993 3.1776-7.6898 3.4771-2.2392 7.3496-3.8974 11.503-4.818z"/>
  <path id="path3950" opacity=".2" style="color:#000000" d="m12.545 993.54c-0.06479 0.27825-0.13241 0.54891-0.19066 0.8296 1.9157 1.7601 3.1373 4.2411 3.2729 7.0197 0.0082-0.1685 0.03178-0.34 0.03178-0.5105 0-2.8862-1.1969-5.4821-3.1141-7.3388zm71.306 0c-1.9171 1.8568-3.1141 4.4527-3.1141 7.3388 0 0.1705 0.02359 0.342 0.03183 0.5105 0.13562-2.7786 1.3573-5.2596 3.2729-7.0197-0.05826-0.28069-0.12586-0.55135-0.19066-0.8296zm-71.306 15.699c-0.06462 0.062-0.1244 0.1306-0.19066 0.1914 0.94901 4.5732 2.7733 8.8266 5.2431 12.604 2.7408-0.1102 5.5048 0.869 7.5945 2.9674 1.8284 1.8362 2.8134 4.2014 2.9552 6.6051 0.10963-2.7522-0.86552-5.5278-2.9552-7.6262-2.0897-2.0983-4.8537-3.0775-7.5945-2.9673-2.3181-3.5453-4.0616-7.5189-5.0524-11.774zm15.602 22.368c0.02026 0.3434 0.01371 0.677 0 1.0211 3.7615 2.4799 7.9972 4.3117 12.552 5.2647 1.8592-2.0403 4.5281-3.3184 7.4992-3.3184s5.64 1.2781 7.4992 3.3184c4.5396-0.9499 8.7674-2.7653 12.52-5.2329-0.0061-0.1473 0-0.2994 0-0.4467 0-2.6131 1.0015-5.2174 2.987-7.2113 2.0897-2.0984 4.8537-3.0776 7.5945-2.9674 2.4697-3.777 4.294-8.0304 5.2431-12.604-0.0663-0.061-0.12604-0.1288-0.19066-0.1914-0.9908 4.2551-2.7343 8.2287-5.0524 11.774-2.7408-0.1102-5.5048 0.869-7.5945 2.9673-1.9855 1.9937-2.987 4.5983-2.987 7.2114 0 0.1473-0.0061 0.2993 0 0.4467-3.7524 2.4675-7.9802 4.2829-12.52 5.2328-1.8592-2.0402-4.5281-3.3184-7.4992-3.3184s-5.64 1.2782-7.4992 3.3184c-4.5543-0.9529-8.7901-2.7848-12.552-5.2647z" fill="#fff"/>
 </g>
</svg>
