<?xml version="1.0" encoding="UTF-8" standalone="no"?>
<!-- Created with Inkscape (http://www.inkscape.org/) -->
<svg id="svg2" xmlns:rdf="http://www.w3.org/1999/02/22-rdf-syntax-ns#" xmlns="http://www.w3.org/2000/svg" height="96" width="96" version="1.1" xmlns:cc="http://creativecommons.org/ns#" xmlns:xlink="http://www.w3.org/1999/xlink" xmlns:dc="http://purl.org/dc/elements/1.1/">
 <defs id="defs4">
  <linearGradient id="linearGradient3112" y2="61.922" gradientUnits="userSpaceOnUse" x2="93.608" gradientTransform="matrix(0 .28234 -.33917 0 69.085 985.4)" y1="61.922" x1="26.18">
   <stop id="stop3332" stop-color="#fff" stop-opacity=".20312" offset="0"/>
   <stop id="stop3334" stop-color="#fff" stop-opacity=".67969" offset="1"/>
  </linearGradient>
  <linearGradient id="linearGradient3129-3" y2="64" gradientUnits="userSpaceOnUse" x2="123" gradientTransform="matrix(.48435 .27965 -.27964 .48437 34.981 953.61)" y1="64" x1="5">
   <stop id="stop3235" stop-color="#fff" stop-opacity="0" offset="0"/>
   <stop id="stop3297" stop-color="#fff" stop-opacity="0" offset="0.15"/>
   <stop id="stop3254" stop-color="#fff" offset=".5"/>
   <stop id="stop3299" stop-color="#fff" stop-opacity="0" offset="0.85"/>
   <stop id="stop3257" stop-color="#fff" stop-opacity="0" offset="1"/>
  </linearGradient>
  <linearGradient id="linearGradient3132" y2="34.607" gradientUnits="userSpaceOnUse" x2="73.016" gradientTransform="matrix(1.0096 0 0 1.2128 -12.384 927.21)" y1="89.131" x1="73.016">
   <stop id="stop3189-5" stop-color="#b8abbd" offset="0"/>
   <stop id="stop3191-7" stop-color="#dddbde" offset="1"/>
  </linearGradient>
  <linearGradient id="linearGradient3135" y2="61.922" gradientUnits="userSpaceOnUse" x2="94.568" gradientTransform="matrix(0 .12448 -.14953 0 57.342 994.86)" y1="61.922" x1="25.22">
   <stop id="stop3364" stop-color="#4d4d4d" offset="0"/>
   <stop id="stop3366" stop-color="#fff" offset="1"/>
  </linearGradient>
  <radialGradient id="radialGradient3138" gradientUnits="userSpaceOnUse" cy="61.922" cx="59.894" gradientTransform="matrix(0 .26689 -.26852 0 64.71 986.33)" r="33.714">
   <stop id="stop3344" stop-opacity="0" offset="0"/>
   <stop id="stop3350" stop-opacity="0" offset="0.85"/>
   <stop id="stop3346" offset="1"/>
  </radialGradient>
  <linearGradient id="linearGradient3311" y2="5.9877" gradientUnits="userSpaceOnUse" y1="90" gradientTransform="matrix(1.0758 0 0 1.0673 -3.9068 -2.6086)" x2="48" x1="48">
   <stop id="stop3189-9" stop-color="#861616" offset="0"/>
   <stop id="stop3191-78" stop-color="#d64800" offset="1"/>
  </linearGradient>
  <linearGradient id="linearGradient4665" y2="1083.2" gradientUnits="userSpaceOnUse" x2="84.671" gradientTransform="matrix(1.3563 0 0 1.2867 -22.478 -294.18)" y1="998.9" x1="66.904">
   <stop id="stop3296-6" stop-color="#ffc64e" offset="0"/>
   <stop id="stop3839" stop-color="#f30000" stop-opacity=".83065" offset="0.3"/>
   <stop id="stop3302" stop-color="#fb0000" stop-opacity=".47581" offset=".43783"/>
   <stop id="stop3298-7" stop-color="#ffb56f" stop-opacity="0" offset="1"/>
  </linearGradient>
 </defs>
 <metadata id="metadata7">
  <rdf:RDF>
   <cc:Work rdf:about="">
    <dc:format>image/svg+xml</dc:format>
    <dc:type rdf:resource="http://purl.org/dc/dcmitype/StillImage"/>
    <dc:title/>
   </cc:Work>
  </rdf:RDF>
 </metadata>
 <g id="layer1" transform="translate(0 -956.36)">
  <rect id="rect5263-0" fill-opacity=".019608" ry="12.724" height="89.978" width="89.978" y="959.35" x="2.9998"/>
  <rect id="rect5261-6" fill-opacity=".039216" ry="12.552" height="88.762" width="88.762" y="959.96" x="3.6078"/>
  <rect id="rect5259-9" fill-opacity=".078431" ry="12.38" height="87.546" width="87.546" y="960.57" x="4.2157"/>
  <rect id="rect5257-5" fill-opacity=".15686" ry="12.208" height="86.33" width="86.33" y="961.18" x="4.8237"/>
  <path id="rect2419-6" d="m17.469 5.4062c-6.251 0-11.355 4.7568-11.969 10.844v63.469c0.6136 6.083 5.718 10.812 11.969 10.812h61.031c6.454 0 11.671-5.036 12-11.406v-62.281c-0.321-6.377-5.54-11.438-12-11.438l-61.031 0.0002z" transform="translate(0 956.36)" fill="url(#linearGradient3311)"/>
  <path id="rect5265-0" d="m5.4316 1029.8v5.0663c0 6.668 5.3645 12.032 12.032 12.032h61.049c6.668 0 12.032-5.3645 12.032-12.032v-5.0663c0 6.6681-5.3645 12.032-12.032 12.032h-61.049c-6.668 0-12.032-5.3643-12.032-12.032z" fill-opacity=".11765"/>
  <path id="path5252-0" d="m5.4316 1033.9v1.0133c0 6.668 5.3645 12.032 12.032 12.032h61.049c6.668 0 12.032-5.3645 12.032-12.032v-1.0133c0 6.6681-5.3645 12.032-12.032 12.032h-61.049c-6.668 0-12.032-5.3644-12.032-12.032z" fill-opacity=".098039"/>
  <path id="path3964" opacity=".05" d="m48.083 967.48c-19.744 0-35.844 16.099-35.844 35.844s16.099 35.844 35.844 35.844c19.744 0 35.844-16.099 35.844-35.844s-16.099-35.844-35.844-35.844zm0 26.938c4.9654 0 8.9062 3.9406 8.9062 8.9061 0 4.9656-3.9409 8.9063-8.9062 8.9063-4.9654 0-8.9062-3.9407-8.9062-8.9063 0-4.9654 3.9409-8.9061 8.9062-8.9061z" fill-rule="evenodd"/>
  <path id="path3950" opacity=".3" d="m48.083 970.31c-18.215 0-32.998 14.784-32.998 32.999s14.783 32.999 32.998 32.999 32.998-14.784 32.998-32.999-14.783-32.999-32.998-32.999zm0 21.254c6.4832 0 11.745 5.262 11.745 11.745 0 6.4835-5.2618 11.745-11.745 11.745s-11.745-5.2618-11.745-11.745c0-6.4833 5.2618-11.745 11.745-11.745z" fill-rule="evenodd"/>
  <path id="path3307" opacity=".3" d="m48.083 987.07c-8.4117 0-15.241 6.8291-15.241 15.241 0 8.412 6.8288 15.241 15.241 15.241 8.4117 0 15.241-6.829 15.241-15.241 0-8.4119-6.8288-15.241-15.241-15.241zm0 10.767c2.4698 0 4.4743 2.0044 4.4743 4.4743s-2.0045 4.4744-4.4743 4.4744-4.4743-2.0045-4.4743-4.4744c0-2.4698 2.0045-4.4743 4.4743-4.4743z" fill-rule="evenodd" fill="#fff"/>
  <path id="path3328" opacity=".3" d="m48.083 1011a8.7232 8.7235 0 1 1 0 -17.447 8.7232 8.7235 0 0 1 0 17.447z" fill-rule="evenodd" fill="url(#radialGradient3138)"/>
  <path id="path3352" opacity=".6" d="m48.083 1006.4a4.0684 4.0686 0 1 1 0 -8.1368 4.0684 4.0686 0 0 1 0 8.1368z" stroke="url(#linearGradient3135)" stroke-linecap="round" fill="none"/>
  <path id="path3170" d="m48.083 969.31c-18.215 0-32.998 14.784-32.998 32.999s14.783 32.999 32.998 32.999 32.998-14.784 32.998-32.999-14.783-32.999-32.998-32.999zm0 21.254c6.4832 0 11.745 5.262 11.745 11.745 0 6.4835-5.2617 11.745-11.745 11.745-6.4832 0-11.745-5.2618-11.745-11.745 0-6.4833 5.2618-11.745 11.745-11.745z" fill-rule="evenodd" fill="url(#linearGradient3132)"/>
  <path id="path3230" opacity=".8" d="m64.582 973.93c-15.774-9.1078-35.968-3.6966-45.076 12.079-9.1074 15.775-3.6964 35.97 12.078 45.077 15.774 9.1078 35.968 3.6966 45.076-12.078 9.1074-15.775 3.6964-35.97-12.078-45.077zm-10.626 18.406c5.6146 3.2417 7.5406 10.43 4.299 16.044-3.2416 5.6148-10.429 7.5408-16.044 4.2992-5.6146-3.2418-7.5406-10.43-4.299-16.044 3.2416-5.6149 10.429-7.5409 16.044-4.2991z" fill-rule="evenodd" fill="url(#linearGradient3129-3)"/>
  <path id="path3304" opacity=".15" d="m62.822 1002.4a14.74 14.74 0 0 1 -29.479 0 14.74 14.74 0 1 1 29.479 0z" stroke="#000" stroke-linecap="round" stroke-width="3" fill="none"/>
  <path id="path3942" opacity=".5" style="block-progression:tb;text-indent:0;color:#000000;text-transform:none" d="m57.86 1002.3c0-5.3018-4.3304-9.6877-9.7828-9.6877s-9.7722 4.3859-9.7722 9.6877c0 5.3021 4.3199 9.6792 9.7722 9.6792 5.4524 0 9.7828-4.3771 9.7828-9.6792zm-1.1023 0c0 4.8916-3.9397 8.7704-8.6805 8.7704s-8.6699-3.8788-8.6699-8.7704c0-4.8913 3.9291-8.7789 8.6699-8.7789s8.6805 3.8876 8.6805 8.7789z" fill="url(#linearGradient3112)"/>
  <path id="path3877" d="m51.686 1020.8c1.1541 2.748 1.25 6.7371 5.1251 6.295-1.3485-7.4238-0.51712-14.748 2.6846-18.742-1.0828 4.3889 1.0797 7.932 2.8066 11.589 0.49013-13.388 6.8037-21.103 4.8034-37.378 2.9481 7.1001 6.515 15.576 5.6778 23.523 3.2897-3.0041 1.4442-9.6575 4.9979-16.511-1.1112 6.7751 5.3246 15.255-2.9104 28.506 2.6722-0.8221 4.2172-2.8918 5.9792-4.7212-1.165 8.4579-4.4889 14.385-9.8841 17.883l4.759 2.2891c-7.1385 8.8164-12.813-3.9712-19.829 6.1518-5.2346-6.8301-5.0407-13.425-4.2099-18.885z" fill="url(#linearGradient4665)"/>
 </g>
</svg>
