<?xml version="1.0" encoding="UTF-8" standalone="no"?>
<!-- Created with Inkscape (http://www.inkscape.org/) -->
<svg id="svg2" xmlns:rdf="http://www.w3.org/1999/02/22-rdf-syntax-ns#" xmlns="http://www.w3.org/2000/svg" height="96" width="96" version="1.1" xmlns:cc="http://creativecommons.org/ns#" xmlns:xlink="http://www.w3.org/1999/xlink" xmlns:dc="http://purl.org/dc/elements/1.1/">
 <defs id="defs4">
  <linearGradient id="linearGradient3613-6" y2="138.66" gradientUnits="userSpaceOnUse" x2="48" y1="20.221" x1="48">
   <stop id="stop3739-73" stop-color="#fff" offset="0"/>
   <stop id="stop3741-93" stop-color="#fff" stop-opacity="0" offset="1"/>
  </linearGradient>
  <clipPath id="clipPath3613-5">
   <rect id="rect3615-80" rx="6" ry="6" height="84" width="84" y="6" x="6" fill="#fff"/>
  </clipPath>
  <filter id="filter3794-72" height="1.384" width="1.384" color-interpolation-filters="sRGB" y="-.192" x="-.192">
   <feGaussianBlur id="feGaussianBlur3796-97" stdDeviation="5.28"/>
  </filter>
  <clipPath id="clipPath3613-86">
   <rect id="rect3615-62" rx="6" ry="6" height="84" width="84" y="6" x="6" fill="#fff"/>
  </clipPath>
  <filter id="filter3794-1" height="1.384" width="1.384" color-interpolation-filters="sRGB" y="-.192" x="-.192">
   <feGaussianBlur id="feGaussianBlur3796-94" stdDeviation="5.28"/>
  </filter>
  <clipPath id="clipPath3916">
   <path id="path3918" d="m12 6c-3.324 0-6 2.676-6 6v72c0 3.324 2.676 6 6 6h72c3.324 0 6-2.676 6-6v-72c0-3.324-2.676-6-6-6h-72zm36 8.8125c18.215 0 33 14.784 33 33s-14.785 33-33 33-33-14.784-33-33 14.785-33 33-33zm0 21.25c-6.4832 0-11.75 5.2665-11.75 11.75s5.2668 11.75 11.75 11.75 11.75-5.2665 11.75-11.75-5.2668-11.75-11.75-11.75z" fill="url(#linearGradient3920)"/>
  </clipPath>
  <clipPath id="clipPath3999">
   <path id="path4001" d="m18 14.812c-18.215 0-33 14.784-33 33s14.785 33 33 33 33-14.784 33-33c0-0.27935 0.007-0.56606 0-0.84375h-21.281c0.0194 0.27544 0.0312 0.56342 0.0312 0.84375 0 6.4835-5.2668 11.75-11.75 11.75s-11.75-5.2665-11.75-11.75 5.2668-11.75 11.75-11.75c0.0213 0 0.0413-0.000113 0.0625 0v-21.25c-0.0211-0.00004-0.0414 0-0.0625 0z" fill-rule="evenodd" fill="#f0f"/>
  </clipPath>
  <clipPath id="clipPath4187">
   <path id="path4189" fill="#bbb1bf" d="m48 102c-19.882 0-36 16.118-36 36s16.118 36 36 36 36-16.118 36-36-16.118-36-36-36zm0 24c6.6274 0 12 5.3726 12 12s-5.3726 12-12 12-12-5.3726-12-12 5.3726-12 12-12z"/>
  </clipPath>
  <filter id="filter4195" height="1.36" width="1.36" color-interpolation-filters="sRGB" y="-0.18" x="-0.18">
   <feGaussianBlur id="feGaussianBlur4197" stdDeviation="5.2159999"/>
  </filter>
  <linearGradient id="linearGradient11607" y2="5.9877" gradientUnits="userSpaceOnUse" x2="48" gradientTransform="matrix(1.08 0 0 1.08 -3.7866 -3.9843)" y1="90" x1="48">
   <stop id="stop3855-0" stop-color="#672178" offset="0"/>
   <stop id="stop3857" stop-color="#ad77bb" offset="1"/>
  </linearGradient>
  <linearGradient id="linearGradient11610" y2="61.922" gradientUnits="userSpaceOnUse" x2="93.608" gradientTransform="matrix(0 .28234 -.33917 0 69.23 985.16)" y1="61.922" x1="26.18">
   <stop id="stop3332" stop-color="#fff" stop-opacity=".20312" offset="0"/>
   <stop id="stop3334" stop-color="#fff" stop-opacity=".67969" offset="1"/>
  </linearGradient>
  <linearGradient id="linearGradient11612" y2="61.922" gradientUnits="userSpaceOnUse" x2="94.568" gradientTransform="matrix(0 .12448 -.14953 0 57.487 994.62)" y1="61.922" x1="25.22">
   <stop id="stop3364-5" stop-color="#4d4d4d" offset="0"/>
   <stop id="stop3366" stop-color="#fff" offset="1"/>
  </linearGradient>
  <linearGradient id="linearGradient11614" y2="64" gradientUnits="userSpaceOnUse" x2="123" gradientTransform="matrix(.48435 .27965 -.27964 .48437 4.8979 -.89859)" y1="64" x1="5">
   <stop id="stop3235" stop-color="#fff" stop-opacity="0" offset="0"/>
   <stop id="stop3297" stop-color="#fff" stop-opacity="0" offset="0.15"/>
   <stop id="stop3241-8" stop-color="#fff" offset=".5"/>
   <stop id="stop3299" stop-color="#fff" stop-opacity="0" offset="0.85"/>
   <stop id="stop3237-3" stop-color="#fff" stop-opacity="0" offset="1"/>
  </linearGradient>
  <radialGradient id="radialGradient11616" gradientUnits="userSpaceOnUse" cy="61.922" cx="59.894" gradientTransform="matrix(0 .26689 -.26852 0 64.856 986.09)" r="33.714">
   <stop id="stop3344" stop-opacity="0" offset="0"/>
   <stop id="stop3350-9" stop-opacity="0" offset="0.85"/>
   <stop id="stop3346-0" offset="1"/>
  </radialGradient>
 </defs>
 <metadata id="metadata7">
  <rdf:RDF>
   <cc:Work rdf:about="">
    <dc:format>image/svg+xml</dc:format>
    <dc:type rdf:resource="http://purl.org/dc/dcmitype/StillImage"/>
    <dc:title/>
   </cc:Work>
  </rdf:RDF>
 </metadata>
 <g id="layer1" transform="translate(0 -956.36)">
  <rect id="rect5263-0" fill-opacity=".019608" ry="12.724" height="89.978" width="89.624" y="959.35" x="3.3534"/>
  <rect id="rect5261-6" fill-opacity=".039216" ry="12.552" height="88.762" width="88.413" y="959.96" x="3.9589"/>
  <rect id="rect5259-9" fill-opacity=".078431" ry="12.38" height="87.546" width="87.202" y="960.57" x="4.5645"/>
  <rect id="rect5257-5" fill-opacity=".15686" ry="12.208" height="86.33" width="85.991" y="961.18" x="5.1701"/>
  <path id="rect2419" d="m17.75 5.4062c-6.642 0-11.969 5.3948-11.969 12.063l0.0002 61.031c0 6.668 5.3268 12.031 11.969 12.031h60.812c6.642 0 11.969-5.363 11.969-12.031v-61.031c0-6.668-5.327-12.063-11.969-12.063l-60.812 0.0002z" transform="translate(0 956.36)" fill="url(#linearGradient11607)"/>
  <path id="rect5265-0" d="m5.7756 1029.8v5.0663c0 6.668 5.3434 12.032 11.985 12.032h60.809c6.6418 0 11.985-5.3645 11.985-12.032v-5.0663c0 6.6681-5.3434 12.032-11.985 12.032h-60.809c-6.6418 0-11.985-5.3643-11.985-12.032z" fill-opacity=".11765"/>
  <path id="path5252-0" d="m5.7756 1033.9v1.0133c0 6.668 5.3434 12.032 11.985 12.032h60.809c6.6418 0 11.985-5.3645 11.985-12.032v-1.0133c0 6.6681-5.3434 12.032-11.985 12.032h-60.809c-6.6418 0-11.985-5.3644-11.985-12.032z" fill-opacity=".098039"/>
  <g id="layer5" transform="translate(-55.631 861.44)">
   <rect id="rect3171" height="66" stroke="#fff" stroke-linecap="round" stroke-width=".5" fill="url(#linearGradient3613-6)" rx="12" ry="12" width="66" opacity=".1" clip-path="url(#clipPath3613-5)" filter="url(#filter3794-72)" y="15" x="15"/>
  </g>
  <g id="layer5-8" transform="translate(.22878 954.27)">
   <rect id="rect3171-2" height="66" stroke="#fff" stroke-linecap="round" stroke-width=".5" fill="url(#linearGradient3613-6)" rx="12" ry="12" width="66" opacity=".1" clip-path="url(#clipPath3613-86)" filter="url(#filter3794-1)" y="15" x="15"/>
  </g>
  <path id="rect4005" opacity=".2" style="color:#000000" d="m48.229 969.08v21.25c6.2133 0 11.306 4.8282 11.719 10.938h21.281c-0.42774-17.844-15.054-32.188-33-32.188z" fill="#fff"/>
  <g id="g3859" clip-path="url(#clipPath3916)" fill-rule="evenodd" transform="translate(.22878 954.27)">
   <path id="path3964" opacity=".05" d="m48 12.969c-19.744 0-35.844 16.099-35.844 35.844s16.099 35.844 35.844 35.844c19.744 0 35.844-16.099 35.844-35.844 0-19.746-16.1-35.844-35.844-35.844zm0 26.938c4.9654-0.000001 8.9062 3.9406 8.9062 8.9062s-3.9409 8.9062-8.9062 8.9062c-4.9654 0-8.9062-3.9406-8.9062-8.9062s3.9409-8.9062 8.9062-8.9062z"/>
   <path id="path3960" opacity="0.08" d="m48 14c-19.184 0-34.812 15.628-34.812 34.812 0 19.185 15.628 34.813 34.812 34.813s34.812-15.628 34.812-34.813c0-19.184-15.628-34.812-34.812-34.812zm0 24.875c5.5166-0.000001 9.9375 4.4207 9.9375 9.9375s-4.4209 9.9375-9.9375 9.9375-9.9375-4.4207-9.9375-9.9375 4.4209-9.9375 9.9375-9.9375z"/>
   <path id="path3956" opacity=".15" d="m48 15c-18.65 0-33.812 15.162-33.812 33.812 0 18.651 15.162 33.813 33.812 33.813s33.812-15.162 33.812-33.813c0-18.65-15.162-33.812-33.812-33.812zm0 22.875c6.0481-0.000001 10.938 4.8892 10.938 10.938 0 6.048-4.89 10.937-10.938 10.937s-10.938-4.889-10.938-10.938c0-6.048 4.89-10.937 10.938-10.937z"/>
   <path id="path3950" opacity=".3" d="m47.999 15.802c-18.215 0-32.998 14.784-32.998 32.999 0 18.216 14.783 32.999 32.998 32.999s32.998-14.784 32.998-32.999c0-18.216-14.783-32.999-32.998-32.999zm0 21.254c6.4832-0.000001 11.745 5.262 11.745 11.745 0 6.4835-5.2618 11.745-11.745 11.745s-11.745-5.262-11.745-11.745c0-6.4835 5.2618-11.745 11.745-11.745z"/>
  </g>
  <path id="path3307" opacity=".3" d="m48.228 990.27c-6.5134 0-11.801 5.2879-11.801 11.802 0 6.5137 5.2877 11.802 11.801 11.802 6.5134 0 11.801-5.2879 11.801-11.802 0-6.5139-5.2877-11.802-11.801-11.802zm0 8.3369c1.9124 0 3.4645 1.5522 3.4645 3.4649 0 1.9125-1.5521 3.4647-3.4645 3.4647s-3.4645-1.5522-3.4645-3.4647c0-1.9127 1.5521-3.4649 3.4645-3.4649z" fill-rule="evenodd" fill="#fff"/>
  <path id="path3328" opacity=".3" d="m48.228 1010.8a8.7233 8.7237 0 1 1 0 -17.447 8.7233 8.7237 0 0 1 0 17.447z" fill-rule="evenodd" fill="url(#radialGradient11616)"/>
  <g id="g3981" transform="translate(30.229 954.27)" clip-path="url(#clipPath3999)">
   <path id="path3170" d="m17.999 14.802c-18.215 0-32.998 14.784-32.998 32.999 0 18.216 14.783 32.999 32.998 32.999s32.998-14.784 32.998-32.999c0-18.216-14.783-32.999-32.998-32.999zm0 21.254c6.4832-0.000001 11.745 5.262 11.745 11.745 0 6.4835-5.2617 11.745-11.745 11.745-6.4832 0-11.745-5.262-11.745-11.745 0-6.4835 5.2618-11.745 11.745-11.745z" fill-rule="evenodd" fill="#ccbb98"/>
   <path id="path3230" opacity=".8" d="m34.498 19.421c-15.774-9.108-35.968-3.696-45.075 12.079-9.108 15.775-3.697 35.97 12.078 45.077 15.774 9.108 35.968 3.697 45.075-12.078 9.108-15.775 3.697-35.97-12.078-45.078zm-10.626 18.406c5.6146 3.2417 7.5406 10.43 4.299 16.045-3.2416 5.6149-10.429 7.5409-16.044 4.2991-5.6146-3.2417-7.5406-10.43-4.299-16.045 3.2416-5.6149 10.429-7.5409 16.044-4.2991z" fill-rule="evenodd" fill="url(#linearGradient11614)"/>
   <g id="g4175" opacity=".6" clip-path="url(#clipPath4187)" transform="matrix(.91667 0 0 .91667 -26 -78.5)" filter="url(#filter4195)">
    <path id="path4039" d="m60.947 57.784a20.708 18.814 0 0 1 -2.6155 2.9059l-14.643-13.304z" transform="matrix(1.5055 .86922 -.95673 1.6571 27.56 21.5)" fill="#7137c8"/>
    <path id="path4041" d="m60.779 58.011a20.708 18.814 0 0 1 -3.384 3.4788l-13.706-14.104z" transform="matrix(1.6792 .44994 -.49524 1.8483 -1.8956 30.76)" fill="#0cf"/>
    <path id="path4043" d="m62.724 54.796a20.708 18.814 0 0 1 -2.2597 3.6221l-16.775-11.032z" transform="matrix(1.7384 0 -6.0266e-8 1.9135 -27.951 47.328)" fill="#fc0"/>
    <path id="path4045" d="m61.623 56.793a20.708 18.814 0 0 1 -1.6993 2.2728l-16.235-11.68z" transform="matrix(1.6792 -.44994 .49524 1.8483 -48.831 70.075)" fill="#f00"/>
    <path id="path4144" d="m63.123 53.883a20.708 18.814 0 0 1 -2.37 4.1619l-17.064-10.659z" transform="matrix(1.6792 .44994 -.49524 1.8483 -1.8956 30.76)" fill="#0f0"/>
    <path id="path4155" d="m60.947 57.784a20.708 18.814 0 0 1 -2.6155 2.9059l-14.643-13.304z" transform="matrix(-1.5055 -.86922 .95673 -1.6571 68.44 254.5)" fill="#7137c8"/>
    <path id="path4157" d="m60.779 58.011a20.708 18.814 0 0 1 -3.384 3.4788l-13.706-14.104z" transform="matrix(-1.6792 -.44994 .49524 -1.8483 97.896 245.24)" fill="#0cf"/>
    <path id="path4159" d="m62.724 54.796a20.708 18.814 0 0 1 -2.2597 3.6221l-16.775-11.032z" transform="matrix(-1.7384 0 6.0266e-8 -1.9135 123.95 228.67)" fill="#fc0"/>
    <path id="path4161" d="m61.623 56.793a20.708 18.814 0 0 1 -1.6993 2.2728l-16.235-11.68z" transform="matrix(-1.6792 .44994 -.49524 -1.8483 144.83 205.92)" fill="#f00"/>
    <path id="path4163" d="m63.123 53.883a20.708 18.814 0 0 1 -2.37 4.1619l-17.064-10.659z" transform="matrix(-1.6792 -.44994 .49524 -1.8483 97.896 245.24)" fill="#0f0"/>
   </g>
  </g>
  <path id="path3352" opacity=".6" d="m48.228 1006.1a4.0686 4.0687 0 1 1 0 -8.1374 4.0686 4.0687 0 0 1 0 8.1374z" stroke="url(#linearGradient11612)" stroke-linecap="round" fill="none"/>
  <path id="path3942" opacity=".5" style="block-progression:tb;text-indent:0;color:#000000;text-transform:none" d="m58.006 1002.1c0-5.3023-4.3305-9.6882-9.7828-9.6882-5.4524 0-9.7722 4.3859-9.7722 9.6882 0 5.302 4.3199 9.6791 9.7722 9.6791 5.4524 0 9.7828-4.3771 9.7828-9.6791zm-1.1023 0c0 4.8915-3.9397 8.7703-8.6805 8.7703s-8.6699-3.8788-8.6699-8.7703c0-4.8918 3.9291-8.7794 8.6699-8.7794s8.6805 3.8876 8.6805 8.7794z" fill="url(#linearGradient11610)"/>
  <path id="path3745" opacity=".6" d="m44.981 1019.3-4.7643 0.01h-3.584l-0.36484 1.4779 2.7148 0.01h0.62773c1.7427 0 2.8076 0.6849 2.5109 1.8851-0.32014 1.3152-1.8487 1.8903-3.4606 1.8903h-0.60091l0.77796-3.2324h-2.6987l-1.1535 4.7207h3.8415c2.8804 0 5.6313-1.475 6.1057-3.3786 0.09462-0.3464 0.08602-1.2148-0.1395-1.7337 0-0.023-0.01508-0.032-0.02682-0.078-0.0122-0.012-0.02059-0.093 0.02682-0.1044 0.02391-0.012 0.06873 0.035 0.08049 0.047 0.02351 0.058 0.03755 0.099 0.03755 0.099l2.4412 6.7154 6.2237-6.8303h2.629 0.6331c1.7427 0 2.8065 0.6849 2.5217 1.8851-0.33189 1.3153-1.8593 1.8903-3.4713 1.8903h-0.60627l0.78333-3.2323h-2.7041l-1.1482 4.7206h3.8415c2.8808 0 5.6435-1.475 6.1057-3.3786 0.47413-1.8923-1.5659-3.3734-4.4585-3.3734h-5.7247s-1.518 1.7437-1.8027 2.0784c-1.5053 1.765-1.7817 2.2385-1.8295 2.3655 0.01192-0.127-0.04668-0.598-0.68675-2.3864-0.1775-0.4847-0.71894-2.0575-0.71894-2.0575h-1.9583v-0.01zm2.468 8.3551c-7.3026 0-13.22 0.8189-13.22 1.8225 0 1.0154 5.9174 1.8224 13.22 1.8224 7.3024 0 13.225-0.807 13.225-1.8224 0-1.0036-5.923-1.8225-13.225-1.8225zm-0.47751 1.2585c1.6716 0 3.026 0.2663 3.026 0.6005 0 0.3347-1.3544 0.611-3.026 0.611-1.6718 0-3.0206-0.2763-3.0206-0.611 0-0.3342 1.3488-0.6005 3.0206-0.6005z" fill-rule="evenodd"/>
  <path id="path3304" opacity=".15" d="m62.968 1002.2a14.74 14.74 0 0 1 -29.479 0 14.74 14.74 0 1 1 29.479 0z" stroke="#000" stroke-linecap="round" stroke-width="3" fill="none"/>
  <rect id="rect4042" opacity=".1" style="color:#000000" height="21" width="1" y="969.27" x="48.229"/>
  <rect id="rect4044" opacity=".1" style="color:#000000" transform="matrix(0,-1,-1,0,0,0)" height="21" width="1" y="-81.229" x="-1001.3"/>
  <path id="path4046" opacity=".5" d="m48.229 969.08c-18.215 0-33 14.784-33 33 0 0.1686-0.003 0.332 0 0.5 0.26532-17.987 14.951-32.5 33-32.5s32.735 14.513 33 32.5c0.003-0.168 0-0.3314 0-0.5 0-18.216-14.785-33-33-33z" fill-rule="evenodd" fill="#fff"/>
 </g>
</svg>
