<?xml version="1.0" encoding="UTF-8" standalone="no"?>
<!-- Created with Inkscape (http://www.inkscape.org/) -->
<svg id="svg2" xmlns:rdf="http://www.w3.org/1999/02/22-rdf-syntax-ns#" xmlns="http://www.w3.org/2000/svg" height="96" width="96" version="1.1" xmlns:cc="http://creativecommons.org/ns#" xmlns:xlink="http://www.w3.org/1999/xlink" xmlns:dc="http://purl.org/dc/elements/1.1/">
 <defs id="defs4">
  <linearGradient id="linearGradient3700-09">
   <stop id="stop3702-67" stop-color="#70a83e" offset="0"/>
   <stop id="stop3704-18" stop-color="#9fd058" offset="1"/>
  </linearGradient>
  <linearGradient id="linearGradient9745" y2="5.9877" xlink:href="#linearGradient3700-09" gradientUnits="userSpaceOnUse" x2="48" gradientTransform="translate(-169.06 968.2)" y1="90" x1="48"/>
  <linearGradient id="linearGradient9826" y2="5.9877" gradientUnits="userSpaceOnUse" x2="48" gradientTransform="matrix(1.0855 0 0 1.0921 -5.3204 -6.0041)" y1="90" x1="48">
   <stop id="stop3702-1" stop-color="#2e4f84" offset="0"/>
   <stop id="stop3704-8" stop-color="#4c77c5" offset="1"/>
  </linearGradient>
 </defs>
 <metadata id="metadata7">
  <rdf:RDF>
   <cc:Work rdf:about="">
    <dc:format>image/svg+xml</dc:format>
    <dc:type rdf:resource="http://purl.org/dc/dcmitype/StillImage"/>
    <dc:title/>
   </cc:Work>
  </rdf:RDF>
 </metadata>
 <g id="layer1" transform="translate(0 -956.36)">
  <rect id="rect5263-0" fill-opacity=".019608" ry="12.724" height="89.978" width="89.624" y="959.35" x="3.3534"/>
  <rect id="rect5261-6" fill-opacity=".039216" ry="12.552" height="88.762" width="88.413" y="959.96" x="3.9589"/>
  <rect id="rect5259-9" fill-opacity=".078431" ry="12.38" height="87.546" width="87.202" y="960.57" x="4.5645"/>
  <path id="rect2419" d="m17.375 4.8125c-6.763 0-12.219 5.4555-12.219 12.218l0.0002 61.908c0 6.763 5.4558 12.218 12.219 12.218h61.563c6.763 0 12.218-5.455 12.218-12.218v-61.907c0-6.763-5.455-12.218-12.218-12.218l-61.563-0.0005z" transform="translate(0 956.36)" fill="url(#linearGradient9826)"/>
  <rect id="rect4772" display="none" height="107.79" width="107.79" y="971.68" x="-369.64" fill="none"/>
  <g id="g4788" display="none" transform="matrix(.21052 0 0 .21052 -369.68 971.63)"></g>
  <g id="g4806" display="none" transform="matrix(.21052 0 0 .21052 -369.68 971.63)">
   <g id="g4808" display="inline">
    <path id="path4810" d="m349.1 256.65c-0.265-0.254 37.637 27.605 39.421 25.012 6.362-9.252 82.046-93.137 84.784-116.24 0.242-2.003-0.516-4.096-0.516-4.096s-1.19-0.144-6.325-4.314c-2.692-2.192-5.483-4.581-5.483-4.581-16.054 0.998-57.885 41.559-111.06 103.57" fill="#050505" display="none"/>
   </g>
  </g>
  <g id="g4796" transform="matrix(.21052 0 0 .21052 -369.68 971.63)"></g>
  <rect id="rect3873" rx="6" ry="6" height="84" width="84" display="none" y="974.2" x="-163.06" fill="url(#linearGradient9745)"/>
  <rect id="rect3880" rx="6" ry="6" height="84" width="84" display="none" y="974.2" x="-163.06" fill="url(#linearGradient9745)"/>
  <path id="path3863" opacity=".15" d="m62.064 975.29c-6.3985 0-11.144 1.6588-14.188 4.9296-3.0411 3.2674-4.1993 7.8658-4.1993 13.219v4.961h-6.1398-0.03186c-0.03929 0.001-0.19458 0.0317-0.19088 0.0314 0.0041-0.00036-0.19513 0.00079-0.19088 0 0.0041-0.00078-0.19503 0.064-0.19088 0.0628 0.0041-0.001-0.16307 0.0644-0.15906 0.0628 0.0041-0.002-0.1947 0.0648-0.19088 0.0628 0.0041-0.002-0.16268 0.12796-0.15906 0.1256 0.0041-0.002-0.16241 0.0969-0.15906 0.0941 0.0031-0.003-0.16213 0.12862-0.15906 0.1256 0.0031-0.003-0.12999 0.16029-0.12725 0.15699 0.0031-0.003-0.09783 0.16056-0.09539 0.15699 0.002-0.003-0.12927 0.16077-0.12725 0.15699 0.002-0.004-0.06525 0.19235-0.06363 0.18839 0.002-0.004-0.06485 0.16105-0.06363 0.15695 0.001 0-0.06444 0.19272-0.06362 0.18852 0.000794 0-0.000367 0.19273 0 0.18843 0.000315 0-0.03034 0.1496-0.03186 0.1884-0.000244 0.01 0.00001 0.032 0 0.031v12.999 0.031c0.001 0.039 0.03217 0.192 0.03186 0.1883-0.000367 0 0.000794 0.1927 0 0.1884-0.000794 0 0.06485 0.1925 0.06362 0.1884-0.001 0 0.06525 0.161 0.06363 0.157-0.002 0 0.06566 0.1922 0.06363 0.1884-0.002 0 0.12964 0.1605 0.12725 0.157-0.002 0 0.09814 0.1603 0.09539 0.1569-0.0031 0 0.13032 0.1601 0.12725 0.1571-0.0031 0 0.16241 0.1283 0.15906 0.1256-0.0031 0 0.16268 0.096 0.15906 0.094-0.0041 0 0.16289 0.1276 0.15906 0.1256-0.0041 0 0.19489 0.064 0.19088 0.063-0.0041 0 0.16322 0.064 0.15906 0.063-0.0041 0 0.19513 0.063 0.19088 0.063-0.0041-0.0007 0.19519 0.0004 0.19088 0-0.0041-0.0003 0.15158 0.03 0.19088 0.031 0.0061 0.0002 0.03237 0 0.03186 0h6.1398v32.183 0.031h19.088c0.000234-0.01-0.00001-0.032 0-0.031v-32.183h8.144c-0.0041 0 0.19482-0.032 0.19088-0.031-0.0041 0.0004 0.19475-0.032 0.19088-0.031-0.0041 0.0007 0.16286-0.032 0.15906-0.031-0.0041 0 0.16274-0.064 0.15906-0.063-0.0041 0 0.16258-0.064 0.15906-0.063-0.0041 0 0.16241-0.096 0.15906-0.094-0.0031 0 0.1622-0.096 0.15906-0.095-0.0031 0 0.13015-0.1282 0.12725-0.1256-0.0031 0 0.1299-0.1285 0.12725-0.1256-0.0031 0 0.12961-0.1287 0.12725-0.1256-0.002 0 0.09753-0.1602 0.09539-0.1569-0.002 0 0.06536-0.1606 0.06363-0.157-0.002 0 0.09681-0.1607 0.09539-0.157-0.001 0 0.03288-0.1607 0.03186-0.157-0.001 0 0.06434-0.1922 0.06362-0.1884-0.000713 0 0.000356-0.1609 0-0.157l1.3361-13.03v-0.031c0.0031-0.03 0.03197-0.064 0.03186-0.063-0.000153 0 0.00004-0.096 0-0.095-0.000041 0-0.000082-0.1278 0-0.1256 0.000081 0-0.000204-0.096 0-0.094 0.000203 0-0.03217-0.096-0.03186-0.094 0.000316 0-0.000438-0.096 0-0.094 0.000438 0-0.03237-0.096-0.03186-0.094 0.000549 0-0.03248-0.096-0.03186-0.094 0.000672 0-0.03258-0.0962-0.03186-0.0941 0.000783 0.002-0.03268-0.0963-0.03186-0.0942 0.000896 0.002-0.03278-0.0961-0.03186-0.0942 0.000997 0.002-0.06475-0.0961-0.06363-0.0941 0.001 0.002-0.06485-0.096-0.06363-0.0942 0.001 0.002-0.03308-0.096-0.03186-0.0941 0.001 0.002-0.06505-0.0646-0.06363-0.0628 0.001 0.002-0.06515-0.0959-0.06363-0.0941 0.002 0.002-0.06515-0.0644-0.06363-0.0628 0.002 0.002-0.09712-0.0643-0.09539-0.0628 0.002 0.002-0.06536-0.0642-0.06363-0.0628 0.002 0.001-0.09722-0.0641-0.09539-0.0628 0.002 0.001-0.06546-0.064-0.06363-0.0628 0.002 0.001-0.09742-0.0639-0.09539-0.0628 0.002 0.001-0.09742-0.0638-0.09539-0.0628 0.002 0.001-0.09752-0.0324-0.09539-0.0315 0.002 0.00093-0.09752-0.0322-0.09539-0.0314 0.002 0.00083-0.09763-0.0322-0.09539-0.0315 0.002 0.00073-0.09763-0.0319-0.09539-0.0314 0.002 0.00061-0.09763-0.0318-0.09539-0.0314 0.002 0.0005-0.09763-0.0318-0.09539-0.0314 0.002 0.00037-0.09773-0.00027-0.09539 0 0.002 0.00026-0.09773-0.00014-0.09539 0 0.002 0.00014-0.12952-0.0314-0.12725-0.0314h-9.4802l0.03186-3.705c0-1.547 0.24711-2.4535 0.31813-2.5433 0.06281-0.0795 0.16256-0.1951 0.57263-0.31398 0.41007-0.11889 1.0978-0.18839 2.1633-0.18839h6.2671c-0.00061-0.00001 0.02545 0.00023 0.03186 0 0.03929-0.001 0.19459-0.0317 0.19088-0.0314-0.0041 0.00036 0.19513-0.00079 0.19088 0-0.0041 0.00078 0.19503-0.064 0.19088-0.0628-0.0041 0.001 0.16307-0.0644 0.15906-0.0628-0.0041 0.002 0.1947-0.0648 0.19088-0.0628-0.0041 0.002 0.16268-0.12796 0.15906-0.1256-0.0041 0.002 0.16241-0.0969 0.15906-0.0941-0.0031 0.003 0.16213-0.12862 0.15906-0.1256-0.0031 0.003 0.12999-0.1603 0.12725-0.15699-0.0031 0.003 0.09783-0.16056 0.09539-0.15699-0.002 0.004 0.12927-0.16077 0.12725-0.15699-0.002 0.004 0.06525-0.19235 0.06363-0.1884-0.002 0.004 0.06485-0.16109 0.06363-0.15699-0.001 0.004 0.06444-0.19259 0.06363-0.18839-0.000794 0.004 0.000367-0.19265 0-0.18839-0.000315 0.004 0.03034-0.14961 0.03186-0.18839 0.000234-0.006-0.00001-0.0319 0-0.0314v-12.402c-0.00001 0.0006 0.000234-0.0251 0-0.0314-0.001-0.0388-0.03217-0.19206-0.03186-0.1884 0.000367 0.004-0.000794-0.19259 0-0.18839 0.000794 0.004-0.06485-0.19249-0.06363-0.18839 0.001 0.004-0.06525-0.16095-0.06363-0.15699 0.002 0.004-0.06566-0.19217-0.06363-0.18839 0.002 0.004-0.12964-0.16056-0.12725-0.15699 0.002 0.004-0.09814-0.1603-0.09539-0.157 0.0031 0.003-0.13032-0.16001-0.12725-0.15699 0.0031 0.003-0.16241-0.12829-0.15906-0.12559 0.0031 0.003-0.16268-0.0966-0.15906-0.0942 0.0041 0.002-0.16289-0.12758-0.15906-0.12559 0.0041 0.002-0.19489-0.0644-0.19088-0.0628 0.0041 0.002-0.16322-0.064-0.15906-0.0628 0.0041 0.001-0.19513-0.0636-0.19088-0.0628 0.0041 0.00078-0.19519-0.00036-0.19088 0 0.0041 0.00031-0.15158-0.0299-0.19088-0.0314h-0.03186z" fill-opacity=".97647" fill="#2c4775"/>
  <path id="path3859" opacity=".4" d="m62.064 976.33c-6.221 0-10.625 1.5762-13.425 4.5842-2.7996 3.008-3.913 7.3191-3.913 12.528v5.9971h-7.2215c-0.48516-0.008-0.93042 0.43182-0.92257 0.91071v13.062c-0.0081 0.4788 0.4374 0.9182 0.92257 0.9105h7.2215v32.246h16.988v-32.246h9.1938c0.44387-0.01 0.85128-0.3799 0.89075-0.8164l1.3361-13.062c0.06169-0.49836-0.3821-0.99909-0.89075-1.0049h-10.53l0.03186-4.7412c0-1.5986 0.12248-2.6425 0.54081-3.1712 0.41834-0.52872 1.3132-0.91056 3.563-0.91056h6.2989c0.48516 0.008 0.93042-0.43171 0.92257-0.91055v-12.465c0.0081-0.47884-0.43741-0.91831-0.92257-0.91055z" fill-opacity=".97647" fill="#2c4775"/>
  <path id="path3835" d="m60.79 1046.9h-15.142v-33.446h-8.144v-13.058h8.144v-6.8925c0-10.17 4.2708-16.217 16.408-16.217h10.105v12.468h-6.3162c-4.7255 0-5.0366 1.7418-5.0366 4.9935l-0.01832 5.6479h11.442l-1.3388 13.058h-10.104z" fill="#fff"/>
  <path id="rect5265-0" d="m5.7756 1029.8v5.0663c0 6.668 5.3434 12.032 11.985 12.032h60.809c6.6418 0 11.985-5.3645 11.985-12.032v-5.0663c0 6.6681-5.3434 12.032-11.985 12.032h-60.809c-6.6418 0-11.985-5.3643-11.985-12.032z" fill-opacity="0.17"/>
  <path id="path5252-0" d="m5.7756 1033.9v1.0133c0 6.668 5.3434 12.032 11.985 12.032h60.809c6.6418 0 11.985-5.3645 11.985-12.032v-1.0133c0 6.6681-5.3434 12.032-11.985 12.032h-60.809c-6.6418 0-11.985-5.3644-11.985-12.032z" fill-opacity=".098039"/>
 </g>
</svg>
