<?xml version="1.0" encoding="UTF-8" standalone="no"?>
<!-- Created with Inkscape (http://www.inkscape.org/) -->
<svg id="svg2" xmlns:rdf="http://www.w3.org/1999/02/22-rdf-syntax-ns#" xmlns="http://www.w3.org/2000/svg" height="96" width="96" version="1.1" xmlns:cc="http://creativecommons.org/ns#" xmlns:xlink="http://www.w3.org/1999/xlink" xmlns:dc="http://purl.org/dc/elements/1.1/">
 <defs id="defs4">
  <linearGradient id="linearGradient3260" gradientUnits="userSpaceOnUse">
   <stop id="stop3262" offset="0"/>
   <stop id="stop3266" stop-opacity=".35484" offset=".2"/>
   <stop id="stop3268" stop-opacity="0" offset=".55255"/>
   <stop id="stop3264" stop-opacity="0" offset="1"/>
  </linearGradient>
  <linearGradient id="linearGradient3299">
   <stop id="stop3301" stop-color="#dfdfdf" offset="0"/>
   <stop id="stop3303" stop-color="#434343" offset="1"/>
  </linearGradient>
  <linearGradient id="linearGradient26276" y2="5.9877" gradientUnits="userSpaceOnUse" x2="48" gradientTransform="matrix(1 0 0 1.1458 -112.7 934.19)" y1="90" x1="48">
   <stop id="stop3189-6" stop-color="#282828" offset="0"/>
   <stop id="stop3191-9" stop-color="#5a5a5a" offset="1"/>
  </linearGradient>
  <radialGradient id="radialGradient26278" gradientUnits="userSpaceOnUse" cy="85.132" cx="48" gradientTransform="matrix(1.4019 1.2754e-8 -1.1111e-8 1.2212 -131.99 909.2)" r="36">
   <stop id="stop3690-9" stop-color="#b30707" offset="0"/>
   <stop id="stop3692-6" stop-color="#e42c0d" offset="1"/>
  </radialGradient>
  <linearGradient id="linearGradient26280" y2="12.798" gradientUnits="userSpaceOnUse" x2="62.337" gradientTransform="matrix(.56905 0 0 .58994 -94.125 963.96)" y1="79.015" x1="62.337">
   <stop id="stop3696-6" stop-color="#e6e6e6" offset="0"/>
   <stop id="stop3698-2" stop-color="#f5f5f5" offset="1"/>
  </linearGradient>
  <linearGradient id="linearGradient26282" y2="34.001" xlink:href="#linearGradient3260" gradientUnits="userSpaceOnUse" x2="43.477" gradientTransform="matrix(.72414 0 0 .75 1.6552 4.5)" y1="26" x1="43.477"/>
  <linearGradient id="linearGradient26284" y2="20.33" gradientUnits="userSpaceOnUse" x2="50.464" gradientTransform="translate(0 -.67857)" y1="16.036" x1="50.464">
   <stop id="stop4316" stop-color="#fff" offset="0"/>
   <stop id="stop4322" stop-color="#fff" stop-opacity=".49804" offset="0.3"/>
   <stop id="stop4318" stop-color="#fff" stop-opacity="0" offset="1"/>
  </linearGradient>
  <linearGradient id="linearGradient26286" y2="11.925" xlink:href="#linearGradient3260" gradientUnits="userSpaceOnUse" x2="48" gradientTransform="matrix(1 0 0 1.25 0 -4.5982)" y1="16" x1="48"/>
  <linearGradient id="linearGradient26288" y2="11.925" xlink:href="#linearGradient3260" gradientUnits="userSpaceOnUse" x2="48" gradientTransform="matrix(1 0 0 1.25 0 4.4018)" y1="16" x1="48"/>
  <linearGradient id="linearGradient26290" y2="24" gradientUnits="userSpaceOnUse" x2="16" gradientTransform="matrix(.81331 0 0 .81133 3.9935 2.0282)" y1="10.442" x1="11">
   <stop id="stop3275-3" stop-color="#5d5d5d" offset="0"/>
   <stop id="stop3277-8" stop-color="#171717" offset="1"/>
  </linearGradient>
  <linearGradient id="linearGradient26292" y2="24.5" gradientUnits="userSpaceOnUse" x2="19.25" gradientTransform="matrix(.81331 0 0 .81133 3.9935 2.0282)" y1="9.9419" x1="13.125">
   <stop id="stop3291-7" stop-color="#919191" offset="0"/>
   <stop id="stop3293" stop-color="#232323" offset="1"/>
  </linearGradient>
  <radialGradient id="radialGradient26294" xlink:href="#linearGradient3299" gradientUnits="userSpaceOnUse" cy="14.938" cx="11.312" r="1.4375"/>
  <linearGradient id="linearGradient26300" y2="63.893" gradientUnits="userSpaceOnUse" x2="36.357" y1="6" x1="36.357">
   <stop id="stop3739-16" stop-color="#fff" offset="0"/>
   <stop id="stop3741-45" stop-color="#fff" stop-opacity="0" offset="1"/>
  </linearGradient>
  <clipPath id="clipPath26302" clipPathUnits="userSpaceOnUse">
   <path id="path26304" d="m-94.267 942.39c-6.4772 0-11.687 5.6428-11.687 12.618v63.84c0 6.9749 5.2098 12.585 11.687 12.585h59.285c6.2696 0 11.337-5.2685 11.657-11.931v-65.148c-0.31198-6.6706-5.3818-11.964-11.657-11.964h-59.285z" fill="url(#linearGradient26306)"/>
  </clipPath>
  <linearGradient id="linearGradient26306" y2="5.9877" gradientUnits="userSpaceOnUse" x2="48" gradientTransform="matrix(1.1676 0 0 1.2794 -120.57 922.96)" y1="90" x1="48">
   <stop id="stop3189" stop-color="#a00000" offset="0"/>
   <stop id="stop3191" stop-color="#ff0505" offset="1"/>
  </linearGradient>
 </defs>
 <metadata id="metadata7">
  <rdf:RDF>
   <cc:Work rdf:about="">
    <dc:format>image/svg+xml</dc:format>
    <dc:type rdf:resource="http://purl.org/dc/dcmitype/StillImage"/>
    <dc:title/>
   </cc:Work>
  </rdf:RDF>
 </metadata>
 <g id="layer1" transform="translate(0 -956.36)">
  <rect id="rect5263-0" fill-opacity=".019608" ry="12.724" height="89.978" width="89.978" y="959.35" x="2.9998"/>
  <rect id="rect5261-6" fill-opacity=".039216" ry="12.552" height="88.762" width="88.762" y="959.96" x="3.6078"/>
  <rect id="rect5259-9" fill-opacity=".078431" ry="12.38" height="87.546" width="87.546" y="960.57" x="4.2157"/>
  <rect id="rect5257-5" fill-opacity=".15686" ry="12.208" height="86.33" width="86.33" y="961.18" x="4.8237"/>
  <g id="g26249" clip-path="url(#clipPath26302)" transform="matrix(1.0295 0 0 0.956 114.51 60.845)">
   <rect id="rect2419" rx="6" ry="6.875" height="96.25" width="84" y="941.07" x="-106.7" fill="url(#linearGradient26276)"/>
   <path id="rect2980" fill="url(#radialGradient26278)" d="m-100.7 965.07v4 36 10c0 2.216 1.784 4 4 4h64c2.216 0 4-1.784 4-4v-10-36-4h-4-64-4z"/>
   <path id="path3828" opacity="0.08" d="m-100.7 965.07v4 36 10c0 2.216 1.784 4 4 4h64c2.216 0 4-1.784 4-4v-10-36-4h-4-64-4zm3.0938 3.0938h0.90625 64 0.90625v0.90625 36 10c0 0.5508-0.35547 0.9063-0.90625 0.9063h-64c-0.55078 0-0.90625-0.3555-0.90625-0.9063v-10-36-0.90625z"/>
   <path id="path3809" opacity=".3" d="m-100.7 1015.1v1c0 2.216 1.784 4 4 4h64c2.216 0 4-1.784 4-4v-1c0 2.216-1.784 4-4 4h-64c-2.216 0-4-1.784-4-4z" fill="#fff"/>
   <path id="path3831" opacity=".2" d="m-100.7 965.07v4 36 10c0 2.216 1.784 4 4 4h64c2.216 0 4-1.784 4-4v-10-36-4h-4-64-4zm2.0312 2.0312h1.9688 64 1.9688v1.9688 36 10c0 1.1187-0.85012 1.9688-1.9688 1.9688h-64c-1.1186 0-1.9688-0.8501-1.9688-1.9688v-10-36-1.9688z"/>
   <path id="path3818" fill="#800000" d="m-100.7 965.07v4 36 10c0 2.216 1.784 4 4 4h64c2.216 0 4-1.784 4-4v-10-36-4h-4-64-4zm1.0625 1.0625h2.9375 64 2.9375v2.9375 36 10c0 1.641-1.2965 2.9375-2.9375 2.9375h-64c-1.641 0-2.9375-1.2965-2.9375-2.9375v-10-36-2.9375z"/>
   <path id="path3865" opacity=".1" d="m-48.95 970.19c-6.7232-0.22793-13.027 3.8099-16.546 9.3868-2.3552 3.4708-3.5762 7.5146-4.7278 11.501-1.3528 3.8979-3.4221 8.1384-7.4373 9.8389-0.99402 0.5737-2.1398 0.2666-3.1637 0.4609-0.943 0.3521-0.93995 1.4359-0.875 2.2821 0.02198 2.4136-0.04324 4.8479 0.03125 7.2492 0.22868 0.9232 1.2992 1.1591 2.1461 1.0421 5.8139 0.032 11.232-3.3165 14.478-8.0255 1.6482-2.2957 2.8959-4.8601 3.8448-7.5166 2.8619-0.0216 5.7442 0.0427 8.5938-0.0313 0.8848-0.19827 1.1711-1.1732 1.0312-1.9901-0.02165-2.5111 0.04278-5.0424-0.03125-7.5411-0.19827-0.8848-1.1732-1.1711-1.9901-1.0312h-3.0724c1.2409-3.115 4.5275-5.2082 7.875-5.0312 0.854-0.19062 1.2509-1.0885 1.0938-1.9136-0.02189-2.5573 0.04311-5.1352-0.03125-7.6801-0.15287-0.52979-0.64432-0.99354-1.2188-1z" fill="#fff"/>
   <path id="path3859" opacity=".2" d="m-49.013 970.94s-3.6888-0.29242-7.9688 1.8438c-4.2799 2.1362-9.2054 6.7291-11.812 16.25-2.0233 7.3888-4.9535 10.567-7.3125 11.969-1.1795 0.701-2.2264 0.977-2.9688 1.0625-0.74237 0.086-1.125 0-1.125 0a0.63438 0.63438 0 0 0 -0.75 0.625v7.8438a0.63438 0.63438 0 0 0 0.5625 0.625s3.3594 0.4104 7.375-1.4063c3.9379-1.7814 8.4931-5.7885 11.312-14.094h8.75a0.63438 0.63438 0 0 0 0.625 -0.625v-7.8438a0.63438 0.63438 0 0 0 -0.625 -0.625h-5c0.24418-0.67303 0.65877-1.6548 1.5625-2.8438 1.3842-1.8211 3.5984-3.6222 7.3125-3.6875a0.63438 0.63438 0 0 0 0.625 -0.625v-7.8438a0.63438 0.63438 0 0 0 -0.5625 -0.625z" fill="#fff"/>
   <path id="path3727-2" fill="url(#linearGradient26280)" d="m-49.09 971.57v7.8509c-7.8385 0.13774-9.7649 7.782-9.7649 7.782h5.9121v7.8509h-9.1671c-5.5135 17.01-18.201 15.495-18.201 15.495v-7.8509s8.0512 1.4935 12.156-13.498c5.1352-18.753 19.065-17.63 19.065-17.63z"/>
   <g id="layer3" transform="translate(-112.7 935.07)">
    <path id="rect4237" d="m12 6c-3.324 0-6 2.676-6 6v12h84v-12c0-3.324-2.676-6-6-6h-72z"/>
    <rect id="rect3250" opacity=".8" fill-rule="evenodd" height="6" width="84" y="24" x="6" fill="url(#linearGradient26282)"/>
    <rect id="rect4289" opacity=".3" fill-rule="evenodd" height="5" width="84" y="15" x="6" fill="url(#linearGradient26284)"/>
    <g id="g4299" fill-rule="evenodd" fill="#f0f0f0" transform="translate(1)">
     <path id="path4293" d="m28.333 6-5.333 9 5.333 9h10.667l-5.333-9 5.333-9h-10.667z"/>
     <path id="path4295" d="m50.333 6-5.333 9 5.333 9h10.667l-5.333-9 5.333-9h-10.667z"/>
     <path id="path4297" d="m72.333 6-5.333 9 5.333 9h10.667l-5.333-9 5.333-9h-10.667z"/>
    </g>
    <rect id="rect4291" opacity=".7" fill-rule="evenodd" height="5" width="84" y="10" x="6" fill="url(#linearGradient26286)"/>
    <rect id="rect4324" opacity=".7" fill-rule="evenodd" height="5" width="84" y="19" x="6" fill="url(#linearGradient26288)"/>
    <path id="path4333" stroke-linejoin="round" d="m12.005 10.5c1.1095 0 1.7702 0.98369 6.03 4.3027 4.3044 3.3537 5.4775 3.7265 5.4775 5.0746 0 1.3484-1.0882 1.6227-2.4399 1.6227h-8.1331c-1.352 0-2.44-1.086-2.44-2.434v-6.4906c0-1.348 0.468-2.075 1.505-2.075z" fill-rule="evenodd" stroke="url(#linearGradient26292)" fill="url(#linearGradient26290)"/>
    <path id="path4335" d="m12.75 14.938a1.4375 1.4375 0 1 1 -2.875 0 1.4375 1.4375 0 1 1 2.875 0z" fill-rule="evenodd" transform="matrix(.81331 0 0 .81133 3.5869 1.0747)" fill="url(#radialGradient26294)"/>
    <path id="path4337" d="m12.75 14.938a1.4375 1.4375 0 1 1 -2.875 0 1.4375 1.4375 0 1 1 2.875 0z" fill-rule="evenodd" transform="matrix(.81331 0 0 .81133 3.5869 7.099)" fill="url(#radialGradient26294)"/>
    <path id="path4339" d="m12.75 14.938a1.4375 1.4375 0 1 1 -2.875 0 1.4375 1.4375 0 1 1 2.875 0z" fill-rule="evenodd" transform="matrix(.81331 0 0 .81133 11.618 7.099)" fill="url(#radialGradient26294)"/>
   </g>
   <g id="layer4-8" transform="translate(-112.7 935.07)">
    <path id="rect3728" opacity=".3" d="m12 6c-3.324 0-6 2.676-6 6v2 68 2c0 0.33472 0.04135 0.6507 0.09375 0.96875 0.0487 0.2956 0.09704 0.59692 0.1875 0.875 0.00988 0.03038 0.020892 0.0636 0.03125 0.09375 0.098865 0.28777 0.23488 0.54745 0.375 0.8125 0.14459 0.27351 0.31562 0.53562 0.5 0.78125 0.18438 0.24564 0.37378 0.47347 0.59375 0.6875 0.43995 0.42806 0.94291 0.81453 1.5 1.0938 0.27854 0.13961 0.57347 0.24695 0.875 0.34375-0.2562-0.10022-0.48671-0.23627-0.71875-0.375-0.00741-0.0044-0.023866 0.0045-0.03125 0-0.031933-0.0193-0.062293-0.04251-0.09375-0.0625-0.1204-0.0767-0.23102-0.16351-0.34375-0.25-0.10617-0.0808-0.21328-0.16111-0.3125-0.25-0.1778-0.162-0.3473-0.346-0.4999-0.531-0.1075-0.131-0.2183-0.266-0.3124-0.407-0.0251-0.038-0.0385-0.086-0.0626-0.125-0.0647-0.103-0.1302-0.204-0.1874-0.312-0.1011-0.195-0.2057-0.416-0.2813-0.625-0.008-0.022-0.0236-0.041-0.0313-0.063-0.0318-0.092-0.0358-0.187-0.0624-0.281-0.0304-0.107-0.0704-0.203-0.0938-0.313-0.0729-0.341-0.125-0.698-0.125-1.062v-2-68-2c0-2.782 2.2182-5 5-5h2 68 2c2.7818 0 5 2.2182 5 5v2 68 2c0 0.3643-0.05212 0.72099-0.125 1.0625-0.04415 0.20689-0.08838 0.39766-0.15625 0.59375-0.0077 0.02195-0.0233 0.04069-0.03125 0.0625-0.06274 0.17374-0.13838 0.36745-0.21875 0.53125-0.04158 0.0828-0.07904 0.16995-0.125 0.25-0.0546 0.09721-0.12677 0.18835-0.1875 0.28125-0.09411 0.14096-0.20492 0.276-0.3125 0.40625-0.14317 0.17445-0.30314 0.347-0.46875 0.5-0.01117 0.0102-0.01998 0.02115-0.03125 0.03125-0.13839 0.12556-0.28509 0.23444-0.4375 0.34375-0.10257 0.07315-0.20432 0.15336-0.3125 0.21875-0.0074 0.0045-0.02384-0.0044-0.03125 0-0.23204 0.13873-0.46255 0.27478-0.71875 0.375 0.30153-0.0968 0.59646-0.20414 0.875-0.34375 0.55709-0.27922 1.0601-0.66569 1.5-1.0938 0.21997-0.21403 0.40937-0.44186 0.59375-0.6875s0.35541-0.50774 0.5-0.78125c0.14012-0.26505 0.27614-0.52473 0.375-0.8125 0.01041-0.03078 0.02133-0.06274 0.03125-0.09375 0.09046-0.27808 0.1388-0.5794 0.1875-0.875 0.053-0.318 0.094-0.634 0.094-0.969v-2-68-2c0-3.324-2.676-6-6-6h-72z" fill="url(#linearGradient26300)"/>
   </g>
  </g>
  <path id="rect5265-0" d="m5.4316 1029.8v5.0663c0 6.668 5.3645 12.032 12.032 12.032h61.049c6.668 0 12.032-5.3645 12.032-12.032v-5.0663c0 6.6681-5.3645 12.032-12.032 12.032h-61.049c-6.668 0-12.032-5.3643-12.032-12.032z" fill-opacity=".23529"/>
  <path id="path5252-0" d="m5.4316 1033.9v1.0133c0 6.668 5.3645 12.032 12.032 12.032h61.049c6.668 0 12.032-5.3645 12.032-12.032v-1.0133c0 6.6681-5.3645 12.032-12.032 12.032h-61.049c-6.668 0-12.032-5.3644-12.032-12.032z" fill-opacity=".098039"/>
 </g>
</svg>
