<?xml version="1.0" encoding="UTF-8" standalone="no"?>
<!-- Created with Inkscape (http://www.inkscape.org/) -->
<svg id="svg2" xmlns:rdf="http://www.w3.org/1999/02/22-rdf-syntax-ns#" xmlns="http://www.w3.org/2000/svg" height="96" width="96" version="1.1" xmlns:cc="http://creativecommons.org/ns#" xmlns:xlink="http://www.w3.org/1999/xlink" xmlns:dc="http://purl.org/dc/elements/1.1/">
 <defs id="defs4">
  <linearGradient id="linearGradient3700-0">
   <stop id="stop3702-2" stop-color="#70a83e" offset="0"/>
   <stop id="stop3704-9" stop-color="#9fd058" offset="1"/>
  </linearGradient>
  <linearGradient id="linearGradient4982" y2="5.9877" xlink:href="#linearGradient3700-0" gradientUnits="userSpaceOnUse" x2="48" gradientTransform="translate(101.91 941.34)" y1="90" x1="48"/>
  <linearGradient id="linearGradient48787" y2="5.9877" gradientUnits="userSpaceOnUse" x2="48" gradientTransform="matrix(1.1726 0 0 1.1726 -9.9888 -14.036)" y1="90" x1="48">
   <stop id="stop3189-75" stop-color="#a0a0a0" offset="0"/>
   <stop id="stop3191-89" stop-color="#dcdcdc" offset="1"/>
  </linearGradient>
  <linearGradient id="linearGradient3742-7">
   <stop id="stop3744-26" offset="0"/>
   <stop id="stop3746-4" stop-opacity="0" offset="1"/>
  </linearGradient>
  <linearGradient id="linearGradient81708" y2="23.962" xlink:href="#linearGradient3742-7" gradientUnits="userSpaceOnUse" x2="22" y1="76" x1="22"/>
  <linearGradient id="linearGradient81712" y2="76.444" gradientUnits="userSpaceOnUse" x2="36.182" gradientTransform="matrix(.84615 0 0 .84375 17.385 7.4999)" y1="19.556" x1="36.182">
   <stop id="stop3750-86" offset="0"/>
   <stop id="stop3752-8" stop-opacity=".58824" offset="1"/>
  </linearGradient>
  <linearGradient id="linearGradient81714" y2="-.23647" gradientUnits="userSpaceOnUse" x2="22" y1="76" x1="22">
   <stop id="stop3992" stop-color="#5d5d5d" offset="0"/>
   <stop id="stop3994" stop-color="#909090" offset="1"/>
  </linearGradient>
  <linearGradient id="linearGradient81716" y2="75.083" gradientUnits="userSpaceOnUse" x2="22" y1="21" x1="22">
   <stop id="stop3702-8" stop-color="#ebebeb" offset="0"/>
   <stop id="stop3704-8" stop-color="#c8c8c8" offset="1"/>
  </linearGradient>
  <linearGradient id="linearGradient81718" y2="71" gradientUnits="userSpaceOnUse" x2="21" y1="21" x1="21">
   <stop id="stop3739-257" stop-color="#fff" offset="0"/>
   <stop id="stop3741-48" stop-color="#fff" stop-opacity="0" offset="1"/>
  </linearGradient>
  <linearGradient id="linearGradient81720" y2="52" gradientUnits="userSpaceOnUse" x2="23" y1="42" x1="23">
   <stop id="stop3956" stop-color="#1a1a1a" offset="0"/>
   <stop id="stop3958" stop-color="#3a3a3a" offset="1"/>
  </linearGradient>
 </defs>
 <metadata id="metadata7">
  <rdf:RDF>
   <cc:Work rdf:about="">
    <dc:format>image/svg+xml</dc:format>
    <dc:type rdf:resource="http://purl.org/dc/dcmitype/StillImage"/>
    <dc:title/>
   </cc:Work>
  </rdf:RDF>
 </metadata>
 <g id="layer1" transform="translate(0 -956.36)">
  <rect id="rect5261-6" fill-opacity=".039216" ry="12.552" height="88.762" width="88.762" y="959.96" x="3.6078"/>
  <rect id="rect5259-9" fill-opacity=".078431" ry="12.38" height="87.546" width="87.546" y="960.57" x="4.2157"/>
  <rect id="rect5257-5" fill-opacity=".15686" ry="12.208" height="86.33" width="86.33" y="961.18" x="4.8237"/>
  <path id="rect2419" d="m17.469 5.4062c-6.668 0-12.032 5.3948-12.032 12.063l0.0005 61.031c0 5.418 3.5332 9.982 8.4375 11.5h68.187c4.715-1.457 8.172-5.734 8.438-10.875v-62.281c-0.321-6.377-5.54-11.438-12-11.438l-61.031 0.0002z" transform="translate(0 956.36)" fill="url(#linearGradient48787)"/>
  <rect id="rect3873" rx="6" ry="6" height="84" width="84" display="none" y="947.34" x="107.91" fill="url(#linearGradient4982)"/>
  <rect id="rect3880" rx="6" ry="6" height="84" width="84" display="none" y="947.34" x="107.91" fill="url(#linearGradient4982)"/>
  <path id="rect5265-0" d="m5.4316 1029.8v5.0663c0 6.668 5.3645 12.032 12.032 12.032h61.049c6.668 0 12.032-5.3645 12.032-12.032v-5.0663c0 6.6681-5.3645 12.032-12.032 12.032h-61.049c-6.668 0-12.032-5.3643-12.032-12.032z" fill-opacity=".23529"/>
  <path id="path5252-0" d="m5.4316 1033.9v1.0133c0 6.668 5.3645 12.032 12.032 12.032h61.049c6.668 0 12.032-5.3645 12.032-12.032v-1.0133c0 6.6681-5.3645 12.032-12.032 12.032h-61.049c-6.668 0-12.032-5.3644-12.032-12.032z" fill-opacity=".098039"/>
  <g id="layer4" transform="matrix(1.0606 0 0 1.0606 -2.8022 950.64)">
   <path id="path3986" opacity=".05" style="color:#000000" d="m19 15c-2.753 0-5 2.247-5 5v56c0 2.753 2.247 5 5 5h8c2.753 0 5-2.247 5-5v-56c0-2.753-2.247-5-5-5h-8z" fill="url(#linearGradient81708)"/>
   <path id="path3978" opacity=".1" style="color:#000000" d="m19 15.969c-2.2208 0-4.0312 1.8104-4.0312 4.0312v56c0 2.2208 1.8104 4.0312 4.0312 4.0312h8c2.2208 0 4.0312-1.8104 4.0312-4.0312v-56c0-2.2208-1.8104-4.0312-4.0312-4.0312h-8z" fill="url(#linearGradient81708)"/>
   <path id="path3456" opacity=".8" d="m55.217 74.505c-2.5958-0.86381-4.1052-1.7212-6.6542-3.7798-6.8416-5.5255-10.403-13.672-8.4643-19.363 0.80084-2.3511 1.7136-3.8409 3.3651-5.4923 2.8675-2.8674 7.3391-4.9824 12.928-6.1148 8.6782-1.7584 15.512 0.43434 16.047 5.1485 0.388 3.4227-2.2455 6.5381-9.8375 11.638-5.3893 3.6202-7.4886 5.5492-7.4886 6.8812 0 1.9146 2.3295 3.8344 4.6528 3.8344 1.466 0 2.219-0.78971 2.8673-3.0071 0.85835-2.9357 2.6126-3.9711 6.7935-4.0097 2.9287-0.02703 3.8383 0.64962 3.9727 2.9554 0.07873 1.3504-0.08691 2.0316-0.8868 3.6471-1.3112 2.6481-4.3846 5.6887-7.0874 7.0117-1.8443 0.90275-2.4137 1.0236-5.2725 1.119-2.4938 0.08323-3.5888-0.02072-4.9348-0.46868zm-16.794-32.279c-2.2117-1.9308-3.1633-5.7856-1.7701-7.1708 2.1235-2.1113 4.8174-0.55607 5.6736 3.2756 0.90239 4.0382-1.2637 6.1997-3.9035 3.8952zm7.4557-5.3806c-1.5849-1.6606-2.1129-2.975-2.1278-5.298-0.01266-1.9696-0.01507-2.5127 1.0218-3.5437 2.0576-2.0459 4.6423-0.52483 5.4388 3.7594 0.39173 2.1069-0.0504 4.0157-1.2134 5.2386-1.0736 1.1289-1.9338 1.0858-3.1194-0.15636zm21.3 0.006c-1.024-0.53504-2.1433-2.2213-2.409-3.6293-0.51526-2.7309 1.4519-7.6804 3.8191-9.609 3.864-3.1481 9.566-3.526 11.02-0.73028 1.183 2.2745-0.37625 6.3248-3.8384 9.9706-3.2049 3.3749-6.6849 4.9943-8.5918 3.998zm-11.563-2.182c-1.2246-0.58761-2.1084-2.9109-2.116-5.5626-0.01117-3.8724 1.5329-5.9378 4.4408-5.9404 1.7739-0.0015 2.806 1.1913 3.1077 3.5917 0.36857 2.9331-1.4845 7.296-3.3774 7.9521-1.1428 0.39611-1.1445 0.39608-2.055-0.04083z" fill="url(#linearGradient81712)"/>
   <path id="path3873" opacity=".5" d="m75.781 21c-2.2534-0.05401-5.014 0.85419-7.1875 2.625-2.2629 1.8437-4.1624 6.4311-3.875 9.2188 0.15545-2.7867 1.863-6.5795 3.875-8.2188 3.864-3.1481 9.546-3.5457 11-0.75 0.19128 0.36777 0.32356 0.7986 0.375 1.25 0.07425-0.85385-0.04806-1.6214-0.375-2.25-0.636-1.223-2.06-1.833-3.813-1.875zm-17.843 2.156c-2.9079 0.0026-4.4487 2.0651-4.4375 5.9375 0.000567 0.19694 0.02124 0.40101 0.03125 0.59375 0.10225-3.5939 1.6084-5.5287 4.4062-5.5312 1.7739-0.0015 2.8234 1.1933 3.125 3.5938 0.01148 0.09138-0.0072 0.18725 0 0.28125 0.02779-0.44467 0.05075-0.87739 0-1.2812-0.30165-2.4005-1.3511-3.5952-3.125-3.5938zm-11.156 3.9375c-0.67529-0.0328-1.357 0.26692-2 0.90625-0.98503 0.97939-1.0399 1.5723-1.0312 3.3125 0.04259-1.032 0.25359-1.5393 1.0312-2.3125 2.0576-2.0459 4.6409-0.53428 5.4375 3.75 0.06461 0.34751 0.074 0.69671 0.09375 1.0312 0.04937-0.6373 0.03615-1.3326-0.09375-2.0312-0.54763-2.9454-1.9519-4.5841-3.4375-4.6562zm-8.0312 7c-0.70151-0.01391-1.4302 0.30896-2.0938 0.96875-0.52244 0.51945-0.70483 1.3927-0.625 2.375 0.07839-0.55995 0.2889-1.0408 0.625-1.375 2.1235-2.1113 4.8-0.55038 5.6562 3.2812 0.09731 0.43548 0.1583 0.83017 0.1875 1.2188 0.05362-0.6529-0.000378-1.3814-0.1875-2.2188-0.58865-2.6342-2.0192-4.2194-3.5625-4.25zm23.75 5.0625c-1.8694-0.03196-3.9242 0.15416-6.0938 0.59375-5.5889 1.1324-10.07 3.2576-12.938 6.125-1.6515 1.6514-2.5742 3.1489-3.375 5.5-0.40384 1.1856-0.55349 2.4596-0.5 3.8125 0.04281-0.98974 0.19712-1.9233 0.5-2.8125 0.80084-2.3511 1.7235-3.8486 3.375-5.5 2.8675-2.8674 7.3486-4.9926 12.938-6.125 8.6782-1.7584 15.497 0.44204 16.031 5.1562 0.02207-0.3326 0.03813-0.66364 0-1-0.40081-3.5357-4.3292-5.6541-9.9375-5.75zm6.937 21.094c-4.1809 0.03856-5.9542 1.0643-6.8125 4-0.64832 2.2174-1.409 3-2.875 3-2.0731 0-4.139-1.5293-4.5625-3.2188-0.03909 0.1386-0.0625 0.27942-0.0625 0.40625 0 1.9146 2.3017 3.8125 4.625 3.8125 1.466 0 2.2267-0.78264 2.875-3 0.85835-2.9357 2.6316-3.9614 6.8125-4 2.8854-0.02663 3.8134 0.61937 3.9688 2.8438 0.01696-0.279 0.01968-0.56866 0-0.90625-0.135-2.305-1.041-2.964-3.969-2.937z"/>
   <path id="path3882" opacity=".5" d="m79.969 25.125c-0.1944 2.2357-1.6822 5.0806-4.1875 7.7188-3.2049 3.3749-6.6868 4.9963-8.5938 4-1.024-0.53504-2.1406-2.217-2.4062-3.625-0.02269-0.12028-0.04926-0.24656-0.0625-0.375-0.02745 0.49202-0.01482 0.9652 0.0625 1.375 0.26567 1.408 1.3822 3.09 2.4062 3.625 1.9069 0.99625 5.3888-0.62506 8.5938-4 2.9023-3.0563 4.4542-6.3784 4.1875-8.7188zm-18.907 2.906c-0.17407 2.7848-1.7739 6.1217-3.4062 6.6875-1.1428 0.39611-1.1208 0.37441-2.0312-0.0625-1.1337-0.54397-1.9689-2.5663-2.0938-4.9688-0.004 0.14136-0.03167 0.2597-0.03125 0.40625 0.0076 2.6518 0.90039 4.9749 2.125 5.5625 0.9105 0.43691 0.88842 0.45861 2.0312 0.0625 1.834-0.63568 3.6313-4.7643 3.4062-7.6875zm-17.312 3.531c-0.0065 0.29512-0.0025 0.60607 0 1 0.01494 2.3229 0.54006 3.6207 2.125 5.2812 1.186 1.243 2.051 1.286 3.125 0.157 0.971-1.021 1.412-2.525 1.312-4.219-0.099 1.285-0.535 2.402-1.312 3.219-1.074 1.129-1.939 1.086-3.125-0.156-1.585-1.661-2.11-2.959-2.125-5.282zm-7.719 5.938c-0.21644 1.759 0.74745 4.2706 2.4062 5.7188 2.3551 2.056 4.3041 0.55853 4.0625-2.6562-0.20498 2.4957-1.9701 3.4829-4.0625 1.6562-1.365-1.192-2.256-3.094-2.406-4.719zm36.406 8.6875c-0.34793 2.959-3.2007 5.8814-9.8438 10.344-5.3893 3.6202-7.4688 5.5743-7.4688 6.9062 0 0.20619 0.01138 0.38984 0.0625 0.59375 0.37148-1.317 2.5301-3.2245 7.4062-6.5 7.3791-4.9568 10.055-8.0321 9.8438-11.344zm-32.844 9c-0.23119 5.3446 3.1961 11.869 8.9688 16.531 2.549 2.0586 4.0605 2.9174 6.6562 3.7812 1.346 0.44796 2.4437 0.55198 4.9375 0.46875 2.8589-0.09542 3.4369-0.22225 5.2812-1.125 2.7028-1.323 5.7513-4.3519 7.0625-7 0.79988-1.6155 0.98498-2.3059 0.90625-3.6562-0.06309 0.79557-0.32888 1.4901-0.90625 2.6562-1.3112 2.6481-4.3597 5.677-7.0625 7-1.8443 0.90275-2.4224 1.0296-5.2812 1.125-2.494 0.083-3.591-0.021-4.937-0.469-2.596-0.864-4.108-1.723-6.657-3.781-5.416-4.375-8.765-10.391-8.968-15.531z" fill="#fff"/>
   <path id="rect3935" style="color:#000000" d="m19 17h8c1.662 0 3 1.338 3 3v56c0 1.662-1.338 3-3 3h-8c-1.662 0-3-1.338-3-3v-56c0-1.662 1.338-3 3-3z" fill="url(#linearGradient81714)"/>
   <path id="path3939" style="color:#000000" d="m19 17.969c-1.1365 0-2.0312 0.8948-2.0312 2.0312v56c0 1.1365 0.8948 2.0312 2.0312 2.0312h8c1.1365 0 2.0312-0.8948 2.0312-2.0312v-56c0-1.1365-0.8948-2.0312-2.0312-2.0312h-8z" fill="url(#linearGradient81716)"/>
   <path id="path3949" opacity=".8" style="color:#000000" d="m19 17.969c-1.1365 0-2.0312 0.8948-2.0312 2.0312v56c0 1.1365 0.8948 2.0312 2.0312 2.0312h8c1.1365 0 2.0312-0.8948 2.0312-2.0312v-56c0-1.1365-0.8948-2.0312-2.0312-2.0312h-8zm0 1.0625h8c0.57573 0 0.96875 0.39302 0.96875 0.96875v56c0 0.57573-0.39302 0.96875-0.96875 0.96875h-8c-0.57573 0-0.96875-0.39302-0.96875-0.96875v-56c0-0.57573 0.39302-0.96875 0.96875-0.96875z" fill="url(#linearGradient81718)"/>
   <path id="path4000" opacity=".8" d="m19 47 7 5v-10l-7 5z" fill="url(#linearGradient81720)"/>
   <path id="path4010" opacity=".5" d="m26 42-7 5 0.6875 0.5l6.312-4.5v-1z"/>
   <path id="path4019" opacity=".5" d="m19.688 47.5-0.688 0.5l7 5v-1l-6.3125-4.5z" fill="#fff"/>
  </g>
 </g>
</svg>
