<?xml version="1.0" encoding="UTF-8" standalone="no"?>
<!-- Created with Inkscape (http://www.inkscape.org/) -->
<svg id="svg2" xmlns:rdf="http://www.w3.org/1999/02/22-rdf-syntax-ns#" xmlns="http://www.w3.org/2000/svg" height="96" width="96" version="1.1" xmlns:cc="http://creativecommons.org/ns#" xmlns:xlink="http://www.w3.org/1999/xlink" xmlns:dc="http://purl.org/dc/elements/1.1/">
 <defs id="defs4">
  <linearGradient id="linearGradient3700-0">
   <stop id="stop3702-2" stop-color="#70a83e" offset="0"/>
   <stop id="stop3704-9" stop-color="#9fd058" offset="1"/>
  </linearGradient>
  <linearGradient id="linearGradient4982" y2="5.9877" xlink:href="#linearGradient3700-0" gradientUnits="userSpaceOnUse" x2="48" gradientTransform="translate(101.91 941.34)" y1="90" x1="48"/>
  <clipPath id="clipPath3613-967">
   <rect id="rect3615-23" rx="6" ry="6" height="84" width="84" y="6" x="6" fill="#fff"/>
  </clipPath>
  <filter id="filter3794-4" height="1.384" width="1.384" color-interpolation-filters="sRGB" y="-.192" x="-.192">
   <feGaussianBlur id="feGaussianBlur3796-71" stdDeviation="5.28"/>
  </filter>
  <linearGradient id="linearGradient6674" y2="138.66" gradientUnits="userSpaceOnUse" x2="48" y1="20.221" x1="48">
   <stop id="stop3739-32" stop-color="#fff" offset="0"/>
   <stop id="stop3741-631" stop-color="#fff" stop-opacity="0" offset="1"/>
  </linearGradient>
  <linearGradient id="linearGradient4035">
   <stop id="stop4037" stop-color="#8cd73e" offset="0"/>
   <stop id="stop4039" stop-color="#5db22b" offset=".71875"/>
   <stop id="stop4041" stop-color="#379b26" offset="1"/>
  </linearGradient>
  <linearGradient id="linearGradient3895-8">
   <stop id="stop3897-0" stop-color="#fff" offset="0"/>
   <stop id="stop3899-7" stop-color="#fff" stop-opacity="0" offset="1"/>
  </linearGradient>
  <linearGradient id="linearGradient3957-7">
   <stop id="stop3959" stop-color="#f14848" offset="0"/>
   <stop id="stop3965" stop-color="#e42323" offset=".67188"/>
   <stop id="stop3963" stop-color="#c21313" offset="1"/>
  </linearGradient>
  <radialGradient id="radialGradient22889" xlink:href="#linearGradient3957-7" gradientUnits="userSpaceOnUse" cy="40" cx="32" gradientTransform="matrix(1.1875,0,0,1.125,-6,-5)" r="16"/>
  <linearGradient id="linearGradient22891" y2="78" xlink:href="#linearGradient3895-8" gradientUnits="userSpaceOnUse" x2="77" y1="71" x1="70"/>
  <radialGradient id="radialGradient22917" xlink:href="#linearGradient4035" gradientUnits="userSpaceOnUse" cy="40" cx="32" gradientTransform="matrix(1.1875,0,0,1.125,-6,-5)" r="16"/>
 </defs>
 <metadata id="metadata7">
  <rdf:RDF>
   <cc:Work rdf:about="">
    <dc:format>image/svg+xml</dc:format>
    <dc:type rdf:resource="http://purl.org/dc/dcmitype/StillImage"/>
    <dc:title/>
   </cc:Work>
  </rdf:RDF>
 </metadata>
 <g id="layer1" transform="translate(0 -956.36)">
  <rect id="rect5261-6" fill-opacity=".039216" ry="12.552" height="88.762" width="88.762" y="959.96" x="3.6078"/>
  <rect id="rect5259-9" fill-opacity=".078431" ry="12.38" height="87.546" width="87.546" y="960.57" x="4.2157"/>
  <rect id="rect5257-5" fill-opacity=".15686" ry="12.208" height="86.33" width="86.33" y="961.18" x="4.8237"/>
  <path id="rect2419-7" d="m17.469 5.4062c-6.668 0-12.032 5.3948-12.032 12.063l0.0005 61.031c0 5.418 3.5332 9.982 8.4375 11.5h68.187c4.715-1.457 8.172-5.734 8.438-10.875v-62.281c-0.321-6.377-5.54-11.438-12-11.438l-61.031 0.0002z" transform="translate(0 956.36)" fill="#dedbe3"/>
  <path id="rect5265-0" d="m5.4316 1029.8v5.0663c0 6.668 5.3645 12.032 12.032 12.032h61.049c6.668 0 12.032-5.3645 12.032-12.032v-5.0663c0 6.6681-5.3645 12.032-12.032 12.032h-61.049c-6.668 0-12.032-5.3643-12.032-12.032z" fill-opacity=".23529"/>
  <path id="path5252-0" d="m5.4316 1033.9v1.0133c0 6.668 5.3645 12.032 12.032 12.032h61.049c6.668 0 12.032-5.3645 12.032-12.032v-1.0133c0 6.6681-5.3645 12.032-12.032 12.032h-61.049c-6.668 0-12.032-5.3644-12.032-12.032z" fill-opacity=".098039"/>
  <rect id="rect3873" rx="6" ry="6" height="84" width="84" display="none" y="947.34" x="107.91" fill="url(#linearGradient4982)"/>
  <rect id="rect3880" rx="6" ry="6" height="84" width="84" display="none" y="947.34" x="107.91" fill="url(#linearGradient4982)"/>
  <g id="layer5" transform="translate(0 954.36)">
   <rect id="rect3171" height="66" stroke="#fff" stroke-linecap="round" stroke-width=".5" fill="url(#linearGradient6674)" rx="12" ry="12" width="66" opacity=".1" clip-path="url(#clipPath3613-967)" filter="url(#filter3794-4)" y="15" x="15"/>
  </g>
  <g id="g22839" transform="matrix(1 0 0 .92769 9 75.013)">
   <path id="path4089" opacity=".05" style="color:#000000" d="m65.5 961.33c-6.0501 0-11.031 4.9812-11.031 11.031 0 3.8258 2.0792 7.0718 5.0625 9.0313-1.196 0.7995-2.2004 1.804-3 3-1.9594-2.9833-5.2054-5.0626-9.0312-5.0626-6.0501 0-11.031 4.9812-11.031 11.031 0 3.8258 2.0792 7.0718 5.0625 9.0313-1.196 0.7995-2.2004 1.804-3 3-1.9594-2.9833-5.2054-5.0625-9.0312-5.0625-3.8011 0-7.0355 2.0485-9 5-1.9645-2.9515-5.1989-5-9-5-6.0501 0-11.031 4.9811-11.031 11.031 0 3.8011 2.0485 7.0355 5 9-2.9515 1.9644-5 5.1988-5 9 0 6.05 4.9812 11.031 11.031 11.031 3.8011 0 7.0355-2.0485 9-5 1.9645 2.9515 5.1989 5 9 5s7.0355-2.0485 9-5c1.9645 2.9515 5.1989 5 9 5s7.0355-2.0485 9-5c1.9645 2.9515 5.1989 5 9 5 6.0501 0 11.031-4.9812 11.031-11.031 0-3.8012-2.0485-7.0356-5-9 2.9515-1.9645 5-5.1989 5-9 0-3.8012-2.0485-7.0356-5-9.0001 2.9515-1.9645 5-5.1989 5-9s-2.0485-7.0355-5-9c2.9515-1.9645 5-5.1989 5-9 0-6.0501-4.9812-11.031-11.031-11.031zm-9 34.938c0.81776 1.24 1.8537 2.2759 3.0938 3.0937-1.2401 0.8178-2.276 1.8537-3.0938 3.0938-0.81776-1.2401-1.8537-2.276-3.0938-3.0938 1.2401-0.8178 2.276-1.8537 3.0938-3.0937zm-36 18c0.81776 1.2401 1.8537 2.2759 3.0938 3.0938-1.2401 0.8177-2.276 1.8536-3.0938 3.0937-0.81776-1.2401-1.8537-2.276-3.0938-3.0937 1.2401-0.8179 2.276-1.8537 3.0938-3.0938zm18 0c0.81776 1.2401 1.8537 2.2759 3.0938 3.0938-1.2401 0.8177-2.276 1.8536-3.0938 3.0937-0.81776-1.2401-1.8537-2.276-3.0938-3.0937 1.2401-0.8179 2.276-1.8537 3.0938-3.0938zm18 0c0.81776 1.2401 1.8537 2.2759 3.0938 3.0938-1.2404 0.8175-2.2764 1.8532-3.0938 3.0937-0.81776-1.2401-1.8537-2.276-3.0938-3.0937 1.2401-0.8179 2.276-1.8537 3.0938-3.0938z"/>
   <path id="path4085" opacity=".1" style="color:#000000" d="m65.5 962.39c-5.4762 0-9.9688 4.4926-9.9688 9.9688 0 4.0105 2.4376 7.4262 5.875 9-2.1811 0.9986-3.9076 2.7252-4.9062 4.9063-1.5738-3.4375-4.9895-5.875-9-5.875-5.4762 0-9.9688 4.4926-9.9688 9.9688 0 4.0105 2.4376 7.4262 5.875 9-2.1811 0.9986-3.9076 2.7252-4.9062 4.9063-1.5738-3.4375-4.9895-5.875-9-5.875s-7.4262 2.4375-9 5.875c-1.5738-3.4375-4.9895-5.875-9-5.875-5.4762 0-9.9688 4.4925-9.9688 9.9688 0 4.0104 2.4376 7.4262 5.875 9-3.4374 1.5737-5.875 4.9895-5.875 9 0 5.4762 4.4926 9.9687 9.9688 9.9687 4.0105 0 7.4262-2.4376 9-5.875 1.5738 3.4374 4.9895 5.875 9 5.875s7.4262-2.4376 9-5.875c1.5738 3.4374 4.9895 5.875 9 5.875s7.4262-2.4376 9-5.875c1.5738 3.4374 4.9895 5.875 9 5.875 5.4762 0 9.9688-4.4925 9.9688-9.9687 0-4.0105-2.4376-7.4263-5.875-9 3.4374-1.5738 5.875-4.9896 5.875-9 0-4.0106-2.4376-7.4263-5.875-9.0001 3.4374-1.5738 5.875-4.9895 5.875-9s-2.4376-7.4262-5.875-9c3.4374-1.5738 5.875-4.9895 5.875-9 0-5.4762-4.4926-9.9688-9.9688-9.9688zm-9 32.063c0.9986 2.1811 2.7252 3.9076 4.9062 4.9062-2.1811 0.9986-3.9076 2.7252-4.9062 4.9063-0.9986-2.1811-2.7252-3.9077-4.9062-4.9063 2.1811-0.9986 3.9076-2.7251 4.9062-4.9062zm-36 18c0.9986 2.1811 2.7251 3.9077 4.9062 4.9063-2.1811 0.9985-3.9077 2.7251-4.9062 4.9062-0.9986-2.1811-2.7251-3.9077-4.9062-4.9062 2.1811-0.9986 3.9077-2.7252 4.9062-4.9063zm18 0c0.9986 2.1811 2.7252 3.9077 4.9062 4.9063-2.1811 0.9985-3.9076 2.7251-4.9062 4.9062-0.9986-2.1811-2.7252-3.9077-4.9062-4.9062 2.1811-0.9986 3.9076-2.7252 4.9062-4.9063zm18 0c0.9986 2.1811 2.7252 3.9077 4.9062 4.9063-2.1843 1.0013-3.9085 2.7215-4.9062 4.9062-0.9986-2.1811-2.7252-3.9077-4.9062-4.9062 2.1811-0.9986 3.9076-2.7252 4.9062-4.9063z"/>
   <path id="path4081-6" opacity=".15" style="color:#000000" d="m65.5 963.36c-4.9554 0-9 4.0446-9 9s4.0446 9 9 9 9-4.0446 9-9-4.0446-9-9-9zm0 18c-4.9554 0-9 4.0446-9 9s4.0446 9 9 9 9-4.0446 9-9-4.0446-9-9-9zm0 18c-4.9554 0-9 4.0446-9 9.0001 0 4.9554 4.0446 9 9 9s9-4.0446 9-9c0-4.9555-4.0446-9.0001-9-9.0001zm0 18c-0.2855 0-0.5808 0-0.90625 0.031-4.5349 0.4605-8.0938 4.3222-8.0938 8.9688 0 4.9554 4.0446 9 9 9s9-4.0446 9-9c0-4.9555-4.0446-9-9-9zm-9 9c0-4.9555-4.0446-9-9-9s-9 4.0445-9 9c0 4.9554 4.0446 9 9 9s9-4.0446 9-9zm-18 0c0-4.9555-4.0446-9-9-9s-9 4.0445-9 9c0 4.9554 4.0446 9 9 9s9-4.0446 9-9zm-18 0c0-4.9555-4.0446-9-9-9s-9 4.0445-9 9c0 4.9554 4.0446 9 9 9s9-4.0446 9-9zm-9-9c4.9554 0 9-4.0446 9-9 0-4.9555-4.0446-9.0001-9-9.0001s-9 4.0446-9 9.0001c0 4.9554 4.0446 9 9 9zm9-9c0 4.9554 4.0446 9 9 9s9-4.0446 9-9c0-4.9555-4.0446-9.0001-9-9.0001s-9 4.0446-9 9.0001zm18 0c0 4.9554 4.0446 9 9 9s9-4.0446 9-9c0-4.9555-4.0446-9.0001-9-9.0001s-9 4.0446-9 9.0001zm9-9.0001c4.9554 0 9-4.0446 9-9s-4.0446-9-9-9-9 4.0446-9 9 4.0446 9 9 9z"/>
   <path id="path3908" opacity=".3" style="color:#000000" d="m65.5 964.36c-4.4183 0-8 3.5817-8 8s3.5817 8 8 8 8-3.5817 8-8-3.5817-8-8-8zm-18 18c-4.4183 0-8 3.5817-8 8s3.5817 8 8 8 8-3.5817 8-8-3.5817-8-8-8zm18 0c-4.4183 0-8 3.5817-8 8s3.5817 8 8 8 8-3.5817 8-8-3.5817-8-8-8zm-54 18c-4.4183 0-8 3.5817-8 8.0001 0 4.4182 3.5817 8 8 8s8-3.5818 8-8c0-4.4184-3.5817-8.0001-8-8.0001zm18 0c-4.4183 0-8 3.5817-8 8.0001 0 4.4182 3.5817 8 8 8s8-3.5818 8-8c0-4.4184-3.5817-8.0001-8-8.0001zm18 0c-4.4183 0-8 3.5817-8 8.0001 0 4.4182 3.5817 8 8 8s8-3.5818 8-8c0-4.4184-3.5817-8.0001-8-8.0001zm18 0c-4.4183 0-8 3.5817-8 8.0001 0 4.4182 3.5817 8 8 8s8-3.5818 8-8c0-4.4184-3.5817-8.0001-8-8.0001zm-54 18c-4.4183 0-8 3.5816-8 8 0 4.4182 3.5817 8 8 8s8-3.5818 8-8c0-4.4183-3.5817-8-8-8zm18 0c-4.4183 0-8 3.5816-8 8 0 4.4182 3.5817 8 8 8s8-3.5818 8-8c0-4.4183-3.5817-8-8-8zm18 0c-4.4183 0-8 3.5816-8 8 0 4.4182 3.5817 8 8 8s8-3.5818 8-8c0-4.4183-3.5817-8-8-8zm18 0c-0.27614 0-0.54356 0-0.8125 0.031-4.034 0.4097-7.1875 3.8266-7.1875 7.9688 0 4.4182 3.5817 8 8 8s8-3.5818 8-8c0-4.4183-3.5817-8-8-8z"/>
   <g id="g3941" transform="translate(-9.5 949.36)">
    <path id="path2973" style="color:#000000" d="m48 32a16 16 0 1 1 -32 0 16 16 0 1 1 32 0z" transform="matrix(.5 0 0 .5 59 60)" fill="url(#radialGradient22889)"/>
    <path id="path3875" opacity=".2" style="color:#000000" d="m75 68c-4.4183 0-8 3.5817-8 8s3.5817 8 8 8 8-3.5817 8-8-3.5817-8-8-8zm0 1c3.866 0 7 3.134 7 7s-3.134 7-7 7-7-3.134-7-7 3.134-7 7-7z"/>
    <path id="path3888" opacity=".3" style="color:#000000" d="m75 69c-3.866 0-7 3.134-7 7s3.134 7 7 7c0.08388 0 0.16683 0.0029 0.25 0-3.472-0.134-6.25-2.995-6.25-6.5 0-3.59 2.91-6.5 6.5-6.5 3.5046 0 6.3662 2.7782 6.5 6.25 0.0029-0.08317 0-0.16612 0-0.25 0-3.866-3.134-7-7-7z" fill="url(#linearGradient22891)"/>
   </g>
   <g id="g3950" transform="translate(-27.5 949.36)">
    <path id="path3952" style="color:#000000" d="m48 32a16 16 0 1 1 -32 0 16 16 0 1 1 32 0z" transform="matrix(.5 0 0 .5 59 60)" fill="url(#radialGradient22889)"/>
    <path id="path3954" opacity=".2" style="color:#000000" d="m75 68c-4.4183 0-8 3.5817-8 8s3.5817 8 8 8 8-3.5817 8-8-3.5817-8-8-8zm0 1c3.866 0 7 3.134 7 7s-3.134 7-7 7-7-3.134-7-7 3.134-7 7-7z"/>
    <path id="path3956" opacity=".3" style="color:#000000" d="m75 69c-3.866 0-7 3.134-7 7s3.134 7 7 7c0.08388 0 0.16683 0.0029 0.25 0-3.472-0.134-6.25-2.995-6.25-6.5 0-3.59 2.91-6.5 6.5-6.5 3.5046 0 6.3662 2.7782 6.5 6.25 0.0029-0.08317 0-0.16612 0-0.25 0-3.866-3.134-7-7-7z" fill="url(#linearGradient22891)"/>
   </g>
   <g id="g3962" transform="translate(-45.5 949.36)">
    <path id="path3964" style="color:#000000" d="m48 32a16 16 0 1 1 -32 0 16 16 0 1 1 32 0z" transform="matrix(.5 0 0 .5 59 60)" fill="url(#radialGradient22889)"/>
    <path id="path3966" opacity=".2" style="color:#000000" d="m75 68c-4.4183 0-8 3.5817-8 8s3.5817 8 8 8 8-3.5817 8-8-3.5817-8-8-8zm0 1c3.866 0 7 3.134 7 7s-3.134 7-7 7-7-3.134-7-7 3.134-7 7-7z"/>
    <path id="path3968" opacity=".3" style="color:#000000" d="m75 69c-3.866 0-7 3.134-7 7s3.134 7 7 7c0.08388 0 0.16683 0.0029 0.25 0-3.472-0.134-6.25-2.995-6.25-6.5 0-3.59 2.91-6.5 6.5-6.5 3.5046 0 6.3662 2.7782 6.5 6.25 0.0029-0.08317 0-0.16612 0-0.25 0-3.866-3.134-7-7-7z" fill="url(#linearGradient22891)"/>
   </g>
   <g id="g3974" transform="translate(-63.5 949.36)">
    <path id="path3976" style="color:#000000" d="m48 32a16 16 0 1 1 -32 0 16 16 0 1 1 32 0z" transform="matrix(.5 0 0 .5 59 60)" fill="url(#radialGradient22889)"/>
    <path id="path3979" opacity=".2" style="color:#000000" d="m75 68c-4.4183 0-8 3.5817-8 8s3.5817 8 8 8 8-3.5817 8-8-3.5817-8-8-8zm0 1c3.866 0 7 3.134 7 7s-3.134 7-7 7-7-3.134-7-7 3.134-7 7-7z"/>
    <path id="path3981" opacity=".3" style="color:#000000" d="m75 69c-3.866 0-7 3.134-7 7s3.134 7 7 7c0.08388 0 0.16683 0.0029 0.25 0-3.472-0.134-6.25-2.995-6.25-6.5 0-3.59 2.91-6.5 6.5-6.5 3.5046 0 6.3662 2.7782 6.5 6.25 0.0029-0.08317 0-0.16612 0-0.25 0-3.866-3.134-7-7-7z" fill="url(#linearGradient22891)"/>
   </g>
   <g id="g3987" transform="translate(-45.5 931.36)">
    <path id="path3989" style="color:#000000" d="m48 32a16 16 0 1 1 -32 0 16 16 0 1 1 32 0z" transform="matrix(.5 0 0 .5 59 60)" fill="url(#radialGradient22889)"/>
    <path id="path3991" opacity=".2" style="color:#000000" d="m75 68c-4.4183 0-8 3.5817-8 8s3.5817 8 8 8 8-3.5817 8-8-3.5817-8-8-8zm0 1c3.866 0 7 3.134 7 7s-3.134 7-7 7-7-3.134-7-7 3.134-7 7-7z"/>
    <path id="path3993" opacity=".3" style="color:#000000" d="m75 69c-3.866 0-7 3.134-7 7s3.134 7 7 7c0.08388 0 0.16683 0.0029 0.25 0-3.472-0.134-6.25-2.995-6.25-6.5 0-3.59 2.91-6.5 6.5-6.5 3.5046 0 6.3662 2.7782 6.5 6.25 0.0029-0.08317 0-0.16612 0-0.25 0-3.866-3.134-7-7-7z" fill="url(#linearGradient22891)"/>
   </g>
   <g id="g3999" transform="translate(-27.5 913.36)">
    <path id="path4001" style="color:#000000" d="m48 32a16 16 0 1 1 -32 0 16 16 0 1 1 32 0z" transform="matrix(.5 0 0 .5 59 60)" fill="url(#radialGradient22889)"/>
    <path id="path4003" opacity=".2" style="color:#000000" d="m75 68c-4.4183 0-8 3.5817-8 8s3.5817 8 8 8 8-3.5817 8-8-3.5817-8-8-8zm0 1c3.866 0 7 3.134 7 7s-3.134 7-7 7-7-3.134-7-7 3.134-7 7-7z"/>
    <path id="path4005" opacity=".3" style="color:#000000" d="m75 69c-3.866 0-7 3.134-7 7s3.134 7 7 7c0.08388 0 0.16683 0.0029 0.25 0-3.472-0.134-6.25-2.995-6.25-6.5 0-3.59 2.91-6.5 6.5-6.5 3.5046 0 6.3662 2.7782 6.5 6.25 0.0029-0.08317 0-0.16612 0-0.25 0-3.866-3.134-7-7-7z" fill="url(#linearGradient22891)"/>
   </g>
   <g id="g4011" transform="translate(-9.5 895.36)">
    <path id="path4013" style="color:#000000" d="m48 32a16 16 0 1 1 -32 0 16 16 0 1 1 32 0z" transform="matrix(.5 0 0 .5 59 60)" fill="url(#radialGradient22889)"/>
    <path id="path4015" opacity=".2" style="color:#000000" d="m75 68c-4.4183 0-8 3.5817-8 8s3.5817 8 8 8 8-3.5817 8-8-3.5817-8-8-8zm0 1c3.866 0 7 3.134 7 7s-3.134 7-7 7-7-3.134-7-7 3.134-7 7-7z"/>
    <path id="path4017" opacity=".3" style="color:#000000" d="m75 69c-3.866 0-7 3.134-7 7s3.134 7 7 7c0.08388 0 0.16683 0.0029 0.25 0-3.472-0.134-6.25-2.995-6.25-6.5 0-3.59 2.91-6.5 6.5-6.5 3.5046 0 6.3662 2.7782 6.5 6.25 0.0029-0.08317 0-0.16612 0-0.25 0-3.866-3.134-7-7-7z" fill="url(#linearGradient22891)"/>
   </g>
   <g id="g4023" transform="translate(-63.5 931.36)">
    <path id="path4025" style="color:#000000" d="m48 32a16 16 0 1 1 -32 0 16 16 0 1 1 32 0z" transform="matrix(.5 0 0 .5 59 60)" fill="url(#radialGradient22917)"/>
    <path id="path4027" opacity=".2" style="color:#000000" d="m75 68c-4.4183 0-8 3.5817-8 8s3.5817 8 8 8 8-3.5817 8-8-3.5817-8-8-8zm0 1c3.866 0 7 3.134 7 7s-3.134 7-7 7-7-3.134-7-7 3.134-7 7-7z"/>
    <path id="path4029" opacity=".3" style="color:#000000" d="m75 69c-3.866 0-7 3.134-7 7s3.134 7 7 7c0.08388 0 0.16683 0.0029 0.25 0-3.472-0.134-6.25-2.995-6.25-6.5 0-3.59 2.91-6.5 6.5-6.5 3.5046 0 6.3662 2.7782 6.5 6.25 0.0029-0.08317 0-0.16612 0-0.25 0-3.866-3.134-7-7-7z" fill="url(#linearGradient22891)"/>
   </g>
   <g id="g4043" transform="translate(-27.5 931.36)">
    <path id="path4045" style="color:#000000" d="m48 32a16 16 0 1 1 -32 0 16 16 0 1 1 32 0z" transform="matrix(.5 0 0 .5 59 60)" fill="url(#radialGradient22917)"/>
    <path id="path4047" opacity=".2" style="color:#000000" d="m75 68c-4.4183 0-8 3.5817-8 8s3.5817 8 8 8 8-3.5817 8-8-3.5817-8-8-8zm0 1c3.866 0 7 3.134 7 7s-3.134 7-7 7-7-3.134-7-7 3.134-7 7-7z"/>
    <path id="path4049" opacity=".3" style="color:#000000" d="m75 69c-3.866 0-7 3.134-7 7s3.134 7 7 7c0.08388 0 0.16683 0.0029 0.25 0-3.472-0.134-6.25-2.995-6.25-6.5 0-3.59 2.91-6.5 6.5-6.5 3.5046 0 6.3662 2.7782 6.5 6.25 0.0029-0.08317 0-0.16612 0-0.25 0-3.866-3.134-7-7-7z" fill="url(#linearGradient22891)"/>
   </g>
   <g id="g4055" transform="translate(-9.5 931.36)">
    <path id="path4057" style="color:#000000" d="m48 32a16 16 0 1 1 -32 0 16 16 0 1 1 32 0z" transform="matrix(.5 0 0 .5 59 60)" fill="url(#radialGradient22917)"/>
    <path id="path4059" opacity=".2" style="color:#000000" d="m75 68c-4.4183 0-8 3.5817-8 8s3.5817 8 8 8 8-3.5817 8-8-3.5817-8-8-8zm0 1c3.866 0 7 3.134 7 7s-3.134 7-7 7-7-3.134-7-7 3.134-7 7-7z"/>
    <path id="path4061" opacity=".3" style="color:#000000" d="m75 69c-3.866 0-7 3.134-7 7s3.134 7 7 7c0.08388 0 0.16683 0.0029 0.25 0-3.472-0.134-6.25-2.995-6.25-6.5 0-3.59 2.91-6.5 6.5-6.5 3.5046 0 6.3662 2.7782 6.5 6.25 0.0029-0.08317 0-0.16612 0-0.25 0-3.866-3.134-7-7-7z" fill="url(#linearGradient22891)"/>
   </g>
   <g id="g4067" transform="translate(-9.5 913.36)">
    <path id="path4069" style="color:#000000" d="m48 32a16 16 0 1 1 -32 0 16 16 0 1 1 32 0z" transform="matrix(.5 0 0 .5 59 60)" fill="url(#radialGradient22917)"/>
    <path id="path4071" opacity=".2" style="color:#000000" d="m75 68c-4.4183 0-8 3.5817-8 8s3.5817 8 8 8 8-3.5817 8-8-3.5817-8-8-8zm0 1c3.866 0 7 3.134 7 7s-3.134 7-7 7-7-3.134-7-7 3.134-7 7-7z"/>
    <path id="path4073" opacity=".3" style="color:#000000" d="m75 69c-3.866 0-7 3.134-7 7s3.134 7 7 7c0.08388 0 0.16683 0.0029 0.25 0-3.472-0.134-6.25-2.995-6.25-6.5 0-3.59 2.91-6.5 6.5-6.5 3.5046 0 6.3662 2.7782 6.5 6.25 0.0029-0.08317 0-0.16612 0-0.25 0-3.866-3.134-7-7-7z" fill="url(#linearGradient22891)"/>
   </g>
  </g>
 </g>
</svg>
