<?xml version="1.0" encoding="UTF-8" standalone="no"?>
<!-- Created with Inkscape (http://www.inkscape.org/) -->
<svg id="svg2" xmlns:rdf="http://www.w3.org/1999/02/22-rdf-syntax-ns#" xmlns="http://www.w3.org/2000/svg" height="96" width="96" version="1.1" xmlns:cc="http://creativecommons.org/ns#" xmlns:xlink="http://www.w3.org/1999/xlink" xmlns:dc="http://purl.org/dc/elements/1.1/">
 <defs id="defs4">
  <linearGradient id="linearGradient3700-0">
   <stop id="stop3702-2" stop-color="#70a83e" offset="0"/>
   <stop id="stop3704-9" stop-color="#9fd058" offset="1"/>
  </linearGradient>
  <linearGradient id="linearGradient4982" y2="5.9877" xlink:href="#linearGradient3700-0" gradientUnits="userSpaceOnUse" x2="48" gradientTransform="translate(101.91 941.34)" y1="90" x1="48"/>
  <linearGradient id="linearGradient3737-174">
   <stop id="stop3739-86" stop-color="#fff" offset="0"/>
   <stop id="stop3741-56" stop-color="#fff" stop-opacity="0" offset="1"/>
  </linearGradient>
  <clipPath id="clipPath3613-740">
   <rect id="rect3615-30" rx="6" ry="6" height="84" width="84" y="6" x="6" fill="#fff"/>
  </clipPath>
  <filter id="filter3794-004" height="1.384" width="1.384" color-interpolation-filters="sRGB" y="-.192" x="-.192">
   <feGaussianBlur id="feGaussianBlur3796-53" stdDeviation="5.28"/>
  </filter>
  <linearGradient id="linearGradient7046" y2="63.893" xlink:href="#linearGradient3737-174" gradientUnits="userSpaceOnUse" x2="36.357" gradientTransform="matrix(1.0179 0 0 1.0179 94.384 956.98)" y1="6" x1="36.357"/>
  <linearGradient id="linearGradient7067" y2="138.66" xlink:href="#linearGradient3737-174" gradientUnits="userSpaceOnUse" x2="48" y1="20.221" x1="48"/>
  <linearGradient id="linearGradient7843" y2="967.6" gradientUnits="userSpaceOnUse" x2="47.995" y1="1040.1" x1="47.995">
   <stop id="stop7839" stop-color="#d40000" offset="0"/>
   <stop id="stop7841" stop-color="#e83e00" offset="1"/>
  </linearGradient>
 </defs>
 <metadata id="metadata7">
  <rdf:RDF>
   <cc:Work rdf:about="">
    <dc:format>image/svg+xml</dc:format>
    <dc:type rdf:resource="http://purl.org/dc/dcmitype/StillImage"/>
    <dc:title/>
   </cc:Work>
  </rdf:RDF>
 </metadata>
 <g id="layer1" transform="translate(0 -956.36)">
  <rect id="rect5261-6" fill-opacity=".039216" ry="12.552" height="88.762" width="88.762" y="959.96" x="3.6078"/>
  <rect id="rect5259-9" fill-opacity=".078431" ry="12.38" height="87.546" width="87.546" y="960.57" x="4.2157"/>
  <rect id="rect5257-5" fill-opacity=".15686" ry="12.208" height="86.33" width="86.33" y="961.18" x="4.8237"/>
  <path id="rect3728" opacity=".15" d="m106.6 963.09c-3.3834 0-6.1071 2.7238-6.1071 6.1071v2.0357 69.214 2.0357c0 0.3407 0.0421 0.6623 0.0954 0.9861 0.0496 0.3008 0.0987 0.6076 0.19085 0.8906 0.0102 0.031 0.0213 0.065 0.0319 0.096 0.10067 0.293 0.23907 0.5573 0.3817 0.827 0.14717 0.2784 0.32125 0.5452 0.50893 0.7953 0.18767 0.25 0.38045 0.4818 0.60435 0.6998 0.4478 0.4356 0.95974 0.829 1.5268 1.1132 0.28352 0.1421 0.58371 0.2513 0.89063 0.3499-0.26078-0.1021-0.4954-0.2405-0.73159-0.3817h-0.0319c-0.0325-0.019-0.0634-0.044-0.0954-0.064-0.12255-0.078-0.23515-0.1665-0.34989-0.2545-0.10806-0.082-0.21709-0.164-0.31808-0.2544-0.18111-0.1644-0.35366-0.3516-0.50893-0.5408-0.1095-0.1326-0.22229-0.27-0.31808-0.4135-0.0255-0.039-0.0391-0.088-0.0636-0.1272-0.066-0.1049-0.13256-0.2082-0.19085-0.3181-0.10281-0.1983-0.20934-0.4232-0.28627-0.6361-0.008-0.022-0.024-0.042-0.0319-0.064-0.0324-0.094-0.0364-0.1902-0.0636-0.2863-0.0308-0.1085-0.0717-0.2066-0.0954-0.3181-0.0742-0.3476-0.12723-0.7106-0.12723-1.0814v-2.0357-69.214-2.0357c0-2.8315 2.2578-5.0893 5.0893-5.0893h2.0357 69.214 2.0357c2.8315 0 5.0893 2.2578 5.0893 5.0893v2.0357 69.214 2.0357c0 0.3708-0.053 0.7338-0.12723 1.0814-0.0449 0.2106-0.09 0.4048-0.15904 0.6044-0.008 0.022-0.0237 0.042-0.0318 0.064-0.0639 0.1768-0.14085 0.3739-0.22266 0.5407-0.0423 0.084-0.0804 0.173-0.12723 0.2544-0.0556 0.099-0.12904 0.1917-0.19085 0.2863-0.0958 0.1435-0.20858 0.2809-0.31808 0.4135-0.14573 0.1776-0.30855 0.3532-0.47712 0.5089-0.0114 0.01-0.0203 0.021-0.0318 0.032-0.14086 0.1277-0.29019 0.2386-0.44532 0.3498-0.1044 0.074-0.20796 0.1561-0.31808 0.2227h-0.0318c-0.23618 0.1412-0.4708 0.2796-0.73158 0.3817 0.30691-0.099 0.60711-0.2078 0.89062-0.3499 0.56704-0.2842 1.079-0.6776 1.5268-1.1133 0.2239-0.2179 0.41668-0.4497 0.60435-0.6997 0.18768-0.2501 0.36176-0.5169 0.50893-0.7953 0.14262-0.2697 0.28107-0.5341 0.3817-0.827 0.0106-0.032 0.0217-0.064 0.0318-0.096 0.0921-0.283 0.14128-0.5898 0.19085-0.8906 0.0533-0.3238 0.0954-0.6454 0.0954-0.9861v-2.0357-69.214-2.0357c0-3.3834-2.7238-6.1071-6.1071-6.1071h-73.286z" fill="url(#linearGradient7046)"/>
  <path id="path29184" d="m17.469 961.77c-6.668 0-12.031 5.3945-12.031 12.063v61.031c0 5.4176 3.5332 9.9818 8.4375 11.5h68.188c4.7148-1.4568 8.1719-5.7337 8.4375-10.875v-62.281c-0.32118-6.3771-5.5404-11.438-12-11.438h-61.031z" fill="url(#linearGradient7843)"/>
  <rect id="rect3873" rx="6" ry="6" height="84" width="84" display="none" y="947.34" x="107.91" fill="url(#linearGradient4982)"/>
  <rect id="rect3880" rx="6" ry="6" height="84" width="84" display="none" y="947.34" x="107.91" fill="url(#linearGradient4982)"/>
  <path id="rect5265-0" d="m5.4316 1029.8v5.0663c0 6.668 5.3645 12.032 12.032 12.032h61.049c6.668 0 12.032-5.3645 12.032-12.032v-5.0663c0 6.6681-5.3645 12.032-12.032 12.032h-61.049c-6.668 0-12.032-5.3643-12.032-12.032z" fill-opacity=".23529"/>
  <path id="path5252-0" d="m5.4316 1033.9v1.0133c0 6.668 5.3645 12.032 12.032 12.032h61.049c6.668 0 12.032-5.3645 12.032-12.032v-1.0133c0 6.6681-5.3645 12.032-12.032 12.032h-61.049c-6.668 0-12.032-5.3644-12.032-12.032z" fill-opacity=".098039"/>
  <g id="g7058" transform="matrix(1.1902 0 0 1.1902 -123.77 -200.87)">
   <g id="layer5" transform="matrix(1.0179 0 0 1.0179 94.384 956.98)">
    <rect id="rect3171" height="66" stroke="#fff" stroke-linecap="round" stroke-width=".5" fill="url(#linearGradient7067)" rx="12" ry="12" width="66" opacity="0.08" clip-path="url(#clipPath3613-740)" filter="url(#filter3794-004)" y="15" x="15"/>
   </g>
   <g id="layer4" transform="matrix(1.0179 0 0 1.0179 94.384 956.98)" stroke-miterlimit="10.433" stroke-width="0">
    <path id="path3977" opacity=".05" d="m43.438 29.062c-3.5929 0-8.4136 0.53605-12.5 3.9062a0.96732 0.96732 0 0 0 -0.21875 0.28125 0.96732 0.96732 0 0 0 -0.0625 0.09375c-2.9193 2.6692-4.4375 6.1995-4.4375 9.5625 0 5.7922 4.58 11.504 11.938 11.75-0.034 0.18582-0.09375 0.23694-0.09375 0.46875 0 1.0829 0.2727 1.9439 0.625 2.7188-2.8023 0.26024-6.2352 0.79205-9.4688 2.6562a0.96732 0.96732 0 0 0 -0.095 0.032 0.96732 0.96732 0 0 0 -0.281 0.094c-4.287 2.542-5.782 6.461-5.782 9.375 0 2.9445 1.45 5.8223 4.125 7.8125 2.6672 1.9843 6.4716 3.125 11.344 3.125 11.556 0 18.531-6.668 18.531-13.844 0-2.5623-0.82422-4.6421-2-6.2812-1.166-1.6255-2.6113-2.8637-4-4.0312a0.96732 0.96732 0 0 0 -0.156 -0.094 0.96732 0.96732 0 0 0 -0.094 -0.063l-2-1.625c-0.00005-0.000041-0.02833 0.0014-0.03125 0-0.015-0.013-0.016-0.019-0.031-0.031-0.339-0.278-0.626-0.498-0.75-0.657-0.12965-0.16548-0.15625-0.23482-0.15625-0.5 0-0.24138 0.05401-0.41242 0.25-0.6875s0.54478-0.60608 0.96875-1.0312c2.6571-2.0993 5.8438-5.0166 5.8438-10.312v-0.4375-0.03125-0.09375a0.96732 0.96732 0 0 0 0 -0.03125l-0.031-0.406-0.031-0.343v-0.09375-0.0625a0.96732 0.96732 0 0 0 0 -0.125l-0.063-0.407a0.96732 0.96732 0 0 0 -0.031 -0.094c0-0.000001-0.02277-0.0347-0.03125-0.0625v-0.03125c-0.000001-0.000002-0.03125-0.09375-0.03125-0.09375l-0.03125-0.125v-0.03125a0.96732 0.96732 0 0 0 -0.032 -0.094v-0.15625a0.96732 0.96732 0 0 0 -0.03125 -0.15625c0-0.000002-0.03125-0.09375-0.03125-0.09375-0.000001-0.000002-0.03125-0.09375-0.03125-0.09375l-0.0625-0.28125c0-0.000002-0.03125-0.09375-0.03125-0.09375-0.000001-0.000002-0.03125-0.09375-0.03125-0.09375l-0.125-0.34375-0.125-0.34375-0.125-0.34375-0.095-0.221c0-0.000002-0.03125-0.09375-0.03125-0.09375-0.000001-0.000002-0.03125-0.09375-0.03125-0.09375a0.96732 0.96732 0 0 0 -0.03125 -0.09375l-0.15625-0.3125a0.96732 0.96732 0 0 0 -0.0625 -0.0625v-0.03125a0.96732 0.96732 0 0 0 -0.064 -0.063l-0.09375-0.1875-0.125-0.21875c0-0.000001-0.01563-0.03125-0.03125-0.0625s-0.03125-0.0625-0.03125-0.0625a0.96732 0.96732 0 0 0 -0.061 -0.094l-0.063-0.094-0.031-0.062a0.96732 0.96732 0 0 0 -0.031 -0.031l-0.032-0.032-0.031-0.094c-0.000001-0.000002-0.04766-0.06117-0.0625-0.09375-0.0037-0.0081 0-0.03125 0-0.03125-0.000001-0.000001-0.0145-0.03182-0.03125-0.0625 0.035-0.009 0.063-0.03 0.063-0.03l0.125-0.0625c0.000002-0.000001 0.125-0.03125 0.125-0.03125 0.000002-0.000001 0.09375-0.0625 0.09375-0.0625l4.0312-2.25c0.000002-0.000001 0.125-0.09375 0.125-0.09375 0.000002-0.000001 0.15625-0.09375 0.15625-0.09375l0.09375-0.09375 0.125-0.125c0.000002-0.000002 0.09375-0.125 0.09375-0.125 0.000002-0.000002 0.09375-0.125 0.09375-0.125 0.000001-0.000002 0.09375-0.125 0.09375-0.125 0.000001-0.000002 0.0625-0.15625 0.0625-0.15625l0.0625-0.125c0.000001-0.000003 0.03125-0.15625 0.03125-0.15625 0.000001-0.000003 0.03125-0.15625 0.03125-0.15625 0-0.000003 0.03125-0.15625 0.03125-0.15625v-0.15625-0.1875c0-0.000003-0.03125-0.15625-0.03125-0.15625 0-0.000003-0.03125-0.15625-0.03125-0.15625-0.000001-0.000003-0.0625-0.125-0.0625-0.125-0.000001-0.000003-0.03125-0.15625-0.03125-0.15625-0.000001-0.000002-0.09375-0.15625-0.09375-0.15625l-0.0625-0.125c-0.000001-0.000002-0.09375-0.125-0.09375-0.125l-0.125-0.125c-0.000002-0.000002-0.09375-0.125-0.09375-0.125-0.000002-0.000002-0.125-0.09375-0.125-0.09375-0.000002-0.000002-0.125-0.09375-0.125-0.09375-0.000002-0.000001-0.15625-0.09375-0.15625-0.09375l-0.125-0.0625c-0.000002-0.000001-0.15625-0.0625-0.15625-0.0625-0.000003-0.000001-0.15625-0.03125-0.15625-0.03125-0.000003-0.000001-0.15625-0.03125-0.15625-0.03125-0.000003 0-0.15625-0.03125-0.15625-0.03125h-0.15625-13zm22.219 0a0.96732 0.96732 0 0 0 -0.032 0.032c-0.000003 0.000001-0.15625 0.03125-0.15625 0.03125-0.000003 0.000001-0.15625 0.0625-0.15625 0.0625-0.000003 0.000001-0.15625 0.0625-0.15625 0.0625-0.000003 0.000001-0.15625 0.0625-0.15625 0.0625-0.000002 0.000001-0.15625 0.09375-0.15625 0.09375l-0.125 0.125c-0.000002 0.000002-0.125 0.09375-0.125 0.09375-0.000002 0.000002-0.09375 0.15625-0.09375 0.15625-0.000002 0.000002-0.09375 0.125-0.09375 0.125-0.000002 0.000002-0.09375 0.125-0.09375 0.125-0.000001 0.000002-0.09375 0.15625-0.09375 0.15625-0.000001 0.000003-0.0625 0.15625-0.0625 0.15625-0.000001 0.000003-0.03125 0.1875-0.03125 0.1875-0.000001 0.000003-0.03125 0.15625-0.03125 0.15625 0 0.000003-0.03125 0.15625-0.03125 0.15625 0 0.000002 0.000921 0.11716 0 0.15625-0.000184 0.0078 0 0.03125 0 0.03125v6.0312h-6.0625-0.09375-0.09375c-0.000002 0-0.09375 0.03125-0.09375 0.03125h-0.09375c-0.000002 0-0.09375 0.03125-0.09375 0.03125-0.000002 0-0.09375 0.03125-0.09375 0.03125-0.000002 0-0.09375 0.03125-0.09375 0.03125-0.000001 0.000001-0.09375 0.03125-0.09375 0.03125-0.000001 0.000001-0.0625 0.03125-0.0625 0.03125-0.000001 0.000001-0.09375 0.03125-0.09375 0.03125-0.000001 0.000001-0.09375 0.0625-0.09375 0.0625-0.000001 0.000001-0.0625 0.03125-0.0625 0.03125-0.000001 0.000001-0.09375 0.0625-0.09375 0.0625l-0.0625 0.0625c-0.000001 0.000001-0.09375 0.0625-0.09375 0.0625l-0.0625 0.0625-0.0625 0.0625c-0.000001 0.000001-0.0625 0.09375-0.0625 0.09375l-0.0625 0.0625c-0.000001 0.000001-0.0625 0.09375-0.0625 0.09375-0.000001 0.000001-0.03125 0.0625-0.03125 0.0625-0.000001 0.000001-0.0625 0.09375-0.0625 0.09375-0.000001 0.000001-0.03125 0.09375-0.03125 0.09375-0.000001 0.000001-0.03125 0.0625-0.03125 0.0625-0.000001 0.000001-0.03125 0.09375-0.03125 0.09375-0.000001 0.000001-0.03125 0.09375-0.03125 0.09375 0 0.000002-0.03125 0.09375-0.03125 0.09375 0 0.000002-0.03125 0.09375-0.03125 0.09375v0.09375c0 0.000002-0.03125 0.09375-0.03125 0.09375v0.09375 0.09375 2 0.09375 0.09375c0 0.000002 0.03125 0.09375 0.03125 0.09375v0.09375c0 0.000002 0.03125 0.09375 0.03125 0.09375 0 0.000002 0.03125 0.09375 0.03125 0.09375 0 0.000002 0.03125 0.09375 0.03125 0.09375 0.000001 0.000001 0.03125 0.09375 0.03125 0.09375 0.000001 0.000001 0.03125 0.0625 0.03125 0.0625 0.000001 0.000001 0.03125 0.09375 0.03125 0.09375 0.000001 0.000001 0.0625 0.09375 0.0625 0.09375 0.000001 0.000001 0.03125 0.0625 0.03125 0.0625 0.000001 0.000001 0.0625 0.09375 0.0625 0.09375l0.0625 0.0625c0.000001 0.000001 0.0625 0.09375 0.0625 0.09375l0.0625 0.0625 0.0625 0.0625c0.000001 0.000001 0.09375 0.0625 0.09375 0.0625l0.0625 0.0625c0.000001 0.000001 0.09375 0.0625 0.09375 0.0625 0.000001 0.000001 0.0625 0.03125 0.0625 0.03125 0.000001 0.000001 0.09375 0.0625 0.09375 0.0625 0.000001 0.000001 0.09375 0.03125 0.09375 0.03125 0.000001 0.000001 0.0625 0.03125 0.0625 0.03125 0.000001 0.000001 0.09375 0.03125 0.09375 0.03125 0.000001 0.000001 0.09375 0.03125 0.09375 0.03125 0.000002 0 0.09375 0.03125 0.09375 0.03125 0.000002 0 0.09375 0.03125 0.09375 0.03125h0.09375c0.000002 0 0.09375 0.03125 0.09375 0.03125h0.09375 0.09375 6.0625v6.0625 0.09375 0.09375c0 0.000002 0.03125 0.09375 0.03125 0.09375v0.09375c0 0.000002 0.03125 0.09375 0.03125 0.09375 0 0.000002 0.03125 0.09375 0.03125 0.09375 0 0.000002 0.03125 0.09375 0.03125 0.09375 0.000001 0.000001 0.03125 0.09375 0.03125 0.09375 0.000001 0.000001 0.03125 0.0625 0.03125 0.0625 0.000001 0.000001 0.03125 0.09375 0.03125 0.09375 0.000001 0.000001 0.0625 0.09375 0.0625 0.09375 0.000001 0.000001 0.03125 0.0625 0.03125 0.0625 0.000001 0.000001 0.0625 0.09375 0.0625 0.09375l0.0625 0.0625c0.000001 0.000001 0.0625 0.09375 0.0625 0.09375l0.0625 0.0625 0.0625 0.0625c0.000001 0.000001 0.09375 0.0625 0.09375 0.0625l0.0625 0.0625c0.000001 0.000001 0.09375 0.0625 0.09375 0.0625 0.000001 0.000001 0.0625 0.03125 0.0625 0.03125 0.000001 0.000001 0.09375 0.0625 0.09375 0.0625 0.000001 0.000001 0.09375 0.03125 0.09375 0.03125 0.000001 0.000001 0.0625 0.03125 0.0625 0.03125 0.000001 0.000001 0.09375 0.03125 0.09375 0.03125 0.000001 0.000001 0.09375 0.03125 0.09375 0.03125 0.000002 0 0.09375 0.03125 0.09375 0.03125 0.000002 0 0.09375 0.03125 0.09375 0.03125h0.09375c0.000002 0 0.09375 0.03125 0.09375 0.03125h0.09375 0.09375 2 0.09375 0.09375c0.000002 0 0.09375-0.03125 0.09375-0.03125h0.09375c0.000002 0 0.09375-0.03125 0.09375-0.03125 0.000002 0 0.09375-0.03125 0.09375-0.03125 0.000002 0 0.09375-0.03125 0.09375-0.03125 0.000001-0.000001 0.09375-0.03125 0.09375-0.03125 0.000001-0.000001 0.0625-0.03125 0.0625-0.03125 0.000001-0.000001 0.09375-0.03125 0.09375-0.03125 0.000001-0.000001 0.09375-0.0625 0.09375-0.0625 0.000001-0.000001 0.0625-0.03125 0.0625-0.03125 0.000001-0.000001 0.09375-0.0625 0.09375-0.0625l0.0625-0.0625c0.000001-0.000001 0.09375-0.0625 0.09375-0.0625l0.0625-0.0625 0.0625-0.0625c0.000001-0.000001 0.0625-0.09375 0.0625-0.09375l0.0625-0.0625c0.000001-0.000001 0.0625-0.09375 0.0625-0.09375 0.000001-0.000001 0.03125-0.0625 0.03125-0.0625 0.000001-0.000001 0.0625-0.09375 0.0625-0.09375 0.000001-0.000001 0.03125-0.09375 0.03125-0.09375 0.000001-0.000001 0.03125-0.0625 0.03125-0.0625 0.000001-0.000001 0.03125-0.09375 0.03125-0.09375 0.000001-0.000001 0.03125-0.09375 0.03125-0.09375 0-0.000002 0.03125-0.09375 0.03125-0.09375 0-0.000002 0.03125-0.09375 0.03125-0.09375v-0.09375c0-0.000002 0.03125-0.09375 0.03125-0.09375v-0.09375-0.09375-6.0625h6.0625 0.09375 0.09375c0.000002 0 0.09375-0.03125 0.09375-0.03125h0.09375c0.000002 0 0.09375-0.03125 0.09375-0.03125 0.000002 0 0.09375-0.03125 0.09375-0.03125 0.000002 0 0.09375-0.03125 0.09375-0.03125 0.000001-0.000001 0.09375-0.03125 0.09375-0.03125 0.000001-0.000001 0.0625-0.03125 0.0625-0.03125 0.000001-0.000001 0.09375-0.03125 0.09375-0.03125 0.000001-0.000001 0.09375-0.0625 0.09375-0.0625 0.000001-0.000001 0.0625-0.03125 0.0625-0.03125 0.000001-0.000001 0.09375-0.0625 0.09375-0.0625l0.0625-0.0625c0.000001-0.000001 0.09375-0.0625 0.09375-0.0625l0.0625-0.0625 0.0625-0.0625c0.000001-0.000001 0.0625-0.09375 0.0625-0.09375l0.0625-0.0625c0.000001-0.000001 0.0625-0.09375 0.0625-0.09375 0.000001-0.000001 0.03125-0.0625 0.03125-0.0625 0.000001-0.000001 0.0625-0.09375 0.0625-0.09375 0.000001-0.000001 0.03125-0.09375 0.03125-0.09375 0.000001-0.000001 0.03125-0.0625 0.03125-0.0625 0.000001-0.000001 0.03125-0.09375 0.03125-0.09375 0.000001-0.000001 0.03125-0.09375 0.03125-0.09375 0-0.000002 0.03125-0.09375 0.03125-0.09375 0-0.000002 0.03125-0.09375 0.03125-0.09375v-0.09375c0-0.000002 0.03125-0.09375 0.03125-0.09375v-0.09375-0.09375-2-0.09375-0.09375c0-0.000002-0.03125-0.09375-0.03125-0.09375v-0.09375c0-0.000002-0.03125-0.09375-0.03125-0.09375 0-0.000002-0.03125-0.09375-0.03125-0.09375 0-0.000002-0.03125-0.09375-0.03125-0.09375-0.000001-0.000001-0.03125-0.09375-0.03125-0.09375-0.000001-0.000001-0.03125-0.0625-0.03125-0.0625-0.000001-0.000001-0.03125-0.09375-0.03125-0.09375-0.000001-0.000001-0.0625-0.09375-0.0625-0.09375-0.000001-0.000001-0.03125-0.0625-0.03125-0.0625-0.000001-0.000001-0.0625-0.09375-0.0625-0.09375l-0.0625-0.0625c-0.000001-0.000001-0.0625-0.09375-0.0625-0.09375l-0.0625-0.0625-0.0625-0.0625c-0.000001-0.000001-0.09375-0.0625-0.09375-0.0625l-0.0625-0.0625c-0.000001-0.000001-0.09375-0.0625-0.09375-0.0625-0.000001-0.000001-0.0625-0.03125-0.0625-0.03125-0.000001-0.000001-0.09375-0.0625-0.09375-0.0625-0.000001-0.000001-0.09375-0.03125-0.09375-0.03125-0.000001-0.000001-0.0625-0.03125-0.0625-0.03125-0.000001-0.000001-0.09375-0.03125-0.09375-0.03125-0.000001-0.000001-0.09375-0.03125-0.09375-0.03125-0.000002 0-0.09375-0.03125-0.09375-0.03125-0.000002 0-0.09375-0.03125-0.09375-0.03125h-0.09375c-0.000002 0-0.09375-0.03125-0.09375-0.03125h-0.09375-0.09375-6.0625v-6.0625-0.09375-0.09375c0-0.000002-0.03125-0.09375-0.03125-0.09375v-0.09375c0-0.000002-0.03125-0.09375-0.03125-0.09375 0-0.000002-0.03125-0.09375-0.03125-0.09375 0-0.000002-0.03125-0.09375-0.03125-0.09375-0.000001-0.000001-0.03125-0.09375-0.03125-0.09375-0.000001-0.000001-0.03125-0.0625-0.03125-0.0625-0.000001-0.000001-0.03125-0.09375-0.03125-0.09375-0.000001-0.000001-0.0625-0.09375-0.0625-0.09375-0.000001-0.000001-0.03125-0.0625-0.03125-0.0625-0.000001-0.000001-0.0625-0.09375-0.0625-0.09375l-0.0625-0.0625c-0.000001-0.000001-0.0625-0.09375-0.0625-0.09375l-0.0625-0.0625-0.0625-0.0625c-0.000001-0.000001-0.09375-0.0625-0.09375-0.0625l-0.0625-0.0625c-0.000001-0.000001-0.09375-0.0625-0.09375-0.0625-0.000001-0.000001-0.0625-0.03125-0.0625-0.03125-0.000001-0.000001-0.09375-0.0625-0.09375-0.0625-0.000001-0.000001-0.09375-0.03125-0.09375-0.03125-0.000001-0.000001-0.0625-0.03125-0.0625-0.03125-0.000001-0.000001-0.09375-0.03125-0.09375-0.03125-0.000001-0.000001-0.09375-0.03125-0.09375-0.03125-0.000002 0-0.09375-0.03125-0.09375-0.03125-0.000002 0-0.09375-0.03125-0.09375-0.03125h-0.09375c-0.000002 0-0.09375-0.03125-0.09375-0.03125h-0.09375-0.09375-1.9688-0.03125-0.0625-0.0625-0.09375a0.96732 0.96732 0 0 0 -0.125 0zm-26.157 5.938c1.7549 0 3.1171 1.1084 4.25 3.0938 1.1228 1.9676 1.75 4.6882 1.75 6.5625v0.09375 0.03125c-0.0056 0.03509 0 0.09375 0 0.09375 0 0.000002-0.03125 0.125-0.03125 0.125v0.125 0.125c-0.0021 0.0091 0 0.03125 0 0.03125v0.09375 0.03125c-0.0011 0.0093 0.0015 0.01835 0 0.03125-0.0033 0.02902-0.03125 0.0625-0.03125 0.0625-0.0065 0.02889 0 0.0625 0 0.0625-0.000919 0.01637 0 0.03125 0 0.03125a0.96732 0.96732 0 0 0 0 0.03125c-0.0025 0.01559 0.0019 0.01955 0 0.03125s0 0.03125 0 0.03125c0 0.000002-0.03125 0.125-0.03125 0.125a0.96732 0.96732 0 0 0 0 0.0625c-0.000834 0.03156 0 0.0625 0 0.0625a0.96732 0.96732 0 0 0 -0.03125 0.125 0.96732 0.96732 0 0 0 0 0.03125v0.0625 0.0625l-0.03125 0.09375-0.0625 0.15625-0.0625 0.15625a0.96732 0.96732 0 0 0 -0.03125 0.0625c0 0.000001 0.0069 0.03429 0 0.0625l-0.03125 0.03125a0.96732 0.96732 0 0 0 -0.03125 0.0625c-0.000001 0.000003-0.0625 0.15625-0.0625 0.15625-0.000001 0.000002-0.01541 0.04854-0.03125 0.09375-0.013 0.036-0.033 0.066-0.033 0.066l-0.062 0.094-0.094 0.156a0.96732 0.96732 0 0 0 0 0.03125 0.96732 0.96732 0 0 0 -0.03125 0.03125l-0.03125 0.0625a0.96732 0.96732 0 0 0 -0.032 0.064c-0.0045 0.0042 0 0.03125 0 0.03125l-0.03125 0.03125a0.96732 0.96732 0 0 0 -0.031 0.032l-0.03125 0.03125a0.96732 0.96732 0 0 0 -0.0625 0.0625c-0.000001 0.000001-0.03268 0.02982-0.0625 0.0625a0.96732 0.96732 0 0 0 0 0.03125l-0.0625 0.03125c-0.54835 0.54741-1.9787 1.1875-2.9062 1.1875-1.8886 0-3.1883-1.104-4.2812-3.0312-1.0804-1.9051-1.6562-4.527-1.6562-6.25 0-1.3726 0.29-2.6293 0.96875-3.4688 0.554-0.694 1.955-1.344 2.905-1.344zm3.0625 28.125h0.0625 0.0625 0.0625 0.0625 0.03125 0.0625 0.03125 0.0625 0.0625 0.03125 0.09375 0.09375c0.01455 0.0035 0.01714-0.0034 0.03125 0s0.02199-0.0023 0.03125 0c2.0676 1.4843 3.6513 2.7434 4.4688 3.6562 0.92106 1.0286 1.1562 1.5662 1.1562 2.7812 0 1.4357-0.48544 2.4332-1.625 3.3125-1.1223 0.86593-3.0013 1.5312-5.7188 1.5312-3.0586 0-5.4367-0.74891-6.9375-1.8125-1.515-1.075-2.185-2.309-2.185-3.938 0-1.6753 0.61827-2.5052 1.5-3.25 0.84584-0.71444 1.9178-1.1604 2.5938-1.4062 0.0063-0.0023 0.02501 0.0023 0.03125 0 2.2079-0.73001 5.7063-0.875 5.9375-0.875z"/>
    <path id="path3973" opacity=".15" d="m43.438 30.031c-3.4966 0-8.0372 0.52234-11.875 3.6875a0.96732 0.96732 0 0 0 0 0.03125c-2.9224 2.5148-4.375 5.9649-4.375 9.1562 0 5.4098 4.2814 10.844 11.438 10.844 0.24884 0 0.5006-0.01723 0.75-0.03125-0.13465 0.45894-0.34375 0.78471-0.34375 1.4062 0 1.4979 0.55136 2.569 1.1562 3.5-2.9963 0.22307-7.2389 0.66539-10.844 2.875v-0.03125c-4.0004 2.3718-5.3125 5.9437-5.3125 8.5312 0 2.635 1.2649 5.2056 3.7188 7.0312 2.4538 1.8256 6.061 2.9375 10.781 2.9375 11.192 0 17.562-6.3265 17.562-12.875 0-2.3616-0.73514-4.2168-1.8125-5.7188-1.0774-1.5019-2.4584-2.679-3.8438-3.8438a0.96732 0.96732 0 0 0 -0.03125 0l-2.217-1.78c-0.0066-0.0054-0.02467 0.0054-0.03125 0-0.70794-0.57953-1.2812-1.009-1.2812-1.9375 0-0.93776 0.66173-1.5656 1.5-2.4062 2.6406-2.0784 5.5625-4.6527 5.5625-9.625v-0.46875a0.96732 0.96732 0 0 0 0 -0.0625l-0.032-0.406-0.031-0.438a0.96732 0.96732 0 0 0 0 -0.09375l-0.063-0.406a0.96732 0.96732 0 0 0 -0.031 -0.094l-0.062-0.281-0.031-0.093-0.032-0.282a0.96732 0.96732 0 0 0 -0.031 -0.094l-0.09375-0.375a0.96732 0.96732 0 0 0 -0.031 -0.093l-0.125-0.344-0.125-0.344-0.125-0.344-0.125-0.312a0.96732 0.96732 0 0 0 -0.031 -0.094l-0.157-0.312a0.96732 0.96732 0 0 0 -0.031 -0.032l-0.156-0.281-0.156-0.281a0.96732 0.96732 0 0 0 -0.031 -0.062l-0.157-0.219-0.031-0.063-0.125-0.218a0.96732 0.96732 0 0 0 -0.0625 -0.125l-0.1875-0.25-0.1875-0.21875v-0.03125l-0.15625-0.1875a0.96732 0.96732 0 0 0 -0.0625 -0.0625l-0.187-0.22-0.187-0.219a0.96732 0.96732 0 0 0 -0.032 -0.063l-0.09375-0.09375h1.4375a0.96732 0.96732 0 0 0 0.46875 -0.125l4.0312-2.25a0.96732 0.96732 0 0 0 -0.46875 -1.8125h-13zm22.469 0a0.96732 0.96732 0 0 0 -0.876 0.969v7.0312h-7.0312a0.96732 0.96732 0 0 0 -0.969 0.969v2a0.96732 0.96732 0 0 0 0.969 0.969h7.0312v7.0312a0.96732 0.96732 0 0 0 0.969 0.969h2a0.96732 0.96732 0 0 0 0.969 -0.969v-7.0312h7.0312a0.96732 0.96732 0 0 0 0.969 -0.969v-2a0.96732 0.96732 0 0 0 -0.969 -0.969h-7.0312v-7.0312a0.96732 0.96732 0 0 0 -0.969 -0.969h-2a0.96732 0.96732 0 0 0 -0.09375 0zm-26.406 4c2.1805 0 3.8643 1.4392 5.0938 3.5938 1.2294 2.1545 1.875 4.9563 1.875 7.0312v0.125 0.09375a0.96732 0.96732 0 0 0 -0.03125 0.25v0.125 0.125 0.03125a0.96732 0.96732 0 0 0 -0.03125 0.21875 0.96732 0.96732 0 0 0 0 0.03125v0.03125a0.96732 0.96732 0 0 0 -0.03125 0.25v0.0625 0.0625l-0.03125 0.0625a0.96732 0.96732 0 0 0 0 0.0625l-0.034 0.158-0.031 0.156-0.031 0.156-0.062 0.156-0.063 0.157a0.96732 0.96732 0 0 0 -0.031 0.156l-0.094 0.156a0.96732 0.96732 0 0 0 -0.0625 0.15625l-0.0625 0.15625-0.09375 0.15625-0.09375 0.15625-0.03125 0.0625-0.0625 0.09375v0.03125l-0.125 0.15625a0.96732 0.96732 0 0 0 -0.094 0.094v0.03125l-0.03125 0.03125a0.96732 0.96732 0 0 0 -0.125 0.125l-0.0625 0.0625c-0.79328 0.79192-2.3228 1.4688-3.5938 1.4688-2.2924 0-3.9367-1.4359-5.125-3.5312s-1.7812-4.7968-1.7812-6.7188c0-1.5054 0.30998-2.9772 1.1875-4.0625 0.79545-0.99419 2.3492-1.7188 3.6562-1.7188zm3.0625 28.125h0.0625 0.0625 0.0625 0.0625 0.03125 0.0625 0.03125 0.0625 0.0625 0.03125 0.09375 0.09375 0.0625 0.09375a0.96732 0.96732 0 0 0 0.0625 0 0.96732 0.96732 0 0 0 0.15625 0.03125c0.0087 0.0062 0.02256-0.0062 0.03125 0 2.2321 1.5922 3.8754 2.8561 4.8438 3.9375 1.01 1.1279 1.4062 2.0397 1.4062 3.4375 0 1.6861-0.6548 3.0558-2 4.0938-1.3452 1.0379-3.4421 1.7188-6.3125 1.7188-3.2162 0-5.7874-0.78629-7.5-2s-2.5938-2.7945-2.5938-4.7188c0-1.9476 0.82264-3.1375 1.8438-4 1.0126-0.85533 2.216-1.312 2.9062-1.5625 0.0094-0.0031 0.02179 0.0031 0.03125 0 2.4318-0.80403 5.8191-0.9375 6.25-0.9375z"/>
    <path id="path3969" opacity=".3" d="m43.438 31c-3.4002 0-7.6601 0.508-11.25 3.4688-2.7075 2.3299-4.0313 5.5409-4.0312 8.4375 0 4.9121 3.7919 9.875 10.469 9.875 0.62946 0 1.3073-0.06439 2-0.125-0.31616 0.75564-0.625 1.3987-0.625 2.4688 0 1.9513 0.99261 3.1473 1.875 4.2812-2.834 0.18975-8.128 0.51375-12.031 2.9062-3.721 2.206-4.845 5.42-4.845 7.688 0 4.6617 4.3969 9 13.531 9 10.836 0 16.594-5.9848 16.594-11.906 0-4.3461-2.5417-6.4829-5.3125-8.8125l-2.25-1.782c-0.69269-0.56813-1.6562-1.302-1.6562-2.6875 0-1.3865 0.96497-2.2752 1.7812-3.0938 2.6472-2.0781 5.2812-4.2758 5.2812-8.9375v-0.46875l-0.03125-0.40625-0.03125-0.4375-0.0625-0.40625-0.09375-0.375-0.0625-0.375-0.09375-0.375-0.125-0.34375-0.125-0.34375-0.125-0.34375-0.125-0.3125-0.155-0.312-0.157-0.281-0.156-0.281-0.187-0.281-0.15625-0.28125-0.1875-0.25-0.1875-0.25-0.157-0.219-0.188-0.219-0.187-0.219-0.187-0.188-0.188-0.218-0.188-0.188-0.187-0.156-0.187-0.156-0.157-0.156-0.187-0.157-0.156-0.156-0.157-0.125-0.125-0.125-0.156-0.125h3.9062l4.0312-2.25h-13zm22.562 0v8h-8v2h8v8h2v-8h8v-2h-8v-8h-2zm-26.5 2.0625c5.2311 0 7.9375 7.0591 7.9375 11.594v0.125 0.09375 0.125l-0.03125 0.125v0.125 0.125 0.15625l-0.03125 0.125v0.15625l-0.03125 0.125v0.15625l-0.032 0.157-0.031 0.125-0.031 0.156-0.031 0.157-0.031 0.156-0.032 0.156-0.062 0.156-0.063 0.156-0.031 0.157-0.062 0.156-0.09375 0.15625-0.0625 0.15625-0.0625 0.15625-0.09375 0.15625-0.09375 0.15625-0.09375 0.15625-0.09375 0.125-0.125 0.15625-0.094 0.156-0.15625 0.125-0.125 0.15625c-1.0089 1.0071-2.7062 1.75-4.2812 1.75-5.4179 0-7.875-6.9994-7.875-11.219 0-1.638 0.33703-3.3338 1.4062-4.6562 1.009-1.261 2.771-2.094 4.406-2.094zm3.0625 28.125h0.0625 0.0625 0.0625 0.0625 0.03125 0.0625 0.03125 0.0625 0.0625 0.03125 0.09375 0.09375 0.0625 0.09375 0.0625 0.09375 0.09375l0.0625 0.03125h0.09375 0.09375 0.03125l0.0625 0.03125c4.7885 3.4031 6.875 5.0982 6.875 8.3125 0 3.9061-3.2339 6.7812-9.2812 6.7812-6.7401 0-11.062-3.2158-11.062-7.6875 0-4.4743 4.018-5.9658 5.4062-6.4688 2.6443-0.88268 6.0275-1 6.5938-1z"/>
    <path id="path208" d="m43.438 30c-3.4002 0-7.6601 0.508-11.25 3.4688-2.7075 2.3299-4.0313 5.5409-4.0312 8.4375 0 4.9121 3.7919 9.875 10.469 9.875 0.62946 0 1.3073-0.06439 2-0.125-0.31616 0.75564-0.625 1.3987-0.625 2.4688 0 1.9513 0.99261 3.1473 1.875 4.2812-2.834 0.18975-8.128 0.51375-12.031 2.9062-3.721 2.206-4.845 5.42-4.845 7.688 0 4.6617 4.3969 9 13.531 9 10.836 0 16.594-5.9848 16.594-11.906 0-4.3461-2.5417-6.4829-5.3125-8.8125l-2.25-1.782c-0.69269-0.56813-1.6562-1.302-1.6562-2.6875 0-1.3865 0.96497-2.2752 1.7812-3.0938 2.6472-2.0781 5.2812-4.2758 5.2812-8.9375v-0.46875l-0.03125-0.40625-0.03125-0.4375-0.0625-0.40625-0.09375-0.375-0.0625-0.375-0.09375-0.375-0.125-0.34375-0.125-0.34375-0.125-0.34375-0.125-0.3125-0.155-0.312-0.157-0.281-0.156-0.281-0.187-0.281-0.15625-0.28125-0.1875-0.25-0.1875-0.25-0.157-0.219-0.188-0.219-0.187-0.219-0.187-0.188-0.188-0.218-0.188-0.188-0.187-0.156-0.187-0.156-0.157-0.156-0.187-0.157-0.156-0.156-0.157-0.125-0.125-0.125-0.156-0.125h3.9062l4.0312-2.25h-13zm22.562 0v8h-8v2h8v8h2v-8h8v-2h-8v-8h-2zm-26.5 2.0625c5.2311 0 7.9375 7.0591 7.9375 11.594v0.125 0.09375 0.125l-0.03125 0.125v0.125 0.125 0.15625l-0.03125 0.125v0.15625l-0.03125 0.125v0.15625l-0.032 0.157-0.031 0.125-0.031 0.156-0.031 0.157-0.031 0.156-0.032 0.156-0.062 0.156-0.063 0.156-0.031 0.157-0.062 0.156-0.09375 0.15625-0.0625 0.15625-0.0625 0.15625-0.09375 0.15625-0.09375 0.15625-0.09375 0.15625-0.09375 0.125-0.125 0.15625-0.094 0.156-0.15625 0.125-0.125 0.15625c-1.0089 1.0071-2.7062 1.75-4.2812 1.75-5.4179 0-7.875-6.9994-7.875-11.219 0-1.638 0.33703-3.3338 1.4062-4.6562 1.009-1.261 2.771-2.094 4.406-2.094zm3.0625 28.125h0.0625 0.0625 0.0625 0.0625 0.03125 0.0625 0.03125 0.0625 0.0625 0.03125 0.09375 0.09375 0.0625 0.09375 0.0625 0.09375 0.09375l0.0625 0.03125h0.09375 0.09375 0.03125l0.0625 0.03125c4.7885 3.4031 6.875 5.0982 6.875 8.3125 0 3.9061-3.2339 6.7812-9.2812 6.7812-6.7401 0-11.062-3.2158-11.062-7.6875 0-4.4743 4.018-5.9658 5.4062-6.4688 2.6443-0.88268 6.0275-1 6.5938-1z" fill="#fff"/>
   </g>
  </g>
 </g>
</svg>
