<?xml version="1.0" encoding="UTF-8" standalone="no"?>
<!-- Created with Inkscape (http://www.inkscape.org/) -->
<svg id="svg2" xmlns:rdf="http://www.w3.org/1999/02/22-rdf-syntax-ns#" xmlns="http://www.w3.org/2000/svg" height="96" width="96" version="1.1" xmlns:cc="http://creativecommons.org/ns#" xmlns:xlink="http://www.w3.org/1999/xlink" xmlns:dc="http://purl.org/dc/elements/1.1/">
 <defs id="defs4">
  <linearGradient id="linearGradient3700-0">
   <stop id="stop3702-2" stop-color="#70a83e" offset="0"/>
   <stop id="stop3704-9" stop-color="#9fd058" offset="1"/>
  </linearGradient>
  <linearGradient id="linearGradient4982" y2="5.9877" xlink:href="#linearGradient3700-0" gradientUnits="userSpaceOnUse" x2="48" gradientTransform="translate(101.91 941.34)" y1="90" x1="48"/>
  <clipPath id="clipPath3613-26">
   <rect id="rect3615-666" rx="6" ry="6" height="84" width="84" y="6" x="6" fill="#fff"/>
  </clipPath>
  <filter id="filter3794-15" height="1.384" width="1.384" color-interpolation-filters="sRGB" y="-.192" x="-.192">
   <feGaussianBlur id="feGaussianBlur3796-399" stdDeviation="5.28"/>
  </filter>
  <linearGradient id="linearGradient3833">
   <stop id="stop3835" stop-color="#d9d9d9" offset="0"/>
   <stop id="stop3837" stop-color="#fff" offset="1"/>
  </linearGradient>
  <clipPath id="clipPath4882">
   <path id="path4884" fill="#f0f" d="m44 58v-16l13 8z"/>
  </clipPath>
  <filter id="filter4890" color-interpolation-filters="sRGB">
   <feGaussianBlur id="feGaussianBlur4892" stdDeviation="0.2175"/>
  </filter>
  <linearGradient id="linearGradient28679" y2="5.9877" gradientUnits="userSpaceOnUse" x2="48" gradientTransform="translate(-152 976.85)" y1="90" x1="48">
   <stop id="stop3702-62" stop-color="#53aec2" offset="0"/>
   <stop id="stop3704-29" stop-color="#80c3d2" offset="1"/>
  </linearGradient>
  <linearGradient id="linearGradient28681" y2="138.66" gradientUnits="userSpaceOnUse" x2="48" y1="20.221" x1="48">
   <stop id="stop3739-50" stop-color="#fff" offset="0"/>
   <stop id="stop3741-457" stop-color="#fff" stop-opacity="0" offset="1"/>
  </linearGradient>
  <radialGradient id="radialGradient28683" gradientUnits="userSpaceOnUse" cy="29" cx="-56" gradientTransform="matrix(1.2571 0 0 .97143 -27.6 978.68)" r="17.5">
   <stop id="stop3851-8" stop-color="#e5e5e5" offset="0"/>
   <stop id="stop3853-6" stop-color="#fff" offset="1"/>
  </radialGradient>
  <radialGradient id="radialGradient28685" xlink:href="#linearGradient3833" gradientUnits="userSpaceOnUse" cy="30.722" cx="-67.361" gradientTransform="matrix(1.3143 -1.6389e-8 1.4252e-8 1.1429 -38.468 985.74)" r="17.5"/>
  <radialGradient id="radialGradient28687" xlink:href="#linearGradient3833" gradientUnits="userSpaceOnUse" cy="31.597" cx="-69.644" gradientTransform="matrix(-1.3143 -1.6389e-8 -1.4252e-8 1.1429 -167.53 985.74)" r="17.5"/>
  <clipPath id="clipPath28689" clipPathUnits="userSpaceOnUse">
   <path id="path28691" d="m-133.82 983.75c-6.5129 0-11.751 5.2691-11.751 11.782v59.612c0 5.2916 3.451 9.7497 8.2413 11.233h66.602c4.6052-1.4229 7.9819-5.6004 8.2413-10.622v-60.833c-0.31371-6.2288-5.4115-11.172-11.721-11.172h-59.612z" fill="url(#linearGradient28693)"/>
  </clipPath>
  <linearGradient id="linearGradient28693" y2="5.9877" gradientUnits="userSpaceOnUse" x2="48" gradientTransform="matrix(1.0302 0 0 1.0754 -154.98 972.79)" y1="202.5" x1="59">
   <stop id="stop3702-252" stop-color="#22193e" offset="0"/>
   <stop id="stop3704-94" stop-color="#9586af" offset="1"/>
  </linearGradient>
 </defs>
 <metadata id="metadata7">
  <rdf:RDF>
   <cc:Work rdf:about="">
    <dc:format>image/svg+xml</dc:format>
    <dc:type rdf:resource="http://purl.org/dc/dcmitype/StillImage"/>
    <dc:title/>
   </cc:Work>
  </rdf:RDF>
 </metadata>
 <g id="layer1" transform="translate(0 -956.36)">
  <rect id="rect5261-6" fill-opacity=".039216" ry="12.552" height="88.762" width="88.762" y="959.96" x="3.6078"/>
  <rect id="rect5259-9" fill-opacity=".078431" ry="12.38" height="87.546" width="87.546" y="960.57" x="4.2157"/>
  <rect id="rect5257-5" fill-opacity=".15686" ry="12.208" height="86.33" width="86.33" y="961.18" x="4.8237"/>
  <g id="g28662" clip-path="url(#clipPath28689)" transform="matrix(1.0238 0 0 1.0238 154.48 -45.401)">
   <rect id="rect2419-6" rx="6" ry="6" height="84" width="84" y="982.85" x="-146" fill="url(#linearGradient28679)"/>
   <g id="layer5-0" transform="translate(-152 976.85)">
    <rect id="rect3171-8" height="66" stroke="#fff" stroke-linecap="round" stroke-width=".5" fill="url(#linearGradient28681)" rx="12" ry="12" width="66" opacity=".1" clip-path="url(#clipPath3613-26)" filter="url(#filter3794-15)" y="15" x="15"/>
   </g>
   <path id="path3834" opacity=".05" style="color:#000000" d="m-114 1038.8c-5.1637 0-9.807 0.4572-13.375 1.25-1.7863 0.397-3.3385 0.8843-4.625 1.5625-0.6027 0.3177-1.2541 0.7315-1.8438 1.375-0.60617 0.6617-1.1875 1.6273-1.1875 2.8438s0.58133 2.1821 1.1875 2.8437c0.58962 0.6436 1.241 1.0573 1.8438 1.375 1.2865 0.6782 2.8387 1.1656 4.625 1.5625 3.568 0.7929 8.2113 1.25 13.375 1.25h22c5.1637 0 9.807-0.4571 13.375-1.25 1.7863-0.3969 3.3385-0.8843 4.625-1.5625 0.6027-0.3177 1.2541-0.7314 1.8438-1.375 0.60617-0.6616 1.1875-1.6272 1.1875-2.8437s-0.58133-2.1821-1.1875-2.8438c-0.58962-0.6435-1.241-1.0573-1.8438-1.375-1.2865-0.6782-2.8387-1.1655-4.625-1.5625-3.568-0.7928-8.2113-1.25-13.375-1.25h-22z"/>
   <path id="path3830" opacity=".1" style="color:#000000" d="m-114 1039.8c-5.1057 0-9.6894 0.4484-13.156 1.2188-1.7364 0.3858-3.2093 0.8542-4.375 1.4687-0.56444 0.2976-1.1173 0.6362-1.5938 1.1563-0.48686 0.5314-0.90625 1.2744-0.90625 2.1875s0.41939 1.6561 0.90625 2.1875c0.47646 0.52 1.0293 0.8587 1.5938 1.1562 1.1657 0.6145 2.6386 1.0829 4.375 1.4688 3.4669 0.7704 8.0505 1.2187 13.156 1.2187h22c5.1057 0 9.6894-0.4483 13.156-1.2187 1.7364-0.3859 3.2093-0.8543 4.375-1.4688 0.56444-0.2975 1.1173-0.6362 1.5938-1.1562 0.48686-0.5314 0.90625-1.2744 0.90625-2.1875s-0.41939-1.6561-0.90625-2.1875c-0.47646-0.5201-1.0293-0.8587-1.5938-1.1563-1.1657-0.6145-2.6386-1.0829-4.375-1.4687-3.4669-0.7704-8.0505-1.2188-13.156-1.2188h-22z"/>
   <path id="path3826" opacity=".15" style="color:#000000" d="m-114 1040.9c-5.0434 0-9.5824 0.442-12.938 1.1875-1.6776 0.3728-3.057 0.8285-4.0938 1.375-0.51837 0.2733-0.96319 0.5563-1.3125 0.9375-0.34931 0.3813-0.625 0.9013-0.625 1.4688 0 0.5674 0.27569 1.0875 0.625 1.4687 0.34931 0.3813 0.79413 0.6643 1.3125 0.9375 1.0367 0.5465 2.4162 1.0022 4.0938 1.375 3.3551 0.7456 7.8941 1.1875 12.938 1.1875h22c5.0434 0 9.5824-0.4419 12.938-1.1875 1.6776-0.3728 3.057-0.8285 4.0938-1.375 0.51837-0.2732 0.9632-0.5562 1.3125-0.9375 0.3493-0.3812 0.625-0.9013 0.625-1.4687 0-0.5675-0.2757-1.0875-0.625-1.4688-0.3493-0.3812-0.79413-0.6642-1.3125-0.9375-1.0367-0.5465-2.4162-1.0022-4.0938-1.375-3.3551-0.7455-7.8941-1.1875-12.938-1.1875h-22z"/>
   <rect id="rect3869" opacity=".3" style="color:#000000" rx="18" ry="4" height="8" width="58" y="1041.8" x="-132"/>
   <rect id="rect3831" style="color:#000000" height="14" width="36" y="1032.8" x="-121" fill="#fff"/>
   <path id="path3823" style="color:#000000" d="m-87 1016.3a17.5 17.5 0 0 1 -35 0 17.5 17.5 0 1 1 35 0z" fill="url(#radialGradient28683)"/>
   <path id="path3825" style="color:#000000" d="m-104 1028.8a18 18 0 0 1 -36 0 18 18 0 1 1 36 0z" fill="url(#radialGradient28685)"/>
   <path id="path3855" style="color:#000000" d="m-102 1028.8a18 18 0 0 0 36 0 18 18 0 1 0 -36 0z" fill="url(#radialGradient28687)"/>
   <path id="path4823" opacity=".1" d="m-140 982.85-6 6v1l7-7h-1zm3 0-9 9v1l10-10h-1zm3 0-12 12v1l13-13h-1zm3 0-15 15v1l16-16h-1zm3 0-18 18v1l19-19h-1zm3 0-21 21v1l22-22h-1zm3 0-24 24v1l25-25h-1zm3 0-27 27v1l28-28h-1zm3 0-30 30v1l31-31h-1zm3 0-33 33v1l34-34h-1zm3 0-36 36v1l37-37h-1zm3 0-39 39v1l40-40h-1zm3 0-42 42v1l43-43h-1zm3 0-31.094 31.094c0.74582-0.5082 1.5232-0.9507 2.3438-1.3437l29.75-29.75h-1zm3 0-28.562 28.563c0.4033-0.1053 0.83612-0.1726 1.25-0.25l28.31-28.35h-1zm3 0-18.469 18.469c0.66351-0.3967 1.3458-0.755 2.0625-1.0625l0.0625-0.031 17.35-17.35h-1zm3 0-16.438 16.438c0.41093-0.0945 0.82854-0.18502 1.25-0.25l16.19-16.19h-1zm3 0-16.031 16.031c0.17801-0.005 0.35194-0.0313 0.53125-0.0313 0.15769 0 0.31206 0.0271 0.46875 0.0313l16.03-16.03h-1zm3 0-16.188 16.188c0.29393 0.0387 0.58586 0.0719 0.875 0.125l16.32-16.31h-1zm3 0-16.688 16.688c0.25579 0.073 0.5304 0.13458 0.78125 0.21875l16.907-16.91h-1zm3 0-17.469 17.469c0.22713 0.1 0.43429 0.2348 0.65625 0.3438l17.813-17.75h-1zm3 0-18.5 18.5c0.20787 0.125 0.42288 0.2416 0.625 0.375l18.875-18.95h-1zm3 0-19.719 19.719c0.18661 0.146 0.38209 0.2842 0.5625 0.4375l20.156-20.15h-1zm3 0-21.125 21.125c0.16589 0.166 0.34086 0.3274 0.5 0.5l21.625-21.65h-1zm3 0-22.719 22.719c0.14764 0.1885 0.29755 0.368 0.4375 0.5625l23.219-23.219c-0.30265-0.0467-0.62138-0.0625-0.9375-0.0625zm2.4688 0.53125l-23.969 23.92c0.12689 0.2113 0.22566 0.4393 0.34375 0.6562l24.281-24.28c-0.21164-0.12898-0.42827-0.24132-0.65625-0.34375zm-77.062 0.0625c-1.2346 0.58962-2.2229 1.5779-2.8125 2.8125l2.8125-2.8125zm78.844 1.1562-24.75 24.75c0.10048 0.2295 0.22172 0.4529 0.3125 0.6875l24.906-24.906c-0.14571-0.18471-0.30263-0.36513-0.46875-0.53125zm1.2188 1.7812-24.812 24.812c0.40385-0.077 0.80635-0.1678 1.2188-0.2187l23.844-23.844c-0.0756-0.25338-0.1431-0.51208-0.25-0.75zm0.527 2.47-22 21.95c0.32522 0 0.64783 0.014 0.96875 0.031l21.031-20.95v-1zm0 3-19.219 19.219c0.28251 0.044 0.56579 0.099 0.84375 0.1563l18.375-18.45v-1zm0 3-16.781 16.781c0.25445 0.077 0.50048 0.162 0.75 0.25l16.031-15.95v-1zm0 3-14.594 14.594c0.22875 0.1037 0.46399 0.1996 0.6875 0.3125l13.906-13.85v-1zm0 3-12.625 12.625c0.20717 0.127 0.39223 0.2712 0.59375 0.4062l12.031-12v-1zm0 3-10.875 10.875c0.18536 0.1468 0.35191 0.3149 0.53125 0.4687l10.344-10.4v-1zm0 3-9.2812 9.2812c0.16483 0.1655 0.31041 0.3596 0.46875 0.5313l8.8125-8.8125v-1zm-57.531 0.5312-3.5 3.5c0.34129-0.019 0.68507-0.031 1.0312-0.031l1.4375-1.4375c0.30077-0.6957 0.64633-1.386 1.0312-2.0313zm57.531 2.4688-7.875 7.875c0.14727 0.1875 0.29761 0.3691 0.4375 0.5625l7.4375-7.4375v-1zm0 3-6.6562 6.6562c0.12725 0.2091 0.25613 0.4104 0.375 0.625l6.2812-6.2812v-1zm0 3-5.625 5.625c0.10254 0.2281 0.21927 0.4545 0.3125 0.6875l5.3125-5.3125v-1zm-74.75 2.75-9.25 9.25v1l7.8125-7.8125c0.41234-0.856 0.9006-1.6633 1.4375-2.4375zm74.75 0.25-4.8125 4.8125c0.0783 0.2594 0.15198 0.517 0.21875 0.7812l4.5938-4.5937v-1zm0 3-5.125 5.125c-0.2069 0.5704-0.42642 1.1455-0.6875 1.6875l5.8125-5.8125v-1zm-77.344 2.3437-6.6562 6.6563v1l6.5938-6.5938c-0.035-0.1383-0.0932-0.2666-0.125-0.4062 0.051-0.2243 0.12824-0.4353 0.1875-0.6563zm77.344 0.6563-42 42h1l41-41v-1zm-76.938 1.9375-7.0625 7.0625v1l7.3125-7.3125c-0.0966-0.2415-0.16364-0.5036-0.25-0.75zm76.938 1.0625-39 39h1l38-38v-1zm-76.062 1.0625-7.9375 7.9375v1l8.2812-8.2813c-0.12033-0.2172-0.23224-0.4336-0.34375-0.6562zm1.0938 1.9062-9.0312 9.0313v1l9.4375-9.4375c-0.13897-0.1921-0.27477-0.3961-0.40625-0.5938zm74.969 0.031-36 36h1l35-35v-1zm-73.656 1.6562-10.344 10.344v1l10.812-10.812c-0.16076-0.1744-0.31489-0.3507-0.46875-0.5313zm73.656 1.3438-33 33h1l32-32v-1zm-72.219 0.2187-11.781 11.781v1l12.344-12.344c-0.18047-0.1548-0.38834-0.2757-0.5625-0.4375zm1.6562 1.3438-13.438 13.438v1l14.031-14.031c-0.19978-0.1338-0.39974-0.2646-0.59375-0.4062zm1.8125 1.1875-15.25 15.25v1l15.906-15.906c-0.2193-0.1107-0.44222-0.2243-0.65625-0.3437zm68.75 0.25-30 30h1l29-29v-1zm-14.25 0.25c-0.53586 0.2566-1.0925 0.484-1.6562 0.6875h-0.0312l-29.063 29.062h1l29.75-29.75zm-52.438 0.4375-17.312 17.312v1l18.031-18.031c-0.24353-0.086-0.48018-0.1852-0.71875-0.2812zm2.25 0.75-19.562 19.562v1l20.375-20.375c-0.26898-0.055-0.54808-0.1204-0.8125-0.1875zm45.75 0.25c-0.39367 0.074-0.78518 0.14-1.1875 0.1875l-28.125 28.125h1l28.312-28.312zm-43.219 0.2187l-22.1 22.2c0 0.3161 0.0158 0.6348 0.0625 0.9375l22.969-22.969c-0.31432-0.017-0.62771-0.03-0.9375-0.063zm2.9062 0.094-24.469 24.469c0.10243 0.228 0.21477 0.4446 0.34375 0.6563l25.125-25.125h-1zm3 0-26.25 26.25c0.16612 0.1661 0.34654 0.323 0.53125 0.4687l26.71-26.7h-1zm3 0-27.469 27.469c0.23792 0.1069 0.49662 0.1744 0.75 0.25l27.71-27.6h-1zm3 0-28 28h1l28-28h-1zm3 0-28 28h1l28-28h-1zm3 0-28 28h1l28-28h-1zm3 0-28 28h1l28-28h-1zm3 0-28 28h1l28-28h-1zm3 0-28 28h1l28-28h-1zm3 0-28 28h1l28-28h-1zm3 0-28 28h1l28-28h-1zm3 0-28 28h1l28-28h-1zm3 0-28 28h1l28-28h-1zm23 1-27 27h1l26-26v-1zm0 3-24 24h1l23-23v-1zm0 3-21 21h1l20-20v-1zm0 3-18 18h1l17-17v-1zm0 3-15 15h1l14-14v-1zm0 3-12 12h1l11-11v-1zm0 3-9 9h1l8-8v-1zm0 3-6 6c0.37114 0 0.74159-0.03 1.0938-0.094l4.8125-4.8125c0.0639-0.3522 0.09375-0.7227 0.09375-1.0938z"/>
   <path id="path4872" d="m-108.16 1017.9a0.9791 0.9791 0 0 0 -0.8125 0.9688v16a0.9791 0.9791 0 0 0 1.4688 0.8437l13-8a0.9791 0.9791 0 0 0 0 -1.6875l-13-8a0.9791 0.9791 0 0 0 -0.65625 -0.125z" fill="#fff"/>
   <path id="path4868" fill="#f5954e" d="m-108 1034.8v-16l13 8z"/>
   <path id="path4874" opacity=".4" d="m44 58v-16l13 8z" clip-path="url(#clipPath4882)" transform="translate(-152 976.85)" filter="url(#filter4890)" stroke="#000" fill="none"/>
  </g>
  <rect id="rect3873" rx="6" ry="6" height="84" width="84" display="none" y="947.34" x="107.91" fill="url(#linearGradient4982)"/>
  <rect id="rect3880" rx="6" ry="6" height="84" width="84" display="none" y="947.34" x="107.91" fill="url(#linearGradient4982)"/>
  <path id="rect5265-0" d="m5.4316 1029.8v5.0663c0 6.668 5.3645 12.032 12.032 12.032h61.049c6.668 0 12.032-5.3645 12.032-12.032v-5.0663c0 6.6681-5.3645 12.032-12.032 12.032h-61.049c-6.668 0-12.032-5.3643-12.032-12.032z" fill-opacity=".23529"/>
  <path id="path5252-0" d="m5.4316 1033.9v1.0133c0 6.668 5.3645 12.032 12.032 12.032h61.049c6.668 0 12.032-5.3645 12.032-12.032v-1.0133c0 6.6681-5.3645 12.032-12.032 12.032h-61.049c-6.668 0-12.032-5.3644-12.032-12.032z" fill-opacity=".098039"/>
 </g>
</svg>
