<?xml version="1.0" encoding="UTF-8" standalone="no"?>
<!-- Created with Inkscape (http://www.inkscape.org/) -->
<svg id="svg2" xmlns:rdf="http://www.w3.org/1999/02/22-rdf-syntax-ns#" xmlns="http://www.w3.org/2000/svg" height="96" width="96" version="1.1" xmlns:cc="http://creativecommons.org/ns#" xmlns:xlink="http://www.w3.org/1999/xlink" xmlns:dc="http://purl.org/dc/elements/1.1/">
 <defs id="defs4">
  <linearGradient id="linearGradient3700-0">
   <stop id="stop3702-2" stop-color="#70a83e" offset="0"/>
   <stop id="stop3704-9" stop-color="#9fd058" offset="1"/>
  </linearGradient>
  <linearGradient id="linearGradient4982" y2="5.9877" xlink:href="#linearGradient3700-0" gradientUnits="userSpaceOnUse" x2="48" gradientTransform="translate(101.91 941.34)" y1="90" x1="48"/>
  <clipPath id="clipPath3613-39">
   <rect id="rect3615-691" rx="6" ry="6" height="84" width="84" y="6" x="6" fill="#fff"/>
  </clipPath>
  <filter id="filter3794-21" height="1.384" width="1.384" color-interpolation-filters="sRGB" y="-.192" x="-.192">
   <feGaussianBlur id="feGaussianBlur3796-15" stdDeviation="5.28"/>
  </filter>
  <linearGradient id="linearGradient32004" y2="5.9877" gradientUnits="userSpaceOnUse" x2="48" gradientTransform="translate(0,-96)" y1="90" x1="48">
   <stop id="stop3678-8" stop-color="#abc669" offset="0"/>
   <stop id="stop3680-2" stop-color="#abc622" offset="1"/>
  </linearGradient>
  <clipPath id="clipPath32006" clipPathUnits="userSpaceOnUse">
   <path id="path32008" d="m22.618 8.6975c-6.0553 0-10.926 5.0071-10.926 11.196v56.648c0 5.0285 3.2085 9.2649 7.6622 10.674h61.922c4.2816-1.3522 7.421-5.3219 7.6622-10.094v-57.808c-0.292-5.92-5.031-10.616-10.897-10.616h-55.423z" fill="url(#linearGradient32010)"/>
  </clipPath>
  <linearGradient id="linearGradient32010" y2="5.9877" gradientUnits="userSpaceOnUse" x2="48" gradientTransform="matrix(1.027 0 0 1.0497 -.86018 -6.6105)" y1="90" x1="48">
   <stop id="stop3616-56" stop-color="#65a31b" offset="0"/>
   <stop id="stop3618-2" stop-color="#a0de42" offset="1"/>
  </linearGradient>
  <linearGradient id="linearGradient32023" y2="138.66" gradientUnits="userSpaceOnUse" x2="48" y1="20.221" x1="48">
   <stop id="stop3739-88" stop-color="#fff" offset="0"/>
   <stop id="stop3741-87" stop-color="#fff" stop-opacity="0" offset="1"/>
  </linearGradient>
  <linearGradient id="linearGradient32025" y2="80" gradientUnits="userSpaceOnUse" x2="48" gradientTransform="translate(-10.83 935.36)" y1="8" x1="48">
   <stop id="stop3846" stop-color="#9cbc4d" offset="0"/>
   <stop id="stop3848" stop-color="#869b1b" offset="1"/>
  </linearGradient>
 </defs>
 <metadata id="metadata7">
  <rdf:RDF>
   <cc:Work rdf:about="">
    <dc:format>image/svg+xml</dc:format>
    <dc:type rdf:resource="http://purl.org/dc/dcmitype/StillImage"/>
    <dc:title/>
   </cc:Work>
  </rdf:RDF>
 </metadata>
 <g id="layer1" transform="translate(0 -956.36)">
  <rect id="rect5261-6" fill-opacity=".039216" ry="12.552" height="88.762" width="88.762" y="959.96" x="3.6078"/>
  <rect id="rect5259-9" fill-opacity=".078431" ry="12.38" height="87.546" width="87.546" y="960.57" x="4.2157"/>
  <rect id="rect5257-5" fill-opacity=".15686" ry="12.208" height="86.33" width="86.33" y="961.18" x="4.8237"/>
  <g id="layer1-3" clip-path="url(#clipPath32006)" transform="matrix(1.1012 0 0 1.0774 -7.4375 952.4)">
   <rect id="rect2419" transform="scale(1,-1)" rx="6" ry="6" height="84" width="84" y="-90" x="6" fill="url(#linearGradient32004)"/>
  </g>
  <rect id="rect3873" rx="6" ry="6" height="84" width="84" display="none" y="947.34" x="107.91" fill="url(#linearGradient4982)"/>
  <rect id="rect3880" rx="6" ry="6" height="84" width="84" display="none" y="947.34" x="107.91" fill="url(#linearGradient4982)"/>
  <path id="rect5265-0" d="m5.4316 1029.8v5.0663c0 6.668 5.3645 12.032 12.032 12.032h61.049c6.668 0 12.032-5.3645 12.032-12.032v-5.0663c0 6.6681-5.3645 12.032-12.032 12.032h-61.049c-6.668 0-12.032-5.3643-12.032-12.032z" fill-opacity=".23529"/>
  <path id="path5252-0" d="m5.4316 1033.9v1.0133c0 6.668 5.3645 12.032 12.032 12.032h61.049c6.668 0 12.032-5.3645 12.032-12.032v-1.0133c0 6.6681-5.3645 12.032-12.032 12.032h-61.049c-6.668 0-12.032-5.3644-12.032-12.032z" fill-opacity=".098039"/>
  <g id="g32012" transform="translate(9.5,21.25)">
   <g id="layer5" transform="translate(-10.83 935.36)">
    <rect id="rect3171" height="66" stroke="#fff" stroke-linecap="round" stroke-width=".5" fill="url(#linearGradient32023)" rx="12" ry="12" width="66" opacity=".1" clip-path="url(#clipPath3613-39)" filter="url(#filter3794-21)" y="15" x="15"/>
   </g>
   <path id="path3749" style="color:#000000" d="m45.013 944.55c-24.207 0-43.844 16.533-43.844 36.938 1.1508-15.389 14.996-27.531 31.906-27.531 17.664 0 32 13.236 32 29.594 0 16.357-14.336 29.625-32 29.625-7.9875 0-15.27-2.7042-20.875-7.1875 8.0295 7.6327 19.758 12.438 32.812 12.438 13.816 0 26.123-5.3898 34.156-13.812v-46.25c-8.032-8.41-20.336-13.8-34.155-13.8zm-18.281 15.812c-13.482 0-24.406 10.259-24.406 22.906 0 12.648 10.925 22.875 24.406 22.875 13.482 0 24.438-10.228 24.438-22.875 0-12.648-10.956-22.906-24.438-22.906zm0 4.375c11.188 0 20.281 8.312 20.281 18.531s-9.093 18.5-20.281 18.5-20.25-8.2808-20.25-18.5 9.0617-18.531 20.25-18.531zm-1.6875 7.875c-6.534 0-11.844 4.7834-11.844 10.656 0 5.8729 5.3097 10.625 11.844 10.625 6.534 0 11.812-4.7521 11.812-10.625s-5.2785-10.656-11.812-10.656zm0 3.1875c4.5779 0 8.2812 3.3541 8.2812 7.4688 0 4.1146-3.7034 7.4375-8.2812 7.4375-4.5779 0-8.3125-3.3228-8.3125-7.4375 0-4.1146 3.7346-7.4688 8.3125-7.4688z" fill="url(#linearGradient32025)"/>
   <path id="path3787" opacity=".2" style="color:#000000" d="m45.013 943.55c-24.207 0-43.844 16.533-43.844 36.938 0.01098-0.1469 0.04921-0.2912 0.0625-0.4375 0.89584-19.739 20.145-35.5 43.781-35.5 13.819 0 26.123 5.3942 34.156 13.812v-1c-8.032-8.42-20.336-13.81-34.155-13.81zm-18.281 15.812c-13.482 0-24.406 10.259-24.406 22.906 0 0.1663-0.0038 0.33456 0 0.5 0.28208-12.418 11.102-22.406 24.406-22.406s24.155 9.9884 24.438 22.406c0.0038-0.16544 0-0.3337 0-0.5 0-12.648-10.956-22.906-24.438-22.906zm-1.6875 12.25c-6.534 0-11.844 4.7834-11.844 10.656 0 0.16785 0.02267 0.33407 0.03125 0.5 0.29159-5.6416 5.4652-10.156 11.812-10.156 6.3473 0 11.491 4.5147 11.781 10.156 0.0085-0.16593 0.03125-0.33215 0.03125-0.5 0-5.8729-5.2785-10.656-11.812-10.656zm-18.531 11.156c-0.005 0.16939-0.03125 0.32952-0.03125 0.5 0 10.219 9.0617 18.5 20.25 18.5s20.281-8.2808 20.281-18.5c0-0.17048-0.02622-0.33061-0.03125-0.5-0.29642 9.9834-9.2484 18-20.25 18s-19.923-8.0167-20.219-18zm10.25 0c-0.01278 0.16876-0.03125 0.32841-0.03125 0.5 0 4.1146 3.7346 7.4375 8.3125 7.4375s8.2812-3.3228 8.2812-7.4375c0-0.17159-0.01857-0.33124-0.03125-0.5-0.29129 3.8756-3.863 6.9375-8.25 6.9375s-7.9876-3.062-8.2812-6.9375zm48.312 0.28125c-0.28834 16.127-14.516 29.125-32 29.125-7.9875 0-15.27-2.7042-20.875-7.1875 1.9485 1.8522 4.1185 3.5404 6.4688 5.0313 4.3273 2.0288 9.2173 3.1562 14.406 3.1562 17.664 0 32-13.268 32-29.625 0-0.16684 0.003-0.33382 0-0.5z"/>
   <path id="path3796" opacity=".2" style="color:#000000" d="m45.013 944.55c-24.207 0-43.844 16.533-43.844 36.938 0.01098-0.1469 0.04921-0.2912 0.0625-0.4375 0.89584-19.739 20.145-35.5 43.781-35.5 13.819 0 26.123 5.3942 34.156 13.812v-1c-8.032-8.42-20.336-13.81-34.155-13.81zm-18.281 15.812c-13.482 0-24.406 10.259-24.406 22.906 0 0.1663-0.0038 0.33456 0 0.5 0.28208-12.418 11.102-22.406 24.406-22.406s24.155 9.9884 24.438 22.406c0.0038-0.16544 0-0.3337 0-0.5 0-12.648-10.956-22.906-24.438-22.906zm-1.6875 12.25c-6.534 0-11.844 4.7834-11.844 10.656 0 0.16785 0.02267 0.33407 0.03125 0.5 0.29159-5.6416 5.4652-10.156 11.812-10.156 6.3473 0 11.491 4.5147 11.781 10.156 0.0085-0.16593 0.03125-0.33215 0.03125-0.5 0-5.8729-5.2785-10.656-11.812-10.656zm-18.531 11.156c-0.005 0.16939-0.03125 0.32952-0.03125 0.5 0 10.219 9.0617 18.5 20.25 18.5s20.281-8.2808 20.281-18.5c0-0.17048-0.02622-0.33061-0.03125-0.5-0.29642 9.9834-9.2484 18-20.25 18s-19.923-8.0167-20.219-18zm10.25 0c-0.01278 0.16876-0.03125 0.32841-0.03125 0.5 0 4.1146 3.7346 7.4375 8.3125 7.4375s8.2812-3.3228 8.2812-7.4375c0-0.17159-0.01857-0.33124-0.03125-0.5-0.29129 3.8756-3.863 6.9375-8.25 6.9375s-7.9876-3.062-8.2812-6.9375zm48.312 0.28125c-0.28834 16.127-14.516 29.125-32 29.125-7.9875 0-15.27-2.7042-20.875-7.1875 1.9485 1.8522 4.1185 3.5404 6.4688 5.0313 4.3273 2.0288 9.2173 3.1562 14.406 3.1562 17.664 0 32-13.268 32-29.625 0-0.16684 0.003-0.33382 0-0.5z"/>
   <path id="path3798" opacity=".4" style="color:#000000" d="m33.076 953.96c-16.749 0-30.465 11.914-31.844 27.094-0.02163 0.47655-0.0625 0.95648-0.0625 1.4375 1.1508-15.389 14.996-27.531 31.906-27.531 17.484 0 31.712 12.967 32 29.094 0.003-0.16619 0-0.33316 0-0.5 0-16.357-14.336-29.594-32-29.594zm-6.3438 10.781c-11.188 0-20.25 8.312-20.25 18.531 0 0.17049 0.02624 0.33062 0.03125 0.5 0.29541-9.9844 9.2171-18.031 20.219-18.031s19.954 8.0469 20.25 18.031c0.005-0.16938 0.03125-0.32951 0.03125-0.5 0-10.219-9.093-18.531-20.281-18.531zm-1.6875 11.062c-4.5779 0-8.3125 3.3541-8.3125 7.4688 0 0.17159 0.01847 0.33135 0.03125 0.5 0.29368-3.878 3.8943-6.9688 8.2812-6.9688 4.387 0 7.9587 3.0908 8.25 6.9688 0.01268-0.16865 0.03125-0.32841 0.03125-0.5 0-4.1146-3.7034-7.4688-8.2812-7.4688zm-22.719 7.9688c-0.0038 0.16546 0 0.3337 0 0.5 0 12.648 10.925 22.875 24.406 22.875 13.482 0 24.438-10.228 24.438-22.875 0-0.1663 0.0038-0.33454 0-0.5-0.28288 12.417-11.133 22.375-24.438 22.375-13.304 0-24.124-9.958-24.406-22.375zm10.906 0c-0.0086 0.16598-0.03125 0.33215-0.03125 0.5 0 5.8729 5.3097 10.625 11.844 10.625 6.534 0 11.812-4.7521 11.812-10.625 0-0.16785-0.02272-0.33402-0.03125-0.5-0.2899 5.6399-5.434 10.125-11.781 10.125-6.3473 0-11.521-4.4851-11.812-10.125zm65.938 20.844c-8.0336 8.4227-20.34 13.812-34.156 13.812-9.8864 0-19.009-2.7533-26.344-7.4062-2.3338-1.0943-4.505-2.4605-6.4688-4.0313 8.0295 7.6327 19.758 12.438 32.812 12.438 13.816 0 26.123-5.3898 34.156-13.812v-1z" fill="#fff"/>
   <path id="path3821" opacity=".05" style="color:#000000" d="m45.013 944.55c-24.207 0-43.844 16.533-43.844 36.938 1.1508-15.389 14.996-27.531 31.906-27.531 17.664 0 32 13.236 32 29.594 0 16.357-14.336 29.625-32 29.625-7.9875 0-15.27-2.7042-20.875-7.1875 8.0295 7.6327 19.758 12.438 32.812 12.438 13.816 0 26.123-5.3898 34.156-13.812v-3.5l-2.8125 2.125v0.094c-7.4693 7.4122-18.664 12.281-31.344 12.281-1.5341 0-2.9796-0.2695-4.4688-0.4063 15.541-3.1913 27.344-16.072 27.344-31.656 0-18.006-15.739-32.406-34.812-32.406-3.2757 0-6.3907 0.54948-9.4062 1.3438 6.2058-3.1702 13.454-5.125 21.344-5.125 12.574 0 23.687 4.7895 31.156 12.094v-0.0937l3 3v-4c-8.033-8.4-20.337-13.79-34.156-13.79zm-18.281 15.812c-13.482 0-24.406 10.259-24.406 22.906 0 12.648 10.925 22.875 24.406 22.875 13.482 0 24.438-10.228 24.438-22.875 0-12.648-10.956-22.906-24.438-22.906zm0 4.375c11.188 0 20.281 8.312 20.281 18.531s-9.093 18.5-20.281 18.5-20.25-8.2808-20.25-18.5 9.0617-18.531 20.25-18.531zm-1.6875 7.875c-6.534 0-11.844 4.7834-11.844 10.656 0 5.8729 5.3097 10.625 11.844 10.625 6.534 0 11.812-4.7521 11.812-10.625s-5.2785-10.656-11.812-10.656zm0 3.1875c4.5779 0 8.2812 3.3541 8.2812 7.4688 0 4.1146-3.7034 7.4375-8.2812 7.4375-4.5779 0-8.3125-3.3228-8.3125-7.4375 0-4.1146 3.7346-7.4688 8.3125-7.4688z"/>
   <path id="path3807" opacity=".15" style="color:#000000" d="m45.013 944.55c-24.207 0-43.844 16.533-43.844 36.938 1.1508-15.389 14.996-27.531 31.906-27.531 17.664 0 32 13.236 32 29.594 0 16.357-14.336 29.625-32 29.625-7.9875 0-15.27-2.7042-20.875-7.1875 8.0295 7.6327 19.758 12.438 32.812 12.438 13.816 0 26.123-5.3898 34.156-13.812v-0.8125l-3 2.5625v-0.094c-7.814 6.9288-18.857 11.281-31.156 11.281-7.7224 0-14.837-1.8558-21.094-4.8438 2.9179 0.7887 5.9626 1.3438 9.1562 1.3438 18.095 0 32.875-13.64 32.875-30.5s-14.781-30.469-32.875-30.469c-10.744 0-20.283 4.8234-26.281 12.25 7.0721-11.739 21.408-19.906 38.219-19.906 12.302 0 23.343 4.3549 31.156 11.281v-0.34375l1.75 2c0.11962 0.11987 0.25722 0.22257 0.375 0.34375v0.0625l0.875 1v-1.4062c-8.032-8.46-20.336-13.85-34.155-13.85zm-18.281 15.812c-13.482 0-24.406 10.259-24.406 22.906 0 12.648 10.925 22.875 24.406 22.875 13.482 0 24.438-10.228 24.438-22.875 0-12.648-10.956-22.906-24.438-22.906zm0 0.875c13.045 0 23.562 9.8808 23.562 22.031s-10.516 22-23.562 22-23.531-9.8482-23.531-22 10.486-22.031 23.531-22.031zm0 2.625c-11.615 0-21.125 8.6782-21.125 19.406s9.512 19.375 21.125 19.375 21.156-8.6452 21.156-19.375-9.5416-19.406-21.156-19.406zm0 0.875c11.188 0 20.281 8.312 20.281 18.531s-9.093 18.5-20.281 18.5-20.25-8.2808-20.25-18.5 9.0617-18.531 20.25-18.531zm-1.6875 7.875c-6.534 0-11.844 4.7834-11.844 10.656 0 5.8729 5.3097 10.625 11.844 10.625 6.534 0 11.812-4.7521 11.812-10.625s-5.2785-10.656-11.812-10.656zm0 0.875c6.1139 0 10.938 4.4242 10.938 9.7812 0 5.3571-4.8208 9.75-10.938 9.75-6.1167 0-10.969-4.396-10.969-9.75s4.8548-9.7812 10.969-9.7812zm0 1.4375c-4.9983 0-9.1875 3.7082-9.1875 8.3438 0 4.6355 4.1931 8.3125 9.1875 8.3125s9.1562-3.6814 9.1562-8.3125c0-4.6312-4.1579-8.3438-9.1562-8.3438zm0 0.875c4.5779 0 8.2812 3.3541 8.2812 7.4688 0 4.1146-3.7034 7.4375-8.2812 7.4375-4.5779 0-8.3125-3.3228-8.3125-7.4375 0-4.1146 3.7346-7.4688 8.3125-7.4688z"/>
   <path id="path3814" opacity=".1" style="color:#000000" d="m45.013 944.55c-24.207 0-43.844 16.533-43.844 36.938 1.1508-15.389 14.996-27.531 31.906-27.531 17.664 0 32 13.236 32 29.594 0 16.357-14.336 29.625-32 29.625-7.9875 0-15.27-2.7042-20.875-7.1875 8.0295 7.6327 19.758 12.438 32.812 12.438 13.816 0 26.123-5.3898 34.156-13.812v-2.5937l-1.9375 1.5v0.1875c-7.6458 7.7302-19.178 12.781-32.219 12.781-3.9253 0-7.6517-0.5949-11.25-1.4375 18.315-0.3489 33.25-14.23 33.25-31.5 0-17.491-15.305-31.531-33.938-31.531-6.3781 0-12.322 1.6976-17.438 4.5625 7.5375-6.2138 17.861-10.094 29.375-10.094 13.043 0 24.573 5.0544 32.219 12.781v0.21875l1.9375 2v-3.125c-8.03-8.41-20.334-13.8-34.153-13.8zm-18.281 15.812c-13.482 0-24.406 10.259-24.406 22.906 0 12.648 10.925 22.875 24.406 22.875 13.482 0 24.438-10.228 24.438-22.875 0-12.648-10.956-22.906-24.438-22.906zm0 1.9375c12.498 0 22.5 9.4412 22.5 20.969s-9.9991 20.938-22.5 20.938-22.469-9.4068-22.469-20.938 9.9709-20.969 22.469-20.969zm0 0.5c-12.149 0-22.188 9.103-22.188 20.469s10.042 20.438 22.188 20.438c12.145 0 22.219-9.0679 22.219-20.438s-10.07-20.469-22.219-20.469zm0 1.9375c11.188 0 20.281 8.312 20.281 18.531s-9.093 18.5-20.281 18.5-20.25-8.2808-20.25-18.5 9.0617-18.531 20.25-18.531zm-1.6875 7.875c-6.534 0-11.844 4.7834-11.844 10.656 0 5.8729 5.3097 10.625 11.844 10.625 6.534 0 11.812-4.7521 11.812-10.625s-5.2785-10.656-11.812-10.656zm0 3.1875c4.5779 0 8.2812 3.3541 8.2812 7.4688 0 4.1146-3.7034 7.4375-8.2812 7.4375-4.5779 0-8.3125-3.3228-8.3125-7.4375 0-4.1146 3.7346-7.4688 8.3125-7.4688z"/>
  </g>
 </g>
</svg>
