<?xml version="1.0" encoding="UTF-8" standalone="no"?>
<!-- Created with Inkscape (http://www.inkscape.org/) -->
<svg id="svg2" xmlns:rdf="http://www.w3.org/1999/02/22-rdf-syntax-ns#" xmlns="http://www.w3.org/2000/svg" height="96" width="96" version="1.1" xmlns:cc="http://creativecommons.org/ns#" xmlns:xlink="http://www.w3.org/1999/xlink" xmlns:dc="http://purl.org/dc/elements/1.1/">
 <defs id="defs4">
  <linearGradient id="linearGradient3700-09">
   <stop id="stop3702-67" stop-color="#70a83e" offset="0"/>
   <stop id="stop3704-18" stop-color="#9fd058" offset="1"/>
  </linearGradient>
  <linearGradient id="linearGradient9745" y2="5.9877" xlink:href="#linearGradient3700-09" gradientUnits="userSpaceOnUse" x2="48" gradientTransform="translate(-169.06 968.2)" y1="90" x1="48"/>
  <linearGradient id="linearGradient3613-03" y2="138.66" gradientUnits="userSpaceOnUse" x2="48" y1="20.221" x1="48">
   <stop id="stop3739-20" stop-color="#fff" offset="0"/>
   <stop id="stop3741-32" stop-color="#fff" stop-opacity="0" offset="1"/>
  </linearGradient>
  <clipPath id="clipPath3613-36">
   <rect id="rect3615-89" rx="6" ry="6" height="84" width="84" y="6" x="6" fill="#fff"/>
  </clipPath>
  <filter id="filter3794-79" height="1.384" width="1.384" color-interpolation-filters="sRGB" y="-.192" x="-.192">
   <feGaussianBlur id="feGaussianBlur3796-80" stdDeviation="5.28"/>
  </filter>
  <linearGradient id="linearGradient3798" y2="32" gradientUnits="userSpaceOnUse" x2="56" gradientTransform="translate(-1,-1)" y1="80" x1="56">
   <stop id="stop3794-3" stop-color="#b9da5b" offset="0"/>
   <stop id="stop3796-3" stop-color="#a3ce27" offset="1"/>
  </linearGradient>
  <radialGradient id="radialGradient3740-5" gradientUnits="userSpaceOnUse" cy="28.079" cx="64" gradientTransform="matrix(1.1046 4.1739e-8 -8.2848e-8 2.1926 -6.6969 -37.566)" r="14.484">
   <stop id="stop3709-3" stop-color="#595553" offset="0"/>
   <stop id="stop3711-5" stop-color="#2f2a27" offset="1"/>
  </radialGradient>
  <radialGradient id="radialGradient3742" gradientUnits="userSpaceOnUse" cy="44" cx="44" r="2">
   <stop id="stop3721-30" stop-color="#fff" offset="0"/>
   <stop id="stop3727-2" stop-color="#fff" offset=".78125"/>
   <stop id="stop3723-10" stop-color="#fff" stop-opacity="0" offset="1"/>
  </radialGradient>
  <linearGradient id="linearGradient32481" y2="5.9877" gradientUnits="userSpaceOnUse" y1="90" gradientTransform="matrix(1.0774 0 0 1.0403 -2.5979 -2.6874)" x2="48" x1="48">
   <stop id="stop2885-3" stop-color="#0075ab" offset="0"/>
   <stop id="stop2887" stop-color="#08b1ff" offset="1"/>
  </linearGradient>
 </defs>
 <metadata id="metadata7">
  <rdf:RDF>
   <cc:Work rdf:about="">
    <dc:format>image/svg+xml</dc:format>
    <dc:type rdf:resource="http://purl.org/dc/dcmitype/StillImage"/>
    <dc:title/>
   </cc:Work>
  </rdf:RDF>
 </metadata>
 <g id="layer1" transform="translate(0 -956.36)">
  <rect id="rect5263-0" fill-opacity=".019608" ry="12.724" height="89.978" width="89.624" y="959.35" x="3.3534"/>
  <rect id="rect5261-6" fill-opacity=".039216" ry="12.552" height="88.762" width="88.413" y="959.96" x="3.9589"/>
  <rect id="rect5259-9" fill-opacity=".078431" ry="12.38" height="87.546" width="87.202" y="960.57" x="4.5645"/>
  <rect id="rect5257-5" fill-opacity=".15686" ry="12.208" height="86.33" width="85.991" y="961.18" x="5.1701"/>
  <path id="rect2419-4" d="m17.75 5.4062c-6.642 0-11.969 5.3948-11.969 12.063l0.0002 61.031c0 6.668 5.3268 12.031 11.969 12.031h60.812c6.642 0 11.969-5.363 11.969-12.031v-61.031c0-6.668-5.327-12.063-11.969-12.063l-60.812 0.0002z" transform="translate(0 956.36)" fill="url(#linearGradient32481)"/>
  <path id="rect5265-0" d="m5.7756 1029.8v5.0663c0 6.668 5.3434 12.032 11.985 12.032h60.809c6.6418 0 11.985-5.3645 11.985-12.032v-5.0663c0 6.6681-5.3434 12.032-11.985 12.032h-60.809c-6.6418 0-11.985-5.3643-11.985-12.032z" fill-opacity="0.17"/>
  <path id="path5252-0" d="m5.7756 1033.9v1.0133c0 6.668 5.3434 12.032 11.985 12.032h60.809c6.6418 0 11.985-5.3645 11.985-12.032v-1.0133c0 6.6681-5.3434 12.032-11.985 12.032h-60.809c-6.6418 0-11.985-5.3644-11.985-12.032z" fill-opacity=".098039"/>
  <rect id="rect4772" display="none" height="107.79" width="107.79" y="971.68" x="-369.64" fill="none"/>
  <g id="g4788" display="none" transform="matrix(.21052 0 0 .21052 -369.68 971.63)"></g>
  <g id="g4806" display="none" transform="matrix(.21052 0 0 .21052 -369.68 971.63)">
   <g id="g4808" display="inline">
    <path id="path4810" d="m349.1 256.65c-0.265-0.254 37.637 27.605 39.421 25.012 6.362-9.252 82.046-93.137 84.784-116.24 0.242-2.003-0.516-4.096-0.516-4.096s-1.19-0.144-6.325-4.314c-2.692-2.192-5.483-4.581-5.483-4.581-16.054 0.998-57.885 41.559-111.06 103.57" fill="#050505" display="none"/>
   </g>
  </g>
  <g id="g4796" transform="matrix(.21052 0 0 .21052 -369.68 971.63)"></g>
  <rect id="rect3873" rx="6" ry="6" height="84" width="84" display="none" y="974.2" x="-163.06" fill="url(#linearGradient9745)"/>
  <rect id="rect3880" rx="6" ry="6" height="84" width="84" display="none" y="974.2" x="-163.06" fill="url(#linearGradient9745)"/>
  <g id="layer5-9" transform="translate(89.227 947.32)">
   <rect id="rect3171-9" height="66" stroke="#fff" stroke-linecap="round" stroke-width=".5" fill="url(#linearGradient3613-03)" rx="12" ry="12" width="66" opacity=".1" clip-path="url(#clipPath3613-36)" filter="url(#filter3794-79)" y="15" x="15"/>
  </g>
  <g id="layer4" transform="matrix(.74933 .70974 -.70974 .74933 44.299 930.44)">
   <path id="path3812" opacity="0.08" style="color:#000000" d="m45.688 10.094c-1.9466 0.21034-2.9209 2.2376-2.5938 4.0625-0.06329 3.4352 0.12608 7.0526-0.09375 10.375-9.4749 1.3761-17.486 9.2978-19.344 18.562-0.95236 4.0449-0.70058 9.3221 1.0284 13.531 3.2773 8.7455 12.061 15.066 21.409 15.313 0.07008 4.5572-0.13537 9.152 0.09375 13.688 1.6275-0.29181-0.44188-0.17144 0.25 0.6875 0.81237 1.759 3.1004 1.856 4.738 1.2653 11.278-1.999 20.169-12.856 19.7-24.329 0.037-11.875 0.083-23.785-0.024-35.67-0.539-9.8-9.726-18.039-19.533-17.486h-5.6302zm0.5 75.531c-1.146-2.139-2.569-4.817-3.821-7.163-14.123-26.487-28.245-52.975-42.367-79.462l46.188 86.625z"/>
   <path id="path3808" opacity=".1" style="color:#000000" d="m45.781 12a0.98812 0.98812 0 0 0 -0.156 0.031c-0.000121 0.000022-0.15613 0.03122-0.15625 0.03125-0.000118 0.000033-0.15614 0.06246-0.15625 0.0625-0.000115 0.000043-0.18739 0.06245-0.1875 0.0625-0.000111 0.000053-0.15614 0.09369-0.15625 0.09375-0.000106 0.000063-0.1249 0.09368-0.125 0.09375-0.0001 0.000072-0.15616 0.09367-0.15625 0.09375-0.000093 0.00008-0.12491 0.12491-0.125 0.125-0.000086 0.000088-0.09367 0.1249-0.09375 0.125-0.000077 0.000095-0.12493 0.15615-0.125 0.15625-0.000069 0.000102-0.09369 0.15614-0.09375 0.15625-0.00006 0.000108-0.06245 0.15614-0.0625 0.15625-0.00005 0.000112-0.06246 0.15613-0.0625 0.15625-0.00004 0.000116-0.06247 0.15613-0.0625 0.15625-0.000029 0.000119-0.03123 0.18738-0.03125 0.1875-0.000019 0.000121 0.000008 0.15613 0 0.15625-0.000007 0.000103-0.03046 0.11643-0.03125 0.15625-0.000152 0.0077 0 0.03123 0 0.03125v1.125 3.8438 7.25c-0.14724 0.02007-0.30128 0.05176-0.375 0.0625-0.04952 0.0073-0.09653 0.02857-0.125 0.03125-0.04889 0.0046-0.06882-0.01562-0.21875 0.03125-0.01227 0.0038-0.02952 0.01736-0.0625 0.03125-0.01374 0.0058-0.01836-0.0055-0.03125 0-0.02701 0.0071-0.06537 0.02225-0.09375 0.03125-0.01774 0.0056-0.03745-0.0093-0.0625 0-0.17382 0.02462-0.35431 0.03824-0.625 0.09375-0.26763 0.05454-0.62386 0.10228-0.96875 0.1875-0.66977 0.16628-1.2884 0.36844-1.9375 0.59375 0.207-0.07185-0.06551-0.0035-0.25 0.0625-0.0051 0.0018 0.0049 0.02946 0 0.03125-0.06667 0.02411-0.11385 0.0133-0.15625 0.03125-0.02277 0.0096-0.03854 0.01988-0.0625 0.03125-0.01198 0.0057-0.01916 0.0073-0.0625 0.03125-0.01084 0.006-0.06238 0.03117-0.0625 0.03125-0.4213 0.15993-0.84688 0.32031-1.25 0.5-0.41998 0.18741-0.72487 0.39287-0.9375 0.5-0.20983 0.10574-0.56165 0.22912-0.9375 0.4375-0.01035 0.0057-0.02083-0.0059-0.03125 0-0.40119 0.2283-0.71937 0.47666-0.90625 0.59375-0.30268 0.1896-0.61847 0.41348-0.96875 0.65625-0.02419 0.01059-0.06975 0.01975-0.09375 0.03125-0.02625 0.01847-0.03597 0.04356-0.0625 0.0625a0.98812 0.98812 0 0 0 -0.093 0.063c-0.06911 0.04094-0.1399 0.0671-0.21875 0.125-0.43251 0.31809-0.83412 0.64646-1.25 1-0.01068 0.0091-0.11238 0.06377-0.21875 0.15625-0.44768 0.38948-0.8075 0.80674-1.1562 1.1562-0.40453 0.40544-0.84033 0.8009-1.25 1.2812-0.17553 0.20564-0.34544 0.41724-0.4375 0.53125-0.25469 0.31558-0.38359 0.58445-0.4375 0.65625-0.29367 0.39132-0.63692 0.81848-0.9375 1.2812-0.38405 0.59128-0.71034 1.1727-1.0312 1.7812-0.12953 0.24599-0.19586 0.45264-0.25 0.5625-0.20536 0.41627-0.42357 0.85834-0.625 1.3438 0.0037-0.0089-0.05339 0.05281-0.15625 0.3125-0.46797 1.1803-0.85419 2.4105-1.125 3.6875-0.0085 0.03985 0.0062 0.02851 0 0.0625 0.00074 0.0063-0.02767 0.04713-0.03125 0.0625-0.0038 0.02644-0.007 0.12795 0 0.09375-0.0068 0.03184-0.02357 0.05501-0.03125 0.09375-0.007 0.03505 0.0064 0.05954 0 0.09375-0.06396 0.33956-0.11497 0.6355-0.15625 0.90625-0.0074 0.04879-0.10496 0.36753-0.15625 0.8125-0.01345 0.11675-0.02162 0.24878-0.03125 0.34375-0.0027 0.02723 0.0021 0.04 0 0.0625-0.0023 0.02532-0.02962 0.04193-0.03125 0.0625-0.0031 0.03885-0.01217-0.04765 0 0.1875 0.000761 0.0147-0.000026 0.06227 0 0.0625-0.018 0.26689-0.05126 0.52767-0.0625 0.75-0.02 0.386-0.032 0.813-0.032 1.221 0 12.693 10.326 23.063 23 23.063 0.0454 0 0.08016 0.000436 0.125 0-0.000036 0.000105-0.06247 0.15614-0.0625 0.15625-0.000028 0.000107-0.03123 0.12489-0.03125 0.125-0.000019 0.000109 0.000011 0.15614 0 0.15625 0 0.001-0.031 0.157-0.031 0.157a0.98812 0.98812 0 0 0 0 0.031v13.219 0.031c0.0003 0.02996-0.000002 0.09369 0 0.09375 0.000003 0.000075 0.03124 0.09368 0.03125 0.09375 0.000007 0.000075-0.000011 0.12493 0 0.125 0.000011 0.000074 0.03124 0.09368 0.03125 0.09375 0.000015 0.000073-0.000019 0.09368 0 0.09375 0.000019 0.000072 0.03123 0.12493 0.03125 0.125 0.000023 0.000071 0.03122 0.09368 0.03125 0.09375 0.000026 0.00007 0.06247 0.09368 0.0625 0.09375 0.00003 0.000069 0.03122 0.09368 0.03125 0.09375 0.000034 0.000067 0.06246 0.09368 0.0625 0.09375 0.000037 0.000065 0.06246 0.09369 0.0625 0.09375 0.000041 0.000063 0.06246 0.09369 0.0625 0.09375 0.000044 0.000061 0.06245 0.09369 0.0625 0.09375 0.000047 0.000058 0.06245 0.06244 0.0625 0.0625 0.00005 0.000055 0.06245 0.0937 0.0625 0.09375 0.000053 0.000053 0.09369 0.06245 0.09375 0.0625 0.000056 0.00005 0.06244 0.06245 0.0625 0.0625 0.000059 0.000047 0.09369 0.06246 0.09375 0.0625 0.000061 0.000043 0.09369 0.06246 0.09375 0.0625 0.000063 0.00004 0.09369 0.06246 0.09375 0.0625 0.000065 0.000037 0.09368 0.03122 0.09375 0.03125 0.000067 0.000033 0.09368 0.06247 0.09375 0.0625 0.000069 0.000029 0.09368 0.03122 0.09375 0.03125 0.00007 0.000026 0.09368 0.03123 0.09375 0.03125 0.000072 0.000022 0.12493 0.03123 0.125 0.03125 0.000073 0.000018 0.09368 0.03124 0.09375 0.03125 0.000074 0.000014 0.09368-0.00001 0.09375 0 0.000074 0.00001 0.12492 0.03124 0.125 0.03125 0.000075 0.000006 0.09367-0.000002 0.09375 0 0.000075 0.000002 0.09367 0.000002 0.09375 0 0.000075-0.000002 0.12492 0.000006 0.125 0 0.000075-0.000006 0.09368-0.03124 0.09375-0.03125 11.676-1.359 20.75-11.301 20.75-23.344 0-0.14693-0.02115-0.15861-0.03125-0.21875 0.000006-0.000088 0-0.12491 0-0.125-0.000239 0.000848-0.000282-0.03471 0-0.03125a0.98812 0.98812 0 0 0 0.031 -0.156v-15.032-19.031c0-9.925-8.089-18.031-18-18.031h-5.9688c-0.000026-0.000001-0.01927 0.000001-0.03125 0-0.02395-0.000001-0.0266 0-0.0625 0-0.000053-0.000002-0.0266 0-0.0625 0-0.05385-0.000001-0.09367-0.000004-0.09375 0z" transform="translate(0,-1)"/>
   <path id="path3804" opacity=".15" style="color:#000000" d="m45.906 13a0.9922 0.9922 0 0 0 -0.906 1v1.1562 3.8438 8.1562c-0.25794 0.01928-0.51534 0.02886-0.78125 0.0625-0.17629 0.02221-0.33223 0.04716-0.4375 0.0625-0.23128 0.03402-0.26694 0.053-0.125 0.03125-0.21869 0.03324-0.30073 0.06574-0.28125 0.0625-0.22608 0.03783-0.48488 0.06423-0.78125 0.125-0.2891 0.05891-0.61 0.1143-0.90625 0.1875-0.63661 0.15805-1.2484 0.34501-1.875 0.5625-0.03344 0.01161-0.12161 0.02773-0.21875 0.0625-0.11658 0.04172-0.16226 0.06471-0.15625 0.0625-0.46199 0.16952-0.92489 0.36186-1.375 0.5625-0.34995 0.15616-0.63727 0.33323-0.90625 0.46875-0.27858 0.14039-0.59634 0.26312-0.90625 0.4375-0.34793 0.19565-0.62488 0.40579-0.875 0.5625-0.34979 0.21911-0.7088 0.44397-1.0938 0.71875 0.02471-0.01761-0.09022 0.01598-0.28125 0.15625-0.41034 0.30178-0.81759 0.62772-1.2188 0.96875-0.0429 0.03643-0.10027 0.08041-0.1875 0.15625-0.40013 0.34812-0.76392 0.73188-1.125 1.0938-0.40678 0.40769-0.81297 0.81085-1.1875 1.25-0.1557 0.18242-0.30268 0.37173-0.40625 0.5-0.19489 0.24148-0.31395 0.46043-0.4375 0.625-0.29562 0.39392-0.60047 0.79609-0.875 1.2188-0.36407 0.56052-0.68936 1.1297-1 1.7188-0.09835 0.18677-0.16981 0.36851-0.25 0.53125-0.20367 0.41285-0.40651 0.83002-0.59375 1.2812-0.04865 0.11726-0.11629 0.21162-0.15625 0.3125-0.44716 1.1278-0.80298 2.3075-1.0625 3.5312-0.01471 0.06937-0.02329 0.14849-0.03125 0.1875 0.04096-0.20044 0.02223-0.17604-0.03125 0.09375-0.06832 0.34277-0.10848 0.65547-0.15625 0.96875-0.03102 0.20335-0.11817 0.45086-0.15625 0.78125-0.01086 0.09427-0.02055 0.20693-0.03125 0.3125-0.0211 0.21245-0.01684 0.23229 0 0.0625-0.03657 0.37187-0.04582 0.70138-0.0625 1.0312-0.019 0.373-0.032 0.772-0.032 1.159 0 12.158 9.8637 22.062 22 22.062 0.51585 0 1.0075-0.03231 1.4688-0.0625-0.01615 0.0011 0.12829 0.02328 0.40625 0 0.39391-0.03268 0.73975-0.10857 1.0938-0.15625 0.19275-0.02619 0.32372-0.05464 0.375-0.0625 0.12054-0.01829 0.22598-0.04201 0.34375-0.0625-0.61438 0.41315-1.2445 0.80838-1.9688 1.0312a0.9922 0.9922 0 0 0 -0.719 0.937v13.25a0.9922 0.9922 0 0 0 1.125 1c11.185-1.302 19.875-10.828 19.875-22.375 0-0.139-0.024-0.187-0.031-0.281a0.9922 0.9922 0 0 0 0 -0.125 0.9922 0.9922 0 0 0 0.031 -0.125v-15.032-19.031c0-9.391-7.626-17.031-17-17.031h-6a0.9922 0.9922 0 0 0 -0.09375 0z" transform="translate(0,-1)"/>
   <path id="path3800" opacity=".3" style="color:#000000" d="m46 13v1.1588 3.8521 9.0509c-0.56208 0.02611-1.1066 0.05573-1.6562 0.12527-0.13463 0.01696-0.27242 0.04314-0.40625 0.06264-0.04283 0.0063-0.08225 0.02477-0.125 0.03132-0.09534 0.01449-0.18634 0.04686-0.28125 0.06264-0.25099 0.042-0.50211 0.07444-0.75 0.12527-0.28122 0.05731-0.56675 0.11946-0.84375 0.18791-0.61417 0.15248-1.221 0.32709-1.8125 0.53241-0.06249 0.02169-0.12528 0.04037-0.1875 0.06264-0.05281 0.0189-0.10363 0.04333-0.15625 0.06264-0.44229 0.1623-0.88471 0.34172-1.3125 0.5324-0.29898 0.13341-0.58361 0.29164-0.875 0.43845-0.2852 0.14372-0.56617 0.28227-0.84375 0.43845-0.2892 0.16263-0.56324 0.35666-0.84375 0.5324-0.3589 0.22481-0.71857 0.44349-1.0625 0.689-0.08043 0.05734-0.17042 0.09815-0.25 0.15659-0.3994 0.29374-0.77905 0.58756-1.1562 0.90822-0.06267 0.05322-0.12546 0.10265-0.1875 0.15659-0.37491 0.32618-0.74285 0.68183-1.0938 1.0335-0.38855 0.38942-0.76777 0.80253-1.125 1.2214-0.12476 0.14616-0.25421 0.28886-0.375 0.43845-0.15477 0.19177-0.28941 0.39779-0.4375 0.59504-0.28574 0.38075-0.55257 0.75858-0.8125 1.1588-0.34598 0.53266-0.67105 1.0953-0.96875 1.6599-0.0873 0.1658-0.16702 0.3327-0.25 0.50109-0.2003 0.40601-0.38809 0.8011-0.5625 1.2214-0.04305 0.10376-0.08357 0.20858-0.125 0.31318-0.42914 1.0824-0.78483 2.2203-1.0312 3.3823-0.01095 0.05163-0.02068 0.10482-0.03125 0.15659-0.0067 0.03279-0.02474 0.06111-0.03125 0.09395-0.062 0.31105-0.1081 0.6237-0.15625 0.93954-0.03876 0.25409-0.09538 0.49463-0.125 0.75163-0.011 0.09551-0.02153 0.18596-0.03125 0.28186-0.0021 0.02114 0.0021 0.04147 0 0.06264-0.03278 0.3333-0.04542 0.6645-0.0625 1.0022-0.019 0.358-0.032 0.732-0.032 1.095 0 11.623 9.402 21.046 21 21.046 0.47061 0 0.9432-0.03233 1.4062-0.06264 0.1254-0.0083 0.25022 0.01045 0.375 0 0.36031-0.02989 0.70754-0.07746 1.0625-0.12527 0.117-0.0159 0.22737-0.04481 0.34375-0.06264 0.34786-0.05278 0.68922-0.11825 1.0312-0.18791 0.31984-0.06559 0.65439-0.10792 0.96875-0.18791 0.0224-0.0057 0.04013-0.02557 0.0625-0.03132 0.15666-0.0404 0.31352-0.08137 0.46875-0.12527 0.28296-0.07988 0.56584-0.15911 0.84375-0.25054 0.08481-0.02791 0.16567-0.065 0.25-0.09395-1.069 1.787-2.787 3.135-4.813 3.759v13.247c10.693-1.244 19-10.34 19-21.39 0-0.17-0.027-0.332-0.031-0.501h0.03125v-15.033-19.041c0-8.856-7.163-16.035-16-16.035h-6z"/>
   <path id="path3688" style="color:#000000" d="m46 12v1.1588 3.8521 9.0509c-0.56208 0.02611-1.1066 0.05573-1.6562 0.12527-0.13463 0.01696-0.27242 0.04314-0.40625 0.06264-0.04283 0.0063-0.08225 0.02477-0.125 0.03132-0.09534 0.01449-0.18634 0.04686-0.28125 0.06264-0.25099 0.042-0.50211 0.07444-0.75 0.12527-0.28122 0.05731-0.56675 0.11946-0.84375 0.18791-0.61417 0.15248-1.221 0.32709-1.8125 0.53241-0.06249 0.02169-0.12528 0.04037-0.1875 0.06264-0.05281 0.0189-0.10363 0.04333-0.15625 0.06264-0.44229 0.1623-0.88471 0.34172-1.3125 0.5324-0.29898 0.13341-0.58361 0.29164-0.875 0.43845-0.2852 0.14372-0.56617 0.28227-0.84375 0.43845-0.2892 0.16263-0.56324 0.35666-0.84375 0.5324-0.3589 0.22481-0.71857 0.44349-1.0625 0.689-0.08043 0.05734-0.17042 0.09815-0.25 0.15659-0.3994 0.29374-0.77905 0.58756-1.1562 0.90822-0.06267 0.05322-0.12546 0.10265-0.1875 0.15659-0.37491 0.32618-0.74285 0.68183-1.0938 1.0335-0.38855 0.38942-0.76777 0.80253-1.125 1.2214-0.12476 0.14616-0.25421 0.28886-0.375 0.43845-0.15477 0.19177-0.28941 0.39779-0.4375 0.59504-0.28574 0.38075-0.55257 0.75858-0.8125 1.1588-0.34598 0.53266-0.67105 1.0953-0.96875 1.6599-0.0873 0.1658-0.16702 0.3327-0.25 0.50109-0.2003 0.40601-0.38809 0.8011-0.5625 1.2214-0.04305 0.10376-0.08357 0.20858-0.125 0.31318-0.42914 1.0824-0.78483 2.2203-1.0312 3.3823-0.01095 0.05163-0.02068 0.10482-0.03125 0.15659-0.0067 0.03279-0.02474 0.06111-0.03125 0.09395-0.062 0.31105-0.1081 0.6237-0.15625 0.93954-0.03876 0.25409-0.09538 0.49463-0.125 0.75163-0.011 0.09551-0.02153 0.18596-0.03125 0.28186-0.0021 0.02114 0.0021 0.04147 0 0.06264-0.03278 0.3333-0.04542 0.6645-0.0625 1.0022-0.019 0.358-0.032 0.732-0.032 1.095 0 11.623 9.402 21.046 21 21.046 0.47061 0 0.9432-0.03233 1.4062-0.06264 0.1254-0.0083 0.25022 0.01045 0.375 0 0.36031-0.02989 0.70754-0.07746 1.0625-0.12527 0.117-0.0159 0.22737-0.04481 0.34375-0.06264 0.34786-0.05278 0.68922-0.11825 1.0312-0.18791 0.31984-0.06559 0.65439-0.10792 0.96875-0.18791 0.0224-0.0057 0.04013-0.02557 0.0625-0.03132 0.15666-0.0404 0.31352-0.08137 0.46875-0.12527 0.28296-0.07988 0.56584-0.15911 0.84375-0.25054 0.08481-0.02791 0.16567-0.065 0.25-0.09395-1.069 1.787-2.787 3.135-4.813 3.759v13.247c10.693-1.244 19-10.34 19-21.39 0-0.17-0.027-0.332-0.031-0.501h0.03125v-15.033-19.041c0-8.856-7.163-16.035-16-16.035h-6z" fill="#fff"/>
   <path id="rect3784" style="color:#000000" d="m46.875 28c-10.435 0.068-18.875 8.549-18.875 19 0 10.493 8.5066 19 19 19 3.6597 0 7.069-1.0509 9.9688-2.8438-0.24093 3.9035-2.6118 7.2142-5.9688 8.8125v9.4688c8.443-1.995 14.741-9.441 14.969-18.437h0.0312v-0.5-15.5-19h-19.125z" fill="url(#linearGradient3798)"/>
   <g id="g3735" transform="translate(-21,-1)">
    <path id="path3684" style="color:#000000" d="m69 15v0.312 13.688 9.062c-0.326-0.032-0.665-0.062-1-0.062-5.5228 0-10 4.4772-10 10s4.4772 10 10 10 10-4.4772 10-10v-19h8.9688c-0.518-7.815-7.023-14-14.969-14h-3z" fill="url(#radialGradient3740-5)"/>
    <path id="path3717" style="color:#000000" d="m46 44a2 2 0 1 1 -4 0 2 2 0 1 1 4 0z" transform="matrix(1.25,0,0,1.25,9.5,-10.5)" fill="url(#radialGradient3742)"/>
    <path id="path3729" opacity=".1" style="color:#000000" d="m64.626 41.5c1.5971 0.06742 2.875 1.3863 2.875 3 0 1.6569-1.3431 3-3 3-1.6137 0-2.9326-1.2779-3-2.875-0.0016 0.04196 0 0.08265 0 0.125 0 1.7949 1.4551 3.25 3.25 3.25s3.25-1.4551 3.25-3.25-1.4551-3.25-3.25-3.25c-0.04235 0-0.08304-0.0016-0.125 0z" fill="#fff"/>
   </g>
  </g>
 </g>
</svg>
