<?xml version="1.0" encoding="UTF-8" standalone="no"?>
<!-- Created with Inkscape (http://www.inkscape.org/) -->
<svg id="svg2" xmlns:rdf="http://www.w3.org/1999/02/22-rdf-syntax-ns#" xmlns="http://www.w3.org/2000/svg" height="96" width="96" version="1.1" xmlns:cc="http://creativecommons.org/ns#" xmlns:xlink="http://www.w3.org/1999/xlink" xmlns:dc="http://purl.org/dc/elements/1.1/">
 <defs id="defs4">
  <linearGradient id="linearGradient3700-09">
   <stop id="stop3702-67" stop-color="#70a83e" offset="0"/>
   <stop id="stop3704-18" stop-color="#9fd058" offset="1"/>
  </linearGradient>
  <linearGradient id="linearGradient9745" y2="5.9877" xlink:href="#linearGradient3700-09" gradientUnits="userSpaceOnUse" x2="48" gradientTransform="translate(-169.06 968.2)" y1="90" x1="48"/>
  <linearGradient id="linearGradient20403" y2="5.9877" gradientUnits="userSpaceOnUse" x2="48" gradientTransform="matrix(.81257 0 0 .80928 -8.8922 852.2)" y1="90" x1="48">
   <stop id="stop3645-3" stop-color="#5262d7" offset="0"/>
   <stop id="stop3647" stop-color="#8996f6" offset="1"/>
  </linearGradient>
  <linearGradient id="linearGradient21179" y2="7.1484" gradientUnits="userSpaceOnUse" x2="52.445" y1="85.664" x1="47.995">
   <stop id="stop3244-6" stop-color="#b0b0b0" offset="0"/>
   <stop id="stop3246-6" stop-color="#f5f5f5" offset="1"/>
  </linearGradient>
 </defs>
 <metadata id="metadata7">
  <rdf:RDF>
   <cc:Work rdf:about="">
    <dc:format>image/svg+xml</dc:format>
    <dc:type rdf:resource="http://purl.org/dc/dcmitype/StillImage"/>
    <dc:title/>
   </cc:Work>
  </rdf:RDF>
 </metadata>
 <g id="layer1" transform="translate(0 -956.36)">
  <rect id="rect5263-0" fill-opacity=".019608" ry="12.724" height="89.978" width="89.624" y="959.35" x="3.3534"/>
  <rect id="rect5261-6" fill-opacity=".039216" ry="12.552" height="88.762" width="88.413" y="959.96" x="3.9589"/>
  <rect id="rect5259-9" fill-opacity=".078431" ry="12.38" height="87.546" width="87.202" y="960.57" x="4.5645"/>
  <rect id="rect5257-5" fill-opacity=".15686" ry="12.208" height="86.33" width="85.991" y="961.18" x="5.1701"/>
  <path id="rect2419" d="m17.75 5.4062c-6.642 0-11.969 5.3948-11.969 12.063l0.0002 61.031c0 6.668 5.3268 12.031 11.969 12.031h60.812c6.642 0 11.969-5.363 11.969-12.031v-61.031c0-6.668-5.327-12.063-11.969-12.063l-60.812 0.0002z" transform="translate(0 956.36)" fill="url(#linearGradient21179)"/>
  <path id="rect5265-0" d="m5.7756 1029.8v5.0663c0 6.668 5.3434 12.032 11.985 12.032h60.809c6.6418 0 11.985-5.3645 11.985-12.032v-5.0663c0 6.6681-5.3434 12.032-11.985 12.032h-60.809c-6.6418 0-11.985-5.3643-11.985-12.032z" fill-opacity="0.17"/>
  <path id="path5252-0" d="m5.7756 1033.9v1.0133c0 6.668 5.3434 12.032 11.985 12.032h60.809c6.6418 0 11.985-5.3645 11.985-12.032v-1.0133c0 6.6681-5.3434 12.032-11.985 12.032h-60.809c-6.6418 0-11.985-5.3644-11.985-12.032z" fill-opacity=".098039"/>
  <rect id="rect4772" display="none" height="107.79" width="107.79" y="971.68" x="-369.64" fill="none"/>
  <g id="g4788" display="none" transform="matrix(.21052 0 0 .21052 -369.68 971.63)"></g>
  <g id="g4806" display="none" transform="matrix(.21052 0 0 .21052 -369.68 971.63)">
   <g id="g4808" display="inline">
    <path id="path4810" d="m349.1 256.65c-0.265-0.254 37.637 27.605 39.421 25.012 6.362-9.252 82.046-93.137 84.784-116.24 0.242-2.003-0.516-4.096-0.516-4.096s-1.19-0.144-6.325-4.314c-2.692-2.192-5.483-4.581-5.483-4.581-16.054 0.998-57.885 41.559-111.06 103.57" fill="#050505" display="none"/>
   </g>
  </g>
  <g id="g4796" transform="matrix(.21052 0 0 .21052 -369.68 971.63)"></g>
  <rect id="rect3873" rx="6" ry="6" height="84" width="84" display="none" y="974.2" x="-163.06" fill="url(#linearGradient9745)"/>
  <rect id="rect3880" rx="6" ry="6" height="84" width="84" display="none" y="974.2" x="-163.06" fill="url(#linearGradient9745)"/>
  <g id="g20392" transform="matrix(.90288 0 0 .87002 20.878 225.75)">
   <rect id="rect2419-8" rx="4.8754" ry="4.8557" height="67.98" width="68.256" y="857.05" x="-4.0168" fill="url(#linearGradient20403)"/>
   <path id="rect3712" opacity=".05" d="m-0.88885 857.04c-1.662 0-3 1.338-3 3v62c0 1.662 1.338 3 3 3h62c1.662 0 3-1.338 3-3v-62c0-1.662-1.338-3-3-3h-62zm-0.0625 2.9375c0.0048-0.005 0.01906 0 0.0625 0h62c0.08687 0 0.0625-0.0244 0.0625 0.0625v62c0 0.0869 0.02437 0.0625-0.0625 0.0625h-62c-0.08687 0-0.0625 0.0244-0.0625-0.0625v-62c0-0.0434-0.0048-0.0577 0-0.0625z"/>
   <path id="rect3708" opacity="0.12" d="m-0.88885 857.04c-1.662 0-3 1.338-3 3v62c0 1.662 1.338 3 3 3h62c1.662 0 3-1.338 3-3v-62c0-1.662-1.338-3-3-3h-62zm0 1.8438h62c0.67025 0 1.1562 0.486 1.1562 1.1562v62c0 0.67025-0.486 1.1562-1.1562 1.1562h-62c-0.67025 0-1.1562-0.486-1.1562-1.1562v-62c0-0.67025 0.486-1.1562 1.1562-1.1562z"/>
   <path id="rect2932" opacity=".15" d="m-0.88885 857.04c-1.662 0-3 1.338-3 3v62c0 1.662 1.338 3 3 3h62c1.662 0 3-1.338 3-3v-62c0-1.662-1.338-3-3-3h-62zm0 0.96875h62c1.137 0 2.0312 0.89429 2.0312 2.0312v62c0 1.137-0.89429 2.0312-2.0312 2.0312h-62c-1.137 0-2.0312-0.89429-2.0312-2.0312v-62c0-1.137 0.89429-2.0312 2.0312-2.0312z"/>
   <g id="layer3" transform="translate(-17.889 843.04)">
    <path id="path3746" opacity="0.08" d="m47 23.094c-4.9032 0-8.9062 4.0031-8.9062 8.9062 0 4.9032 4.0031 8.9062 8.9062 8.9062 4.9032 0 8.9062-4.0031 8.9062-8.9062 0-4.9032-4.0031-8.9062-8.9062-8.9062zm-11.375 18c-0.00054 0.000105-0.15572 0.06235-0.15625 0.0625-0.000529 0.000152-0.15574 0.03105-0.15625 0.03125-0.000513 0.000197-0.15576 0.06226-0.15625 0.0625-0.000494 0.000241-0.15578 0.09347-0.15625 0.09375-0.000471 0.000284-0.12456 0.09343-0.125 0.09375-0.000444 0.000324-0.12459 0.09339-0.125 0.09375-0.000414 0.000361-0.12462 0.1246-0.125 0.125-0.000381 0.000396-0.12466 0.12457-0.125 0.125-0.000345 0.000428-0.09344 0.12454-0.09375 0.125-0.000306 0.000457-0.09349 0.15577-0.09375 0.15625-0.000265 0.000482-0.06228 0.15575-0.0625 0.15625-0.000222 0.000503-0.06232 0.15573-0.0625 0.15625-0.000177 0.00052-0.06237 0.15572-0.0625 0.15625-0.000131 0.000534-0.03117 0.15571-0.03125 0.15625-0.000084 0.000543 0.000036 0.1557 0 0.15625-0.00003 0.000457 0.000855 0.11745 0 0.15625-0.000171 0.0078-0.000002 0.03116 0 0.03125v5.9688c-0.000001 0.00031-0.000014 0.09344 0 0.09375 0.000014 0.000309-0.00003 0.09344 0 0.09375 0.00003 0.000308-0.000045 0.09344 0 0.09375 0.000045 0.000306 0.03119 0.09345 0.03125 0.09375 0.00006 0.000304-0.000075 0.09345 0 0.09375 0.000075 0.000301 0.03116 0.09345 0.03125 0.09375 0.000089 0.000296 0.03115 0.09346 0.03125 0.09375 0.000104 0.000292 0.03113 0.06221 0.03125 0.0625 0.000118 0.000286 0.06237 0.09347 0.0625 0.09375 0.000132 0.00028 0.0311 0.09348 0.03125 0.09375 0.000146 0.000273 0.03109 0.09348 0.03125 0.09375 0.000159 0.000266 0.06233 0.06224 0.0625 0.0625 0.000172 0.000258 0.06232 0.0935 0.0625 0.09375 0.000184 0.000249 0.0623 0.06226 0.0625 0.0625 0.000196 0.000239 0.06229 0.06227 0.0625 0.0625 0.000208 0.000229 0.06228 0.06228 0.0625 0.0625 0.000219 0.000219 0.06227 0.06229 0.0625 0.0625 0.000229 0.000208 0.06226 0.0623 0.0625 0.0625 0.000239 0.000196 0.06225 0.06232 0.0625 0.0625 0.000249 0.000184 0.09349 0.06233 0.09375 0.0625 0.000258 0.000172 0.06223 0.06234 0.0625 0.0625 0.000266 0.000159 0.09348 0.0311 0.09375 0.03125 0.000273 0.000146 0.09347 0.03112 0.09375 0.03125 0.00028 0.000132 0.09346 0.06238 0.09375 0.0625 0.000286 0.000118 0.06221 0.03115 0.0625 0.03125 0.000292 0.000104 0.09345 0.03116 0.09375 0.03125 0.000296 0.000089 0.09345 0.03117 0.09375 0.03125 0.000301 0.000075 0.09345-0.00006 0.09375 0 0.000304 0.00006 0.09344 0.0312 0.09375 0.03125 0.000306 0.000045 0.09344-0.00003 0.09375 0 0.000308 0.00003 0.09344-0.000014 0.09375 0 0.000309 0.000014 0.09344 0.000001 0.09375 0h4.0938v14.188h-4.0938c-0.00031-0.000001-0.09344-0.000014-0.09375 0-0.000309 0.000014-0.09344-0.00003-0.09375 0-0.000308 0.00003-0.09344-0.000045-0.09375 0-0.000306 0.000045-0.09345 0.03119-0.09375 0.03125-0.000304 0.00006-0.09345-0.000075-0.09375 0-0.000301 0.000075-0.09345 0.03116-0.09375 0.03125-0.000296 0.000089-0.09346 0.03115-0.09375 0.03125-0.000292 0.000104-0.06221 0.03113-0.0625 0.03125-0.000286 0.000118-0.09347 0.06237-0.09375 0.0625-0.00028 0.000132-0.09348 0.0311-0.09375 0.03125-0.000273 0.000146-0.09348 0.03109-0.09375 0.03125-0.000266 0.000159-0.06224 0.06233-0.0625 0.0625-0.000258 0.000172-0.0935 0.06232-0.09375 0.0625-0.000249 0.000184-0.06226 0.0623-0.0625 0.0625-0.000239 0.000196-0.06227 0.06229-0.0625 0.0625-0.000229 0.000208-0.06228 0.06228-0.0625 0.0625-0.000219 0.000219-0.06229 0.06227-0.0625 0.0625-0.000208 0.000229-0.0623 0.06226-0.0625 0.0625-0.000196 0.000239-0.06232 0.06225-0.0625 0.0625-0.000184 0.000249-0.06233 0.09349-0.0625 0.09375-0.000172 0.000258-0.06234 0.06223-0.0625 0.0625-0.000159 0.000266-0.0311 0.09348-0.03125 0.09375-0.000146 0.000273-0.03112 0.09347-0.03125 0.09375-0.000132 0.00028-0.06238 0.09346-0.0625 0.09375-0.000118 0.000286-0.03115 0.06221-0.03125 0.0625-0.000104 0.000292-0.03116 0.09345-0.03125 0.09375-0.000089 0.000296-0.03117 0.09345-0.03125 0.09375-0.000075 0.000301 0.00006 0.09345 0 0.09375-0.00006 0.000304-0.0312 0.09344-0.03125 0.09375-0.000045 0.000306 0.00003 0.09344 0 0.09375-0.00003 0.000308 0.000014 0.09344 0 0.09375-0.000014 0.000309-0.000001 0.09344 0 0.09375v6c-0.000001 0.00031-0.000014 0.09344 0 0.09375 0.000014 0.000309-0.00003 0.09344 0 0.09375 0.00003 0.000308-0.000045 0.09344 0 0.09375 0.000045 0.000306 0.03119 0.09345 0.03125 0.09375 0.00006 0.000304-0.000075 0.09345 0 0.09375 0.000075 0.000301 0.03116 0.09345 0.03125 0.09375 0.000089 0.000296 0.03115 0.09346 0.03125 0.09375 0.000104 0.000292 0.03113 0.06221 0.03125 0.0625 0.000118 0.000286 0.06237 0.09347 0.0625 0.09375 0.000132 0.00028 0.0311 0.09348 0.03125 0.09375 0.000146 0.000273 0.03109 0.09348 0.03125 0.09375 0.000159 0.000266 0.06233 0.06224 0.0625 0.0625 0.000172 0.000258 0.06232 0.0935 0.0625 0.09375 0.000184 0.000249 0.0623 0.06226 0.0625 0.0625 0.000196 0.000239 0.06229 0.06227 0.0625 0.0625 0.000208 0.000229 0.06228 0.06228 0.0625 0.0625 0.000219 0.000219 0.06227 0.06229 0.0625 0.0625 0.000229 0.000208 0.06226 0.0623 0.0625 0.0625 0.000239 0.000196 0.06225 0.06232 0.0625 0.0625 0.000249 0.000184 0.09349 0.06233 0.09375 0.0625 0.000258 0.000172 0.06223 0.06234 0.0625 0.0625 0.000266 0.000159 0.09348 0.0311 0.09375 0.03125 0.000273 0.000146 0.09347 0.03112 0.09375 0.03125 0.00028 0.000132 0.09346 0.06238 0.09375 0.0625 0.000286 0.000118 0.06221 0.03115 0.0625 0.03125 0.000292 0.000104 0.09345 0.03116 0.09375 0.03125 0.000296 0.000089 0.09345 0.03118 0.09375 0.03125 0.000301 0.000075 0.09345-0.00006 0.09375 0 0.000304 0.00006 0.09344 0.0312 0.09375 0.03125 0.000306 0.000045 0.09344-0.00003 0.09375 0 0.000308 0.00003 0.09344-0.000014 0.09375 0 0.000309 0.000014 0.09344 0.000001 0.09375 0h24c0.00031 0.000001 0.09344 0.000014 0.09375 0 0.000309-0.000014 0.09344 0.00003 0.09375 0 0.000308-0.00003 0.09344 0.000045 0.09375 0 0.000306-0.000045 0.09345-0.03119 0.09375-0.03125 0.000304-0.00006 0.09345 0.000075 0.09375 0 0.000301-0.000075 0.09345-0.03116 0.09375-0.03125 0.000296-0.000089 0.09346-0.03115 0.09375-0.03125 0.000292-0.000104 0.06221-0.03113 0.0625-0.03125 0.000286-0.000118 0.09347-0.06237 0.09375-0.0625 0.00028-0.000132 0.09348-0.0311 0.09375-0.03125 0.000273-0.000146 0.09348-0.03109 0.09375-0.03125 0.000266-0.000159 0.06224-0.06233 0.0625-0.0625 0.000258-0.000172 0.0935-0.06232 0.09375-0.0625 0.000249-0.000184 0.06226-0.0623 0.0625-0.0625 0.000239-0.000196 0.06227-0.06229 0.0625-0.0625 0.000229-0.000208 0.06228-0.06228 0.0625-0.0625 0.000219-0.000219 0.06229-0.06227 0.0625-0.0625 0.000208-0.000229 0.0623-0.06226 0.0625-0.0625 0.000196-0.000239 0.06232-0.06225 0.0625-0.0625 0.000184-0.000249 0.06233-0.09349 0.0625-0.09375 0.000172-0.000258 0.06234-0.06223 0.0625-0.0625 0.000159-0.000266 0.0311-0.09348 0.03125-0.09375 0.000146-0.000273 0.03112-0.09347 0.03125-0.09375 0.000132-0.00028 0.06238-0.09346 0.0625-0.09375 0.000118-0.000286 0.03115-0.06221 0.03125-0.0625 0.000104-0.000292 0.03116-0.09345 0.03125-0.09375 0.000089-0.000296 0.03117-0.09345 0.03125-0.09375 0.000075-0.000301-0.00006-0.09345 0-0.09375 0.00006-0.000304 0.0312-0.09344 0.03125-0.09375 0.000045-0.000306-0.00003-0.09344 0-0.09375 0.00003-0.000308-0.000014-0.09344 0-0.09375 0.000014-0.000309 0.000001-0.09344 0-0.09375v-6c0.000001-0.00031 0.000014-0.09344 0-0.09375-0.000014-0.000309 0.00003-0.09344 0-0.09375-0.00003-0.000308 0.000045-0.09344 0-0.09375-0.000045-0.000306-0.03119-0.09345-0.03125-0.09375-0.00006-0.000304 0.000075-0.09345 0-0.09375-0.000075-0.000301-0.03116-0.09345-0.03125-0.09375-0.000089-0.000296-0.03115-0.09346-0.03125-0.09375-0.000104-0.000292-0.03113-0.06221-0.03125-0.0625-0.000118-0.000286-0.06237-0.09347-0.0625-0.09375-0.000132-0.00028-0.0311-0.09348-0.03125-0.09375-0.000146-0.000273-0.03109-0.09348-0.03125-0.09375-0.000159-0.000266-0.06233-0.06224-0.0625-0.0625-0.000172-0.000258-0.06232-0.0935-0.0625-0.09375-0.000184-0.000249-0.0623-0.06226-0.0625-0.0625-0.000196-0.000239-0.06229-0.06227-0.0625-0.0625-0.000208-0.000229-0.06228-0.06228-0.0625-0.0625-0.000219-0.000219-0.06227-0.06229-0.0625-0.0625-0.000229-0.000208-0.06226-0.0623-0.0625-0.0625-0.000239-0.000196-0.06225-0.06232-0.0625-0.0625-0.000249-0.000184-0.09349-0.06233-0.09375-0.0625-0.000258-0.000172-0.06223-0.06234-0.0625-0.0625-0.000266-0.000159-0.09348-0.0311-0.09375-0.03125-0.000273-0.000146-0.09347-0.03112-0.09375-0.03125-0.00028-0.000132-0.09346-0.06238-0.09375-0.0625-0.000286-0.000118-0.06221-0.03115-0.0625-0.03125-0.000292-0.000104-0.09345-0.03116-0.09375-0.03125-0.000296-0.000089-0.09345-0.03118-0.09375-0.03125-0.000301-0.000075-0.09345 0.00006-0.09375 0-0.000304-0.00006-0.09344-0.0312-0.09375-0.03125-0.000306-0.000045-0.09344 0.00003-0.09375 0-0.000308-0.00003-0.09344 0.000014-0.09375 0-0.000309-0.000014-0.09344-0.000001-0.09375 0h-4.0938v-22.094c0.000001-0.00031 0.000014-0.09344 0-0.09375-0.000014-0.000309 0.00003-0.09344 0-0.09375-0.00003-0.000308 0.000045-0.09344 0-0.09375-0.000045-0.000306-0.03119-0.09345-0.03125-0.09375-0.00006-0.000304 0.000075-0.09345 0-0.09375-0.000075-0.000301-0.03116-0.09345-0.03125-0.09375-0.000089-0.000296-0.03115-0.09346-0.03125-0.09375-0.000104-0.000292-0.03113-0.06221-0.03125-0.0625-0.000118-0.000286-0.06237-0.09347-0.0625-0.09375-0.000132-0.00028-0.0311-0.09348-0.03125-0.09375-0.000146-0.000273-0.03109-0.09348-0.03125-0.09375-0.000159-0.000266-0.06233-0.06224-0.0625-0.0625-0.000172-0.000258-0.06232-0.0935-0.0625-0.09375-0.000184-0.000249-0.0623-0.06226-0.0625-0.0625-0.000196-0.000239-0.06229-0.06227-0.0625-0.0625-0.000208-0.000229-0.06228-0.06228-0.0625-0.0625-0.000219-0.000219-0.06227-0.06229-0.0625-0.0625-0.000229-0.000208-0.06226-0.0623-0.0625-0.0625-0.000239-0.000196-0.06225-0.06232-0.0625-0.0625-0.000249-0.000184-0.09349-0.06233-0.09375-0.0625-0.000258-0.000172-0.06223-0.06234-0.0625-0.0625-0.000266-0.000159-0.09348-0.0311-0.09375-0.03125-0.000273-0.000146-0.09347-0.03112-0.09375-0.03125-0.00028-0.000132-0.09346-0.06238-0.09375-0.0625-0.000286-0.000118-0.06221-0.03115-0.0625-0.03125-0.000292-0.000104-0.09345-0.03116-0.09375-0.03125-0.000296-0.000089-0.09345-0.03117-0.09375-0.03125-0.000301-0.000075-0.09345 0.00006-0.09375 0-0.000304-0.00006-0.09344-0.0312-0.09375-0.03125-0.000306-0.000045-0.09344 0.00003-0.09375 0-0.000308-0.00003-0.09344 0.000014-0.09375 0-0.000309-0.000014-0.09344-0.000001-0.09375 0h-17.969c-0.000122-0.000006-0.01936 0.000004-0.03125 0-0.02378-0.000007-0.02696-0.000002-0.0625 0-0.000244-0.000012-0.02696 0.000002-0.0625 0-0.05331-0.000004-0.09338-0.000018-0.09375 0a0.94711 0.94711 0 0 0 -0.15625 0z"/>
    <path id="path3742" opacity=".15" d="m47 24.031c-4.3879 0-7.9688 3.5808-7.9688 7.9688 0 4.3879 3.5808 7.9688 7.9688 7.9688 4.3879 0 7.9688-3.5808 7.9688-7.9688 0-4.3879-3.5808-7.9688-7.9688-7.9688zm-11.094 18a0.96587 0.96587 0 0 0 -0.875 0.969v6a0.96587 0.96587 0 0 0 0.969 0.969h5.0312v16.062h-5.0312a0.96587 0.96587 0 0 0 -0.969 0.969v6a0.96587 0.96587 0 0 0 0.969 0.969h24a0.96587 0.96587 0 0 0 0.969 -0.969v-6a0.96587 0.96587 0 0 0 -0.969 -0.969h-5.0312v-23.031a0.96587 0.96587 0 0 0 -0.969 -0.969h-18a0.96587 0.96587 0 0 0 -0.09375 0z"/>
    <path id="path3733" opacity=".4" d="m47 25c-3.866 0-7 3.134-7 7s3.134 7 7 7 7-3.134 7-7-3.134-7-7-7zm-11 18v6h6v18h-6v6h24v-6h-6v-24h-18z"/>
    <path id="path3716" d="m47 24c-3.866 0-7 3.134-7 7s3.134 7 7 7 7-3.134 7-7-3.134-7-7-7zm-11 18v6h6v18h-6v6h24v-6h-6v-24h-18z" fill="#fff"/>
   </g>
  </g>
 </g>
</svg>
