<?xml version="1.0" encoding="UTF-8" standalone="no"?>
<!-- Created with Inkscape (http://www.inkscape.org/) -->
<svg id="svg2" xmlns:rdf="http://www.w3.org/1999/02/22-rdf-syntax-ns#" xmlns="http://www.w3.org/2000/svg" height="96" width="96" version="1.1" xmlns:cc="http://creativecommons.org/ns#" xmlns:xlink="http://www.w3.org/1999/xlink" xmlns:dc="http://purl.org/dc/elements/1.1/">
 <defs id="defs4">
  <filter id="filter4180" height="3.8298" width="1.2289" color-interpolation-filters="sRGB" y="-1.4149" x="-.11445">
   <feGaussianBlur id="feGaussianBlur4182" stdDeviation="3.5372897"/>
  </filter>
  <radialGradient id="radialGradient4509" gradientUnits="userSpaceOnUse" cy="84" cx="48" gradientTransform="matrix(1.0667 0 0 .066667 -3.2 77.4)" r="30">
   <stop id="stop3315-4" stop-color="#4dbeff" offset="0"/>
   <stop id="stop4186" stop-color="#1379ff" stop-opacity=".65041" offset=".67213"/>
   <stop id="stop3317-7" stop-color="#06f" stop-opacity="0" offset="1"/>
  </radialGradient>
  <linearGradient id="linearGradient5310" y2="78" gradientUnits="userSpaceOnUse" x2="46" gradientTransform="matrix(1.1052 0 0 1.2929 -4.4996 -5.1476)" y1="6" x1="46">
   <stop id="stop4329" stop-color="#f0f0f0" offset="0"/>
   <stop id="stop4331" stop-color="#b4b4b4" offset="1"/>
  </linearGradient>
  <filter id="filter3813" height="1.3968" width="1.372" color-interpolation-filters="sRGB" y="-.19840" x="-.186">
   <feGaussianBlur id="feGaussianBlur3815" stdDeviation="2.48"/>
  </filter>
  <linearGradient id="linearGradient3811" x1="46" gradientUnits="userSpaceOnUse" y1="6" gradientTransform="translate(100)" x2="46" y2="78">
   <stop id="stop4329-6" stop-color="#f0f0f0" offset="0"/>
   <stop id="stop4331-5" stop-color="#b4b4b4" offset="1"/>
  </linearGradient>
  <clipPath id="clipPath3807">
   <path id="path3809" d="m112 6c-3.324 0-6 2.676-6 6v58c0 3.324 2.676 6 6 6h72c3.324 0 6-2.676 6-6v-58c0-3.324-2.676-6-6-6h-72zm36 18 16 18h-32l16-18zm-16 22h32v8h-32v-8z" fill="url(#linearGradient3811)"/>
  </clipPath>
  <filter id="filter3174" color-interpolation-filters="sRGB">
   <feGaussianBlur id="feGaussianBlur3176" stdDeviation="1.71"/>
  </filter>
  <linearGradient id="ButtonShadow-7" x1="45.448" gradientUnits="userSpaceOnUse" y1="92.54" gradientTransform="scale(1.0059 .99417)" x2="45.448" y2="7.0165">
   <stop id="stop3750-7" offset="0"/>
   <stop id="stop3752-1" stop-opacity=".58824" offset="1"/>
  </linearGradient>
  <linearGradient id="linearGradient4830" y2="24" gradientUnits="userSpaceOnUse" x2="48" gradientTransform="translate(0,2)" y1="51.959" x1="48">
   <stop id="stop3769-1" stop-color="#4d4d4d" stop-opacity=".70732" offset="0"/>
   <stop id="stop3771-8" stop-color="#4d4d4d" stop-opacity=".25203" offset="1"/>
  </linearGradient>
 </defs>
 <metadata id="metadata7">
  <rdf:RDF>
   <cc:Work rdf:about="">
    <dc:format>image/svg+xml</dc:format>
    <dc:type rdf:resource="http://purl.org/dc/dcmitype/StillImage"/>
    <dc:title/>
   </cc:Work>
  </rdf:RDF>
 </metadata>
 <g id="layer1" transform="translate(0 -956.36)">
  <rect id="rect5263-0" fill-opacity=".019608" ry="12.724" height="89.978" width="89.624" y="959.35" x="3.3534"/>
  <rect id="rect5261-6" fill-opacity=".039216" ry="12.552" height="88.762" width="88.413" y="959.96" x="3.9589"/>
  <rect id="rect5259-9" fill-opacity=".078431" ry="12.38" height="87.546" width="87.202" y="960.57" x="4.5645"/>
  <rect id="rect5257-5" fill-opacity=".15686" ry="12.208" height="86.33" width="85.991" y="961.18" x="5.1701"/>
  <path id="rect3171" d="m17.75 5.4062c-6.642 0-11.969 5.3948-11.969 12.063l0.0002 61.031c0 6.668 5.3268 12.031 11.969 12.031h60.812c6.642 0 11.969-5.363 11.969-12.031v-61.031c0-6.668-5.327-12.063-11.969-12.063l-60.812 0.0002z" transform="translate(0 956.36)" fill="url(#linearGradient5310)"/>
  <path id="rect5265-0" d="m5.7756 1029.8v5.0663c0 6.668 5.3434 12.032 11.985 12.032h60.809c6.6418 0 11.985-5.3645 11.985-12.032v-5.0663c0 6.6681-5.3434 12.032-11.985 12.032h-60.809c-6.6418 0-11.985-5.3643-11.985-12.032z" fill-opacity=".11765"/>
  <path id="path5252-0" d="m5.7756 1033.9v1.0133c0 6.668 5.3434 12.032 11.985 12.032h60.809c6.6418 0 11.985-5.3645 11.985-12.032v-1.0133c0 6.6681-5.3434 12.032-11.985 12.032h-60.809c-6.6418 0-11.985-5.3644-11.985-12.032z" fill-opacity=".098039"/>
  <g id="layer5" transform="translate(.22004 955.67)">
   <rect id="rect3323" opacity=".6" rx="6.7435" ry="6" height="6" filter="url(#filter4180)" width="74.179" y="80" x="10.911" fill="#06f"/>
   <rect id="rect3311" rx="5.8182" ry="4" height="4" width="64" y="81" x="16" fill="url(#radialGradient4509)"/>
  </g>
  <path id="path4530" fill-opacity=".31132" d="m5.7756 1024.4v1.0133c0 6.668 5.3434 12.032 11.985 12.032h60.809c6.6418 0 11.985-5.3645 11.985-12.032v-1.0133c0 6.6681-5.3434 12.032-11.985 12.032h-60.809c-6.6418 0-11.985-5.3644-11.985-12.032z"/>
  <path id="path4532" fill-opacity=".21226" d="m5.7756 1020.1v5.0663c0 6.668 5.3434 12.032 11.985 12.032h60.809c6.6418 0 11.985-5.3645 11.985-12.032v-5.0663c0 6.6681-5.3434 12.032-11.985 12.032h-60.809c-6.6418 0-11.985-5.3643-11.985-12.032z"/>
  <g id="layer2" display="none" transform="translate(197.01 959.02)">
   <rect id="rect3745" opacity=".9" rx="6" ry="6" height="85" filter="url(#filter3174)" width="86" y="7" x="5" fill="url(#ButtonShadow-7)"/>
  </g>
  <g id="layer4-7" transform="matrix(1.2261 0 0 1.2834 -10.418 945.6)">
   <path id="path3798" opacity=".8" d="m148 24-16 18h32l-16-18zm-16 22v8h32v-8h-32z" clip-path="url(#clipPath3807)" transform="translate(-100)" filter="url(#filter3813)" stroke="#fff" stroke-width="3" fill="none"/>
   <path id="rect3750" fill="url(#linearGradient4830)" d="m48 24-16 18h32l-16-18zm-16 22v8h32v-8h-32z"/>
   <path id="path3763" opacity=".4" d="m48 24-16 18h0.875l15.125-17 15.125 17h0.875l-16-18zm-16 22v1h32v-1h-32z"/>
  </g>
 </g>
</svg>
