<?xml version="1.0" encoding="UTF-8" standalone="no"?>
<!-- Created with Inkscape (http://www.inkscape.org/) -->
<svg id="svg2" xmlns:rdf="http://www.w3.org/1999/02/22-rdf-syntax-ns#" xmlns="http://www.w3.org/2000/svg" height="96" width="96" version="1.1" xmlns:cc="http://creativecommons.org/ns#" xmlns:xlink="http://www.w3.org/1999/xlink" xmlns:dc="http://purl.org/dc/elements/1.1/">
 <defs id="defs4">
  <linearGradient id="linearGradient3613-7" y2="138.66" gradientUnits="userSpaceOnUse" x2="48" y1="20.221" x1="48">
   <stop id="stop3739-40" stop-color="#fff" offset="0"/>
   <stop id="stop3741-8" stop-color="#fff" stop-opacity="0" offset="1"/>
  </linearGradient>
  <clipPath id="clipPath3613-22">
   <rect id="rect3615-13" rx="6" ry="6" height="84" width="84" y="6" x="6" fill="#fff"/>
  </clipPath>
  <filter id="filter3794-3" height="1.384" width="1.384" color-interpolation-filters="sRGB" y="-.192" x="-.192">
   <feGaussianBlur id="feGaussianBlur3796-52" stdDeviation="5.28"/>
  </filter>
  <radialGradient id="RadialGray" gradientUnits="userSpaceOnUse" cy="253.88" cx="254.64" gradientTransform="matrix(1.0608 -.067511 .062270 .97841 -31.59 22.765)" r="233.47">
   <stop id="GrayStop1" stop-color="#434343" offset="0"/>
   <stop id="GrayStop2" stop-color="#434343" offset=".62869"/>
   <stop id="GrayStop3" stop-color="#252525" offset="1"/>
  </radialGradient>
  <clipPath id="ClipBallRelief">
   <path id="ClipBallReliefPath" opacity=".5" d="m0 0v512h512v-512h-512zm258.75 58.438c18.849-0.16932 38.169 3.3445 49.031 7.6875 19.182 7.6693 48.471 16.694 28.406 46.062-20.18 29.538-30.717 88.162-13.469 120.53 17.328 32.52 23.773 38.497 48.219 50.312 24.446 11.816 55.193 11.722 78.125 8.8438 22.974-2.8831 11.417 34.925 4.5625 51.094-17.47 44.5-60.13 77.08-101.82 94.98-42 18.03-154.25 19.91-183.81 5.12-29.86-14.94-51.89-26.59-72.719-47.65-20.837-21.07-31.823-43.95-38.469-69.22-6.7357-25.619 21.573-10.006 54.656-4.4062 33.083 5.5994 69.622-20.349 84.312-37.375 14.691-17.026 36.199-68.119 37.5-100 1.3008-31.881 2.5145-54.669-9.5938-71.562-12.11-16.9-26.29-32.398-3.81-45.975 9.831-5.9399 24.214-8.3058 38.875-8.4375z" fill-rule="evenodd"/>
  </clipPath>
  <clipPath id="ClipBallReflect">
   <path id="ClipBallReflectPath" d="m255.03 37.844c-78.65 2.081-157.93 40.988-202.59 106.66-30.48 45.92-35.58 103.97-29.11 157.4 14.114 84.89 85.39 154.25 168.83 171.73 60.276 13.327 124.99 6.9968 181.79-16.977 53.47-24.376 93.594-75.067 104.63-132.86 13.32-56.37 15.41-119.51-15.6-170.77-41.39-73.25-124.79-116.14-207.95-115.18z"/>
  </clipPath>
  <radialGradient id="RightWhite" xlink:href="#WhiteGradient" gradientUnits="userSpaceOnUse" cy="181.85" cx="418.69" gradientTransform="matrix(.94551 -.40399 .51430 1.2037 -69.782 131.21)" r="81.905"/>
  <linearGradient id="WhiteGradient">
   <stop id="WhiteStop1" stop-color="#fff" offset="0"/>
   <stop id="WhiteStop2" stop-color="#fff" offset=".67379"/>
   <stop id="WhiteStop3" stop-color="#989898" offset="1"/>
  </linearGradient>
  <clipPath id="ClipRightRelief">
   <path id="ClipRightReliefPath" opacity=".2" d="m386 90.5s-28 28.5-34.5 50c-5.0228 16.614-9 51.5 13 79.5 19.452 24.757 56.5 45 87.5 34 31.89-11.316 42.077-41.718 45-66.5 2.9163-24.729 3.5-28 3.5-28l11.5 6 21.5 101-71.5 46-123.5-56.5-12.5-128.5 33.5-59 111 1.5 0.5 13.5-85 7z" fill-rule="evenodd"/>
  </clipPath>
  <radialGradient id="LeftWhite" xlink:href="#WhiteGradient" gradientUnits="userSpaceOnUse" cy="178.67" cx="112.07" gradientTransform="matrix(.83220 .36160 -.50719 1.1673 114.88 -60.5)" r="102.06"/>
  <clipPath id="ClipLeftRelief">
   <path id="ClipLeftReliefPath" opacity=".2" d="m20.5 232.75s45.277 54.998 82.75 52.75c37.5-2.25 61.75-7.5 85.75-45s12.5-88.5 6.5-105.5c-5.84-16.56-28-46-60-58.5l-32-12.5 23.5-5.5 87 26 17.5 113-63 155.5-139.5-17.5-17-97 8.5-5.75z" fill-rule="evenodd" stroke="#000" stroke-width="1px"/>
  </clipPath>
  <linearGradient id="linearGradient3700-0">
   <stop id="stop3702-2" stop-color="#70a83e" offset="0"/>
   <stop id="stop3704-9" stop-color="#9fd058" offset="1"/>
  </linearGradient>
  <linearGradient id="linearGradient4982" y2="5.9877" xlink:href="#linearGradient3700-0" gradientUnits="userSpaceOnUse" x2="48" gradientTransform="translate(101.91 941.34)" y1="90" x1="48"/>
  <linearGradient id="linearGradient5017" y2="5.9877" gradientUnits="userSpaceOnUse" x2="48" gradientTransform="matrix(1.1094 0 0 1.0842 -6.5837 -5.2703)" y1="90" x1="48">
   <stop id="stop3189-68" stop-color="#793c87" offset="0"/>
   <stop id="stop3191-98" stop-color="#b87cc8" offset="1"/>
  </linearGradient>
 </defs>
 <metadata id="metadata7">
  <rdf:RDF>
   <cc:Work rdf:about="">
    <dc:format>image/svg+xml</dc:format>
    <dc:type rdf:resource="http://purl.org/dc/dcmitype/StillImage"/>
    <dc:title/>
   </cc:Work>
  </rdf:RDF>
 </metadata>
 <g id="layer1" transform="translate(0 -956.36)">
  <rect id="rect5263-0" fill-opacity=".019608" ry="12.724" height="89.978" width="89.978" y="959.35" x="2.9998"/>
  <rect id="rect5261-6" fill-opacity=".039216" ry="12.552" height="88.762" width="88.762" y="959.96" x="3.6078"/>
  <rect id="rect5259-9" fill-opacity=".078431" ry="12.38" height="87.546" width="87.546" y="960.57" x="4.2157"/>
  <rect id="rect5257-5" fill-opacity=".15686" ry="12.208" height="86.33" width="86.33" y="961.18" x="4.8237"/>
  <path id="rect2419" d="m17.469 5.4062c-6.668 0-12.032 5.3948-12.032 12.063l0.0005 61.031c0 6.668 5.3635 12.031 12.032 12.031h61.03c6.454 0 11.671-5.036 12-11.406v-62.281c-0.321-6.377-5.54-11.438-12-11.438l-61.031 0.0002z" transform="translate(0 956.36)" fill="url(#linearGradient5017)"/>
  <path id="rect5265-0" d="m5.4316 1029.8v5.0663c0 6.668 5.3645 12.032 12.032 12.032h61.049c6.668 0 12.032-5.3645 12.032-12.032v-5.0663c0 6.6681-5.3645 12.032-12.032 12.032h-61.049c-6.668 0-12.032-5.3643-12.032-12.032z" fill-opacity=".23529"/>
  <path id="path5252-0" d="m5.4316 1033.9v1.0133c0 6.668 5.3645 12.032 12.032 12.032h61.049c6.668 0 12.032-5.3645 12.032-12.032v-1.0133c0 6.6681-5.3645 12.032-12.032 12.032h-61.049c-6.668 0-12.032-5.3644-12.032-12.032z" fill-opacity=".098039"/>
  <g id="layer5" transform="translate(-95.023 954.86)">
   <rect id="rect3171" height="66" stroke="#fff" stroke-linecap="round" stroke-width=".5" fill="url(#linearGradient3613-7)" rx="12" ry="12" width="66" opacity=".1" clip-path="url(#clipPath3613-22)" filter="url(#filter3794-3)" y="15" x="15"/>
  </g>
  <rect id="rect3873" rx="6" ry="6" height="84" width="84" display="none" y="947.34" x="107.91" fill="url(#linearGradient4982)"/>
  <rect id="rect3880" rx="6" ry="6" height="84" width="84" display="none" y="947.34" x="107.91" fill="url(#linearGradient4982)"/>
  <g id="layer6" transform="matrix(1.2874 0 0 1.2874 -13.39 940.57)">
   <path id="path3887" opacity=".05" d="m47.469 18.688c-5.4472 0.14415-10.785 1.729-15.594 4.2812-0.09565-0.0074-0.1875-0.0262-0.3125-0.03125v0.15625c-0.0085 0.0046-0.02276-0.0046-0.03125 0 0.00021-0.02048-0.000093-0.15625 0-0.15625-0.0087 0.000002-0.01947 0-0.03125 0s-0.05383 0.000002-0.0625 0a1.0812 1.0812 0 0 0 -0.03125 0c-5.5178 0.09175-9.992 3.6039-12.75 7.6562-0.0036 0.0053-0.02762-0.0053-0.03125 0 0.0013-0.0013 0 0.03125 0 0.03125-0.02415 0.03564-0.06987 0.05802-0.09375 0.09375h-0.03125c-0.0061 0.0051 0.12483-0.15648 0 0.03125-0.01656 0.01656-0.03171 0.03173-0.03125 0.03125a1.0812 1.0812 0 0 0 -0.0625 0.09375c0.24291-0.37183 0.22747-0.36677-0.03125 0.03125a1.0812 1.0812 0 0 0 -0.03125 0.0625c-1.879 2.971-3.169 6.419-3.346 10.092a1.0812 1.0812 0 0 0 0 0.03125c0.00001-0.000623 0.000003 0.04294 0 0.0625 0.000001 0.0041 0 0.02467 0 0.03125-0.000001 0.01316 0.000002 0.02148 0 0.03125-0.000193-0.01646-0.000517-0.0072 0 0.03125 0.000582 0.04322 0.03036 0.0818 0.03125 0.125 0.03603 1.7558 0.33451 3.5002 0.78125 5.1562-0.19352 2.6165-0.09827 5.2392 0.1875 7.75 0.0012 0.01012-0.0012 0.02114 0 0.03125a1.0812 1.0812 0 0 0 -0.03125 0.03125c0.000005 0.0025-0.000004 0.02558 0 0.03125a1.0812 1.0812 0 0 0 0 0.03125 1.0812 1.0812 0 0 0 0 0.03125c-0.000004 0.0057 0.000005 0.02878 0 0.03125 0.000003 0.01956 0.00001 0.06312 0 0.0625a1.0812 1.0812 0 0 0 0.031 0.032 1.0812 1.0812 0 0 0 0 0.0625 1.0812 1.0812 0 0 0 0.03125 0.15625c-0.000794-0.0028 0.06357 0.2215 0.0625 0.21875 2.0497 11.704 11.666 20.98 23.094 23.375 8.0681 1.7838 16.603 0.95134 24.188-2.25a1.0812 1.0812 0 0 0 0.03125 -0.03125c-0.000786 0.000359 0.03593-0.01796 0.0625-0.03125 0.06394-0.02915 0.07494-0.02109 0.09375-0.03125 0.014-0.008 0.071-0.036 0.063-0.032a1.0812 1.0812 0 0 0 0.125 -0.0625c-0.002 0.0013 0.12687-0.09515 0.125-0.09375-0.0019 0.0014 0.12675-0.0953 0.125-0.09375 6.9553-3.3795 12.027-9.872 13.75-17.406-0.002 0.003 0.05063-0.07691 0.0625-0.09375a1.0812 1.0812 0 0 0 0 -0.0625c0.0029-0.01301 0.02839-0.01823 0.03125-0.03125a1.0812 1.0812 0 0 0 0 -0.03125h0.03125c0.0021-0.0044-0.0053-0.02063 0-0.03125a1.0812 1.0812 0 0 0 0 -0.03125c0.0077-0.02314 0.02143-0.03305 0.03125-0.0625 0.0098-0.02945 0.02679-0.04921 0.03125-0.0625 0.002-0.0058 0.000105-0.03163 0-0.03125 0.0068-0.01643 0.03146-0.03181 0.03125-0.03125-0.000703 0.0019 0.06307-0.12692 0.0625-0.125-0.000575 0.0019 0.03169-0.12695 0.03125-0.125a1.0812 1.0812 0 0 0 0 -0.03125c0.0024-0.01248-0.0019-0.02173 0-0.03125 0.006-0.03094 0.02554-0.05936 0.03125-0.09375 0.0046-0.01976-0.0046-0.04273 0-0.0625 0.000239-0.0045 0.000083-0.02064 0-0.03125 0.000573-0.0048-0.000821-0.02351 0-0.03125-0.000273-0.01339 0.000331-0.0184 0-0.03125 0.66843-2.9225 1.0716-5.9857 1.0938-9.0938 0.0082-0.01265 0.02363-0.01885 0.03125-0.03125a1.0812 1.0812 0 0 0 0.032 -0.033c-0.001 0.002 0.063-0.158 0.062-0.156-0.04294 0.07207-0.09361 0.09366-0.125 0.125 0.000342-0.07394 0.03135-0.14477 0.03125-0.21875a1.0812 1.0812 0 0 0 0.0625 0h0.03125a1.0812 1.0812 0 0 0 0.03125 0c-0.0064 0.01507 0.01265 0.006 0 0.03125a1.0812 1.0812 0 0 0 0.033 -0.031c0.01501-0.03032 0.01649-0.06337 0.03125-0.09375a1.0812 1.0812 0 0 0 0 -0.03125c1.6408-3.3945 1.7667-7.1124 1.1562-10.5 0.0034 0.000057 0.0625-0.000037 0.0625 0-0.000002-0.0087 0-0.01947 0-0.03125s-0.000002-0.05383 0-0.0625h-0.0625c-0.0037-0.02005 0.0037-0.04248 0-0.0625h0.03125c-0.000076 0.0016-0.000011-0.06942 0-0.125 0.000008-0.04169-0.000057-0.09495 0-0.09375a1.0812 1.0812 0 0 0 -0.031 -0.03c0.00018 0.000719 0.0068-0.03862 0-0.0625a1.0812 1.0812 0 0 0 0 -0.09375c-0.584-2.322-1.616-4.602-3.093-6.593-0.277-0.373-0.569-0.774-0.969-1.219-1.812-2.015-4.275-3.1-6.75-3.562-0.089-0.062-0.056-0.011-0.094-0.032-0.08-0.043-0.187-0.093-0.187-0.093a1.0812 1.0812 0 0 0 -0.094 -0.031l-0.3125-0.09375a1.0812 1.0812 0 0 0 -0.21875 -0.03125 1.0812 1.0812 0 0 0 -0.03125 0 1.0812 1.0812 0 0 0 -0.125 0c-0.05052-0.0064-0.07549 0.0057-0.125 0-0.01238-0.0014-0.01894 0.0014-0.03125 0-0.59545-0.06709-1.1265-0.10681-1.5-0.125-5.6341-4.0198-12.462-6.3236-19.438-6.25h-0.03125c-0.0098 0.000002-0.01809-0.000001-0.03125 0-0.0066 0-0.02714 0.000001-0.03125 0v1.0938l-0.031-1.094zm-15.938 4.5312 0.03125 0.0625-0.03125 0.75c0.0027-0.40142-0.0015-0.63263 0-0.8125zm-12.688 7.75 0.375 0.25c0.053 0.052 0.157 0.156 0.157 0.156l-0.53125-0.40625zm61.219 6.125 0.375 0.03125-0.40625 0.0625h-0.5l0.53125-0.09375zm-1.624 0.156s0.55315 0.02766 1.0938 0.03125h-0.03125l-1.063-0.031zm0.03125 10.281h0.03125a1.0812 1.0812 0 0 0 0.40625 0.3125h-0.40625c-0.02737-0.13306-0.0504-0.22243-0.0625-0.28125 0.0056-0.001 0.02376-0.02986 0.03125-0.03125zm0.09375 0.71875 0.25 0.1875c-0.03429 0.01441-0.06252 0.03126-0.0625 0.03125l-0.125 0.03125s-0.04379-0.15902-0.0625-0.25zm-2.2812 8.2812c0.05133 0.052 0.58913 0.58783 0.6875 0.6875-0.06-0.052-0.661-0.603-0.72-0.656 0.01342-0.01411 0.02287-0.02244 0.03125-0.03125z"/>
   <path id="path3883" opacity=".1" d="m47.5 19.781c-5.4067 0.14308-10.733 1.6803-15.5 4.2812-0.15371-0.0086-0.31594-0.02508-0.46875-0.03125 0.000982 0.000017-0.09473 0.000017-0.09375 0-5.1286 0.08528-9.3979 3.3876-12 7.2812-0.008 0.01193-0.02331 0.01931-0.03125 0.03125-0.01661 0.01661-0.03173 0.03175-0.03125 0.03125a0.9921 0.9921 0 0 0 -0.0625 0.09375c-0.007 0.013-0.023 0.02-0.031 0.032a0.9921 0.9921 0 0 0 -0.031 0.031c-1.7912 2.8357-2.9893 6.1358-3.1562 9.5938a0.9921 0.9921 0 0 0 0 0.03125c0.000011-0.000655 0.000004 0.04289 0 0.0625 0.000121 0.01033-0.000139 0.02092 0 0.03125 0.02363 1.7534 0.31593 3.5125 0.78125 5.1875-0.21088 2.66-0.11471 5.34 0.1875 7.9062 0.000068-0.002 0.000068 0.12696 0 0.125a0.9921 0.9921 0 0 0 0 0.03125 0.9921 0.9921 0 0 0 0.03125 0.09375c1.8841 11.331 11.244 20.4 22.312 22.719 7.8412 1.7337 16.185 0.92632 23.562-2.1875a0.9921 0.9921 0 0 0 0.0625 -0.03125c0.04249-0.01937 0.08264-0.04288 0.125-0.0625a0.9921 0.9921 0 0 0 0.125 -0.09375c6.8796-3.241 11.934-9.6859 13.531-17.125a0.9921 0.9921 0 0 0 0.03125 -0.03125c0.0048-0.02271 0.02648-0.03977 0.03125-0.0625a0.9921 0.9921 0 0 0 0.033 -0.095 0.9921 0.9921 0 0 0 0.094 -0.25c0.0392-0.2023 0.000992-0.02009 0-0.03125s0.03473-0.21309 0-0.03125c0.71271-3.0418 1.1346-6.2413 1.125-9.4688 0.0732-0.08342 0.09748-0.07217 0.1875-0.21875a0.9921 0.9921 0 0 0 0.03125 -0.0625c-0.00074 0.0013 0.01181-0.05492 0.03125-0.09375 0.0083-0.01664 0.03152-0.03185 0.03125-0.03125 1.5915-3.2155 1.7174-6.8507 1.0938-10.156h0.03125c-0.000017 0.000982-0.000017-0.09473 0-0.09375a0.9921 0.9921 0 0 0 -0.03 -0.125 0.9921 0.9921 0 0 0 0 -0.09375c-0.552-2.192-1.519-4.317-2.906-6.187-0.286-0.385-0.557-0.768-0.906-1.156-1.733-1.926-4.133-3.01-6.563-3.375-0.01806-0.01242-0.06249-0.03125-0.0625-0.03125-0.00004-0.00002-0.31246-0.09374-0.3125-0.09375v0.03125c-0.0121 0.000875-0.15244-0.01782-0.03125 0-0.784-0.115-1.474-0.127-1.969-0.156-0.0071-0.0052-0.02411 0.0052-0.03125 0-5.5048-4.0193-12.273-6.2911-19.125-6.2188 0.000327 0.000006-0.02144-0.000002-0.03125 0-0.01961 0.000004-0.06316 0.000011-0.0625 0z"/>
   <path id="path3879" opacity=".15" d="m47.531 20.781c-5.36 0.142-10.698 1.648-15.406 4.281-0.196-0.017-0.391-0.021-0.625-0.031a0.9065 0.9065 0 0 0 -0.03125 0c-4.7902 0.07965-8.8945 3.2319-11.344 7a0.9065 0.9065 0 0 0 -0.03125 0.03125c-1.7108 2.7085-2.8426 5.865-3 9.125a0.9065 0.9065 0 0 0 0 0.03125c0.0203 1.7266 0.30394 3.4601 0.78125 5.125-0.22856 2.6952-0.12936 5.4145 0.1875 8.0312a0.9065 0.9065 0 0 0 0 0.0625c1.8102 10.887 10.894 19.671 21.562 21.906 7.633 1.6876 15.783 0.90801 22.969-2.125a0.9065 0.9065 0 0 0 0.031 -0.029c6.8559-3.1255 11.937-9.5938 13.375-17h0.03125c0.0038-0.0196-0.0037-0.04289 0-0.0625 0.72946-3.1045 1.1709-6.3904 1.125-9.6562 0.09205-0.10992 0.19343-0.1811 0.3125-0.375a0.9065 0.9065 0 0 0 0.032 -0.063c1.5179-3.0428 1.6718-6.575 1.0312-9.7812a0.9065 0.9065 0 0 0 0 -0.03125c-0.523-2.08-1.418-4.091-2.719-5.844-0.28064-0.37826-0.56025-0.74416-0.875-1.0938-1.6342-1.8171-3.9603-2.846-6.3125-3.125-0.0028-0.000338 0.0028-0.03091 0-0.03125-0.02289-0.0036-0.03974 0.0033-0.0625 0-0.697-0.102-1.347-0.09-1.906-0.125a0.9065 0.9065 0 0 0 -0.094 0c-0.032 0.002-0.034-0.002-0.062 0-5.395-4.056-12.155-6.297-18.938-6.219a0.9065 0.9065 0 0 0 -0.03125 0z"/>
   <path id="path3798" opacity=".3" d="m47.562 21.688c-5.31 0.14-10.636 1.655-15.281 4.312-0.27103-0.02037-0.54083-0.05153-0.8125-0.0625-4.3938 0.07306-8.2716 3.0212-10.594 6.5938-1.638 2.5932-2.7265 5.6121-2.875 8.6875 0.02014 1.7127 0.28833 3.4452 0.78125 5.0938-0.23583 2.6576-0.12819 5.3616 0.1875 7.9688 1.7422 10.478 10.544 19.029 20.844 21.188 7.4405 1.6451 15.426 0.86555 22.438-2.0938 6.6004-3.009 11.544-9.2723 12.906-16.406 0.74965-3.1734 1.2076-6.5104 1.125-9.8125 0.13502-0.17984 0.28746-0.33781 0.40625-0.53125 1.404-2.8146 1.5781-6.1378 0.96875-9.1875-0.49769-1.9782-1.3428-3.8873-2.5625-5.5312-0.264-0.357-0.55-0.706-0.845-1.034-1.4782-1.6436-3.6003-2.5986-5.7812-2.8438-0.6203-0.09752-1.2498-0.08617-1.875-0.125-0.10295 0.0053-0.20915 0.02382-0.3125 0.03125-5.2786-4.0832-12.009-6.3276-18.719-6.25z"/>
   <g id="Logo" transform="matrix(.12344 0 0 .12344 16.091 16.009)">
    <g id="GooBall">
     <path id="Ball" fill="url(#RadialGray)" d="m255.03 37.844c-78.65 2.081-157.93 40.988-202.59 106.66-30.48 45.92-35.58 103.97-29.11 157.4 14.114 84.89 85.39 154.25 168.83 171.73 60.276 13.327 124.99 6.9968 181.79-16.977 53.47-24.376 93.594-75.067 104.63-132.86 13.32-56.37 15.41-119.51-15.6-170.77-41.39-73.25-124.79-116.14-207.95-115.18z"/>
     <path id="BallRelief" opacity=".15" d="m255.03 37.844c-78.65 2.081-157.93 40.988-202.59 106.66-30.48 45.92-35.58 103.97-29.11 157.4 14.114 84.89 85.39 154.25 168.83 171.73 60.276 13.327 124.99 6.9968 181.79-16.977 53.47-24.376 93.594-75.067 104.63-132.86 13.32-56.37 15.41-119.51-15.6-170.77-41.39-73.25-124.79-116.14-207.95-115.18z" clip-path="url(#ClipBallRelief)"/>
     <path id="BallReflect" opacity=".05" d="m73 413c98.712-23.703 195.4-65.93 271.05-134.85 50.739-46.018 86.519-108.83 95.973-176.99 13.254-65.4 24.176-131.45 41.935-195.82 3.9149-7.9565 5.2614 12.147 7.9667 16.264 23.02 76.135 46.05 152.27 69.07 228.4-10.333 118.33-20.667 236.67-31 355-156.33 3.6667-312.67 7.3333-469 11l-1-100 15-3z" clip-path="url(#ClipBallReflect)" fill-rule="evenodd"/>
     <path id="Lights" opacity="0.02" d="m271.94 131c-3.3901 0.18518-6.6645 3.3694-6.3125 7 0.36347 3.7488 1.6345 7 7 7 5.364 0 6.6239-2.6236 7-7 0.375-4.364-3.261-6.75-7-7-0.22591-0.0151-0.46149-0.0123-0.6875 0zm-22.375 25.5c-1.735-0.11664-3.0191 1.5186-3.0625 3.0625-0.0399 1.419 1.0999 2.847 3.0625 3.0938 1.8395 0.23128 3.1339-1.2658 3.0938-3.0938-0.0402-1.8295-1.2344-2.9375-3.0938-3.0625z" fill-rule="evenodd" fill="#fff"/>
    </g>
    <g id="RightEye" fill-rule="evenodd">
     <path id="RightEyeball" d="m409.19 88.188c-15.36 0.79519-31.399 4.3208-42.775 15.414-15.948 15.15-22.144 37.36-26.71 58.186-6.6472 30.351 3.6973 63.336 25.982 84.872 18.749 19.28 46.565 31.054 73.55 25.796 20.362-3.8844 40.649-14.502 51.736-32.556 11.374-22.801 12.796-49.706 7.8601-74.411-4.0318-16.026-11.092-31.494-20.973-44.812-2.132-2.8736-4.3953-5.6471-6.7878-8.3045-11.97-13.314-29.03-21.158-46.69-23.144-5.03-0.79-10.12-0.724-15.19-1.038z" fill="url(#RightWhite)"/>
     <path id="RightPupil" d="m448.16 153.81c-5.739 0.0561-11.541 2.0162-15.679 6.0963-9.0974 8.8355-11.048 24.189-4.3355 34.972 4.9522 7.8987 15.11 11.954 24.168 9.9503 6.3842-1.3519 12.753-4.5343 16.273-10.253 6.192-9.8889 4.6141-23.495-2.5154-32.48-4.2335-5.4245-11.011-8.669-17.911-8.2855z" fill="#070402"/>
     <path id="RightRelief" opacity="0.08" d="m409.19 88.188c-15.36 0.79519-31.399 4.3208-42.775 15.414-15.948 15.15-22.144 37.36-26.71 58.186-6.6472 30.351 3.6973 63.336 25.982 84.872 18.749 19.28 46.565 31.054 73.55 25.796 20.362-3.8844 40.649-14.502 51.736-32.556 11.374-22.801 12.796-49.706 7.8601-74.411-4.0318-16.026-11.092-31.494-20.973-44.812-2.132-2.8736-4.3953-5.6471-6.7878-8.3045-11.97-13.314-29.03-21.158-46.69-23.144-5.03-0.79-10.12-0.724-15.19-1.038z" clip-path="url(#ClipRightRelief)"/>
     <path id="path3747" d="m448.16 153.81c-5.739 0.0561-11.541 2.0162-15.679 6.0963-9.0974 8.8355-11.048 24.189-4.3355 34.972 4.9522 7.8987 15.11 11.954 24.168 9.9503 6.3842-1.3519 12.753-4.5343 16.273-10.253 6.192-9.8889 4.6141-23.495-2.5154-32.48-4.2335-5.4245-11.011-8.669-17.911-8.2855z" fill="#070402"/>
    </g>
    <g id="LeftEye" fill-rule="evenodd">
     <path id="LeftEyeball" d="m124.59 72.375c-35.592 0.592-66.953 24.424-85.765 53.365-13.27 21.01-22.157 45.37-23.359 70.28 0.24939 21.214 4.9479 42.675 14.129 61.776 14.028 21.566 35.554 39.844 61.112 45.466 21.123 3.8253 43.698 0.56293 62.087-10.881 45.505-25.187 69.558-79.097 66.536-129.9-1.5212-23.788-7.6936-49.992-27.601-65.239-17.075-13.484-38.272-21.805-59.779-24.509-2.4496-0.17364-4.9041-0.2622-7.3575-0.36133z" fill="url(#LeftWhite)"/>
     <path id="LeftRelief" opacity="0.08" d="m124.59 72.375c-35.592 0.592-66.953 24.424-85.765 53.365-13.27 21.01-22.157 45.37-23.359 70.28 0.24939 21.214 4.9479 42.675 14.129 61.776 14.028 21.566 35.554 39.844 61.112 45.466 21.123 3.8253 43.698 0.56293 62.087-10.881 45.505-25.187 69.558-79.097 66.536-129.9-1.5212-23.788-7.6936-49.992-27.601-65.239-17.075-13.484-38.272-21.805-59.779-24.509-2.4496-0.17364-4.9041-0.2622-7.3575-0.36133z" clip-path="url(#ClipLeftRelief)"/>
     <path id="LeftPupil" d="m90.507 153.18c-5.746-0.1256-11.228 2.3178-15.96 5.3729-9.1059 6.3974-12.433 18.711-10.02 29.256 1.8545 9.0925 8.4959 17.438 17.657 19.884 8.6782 2.5877 18.66 0.33409 25.198-5.9822 6.7495-5.2273 9.8898-14.215 8.6521-22.563-1.456-10.986-8.8797-21.648-19.706-25.048-1.8863-0.57036-3.8505-0.88518-5.8212-0.92052z" fill="#070402"/>
    </g>
   </g>
  </g>
 </g>
</svg>
