<?xml version="1.0" encoding="UTF-8" standalone="no"?>
<!-- Created with Inkscape (http://www.inkscape.org/) -->
<svg id="svg2408" xmlns:rdf="http://www.w3.org/1999/02/22-rdf-syntax-ns#" xmlns="http://www.w3.org/2000/svg" height="96" width="96" version="1.0" xmlns:cc="http://creativecommons.org/ns#" xmlns:xlink="http://www.w3.org/1999/xlink" xmlns:dc="http://purl.org/dc/elements/1.1/">
 <defs id="defs2410">
  <linearGradient id="linearGradient3614">
   <stop id="stop3616" stop-color="#6da014" offset="0"/>
   <stop id="stop3618" stop-color="#b4e844" offset="1"/>
  </linearGradient>
  <linearGradient id="ButtonShadow" y2="7.0165" gradientUnits="userSpaceOnUse" x2="45.448" gradientTransform="scale(1.0059 .99417)" y1="92.54" x1="45.448">
   <stop id="stop3750" offset="0"/>
   <stop id="stop3752" stop-opacity=".58824" offset="1"/>
  </linearGradient>
  <linearGradient id="linearGradient3737">
   <stop id="stop3739" stop-color="#fff" offset="0"/>
   <stop id="stop3741" stop-color="#fff" stop-opacity="0" offset="1"/>
  </linearGradient>
  <filter id="filter3174" color-interpolation-filters="sRGB">
   <feGaussianBlur id="feGaussianBlur3176" stdDeviation="1.71"/>
  </filter>
  <linearGradient id="linearGradient3188" y2="63.893" xlink:href="#linearGradient3737" gradientUnits="userSpaceOnUse" x2="36.357" y1="6" x1="36.357"/>
  <filter id="filter3794" height="1.384" width="1.384" color-interpolation-filters="sRGB" y="-.192" x="-.192">
   <feGaussianBlur id="feGaussianBlur3796" stdDeviation="5.28"/>
  </filter>
  <linearGradient id="linearGradient3613" y2="138.66" xlink:href="#linearGradient3737" gradientUnits="userSpaceOnUse" x2="48" y1="20.221" x1="48"/>
  <radialGradient id="radialGradient3619" xlink:href="#linearGradient3737" gradientUnits="userSpaceOnUse" cy="90.172" cx="48" gradientTransform="matrix(1.1573 0 0 .99591 -7.551 .19713)" r="42"/>
  <clipPath id="clipPath3613">
   <rect id="rect3615" rx="6" ry="6" height="84" width="84" y="6" x="6" fill="#fff"/>
  </clipPath>
  <linearGradient id="linearGradient3617" y2="5.9877" xlink:href="#linearGradient3614" gradientUnits="userSpaceOnUse" x2="48" y1="90" x1="48"/>
  <clipPath id="clipPath3644">
   <path id="path3646" d="m12 96c-3.324 0-6 2.676-6 6v72c0 3.324 2.676 6 6 6h72c3.324 0 6-2.676 6-6v-72c0-3.324-2.676-6-6-6h-72zm36 11c18.225 0 33 12.088 33 27s-14.775 27-33 27c-2.7139 0-5.3515-0.27575-7.875-0.78125-3.3926 3.5412-9.7833 8.2333-19.406 7.1875 7.4297-2.1002 8.9991-8.2412 9.3438-10.75-9.063-4.82-15.063-13.16-15.063-22.66 0-14.91 14.775-27 33-27z" fill="url(#linearGradient3648)"/>
  </clipPath>
  <linearGradient id="linearGradient3648" y2="5.9877" xlink:href="#linearGradient3614" gradientUnits="userSpaceOnUse" x2="48" gradientTransform="translate(0,90)" y1="90" x1="48"/>
  <filter id="filter3678" height="1.3762" width="1.3451" color-interpolation-filters="sRGB" y="-.18809" x="-.17257">
   <feGaussianBlur id="feGaussianBlur3680" stdDeviation="4.745809"/>
  </filter>
  <linearGradient id="linearGradient3777" y2="47.277" gradientUnits="userSpaceOnUse" x2="127.28" y1="47.277" x1="15">
   <stop id="stop3773" offset="0"/>
   <stop id="stop3775" stop-opacity="0" offset="1"/>
  </linearGradient>
  <linearGradient id="linearGradient3699" y2="26.423" gradientUnits="userSpaceOnUse" x2="50.631" y1="61.373" x1="50.631">
   <stop id="stop3699" stop-color="#e6e6e6" offset="0"/>
   <stop id="stop3701" stop-color="#f5f5f5" offset="1"/>
  </linearGradient>
  <linearGradient id="ButtonShadow-0" y2="7.0165" gradientUnits="userSpaceOnUse" x2="45.448" gradientTransform="matrix(1.0059 0 0 .99417 100 0)" y1="92.54" x1="45.448">
   <stop id="stop3750-8" offset="0"/>
   <stop id="stop3752-5" stop-opacity=".58824" offset="1"/>
  </linearGradient>
  <linearGradient id="linearGradient3780" y2="90.239" xlink:href="#ButtonShadow-0" gradientUnits="userSpaceOnUse" x2="32.251" gradientTransform="matrix(1.0238 0 0 1.0119 -1.1429 -98.071)" y1="6.1317" x1="32.251"/>
  <linearGradient id="linearGradient3721" y2="90.239" xlink:href="#ButtonShadow-0" gradientUnits="userSpaceOnUse" x2="32.251" gradientTransform="translate(0,-97)" y1="6.1317" x1="32.251"/>
 </defs>
 <metadata id="metadata2413">
  <rdf:RDF>
   <cc:Work rdf:about="">
    <dc:format>image/svg+xml</dc:format>
    <dc:type rdf:resource="http://purl.org/dc/dcmitype/StillImage"/>
   </cc:Work>
  </rdf:RDF>
 </metadata>
 <g id="layer2" display="none">
  <rect id="rect3745" opacity=".9" rx="6" ry="6" height="85" filter="url(#filter3174)" width="86" y="7" x="5" fill="url(#ButtonShadow)"/>
 </g>
 <g id="layer6">
  <path id="path3786" opacity="0.08" d="m12-95.031c-5.5111 0-10.031 4.5202-10.031 10.031v71c0 5.5111 4.5202 10.031 10.031 10.031h72c5.5111 0 10.031-4.5202 10.031-10.031v-71c0-5.5111-4.5202-10.031-10.031-10.031h-72z" transform="scale(1,-1)" fill="url(#linearGradient3780)"/>
  <path id="path3778" opacity=".1" d="m12-94.031c-4.9716 0-9.0312 4.0596-9.0312 9.0312v71c0 4.9716 4.0596 9.0312 9.0312 9.0312h72c4.9716 0 9.0312-4.0596 9.0312-9.0312v-71c0-4.9716-4.0596-9.0312-9.0312-9.0312h-72z" transform="scale(1,-1)" fill="url(#linearGradient3780)"/>
  <path id="path3770" opacity=".2" d="m12-93c-4.4091 0-8 3.5909-8 8v71c0 4.4091 3.5909 8 8 8h72c4.4091 0 8-3.5909 8-8v-71c0-4.4091-3.5909-8-8-8h-72z" transform="scale(1,-1)" fill="url(#linearGradient3780)"/>
  <rect id="rect3723" opacity=".3" transform="scale(1,-1)" rx="7" ry="7" height="85" width="86" y="-92" x="5" fill="url(#linearGradient3780)"/>
  <rect id="rect3716" opacity=".45" transform="scale(1,-1)" rx="6" ry="6" height="84" width="84" y="-91" x="6" fill="url(#linearGradient3721)"/>
 </g>
 <g id="layer1">
  <rect id="rect2419" rx="6" ry="6" height="84" width="84" y="6" x="6" fill="url(#linearGradient3617)"/>
  <path id="rect3728" opacity=".5" d="m12 6c-3.324 0-6 2.676-6 6v2 68 2c0 0.33472 0.04135 0.6507 0.09375 0.96875 0.0487 0.2956 0.09704 0.59692 0.1875 0.875 0.00988 0.03038 0.020892 0.0636 0.03125 0.09375 0.098865 0.28777 0.23488 0.54745 0.375 0.8125 0.14459 0.27351 0.31562 0.53562 0.5 0.78125 0.18438 0.24564 0.37378 0.47347 0.59375 0.6875 0.43995 0.42806 0.94291 0.81453 1.5 1.0938 0.27854 0.13961 0.57347 0.24695 0.875 0.34375-0.2562-0.10022-0.48671-0.23627-0.71875-0.375-0.00741-0.0044-0.023866 0.0045-0.03125 0-0.031933-0.0193-0.062293-0.04251-0.09375-0.0625-0.1204-0.0767-0.23102-0.16351-0.34375-0.25-0.10617-0.0808-0.21328-0.16111-0.3125-0.25-0.1778-0.162-0.3473-0.346-0.4999-0.531-0.1075-0.131-0.2183-0.266-0.3124-0.407-0.0251-0.038-0.0385-0.086-0.0626-0.125-0.0647-0.103-0.1302-0.204-0.1874-0.312-0.1011-0.195-0.2057-0.416-0.2813-0.625-0.008-0.022-0.0236-0.041-0.0313-0.063-0.0318-0.092-0.0358-0.187-0.0624-0.281-0.0304-0.107-0.0704-0.203-0.0938-0.313-0.0729-0.341-0.125-0.698-0.125-1.062v-2-68-2c0-2.782 2.2182-5 5-5h2 68 2c2.7818 0 5 2.2182 5 5v2 68 2c0 0.3643-0.05212 0.72099-0.125 1.0625-0.04415 0.20689-0.08838 0.39766-0.15625 0.59375-0.0077 0.02195-0.0233 0.04069-0.03125 0.0625-0.06274 0.17374-0.13838 0.36745-0.21875 0.53125-0.04158 0.0828-0.07904 0.16995-0.125 0.25-0.0546 0.09721-0.12677 0.18835-0.1875 0.28125-0.09411 0.14096-0.20492 0.276-0.3125 0.40625-0.14317 0.17445-0.30314 0.347-0.46875 0.5-0.01117 0.0102-0.01998 0.02115-0.03125 0.03125-0.13839 0.12556-0.28509 0.23444-0.4375 0.34375-0.10257 0.07315-0.20432 0.15336-0.3125 0.21875-0.0074 0.0045-0.02384-0.0044-0.03125 0-0.23204 0.13873-0.46255 0.27478-0.71875 0.375 0.30153-0.0968 0.59646-0.20414 0.875-0.34375 0.55709-0.27922 1.0601-0.66569 1.5-1.0938 0.21997-0.21403 0.40937-0.44186 0.59375-0.6875s0.35541-0.50774 0.5-0.78125c0.14012-0.26505 0.27614-0.52473 0.375-0.8125 0.01041-0.03078 0.02133-0.06274 0.03125-0.09375 0.09046-0.27808 0.1388-0.5794 0.1875-0.875 0.053-0.318 0.094-0.634 0.094-0.969v-2-68-2c0-3.324-2.676-6-6-6h-72z" fill="url(#linearGradient3188)"/>
  <path id="path3615" opacity=".2" d="m12 90c-3.324 0-6-2.676-6-6v-2-68-2c0-0.33472 0.04135-0.6507 0.09375-0.96875 0.0487-0.2956 0.09704-0.59692 0.1875-0.875 0.0099-0.03 0.0209-0.063 0.0313-0.094 0.0989-0.2873 0.2349-0.547 0.375-0.812 0.1446-0.2735 0.3156-0.5356 0.5-0.7812 0.1844-0.2457 0.3738-0.4735 0.5937-0.6876 0.44-0.428 0.943-0.8145 1.5-1.0937 0.2786-0.1396 0.5735-0.2469 0.8748-0.3437-0.256 0.1002-0.4865 0.2362-0.7185 0.375-0.00741 0.0044-0.023866-0.0045-0.03125 0-0.031933 0.0193-0.062293 0.04251-0.09375 0.0625-0.1204 0.0767-0.23102 0.16351-0.34375 0.25-0.10617 0.0808-0.21328 0.16111-0.3125 0.25-0.1779 0.1614-0.3474 0.3453-0.5 0.5312-0.1075 0.1303-0.2183 0.2653-0.3124 0.4063-0.0251 0.0383-0.0385 0.0858-0.0626 0.125-0.0647 0.103-0.1302 0.2045-0.1874 0.3124-0.1011 0.1948-0.2057 0.4158-0.2813 0.625-0.008 0.0219-0.0236 0.0406-0.0313 0.0626-0.0318 0.0919-0.0358 0.1868-0.0624 0.2812-0.0304 0.1066-0.0704 0.203-0.0938 0.3125-0.0729 0.3415-0.125 0.6985-0.125 1.0625v2 68 2c0 2.7818 2.2182 5 5 5h2 68 2c2.7818 0 5-2.2182 5-5v-2-68-2c0-0.364-0.052-0.721-0.125-1.0625-0.044-0.2069-0.088-0.3977-0.156-0.5937-0.008-0.022-0.024-0.0407-0.031-0.0626-0.063-0.1737-0.139-0.3674-0.219-0.5312-0.042-0.0828-0.079-0.17-0.125-0.25-0.055-0.0972-0.127-0.1884-0.188-0.2812-0.094-0.141-0.205-0.276-0.312-0.4063-0.143-0.1745-0.303-0.347-0.469-0.5-0.011-0.0102-0.02-0.0211-0.031-0.0313-0.139-0.1255-0.285-0.2344-0.438-0.3437-0.102-0.0731-0.204-0.1534-0.312-0.2187-0.0074-0.0045-0.02384 0.0044-0.03125 0-0.23204-0.13873-0.46255-0.27478-0.71875-0.375 0.30153 0.0968 0.59646 0.20414 0.875 0.34375 0.55709 0.27922 1.0601 0.66569 1.5 1.0938 0.21997 0.21403 0.40937 0.44186 0.59375 0.6875s0.35541 0.50774 0.5 0.78125c0.14012 0.26505 0.27614 0.52473 0.375 0.8125 0.01041 0.03078 0.02133 0.06274 0.03125 0.09375 0.09046 0.27808 0.1388 0.5794 0.1875 0.875 0.053 0.318 0.094 0.634 0.094 0.969v2 68 2c0 3.324-2.676 6-6 6h-72z" fill="url(#radialGradient3619)"/>
 </g>
 <g id="layer3">
  <path id="path3642" opacity=".2" d="m48 107c-18.225 0-33 12.088-33 27 0 9.4984 5.9998 17.843 15.062 22.656-0.34462 2.5088-1.914 8.6498-9.3438 10.75 9.6229 1.0458 16.014-3.6463 19.406-7.1875 2.525 0.5 5.162 0.78 7.876 0.78 18.225 0 33-12.09 33-27s-14.775-27-33-27z" clip-path="url(#clipPath3644)" transform="translate(0,-90)" filter="url(#filter3678)" fill="#fff"/>
  <path id="path3625" opacity=".4" d="m-52 17c-18.225 0-33 12.088-33 27 0 9.4984 5.9998 17.843 15.062 22.656-0.34462 2.5088-1.914 8.6498-9.3438 10.75 9.6229 1.0458 16.014-3.6463 19.406-7.1875 2.525 0.506 5.162 0.782 7.876 0.782 18.225 0 33-12.088 33-27s-14.775-27-33-27z" fill="#d40000"/>
  <path id="path3620" opacity=".2" d="m48 17c-18.225 0-33 12.088-33 27 0 9.4984 5.9998 17.843 15.062 22.656-0.34462 2.5088-1.914 8.6498-9.3438 10.75 9.6229 1.0458 16.014-3.6463 19.406-7.1875 2.525 0.506 5.162 0.782 7.876 0.782 18.225 0 33-12.088 33-27s-14.775-27-33-27z" fill="url(#linearGradient3777)"/>
  <path id="path3779" opacity=".25" d="m15 44.406c-0.0053 0.20007 0 0.39263 0 0.59375 0 9.4416 5.9343 17.737 14.906 22.562 0.06714-0.3293 0.12055-0.64637 0.15625-0.90625-8.933-4.744-14.894-12.919-15.062-22.25zm66 0.094c-0.33 14.678-14.982 26.5-33 26.5-2.7139 0-5.3515-0.27575-7.875-0.78125-3.1139 3.2502-8.7477 7.4495-17.094 7.3125-0.70061 0.3324-1.4669 0.63597-2.3125 0.875 9.6229 1.0458 16.014-3.6463 19.406-7.1875 2.525 0.505 5.162 0.781 7.876 0.781 18.225 0 33-12.088 33-27 0-0.16936 0.0038-0.33138 0-0.5z" fill="#fff"/>
  <path id="path3811" opacity=".05" d="m48 17c-18.225 0-33 12.088-33 27 0 9.4984 5.9998 17.843 15.062 22.656-0.34462 2.5088-1.914 8.6498-9.3438 10.75 9.6229 1.0458 16.014-3.6463 19.406-7.1875 2.525 0.506 5.162 0.782 7.876 0.782 18.225 0 33-12.088 33-27s-14.775-27-33-27zm0 2.9375c16.92 0 30.062 11.1 30.062 24.062s-13.142 24.062-30.062 24.062c-2.514 0-4.9434-0.28169-7.2812-0.75a2.9518 2.9518 0 0 0 -2.719 0.876c-1.6209 1.6918-4.0041 3.5676-7.125 4.875 1.3415-2.3539 1.9347-4.6148 2.125-6a2.9518 2.9518 0 0 0 -1.5625 -3c-8.292-4.404-13.5-11.807-13.5-20.063 0-12.962 13.142-24.062 30.062-24.062z"/>
  <path id="path3804" opacity="0.08" d="m48 17c-18.225 0-33 12.088-33 27 0 9.4984 5.9998 17.843 15.062 22.656-0.34462 2.5088-1.914 8.6498-9.3438 10.75 9.6229 1.0458 16.014-3.6463 19.406-7.1875 2.525 0.506 5.162 0.782 7.876 0.782 18.225 0 33-12.088 33-27s-14.775-27-33-27zm0 1.875c17.393 0 31.125 11.456 31.125 25.125s-13.732 25.125-31.125 25.125c-2.5865 0-5.0949-0.26822-7.5-0.75a1.8822 1.8822 0 0 0 -1.7188 0.53125c-2.2298 2.3274-5.8621 5.105-10.906 6.2188 0.60301-0.63671 1.3199-1.2405 1.75-1.9062 1.5731-2.4349 2.1159-4.8817 2.3125-6.3125a1.8822 1.8822 0 0 0 -1 -1.906c-8.571-4.552-14.063-12.294-14.063-21 0-13.669 13.732-25.125 31.125-25.125z"/>
  <path id="path3797" opacity=".15" d="m48 17c-18.225 0-33 12.088-33 27 0 9.4984 5.9998 17.843 15.062 22.656-0.34462 2.5088-1.914 8.6498-9.3438 10.75 9.6229 1.0458 16.014-3.6463 19.406-7.1875 2.525 0.506 5.162 0.782 7.876 0.782 18.225 0 33-12.088 33-27s-14.775-27-33-27zm0 1.0625c17.757 0 31.938 11.725 31.938 25.938 0 14.212-14.18 25.938-31.938 25.938-2.6422 0-5.1994-0.25784-7.6562-0.75a1.0589 1.0589 0 0 0 -0.969 0.312c-2.6438 2.7595-7.2489 6.0491-13.781 6.7188 1.4426-1.0373 2.5503-2.2407 3.3438-3.4688 1.4817-2.2934 2.0015-4.5838 2.1875-5.9375a1.0589 1.0589 0 0 0 -0.564 -1.093c-8.785-4.666-14.5-12.666-14.5-21.719 0-14.212 14.181-25.938 31.938-25.938z"/>
 </g>
 <g id="layer5" display="none">
  <rect id="rect3171" height="66" stroke="#fff" stroke-linecap="round" stroke-width=".5" fill="url(#linearGradient3613)" rx="12" ry="12" width="66" opacity=".1" clip-path="url(#clipPath3613)" filter="url(#filter3794)" y="15" x="15"/>
 </g>
 <g id="layer4">
  <path id="path3696" opacity=".05" d="m43.531 25.062c-1.1484 0.17562-1.6335 1.3034-1.7767 2.3358-0.584 2.368-1.169 4.735-1.754 7.102-2.3837 0.02098-4.781-0.04188-7.1562 0.03125-1.1828 0.21491-1.7399 1.4655-1.5625 2.5761 0.04144 1.6692-0.08311 3.3653 0.0625 5.0176 0.25102 1.1939 1.5585 1.6337 2.6565 1.4688h3.656c-0.23958 0.9375-0.47917 1.875-0.71875 2.8125-2.3298 0.0423-4.6871-0.08425-7 0.0625-1.1939 0.25102-1.6337 1.5585-1.4688 2.6565 0.04249 1.6527-0.08462 3.3328 0.0625 4.9685 0.25102 1.1939 1.5585 1.6337 2.6565 1.4688h3.5623c-0.58825 2.4704-1.3015 4.9283-1.8125 7.4062-0.06943 1.3018 1.2851 2.1807 2.4957 1.9688 1.843-0.05369 3.7077 0.11282 5.5355-0.09375 1.4724-0.52632 1.3666-2.2918 1.7895-3.5417 0.47641-1.9132 0.95281-3.8264 1.4292-5.7396h2.5c-0.58825 2.4704-1.3015 4.9283-1.8125 7.4062-0.06943 1.3018 1.2851 2.1807 2.4957 1.9688 1.822-0.05534 3.6663 0.11524 5.473-0.09375 1.4724-0.52632 1.3666-2.2918 1.7895-3.5417 0.47641-1.9132 0.95281-3.8264 1.4292-5.7396 2.3628-0.02146 4.7395 0.04254 7.0938-0.03125 1.1828-0.21491 1.7399-1.4655 1.5625-2.5761-0.04252-1.6899 0.08466-3.4073-0.0625-5.0801-0.25102-1.1939-1.5585-1.6337-2.6565-1.4688h-3.6873c0.23958-0.9375 0.47917-1.875 0.71875-2.8125 2.3404-0.04178 4.7078 0.08353 7.0312-0.0625 1.1939-0.25102 1.6337-1.5585 1.4688-2.6565-0.04138-1.632 0.08304-3.2909-0.0625-4.906-0.25102-1.1939-1.5585-1.6337-2.6565-1.4688h-3.531c0.59913-2.4912 1.3231-4.9696 1.8438-7.4688 0.06943-1.3018-1.2851-2.1807-2.4957-1.9688-1.822 0.05534-3.6663-0.11524-5.473 0.09375-1.4714 0.52657-1.3677 2.2916-1.7935 3.5407-0.48548 1.9344-0.97097 3.8687-1.4565 5.8031h-2.5c0.59913-2.4912 1.3231-4.9696 1.8438-7.4688 0.06943-1.3018-1.2851-2.1807-2.4957-1.9688h-5.223zm3.5625 18.531h2.4688c-0.23958 0.9375-0.47917 1.875-0.71875 2.8125h-2.4688c0.23958-0.9375 0.47917-1.875 0.71875-2.8125z"/>
  <path id="path3692" opacity="0.12" d="m43.75 26a1.0015 1.0015 0 0 0 -0.875 0.75l-2.1562 8.6875h-7.5a1.0015 1.0015 0 0 0 -1 1v5.2188a1.0015 1.0015 0 0 0 1 1h5.625l-1.1875 4.6875h-7.25a1.0015 1.0015 0 0 0 -1 1v5.2812a1.0015 1.0015 0 0 0 1 1h5.5312l-2.0312 8.125a1.0015 1.0015 0 0 0 0.969 1.25h5.4688a1.0015 1.0015 0 0 0 0.96875 -0.75l2.1562-8.625h4.4062l-2.0312 8.125a1.0015 1.0015 0 0 0 0.968 1.25h5.4062a1.0015 1.0015 0 0 0 0.96875 -0.75l2.1562-8.625h7.4375a1.0015 1.0015 0 0 0 1 -1v-5.2812a1.0015 1.0015 0 0 0 -1 -1h-5.6562l1.1875-4.6875h7.2812a1.0015 1.0015 0 0 0 1 -1v-5.2188a1.0015 1.0015 0 0 0 -1 -1h-5.5l2.0625-8.1875a1.0015 1.0015 0 0 0 -0.968 -1.25h-5.4062a1.0015 1.0015 0 0 0 -0.96875 0.75l-2.1875 8.6875h-4.4062l2.0625-8.1875a1.0015 1.0015 0 0 0 -0.97 -1.25h-5.4688a1.0015 1.0015 0 0 0 -0.093 0zm2.625 16.656h4.4062l-1.2188 4.6875h-4.4062l1.2188-4.6875z"/>
  <path id="path3715" opacity=".3" d="m49.298 27-2.351 9.4286h6.4653l2.376-9.429h5.412l-2.3755 9.4286h6.7837v5.2163h-8.0816l-1.6898 6.7102h6.9551v5.2653h-8.2286l-2.351 9.38h-5.412l2.351-9.3796h-6.4653l-2.351 9.38h-5.4612l2.351-9.3796h-6.8327v-5.2653h8.0327l1.7143-6.7102h-6.9306v-5.2163h8.2776l2.351-9.429h5.4612m2.7673 14.645h-6.4653l-1.7143 6.7102h6.4653l1.7143-6.7102"/>
  <path id="path3658" fill="url(#linearGradient3699)" d="m49.298 26-2.351 9.4286h6.4653l2.376-9.429h5.412l-2.3755 9.4286h6.7837v5.2163h-8.0816l-1.6898 6.7102h6.9551v5.2653h-8.2286l-2.351 9.38h-5.412l2.351-9.3796h-6.4653l-2.351 9.38h-5.4612l2.351-9.3796h-6.8327v-5.2653h8.0327l1.7143-6.7102h-6.9306v-5.2163h8.2776l2.351-9.429h5.4612m2.7673 14.645h-6.4653l-1.7143 6.7102h6.4653l1.7143-6.7102"/>
  <path id="path3723" fill="#fff" d="m43.844 26-2.344 9.438h-8.2812v1h8.2812l2.3438-9.4375h5.2188l0.25-1h-5.4688zm11.938 0-2.375 9.4375h-6.2188l-0.25 1h6.4688l2.375-9.4375h5.1562l0.25-1h-5.4062zm3.2812 9.4375-0.25 1h6.7812v-1h-6.5312zm-19.188 6.2188-1.4375 5.6875h-8.0312v1h8.0312l1.6875-6.6875h-0.25zm11.938 0-1.4688 5.6875h-6.2188l-0.25 1h6.4688l1.7188-6.6875h-0.25zm4.2812 5.6875-0.25 1h6.9375v-1h-6.6875zm-19.125 6.281-2.094 8.375h0.25l2.0938-8.375h-0.25zm11.938 0-2.0938 8.375h0.25l2.0938-8.375h-0.25z"/>
 </g>
</svg>
