<?xml version="1.0" encoding="UTF-8" standalone="no"?>
<!-- Created with Inkscape (http://www.inkscape.org/) -->
<svg id="svg2408" xmlns:rdf="http://www.w3.org/1999/02/22-rdf-syntax-ns#" xmlns="http://www.w3.org/2000/svg" height="96" width="96" version="1.0" xmlns:cc="http://creativecommons.org/ns#" xmlns:xlink="http://www.w3.org/1999/xlink" xmlns:dc="http://purl.org/dc/elements/1.1/">
 <defs id="defs2410">
  <linearGradient id="linearGradient3361" y2="85.821" gradientUnits="userSpaceOnUse" x2="48.036" gradientTransform="scale(1.0599 .94353)" y1="25.911" x1="48.036">
   <stop id="stop3319" stop-color="#c6953a" offset="0"/>
   <stop id="stop3321" stop-color="#ab7a1f" offset="1"/>
  </linearGradient>
  <linearGradient id="ButtonShadow" y2="7.0165" gradientUnits="userSpaceOnUse" x2="45.448" gradientTransform="matrix(1.0059 0 0 .99417 0 12)" y1="80.472" x1="45.448">
   <stop id="stop3750" offset="0"/>
   <stop id="stop3752" stop-opacity=".58824" offset="1"/>
  </linearGradient>
  <linearGradient id="linearGradient3706" y2="5.9877" gradientUnits="userSpaceOnUse" x2="48" gradientTransform="translate(0,8)" y1="78" x1="48">
   <stop id="stop3189" stop-color="#c29656" offset="0"/>
   <stop id="stop3191" stop-color="#ddc08b" offset="1"/>
  </linearGradient>
  <filter id="filter3174" color-interpolation-filters="sRGB">
   <feGaussianBlur id="feGaussianBlur3176" stdDeviation="1.71"/>
  </filter>
  <linearGradient id="linearGradient3664" y2="5.2972" xlink:href="#ButtonShadow" gradientUnits="userSpaceOnUse" x2="45.448" gradientTransform="matrix(1.0059 0 0 .99417 0 12)" y1="80.472" x1="45.448"/>
  <clipPath id="clipPath3860">
   <rect id="rect3862" rx="6" ry="6" height="72" width="84" y="18" x="6" fill="#f0f"/>
  </clipPath>
  <filter id="filter3870" height="1.3943" width="1.3312" color-interpolation-filters="sRGB" y="-.19716" x="-.16559">
   <feGaussianBlur id="feGaussianBlur3872" stdDeviation="5.1703125"/>
  </filter>
  <linearGradient id="linearGradient3699">
   <stop id="stop3701" stop-color="#aa7932" stop-opacity=".78431" offset="0"/>
   <stop id="stop3703" stop-color="#aa7932" stop-opacity=".39216" offset="1"/>
  </linearGradient>
  <linearGradient id="linearGradient3123" y2="81.481" gradientUnits="userSpaceOnUse" x2="48.022" y1="22.933" x1="48.022">
   <stop id="stop3876" stop-color="#fff" offset="0"/>
   <stop id="stop3878" stop-color="#fff" stop-opacity="0" offset="1"/>
  </linearGradient>
  <linearGradient id="linearGradient3105" y2="26.987" gradientUnits="userSpaceOnUse" x2="34.86" gradientTransform="matrix(.72 0 0 .72 1.92 -5.52)" y1="16.275" x1="34.86">
   <stop id="stop4010" stop-color="#dab980" offset="0"/>
   <stop id="stop4012" stop-color="#c29856" offset=".71692"/>
   <stop id="stop4014" stop-color="#a2773a" offset="1"/>
  </linearGradient>
  <linearGradient id="linearGradient3952" y2="7" xlink:href="#ButtonShadow" gradientUnits="userSpaceOnUse" x2="43" y1="91" x1="43"/>
  <linearGradient id="linearGradient3961" y2="7" xlink:href="#ButtonShadow" gradientUnits="userSpaceOnUse" x2="45" y1="92" x1="45"/>
  <linearGradient id="linearGradient3117" y2="32" xlink:href="#linearGradient3699" gradientUnits="userSpaceOnUse" x2="56" gradientTransform="translate(0 -2)" y1="76" x1="56"/>
  <radialGradient id="radialGradient2874" gradientUnits="userSpaceOnUse" cy="90.172" cx="48" gradientTransform="matrix(1.1573 0 0 .99591 -7.551 .19713)" r="42">
   <stop id="stop3739-0" stop-color="#fff" offset="0"/>
   <stop id="stop3741-4" stop-color="#fff" stop-opacity="0" offset="1"/>
  </radialGradient>
  <linearGradient id="linearGradient3916" y2="73.995" gradientUnits="userSpaceOnUse" x2="36.357" y1="16" x1="36.357">
   <stop id="stop3739" stop-color="#fff" offset="0"/>
   <stop id="stop3741" stop-color="#fff" stop-opacity="0" offset="1"/>
  </linearGradient>
 </defs>
 <metadata id="metadata2413">
  <rdf:RDF>
   <cc:Work rdf:about="">
    <dc:format>image/svg+xml</dc:format>
    <dc:type rdf:resource="http://purl.org/dc/dcmitype/StillImage"/>
    <dc:title/>
   </cc:Work>
  </rdf:RDF>
 </metadata>
 <g id="layer2" display="none">
  <path id="rect3745" opacity=".9" d="m14.969 8.8029c-1.64 0-2.969 1.2821-2.969 2.8751v7.322c-3.324 0-7 2.676-7 6v61c0 3.324 2.676 6 6 6h74c3.324 0 6-2.676 6-6v-61c0-3.324-3.7474-6-7.0714-6v-0.13461c0-2.3891-1.9777-4.3125-4.4375-4.3125h-43.335l-1.4688-2.875c-0.734-1.424-1.329-2.8741-2.969-2.8741h-16.75z" filter="url(#filter3174)" fill="url(#linearGradient3664)"/>
 </g>
 <g id="layer4">
  <path id="path3984" opacity="0.08" d="m14.125 4c-4.4339 0-8.125 3.5684-8.125 8v2.1562c-2.3764 1.802-4 4.603-4 7.844v63c0 5.5036 4.4964 10 10 10h72c5.5036 0 10-4.4964 10-10v-63c0-3.483-1.853-6.453-4.531-8.219-0.987-3.289-3.943-5.781-7.594-5.781h-39.5c-1.403-1.3548-2.54-2.5096-3.687-3.1562-1.496-0.8424-2.931-0.8143-3.813-0.8438a0.9278 0.9278 0 0 0 -0.03125 0c-0.0012-0.0000173-0.03009-0.0000173-0.03125 0h-0.032-20.656z" fill="url(#linearGradient3961)"/>
  <path id="path3975" opacity=".1" d="m14.125 4.9375c-3.941 0-7.1875 3.1433-7.1875 7.0625v2.5938c-2.3826 1.6221-4 4.2939-4 7.4062v63c0 5.0014 4.0611 9.0625 9.0625 9.0625h72c5.0014 0 9.0625-4.0611 9.0625-9.0625v-63c0-3.2608-1.7732-6.0397-4.3438-7.625-0.76-3.096-3.477-5.4375-6.843-5.4375h-39.812c-1.598-1.5412-2.773-2.6775-3.844-3.2813-1.273-0.7172-2.448-0.6876-3.375-0.7187a1.0438 1.0438 0 0 0 -0.03125 0h-0.03125-20.656z" fill="url(#linearGradient3961)"/>
  <path id="path3967" opacity=".2" d="m14.125 5.9688c-3.389 0-6.1562 2.688-6.1562 6.0312v3.125c-2.3751 1.394-4 3.9205-4 6.875v63c0 4.4381 3.5931 8.0312 8.0312 8.0312h72c4.4381 0 8.0312-3.5931 8.0312-8.0312v-63c0-3.032-1.7122-5.6044-4.1875-6.9688-0.49189-2.8596-2.9286-5.0625-5.9688-5.0625h-40.188c-1.834-1.7751-3.008-2.8656-3.968-3.4065-1.038-0.5843-1.941-0.5614-2.907-0.5937a1.0438 1.0438 0 0 0 -0.03125 0h-20.656z" fill="url(#linearGradient3961)"/>
  <path id="path3908-1" opacity=".3" d="m14.125 7c-2.843 0-5.125 2.23-5.125 5v3.6875c-2.3641 1.121-4 3.512-4 6.312v63c0 3.878 3.122 7 7 7h72c3.878 0 7-3.122 7-7v-63c0-2.81-1.653-5.196-4.031-6.312-0.17-2.619-2.362-4.688-5.094-4.688h-40.594c-4.2205-4.1123-4.5028-3.9331-6.5-4h-20.656z" fill="url(#linearGradient3961)"/>
  <path id="path3941" opacity=".45" d="m15 7c-2.77 0-5 2.23-5 5v3.3438c-2.3335 0.821-4 3.035-4 5.656v64c0 3.324 2.676 6 6 6h72c3.324 0 6-2.676 6-6v-64c0-2.642-1.7-4.851-4.062-5.656-0.327-2.451-2.396-4.344-4.938-4.344h-40.531c-4.113-4.1123-4.367-3.9331-6.313-4h-19.156z" fill="url(#linearGradient3952)"/>
 </g>
 <g id="layer3">
  <rect id="rect3352" rx="6" ry="6" height="62.679" width="75" y="23.143" x="10.536" fill="url(#linearGradient3361)"/>
  <path id="path3908" d="m15 6c-2.77 0-5 2.23-5 5v59.812c0 2.3933 1.9192 4.3125 4.3125 4.3125h67.375c2.394 0.001 4.313-1.918 4.313-4.312v-55.812c0-2.77-2.23-5-5-5h-40.531c-4.113-4.1123-4.367-3.9331-6.313-4z" fill="url(#linearGradient3105)"/>
  <path id="path3108" opacity=".2" d="m15 6c-2.77 0-5 2.23-5 5v59.812c0 2.3933 1.9192 4.3125 4.3125 4.3125h67.375c2.394 0.001 4.313-1.918 4.313-4.312v-55.812c0-2.77-2.23-5-5-5h-40.531c-4.113-4.1123-4.367-3.9331-6.313-4h-19.156zm0 1.0312h19.125 0.03125c0.96498 0.031157 1.1925-0.016972 1.8125 0.34375 0.63029 0.36673 1.7068 1.3318 3.75 3.375a1.0438 1.0438 0 0 0 0.75 0.28125h40.531c2.2099 0 3.9688 1.7589 3.9688 3.9688v55.812c0 1.8353-1.4459 3.2812-3.2812 3.2812h-67.375c-1.8353 0-3.2812-1.4459-3.2812-3.2812v-59.812c0-2.2099 1.7589-3.9688 3.9688-3.9688z" fill="#fff"/>
 </g>
 <g id="layer1">
  <rect id="rect2419" rx="6" ry="6" height="76" width="84" y="14" x="6" fill="url(#linearGradient3706)"/>
  <path id="rect3728" opacity=".35" d="m12 14c-3.324 0-6 2.676-6 6v2 60 2c0 0.33472 0.04135 0.6507 0.09375 0.96875 0.0487 0.2956 0.09704 0.59692 0.1875 0.875 0.00988 0.03038 0.020892 0.0636 0.03125 0.09375 0.098865 0.28777 0.23488 0.54745 0.375 0.8125 0.14459 0.27351 0.31562 0.53562 0.5 0.78125 0.18438 0.24564 0.37378 0.47347 0.59375 0.6875 0.43995 0.42806 0.94291 0.81453 1.5 1.0938 0.27854 0.13961 0.57347 0.24695 0.875 0.34375-0.2562-0.10022-0.48671-0.23627-0.71875-0.375-0.00741-0.0044-0.023866 0.0045-0.03125 0-0.031933-0.0193-0.062293-0.04251-0.09375-0.0625-0.1204-0.0767-0.23102-0.16351-0.34375-0.25-0.10617-0.0808-0.21328-0.16111-0.3125-0.25-0.1778-0.162-0.3473-0.346-0.4999-0.531-0.1075-0.131-0.2183-0.266-0.3124-0.407-0.0251-0.038-0.0385-0.086-0.0626-0.125-0.0647-0.103-0.1302-0.204-0.1874-0.312-0.1011-0.195-0.2057-0.416-0.2813-0.625-0.008-0.022-0.0236-0.041-0.0313-0.063-0.0318-0.092-0.0358-0.187-0.0624-0.281-0.0304-0.107-0.0704-0.203-0.0938-0.313-0.0729-0.341-0.125-0.698-0.125-1.062v-2-60-2c0-2.7818 2.2182-5 5-5h2 68 2c2.7818 0 5 2.2182 5 5v2 60 2c0 0.3643-0.05212 0.72099-0.125 1.0625-0.04415 0.20689-0.08838 0.39766-0.15625 0.59375-0.0077 0.02195-0.0233 0.04069-0.03125 0.0625-0.06274 0.17374-0.13838 0.36745-0.21875 0.53125-0.04158 0.0828-0.07904 0.16995-0.125 0.25-0.0546 0.09721-0.12677 0.18835-0.1875 0.28125-0.09411 0.14096-0.20492 0.276-0.3125 0.40625-0.14317 0.17445-0.30314 0.347-0.46875 0.5-0.01117 0.0102-0.01998 0.02115-0.03125 0.03125-0.13839 0.12556-0.28509 0.23444-0.4375 0.34375-0.10257 0.07315-0.20432 0.15336-0.3125 0.21875-0.0074 0.0045-0.02384-0.0044-0.03125 0-0.23204 0.13873-0.46255 0.27478-0.71875 0.375 0.30153-0.0968 0.59646-0.20414 0.875-0.34375 0.55709-0.27922 1.0601-0.66569 1.5-1.0938 0.21997-0.21403 0.40937-0.44186 0.59375-0.6875s0.35541-0.50774 0.5-0.78125c0.14012-0.26505 0.27614-0.52473 0.375-0.8125 0.01041-0.03078 0.02133-0.06274 0.03125-0.09375 0.09046-0.27808 0.1388-0.5794 0.1875-0.875 0.053-0.318 0.094-0.634 0.094-0.969v-2-60-2c0-3.324-2.676-6-6-6z" fill="url(#linearGradient3916)"/>
  <path id="path3615" opacity=".2" d="m12 90c-3.324 0-6-2.676-6-6v-2-56-2c0-0.33472 0.04135-0.6507 0.09375-0.96875 0.0487-0.2956 0.09704-0.59692 0.1875-0.875 0.00988-0.03038 0.020892-0.0636 0.03125-0.09375 0.098865-0.28777 0.23488-0.54745 0.375-0.8125 0.14459-0.27351 0.31562-0.53562 0.5-0.78125 0.18438-0.24564 0.37378-0.47347 0.59375-0.6875 0.43995-0.42806 0.94291-0.81453 1.5-1.0938 0.27854-0.13961 0.57347-0.24695 0.875-0.34375-0.2562 0.10022-0.48671 0.23627-0.71875 0.375-0.00741 0.0044-0.023866-0.0045-0.03125 0-0.031933 0.0193-0.062293 0.04251-0.09375 0.0625-0.1204 0.0767-0.23102 0.16351-0.34375 0.25-0.10617 0.0808-0.21328 0.16111-0.3125 0.25-0.17793 0.16143-0.34746 0.34539-0.5 0.53125-0.10758 0.13026-0.21839 0.26528-0.3125 0.40625-0.025089 0.03838-0.038446 0.08587-0.0625 0.125-0.064763 0.10303-0.13023 0.20452-0.1875 0.3125-0.10101 0.19471-0.20567 0.4157-0.28125 0.625-0.0079 0.022-0.0235 0.041-0.0312 0.063-0.0318 0.092-0.0358 0.187-0.0624 0.281-0.0304 0.107-0.0704 0.203-0.0938 0.313-0.0729 0.341-0.125 0.698-0.125 1.062v2 56 2c0 2.7818 2.2182 5 5 5h2 68 2c2.7818 0 5-2.2182 5-5v-2-56-2c0-0.3643-0.05212-0.72099-0.125-1.0625-0.04415-0.20689-0.08838-0.39766-0.15625-0.59375-0.0077-0.02195-0.0233-0.04069-0.03125-0.0625-0.06274-0.17374-0.13838-0.36745-0.21875-0.53125-0.04158-0.0828-0.07904-0.16995-0.125-0.25-0.0546-0.09721-0.12677-0.18835-0.1875-0.28125-0.09411-0.14096-0.20492-0.276-0.3125-0.40625-0.14317-0.17445-0.30314-0.347-0.46875-0.5-0.01117-0.0102-0.01998-0.02115-0.03125-0.03125-0.13839-0.12556-0.28509-0.23444-0.4375-0.34375-0.10257-0.07315-0.20432-0.15336-0.3125-0.21875-0.0074-0.0045-0.02384 0.0044-0.03125 0-0.23204-0.13873-0.46255-0.27478-0.71875-0.375 0.30153 0.0968 0.59646 0.20414 0.875 0.34375 0.55709 0.27922 1.0601 0.66569 1.5 1.0938 0.21997 0.21403 0.40937 0.44186 0.59375 0.6875s0.35541 0.50774 0.5 0.78125c0.14012 0.26505 0.27614 0.52473 0.375 0.8125 0.01041 0.03078 0.02133 0.06274 0.03125 0.09375 0.09046 0.27808 0.1388 0.5794 0.1875 0.875 0.053 0.318 0.094 0.634 0.094 0.969v2 56 2c0 3.324-2.676 6-6 6h-72z" fill="url(#radialGradient2874)"/>
 </g>
 <g id="layer5">
  <path id="path3850" opacity=".15" filter="url(#filter3870)" d="m15.969 22.531c-2.8459 0.0043-5.4332 2.5916-5.4375 5.4375v48.062c0.0043 2.8459 2.5916 5.4332 5.4375 5.4375h64.062c2.8459-0.0043 5.4332-2.5916 5.4375-5.4375v-48.062c-0.0043-2.8459-2.5916-5.4332-5.4375-5.4375z" clip-path="url(#clipPath3860)" fill="url(#linearGradient3123)"/>
 </g>
 <g id="layer6">
  <path id="path4561" opacity=".05" style="color:#000000" d="m48 27.969c-12.551 0-22.763 9.7155-23.812 22h-2.1875a2.0273 2.0273 0 0 0 -1.75 3.0625l3.5 6 3.5 6a2.0273 2.0273 0 0 0 3.5 0l3.5-6 3.5-6a2.0273 2.0273 0 0 0 -1.75 -3.063h-1.75c0.80489-5.499 4.7498-9.9116 10-11.375-0.169 0.44-0.281 0.912-0.281 1.406v11.344h0.0625c-0.15489 1.0107 0.03287 2.0221 0.59375 2.8438h-0.03125c0.02105 0.03266 0.01066 0.03264 0.03125 0.0625 0.01338 0.01941 0.01812 0.01299 0.03125 0.03125 0.22426 0.31173 0.45964 0.52214 0.5 0.5625l7.0625 7.0938c1.2561 1.2561 3.2975 1.6305 4.8438 0.625-2.4428 2.0973-5.5756 3.4062-9.0625 3.4062-2.5519 0-4.906-0.6798-6.9688-1.875a2.0273 2.0273 0 0 0 -2.7812 0.75l-3 5.2188a2.0273 2.0273 0 0 0 0.75 2.75c3.5342 2.0427 7.6352 3.2188 12 3.2188 13.245-0.001 24.03-10.786 24.03-24.032s-10.785-24.031-24.031-24.031zm0 2.031c12.15 0 22 9.8497 22 22s-9.8497 22-22 22c-4.0043 0-7.7657-1.0681-11-2.9375l3-5.2188c2.356 1.366 5.082 2.157 8 2.157 8.837 0 16-7.163 16-16s-7.163-16-16-16-16 7.163-16 16h4l-3.5 6-3.5 6-3.5-6-3.5-6h4c0-12.15 9.85-22 22-22zm0 8c1.108 0 2 0.892 2 2v11.188l6.5 6.4688c0.78347 0.78347 0.88657 1.9259 0.25 2.5625l-0.531 0.53c-0.63657 0.63657-1.779 0.53347-2.5625-0.25l-7.0625-7.0938c-0.1-0.1-0.204-0.193-0.282-0.312-0.401-0.561-0.511-1.216-0.312-1.75v-11.344c0-1.108 0.892-2 2-2zm3.75 0.59375c5.891 1.642 10.219 6.977 10.219 13.406 0 3.4869-1.309 6.6196-3.4062 9.0625 1.0055-1.5462 0.63114-3.5876-0.625-4.8438l-5.9062-5.875v-10.344c0-0.49409-0.11255-0.9658-0.28125-1.4062z" fill="#fff"/>
  <path id="path4550" opacity=".1" style="color:#000000" d="m48 29c-12.348 0-22.37 9.783-22.906 22h-3.094a1.0001 1.0001 0 0 0 -0.875 1.5l3.5 6 3.5 6a1.0001 1.0001 0 0 0 1.75 0l3.5-6 3.5-6a1.0001 1.0001 0 0 0 -0.875 -1.5h-2.9062c0.521-7.82 6.952-14 14.906-14 8.2961 0 15 6.7039 15 15s-6.7039 15-15 15c-2.7376 0-5.2889-0.75006-7.5-2.0312a1.0001 1.0001 0 0 0 -1.375 0.375l-3 5.2188a1.0001 1.0001 0 0 0 0.375 1.375c3.382 1.954 7.318 3.062 11.5 3.062 12.691 0 23-10.309 23-23s-10.309-23-23-23zm0 8c-1.6447 0-3 1.3553-3 3v11.344h0.03125c-0.17161 0.77946-0.02883 1.6007 0.4375 2.2812 0.01815 0.02817 0.01325 0.03712 0.03125 0.0625 0.15201 0.2143 0.30917 0.37168 0.375 0.4375l7.0625 7.0938c1.0962 1.0962 2.9022 1.3478 4 0.25l0.53125-0.53125c1.0978-1.0978 0.84616-2.9038-0.25-4l-6.219-6.188v-10.75c0-1.6447-1.3553-3-3-3zm0-7c12.15 0 22 9.8497 22 22s-9.8497 22-22 22c-4.0043 0-7.7657-1.0681-11-2.9375l3-5.2188c2.356 1.366 5.082 2.157 8 2.157 8.837 0 16-7.163 16-16s-7.163-16-16-16-16 7.163-16 16h4l-3.5 6-3.5 6-3.5-6-3.5-6h4c0-12.15 9.85-22 22-22zm0 8c1.108 0 2 0.892 2 2v11.188l6.5 6.4688c0.78347 0.78347 0.88657 1.9259 0.25 2.5625l-0.531 0.53c-0.63657 0.63657-1.779 0.53347-2.5625-0.25l-7.0625-7.0938c-0.1-0.1-0.204-0.193-0.282-0.312-0.401-0.561-0.511-1.216-0.312-1.75v-11.344c0-1.108 0.892-2 2-2z" fill="#fff"/>
  <path id="path4090" opacity=".9" style="color:#000000" d="m48 30c-12.15 0-22 9.85-22 22h-4l3.5 6 3.5 6 3.5-6 3.5-6h-4c0-8.8366 7.1634-16 16-16s16 7.1634 16 16-7.1634 16-16 16c-2.9184 0-5.6444-0.79134-8-2.1562l-3 5.218c3.234 1.87 6.996 2.938 11 2.938 12.15 0 22-9.85 22-22s-9.85-22-22-22zm0 8c-1.108 0-2 0.892-2 2v11.344c-0.19861 0.53433-0.08906 1.1893 0.3125 1.75 0.0771 0.11963 0.18109 0.21234 0.28125 0.3125l7.062 7.094c0.78347 0.78347 1.9259 0.88657 2.5625 0.25l0.532-0.531c0.63657-0.63657 0.53347-1.779-0.25-2.5625l-6.5-6.468v-11.188c0-1.108-0.892-2-2-2z" fill="url(#linearGradient3117)"/>
  <path id="path4522" opacity=".25" style="color:#000000" d="m48 30c-12.15 0-22 9.85-22 22h-4l3.5 6 3.5 6 3.5-6 3.5-6h-4c0-8.8366 7.1634-16 16-16s16 7.1634 16 16-7.1634 16-16 16c-2.9184 0-5.6444-0.79134-8-2.1562l-3 5.218c3.234 1.87 6.996 2.938 11 2.938 12.15 0 22-9.85 22-22s-9.85-22-22-22zm0 1.9688c11.081 0 20.031 8.95 20.031 20.031s-8.95 20.031-20.031 20.031c-2.9373 0-5.6486-0.77587-8.1562-1.9062l1.031-1.781c2.2023 0.96743 4.5666 1.625 7.125 1.625 9.9056 0 17.969-8.0632 17.969-17.969 0-9.906-8.063-17.969-17.969-17.969s-17.969 8.063-17.969 17.969a1.9783 1.9783 0 0 0 1.969 1.969h0.5625l-1.781 3.031-1.781 3.062-1.781-3.062-1.781-3.031h0.5625a1.9783 1.9783 0 0 0 1.969 -1.969c0-11.081 8.95-20.031 20.031-20.031zm0 6.031c-1.108 0-2 0.892-2 2v11.344c-0.19861 0.53433-0.08906 1.1893 0.3125 1.75 0.0771 0.11963 0.18109 0.21234 0.28125 0.3125l7.062 7.094c0.78347 0.78347 1.9259 0.88657 2.5625 0.25l0.532-0.531c0.63657-0.63657 0.53347-1.779-0.25-2.5625l-6.5-6.468v-11.188c0-1.108-0.892-2-2-2zm0 1.9688c0.04636 0 0.03125-0.01511 0.03125 0.03125v11.188a1.9783 1.9783 0 0 0 0.4375 1.25l-0.468-0.438c-0.07633-0.07633-0.12258-0.0994-0.125-0.09375-0.0018-0.0057-0.000964-0.03679 0-0.03125a1.9783 1.9783 0 0 0 0.09375 -0.53125v-11.344c0-0.04636-0.01511-0.03125 0.03125-0.03125zm0.59375 12.625 6.5 6.4688-0.03125 0.03125-6.4688-6.5z" fill="url(#linearGradient3117)"/>
  <path id="path4500" style="color:#000000" d="m48 30c-12.15 0-22 9.85-22 22h-4l0.59375 1h3.406c0-12.15 9.85-22 22-22 11.982 0 21.732 9.583 22 21.5 0.004-0.168 0-0.331 0-0.5 0-12.15-9.85-22-22-22zm0 8c-1.108 0-2 0.892-2 2v1c0-1.108 0.892-2 2-2s2 0.892 2 2v-1c0-1.108-0.892-2-2-2zm2 13.188v1l6.5 6.4688c0.2938 0.2938 0.49443 0.65084 0.59375 1 0.20283-0.6266-0.0061-1.4124-0.59375-2l-6.5-6.469zm-4 0.15625c-0.12085 0.32514-0.10371 0.69645 0 1.0625 0.0064-0.01982-0.0073-0.04299 0-0.0625v-1zm-13.938 0.656c-0.02 0.335-0.062 0.66-0.062 1h3.406l0.594-1h-3.938zm31.906 0.5c-0.268 8.601-7.301 15.5-15.968 15.5-2.918 0-5.644-0.791-8-2.156l-3 5.2188c0.14005 0.08094 0.2955 0.14083 0.4375 0.21875l2.562-4.438c2.356 1.365 5.082 2.156 8 2.156 8.8366 0 16-7.1634 16-16 0-0.16998-0.02599-0.3313-0.03125-0.5z" fill="url(#linearGradient3117)"/>
  <path id="path4509" opacity=".5" style="color:#000000" d="m48 30c-12.15 0-22 9.85-22 22h-4l3.5 6 3.5 6 3.5-6 3.5-6h-4c0-8.8366 7.1634-16 16-16s16 7.1634 16 16-7.1634 16-16 16c-2.9184 0-5.6444-0.79134-8-2.1562l-3 5.218c3.234 1.87 6.996 2.938 11 2.938 12.15 0 22-9.85 22-22s-9.85-22-22-22zm0 0.9375c11.639 0 21.062 9.4236 21.062 21.062 0 11.639-9.4236 21.062-21.062 21.062-3.4985 0-6.7555-0.93122-9.6562-2.4375l2.0625-3.5938c2.295 1.167 4.843 1.908 7.594 1.908 9.348 0 16.938-7.59 16.938-16.938s-7.59-16.938-16.938-16.938-16.938 7.59-16.938 16.938a0.94621 0.94621 0 0 0 0.938 0.938h2.375l-2.6875 4.5938-2.688 4.593-2.688-4.594-2.687-4.593h2.375a0.94621 0.94621 0 0 0 0.938 -0.938c0-11.639 9.423-21.062 21.062-21.062zm0 7.062c-1.108 0-2 0.892-2 2v11.344c-0.19861 0.53433-0.08906 1.1893 0.3125 1.75 0.0771 0.11963 0.18109 0.21234 0.28125 0.3125l7.062 7.094c0.78347 0.78347 1.9259 0.88657 2.5625 0.25l0.532-0.531c0.63657-0.63657 0.53347-1.779-0.25-2.5625l-6.5-6.468v-11.188c0-1.108-0.892-2-2-2zm0 0.9375c0.60022 0 1.0625 0.46228 1.0625 1.0625v11.188a0.94621 0.94621 0 0 0 0.28125 0.65625l6.5 6.4688c0.48764 0.48763 0.45023 1.0498 0.25 1.25l-0.53125 0.53125c-0.20023 0.20023-0.76236 0.23764-1.25-0.25l-7.062-7.094c-0.12527-0.12527-0.16842-0.17514-0.15625-0.15625a0.94621 0.94621 0 0 0 0 -0.0625c-0.246-0.344-0.29-0.653-0.219-0.844a0.94621 0.94621 0 0 0 0.0625 -0.34375v-11.344c0-0.60022 0.46228-1.0625 1.0625-1.0625z" fill="url(#linearGradient3117)"/>
  <path id="path4535" opacity=".2" style="color:#000000" d="m48 36c-8.8366 0-16 7.1634-16 16h0.0625c0.523-8.365 7.441-15 15.938-15 8.667 0 15.7 6.899 15.969 15.5 0.005-0.169 0.031-0.33 0.031-0.5 0-8.837-7.163-16-16-16zm-2 16.406c-0.16969 0.52303-0.0744 1.1472 0.3125 1.6875 0.0771 0.11963 0.18109 0.21234 0.28125 0.3125l7.062 7.094c0.78347 0.78347 1.9259 0.88657 2.5625 0.25l0.532-0.531c0.39786-0.39786 0.50928-0.98057 0.34375-1.5625-0.06761 0.20886-0.18461 0.40336-0.34375 0.5625l-0.531 0.531c-0.63657 0.63657-1.779 0.53347-2.5625-0.25l-7.0625-7.0938c-0.1-0.1-0.204-0.193-0.282-0.312-0.157-0.22-0.245-0.452-0.312-0.688zm24 0.094c-0.268 11.917-10.018 21.5-22 21.5-3.831 0-7.425-0.997-10.562-2.719l-0.438 0.781c3.234 1.87 6.996 2.938 11 2.938 12.15 0 22-9.8497 22-22 0-0.16862 0.0038-0.33228 0-0.5zm-48 0.5 3.5 6 3.5 6 3.5-6 3.5-6h-0.594l-2.906 5-3.5 6-3.5-6-2.906-5h-0.594z" fill="#fff"/>
 </g>
</svg>
