<?xml version="1.0" encoding="UTF-8" standalone="no"?>
<!-- Created with Inkscape (http://www.inkscape.org/) -->
<svg id="svg2" xmlns:rdf="http://www.w3.org/1999/02/22-rdf-syntax-ns#" xmlns="http://www.w3.org/2000/svg" height="96" width="96" version="1.1" xmlns:cc="http://creativecommons.org/ns#" xmlns:xlink="http://www.w3.org/1999/xlink" xmlns:dc="http://purl.org/dc/elements/1.1/">
 <defs id="defs4">
  <linearGradient id="linearGradient90466" y2="138.66" gradientUnits="userSpaceOnUse" x2="48" y1="20.221" x1="48">
   <stop id="stop3739-532" stop-color="#fff" offset="0"/>
   <stop id="stop3741-666" stop-color="#fff" stop-opacity="0" offset="1"/>
  </linearGradient>
  <clipPath id="clipPath3613-55">
   <rect id="rect3615-88" rx="6" ry="6" height="84" width="84" y="6" x="6" fill="#fff"/>
  </clipPath>
  <filter id="filter3794-41" height="1.384" width="1.384" color-interpolation-filters="sRGB" y="-.192" x="-.192">
   <feGaussianBlur id="feGaussianBlur3796-50" stdDeviation="5.28"/>
  </filter>
  <linearGradient id="linearGradient3182" y2="5.9877" gradientUnits="userSpaceOnUse" y1="90" gradientTransform="matrix(-1.125 0 0 1.0417 103.72 953.2)" x2="48" x1="48">
   <stop id="stop4083" stop-color="#8c8c8c" offset="0"/>
   <stop id="stop4085" stop-color="#dcdcdc" offset="1"/>
  </linearGradient>
  <linearGradient id="linearGradient3152" y2="11" gradientUnits="userSpaceOnUse" y1="11" gradientTransform="matrix(0 2.5714 -2.5714 0 75.786 973.58)" x2="18" x1="4">
   <stop id="stop3292" stop-color="#a50000" offset="0"/>
   <stop id="stop3294" stop-color="#e73800" offset="1"/>
  </linearGradient>
 </defs>
 <metadata id="metadata7">
  <rdf:RDF>
   <cc:Work rdf:about="">
    <dc:format>image/svg+xml</dc:format>
    <dc:type rdf:resource="http://purl.org/dc/dcmitype/StillImage"/>
    <dc:title/>
   </cc:Work>
  </rdf:RDF>
 </metadata>
 <g id="layer1" transform="translate(0 -956.36)">
  <rect id="rect5261-6" transform="scale(-1,1)" fill-opacity=".039216" ry="12.552" height="88.762" width="88.762" y="960.05" x="-92.363"/>
  <rect id="rect5259-9" transform="scale(-1,1)" fill-opacity=".078431" ry="12.38" height="87.546" width="87.546" y="960.66" x="-91.755"/>
  <rect id="rect5257-5" transform="scale(-1,1)" fill-opacity=".15686" ry="12.208" height="86.33" width="86.33" y="961.26" x="-91.147"/>
  <path id="rect2419" opacity=".9" d="m78.502 961.86c6.668 0 12.031 5.3945 12.031 12.062v61.031c0 5.4178-3.5332 9.9818-8.4375 11.5h-68.188c-4.7148-1.4568-8.1719-5.7337-8.4375-10.875v-62.281c0.32117-6.3771 5.5404-11.438 12-11.438h61.031z" fill="url(#linearGradient3182)"/>
  <path id="rect5265-0" d="m90.539 1029.9v5.0663c0 6.668-5.3645 12.032-12.032 12.032h-61.049c-6.668 0-12.032-5.3645-12.032-12.032v-5.0663c0 6.6681 5.3645 12.032 12.032 12.032h61.049c6.668 0 12.032-5.3643 12.032-12.032z" fill-opacity=".23529"/>
  <path id="path5252-0" d="m90.539 1033.9v1.0133c0 6.668-5.3645 12.032-12.032 12.032h-61.049c-6.668 0-12.032-5.3645-12.032-12.032v-1.0133c0 6.6681 5.3645 12.032 12.032 12.032h61.049c6.668 0 12.032-5.3644 12.032-12.032z" fill-opacity=".098039"/>
  <g id="layer5" transform="matrix(-1 0 0 1 96.471 953.95)">
   <rect id="rect3171" height="66" stroke="#fff" stroke-linecap="round" stroke-width=".5" fill="url(#linearGradient90466)" rx="12" ry="12" width="66" opacity=".3" clip-path="url(#clipPath3613-55)" filter="url(#filter3794-41)" y="15" x="15"/>
  </g>
  <path id="path2841" d="m47.5 1019.9a18 18 0 1 1 0 -36 18 18 0 0 1 0 36z" fill="url(#linearGradient3152)"/>
  <path id="path3979" opacity=".6" d="m29.531 1002.4c-0.0046 0.1674-0.03125 0.3314-0.03125 0.5 0 9.9411 8.0589 18 18 18s18-8.0589 18-18c0-0.1686-0.02664-0.3326-0.03125-0.5-0.26696 9.708-8.1962 17.5-17.969 17.5-9.7725 0-17.702-7.792-17.969-17.5z" fill="#fff"/>
  <path id="path4001" opacity=".15" d="m47.5 983.86c-9.9411 0-18 8.0588-18 18 0 9.9411 8.0589 18 18 18s18-8.0589 18-18c0-9.9413-8.0589-18-18-18zm0 2c8.8366 0 16 7.1634 16 16 0 8.8365-7.1634 16-16 16s-16-7.1635-16-16c0-8.8367 7.1634-16 16-16z" fill="#500"/>
  <path id="path3997" opacity=".3" d="m47.5 983.86c-9.9411 0-18 8.0588-18 18 0 9.9411 8.0589 18 18 18s18-8.0589 18-18c0-9.9413-8.0589-18-18-18zm0 1c9.3888 0 17 7.6111 17 17 0 9.3888-7.6112 17-17 17s-17-7.6112-17-17c0-9.389 7.6112-17 17-17z" fill="#500"/>
  <path id="path3988" opacity=".6" d="m47.5 983.86c-9.9411 0-18 8.0588-18 18 0 0.1686 0.02664 0.3325 0.03125 0.5 0.26696-9.7082 8.1962-17.5 17.969-17.5 9.7725 0 17.702 7.7919 17.969 17.5 0.0046-0.1675 0.03125-0.3314 0.03125-0.5 0-9.9413-8.0589-18-18-18z" fill="#500"/>
 </g>
</svg>
