<?xml version="1.0" encoding="UTF-8" standalone="no"?>
<!-- Created with Inkscape (http://www.inkscape.org/) -->
<svg id="svg2" xmlns:rdf="http://www.w3.org/1999/02/22-rdf-syntax-ns#" xmlns="http://www.w3.org/2000/svg" height="96" width="96" version="1.1" xmlns:cc="http://creativecommons.org/ns#" xmlns:xlink="http://www.w3.org/1999/xlink" xmlns:dc="http://purl.org/dc/elements/1.1/">
 <defs id="defs4">
  <linearGradient id="linearGradient90466" y2="138.66" gradientUnits="userSpaceOnUse" x2="48" y1="20.221" x1="48">
   <stop id="stop3739-532" stop-color="#fff" offset="0"/>
   <stop id="stop3741-666" stop-color="#fff" stop-opacity="0" offset="1"/>
  </linearGradient>
  <clipPath id="clipPath3613-55">
   <rect id="rect3615-88" rx="6" ry="6" height="84" width="84" y="6" x="6" fill="#fff"/>
  </clipPath>
  <filter id="filter3794-41" height="1.384" width="1.384" color-interpolation-filters="sRGB" y="-.192" x="-.192">
   <feGaussianBlur id="feGaussianBlur3796-50" stdDeviation="5.28"/>
  </filter>
  <linearGradient id="linearGradient3182" y2="5.9877" gradientUnits="userSpaceOnUse" y1="90" gradientTransform="matrix(-1.125 0 0 1.0417 103.72 953.2)" x2="48" x1="48">
   <stop id="stop4083" stop-color="#8c8c8c" offset="0"/>
   <stop id="stop4085" stop-color="#dcdcdc" offset="1"/>
  </linearGradient>
  <linearGradient id="linearGradient3149" y2="19.219" gradientUnits="userSpaceOnUse" y1="5.099" gradientTransform="matrix(3.5301 0 0 2.5495 14.5 970.72)" x2="7.9407" x1="7.9407">
   <stop id="stop4283-9" stop-color="#1e1e1e" offset="0"/>
   <stop id="stop4285-8" stop-color="#505050" offset="1"/>
  </linearGradient>
 </defs>
 <metadata id="metadata7">
  <rdf:RDF>
   <cc:Work rdf:about="">
    <dc:format>image/svg+xml</dc:format>
    <dc:type rdf:resource="http://purl.org/dc/dcmitype/StillImage"/>
    <dc:title/>
   </cc:Work>
  </rdf:RDF>
 </metadata>
 <g id="layer1" transform="translate(0 -956.36)">
  <rect id="rect5261-6" transform="scale(-1,1)" fill-opacity=".039216" ry="12.552" height="88.762" width="88.762" y="960.05" x="-92.363"/>
  <rect id="rect5259-9" transform="scale(-1,1)" fill-opacity=".078431" ry="12.38" height="87.546" width="87.546" y="960.66" x="-91.755"/>
  <rect id="rect5257-5" transform="scale(-1,1)" fill-opacity=".15686" ry="12.208" height="86.33" width="86.33" y="961.26" x="-91.147"/>
  <path id="rect2419" opacity=".9" d="m78.502 961.86c6.668 0 12.031 5.3945 12.031 12.062v61.031c0 5.4178-3.5332 9.9818-8.4375 11.5h-68.188c-4.7148-1.4568-8.1719-5.7337-8.4375-10.875v-62.281c0.32117-6.3771 5.5404-11.438 12-11.438h61.031z" fill="url(#linearGradient3182)"/>
  <path id="rect5265-0" d="m90.539 1029.9v5.0663c0 6.668-5.3645 12.032-12.032 12.032h-61.049c-6.668 0-12.032-5.3645-12.032-12.032v-5.0663c0 6.6681 5.3645 12.032 12.032 12.032h61.049c6.668 0 12.032-5.3643 12.032-12.032z" fill-opacity=".23529"/>
  <path id="path5252-0" d="m90.539 1033.9v1.0133c0 6.668-5.3645 12.032-12.032 12.032h-61.049c-6.668 0-12.032-5.3645-12.032-12.032v-1.0133c0 6.6681 5.3645 12.032 12.032 12.032h61.049c6.668 0 12.032-5.3644 12.032-12.032z" fill-opacity=".098039"/>
  <g id="layer5" transform="matrix(-1 0 0 1 96.471 953.95)">
   <rect id="rect3171" height="66" stroke="#fff" stroke-linecap="round" stroke-width=".5" fill="url(#linearGradient90466)" rx="12" ry="12" width="66" opacity=".3" clip-path="url(#clipPath3613-55)" filter="url(#filter3794-41)" y="15" x="15"/>
  </g>
  <path id="path4034" d="m59.5 982.72v6h-6.0938c-3.6807 0-6.7697 1.6213-9 3.6563-1.4595 1.3316-2.5899 2.8219-3.6562 4.3125l-4.2188 5.9061c-0.62445 0.7744-1.2356 1.4974-1.875 2.0625-1.5097 1.3344-2.9638 2.0625-5.25 2.0625h-8.9062v6h8.9062c3.7695 0 6.8862-1.5284 9.1875-3.5625 0.62936-0.5562 1.1531-1.1716 1.6875-1.7812 1.3212-1.7395 2.6262-3.5001 3.9375-5.25 1.4446-2.1364 2.8207-4.0681 4.2188-5.3437 1.4615-1.3334 2.8322-2.0625 4.9688-2.0625h6.0938v5.9999l15-8.9999-15-9zm-39 8v6h8.9062c2.2862 0 3.7403 0.7282 5.25 2.0625 0.2451 0.2167 0.47961 0.4618 0.71875 0.7188l3.1562-4.4063c0.11968-0.1673 0.25138-0.3303 0.375-0.5-0.10632-0.1027-0.20012-0.2131-0.3125-0.3125-2.3013-2.034-5.418-3.5625-9.1875-3.5625h-8.9062zm39 12v6h-6.0938c-2.1366 0-3.5073-0.729-4.9688-2.0625-0.76012-0.6935-1.5196-1.5848-2.2812-2.5937-1.2205 1.6295-2.443 3.2987-3.6875 4.9375 0.59054 0.7134 1.2191 1.407 1.9375 2.0625 2.2303 2.0349 5.3193 3.6562 9 3.6562h6.0938v6l15-9-15-9z" fill="url(#linearGradient3149)"/>
  <path id="path4059" opacity=".6" d="m73.656 992.22-14.156 8.4999v1l15-8.9999-0.84375-0.5zm-20.25 2.5c-2.1366 0-3.5073 0.7291-4.9688 2.0625-1.398 1.2756-2.7742 3.2073-4.2188 5.3437-1.3113 1.7499-2.6163 3.5105-3.9375 5.25-0.53436 0.6096-1.0581 1.225-1.6875 1.7812-2.3013 2.0341-5.418 3.5625-9.1875 3.5625h-8.9062v1h8.9062c3.7695 0 6.8862-1.5284 9.1875-3.5625 0.62936-0.5562 1.1531-1.1716 1.6875-1.7812 1.3212-1.7395 2.6262-3.5001 3.9375-5.25 1.4446-2.1364 2.8207-4.0681 4.2188-5.3437 1.4615-1.3334 2.8322-2.0625 4.9688-2.0625h6.0938v-1h-6.0938zm-14.938 0.4688-3.0938 4.3125c-0.23914-0.257-0.47365-0.5021-0.71875-0.7188-1.5097-1.3343-2.9638-2.0625-5.25-2.0625h-8.9062v1h8.9062c2.2862 0 3.7403 0.7282 5.25 2.0625 0.2451 0.21667 0.47961 0.46174 0.71875 0.71874l3.1562-4.4062c0.11968-0.1673 0.25138-0.3303 0.375-0.5-0.10632-0.1027-0.20012-0.2131-0.3125-0.3125-0.0382-0.034-0.0864-0.06-0.125-0.094zm4.4062 14.281c-0.13456 0.1785-0.27121 0.3534-0.40625 0.5313 0.59054 0.7134 1.2191 1.407 1.9375 2.0625 2.2303 2.0349 5.3193 3.6562 9 3.6562h6.0938v-1h-6.0938c-3.6807 0-6.7697-1.6213-9-3.6562-0.55884-0.5099-1.0567-1.0463-1.5312-1.5938zm30.781 2.75-14.156 8.5v1l15-9-0.84375-0.5z" fill="#fff"/>
  <path id="path4082" opacity=".1" d="m59.5 982.72v6h-6.0938c-3.6807 0-6.7697 1.6213-9 3.6563-1.4595 1.3316-2.5899 2.8219-3.6562 4.3125l-4.2188 5.9061c-0.62445 0.7744-1.2356 1.4974-1.875 2.0625-1.5097 1.3344-2.9638 2.0625-5.25 2.0625h-8.9062v6h8.9062c3.7695 0 6.8862-1.5284 9.1875-3.5625 0.62936-0.5562 1.1531-1.1716 1.6875-1.7812 1.3212-1.7395 2.6262-3.5001 3.9375-5.25 1.4446-2.1364 2.8207-4.0681 4.2188-5.3437 1.4615-1.3334 2.8322-2.0625 4.9688-2.0625h6.0938v5.9999l15-8.9999-15-9zm1.625 2.8438 10.25 6.1562-10.25 6.1563v-3.1563a1.6218 1.6218 0 0 0 -1.625 -1.625h-6.0938c-2.5054 0-4.4455 1.0246-6.0625 2.5-1.594 1.4545-2.9937 3.4285-4.4375 5.5624-0.0134 0.02-0.0179 0.043-0.0313 0.063-1.2781 1.7059-2.5358 3.4115-3.8125 5.0938-0.0226 0.03-0.0399 0.064-0.0625 0.094-0.51155 0.5841-0.97536 1.0951-1.4688 1.5312-2.059 1.8199-4.7938 3.1563-8.125 3.1563h-7.2812v-2.75h7.2812c2.6306 0 4.635-0.9861 6.3125-2.4688 0.76939-0.68 1.4231-1.457 2.0625-2.25a1.6218 1.6218 0 0 0 0.0625 -0.094l4.2188-5.9061c1.0484-1.4655 2.115-2.8559 3.4375-4.0625 1.9963-1.8215 4.7018-3.2188 7.9062-3.2188h6.0938a1.6218 1.6218 0 0 0 1.625 -1.625v-3.1562zm-40.625 5.1562v6h8.9062c2.2862 0 3.7403 0.7282 5.25 2.0625 0.2451 0.2167 0.47961 0.4618 0.71875 0.7188l3.1562-4.4063c0.11968-0.1673 0.25138-0.3303 0.375-0.5-0.10632-0.1027-0.20012-0.2131-0.3125-0.3125-2.3013-2.034-5.418-3.5625-9.1875-3.5625h-8.9062zm1.625 1.625h7.2812c2.9226 0 5.3013 1.1125 7.25 2.5938l-1.5938 2.2187c-1.5547-1.2011-3.333-2.0625-5.6562-2.0625h-7.2812v-2.75zm37.375 10.375v6h-6.0938c-2.1366 0-3.5073-0.729-4.9688-2.0625-0.76012-0.6935-1.5196-1.5848-2.2812-2.5937-1.2205 1.6295-2.443 3.2987-3.6875 4.9375 0.59054 0.7134 1.2191 1.407 1.9375 2.0625 2.2303 2.0349 5.3193 3.6562 9 3.6562h6.0938v6l15-9-15-9zm1.625 2.8438 10.25 6.1562-10.25 6.1563v-3.1563a1.6218 1.6218 0 0 0 -1.625 -1.625h-6.0938c-3.2045 0-5.9099-1.3972-7.9062-3.2187-0.33917-0.3095-0.62895-0.6662-0.9375-1 0.56939-0.7597 1.1587-1.4959 1.7188-2.25 0.35811 0.4001 0.68496 0.8743 1.0625 1.2187 1.617 1.4754 3.557 2.5 6.0625 2.5h6.0938a1.6218 1.6218 0 0 0 1.625 -1.625v-3.1562z"/>
  <path id="path4077" opacity=".2" d="m59.5 982.72v6h-6.0938c-3.6807 0-6.7697 1.6213-9 3.6563-1.4595 1.3316-2.5899 2.8219-3.6562 4.3125l-4.2188 5.9061c-0.62445 0.7744-1.2356 1.4974-1.875 2.0625-1.5097 1.3344-2.9638 2.0625-5.25 2.0625h-8.9062v6h8.9062c3.7695 0 6.8862-1.5284 9.1875-3.5625 0.62936-0.5562 1.1531-1.1716 1.6875-1.7812 1.3212-1.7395 2.6262-3.5001 3.9375-5.25 1.4446-2.1364 2.8207-4.0681 4.2188-5.3437 1.4615-1.3334 2.8322-2.0625 4.9688-2.0625h6.0938v5.9999l15-8.9999-15-9zm0.875 1.5313 12.438 7.4687-12.438 7.4688v-4.4688a0.86497 0.86497 0 0 0 -0.875 -0.875h-6.0938c-2.3333 0-4.0181 0.9034-5.5625 2.3125-1.5016 1.3701-2.8699 3.305-4.3125 5.4374-0.009 0.013-0.0228 0.019-0.0313 0.031-1.2955 1.7291-2.5756 3.4763-3.875 5.1875-0.009 0.012-0.0225 0.02-0.0313 0.031-0.52813 0.603-1.0027 1.1615-1.5625 1.6563-2.1721 1.9198-5.0893 3.3437-8.625 3.3437h-8.0312v-4.25h8.0312c2.4699 0 4.2133-0.8677 5.8125-2.2812 0.70873-0.6264 1.3676-1.4032 2-2.1875a0.86497 0.86497 0 0 0 0.0313 -0.031l4.2188-5.9062c1.0567-1.4771 2.1449-2.9225 3.5312-4.1875 2.1055-1.9211 4.9796-3.4062 8.4062-3.4062h6.0938a0.86497 0.86497 0 0 0 0.875 -0.875v-4.4688zm-39.875 6.4687v6h8.9062c2.2862 0 3.7403 0.7282 5.25 2.0625 0.2451 0.2167 0.47961 0.4618 0.71875 0.7188l3.1562-4.4063c0.11968-0.1673 0.25138-0.3303 0.375-0.5-0.10632-0.1027-0.20012-0.2131-0.3125-0.3125-2.3013-2.034-5.418-3.5625-9.1875-3.5625h-8.9062zm0.875 0.875h8.0312c3.3929 0 6.1714 1.3538 8.3125 3.1563l-2.4375 3.4375c-0.0222-0.02-0.0399-0.043-0.0625-0.063-1.5992-1.4135-3.3426-2.2813-5.8125-2.2813h-8.0312v-4.25zm38.125 11.125v6h-6.0938c-2.1366 0-3.5073-0.729-4.9688-2.0625-0.76012-0.6935-1.5196-1.5848-2.2812-2.5937-1.2205 1.6295-2.443 3.2987-3.6875 4.9375 0.59054 0.7134 1.2191 1.407 1.9375 2.0625 2.2303 2.0349 5.3193 3.6562 9 3.6562h6.0938v6l15-9-15-9zm0.875 1.5313 12.438 7.4687-12.438 7.4688v-4.4688a0.86497 0.86497 0 0 0 -0.875 -0.875h-6.0938c-3.4267 0-6.3008-1.4851-8.4062-3.4062-0.50965-0.465-0.96332-0.9923-1.4062-1.5 0.88345-1.1725 1.7591-2.337 2.625-3.5 0.53957 0.658 1.0626 1.3306 1.625 1.8437 1.5444 1.4092 3.2292 2.3125 5.5625 2.3125h6.0938a0.86497 0.86497 0 0 0 0.875 -0.875v-4.4687z"/>
  <path id="path4068" opacity=".6" d="m59.5 982.72v1l14.156 8.5 0.84375-0.5-15-9zm-6.0938 6c-3.6807 0-6.7697 1.6213-9 3.6563-1.4595 1.3316-2.5899 2.8219-3.6562 4.3125l-4.2188 5.9061c-0.62445 0.7744-1.2356 1.4974-1.875 2.0625-1.5097 1.3344-2.9638 2.0625-5.25 2.0625h-8.9062v1h8.9062c2.2862 0 3.7403-0.7281 5.25-2.0625 0.6394-0.5651 1.2506-1.2881 1.875-2.0625l4.2188-5.9061c1.0663-1.4906 2.1968-2.9809 3.6562-4.3125 2.2303-2.035 5.3193-3.6563 9-3.6563h6.0938v-1h-6.0938zm-32.906 2v1h8.9062c3.707 0 6.7728 1.4852 9.0625 3.4688l0.0625-0.094c0.11968-0.1673 0.25138-0.3303 0.375-0.5-0.10632-0.1027-0.20012-0.2132-0.3125-0.3125-2.3013-2.0341-5.418-3.5625-9.1875-3.5625h-8.9062zm39 12v1l14.156 8.5 0.84375-0.5-15-9zm-13.344 1.3438c-1.2205 1.6295-2.443 3.2987-3.6875 4.9375 0.13115 0.1584 0.27078 0.3124 0.40625 0.4687 1.1054-1.4661 2.1932-2.9535 3.2812-4.4062 0.76169 1.0089 1.5211 1.9002 2.2812 2.5937 1.4615 1.3335 2.8322 2.0625 4.9688 2.0625h6.0938v-1h-6.0938c-2.1366 0-3.5073-0.729-4.9688-2.0625-0.76012-0.6935-1.5196-1.5848-2.2812-2.5937z"/>
 </g>
</svg>
