<?xml version="1.0" encoding="UTF-8" standalone="no"?>
<!-- Created with Inkscape (http://www.inkscape.org/) -->
<svg id="svg2408" xmlns:rdf="http://www.w3.org/1999/02/22-rdf-syntax-ns#" xmlns="http://www.w3.org/2000/svg" height="96" width="96" version="1.0" xmlns:cc="http://creativecommons.org/ns#" xmlns:xlink="http://www.w3.org/1999/xlink" xmlns:dc="http://purl.org/dc/elements/1.1/">
 <defs id="defs2410">
  <linearGradient id="ButtonShadow" y2="7.0165" gradientUnits="userSpaceOnUse" x2="45.448" gradientTransform="scale(1.0059 .99417)" y1="92.54" x1="45.448">
   <stop id="stop3750" offset="0"/>
   <stop id="stop3752" stop-opacity=".58824" offset="1"/>
  </linearGradient>
  <linearGradient id="linearGradient3737">
   <stop id="stop3739" stop-color="#fff" offset="0"/>
   <stop id="stop3741" stop-color="#fff" stop-opacity="0" offset="1"/>
  </linearGradient>
  <filter id="filter3174" color-interpolation-filters="sRGB">
   <feGaussianBlur id="feGaussianBlur3176" stdDeviation="1.71"/>
  </filter>
  <linearGradient id="linearGradient3188" y2="63.893" xlink:href="#linearGradient3737" gradientUnits="userSpaceOnUse" x2="36.357" y1="6" x1="36.357"/>
  <filter id="filter3794" height="1.384" width="1.384" color-interpolation-filters="sRGB" y="-.192" x="-.192">
   <feGaussianBlur id="feGaussianBlur3796" stdDeviation="5.28"/>
  </filter>
  <linearGradient id="linearGradient3613" y2="138.66" xlink:href="#linearGradient3737" gradientUnits="userSpaceOnUse" x2="48" y1="20.221" x1="48"/>
  <radialGradient id="radialGradient3619" xlink:href="#linearGradient3737" gradientUnits="userSpaceOnUse" cy="90.172" cx="48" gradientTransform="matrix(1.1573 0 0 .99591 -7.551 .19713)" r="42"/>
  <clipPath id="clipPath3613">
   <rect id="rect3615" rx="6" ry="6" height="84" width="84" y="6" x="6" fill="#fff"/>
  </clipPath>
  <linearGradient id="linearGradient2843" y2="5.9877" gradientUnits="userSpaceOnUse" x2="48" gradientTransform="translate(0,100)" y1="90" x1="48">
   <stop id="stop3702" stop-color="#2276c5" offset="0"/>
   <stop id="stop3704" stop-color="#68baf4" offset="1"/>
  </linearGradient>
  <clipPath id="clipPath3625">
   <path id="path3627" fill="#fff" d="m0 0v96h96v-96h-96zm12 6h72c3.324 0 6 2.676 6 6v72c0 3.324-2.676 6-6 6h-72c-3.324 0-6-2.676-6-6v-72c0-3.324 2.676-6 6-6z"/>
  </clipPath>
  <linearGradient id="linearGradient3643" y2="90.015" gradientUnits="userSpaceOnUse" x2="44.512" y1="6" x1="44.512">
   <stop id="stop3639" stop-color="#f0f0f0" offset="0"/>
   <stop id="stop3641" stop-color="#aaa" offset="1"/>
  </linearGradient>
  <clipPath id="clipPath3649">
   <rect id="rect3651" rx="4" ry="4" height="76" width="76" y="10" x="10" fill="#fff"/>
  </clipPath>
  <filter id="filter3657" color-interpolation-filters="sRGB">
   <feGaussianBlur id="feGaussianBlur3659" stdDeviation="1.14"/>
  </filter>
  <linearGradient id="linearGradient3098" y2="61.574" xlink:href="#ButtonShadow" gradientUnits="userSpaceOnUse" x2="48.371" gradientTransform="matrix(1.4901 0 0 1.4901 -23.526 -24.996)" y1="40.767" x1="48.652"/>
 </defs>
 <metadata id="metadata2413">
  <rdf:RDF>
   <cc:Work rdf:about="">
    <dc:format>image/svg+xml</dc:format>
    <dc:type rdf:resource="http://purl.org/dc/dcmitype/StillImage"/>
    <dc:title/>
   </cc:Work>
  </rdf:RDF>
 </metadata>
 <g id="layer2" display="none">
  <rect id="rect3745" opacity=".9" filter="url(#filter3174)" clip-path="url(#clipPath3625)" rx="6" ry="6" height="85" width="86" y="7" x="5" fill="url(#ButtonShadow)"/>
 </g>
 <g id="layer1" display="none">
  <rect id="rect2419" opacity=".8" rx="6" ry="6" height="84" width="84" y="6" x="6"/>
  <path id="rect3726" opacity="0.08" d="m14 10c-2.216 0-4 1.784-4 4v68c0 2.216 1.784 4 4 4h68c2.216 0 4-1.784 4-4v-68c0-2.216-1.784-4-4-4h-68zm0 3.0625h68c0.57877 0 0.9375 0.35873 0.9375 0.9375v68c0 0.57877-0.35873 0.9375-0.9375 0.9375h-68c-0.57877 0-0.9375-0.35873-0.9375-0.9375v-68c0-0.57877 0.35873-0.9375 0.9375-0.9375z"/>
  <path id="rect3629" d="m12 6c-3.324 0-6 2.676-6 6v72c0 3.324 2.676 6 6 6h72c3.324 0 6-2.676 6-6v-72c0-3.324-2.676-6-6-6h-72zm2 4h68c2.216 0 4 1.784 4 4v68c0 2.216-1.784 4-4 4h-68c-2.216 0-4-1.784-4-4v-68c0-2.216 1.784-4 4-4z" fill="url(#linearGradient3643)"/>
  <path id="rect3728" d="m12 6c-3.324 0-6 2.676-6 6v2 68 2c0 0.33472 0.04135 0.6507 0.09375 0.96875 0.0487 0.2956 0.09704 0.59692 0.1875 0.875 0.00988 0.03038 0.020892 0.0636 0.03125 0.09375 0.098865 0.28777 0.23488 0.54745 0.375 0.8125 0.14459 0.27351 0.31562 0.53562 0.5 0.78125 0.18438 0.24564 0.37378 0.47347 0.59375 0.6875 0.43995 0.42806 0.94291 0.81453 1.5 1.0938 0.27854 0.13961 0.57347 0.24695 0.875 0.34375-0.2562-0.10022-0.48671-0.23627-0.71875-0.375-0.00741-0.0044-0.023866 0.0045-0.03125 0-0.031933-0.0193-0.062293-0.04251-0.09375-0.0625-0.1204-0.0767-0.23102-0.16351-0.34375-0.25-0.10617-0.0808-0.21328-0.16111-0.3125-0.25-0.1778-0.162-0.3473-0.346-0.4999-0.531-0.1075-0.131-0.2183-0.266-0.3124-0.407-0.0251-0.038-0.0385-0.086-0.0626-0.125-0.0647-0.103-0.1302-0.204-0.1874-0.312-0.1011-0.195-0.2057-0.416-0.2813-0.625-0.008-0.022-0.0236-0.041-0.0313-0.063-0.0318-0.092-0.0358-0.187-0.0624-0.281-0.0304-0.107-0.0704-0.203-0.0938-0.313-0.0729-0.341-0.125-0.698-0.125-1.062v-2-68-2c0-2.782 2.2182-5 5-5h2 68 2c2.7818 0 5 2.2182 5 5v2 68 2c0 0.3643-0.05212 0.72099-0.125 1.0625-0.04415 0.20689-0.08838 0.39766-0.15625 0.59375-0.0077 0.02195-0.0233 0.04069-0.03125 0.0625-0.06274 0.17374-0.13838 0.36745-0.21875 0.53125-0.04158 0.0828-0.07904 0.16995-0.125 0.25-0.0546 0.09721-0.12677 0.18835-0.1875 0.28125-0.09411 0.14096-0.20492 0.276-0.3125 0.40625-0.14317 0.17445-0.30314 0.347-0.46875 0.5-0.01117 0.0102-0.01998 0.02115-0.03125 0.03125-0.13839 0.12556-0.28509 0.23444-0.4375 0.34375-0.10257 0.07315-0.20432 0.15336-0.3125 0.21875-0.0074 0.0045-0.02384-0.0044-0.03125 0-0.23204 0.13873-0.46255 0.27478-0.71875 0.375 0.30153-0.0968 0.59646-0.20414 0.875-0.34375 0.55709-0.27922 1.0601-0.66569 1.5-1.0938 0.21997-0.21403 0.40937-0.44186 0.59375-0.6875s0.35541-0.50774 0.5-0.78125c0.14012-0.26505 0.27614-0.52473 0.375-0.8125 0.01041-0.03078 0.02133-0.06274 0.03125-0.09375 0.09046-0.27808 0.1388-0.5794 0.1875-0.875 0.053-0.318 0.094-0.634 0.094-0.969v-2-68-2c0-3.324-2.676-6-6-6h-72z" fill="url(#linearGradient3188)"/>
  <path id="path3615" opacity=".6" d="m12 90c-3.324 0-6-2.676-6-6v-2-68-2c0-0.33472 0.04135-0.6507 0.09375-0.96875 0.0487-0.2956 0.09704-0.59692 0.1875-0.875 0.0099-0.03 0.0209-0.063 0.0313-0.094 0.0989-0.2873 0.2349-0.547 0.375-0.812 0.1446-0.2735 0.3156-0.5356 0.5-0.7812 0.1844-0.2457 0.3738-0.4735 0.5937-0.6876 0.44-0.428 0.943-0.8145 1.5-1.0937 0.2786-0.1396 0.5735-0.2469 0.8748-0.3437-0.256 0.1002-0.4865 0.2362-0.7185 0.375-0.00741 0.0044-0.023866-0.0045-0.03125 0-0.031933 0.0193-0.062293 0.04251-0.09375 0.0625-0.1204 0.0767-0.23102 0.16351-0.34375 0.25-0.10617 0.0808-0.21328 0.16111-0.3125 0.25-0.1779 0.1614-0.3474 0.3453-0.5 0.5312-0.1075 0.1303-0.2183 0.2653-0.3124 0.4063-0.0251 0.0383-0.0385 0.0858-0.0626 0.125-0.0647 0.103-0.1302 0.2045-0.1874 0.3124-0.1011 0.1948-0.2057 0.4158-0.2813 0.625-0.008 0.0219-0.0236 0.0406-0.0313 0.0626-0.0318 0.0919-0.0358 0.1868-0.0624 0.2812-0.0304 0.1066-0.0704 0.203-0.0938 0.3125-0.0729 0.3415-0.125 0.6985-0.125 1.0625v2 68 2c0 2.7818 2.2182 5 5 5h2 68 2c2.7818 0 5-2.2182 5-5v-2-68-2c0-0.364-0.052-0.721-0.125-1.0625-0.044-0.2069-0.088-0.3977-0.156-0.5937-0.008-0.022-0.024-0.0407-0.031-0.0626-0.063-0.1737-0.139-0.3674-0.219-0.5312-0.042-0.0828-0.079-0.17-0.125-0.25-0.055-0.0972-0.127-0.1884-0.188-0.2812-0.094-0.141-0.205-0.276-0.312-0.4063-0.143-0.1745-0.303-0.347-0.469-0.5-0.011-0.0102-0.02-0.0211-0.031-0.0313-0.139-0.1255-0.285-0.2344-0.438-0.3437-0.102-0.0731-0.204-0.1534-0.312-0.2187-0.0074-0.0045-0.02384 0.0044-0.03125 0-0.23204-0.13873-0.46255-0.27478-0.71875-0.375 0.30153 0.0968 0.59646 0.20414 0.875 0.34375 0.55709 0.27922 1.0601 0.66569 1.5 1.0938 0.21997 0.21403 0.40937 0.44186 0.59375 0.6875s0.35541 0.50774 0.5 0.78125c0.14012 0.26505 0.27614 0.52473 0.375 0.8125 0.01041 0.03078 0.02133 0.06274 0.03125 0.09375 0.09046 0.27808 0.1388 0.5794 0.1875 0.875 0.053 0.318 0.094 0.634 0.094 0.969v2 68 2c0 3.324-2.676 6-6 6h-72z" fill="url(#radialGradient3619)"/>
  <rect id="rect2841" rx="6" ry="6" height="84" width="84" y="106" x="6" fill="url(#linearGradient2843)"/>
  <rect id="rect3634" rx="4" ry="4" height="76" width="76" y="110" x="10" fill="#f00"/>
  <path id="rect3647" style="block-progression:tb;text-indent:0;color:#000000;text-transform:none" d="m14 9c-2.7527 0-5 2.2473-5 5v68c0 2.7527 2.2473 5 5 5h68c2.7527 0 5-2.2473 5-5v-68c0-2.753-2.247-5-5-5h-68zm0 2h68c1.6793 0 3 1.3207 3 3v68c0 1.6793-1.3207 3-3 3h-68c-1.6793 0-3-1.3207-3-3v-68c0-1.6793 1.3207-3 3-3z" clip-path="url(#clipPath3649)" transform="translate(-110)" display="inline" filter="url(#filter3657)"/>
  <path id="path3709" opacity="0.16" d="m14.089 10c-2.216 0-4 1.784-4 4v68c0 2.216 1.784 4 4 4h68c2.216 0 4-1.784 4-4v-68c0-2.216-1.784-4-4-4h-68zm0 2h68c1.1403 0 2 0.8597 2 2v68c0 1.1403-0.8597 2-2 2h-68c-1.1403 0-2-0.8597-2-2v-68c0-1.1403 0.8597-2 2-2z"/>
  <path id="path3707" opacity="0.36" d="m14 10c-2.216 0-4 1.784-4 4v68c0 2.216 1.784 4 4 4h68c2.216 0 4-1.784 4-4v-68c0-2.216-1.784-4-4-4h-68zm0 1h68c1.6738 0 3 1.3262 3 3v68c0 1.6738-1.3262 3-3 3h-68c-1.6738 0-3-1.3262-3-3v-68c0-1.6738 1.3262-3 3-3z"/>
 </g>
 <g id="layer5" display="none">
  <rect id="rect3171" height="66" stroke="#fff" stroke-linecap="round" stroke-width=".5" fill="url(#linearGradient3613)" rx="12" ry="12" width="66" opacity=".1" clip-path="url(#clipPath3613)" filter="url(#filter3794)" y="15" x="15"/>
 </g>
 <path id="path4609" d="m14.447 43.409c1.2547-0.79097 7.2787-3.716 9.7775-4.747 3.4712-1.4322 9.6867-3.0781 13.491-3.5724 4.5463-0.59075 8.2789-0.62979 14.881-0.15571 10.135 0.72772 18.656 2.8773 25.891 6.5313 3.3345 1.6841 4.4771 2.5109 6.4167 4.6434 3.8749 4.2575 5.7773 10.975 4.3402 15.311-0.40771 1.23-0.6985 1.5997-2.8209 3.586-2.7001 2.527-3.2481 2.746-5.0795 2.033-2.9251-1.139-14.23-6.6362-14.69-7.1432-0.75916-0.83672-1.3376-4.1083-1.2783-7.2302 0.06579-3.4658-0.18441-3.7774-3.8801-4.8318-7.547-2.1529-14.841-2.5536-22.249-1.2221-3.8427 0.69068-8.5848 2.045-9.2791 2.6499-0.98638 0.85941-1.1077 1.4669-0.8513 4.2566 0.30141 3.2784 0.26897 7.1944-0.067 8.0919-0.3426 0.91504-0.42526 0.94734-7.2082 2.8179-3.1796 0.87685-6.7251 1.8632-7.879 2.1918-1.1538 0.32873-2.3563 0.55904-2.6722 0.51188-1.0304-0.15384-4.23-4.5898-4.7949-6.6484-0.57343-2.0889 0.025913-6.3468 1.2714-9.0284 1.2969-2.7931 4.534-6.6916 6.68-8.0452z" fill="url(#linearGradient3098)"/>
</svg>
