<?xml version="1.0" encoding="UTF-8" standalone="no"?>
<!-- Created with Inkscape (http://www.inkscape.org/) -->
<svg id="svg2408" xmlns:rdf="http://www.w3.org/1999/02/22-rdf-syntax-ns#" xmlns="http://www.w3.org/2000/svg" height="96" width="96" version="1.0" xmlns:cc="http://creativecommons.org/ns#" xmlns:xlink="http://www.w3.org/1999/xlink" xmlns:dc="http://purl.org/dc/elements/1.1/">
 <defs id="defs2410">
  <linearGradient id="linearGradient3956">
   <stop id="stop3958" stop-color="#e6c94c" offset="0"/>
   <stop id="stop3966" stop-color="#e7ce5f" offset=".57832"/>
   <stop id="stop3960" stop-color="#f0de93" offset=".83333"/>
   <stop id="stop3962" stop-color="#d0b64c" offset=".91667"/>
   <stop id="stop3964" stop-color="#907d2e" offset="1"/>
  </linearGradient>
  <linearGradient id="ButtonShadow" y2="7.0165" gradientUnits="userSpaceOnUse" x2="45.448" gradientTransform="scale(1.0059 .99417)" y1="92.54" x1="45.448">
   <stop id="stop3750" offset="0"/>
   <stop id="stop3752" stop-opacity=".58824" offset="1"/>
  </linearGradient>
  <linearGradient id="linearGradient3737">
   <stop id="stop3739" stop-color="#fff" offset="0"/>
   <stop id="stop3741" stop-color="#fff" stop-opacity="0" offset="1"/>
  </linearGradient>
  <filter id="filter3174" color-interpolation-filters="sRGB">
   <feGaussianBlur id="feGaussianBlur3176" stdDeviation="1.71"/>
  </filter>
  <filter id="filter3794" height="1.384" width="1.384" color-interpolation-filters="sRGB" y="-.192" x="-.192">
   <feGaussianBlur id="feGaussianBlur3796" stdDeviation="5.28"/>
  </filter>
  <linearGradient id="linearGradient3613" y2="138.66" xlink:href="#linearGradient3737" gradientUnits="userSpaceOnUse" x2="48" y1="20.221" x1="48"/>
  <radialGradient id="radialGradient3619" xlink:href="#linearGradient3737" gradientUnits="userSpaceOnUse" cy="72.098" cx="48" gradientTransform="matrix(1.1573 0 0 .99591 -7.551 .19713)" r="42"/>
  <clipPath id="clipPath3613">
   <rect id="rect3615" rx="6" ry="6" height="84" width="84" y="6" x="6" fill="#fff"/>
  </clipPath>
  <linearGradient id="linearGradient3617" y2="5.9877" gradientUnits="userSpaceOnUse" x2="48" gradientTransform="translate(-100)" y1="90" x1="48">
   <stop id="stop3702" stop-color="#2276c5" offset="0"/>
   <stop id="stop3704" stop-color="#68baf4" offset="1"/>
  </linearGradient>
  <linearGradient id="ButtonShadow-0" y2="7.0165" gradientUnits="userSpaceOnUse" x2="45.448" gradientTransform="matrix(1.0059 0 0 .99417 100 0)" y1="92.54" x1="45.448">
   <stop id="stop3750-8" offset="0"/>
   <stop id="stop3752-5" stop-opacity=".58824" offset="1"/>
  </linearGradient>
  <linearGradient id="linearGradient3780" y2="90.239" xlink:href="#ButtonShadow-0" gradientUnits="userSpaceOnUse" x2="32.251" gradientTransform="matrix(1.0238 0 0 1.0119 -1.1429 -98.071)" y1="6.1317" x1="32.251"/>
  <linearGradient id="linearGradient3725" y2="90.239" xlink:href="#ButtonShadow-0" gradientUnits="userSpaceOnUse" x2="32.251" gradientTransform="matrix(1.0238 0 0 1.0119 98.857 -98.071)" y1="6.1317" x1="32.251"/>
  <linearGradient id="linearGradient3721" y2="90.239" xlink:href="#ButtonShadow-0" gradientUnits="userSpaceOnUse" x2="32.251" gradientTransform="translate(100,-97)" y1="6.1317" x1="32.251"/>
  <linearGradient id="linearGradient3831" y2="82.822" gradientUnits="userSpaceOnUse" x2="43.31" y1="91.125" x1="43.31">
   <stop id="stop3736" stop-color="#bfbfbf" offset="0"/>
   <stop id="stop3738" stop-color="#9a9a9a" offset="1"/>
  </linearGradient>
  <linearGradient id="linearGradient3769" y2="72.304" gradientUnits="userSpaceOnUse" x2="48" gradientTransform="translate(0,1)" y1="86.071" x1="48">
   <stop id="stop3773" stop-color="#ababab" stop-opacity="0" offset="0"/>
   <stop id="stop3779" stop-color="#e6e6e6" offset=".15620"/>
   <stop id="stop3777" stop-color="#aaa" offset="1"/>
  </linearGradient>
  <linearGradient id="linearGradient3797" y2="84" xlink:href="#linearGradient3803" gradientUnits="userSpaceOnUse" x2="37" gradientTransform="translate(0,1)" y1="72.089" x1="37"/>
  <linearGradient id="linearGradient3803">
   <stop id="stop3805" offset="0"/>
   <stop id="stop3807" stop-opacity="0" offset="1"/>
  </linearGradient>
  <linearGradient id="linearGradient3809" y2="84.028" xlink:href="#linearGradient3803" gradientUnits="userSpaceOnUse" x2="60" gradientTransform="translate(0,1)" y1="70" x1="60"/>
  <linearGradient id="linearGradient3813" y2="78.307" xlink:href="#linearGradient3803" gradientUnits="userSpaceOnUse" x2="44.696" gradientTransform="matrix(1 0 0 .42105 -1.3177e-7 44.789)" y1="66.995" x1="44.696"/>
  <radialGradient id="radialGradient3465" gradientUnits="userSpaceOnUse" cy="4.3132" cx="48" gradientTransform="matrix(-2.7021e-8 1.6166 -1.3333 -2.2261e-8 53.751 -65.764)" r="35.938">
   <stop id="stop3177-5" stop-color="#55a6eb" offset="0"/>
   <stop id="stop3179-1" stop-color="#1754c4" offset="1"/>
  </radialGradient>
  <linearGradient id="linearGradient3205" y2="5.9877" gradientUnits="userSpaceOnUse" x2="48" y1="72" x1="48">
   <stop id="stop3702-5" offset="0"/>
   <stop id="stop3704-6" stop-color="#1f1f1f" offset="1"/>
  </linearGradient>
  <linearGradient id="linearGradient4126" y2="58" gradientUnits="userSpaceOnUse" x2="142.47" gradientTransform="translate(-78,-2)" y1="16.125" x1="142.47">
   <stop id="stop3689" stop-color="#fff" offset="0"/>
   <stop id="stop3691" stop-color="#fff" stop-opacity="0" offset="1"/>
  </linearGradient>
  <linearGradient id="linearGradient3129" y2="66" xlink:href="#linearGradient3737" gradientUnits="userSpaceOnUse" x2="65.156" gradientTransform="translate(2,-2)" y1="16.125" x1="65.156"/>
  <linearGradient id="linearGradient3922" y2="63.893" gradientUnits="userSpaceOnUse" x2="36.357" y1="6" x1="36.357">
   <stop id="stop3739-6" stop-color="#fff" offset="0"/>
   <stop id="stop3741-9" stop-color="#fff" stop-opacity="0" offset="1"/>
  </linearGradient>
  <linearGradient id="linearGradient3926" y2="90" xlink:href="#linearGradient3737" gradientUnits="userSpaceOnUse" x2="68.517" gradientTransform="translate(2,-2)" y1="9.0625" x1="68.517"/>
  <linearGradient id="linearGradient3963" y2="7" xlink:href="#ButtonShadow" gradientUnits="userSpaceOnUse" x2="49" y1="91" x1="49"/>
  <linearGradient id="linearGradient3971" y2="7" xlink:href="#ButtonShadow" gradientUnits="userSpaceOnUse" x2="48" y1="92" x1="48"/>
  <linearGradient id="linearGradient3933" y2="41" xlink:href="#linearGradient3956" spreadMethod="reflect" gradientUnits="userSpaceOnUse" x2="60" y1="41" x1="48"/>
  <linearGradient id="linearGradient3945" y2="41" xlink:href="#linearGradient3956" spreadMethod="reflect" gradientUnits="userSpaceOnUse" x2="60" gradientTransform="translate(0,6)" y1="41" x1="48"/>
  <linearGradient id="linearGradient3954" y2="41" xlink:href="#linearGradient3956" spreadMethod="reflect" gradientUnits="userSpaceOnUse" x2="60" gradientTransform="translate(0,12)" y1="41" x1="48"/>
  <linearGradient id="linearGradient3983" y2="36" spreadMethod="reflect" gradientUnits="userSpaceOnUse" x2="56.969" y1="36" x1="48">
   <stop id="stop3979" stop-color="#cbcbcb" offset="0"/>
   <stop id="stop3981" stop-color="#efefef" offset="1"/>
  </linearGradient>
  <linearGradient id="linearGradient4011" y2="24.975" gradientUnits="userSpaceOnUse" x2="47.23" y1="35.984" x1="39.031">
   <stop id="stop4007" offset="0"/>
   <stop id="stop4009" stop-opacity="0" offset="1"/>
  </linearGradient>
  <linearGradient id="linearGradient4039" y2="23.479" gradientUnits="userSpaceOnUse" x2="48.758" y1="37.282" x1="56.728">
   <stop id="stop4035" offset="0"/>
   <stop id="stop4037" stop-opacity="0" offset="1"/>
  </linearGradient>
 </defs>
 <metadata id="metadata2413">
  <rdf:RDF>
   <cc:Work rdf:about="">
    <dc:format>image/svg+xml</dc:format>
    <dc:type rdf:resource="http://purl.org/dc/dcmitype/StillImage"/>
    <dc:title/>
   </cc:Work>
  </rdf:RDF>
 </metadata>
 <g id="layer2" display="none">
  <rect id="rect3745" opacity=".9" rx="6" ry="6" height="85" filter="url(#filter3174)" width="86" y="7" x="5" fill="url(#ButtonShadow)"/>
 </g>
 <g id="layer3">
  <path id="path3999" opacity="0.08" d="m12 4.0938c-6.0387-0.1694-10.628 5.6615-9.9062 11.437 0.0000711 0.04167-0.0000696 0.08333 0 0.125 0.03021 18.086-0.077057 36.154 0.03125 54.25a0.90025 0.90025 0 0 0 0 0.0625c0.41841 5.8027 6.1885 9.6096 11.656 8.9375 0.04186-0.0051 0.08318 0.0057 0.125 0h19.188v4.1875c-2.4995 0.03714-5.1747-0.29052-7.9062 0.28125a0.90025 0.90025 0 0 0 -0.21875 0.0625c-2.16 1.129-4.558 2.158-6.719 3.531a0.90025 0.90025 0 0 0 -0.062 0.031c-0.64204 0.48277-1.0488 1.0792-1.125 1.6875-0.04143 0.33068 0.10531 0.526 0.1875 0.78125a0.90025 0.90025 0 0 0 -0.125 0.406c-0.03273 0.85717-0.01746 1.8899 0.375 2.875 0.39246 0.98507 1.3427 1.9049 2.7188 2.0625a0.90025 0.90025 0 0 0 0.09375 0c15.618 0.18581 31.239 0.04099 46.844 0.09375a0.90025 0.90025 0 0 0 0.03125 0c2.9511-0.14994 6.202 0.37379 9.4375-0.375a0.90025 0.90025 0 0 0 0.155 -0.031c1.2778-0.54082 1.8494-1.7352 2-2.7812 0.15058-1.046 0.04646-2.0607 0.0625-2.75a0.90025 0.90025 0 0 0 -0.032 -0.281c-0.391-1.393-1.52-2.176-2.562-2.688s-2.082-0.871-2.75-1.344a0.90025 0.90025 0 0 0 -0.03125 0c-1.7868-1.169-3.8808-1.826-6.0938-1.5625-0.04278 0.0051-0.08212-0.0058-0.125 0h-4.3438v-4.1875c7.3271-0.01883 14.649 0.07177 22-0.03125a0.90025 0.90025 0 0 0 0.0625 0c5.8027-0.41841 9.6096-6.1885 8.9375-11.656-0.0051-0.04186 0.0057-0.08318 0-0.125-0.0302-18.002 0.07705-35.988-0.03125-54a0.90025 0.90025 0 0 0 0 -0.0625c-0.417-5.8035-6.187-9.6104-11.655-8.9382h-0.125-70.062-0.03125zm7.4375 85c0.4354-0.19522 0.4743-0.03846 0.53125 0 0.02847 0.01923 0.05666 0.04612 0.125 0.15625s0.18456 0.43657 0.03125 0.75c-0.11342 0.23189-0.2423 0.24151-0.34375 0.28125l0.062-0.782-0.844 0.281c0.01573 0.04847-0.02566 0.02862 0-0.125s0.2198-0.46489 0.4375-0.5625z" fill="url(#linearGradient3971)"/>
  <path id="path3985" opacity=".1" d="m12 5c-5.4909-0.173-9.7295 5.244-9 10.519 0.0309 18.133-0.0619 36.269 0.0466 54.4 0.38 5.27 5.7133 8.761 10.725 8.081h20.228v6c-2.863 0.16737-5.8176-0.33764-8.625 0.25-2.2062 1.1542-4.5847 2.1527-6.6562 3.4688-2.0391 1.5332 0.82776 2.8985-0.6875 2.1875-0.06209 1.6261 0.1105 3.7638 2.2954 4.0139 15.605 0.18566 31.228 0.02701 46.84 0.0798 3.0812-0.15655 6.2588 0.35458 9.264-0.34088 1.9515-0.82593 1.4699-3.1378 1.5068-4.7216-0.595-2.116-3.314-2.355-4.979-3.533-1.684-1.102-3.554-1.677-5.575-1.404h-5.384v-6c7.6391-0.02982 15.281 0.06045 22.919-0.04658 5.27-0.38 8.761-5.713 8.081-10.725-0.031-18.048 0.062-36.1-0.047-54.147-0.38-5.2699-5.713-8.7607-10.725-8.081h-70.228zm64.656 82.375c0.44379 0.11608-0.07015 0.13571 0 0zm-58.031 1.469c0.49082-0.09404-0.2815 0.19011 0 0zm1.219 0.656c0.33922 1.0453-1.3656-0.10618 0 0zm-1.844 0.188c0.0091 0.26221 0.07874-0.0391 0 0zm1.0938 0.1875c0.13321 0.14058-0.10477 0.06649 0 0z" fill="url(#linearGradient3971)"/>
  <path id="path3977" opacity=".2" d="m12 5.9375c-4.4521 0-8.0625 3.6104-8.0625 8.0625v55c0 4.4521 3.6104 8.0625 8.0625 8.0625h22.938v5.9375 1.9375h-8.0312c-0.02106-0.0015-0.03968 0.000923-0.0625 0-0.09128-0.0037-0.16577-0.0062-0.25 0a1.0697 1.0697 0 0 0 -0.03125 0c-0.11391 0.0099-0.23243 0.0088-0.34375 0.03125-0.23816 0.04974-0.2982 0.09966-0.15625 0.0625-0.1094 0.02878-0.20523 0.04934-0.3125 0.09375 0.14896-0.06011 0.12553-0.07948-0.15625 0.0625l-5.75 2.9062a1.0697 1.0697 0 0 0 -0.094 0.063c0.0024-0.0046-0.04344 0.01897-0.21875 0.15625-0.0299 0.02463-0.06441 0.03471-0.09375 0.0625-0.03066 0.02509-0.02774-0.0025-0.0625 0.03125-0.25864 0.24753-0.47898 0.68034-0.4375 1.1562a1.0697 1.0697 0 0 0 0 0.03125c-0.02667-0.24662-0.0055-0.08862 0.03125 0.125 0.0098 0.04408-0.0094-0.0046 0 0.03125 0.05332 0.20306 0.05614 0.17238 0.0625 0.15625 0.0011-0.0028 0.0014 0.0395 0 0.03125v1.5625a1.0697 1.0697 0 0 0 0.125 0.53125c0.41139 0.74317 1.181 1.0344 1.9375 1.0312h53.812c0.75639 0.0031 1.5261-0.28806 1.9375-1.0312a1.0697 1.0697 0 0 0 0.125 -0.531v-1.5938c0.01533-0.03903 0.05034-0.05182 0.0625-0.09375a1.0697 1.0697 0 0 0 0 -0.09375c0.07191-0.32537 0.03141-0.42088 0.03125-0.28125a1.0697 1.0697 0 0 0 0 -0.15625c-0.0021-0.01308-0.02882-0.01835-0.03125-0.03125-0.0013-0.01516 0.0052-0.03647 0-0.0625-0.0022-0.0093 0.0023-0.02206 0-0.03125-0.0035-0.02534-0.01855-0.04986-0.03125-0.09375-0.0068-0.02076-0.02358-0.04243-0.03125-0.0625-0.01417-0.0371-0.01465-0.09047-0.03125-0.125a1.0697 1.0697 0 0 0 0 -0.03125c-0.02551-0.05386-0.06382-0.07754-0.09375-0.125a1.0697 1.0697 0 0 0 -0.125 -0.1875 1.0697 1.0697 0 0 0 -0.063 -0.032c-0.0049-0.0057 0.0049-0.02564 0-0.03125a1.0697 1.0697 0 0 0 -0.031 -0.063c-0.000072-0.000069-0.04396-0.0183-0.0625-0.03125v0.03125c-0.0051-0.0051-0.02617 0.0049-0.03125 0l0.03125-0.03125c0.000081 0.000072-0.04274-0.01847-0.0625-0.03125-0.01202-0.0078-0.01515-0.02083-0.03125-0.03125a1.0697 1.0697 0 0 0 -0.03 -0.031c-0.02526-0.01761-0.04975-0.02237-0.0625-0.03125-0.0096-0.0062-0.02352 0.005-0.03125 0 0.000497 0.000154 0.000997-0.03028 0-0.03125-0.01-0.0097-0.02786-0.05973-0.15625-0.125a1.0697 1.0697 0 0 0 -0.0625 0l-0.22-0.094v-0.03125l-5.4688-2.7812a1.0697 1.0697 0 0 0 -0.125 -0.03125c-0.02218-0.0083-0.04017-0.02366-0.0625-0.03125-0.0272-0.0108-0.06444-0.02057-0.09375-0.03125-0.03819-0.01391-0.0817-0.0179-0.125-0.03125-0.03323-0.01024-0.05661-0.02155-0.09375-0.03125-0.0224-0.0073-0.03993-0.02455-0.0625-0.03125a1.0697 1.0697 0 0 0 -0.09375 -0.03125c-0.23334-0.0473-0.44154-0.03364-0.625-0.03125h-8.0938v-1.9375-5.9375h22.938c4.4521 0 8.0625-3.6104 8.0625-8.0625v-55c0-4.4541-3.61-8.0645-8.062-8.0645h-72zm63.812 82.188c0.07929 0.0014 0.251 0.0002 0.25 0-0.000029-0.000006-0.0011 0.03088 0 0.03125-0.04111-0.0046-0.19336-0.03459-0.25-0.03125z" fill="url(#linearGradient3971)"/>
  <path id="path3951" opacity=".3" d="m12 7c-3.878 0-7 3.122-7 7v55c0 3.878 3.122 7 7 7h24v7 3h-9.1562c-0.06979-0.0051-0.11771-0.0051-0.1875 0-0.07481 0.0065-0.14825 0.01703-0.21875 0.03125-0.03256 0.0068-0.06235 0.02303-0.09375 0.03125-0.06653 0.0175-0.12948 0.03848-0.1875 0.0625-0.02929 0.01182-0.06785 0.0182-0.09375 0.03125l-5.75 2.9062c-0.04788 0.02898-0.08984 0.06045-0.125 0.09375-0.0177 0.01386-0.0476 0.01678-0.0625 0.03125-0.08984 0.08598-0.13346 0.18413-0.125 0.28125 0.0011 0.01017-0.0023 0.02107 0 0.03125 0.0045 0.02024 0.02225 0.04235 0.03125 0.0625 0.008 0.02112 0.01843 0.042 0.03125 0.0625 0.0083 0.01224 0.02121 0.01916 0.03125 0.03125v1.8438c0.17072 0.3084 0.55856 0.50182 1 0.5h53.812c0.44144 0.0018 0.82928-0.1916 1-0.5v-1.8438c0.047-0.049 0.078-0.102 0.094-0.156 0.0045-0.02036-0.000023-0.04222 0-0.0625-0.005-0.03163-0.01551-0.06303-0.03125-0.09375-0.0027-0.0076 0.0034-0.02375 0-0.03125-0.01521-0.03211-0.03616-0.06353-0.0625-0.09375-0.0037-0.0043-0.02736 0.0042-0.03125 0 0.000585-0.01041 0.000585-0.02084 0-0.03125-0.0056-0.0054-0.02527 0.0053-0.03125 0-0.01818-0.02147-0.03907-0.04236-0.0625-0.0625-0.03158-0.02183-0.05486-0.04273-0.09375-0.0625l-0.282-0.124-5.468-2.782c-0.031-0.011-0.062-0.021-0.094-0.031-0.057-0.023-0.124-0.046-0.188-0.063-0.03-0.011-0.061-0.021-0.094-0.031-0.132-0.027-0.261-0.033-0.406-0.031h-9.156v-3-7h24c3.878 0 7-3.122 7-7v-55c0-3.878-3.122-7-7-7h-72z" fill="url(#linearGradient3971)"/>
  <path id="path3786" opacity="0.08" d="m12-95.031c-5.5111 0-10.031 4.5202-10.031 10.031v71c0 5.5111 4.5202 10.031 10.031 10.031h72c5.5111 0 10.031-4.5202 10.031-10.031v-71c0-5.5111-4.5202-10.031-10.031-10.031h-72z" transform="matrix(1,0,0,-1,100,0)" fill="url(#linearGradient3780)"/>
  <path id="path3778" opacity=".1" d="m12-94.031c-4.9716 0-9.0312 4.0596-9.0312 9.0312v71c0 4.9716 4.0596 9.0312 9.0312 9.0312h72c4.9716 0 9.0312-4.0596 9.0312-9.0312v-71c0-4.9716-4.0596-9.0312-9.0312-9.0312h-72z" transform="matrix(1,0,0,-1,100,0)" fill="url(#linearGradient3780)"/>
  <path id="path3770" opacity=".2" d="m12-93c-4.4091 0-8 3.5909-8 8v71c0 4.4091 3.5909 8 8 8h72c4.4091 0 8-3.5909 8-8v-71c0-4.4091-3.5909-8-8-8h-72z" transform="matrix(1,0,0,-1,100,0)" fill="url(#linearGradient3780)"/>
  <rect id="rect3723" opacity=".3" transform="scale(1,-1)" rx="7" ry="7" height="85" width="86" y="-92" x="105" fill="url(#linearGradient3725)"/>
  <rect id="rect3716" opacity=".45" transform="scale(1,-1)" rx="6" ry="6" height="84" width="84" y="-91" x="106" fill="url(#linearGradient3721)"/>
  <path id="path3929" opacity=".45" d="m12 7c-3.324 0-6 2.676-6 6v56c0 3.324 2.676 6 6 6h24v7 3h-8.1562c-0.06979-0.0051-0.11771-0.0051-0.1875 0a1.0904 0.55069 0 0 0 -0.21875 0.03125c-0.03256 0.0068-0.06235 0.02303-0.09375 0.03125a1.0904 0.55069 0 0 0 -0.1875 0.0625c-0.02929 0.01182-0.06785 0.0182-0.09375 0.03125l-5.75 2.9062a1.0904 0.55069 0 0 0 -0.125 0.09375c-0.0177 0.01386-0.0476 0.01678-0.0625 0.03125a1.0904 0.55069 0 0 0 -0.124 0.283c0.0011 0.01017-0.0023 0.02107 0 0.03125 0.0045 0.02024 0.02225 0.04235 0.03125 0.0625a1.0904 0.55069 0 0 0 0.03125 0.0625c0.0083 0.01224 0.02121 0.01916 0.03125 0.03125v1.8438c0.17072 0.3084 0.55856 0.50182 1 0.5h51.812c0.44144 0.0018 0.82928-0.1916 1-0.5v-1.8438a1.0904 0.55069 0 0 0 0.095 -0.157c0.0045-0.02036-0.000023-0.04222 0-0.0625a1.0904 0.55069 0 0 0 -0.03125 -0.09375c-0.0027-0.0076 0.0034-0.02375 0-0.03125a1.0904 0.55069 0 0 0 -0.0625 -0.09375c-0.0037-0.0043-0.02736 0.0042-0.03125 0a1.0904 0.55069 0 0 0 0 -0.03125c-0.0056-0.0054-0.02527 0.0053-0.03125 0a1.0904 0.55069 0 0 0 -0.063 -0.063c-0.031-0.022-0.055-0.043-0.093-0.063l-0.282-0.124-5.468-2.782a1.0904 0.55069 0 0 0 -0.094 -0.031c-0.05671-0.02251-0.12378-0.04585-0.1875-0.0625a1.0904 0.55069 0 0 0 -0.094 -0.031c-0.132-0.027-0.261-0.033-0.406-0.031h-8.156v-3-7h24c3.324 0 6-2.676 6-6v-56c0-3.324-2.676-6-6-6h-72z" fill="url(#linearGradient3963)"/>
 </g>
 <g id="layer4">
  <path id="path3742" d="m27.656 84c-0.21572 0.02037-0.43837 0.07797-0.59375 0.15625l-5.75 2.9062c-0.31111 0.15817-0.38947 0.38815-0.21875 0.59375v1.8437c0.17072 0.3084 0.55856 0.50182 1 0.5h51.812c0.44144 0.0018 0.82928-0.1916 1-0.5v-1.8437c0.17072-0.2056 0.09236-0.43558-0.21875-0.59375l-5.75-2.9062c-0.20974-0.10072-0.49192-0.16003-0.78125-0.15625h-40.312c-0.06979-0.0051-0.11771-0.0051-0.1875 0z" fill="#414141"/>
  <path id="path3732" d="m26.781 82.875a1.1365 1.1365 0 0 0 -0.59375 0.3125l-6 6a1.1365 1.1365 0 0 0 0.813 1.937h54a1.1365 1.1365 0 0 0 0.8125 -1.9375l-6-6a1.1365 1.1365 0 0 0 -0.812 -0.313h-42a1.1365 1.1365 0 0 0 -0.21875 0z" transform="matrix(.95939 0 0 .48454 1.9491 43.846)" fill="url(#linearGradient3831)"/>
  <path id="path3758" opacity=".6" d="m21.594 86.937-0.28125 0.125c-0.31111 0.15817-0.38947 0.38815-0.21875 0.59375s0.55856 0.34496 1 0.34375h51.812c0.44144 0.0012 0.82928-0.13815 1-0.34375s0.09236-0.43558-0.21875-0.59375l-0.28125-0.125c-0.15528 0.04133-0.31693 0.063-0.5 0.0625h-51.812c-0.18307 0.000503-0.34472-0.02117-0.5-0.0625z" fill="#fff"/>
  <rect id="rect3727" height="19" width="24" y="68" x="36" fill="url(#linearGradient3769)"/>
  <rect id="rect3781" opacity=".5" height="14" width="1" y="71" x="36" fill="url(#linearGradient3797)"/>
  <rect id="rect3799" opacity=".5" height="14" width="1" y="71" x="59" fill="url(#linearGradient3809)"/>
  <rect id="rect3811" opacity=".8" height="8" width="24" y="73" x="36" fill="url(#linearGradient3813)"/>
 </g>
 <g id="layer1">
  <rect id="rect2419-9" rx="6" ry="6" height="68" width="84" y="6" x="6" fill="url(#linearGradient3205)"/>
  <path id="rect3884" d="m6 66v2c0 3.324 2.676 6 6 6h72c3.324 0 6-2.676 6-6v-2c0 3.324-2.676 6-6 6h-72c-3.324 0-6-2.676-6-6z" fill="#b3b3b3"/>
  <path id="rect3728-7" opacity=".15" d="m12 6c-3.324 0-6 2.676-6 6v2 50.026 2c0 0.33472 0.04135 0.6507 0.09375 0.96875 0.0487 0.2956 0.09704 0.59692 0.1875 0.875 0.0099 0.03038 0.02089 0.0636 0.03125 0.09375 0.09886 0.28777 0.23488 0.54745 0.375 0.8125 0.14459 0.27351 0.31562 0.53562 0.5 0.78125 0.18438 0.24564 0.37378 0.47347 0.59375 0.6875 0.43995 0.42806 0.94291 0.81453 1.5 1.0938 0.27854 0.13961 0.57347 0.24695 0.875 0.34375-0.2562-0.10022-0.48671-0.23627-0.71875-0.375-0.0074-0.0044-0.02387 0.0045-0.03125 0-0.03193-0.0193-0.06229-0.04251-0.09375-0.0625-0.1204-0.0767-0.23102-0.16351-0.34375-0.25-0.10617-0.0808-0.21328-0.16111-0.3125-0.25-0.17793-0.16143-0.34746-0.34539-0.5-0.53125-0.10758-0.13026-0.21839-0.26528-0.3125-0.40625-0.02509-0.03838-0.03845-0.08587-0.0625-0.125-0.0646-0.102-0.1301-0.204-0.1873-0.312-0.1011-0.194-0.2057-0.415-0.2813-0.625-0.008-0.022-0.0236-0.04-0.0313-0.062-0.0318-0.092-0.0358-0.187-0.0624-0.282-0.0304-0.106-0.0704-0.203-0.0938-0.312-0.0729-0.342-0.125-0.698-0.125-1.063v-2-50.026-2c0-2.782 2.2182-5 5-5h2 68 2c2.7818 0 5 2.2182 5 5v2 50.026 2c0 0.3643-0.05212 0.72099-0.125 1.0625-0.04415 0.20689-0.08838 0.39766-0.15625 0.59375-0.0077 0.02195-0.0233 0.04069-0.03125 0.0625-0.06274 0.17374-0.13838 0.36745-0.21875 0.53125-0.04158 0.0828-0.07904 0.16995-0.125 0.25-0.0546 0.09721-0.12677 0.18835-0.1875 0.28125-0.09411 0.14096-0.20492 0.276-0.3125 0.40625-0.14317 0.17445-0.30314 0.347-0.46875 0.5-0.01117 0.0102-0.01998 0.02116-0.03125 0.03125-0.13839 0.12556-0.28509 0.23444-0.4375 0.34375-0.10257 0.07315-0.20432 0.15336-0.3125 0.21875-0.0074 0.0045-0.02384-0.0044-0.03125 0-0.23204 0.13873-0.46255 0.27478-0.71875 0.375 0.30153-0.0968 0.59646-0.20414 0.875-0.34375 0.55709-0.27922 1.0601-0.66569 1.5-1.0938 0.21997-0.21403 0.40937-0.44186 0.59375-0.6875s0.35541-0.50774 0.5-0.78125c0.14012-0.26505 0.27614-0.52473 0.375-0.8125 0.01041-0.03078 0.02133-0.06274 0.03125-0.09375 0.09046-0.27808 0.1388-0.5794 0.1875-0.875 0.053-0.318 0.094-0.634 0.094-0.969v-2-50.026-2c0-3.324-2.676-6-6-6h-72z" fill="url(#linearGradient3922)"/>
  <path id="path3215" d="m12.062 12.062v53.875h71.875v-53.875h-71.875z" transform="matrix(-1.0017 0 0 -1.0023 96.083 78.09)" fill="url(#radialGradient3465)"/>
  <path id="rect3291" d="m6 67v1c0 3.324 2.676 6 6 6h72c3.324 0 6-2.676 6-6v-1c0 3.324-2.676 6-6 6h-72c-3.324 0-6-2.676-6-6z" fill="#b3b3b3"/>
  <path id="path4001" opacity="0.08" d="m12 12v54h72v-54h-72zm2 2h68v50h-68v-50z"/>
  <path id="path3374" opacity=".15" d="m12.062 12.062v53.875h71.875v-53.875h-71.875z" transform="matrix(.98781 0 0 .98374 .58502 .63414)" stroke="#000" stroke-linecap="square" stroke-width="1.0154" fill="none"/>
  <rect id="rect3724" opacity=".4" height="1" width="72" y="66.064" x="12" fill="#fff"/>
  <rect id="rect2419" rx="6" ry="6" height="84" width="84" y="6" x="-94" fill="url(#linearGradient3617)"/>
  <path id="path3615" opacity=".15" d="m12 74c-3.324 0-6-2.676-6-6v-2-52-2c0-0.33472 0.0413-0.6507 0.0937-0.96875 0.0487-0.2956 0.097-0.59692 0.1875-0.875 0.01-0.03038 0.0209-0.0636 0.0312-0.09375 0.0989-0.2873 0.2349-0.547 0.375-0.812 0.1446-0.2735 0.3156-0.5356 0.5-0.7812 0.1844-0.2457 0.3738-0.4735 0.5938-0.6876 0.4399-0.428 0.9429-0.8145 1.5-1.0937 0.2785-0.1396 0.5734-0.2469 0.8748-0.3437-0.256 0.1002-0.4866 0.2362-0.7186 0.375-0.007 0.0044-0.0239-0.0045-0.0312 0-0.0319 0.0193-0.0623 0.04251-0.0937 0.0625-0.1204 0.0767-0.23102 0.16351-0.34375 0.25-0.10617 0.0808-0.21328 0.16111-0.3125 0.25-0.1779 0.1614-0.3474 0.3453-0.5 0.5312-0.1075 0.1303-0.2183 0.2653-0.3124 0.4063-0.0252 0.0383-0.0384 0.0858-0.0626 0.125-0.0648 0.103-0.1302 0.2045-0.1874 0.3124-0.1011 0.1948-0.2057 0.4158-0.2813 0.625-0.008 0.0219-0.0236 0.0406-0.0312 0.0626-0.0318 0.0919-0.0358 0.1868-0.0625 0.2812-0.0303 0.1066-0.0704 0.203-0.0937 0.3125-0.073 0.3415-0.1251 0.6985-0.1251 1.0625v2 52 2c0 2.7818 2.5118 6.2441 5 5h2 68 2c2.7818 0 5-2.2182 5-5v-2-52-2c0-0.364-0.052-0.721-0.125-1.0625-0.044-0.2069-0.088-0.3977-0.156-0.5937-0.008-0.022-0.024-0.0407-0.031-0.0626-0.063-0.1737-0.139-0.3674-0.219-0.5312-0.042-0.0828-0.079-0.17-0.125-0.25-0.055-0.0972-0.127-0.1884-0.188-0.2812-0.094-0.141-0.205-0.276-0.312-0.4063-0.143-0.1745-0.303-0.347-0.469-0.5-0.011-0.0102-0.02-0.0211-0.031-0.0313-0.139-0.1255-0.285-0.2344-0.438-0.3437-0.102-0.0731-0.204-0.1534-0.312-0.2187-0.0074-0.0045-0.02384 0.0044-0.03125 0-0.23204-0.13873-0.46255-0.27478-0.71875-0.375 0.30153 0.0968 0.59646 0.20414 0.875 0.34375 0.55709 0.27922 1.0601 0.66569 1.5 1.0938 0.21997 0.21403 0.40937 0.44186 0.59375 0.6875s0.35541 0.50774 0.5 0.78125c0.14012 0.26505 0.27614 0.52473 0.375 0.8125 0.01041 0.03078 0.02133 0.06274 0.03125 0.09375 0.09046 0.27808 0.1388 0.5794 0.1875 0.875 0.053 0.318 0.094 0.634 0.094 0.969v2 52 2c0 3.324-2.676 6-6 6z" fill="url(#radialGradient3619)"/>
  <path id="path3992" opacity=".3" d="m12 12v1h72v-1h-72z"/>
  <path id="path2669" opacity=".5" d="m49.656 14.125 17.031 50.75h1l-17.031-50.75z" fill-rule="evenodd" fill="url(#linearGradient3129)"/>
  <path id="path3664" opacity=".7" d="m49.656 14.125 17.031 50.75h14.312c0.5388 0 0.875-0.3362 0.875-0.875v-49c0-0.5388-0.33619-0.875-0.875-0.875z" fill-rule="evenodd" fill="url(#linearGradient4126)"/>
  <path id="path4128" opacity=".25" d="m47.375 8 1.0312 2.9375h35.594c0.58434 0.0059 1.0566 0.47816 1.0625 1.0625v55c-0.005 0.584-0.478 1.057-1.062 1.062h-14.25l1.375 3.875h14.406c1.2791-0.16353 2.3147-0.91678 2.9062-1.9688-0.07832 0.08832-0.13258 0.19741-0.21875 0.28125-0.43995 0.42806-0.94291 0.81453-1.5 1.0938-0.27854 0.13961-0.57347 0.24695-0.875 0.34375 0.2562-0.10022 0.48671-0.23627 0.71875-0.375 0.0074-0.0044 0.02385 0.0045 0.03125 0 0.10818-0.06539 0.20993-0.1456 0.3125-0.21875 0.15241-0.10931 0.29911-0.21819 0.4375-0.34375 0.01127-0.01009 0.02008-0.02105 0.03125-0.03125 0.16561-0.153 0.32558-0.32555 0.46875-0.5 0.10758-0.13026 0.21839-0.26528 0.3125-0.40625 0.06073-0.0929 0.1329-0.18404 0.1875-0.28125 0.04596-0.08005 0.08342-0.1672 0.125-0.25 0.08037-0.1638 0.15601-0.35751 0.21875-0.53125 0.0079-0.02181 0.02355-0.04055 0.03125-0.0625 0.06787-0.19609 0.1121-0.38686 0.15625-0.59375 0.0236-0.11059 0.04432-0.23023 0.0625-0.34375v-55.5c-0.363-2.4121-2.416-4.25-4.937-4.25h-2-34.625z" fill-rule="evenodd" fill="url(#linearGradient3926)"/>
  <g id="g3895" transform="matrix(1,0,0,1.5,0,-37)">
   <g id="g3302" transform="translate(0,2)">
    <rect id="rect3296" height="2" width="6" y="70" x="56" fill="#b3b3b3"/>
    <rect id="rect3298" opacity=".4" height="2" width="1" y="70" x="56" fill="#fff"/>
    <rect id="rect3300" opacity=".4" height="2" width="1" y="70" x="61"/>
   </g>
   <g id="g3307" transform="translate(6,2)">
    <rect id="rect3309" height="2" width="6" y="70" x="56" fill="#b3b3b3"/>
    <rect id="rect3311" opacity=".4" height="2" width="1" y="70" x="56" fill="#fff"/>
    <rect id="rect3313" opacity=".4" height="2" width="1" y="70" x="61"/>
   </g>
   <g id="g3315" transform="translate(12,2)">
    <rect id="rect3317" height="2" width="6" y="70" x="56" fill="#b3b3b3"/>
    <rect id="rect3319" opacity=".4" height="2" width="1" y="70" x="56" fill="#fff"/>
    <rect id="rect3321" opacity=".4" height="2" width="1" y="70" x="61"/>
   </g>
   <g id="g3323" transform="translate(18,2)">
    <rect id="rect3325" height="2" width="6" y="70" x="56" fill="#b3b3b3"/>
    <rect id="rect3327" opacity=".4" height="2" width="1" y="70" x="56" fill="#fff"/>
    <rect id="rect3329" opacity=".4" height="2" width="1" y="70" x="61"/>
   </g>
  </g>
 </g>
 <g id="layer5" display="none">
  <rect id="rect3171" height="66" stroke="#fff" stroke-linecap="round" stroke-width=".5" fill="url(#linearGradient3613)" rx="12" ry="12" width="66" opacity=".1" clip-path="url(#clipPath3613)" filter="url(#filter3794)" y="15" x="15"/>
 </g>
 <g id="layer6">
  <path id="path4087" opacity=".05" style="color:#000000" d="m48 21.031c-6.5799 0-11.969 5.3888-11.969 11.969v3.1875c-1.725 0.444-3.031 1.957-3.031 3.812v4c0 0.537 0.18198 0.73402 0.34375 1-0.162 0.266-0.344 0.463-0.344 1v4c0 0.537 0.18198 0.73402 0.34375 1-0.162 0.266-0.344 0.463-0.344 1v4c0 2.1946 1.8054 4 4 4h22c2.1946 0 4-1.8054 4-4v-4c0-0.537-0.182-0.734-0.344-1 0.162-0.266 0.344-0.463 0.344-1v-4c0-0.537-0.182-0.734-0.344-1 0.162-0.266 0.344-0.463 0.344-1v-4c0-1.8549-1.3064-3.3683-3.0312-3.8125v-3.1875c0-6.58-5.389-11.969-11.969-11.969zm0 9c1.8538 0 2.9688 1.115 2.9688 2.9688v3h-5.9375v-3c0-1.8538 1.115-2.9688 2.9688-2.9688z"/>
  <path id="path4082" opacity="0.08" style="color:#000000" d="m48 22c-6.0504 0-11 4.9496-11 11v3.9688c-1.6596 0-3.0312 1.3716-3.0312 3.0312v4c0 0.51212 0.23421 0.71601 0.40625 1-0.17204 0.28399-0.40625 0.48788-0.40625 1v4c0 0.51212 0.23421 0.71601 0.40625 1-0.17204 0.28399-0.40625 0.48788-0.40625 1v4c0 1.6596 1.3716 3.0312 3.0312 3.0312h22c1.6596 0 3.0312-1.3716 3.0312-3.0312v-4c0-0.51212-0.23421-0.71601-0.40625-1 0.17204-0.28399 0.40625-0.48788 0.40625-1v-4c0-0.51212-0.23421-0.71601-0.40625-1 0.17204-0.28399 0.40625-0.48788 0.40625-1v-4c0-1.6596-1.3716-3.0312-3.0312-3.0312v-3.969c0-6.05-4.95-11-11-11zm0 7.0625c2.3099 0 3.9375 1.6276 3.9375 3.9375v3.9688h-7.875v-3.9688c0-2.3099 1.6276-3.9375 3.9375-3.9375z"/>
  <path id="path4078" opacity="0.12" style="color:#000000" d="m48 23.062c-5.4779 0-9.9375 4.4596-9.9375 9.9375v5.0312h-1.0625c-1.0751 0-1.9688 0.89365-1.9688 1.9688v4c0 0.39175 0.23428 0.69052 0.4375 1-0.20322 0.30948-0.4375 0.60825-0.4375 1v4c0 0.39175 0.23428 0.69052 0.4375 1-0.20322 0.30948-0.4375 0.60825-0.4375 1v4c0 1.0751 0.89365 1.9688 1.9688 1.9688h22c1.0751 0 1.9688-0.89365 1.9688-1.9688v-4c0-0.39175-0.23428-0.69052-0.4375-1 0.20322-0.30948 0.4375-0.60825 0.4375-1v-4c0-0.39175-0.23428-0.69052-0.4375-1 0.20322-0.30948 0.4375-0.60825 0.4375-1v-4c0-1.0751-0.89365-1.9688-1.9688-1.9688h-1.0625v-5.0312c0-5.4779-4.4596-9.9375-9.9375-9.9375zm0 4.938c2.8433 0 5 2.1567 5 5v5.0312h-10v-5.031c0-2.8433 2.1567-5 5-5z"/>
  <path id="path4063" opacity=".3" style="color:#000000" d="m48 24.031c-4.9531 0-8.9688 4.0156-8.9688 8.9688v6h-2.031c-0.554 0-1 0.446-1 1v4c0 0.554 0.446 1 1 1-0.554 0-1 0.446-1 1v4c0 0.554 0.446 1 1 1-0.554 0-1 0.446-1 1v4c0 0.554 0.446 1 1 1h22c0.554 0 1-0.446 1-1v-4c0-0.554-0.446-1-1-1 0.554 0 1-0.446 1-1v-4c0-0.554-0.446-1-1-1 0.554 0 1-0.446 1-1v-4c0-0.554-0.446-1-1-1h-2.0312v-6c0-4.9531-4.0156-8.9688-8.9688-8.9688zm0 3c3.3495 0 5.9688 2.6193 5.9688 5.9688v6h-11.938v-6c0-3.3495 2.6193-5.9688 5.9688-5.9688z"/>
  <path id="path3974" style="color:#000000" d="m48 23.031c-4.9531 0-8.9688 4.0156-8.9688 8.9688v8c0 4.9531 4.0156 8.9688 8.9688 8.9688 4.9531 0 8.9688-4.0156 8.9688-8.9688v-8c0-4.9531-4.0156-8.9688-8.9688-8.9688zm0 3c3.3495 0 5.9688 2.6193 5.9688 5.9688v8c0 3.3495-2.6193 5.9688-5.9688 5.9688s-5.9688-2.6193-5.9688-5.9688v-8c0-3.3495 2.6193-5.9688 5.9688-5.9688z" fill="url(#linearGradient3983)"/>
  <path id="rect3985" opacity=".1" style="color:#000000" d="m48 25c-3.878 0-7 3.122-7 7v12c0 0.66189 0.11112 1.3002 0.28125 1.9062 1.6439 1.8741 4.0301 3.0625 6.7188 3.0625 2.6886 0 5.0749-1.1884 6.7188-3.0625 0.17-0.606 0.281-1.244 0.281-1.906v-12c0-3.878-3.122-7-7-7zm0 1.0312c3.3495 0 5.9688 2.6193 5.9688 5.9688v8c0 3.3495-2.6193 5.9688-5.9688 5.9688s-5.9688-2.6193-5.9688-5.9688v-8c0-3.3495 2.6193-5.9688 5.9688-5.9688z"/>
  <path id="path3993" opacity=".2" style="color:#000000" d="m48 25.312c-3.7028 0-6.6875 2.9847-6.6875 6.6875v12c0 0.59376 0.13129 1.1617 0.28125 1.7188 1.584 1.7785 3.8381 2.9375 6.4062 2.9375s4.8223-1.159 6.4062-2.9375c0.15-0.557 0.282-1.125 0.282-1.719v-12c0-3.7028-2.9847-6.6875-6.6875-6.6875zm0 0.40625c3.5197 0 6.2812 2.7616 6.2812 6.2812v8c0 3.5197-2.7616 6.2812-6.2812 6.2812-3.5197 0-6.2812-2.7616-6.2812-6.2812v-8c0-3.5197 2.7616-6.2812 6.2812-6.2812z" transform="matrix(.95522 0 0 .98760 2.1493 .60355)"/>
  <path id="path3995" opacity=".2" style="color:#000000" d="m48 23.031c-4.9531 0-8.9688 4.0156-8.9688 8.9688v8c0 4.8035 3.7854 8.7049 8.5312 8.9375-4.522-0.453-8.062-4.241-8.062-8.813v-7.875c0-4.8771 4.0156-8.8125 8.9688-8.8125 1.9615 0 3.7737 0.60426 5.25 1.6562-1.551-1.28-3.552-2.063-5.719-2.063zm3.8438 4.3438c1.3108 1.086 2.125 2.7495 2.125 4.625v8c0 3.3495-2.6193 5.9688-5.9688 5.9688-0.17802 0-0.35764-0.01674-0.53125-0.03125 0.32453 0.05172 0.65826 0.0625 1 0.0625 3.3495 0 5.9688-2.5769 5.9688-5.875v-7.875c0-2.0613-1.0086-3.8295-2.5938-4.875z" fill="url(#linearGradient4011)"/>
  <path id="path4013" opacity=".1" style="color:#000000" d="m48 23.031c-4.9531 0-8.9688 4.0156-8.9688 8.9688v8h0.78125v-8c0-4.8145 3.8013-8.7526 8.5625-8.9688-0.12664-0.0053-0.24706 0-0.375 0z"/>
  <path id="path4024" opacity=".15" style="color:#000000" d="m48 23.031c-0.17096 0-0.3314 0.02181-0.5 0.03125 4.7161 0.2641 8.4688 4.1554 8.4688 8.9375v8c0 4.7821-3.7526 8.6734-8.4688 8.9375 0.1686 0.0094 0.32904 0.03125 0.5 0.03125 4.9531 0 8.9688-4.0156 8.9688-8.9688v-8c0-4.9531-4.0156-8.9688-8.9688-8.9688zm-1 3c-3.3495 0-5.9688 2.6193-5.9688 5.9688v8c0 3.3495 2.6193 5.9688 5.9688 5.9688 0.12581 0 0.25135-0.02396 0.375-0.03125-3.048-0.301-5.344-2.798-5.344-5.938v-8c0-3.1401 2.2961-5.6375 5.3438-5.9375-0.124-0.007-0.249-0.031-0.375-0.031z" fill="url(#linearGradient4039)"/>
  <path id="path4041" opacity=".2" style="color:#000000" d="m47.75 23.031c4.8204 0.15145 8.6875 4.1116 8.6875 8.9688v8c0 4.8571-3.8671 8.8173-8.6875 8.9688 0.08472 0.0024 0.1647 0 0.25 0 4.9531 0 8.9688-4.0156 8.9688-8.9688v-8c0-4.9531-4.0156-8.9688-8.9688-8.9688-0.0853 0-0.16528-0.0024-0.25 0zm-0.28125 3c-3.35 0-5.969 2.62-5.969 5.969v8c0 3.3495 2.6193 5.9688 5.9688 5.9688 0.09397 0 0.18847 0.0041 0.28125 0-3.229-0.126-5.719-2.703-5.719-5.969v-8c0-3.2659 2.4895-5.8425 5.7188-5.9688-0.09278-0.0041-0.18728 0-0.28125 0z"/>
  <path id="rect4052" opacity=".3" style="block-progression:tb;text-indent:0;color:#000000;text-transform:none" d="m47.969 24.5 0.78125 0.03125h0.03125l0.71875 0.125h0.03125l0.6875 0.1875h0.03125l0.65625 0.21875 0.03125 0.03125 0.625 0.28125 0.03125 0.03125 0.59375 0.34375 0.03125 0.03125 0.15625 0.125 0.471 0.094 0.312-0.344-0.094-0.468-0.093-0.063-0.188-0.156-0.031-0.031-0.656-0.407-0.063-0.031-0.687-0.312-0.063-0.032-0.719-0.281h-0.0625l-0.75-0.1875-0.0625-0.03125-0.78125-0.125h-0.0625l-0.812-0.031c-0.95631-0.06672-1.1523 1.089-0.0625 1zm-4 0-0.0625 0.03125-0.65625 0.40625-0.03125 0.03125-0.625 0.4375l-0.032 0.032-0.562 0.531-0.031 0.031-0.53125 0.5625-0.03125 0.03125-0.4375 0.625-0.03125 0.03125-0.40625 0.65625-0.03125 0.0625-0.28125 0.625v0.46875l0.40625 0.25 0.437-0.187 0.063-0.125 0.25-0.562 0.031-0.032 0.344-0.594 0.031-0.031 0.407-0.531 0.03125-0.03125 0.46875-0.5h0.03125v-0.03125l0.5-0.46875 0.031-0.031 0.531-0.407 0.031-0.031 0.594-0.344 0.032-0.031 0.593-0.25c0.712-0.467-0.031-1.125-0.437-0.906z" fill="#fff"/>
  <path id="path4061" opacity=".6" style="block-progression:tb;text-indent:0;color:#000000;text-transform:none" d="m48.031 23.688c-0.3993-0.02786-0.5759 0.19484-0.59375 0.34375-0.0089 0.07446-0.0071 0.13251 0.0625 0.1875 0.06958 0.05499 0.19869 0.11324 0.4375 0.09375a0.1949 0.1949 0 0 1 0.03125 0l0.78125 0.03125h0.03125a0.1949 0.1949 0 0 1 0.03125 0l0.6875 0.125h0.03125a0.1949 0.1949 0 0 1 0.03125 0 0.1949 0.1949 0 0 1 0.03125 0l0.625 0.1875h0.0625a0.1949 0.1949 0 0 1 0.03125 0l0.65625 0.21875a0.1949 0.1949 0 0 1 0.0625 0.03125l0.625 0.28125a0.1949 0.1949 0 0 1 0.03125 0.03125 0.1949 0.1949 0 0 1 0 0.03125l0.03125 0.03125 0.5625 0.3125a0.1949 0.1949 0 0 1 0.03125 0 0.1949 0.1949 0 0 1 0 0.03125h0.03125l0.125 0.09375 0.033 0.031 0.25 0.03125 0.1875-0.1875-0.0625-0.3125a0.1949 0.1949 0 0 1 -0.03125 0l-0.188-0.156a0.1949 0.1949 0 0 1 0 -0.03125l-0.031-0.032-0.625-0.374v0.031l-0.062-0.031-0.688-0.313-0.03125-0.03125h-0.03125l-0.688-0.282a0.1949 0.1949 0 0 1 -0.03125 0 0.1949 0.1949 0 0 1 -0.03125 0l-0.75-0.1875a0.1949 0.1949 0 0 1 -0.03125 0l-0.0625-0.03125-0.6875-0.125h-0.03125-0.03125l-0.8125-0.03125zm-3.343 0.687a0.1949 0.1949 0 0 1 0 0.03125l-0.626 0.282-0.062 0.031v-0.03125l-0.625 0.375-0.03125 0.03125a0.1949 0.1949 0 0 1 0 0.03125l-0.625 0.4375h-0.03125a0.1949 0.1949 0 0 1 0 0.03125l-0.563 0.532-0.531 0.563a0.1949 0.1949 0 0 1 -0.03125 0v0.03125l-0.4375 0.625a0.1949 0.1949 0 0 1 -0.03125 0l-0.033 0.031-0.374 0.625h0.03125l-0.03125 0.0625-0.28125 0.625v0.28125l0.21875 0.125 0.28125-0.125 0.03125-0.0625 0.25-0.5625a0.1949 0.1949 0 0 1 0.03125 -0.03125 0.1949 0.1949 0 0 1 0.03125 0l0.03125-0.03125 0.3125-0.5625a0.1949 0.1949 0 0 1 0 -0.03125 0.1949 0.1949 0 0 1 0.03125 0v-0.03125l0.40625-0.53125a0.1949 0.1949 0 0 1 0.03125 0v-0.03125l0.46875-0.46875a0.1949 0.1949 0 0 1 0 -0.03125 0.1949 0.1949 0 0 1 0.03125 -0.03125 0.1949 0.1949 0 0 1 0.03125 0 0.1949 0.1949 0 0 1 0 -0.03125h0.03125l0.46875-0.46875h0.03125a0.1949 0.1949 0 0 1 0 -0.03125l0.53125-0.40625h0.03125a0.1949 0.1949 0 0 1 0.03125 -0.03125l0.5625-0.3125 0.03-0.032a0.1949 0.1949 0 0 1 0.0625 -0.0625l0.5625-0.21875c0.02063-0.01354 0.01444-0.01822 0.03125-0.03125 0.10328-0.08006 0.14581-0.16503 0.15625-0.21875 0.01214-0.06247-0.01479-0.12428-0.0625-0.1875s-0.1107-0.13087-0.1875-0.15625-0.14368-0.0236-0.1875 0z" fill="#fff"/>
  <rect id="rect3138" style="color:#000000" rx="1" ry="1" height="6" width="24" y="38" x="36" fill="url(#linearGradient3933)"/>
  <path id="rect3148" opacity=".3" style="color:#000000" d="m37 38c-0.554 0-1 0.446-1 1v1c0-0.554 0.446-1 1-1h22c0.554 0 1 0.446 1 1v-1c0-0.554-0.446-1-1-1h-22z" fill="#fff"/>
  <path id="rect3921" opacity=".15" style="color:#000000" d="m36 42v1c0 0.554 0.446 1 1 1h22c0.554 0 1-0.446 1-1v-1c0 0.554-0.446 1-1 1h-22c-0.554 0-1-0.446-1-1z" fill="#a05a2c"/>
  <rect id="rect3939" style="color:#000000" rx="1" ry="1" height="6" width="24" y="44" x="36" fill="url(#linearGradient3945)"/>
  <path id="path3941" opacity=".3" style="color:#000000" d="m37 44c-0.554 0-1 0.446-1 1v1c0-0.554 0.446-1 1-1h22c0.554 0 1 0.446 1 1v-1c0-0.554-0.446-1-1-1h-22z" fill="#fff"/>
  <path id="path3943" opacity=".15" style="color:#000000" d="m36 48v1c0 0.554 0.446 1 1 1h22c0.554 0 1-0.446 1-1v-1c0 0.554-0.446 1-1 1h-22c-0.554 0-1-0.446-1-1z" fill="#a05a2c"/>
  <rect id="rect3947" style="color:#000000" rx="1" ry="1" height="6" width="24" y="50" x="36" fill="url(#linearGradient3954)"/>
  <path id="path3949" opacity=".3" style="color:#000000" d="m37 50c-0.554 0-1 0.446-1 1v1c0-0.554 0.446-1 1-1h22c0.554 0 1 0.446 1 1v-1c0-0.554-0.446-1-1-1h-22z" fill="#fff"/>
  <path id="path3952" opacity=".15" style="color:#000000" d="m36 54v1c0 0.554 0.446 1 1 1h22c0.554 0 1-0.446 1-1v-1c0 0.554-0.446 1-1 1h-22c-0.554 0-1-0.446-1-1z" fill="#a05a2c"/>
 </g>
</svg>
